<svg xmlns="http://www.w3.org/2000/svg" xmlns:xlink="http://www.w3.org/1999/xlink" viewBox="0 0 40 40" version="1.1">
	<g id="surface1">
		<path style=" fill:#B6DCFE;" d="M 1 39 L 39 39 L 39 31.878906 C 37.691406 31.613281 36.148438 31 35 31 C 33.542969 31 31.4375 32 30 32 C 28.5625 32 26.457031 31 25 31 C 23.542969 31 21.4375 32 20 32 C 18.5625 32 16.457031 31 15 31 C 13.542969 31 11.4375 32 10 32 C 8.5625 32 6.457031 31 5 31 C 3.851563 31 2.308594 31.613281 1 31.878906 Z "></path>
		<path style="fill:none;stroke-width:1;stroke-linecap:round;stroke-linejoin:miter;stroke:#4788C7;stroke-opacity:1;stroke-miterlimit:10;" d="M 1.5 32.277344 C 1.863281 32.191406 2.238281 32.085938 2.613281 31.980469 C 3.460938 31.746094 4.335938 31.5 5 31.5 C 5.664063 31.5 6.535156 31.746094 7.382813 31.984375 C 8.28125 32.238281 9.214844 32.5 10 32.5 C 10.785156 32.5 11.71875 32.238281 12.617188 31.984375 C 13.464844 31.746094 14.335938 31.5 15 31.5 C 15.664063 31.5 16.535156 31.746094 17.382813 31.984375 C 18.28125 32.238281 19.214844 32.5 20 32.5 C 20.785156 32.5 21.71875 32.238281 22.617188 31.984375 C 23.464844 31.746094 24.335938 31.5 25 31.5 C 25.664063 31.5 26.535156 31.746094 27.382813 31.984375 C 28.28125 32.238281 29.214844 32.5 30 32.5 C 30.785156 32.5 31.71875 32.238281 32.617188 31.984375 C 33.464844 31.746094 34.335938 31.5 35 31.5 C 35.664063 31.5 36.539063 31.746094 37.386719 31.980469 C 37.761719 32.085938 38.136719 32.191406 38.5 32.277344 "></path>
		<path style=" fill:#98CCFD;" d="M 2.984375 31.5 C 7.226563 28.976563 17.695313 21.230469 19.449219 5.5 L 21.445313 5.5 C 19.519531 23.371094 11.894531 30.566406 10.816406 31.5 Z "></path>
		<path style=" fill:#4788C7;" d="M 20.886719 6 C 18.957031 22.640625 12.015625 29.734375 10.628906 31 L 4.699219 31 C 9.535156 27.742188 18.164063 20.0625 19.894531 6 L 20.886719 6 M 22 5 L 19 5 C 17 25 1 32 1 32 L 11 32 C 11 32 20 25 22 5 Z "></path>
		<path style=" fill:#B6DCFE;" d="M 8.9375 19.773438 C 7.230469 16.160156 7.0625 12.773438 8.5 10.355469 C 10.210938 7.480469 14.199219 5.828125 20.09375 5.542969 C 17.429688 7.316406 12.234375 11.605469 8.9375 19.773438 Z "></path>
		<path style=" fill:#4788C7;" d="M 18.367188 6.175781 C 15.640625 8.289063 11.734375 12.167969 8.933594 18.503906 C 7.734375 15.449219 7.71875 12.648438 8.929688 10.613281 C 10.378906 8.171875 13.609375 6.664063 18.367188 6.175781 M 22 5 C 5.714844 5 5.125 13.875 9 21 C 13.375 9.125 22 5 22 5 Z "></path>
		<path style=" fill:#B6DCFE;" d="M 1.570313 11.746094 C 2.074219 7.230469 5.300781 1.5 13 1.5 C 16.695313 1.5 19.863281 3.78125 20.414063 5.5 L 18.574219 5.496094 C 11.816406 5.496094 7.855469 5.785156 1.570313 11.746094 Z "></path>
		<path style=" fill:#4788C7;" d="M 13 2 C 16.132813 2 18.613281 3.683594 19.570313 4.996094 L 18.574219 4.996094 C 12.261719 4.996094 8.144531 5.269531 2.3125 10.394531 C 3.253906 6.378906 6.414063 2 13 2 M 13 1 C 4 1 1 8.46875 1 13 C 7.675781 6.324219 11.5625 5.996094 18.574219 5.996094 C 19.34375 5.996094 20.148438 6 21 6 C 21 4 17.347656 1 13 1 Z "></path>
		<path style=" fill:#B6DCFE;" d="M 28.734375 21.398438 C 28.390625 17.871094 27.058594 9.425781 22.132813 5.550781 C 26.613281 5.820313 29.515625 7.152344 30.769531 9.515625 C 32.78125 13.304688 30.152344 18.882813 28.734375 21.398438 Z "></path>
		<path style=" fill:#4788C7;" d="M 23.566406 6.183594 C 27.027344 6.613281 29.296875 7.808594 30.328125 9.746094 C 31.917969 12.742188 30.390625 17.007813 29.042969 19.75 C 28.519531 16.007813 27.144531 9.882813 23.566406 6.183594 M 20.355469 5 C 27.816406 8.816406 28.355469 23 28.355469 23 C 28.355469 23 40.539063 5 20.355469 5 Z "></path>
		<path style=" fill:#B6DCFE;" d="M 35.480469 13.765625 C 34.714844 12.988281 34.039063 12.285156 33.421875 11.644531 C 28.882813 6.925781 27.578125 5.570313 20.566406 5.503906 C 21.015625 3.734375 23.722656 1.5 27.339844 1.5 C 33.636719 1.5 35.289063 7.902344 35.480469 13.765625 Z "></path>
		<path style=" fill:#4788C7;" d="M 27.339844 2 C 32.785156 2 34.53125 7.230469 34.910156 12.46875 C 34.511719 12.054688 34.136719 11.667969 33.78125 11.296875 C 29.292969 6.628906 27.890625 5.171875 21.3125 5.015625 C 22.089844 3.648438 24.273438 2 27.339844 2 M 27.339844 1 C 22.992188 1 20 3.964844 20 6 C 28.621094 6 28.59375 7.59375 36 15 C 36 9 34.589844 1 27.339844 1 Z "></path>
		<path style=" fill:#DFF0FE;" d="M 14.15625 31 C 4.945313 31 1 31 1 31 L 1 39 L 26 39 C 26 39 20.738281 31 14.15625 31 Z "></path>
		<path style="fill:none;stroke-width:1;stroke-linecap:round;stroke-linejoin:miter;stroke:#4788C7;stroke-opacity:1;stroke-miterlimit:10;" d="M 1.5 31.5 L 14.15625 31.5 C 19.199219 31.5 23.523438 36.53125 25.019531 38.5 "></path>
	</g>
</svg>