<svg xmlns="http://www.w3.org/2000/svg" xmlns:xlink="http://www.w3.org/1999/xlink" viewBox="0 0 40 40" version="1.1">
	<g id="surface1">
		<path style=" fill:#DFF0FE;" d="M 8 27.5 C 3.863281 27.5 0.5 24.136719 0.5 20 C 0.5 16.566406 2.828125 13.578125 6.160156 12.738281 L 6.566406 12.632813 L 6.535156 12.214844 C 6.515625 11.933594 6.5 11.71875 6.5 11.5 C 6.5 5.984375 10.984375 1.5 16.5 1.5 C 21.183594 1.5 25.1875 4.6875 26.234375 9.25 L 26.347656 9.730469 L 26.828125 9.628906 C 27.21875 9.542969 27.613281 9.5 28 9.5 C 30.722656 9.5 33.003906 11.453125 33.425781 14.144531 L 33.484375 14.515625 L 33.855469 14.5625 C 37.074219 14.988281 39.5 17.753906 39.5 21 C 39.5 24.585938 36.585938 27.5 33 27.5 Z "></path>
		<path style=" fill:#4788C7;" d="M 16.5 2 C 20.949219 2 24.753906 5.027344 25.75 9.363281 L 25.96875 10.324219 L 26.933594 10.117188 C 27.292969 10.039063 27.648438 10 28 10 C 30.476563 10 32.550781 11.777344 32.933594 14.222656 L 33.046875 14.960938 L 33.789063 15.058594 C 36.761719 15.449219 39 18.003906 39 21 C 39 24.308594 36.308594 27 33 27 L 8 27 C 4.140625 27 1 23.859375 1 20 C 1 16.796875 3.171875 14.007813 6.28125 13.222656 L 7.09375 13.015625 L 7.035156 12.183594 L 7.03125 12.101563 C 7.015625 11.902344 7 11.703125 7 11.5 C 7 6.261719 11.261719 2 16.5 2 M 16.5 1 C 10.699219 1 6 5.699219 6 11.5 C 6 11.753906 6.019531 12.003906 6.039063 12.253906 C 2.570313 13.128906 0 16.261719 0 20 C 0 24.417969 3.582031 28 8 28 L 33 28 C 36.867188 28 40 24.867188 40 21 C 40 17.445313 37.351563 14.519531 33.921875 14.066406 C 33.472656 11.199219 30.996094 9 28 9 C 27.5625 9 27.136719 9.050781 26.722656 9.140625 C 25.652344 4.480469 21.484375 1 16.5 1 Z "></path>
		<path style=" fill:#DFF0FE;" d="M 15 24 L 26 24 L 26 28 L 15 28 Z "></path>
		<path style=" fill:#FFFFFF;" d="M 8.5 34.28125 L 12.5 31.882813 L 12.5 35.71875 L 8.5 38.117188 Z "></path>
		<path style=" fill:#4788C7;" d="M 12 32.765625 L 12 35.433594 L 9 37.234375 L 9 34.566406 L 12 32.765625 M 13 31 L 8 34 L 8 39 L 13 36 Z "></path>
		<path style=" fill:#FFFFFF;" d="M 24.5 34.28125 L 28.5 31.882813 L 28.5 35.71875 L 24.5 38.117188 Z "></path>
		<path style=" fill:#4788C7;" d="M 28 32.765625 L 28 35.433594 L 25 37.234375 L 25 34.566406 L 28 32.765625 M 29 31 L 24 34 L 24 39 L 29 36 Z "></path>
		<path style=" fill:#FFFFFF;" d="M 18.5 26.28125 L 22.5 23.882813 L 22.5 27.71875 L 18.5 30.117188 Z "></path>
		<path style=" fill:#4788C7;" d="M 22 24.765625 L 22 27.433594 L 19 29.234375 L 19 26.566406 L 22 24.765625 M 23 23 L 18 26 L 18 31 L 23 28 Z "></path>
		<path style=" fill:#4788C7;" d="M 28.5 28 L 25.5 28 C 25.226563 28 25 27.773438 25 27.5 C 25 27.226563 25.226563 27 25.5 27 L 28.5 27 C 28.773438 27 29 27.226563 29 27.5 C 29 27.773438 28.773438 28 28.5 28 Z "></path>
		<path style=" fill:#4788C7;" d="M 12.5 28 L 15.5 28 C 15.773438 28 16 27.773438 16 27.5 C 16 27.226563 15.773438 27 15.5 27 L 12.5 27 C 12.226563 27 12 27.226563 12 27.5 C 12 27.773438 12.226563 28 12.5 28 Z "></path>
	</g>
</svg>