<svg xmlns="http://www.w3.org/2000/svg" xmlns:xlink="http://www.w3.org/1999/xlink" viewBox="0 0 40 40" version="1.1">
	<g id="surface1">
		<path style=" fill:#DFF0FE;" d="M 11 16.5 C 6.863281 16.5 3.5 13.136719 3.5 9 C 3.5 4.863281 6.863281 1.5 11 1.5 C 13.101563 1.5 15.054688 2.355469 16.492188 3.90625 L 16.933594 4.382813 L 17.28125 3.835938 C 18.210938 2.371094 19.789063 1.5 21.5 1.5 C 24.257813 1.5 26.5 3.742188 26.5 6.5 L 26.5 8.5 L 29.5 8.5 C 31.707031 8.5 33.5 10.292969 33.5 12.5 C 33.5 14.707031 31.707031 16.5 29.5 16.5 Z "></path>
		<path style=" fill:#4788C7;" d="M 21.5 2 C 23.980469 2 26 4.019531 26 6.5 L 26 9 L 29.5 9 C 31.429688 9 33 10.570313 33 12.5 C 33 14.429688 31.429688 16 29.5 16 L 11 16 C 7.140625 16 4 12.859375 4 9 C 4 5.140625 7.140625 2 11 2 C 12.960938 2 14.78125 2.796875 16.128906 4.246094 L 17.007813 5.195313 L 17.703125 4.101563 C 18.539063 2.785156 19.960938 2 21.5 2 M 21.5 1 C 19.554688 1 17.839844 2.027344 16.859375 3.566406 C 15.398438 1.992188 13.316406 1 11 1 C 6.582031 1 3 4.582031 3 9 C 3 13.417969 6.582031 17 11 17 C 11.113281 17 29.5 17 29.5 17 C 31.976563 17 34 14.976563 34 12.5 C 34 10.023438 31.976563 8 29.5 8 L 27 8 L 27 6.5 C 27 3.476563 24.523438 1 21.5 1 Z "></path>
		<path style=" fill:#DFF0FE;" d="M 22.421875 25.132813 C 23.304688 24.140625 25.851563 21.339844 27.128906 20.5 L 27.945313 20.496094 C 31.160156 20.496094 34.6875 20.957031 36.277344 26.238281 C 34.726563 25.765625 33.292969 25.527344 32.007813 25.527344 C 28.265625 25.527344 26.59375 27.542969 25.960938 28.648438 Z "></path>
		<path style=" fill:#4788C7;" d="M 27.949219 20.996094 C 30.914063 20.996094 33.910156 21.378906 35.5 25.5 C 34.25 25.183594 33.078125 25.027344 32.007813 25.027344 C 28.535156 25.027344 26.734375 26.628906 25.867188 27.851563 L 23.109375 25.109375 C 24.28125 23.8125 26.226563 21.75 27.285156 21 L 27.445313 20.996094 L 27.949219 20.996094 M 27.949219 19.996094 C 27.609375 19.996094 27.285156 20 26.984375 20 C 25.40625 20.945313 21.734375 25.152344 21.734375 25.152344 L 26.105469 29.5 C 26.105469 29.5 27.191406 26.027344 32.007813 26.027344 C 33.355469 26.027344 35.003906 26.300781 37 27 C 35.410156 20.324219 31.066406 19.996094 27.949219 19.996094 Z "></path>
		<path style=" fill:#DFF0FE;" d="M 26 38.5 C 24.070313 38.5 22.5 36.929688 22.5 35 L 22.5 24.941406 C 24.738281 25.816406 29.5 31.644531 29.5 35 C 29.5 36.929688 27.929688 38.5 26 38.5 Z "></path>
		<path style=" fill:#4788C7;" d="M 23 25.789063 C 25.121094 27.28125 29 32.074219 29 35 C 29 36.652344 27.652344 38 26 38 C 24.347656 38 23 36.652344 23 35 L 23 25.789063 M 22 24.332031 C 22 27.167969 22 32.789063 22 35 C 22 37.210938 23.789063 39 26 39 C 28.210938 39 30 37.210938 30 35 C 30 31.121094 24.210938 24.332031 22 24.332031 Z "></path>
		<path style=" fill:#FFFFFF;" d="M 20 12 C 14.84375 12 10.601563 15.902344 10.0625 20.914063 L 7 35 C 7 35.449219 7.292969 35.882813 7.816406 36.28125 C 9.5 37.902344 13.757813 38.671875 19.703125 38.917969 C 20.445313 38.953125 21.21875 38.976563 22 38.988281 C 22.332031 38.992188 22.660156 39 23 39 L 23 31.539063 C 27.058594 30.265625 30 26.476563 30 22 C 30 16.476563 25.523438 12 20 12 Z "></path>
		<path style="fill:none;stroke-width:1;stroke-linecap:round;stroke-linejoin:miter;stroke:#4788C7;stroke-opacity:1;stroke-miterlimit:10;" d="M 7.503906 35.046875 L 10.550781 21.019531 C 11.078125 16.140625 15.140625 12.5 20 12.5 C 25.238281 12.5 29.5 16.761719 29.5 22 C 29.5 26.171875 26.828125 29.8125 22.851563 31.0625 L 22.5 31.171875 L 22.5 38.496094 "></path>
		<path style=" fill:#4788C7;" d="M 25 21 C 25 22.105469 24.105469 23 23 23 C 21.894531 23 21 22.105469 21 21 C 21 19.894531 21.894531 19 23 19 C 24.105469 19 25 19.894531 25 21 Z "></path>
	</g>
</svg>