<svg xmlns="http://www.w3.org/2000/svg" xmlns:xlink="http://www.w3.org/1999/xlink" viewBox="0 0 40 40" version="1.1">
	<g id="surface1">
		<path style=" fill:#DFF0FE;" d="M 20 38.5 C 9.800781 38.5 1.5 30.199219 1.5 20 C 1.5 9.800781 9.800781 1.5 20 1.5 C 30.199219 1.5 38.5 9.800781 38.5 20 C 38.5 30.199219 30.199219 38.5 20 38.5 Z "></path>
		<path style=" fill:#4788C7;" d="M 20 2 C 29.925781 2 38 10.074219 38 20 C 38 29.925781 29.925781 38 20 38 C 10.074219 38 2 29.925781 2 20 C 2 10.074219 10.074219 2 20 2 M 20 1 C 9.507813 1 1 9.507813 1 20 C 1 30.492188 9.507813 39 20 39 C 30.492188 39 39 30.492188 39 20 C 39 9.507813 30.492188 1 20 1 Z "></path>
		<path style=" fill:#98CCFD;" d="M 20 30.5 C 13.84375 30.5 11.4375 25.578125 10.726563 23.640625 C 12.367188 23.921875 16.203125 24.5 20 24.5 C 23.796875 24.5 27.632813 23.921875 29.273438 23.640625 C 28.5625 25.578125 26.15625 30.5 20 30.5 Z "></path>
		<path style=" fill:#4788C7;" d="M 11.53125 24.28125 C 13.449219 24.582031 16.703125 25 20 25 C 23.285156 25 26.535156 24.585938 28.453125 24.28125 C 27.464844 26.40625 25.050781 30 20 30 C 14.894531 30 12.503906 26.410156 11.53125 24.28125 M 30 23 C 30 23 25 24 20 24 C 15 24 10 23 10 23 C 10 23 12 31 20 31 C 28 31 30 23 30 23 Z "></path>
		<path style="fill:none;stroke-width:1;stroke-linecap:round;stroke-linejoin:miter;stroke:#4788C7;stroke-opacity:1;stroke-miterlimit:10;" d="M 9.285156 16.503906 C 9.285156 16.503906 10.785156 14.503906 13.285156 14.503906 C 15.785156 14.503906 17.285156 16.503906 17.285156 16.503906 "></path>
		<path style="fill:none;stroke-width:1;stroke-linecap:round;stroke-linejoin:miter;stroke:#4788C7;stroke-opacity:1;stroke-miterlimit:10;" d="M 22.785156 16.503906 C 22.785156 16.503906 24.285156 14.503906 26.785156 14.503906 C 29.285156 14.503906 30.785156 16.503906 30.785156 16.503906 "></path>
	</g>
</svg>