<svg xmlns="http://www.w3.org/2000/svg" xmlns:xlink="http://www.w3.org/1999/xlink" viewBox="0 0 40 40" version="1.1">
	<g id="surface1">
		<path style=" fill:#FFFFFF;" d="M 10.5 12.5 L 29.5 12.5 L 29.5 28.5 L 10.5 28.5 Z "></path>
		<path style=" fill:#4788C7;" d="M 29 13 L 29 28 L 11 28 L 11 13 L 29 13 M 30 12 L 10 12 L 10 29 L 30 29 Z "></path>
		<path style=" fill:#98CCFD;" d="M 25 20 L 22 20 L 22 16.5 L 23.5 15 L 25 16.5 Z "></path>
		<path style=" fill:#98CCFD;" d="M 18 20 L 15 20 L 15 16.5 L 16.5 15 L 18 16.5 Z "></path>
		<path style=" fill:#B6DCFE;" d="M 10.5 12.5 L 10.5 12.191406 L 20 1.742188 L 29.5 12.191406 L 29.5 12.5 Z "></path>
		<path style=" fill:#4788C7;" d="M 20 2.488281 L 28.648438 12 L 11.351563 12 L 20 2.488281 M 20 1 L 10 12 L 10 13 L 30 13 L 30 12 Z "></path>
		<path style=" fill:#FFFFFF;" d="M 1.5 38.5 L 1.5 15.5 L 7.5 15.5 L 7.5 20.5 L 9.117188 20.5 L 11 19.558594 L 12.882813 20.5 L 15.117188 20.5 L 17 19.558594 L 18.882813 20.5 L 21.117188 20.5 L 23 19.558594 L 24.882813 20.5 L 27.117188 20.5 L 29 19.558594 L 30.882813 20.5 L 32.5 20.5 L 32.5 15.5 L 38.5 15.5 L 38.5 38.5 Z "></path>
		<path style=" fill:#4788C7;" d="M 38 16 L 38 38 L 2 38 L 2 16 L 7 16 L 7 21 L 9.234375 21 L 11 20.117188 L 12.765625 21 L 15.234375 21 L 17 20.117188 L 18.765625 21 L 21.234375 21 L 23 20.117188 L 24.765625 21 L 27.234375 21 L 29 20.117188 L 30.765625 21 L 33 21 L 33 16 L 38 16 M 39 15 L 32 15 L 32 20 L 31 20 L 29 19 L 27 20 L 25 20 L 23 19 L 21 20 L 19 20 L 17 19 L 15 20 L 13 20 L 11 19 L 9 20 L 8 20 L 8 15 L 1 15 L 1 39 L 39 39 Z "></path>
		<path style=" fill:#B6DCFE;" d="M 13.5 38.5 L 13.5 34.398438 C 13.5 31.261719 18.734375 27.472656 20 26.601563 C 21.265625 27.472656 26.5 31.261719 26.5 34.398438 L 26.5 38.5 Z "></path>
		<path style=" fill:#4788C7;" d="M 20 27.207031 C 22.003906 28.621094 26 31.9375 26 34.398438 L 26 38 L 14 38 L 14 34.398438 C 14 31.921875 17.925781 28.660156 20 27.207031 M 20 26 C 20 26 13 30.535156 13 34.398438 L 13 39 L 27 39 L 27 34.398438 C 27 30.535156 20 26 20 26 Z "></path>
		<path style=" fill:#98CCFD;" d="M 27 29.023438 L 24 25.976563 L 24 24 L 27 24 Z "></path>
		<path style=" fill:#98CCFD;" d="M 16 25.976563 L 13 29.023438 L 13 24 L 16 24 Z "></path>
		<path style=" fill:#B6DCFE;" d="M 32.5 15.429688 L 32.5 15.0625 L 35.5 3.0625 L 38.5 15.0625 L 38.5 15.429688 Z "></path>
		<path style=" fill:#4788C7;" d="M 35.5 5.121094 L 37.949219 14.929688 L 33.046875 14.929688 L 35.5 5.121094 M 35.5 1 L 32 15 L 32 15.929688 L 39 15.929688 L 39 15 Z "></path>
		<path style=" fill:#B6DCFE;" d="M 1.5 15.429688 L 1.5 15.0625 L 4.5 3.0625 L 7.5 15.0625 L 7.5 15.429688 Z "></path>
		<path style=" fill:#4788C7;" d="M 4.5 5.121094 L 6.949219 14.929688 L 2.050781 14.929688 L 4.5 5.121094 M 4.5 1 L 1 15 L 1 15.929688 L 8 15.929688 L 8 15 Z "></path>
	</g>
</svg>