<svg xmlns="http://www.w3.org/2000/svg" xmlns:xlink="http://www.w3.org/1999/xlink" viewBox="0 0 40 40" version="1.1">
	<g id="surface1">
		<path style=" fill:#DFF0FE;" d="M 4.894531 36.472656 C 5.679688 35.121094 6.605469 33.472656 7.453125 31.894531 L 7.652344 31.523438 L 7.324219 31.265625 C 3.566406 28.296875 1.5 24.296875 1.5 20 C 1.5 11.453125 9.800781 4.5 20 4.5 C 30.199219 4.5 38.5 11.453125 38.5 20 C 38.5 28.546875 30.199219 35.5 20 35.5 C 17.828125 35.5 15.660156 35.167969 13.5625 34.515625 L 13.402344 34.464844 L 13.242188 34.523438 C 10.296875 35.617188 7.253906 36.320313 4.894531 36.472656 Z "></path>
		<path style=" fill:#4788C7;" d="M 20 5 C 29.925781 5 38 11.730469 38 20 C 38 28.269531 29.925781 35 20 35 C 17.878906 35 15.761719 34.675781 13.714844 34.039063 L 13.386719 33.9375 L 13.066406 34.054688 C 10.546875 34.992188 7.960938 35.636719 5.808594 35.886719 C 6.476563 34.714844 7.210938 33.398438 7.894531 32.128906 L 8.289063 31.390625 L 7.632813 30.871094 C 4 28 2 24.140625 2 20 C 2 11.730469 10.074219 5 20 5 M 20 4 C 9.507813 4 1 11.164063 1 20 C 1 24.601563 3.320313 28.738281 7.011719 31.65625 C 5.945313 33.636719 4.835938 35.597656 4 37 C 6.597656 37 10.171875 36.195313 13.414063 34.992188 C 15.46875 35.632813 17.679688 36 20 36 C 30.492188 36 39 28.835938 39 20 C 39 11.164063 30.492188 4 20 4 Z "></path>
	</g>
</svg>