<svg xmlns="http://www.w3.org/2000/svg" xmlns:xlink="http://www.w3.org/1999/xlink" viewBox="0 0 40 40" version="1.1">
	<g id="surface1">
		<path style=" fill:#B6DCFE;" d="M 20 31.988281 L 8.300781 38.089844 L 10.496094 25.09375 L 1.070313 15.859375 L 14.125 13.929688 L 20 2.121094 L 25.878906 13.929688 L 38.929688 15.859375 L 29.507813 25.09375 L 31.699219 38.089844 Z "></path>
		<path style=" fill:#4788C7;" d="M 20 3.246094 L 25.3125 13.921875 L 25.546875 14.386719 L 26.0625 14.464844 L 37.859375 16.210938 L 29.34375 24.554688 L 28.96875 24.917969 L 29.058594 25.433594 L 31.039063 37.183594 L 20.460938 31.667969 L 20 31.425781 L 19.539063 31.664063 L 8.960938 37.179688 L 10.945313 25.433594 L 11.03125 24.917969 L 10.660156 24.554688 L 2.140625 16.210938 L 13.941406 14.464844 L 14.457031 14.386719 L 14.691406 13.921875 L 20 3.246094 M 20 1 L 13.792969 13.472656 L 0 15.515625 L 9.960938 25.265625 L 7.640625 38.996094 L 20 32.554688 L 32.359375 39 L 30.042969 25.265625 L 40 15.515625 L 26.210938 13.472656 Z "></path>
	</g>
</svg>