<?xml version="1.0"?>
<svg xmlns="http://www.w3.org/2000/svg" xmlns:xlink="http://www.w3.org/1999/xlink" xmlns:svgjs="http://svgjs.com/svgjs" version="1.1" width="512" height="512" x="0" y="0" viewBox="0 0 490.667 490.667" style="enable-background:new 0 0 512 512" xml:space="preserve" class=""><g>
<g xmlns="http://www.w3.org/2000/svg">
	<path style="" d="M234.411,142.169l-28.544-16.533c-10.288-6.004-23.495-2.531-29.499,7.757   c-0.059,0.102-0.118,0.204-0.176,0.307L57.131,345.199c-5.922,10.388-2.372,23.608,7.957,29.632l28.587,16.619   c3.237,1.895,6.916,2.903,10.667,2.923c7.808-0.014,15.011-4.205,18.88-10.987L242.304,171.78   C248.186,161.408,244.675,148.237,234.411,142.169z" fill="#767676" data-original="#2196f3"/>
	<path style="" d="M81.749,407.3L81.749,407.3l-28.608-16.597c-5.178-3.267-11.672-3.646-17.195-1.003   c-5.443,2.891-9.031,8.363-9.515,14.507l-4.949,43.541c-1.283,6.339,1.463,12.815,6.912,16.299c2.204,1.32,4.727,2.013,7.296,2.005   c3.7-0.099,7.28-1.327,10.261-3.52l36.885-25.408c8.082-4.851,10.701-15.334,5.85-23.416c-1.658-2.762-4.063-4.998-6.938-6.45   V407.3z" fill="#767676" data-original="#2196f3"/>
	<path style="" d="M403.477,389.679c9.63-3.955,17.301-11.565,21.333-21.163c2.396-6.771,1.742-14.248-1.792-20.501   c-0.96-1.771-3.947-7.488-8.533-16.171C241.664,0.089,231.317,5.615,218.261,12.249c-4.895,2.66-7.738,7.977-7.232,13.525   c0,36.992,138.987,353.557,160,364.203c4.911,2.673,10.389,4.135,15.979,4.267c4.971-0.167,9.844-1.427,14.272-3.691   L403.477,389.679z" fill="#767676" data-original="#2196f3"/>
	<path style="" d="M449.579,397.103c-12.059-6.792-26.997-5.787-38.037,2.56c-0.887,0.564-1.716,1.214-2.475,1.941   c-13.016,10.865-14.76,30.223-3.895,43.239c0.254,0.305,0.515,0.605,0.781,0.899c8.009,9.872,18.654,17.269,30.699,21.333   c3.937,1.472,7.706,3.36,11.243,5.632c1.385,4.468,5.519,7.513,10.197,7.509h1.088c5.054-0.515,9.044-4.522,9.536-9.579   C469.653,461.103,473.109,412.335,449.579,397.103z" fill="#767676" data-original="#2196f3"/>
	<path style="" d="M254.869,208.857c-3.144-5.272-9.966-6.998-15.238-3.855c-1.585,0.945-2.91,2.27-3.855,3.855   l-42.667,85.333c-2.639,5.267-0.509,11.676,4.758,14.315c1.49,0.746,3.133,1.134,4.8,1.13H288c5.891,0,10.667-4.776,10.666-10.667   c0-1.659-0.387-3.295-1.13-4.778L254.869,208.857z" fill="#767676" data-original="#2196f3"/>
	<path style="" d="M51.712,304.623l53.333-85.333c3.122-4.996,1.604-11.576-3.392-14.699   c-1.695-1.06-3.654-1.621-5.653-1.621H10.667C4.776,202.969,0,207.745,0,213.636v85.333c0,5.891,4.776,10.667,10.667,10.667h32   C46.344,309.636,49.763,307.741,51.712,304.623z" fill="#767676" data-original="#2196f3"/>
	<path style="" d="M480,202.969h-85.333c-5.891,0-10.667,4.776-10.666,10.667c0,1.659,0.387,3.295,1.13,4.778   l42.667,85.333c1.808,3.609,5.499,5.888,9.536,5.888H480c5.891,0,10.667-4.776,10.667-10.667v-85.333   C490.667,207.745,485.891,202.969,480,202.969z" fill="#767676" data-original="#2196f3"/>
</g>
<g xmlns="http://www.w3.org/2000/svg">
</g>
<g xmlns="http://www.w3.org/2000/svg">
</g>
<g xmlns="http://www.w3.org/2000/svg">
</g>
<g xmlns="http://www.w3.org/2000/svg">
</g>
<g xmlns="http://www.w3.org/2000/svg">
</g>
<g xmlns="http://www.w3.org/2000/svg">
</g>
<g xmlns="http://www.w3.org/2000/svg">
</g>
<g xmlns="http://www.w3.org/2000/svg">
</g>
<g xmlns="http://www.w3.org/2000/svg">
</g>
<g xmlns="http://www.w3.org/2000/svg">
</g>
<g xmlns="http://www.w3.org/2000/svg">
</g>
<g xmlns="http://www.w3.org/2000/svg">
</g>
<g xmlns="http://www.w3.org/2000/svg">
</g>
<g xmlns="http://www.w3.org/2000/svg">
</g>
<g xmlns="http://www.w3.org/2000/svg">
</g>
</g></svg>
