<?xml version="1.0" encoding="UTF-8" standalone="no"?>
<svg
   xmlns:dc="http://purl.org/dc/elements/1.1/"
   xmlns:cc="http://creativecommons.org/ns#"
   xmlns:rdf="http://www.w3.org/1999/02/22-rdf-syntax-ns#"
   xmlns:svg="http://www.w3.org/2000/svg"
   xmlns="http://www.w3.org/2000/svg"
   xmlns:sodipodi="http://sodipodi.sourceforge.net/DTD/sodipodi-0.dtd"
   xmlns:inkscape="http://www.inkscape.org/namespaces/inkscape"
   inkscape:version="1.0 (4035a4f, 2020-05-01)"
   sodipodi:docname="expand.svg"
   xml:space="preserve"
   style="enable-background:new 0 0 242.133 242.133;"
   viewBox="0 0 242.133 242.133"
   y="0px"
   x="0px"
   id="Layer_1"
   version="1.1"><metadata
   id="metadata1103"><rdf:RDF><cc:Work
       rdf:about=""><dc:format>image/svg+xml</dc:format><dc:type
         rdf:resource="http://purl.org/dc/dcmitype/StillImage" /></cc:Work></rdf:RDF></metadata><defs
   id="defs1101" /><sodipodi:namedview
   inkscape:current-layer="Layer_1"
   inkscape:window-maximized="1"
   inkscape:window-y="30"
   inkscape:window-x="0"
   inkscape:cy="121.0665"
   inkscape:cx="121.0665"
   inkscape:zoom="1.5239559"
   showgrid="false"
   id="namedview1099"
   inkscape:window-height="705"
   inkscape:window-width="1366"
   inkscape:pageshadow="2"
   inkscape:pageopacity="0"
   guidetolerance="10"
   gridtolerance="10"
   objecttolerance="10"
   borderopacity="1"
   bordercolor="#666666"
   pagecolor="#ffffff" />
<g
   style="fill:#002b11;fill-opacity:1"
   id="XMLID_85_">
	<path
   style="fill:#002b11;fill-opacity:1"
   d="M89.247,131.673l-47.732,47.73l-15.909-15.91c-4.29-4.291-10.742-5.572-16.347-3.252   C3.654,162.563,0,168.033,0,174.1v53.032c0,8.284,6.716,15,15,15l53.033,0.001c0.007-0.001,0.012-0.001,0.019,0   c8.285,0,15-6.716,15-15c0-4.377-1.875-8.316-4.865-11.059l-15.458-15.458l47.73-47.729c5.858-5.858,5.858-15.355,0-21.213   C104.603,125.815,95.104,125.816,89.247,131.673z"
   id="XMLID_86_" />
	<path
   style="fill:#002b11;fill-opacity:1"
   d="M227.133,0H174.1c-6.067,0-11.536,3.655-13.858,9.26c-2.321,5.605-1.038,12.057,3.252,16.347l15.911,15.911   l-47.729,47.73c-5.858,5.858-5.858,15.355,0,21.213c2.929,2.929,6.768,4.393,10.606,4.393c3.839,0,7.678-1.464,10.606-4.394   l47.73-47.73l15.909,15.91c2.869,2.87,6.706,4.394,10.609,4.394c1.933,0,3.882-0.373,5.737-1.142   c5.605-2.322,9.26-7.792,9.26-13.858V15C242.133,6.716,235.417,0,227.133,0z"
   id="XMLID_88_" />
</g>
<g
   id="g1068">
</g>
<g
   id="g1070">
</g>
<g
   id="g1072">
</g>
<g
   id="g1074">
</g>
<g
   id="g1076">
</g>
<g
   id="g1078">
</g>
<g
   id="g1080">
</g>
<g
   id="g1082">
</g>
<g
   id="g1084">
</g>
<g
   id="g1086">
</g>
<g
   id="g1088">
</g>
<g
   id="g1090">
</g>
<g
   id="g1092">
</g>
<g
   id="g1094">
</g>
<g
   id="g1096">
</g>
</svg>
