<?xml version="1.0" encoding="UTF-8" standalone="no"?>
<svg
   xmlns:dc="http://purl.org/dc/elements/1.1/"
   xmlns:cc="http://creativecommons.org/ns#"
   xmlns:rdf="http://www.w3.org/1999/02/22-rdf-syntax-ns#"
   xmlns:svg="http://www.w3.org/2000/svg"
   xmlns="http://www.w3.org/2000/svg"
   xmlns:sodipodi="http://sodipodi.sourceforge.net/DTD/sodipodi-0.dtd"
   xmlns:inkscape="http://www.inkscape.org/namespaces/inkscape"
   inkscape:version="1.0 (4035a4f, 2020-05-01)"
   sodipodi:docname="laptop.svg"
   version="1.1"
   width="512"
   viewBox="0 0 426.703 426.703"
   height="512"
   enable-background="new 0 0 426.703 426.703"
   id="Capa_1">
  <metadata
     id="metadata6876">
    <rdf:RDF>
      <cc:Work
         rdf:about="">
        <dc:format>image/svg+xml</dc:format>
        <dc:type
           rdf:resource="http://purl.org/dc/dcmitype/StillImage" />
        <dc:title></dc:title>
      </cc:Work>
    </rdf:RDF>
  </metadata>
  <defs
     id="defs6874" />
  <sodipodi:namedview
     inkscape:current-layer="Capa_1"
     inkscape:window-maximized="1"
     inkscape:window-y="30"
     inkscape:window-x="0"
     inkscape:cy="256"
     inkscape:cx="20.119241"
     inkscape:zoom="0.72070312"
     showgrid="false"
     id="namedview6872"
     inkscape:window-height="705"
     inkscape:window-width="1366"
     inkscape:pageshadow="2"
     inkscape:pageopacity="0"
     guidetolerance="10"
     gridtolerance="10"
     objecttolerance="10"
     borderopacity="1"
     bordercolor="#666666"
     pagecolor="#ffffff" />
  <g
     style="stroke:#7f7f7f;stroke-opacity:1;fill:none;stroke-width:12.50106445;stroke-miterlimit:4;stroke-dasharray:none"
     fill="#62667c"
     id="g6857">
    <path
       style="stroke:#7f7f7f;stroke-opacity:1;fill:none;stroke-width:12.50106445;stroke-miterlimit:4;stroke-dasharray:none"
       d="m 396.303,95.217 v 220.71 H 250.688 l -6.047,23.536 h -62.58 l -6.047,-23.536 H 30.4 V 95.217 c 0.02,-10.154 8.246,-18.38 18.4,-18.4 h 329.097 c 10.151,-0.014 18.391,8.203 18.405,18.353 10e-4,0.016 10e-4,0.032 10e-4,0.047 z"
       id="path6851" />
    <path
       style="stroke:#7f7f7f;stroke-opacity:1;fill:none;stroke-width:12.50106445;stroke-miterlimit:4;stroke-dasharray:none"
       d="M 180.282,324.815 H 30.4 v -8.888 h 145.615 z"
       id="path6853" />
    <path
       style="stroke:#7f7f7f;stroke-opacity:1;fill:none;stroke-width:12.50106445;stroke-miterlimit:4;stroke-dasharray:none"
       d="m 396.303,315.927 v 8.888 H 246.421 l 4.267,-8.888 z"
       id="path6855" />
  </g>
  <path
     style="fill:#7f7f7f;fill-opacity:1"
     d="m 426.703,321.885 v 5.865 c 0,12.226 -9.911,22.137 -22.137,22.137 H 22.137 C 9.911,349.886 0,339.975 0,327.75 v -5.865 c 0,-3.291 2.668,-5.958 5.958,-5.958 h 170.057 l 6.047,12.713 h 62.58 l 6.047,-12.713 h 170.057 c 3.289,0 5.957,2.667 5.957,5.958 z"
     fill="#525666"
     id="path6861" />
</svg>
