<?xml version="1.0" encoding="UTF-8" standalone="no"?>
<svg
   xmlns:dc="http://purl.org/dc/elements/1.1/"
   xmlns:cc="http://creativecommons.org/ns#"
   xmlns:rdf="http://www.w3.org/1999/02/22-rdf-syntax-ns#"
   xmlns:svg="http://www.w3.org/2000/svg"
   xmlns="http://www.w3.org/2000/svg"
   xmlns:sodipodi="http://sodipodi.sourceforge.net/DTD/sodipodi-0.dtd"
   xmlns:inkscape="http://www.inkscape.org/namespaces/inkscape"
   width="80"
   height="48"
   viewBox="0 0 21.166667 12.7"
   version="1.1"
   id="svg8"
   inkscape:version="1.0 (4035a4f, 2020-05-01)"
   sodipodi:docname="panel_6.svg">
  <defs
     id="defs2" />
  <sodipodi:namedview
     id="base"
     pagecolor="#ffffff"
     bordercolor="#666666"
     borderopacity="1.0"
     inkscape:pageopacity="0.0"
     inkscape:pageshadow="2"
     inkscape:zoom="3.959798"
     inkscape:cx="19.336259"
     inkscape:cy="37.740622"
     inkscape:document-units="mm"
     inkscape:current-layer="layer1"
     inkscape:document-rotation="0"
     showgrid="false"
     units="px"
     inkscape:window-width="1366"
     inkscape:window-height="705"
     inkscape:window-x="0"
     inkscape:window-y="30"
     inkscape:window-maximized="1"
     showguides="true"
     inkscape:guide-bbox="true">
    <inkscape:grid
       type="xygrid"
       id="grid855" />
  </sodipodi:namedview>
  <metadata
     id="metadata5">
    <rdf:RDF>
      <cc:Work
         rdf:about="">
        <dc:format>image/svg+xml</dc:format>
        <dc:type
           rdf:resource="http://purl.org/dc/dcmitype/StillImage" />
        <dc:title />
      </cc:Work>
    </rdf:RDF>
  </metadata>
  <g
     inkscape:label="Capa 1"
     inkscape:groupmode="layer"
     id="layer1">
    <path
       sodipodi:nodetypes="ccc"
       id="path853"
       d="M 13.181061,5.0097363 16.00812,7.6916904 18.649066,4.9459039"
       style="fill:none;stroke:#7f7f7f;stroke-width:1;stroke-linecap:round;stroke-linejoin:round;stroke-miterlimit:4;stroke-dasharray:none;stroke-opacity:1" />
    <g
       id="g2690"
       transform="matrix(0.01850703,0,0,0.01850703,1.6990161,1.5809924)">
      <g
         id="g2658">
        <g
           id="g2656">
          <path
             id="path2654"
             data-original="#000000"
             fill="#7f7f7f"
             d="m 500.6,212.6 -59.9,-14.7 c -3.3,-10.5 -7.5,-20.7 -12.6,-30.6 l 30.6,-51 c 3.6,-6 2.7,-13.5 -2.1,-18.3 L 414,55.4 c -4.8,-4.8 -12.3,-5.7 -18.3,-2.1 l -51,30.6 C 334.8,78.8 324.6,74.6 314.1,71.3 L 299.7,11.4 C 297.9,4.8 291.9,0 285,0 h -60 c -6.9,0 -12.9,4.8 -14.7,11.4 l -14.4,59.9 c -10.5,3.3 -20.7,7.5 -30.6,12.6 l -51,-30.6 c -6,-3.6 -13.5,-2.7 -18.3,2.1 L 53.4,98 c -4.8,4.8 -5.7,12.3 -2.1,18.3 l 30.6,51 c -5.1,9.9 -9.3,20.1 -12.6,30.6 L 11.4,212.6 C 4.8,214.1 0,220.1 0,227 v 60 c 0,6.9 4.8,12.9 11.4,14.4 l 57.9,14.7 c 3.3,10.5 7.5,20.7 12.6,30.6 l -30.6,51 c -3.6,6 -2.7,13.5 2.1,18.3 L 96,458.6 c 4.8,4.8 12.3,5.7 18.3,2.1 l 51,-30.6 c 9.9,5.1 20.1,9.3 30.6,12.6 l 14.4,57.9 c 1.8,6.6 7.8,11.4 14.7,11.4 h 60 c 6.9,0 12.9,-4.8 14.7,-11.4 l 14.4,-57.9 c 10.5,-3.3 20.7,-7.5 30.6,-12.6 l 51,30.6 c 6,3.6 13.5,2.7 18.3,-2.1 L 456.6,416 c 4.8,-4.8 5.7,-12.3 2.1,-18.3 l -30.6,-51 c 5.1,-9.9 9.3,-20.1 12.6,-30.6 l 59.9,-14.7 c 6.6,-1.5 11.4,-7.5 11.4,-14.4 v -60 c 0,-6.9 -4.8,-12.9 -11.4,-14.4 z M 255,332 c -41.4,0 -75,-33.6 -75,-75 0,-41.4 33.6,-75 75,-75 41.4,0 75,33.6 75,75 0,41.4 -33.6,75 -75,75 z" />
        </g>
      </g>
      <g
         id="g2660" />
      <g
         id="g2662" />
      <g
         id="g2664" />
      <g
         id="g2666" />
      <g
         id="g2668" />
      <g
         id="g2670" />
      <g
         id="g2672" />
      <g
         id="g2674" />
      <g
         id="g2676" />
      <g
         id="g2678" />
      <g
         id="g2680" />
      <g
         id="g2682" />
      <g
         id="g2684" />
      <g
         id="g2686" />
      <g
         id="g2688" />
    </g>
  </g>
</svg>
