<?xml version="1.0" encoding="UTF-8" standalone="no"?>
<svg
   xmlns:dc="http://purl.org/dc/elements/1.1/"
   xmlns:cc="http://creativecommons.org/ns#"
   xmlns:rdf="http://www.w3.org/1999/02/22-rdf-syntax-ns#"
   xmlns:svg="http://www.w3.org/2000/svg"
   xmlns="http://www.w3.org/2000/svg"
   xmlns:sodipodi="http://sodipodi.sourceforge.net/DTD/sodipodi-0.dtd"
   xmlns:inkscape="http://www.inkscape.org/namespaces/inkscape"
   sodipodi:docname="panel_8.svg"
   inkscape:version="1.0 (4035a4f, 2020-05-01)"
   id="svg8"
   version="1.1"
   viewBox="0 0 21.166667 12.7"
   height="48"
   width="80">
  <defs
     id="defs2" />
  <sodipodi:namedview
     inkscape:guide-bbox="true"
     showguides="true"
     inkscape:window-maximized="1"
     inkscape:window-y="30"
     inkscape:window-x="0"
     inkscape:window-height="705"
     inkscape:window-width="1366"
     units="px"
     showgrid="false"
     inkscape:document-rotation="0"
     inkscape:current-layer="layer1"
     inkscape:document-units="mm"
     inkscape:cy="17.340956"
     inkscape:cx="44.734726"
     inkscape:zoom="7.9195959"
     inkscape:pageshadow="2"
     inkscape:pageopacity="0.0"
     borderopacity="1.0"
     bordercolor="#666666"
     pagecolor="#ffffff"
     id="base">
    <inkscape:grid
       id="grid855"
       type="xygrid" />
  </sodipodi:namedview>
  <metadata
     id="metadata5">
    <rdf:RDF>
      <cc:Work
         rdf:about="">
        <dc:format>image/svg+xml</dc:format>
        <dc:type
           rdf:resource="http://purl.org/dc/dcmitype/StillImage" />
        <dc:title></dc:title>
      </cc:Work>
    </rdf:RDF>
  </metadata>
  <g
     id="layer1"
     inkscape:groupmode="layer"
     inkscape:label="Capa 1">
    <g
       transform="translate(24.517889,-22.932016)"
       id="g3079">
      <g
         style="fill:#b3b3b3"
         id="g2885"
         transform="matrix(0.01595627,0,0,0.01838275,6.5150587,1.0923175)">
        <g
           style="fill:#b3b3b3"
           id="g2883">
          <path
             style="fill:#b3b3b3"
             d="m 259.257,0 c -10.794,0 -19.542,8.748 -19.542,19.542 v 310.066 c 0,10.794 8.748,19.542 19.542,19.542 10.794,0 19.542,-8.748 19.542,-19.542 V 19.542 C 278.799,8.748 270.051,0 259.257,0 Z"
             fill="#7f7f7f"
             data-original="#000000"
             class=""
             id="path2881" />
        </g>
      </g>
      <g
         style="fill:#b3b3b3"
         id="g2891"
         transform="matrix(0.01595627,0,0,0.01595627,6.5150587,1.0923175)">
        <g
           style="fill:#b3b3b3"
           id="g2889">
          <path
             style="fill:#b3b3b3"
             d="M 380.73,106.224 272.598,5.257 c -7.511,-7.009 -19.164,-7.009 -26.675,0 L 137.79,106.224 c -7.888,7.367 -8.318,19.731 -0.951,27.619 3.843,4.123 9.061,6.208 14.285,6.208 4.781,0 9.569,-1.739 13.334,-5.257 l 94.798,-88.519 94.798,88.519 c 7.901,7.367 20.258,6.937 27.619,-0.951 7.362,-7.888 6.945,-20.252 -0.943,-27.619 z"
             fill="#7f7f7f"
             data-original="#000000"
             class=""
             id="path2887" />
        </g>
      </g>
      <g
         id="g2897"
         transform="matrix(0.01595627,0,0,0.02246749,6.5251421,0.39938101)"
         style="fill:#b3b3b3;stroke-width:26.1334;stroke-miterlimit:4;stroke-dasharray:none">
        <g
           id="g2895"
           style="fill:#b3b3b3;stroke-width:26.1334;stroke-miterlimit:4;stroke-dasharray:none">
          <path
             d="M 454.677,166.758 H 350.453 c -10.794,0 -19.542,8.748 -19.542,19.542 0,10.794 8.748,19.542 19.542,19.542 h 84.682 V 472.916 H 76.865 V 205.842 h 84.682 c 10.794,0 19.542,-8.748 19.542,-19.542 0,-10.794 -8.748,-19.542 -19.542,-19.542 H 57.323 c -10.794,0 -19.542,8.748 -19.542,19.542 v 306.158 c 0,10.794 8.748,19.542 19.542,19.542 h 397.354 c 10.794,0 19.542,-8.748 19.542,-19.542 V 186.3 c 0,-10.793 -8.748,-19.542 -19.542,-19.542 z"
             fill="#7f7f7f"
             data-original="#000000"
             class=""
             id="path2893"
             style="fill:#b3b3b3;stroke-width:26.1334;stroke-miterlimit:4;stroke-dasharray:none" />
        </g>
      </g>
    </g>
    <g
       transform="matrix(0.02292652,0,0,0.02292652,4.6103312,-0.11796653)"
       id="g2899" />
    <g
       transform="matrix(0.02292652,0,0,0.02292652,4.6103312,-0.11796653)"
       id="g2901" />
    <g
       transform="matrix(0.02292652,0,0,0.02292652,4.6103312,-0.11796653)"
       id="g2903" />
    <g
       transform="matrix(0.02292652,0,0,0.02292652,4.6103312,-0.11796653)"
       id="g2905" />
    <g
       transform="matrix(0.02292652,0,0,0.02292652,4.6103312,-0.11796653)"
       id="g2907" />
    <g
       transform="matrix(0.02292652,0,0,0.02292652,4.6103312,-0.11796653)"
       id="g2909" />
    <g
       transform="matrix(0.02292652,0,0,0.02292652,4.6103312,-0.11796653)"
       id="g2911" />
    <g
       transform="matrix(0.02292652,0,0,0.02292652,4.6103312,-0.11796653)"
       id="g2913" />
    <g
       transform="matrix(0.02292652,0,0,0.02292652,4.6103312,-0.11796653)"
       id="g2915" />
    <g
       transform="matrix(0.02292652,0,0,0.02292652,4.6103312,-0.11796653)"
       id="g2917" />
    <g
       transform="matrix(0.02292652,0,0,0.02292652,4.6103312,-0.11796653)"
       id="g2919" />
    <g
       transform="matrix(0.02292652,0,0,0.02292652,4.6103312,-0.11796653)"
       id="g2921" />
    <g
       transform="matrix(0.02292652,0,0,0.02292652,4.6103312,-0.11796653)"
       id="g2923" />
    <g
       transform="matrix(0.02292652,0,0,0.02292652,4.6103312,-0.11796653)"
       id="g2925" />
    <g
       transform="matrix(0.02292652,0,0,0.02292652,4.6103312,-0.11796653)"
       id="g2927" />
    <g
       style="fill:#b3b3b3"
       transform="matrix(-0.01353838,0.01334429,0.01334429,0.01353838,11.567148,-0.46005448)"
       id="g3191">
      <g
         style="fill:#b3b3b3"
         id="g3189">
        <path
           style="fill:#b3b3b3"
           id="path3187"
           class=""
           data-original="#000000"
           fill="#7f7f7f"
           d="M 458.667,0 H 323.349 C 297.706,0 273.6,9.984 255.466,28.117 L 18.197,265.387 C 6.464,277.12 0,292.715 0,309.376 0,325.952 6.464,341.547 18.197,353.28 L 158.72,493.803 c 11.733,11.733 27.328,18.197 43.989,18.197 16.576,0 32.171,-6.464 43.904,-18.197 L 483.882,256.534 C 502.016,238.4 512,214.293 512,188.651 V 53.333 C 512,23.936 488.064,0 458.667,0 Z m 32,188.651 c 0,19.947 -7.765,38.699 -21.845,52.779 L 231.531,478.72 c -15.339,15.339 -42.24,15.445 -57.707,0 L 33.28,338.176 c -7.701,-7.68 -11.947,-17.92 -11.947,-28.885 0,-10.88 4.245,-21.12 11.947,-28.821 L 270.549,43.2 c 14.123,-14.101 32.853,-21.867 52.8,-21.867 h 135.317 c 17.643,0 32,14.357 32,32 v 135.318 z" />
      </g>
    </g>
    <g
       transform="matrix(-0.01353838,0.01334429,0.01334429,0.01353838,11.788717,-0.46005448)"
       id="g3199" />
    <g
       transform="matrix(-0.01353838,0.01334429,0.01334429,0.01353838,11.788717,-0.46005448)"
       id="g3201" />
    <g
       transform="matrix(-0.01353838,0.01334429,0.01334429,0.01353838,11.788717,-0.46005448)"
       id="g3203" />
    <g
       transform="matrix(-0.01353838,0.01334429,0.01334429,0.01353838,11.788717,-0.46005448)"
       id="g3205" />
    <g
       transform="matrix(-0.01353838,0.01334429,0.01334429,0.01353838,11.788717,-0.46005448)"
       id="g3207" />
    <g
       transform="matrix(-0.01353838,0.01334429,0.01334429,0.01353838,11.788717,-0.46005448)"
       id="g3209" />
    <g
       transform="matrix(-0.01353838,0.01334429,0.01334429,0.01353838,11.788717,-0.46005448)"
       id="g3211" />
    <g
       transform="matrix(-0.01353838,0.01334429,0.01334429,0.01353838,11.788717,-0.46005448)"
       id="g3213" />
    <g
       transform="matrix(-0.01353838,0.01334429,0.01334429,0.01353838,11.788717,-0.46005448)"
       id="g3215" />
    <g
       transform="matrix(-0.01353838,0.01334429,0.01334429,0.01353838,11.788717,-0.46005448)"
       id="g3217" />
    <g
       transform="matrix(-0.01353838,0.01334429,0.01334429,0.01353838,11.788717,-0.46005448)"
       id="g3219" />
    <g
       transform="matrix(-0.01353838,0.01334429,0.01334429,0.01353838,11.788717,-0.46005448)"
       id="g3221" />
    <g
       transform="matrix(-0.01353838,0.01334429,0.01334429,0.01353838,11.788717,-0.46005448)"
       id="g3223" />
    <g
       transform="matrix(-0.01353838,0.01334429,0.01334429,0.01353838,11.788717,-0.46005448)"
       id="g3225" />
    <g
       transform="matrix(-0.01353838,0.01334429,0.01334429,0.01353838,11.788717,-0.46005448)"
       id="g3227" />
    <circle
       r="0.81154734"
       cy="6.4228568"
       cx="7.6128197"
       id="path3338"
       style="fill:#b3b3b3;fill-opacity:1;stroke:none;stroke-width:0.435587;stroke-linecap:round;stroke-linejoin:round;stroke-miterlimit:4;stroke-dasharray:none;stroke-dashoffset:0;stroke-opacity:1" />
  </g>
</svg>
