<?xml version="1.0" encoding="utf-8"?>
<!-- Generator: Adobe Illustrator 15.0.0, SVG Export Plug-In . SVG Version: 6.00 Build 0)  -->
<!DOCTYPE svg PUBLIC "-//W3C//DTD SVG 1.1//EN" "http://www.w3.org/Graphics/SVG/1.1/DTD/svg11.dtd">
<svg version="1.1" id="Capa_1" xmlns="http://www.w3.org/2000/svg" xmlns:xlink="http://www.w3.org/1999/xlink" x="0px" y="0px"
	 width="600px" height="600px" viewBox="0 0 600 600" enable-background="new 0 0 600 600" xml:space="preserve">
<g>
	<path d="M374.5,494.501h-33.662l-5.305-387.439c-0.022-1.641-1.359-2.959-3-2.959h-6.539C323.166,98.028,313.363,79.3,300,79.3
		s-23.166,18.729-25.994,24.803h-6.539c-1.641,0-2.978,1.318-3,2.959l-5.305,387.439H225.5c-1.657,0-3,1.343-3,3V517.7
		c0,1.657,1.343,3,3,3h149c1.657,0,3-1.343,3-3v-20.199C377.5,495.844,376.157,494.501,374.5,494.501z M300,85.3
		c7.951,0,15.455,11.271,19.329,18.803h-38.658C284.545,96.571,292.05,85.3,300,85.3z M266.115,424.947
		c0.315,0.112,0.65,0.185,1.003,0.185H300c1.656,0,3-1.343,3-3s-1.344-3-3-3h-32.882c-0.325,0-0.632,0.064-0.926,0.16l0.416-30.405
		c0.167,0.029,0.335,0.052,0.51,0.052H300c1.656,0,3-1.343,3-3s-1.344-3-3-3h-32.882c-0.147,0-0.288,0.022-0.429,0.043l0.414-30.238
		c0.005,0,0.01,0.001,0.015,0.001H300c1.656,0,3-1.343,3-3s-1.344-3-3-3h-32.814l0.414-30.193H300c1.656,0,3-1.343,3-3s-1.344-3-3-3
		h-32.319l0.414-30.193H300c1.656,0,3-1.344,3-3c0-1.657-1.344-3-3-3h-31.823l0.414-30.194H300c1.656,0,3-1.343,3-3
		c0-1.656-1.344-3-3-3h-31.328l0.414-30.193H300c1.656,0,3-1.344,3-3c0-1.657-1.344-3-3-3h-30.832l0.414-30.193H300
		c1.656,0,3-1.344,3-3c0-1.657-1.344-3-3-3h-30.336l0.414-30.194H300c1.656,0,3-1.343,3-3c0-1.656-1.344-3-3-3h-29.841l0.267-19.479
		h59.148l5.264,384.398h-69.675L266.115,424.947z M371.5,514.7h-143v-14.199h33.621h75.758c0.007,0.001,0.015,0.001,0.02,0H371.5
		V514.7z"/>
	<path d="M307.608,465.976h-32.882c-1.657,0-3,1.343-3,3s1.343,3,3,3h32.882c1.657,0,3-1.343,3-3S309.265,465.976,307.608,465.976z"
		/>
	<path d="M324.048,151.584h-32.882c-1.657,0-3,1.344-3,3c0,1.657,1.343,3,3,3h32.882c1.657,0,3-1.343,3-3
		C327.048,152.928,325.705,151.584,324.048,151.584z"/>
	<path d="M324.048,187.778h-32.882c-1.657,0-3,1.343-3,3c0,1.656,1.343,3,3,3h32.882c1.657,0,3-1.344,3-3
		C327.048,189.121,325.705,187.778,324.048,187.778z"/>
	<path d="M324.048,223.972h-32.882c-1.657,0-3,1.343-3,3c0,1.656,1.343,3,3,3h32.882c1.657,0,3-1.344,3-3
		C327.048,225.314,325.705,223.972,324.048,223.972z"/>
	<path d="M324.048,260.165h-32.882c-1.657,0-3,1.344-3,3c0,1.657,1.343,3,3,3h32.882c1.657,0,3-1.343,3-3
		C327.048,261.509,325.705,260.165,324.048,260.165z"/>
	<path d="M324.048,296.36h-32.882c-1.657,0-3,1.343-3,3s1.343,3,3,3h32.882c1.657,0,3-1.343,3-3S325.705,296.36,324.048,296.36z"/>
	<path d="M324.048,332.558h-32.882c-1.657,0-3,1.343-3,3s1.343,3,3,3h32.882c1.657,0,3-1.343,3-3S325.705,332.558,324.048,332.558z"
		/>
	<path d="M324.048,368.752h-32.882c-1.657,0-3,1.343-3,3s1.343,3,3,3h32.882c1.657,0,3-1.343,3-3S325.705,368.752,324.048,368.752z"
		/>
	<path d="M324.048,404.945h-32.882c-1.657,0-3,1.343-3,3s1.343,3,3,3h32.882c1.657,0,3-1.343,3-3S325.705,404.945,324.048,404.945z"
		/>
	<path d="M324.048,441.14h-32.882c-1.657,0-3,1.343-3,3s1.343,3,3,3h32.882c1.657,0,3-1.343,3-3S325.705,441.14,324.048,441.14z"/>
</g>
</svg>
