<?xml version="1.0" encoding="utf-8"?>
<!-- Generator: Adobe Illustrator 15.0.0, SVG Export Plug-In . SVG Version: 6.00 Build 0)  -->
<!DOCTYPE svg PUBLIC "-//W3C//DTD SVG 1.1//EN" "http://www.w3.org/Graphics/SVG/1.1/DTD/svg11.dtd">
<svg version="1.1" id="Capa_1" xmlns="http://www.w3.org/2000/svg" xmlns:xlink="http://www.w3.org/1999/xlink" x="0px" y="0px"
	 width="600px" height="600px" viewBox="0 0 600 600" enable-background="new 0 0 600 600" xml:space="preserve">
<path d="M582.826,466.455h-18.01v-27.873c0-2.109-1.711-3.82-3.818-3.82h-21.486v-27.875c0-2.107-1.711-3.818-3.82-3.818H506.25
	v-70.992h27.66c1.664,0,3.137-1.08,3.639-2.668c0.504-1.588-0.08-3.316-1.443-4.275c-0.291-0.207-29.096-20.711-29.762-40.076
	c-0.008-0.243-0.041-0.476-0.094-0.707v-49.216h65.16c1.973,0,3.621-1.502,3.803-3.466c0.184-1.964-1.16-3.744-3.098-4.108
	c-1.389-0.261-138.709-26.933-138.709-100.491V98.027c0-2.109-1.711-3.819-3.82-3.819c-2.107,0-3.818,1.71-3.818,3.819v25.222
	H300.001H174.233V98.027c0-2.109-1.709-3.819-3.819-3.819s-3.819,1.71-3.819,3.819v29.042c0,73.557-137.32,100.229-138.709,100.491
	c-1.936,0.364-3.28,2.144-3.097,4.108c0.182,1.964,1.83,3.466,3.801,3.466h65.162v49.219c-0.051,0.23-0.086,0.462-0.095,0.707
	c-0.667,19.365-29.47,39.869-29.762,40.076c-1.361,0.959-1.946,2.689-1.442,4.275c0.502,1.588,1.976,2.668,3.638,2.668h27.661
	v70.992H64.309c-2.11,0-3.819,1.711-3.819,3.82v27.875H39.004c-2.11,0-3.819,1.709-3.819,3.818v27.873H17.176
	c-2.108,0-3.819,1.713-3.819,3.82v31.695c0,2.109,1.711,3.82,3.819,3.82h282.825h282.824c2.109,0,3.82-1.711,3.82-3.82v-31.695
	C586.645,468.168,584.934,466.455,582.826,466.455z M59.173,227.498c12.251-3.696,27.036-8.854,41.929-15.727
	c46.008-21.225,71.158-49.124,73.021-80.878h125.878h125.876c1.865,31.754,27.016,59.653,73.021,80.878
	c14.893,6.871,29.678,12.029,41.928,15.727h-38.395H300.001H97.57H59.173z M395.846,244.533c-9.301,0-16.865,7.567-16.865,16.874
	v19.962h-13.973v-19.962c0-9.307-7.568-16.874-16.873-16.874c-9.307,0-16.875,7.567-16.875,16.874v19.962h-13.963v-19.962
	c0-9.307-7.568-16.874-16.876-16.874c-0.142,0-0.281,0.018-0.423,0.021c-0.141-0.002-0.28-0.021-0.423-0.021
	c-9.306,0-16.873,7.567-16.873,16.874v19.962h-13.965v-19.962c0-9.307-7.568-16.874-16.874-16.874
	c-9.305,0-16.874,7.567-16.874,16.874v19.962h-13.974v-19.962c0-9.307-7.564-16.874-16.864-16.874
	c-9.299,0-16.864,7.567-16.864,16.874v19.962h-85.902v-46.233h198.615h198.613v46.233h-85.902v-19.962
	C412.711,252.101,405.145,244.533,395.846,244.533z M405.071,261.407v19.962h-18.449v-19.962c0-5.093,4.137-9.235,9.225-9.235
	S405.071,256.314,405.071,261.407z M357.371,261.407v19.962h-18.471v-19.962c0-5.093,4.143-9.235,9.234-9.235
	C353.229,252.171,357.371,256.314,357.371,261.407z M309.658,261.407v19.962h-9.658h-9.658v-19.962c0-5.093,4.143-9.235,9.235-9.235
	c0.142,0,0.281,0.015,0.423,0.022c0.141-0.007,0.28-0.022,0.421-0.022C305.514,252.171,309.658,256.314,309.658,261.407z
	 M261.102,261.407v19.962h-18.471v-19.962c0-5.093,4.143-9.235,9.235-9.235C256.959,252.171,261.102,256.314,261.102,261.407z
	 M213.381,261.407v19.962H194.93v-19.962c0-5.093,4.138-9.235,9.226-9.235C209.243,252.171,213.381,256.314,213.381,261.407z
	 M76.956,324.436c8.848-7.783,21.581-21.176,23.959-35.428h90.215h26.06h21.653H264.9h21.656h13.445h13.445h21.656h26.057h21.654
	h26.059h90.215c2.379,14.252,15.111,27.645,23.959,35.428h-20.611H300.001H97.57H76.956z M441.03,348.795
	c-12.707,0-23.049,10.342-23.049,23.049v31.221h-24.205v-31.221c0-12.707-10.34-23.049-23.049-23.049
	c-12.707,0-23.047,10.342-23.047,23.049v31.221h-24.205v-31.221c0-12.707-10.34-23.049-23.047-23.049
	c-0.145,0-0.284,0.02-0.425,0.021c-0.143-0.002-0.282-0.021-0.427-0.021c-12.708,0-23.048,10.342-23.048,23.049v31.221h-24.203
	v-31.221c0-12.707-10.339-23.049-23.047-23.049c-12.709,0-23.049,10.342-23.049,23.049v31.221h-24.205v-31.221
	c0-12.707-10.341-23.049-23.05-23.049c-12.707,0-23.048,10.342-23.048,23.049v31.221h-34.54l0.006-70.992h198.61h198.611
	l0.008,70.992h-34.541v-31.221C464.078,359.137,453.739,348.795,441.03,348.795z M456.432,371.844v31.223h-30.818h-0.002v-31.223
	c0-8.496,6.914-15.41,15.41-15.41C449.52,356.434,456.432,363.348,456.432,371.844z M386.133,371.844v31.223h-30.818l0,0v-31.223
	c0-8.496,6.91-15.41,15.408-15.41S386.133,363.348,386.133,371.844z M315.832,371.844v31.223h-15.832h-15.833v-31.223
	c0-8.498,6.914-15.41,15.411-15.41c0.142,0,0.281,0.018,0.423,0.021c0.141-0.004,0.28-0.021,0.421-0.021
	C308.92,356.434,315.832,363.348,315.832,371.844z M244.688,371.844v31.223h-0.001h-30.818v-31.223
	c0-8.498,6.913-15.41,15.411-15.41C237.776,356.434,244.688,363.35,244.688,371.844z M174.389,371.844v31.223h-0.001h-30.819
	v-31.223c0-8.498,6.912-15.41,15.409-15.41C167.477,356.434,174.389,363.35,174.389,371.844z M68.129,410.705H97.57h42.209h38.393
	h31.908h38.391h31.908h19.622h19.619h31.908h38.393h31.906h38.395h42.209h29.441v24.057H300.001H68.129V410.705z M42.823,442.398
	h21.486h235.691h235.691h21.486v24.055H300.001H42.823V442.398z M579.006,498.146H300.001H20.995V474.09H38.99
	c0.006,0,0.01,0.002,0.015,0.002h260.995h260.998c0.004,0,0.008-0.002,0.014-0.002h17.994V498.146z"/>
</svg>
