<?xml version="1.0" encoding="utf-8"?>
<!-- Generator: Adobe Illustrator 15.0.0, SVG Export Plug-In . SVG Version: 6.00 Build 0)  -->
<!DOCTYPE svg PUBLIC "-//W3C//DTD SVG 1.1//EN" "http://www.w3.org/Graphics/SVG/1.1/DTD/svg11.dtd">
<svg version="1.1" id="Capa_1" xmlns="http://www.w3.org/2000/svg" xmlns:xlink="http://www.w3.org/1999/xlink" x="0px" y="0px"
	 width="600px" height="600px" viewBox="0 0 600 600" enable-background="new 0 0 600 600" xml:space="preserve">
<path d="M543.404,241.957L302.174,103.726c-1.347-0.771-3-0.771-4.347,0L56.596,241.957c-1.719,0.984-2.561,3.002-2.05,4.916
	c0.509,1.915,2.243,3.247,4.225,3.247h24.118v192.54v19.672h-16.03c-2.413,0-4.371,1.956-4.371,4.37v25.779
	c0,2.415,1.958,4.372,4.371,4.372h466.285c2.415,0,4.371-1.957,4.371-4.372v-25.779c0-2.414-1.956-4.37-4.371-4.37h-16.03V442.66
	V250.12h24.117c1.981,0,3.713-1.332,4.225-3.247C545.965,244.959,545.122,242.941,543.404,241.957z M210.629,250.12v188.167h-62.17
	V250.12H210.629z M460.285,267.545h48.086V421.79h-48.086V267.545z M508.371,258.801h-48.086v-7.755h48.086V258.801z
	 M460.285,430.533h48.086v7.754h-48.086V430.533z M455.914,447.031h52.457v15.301H91.629v-15.301h52.457h70.914h56.829h56.343H385
	H455.914z M91.629,430.45h48.085v7.84H91.629V430.45z M139.714,421.708H91.629V267.463h48.085V421.708z M139.714,258.719H91.629
	v-7.672h48.085V258.719z M267.457,258.719h-48.085v-7.672h48.085V258.719z M219.372,267.463h48.085v154.245h-48.085V267.463z
	 M219.372,430.45h48.085v7.84h-48.085V430.45z M332.543,267.545h48.085V421.79h-48.085V267.545z M380.628,258.801h-48.085v-7.755
	h48.085V258.801z M332.543,438.287v-7.754h48.085v7.754H332.543z M323.801,438.287h-47.602V250.12h47.602V438.287z M528.771,471.073
	v17.038H71.23v-17.038h16.029h425.484H528.771z M451.543,438.287h-62.17V250.12h62.17V438.287z M75.19,241.377L300,112.556
	l224.808,128.821H75.19z"/>
</svg>
