<?xml version="1.0" encoding="utf-8"?>
<!-- Generator: Adobe Illustrator 15.0.0, SVG Export Plug-In . SVG Version: 6.00 Build 0)  -->
<!DOCTYPE svg PUBLIC "-//W3C//DTD SVG 1.1//EN" "http://www.w3.org/Graphics/SVG/1.1/DTD/svg11.dtd">
<svg version="1.1" id="Capa_1" xmlns="http://www.w3.org/2000/svg" xmlns:xlink="http://www.w3.org/1999/xlink" x="0px" y="0px"
	 width="600px" height="600px" viewBox="0 0 600 600" enable-background="new 0 0 600 600" xml:space="preserve">
<g>
	<path d="M300.003,266.538c-8.397,0-15.227,6.836-15.227,15.233s6.83,15.228,15.227,15.228c8.395,0,15.226-6.83,15.226-15.228
		S308.398,266.538,300.003,266.538z M299.997,289.824c-4.443,0-8.055-3.612-8.055-8.053c0-4.445,3.611-8.058,8.055-8.058
		s8.059,3.612,8.059,8.058C308.056,286.212,304.441,289.824,299.997,289.824z"/>
	<path d="M527.658,125.902c0-0.958-0.373-1.857-1.054-2.532l-34.098-34.108c-1.358-1.364-3.728-1.354-5.076,0l-119.37,119.366
		l-0.987-0.894c-18.429-16.726-42.242-25.934-67.072-25.934c-24.835,0-48.657,9.21-67.077,25.934l-0.99,0.894L216.24,192.94
		l31.567-31.57c0.679-0.68,1.052-1.579,1.052-2.538c0-0.955-0.374-1.852-1.052-2.528l-60.338-60.348h-0.281l-0.293-0.57
		l-40.223-40.225c-1.26-1.261-3.807-1.261-5.068,0l-34.104,34.107c-1.397,1.399-1.397,3.674,0,5.07L226.871,213.71l-0.897,0.993
		c-16.675,18.413-25.858,42.205-25.858,66.987v72.786l-20.515-20.518c-1.343-1.337-3.729-1.337-5.07,0L73.391,435.104
		c-0.677,0.673-1.049,1.573-1.049,2.532c0,0.958,0.373,1.857,1.049,2.538l34.108,34.103c1.354,1.359,3.717,1.359,5.065,0
		l87.551-87.55v148.38c0,2.204,0.094,4.539,0.294,7.356c0.137,1.86,1.708,3.321,3.58,3.321h192.019c1.869,0,3.442-1.457,3.58-3.321
		c0.202-2.676,0.301-5.082,0.301-7.362v-80.166l53.437,53.441c1.365,1.358,3.728,1.358,5.07,0l34.106-34.103
		c0.675-0.675,1.047-1.579,1.047-2.538c0-0.961-0.372-1.857-1.047-2.538l-92.621-92.616v-94.9c0-24.778-9.182-48.568-25.856-66.987
		l-0.897-0.991l15.699-15.695l31.574,31.57c1.359,1.358,3.71,1.358,5.07,0l19.816-19.822l0.285-0.576h0.296l9.626-9.626l0.284-0.57
		h0.285l70.538-70.544C527.285,127.761,527.658,126.856,527.658,125.902z M115.097,91.801l29.04-29.037l4.728,4.73l-14.516,14.515
		c-0.679,0.679-1.055,1.578-1.055,2.532c0,0.958,0.375,1.864,1.055,2.544c1.367,1.358,3.706,1.364,5.074-0.007l14.509-14.515
		l5.124,5.12L144.54,92.206c-0.677,0.674-1.049,1.573-1.049,2.527c0,0.959,0.372,1.859,1.049,2.539c1.362,1.36,3.722,1.36,5.067,0
		l14.516-14.509l5.124,5.125l-14.515,14.509c-0.677,0.676-1.047,1.579-1.047,2.538c0,0.954,0.37,1.858,1.047,2.532
		c1.352,1.354,3.708,1.364,5.07,0l14.515-14.515l5.12,5.121l-14.518,14.521c-1.398,1.397-1.398,3.673,0,5.07
		c1.367,1.365,3.717,1.354,5.073,0l14.515-14.515l5.124,5.121l-14.517,14.515c-0.677,0.674-1.049,1.578-1.049,2.532
		c0,0.958,0.372,1.857,1.049,2.538c1.357,1.359,3.72,1.359,5.065,0l14.527-14.515l5.115,5.125l-14.518,14.509
		c-1.396,1.399-1.396,3.673,0,5.071c1.37,1.365,3.718,1.354,5.073,0l14.515-14.517l5.12,5.126l-14.512,14.509
		c-1.399,1.398-1.396,3.673,0,5.077c1.354,1.348,3.72,1.348,5.067,0l14.519-14.521l5.124,5.125l-14.52,14.515
		c-0.68,0.674-1.052,1.574-1.052,2.533c0,0.954,0.372,1.858,1.052,2.538c1.346,1.348,3.717,1.348,5.071,0l14.515-14.516l5.125,5.115
		l-14.525,14.521c-1.396,1.397-1.396,3.673,0,5.07c1.36,1.36,3.721,1.366,5.068,0l14.522-14.515l4.727,4.725l-29.031,29.037
		L115.097,91.801z M200.109,376.578l-90.076,90.088L80.999,437.63l4.724-4.726l14.518,14.517c1.354,1.36,3.715,1.36,5.064,0
		c0.682-0.68,1.055-1.578,1.055-2.532c0-0.959-0.373-1.859-1.052-2.539l-14.515-14.515l5.124-5.122l14.518,14.518
		c1.335,1.343,3.702,1.36,5.071-0.006c1.395-1.392,1.395-3.674-0.004-5.069l-14.518-14.513l5.125-5.124l14.515,14.515
		c1.352,1.36,3.716,1.36,5.067,0c0.682-0.68,1.055-1.577,1.055-2.532c0-0.959-0.372-1.857-1.052-2.538l-14.512-14.515l5.117-5.122
		l14.52,14.519c1.347,1.348,3.721,1.348,5.064,0c1.395-1.398,1.395-3.674,0-5.073l-14.512-14.515l5.119-5.119l14.516,14.515
		c1.362,1.36,3.706,1.366,5.082-0.006c1.389-1.392,1.389-3.668-0.006-5.063l-14.521-14.523l5.121-5.119l14.518,14.515
		c1.377,1.372,3.711,1.354,5.067,0c1.396-1.397,1.396-3.672,0-5.07l-14.515-14.51l5.121-5.125l14.515,14.509
		c1.36,1.366,3.723,1.373,5.065,0.006c0.682-0.68,1.058-1.572,1.058-2.524c0.003-0.959-0.372-1.866-1.052-2.545l-14.517-14.517
		l5.124-5.12l14.518,14.51c1.349,1.36,3.724,1.36,5.062,0.006c0.685-0.686,1.058-1.577,1.058-2.537c0-0.955-0.375-1.859-1.055-2.538
		l-14.512-14.518l5.123-5.119l14.518,14.522c1.354,1.348,3.711,1.353,5.07-0.006c1.395-1.394,1.392-3.674-0.006-5.077l-14.515-14.51
		l4.727-4.726l23.054,23.052v11.96H200.109z M238.114,212.722c17.051-15.315,39.031-23.753,61.884-23.753
		c22.856,0,44.833,8.437,61.887,23.753l1.101,0.987l-41.979,41.979l-0.976-0.729c-5.858-4.391-12.783-6.716-20.032-6.716
		c-7.242,0-14.169,2.325-20.035,6.716l-0.972,0.729l-41.978-41.979L238.114,212.722z M299.997,308.117
		c-14.529,0-26.349-11.818-26.349-26.346c0-14.533,11.819-26.352,26.349-26.352s26.349,11.819,26.349,26.352
		C326.346,296.299,314.526,308.117,299.997,308.117z M327.453,300.925l1.37-0.038c0.422,0.175,0.888,0.268,1.349,0.268h62.536
		v68.261l-66.615-66.627L327.453,300.925z M207.433,276.619c1.134-20.913,9.488-41.058,23.524-56.726l0.99-1.101l41.974,41.967
		l-0.732,0.977c-3.328,4.429-5.511,9.676-6.314,15.162l-0.178,1.202H207.35L207.433,276.619z M207.285,285.268h59.392l0.171,1.206
		c0.281,1.99,0.713,3.899,1.289,5.675l0.595,1.837h-61.447V285.268z M207.285,301.154h62.543c0.453,0,0.909-0.093,1.351-0.279
		l1.052-0.433l1.696,2.322l-62.762,62.761l-3.882-3.879v-60.492H207.285z M328.078,538.615h-56.156v-82.069
		c0-15.479,12.593-28.076,28.075-28.076c15.483,0,28.081,12.597,28.081,28.076V538.615z M392.714,535.101
		c0,0.703-0.006,1.42-0.033,2.16l-0.05,1.354H335.25v-82.069c0-19.437-15.81-35.248-35.251-35.248
		c-19.436,0-35.249,15.812-35.249,35.248v82.069h-57.387l-0.042-1.36c-0.022-0.74-0.033-1.446-0.033-2.154V379.55l71.704-71.702
		l0.972,0.729c5.869,4.391,12.797,6.715,20.041,6.715c7.243,0,14.173-2.324,20.028-6.715l0.975-0.729l62.752,62.752l-31.57,31.569
		c-0.675,0.68-1.048,1.578-1.048,2.538c0,0.956,0.373,1.858,1.048,2.533l40.528,40.526v87.334H392.714z M484.9,471.735
		l-29.037,29.033l-4.726-4.726l14.511-14.516c0.68-0.68,1.052-1.578,1.052-2.537c0-0.955-0.372-1.859-1.052-2.534
		c-1.354-1.364-3.718-1.354-5.071,0l-14.516,14.517l-5.12-5.12l14.515-14.517c0.681-0.679,1.06-1.583,1.06-2.538
		c0-0.957-0.379-1.852-1.054-2.531c-1.358-1.36-3.716-1.36-5.075,0l-14.517,14.515l-5.119-5.125l14.515-14.517
		c0.681-0.674,1.054-1.578,1.054-2.531c0-0.96-0.373-1.858-1.054-2.538c-1.358-1.36-3.717-1.36-5.069,0l-14.522,14.515l-5.119-5.119
		l14.516-14.516c0.68-0.675,1.053-1.574,1.053-2.532c0-0.955-0.373-1.859-1.053-2.538c-1.354-1.36-3.716-1.36-5.065,0
		l-14.521,14.509l-5.12-5.113l14.517-14.516c0.68-0.681,1.052-1.579,1.052-2.539s-0.372-1.858-1.052-2.538
		c-1.354-1.349-3.717-1.349-5.071,0l-14.515,14.517l-5.127-5.115l14.522-14.521c1.391-1.397,1.391-3.674,0-5.073
		c-1.354-1.348-3.717-1.348-5.077,0l-14.509,14.524l-5.128-5.127l14.518-14.51c1.396-1.398,1.396-3.685,0-5.082
		c-1.349-1.343-3.711-1.354-5.065,0l-14.521,14.521l-5.121-5.118l14.522-14.519c1.396-1.396,1.396-3.672,0-5.069
		c-1.354-1.36-3.719-1.349-5.077,0l-14.517,14.512l-5.119-5.122l14.516-14.515c0.682-0.674,1.055-1.578,1.055-2.532
		c0-0.959-0.375-1.859-1.055-2.539c-1.357-1.36-3.718-1.36-5.07,0l-14.521,14.517l-4.725-4.726l29.031-29.035L484.9,471.735z
		 M392.714,293.986h-61.457l0.604-1.837c0.563-1.748,1.002-3.656,1.293-5.679l0.175-1.202h59.386V293.986z M392.564,276.619
		l0.084,1.48H333.3l-0.18-1.202c-0.802-5.481-2.983-10.722-6.31-15.167l-0.729-0.971l41.968-41.967l0.992,1.101
		C383.082,235.565,391.435,255.712,392.564,276.619z M514.272,130.633l-14.516-14.515c-1.354-1.365-3.718-1.354-5.065,0
		c-1.404,1.397-1.404,3.673-0.005,5.07l14.521,14.516l-5.126,5.12l-14.521-14.516c-1.354-1.348-3.719-1.348-5.067,0
		c-0.677,0.674-1.052,1.579-1.052,2.539c0,0.954,0.375,1.858,1.052,2.534l14.519,14.521l-5.121,5.115l-14.515-14.511
		c-1.36-1.371-3.719-1.358-5.073,0c-0.68,0.674-1.052,1.569-1.052,2.527c-0.006,0.959,0.366,1.864,1.047,2.544l14.516,14.515
		l-5.119,5.126l-14.516-14.521c-1.348-1.359-3.718-1.359-5.065,0c-0.681,0.679-1.052,1.578-1.052,2.532
		c0,0.955,0.371,1.852,1.052,2.532l14.51,14.521l-5.112,5.121l-14.524-14.509c-1.353-1.358-3.721-1.358-5.069,0
		c-0.68,0.674-1.054,1.574-1.054,2.532c0,0.954,0.374,1.858,1.054,2.539l14.515,14.511l-5.119,5.125l-14.516-14.521
		c-1.354-1.36-3.718-1.36-5.076,0c-1.392,1.397-1.392,3.677,0,5.076l14.521,14.511l-5.124,5.125l-14.511-14.521
		c-1.354-1.342-3.723-1.354-5.071,0c-1.402,1.397-1.402,3.673,0,5.072l14.511,14.521l-5.119,5.12l-14.522-14.516
		c-1.349-1.349-3.717-1.349-5.071,0c-1.388,1.397-1.388,3.673,0.006,5.071l14.517,14.521l-5.121,5.115l-14.515-14.511
		c-1.36-1.358-3.717-1.358-5.077,0c-1.397,1.398-1.397,3.673,0,5.071l14.517,14.515l-4.726,4.726l-29.031-29.032l96.062-96.067
		l29.039,29.031L514.272,130.633z"/>
</g>
</svg>
