<?xml version="1.0" encoding="utf-8"?>
<!-- Generator: Adobe Illustrator 15.0.0, SVG Export Plug-In . SVG Version: 6.00 Build 0)  -->
<!DOCTYPE svg PUBLIC "-//W3C//DTD SVG 1.1//EN" "http://www.w3.org/Graphics/SVG/1.1/DTD/svg11.dtd">
<svg version="1.1" id="Capa_1" xmlns="http://www.w3.org/2000/svg" xmlns:xlink="http://www.w3.org/1999/xlink" x="0px" y="0px"
	 width="600px" height="600px" viewBox="0 0 600 600" enable-background="new 0 0 600 600" xml:space="preserve">
<g>
	<path d="M583.696,381.07l-182.13-200.516c-1.435-1.579-4.168-1.579-5.601,0l-31.24,34.392c-0.832,0.421-1.488,1.132-1.826,2.012
		l-77.885,85.749l-81.007-89.186c-1.435-1.579-4.167-1.579-5.6,0l-31.24,34.393c-0.833,0.421-1.487,1.131-1.825,2.009L35.029,393.39
		c-0.241,0.214-0.468,0.447-0.647,0.714l-18.347,20.2c-1.006,1.106-1.265,2.706-0.659,4.073c0.606,1.369,1.963,2.252,3.459,2.252
		h364.743c0.01,0,0.02,0,0.025,0c2.09,0,3.783-1.694,3.783-3.783c0-1.115-0.481-2.118-1.249-2.811l-23.956-26.375h218.957
		c0.01,0.003,0.019,0.003,0.026,0c2.089,0,3.783-1.692,3.783-3.783C584.944,382.764,584.463,381.763,583.696,381.07z
		 M375.03,413.063H27.383l11.863-13.061h23.319c2.09,0,3.783-1.693,3.783-3.783c0-2.089-1.693-3.783-3.783-3.783H46.118l7.754-8.537
		h24.081c2.09,0,3.783-1.695,3.783-3.783c0-2.091-1.693-3.784-3.783-3.784H60.745l7.797-8.584c0.155,0.019,0.31,0.047,0.47,0.047
		h25.046c2.089,0,3.784-1.694,3.784-3.783c0-2.091-1.695-3.783-3.784-3.783H75.373l7.756-8.54h23.577
		c2.09,0,3.783-1.694,3.783-3.783c0-2.09-1.693-3.783-3.783-3.783H90.001l7.755-8.54c0.002,0,0.005,0.003,0.007,0.003h25.046
		c2.09,0,3.783-1.694,3.783-3.783c0-2.092-1.693-3.783-3.783-3.783h-18.182l7.967-8.774c0.4,0.145,0.824,0.236,1.273,0.236h25.045
		c2.09,0,3.783-1.693,3.783-3.783s-1.693-3.783-3.783-3.783h-19.66l8.454-9.307c0.633,0.477,1.411,0.77,2.264,0.77h25.046
		c2.09,0,3.784-1.694,3.784-3.784c0-2.089-1.693-3.783-3.784-3.783h-21.136l7.754-8.538h24.889c2.09,0,3.783-1.693,3.783-3.784
		c0-2.09-1.693-3.783-3.783-3.783h-18.017l7.933-8.732c0.363,0.115,0.741,0.194,1.143,0.194h25.045c2.09,0,3.783-1.694,3.783-3.784
		c0-2.089-1.693-3.783-3.783-3.783h-19.494l7.755-8.538h23.014h0.358c2.089,0,3.784-1.693,3.784-3.783s-1.695-3.783-3.784-3.783
		h-0.358h-16.141l23.437-25.803L375.03,413.063z M355.306,380.096l-55.747-61.376h4.708c2.09,0,3.783-1.693,3.783-3.782
		c0-2.09-1.693-3.783-3.783-3.783h-11.582l-2.562-2.82l5.193-5.718c0.002,0,0.005,0,0.008,0h25.045c2.09,0,3.783-1.693,3.783-3.784
		c0-2.09-1.693-3.783-3.783-3.783h-18.182l7.968-8.772c0.399,0.144,0.824,0.236,1.272,0.236h25.045c2.091,0,3.784-1.693,3.784-3.783
		s-1.693-3.784-3.784-3.784h-19.658l8.454-9.307c0.632,0.477,1.408,0.77,2.264,0.77h25.045c2.09,0,3.783-1.693,3.783-3.784
		c0-2.089-1.693-3.783-3.783-3.783h-21.137l7.756-8.538h24.887c2.091,0,3.784-1.693,3.784-3.784c0-2.089-1.693-3.783-3.784-3.783
		H346.07l7.931-8.732c0.362,0.115,0.742,0.194,1.142,0.194h25.048c2.09,0,3.783-1.693,3.783-3.783c0-2.089-1.693-3.783-3.783-3.783
		h-19.493l7.754-8.538h23.015h0.356c2.091,0,3.784-1.693,3.784-3.783c0-2.089-1.693-3.783-3.784-3.783h-0.356h-16.142l23.438-25.803
		L572.59,380.096H355.306z"/>
	<path d="M257.323,387.32h26.483c2.09,0,3.783-1.693,3.783-3.783s-1.693-3.783-3.783-3.783h-26.483c-2.09,0-3.784,1.693-3.784,3.783
		S255.234,387.32,257.323,387.32z"/>
	<path d="M210.241,354.531h26.483c2.09,0,3.783-1.693,3.783-3.783s-1.693-3.783-3.783-3.783h-26.483
		c-2.09,0-3.784,1.693-3.784,3.783S208.152,354.531,210.241,354.531z"/>
	<path d="M215.286,296.52h26.483c2.09,0,3.784-1.693,3.784-3.783s-1.693-3.783-3.784-3.783h-26.483c-2.09,0-3.783,1.693-3.783,3.783
		S213.196,296.52,215.286,296.52z"/>
	<path d="M457.841,354.531h26.483c2.089,0,3.783-1.693,3.783-3.783s-1.694-3.783-3.783-3.783h-26.483
		c-2.09,0-3.783,1.693-3.783,3.783S455.751,354.531,457.841,354.531z"/>
	<path d="M410.757,321.742h26.483c2.09,0,3.783-1.694,3.783-3.783s-1.693-3.783-3.783-3.783h-26.483
		c-2.089,0-3.783,1.693-3.783,3.783S408.668,321.742,410.757,321.742z"/>
	<path d="M415.802,263.729h26.483c2.09,0,3.783-1.693,3.783-3.784c0-2.09-1.693-3.783-3.783-3.783h-26.483
		c-2.089,0-3.783,1.693-3.783,3.783C412.019,262.036,413.713,263.729,415.802,263.729z"/>
</g>
</svg>
