<?xml version="1.0" encoding="utf-8"?>
<!-- Generator: Adobe Illustrator 15.0.0, SVG Export Plug-In . SVG Version: 6.00 Build 0)  -->
<!DOCTYPE svg PUBLIC "-//W3C//DTD SVG 1.1//EN" "http://www.w3.org/Graphics/SVG/1.1/DTD/svg11.dtd">
<svg version="1.1" id="Capa_1" xmlns="http://www.w3.org/2000/svg" xmlns:xlink="http://www.w3.org/1999/xlink" x="0px" y="0px"
	 width="600px" height="600px" viewBox="0 0 600 600" enable-background="new 0 0 600 600" xml:space="preserve">
<g>
	<path fill="#222221" d="M443.982,208.774h-8.646V63.036c0-2.455-1.988-4.442-4.443-4.442h-6.496
		c-2.109-12.003-12.586-21.165-25.185-21.165h-29.319c-12.603,0-23.084,9.159-25.196,21.165h-6.116
		c-2.454,0-4.443,1.988-4.443,4.442v145.739h-68.272V63.036c0-2.455-1.99-4.442-4.443-4.442h-6.25
		c-2.114-12.003-12.587-21.165-25.188-21.165h-29.32c-12.601,0-23.081,9.159-25.192,21.165h-6.361c-2.454,0-4.444,1.988-4.444,4.442
		v145.739h-8.645c-2.454,0-4.444,1.988-4.444,4.442v344.91c0,2.454,1.99,4.445,4.444,4.445h287.962c2.454,0,4.442-1.988,4.442-4.445
		v-344.91C448.424,210.764,446.436,208.774,443.982,208.774z M369.892,46.315h29.319c7.68,0,14.171,5.207,16.119,12.278h-61.563
		C355.721,51.522,362.209,46.315,369.892,46.315z M200.664,46.315h29.32c7.683,0,14.171,5.207,16.122,12.278h-61.562
		C186.494,51.522,192.983,46.315,200.664,46.315z M439.538,553.687H160.463V217.66h8.646c2.453,0,4.443-1.99,4.443-4.443V67.479
		h5.95h71.646h0.027h5.803v145.738c0,2.454,1.99,4.443,4.444,4.443h77.157c2.454,0,4.442-1.99,4.442-4.443V67.479h5.705h71.646
		h0.029h6.05v145.738c0,2.454,1.988,4.443,4.442,4.443h8.646v336.026H439.538z"/>
	<path fill="#222221" d="M206.281,91.661h-17.853c-2.453,0-4.443,1.989-4.443,4.444v100.58c0,2.453,1.99,4.443,4.443,4.443h17.853
		c2.454,0,4.444-1.99,4.444-4.443V96.104C210.723,93.65,208.735,91.661,206.281,91.661z M201.838,192.241h-8.967v-91.694h8.967
		V192.241z"/>
	<path fill="#222221" d="M242.222,91.661h-17.853c-2.453,0-4.443,1.989-4.443,4.444v100.58c0,2.453,1.99,4.443,4.443,4.443h17.853
		c2.454,0,4.444-1.99,4.444-4.443V96.104C246.665,93.65,244.675,91.661,242.222,91.661z M237.779,192.241h-8.967v-91.694h8.967
		V192.241z"/>
	<path fill="#222221" d="M379.948,196.683V96.103c0-2.455-1.989-4.444-4.443-4.444h-17.853c-2.454,0-4.442,1.989-4.442,4.444v100.58
		c0,2.454,1.988,4.443,4.442,4.443h17.853C377.959,201.126,379.948,199.137,379.948,196.683z M371.063,192.241h-8.967v-91.694h8.967
		V192.241z"/>
	<path fill="#222221" d="M415.89,196.683V96.103c0-2.455-1.986-4.444-4.443-4.444h-17.852c-2.455,0-4.443,1.989-4.443,4.444v100.58
		c0,2.454,1.988,4.443,4.443,4.443h17.852C413.901,201.126,415.89,199.137,415.89,196.683z M407.004,192.241h-8.967v-91.694h8.967
		V192.241z"/>
	<path fill="#222221" d="M274.37,289.995c2.454,0,4.443-1.988,4.443-4.442v-47.535c0-2.454-1.989-4.442-4.443-4.442h-13.955
		c-2.454,0-4.441,1.988-4.441,4.442v47.535c0,2.454,1.987,4.442,4.441,4.442H274.37z M264.859,242.461h5.07v38.65h-5.07V242.461z"/>
	<path fill="#222221" d="M286.047,289.995h13.955c2.453,0,4.442-1.988,4.442-4.442v-47.535c0-2.454-1.989-4.442-4.442-4.442h-13.955
		c-2.454,0-4.443,1.988-4.443,4.442v47.535C281.604,288.005,283.594,289.995,286.047,289.995z M290.488,242.461h5.07v38.65h-5.07
		V242.461z"/>
	<path fill="#222221" d="M311.677,289.995h13.955c2.454,0,4.443-1.988,4.443-4.442v-47.535c0-2.454-1.989-4.442-4.443-4.442h-13.955
		c-2.454,0-4.443,1.988-4.443,4.442v47.535C307.234,288.005,309.223,289.995,311.677,289.995z M316.119,242.461h5.07v38.65h-5.07
		V242.461z"/>
	<path fill="#222221" d="M351.262,233.575h-13.956c-2.451,0-4.442,1.988-4.442,4.442v47.535c0,2.454,1.988,4.441,4.442,4.441h13.956
		c2.454,0,4.442-1.988,4.442-4.441v-47.535C355.704,235.564,353.716,233.575,351.262,233.575z M346.819,281.109h-5.066v-38.65h5.066
		V281.109z"/>
	<path fill="#222221" d="M300.001,325.64c-23.45,0-42.527,19.08-42.527,42.529c0,23.45,19.077,42.526,42.527,42.526
		c23.449,0,42.525-19.076,42.525-42.526C342.527,344.72,323.45,325.64,300.001,325.64z M300.001,401.81
		c-18.549,0-33.642-15.091-33.642-33.641c0-18.552,15.091-33.644,33.642-33.644c18.549,0,33.64,15.092,33.64,33.644
		C333.641,386.719,318.55,401.81,300.001,401.81z"/>
	<path fill="#222221" d="M300.001,346.256c-12.084,0-21.913,9.83-21.913,21.913s9.83,21.913,21.913,21.913
		c12.082,0,21.912-9.83,21.912-21.913S312.083,346.256,300.001,346.256z M300.001,381.196c-7.184,0-13.027-5.845-13.027-13.027
		c0-7.185,5.843-13.027,13.027-13.027c7.185,0,13.026,5.843,13.026,13.027C313.028,375.352,307.186,381.196,300.001,381.196z"/>
	<path fill="#222221" d="M201.609,347.408h-19.959c-2.454,0-4.443,1.985-4.443,4.442v39.104c0,2.454,1.989,4.445,4.443,4.445h19.959
		c2.454,0,4.443-1.988,4.443-4.445v-39.104C206.052,349.394,204.063,347.408,201.609,347.408z M197.166,386.512h-11.074v-30.221
		h11.074V386.512z"/>
	<path fill="#222221" d="M235.55,347.408H215.59c-2.453,0-4.443,1.985-4.443,4.442v39.104c0,2.454,1.99,4.445,4.443,4.445h19.959
		c2.454,0,4.443-1.988,4.443-4.445v-39.104C239.992,349.394,238.004,347.408,235.55,347.408z M231.108,386.512h-11.075v-30.221
		h11.075V386.512z"/>
	<path fill="#222221" d="M384.412,347.408h-19.959c-2.454,0-4.443,1.985-4.443,4.442v39.104c0,2.454,1.986,4.445,4.443,4.445h19.959
		c2.455,0,4.443-1.988,4.443-4.445v-39.104C388.856,349.394,386.867,347.408,384.412,347.408z M379.967,386.512h-11.071v-30.221
		h11.071V386.512z"/>
	<path fill="#222221" d="M418.352,347.408h-19.959c-2.452,0-4.443,1.985-4.443,4.442v39.104c0,2.454,1.989,4.445,4.443,4.445h19.959
		c2.454,0,4.443-1.988,4.443-4.445v-39.104C422.795,349.394,420.806,347.408,418.352,347.408z M413.909,386.512h-11.074v-30.221
		h11.074V386.512z"/>
	<path fill="#222221" d="M201.609,479.938h-19.959c-2.454,0-4.443,1.989-4.443,4.445v39.104c0,2.454,1.989,4.443,4.443,4.443h19.959
		c2.454,0,4.443-1.986,4.443-4.443v-39.104C206.052,481.93,204.063,479.938,201.609,479.938z M197.166,519.045h-11.074v-30.221
		h11.074V519.045z"/>
	<path fill="#222221" d="M235.55,479.938H215.59c-2.453,0-4.443,1.989-4.443,4.445v39.104c0,2.454,1.99,4.443,4.443,4.443h19.959
		c2.454,0,4.443-1.986,4.443-4.443v-39.104C239.992,481.93,238.004,479.938,235.55,479.938z M231.108,519.045h-11.075v-30.221
		h11.075V519.045z"/>
	<path fill="#222221" d="M384.412,479.938h-19.959c-2.454,0-4.443,1.989-4.443,4.445v39.104c0,2.454,1.986,4.443,4.443,4.443h19.959
		c2.455,0,4.443-1.986,4.443-4.443v-39.104C388.856,481.93,386.867,479.938,384.412,479.938z M379.967,519.045h-11.071v-30.221
		h11.071V519.045z"/>
	<path fill="#222221" d="M418.352,479.938h-19.959c-2.452,0-4.443,1.989-4.443,4.445v39.104c0,2.454,1.989,4.443,4.443,4.443h19.959
		c2.454,0,4.443-1.986,4.443-4.443v-39.104C422.795,481.93,420.806,479.938,418.352,479.938z M413.909,519.045h-11.074v-30.221
		h11.074V519.045z"/>
	<path fill="#222221" d="M293.011,479.938H273.05c-2.453,0-4.443,1.989-4.443,4.445v39.104c0,2.454,1.99,4.443,4.443,4.443h19.959
		c2.455,0,4.443-1.986,4.443-4.443v-39.104C297.452,481.93,295.464,479.938,293.011,479.938z M288.568,519.045h-11.075v-30.221
		h11.075V519.045z"/>
	<path fill="#222221" d="M326.951,479.938h-19.96c-2.451,0-4.442,1.989-4.442,4.445v39.104c0,2.454,1.988,4.443,4.442,4.443h19.96
		c2.454,0,4.442-1.986,4.442-4.443v-39.104C331.394,481.93,329.406,479.938,326.951,479.938z M322.508,519.045h-11.073v-30.221
		h11.073V519.045z"/>
</g>
</svg>
