<?xml version="1.0" encoding="utf-8"?>
<!-- Generator: Adobe Illustrator 15.0.0, SVG Export Plug-In . SVG Version: 6.00 Build 0)  -->
<!DOCTYPE svg PUBLIC "-//W3C//DTD SVG 1.1//EN" "http://www.w3.org/Graphics/SVG/1.1/DTD/svg11.dtd">
<svg version="1.1" id="Capa_1" xmlns="http://www.w3.org/2000/svg" xmlns:xlink="http://www.w3.org/1999/xlink" x="0px" y="0px"
	 width="600px" height="600px" viewBox="0 0 600 600" enable-background="new 0 0 600 600" xml:space="preserve">
<g>
	<path fill="#222221" d="M300,367.516c-24.358,0-44.173,19.817-44.173,44.175v73.794c0,2.695,0.256,5.43,0.758,8.135
		c0.414,2.214,2.346,3.819,4.598,3.819h77.633c2.254,0,4.188-1.606,4.599-3.823c0.502-2.704,0.755-5.44,0.755-8.131V411.69
		C344.172,387.333,324.355,367.516,300,367.516z M334.818,485.484c0,0.862-0.033,1.729-0.098,2.601h-69.44
		c-0.065-0.872-0.099-1.738-0.099-2.601V411.69c0-19.199,15.62-34.82,34.819-34.82c19.197,0,34.818,15.621,34.818,34.82V485.484
		L334.818,485.484z"/>
	<path fill="#222221" d="M282.177,338.021h35.646c2.25,0,4.184-1.604,4.598-3.815c0.259-1.392,0.39-2.804,0.39-4.2v-33.881
		c0-12.58-10.231-22.814-22.811-22.814s-22.812,10.233-22.812,22.814v33.881c0,1.396,0.131,2.811,0.392,4.2
		C277.993,336.416,279.925,338.021,282.177,338.021z M286.542,296.122c0-7.421,6.037-13.459,13.458-13.459
		c7.421,0,13.457,6.039,13.457,13.459v32.544h-26.915V296.122L286.542,296.122z"/>
	<path fill="#222221" d="M282.177,244.925h35.646c2.25,0,4.184-1.604,4.598-3.818c0.259-1.391,0.39-2.805,0.39-4.2v-33.883
		c0-12.578-10.231-22.812-22.811-22.812s-22.812,10.234-22.812,22.812v33.883c0,1.396,0.131,2.809,0.392,4.2
		C277.993,243.319,279.925,244.925,282.177,244.925z M286.542,203.023c0-7.421,6.037-13.458,13.458-13.458
		c7.421,0,13.457,6.037,13.457,13.458v32.547h-26.915V203.023L286.542,203.023z"/>
	<path fill="#222221" d="M188.786,413.038c-10,0-18.133,8.135-18.133,18.135v25.144c0,1.111,0.104,2.231,0.309,3.337
		c0.414,2.217,2.345,3.821,4.598,3.821h26.453c2.254,0,4.188-1.607,4.599-3.824c0.204-1.105,0.31-2.227,0.31-3.334v-25.144
		C206.921,421.173,198.784,413.038,188.786,413.038z M197.567,454.117h-17.56v-22.946c0-4.84,3.937-8.78,8.779-8.78
		c4.84,0,8.781,3.938,8.781,8.78V454.117z"/>
	<path fill="#222221" d="M188.786,343.95c-10,0-18.133,8.135-18.133,18.133v25.146c0,1.108,0.104,2.23,0.309,3.336
		c0.414,2.215,2.345,3.819,4.598,3.819h26.453c2.254,0,4.188-1.607,4.599-3.822c0.204-1.105,0.31-2.228,0.31-3.333v-25.146
		C206.921,352.085,198.784,343.95,188.786,343.95z M197.567,385.031h-17.56v-22.948c0-4.84,3.937-8.779,8.779-8.779
		c4.84,0,8.781,3.938,8.781,8.779V385.031z"/>
	<path fill="#222221" d="M188.786,273.31c-10,0-18.133,8.135-18.133,18.135v25.146c0,1.108,0.104,2.229,0.309,3.336
		c0.414,2.215,2.345,3.82,4.598,3.82h26.453c2.254,0,4.188-1.608,4.599-3.825c0.204-1.105,0.31-2.226,0.31-3.331v-25.145
		C206.921,281.445,198.784,273.31,188.786,273.31z M197.567,314.388h-17.56v-22.945c0-4.84,3.937-8.781,8.779-8.781
		c4.84,0,8.781,3.939,8.781,8.781V314.388z"/>
	<path fill="#222221" d="M411.212,413.038c-10,0-18.136,8.135-18.136,18.135v25.144c0,1.104,0.104,2.226,0.311,3.334
		c0.411,2.217,2.345,3.824,4.598,3.824h26.452c2.254,0,4.19-1.607,4.599-3.824c0.207-1.108,0.311-2.229,0.311-3.334v-25.144
		C429.349,421.173,421.212,413.038,411.212,413.038z M419.994,454.117h-17.563v-22.946c0-4.84,3.939-8.78,8.781-8.78
		s8.782,3.938,8.782,8.78V454.117L419.994,454.117z"/>
	<path fill="#222221" d="M411.212,343.95c-10,0-18.136,8.135-18.136,18.133v25.146c0,1.103,0.104,2.225,0.311,3.333
		c0.411,2.215,2.345,3.822,4.598,3.822h26.452c2.254,0,4.19-1.607,4.599-3.822c0.207-1.108,0.311-2.23,0.311-3.333v-25.146
		C429.349,352.085,421.212,343.95,411.212,343.95z M419.994,385.031h-17.563v-22.948c0-4.84,3.939-8.779,8.781-8.779
		s8.782,3.938,8.782,8.779V385.031L419.994,385.031z"/>
	<path fill="#222221" d="M411.212,273.31c-10,0-18.136,8.135-18.136,18.135v25.146c0,1.103,0.104,2.223,0.311,3.331
		c0.411,2.217,2.345,3.825,4.598,3.825h26.452c2.254,0,4.19-1.608,4.599-3.825c0.207-1.108,0.311-2.229,0.311-3.331v-25.146
		C429.349,281.445,421.212,273.31,411.212,273.31z M419.994,314.388h-17.563v-22.945c0-4.84,3.939-8.781,8.781-8.781
		s8.782,3.939,8.782,8.781V314.388L419.994,314.388z"/>
	<path fill="#222221" d="M482.494,411.367c-10,0-18.133,8.134-18.133,18.134v25.146c0,1.103,0.101,2.225,0.308,3.333
		c0.414,2.215,2.348,3.822,4.598,3.822h26.452c2.254,0,4.19-1.607,4.599-3.822c0.207-1.108,0.311-2.23,0.311-3.333v-25.146
		C500.631,419.501,492.494,411.367,482.494,411.367z M491.277,452.448h-17.561v-22.947c0-4.84,3.937-8.779,8.778-8.779
		s8.782,3.938,8.782,8.779V452.448L491.277,452.448z"/>
	<path fill="#222221" d="M482.494,340.727c-10,0-18.133,8.135-18.133,18.135v25.145c0,1.103,0.101,2.225,0.308,3.333
		c0.414,2.217,2.348,3.824,4.598,3.824h26.452c2.254,0,4.19-1.607,4.599-3.824c0.207-1.108,0.311-2.23,0.311-3.333v-25.145
		C500.631,348.861,492.494,340.727,482.494,340.727z M491.277,381.806h-17.561V358.86c0-4.841,3.937-8.781,8.778-8.781
		s8.782,3.938,8.782,8.781V381.806L491.277,381.806z"/>
	<path fill="#222221" d="M117.504,411.367c-9.999,0-18.135,8.134-18.135,18.134v25.146c0,1.103,0.105,2.225,0.311,3.333
		c0.411,2.215,2.345,3.822,4.6,3.822h26.453c2.255,0,4.188-1.607,4.6-3.822c0.206-1.108,0.311-2.23,0.311-3.333v-25.146
		C135.639,419.501,127.502,411.367,117.504,411.367z M126.284,452.448h-17.562v-22.947c0-4.84,3.939-8.779,8.78-8.779
		c4.843,0,8.782,3.938,8.782,8.779V452.448z"/>
	<path fill="#222221" d="M117.504,340.727c-9.999,0-18.135,8.135-18.135,18.135v25.145c0,1.103,0.105,2.225,0.311,3.333
		c0.411,2.217,2.345,3.824,4.6,3.824h26.453c2.255,0,4.188-1.607,4.6-3.824c0.206-1.108,0.311-2.23,0.311-3.333v-25.145
		C135.639,348.861,127.502,340.727,117.504,340.727z M126.284,381.806h-17.562V358.86c0-4.841,3.939-8.781,8.78-8.781
		c4.843,0,8.782,3.938,8.782,8.781V381.806z"/>
	<path fill="#222221" d="M551.898,488.085h-8.599v-296.96c0-2.205-1.538-4.109-3.694-4.573c-2.155-0.466-4.342,0.643-5.246,2.652
		l-6.429,14.269l-6.182-14.214c-0.88-2.031-3.062-3.166-5.24-2.714c-2.171,0.451-3.725,2.364-3.725,4.579v89.75l-58.44-43.492
		l-11.19-114.013c-0.231-2.362-2.196-4.176-4.568-4.221c-0.03,0-0.058,0-0.091,0c-2.333,0-4.318,1.724-4.632,4.047l-12.214,89.858
		l-84.238-62.689V79.392c0-2.205-1.538-4.109-3.694-4.573c-2.155-0.461-4.342,0.643-5.246,2.652l-6.429,14.27l-6.182-14.214
		c-0.883-2.032-3.069-3.166-5.24-2.714s-3.724,2.364-3.724,4.579v48.263l-4.105-3.053c-1.653-1.233-3.927-1.233-5.582,0
		l-4.102,3.053V79.392c0-2.215-1.556-4.127-3.726-4.579c-2.171-0.448-4.358,0.683-5.241,2.714l-6.182,14.214l-6.428-14.27
		c-0.904-2.01-3.087-3.118-5.245-2.652c-2.156,0.464-3.695,2.369-3.695,4.573v70.971l-84.239,62.689l-12.213-89.858
		c-0.321-2.353-2.412-4.139-4.722-4.047c-2.372,0.043-4.334,1.858-4.567,4.221L145.66,237.38l-58.444,43.494v-89.751
		c0-2.215-1.556-4.128-3.724-4.579c-2.168-0.455-4.357,0.683-5.242,2.714l-6.18,14.214l-6.428-14.269
		c-0.906-2.01-3.086-3.117-5.247-2.652c-2.156,0.463-3.695,2.369-3.695,4.573v296.96h-8.6c-10.257,0-18.601,8.345-18.601,18.601
		c0,10.255,8.343,18.602,18.601,18.602h503.797c10.259,0,18.603-8.347,18.603-18.602C570.5,496.43,562.156,488.085,551.898,488.085z
		 M551.898,515.931H48.1c-5.097,0-9.246-4.147-9.246-9.246s4.149-9.246,9.246-9.246h13.277c2.583,0,4.677-2.094,4.677-4.678V212.896
		l1.827,4.054c0.755,1.68,2.425,2.757,4.263,2.757c0.009,0,0.021,0,0.032,0c1.851-0.012,3.52-1.115,4.257-2.813l1.428-3.282v76.574
		c0,1.768,0.999,3.385,2.578,4.18c1.581,0.795,3.473,0.628,4.892-0.426l67.573-50.289c1.058-0.787,1.734-1.983,1.863-3.295
		l7.485-76.283l7.896,58.096c0.222,1.64,1.297,3.04,2.821,3.681c1.525,0.641,3.279,0.429,4.605-0.56l92.483-68.825
		c1.186-0.883,1.885-2.273,1.885-3.753v-51.547l1.826,4.054c0.757,1.679,2.425,2.756,4.265,2.756c0.009,0,0.02,0,0.03,0
		c1.853-0.012,3.521-1.115,4.259-2.813l1.428-3.283v35.087c0,1.769,0.997,3.385,2.576,4.18c1.582,0.795,3.476,0.628,4.893-0.427
		l8.779-6.532l8.78,6.532c1.419,1.058,3.312,1.221,4.891,0.427c1.58-0.793,2.579-2.411,2.579-4.18v-35.085l1.428,3.284
		c0.737,1.698,2.405,2.8,4.257,2.812c1.843,0.028,3.535-1.068,4.294-2.756l1.827-4.054v51.548c0,1.479,0.697,2.871,1.885,3.753
		l92.481,68.825c1.331,0.988,3.085,1.201,4.607,0.56c1.525-0.643,2.598-2.042,2.819-3.681l7.896-58.098l7.487,76.284
		c0.128,1.311,0.808,2.509,1.864,3.296l67.57,50.287c1.419,1.055,3.315,1.22,4.893,0.426c1.581-0.793,2.576-2.41,2.576-4.18v-76.574
		l1.429,3.284c0.739,1.697,2.408,2.8,4.26,2.812c0.009,0,0.019,0,0.03,0c1.84,0,3.508-1.077,4.264-2.756l1.826-4.054v279.865
		c0,2.583,2.093,4.677,4.678,4.677h13.276c5.101,0,9.245,4.147,9.245,9.246C561.146,511.783,556.998,515.931,551.898,515.931z"/>
</g>
</svg>
