<?xml version="1.0" encoding="utf-8"?>
<!-- Generator: Adobe Illustrator 15.0.0, SVG Export Plug-In . SVG Version: 6.00 Build 0)  -->
<!DOCTYPE svg PUBLIC "-//W3C//DTD SVG 1.1//EN" "http://www.w3.org/Graphics/SVG/1.1/DTD/svg11.dtd">
<svg version="1.1" id="Capa_1" xmlns="http://www.w3.org/2000/svg" xmlns:xlink="http://www.w3.org/1999/xlink" x="0px" y="0px"
	 width="600px" height="600px" viewBox="0 0 600 600" enable-background="new 0 0 600 600" xml:space="preserve">
<g>
	<path d="M559.222,182.193c-0.285-0.115-11.717-4.816-25.351-12.62c0.465-1.65,0.736-3.379,0.736-5.176v-17.024
		c0-6.653-3.392-12.528-8.538-15.99c2.322-2.568,3.749-5.961,3.749-9.687v-11.674c0-7.982-6.495-14.478-14.477-14.478
		c-7.982,0-14.478,6.495-14.478,14.478v11.674c0,3.734,1.433,7.131,3.762,9.7c-3.37,2.271-5.981,5.573-7.384,9.458
		c-5.727-7.062-9.438-14.694-9.438-22.616c0-2.228-1.806-4.032-4.032-4.032H120.037c-2.227,0-4.032,1.805-4.032,4.032
		c0,9.039-5.107,17.705-12.653,25.583c-0.967-5.163-3.989-9.607-8.193-12.438c2.321-2.568,3.749-5.961,3.749-9.687v-11.674
		c0-7.982-6.494-14.478-14.477-14.478c-7.982,0-14.476,6.495-14.476,14.478v11.674c0,3.726,1.427,7.118,3.749,9.687
		c-5.144,3.463-8.537,9.338-8.537,15.99v17.024c0,2.061,0.338,4.039,0.943,5.898c-13.719,7.352-24.979,11.761-25.269,11.872
		c-1.812,0.7-2.868,2.591-2.512,4.5c0.357,1.909,2.021,3.294,3.964,3.294H65.14V466.15H44.98c-2.228,0-4.032,1.805-4.032,4.032
		v30.24c0,2.228,1.805,4.032,4.032,4.032h510.039c2.228,0,4.032-1.805,4.032-4.032v-30.24c0-2.228-1.805-4.032-4.032-4.032H534.86
		V189.964h22.848c1.931,0,3.588-1.367,3.957-3.261C562.036,184.809,561.011,182.92,559.222,182.193z M508.929,121.696v-11.674
		c0-3.536,2.879-6.413,6.413-6.413c3.535,0,6.412,2.878,6.412,6.413v11.674c0,3.536-2.877,6.413-6.412,6.413
		C511.808,128.109,508.929,125.232,508.929,121.696z M515.342,136.173c6.177,0,11.201,5.024,11.201,11.2v17.024
		c0,0.259-0.027,0.512-0.045,0.766c-7.757-4.858-15.7-10.573-22.357-16.9v-0.89C504.141,141.197,509.164,136.173,515.342,136.173z
		 M78.018,121.696v-11.674c0-3.536,2.877-6.413,6.412-6.413c3.536,0,6.413,2.878,6.413,6.413v11.674
		c0,3.536-2.877,6.413-6.413,6.413C80.895,128.109,78.018,125.232,78.018,121.696z M73.229,164.397v-17.024
		c0-6.176,5.025-11.2,11.2-11.2c6.177,0,11.2,5.024,11.2,11.2v3.604c-6.853,5.709-14.68,10.857-22.232,15.253
		C73.299,165.631,73.229,165.023,73.229,164.397z M530.827,474.216h20.159v22.177H49.011v-22.177h20.16
		c2.228,0,4.032-1.805,4.032-4.032v-280.22h453.592v280.22C526.795,472.411,528.602,474.216,530.827,474.216z M530.827,181.899
		H69.171h-7.915c22.548-11.065,59.127-32.93,62.555-59.629h356.173c3.27,26.688,38.14,48.569,59.597,59.629H530.827z"/>
	<path d="M214.23,391.436c-18.689,0-33.894,15.203-33.894,33.895v46.201c0,0.157,0.004,0.315,0.009,0.472l0.005,0.162
		c0.04,2.2,1.833,3.962,4.032,3.962h59.695c2.198,0,3.993-1.765,4.032-3.962l0.005-0.162c0.005-0.155,0.009-0.312,0.009-0.472
		V425.33C248.124,406.641,232.919,391.436,214.23,391.436z M240.06,468.062H188.4V425.33c0-14.243,11.587-25.83,25.83-25.83
		c14.244,0,25.83,11.587,25.83,25.83V468.062z"/>
	<path d="M300,391.436c-18.689,0-33.894,15.203-33.894,33.895v46.201c0,0.157,0.004,0.315,0.009,0.472l0.005,0.162
		c0.038,2.2,1.831,3.962,4.032,3.962h59.693c2.196,0,3.986-1.754,4.031-3.95l0.007-0.16c0.005-0.161,0.01-0.322,0.01-0.485V425.33
		C333.894,406.641,318.69,391.436,300,391.436z M325.83,468.062h-51.662V425.33c0-14.243,11.587-25.83,25.83-25.83
		c14.244,0,25.832,11.587,25.832,25.83V468.062L325.83,468.062z"/>
	<path d="M385.77,391.436c-18.689,0-33.896,15.203-33.896,33.895v46.201c0,0.164,0.006,0.328,0.013,0.491l0.005,0.154
		c0.046,2.196,1.836,3.95,4.031,3.95h59.694c2.205,0,4.001-1.771,4.032-3.976l0.004-0.159c0.007-0.153,0.011-0.306,0.011-0.461
		V425.33C419.662,406.641,404.459,391.436,385.77,391.436z M411.598,468.062h-51.66V425.33c0-14.243,11.587-25.83,25.831-25.83
		c14.242,0,25.829,11.587,25.829,25.83V468.062L411.598,468.062z"/>
	<path d="M141.402,293.664h-32.257c-2.228,0-4.032,1.805-4.032,4.032v58.466c0,2.227,1.805,4.032,4.032,4.032h32.257
		c2.227,0,4.032-1.806,4.032-4.032v-58.466C145.434,295.469,143.629,293.664,141.402,293.664z M137.37,352.13h-24.193v-50.401
		h24.193V352.13z"/>
	<path d="M125.727,255.399v-31.668c0-2.227-1.805-4.032-4.032-4.032h-17.473c-2.228,0-4.032,1.806-4.032,4.032v31.668
		c0,2.228,1.805,4.032,4.032,4.032h17.473C123.922,259.432,125.727,257.627,125.727,255.399z M117.663,251.368h-9.409v-23.604h9.409
		V251.368z"/>
	<path d="M159.103,219.699H141.63c-2.227,0-4.032,1.806-4.032,4.032v31.668c0,2.228,1.805,4.032,4.032,4.032h17.473
		c2.228,0,4.032-1.805,4.032-4.032v-31.668C163.135,221.505,161.33,219.699,159.103,219.699z M155.071,251.368h-9.409v-23.604h9.409
		V251.368z"/>
	<path d="M200.544,255.399v-31.668c0-2.227-1.805-4.032-4.032-4.032h-17.473c-2.228,0-4.032,1.806-4.032,4.032v31.668
		c0,2.228,1.805,4.032,4.032,4.032h17.473C198.738,259.432,200.544,257.627,200.544,255.399z M192.48,251.368h-9.408v-23.604h9.408
		V251.368z"/>
	<path d="M216.447,259.432h17.473c2.227,0,4.032-1.805,4.032-4.032v-31.668c0-2.227-1.805-4.032-4.032-4.032h-17.473
		c-2.228,0-4.032,1.806-4.032,4.032v31.668C212.415,257.627,214.219,259.432,216.447,259.432z M220.479,227.764h9.408v23.604h-9.408
		V227.764z"/>
	<path d="M275.361,255.399v-31.668c0-2.227-1.805-4.032-4.032-4.032h-17.473c-2.228,0-4.032,1.806-4.032,4.032v31.668
		c0,2.228,1.805,4.032,4.032,4.032h17.473C273.554,259.432,275.361,257.627,275.361,255.399z M267.296,251.368h-9.408v-23.604h9.408
		V251.368z"/>
	<path d="M291.263,259.432h17.473c2.226,0,4.032-1.805,4.032-4.032v-31.668c0-2.227-1.807-4.032-4.032-4.032h-17.473
		c-2.228,0-4.032,1.806-4.032,4.032v31.668C287.231,257.627,289.036,259.432,291.263,259.432z M295.296,227.764h9.409v23.604h-9.409
		V227.764z"/>
	<path d="M346.143,219.699H328.67c-2.226,0-4.032,1.806-4.032,4.032v31.668c0,2.228,1.807,4.032,4.032,4.032h17.473
		c2.228,0,4.032-1.805,4.032-4.032v-31.668C350.175,221.505,348.371,219.699,346.143,219.699z M342.111,251.368h-9.408v-23.604
		h9.408V251.368z"/>
	<path d="M366.077,259.432h17.473c2.228,0,4.032-1.805,4.032-4.032v-31.668c0-2.227-1.805-4.032-4.032-4.032h-17.473
		c-2.226,0-4.032,1.806-4.032,4.032v31.668C362.045,257.627,363.852,259.432,366.077,259.432z M370.11,227.764h9.408v23.604h-9.408
		V227.764z"/>
	<path d="M420.958,219.699h-17.473c-2.227,0-4.032,1.806-4.032,4.032v31.668c0,2.228,1.806,4.032,4.032,4.032h17.473
		c2.228,0,4.032-1.805,4.032-4.032v-31.668C424.99,221.505,423.187,219.699,420.958,219.699z M416.926,251.368h-9.408v-23.604h9.408
		V251.368z"/>
	<path d="M462.398,255.399v-31.668c0-2.227-1.805-4.032-4.032-4.032h-17.473c-2.226,0-4.032,1.806-4.032,4.032v31.668
		c0,2.228,1.807,4.032,4.032,4.032h17.473C460.594,259.432,462.398,257.627,462.398,255.399z M454.333,251.368h-9.408v-23.604h9.408
		V251.368z"/>
	<path d="M495.774,219.699h-17.473c-2.227,0-4.032,1.806-4.032,4.032v31.668c0,2.228,1.806,4.032,4.032,4.032h17.473
		c2.227,0,4.032-1.805,4.032-4.032v-31.668C499.806,221.505,498.002,219.699,495.774,219.699z M491.741,251.368h-9.408v-23.604
		h9.408V251.368z"/>
	<path d="M196.508,293.664c-2.228,0-4.032,1.805-4.032,4.032v58.466c0,2.227,1.805,4.032,4.032,4.032h32.257
		c2.228,0,4.032-1.806,4.032-4.032v-58.466c0-2.228-1.805-4.032-4.032-4.032H196.508z M224.733,352.13H200.54v-50.401h24.193V352.13
		z"/>
	<path d="M283.871,360.194h32.258c2.226,0,4.032-1.806,4.032-4.032v-58.466c0-2.228-1.807-4.032-4.032-4.032h-32.258
		c-2.228,0-4.032,1.805-4.032,4.032v58.466C279.839,358.389,281.645,360.194,283.871,360.194z M287.903,301.729h24.194v50.401
		h-24.194V301.729z"/>
	<path d="M367.202,297.696v58.466c0,2.227,1.805,4.032,4.032,4.032h32.258c2.226,0,4.031-1.806,4.031-4.032v-58.466
		c0-2.228-1.806-4.032-4.031-4.032h-32.258C369.007,293.664,367.202,295.469,367.202,297.696z M375.267,301.729h24.193v50.401
		h-24.193V301.729z"/>
	<path d="M490.855,293.664h-32.257c-2.228,0-4.032,1.805-4.032,4.032v58.466c0,2.227,1.805,4.032,4.032,4.032h32.257
		c2.227,0,4.032-1.806,4.032-4.032v-58.466C494.887,295.469,493.081,293.664,490.855,293.664z M486.823,352.13H462.63v-50.401
		h24.193V352.13z"/>
</g>
</svg>
