<?xml version="1.0" encoding="utf-8"?>
<!-- Generator: Adobe Illustrator 15.0.0, SVG Export Plug-In . SVG Version: 6.00 Build 0)  -->
<!DOCTYPE svg PUBLIC "-//W3C//DTD SVG 1.1//EN" "http://www.w3.org/Graphics/SVG/1.1/DTD/svg11.dtd">
<svg version="1.1" id="Capa_1" xmlns="http://www.w3.org/2000/svg" xmlns:xlink="http://www.w3.org/1999/xlink" x="0px" y="0px"
	 width="600px" height="600px" viewBox="0 0 600 600" enable-background="new 0 0 600 600" xml:space="preserve">
<g>
	<path d="M549.296,433.728h-12.338V272.534c0-2.597-2.108-4.704-4.703-4.704H394.711l-46.131-30.089L243.156,134.384
		c-0.882-0.864-2.062-1.344-3.295-1.344H67.746c-2.599,0-4.704,2.105-4.704,4.704v295.984H50.704c-2.598,0-4.704,2.107-4.704,4.704
		v23.824c0,2.601,2.105,4.704,4.704,4.704h498.592c2.596,0,4.704-2.104,4.704-4.704v-23.824
		C554,435.835,551.892,433.728,549.296,433.728z M544.593,457.553H55.407v-14.417h12.338c2.595,0,4.704-2.105,4.704-4.704V188.765
		h32.973c2.599,0,4.704-2.105,4.704-4.704s-2.105-4.704-4.704-4.704H72.449v-8.709h32.973c2.599,0,4.704-2.105,4.704-4.704
		c0-2.598-2.105-4.704-4.704-4.704H72.449v-18.795h165.493l104.387,102.339c0.224,0.217,0.465,0.412,0.726,0.582l47.69,31.108
		c0.761,0.498,1.657,0.762,2.569,0.762h134.236V438.43c0,2.599,2.105,4.704,4.704,4.704h12.338V457.553z"/>
	<path d="M115.121,373.146c-15.562,0-28.223,12.659-28.223,28.222v29.366c0,2.597,2.105,4.704,4.704,4.704h47.037
		c2.599,0,4.704-2.107,4.704-4.704v-29.366C143.344,385.806,130.682,373.146,115.121,373.146z M133.936,426.034H96.306v-24.663
		c0-10.375,8.439-18.814,18.815-18.814c10.375,0,18.814,8.439,18.814,18.814V426.034z"/>
	<path d="M189.073,373.146c-15.561,0-28.222,12.659-28.222,28.222v29.366c0,2.597,2.105,4.704,4.704,4.704h47.037
		c2.599,0,4.704-2.107,4.704-4.704v-29.366C217.295,385.806,204.635,373.146,189.073,373.146z M207.887,426.034h-37.629v-24.663
		c0-10.375,8.439-18.814,18.814-18.814c10.375,0,18.815,8.439,18.815,18.814V426.034z"/>
	<path d="M263.025,373.146c-15.562,0-28.223,12.659-28.223,28.222v29.366c0,2.597,2.105,4.704,4.704,4.704h47.037
		c2.599,0,4.704-2.107,4.704-4.704v-29.366C291.247,385.806,278.587,373.146,263.025,373.146z M281.839,426.034H244.21v-24.663
		c0-10.375,8.439-18.814,18.815-18.814c10.375,0,18.814,8.439,18.814,18.814V426.034z"/>
	<path d="M336.975,373.146c-15.562,0-28.223,12.659-28.223,28.222v29.366c0,2.597,2.107,4.704,4.704,4.704h47.037
		c2.598,0,4.703-2.107,4.703-4.704v-29.366C365.197,385.806,352.537,373.146,336.975,373.146z M355.789,426.034h-37.63v-24.663
		c0-10.375,8.441-18.814,18.815-18.814c10.375,0,18.814,8.439,18.814,18.814V426.034z"/>
	<path d="M410.926,373.146c-15.561,0-28.222,12.659-28.222,28.222v29.366c0,2.597,2.106,4.704,4.703,4.704h47.037
		c2.597,0,4.704-2.107,4.704-4.704v-29.366C439.149,385.806,426.489,373.146,410.926,373.146z M429.741,426.034h-37.63v-24.663
		c0-10.375,8.441-18.814,18.814-18.814c10.375,0,18.815,8.439,18.815,18.814V426.034z"/>
	<path d="M484.878,373.146c-15.562,0-28.223,12.659-28.223,28.222v29.366c0,2.597,2.107,4.704,4.704,4.704h47.035
		c2.599,0,4.704-2.107,4.704-4.704v-29.366C513.099,385.806,500.441,373.146,484.878,373.146z M503.692,426.034h-37.629v-24.663
		c0-10.375,8.441-18.814,18.815-18.814c10.373,0,18.813,8.439,18.813,18.814V426.034z"/>
	<path d="M115.121,295.296c-15.562,0-28.223,12.661-28.223,28.222v29.364c0,2.6,2.105,4.704,4.704,4.704h47.037
		c2.599,0,4.704-2.104,4.704-4.704v-29.364C143.344,307.957,130.682,295.296,115.121,295.296z M133.936,348.18H96.306v-24.661
		c0-10.374,8.439-18.814,18.815-18.814c10.375,0,18.814,8.44,18.814,18.814V348.18z"/>
	<path d="M189.073,295.296c-15.561,0-28.222,12.661-28.222,28.222v29.364c0,2.6,2.105,4.704,4.704,4.704h47.037
		c2.599,0,4.704-2.104,4.704-4.704v-29.364C217.295,307.957,204.635,295.296,189.073,295.296z M207.887,348.18h-37.629v-24.661
		c0-10.374,8.439-18.814,18.814-18.814c10.375,0,18.815,8.44,18.815,18.814V348.18z"/>
	<path d="M263.025,295.296c-15.562,0-28.223,12.661-28.223,28.222v29.364c0,2.6,2.105,4.704,4.704,4.704h47.037
		c2.599,0,4.704-2.104,4.704-4.704v-29.364C291.247,307.957,278.587,295.296,263.025,295.296z M281.839,348.18H244.21v-24.661
		c0-10.374,8.439-18.814,18.815-18.814c10.375,0,18.814,8.44,18.814,18.814V348.18z"/>
	<path d="M336.975,295.296c-15.562,0-28.223,12.661-28.223,28.222v29.364c0,2.6,2.107,4.704,4.704,4.704h47.037
		c2.598,0,4.703-2.104,4.703-4.704v-29.364C365.197,307.957,352.537,295.296,336.975,295.296z M355.789,348.18h-37.63v-24.661
		c0-10.374,8.441-18.814,18.815-18.814c10.375,0,18.814,8.44,18.814,18.814V348.18z"/>
	<path d="M410.926,295.296c-15.561,0-28.222,12.661-28.222,28.222v29.364c0,2.6,2.106,4.704,4.703,4.704h47.037
		c2.597,0,4.704-2.104,4.704-4.704v-29.364C439.149,307.957,426.489,295.296,410.926,295.296z M429.741,348.18h-37.63v-24.661
		c0-10.374,8.441-18.814,18.814-18.814c10.375,0,18.815,8.44,18.815,18.814V348.18z"/>
	<path d="M484.878,295.296c-15.562,0-28.223,12.661-28.223,28.222v29.364c0,2.6,2.107,4.704,4.704,4.704h47.035
		c2.599,0,4.704-2.104,4.704-4.704v-29.364C513.099,307.957,500.441,295.296,484.878,295.296z M503.692,348.18h-37.629v-24.661
		c0-10.374,8.441-18.814,18.815-18.814c10.373,0,18.813,8.44,18.813,18.814V348.18z"/>
	<path d="M115.121,217.445c-15.562,0-28.223,12.66-28.223,28.222v29.366c0,2.597,2.105,4.704,4.704,4.704h47.037
		c2.599,0,4.704-2.107,4.704-4.704v-29.366C143.344,230.106,130.682,217.445,115.121,217.445z M133.936,270.329H96.306v-24.662
		c0-10.375,8.439-18.815,18.815-18.815c10.375,0,18.814,8.44,18.814,18.815V270.329z"/>
	<path d="M189.073,217.445c-15.561,0-28.222,12.66-28.222,28.222v29.366c0,2.597,2.105,4.704,4.704,4.704h47.037
		c2.599,0,4.704-2.107,4.704-4.704v-29.366C217.295,230.106,204.635,217.445,189.073,217.445z M207.887,270.329h-37.629v-24.662
		c0-10.375,8.439-18.815,18.814-18.815c10.375,0,18.815,8.44,18.815,18.815V270.329z"/>
	<path d="M263.025,217.445c-15.562,0-28.223,12.66-28.223,28.222v29.366c0,2.597,2.105,4.704,4.704,4.704h47.037
		c2.599,0,4.704-2.107,4.704-4.704v-29.366C291.247,230.106,278.587,217.445,263.025,217.445z M281.839,270.329H244.21v-24.662
		c0-10.375,8.439-18.815,18.815-18.815c10.375,0,18.814,8.44,18.814,18.815V270.329z"/>
</g>
</svg>
