<?xml version="1.0" encoding="utf-8"?>
<!-- Generator: Adobe Illustrator 15.0.0, SVG Export Plug-In . SVG Version: 6.00 Build 0)  -->
<!DOCTYPE svg PUBLIC "-//W3C//DTD SVG 1.1//EN" "http://www.w3.org/Graphics/SVG/1.1/DTD/svg11.dtd">
<svg version="1.1" id="Capa_1" xmlns="http://www.w3.org/2000/svg" xmlns:xlink="http://www.w3.org/1999/xlink" x="0px" y="0px"
	 width="600px" height="600px" viewBox="0 0 600 600" enable-background="new 0 0 600 600" xml:space="preserve">
<g>
	<path d="M271.418,333.949h57.166c1.261,0,2.426-0.664,3.091-1.736c0.666-1.072,0.724-2.422,0.162-3.555
		c-0.124-0.244-12.393-26.145-28.218-158.564c-0.217-1.817-1.746-3.19-3.575-3.212c-0.016,0-0.027,0-0.042,0
		c-1.812,0-3.35,1.333-3.608,3.129c-18.982,133.016-28.289,158.754-28.375,158.986c-0.431,1.119-0.282,2.379,0.398,3.369
		C269.095,333.361,270.218,333.949,271.418,333.949z M299.716,197.764c10.958,84.539,19.751,117.49,23.576,128.898h-46.953
		C279.387,315.631,287.031,282.992,299.716,197.764z"/>
	<path d="M256.107,413.336h87.79c1.106,0,2.152-0.504,2.845-1.367c0.691-0.865,0.954-1.998,0.711-3.076l-12.381-55.125
		c-0.375-1.664-1.85-2.846-3.557-2.846h-63.027c-1.705,0-3.184,1.184-3.556,2.846l-12.382,55.125
		c-0.243,1.082,0.021,2.211,0.711,3.076C253.952,412.832,255,413.336,256.107,413.336z M271.405,358.211h57.194l10.745,47.836
		h-78.682L271.405,358.211z"/>
	<path d="M455.086,509.977h-32.467c-8.401-15.877-23.96-47.84-40.355-94.551c-22.161-63.145-50.353-166.779-59.334-302.763
		c4.55-1.869,7.767-6.344,7.767-11.56c0-4.456-2.354-8.364-5.872-10.576c-0.808-11.711-9.729-21.198-21.179-22.887v-24.18
		c0-2.012-1.633-3.645-3.645-3.645c-2.014,0-3.645,1.633-3.645,3.645v24.18c-11.45,1.69-20.372,11.176-21.182,22.887
		c-3.519,2.212-5.872,6.12-5.872,10.576c0,5.215,3.217,9.691,7.769,11.56c-8.984,135.984-37.174,239.623-59.335,302.763
		c-16.394,46.711-31.953,78.674-40.354,94.551h-32.468c-2.013,0-3.645,1.631-3.645,3.645v42.92c0,2.014,1.632,3.645,3.645,3.645
		h310.171c2.013,0,3.644-1.631,3.644-3.645v-42.92C458.73,511.607,457.099,509.977,455.086,509.977z M300.001,74.63
		c8.468,0,15.561,6.003,17.242,13.978h-34.487C284.441,80.635,291.533,74.63,300.001,74.63z M276.593,101.103
		c0-2.871,2.336-5.206,5.205-5.206h36.404c2.87,0,5.204,2.335,5.204,5.206c0,2.87-2.334,5.206-5.204,5.206h-36.404
		C278.928,106.308,276.593,103.973,276.593,101.103z M224.52,418.111c22.329-63.547,50.73-167.782,59.806-304.515h31.351
		c9.08,136.732,37.48,240.966,59.807,304.515c15.382,43.781,30.075,74.791,38.913,91.865h-34.21
		c-6.465-38.592-40.079-68.104-80.478-68.104s-74.012,29.514-80.479,68.104h-33.626C194.445,492.902,209.138,461.893,224.52,418.111
		z M372.781,509.977H226.632c6.378-34.553,36.704-60.814,73.076-60.814C336.077,449.16,366.405,475.422,372.781,509.977z
		 M451.442,552.896H148.56v-35.631h302.882V552.896z"/>
</g>
</svg>
