<?xml version="1.0" encoding="utf-8"?>
<!-- Generator: Adobe Illustrator 15.0.0, SVG Export Plug-In . SVG Version: 6.00 Build 0)  -->
<!DOCTYPE svg PUBLIC "-//W3C//DTD SVG 1.1//EN" "http://www.w3.org/Graphics/SVG/1.1/DTD/svg11.dtd">
<svg version="1.1" id="Capa_1" xmlns="http://www.w3.org/2000/svg" xmlns:xlink="http://www.w3.org/1999/xlink" x="0px" y="0px"
	 width="600px" height="600px" viewBox="0 0 600 600" enable-background="new 0 0 600 600" xml:space="preserve">
<path d="M567.44,323.281v-63.737c0.466,0.006,0.931,0.028,1.396,0.028c2.003,0,3.626-1.623,3.626-3.626
	c0-2.002-1.623-3.626-3.626-3.626c-53.712,0-106.429-37.303-106.429-75.311c0-2.003-1.623-3.626-3.626-3.626h-54.912
	c-0.216,0-0.425,0.027-0.63,0.065c-0.206-0.036-0.415-0.065-0.63-0.065c-2.003,0-3.626,1.624-3.626,3.626
	c0,29.052-45.147,75.311-98.647,75.311c-0.113,0-0.224-0.007-0.336-0.007c-0.113,0-0.226,0.007-0.337,0.007
	c-53.501,0-98.647-46.258-98.647-75.311c0-2.003-1.623-3.626-3.626-3.626c-0.216,0-0.425,0.028-0.629,0.065
	c-0.205-0.037-0.413-0.065-0.63-0.065h-54.912c-2.003,0-3.626,1.624-3.626,3.626c0,38.006-52.717,75.311-106.428,75.311
	c-2.003,0-3.626,1.624-3.626,3.626c0,2.003,1.623,3.626,3.626,3.626c0.465,0,0.931-0.024,1.397-0.028v63.737
	c-6.271,3.116-10.512,8.938-10.509,15.611c0,9.936,9.383,18.017,20.916,18.017h94.627v66.082c0,2.003,1.623,3.626,3.626,3.626
	h54.912c2.003,0,3.626-1.623,3.626-3.626V356.91H300h100.242v66.081c0,2.003,1.623,3.626,3.626,3.626h54.911
	c2.004,0,3.627-1.623,3.627-3.626V356.91h94.626c11.533,0,20.916-8.082,20.916-18.017
	C577.949,332.22,573.711,326.398,567.44,323.281z M109.498,234.218c1.641-1.186,3.224-2.402,4.76-3.636v90.292H94.281v-75.952
	c0-0.415-0.085-0.804-0.211-1.175C99.456,240.908,104.633,237.738,109.498,234.218z M87.026,247.228v73.646h-19.98v-66.224
	c0-0.043-0.01-0.083-0.013-0.125C73.873,252.603,80.578,250.161,87.026,247.228z M39.814,259.25
	c6.679-0.46,13.371-1.446,19.979-2.924v64.547H42.964c-1.072,0-2.119,0.093-3.149,0.227L39.814,259.25L39.814,259.25z
	 M137.591,349.657H42.964c-7.533,0-13.663-4.827-13.663-10.764c0-5.936,6.128-10.766,13.663-10.766h94.626V349.657z
	 M137.591,320.873H121.51v-95.409c0-0.374-0.074-0.728-0.177-1.066c6.848-6.537,12.323-13.553,16.258-20.787V320.873z
	 M192.502,419.364h-47.659V180.638h47.659V419.364z M358.431,242.718c7.347-4.459,14.059-9.575,19.979-15.069v93.225h-19.979
	V242.718z M331.198,254.933c6.994-2.114,13.682-4.876,19.98-8.137v74.08h-19.98V254.933z M303.965,259.501
	c6.843-0.239,13.524-1.154,19.979-2.639v64.011h-19.979V259.501z M276.057,256.862c6.455,1.485,13.136,2.398,19.979,2.639v61.372
	h-19.979V256.862L276.057,256.862z M248.823,246.795c6.298,3.261,12.985,6.023,19.979,8.137v65.941h-19.979V246.795z
	 M221.59,227.648c5.92,5.495,12.633,10.609,19.979,15.069v78.155H221.59V227.648L221.59,227.648z M199.755,199.32
	c3.502,7.035,8.446,14.182,14.582,20.981v100.572h-14.582V199.32z M400.245,349.657H300H199.754v-21.529H300h100.245V349.657z
	 M400.245,320.873h-14.583V220.301c6.137-6.799,11.08-13.946,14.582-20.981L400.245,320.873L400.245,320.873z M455.157,419.364
	h-47.659V180.638h47.659V419.364L455.157,419.364z M540.207,256.326c6.609,1.478,13.3,2.463,19.979,2.924v61.85
	c-1.033-0.132-2.08-0.227-3.15-0.227h-16.829V256.326z M512.975,247.228c6.447,2.935,13.152,5.375,19.993,7.297
	c-0.003,0.042-0.014,0.081-0.014,0.126v66.223h-19.979V247.228L512.975,247.228z M485.741,230.582
	c1.537,1.234,3.119,2.449,4.761,3.636c4.866,3.52,10.042,6.69,15.431,9.53c-0.125,0.371-0.212,0.76-0.212,1.175v75.954h-19.979
	L485.741,230.582L485.741,230.582z M462.409,203.612c3.936,7.233,9.41,14.25,16.258,20.787c-0.104,0.338-0.176,0.692-0.176,1.066
	v95.411h-16.082V203.612L462.409,203.612z M557.036,349.657h-94.627v-21.529h94.627c7.534,0,13.663,4.83,13.663,10.766
	C570.699,344.83,564.571,349.657,557.036,349.657z"/>
</svg>
