<?xml version="1.0" encoding="utf-8"?>
<!-- Generator: Adobe Illustrator 15.0.0, SVG Export Plug-In . SVG Version: 6.00 Build 0)  -->
<!DOCTYPE svg PUBLIC "-//W3C//DTD SVG 1.1//EN" "http://www.w3.org/Graphics/SVG/1.1/DTD/svg11.dtd">
<svg version="1.1" id="Capa_1" xmlns="http://www.w3.org/2000/svg" xmlns:xlink="http://www.w3.org/1999/xlink" x="0px" y="0px"
	 width="600px" height="600px" viewBox="0 0 600 600" enable-background="new 0 0 600 600" xml:space="preserve">
<g>
	<path fill="#222221" d="M480.25,432.665h-13.453v-28.641h0.89c2.143,0,3.88-1.735,3.88-3.88v-39.792h8.684
		c1.654,0,3.128-1.051,3.669-2.614c0.54-1.563,0.027-3.296-1.271-4.319c-11.157-8.765-40.114-35.275-40.114-52.453v-16.604
		l26.823-12.796c0.039-0.02,0.071-0.045,0.107-0.066c0.14-0.072,0.272-0.155,0.404-0.243c0.075-0.052,0.152-0.098,0.222-0.153
		c0.128-0.101,0.242-0.213,0.356-0.328c0.054-0.055,0.115-0.104,0.164-0.162c0.307-0.354,0.556-0.767,0.721-1.225
		c0.029-0.08,0.045-0.166,0.068-0.246c0.037-0.13,0.082-0.254,0.106-0.392c0.002-0.018,0.001-0.033,0.004-0.053
		c0.027-0.152,0.028-0.308,0.036-0.465c0.004-0.101,0.02-0.202,0.016-0.301c-0.004-0.126-0.028-0.25-0.047-0.377
		c-0.018-0.128-0.025-0.256-0.056-0.381c-0.022-0.096-0.063-0.188-0.091-0.285c-0.048-0.149-0.094-0.3-0.159-0.441
		c-0.008-0.019-0.01-0.034-0.021-0.051c-0.036-0.083-0.092-0.151-0.136-0.229c-0.076-0.129-0.144-0.257-0.229-0.376
		c-0.075-0.1-0.156-0.188-0.238-0.278c-0.083-0.097-0.169-0.195-0.264-0.285c-0.088-0.083-0.188-0.155-0.286-0.229
		c-0.103-0.08-0.202-0.159-0.313-0.228c-0.105-0.065-0.218-0.115-0.327-0.171c-0.115-0.057-0.227-0.116-0.346-0.161
		c-0.136-0.05-0.272-0.08-0.409-0.116c-0.092-0.023-0.176-0.06-0.27-0.078l-29.033-5.2c-0.112-0.02-0.223-0.015-0.334-0.025
		c-0.117-0.011-0.23-0.035-0.35-0.035c-0.021,0-0.032,0.005-0.051,0.005c-0.144,0.002-0.284,0.027-0.424,0.043
		c-0.116,0.015-0.236,0.021-0.349,0.043c-0.128,0.026-0.244,0.075-0.367,0.114c-0.118,0.038-0.241,0.068-0.352,0.116
		c-0.117,0.05-0.224,0.12-0.335,0.183c-0.105,0.059-0.216,0.109-0.314,0.178c-0.118,0.08-0.222,0.18-0.33,0.272
		c-0.08,0.067-0.163,0.127-0.238,0.201c-0.104,0.106-0.19,0.226-0.285,0.344c-0.062,0.078-0.131,0.151-0.187,0.234
		c-0.075,0.108-0.129,0.231-0.189,0.348c-0.057,0.108-0.121,0.212-0.168,0.325c-0.042,0.102-0.065,0.211-0.099,0.317
		c-0.043,0.14-0.094,0.28-0.123,0.43c-0.002,0.016-0.01,0.027-0.012,0.045c-0.024,0.116-0.019,0.231-0.028,0.347
		c-0.01,0.112-0.033,0.222-0.033,0.338v38.103c0,13.653-18.291,33.193-31.397,45.041V230.332h1.041
		c8.989,0,16.303-7.312,16.303-16.3c0-8.989-7.313-16.303-16.303-16.303h-0.825V170.61h0.55c2.144,0,3.88-1.737,3.88-3.88v-36.668
		h7.786c1.652,0,3.125-1.051,3.667-2.614c0.541-1.563,0.028-3.298-1.271-4.319c-10.331-8.116-37.143-32.65-37.143-48.487V59.4
		l24.754-11.806c0.039-0.019,0.07-0.045,0.106-0.064c0.141-0.072,0.273-0.156,0.403-0.245c0.077-0.05,0.152-0.097,0.224-0.152
		c0.127-0.101,0.242-0.213,0.354-0.328c0.055-0.054,0.116-0.104,0.165-0.161c0.309-0.354,0.558-0.769,0.723-1.226
		c0.026-0.08,0.043-0.165,0.068-0.247c0.036-0.129,0.081-0.255,0.106-0.39c0.002-0.019,0.001-0.035,0.004-0.054
		c0.026-0.153,0.028-0.309,0.036-0.466c0.004-0.101,0.019-0.2,0.015-0.3c-0.003-0.127-0.028-0.249-0.046-0.376
		c-0.017-0.13-0.025-0.257-0.056-0.383c-0.023-0.096-0.063-0.188-0.093-0.285c-0.048-0.148-0.092-0.299-0.159-0.441
		c-0.009-0.018-0.011-0.032-0.019-0.051c-0.039-0.083-0.095-0.154-0.141-0.234c-0.073-0.125-0.139-0.252-0.226-0.369
		c-0.074-0.104-0.162-0.194-0.242-0.29c-0.082-0.093-0.161-0.188-0.252-0.271c-0.095-0.089-0.2-0.164-0.304-0.243
		c-0.095-0.074-0.188-0.149-0.293-0.212c-0.115-0.071-0.236-0.127-0.356-0.187c-0.104-0.051-0.205-0.106-0.314-0.146
		c-0.146-0.056-0.298-0.092-0.452-0.13c-0.08-0.021-0.153-0.053-0.236-0.069l-26.964-4.826c-0.114-0.021-0.226-0.017-0.339-0.026
		c-0.115-0.011-0.227-0.034-0.345-0.034c-0.019,0-0.032,0.004-0.049,0.005c-0.146,0.002-0.29,0.026-0.433,0.045
		c-0.114,0.014-0.23,0.018-0.341,0.041c-0.116,0.027-0.227,0.071-0.34,0.104c-0.13,0.042-0.262,0.076-0.387,0.13
		c-0.087,0.037-0.168,0.091-0.253,0.137c-0.134,0.072-0.273,0.137-0.397,0.223c-0.085,0.058-0.159,0.133-0.241,0.198
		c-0.111,0.09-0.228,0.174-0.326,0.276c-0.083,0.085-0.152,0.185-0.229,0.276c-0.08,0.1-0.169,0.192-0.241,0.3
		c-0.065,0.098-0.111,0.206-0.168,0.31c-0.065,0.119-0.135,0.233-0.188,0.359c-0.038,0.098-0.062,0.203-0.093,0.304
		c-0.046,0.146-0.097,0.287-0.127,0.44c-0.002,0.015-0.01,0.028-0.013,0.045c-0.022,0.116-0.018,0.231-0.027,0.347
		c-0.01,0.112-0.031,0.221-0.031,0.339v35.375c0,15.837-26.812,40.371-37.144,48.487c-1.302,1.021-1.81,2.756-1.269,4.319
		c0.54,1.563,2.012,2.614,3.666,2.614h7.785v36.668c0,2.143,1.737,3.88,3.879,3.88h0.551v27.119h-0.826
		c-8.988,0-16.3,7.313-16.3,16.302c0,8.566,6.646,15.596,15.051,16.239v71.509l-28.9-27.267v-44.178h8.878
		c1.542,0,2.938-0.915,3.557-2.33c0.618-1.414,0.337-3.059-0.715-4.19c-0.26-0.282-26.14-28.365-26.14-47.051v-14.875l18.478-11.266
		c0.033-0.021,0.061-0.049,0.094-0.071c0.146-0.096,0.285-0.201,0.417-0.316c0.052-0.044,0.105-0.085,0.152-0.131
		c0.168-0.16,0.322-0.333,0.46-0.521c0.018-0.025,0.027-0.051,0.045-0.076c0.114-0.164,0.215-0.337,0.301-0.52
		c0.038-0.08,0.065-0.162,0.098-0.243c0.037-0.093,0.082-0.184,0.113-0.282c0.013-0.037,0.014-0.075,0.025-0.11
		c0.038-0.138,0.063-0.28,0.083-0.422c0.021-0.112,0.041-0.226,0.048-0.338c0.011-0.13,0.006-0.263,0.002-0.395
		c-0.004-0.122-0.004-0.241-0.02-0.359c-0.016-0.125-0.045-0.247-0.074-0.372c-0.026-0.123-0.053-0.243-0.091-0.364
		c-0.037-0.112-0.087-0.221-0.135-0.332c-0.056-0.127-0.11-0.25-0.179-0.371c-0.021-0.033-0.03-0.074-0.052-0.107
		c-0.04-0.066-0.095-0.12-0.138-0.184c-0.079-0.113-0.16-0.227-0.25-0.332c-0.081-0.092-0.167-0.178-0.254-0.261
		c-0.093-0.089-0.189-0.175-0.291-0.256c-0.102-0.08-0.206-0.149-0.315-0.217c-0.104-0.065-0.205-0.128-0.315-0.184
		c-0.127-0.063-0.255-0.113-0.385-0.163c-0.073-0.027-0.136-0.067-0.21-0.089l-20.34-6.324c-2.047-0.637-4.221,0.507-4.857,2.553
		c-0.204,0.661-0.207,1.329-0.071,1.96c-0.063,0.279-0.104,0.564-0.104,0.859v34.109c0,15.44-20.221,39.128-28.012,46.954
		c-1.104,1.11-1.434,2.777-0.834,4.227c0.602,1.447,2.015,2.393,3.582,2.393h7.636v90.092c-8.334-9.628-23.745-30.334-23.745-44.37
		v-14.875l18.479-11.266c0.034-0.021,0.061-0.049,0.095-0.071c0.146-0.096,0.284-0.202,0.418-0.315
		c0.052-0.044,0.106-0.084,0.154-0.132c0.167-0.16,0.323-0.332,0.458-0.522c0.013-0.02,0.024-0.039,0.036-0.056
		c0.117-0.172,0.224-0.351,0.314-0.542c0.032-0.075,0.061-0.15,0.088-0.227c0.041-0.097,0.087-0.191,0.12-0.296
		c0.013-0.038,0.014-0.08,0.025-0.117c0.036-0.135,0.06-0.268,0.081-0.403c0.02-0.118,0.041-0.236,0.05-0.353
		c0.011-0.128,0.004-0.252,0-0.38c-0.005-0.126-0.005-0.248-0.02-0.372c-0.016-0.125-0.046-0.243-0.072-0.364
		c-0.029-0.125-0.053-0.249-0.094-0.369c-0.036-0.112-0.086-0.22-0.135-0.33c-0.056-0.127-0.11-0.252-0.18-0.373
		c-0.02-0.036-0.027-0.073-0.052-0.107c-0.04-0.068-0.093-0.121-0.136-0.185c-0.081-0.115-0.161-0.228-0.252-0.332
		c-0.081-0.092-0.166-0.179-0.256-0.263c-0.09-0.086-0.186-0.175-0.288-0.252c-0.104-0.08-0.21-0.151-0.319-0.22
		c-0.103-0.064-0.204-0.129-0.312-0.183c-0.126-0.063-0.255-0.115-0.389-0.166c-0.071-0.026-0.135-0.064-0.207-0.086l-20.34-6.325
		c-2.045-0.637-4.222,0.508-4.857,2.554c-0.204,0.661-0.207,1.328-0.073,1.961c-0.062,0.276-0.104,0.562-0.104,0.858v34.109
		c0,15.442-20.218,39.13-28.009,46.955c-0.771,0.773-1.154,1.813-1.118,2.865c-0.001,0.043-0.014,0.081-0.014,0.126v2.686
		c-13.478-11.632-43.969-40.223-43.969-60.734v-21.243l33.897-16.169c0.037-0.018,0.069-0.045,0.105-0.064
		c0.141-0.074,0.276-0.158,0.407-0.245c0.074-0.051,0.15-0.098,0.218-0.153c0.131-0.103,0.248-0.217,0.364-0.337
		c0.052-0.052,0.108-0.098,0.158-0.153c0.309-0.354,0.557-0.769,0.722-1.226c0.029-0.079,0.043-0.159,0.067-0.241
		c0.036-0.131,0.083-0.258,0.108-0.397c0.003-0.019,0.001-0.037,0.004-0.055c0.025-0.15,0.027-0.303,0.034-0.455
		c0.005-0.104,0.022-0.21,0.018-0.312c-0.004-0.122-0.029-0.243-0.044-0.363c-0.02-0.134-0.028-0.267-0.058-0.395
		c-0.023-0.092-0.062-0.182-0.091-0.271c-0.049-0.155-0.096-0.309-0.162-0.458c-0.007-0.016-0.01-0.031-0.017-0.048
		c-0.039-0.08-0.093-0.145-0.136-0.223c-0.073-0.13-0.144-0.261-0.232-0.382c-0.074-0.102-0.157-0.189-0.241-0.283
		c-0.082-0.095-0.164-0.192-0.256-0.278c-0.094-0.088-0.196-0.162-0.298-0.241c-0.099-0.075-0.192-0.151-0.299-0.217
		c-0.113-0.07-0.233-0.125-0.35-0.183c-0.105-0.052-0.208-0.107-0.32-0.148c-0.149-0.056-0.301-0.094-0.456-0.131
		c-0.08-0.021-0.149-0.052-0.23-0.066l-36.106-6.466c-0.107-0.019-0.215-0.014-0.322-0.024c-0.121-0.012-0.237-0.036-0.36-0.036
		c-0.02,0-0.035,0.005-0.055,0.005c-0.132,0.001-0.256,0.026-0.385,0.039c-0.131,0.016-0.264,0.022-0.39,0.05
		c-0.103,0.021-0.196,0.062-0.295,0.091c-0.145,0.044-0.293,0.08-0.427,0.14c-0.083,0.036-0.157,0.087-0.237,0.131
		c-0.139,0.074-0.284,0.141-0.411,0.233c-0.088,0.058-0.162,0.134-0.244,0.198c-0.109,0.088-0.224,0.174-0.323,0.273
		c-0.083,0.085-0.156,0.188-0.233,0.283c-0.08,0.097-0.164,0.188-0.235,0.294c-0.065,0.098-0.112,0.207-0.169,0.311
		c-0.064,0.119-0.134,0.234-0.187,0.358c-0.041,0.099-0.062,0.205-0.095,0.307c-0.047,0.143-0.095,0.286-0.126,0.437
		c-0.002,0.016-0.01,0.028-0.012,0.044c-0.023,0.117-0.02,0.232-0.028,0.349c-0.01,0.112-0.033,0.222-0.033,0.336v47.38
		c0,26.199-49.742,65.576-50.246,65.971c-1.3,1.023-1.81,2.756-1.27,4.319c0.541,1.563,2.013,2.614,3.666,2.614h11.743v50.428
		c0,2.142,1.737,3.88,3.88,3.88h2.051v37.504h-12.178c-2.142,0-3.879,1.736-3.879,3.88v124.186c0,2.143,1.737,3.88,3.879,3.88
		h137.73c2.142,0,3.88-1.737,3.88-3.88v-51.057c0-19.79,16.099-35.887,35.888-35.887c19.788,0,35.887,16.097,35.887,35.887v51.057
		c0,2.143,1.736,3.88,3.88,3.88h137.733c2.144,0,3.88-1.737,3.88-3.88V436.547C484.13,434.399,482.391,432.665,480.25,432.665z
		 M381.056,43.898l10.522,1.884l-10.522,5.02V43.898z M377.176,88.697c6.446,12.897,19.506,25.908,28.071,33.603h-1.108h-53.922
		h-1.108C357.672,114.604,370.729,101.594,377.176,88.697z M400.259,130.058v32.789h-0.55h-45.064h-0.551v-32.789H400.259z
		 M395.829,170.609v26.039h-37.305v-26.039H395.829z M305.37,146.255l7.108,2.21l-7.108,4.335V146.255z M301.365,192.779
		c4.821,11.552,13.245,22.928,18.845,29.794h-39.011C287.218,215.679,296.212,204.319,301.365,192.779z M463.804,396.266h-0.889
		h-48.533h-0.889v-35.914h50.31L463.804,396.266L463.804,396.266z M442.531,267.503l12.596,2.257l-12.596,6.009V267.503z
		 M438.652,315.447c6.959,14.305,21.701,28.846,31.01,37.147h-1.975h-58.069h-1.975
		C416.948,344.293,431.692,329.755,438.652,315.447z M405.735,360.354v39.794c0,2.142,1.737,3.88,3.88,3.88h0.89v28.64h-7.132
		v-72.313H405.735L405.735,360.354z M227.097,391.279h168.517v10.689H227.097V391.279z M341.397,214.03
		c0-4.713,3.833-8.543,8.541-8.543h54.474c4.713,0,8.544,3.833,8.544,8.543s-3.833,8.541-8.544,8.541h-54.474
		C345.23,222.573,341.397,218.74,341.397,214.03z M349.906,313.592c1.124,1.062,2.775,1.356,4.198,0.741
		c1.424-0.615,2.344-2.017,2.344-3.564v-80.072h39.166v121.963c0,1.268,0.002,4.015,0.002,7.405v23.454H227.097v-53.641h56.766
		c2.143,0,3.879-1.735,3.879-3.88v-95.299h24.287v45.485c0,1.068,0.44,2.089,1.215,2.823L349.906,313.592z M256.239,245.548
		l7.107,2.21l-7.107,4.335V245.548z M252.231,292.072c4.826,11.555,13.247,22.929,18.85,29.795H232.07
		C238.089,314.974,247.082,303.615,252.231,292.072z M219.338,432.665h-13.794v-37.504h2.053c2.143,0,3.879-1.737,3.879-3.879
		v-50.428h7.862V432.665z M175.369,225.209l19.669,3.524l-19.669,9.382V225.209z M171.49,283.771
		c8.587,19.156,29.364,39.09,41.054,49.322h-4.946h-72.215h-4.948C142.125,322.86,162.902,302.928,171.49,283.771z M203.717,340.854
		v46.548h-2.053h-60.352h-2.051v-46.548H203.717z M476.37,556.852H346.4v-47.177c0-24.065-19.583-43.646-43.646-43.646
		c-24.067,0-43.646,19.581-43.646,43.646v47.177H129.136V440.425h12.177c2.141,0,3.88-1.737,3.88-3.88v-41.384h52.592v41.384
		c0,2.143,1.737,3.88,3.88,3.88h21.554c2.141,0,3.879-1.737,3.879-3.88v-26.816h168.517v26.816c0,2.143,1.737,3.88,3.88,3.88h14.892
		c2.143,0,3.88-1.737,3.88-3.88v-32.521h40.773v32.521c0,2.143,1.736,3.88,3.88,3.88h13.452V556.852L476.37,556.852z"/>
	<path fill="#222221" d="M171.49,382.188c6.893,0,12.5-5.609,12.5-12.503V359.38c0-6.893-5.607-12.501-12.5-12.501
		c-6.895,0-12.502,5.608-12.502,12.501v10.306C158.988,376.581,164.596,382.188,171.49,382.188z M166.747,359.383
		c0-2.614,2.127-4.742,4.742-4.742c2.613,0,4.741,2.128,4.741,4.742v10.306c0,2.614-2.13,4.743-4.741,4.743
		c-2.615,0-4.742-2.129-4.742-4.743V359.383z"/>
	<path fill="#222221" d="M171.49,409.837c-6.895,0-12.502,5.607-12.502,12.5v10.306c0,6.894,5.607,12.503,12.502,12.503
		c6.893,0,12.5-5.609,12.5-12.503v-10.306C183.99,415.444,178.382,409.837,171.49,409.837z M176.231,432.643
		c0,2.615-2.13,4.744-4.741,4.744c-2.615,0-4.742-2.129-4.742-4.744v-10.306c0-2.614,2.127-4.741,4.742-4.741
		c2.613,0,4.741,2.127,4.741,4.741V432.643z"/>
	<path fill="#222221" d="M438.652,409.837c-6.893,0-12.5,5.607-12.5,12.5v10.306c0,6.894,5.607,12.503,12.5,12.503
		c6.894,0,12.501-5.609,12.501-12.503v-10.306C451.153,415.444,445.543,409.837,438.652,409.837z M443.393,432.643
		c0,2.615-2.129,4.744-4.741,4.744c-2.614,0-4.741-2.129-4.741-4.744v-10.306c0-2.614,2.127-4.741,4.741-4.741
		c2.613,0,4.741,2.127,4.741,4.741V432.643z"/>
	<path fill="#222221" d="M377.178,270.457c6.893,0,12.5-5.607,12.5-12.501v-10.308c0-6.894-5.607-12.501-12.5-12.501
		c-6.894,0-12.501,5.607-12.501,12.501v10.308C364.677,264.85,370.284,270.457,377.178,270.457z M372.437,247.648
		c0-2.614,2.127-4.741,4.741-4.741c2.612,0,4.74,2.127,4.74,4.741v10.308c0,2.614-2.129,4.742-4.74,4.742
		c-2.614,0-4.741-2.128-4.741-4.742V247.648z"/>
	<path fill="#222221" d="M377.178,313.347c6.893,0,12.5-5.61,12.5-12.502v-10.307c0-6.894-5.607-12.501-12.5-12.501
		c-6.894,0-12.501,5.607-12.501,12.501v10.307C364.677,307.736,370.284,313.347,377.178,313.347z M372.437,290.538
		c0-2.614,2.127-4.742,4.741-4.742c2.612,0,4.74,2.128,4.74,4.742v10.307c0,2.614-2.129,4.742-4.74,4.742
		c-2.614,0-4.741-2.128-4.741-4.742V290.538z"/>
	<path fill="#222221" d="M248.707,338.817c-6.893,0-12.5,5.609-12.5,12.503v10.306c0,6.893,5.607,12.5,12.5,12.5
		c6.894,0,12.501-5.607,12.501-12.5V351.32C261.208,344.427,255.601,338.817,248.707,338.817z M253.448,361.626
		c0,2.614-2.129,4.741-4.741,4.741c-2.614,0-4.741-2.127-4.741-4.741V351.32c0-2.615,2.127-4.743,4.741-4.743
		c2.613,0,4.741,2.128,4.741,4.743V361.626z"/>
	<path fill="#222221" d="M287.881,338.817c-6.894,0-12.501,5.609-12.501,12.503v10.306c0,6.893,5.607,12.5,12.501,12.5
		c6.893,0,12.5-5.607,12.5-12.5V351.32C300.38,344.427,294.774,338.817,287.881,338.817z M292.622,361.626
		c0,2.614-2.13,4.741-4.741,4.741c-2.614,0-4.741-2.127-4.741-4.741V351.32c0-2.615,2.127-4.743,4.741-4.743
		c2.612,0,4.741,2.128,4.741,4.743V361.626z"/>
</g>
</svg>
