<?xml version="1.0" encoding="utf-8"?>
<!-- Generator: Adobe Illustrator 15.0.0, SVG Export Plug-In . SVG Version: 6.00 Build 0)  -->
<!DOCTYPE svg PUBLIC "-//W3C//DTD SVG 1.1//EN" "http://www.w3.org/Graphics/SVG/1.1/DTD/svg11.dtd">
<svg version="1.1" id="Capa_1" xmlns="http://www.w3.org/2000/svg" xmlns:xlink="http://www.w3.org/1999/xlink" x="0px" y="0px"
	 width="600px" height="600px" viewBox="0 0 600 600" enable-background="new 0 0 600 600" xml:space="preserve">
<g>
	<path fill="#222221" d="M269.095,254.603h-29.531c-2.071,0-3.749,1.68-3.749,3.749v35.321c0,2.069,1.678,3.749,3.749,3.749h29.531
		c2.071,0,3.749-1.68,3.749-3.749v-35.321C272.844,256.282,271.166,254.603,269.095,254.603z M265.346,289.923h-22.033V262.1h22.033
		V289.923z"/>
	<path fill="#222221" d="M314.766,254.603h-29.531c-2.071,0-3.749,1.68-3.749,3.749v35.321c0,2.069,1.678,3.749,3.749,3.749h29.531
		c2.07,0,3.749-1.68,3.749-3.749v-35.321C318.515,256.282,316.836,254.603,314.766,254.603z M311.017,289.923h-22.033V262.1h22.033
		V289.923z"/>
	<path fill="#222221" d="M364.185,293.672v-35.321c0-2.069-1.678-3.749-3.749-3.749h-29.53c-2.071,0-3.749,1.68-3.749,3.749v35.321
		c0,2.069,1.678,3.749,3.749,3.749h29.53C362.507,297.421,364.185,295.742,364.185,293.672z M356.687,289.923h-22.032V262.1h22.032
		V289.923z"/>
	<path fill="#222221" d="M531.714,348.906c-0.31-37.098-19.086-70.708-47.098-84.415l-24.22-66.44
		c-0.539-1.481-1.946-2.465-3.521-2.465c-1.574,0-2.982,0.984-3.521,2.465l-24.22,66.44c-18.101,8.858-32.34,26.031-40.24,47.08
		V241.4c0.38-0.658,0.613-1.415,0.613-2.23c0-44.797-22.559-85.516-56.328-102.043l-28.952-79.429
		c-0.649-1.777-2.337-2.958-4.229-2.958c-1.891,0-3.579,1.181-4.225,2.958l-28.955,79.429
		c-33.77,16.528-56.328,57.247-56.328,102.043c0,0.816,0.233,1.572,0.613,2.23v70.171c-7.9-21.049-22.138-38.222-40.237-47.08
		l-24.22-66.44c-0.541-1.481-1.948-2.465-3.522-2.465s-2.982,0.984-3.522,2.465l-24.22,66.44
		c-28.013,13.708-46.79,47.319-47.097,84.421c-0.077,0.295-0.129,0.601-0.129,0.92v191.678c0,2.071,1.678,3.749,3.749,3.749h456.188
		c2.071,0,3.749-1.678,3.749-3.749V349.834C531.843,349.514,531.79,349.206,531.714,348.906z M433.698,270.626
		c0.91-0.418,1.612-1.182,1.955-2.122l21.223-58.221l21.224,58.221c0.341,0.94,1.046,1.704,1.954,2.122
		c25.483,11.724,42.901,41.744,44.109,75.458H389.587C390.794,312.37,408.214,282.351,433.698,270.626z M331.557,328.582
		l-29.046-26.192c-1.429-1.288-3.597-1.286-5.022,0l-29.047,26.192c-0.79,0.71-1.239,1.723-1.239,2.784v37.609l-48.602,25.284
		V243.67h162.795v150.59l-48.603-25.284v-37.609C332.794,330.305,332.345,329.292,331.557,328.582z M272.296,144.486
		c1.091-0.501,1.935-1.42,2.346-2.547L300,72.374l25.357,69.565c0.41,1.127,1.257,2.046,2.347,2.547
		c30.454,14.011,51.275,49.892,52.725,90.185h-160.86C221.02,194.378,241.841,158.498,272.296,144.486z M119.947,270.626
		c0.908-0.418,1.613-1.182,1.954-2.122l21.224-58.221l21.224,58.221c0.341,0.94,1.046,1.704,1.954,2.122
		c25.481,11.724,42.901,41.744,44.108,75.458H75.836C77.044,312.37,94.463,282.351,119.947,270.626z M524.345,537.762H75.656
		V353.583h134.938v47.119c0,1.31,0.684,2.524,1.803,3.203c1.12,0.679,2.515,0.728,3.676,0.122l56.608-29.451
		c1.241-0.646,2.019-1.927,2.019-3.325v-38.215L300,310.221l25.296,22.812v38.218c0,1.397,0.778,2.68,2.019,3.324l56.611,29.452
		c1.161,0.604,2.554,0.557,3.676-0.122c1.119-0.681,1.804-1.895,1.804-3.204v-47.119h134.938v184.18H524.345z"/>
	<path fill="#222221" d="M406.327,399.168h24.7c2.071,0,3.749-1.677,3.749-3.749v-29.542c0-2.068-1.678-3.749-3.749-3.749h-24.7
		c-2.071,0-3.749,1.681-3.749,3.749v29.542C402.578,397.491,404.256,399.168,406.327,399.168z M410.076,369.628h17.202v22.045
		h-17.202V369.628z"/>
	<path fill="#222221" d="M444.525,399.168h24.701c2.07,0,3.749-1.677,3.749-3.749v-29.542c0-2.068-1.679-3.749-3.749-3.749h-24.701
		c-2.07,0-3.749,1.681-3.749,3.749v29.542C440.776,397.491,442.452,399.168,444.525,399.168z M448.274,369.628h17.203v22.045
		h-17.203V369.628z"/>
	<path fill="#222221" d="M482.725,399.168h24.701c2.07,0,3.749-1.677,3.749-3.749v-29.542c0-2.068-1.679-3.749-3.749-3.749h-24.701
		c-2.07,0-3.749,1.681-3.749,3.749v29.542C478.976,397.491,480.655,399.168,482.725,399.168z M486.474,369.628h17.203v22.045
		h-17.203V369.628z"/>
	<path fill="#222221" d="M117.277,362.13H92.574c-2.071,0-3.749,1.679-3.749,3.749v29.543c0,2.069,1.678,3.749,3.749,3.749h24.702
		c2.069,0,3.749-1.68,3.749-3.749v-29.543C121.026,363.809,119.346,362.13,117.277,362.13z M113.528,391.67H96.323v-22.044h17.204
		V391.67z"/>
	<path fill="#222221" d="M155.474,362.13h-24.701c-2.071,0-3.749,1.679-3.749,3.749v29.543c0,2.069,1.678,3.749,3.749,3.749h24.701
		c2.071,0,3.749-1.68,3.749-3.749v-29.543C159.223,363.809,157.545,362.13,155.474,362.13z M151.725,391.67h-17.203v-22.044h17.203
		V391.67z"/>
	<path fill="#222221" d="M193.675,362.13h-24.702c-2.07,0-3.749,1.679-3.749,3.749v29.543c0,2.069,1.679,3.749,3.749,3.749h24.702
		c2.071,0,3.749-1.68,3.749-3.749v-29.543C197.424,363.809,195.746,362.13,193.675,362.13z M189.926,391.67h-17.204v-22.044h17.204
		V391.67z"/>
	<path fill="#222221" d="M300,404.384c-16.468,0-29.865,13.397-29.865,29.863v85.918c0,2.069,1.678,3.749,3.749,3.749h52.231
		c2.07,0,3.749-1.68,3.749-3.749v-85.918C329.865,417.781,316.468,404.384,300,404.384z M322.367,516.416h-44.733v-82.169
		c0-12.334,10.034-22.365,22.367-22.365c12.332,0,22.366,10.031,22.366,22.365V516.416L322.367,516.416z"/>
	<path fill="#222221" d="M360.352,425.136c-12.764,0-23.147,10.383-23.147,23.146v71.883c0,2.069,1.679,3.749,3.749,3.749h38.796
		c2.071,0,3.749-1.68,3.749-3.749v-71.883C383.498,435.519,373.115,425.136,360.352,425.136z M376,516.416h-31.298v-68.134
		c0-8.628,7.02-15.647,15.649-15.647c8.628,0,15.647,7.02,15.647,15.647L376,516.416L376,516.416z"/>
	<path fill="#222221" d="M239.649,425.136c-12.763,0-23.146,10.383-23.146,23.146v71.883c0,2.069,1.678,3.749,3.749,3.749h38.794
		c2.071,0,3.749-1.68,3.749-3.749v-71.883C262.795,435.519,252.411,425.136,239.649,425.136z M255.297,516.416H224v-68.134
		c0-8.628,7.02-15.647,15.648-15.647c8.628,0,15.647,7.02,15.647,15.647v68.134H255.297z"/>
</g>
</svg>
