<?xml version="1.0" encoding="utf-8"?>
<!-- Generator: Adobe Illustrator 15.0.0, SVG Export Plug-In . SVG Version: 6.00 Build 0)  -->
<!DOCTYPE svg PUBLIC "-//W3C//DTD SVG 1.1//EN" "http://www.w3.org/Graphics/SVG/1.1/DTD/svg11.dtd">
<svg version="1.1" id="Capa_1" xmlns="http://www.w3.org/2000/svg" xmlns:xlink="http://www.w3.org/1999/xlink" x="0px" y="0px"
	 width="600px" height="600px" viewBox="0 0 600 600" enable-background="new 0 0 600 600" xml:space="preserve">
<path d="M510.63,479.624h-17.804l-73.502-272.691c-0.223-0.822-0.682-1.561-1.321-2.123L281.26,84.86
	c-0.014-0.012-0.03-0.021-0.043-0.033c-0.076-0.065-0.158-0.121-0.238-0.18c-0.09-0.066-0.177-0.136-0.271-0.194
	c-0.077-0.049-0.16-0.089-0.24-0.132c-0.105-0.058-0.208-0.115-0.316-0.163c-0.02-0.008-0.038-0.021-0.058-0.03
	c-0.067-0.029-0.139-0.044-0.209-0.07c-0.104-0.039-0.209-0.078-0.319-0.108c-0.103-0.029-0.204-0.047-0.305-0.067
	c-0.1-0.02-0.198-0.04-0.299-0.053c-0.108-0.014-0.215-0.019-0.322-0.024c-0.099-0.006-0.197-0.01-0.295-0.009
	c-0.106,0.001-0.213,0.012-0.32,0.021c-0.099,0.008-0.198,0.019-0.298,0.034c-0.104,0.018-0.207,0.041-0.31,0.065
	c-0.098,0.023-0.198,0.048-0.296,0.078c-0.1,0.032-0.197,0.069-0.296,0.107c-0.063,0.026-0.129,0.042-0.193,0.071
	c-0.032,0.016-0.063,0.036-0.096,0.054c-0.093,0.044-0.181,0.096-0.271,0.148c-0.093,0.054-0.187,0.108-0.274,0.168
	c-0.082,0.055-0.159,0.116-0.236,0.177c-0.09,0.07-0.177,0.142-0.262,0.217c-0.028,0.027-0.06,0.049-0.088,0.077l-88.768,86.364
	c-0.571,0.554-0.977,1.255-1.172,2.025l-78.335,306.224h-17.76c-2.386,0-4.318,1.933-4.318,4.318v27.944
	c0,2.386,1.933,4.318,4.318,4.318h421.266c2.384,0,4.318-1.933,4.318-4.318v-27.944C514.948,481.556,513.015,479.624,510.63,479.624
	z M483.882,479.624h-41.409l-63.929-243.875c-0.26-0.991-0.862-1.855-1.7-2.443l-94.114-65.883V97.64l128.596,112.801
	L483.882,479.624z M161.292,479.624l49.069-254.693l68.11-49.947l84.72,59.308l-17.824,49.42l-6.34-33.28
	c-0.264-1.386-1.19-2.557-2.478-3.133l-45.579-20.394c-1.353-0.606-2.924-0.475-4.158,0.349l-28.79,19.194
	c-0.965,0.644-1.632,1.649-1.848,2.79l-33.585,177.526c-0.239,1.263,0.098,2.566,0.918,3.558c0.821,0.991,2.04,1.563,3.326,1.563
	h77.25v47.74H161.292L161.292,479.624z M232.044,423.247l32.279-170.621l25.296-16.865l41.345,18.5l32.191,168.987H232.044V423.247z
	 M312.719,431.884h55.654c1.286,0,2.505-0.572,3.327-1.566c0.819-0.991,1.155-2.298,0.915-3.561L348.54,300.368l21.98-60.947
	l0.072,0.051l62.951,240.152H312.72L312.719,431.884L312.719,431.884z M193.526,176.719l80.568-78.386v69.15l-70.206,51.484
	c-0.877,0.645-1.48,1.596-1.687,2.666l-49.705,257.99H116.04L193.526,176.719z M506.312,507.568H93.683v-19.308h16.794h45.586
	h283.078h50.377c0.011,0.001,0.022,0,0.029,0h16.765V507.568L506.312,507.568z"/>
</svg>
