<?xml version="1.0" encoding="utf-8"?>
<!-- Generator: Adobe Illustrator 15.0.0, SVG Export Plug-In . SVG Version: 6.00 Build 0)  -->
<!DOCTYPE svg PUBLIC "-//W3C//DTD SVG 1.1//EN" "http://www.w3.org/Graphics/SVG/1.1/DTD/svg11.dtd">
<svg version="1.1" id="Capa_1" xmlns="http://www.w3.org/2000/svg" xmlns:xlink="http://www.w3.org/1999/xlink" x="0px" y="0px"
	 width="600px" height="600px" viewBox="0 0 600 600" enable-background="new 0 0 600 600" xml:space="preserve">
<g>
	<path d="M546.426,248.385h0.002c5.959-1.092,10.494-6.313,10.494-12.584c0-6.27-4.533-11.49-10.494-12.582v-23.712
		c0-7.958-5.662-14.62-13.17-16.167v-12.956c0-1.843-1.494-3.338-3.338-3.338s-3.338,1.495-3.338,3.338v12.956
		c-7.506,1.548-13.166,8.209-13.166,16.167v23.712c-5.959,1.091-10.494,6.312-10.494,12.582c0,6.271,4.533,11.491,10.494,12.584
		v4.548v115.515h-72.85v-54.491c0-1.844-1.494-3.338-3.338-3.338h-57.67c8.486-8.582,17.602-19.396,17.602-31.558
		c0-53.312-91.787-95.019-95.695-96.77c-0.869-0.39-1.862-0.389-2.728,0c-3.908,1.75-95.697,43.459-95.697,96.77
		c0,13.59,9.375,23.818,17.417,31.558h-57.483c-1.844,0-3.338,1.494-3.338,3.338v54.491H86.582V252.935v-4.549
		c5.96-1.092,10.493-6.313,10.493-12.584c0-6.269-4.532-11.489-10.493-12.582v-23.712c0-7.958-5.662-14.62-13.168-16.167v-12.956
		c0-1.843-1.494-3.338-3.338-3.338c-1.844,0-3.337,1.495-3.337,3.338v12.956c-7.508,1.548-13.169,8.208-13.169,16.167v23.712
		c-5.958,1.092-10.491,6.313-10.491,12.582c0,6.271,4.532,11.491,10.491,12.584v4.549v118.851v10.761v47.07
		c0,1.843,1.494,3.338,3.338,3.338h106.068h107.991c1.844,0,3.337-1.495,3.337-3.338v-52.024c0-14.224,11.573-25.798,25.798-25.798
		c14.227,0,25.795,11.571,25.795,25.798v52.024c0,1.843,1.496,3.338,3.338,3.338h107.992h106.068c1.842,0,3.338-1.495,3.338-3.338
		v-57.831c0-0.394-0.08-0.768-0.209-1.119V252.935v-4.55H546.426z M60.246,199.508c0-5.421,4.41-9.832,9.831-9.832
		c5.42,0,9.831,4.412,9.831,9.832v23.491H60.246V199.508z M55.88,241.929c-3.378,0-6.125-2.75-6.125-6.128
		c0-3.377,2.748-6.126,6.125-6.126h28.394c3.379,0,6.127,2.749,6.127,6.126c0,3.378-2.748,6.128-6.127,6.128H55.88z M79.908,248.604
		v119.844H60.246V248.604H79.908z M159.638,426.278H60.246v-51.155h99.393V426.278z M212.558,290.281
		c1.569,0.724,3.309,1.138,5.147,1.138c6.813,0,12.356-5.543,12.356-12.356c0-6.814-5.542-12.356-12.356-12.356
		c-2.45,0-4.729,0.725-6.653,1.96c10.4-41.077,78.504-74.666,89.05-79.646c10.559,4.983,78.812,38.626,89.082,79.792
		c-1.969-1.328-4.34-2.104-6.891-2.104c-6.812,0-12.357,5.543-12.357,12.356s5.545,12.356,12.357,12.356
		c1.74,0,3.396-0.366,4.898-1.019c-4.09,7.486-11.227,14.452-16.947,20.036l-0.188,0.184h-139.92
		c-0.792-0.766-1.609-1.543-2.462-2.35C222.316,303.204,216.093,297.3,212.558,290.281z M212.025,279.062
		c0-3.132,2.549-5.682,5.681-5.682c3.131,0,5.681,2.55,5.681,5.682s-2.549,5.681-5.681,5.681
		C214.573,284.743,212.025,282.195,212.025,279.062z M387.975,279.062c0,3.132-2.549,5.681-5.68,5.681
		c-3.133,0-5.682-2.549-5.682-5.681s2.549-5.682,5.682-5.682C385.426,273.381,387.975,275.931,387.975,279.062z M433.891,371.785
		v54.493H332.573v-48.687c0.002-17.906-14.564-32.474-32.468-32.474c-17.905,0-32.472,14.567-32.472,32.474v48.687H166.315v-54.493
		v-54.491h62.435c0.015,0,0.028,0.005,0.045,0.005c0.016,0,0.028-0.005,0.045-0.005h142.502c0.023,0.001,0.051,0,0.074,0h62.475
		V371.785L433.891,371.785z M520.092,199.508c0-5.421,4.408-9.832,9.83-9.832s9.832,4.412,9.832,9.832v23.491h-19.662V199.508z
		 M539.959,426.278h-99.391v-51.155h99.391V426.278z M520.092,368.447V248.604h19.662v119.844H520.092z M544.119,241.929h-28.395
		c-3.377,0-6.125-2.75-6.125-6.128c0-3.377,2.748-6.126,6.125-6.126h28.395c3.377,0,6.127,2.749,6.127,6.126
		C550.246,239.18,547.496,241.929,544.119,241.929z"/>
	<path d="M245.136,291.419c6.813,0,12.357-5.543,12.357-12.356c0-6.814-5.543-12.356-12.357-12.356s-12.356,5.542-12.356,12.356
		C232.78,285.876,238.323,291.419,245.136,291.419z M245.136,273.381c3.134,0,5.682,2.55,5.682,5.682s-2.549,5.681-5.682,5.681
		c-3.131,0-5.68-2.549-5.68-5.681S242.005,273.381,245.136,273.381z"/>
	<path d="M272.569,291.419c6.813,0,12.357-5.543,12.357-12.356c0-6.814-5.543-12.356-12.357-12.356s-12.357,5.542-12.357,12.356
		C260.212,285.876,265.755,291.419,272.569,291.419z M272.569,273.381c3.132,0,5.681,2.55,5.681,5.682s-2.549,5.681-5.681,5.681
		c-3.134,0-5.682-2.549-5.682-5.681S269.435,273.381,272.569,273.381z"/>
	<path d="M300,291.419c6.813,0,12.354-5.543,12.354-12.356c0-6.814-5.541-12.356-12.354-12.356c-6.813,0-12.357,5.542-12.357,12.356
		C287.643,285.876,293.186,291.419,300,291.419z M300,273.381c3.131,0,5.678,2.55,5.678,5.682s-2.547,5.681-5.678,5.681
		c-3.132,0-5.682-2.549-5.682-5.681S296.867,273.381,300,273.381z"/>
	<path d="M327.43,291.419c6.814,0,12.357-5.543,12.357-12.356c0-6.814-5.543-12.356-12.357-12.356s-12.355,5.542-12.355,12.356
		C315.074,285.876,320.615,291.419,327.43,291.419z M327.43,273.381c3.133,0,5.682,2.55,5.682,5.682s-2.549,5.681-5.682,5.681
		c-3.131,0-5.68-2.549-5.68-5.681S324.297,273.381,327.43,273.381z"/>
	<path d="M354.862,291.419c6.814,0,12.357-5.543,12.357-12.356c0-6.814-5.543-12.356-12.357-12.356
		c-6.812,0-12.355,5.542-12.355,12.356C342.506,285.876,348.049,291.419,354.862,291.419z M354.862,273.381
		c3.133,0,5.682,2.55,5.682,5.682s-2.549,5.681-5.682,5.681c-3.131,0-5.682-2.549-5.682-5.681S351.729,273.381,354.862,273.381z"/>
</g>
</svg>
