<?xml version="1.0" encoding="utf-8"?>
<!-- Generator: Adobe Illustrator 15.0.0, SVG Export Plug-In . SVG Version: 6.00 Build 0)  -->
<!DOCTYPE svg PUBLIC "-//W3C//DTD SVG 1.1//EN" "http://www.w3.org/Graphics/SVG/1.1/DTD/svg11.dtd">
<svg version="1.1" id="Capa_1" xmlns="http://www.w3.org/2000/svg" xmlns:xlink="http://www.w3.org/1999/xlink" x="0px" y="0px"
	 width="600px" height="600px" viewBox="0 0 600 600" enable-background="new 0 0 600 600" xml:space="preserve">
<g>
	<path d="M373.175,285.338h-31.056v-53.228c6.871-1.436,12.05-7.539,12.05-14.832c0-8.355-6.798-15.153-15.152-15.153h-7.089
		v-59.713h0.874c1.925,0,3.484-1.56,3.484-3.484c0-13.285-7.181-24.92-17.859-31.243c0.117-0.83,0.193-1.673,0.193-2.535V77.527
		c0-9.076-6.531-16.646-15.139-18.283V37.186c0-1.924-1.559-3.484-3.484-3.484c-1.923,0-3.483,1.56-3.483,3.484v22.058
		c-8.605,1.638-15.136,9.208-15.136,18.282v27.625c0,0.861,0.077,1.705,0.194,2.534c-10.68,6.324-17.86,17.957-17.86,31.243
		c0,1.924,1.56,3.484,3.484,3.484h0.875v59.712h-7.088c-8.355,0-15.153,6.799-15.153,15.153c0,7.292,5.178,13.396,12.051,14.832
		v53.228h-31.056c-1.925,0-3.484,1.559-3.484,3.484v273.993c0,1.924,1.56,3.484,3.484,3.484h146.35c1.924,0,3.484-1.561,3.484-3.484
		V288.822C376.659,286.898,375.099,285.338,373.175,285.338z M288.347,77.525c0-6.426,5.228-11.653,11.651-11.653
		c6.426,0,11.655,5.228,11.655,11.653v27.046c-3.659-1.245-7.576-1.931-11.652-1.931c-4.077,0-7.992,0.685-11.653,1.931V77.525z
		 M300,109.608c14.986,0,27.384,11.305,29.112,25.837h-0.669h-56.888h-0.67C272.614,120.913,285.011,109.608,300,109.608z
		 M275.041,142.413h49.919v59.713h-49.919V142.413z M252.799,217.279c0-4.513,3.672-8.185,8.185-8.185h10.572h56.888h10.573
		c4.513,0,8.185,3.672,8.185,8.185c0,4.514-3.672,8.186-8.185,8.186h-0.382h-77.27h-0.382
		C256.471,225.464,252.799,221.792,252.799,217.279z M369.691,559.332H230.309V292.307h31.056c1.925,0,3.484-1.56,3.484-3.484
		v-56.39h70.301v56.39c0,1.925,1.56,3.484,3.484,3.484h31.056V559.332z"/>
	<path d="M271.556,462.746h-22.242c-1.923,0-3.484,1.559-3.484,3.484v63.012c0,1.926,1.561,3.484,3.484,3.484h22.242
		c1.925,0,3.484-1.559,3.484-3.484V466.23C275.04,464.305,273.481,462.746,271.556,462.746z M268.072,525.758h-15.273v-56.045
		h15.273V525.758z"/>
	<path d="M311.119,462.746H288.88c-1.925,0-3.484,1.559-3.484,3.484v63.012c0,1.926,1.56,3.484,3.484,3.484h22.239
		c1.925,0,3.484-1.559,3.484-3.484V466.23C314.604,464.305,313.045,462.746,311.119,462.746z M307.635,525.758h-15.271v-56.045
		h15.271V525.758z"/>
	<path d="M350.685,462.746h-22.24c-1.924,0-3.484,1.559-3.484,3.484v63.012c0,1.926,1.561,3.484,3.484,3.484h22.24
		c1.925,0,3.484-1.559,3.484-3.484V466.23C354.169,464.305,352.61,462.746,350.685,462.746z M347.201,525.758h-15.272v-56.045
		h15.272V525.758z"/>
	<path d="M271.556,379.043h-22.242c-1.923,0-3.484,1.559-3.484,3.484v63.012c0,1.924,1.561,3.484,3.484,3.484h22.242
		c1.925,0,3.484-1.561,3.484-3.484v-63.012C275.04,380.602,273.481,379.043,271.556,379.043z M268.072,442.055h-15.273v-56.043
		h15.273V442.055z"/>
	<path d="M311.119,379.043H288.88c-1.925,0-3.484,1.559-3.484,3.484v63.012c0,1.924,1.56,3.484,3.484,3.484h22.239
		c1.925,0,3.484-1.561,3.484-3.484v-63.012C314.604,380.602,313.045,379.043,311.119,379.043z M307.635,442.055h-15.271v-56.043
		h15.271V442.055z"/>
	<path d="M350.685,379.043h-22.24c-1.924,0-3.484,1.559-3.484,3.484v63.012c0,1.924,1.561,3.484,3.484,3.484h22.24
		c1.925,0,3.484-1.561,3.484-3.484v-63.012C354.169,380.602,352.61,379.043,350.685,379.043z M347.201,442.055h-15.272v-56.043
		h15.272V442.055z"/>
	<path d="M249.314,367.092h12.557c1.604,0,2.904-1.299,2.904-2.904v-36.68c0-1.604-1.3-2.902-2.904-2.902h-12.557
		c-1.604,0-2.903,1.299-2.903,2.902v36.68C246.411,365.793,247.711,367.092,249.314,367.092z M252.218,330.412h6.75v30.873h-6.75
		V330.412z"/>
	<path d="M285.608,327.508c0-1.604-1.3-2.902-2.904-2.902h-12.557c-1.604,0-2.903,1.299-2.903,2.902v36.68
		c0,1.605,1.3,2.904,2.903,2.904h12.557c1.604,0,2.904-1.299,2.904-2.904V327.508z M279.801,361.285h-6.75v-30.873h6.75V361.285z"/>
	<path d="M332.756,364.188v-36.68c0-1.604-1.298-2.902-2.903-2.902h-12.558c-1.604,0-2.903,1.299-2.903,2.902v36.68
		c0,1.605,1.299,2.904,2.903,2.904h12.558C331.458,367.092,332.756,365.793,332.756,364.188z M326.949,361.285h-6.751v-30.873h6.751
		V361.285z"/>
	<path d="M335.223,327.508v36.68c0,1.605,1.3,2.904,2.904,2.904h12.557c1.604,0,2.903-1.299,2.903-2.904v-36.68
		c0-1.604-1.3-2.902-2.903-2.902h-12.557C336.523,324.605,335.223,325.904,335.223,327.508z M341.031,330.412h6.75v30.873h-6.75
		V330.412z"/>
	<path d="M290.561,367.092h18.879c1.604,0,2.903-1.299,2.903-2.904v-47.693c0-6.807-5.538-12.344-12.343-12.344
		c-6.806,0-12.343,5.537-12.343,12.344v47.693C287.657,365.793,288.957,367.092,290.561,367.092z M293.464,316.494
		c0-3.605,2.932-6.537,6.536-6.537s6.536,2.932,6.536,6.537v44.791h-13.072V316.494L293.464,316.494z"/>
	<path d="M306.279,150.445h-12.557c-1.924,0-3.484,1.559-3.484,3.484v36.679c0,1.924,1.56,3.484,3.484,3.484h12.557
		c1.925,0,3.484-1.56,3.484-3.484v-36.679C309.763,152.006,308.204,150.445,306.279,150.445z M302.795,187.125h-5.589v-29.711h5.589
		V187.125z"/>
</g>
</svg>
