<?xml version="1.0" encoding="utf-8"?>
<!-- Generator: Adobe Illustrator 15.0.0, SVG Export Plug-In . SVG Version: 6.00 Build 0)  -->
<!DOCTYPE svg PUBLIC "-//W3C//DTD SVG 1.1//EN" "http://www.w3.org/Graphics/SVG/1.1/DTD/svg11.dtd">
<svg version="1.1" id="Capa_1" xmlns="http://www.w3.org/2000/svg" xmlns:xlink="http://www.w3.org/1999/xlink" x="0px" y="0px"
	 width="600px" height="600px" viewBox="0 0 600 600" enable-background="new 0 0 600 600" xml:space="preserve">
<g>
	<path fill="#222221" d="M559.156,411.418h-28.793l-5.524-199.748c5.438-0.713,9.655-5.367,9.655-10.997
		c0-2.064-0.575-3.992-1.562-5.649c8.373-3.344,14.312-11.521,14.312-21.073c0-12.515-10.183-22.698-22.697-22.698H220.012
		c-12.515,0-22.697,10.184-22.697,22.698c0,9.554,5.938,17.729,14.312,21.073c-0.985,1.658-1.562,3.585-1.562,5.649
		c0,5.629,4.216,10.282,9.653,10.997l-5.523,199.748h-49.624l-5.602-165.991c-0.064-1.907-1.629-3.419-3.538-3.419h-30.917
		c-1.908,0-3.472,1.513-3.538,3.419l-5.602,165.991h-9.253l-5.523-199.748c5.437-0.713,9.653-5.367,9.653-10.997
		c0-6.122-4.98-11.103-11.103-11.103H63.858c-6.121,0-11.102,4.98-11.102,11.103c0,5.629,4.216,10.282,9.655,10.997l-5.525,199.748
		H40.845c-1.955,0-3.539,1.583-3.539,3.538v30.252c0,1.955,1.584,3.539,3.539,3.539h518.311c1.955,0,3.539-1.584,3.539-3.539
		v-30.252C562.695,413.001,561.111,411.418,559.156,411.418z M463.629,411.418l-5.524-199.748c5.438-0.713,9.656-5.367,9.656-10.997
		c0-1.421-0.278-2.775-0.767-4.025h10.768c-0.488,1.25-0.765,2.604-0.765,4.025c0,5.629,4.215,10.283,9.654,10.997l-5.523,199.748
		H463.629z M396.897,411.418l-5.523-199.748c5.438-0.713,9.655-5.367,9.655-10.997c0-1.421-0.278-2.775-0.767-4.025h10.768
		c-0.487,1.25-0.765,2.604-0.765,4.025c0,5.629,4.216,10.283,9.654,10.997l-5.524,199.748H396.897z M330.164,411.418l-5.523-199.748
		c5.438-0.713,9.653-5.367,9.653-10.997c0-1.421-0.276-2.775-0.765-4.025h10.769c-0.488,1.25-0.766,2.604-0.766,4.025
		c0,5.628,4.215,10.282,9.654,10.997l-5.524,199.748H330.164z M263.433,411.418l-5.526-199.748
		c5.438-0.713,9.654-5.367,9.654-10.997c0-1.421-0.279-2.775-0.767-4.025h10.769c-0.488,1.25-0.766,2.604-0.766,4.025
		c0,5.629,4.215,10.282,9.654,10.997l-5.524,199.748H263.433z M327.217,200.674c0,2.219-1.805,4.023-4.024,4.023h-2.187h-30.917
		h-2.188c-2.22,0-4.024-1.805-4.024-4.023s1.804-4.025,4.024-4.025h35.292C325.41,196.648,327.217,198.455,327.217,200.674z
		 M293.53,211.775h24.033l5.521,199.643H288.01L293.53,211.775z M393.95,200.674c0,2.219-1.806,4.023-4.025,4.023h-2.187h-30.917
		h-2.188c-2.219,0-4.024-1.805-4.024-4.023s1.806-4.025,4.024-4.025h35.293C392.145,196.648,393.95,198.455,393.95,200.674z
		 M360.262,211.775h24.034l5.521,199.643H354.74L360.262,211.775z M460.683,200.674c0,2.219-1.805,4.023-4.023,4.023h-2.189h-30.917
		h-2.188c-2.219,0-4.024-1.805-4.024-4.023s1.806-4.025,4.024-4.025h35.294C458.878,196.648,460.683,198.455,460.683,200.674z
		 M426.994,211.775h24.033l5.522,199.643h-35.077L426.994,211.775z M493.729,211.775h24.032l5.521,199.643h-35.074L493.729,211.775z
		 M523.392,204.697h-2.188h-30.917h-2.188c-2.219,0-4.023-1.805-4.023-4.023s1.805-4.025,4.023-4.025h35.295
		c2.219,0,4.022,1.805,4.022,4.025C527.414,202.893,525.611,204.697,523.392,204.697z M204.392,173.951
		c0-8.613,7.006-15.621,15.62-15.621h304.534c8.612,0,15.619,7.007,15.619,15.621c0,8.612-7.007,15.621-15.619,15.621h-1.155
		h-35.295h-31.437h-35.294h-31.44h-35.293h-31.439H287.9h-31.44h-35.293h-1.155C211.4,189.571,204.392,182.563,204.392,173.951z
		 M217.144,200.674c0-2.219,1.805-4.025,4.023-4.025h35.293c2.219,0,4.024,1.805,4.024,4.025c0,2.219-1.805,4.023-4.024,4.023
		h-2.188h-30.917h-2.188C218.948,204.697,217.144,202.893,217.144,200.674z M226.797,211.775h24.034l5.522,199.643h-35.077
		L226.797,211.775z M127.936,249.085h24.075l5.479,162.333h-35.03L127.936,249.085z M59.834,200.674
		c0-2.219,1.805-4.025,4.024-4.025h35.293c2.22,0,4.025,1.805,4.025,4.025c0,2.219-1.804,4.023-4.025,4.023h-2.187H66.047h-2.189
		C61.639,204.697,59.834,202.893,59.834,200.674z M69.489,211.775h24.034l5.521,199.643H63.967L69.489,211.775z M555.616,441.669
		H44.384v-23.175H60.33h42.351h16.117h42.352h56.487h42.352h24.38h42.351h24.381h42.353h24.38h42.353h24.381h42.351h28.696v23.175
		H555.616z"/>
</g>
</svg>
