<?xml version="1.0" encoding="utf-8"?>
<!-- Generator: Adobe Illustrator 15.0.0, SVG Export Plug-In . SVG Version: 6.00 Build 0)  -->
<!DOCTYPE svg PUBLIC "-//W3C//DTD SVG 1.1//EN" "http://www.w3.org/Graphics/SVG/1.1/DTD/svg11.dtd">
<svg version="1.1" id="Capa_1" xmlns="http://www.w3.org/2000/svg" xmlns:xlink="http://www.w3.org/1999/xlink" x="0px" y="0px"
	 width="600px" height="600px" viewBox="0 0 600 600" enable-background="new 0 0 600 600" xml:space="preserve">
<g>
	<path d="M300.306,141.182c-19.52,0-35.4,15.88-35.4,35.399s15.881,35.399,35.4,35.399c19.517,0,35.399-15.88,35.399-35.399
		S319.824,141.182,300.306,141.182z M300.306,204.031c-15.136,0-27.452-12.314-27.452-27.451s12.315-27.451,27.452-27.451
		s27.45,12.314,27.45,27.451S315.443,204.031,300.306,204.031z"/>
	<path d="M232.738,134.505c0,0,28.258,19.919,28.48,20.081c1.775,1.29,4.146,1.332,5.611-0.301
		c8.982-9.997,18.11-16.654,33.477-16.654c13.757,0,23.12,6.8,32.948,17.009c0.782,0.811,1.82,1.218,2.863,1.218
		c0.992,0,1.903-0.468,2.756-1.111c0.412-0.31,28.076-20.242,28.076-20.242c1.794-1.265,2.226-3.743,0.962-5.538
		c-1.266-1.794-3.743-2.228-5.539-0.961l-26.106,18.386c-3.395-3.338-7.028-6.495-11.072-9.153l14.891-28.7
		c1.011-1.948,0.251-4.348-1.697-5.359c-1.947-1.01-4.348-0.248-5.359,1.698l-14.808,28.541c-4.176-1.853-8.782-3.117-13.941-3.554
		V97.862c0-2.195-1.778-3.975-3.974-3.975c-2.194,0-3.974,1.779-3.974,3.975v31.97c-5.646,0.408-10.568,1.665-14.907,3.499
		l-14.765-28.455c-1.011-1.947-3.407-2.706-5.358-1.698c-1.948,1.012-2.708,3.411-1.697,5.359l14.795,28.517
		c-4.234,2.727-7.836,5.965-11.037,9.295l-26.047-18.345c-1.795-1.266-4.275-0.833-5.538,0.96
		C230.513,130.762,230.944,133.241,232.738,134.505z"/>
	<path d="M442.411,476.648H373.76l-14.903-96.982l36.514-62.53c1.105-1.894,0.469-4.324-1.422-5.433l-35.335-20.723
		c-1.872-1.099-4.277-0.491-5.403,1.357L347,302.512l-11.572-75.314c-0.299-1.939-1.967-3.37-3.928-3.37h-60.411l-52.394-69.619
		c-1.277-1.695-3.661-2.09-5.414-0.893l-1.735,1.183V134.49c8.517-1.833,14.922-9.412,14.922-18.468
		c0-8.784-12.815-33.403-15.385-38.251c-0.688-1.299-2.04-2.113-3.51-2.113c-1.471,0-2.822,0.814-3.512,2.113
		c-2.567,4.847-15.385,29.467-15.385,38.251c0,9.056,6.406,16.636,14.923,18.468v25.428l-4.889,3.333
		c-1.534,1.045-2.14,3.013-1.458,4.74l55.413,140.66l-25.812,167.998h-69.269c-2.196,0-3.975,1.779-3.975,3.975v39.743
		c0,2.195,1.778,3.975,3.975,3.975h284.829c2.195,0,3.974-1.779,3.974-3.975v-39.743
		C446.385,478.426,444.607,476.648,442.411,476.648z M357.959,299.812l28.546,16.74l-29.564,50.632l-8.067-52.485L357.959,299.812z
		 M272.516,231.774h55.572l5.429,35.329l-78.488,78.49l8.357-54.39L272.516,231.774z M196.623,116.021
		c0-4.075,5.618-16.923,10.948-27.67c5.329,10.743,10.948,23.592,10.948,27.67c0,6.036-4.911,10.947-10.948,10.947
		S196.623,122.057,196.623,116.021z M205.809,168.029l8.816-6.012l50.298,66.834l-9.863,64.197L205.809,168.029z M253.072,358.328
		c0.489-0.192,0.947-0.483,1.342-0.88l80.601-80.601l9.034,58.791c-0.135,0.104-0.272,0.2-0.396,0.323L240.688,438.928
		L253.072,358.328z M238.649,452.209l106.889-106.891l20.181,131.328H234.895L238.649,452.209z M438.437,516.392H161.556v-31.795
		h68.707H370.35c0.012,0.002,0.021,0.002,0.027,0h68.061L438.437,516.392L438.437,516.392z"/>
</g>
</svg>
