<?xml version="1.0" encoding="utf-8"?>
<!-- Generator: Adobe Illustrator 15.0.0, SVG Export Plug-In . SVG Version: 6.00 Build 0)  -->
<!DOCTYPE svg PUBLIC "-//W3C//DTD SVG 1.1//EN" "http://www.w3.org/Graphics/SVG/1.1/DTD/svg11.dtd">
<svg version="1.1" id="Capa_1" xmlns="http://www.w3.org/2000/svg" xmlns:xlink="http://www.w3.org/1999/xlink" x="0px" y="0px"
	 width="600px" height="600px" viewBox="0 0 600 600" enable-background="new 0 0 600 600" xml:space="preserve">
<path d="M533.68,417.735h-21.305l-18.502-24.169l-35.025-45.75l-35.025-45.751l-35.023-45.75l-35.025-45.75l-35.024-45.75
	l-15.717-20.529c-0.723-0.943-1.845-1.498-3.035-1.498c-1.189,0-2.31,0.554-3.032,1.498l-50.297,65.699l-35.024,45.749
	l-35.025,45.753l-35.025,45.75c-0.001,0.001-0.001,0.004-0.002,0.005l-35.019,45.741c-0.001,0.001-0.002,0.003-0.002,0.004
	l-18.945,24.749H66.321c-2.11,0-3.82,1.71-3.82,3.82v31.837c0,2.11,1.71,3.82,3.82,3.82H533.68c2.109,0,3.82-1.71,3.82-3.82v-31.837
	C537.5,419.445,535.789,417.735,533.68,417.735z M144.628,355.845l10.955,14.32l-30.201,39.478l-10.966-14.333L144.628,355.845z
	 M179.652,310.096l10.943,14.303l-30.201,39.479l-10.954-14.317L179.652,310.096z M214.678,264.344l1.765,2.308l9.167,11.98
	l-30.202,39.48l-10.942-14.301L214.678,264.344z M315.718,173.425l30.214,39.464l-9.726,12.712l-0.748,0.979l-29.408-38.438
	l-0.796-1.04l7.196-9.407L315.718,173.425z M350.743,219.175l30.212,39.464l-10.483,13.707l-29.269-38.256l-0.934-1.221l4.53-5.92
	L350.743,219.175z M385.769,264.925l30.212,39.463l-4.856,6.352l-5.639,7.369l-30.204-39.479l9.558-12.493L385.769,264.925z
	 M486.029,395.89l-10.52,13.751l-30.203-39.478l10.51-13.736L486.029,395.89z M270.243,232.867l30.201-39.477l30.203,39.477
	l-0.935,1.221l-29.267,38.255l-29.267-38.255L270.243,232.867z M270.244,324.398l30.201-39.479l30.203,39.479l-30.202,39.478
	L270.244,324.398z M370.472,363.876l-30.203-39.478l30.202-39.479l30.203,39.479L370.472,363.876z M260.622,324.398l-30.205,39.479
	l-30.201-39.479l30.202-39.479L260.622,324.398z M225.609,370.166l-30.201,39.479l-30.202-39.479l30.202-39.479L225.609,370.166z
	 M265.433,330.687l30.202,39.477l-30.204,39.481l-30.201-39.479L265.433,330.687z M335.459,330.687l30.202,39.477l-30.202,39.478
	l-30.202-39.478L335.459,330.687z M405.484,330.687l30.203,39.477l-30.203,39.478l-30.202-39.478L405.484,330.687z M365.66,278.632
	l-30.201,39.478l-30.203-39.478l22.89-29.917l7.312-9.56l7.312,9.56L365.66,278.632z M265.433,239.155l7.313,9.56l22.889,29.917
	l-30.201,39.478l-30.202-39.478l22.889-29.917L265.433,239.155z M440.496,363.876l-30.203-39.478l10.498-13.724l30.212,39.465
	L440.496,363.876z M249.702,218.594l10.92,14.273l-0.935,1.221l-29.269,38.255l-10.93-14.284L249.702,218.594z M131.571,417.735
	l-1.379-1.804l30.203-39.479l30.202,39.479l-1.379,1.804H131.571z M201.596,417.735l-1.379-1.804l30.201-39.479l30.204,39.479
	l-1.379,1.804H201.596z M271.622,417.735l-1.379-1.804l30.204-39.48l30.202,39.478l-1.381,1.807H271.622L271.622,417.735z
	 M341.652,417.735l-1.383-1.807l30.203-39.478l30.202,39.478l-1.382,1.807H341.652z M411.678,417.735l-1.383-1.807l30.202-39.478
	l30.203,39.478l-1.381,1.807H411.678z M481.703,417.735l-1.383-1.807l8.136-10.635l2.386-3.119l11.913,15.561H481.703
	L481.703,417.735z M300,152.894l10.905,14.247l-9.362,12.238l-1.1,1.436l-10.905-14.255L300,152.894z M284.727,172.844
	l10.907,14.257l-30.201,39.478l-10.919-14.272L284.727,172.844z M109.602,401.596l10.969,14.336l-1.379,1.804H97.248
	L109.602,401.596z M529.86,449.571H70.141v-24.195H89.51h31.569h8.604h61.42h8.604h61.421h8.604h61.421h8.61h61.415h8.611h61.415
	h8.61h30.675h19.369V449.571L529.86,449.571z"/>
</svg>
