<?xml version="1.0" encoding="utf-8"?>
<!-- Generator: Adobe Illustrator 15.0.0, SVG Export Plug-In . SVG Version: 6.00 Build 0)  -->
<!DOCTYPE svg PUBLIC "-//W3C//DTD SVG 1.1//EN" "http://www.w3.org/Graphics/SVG/1.1/DTD/svg11.dtd">
<svg version="1.1" id="Capa_1" xmlns="http://www.w3.org/2000/svg" xmlns:xlink="http://www.w3.org/1999/xlink" x="0px" y="0px"
	 width="600px" height="600px" viewBox="0 0 600 600" enable-background="new 0 0 600 600" xml:space="preserve">
<path d="M337.246,106.112c-0.05-0.717-0.292-1.407-0.703-1.997l-33.266-47.902c-0.01-0.014-0.023-0.027-0.032-0.04
	c-0.068-0.095-0.146-0.182-0.221-0.269c-0.063-0.074-0.123-0.15-0.188-0.218c-0.071-0.073-0.153-0.135-0.231-0.204
	c-0.08-0.071-0.158-0.145-0.245-0.208c-0.076-0.055-0.159-0.101-0.238-0.151c-0.098-0.062-0.194-0.127-0.296-0.18
	c-0.078-0.041-0.164-0.07-0.244-0.105c-0.112-0.049-0.226-0.1-0.342-0.138c-0.018-0.005-0.031-0.015-0.047-0.02
	c-0.071-0.021-0.145-0.03-0.215-0.048c-0.117-0.03-0.234-0.061-0.355-0.08c-0.101-0.015-0.197-0.021-0.295-0.028
	c-0.109-0.008-0.218-0.021-0.327-0.021c-0.111,0-0.219,0.012-0.328,0.021c-0.099,0.008-0.196,0.013-0.295,0.028
	c-0.122,0.019-0.239,0.052-0.357,0.081c-0.071,0.018-0.143,0.026-0.213,0.048c-0.015,0.005-0.03,0.014-0.046,0.019
	c-0.119,0.038-0.232,0.09-0.346,0.14c-0.081,0.034-0.164,0.064-0.241,0.104c-0.104,0.053-0.201,0.119-0.3,0.181
	c-0.078,0.05-0.16,0.094-0.234,0.148c-0.087,0.063-0.165,0.139-0.248,0.209c-0.077,0.068-0.156,0.131-0.229,0.203
	c-0.067,0.068-0.125,0.145-0.187,0.218c-0.077,0.089-0.154,0.175-0.223,0.269c-0.009,0.014-0.022,0.025-0.031,0.04l-33.266,47.902
	c-0.41,0.59-0.654,1.28-0.704,1.997l-30.604,435.113c-0.077,1.106,0.307,2.193,1.062,3.004c0.756,0.809,1.814,1.27,2.92,1.27h63.868
	h63.87c1.106,0,2.165-0.461,2.919-1.27c0.756-0.812,1.141-1.897,1.062-3.004L337.246,106.112z M270.638,107.767l25.369-36.531
	v466.279h-55.595L270.638,107.767z M303.991,537.514V71.235l25.368,36.531l30.227,429.747L303.991,537.514L303.991,537.514z"/>
</svg>
