<?xml version="1.0" encoding="utf-8"?>
<!-- Generator: Adobe Illustrator 15.0.0, SVG Export Plug-In . SVG Version: 6.00 Build 0)  -->
<!DOCTYPE svg PUBLIC "-//W3C//DTD SVG 1.1//EN" "http://www.w3.org/Graphics/SVG/1.1/DTD/svg11.dtd">
<svg version="1.1" id="Capa_1" xmlns="http://www.w3.org/2000/svg" xmlns:xlink="http://www.w3.org/1999/xlink" x="0px" y="0px"
	 width="600px" height="600px" viewBox="0 0 600 600" enable-background="new 0 0 600 600" xml:space="preserve">
<path d="M433.2,400.543h-97.016l-8.222-257.126c8.596-0.014,15.585-7.01,15.585-15.609c0-8.609-7.002-15.611-15.608-15.611h-5.139
	c0.614-1.494,0.958-3.127,0.958-4.842c0-4.874-2.739-9.117-6.759-11.274c0.624-1.72,1.107-3.776,1.107-6.021
	c0-7.168-4.521-12.783-10.294-12.783h-3.674V63.952c0-2.285-1.854-4.137-4.138-4.137s-4.137,1.852-4.137,4.137v13.324h-3.676
	c-5.773,0-10.292,5.615-10.292,12.783c0,2.245,0.482,4.301,1.107,6.021c-4.021,2.157-6.761,6.4-6.761,11.274
	c0,1.714,0.344,3.348,0.958,4.842h-5.135c-8.609,0-15.611,7.004-15.611,15.611c0,8.599,6.987,15.595,15.583,15.609l-8.22,257.126
	h-97.015c-2.284,0-4.137,1.853-4.137,4.137v13.969c0,2.284,1.853,4.137,4.137,4.137h20.775l42.906,82.188h-18.784
	c-2.284,0-4.136,1.852-4.136,4.137v26.938c0,2.284,1.852,4.137,4.136,4.137H388.3c2.285,0,4.137-1.853,4.137-4.137V509.11
	c0-2.285-1.852-4.137-4.137-4.137h-18.784l42.908-82.188h20.773c2.286,0,4.137-1.853,4.137-4.137V404.68
	C437.337,402.396,435.486,400.543,433.2,400.543z M289.028,102.844c1.579,0,3.018-0.896,3.712-2.313
	c0.695-1.417,0.524-3.105-0.439-4.353c-0.023-0.028-2.129-2.898-2.129-6.118c0-2.806,1.401-4.51,2.018-4.51h15.624
	c0.617,0,2.021,1.704,2.021,4.51c0,3.244-2.125,6.111-2.129,6.118c-0.966,1.248-1.137,2.937-0.441,4.353
	c0.695,1.417,2.136,2.313,3.712,2.313c2.489,0,4.511,2.022,4.511,4.511c0,2.487-2.021,4.51-4.511,4.51h-21.948
	c-2.489,0-4.511-2.023-4.511-4.51C284.517,104.866,286.541,102.844,289.028,102.844z M264.728,127.808
	c0-4.046,3.292-7.338,7.338-7.338h55.874c4.046,0,7.335,3.292,7.335,7.338c0,4.045-3.29,7.336-7.335,7.336h-4.245H276.31h-4.245
	C268.02,135.145,264.728,131.854,264.728,127.808z M280.317,143.418h39.372l8.22,257.125h-55.811L280.317,143.418z M384.165,531.911
	H215.84v-18.664h21.473h125.381h21.472V531.911z M360.186,504.974H239.819l-42.907-82.188h206.182L360.186,504.974z
	 M429.065,414.512H409.92H190.086h-19.145v-5.695h96.885h64.354c0.01,0.002,0.02,0.002,0.026,0h96.858V414.512L429.065,414.512z"/>
</svg>
