<?xml version="1.0" encoding="utf-8"?>
<!-- Generator: Adobe Illustrator 15.0.0, SVG Export Plug-In . SVG Version: 6.00 Build 0)  -->
<!DOCTYPE svg PUBLIC "-//W3C//DTD SVG 1.1//EN" "http://www.w3.org/Graphics/SVG/1.1/DTD/svg11.dtd">
<svg version="1.1" id="Capa_1" xmlns="http://www.w3.org/2000/svg" xmlns:xlink="http://www.w3.org/1999/xlink" x="0px" y="0px"
	 width="600px" height="600px" viewBox="0 0 600 600" enable-background="new 0 0 600 600" xml:space="preserve">
<path fill="#222221" d="M473.794,141.892c1.954,0,3.537-1.583,3.537-3.537v-13.148h38.285c0.99,0,1.935-0.415,2.604-1.143
	c1.57-1.708,38.538-42.113,45.187-67.537c0.339-1.295-0.083-2.67-1.089-3.553c-1.006-0.882-2.422-1.124-3.665-0.619
	c-0.448,0.183-45.117,18.269-64.96,20.653c-12.7,1.523-69.751,1.65-122.229,1.65l-23.213-0.002c-18.563,0-37.585,0.014-48.193,0.171
	c-10.715-0.158-29.738-0.171-48.304-0.171l-23.214,0.002c-52.477,0-109.528-0.127-122.226-1.65
	c-19.851-2.384-64.518-20.47-64.967-20.653c-1.239-0.504-2.659-0.262-3.665,0.619c-1.005,0.883-1.426,2.259-1.088,3.553
	c6.648,25.424,43.616,65.83,45.187,67.537c0.669,0.729,1.615,1.143,2.604,1.143h38.253v13.148c0,1.954,1.584,3.537,3.537,3.537
	h4.316v9.773h-4.316c-1.953,0-3.537,1.583-3.537,3.537v13.149H75.12c-1.953,0-3.538,1.583-3.538,3.537v39.269
	c0,1.954,1.584,3.537,3.538,3.537h48.008V505.51h-6.775c-1.954,0-3.537,1.584-3.537,3.537v8.242h-8.242
	c-1.954,0-3.537,1.583-3.537,3.537v8.227H75.12c-1.953,0-3.538,1.584-3.538,3.537v11.777c0,1.954,1.584,3.537,3.538,3.537h155.756
	c1.953,0,3.537-1.583,3.537-3.537V532.59c0-1.953-1.584-3.537-3.537-3.537H204.96v-8.227c0-1.954-1.583-3.537-3.537-3.537h-8.242
	v-8.242c0-1.953-1.583-3.537-3.538-3.537h-6.767V214.695H417.59V505.51h-6.784c-1.954,0-3.537,1.584-3.537,3.537v8.242h-8.241
	c-1.953,0-3.537,1.583-3.537,3.537v8.227h-25.908c-1.954,0-3.537,1.584-3.537,3.537v11.777c0,1.954,1.583,3.537,3.537,3.537H525.34
	c1.954,0,3.537-1.583,3.537-3.537V532.59c0-1.953-1.583-3.537-3.537-3.537h-25.923v-8.227c0-1.954-1.585-3.537-3.537-3.537h-8.241
	v-8.242c0-1.953-1.583-3.537-3.537-3.537h-6.77V214.695h47.547c1.954,0,3.538-1.583,3.538-3.537v-39.269
	c0-1.954-1.584-3.537-3.538-3.537h-47.547v-13.149c0-1.954-1.583-3.537-3.537-3.537h-3.317v-9.773H473.794z M470.257,134.818h-3.317
	h-37.957h-4.315v-9.611h45.591L470.257,134.818L470.257,134.818z M45.925,61.769c13.754,5.327,43.555,16.342,59.547,18.263
	c13.085,1.571,70.387,1.701,123.069,1.701l23.214-0.002c18.539,0,37.532,0.014,48.304,0.17c10.665-0.157,29.655-0.17,48.193-0.17
	l23.213,0.002c52.682,0,109.983-0.131,123.072-1.701c15.987-1.919,45.786-12.935,59.54-18.262
	c-9.225,21.392-34.591,50.297-40.03,56.364h-40.252H421.13h-99.533h-43.185h-99.563h-52.672H85.956
	C80.516,112.068,55.149,83.169,45.925,61.769z M318.058,168.352h-36.108v-43.145h36.108V168.352z M129.714,125.207h45.598v9.611
	h-3.326h-37.958h-4.314V125.207z M137.565,141.892h30.884v9.773h-30.884V141.892L137.565,141.892z M129.714,158.74h4.314h37.958
	h3.326v9.609h-45.598V158.74z M178.849,151.666h-3.325v-9.773h3.325c1.953,0,3.537-1.583,3.537-3.537v-13.148h92.489v43.145h-92.489
	v-13.149C182.386,153.249,180.802,151.666,178.849,151.666z M227.34,540.83H78.658v-4.703h25.917h96.849h25.917V540.83
	L227.34,540.83z M197.886,529.053h-89.775v-4.689h8.242h73.291h8.242V529.053z M186.108,517.289h-66.217v-4.705h6.776h52.673h6.767
	V517.289z M175.803,505.51h-45.599V214.695h45.599V505.51z M521.804,540.83H373.122v-4.703h25.908h96.851h25.924L521.804,540.83
	L521.804,540.83z M492.342,529.053h-89.775v-4.689h8.24h73.294h8.24L492.342,529.053L492.342,529.053z M480.565,517.289h-66.219
	v-4.705h6.784h52.665h6.77V517.289z M470.257,505.51h-45.591V214.695h45.591V505.51z M521.342,207.621h-47.547H421.13h-241.79
	h-52.673H78.658v-32.194h199.754h43.183h199.746L521.342,207.621L521.342,207.621z M325.133,168.352v-43.145h92.458v13.148
	c0,1.954,1.584,3.537,3.538,3.537h4.315v9.773h-4.315c-1.954,0-3.538,1.583-3.538,3.537v13.149H325.133z M470.257,158.74v9.609
	h-45.591v-9.609h4.315h37.957H470.257z M463.403,151.666H432.52v-9.773h30.883V151.666z"/>
</svg>
