<?xml version="1.0" encoding="utf-8"?>
<!-- Generator: Adobe Illustrator 15.0.0, SVG Export Plug-In . SVG Version: 6.00 Build 0)  -->
<!DOCTYPE svg PUBLIC "-//W3C//DTD SVG 1.1//EN" "http://www.w3.org/Graphics/SVG/1.1/DTD/svg11.dtd">
<svg version="1.1" id="Capa_1" xmlns="http://www.w3.org/2000/svg" xmlns:xlink="http://www.w3.org/1999/xlink" x="0px" y="0px"
	 width="600px" height="600px" viewBox="0 0 600 600" enable-background="new 0 0 600 600" xml:space="preserve">
<path d="M409.502,559.092l-73.519-189.828v-26.697c0-1.945-1.575-3.521-3.521-3.521h-5.438l-7.222-127.6
	c5.255-2.303,8.937-7.548,8.937-13.644c0-7.511-5.595-13.725-12.832-14.737l-1.055-28.011c7.744-0.523,13.887-6.973,13.887-14.845
	c0-8.214-6.682-14.896-14.896-14.896h-2.572l-7.763-85.988c-0.163-1.814-1.685-3.204-3.505-3.204c-1.822,0-3.343,1.391-3.507,3.204
	l-7.758,85.988h-2.577c-8.214,0-14.897,6.683-14.897,14.896c0,7.873,6.143,14.322,13.885,14.845l-1.054,28.011
	c-7.237,1.012-12.831,7.225-12.831,14.737c0,6.094,3.682,11.339,8.936,13.643l-7.223,127.601h-5.433c-1.945,0-3.52,1.576-3.52,3.52
	v26.699L190.507,559.09c-0.418,1.084-0.277,2.303,0.378,3.26c0.657,0.957,1.743,1.531,2.904,1.531h36.392
	c1.945,0,3.521-1.576,3.521-3.521c0-31.572,22.219-57.162,52.613-63.139v63.139c0,1.945,1.576,3.521,3.52,3.521h20.339
	c1.943,0,3.521-1.576,3.521-3.521v-63.137c30.389,5.979,52.604,31.564,52.604,63.137c0,1.945,1.575,3.521,3.521,3.521h36.399
	c1.161,0,2.249-0.572,2.904-1.531C409.78,561.395,409.922,560.174,409.502,559.092z M292.192,155.105h15.618l1.048,27.798h-17.71
	L292.192,155.105z M300.003,78.805l4.198,46.507h-8.394L300.003,78.805z M278.305,140.209c0-4.332,3.523-7.856,7.856-7.856h5.793
	h16.099c0.01,0.001,0.02,0,0.024,0h5.766c4.331,0,7.855,3.524,7.855,7.856c0,4.332-3.524,7.856-7.855,7.856h-2.642h-22.398h-2.642
	C281.828,148.065,278.305,144.541,278.305,140.209z M286.161,189.945h1.33h25.021h0.023h1.308c4.331,0,7.855,3.524,7.855,7.856
	c0,4.332-3.524,7.856-7.855,7.856h-27.682c-4.332,0-7.856-3.523-7.856-7.856C278.305,193.469,281.828,189.945,286.161,189.945z
	 M287.181,212.698h25.642l7.151,126.347H280.03L287.181,212.698z M271.065,346.086h5.239h47.395c0.009,0,0.019,0,0.023,0h5.222
	V366.4h-18.771h-20.339h-18.77L271.065,346.086L271.065,346.086z M313.694,461.832h15.562l3.337,11.482
	c-5.973-2.84-12.329-4.844-18.897-6.02L313.694,461.832L313.694,461.832z M313.694,426.244h9.197l4.849,16.686h-14.046V426.244z
	 M313.694,391.459h5.154l2.303,15.852h-7.456L313.694,391.459L313.694,391.459z M226.743,556.842h-27.816l71.029-183.4h16.358
	v10.977h-8.205c-1.749,0-3.231,1.283-3.483,3.014l-3.326,22.891c-0.146,1.014,0.153,2.037,0.822,2.812
	c0.668,0.771,1.639,1.215,2.662,1.215h11.53v5.688h-11.53c-1.38,0-2.594,0.912-2.979,2.236l-6.652,22.895
	c-0.273,0.938-0.088,1.947,0.497,2.729c0.587,0.779,1.506,1.24,2.482,1.24h18.183v5.719H268.13c-1.552,0-2.917,1.025-3.35,2.516
	l-6.413,22.07c-0.403,1.393,0.093,2.887,1.249,3.758c1.155,0.873,2.729,0.939,3.958,0.17c6.941-4.365,14.643-7.396,22.74-9.004
	v15.701C253.094,495.949,228.353,522.955,226.743,556.842z M286.315,391.459v15.852h-7.462l2.303-15.852H286.315z M286.315,426.244
	v16.686h-14.049l4.848-16.686H286.315z M286.315,461.832v5.459c-6.572,1.176-12.928,3.18-18.901,6.02l3.337-11.479H286.315z
	 M306.653,556.842h-13.298v-183.4h13.298V556.842z M373.255,556.842c-1.609-33.883-26.347-60.889-59.562-66.775v-15.699
	c8.095,1.607,15.797,4.639,22.738,9.006c0.568,0.357,1.214,0.535,1.857,0.535c0.741,0,1.48-0.236,2.101-0.705
	c1.155-0.871,1.652-2.367,1.248-3.758l-6.416-22.074c-0.434-1.49-1.798-2.516-3.35-2.516h-18.179v-5.719h18.179
	c0.01,0.002,0.019,0.002,0.023,0c1.715,0,3.104-1.391,3.104-3.104c0-0.436-0.088-0.85-0.251-1.225l-6.549-22.535
	c-0.385-1.324-1.599-2.236-2.979-2.236h-11.525v-5.688h11.525c0.011,0,0.02,0.002,0.024,0c1.944,0,3.52-1.576,3.52-3.52
	c0-0.316-0.041-0.621-0.119-0.908l-3.267-22.49c-0.252-1.73-1.736-3.014-3.484-3.014h-8.199v-10.977h16.356l71.03,183.4H373.255
	L373.255,556.842z"/>
</svg>
