<?xml version="1.0" encoding="utf-8"?>
<!-- Generator: Adobe Illustrator 15.0.0, SVG Export Plug-In . SVG Version: 6.00 Build 0)  -->
<!DOCTYPE svg PUBLIC "-//W3C//DTD SVG 1.1//EN" "http://www.w3.org/Graphics/SVG/1.1/DTD/svg11.dtd">
<svg version="1.1" id="Capa_1" xmlns="http://www.w3.org/2000/svg" xmlns:xlink="http://www.w3.org/1999/xlink" x="0px" y="0px"
	 width="600px" height="600px" viewBox="0 0 600 600" enable-background="new 0 0 600 600" xml:space="preserve">
<path d="M531.52,235.912c2.015,0,3.646-1.632,3.646-3.646v-13.775c0-2.014-1.631-3.646-3.646-3.646h-82.136v-68.667
	c0-15.189-12.357-27.547-27.547-27.547c-15.188,0-27.546,12.357-27.546,27.547v68.667h-54.063v-62.914
	c0-20.952-16.104-38.205-36.58-40.055V72.453c8.759-1.706,15.394-9.43,15.394-18.681c0-10.499-8.541-19.04-19.041-19.04
	c-10.496,0-19.038,8.541-19.038,19.04c0,9.251,6.634,16.975,15.393,18.681v39.424c-20.478,1.85-36.581,19.103-36.581,40.055v62.914
	h-54.062v-68.667c0-15.189-12.358-27.547-27.548-27.547c-15.19,0-27.548,12.357-27.548,27.547v68.667H68.48
	c-2.014,0-3.646,1.632-3.646,3.646v13.775c0,2.014,1.633,3.646,3.646,3.646h18.837v24.189H68.48c-2.014,0-3.646,1.633-3.646,3.646
	v59.785v218.646v19.444c0,2.012,1.633,3.645,3.646,3.645h463.041c2.015,0,3.646-1.633,3.646-3.645v-19.444V323.532v-59.786
	c0-2.013-1.632-3.646-3.646-3.646h-18.837v-24.189L531.52,235.912L531.52,235.912z M401.582,146.181
	c0-11.169,9.087-20.256,20.255-20.256c11.17,0,20.256,9.087,20.256,20.256v68.665h-40.511V146.181z M288.252,53.772
	c0-6.479,5.27-11.748,11.748-11.748c6.478,0,11.748,5.27,11.748,11.748S306.478,65.521,300,65.521
	C293.522,65.521,288.252,60.251,288.252,53.772z M267.065,151.932c0-18.16,14.774-32.937,32.936-32.937
	c18.159,0,32.934,14.776,32.934,32.937v62.912h-65.87L267.065,151.932L267.065,151.932z M157.907,146.181
	c0-11.169,9.087-20.256,20.255-20.256c11.169,0,20.256,9.087,20.256,20.256v68.665h-40.511V146.181L157.907,146.181z
	 M72.124,222.138h455.751v6.481h-18.838H90.961H72.124V222.138z M130.461,327.179v211.353h-19.445V327.179H130.461z
	 M196.089,327.179v211.353h-19.445V327.179H196.089z M357.728,327.179v211.353H242.272V327.179H357.728z M423.356,327.179v211.353
	h-19.443V327.179H423.356z M488.985,327.179v211.353h-19.445V327.179H488.985z M527.875,538.531h-31.6V327.179h31.6V538.531z
	 M462.246,538.531h-31.6V327.179h31.6V538.531z M396.618,538.531h-31.6V327.179h31.6V538.531z M234.98,538.531h-31.598V327.179
	h31.598V538.531z M169.352,538.531h-31.599V327.179h31.599V538.531z M103.724,538.531H72.125V327.179h31.599V538.531z
	 M527.875,557.976H72.124v-12.153h35.244h26.737h38.891h26.738h38.89h122.749h38.891h26.737h38.891h26.737h35.246V557.976z
	 M527.875,319.888h-35.246h-26.737h-38.891h-26.737h-38.89h-122.75h-38.889h-26.737h-38.891H107.37H72.125v-52.494h18.838h418.075
	h18.839v52.494H527.875z M505.391,260.102H94.608v-24.189h410.783V260.102z"/>
</svg>
