<?xml version="1.0" encoding="utf-8"?>
<!-- Generator: Adobe Illustrator 15.0.0, SVG Export Plug-In . SVG Version: 6.00 Build 0)  -->
<!DOCTYPE svg PUBLIC "-//W3C//DTD SVG 1.1//EN" "http://www.w3.org/Graphics/SVG/1.1/DTD/svg11.dtd">
<svg version="1.1" id="Capa_1" xmlns="http://www.w3.org/2000/svg" xmlns:xlink="http://www.w3.org/1999/xlink" x="0px" y="0px"
	 width="600px" height="600px" viewBox="0 0 600 600" enable-background="new 0 0 600 600" xml:space="preserve">
<path d="M425.102,481.441h-12.096c-0.607-64.469-12.01-124.631-33.977-178.873c-18.088-44.664-43.307-85.428-74.969-121.16
	c-47.173-53.246-93.797-78.91-106.272-85.21V68.3c0-2.997-2.428-5.425-5.425-5.425c-2.995,0-5.425,2.428-5.425,5.425v31.292v0.253
	v16.017v365.58h-12.037c-15.352,0-27.843,12.49-27.843,27.844c0,15.35,12.491,27.84,27.843,27.84h250.201
	c15.352,0,27.84-12.49,27.84-27.84C452.942,493.932,440.451,481.441,425.102,481.441z M296.279,188.987
	c47.728,54.006,104.466,148.409,105.866,292.454h-75.486c-0.881-146.973-35.731-243.468-65.047-298.723
	c-13.411-25.276-26.774-44.368-37.939-58.156C243.6,138.226,270.027,159.281,296.279,188.987z M197.788,460.473h37.755
	c2.997,0,5.425-2.43,5.425-5.426s-2.428-5.426-5.425-5.426h-37.755v-14.18h37.755c2.997,0,5.425-2.43,5.425-5.426
	c0-2.998-2.428-5.426-5.425-5.426h-37.755v-14.184h37.755c2.997,0,5.425-2.428,5.425-5.426c0-2.994-2.428-5.424-5.425-5.424h-37.755
	v-14.182h37.755c2.997,0,5.425-2.428,5.425-5.426c0-2.996-2.428-5.424-5.425-5.424h-37.755v-14.184h37.755
	c2.997,0,5.425-2.428,5.425-5.426c0-2.996-2.428-5.424-5.425-5.424h-37.755v-14.184h37.755c2.997,0,5.425-2.428,5.425-5.424
	s-2.428-5.426-5.425-5.426h-37.755v-14.181h37.755c2.997,0,5.425-2.429,5.425-5.425c0-2.998-2.428-5.426-5.425-5.426h-37.755
	v-14.182h37.755c2.997,0,5.425-2.428,5.425-5.425c0-2.996-2.428-5.425-5.425-5.425h-37.755v-14.181h37.755
	c2.997,0,5.425-2.429,5.425-5.425c0-2.997-2.428-5.425-5.425-5.425h-37.755v-14.182h37.755c2.997,0,5.425-2.428,5.425-5.425
	c0-2.996-2.428-5.425-5.425-5.425h-37.755v-14.181h37.755c2.997,0,5.425-2.429,5.425-5.425c0-2.997-2.428-5.425-5.425-5.425h-37.755
	v-14.182h37.755c2.997,0,5.425-2.428,5.425-5.425c0-2.996-2.428-5.425-5.425-5.425h-37.755v-58.407v-3.805
	c11.532,11.368,32.894,35.512,54.241,75.747c28.742,54.17,62.902,148.904,63.781,293.638H197.788V460.473L197.788,460.473z
	 M425.102,526.277H174.899c-9.369,0-16.991-7.623-16.991-16.992s7.622-16.992,16.991-16.992h15.914
	c0.495,0.148,1.008,0.254,1.55,0.254c0.542,0,1.056-0.105,1.553-0.254h125.807c0.496,0.148,1.012,0.254,1.553,0.254
	c0.543,0,1.059-0.105,1.551-0.254H425.1c9.369,0,16.99,7.623,16.99,16.992S434.471,526.277,425.102,526.277z"/>
</svg>
