<?xml version="1.0" encoding="utf-8"?>
<!-- Generator: Adobe Illustrator 15.0.0, SVG Export Plug-In . SVG Version: 6.00 Build 0)  -->
<!DOCTYPE svg PUBLIC "-//W3C//DTD SVG 1.1//EN" "http://www.w3.org/Graphics/SVG/1.1/DTD/svg11.dtd">
<svg version="1.1" id="Capa_1" xmlns="http://www.w3.org/2000/svg" xmlns:xlink="http://www.w3.org/1999/xlink" x="0px" y="0px"
	 width="600px" height="600px" viewBox="0 0 600 600" enable-background="new 0 0 600 600" xml:space="preserve">
<path fill="#222221" d="M534.969,396.606h-43.798c-3.484-5.428-12.075-23.395,11.242-42.497c1.489-1.22,2.03-3.257,1.344-5.057
	c-0.687-1.802-2.46-2.972-4.371-2.879c-1.507,0.062-35.461,1.841-54.741,31.744c-1.5-1.134-3.082-2.214-4.709-3.244
	c-3.869-30.129-5.521-80.096,19.077-110.018c1.139-1.384,1.34-3.312,0.517-4.903c-0.824-1.591-2.515-2.543-4.306-2.405
	c-1.247,0.093-30.937,2.479-61.795,21.326c-6.546,3.999-13.414,8.958-20.156,15.035c-4.034-8.763-8.521-17.181-13.518-25.195
	c-18.292-29.346-42.981-53.641-73.383-72.208c-51.662-31.551-101.243-35.537-103.327-35.69c-1.805-0.145-3.534,0.845-4.343,2.479
	c-0.809,1.632-0.548,3.592,0.662,4.956c18.369,20.731,27.369,53.002,31.184,86.959c-0.046-0.028-0.092-0.058-0.137-0.085
	c-36.857-22.51-72.281-25.357-73.771-25.468c-1.793-0.142-3.48,0.813-4.307,2.404c-0.824,1.591-0.623,3.52,0.517,4.904
	c20.643,25.111,25.981,61.898,25.76,94.196c-20.806-9.95-43.931-11.781-58.014-11.781c-9.709,0-16.053,0.818-16.321,0.854
	c-1.628,0.216-3.01,1.303-3.597,2.838c-0.589,1.534-0.287,3.266,0.781,4.514c31.862,37.174,35.576,60.823,35.714,69.218H65.03
	c-2.473,0-4.477,2.005-4.477,4.477v33.839c0,2.472,2.004,4.477,4.477,4.477h469.934c2.474,0,4.478-2.005,4.478-4.477V401.08
	C539.446,398.61,537.442,396.606,534.969,396.606z M446.501,389.175c1.382-0.217,2.581-1.066,3.244-2.297
	c9.565-17.724,25.288-25.591,36.554-29.061c-11.945,15.703-8.814,30.38-5.113,38.789h-45.475
	c-0.778-4.138-2.864-10.706-8.369-18.742c5.53,2.76,11.28,6.207,15.369,10.12C443.719,388.952,445.117,389.387,446.501,389.175z
	 M397.789,286.505c18.554-11.399,37.002-16.479,47.978-18.668c-18.823,30.397-18.725,72.49-15.6,101.441
	c-8.863-4.321-16.711-6.854-17.271-7.033c-1.989-0.633-4.159,0.192-5.219,1.996s-0.731,4.101,0.793,5.531
	c12.609,11.852,16.735,21.599,18.085,26.834h-28.953c-2.084-34.707-8.982-66.275-20.58-94.316
	C383.254,296.459,390.168,291.187,397.789,286.505z M281.707,203.948c65.611,40.072,101.583,104.879,106.957,192.658H214.298
	c4.668-28.615,23.238-161.251-21.309-225.646C210.142,173.808,245.707,181.963,281.707,203.948z M146.187,239.867
	c12.838,2.378,36.056,8.345,59.558,22.699c2.007,1.225,3.963,2.494,5.885,3.788c4.512,56.827-4.002,115.276-6.429,130.253h-44.665
	C165.324,374.302,179.85,291.804,146.187,239.867z M93.844,328.278c1.975-0.086,4.247-0.144,6.756-0.144
	c16.629,0,38.993,2.389,57.782,12.587c-1.051,26.04-5.276,47.79-7.032,55.885h-25.212
	C126.027,386.613,122.032,363.325,93.844,328.278z M530.491,430.441H69.511v-24.881h51.837h33.574h44.285h9.782h76.547h45.696
	h62.161h38.287h8.37h0.029h48.789h41.622V430.441L530.491,430.441z"/>
</svg>
