<?xml version="1.0" encoding="utf-8"?>
<!-- Generator: Adobe Illustrator 15.0.0, SVG Export Plug-In . SVG Version: 6.00 Build 0)  -->
<!DOCTYPE svg PUBLIC "-//W3C//DTD SVG 1.1//EN" "http://www.w3.org/Graphics/SVG/1.1/DTD/svg11.dtd">
<svg version="1.1" id="Capa_1" xmlns="http://www.w3.org/2000/svg" xmlns:xlink="http://www.w3.org/1999/xlink" x="0px" y="0px"
	 width="600px" height="600px" viewBox="0 0 600 600" enable-background="new 0 0 600 600" xml:space="preserve">
<g>
	<path d="M396.635,376.676h21.59c1.705,0,3.084-1.381,3.084-3.086v-52.429c0-1.705-1.379-3.086-3.084-3.086h-21.59
		c-1.703,0-3.083,1.381-3.083,3.086v52.429C393.552,375.294,394.932,376.676,396.635,376.676z M399.719,324.244h15.42v46.263h-15.42
		V324.244z"/>
	<path d="M432.617,376.676h21.589c1.704,0,3.083-1.381,3.083-3.086v-52.429c0-1.705-1.379-3.086-3.083-3.086h-21.589
		c-1.706,0-3.085,1.381-3.085,3.086v52.429C429.532,375.294,430.911,376.676,432.617,376.676z M435.701,324.244h15.421v46.263
		h-15.421V324.244z"/>
	<path d="M468.599,376.676h21.588c1.705,0,3.085-1.381,3.085-3.086v-52.429c0-1.705-1.38-3.086-3.085-3.086h-21.588
		c-1.705,0-3.085,1.381-3.085,3.086v52.429C465.514,375.294,466.894,376.676,468.599,376.676z M471.682,324.244h15.422v46.263
		h-15.422V324.244z"/>
	<path d="M504.579,376.676h21.59c1.702,0,3.083-1.381,3.083-3.086v-52.429c0-1.705-1.381-3.086-3.083-3.086h-21.59
		c-1.704,0-3.083,1.381-3.083,3.086v52.429C501.496,375.294,502.875,376.676,504.579,376.676z M507.664,324.244h15.42v46.263h-15.42
		V324.244z"/>
	<path d="M90.623,318.077H69.035c-1.703,0-3.083,1.38-3.083,3.084v52.43c0,1.707,1.382,3.086,3.083,3.086h21.588
		c1.704,0,3.085-1.379,3.085-3.086v-52.43C93.709,319.457,92.327,318.077,90.623,318.077z M87.54,370.507h-15.42v-46.263h15.419
		L87.54,370.507L87.54,370.507z"/>
	<path d="M126.605,318.077h-21.588c-1.703,0-3.083,1.38-3.083,3.084v52.43c0,1.707,1.382,3.086,3.083,3.086h21.588
		c1.704,0,3.086-1.379,3.086-3.086v-52.43C129.689,319.457,128.309,318.077,126.605,318.077z M123.52,370.507h-15.419v-46.263
		h15.419V370.507z"/>
	<path d="M162.587,318.077h-21.588c-1.703,0-3.084,1.38-3.084,3.084v52.43c0,1.707,1.382,3.086,3.084,3.086h21.588
		c1.704,0,3.084-1.379,3.084-3.086v-52.43C165.671,319.457,164.29,318.077,162.587,318.077z M159.502,370.507h-15.419v-46.263
		h15.419V370.507z"/>
	<path d="M198.567,318.077h-21.588c-1.703,0-3.084,1.38-3.084,3.084v52.43c0,1.707,1.381,3.086,3.084,3.086h21.588
		c1.704,0,3.084-1.379,3.084-3.086v-52.43C201.652,319.457,200.271,318.077,198.567,318.077z M195.484,370.507h-15.42v-46.263h15.42
		V370.507z"/>
	<path d="M556.153,295.458h-181.62v-13.365c0-1.703-1.381-3.083-3.085-3.083h-14.393v-35.98c0-1.704-1.38-3.084-3.084-3.084h-1.586
		c-1.405-24.127-19.188-43.926-42.362-48.427v-15.311c0-1.704-1.38-3.085-3.084-3.085h-3.855v-19.02c0-1.703-1.38-3.083-3.084-3.083
		s-3.085,1.382-3.085,3.083v19.02h-3.854c-1.704,0-3.084,1.381-3.084,3.085v15.311c-23.176,4.502-40.957,24.3-42.363,48.427h-1.585
		c-1.703,0-3.083,1.38-3.083,3.084v35.982h-14.393c-1.703,0-3.084,1.381-3.084,3.083v13.365H43.848
		c-1.703,0-3.084,1.382-3.084,3.084v147.351c0,1.705,1.381,3.086,3.084,3.086H218.1h10.452h142.897H381.9h174.253
		c1.703,0,3.084-1.381,3.084-3.086V298.543C559.237,296.84,557.855,295.458,556.153,295.458z M378.816,442.812H221.184v-14.735
		h157.631V442.812z M296.145,179.291h7.709v11.419c-1.273-0.094-2.556-0.155-3.854-0.155c-1.299,0-2.58,0.062-3.856,0.155V179.291z
		 M249.112,246.113h1.497c1.703,0,3.084-1.381,3.084-3.083c0-24.241,18.725-44.176,42.467-46.135h7.677
		c23.743,1.958,42.469,21.894,42.469,46.135c0,1.704,1.381,3.083,3.084,3.083h1.498v32.897H249.112V246.113L249.112,246.113z
		 M231.635,285.179h14.393h107.944h14.393v13.364v123.364H231.635V298.543V285.179z M46.933,301.629h178.534v120.278H218.1
		c-1.703,0-3.083,1.381-3.083,3.086v17.818H46.933V301.629L46.933,301.629z M553.068,442.812H384.984v-17.818
		c0-1.706-1.38-3.087-3.085-3.087h-7.366V301.629h178.535V442.812L553.068,442.812z"/>
	<path d="M275.842,248.684h-8.739c-1.703,0-3.083,1.382-3.083,3.085v20.561c0,1.704,1.381,3.085,3.083,3.085h8.739
		c1.703,0,3.083-1.381,3.083-3.085v-20.561C278.926,250.064,277.544,248.684,275.842,248.684z M272.757,269.245h-2.571v-14.392
		h2.571V269.245z"/>
	<path d="M294.86,248.684h-8.738c-1.703,0-3.083,1.382-3.083,3.085v20.561c0,1.704,1.381,3.085,3.083,3.085h8.738
		c1.703,0,3.083-1.381,3.083-3.085v-20.561C297.944,250.064,296.563,248.684,294.86,248.684z M291.776,269.245h-2.571v-14.392h2.571
		V269.245z"/>
	<path d="M313.879,248.684h-8.739c-1.704,0-3.084,1.382-3.084,3.085v20.561c0,1.704,1.38,3.085,3.084,3.085h8.739
		c1.704,0,3.084-1.381,3.084-3.085v-20.561C316.963,250.064,315.581,248.684,313.879,248.684z M310.794,269.245h-2.569v-14.392
		h2.569V269.245z"/>
	<path d="M332.898,248.684h-8.737c-1.705,0-3.086,1.382-3.086,3.085v20.561c0,1.704,1.381,3.085,3.086,3.085h8.737
		c1.705,0,3.084-1.381,3.084-3.085v-20.561C335.981,250.064,334.602,248.684,332.898,248.684z M329.813,269.245h-2.569v-14.392
		h2.569V269.245z"/>
	<path d="M257.851,409.915c6.613,0,11.993-5.38,11.993-11.995v-86.354c0-6.612-5.379-11.994-11.993-11.994
		c-6.614,0-11.994,5.381-11.994,11.994v86.354C245.857,404.535,251.237,409.915,257.851,409.915z M252.025,311.565
		c0-3.212,2.614-5.825,5.826-5.825c3.212,0,5.825,2.613,5.825,5.825v86.354c0,3.214-2.613,5.825-5.825,5.825
		c-3.213,0-5.826-2.611-5.826-5.825V311.565z"/>
	<path d="M285.951,409.915c6.612,0,11.994-5.38,11.994-11.995v-86.354c0-6.612-5.379-11.994-11.994-11.994
		c-6.614,0-11.993,5.381-11.993,11.994v86.354C273.956,404.535,279.337,409.915,285.951,409.915z M280.124,311.565
		c0-3.212,2.614-5.825,5.826-5.825s5.826,2.613,5.826,5.825v86.354c0,3.214-2.614,5.825-5.826,5.825
		c-3.213,0-5.826-2.611-5.826-5.825V311.565z"/>
	<path d="M314.049,409.915c6.613,0,11.995-5.38,11.995-11.995v-86.354c0-6.612-5.38-11.994-11.995-11.994
		c-6.613,0-11.994,5.381-11.994,11.994v86.354C302.056,404.535,307.436,409.915,314.049,409.915z M308.225,311.565
		c0-3.212,2.611-5.825,5.824-5.825c3.211,0,5.825,2.613,5.825,5.825v86.354c0,3.214-2.614,5.825-5.825,5.825
		c-3.213,0-5.824-2.611-5.824-5.825V311.565z"/>
	<path d="M342.151,409.915c6.612,0,11.993-5.38,11.993-11.995v-86.354c0-6.612-5.38-11.994-11.993-11.994
		c-6.614,0-11.995,5.381-11.995,11.994v86.354C330.156,404.535,335.535,409.915,342.151,409.915z M336.323,311.565
		c0-3.212,2.613-5.825,5.826-5.825c3.211,0,5.825,2.613,5.825,5.825v86.354c0,3.214-2.614,5.825-5.825,5.825
		c-3.213,0-5.826-2.611-5.826-5.825V311.565z"/>
</g>
</svg>
