<?xml version="1.0" encoding="utf-8"?>
<!-- Generator: Adobe Illustrator 15.0.0, SVG Export Plug-In . SVG Version: 6.00 Build 0)  -->
<!DOCTYPE svg PUBLIC "-//W3C//DTD SVG 1.1//EN" "http://www.w3.org/Graphics/SVG/1.1/DTD/svg11.dtd">
<svg version="1.1" id="Capa_1" xmlns="http://www.w3.org/2000/svg" xmlns:xlink="http://www.w3.org/1999/xlink" x="0px" y="0px"
	 width="600px" height="600px" viewBox="0 0 600 600" enable-background="new 0 0 600 600" xml:space="preserve">
<path d="M530.006,160.973c-0.57-1.835-2.266-3.086-4.188-3.086h-40.927H361.257h-25.69v-28.928c0-2.42-1.964-4.384-4.386-4.384
	h-1.219V70.072c0-2.42-1.962-4.385-4.386-4.385h-51.155c-2.42,0-4.384,1.964-4.384,4.385v54.503h-1.217
	c-2.422,0-4.387,1.963-4.387,4.384v28.928h-25.689H115.106H74.182c-1.921,0-3.619,1.25-4.188,3.086
	c-0.568,1.834,0.123,3.828,1.708,4.913l39.022,26.79v7.803c0,2.178,1.597,4.025,3.752,4.339l119.884,17.437v222.229h-16.208
	c-2.038,0-3.804,1.401-4.269,3.386l-19.002,81.057c-0.304,1.305,0.001,2.675,0.834,3.726c0.832,1.047,2.098,1.661,3.436,1.661
	h201.701c1.338,0,2.604-0.614,3.436-1.661c0.833-1.049,1.139-2.421,0.833-3.726l-19-81.057c-0.466-1.981-2.233-3.386-4.268-3.386
	h-16.21v-14.606c0.361-0.977,0.361-2.054,0-3.031V222.257l119.884-17.438c2.156-0.313,3.754-2.161,3.754-4.339v-7.803l39.022-26.79
	C529.883,164.801,530.574,162.808,530.006,160.973z M326.795,133.345v21.681h-53.591v-21.681h1.217h51.155H326.795z M278.807,74.457
	h42.388v50.119h-42.388V74.457z M356.871,218.462v199.036L243.129,303.756v-85.293v-51.805h113.742V218.462z M88.316,166.657h22.408
	v15.382L88.316,166.657z M119.492,196.686v-6.318v-23.71H234.36v46.737L119.492,196.686z M395.321,525.543H204.68l16.945-72.287
	h17.118h122.511h17.119L395.321,525.543z M243.129,444.486v-128.33l113.742,113.742v14.588H243.129z M480.509,196.686
	l-114.866,16.709v-46.737h114.866v23.71V196.686z M489.279,182.038v-15.382h22.406L489.279,182.038z"/>
</svg>
