<?xml version="1.0" encoding="utf-8"?>
<!-- Generator: Adobe Illustrator 15.0.0, SVG Export Plug-In . SVG Version: 6.00 Build 0)  -->
<!DOCTYPE svg PUBLIC "-//W3C//DTD SVG 1.1//EN" "http://www.w3.org/Graphics/SVG/1.1/DTD/svg11.dtd">
<svg version="1.1" id="Capa_1" xmlns="http://www.w3.org/2000/svg" xmlns:xlink="http://www.w3.org/1999/xlink" x="0px" y="0px"
	 width="600px" height="600px" viewBox="0 0 600 600" enable-background="new 0 0 600 600" xml:space="preserve">
<g>
	<path fill="#222221" d="M182.323,216.185c-8.04,0-14.582,6.542-14.582,14.583v33.426c0,2.032,1.646,3.678,3.678,3.678h21.809
		c2.031,0,3.678-1.646,3.678-3.678v-33.426C196.906,222.728,190.365,216.185,182.323,216.185z M189.55,260.516h-14.453v-29.748
		c0-3.984,3.241-7.226,7.226-7.226c3.985,0,7.227,3.242,7.227,7.226V260.516z"/>
	<path fill="#222221" d="M417.677,216.185c-8.041,0-14.583,6.542-14.583,14.583v33.426c0,2.032,1.646,3.678,3.678,3.678h21.809
		c2.031,0,3.679-1.646,3.679-3.678v-33.426C432.259,222.728,425.717,216.185,417.677,216.185z M424.903,260.516h-14.453v-29.748
		c0-3.984,3.243-7.226,7.228-7.226s7.227,3.242,7.227,7.226L424.903,260.516L424.903,260.516z"/>
	<path fill="#222221" d="M583.801,359.221H546.29v-73.653c13.028,3.614,25.87,5.604,37.511,5.604c2.031,0,3.678-1.646,3.678-3.678
		c0-2.031-1.646-3.678-3.678-3.678c-12.416,0-26.295-2.399-40.278-6.708c-0.061-0.015-0.114-0.041-0.174-0.053
		c-15.489-4.792-31.1-11.929-44.992-20.868c-17.12-11.018-45.842-34.116-45.842-65.027V174.17c0-0.419-0.072-0.835-0.212-1.229
		l-6.994-19.717c-0.521-1.47-1.91-2.448-3.466-2.448c-0.018,0-0.037,0-0.057,0c-1.577,0.024-2.964,1.052-3.445,2.554l-5.504,17.162
		h-3.009l-8.918-35.924c-0.408-1.642-1.88-2.792-3.57-2.792c-0.01,0-0.021,0-0.028,0c-1.701,0.014-3.172,1.193-3.554,2.851
		l-8.281,35.865h-3.044l-6.125-17.268c-0.521-1.469-1.912-2.448-3.467-2.448c-0.018,0-0.037,0-0.056,0
		c-1.578,0.024-2.965,1.052-3.447,2.554l-6.322,19.717c-0.117,0.363-0.177,0.742-0.177,1.123v36.396H217.163v-36.396
		c0-0.419-0.072-0.835-0.21-1.229l-6.994-19.717c-0.528-1.488-1.96-2.525-3.523-2.449c-1.578,0.024-2.963,1.052-3.446,2.554
		l-5.505,17.162h-3.01l-8.917-35.924c-0.41-1.651-1.953-2.812-3.599-2.792c-1.702,0.015-3.17,1.193-3.554,2.851l-8.282,35.865
		h-3.045l-6.125-17.267c-0.527-1.487-1.94-2.525-3.522-2.449c-1.578,0.024-2.965,1.052-3.447,2.554l-6.322,19.717
		c-0.117,0.363-0.177,0.742-0.177,1.123v16.989c0,30.909-28.721,54.007-45.842,65.026c-13.891,8.938-29.501,16.078-44.991,20.868
		c-0.083,0.017-0.159,0.052-0.242,0.073c-13.96,4.296-27.814,6.688-40.21,6.688c-2.032,0-3.678,1.647-3.678,3.678
		c0,2.032,1.646,3.678,3.678,3.678c11.64,0,24.481-1.99,37.51-5.604v73.653H16.2c-2.03,0-3.678,1.647-3.678,3.678v17.623
		c0,2.032,1.648,3.679,3.678,3.679h120.434v80.345c0,2.031,1.646,3.678,3.678,3.678h84.023c2.031,0,3.678-1.646,3.678-3.678v-49.954
		L300,384.508l71.987,30.084v49.953c0,2.032,1.646,3.678,3.679,3.678h84.021c2.031,0,3.678-1.646,3.678-3.678V384.2h120.434
		c2.032,0,3.679-1.646,3.679-3.678v-17.623C587.479,360.868,585.832,359.221,583.801,359.221z M538.934,283.374v75.847h-41.388
		v-94.888C510.478,272.276,524.698,278.774,538.934,283.374z M490.19,259.582v99.642h-37.675V219.796
		C459.88,234.01,472.647,247.568,490.19,259.582z M390.196,376.844v-7.4V231.788v-17.543v-19.406h54.964v168.061v13.944H390.196
		L390.196,376.844z M375.666,376.844h-75.642c-0.006,0-0.012,0-0.018,0h-0.008c-0.009,0-0.019,0-0.027,0h-75.634h-7.173v-3.722
		h165.676v3.722H375.666z M281.661,384.2l-43.766,18.291V384.2H281.661z M362.106,384.2v18.291L318.342,384.2H362.106z
		 M154.841,376.844v-13.944V194.839h54.966v19.406v17.543v137.655v7.4H154.841z M382.839,365.766H217.163v-130.3h165.676V365.766
		L382.839,365.766z M393.015,165.952l3.352,9.449c0.521,1.467,1.908,2.448,3.466,2.448h8.569c1.711,0,3.196-1.182,3.583-2.851
		l5.485-23.754l5.912,23.813c0.407,1.641,1.878,2.792,3.569,2.792h8.567c1.6,0,3.014-1.033,3.502-2.555l2.997-9.342l3.14,8.852
		v12.68h-54.965v-12.738L393.015,165.952z M382.839,217.923v10.187H217.163v-10.187H382.839z M157.661,165.952l3.351,9.449
		c0.521,1.467,1.91,2.448,3.467,2.448h8.57c1.712,0,3.198-1.182,3.583-2.851l5.486-23.756l5.911,23.814
		c0.407,1.641,1.879,2.792,3.57,2.792h8.569c1.598,0,3.014-1.033,3.501-2.555l2.997-9.342l3.14,8.852v12.68h-54.966v-12.738
		L157.661,165.952z M147.485,219.796v139.428h-37.673v-99.641C127.354,247.568,140.12,234.01,147.485,219.796z M61.067,283.375
		c14.236-4.6,28.456-11.098,41.389-19.042v94.89H61.067V283.375z M19.878,366.577h127.607v10.267h-7.173H19.878V366.577z
		 M220.656,460.868H143.99v-76.667h7.173h62.322h7.173v27.943v48.724H220.656z M228.013,384.2h2.526v21.363l-2.526,1.057V384.2z
		 M369.461,405.563V384.2h2.528v22.42L369.461,405.563z M456.009,460.868h-76.665v-48.724v-27.943h7.173h62.321h7.173v76.667
		H456.009z M580.122,376.844H459.689h-7.173v-10.267h127.606V376.844z"/>
</g>
</svg>
