<?xml version="1.0" encoding="utf-8"?>
<!-- Generator: Adobe Illustrator 15.0.0, SVG Export Plug-In . SVG Version: 6.00 Build 0)  -->
<!DOCTYPE svg PUBLIC "-//W3C//DTD SVG 1.1//EN" "http://www.w3.org/Graphics/SVG/1.1/DTD/svg11.dtd">
<svg version="1.1" id="Capa_1" xmlns="http://www.w3.org/2000/svg" xmlns:xlink="http://www.w3.org/1999/xlink" x="0px" y="0px"
	 width="600px" height="600px" viewBox="0 0 600 600" enable-background="new 0 0 600 600" xml:space="preserve">
<path fill="#222221" d="M477.609,491.477h-31.44V417.28c9.59-5.109,44.423-24.88,44.025-42.203
	c-0.137-6.098-4.169-10.994-11.983-14.549c-13.599-6.192-31.865-11.909-52.41-16.737v-32.026
	c9.629-5.122,38.074-21.532,37.734-36.501c-0.124-5.444-3.684-9.797-10.578-12.935c-15.694-7.145-38.611-13.562-63.803-18.361
	v-33.204c7.373-3.98,26.657-15.438,26.409-26.23c-0.066-2.934-1.515-7.055-8.045-10.028c-12.859-5.854-32.603-11.011-53.729-14.488
	c-16.569-8.978-38.696-24.082-46.986-43.89c2.925-2.146,4.837-5.599,4.837-9.497v-6.622c0-0.258-0.01-0.516-0.03-0.776
	c2.572-2.853,4.015-6.557,4.015-10.446c0-8.614-7.008-15.624-15.624-15.624c-8.615,0-15.625,7.01-15.625,15.624
	c0,3.727,1.345,7.316,3.744,10.129c-0.033,0.364-0.05,0.73-0.05,1.094v6.622c0,3.863,1.875,7.289,4.756,9.439
	c-8.305,19.915-30.604,35.086-47.214,44.062c-22.23,3.271-43.837,8.187-54.102,14.602c-6.186,3.866-7.251,8.383-7.057,11.49
	c0.693,11.076,18.687,21.078,25.846,24.632v32.96c-27.013,4.554-51.832,10.847-64.459,18.74c-6.569,4.105-9.716,9.148-9.35,14.987
	c0.967,15.471,28.449,30.141,36.928,34.308v31.271c-22.448,4.759-41.805,10.657-52.963,17.631
	c-7.46,4.663-11.033,10.358-10.622,16.93c1.122,17.934,33.66,35.087,43.087,39.691v74.102h-30.925c-2.019,0-3.656,1.634-3.656,3.657
	v28.045c0,2.018,1.639,3.656,3.656,3.656h355.613c2.021,0,3.657-1.639,3.657-3.656v-28.045
	C481.268,493.112,479.632,491.477,477.609,491.477z M300.002,80.48c4.58,0,8.307,3.726,8.307,8.307c0,2.453-1.078,4.767-2.962,6.353
	c-1.081,0.912-1.54,2.365-1.181,3.731c0.105,0.398,0.157,0.77,0.157,1.138v6.622c0,2.466-2.005,4.471-4.471,4.471
	c-2.464,0-4.468-2.005-4.468-4.471v-6.622c0-0.417,0.062-0.841,0.185-1.259c0.397-1.358-0.023-2.824-1.08-3.763
	c-1.778-1.582-2.798-3.841-2.798-6.201C291.694,84.207,295.42,80.48,300.002,80.48z M299.802,118.495
	c6.595,16.265,21.114,29.356,35.358,38.946c-11.582-1.302-23.1-2.036-33.693-2.036c-9.274,0-22.892,0.817-37.565,2.402
	C278.321,148.183,293.126,134.966,299.802,118.495z M191.755,185.769c-0.039-0.609-0.154-2.463,3.633-4.83
	c18.083-11.302,78.958-18.219,106.079-18.219c35.046,0,80.297,8.104,103.021,18.447c1.697,0.772,3.729,2.012,3.762,3.536
	c0.099,4.203-9.071,11.766-19.095,17.664v-10.874c0-1.533-0.955-2.902-2.394-3.433c-1.533-0.564-38.107-13.841-87.09-13.88
	c-48.874,0.039-85.445,13.315-86.979,13.88c-1.438,0.529-2.393,1.899-2.393,3.433v11.111
	C201.572,197.8,192.068,190.764,191.755,185.769z M217.615,194.106c8.869-2.908,41.439-12.581,82.161-12.613
	c40.576,0.032,73.185,9.708,82.064,12.615v48.53c-26.488-4.64-54.896-7.461-79.744-7.461c-19.636,0-52.925,2.558-84.48,7.455
	V194.106L217.615,194.106z M143.792,277.087c-0.067-1.102-0.276-4.45,5.926-8.327c26.07-16.295,113.476-26.268,152.378-26.268
	c50.26,0,115.19,11.639,147.829,26.494c4.123,1.876,6.238,4.045,6.297,6.442c0.174,7.591-16.265,19.938-30.421,27.98v-18.245
	c0-1.532-0.953-2.902-2.394-3.433c-0.532-0.196-54.177-19.676-123.721-19.732c-0.001,0-0.153,0-0.153,0
	c-69.543,0.055-123.187,19.535-123.721,19.73c-1.438,0.529-2.394,1.901-2.394,3.433v18.492
	C160.568,296.905,144.328,285.645,143.792,277.087z M180.736,287.771c11.01-3.684,58.783-18.405,118.802-18.454l-0.003-3.658
	l0.146,3.658c59.953,0.048,107.783,14.773,118.805,18.456v54.363c-36.784-8.059-79.682-13.234-116.04-13.234
	c-27.809,0-79.109,4.396-121.709,12.732V287.771z M117.134,377.229c-0.233-3.736,2.121-7.096,7.197-10.271
	c30.511-19.069,132.662-30.741,178.113-30.741c58.71,0,134.587,13.604,172.736,30.971c5.041,2.292,7.633,5.005,7.702,8.056
	c0.221,9.727-20.598,24.678-36.714,33.706v-22.332c0-1.534-0.954-2.904-2.392-3.432c-0.623-0.23-63.112-22.922-144.232-22.986
	c-0.023,0-0.065,0-0.109,0c-81.024,0.067-143.499,22.756-144.121,22.986c-1.439,0.527-2.394,1.897-2.394,3.432v22.576
	C137.668,401.301,117.786,387.651,117.134,377.229z M160.237,389.217c12.062-4.065,68.345-21.645,139.247-21.705
	c0.048,0.003,0.097,0.003,0.144,0.003c70.817,0.058,127.153,17.64,139.222,21.705v102.258h-74.828v-65.843
	c0-2.021-1.639-3.657-3.659-3.657H340.04c-2.02,0-3.657,1.636-3.657,3.657v65.843h-12.597v-65.843c0-2.021-1.639-3.657-3.659-3.657
	h-40.643c-2.021,0-3.658,1.636-3.658,3.657v65.843h-12.598v-65.843c0-2.021-1.637-3.657-3.658-3.657h-20.322
	c-2.021,0-3.658,1.636-3.658,3.657v65.843h-75.35V389.217H160.237z M356.704,491.477h-13.006v-62.184h13.006V491.477z
	 M316.468,491.477h-33.33v-62.184h33.33V491.477z M255.908,491.477h-13.007v-62.184h13.007V491.477z M473.952,519.521H125.655
	v-20.729h30.923h82.666h20.322h19.915h40.643h19.915h20.322h82.146h31.442v20.729H473.952z"/>
</svg>
