<?xml version="1.0" encoding="utf-8"?>
<!-- Generator: Adobe Illustrator 15.0.0, SVG Export Plug-In . SVG Version: 6.00 Build 0)  -->
<!DOCTYPE svg PUBLIC "-//W3C//DTD SVG 1.1//EN" "http://www.w3.org/Graphics/SVG/1.1/DTD/svg11.dtd">
<svg version="1.1" id="Capa_1" xmlns="http://www.w3.org/2000/svg" xmlns:xlink="http://www.w3.org/1999/xlink" x="0px" y="0px"
	 width="600px" height="600px" viewBox="0 0 600 600" enable-background="new 0 0 600 600" xml:space="preserve">
<path fill="#222221" d="M564.448,268.735h-14.66v-7.894v-9.649c0-6.705-3.755-12.549-9.273-15.541v-6.391
	c0-4.628-3.766-8.395-8.395-8.395c-4.628,0-8.394,3.767-8.394,8.395v6.391c-5.519,2.992-9.275,8.835-9.275,15.541v6.266h-41.05
	v-6.266c0-6.705-3.754-12.549-9.272-15.541v-6.391c0-4.628-3.767-8.395-8.396-8.395c-4.63,0-8.396,3.767-8.396,8.395v6.391
	c-5.516,2.992-9.271,8.835-9.271,15.541v6.266h-59.182l-2.647-13.076c-0.32-1.578-1.705-2.713-3.315-2.713h-7.055
	c-4.531-25.711-23.694-46.052-48.114-52.81c0.733-1.27,1.159-2.739,1.159-4.308c0-4.774-3.884-8.658-8.658-8.658h-1.864v-4.266
	c0-4.628-3.766-8.393-8.395-8.393c-4.626,0-8.393,3.765-8.393,8.393v4.266h-1.863c-4.774,0-8.658,3.884-8.658,8.658
	c0,1.57,0.426,3.038,1.158,4.308c-24.42,6.76-43.583,27.099-48.116,52.81h-7.049c-1.609,0-2.996,1.133-3.317,2.713l-2.646,13.076
	H161.93v-6.266c0-6.705-3.754-12.549-9.272-15.541v-6.391c0-4.628-3.766-8.395-8.395-8.395c-4.629,0-8.395,3.767-8.395,8.395v6.391
	c-5.518,2.992-9.273,8.835-9.273,15.541v6.266h-41.05v-6.266c0-6.705-3.755-12.549-9.273-15.541v-6.391
	c0-4.628-3.765-8.395-8.395-8.395c-4.627,0-8.394,3.767-8.394,8.395v6.391c-5.518,2.992-9.274,8.835-9.274,15.541v9.649v7.894H35.55
	c-1.868,0-3.383,1.515-3.383,3.383v16.916c0,1.869,1.515,3.383,3.383,3.383h14.661v140.965c0,1.87,1.515,3.384,3.384,3.384h38.342
	c1.868,0,3.383-1.514,3.383-3.384v-67.662h32.704v67.662c0,1.87,1.515,3.384,3.383,3.384h46.237c1.867,0,3.382-1.514,3.382-3.384
	v-86.834c0-13.682,11.129-24.811,24.81-24.811s24.809,11.129,24.809,24.811v86.834c0,1.87,1.515,3.384,3.383,3.384h37.778
	c1.869,0,3.384-1.514,3.384-3.384v-86.834c0-13.682,11.129-24.811,24.809-24.811c13.68,0,24.811,11.129,24.811,24.811v86.834
	c0,1.87,1.514,3.384,3.383,3.384h37.778c1.87,0,3.384-1.514,3.384-3.384v-86.834c0-13.682,11.129-24.811,24.81-24.811
	c13.68,0,24.812,11.129,24.812,24.811v86.834c0,1.87,1.514,3.384,3.383,3.384h46.236c1.869,0,3.383-1.514,3.383-3.384v-67.662
	h32.704v67.662c0,1.87,1.514,3.384,3.384,3.384h38.344c1.868,0,3.383-1.514,3.383-3.384V292.416h14.66
	c1.869,0,3.384-1.514,3.384-3.383v-16.916C567.831,270.25,566.318,268.735,564.448,268.735z M530.493,229.259
	c0-0.897,0.729-1.628,1.628-1.628c0.899,0,1.63,0.73,1.63,1.628v4.266h-3.257L530.493,229.259L530.493,229.259z M521.22,251.191
	c0-6.012,4.891-10.9,10.901-10.9c6.01,0,10.9,4.89,10.9,10.9v6.266h-21.803L521.22,251.191L521.22,251.191z M454.108,229.259
	c0-0.897,0.729-1.628,1.628-1.628s1.631,0.73,1.631,1.628v4.266h-3.258L454.108,229.259L454.108,229.259z M444.835,251.191
	c0-6.012,4.89-10.9,10.899-10.9c6.012,0,10.902,4.89,10.902,10.9v6.266h-21.802V251.191z M298.37,171.628
	c0-0.896,0.731-1.627,1.627-1.627c0.898,0,1.629,0.73,1.629,1.627v4.266h-3.257V171.628z M289.742,182.66h5.246h10.023h5.247
	c1.042,0,1.891,0.849,1.891,1.892c0,1.044-0.849,1.893-1.891,1.893h-20.515c-1.043,0-1.893-0.849-1.893-1.893
	C287.85,183.509,288.698,182.66,289.742,182.66z M300,193.209c28.791,0,53.499,20.576,58.991,48.46H241.008
	C246.5,213.787,271.206,193.209,300,193.209z M229.842,248.436h7.187H362.97h7.188l1.827,9.022H228.016L229.842,248.436z
	 M142.636,229.259c0-0.897,0.729-1.628,1.627-1.628s1.628,0.73,1.628,1.628v4.266h-3.255V229.259z M133.363,251.191
	c0-6.012,4.891-10.9,10.901-10.9c6.012,0,10.902,4.89,10.902,10.9v6.266h-21.803V251.191L133.363,251.191z M66.249,229.259
	c0-0.897,0.731-1.628,1.628-1.628c0.897,0,1.628,0.73,1.628,1.628v4.266h-3.256V229.259z M56.977,251.191
	c0-6.012,4.889-10.9,10.901-10.9c6.011,0,10.9,4.89,10.9,10.9v6.266H56.977V251.191z M56.977,264.225h25.186h47.815h28.569h65.329
	c0.001,0,0.003,0.001,0.006,0.001s0.003-0.001,0.006-0.001h152.221c0.002,0,0.006,0.001,0.008,0.001
	c0.003,0,0.003-0.001,0.005-0.001h65.327h28.57h47.817h25.185v4.511H56.977V264.225z M543.022,429.999h-31.574v-67.663
	c0-1.869-1.515-3.383-3.385-3.383h-39.469c-1.869,0-3.384,1.514-3.384,3.383v67.663h-39.47v-83.45
	c0-17.412-14.164-31.577-31.575-31.577c-17.412,0-31.576,14.165-31.576,31.577v83.45h-31.013v-83.45
	c0-17.412-14.164-31.577-31.576-31.577c-17.41,0-31.576,14.165-31.576,31.577v83.45h-31.012v-83.45
	c0-17.412-14.165-31.577-31.577-31.577c-17.411,0-31.576,14.165-31.576,31.577v83.45h-39.469v-67.663
	c0-1.869-1.515-3.383-3.384-3.383H91.938c-1.868,0-3.383,1.514-3.383,3.383v67.663H56.977V292.416h486.045L543.022,429.999
	L543.022,429.999z M561.068,285.65H38.933v-10.149h522.135V285.65z"/>
</svg>
