<?xml version="1.0" encoding="utf-8"?>
<!-- Generator: Adobe Illustrator 15.0.0, SVG Export Plug-In . SVG Version: 6.00 Build 0)  -->
<!DOCTYPE svg PUBLIC "-//W3C//DTD SVG 1.1//EN" "http://www.w3.org/Graphics/SVG/1.1/DTD/svg11.dtd">
<svg version="1.1" id="Capa_1" xmlns="http://www.w3.org/2000/svg" xmlns:xlink="http://www.w3.org/1999/xlink" x="0px" y="0px"
	 width="600px" height="600px" viewBox="0 0 600 600" enable-background="new 0 0 600 600" xml:space="preserve">
<path fill="#222221" d="M414.876,122.259h-10.654c-1.839-16.562-15.916-29.487-32.962-29.487h-33.714
	c2.154-2.604,3.657-5.76,4.295-9.214h6.485c2.035,0,3.687-1.65,3.687-3.685c0-2.036-1.651-3.686-3.687-3.686h-6.485
	c-1.74-9.423-10.003-16.586-19.92-16.586h-18.236V40.352c0-2.036-1.649-3.686-3.685-3.686c-2.036,0-3.686,1.65-3.686,3.686v19.249
	H278.08c-9.919,0-18.181,7.164-19.921,16.586h-6.484c-2.036,0-3.686,1.65-3.686,3.686c0,2.035,1.65,3.685,3.686,3.685h6.484
	c0.638,3.455,2.141,6.61,4.295,9.214H228.74c-17.046,0-31.123,12.925-32.963,29.487h-10.655c-2.035,0-3.686,1.65-3.686,3.686
	s1.651,3.686,3.686,3.686h10.655c1.84,16.563,15.917,29.486,32.963,29.486h19.248v359.985h-50.577c-2.036,0-3.686,1.65-3.686,3.687
	v36.858c0,2.036,1.65,3.686,3.686,3.686h205.178c2.036,0,3.686-1.649,3.686-3.686v-36.858c0-2.036-1.649-3.687-3.686-3.687h-68.357
	l-10.865-228.82l42.887-73.612c0.329-0.564,0.502-1.203,0.502-1.855v-55.697h4.505c17.046,0,31.123-12.923,32.962-29.486h10.654
	c2.035,0,3.687-1.65,3.687-3.686C418.563,123.911,416.911,122.259,414.876,122.259z M278.08,66.973h43.841
	c5.831,0,10.767,3.892,12.357,9.214h-68.555C267.313,70.865,272.247,66.973,278.08,66.973z M265.723,83.558h68.555
	c-1.591,5.322-6.526,9.214-12.357,9.214h-43.843C272.247,92.772,267.313,88.88,265.723,83.558z M228.74,100.145h49.338h43.843
	h49.339c12.972,0,23.709,9.632,25.508,22.115H203.233C205.031,109.778,215.767,100.145,228.74,100.145z M290.786,159.119v359.986
	h-15.769V159.119H290.786z M255.36,161.576h12.286v357.526H255.36V161.576z M398.903,555.963H201.096v-29.487h50.578h19.657h23.141
	h36.245h68.188v29.487H398.903z M359.384,213.82l-42.935,73.692c-0.359,0.615-0.532,1.319-0.498,2.03l10.899,229.56h-28.693V161.576
	h12.448l4.399,96.788c0.077,1.65,1.239,3.048,2.849,3.422c1.611,0.371,3.271-0.369,4.066-1.815l24.724-45.02
	c0.298-0.542,0.454-1.153,0.454-1.774v-51.601h12.286V213.82z M339.726,212.232l-17.951,32.688l-3.899-85.802h21.851V212.232z
	 M371.26,151.747H228.74c-12.973,0-23.709-9.632-25.507-22.114h193.535C394.969,142.113,384.232,151.747,371.26,151.747z"/>
</svg>
