<?xml version="1.0" encoding="utf-8"?>
<!-- Generator: Adobe Illustrator 15.0.0, SVG Export Plug-In . SVG Version: 6.00 Build 0)  -->
<!DOCTYPE svg PUBLIC "-//W3C//DTD SVG 1.1//EN" "http://www.w3.org/Graphics/SVG/1.1/DTD/svg11.dtd">
<svg version="1.1" id="Capa_1" xmlns="http://www.w3.org/2000/svg" xmlns:xlink="http://www.w3.org/1999/xlink" x="0px" y="0px"
	 width="600px" height="600px" viewBox="0 0 600 600" enable-background="new 0 0 600 600" xml:space="preserve">
<path d="M585.747,422.454h-61.735v-38.647h16.596c1.907,0,3.453-1.546,3.453-3.454v-12.666c0-1.908-1.546-3.454-3.453-3.454h-56.216
	v-38.646h12.995c1.908,0,3.454-1.546,3.454-3.454v-12.666c0-1.907-1.546-3.454-3.454-3.454h-23.852v-38.648h12.004
	c1.908,0,3.454-1.546,3.454-3.454v-12.666c0-1.907-1.546-3.453-3.454-3.453h-41.444v-38.647h9.328c1.908,0,3.454-1.546,3.454-3.454
	v-12.666c0-1.908-1.546-3.454-3.454-3.454h-60.728v-38.646h4.664c1.907,0,3.453-1.546,3.453-3.454v-12.666
	c0-1.908-1.546-3.454-3.453-3.454h-22.673c-1.67-10.704-10.925-18.932-22.091-18.932H247.403c-11.164,0-20.419,8.228-22.089,18.932
	h-22.672c-1.908,0-3.454,1.546-3.454,3.454v12.666c0,1.908,1.546,3.454,3.454,3.454h4.662v38.646h-60.733
	c-1.907,0-3.454,1.546-3.454,3.454v12.666c0,1.908,1.547,3.454,3.454,3.454h9.334v38.647h-41.45c-1.908,0-3.454,1.546-3.454,3.453
	v12.666c0,1.908,1.546,3.454,3.454,3.454h12.01v38.648h-23.852c-1.908,0-3.454,1.547-3.454,3.454v12.666
	c0,1.908,1.546,3.454,3.454,3.454h12.996v38.646H59.392c-1.908,0-3.454,1.548-3.454,3.454v12.666c0,1.908,1.546,3.454,3.454,3.454
	h16.594v38.647H14.252c-1.908,0-3.454,1.546-3.454,3.454v12.666c0,1.908,1.546,3.454,3.454,3.454h20.356v42.101
	c0,1.907,1.547,3.454,3.454,3.454h190.411h15.112h112.832h15.111h190.41c1.907,0,3.453-1.547,3.453-3.454v-42.101h20.357
	c1.908,0,3.454-1.546,3.454-3.454v-12.666C589.201,424,587.656,422.454,585.747,422.454z M537.154,376.899h-16.596
	c-1.907,0-3.454,1.547-3.454,3.453v42.102H374.982v-51.313h105.956h56.216V376.899z M368.073,480.676h-8.204v-342.42h8.204v54.768
	v58.221v58.223v58.22v58.222V480.676z M493.934,318.679h-12.996c-1.907,0-3.454,1.547-3.454,3.454v42.1H374.982V312.92h95.1h23.853
	V318.679z M482.086,260.457h-12.005c-1.907,0-3.453,1.546-3.453,3.453v42.103h-91.646v-51.314h65.659h41.445V260.457
	L482.086,260.457z M449.969,202.236h-9.328c-1.906,0-3.454,1.546-3.454,3.453v42.102h-62.205v-51.313h14.26h60.728V202.236
	L449.969,202.236z M393.905,144.015h-4.664c-1.907,0-3.453,1.547-3.453,3.454v42.101h-10.807v-51.313h18.924V144.015z
	 M247.403,119.325h105.193c7.346,0,13.499,5.148,15.074,12.023h-11.253H243.586H232.33
	C233.905,124.474,240.058,119.325,247.403,119.325z M210.758,144.015h-4.663v-5.759h18.924v51.313h-10.808v-42.101
	C214.211,145.562,212.665,144.015,210.758,144.015z M159.358,202.236h-9.333v-5.759h60.733h14.262v51.313h-62.207v-42.102
	C162.812,203.782,161.266,202.236,159.358,202.236z M129.918,260.457h-12.01v-5.759h41.45h65.661v51.314h-91.648V263.91
	C133.371,262.003,131.825,260.457,129.918,260.457z M119.062,318.679h-12.996v-5.759h23.852h95.102v51.312H122.515v-42.1
	C122.515,320.224,120.969,318.679,119.062,318.679z M79.441,376.899H62.846v-5.759h56.216h105.958v51.313H82.894v-42.102
	C82.894,378.446,81.348,376.899,79.441,376.899z M38.062,435.12H17.706v-5.76h61.735h145.579v51.314H41.516v-42.101
	C41.516,436.666,39.97,435.12,38.062,435.12z M231.927,425.908v-58.222v-58.22v-58.223v-58.221v-54.768h8.204v342.42h-8.204V425.908
	z M247.038,480.676v-342.42h105.924v342.42H247.038z M582.293,435.12h-20.355c-1.908,0-3.454,1.546-3.454,3.454v42.101H374.982
	v-51.312h145.576h61.735V435.12z"/>
</svg>
