<?xml version="1.0" encoding="utf-8"?>
<!-- Generator: Adobe Illustrator 15.0.0, SVG Export Plug-In . SVG Version: 6.00 Build 0)  -->
<!DOCTYPE svg PUBLIC "-//W3C//DTD SVG 1.1//EN" "http://www.w3.org/Graphics/SVG/1.1/DTD/svg11.dtd">
<svg version="1.1" id="Capa_1" xmlns="http://www.w3.org/2000/svg" xmlns:xlink="http://www.w3.org/1999/xlink" x="0px" y="0px"
	 width="600px" height="600px" viewBox="0 0 600 600" enable-background="new 0 0 600 600" xml:space="preserve">
<path d="M514.392,192.543H494.43v-43.746h12.847c2.299,0,4.165-1.865,4.165-4.167v-20.832c0-2.3-1.866-4.167-4.165-4.167H494.43
	V100.19c0-2.302-1.865-4.167-4.167-4.167H109.739c-2.302,0-4.167,1.865-4.167,4.167v19.442H92.725c-2.302,0-4.167,1.867-4.167,4.167
	v20.832c0,2.302,1.865,4.167,4.167,4.167h12.846v43.746H85.608c-2.302,0-4.167,1.864-4.167,4.166v25.693
	c0,2.302,1.865,4.166,4.167,4.166h19.964v238.522H92.725c-2.302,0-4.167,1.864-4.167,4.166v30.551c0,2.302,1.865,4.169,4.167,4.169
	h168.042c2.3,0,4.167-1.867,4.167-4.169v-30.551c0-2.302-1.867-4.166-4.167-4.166h-13.541V358.719
	c0-29.1,23.675-52.773,52.774-52.773c29.1,0,52.771,23.674,52.771,52.773v106.372h-13.539c-2.302,0-4.167,1.864-4.167,4.166v30.551
	c0,2.302,1.865,4.169,4.167,4.169h168.042c2.3,0,4.165-1.867,4.165-4.169v-30.551c0-2.302-1.865-4.166-4.165-4.166h-12.847V226.568
	h19.963c2.302,0,4.167-1.864,4.167-4.166v-25.693C518.559,194.409,516.694,192.543,514.392,192.543z M465.96,218.236v-17.36h18.748
	v17.36H465.96z M438.878,218.236v-17.36h18.748v17.36H438.878z M411.796,218.236v-17.36h18.748v17.36H411.796z M384.715,218.236
	v-17.36h18.751v17.36H384.715z M357.636,218.236v-17.36h18.748v17.36H357.636z M330.554,218.236v-17.36h18.747v17.36H330.554z
	 M303.472,218.236v-17.36h18.747v17.36H303.472z M276.391,218.236v-17.36h18.748v17.36H276.391z M249.311,218.236v-17.36h18.747
	v17.36H249.311z M222.231,218.236v-17.36h18.749v17.36H222.231z M195.148,218.236v-17.36h18.748v17.36H195.148z M168.067,218.236
	v-17.36h18.75v17.36H168.067z M140.987,218.236v-17.36h18.75v17.36H140.987z M113.906,218.236v-17.36h18.75v17.36H113.906z
	 M113.906,148.797h372.19v43.746h-372.19V148.797z M486.096,104.356v15.256h-372.19v-15.256H486.096z M96.893,140.464v-12.499
	h12.846c0.073,0,0.143-0.018,0.214-0.022h380.092c0.073,0.004,0.142,0.022,0.216,0.022h12.847v12.499h-8.908h-3.938H109.739H96.893z
	 M89.775,200.876h15.796v17.36H89.775V200.876z M256.602,495.644H96.893v-22.219h12.846h133.322h13.542v22.219H256.602z
	 M503.108,495.644H343.401v-22.219h13.54h133.322h12.847v22.219H503.108z M361.108,465.091V358.719
	c0-33.693-27.412-61.105-61.107-61.105c-33.693,0-61.105,27.412-61.105,61.105v106.372h-124.99V226.568h372.19v238.522H361.108
	L361.108,465.091z M510.225,218.236h-17.187v-17.36h17.187V218.236z"/>
</svg>
