<?xml version="1.0" encoding="utf-8"?>
<!-- Generator: Adobe Illustrator 15.0.0, SVG Export Plug-In . SVG Version: 6.00 Build 0)  -->
<!DOCTYPE svg PUBLIC "-//W3C//DTD SVG 1.1//EN" "http://www.w3.org/Graphics/SVG/1.1/DTD/svg11.dtd">
<svg version="1.1" id="Capa_1" xmlns="http://www.w3.org/2000/svg" xmlns:xlink="http://www.w3.org/1999/xlink" x="0px" y="0px"
	 width="600px" height="600px" viewBox="0 0 600 600" enable-background="new 0 0 600 600" xml:space="preserve">
<g>
	<path d="M138.997,255.479h33.948c2.084,0,3.771-1.688,3.771-3.771v-35.521c0-11.439-9.307-20.746-20.746-20.746
		c-11.438,0-20.745,9.307-20.745,20.746v35.521C135.225,253.791,136.914,255.479,138.997,255.479z M142.768,216.188
		c0-7.28,5.922-13.203,13.202-13.203c7.282,0,13.203,5.922,13.203,13.203v31.749h-26.405V216.188z"/>
	<path d="M129.41,294.494c-11.438,0-20.745,9.307-20.745,20.746v35.521c0,2.084,1.689,3.771,3.771,3.771h33.948
		c2.084,0,3.771-1.688,3.771-3.771V315.24C150.156,303.801,140.849,294.494,129.41,294.494z M142.613,346.989h-26.405V315.24
		c0-7.28,5.922-13.202,13.202-13.202c7.282,0,13.203,5.921,13.203,13.202V346.989z"/>
	<path d="M182.53,294.494c-11.439,0-20.746,9.307-20.746,20.746v35.521c0,2.084,1.688,3.771,3.771,3.771h33.948
		c2.083,0,3.771-1.688,3.771-3.771V315.24C203.275,303.801,193.969,294.494,182.53,294.494z M195.733,346.989h-26.405V315.24
		c0-7.28,5.922-13.202,13.203-13.202s13.203,5.921,13.203,13.202V346.989z"/>
	<path d="M549.021,325.552c-1.336-6.875-6.682-12.325-13.499-13.82v-15.503c0-2.083-1.686-3.771-3.771-3.771
		c-2.082,0-3.771,1.688-3.771,3.771v15.503c-6.873,1.51-12.244,7.039-13.525,13.995c-5.088,1.607-8.787,6.373-8.787,11.987
		c0,6.289,4.647,11.5,10.686,12.415v8.118H501.89c-2.085,0-3.771,1.688-3.771,3.771v15.924h-5.655v-15.924
		c0-2.084-1.689-3.771-3.771-3.771h-21.793c-2.084,0-3.771,1.688-3.771,3.771v15.924h-5.655v-15.924
		c0-2.084-1.688-3.771-3.771-3.771H434.53v-8.026c6.343-0.633,11.314-6.001,11.314-12.507c0-5.851-4.026-10.769-9.446-12.162
		c-1.336-6.875-6.68-12.325-13.498-13.82v-15.503c0-2.083-1.687-3.771-3.771-3.771c-2.083,0-3.771,1.688-3.771,3.771v15.503
		c-6.873,1.51-12.245,7.039-13.522,13.995c-5.09,1.607-8.79,6.373-8.79,11.987c0,6.289,4.647,11.5,10.685,12.415v8.118h-6.81
		c-2.086,0-3.771,1.688-3.771,3.771v15.924h-5.656v-15.924c0-2.084-1.688-3.771-3.771-3.771h-21.793
		c-2.083,0-3.771,1.688-3.771,3.771v15.924H352.5v-15.924c0-2.084-1.688-3.771-3.772-3.771h-21.79c-2.086,0-3.771,1.688-3.771,3.771
		v15.924h-5.656v-15.924c0-2.084-1.688-3.771-3.771-3.771h-21.79c-2.084,0-3.771,1.688-3.771,3.771v15.924h-5.657v-15.924
		c0-2.084-1.688-3.771-3.771-3.771h-21.791c-2.083,0-3.771,1.688-3.771,3.771v15.924h-9.217V285.18h9.388
		c1.529,0,2.909-0.924,3.49-2.341l6.534-15.924c0.478-1.163,0.344-2.487-0.356-3.533c-0.702-1.043-1.876-1.67-3.132-1.67H243.97
		v-21.837c1.395,0.407,2.85,0.619,4.337,0.619c8.491,0,15.4-6.909,15.4-15.399v-48.359c6.344-0.632,11.314-6,11.314-12.509
		c0-5.851-4.023-10.767-9.444-12.162c-1.337-6.873-6.682-12.325-13.499-13.819v-15.504c0-2.083-1.688-3.771-3.771-3.771
		c-2.083,0-3.771,1.688-3.771,3.771v15.503c-6.874,1.507-12.245,7.04-13.525,13.996c-5.089,1.609-8.789,6.374-8.789,11.988
		c0,0.687,0.07,1.356,0.177,2.013c-2.893-5.856-7.23-10.812-12.695-10.812c-10.429,0-16.764,18.045-16.764,25.981v0.418h-18.438
		v-0.418c0-7.936-6.333-25.981-16.764-25.981c-10.429,0-16.762,18.045-16.762,25.981v0.418h-18.439v-0.418
		c0-7.936-6.333-25.981-16.762-25.981c-4.733,0-8.62,3.722-11.458,8.524c-0.125-5.728-4.094-10.513-9.43-11.886
		c-1.336-6.873-6.682-12.325-13.499-13.819v-15.504c0-2.083-1.688-3.771-3.771-3.771c-2.083,0-3.771,1.688-3.771,3.771v15.504
		c-6.874,1.507-12.245,7.039-13.524,13.995c-5.089,1.609-8.788,6.374-8.788,11.988c0,6.29,4.647,11.501,10.685,12.415v48.453
		c0,8.492,6.908,15.4,15.399,15.4c1.409,0,2.793-0.192,4.125-0.564v21.781h-19.7c-1.257,0-2.431,0.626-3.131,1.67
		c-0.702,1.045-0.834,2.371-0.357,3.533l6.534,15.924c0.582,1.415,1.959,2.34,3.489,2.34h13.167v192.077
		c0,2.085,1.689,3.771,3.771,3.771H134.6c2.085,0,3.771-1.687,3.771-3.771v-41.485c0-10.398,8.46-18.857,18.858-18.857
		c10.396,0,18.857,8.459,18.857,18.857v41.485c0,2.085,1.689,3.771,3.771,3.771H523.68c2.084,0,3.771-1.687,3.771-3.771v-63.886
		c1.382,0.402,2.826,0.61,4.299,0.61c8.492,0,15.4-6.908,15.4-15.4v-48.364c6.343-0.633,11.314-6.001,11.314-12.507
		C558.466,331.863,554.442,326.945,549.021,325.552z M531.752,318.856c4.212,0,7.821,2.606,9.317,6.286h-18.634
		C523.929,321.463,527.54,318.856,531.752,318.856z M419.129,318.856c4.211,0,7.821,2.606,9.317,6.286h-18.633
		C411.308,321.463,414.92,318.856,419.129,318.856z M400.588,337.714c0-2.772,2.256-5.028,5.028-5.028h27.657
		c2.772,0,5.028,2.256,5.028,5.028s-2.256,5.028-5.028,5.028h-27.657C402.842,342.742,400.588,340.486,400.588,337.714z
		 M418.711,358.247h-7.437v-7.963h15.714v27.657h-4.506v-15.923C422.483,359.935,420.793,358.247,418.711,358.247z M248.31,145.371
		c4.211,0,7.82,2.605,9.316,6.285h-18.633C240.489,147.976,244.098,145.371,248.31,145.371z M234.795,159.199h27.657
		c2.771,0,5.028,2.256,5.028,5.029s-2.257,5.029-5.028,5.029h-27.657c-2.772,0-5.029-2.256-5.029-5.029
		S232.023,159.199,234.795,159.199z M232.909,176.641v5.186h-6.442v-0.419c0-2.565-0.666-6.188-1.915-9.917
		C226.488,174.21,229.47,176.12,232.909,176.641z M67.62,145.371c4.212,0,7.821,2.605,9.317,6.285H58.304
		C59.799,147.976,63.409,145.371,67.62,145.371z M54.105,169.256c-2.772,0-5.028-2.256-5.028-5.029c0-2.771,2.255-5.029,5.028-5.029
		h27.657c2.772,0,5.029,2.256,5.029,5.029s-2.257,5.029-5.029,5.029H54.105z M90.34,173.393c-0.868,3.036-1.326,5.889-1.326,8.015
		v0.419H83.02v-5.092C85.84,176.454,88.379,175.229,90.34,173.393z M67.62,232.952c-4.333,0-7.856-3.524-7.856-7.857v-48.296h15.715
		v8.8c0,2.083,1.688,3.771,3.771,3.771h13.536c2.084,0,3.771-1.688,3.771-3.771v-4.19c0-7.065,5.688-18.438,9.221-18.438
		s9.22,11.373,9.22,18.438v4.19c0,2.083,1.688,3.771,3.771,3.771h25.982c2.083,0,3.771-1.688,3.771-3.771v-4.19
		c0-7.065,5.687-18.438,9.219-18.438c3.533,0,9.221,11.373,9.221,18.438v4.19c0,2.083,1.688,3.771,3.771,3.771h25.98
		c2.084,0,3.771-1.688,3.771-3.771v-4.19c0-7.065,5.688-18.438,9.221-18.438c3.532,0,9.22,11.373,9.22,18.438v4.19
		c0,2.083,1.689,3.771,3.771,3.771h13.985c2.083,0,3.771-1.688,3.771-3.771v-8.8h15.714v48.296c0,4.333-3.523,7.857-7.857,7.857
		c-2.053,0-3.999-0.792-5.478-2.231c-1.085-1.058-2.699-1.363-4.096-0.772c-1.398,0.59-2.306,1.958-2.306,3.475v28.29H79.288
		v-28.098c0-1.5-0.887-2.856-2.262-3.457c-1.374-0.601-2.973-0.33-4.074,0.691C71.489,232.205,69.595,232.952,67.62,232.952z
		 M61.108,277.637l-3.439-8.38h196.602l-3.439,8.38H61.108z M539.61,398.581c0,4.333-3.525,7.856-7.857,7.856
		c-2.037,0-3.974-0.784-5.451-2.209c-1.09-1.051-2.696-1.349-4.094-0.759c-1.392,0.592-2.297,1.958-2.297,3.471v24.029h-19.913
		c-2.271,0-4.114,1.842-4.114,4.114c0,2.273,1.843,4.114,4.114,4.114h19.913v3.358h-19.913c-2.271,0-4.114,1.841-4.114,4.114
		c0,2.272,1.843,4.114,4.114,4.114h19.913v3.357h-19.913c-2.271,0-4.114,1.84-4.114,4.114c0,2.271,1.843,4.114,4.114,4.114h19.913
		v11.113h-336.28v-37.714c0-14.557-11.843-26.4-26.4-26.4c-14.556,0-26.401,11.844-26.401,26.4v37.714H79.288V285.18H236.43v96.534
		c0,2.084,1.689,3.771,3.771,3.771h16.761c2.083,0,3.771-1.688,3.771-3.771V365.79h14.248v15.924c0,2.084,1.688,3.771,3.771,3.771
		h13.2c2.083,0,3.771-1.688,3.771-3.771V365.79h14.248v15.924c0,2.084,1.688,3.771,3.771,3.771h13.199
		c2.082,0,3.771-1.688,3.771-3.771V365.79h14.247v15.924c0,2.084,1.688,3.771,3.771,3.771h13.2c2.084,0,3.771-1.688,3.771-3.771
		V365.79h14.249v15.924c0,2.084,1.687,3.771,3.771,3.771h13.199c2.082,0,3.771-1.688,3.771-3.771V365.79h14.248v15.924
		c0,2.084,1.688,3.771,3.771,3.771h13.198c2.083,0,3.771-1.688,3.771-3.771V365.79h14.249v15.924c0,2.084,1.688,3.771,3.771,3.771
		h13.198c2.085,0,3.771-1.688,3.771-3.771V365.79h14.25v15.924c0,2.084,1.687,3.771,3.771,3.771h13.198
		c2.084,0,3.771-1.688,3.771-3.771V365.79h14.462c2.084,0,3.771-1.688,3.771-3.771v-11.733h15.715v48.296H539.61z M545.895,342.742
		h-27.657c-2.772,0-5.028-2.256-5.028-5.028s2.256-5.028,5.028-5.028h27.657c2.772,0,5.029,2.256,5.029,5.028
		S548.668,342.742,545.895,342.742z"/>
</g>
</svg>
