<?xml version="1.0" encoding="utf-8"?>
<!-- Generator: Adobe Illustrator 15.0.0, SVG Export Plug-In . SVG Version: 6.00 Build 0)  -->
<!DOCTYPE svg PUBLIC "-//W3C//DTD SVG 1.1//EN" "http://www.w3.org/Graphics/SVG/1.1/DTD/svg11.dtd">
<svg version="1.1" id="Capa_1" xmlns="http://www.w3.org/2000/svg" xmlns:xlink="http://www.w3.org/1999/xlink" x="0px" y="0px"
	 width="600px" height="600px" viewBox="0 0 600 600" enable-background="new 0 0 600 600" xml:space="preserve">
<g>
	<path d="M515.708,286.96h-97.055V160.855h18.341c1.9,0,3.441-1.54,3.441-3.44c0-1.898-1.54-3.438-3.441-3.438h-18.341v-18.343
		h18.341c1.9,0,3.441-1.539,3.441-3.439c0-1.899-1.54-3.439-3.441-3.439h-18.341v-19.489c0-1.899-1.539-3.439-3.439-3.439H184.789
		c-1.898,0-3.44,1.54-3.44,3.439v19.489h-18.343c-1.898,0-3.438,1.54-3.438,3.439c0,1.899,1.541,3.439,3.438,3.439h18.343v18.343
		h-18.343c-1.898,0-3.438,1.54-3.438,3.438c0,1.899,1.541,3.44,3.438,3.44h18.343V286.96H84.294c-1.899,0-3.441,1.54-3.441,3.438
		v73.368c0,1.899,1.54,3.441,3.441,3.441h30.951v123.523c0,1.899,1.541,3.44,3.44,3.44h362.63c1.899,0,3.441-1.539,3.441-3.44
		V367.208h30.952c1.898,0,3.438-1.54,3.438-3.441v-73.368C519.147,288.5,517.608,286.96,515.708,286.96z M188.228,112.707h223.547
		v16.048H188.228V112.707z M188.228,135.634h223.547v18.343H188.228V135.634z M188.228,160.855h223.547V286.96H188.228V160.855z
		 M477.876,487.294H122.124V367.208h355.752V487.294z M512.269,360.329h-30.952h-362.63H87.734v-66.49h97.057h230.427h97.054v66.49
		H512.269z"/>
	<path d="M146.957,468.091h42.417c1.899,0,3.438-1.54,3.438-3.44v-79.103c0-1.897-1.539-3.438-3.438-3.438h-42.417
		c-1.898,0-3.438,1.538-3.438,3.438v79.103C143.519,466.551,145.059,468.091,146.957,468.091z M150.396,388.989h35.539v72.223
		h-35.539V388.989z"/>
	<path d="M212.876,468.091h42.416c1.899,0,3.439-1.54,3.439-3.44v-79.103c0-1.897-1.54-3.438-3.439-3.438h-42.416
		c-1.899,0-3.44,1.538-3.44,3.438v79.103C209.436,466.551,210.975,468.091,212.876,468.091z M216.314,388.989h35.539v72.223h-35.539
		V388.989L216.314,388.989z"/>
	<path d="M278.792,468.091h42.416c1.899,0,3.441-1.54,3.441-3.44v-79.103c0-1.897-1.54-3.438-3.441-3.438h-42.416
		c-1.899,0-3.438,1.538-3.438,3.438v79.103C275.354,466.551,276.893,468.091,278.792,468.091z M282.232,388.989h35.539v72.223
		h-35.539V388.989z"/>
	<path d="M344.711,468.091h42.417c1.897,0,3.439-1.54,3.439-3.44v-79.103c0-1.897-1.54-3.438-3.439-3.438h-42.417
		c-1.9,0-3.439,1.538-3.439,3.438v79.103C341.272,466.551,342.809,468.091,344.711,468.091z M348.149,388.989h35.538v72.223h-35.538
		V388.989z"/>
	<path d="M410.628,468.091h42.416c1.898,0,3.439-1.54,3.439-3.44v-79.103c0-1.897-1.54-3.438-3.439-3.438h-42.416
		c-1.899,0-3.439,1.538-3.439,3.438v79.103C407.19,466.551,408.729,468.091,410.628,468.091z M414.068,388.989h35.537v72.223
		h-35.537V388.989z"/>
	<path d="M189.374,301.863h-42.417c-1.898,0-3.438,1.539-3.438,3.439v42.416c0,1.899,1.54,3.441,3.438,3.441h42.417
		c1.899,0,3.438-1.542,3.438-3.441v-42.416C192.813,303.402,191.274,301.863,189.374,301.863z M185.935,344.278h-35.539v-35.537
		h35.539V344.278z"/>
	<path d="M321.208,301.863h-42.416c-1.899,0-3.438,1.539-3.438,3.439v42.416c0,1.899,1.539,3.441,3.438,3.441h42.416
		c1.899,0,3.441-1.542,3.441-3.441v-42.416C324.65,303.402,323.11,301.863,321.208,301.863z M317.771,344.278h-35.539v-35.537
		h35.539V344.278z"/>
	<path d="M407.19,305.303v42.415c0,1.897,1.539,3.439,3.439,3.439h42.416c1.898,0,3.44-1.539,3.44-3.439v-42.415
		c0-1.9-1.54-3.44-3.44-3.44h-42.416C408.729,301.863,407.19,303.402,407.19,305.303z M414.068,308.741h35.537v35.537h-35.537
		V308.741z"/>
	<path d="M327.515,173.962h-55.027c-1.898,0-3.439,1.54-3.439,3.439v94.004c0,1.899,1.54,3.439,3.439,3.439h55.027
		c1.899,0,3.439-1.54,3.439-3.439v-94.004C330.953,175.502,329.414,173.962,327.515,173.962z M324.075,267.967h-48.148v-87.126
		h48.149L324.075,267.967L324.075,267.967z"/>
</g>
</svg>
