<?xml version="1.0" encoding="utf-8"?>
<!-- Generator: Adobe Illustrator 15.0.0, SVG Export Plug-In . SVG Version: 6.00 Build 0)  -->
<!DOCTYPE svg PUBLIC "-//W3C//DTD SVG 1.1//EN" "http://www.w3.org/Graphics/SVG/1.1/DTD/svg11.dtd">
<svg version="1.1" id="Capa_1" xmlns="http://www.w3.org/2000/svg" xmlns:xlink="http://www.w3.org/1999/xlink" x="0px" y="0px"
	 width="600px" height="600px" viewBox="0 0 600 600" enable-background="new 0 0 600 600" xml:space="preserve">
<g>
	<path d="M553.38,169.354H46.62c-2.276,0-4.12,1.844-4.12,4.12v265.053c0,2.276,1.844,4.12,4.12,4.12h506.76
		c2.274,0,4.12-1.844,4.12-4.12V173.473C557.5,171.197,555.655,169.354,553.38,169.354z M549.26,434.406H50.74V177.593h498.52
		V434.406z"/>
	<path d="M90.634,414.479h38.775c2.275,0,4.12-1.845,4.12-4.119v-54.411c0-12.961-10.547-23.507-23.507-23.507
		c-12.962,0-23.508,10.546-23.508,23.507v54.411C86.514,412.635,88.358,414.479,90.634,414.479z M94.754,355.949
		c0-8.418,6.849-15.268,15.268-15.268c8.418,0,15.268,6.85,15.268,15.268v50.291H94.754V355.949L94.754,355.949z"/>
	<path d="M90.634,321.734h38.775c2.275,0,4.12-1.844,4.12-4.12v-54.412c0-12.961-10.547-23.507-23.507-23.507
		c-12.962,0-23.508,10.546-23.508,23.507v54.412C86.514,319.891,88.358,321.734,90.634,321.734z M94.754,263.203
		c0-8.418,6.849-15.268,15.268-15.268c8.418,0,15.268,6.849,15.268,15.268v50.292H94.754V263.203L94.754,263.203z"/>
	<path d="M94.966,231.346h28.382c2.275,0,4.12-1.845,4.12-4.12v-19.227c0-2.276-1.845-4.12-4.12-4.12H94.966
		c-2.276,0-4.12,1.844-4.12,4.12v19.227C90.846,229.501,92.691,231.346,94.966,231.346z M99.086,212.119h20.143v10.987H99.086
		V212.119z"/>
	<path d="M166.626,414.479h38.775c2.274,0,4.12-1.845,4.12-4.119v-54.411c0-12.961-10.547-23.507-23.508-23.507
		c-12.962,0-23.507,10.546-23.507,23.507v54.411C162.506,412.635,164.35,414.479,166.626,414.479z M170.746,355.949
		c0-8.418,6.849-15.268,15.268-15.268s15.268,6.85,15.268,15.268v50.291h-30.535V355.949L170.746,355.949z"/>
	<path d="M166.626,321.734h38.775c2.274,0,4.12-1.844,4.12-4.12v-54.412c0-12.961-10.547-23.507-23.508-23.507
		c-12.962,0-23.507,10.546-23.507,23.507v54.412C162.506,319.891,164.35,321.734,166.626,321.734z M170.746,263.203
		c0-8.418,6.849-15.268,15.268-15.268s15.268,6.849,15.268,15.268v50.292h-30.535V263.203L170.746,263.203z"/>
	<path d="M170.958,231.346h28.381c2.274,0,4.12-1.845,4.12-4.12v-19.227c0-2.276-1.846-4.12-4.12-4.12h-28.381
		c-2.276,0-4.12,1.844-4.12,4.12v19.227C166.838,229.501,168.683,231.346,170.958,231.346z M175.078,212.119h20.141v10.987h-20.141
		V212.119z"/>
	<path d="M242.616,414.479h38.775c2.274,0,4.12-1.845,4.12-4.119v-54.411c0-12.961-10.547-23.507-23.508-23.507
		c-12.962,0-23.507,10.546-23.507,23.507v54.411C238.497,412.635,240.341,414.479,242.616,414.479z M246.737,355.949
		c0-8.418,6.849-15.268,15.268-15.268s15.268,6.85,15.268,15.268v50.291h-30.535V355.949z"/>
	<path d="M242.616,321.734h38.775c2.274,0,4.12-1.844,4.12-4.12v-54.412c0-12.961-10.547-23.507-23.508-23.507
		c-12.962,0-23.507,10.546-23.507,23.507v54.412C238.497,319.891,240.341,321.734,242.616,321.734z M246.737,263.203
		c0-8.418,6.849-15.268,15.268-15.268s15.268,6.849,15.268,15.268v50.292h-30.535V263.203z"/>
	<path d="M246.948,231.346h28.383c2.274,0,4.12-1.845,4.12-4.12v-19.227c0-2.276-1.846-4.12-4.12-4.12h-28.383
		c-2.276,0-4.12,1.844-4.12,4.12v19.227C242.828,229.501,244.674,231.346,246.948,231.346z M251.069,212.119h20.143v10.987h-20.143
		V212.119z"/>
	<path d="M318.609,414.479h38.773c2.276,0,4.12-1.845,4.12-4.119v-54.411c0-12.961-10.545-23.507-23.507-23.507
		c-12.961,0-23.507,10.546-23.507,23.507v54.411C314.489,412.635,316.332,414.479,318.609,414.479z M322.729,355.949
		c0-8.418,6.848-15.268,15.267-15.268s15.268,6.85,15.268,15.268v50.291h-30.534V355.949z"/>
	<path d="M318.609,321.734h38.773c2.276,0,4.12-1.844,4.12-4.12v-54.412c0-12.961-10.545-23.507-23.507-23.507
		c-12.961,0-23.507,10.546-23.507,23.507v54.412C314.489,319.891,316.332,321.734,318.609,321.734z M322.729,263.203
		c0-8.418,6.848-15.268,15.267-15.268s15.268,6.849,15.268,15.268v50.292h-30.534V263.203z"/>
	<path d="M322.939,231.346h28.382c2.275,0,4.12-1.845,4.12-4.12v-19.227c0-2.276-1.845-4.12-4.12-4.12h-28.382
		c-2.274,0-4.119,1.844-4.119,4.12v19.227C318.82,229.501,320.664,231.346,322.939,231.346z M327.059,212.119H347.2v10.987h-20.142
		V212.119L327.059,212.119z"/>
	<path d="M394.599,414.479h38.774c2.275,0,4.12-1.845,4.12-4.119v-54.411c0-12.961-10.546-23.507-23.507-23.507
		c-12.962,0-23.507,10.546-23.507,23.507v54.411C390.48,412.635,392.323,414.479,394.599,414.479z M398.719,355.949
		c0-8.418,6.849-15.268,15.268-15.268s15.267,6.85,15.267,15.268v50.291h-30.534V355.949z"/>
	<path d="M394.599,321.734h38.774c2.275,0,4.12-1.844,4.12-4.12v-54.412c0-12.961-10.546-23.507-23.507-23.507
		c-12.962,0-23.507,10.546-23.507,23.507v54.412C390.48,319.891,392.323,321.734,394.599,321.734z M398.719,263.203
		c0-8.418,6.849-15.268,15.268-15.268s15.267,6.849,15.267,15.268v50.292h-30.534V263.203z"/>
	<path d="M398.93,231.346h28.381c2.276,0,4.12-1.845,4.12-4.12v-19.227c0-2.276-1.844-4.12-4.12-4.12H398.93
		c-2.274,0-4.12,1.844-4.12,4.12v19.227C394.81,229.501,396.656,231.346,398.93,231.346z M403.05,212.119h20.142v10.987H403.05
		V212.119z"/>
	<path d="M470.591,414.479h38.774c2.275,0,4.12-1.845,4.12-4.119v-54.411c0-12.961-10.546-23.507-23.507-23.507
		c-12.962,0-23.508,10.546-23.508,23.507v54.411C466.471,412.635,468.316,414.479,470.591,414.479z M474.711,355.949
		c0-8.418,6.848-15.268,15.268-15.268c8.419,0,15.267,6.85,15.267,15.268v50.291h-30.534V355.949z"/>
	<path d="M470.591,321.734h38.774c2.275,0,4.12-1.844,4.12-4.12v-54.412c0-12.961-10.546-23.507-23.507-23.507
		c-12.962,0-23.508,10.546-23.508,23.507v54.412C466.471,319.891,468.316,321.734,470.591,321.734z M474.711,263.203
		c0-8.418,6.848-15.268,15.268-15.268c8.419,0,15.267,6.849,15.267,15.268v50.292h-30.534V263.203z"/>
	<path d="M474.922,231.346h28.381c2.276,0,4.12-1.845,4.12-4.12v-19.227c0-2.276-1.844-4.12-4.12-4.12h-28.381
		c-2.274,0-4.12,1.844-4.12,4.12v19.227C470.802,229.501,472.648,231.346,474.922,231.346z M479.042,212.119h20.141v10.987h-20.141
		V212.119L479.042,212.119z"/>
</g>
</svg>
