<?xml version="1.0" encoding="utf-8"?>
<!-- Generator: Adobe Illustrator 15.0.0, SVG Export Plug-In . SVG Version: 6.00 Build 0)  -->
<!DOCTYPE svg PUBLIC "-//W3C//DTD SVG 1.1//EN" "http://www.w3.org/Graphics/SVG/1.1/DTD/svg11.dtd">
<svg version="1.1" id="Capa_1" xmlns="http://www.w3.org/2000/svg" xmlns:xlink="http://www.w3.org/1999/xlink" x="0px" y="0px"
	 width="600px" height="600px" viewBox="0 0 600 600" enable-background="new 0 0 600 600" xml:space="preserve">
<g>
	<path d="M469.034,334.29c-1.217-1.12-2.826-1.684-4.49-1.548l-30.438,2.461V200.932c0-1.654-0.694-3.233-1.909-4.354
		c-1.218-1.12-2.839-1.675-4.497-1.542l-47.682,3.949v-78.5c0-1.663-0.698-3.248-1.925-4.368c-1.227-1.123-2.872-1.673-4.519-1.528
		l-28.643,2.556V50.349c0-3.267-2.65-5.917-5.918-5.917h-78.03c-3.267,0-5.917,2.649-5.917,5.917v74.82l-29.694,2.651
		c-3.053,0.273-5.392,2.83-5.392,5.895v78.529l-48.66,4.031c-3.068,0.255-5.427,2.818-5.427,5.898v134.728l-31.393,2.539
		c-3.075,0.247-5.44,2.812-5.44,5.897V549.65c0,3.268,2.648,5.918,5.916,5.918h330.047c3.269,0,5.917-2.652,5.917-5.918V338.638
		C470.941,336.987,470.249,335.409,469.034,334.29z M266.902,56.268h66.196v61.935l-66.196,5.91V56.268z M231.816,139.128
		l136.368-12.176v73.012l-136.368,11.299V139.128z M177.727,227.621l244.543-20.262v128.799l-244.543,19.783V227.621
		L177.727,227.621z M459.106,543.729H140.894V370.797l318.212-25.742V543.729z"/>
	<path d="M311.212,60.304h-22.424c-3.267,0-5.916,2.649-5.916,5.917v45.343c0,3.268,2.648,5.917,5.916,5.917h22.424
		c3.269,0,5.917-2.648,5.917-5.917V66.221C317.129,62.953,314.479,60.304,311.212,60.304z M305.294,105.647h-10.588v-33.51h10.588
		V105.647z"/>
</g>
</svg>
