<?xml version="1.0" encoding="utf-8"?>
<!-- Generator: Adobe Illustrator 15.0.0, SVG Export Plug-In . SVG Version: 6.00 Build 0)  -->
<!DOCTYPE svg PUBLIC "-//W3C//DTD SVG 1.1//EN" "http://www.w3.org/Graphics/SVG/1.1/DTD/svg11.dtd">
<svg version="1.1" id="Capa_1" xmlns="http://www.w3.org/2000/svg" xmlns:xlink="http://www.w3.org/1999/xlink" x="0px" y="0px"
	 width="600px" height="600px" viewBox="0 0 600 600" enable-background="new 0 0 600 600" xml:space="preserve">
<g>
	<path d="M565.955,181.885c-0.006-0.126-0.02-0.249-0.037-0.373c-0.018-0.111-0.039-0.219-0.064-0.325
		c-0.027-0.113-0.064-0.224-0.105-0.334c-0.037-0.11-0.082-0.218-0.133-0.324c-0.047-0.098-0.1-0.193-0.156-0.288
		c-0.068-0.109-0.137-0.213-0.213-0.313c-0.033-0.046-0.057-0.096-0.094-0.14l-38.332-45.999c-0.674-0.807-1.668-1.273-2.719-1.273
		c-1.053,0-2.047,0.467-2.719,1.273l-38.334,45.999c-0.037,0.044-0.059,0.094-0.092,0.14c-0.076,0.101-0.148,0.204-0.215,0.313
		c-0.055,0.095-0.109,0.19-0.156,0.288c-0.049,0.106-0.094,0.214-0.133,0.324s-0.076,0.221-0.104,0.334
		c-0.025,0.105-0.049,0.214-0.066,0.325c-0.02,0.124-0.031,0.248-0.035,0.373c-0.004,0.057-0.018,0.11-0.018,0.169v71.076
		l-181.309-48.943c-0.605-0.163-1.241-0.163-1.845,0L117.771,253.13v-71.076c0-0.059-0.015-0.112-0.017-0.169
		c-0.006-0.126-0.018-0.25-0.037-0.374c-0.017-0.11-0.037-0.218-0.063-0.324c-0.028-0.113-0.064-0.224-0.105-0.334
		c-0.04-0.109-0.084-0.217-0.133-0.322c-0.048-0.1-0.101-0.195-0.158-0.291c-0.065-0.108-0.135-0.212-0.21-0.312
		c-0.034-0.046-0.058-0.097-0.095-0.14l-38.333-45.999c-0.671-0.807-1.667-1.273-2.718-1.273c-1.05,0-2.047,0.467-2.719,1.273
		l-38.332,45.999c-0.036,0.045-0.06,0.095-0.094,0.14c-0.077,0.101-0.146,0.204-0.212,0.312c-0.058,0.096-0.109,0.191-0.157,0.291
		c-0.051,0.104-0.095,0.212-0.134,0.322c-0.041,0.11-0.076,0.221-0.104,0.334c-0.026,0.105-0.048,0.213-0.065,0.324
		c-0.019,0.124-0.031,0.248-0.037,0.374c-0.002,0.057-0.018,0.11-0.018,0.169v281.894c0,1.954,1.584,3.538,3.538,3.538h76.666
		h30.815c1.109,0,2.154-0.52,2.821-1.403c0.668-0.885,0.885-2.03,0.584-3.098c-3.924-13.891-5.914-28.32-5.914-42.884
		c0-81.187,141.509-149.649,157.459-157.103c15.952,7.453,157.459,75.916,157.459,157.103c0,14.563-1.988,28.993-5.912,42.884
		c-0.301,1.066-0.084,2.213,0.582,3.098c0.67,0.884,1.715,1.403,2.824,1.403h30.812h76.668c1.953,0,3.537-1.584,3.537-3.538V182.054
		C565.973,181.995,565.959,181.942,565.955,181.885z M524.102,141.581l30.777,36.935h-61.557L524.102,141.581z M75.901,141.581
		l30.778,36.935H45.122L75.901,141.581z M41.105,185.592h69.59v72.159v202.658h-69.59V185.592z M117.772,460.41v-29.093h18.083
		c0.664,9.838,2.19,19.576,4.587,29.093H117.772z M382.574,303.393c-40.082-29.015-80.721-47.337-81.129-47.519
		c-0.92-0.411-1.972-0.411-2.892,0c-0.405,0.181-41.045,18.504-81.127,47.519c-54.386,39.367-81.963,78.634-81.963,116.71
		c0,1.381,0.029,2.759,0.062,4.137h-17.755V260.461l182.229-49.192l182.23,49.192v163.778h-17.756
		c0.033-1.378,0.062-2.756,0.062-4.137C464.537,382.026,436.961,342.76,382.574,303.393z M464.147,431.317h18.084v29.093h-22.67
		C461.957,450.893,463.485,441.155,464.147,431.317z M558.897,460.41h-69.59V257.752v-72.159h69.59V460.41z"/>
	<path d="M53.196,194.635c-1.954,0-3.539,1.585-3.539,3.539v25.162c0,1.953,1.585,3.538,3.539,3.538
		c1.953,0,3.538-1.585,3.538-3.538v-25.162C56.734,196.22,55.149,194.635,53.196,194.635z"/>
	<path d="M68.332,194.635c-1.955,0-3.538,1.585-3.538,3.539v25.162c0,1.953,1.583,3.538,3.538,3.538
		c1.954,0,3.538-1.585,3.538-3.538v-25.162C71.87,196.22,70.286,194.635,68.332,194.635z"/>
	<path d="M83.469,194.635c-1.953,0-3.539,1.585-3.539,3.539v25.162c0,1.953,1.585,3.538,3.539,3.538
		c1.954,0,3.539-1.585,3.539-3.538v-25.162C87.008,196.22,85.423,194.635,83.469,194.635z"/>
	<path d="M98.607,194.635c-1.955,0-3.54,1.585-3.54,3.539v25.162c0,1.953,1.585,3.538,3.54,3.538c1.953,0,3.538-1.585,3.538-3.538
		v-25.162C102.145,196.22,100.56,194.635,98.607,194.635z"/>
	<path d="M501.395,226.873c1.953,0,3.537-1.585,3.537-3.538v-25.162c0-1.955-1.584-3.54-3.537-3.54c-1.955,0-3.539,1.585-3.539,3.54
		v25.162C497.856,225.289,499.442,226.873,501.395,226.873z"/>
	<path d="M516.53,226.873c1.955,0,3.539-1.585,3.539-3.538v-25.162c0-1.955-1.584-3.54-3.539-3.54c-1.953,0-3.537,1.585-3.537,3.54
		v25.162C512.992,225.289,514.576,226.873,516.53,226.873z"/>
	<path d="M531.668,226.873c1.955,0,3.539-1.585,3.539-3.538v-25.162c0-1.955-1.584-3.54-3.539-3.54s-3.539,1.585-3.539,3.54v25.162
		C528.129,225.289,529.713,226.873,531.668,226.873z"/>
	<path d="M546.805,226.873c1.955,0,3.537-1.585,3.537-3.538v-25.162c0-1.955-1.582-3.54-3.537-3.54s-3.539,1.585-3.539,3.54v25.162
		C543.266,225.289,544.852,226.873,546.805,226.873z"/>
</g>
</svg>
