<?xml version="1.0" encoding="utf-8"?>
<!-- Generator: Adobe Illustrator 15.0.0, SVG Export Plug-In . SVG Version: 6.00 Build 0)  -->
<!DOCTYPE svg PUBLIC "-//W3C//DTD SVG 1.1//EN" "http://www.w3.org/Graphics/SVG/1.1/DTD/svg11.dtd">
<svg version="1.1" id="Capa_1" xmlns="http://www.w3.org/2000/svg" xmlns:xlink="http://www.w3.org/1999/xlink" x="0px" y="0px"
	 width="600px" height="600px" viewBox="0 0 600 600" enable-background="new 0 0 600 600" xml:space="preserve">
<path d="M560.672,154.539H39.328c-2.133,0-3.861,1.729-3.861,3.862V441.6c0,2.133,1.729,3.861,3.861,3.861h21.884h54.065h50.203
	h16.734h50.204h36.687h61.789h36.688h50.203h16.734h50.203h54.065c0.009,0.002,0.019,0,0.025,0h21.858
	c2.132,0,3.861-1.729,3.861-3.861V158.4C564.533,156.267,562.804,154.539,560.672,154.539z M119.139,372.73
	c0-11.711,9.528-21.24,21.24-21.24c11.711,0,21.24,9.529,21.24,21.24v65.007h-42.48V372.73z M153.681,329.822
	c0,7.334-5.968,13.301-13.302,13.301c-7.335,0-13.301-5.967-13.301-13.301v-19.739c0-7.335,5.967-13.301,13.301-13.301
	c7.333,0,13.302,5.966,13.302,13.301V329.822L153.681,329.822z M186.077,372.73c0-11.711,9.527-21.24,21.24-21.24
	c11.711,0,21.239,9.529,21.239,21.24v65.007h-42.479V372.73z M220.618,329.822c0,7.334-5.968,13.301-13.301,13.301
	c-7.336,0-13.302-5.967-13.302-13.301v-19.739c0-7.335,5.968-13.301,13.302-13.301c7.332,0,13.301,5.966,13.301,13.301V329.822
	L220.618,329.822z M327.032,437.737h-54.064V331.538h54.064V437.737z M371.444,372.73c0-11.711,9.527-21.24,21.24-21.24
	c11.711,0,21.239,9.529,21.239,21.24v65.007h-42.479V372.73z M405.984,329.822c0,7.334-5.968,13.301-13.3,13.301
	c-7.336,0-13.303-5.967-13.303-13.301v-19.739c0-7.335,5.967-13.301,13.303-13.301c7.332,0,13.3,5.966,13.3,13.301V329.822z
	 M438.381,372.73c0-11.711,9.528-21.24,21.24-21.24c11.711,0,21.24,9.529,21.24,21.24v65.007h-42.48V372.73z M472.921,329.822
	c0,7.334-5.967,13.301-13.3,13.301c-7.335,0-13.303-5.967-13.303-13.301v-19.739c0-7.335,5.968-13.301,13.303-13.301
	c7.333,0,13.3,5.966,13.3,13.301V329.822z M488.585,437.737V372.73c0-0.639-0.028-1.27-0.07-1.9
	c-0.012-0.169-0.025-0.339-0.038-0.507c-0.044-0.53-0.101-1.058-0.175-1.583c-0.014-0.101-0.022-0.202-0.036-0.303
	c-0.092-0.609-0.204-1.211-0.333-1.807c-0.032-0.148-0.068-0.294-0.104-0.441c-0.111-0.484-0.236-0.964-0.371-1.438
	c-0.038-0.135-0.075-0.271-0.116-0.406c-0.175-0.576-0.365-1.147-0.575-1.707c-0.04-0.108-0.085-0.215-0.128-0.322
	c-0.181-0.469-0.375-0.933-0.579-1.389c-0.063-0.143-0.127-0.285-0.191-0.425c-0.254-0.543-0.52-1.079-0.806-1.603
	c-0.021-0.035-0.042-0.072-0.062-0.108c-0.271-0.49-0.559-0.97-0.855-1.442c-0.084-0.134-0.169-0.265-0.255-0.398
	c-0.29-0.444-0.592-0.885-0.906-1.312c-0.04-0.057-0.078-0.114-0.119-0.169c-0.354-0.475-0.725-0.937-1.106-1.387
	c-0.097-0.117-0.196-0.23-0.296-0.345c-0.319-0.366-0.647-0.724-0.985-1.075c-0.085-0.09-0.172-0.185-0.259-0.272
	c-0.414-0.419-0.839-0.824-1.276-1.216c-0.097-0.087-0.197-0.171-0.295-0.255c-0.363-0.316-0.733-0.626-1.112-0.927
	c-0.121-0.094-0.239-0.188-0.358-0.281c-0.469-0.358-0.946-0.705-1.437-1.037c-0.065-0.043-0.134-0.083-0.2-0.128
	c-0.436-0.287-0.879-0.561-1.329-0.825c-0.14-0.083-0.281-0.163-0.422-0.244c-0.488-0.273-0.983-0.539-1.487-0.784
	c-0.029-0.015-0.057-0.031-0.086-0.045c0.218-0.164,0.427-0.337,0.637-0.508c0.065-0.051,0.133-0.101,0.195-0.153
	c0.453-0.377,0.886-0.776,1.306-1.188c0.083-0.08,0.166-0.164,0.248-0.247c0.411-0.419,0.811-0.853,1.188-1.306
	c0.053-0.064,0.103-0.133,0.157-0.198c0.36-0.445,0.705-0.901,1.03-1.375c0.033-0.051,0.069-0.097,0.104-0.147
	c0.333-0.494,0.64-1.007,0.93-1.529c0.057-0.101,0.113-0.201,0.169-0.305c0.279-0.521,0.538-1.054,0.771-1.599
	c0.039-0.091,0.074-0.183,0.112-0.274c0.225-0.547,0.433-1.102,0.613-1.672c0.013-0.035,0.025-0.07,0.035-0.104
	c0.181-0.586,0.33-1.184,0.461-1.791c0.025-0.116,0.051-0.23,0.074-0.347c0.117-0.594,0.21-1.194,0.275-1.806
	c0.013-0.11,0.021-0.225,0.031-0.338c0.06-0.64,0.099-1.285,0.099-1.94v-19.738c0-11.593-9.433-21.025-21.025-21.025
	c-11.595,0-21.026,9.432-21.026,21.025v19.738c0,0.655,0.038,1.302,0.098,1.941c0.011,0.112,0.02,0.227,0.029,0.337
	c0.067,0.612,0.16,1.214,0.278,1.809c0.023,0.113,0.048,0.228,0.071,0.341c0.133,0.608,0.283,1.208,0.463,1.795
	c0.01,0.033,0.023,0.064,0.033,0.098c0.181,0.571,0.391,1.134,0.617,1.684c0.036,0.089,0.071,0.178,0.107,0.266
	c0.236,0.548,0.495,1.084,0.775,1.605c0.054,0.101,0.108,0.197,0.164,0.295c0.291,0.528,0.6,1.043,0.936,1.539
	c0.029,0.045,0.063,0.089,0.095,0.136c0.327,0.478,0.676,0.94,1.04,1.388c0.052,0.064,0.101,0.13,0.152,0.19
	c0.377,0.453,0.778,0.889,1.19,1.311c0.08,0.081,0.162,0.164,0.245,0.244c0.42,0.412,0.854,0.812,1.309,1.189
	c0.062,0.053,0.128,0.099,0.189,0.15c0.211,0.174,0.421,0.347,0.64,0.511c-0.042,0.021-0.083,0.045-0.128,0.066
	c-0.485,0.24-0.96,0.493-1.431,0.758c-0.15,0.083-0.3,0.171-0.45,0.258c-0.438,0.256-0.867,0.521-1.289,0.801
	c-0.078,0.052-0.157,0.099-0.234,0.148c-0.485,0.327-0.958,0.671-1.422,1.027c-0.127,0.097-0.25,0.194-0.377,0.294
	c-0.369,0.296-0.734,0.597-1.091,0.906c-0.104,0.091-0.21,0.179-0.312,0.271c-0.436,0.391-0.857,0.792-1.267,1.208
	c-0.093,0.093-0.184,0.191-0.273,0.288c-0.333,0.346-0.655,0.697-0.97,1.059c-0.102,0.118-0.205,0.234-0.306,0.353
	c-0.379,0.451-0.748,0.908-1.1,1.381c-0.045,0.061-0.084,0.123-0.13,0.184c-0.311,0.422-0.609,0.857-0.896,1.297
	c-0.089,0.135-0.175,0.271-0.261,0.405c-0.294,0.469-0.581,0.945-0.849,1.433c-0.021,0.038-0.044,0.075-0.066,0.114
	c-0.285,0.523-0.551,1.059-0.805,1.602c-0.065,0.14-0.129,0.283-0.191,0.427c-0.204,0.455-0.398,0.916-0.578,1.383
	c-0.042,0.11-0.088,0.216-0.131,0.328c-0.207,0.561-0.399,1.13-0.573,1.705c-0.041,0.135-0.077,0.271-0.115,0.406
	c-0.136,0.474-0.26,0.953-0.372,1.438c-0.035,0.146-0.071,0.293-0.104,0.441c-0.129,0.596-0.241,1.199-0.331,1.806
	c-0.017,0.101-0.025,0.203-0.038,0.304c-0.074,0.522-0.131,1.051-0.174,1.582c-0.015,0.169-0.027,0.339-0.039,0.507
	c-0.041,0.629-0.068,1.261-0.068,1.901v65.009h-9.011V372.73c0-0.639-0.028-1.27-0.071-1.9c-0.011-0.169-0.024-0.339-0.037-0.507
	c-0.044-0.53-0.101-1.058-0.175-1.583c-0.014-0.101-0.022-0.202-0.036-0.303c-0.092-0.609-0.204-1.211-0.334-1.807
	c-0.031-0.148-0.067-0.294-0.102-0.441c-0.113-0.484-0.237-0.964-0.372-1.438c-0.039-0.135-0.075-0.271-0.117-0.406
	c-0.175-0.576-0.364-1.147-0.574-1.707c-0.04-0.108-0.085-0.215-0.128-0.322c-0.182-0.469-0.375-0.933-0.578-1.389
	c-0.064-0.143-0.129-0.285-0.192-0.425c-0.254-0.543-0.52-1.079-0.806-1.603c-0.021-0.035-0.042-0.072-0.062-0.108
	c-0.271-0.49-0.559-0.97-0.855-1.442c-0.084-0.134-0.17-0.265-0.255-0.398c-0.291-0.444-0.592-0.885-0.906-1.312
	c-0.04-0.057-0.078-0.114-0.12-0.169c-0.353-0.475-0.724-0.937-1.105-1.387c-0.096-0.117-0.196-0.23-0.296-0.345
	c-0.319-0.366-0.647-0.724-0.985-1.075c-0.086-0.09-0.172-0.185-0.259-0.272c-0.414-0.419-0.839-0.824-1.276-1.216
	c-0.097-0.087-0.197-0.171-0.295-0.255c-0.362-0.316-0.733-0.626-1.113-0.927c-0.12-0.094-0.238-0.188-0.357-0.281
	c-0.47-0.358-0.947-0.705-1.438-1.037c-0.065-0.043-0.133-0.083-0.199-0.128c-0.436-0.287-0.879-0.561-1.329-0.825
	c-0.14-0.083-0.281-0.163-0.423-0.244c-0.487-0.273-0.982-0.539-1.486-0.784c-0.029-0.015-0.057-0.031-0.086-0.045
	c0.218-0.164,0.426-0.337,0.636-0.508c0.065-0.051,0.134-0.101,0.196-0.153c0.453-0.377,0.885-0.776,1.305-1.188
	c0.083-0.08,0.166-0.164,0.249-0.247c0.412-0.419,0.81-0.853,1.187-1.306c0.053-0.064,0.104-0.133,0.157-0.198
	c0.361-0.445,0.705-0.901,1.031-1.375c0.032-0.051,0.069-0.097,0.103-0.147c0.334-0.494,0.641-1.007,0.931-1.529
	c0.057-0.101,0.114-0.201,0.17-0.305c0.277-0.521,0.536-1.054,0.771-1.599c0.039-0.091,0.074-0.183,0.111-0.274
	c0.226-0.547,0.433-1.102,0.614-1.672c0.013-0.035,0.024-0.07,0.035-0.104c0.182-0.586,0.33-1.184,0.461-1.791
	c0.025-0.116,0.051-0.23,0.074-0.347c0.117-0.594,0.21-1.194,0.275-1.806c0.013-0.11,0.021-0.225,0.031-0.338
	c0.06-0.64,0.099-1.285,0.099-1.94v-19.738c0-11.593-9.433-21.025-21.025-21.025c-11.596,0-21.026,9.432-21.026,21.025v19.738
	c0,0.655,0.038,1.302,0.097,1.941c0.012,0.112,0.021,0.227,0.03,0.337c0.066,0.612,0.16,1.214,0.278,1.809
	c0.023,0.113,0.048,0.228,0.072,0.341c0.131,0.608,0.282,1.208,0.462,1.795c0.01,0.033,0.023,0.064,0.032,0.098
	c0.182,0.571,0.392,1.134,0.617,1.684c0.037,0.089,0.072,0.178,0.108,0.266c0.236,0.548,0.496,1.084,0.775,1.605
	c0.053,0.101,0.108,0.197,0.164,0.295c0.291,0.528,0.6,1.043,0.935,1.539c0.03,0.045,0.064,0.089,0.096,0.136
	c0.327,0.478,0.675,0.94,1.04,1.388c0.051,0.064,0.101,0.13,0.151,0.19c0.378,0.453,0.778,0.889,1.19,1.311
	c0.081,0.081,0.164,0.164,0.245,0.244c0.42,0.412,0.855,0.812,1.31,1.189c0.062,0.053,0.128,0.099,0.189,0.15
	c0.211,0.174,0.421,0.347,0.64,0.511c-0.043,0.021-0.083,0.045-0.127,0.066c-0.486,0.24-0.962,0.493-1.432,0.758
	c-0.151,0.083-0.301,0.171-0.45,0.258c-0.438,0.256-0.867,0.521-1.29,0.801c-0.077,0.052-0.157,0.099-0.233,0.148
	c-0.485,0.327-0.958,0.671-1.421,1.027c-0.128,0.097-0.251,0.194-0.377,0.294c-0.371,0.296-0.735,0.597-1.092,0.906
	c-0.104,0.091-0.21,0.179-0.312,0.271c-0.435,0.391-0.857,0.792-1.266,1.208c-0.093,0.093-0.184,0.191-0.274,0.288
	c-0.333,0.346-0.654,0.697-0.968,1.059c-0.103,0.118-0.206,0.234-0.307,0.353c-0.38,0.451-0.748,0.908-1.1,1.381
	c-0.046,0.061-0.085,0.123-0.13,0.184c-0.311,0.422-0.608,0.857-0.896,1.297c-0.087,0.135-0.175,0.271-0.26,0.405
	c-0.294,0.469-0.581,0.945-0.848,1.433c-0.022,0.038-0.045,0.075-0.067,0.114c-0.286,0.523-0.551,1.059-0.805,1.602
	c-0.065,0.14-0.13,0.283-0.191,0.427c-0.205,0.455-0.398,0.916-0.578,1.383c-0.043,0.11-0.088,0.216-0.131,0.328
	c-0.207,0.561-0.399,1.13-0.573,1.705c-0.041,0.135-0.078,0.271-0.115,0.406c-0.136,0.474-0.261,0.953-0.372,1.438
	c-0.035,0.146-0.072,0.293-0.104,0.441c-0.129,0.596-0.241,1.199-0.332,1.806c-0.016,0.101-0.024,0.203-0.037,0.304
	c-0.073,0.522-0.131,1.051-0.174,1.582c-0.015,0.169-0.027,0.339-0.039,0.507c-0.041,0.629-0.069,1.261-0.069,1.901v65.009h-28.974
	V327.676c0-2.133-1.729-3.861-3.861-3.861h-61.789c-2.133,0-3.861,1.729-3.861,3.861v110.062h-28.964V372.73
	c0-0.639-0.028-1.27-0.07-1.9c-0.011-0.169-0.023-0.339-0.037-0.507c-0.045-0.53-0.101-1.058-0.173-1.583
	c-0.015-0.101-0.025-0.202-0.039-0.303c-0.092-0.609-0.203-1.211-0.332-1.807c-0.032-0.148-0.068-0.294-0.102-0.441
	c-0.111-0.484-0.237-0.965-0.373-1.44c-0.039-0.135-0.075-0.269-0.114-0.4c-0.177-0.577-0.367-1.149-0.576-1.71
	c-0.041-0.108-0.085-0.214-0.127-0.322c-0.183-0.47-0.377-0.933-0.581-1.39c-0.062-0.142-0.127-0.282-0.19-0.423
	c-0.254-0.543-0.521-1.081-0.806-1.605c-0.02-0.033-0.041-0.067-0.06-0.102c-0.271-0.493-0.56-0.975-0.858-1.448
	c-0.084-0.133-0.167-0.264-0.254-0.395c-0.292-0.447-0.594-0.888-0.909-1.317c-0.039-0.055-0.076-0.11-0.117-0.165
	c-0.353-0.474-0.724-0.937-1.104-1.389c-0.098-0.116-0.197-0.229-0.297-0.342c-0.319-0.367-0.647-0.725-0.984-1.076
	c-0.088-0.091-0.173-0.184-0.262-0.273c-0.413-0.418-0.838-0.823-1.275-1.215c-0.099-0.089-0.197-0.171-0.297-0.257
	c-0.362-0.316-0.732-0.623-1.111-0.924c-0.12-0.095-0.24-0.19-0.359-0.283c-0.469-0.358-0.945-0.706-1.436-1.035
	c-0.068-0.046-0.137-0.086-0.207-0.133c-0.433-0.285-0.874-0.559-1.32-0.82c-0.143-0.083-0.285-0.166-0.429-0.247
	c-0.482-0.271-0.972-0.532-1.472-0.776c-0.033-0.018-0.064-0.035-0.098-0.053c0.219-0.164,0.432-0.34,0.644-0.511
	c0.061-0.05,0.124-0.096,0.184-0.146c0.454-0.377,0.89-0.778,1.311-1.191c0.083-0.081,0.163-0.164,0.246-0.247
	c0.414-0.418,0.811-0.853,1.188-1.306c0.054-0.064,0.104-0.132,0.156-0.197c0.361-0.442,0.704-0.9,1.027-1.373
	c0.035-0.051,0.073-0.1,0.107-0.15c0.331-0.493,0.639-1.004,0.928-1.526c0.059-0.104,0.115-0.206,0.172-0.311
	c0.276-0.52,0.535-1.05,0.768-1.594c0.041-0.092,0.074-0.187,0.113-0.279c0.226-0.545,0.432-1.098,0.61-1.663
	c0.012-0.038,0.027-0.076,0.039-0.113c0.182-0.585,0.329-1.182,0.46-1.788c0.024-0.115,0.051-0.23,0.074-0.348
	c0.116-0.594,0.21-1.195,0.275-1.804c0.012-0.113,0.021-0.227,0.031-0.34c0.058-0.64,0.098-1.285,0.098-1.939v-19.739
	c0-11.593-9.432-21.025-21.024-21.025c-11.594,0-21.025,9.432-21.025,21.025v19.739c0,0.654,0.039,1.3,0.098,1.939
	c0.011,0.113,0.02,0.227,0.03,0.34c0.065,0.61,0.16,1.211,0.277,1.805c0.023,0.116,0.049,0.231,0.073,0.347
	c0.131,0.605,0.279,1.203,0.461,1.788c0.011,0.037,0.027,0.075,0.039,0.113c0.178,0.565,0.384,1.117,0.608,1.66
	c0.038,0.095,0.075,0.19,0.114,0.283c0.233,0.543,0.491,1.072,0.768,1.59c0.057,0.107,0.114,0.211,0.174,0.315
	c0.289,0.521,0.595,1.03,0.925,1.522c0.037,0.053,0.076,0.104,0.111,0.156c0.321,0.47,0.665,0.927,1.021,1.366
	c0.055,0.068,0.106,0.137,0.162,0.204c0.376,0.449,0.773,0.884,1.183,1.302c0.084,0.083,0.169,0.169,0.253,0.25
	c0.419,0.413,0.851,0.812,1.303,1.186c0.064,0.053,0.132,0.104,0.195,0.156c0.212,0.171,0.42,0.345,0.637,0.505
	c-0.034,0.018-0.064,0.035-0.099,0.053c-0.499,0.244-0.987,0.507-1.471,0.777c-0.145,0.08-0.288,0.163-0.429,0.246
	c-0.448,0.262-0.889,0.536-1.321,0.821c-0.067,0.045-0.14,0.087-0.207,0.132c-0.489,0.329-0.967,0.677-1.436,1.036
	c-0.121,0.093-0.239,0.188-0.358,0.282c-0.378,0.299-0.75,0.607-1.112,0.925c-0.1,0.085-0.199,0.168-0.297,0.256
	c-0.437,0.393-0.862,0.797-1.274,1.216c-0.09,0.089-0.175,0.183-0.262,0.272c-0.337,0.35-0.666,0.709-0.985,1.076
	c-0.099,0.113-0.199,0.227-0.296,0.342c-0.381,0.453-0.752,0.915-1.106,1.39c-0.038,0.054-0.076,0.11-0.116,0.164
	c-0.315,0.431-0.616,0.87-0.909,1.317c-0.084,0.131-0.17,0.262-0.254,0.396c-0.298,0.474-0.586,0.955-0.858,1.448
	c-0.02,0.033-0.039,0.067-0.06,0.102c-0.286,0.524-0.552,1.062-0.806,1.605c-0.065,0.141-0.128,0.281-0.189,0.422
	c-0.205,0.458-0.4,0.92-0.581,1.391c-0.041,0.108-0.087,0.214-0.127,0.321c-0.21,0.563-0.402,1.133-0.576,1.71
	c-0.04,0.134-0.076,0.27-0.114,0.401c-0.137,0.475-0.261,0.955-0.373,1.44c-0.034,0.147-0.07,0.293-0.102,0.441
	c-0.13,0.596-0.241,1.199-0.332,1.807c-0.017,0.101-0.025,0.202-0.039,0.303c-0.071,0.522-0.13,1.051-0.172,1.583
	c-0.016,0.168-0.028,0.338-0.039,0.506c-0.042,0.629-0.069,1.261-0.069,1.901v65.004h-9.011V372.73c0-0.639-0.029-1.27-0.07-1.9
	c-0.012-0.169-0.024-0.339-0.038-0.507c-0.044-0.53-0.101-1.058-0.174-1.583c-0.014-0.101-0.023-0.202-0.037-0.303
	c-0.092-0.609-0.204-1.211-0.332-1.807c-0.032-0.148-0.069-0.294-0.102-0.441c-0.112-0.484-0.238-0.965-0.374-1.44
	c-0.039-0.135-0.075-0.269-0.114-0.4c-0.176-0.577-0.367-1.149-0.575-1.71c-0.042-0.108-0.086-0.214-0.129-0.322
	c-0.181-0.47-0.376-0.933-0.579-1.39c-0.064-0.142-0.127-0.282-0.191-0.423c-0.254-0.543-0.521-1.081-0.806-1.605
	c-0.019-0.033-0.04-0.067-0.059-0.102c-0.271-0.493-0.56-0.975-0.859-1.448c-0.084-0.133-0.167-0.264-0.254-0.395
	c-0.291-0.447-0.593-0.888-0.908-1.317c-0.039-0.055-0.077-0.11-0.117-0.165c-0.354-0.474-0.724-0.937-1.106-1.389
	c-0.097-0.116-0.196-0.229-0.295-0.342c-0.319-0.367-0.647-0.725-0.984-1.076c-0.088-0.091-0.174-0.184-0.262-0.273
	c-0.413-0.418-0.839-0.823-1.276-1.215c-0.098-0.089-0.197-0.171-0.296-0.257c-0.362-0.316-0.733-0.623-1.111-0.924
	c-0.121-0.095-0.24-0.19-0.359-0.283c-0.47-0.358-0.945-0.706-1.437-1.035c-0.067-0.046-0.137-0.086-0.207-0.133
	c-0.433-0.285-0.874-0.559-1.32-0.82c-0.142-0.083-0.285-0.166-0.429-0.247c-0.482-0.271-0.972-0.532-1.472-0.776
	c-0.032-0.018-0.064-0.035-0.098-0.053c0.22-0.164,0.433-0.34,0.644-0.511c0.062-0.05,0.124-0.096,0.185-0.146
	c0.454-0.377,0.888-0.778,1.31-1.191c0.083-0.081,0.164-0.164,0.247-0.247c0.413-0.418,0.811-0.853,1.188-1.306
	c0.054-0.064,0.104-0.132,0.157-0.197c0.36-0.442,0.704-0.9,1.027-1.373c0.035-0.051,0.072-0.1,0.106-0.15
	c0.332-0.493,0.639-1.004,0.928-1.526c0.06-0.104,0.116-0.206,0.172-0.311c0.277-0.52,0.536-1.05,0.769-1.594
	c0.04-0.092,0.074-0.187,0.113-0.279c0.225-0.545,0.431-1.098,0.609-1.663c0.013-0.038,0.028-0.076,0.039-0.113
	c0.183-0.585,0.329-1.182,0.46-1.788c0.025-0.115,0.052-0.23,0.074-0.348c0.117-0.594,0.21-1.195,0.275-1.804
	c0.012-0.113,0.021-0.227,0.031-0.34c0.059-0.64,0.099-1.285,0.099-1.939v-19.739c0-11.593-9.433-21.025-21.025-21.025
	s-21.024,9.432-21.024,21.025v19.739c0,0.654,0.038,1.3,0.098,1.939c0.01,0.113,0.019,0.227,0.03,0.34
	c0.065,0.61,0.159,1.211,0.276,1.805c0.024,0.116,0.049,0.231,0.074,0.347c0.131,0.605,0.279,1.203,0.46,1.788
	c0.012,0.037,0.027,0.075,0.039,0.113c0.179,0.565,0.385,1.117,0.608,1.66c0.039,0.095,0.075,0.19,0.114,0.283
	c0.234,0.543,0.492,1.072,0.769,1.59c0.057,0.107,0.114,0.211,0.173,0.315c0.289,0.521,0.595,1.03,0.926,1.522
	c0.036,0.053,0.075,0.104,0.11,0.156c0.322,0.47,0.665,0.927,1.021,1.366c0.056,0.068,0.107,0.137,0.162,0.204
	c0.376,0.449,0.773,0.884,1.184,1.302c0.084,0.083,0.168,0.169,0.253,0.25c0.418,0.413,0.851,0.812,1.302,1.186
	c0.065,0.053,0.132,0.104,0.196,0.156c0.211,0.171,0.42,0.345,0.636,0.505c-0.033,0.018-0.063,0.035-0.098,0.053
	c-0.499,0.244-0.988,0.507-1.471,0.777c-0.145,0.08-0.288,0.163-0.429,0.246c-0.449,0.262-0.889,0.536-1.321,0.821
	c-0.068,0.045-0.14,0.087-0.207,0.132c-0.489,0.329-0.967,0.677-1.437,1.036c-0.12,0.093-0.238,0.188-0.357,0.282
	c-0.379,0.299-0.751,0.607-1.113,0.925c-0.099,0.085-0.198,0.168-0.296,0.256c-0.437,0.393-0.863,0.797-1.275,1.216
	c-0.089,0.089-0.175,0.183-0.261,0.272c-0.339,0.35-0.667,0.709-0.986,1.076c-0.098,0.113-0.198,0.227-0.295,0.342
	c-0.381,0.453-0.752,0.915-1.106,1.39c-0.039,0.054-0.077,0.11-0.117,0.164c-0.315,0.431-0.615,0.87-0.908,1.317
	c-0.085,0.131-0.17,0.262-0.254,0.396c-0.299,0.474-0.588,0.955-0.859,1.448c-0.019,0.033-0.039,0.067-0.059,0.102
	c-0.287,0.524-0.552,1.062-0.806,1.605c-0.065,0.141-0.129,0.281-0.19,0.422c-0.205,0.458-0.399,0.92-0.58,1.391
	c-0.042,0.108-0.087,0.214-0.127,0.321c-0.21,0.563-0.402,1.133-0.576,1.71c-0.04,0.134-0.077,0.27-0.114,0.401
	c-0.137,0.475-0.262,0.955-0.373,1.44c-0.034,0.147-0.071,0.293-0.103,0.441c-0.129,0.596-0.241,1.199-0.332,1.807
	c-0.016,0.101-0.024,0.202-0.038,0.303c-0.072,0.522-0.131,1.051-0.173,1.583c-0.015,0.168-0.027,0.338-0.039,0.506
	c-0.041,0.629-0.069,1.261-0.069,1.901v65.004h-45.72l35.329-235.57h397.942l35.336,235.57H488.585z M556.81,437.737h-14.697
	l-36-240.004c-0.284-1.892-1.905-3.29-3.819-3.29H97.699c-1.912,0-3.536,1.398-3.819,3.29L57.887,437.737H43.191V162.262H556.81
	V437.737z"/>
</svg>
