<?xml version="1.0" encoding="utf-8"?>
<!-- Generator: Adobe Illustrator 15.0.0, SVG Export Plug-In . SVG Version: 6.00 Build 0)  -->
<!DOCTYPE svg PUBLIC "-//W3C//DTD SVG 1.1//EN" "http://www.w3.org/Graphics/SVG/1.1/DTD/svg11.dtd">
<svg version="1.1" id="Capa_1" xmlns="http://www.w3.org/2000/svg" xmlns:xlink="http://www.w3.org/1999/xlink" x="0px" y="0px"
	 width="600px" height="600px" viewBox="0 0 600 600" enable-background="new 0 0 600 600" xml:space="preserve">
<path d="M581.774,410.673h-11.596v-74.567l5.995-20.513c0.256-0.876,0.084-1.82-0.462-2.55c-0.548-0.729-1.406-1.158-2.317-1.158
	h-2.171v-36.851v-23.942c0-1.599-1.296-2.895-2.894-2.895h-8.444v-0.972c0-12.424-3.59-24.019-9.765-33.829
	c-0.13-0.354-0.333-0.688-0.607-0.981c-0.016-0.017-0.034-0.028-0.051-0.045c-5.508-8.388-12.938-15.396-21.663-20.404
	c-0.191-0.147-0.396-0.28-0.628-0.378c-0.022-0.01-0.047-0.013-0.069-0.022c-9.158-5.105-19.695-8.027-30.905-8.027
	c-10.98,0-21.321,2.793-30.349,7.707c-0.011,0.004-0.021,0.005-0.032,0.01c-0.218,0.093-0.413,0.215-0.594,0.35
	c-8.888,4.97-16.468,12.001-22.086,20.45c-0.174,0.206-0.316,0.424-0.424,0.66c-6.444,9.952-10.204,21.797-10.204,34.511v0.972
	h-7.921c-1.599,0-2.896,1.296-2.896,2.896v23.878v36.915h-2.169c-0.913,0-1.771,0.43-2.316,1.158
	c-0.547,0.729-0.719,1.674-0.464,2.55l5.997,20.513v74.567h-49.02v-74.567l5.996-20.513c0.256-0.876,0.084-1.82-0.462-2.55
	c-0.548-0.729-1.406-1.158-2.317-1.158h-2.171v-36.851v-23.942c0-1.599-1.296-2.895-2.895-2.895h-8.443v-0.972
	c0-12.424-3.59-24.019-9.766-33.829c-0.129-0.354-0.332-0.688-0.606-0.981c-0.017-0.017-0.034-0.028-0.05-0.045
	c-5.509-8.388-12.939-15.396-21.664-20.404c-0.192-0.147-0.396-0.28-0.629-0.378c-0.021-0.01-0.047-0.013-0.068-0.022
	c-9.159-5.105-19.695-8.027-30.904-8.027c-10.982,0-21.322,2.793-30.349,7.707c-0.01,0.004-0.022,0.005-0.035,0.01
	c-0.216,0.093-0.411,0.215-0.592,0.35c-8.887,4.97-16.468,12.001-22.087,20.45c-0.172,0.206-0.314,0.424-0.423,0.66
	c-6.443,9.952-10.203,21.797-10.203,34.511v0.972h-7.921c-1.599,0-2.896,1.296-2.896,2.896v23.878v36.915h-2.171
	c-0.91,0-1.768,0.43-2.315,1.158c-0.548,0.729-0.718,1.674-0.464,2.55l5.997,20.513v74.567h-49.017v-74.567l5.996-20.513
	c0.255-0.876,0.083-1.82-0.463-2.55c-0.547-0.729-1.405-1.158-2.316-1.158h-2.171v-36.851v-23.942c0-1.599-1.295-2.895-2.896-2.895
	h-8.443v-0.972c0-12.424-3.589-24.019-9.766-33.829c-0.131-0.354-0.332-0.688-0.606-0.981c-0.017-0.017-0.036-0.028-0.05-0.045
	c-5.508-8.388-12.938-15.396-21.664-20.404c-0.191-0.147-0.396-0.28-0.628-0.378c-0.022-0.01-0.047-0.013-0.069-0.022
	c-9.158-5.105-19.695-8.027-30.905-8.027c-10.982,0-21.322,2.793-30.349,7.707c-0.012,0.004-0.023,0.005-0.035,0.01
	c-0.218,0.093-0.411,0.215-0.592,0.35c-8.887,4.97-16.468,12.001-22.087,20.45c-0.174,0.206-0.315,0.424-0.423,0.66
	c-6.445,9.952-10.203,21.797-10.203,34.511v0.972h-7.921c-1.6,0-2.896,1.296-2.896,2.896v23.878v36.915h-2.171
	c-0.911,0-1.77,0.43-2.316,1.158c-0.546,0.729-0.718,1.674-0.463,2.55l5.996,20.513v74.567H18.227c-1.599,0-2.896,1.296-2.896,2.894
	c0,1.601,1.295,2.896,2.896,2.896h563.547c1.599,0,2.896-1.296,2.896-2.896C584.669,411.969,583.372,410.673,581.774,410.673z
	 M549.593,410.314v-71.731h14.794v71.731H549.593z M569.531,317.676l-4.42,15.116h-16.243l-4.42-15.116h1.203h22.678H569.531z
	 M548.545,311.886v-33.957h16.888v33.957H548.545z M565.433,253.987v18.152h-16.888v-18.152H565.433z M554.094,247.226v0.972h-1.209
	c-3.943-7.689-9.398-14.479-15.975-19.969l9.815-9.221C551.411,227.362,554.094,236.984,554.094,247.226z M527.376,198.48
	c6.359,4.081,11.864,9.365,16.203,15.536l-11.35,10.664c-4.047-2.79-8.425-5.132-13.07-6.936L527.376,198.48z M499.091,189.4
	c8.325,0.411,16.184,2.603,23.229,6.18l-8.669,20.32c-4.659-1.331-9.532-2.144-14.56-2.372V189.4z M493.301,189.4v24.129
	c-4.792,0.216-9.444,0.964-13.905,2.186l-8.723-20.442C477.563,191.875,485.214,189.801,493.301,189.4z M465.589,198.11
	l8.275,19.399c-4.808,1.808-9.338,4.182-13.516,7.04l-11.226-10.971C453.545,207.41,459.141,202.145,465.589,198.11z
	 M438.297,247.226c0-10.428,2.785-20.213,7.632-28.673l9.738,9.519c-6.663,5.516-12.18,12.364-16.159,20.126h-1.211V247.226z
	 M427.482,253.987h16.826v18.087h-16.826V253.987z M427.482,277.864h16.887v34.021h-16.887V277.864z M424.586,317.676h22.677h1.203
	l-4.419,15.116h-16.244l-4.42-15.116H424.586z M443.322,338.583v71.731h-14.796v-71.731H443.322z M454.644,313.045
	c-0.546-0.729-1.404-1.159-2.315-1.159h-2.17v-60.793c0-1.599-1.297-2.895-2.896-2.895h-0.06h-1.108
	c10.024-17.288,28.719-28.949,50.101-28.949c21.383,0,40.076,11.661,50.101,28.949h-0.646c-1.599,0-2.895,1.295-2.895,2.895v23.941
	v36.852h-2.171c-0.911,0-1.769,0.43-2.316,1.159c-0.547,0.729-0.718,1.674-0.463,2.549l5.996,20.512v74.568h-94.69v-74.568
	l5.998-20.512C455.363,314.717,455.193,313.772,454.644,313.045z M353.136,410.314v-71.731h14.795v71.731H353.136z M373.074,317.676
	l-4.42,15.116H352.41l-4.42-15.116h1.204h22.677H373.074z M352.089,311.886v-33.957h16.887v33.957H352.089z M368.975,253.987v18.152
	h-16.887v-18.152H368.975z M357.637,247.226v0.972h-1.211c-3.941-7.689-9.396-14.479-15.973-19.969l9.814-9.221
	C354.953,227.362,357.637,236.984,357.637,247.226z M330.921,198.48c6.358,4.081,11.864,9.365,16.202,15.536l-11.349,10.664
	c-4.048-2.79-8.426-5.132-13.07-6.936L330.921,198.48z M302.633,189.4c8.326,0.411,16.185,2.603,23.229,6.18l-8.669,20.32
	c-4.66-1.331-9.532-2.144-14.561-2.372V189.4z M296.844,189.4v24.129c-4.792,0.216-9.446,0.964-13.906,2.186l-8.722-20.442
	C281.105,191.875,288.758,189.801,296.844,189.4z M269.134,198.11l8.275,19.399c-4.808,1.808-9.338,4.182-13.516,7.04
	l-11.226-10.971C257.088,207.41,262.684,202.145,269.134,198.11z M241.84,247.226c0-10.428,2.786-20.213,7.631-28.673l9.738,9.519
	c-6.662,5.516-12.18,12.364-16.16,20.126h-1.209V247.226L241.84,247.226z M231.025,253.987h16.827v18.087h-16.827V253.987z
	 M231.025,277.864h16.887v34.021h-16.887V277.864z M228.129,317.676h22.678h1.203l-4.42,15.116h-16.245l-4.42-15.116H228.129z
	 M246.866,338.583v71.731H232.07v-71.731H246.866z M258.188,313.045c-0.546-0.729-1.404-1.159-2.317-1.159h-2.17v-60.793
	c0-1.599-1.295-2.895-2.895-2.895h-0.06h-1.107c10.024-17.288,28.719-28.949,50.101-28.949c21.383,0,40.075,11.661,50.1,28.949
	h-0.646c-1.599,0-2.895,1.295-2.895,2.895v23.941v36.852h-2.171c-0.912,0-1.77,0.43-2.316,1.159s-0.718,1.674-0.463,2.549
	l5.997,20.512v74.568h-94.691v-74.568l5.997-20.512C258.907,314.717,258.735,313.772,258.188,313.045z M156.678,410.314v-71.731
	h14.795v71.731H156.678z M176.618,317.676l-4.42,15.116h-16.244l-4.42-15.116h1.204h22.677H176.618z M155.632,311.886v-33.957
	h16.887v33.957H155.632z M172.519,253.987v18.152h-16.887v-18.152H172.519z M161.181,247.226v0.972h-1.209
	c-3.942-7.689-9.396-14.479-15.974-19.969l9.815-9.221C158.497,227.362,161.181,236.984,161.181,247.226z M134.465,198.48
	c6.356,4.081,11.864,9.365,16.202,15.536l-11.349,10.664c-4.046-2.79-8.425-5.132-13.071-6.936L134.465,198.48z M106.177,189.4
	c8.325,0.411,16.185,2.603,23.229,6.18l-8.668,20.32c-4.66-1.331-9.533-2.144-14.559-2.372V189.4H106.177z M100.387,189.4v24.129
	c-4.792,0.216-9.445,0.964-13.905,2.186l-8.722-20.442C84.648,191.875,92.301,189.801,100.387,189.4z M72.677,198.11l8.275,19.399
	c-4.807,1.808-9.339,4.182-13.515,7.04L56.21,213.578C60.631,207.41,66.227,202.145,72.677,198.11z M45.384,247.226
	c0-10.428,2.786-20.213,7.631-28.673l9.738,9.519c-6.663,5.516-12.18,12.364-16.16,20.126h-1.209V247.226z M34.567,253.987h16.826
	v18.087H34.567V253.987z M34.567,277.864h16.887v34.021H34.567V277.864z M31.673,317.676h22.676h1.204l-4.42,15.116H34.888
	l-4.42-15.116H31.673z M50.408,338.583v71.731H35.614v-71.731H50.408z M61.732,313.045c-0.546-0.729-1.406-1.159-2.317-1.159h-2.171
	v-60.793c0-1.599-1.295-2.895-2.895-2.895h-0.061h-1.107c10.024-17.288,28.72-28.949,50.102-28.949
	c21.382,0,40.075,11.661,50.1,28.949h-0.646c-1.599,0-2.895,1.295-2.895,2.895v23.941v36.852h-2.17c-0.912,0-1.77,0.43-2.317,1.159
	c-0.546,0.729-0.718,1.674-0.462,2.549l5.996,20.512v74.568H56.198v-74.568l5.996-20.512
	C62.45,314.717,62.278,313.772,61.732,313.045z"/>
</svg>
