<?xml version="1.0" encoding="utf-8"?>
<!-- Generator: Adobe Illustrator 15.0.0, SVG Export Plug-In . SVG Version: 6.00 Build 0)  -->
<!DOCTYPE svg PUBLIC "-//W3C//DTD SVG 1.1//EN" "http://www.w3.org/Graphics/SVG/1.1/DTD/svg11.dtd">
<svg version="1.1" id="Capa_1" xmlns="http://www.w3.org/2000/svg" xmlns:xlink="http://www.w3.org/1999/xlink" x="0px" y="0px"
	 width="600px" height="600px" viewBox="0 0 600 600" enable-background="new 0 0 600 600" xml:space="preserve">
<g>
	<path d="M392.354,544.49h-23.019V188.048c0-0.033-0.009-0.064-0.01-0.098c-0.005-0.171-0.023-0.342-0.051-0.511
		c-0.01-0.055-0.018-0.11-0.029-0.166c-0.043-0.196-0.103-0.389-0.178-0.576c-0.019-0.042-0.04-0.081-0.06-0.123
		c-0.068-0.146-0.144-0.287-0.229-0.423c-0.035-0.054-0.072-0.108-0.108-0.161c-0.03-0.042-0.055-0.087-0.087-0.127l-29.014-37.059
		v-36.942c0-1.957-1.586-3.544-3.544-3.544h-10.194V78.663c0-1.957-1.586-3.544-3.544-3.544h-5.614V54.622
		c0-1.957-1.586-3.543-3.544-3.543h-9.59V23.336c0-1.958-1.586-3.544-3.544-3.544c-1.957,0-3.543,1.586-3.543,3.544v27.742h-9.568
		c-1.958,0-3.544,1.586-3.544,3.543v20.498h-5.615c-1.957,0-3.543,1.587-3.543,3.544v29.656h-10.194
		c-1.958,0-3.544,1.587-3.544,3.544v36.942l-29.013,37.059c-0.032,0.042-0.058,0.086-0.088,0.129
		c-0.037,0.052-0.074,0.105-0.107,0.16c-0.088,0.138-0.165,0.28-0.231,0.426c-0.019,0.041-0.042,0.078-0.058,0.119
		c-0.078,0.188-0.137,0.382-0.181,0.578c-0.012,0.053-0.019,0.107-0.027,0.162c-0.03,0.171-0.049,0.344-0.053,0.517
		c0,0.032-0.01,0.062-0.01,0.094V544.49h-23.029c-1.956,0-3.544,1.587-3.544,3.544v28.63c0,1.958,1.588,3.544,3.544,3.544h184.707
		c1.958,0,3.544-1.586,3.544-3.544v-28.63C395.898,546.077,394.312,544.49,392.354,544.49z M237.764,191.592h124.482v121.651
		H237.764V191.592z M309.584,58.166v16.954h-19.158V58.166H309.584z M286.882,82.207h26.246h5.614v26.112h-37.475V82.207H286.882z
		 M277.724,115.407h44.562h10.194v31.077H267.53v-31.077H277.724z M265.713,153.571H334.3l24.216,30.933h-117.02L265.713,153.571z
		 M237.764,320.331h124.482V544.49H237.764V320.331z M388.811,573.12h-177.62v-21.542h23.029h131.57h23.019v21.542H388.811z"/>
	<path d="M299.993,199.61c-27.998,0-50.776,22.778-50.776,50.777c0,28.003,22.778,50.785,50.776,50.785
		c28.007,0,50.791-22.782,50.791-50.785C350.784,222.389,328,199.61,299.993,199.61z M299.993,294.085
		c-24.091,0-43.689-19.604-43.689-43.698c0-24.091,19.6-43.689,43.689-43.689c24.099,0,43.703,19.598,43.703,43.689
		C343.697,274.482,324.093,294.085,299.993,294.085z"/>
	<path d="M264.513,343.394c-1.957,0-3.544,1.586-3.544,3.544V527.06c0,1.958,1.587,3.544,3.544,3.544
		c1.958,0,3.544-1.586,3.544-3.544V346.938C268.057,344.979,266.47,343.394,264.513,343.394z"/>
	<path d="M288.018,343.394c-1.958,0-3.544,1.586-3.544,3.544V527.06c0,1.958,1.586,3.544,3.544,3.544
		c1.957,0,3.544-1.586,3.544-3.544V346.938C291.562,344.979,289.975,343.394,288.018,343.394z"/>
	<path d="M311.519,343.394c-1.958,0-3.544,1.586-3.544,3.544V527.06c0,1.958,1.586,3.544,3.544,3.544
		c1.956,0,3.544-1.586,3.544-3.544V346.938C315.063,344.979,313.475,343.394,311.519,343.394z"/>
	<path d="M335.023,343.394c-1.957,0-3.543,1.586-3.543,3.544V527.06c0,1.958,1.586,3.544,3.543,3.544
		c1.958,0,3.544-1.586,3.544-3.544V346.938C338.567,344.979,336.982,343.394,335.023,343.394z"/>
	<path d="M299.994,246.844h-28.317c-1.956,0-3.544,1.586-3.544,3.544s1.588,3.544,3.544,3.544h24.774v26.605
		c0,1.958,1.586,3.544,3.543,3.544c1.958,0,3.544-1.586,3.544-3.544v-30.149C303.538,248.43,301.952,246.844,299.994,246.844z"/>
</g>
</svg>
