<?xml version="1.0" encoding="utf-8"?>
<!-- Generator: Adobe Illustrator 15.0.0, SVG Export Plug-In . SVG Version: 6.00 Build 0)  -->
<!DOCTYPE svg PUBLIC "-//W3C//DTD SVG 1.1//EN" "http://www.w3.org/Graphics/SVG/1.1/DTD/svg11.dtd">
<svg version="1.1" id="Capa_1" xmlns="http://www.w3.org/2000/svg" xmlns:xlink="http://www.w3.org/1999/xlink" x="0px" y="0px"
	 width="600px" height="600px" viewBox="0 0 600 600" enable-background="new 0 0 600 600" xml:space="preserve">
<path d="M421.532,522.094l-2.989-8.18l-24.966-346.198c-0.01-0.156-0.035-0.325-0.068-0.486v-52.507
	c6.498-1.745,11.108-7.662,11.108-14.479c0-8.275-6.733-15.008-15.007-15.008c-8.274,0-15.002,6.733-15.002,15.008
	c0,6.817,4.604,12.732,11.102,14.479l0.016,53.604L369.24,273.083l-22.652-159.401c-0.031-0.214-0.085-0.418-0.143-0.618v-53.62
	c6.492-1.742,11.098-7.663,11.098-14.485c0-8.273-6.728-15.001-15.002-15.001c-8.275,0-15.007,6.728-15.007,15.001
	c0,6.821,4.61,12.743,11.106,14.485v54.713c0,0.282,0.037,0.568,0.105,0.867l-10.246,126.129L300.378,228.2
	c-0.146-0.057-0.287-0.103-0.638-0.194l-0.345-0.063c-0.146-0.015-0.305-0.021-0.444-0.021l-1.033,0.142
	c-0.157,0.046-0.304,0.094-0.281,0.099l-27.774,12.775l-8.67-126.841V59.443c6.497-1.736,11.103-7.657,11.103-14.485
	c0-8.273-6.727-15.001-15.002-15.001c-8.274,0-15.009,6.728-15.009,15.001c0,6.821,4.605,12.743,11.105,14.485l0.015,54.388
	L230.76,273.076L214.186,167.55c-0.017-0.146-0.042-0.286-0.075-0.428v-52.404c6.498-1.745,11.107-7.667,11.107-14.483
	c0-8.275-6.732-15.002-15.006-15.002c-8.275,0-15.003,6.728-15.003,15.002c0,6.817,4.604,12.737,11.103,14.483l0.006,54.619
	l-24.866,344.571l-3.005,8.19c-0.15,0.434-0.224,0.879-0.224,1.325v42.715l0.026,0.355l1.344-0.041l0,0l-1.297,0.412
	c0.03,0.148,0.067,0.294,0.173,0.597c0.053,0.172,0.124,0.319,0.203,0.471l0.168,0.297c0.136,0.215,0.224,0.298,0.209,0.271
	l0.256,0.335c0.109,0.113,0.224,0.208,0.575,0.491c0.178,0.136,0.344,0.23,0.344,0.194l0.378,0.219
	c0.219,0.088,0.454,0.156,0.674,0.204c0.263,0.068,0.538,0.099,0.854,0.099h89.707c2.154,0,3.904-1.751,3.884-4.202v-36.862
	c0-4.208,3.424-7.633,7.633-7.633c4.207,0,7.626,3.425,7.626,7.633v37.16c0,2.149,1.75,3.9,3.899,3.9h10.256
	c2.147,0,3.898-1.751,3.898-3.9v-37.16c0-4.208,3.424-7.633,7.633-7.633c3.334,0,6.304,2.208,7.286,5.384l0.345,39.435l0.083,0.747
	c0.032,0.167,0.086,0.329,0.128,0.435l0.107,0.325l1.229-0.528l-1.004,0.967l0.271,0.392l1.536,1.211
	c0.126,0.059,0.262,0.105,0.402,0.139l0.356,0.109c0.261,0.053,0.522,0.079,0.788,0.079h89.699c0.276,0,0.542-0.026,0.819-0.085
	c0.258-0.057,0.508-0.137,0.899-0.319c0.173-0.087,0.345-0.183,0.68-0.438c0.136-0.1,0.262-0.226,0.141-0.143l0.298-0.252
	l0.832-1.442l0.215-43.94C421.773,522.96,421.687,522.506,421.532,522.094z M327.49,249.29l-0.977,10.873l-23.678-11.538V237.91
	L327.49,249.29z M342.534,37.759c3.968,0,7.198,3.229,7.198,7.202c0,3.973-3.23,7.209-7.198,7.209c-3.972,0-7.208-3.236-7.208-7.209
	C335.326,40.988,338.563,37.759,342.534,37.759z M389.61,93.035c3.966,0,7.196,3.236,7.196,7.209c0,3.973-3.23,7.202-7.196,7.202
	c-3.974,0-7.21-3.229-7.21-7.202C382.4,96.271,385.637,93.035,389.61,93.035z M365.297,299.376c0.21,1.985,1.876,3.48,3.879,3.48
	c2.007,0,3.675-1.495,3.874-3.412l15.46-96.602l11.432,158.956c-2.353-5.211-7.601-8.843-13.681-8.843
	c-8.273,0-15.006,6.725-15.006,15.001c0,6.812,4.609,12.733,11.107,14.49v53.704l-26.96,48.814l-24.631-68.201l-0.601-68.1
	l13.773-197.852L365.297,299.376z M386.259,360.758c3.979,0,7.214,3.229,7.214,7.203c0,3.973-3.235,7.207-7.214,7.207
	c-3.974,0-7.204-3.234-7.204-7.207C379.055,363.987,382.285,360.758,386.259,360.758z M390.163,436.462v-54.017
	c5.133-1.38,9.09-5.368,10.523-10.35l8.326,115.821L390.163,436.462z M358.56,495.388l26.981-48.862l28.428,77.59v38.122H358.56
	V495.388L358.56,495.388z M307.387,352.049l15.087,9.096l0.297,33.481L307.387,352.049z M292.584,352.049l-17.223,47.673
	l-0.073-37.249L292.584,352.049z M299.984,269.247c3.975,0,7.209,3.23,7.209,7.204c0,3.973-3.234,7.202-7.209,7.202
	c-3.972,0-7.2-3.229-7.2-7.202C292.783,272.477,296.012,269.247,299.984,269.247z M322.362,348.553l0.032,3.429l-18.512-11.159
	v-49.888c6.502-1.745,11.115-7.667,11.115-14.484c0-8.275-6.733-15.008-15.009-15.008c-8.273,0-15.006,6.733-15.006,15.008
	c0,6.817,4.604,12.738,11.103,14.484v49.888l-20.853,12.576l-4.021-84.502l27.722-13.496l27.922,13.611L322.362,348.553z
	 M316.643,513.552c-8.509,0-15.436,6.923-15.436,15.427v33.26h-2.445v-33.26c0-8.504-6.921-15.427-15.426-15.427
	c-8.518,0-15.442,6.923-15.442,15.427v33.26h-18.677v-67.17l50.765-140.558l50.766,140.564v67.163h-18.676v-33.26
	C332.075,520.473,325.155,513.552,316.643,513.552z M270.365,249.29l24.666-11.378v10.715l-23.69,11.538L270.365,249.29z
	 M210.194,93.035c3.974,0,7.21,3.236,7.21,7.209c0,3.973-3.236,7.202-7.21,7.202c-3.972,0-7.202-3.229-7.202-7.202
	C202.991,96.271,206.222,93.035,210.194,93.035z M213.712,360.758c3.974,0,7.203,3.229,7.203,7.203c0,3.973-3.229,7.207-7.203,7.207
	s-7.202-3.234-7.202-7.207C206.51,363.987,209.739,360.758,213.712,360.758z M209.814,382.445v54.017l-18.855,51.461l8.327-115.831
	C200.716,377.065,204.673,381.055,209.814,382.445z M217.613,382.445c6.496-1.745,11.102-7.669,11.102-14.49
	c0-8.275-6.728-15.001-15.002-15.001c-6.078,0-11.332,3.632-13.685,8.844l11.43-158.962l15.458,96.534
	c0.205,1.985,1.871,3.486,3.878,3.486c1.997,0,3.665-1.495,3.872-3.429l21.166-146.799l6.526,93.911
	c-0.024,0.231-0.029,0.488-0.004,0.69l5.11,107.132l0.138,66.832l-23.031,63.771l-26.961-48.814v-53.703H217.613z M257.275,37.759
	c3.973,0,7.202,3.229,7.202,7.202c0,3.973-3.229,7.209-7.202,7.209c-3.974,0-7.204-3.236-7.204-7.209
	C250.071,40.988,253.302,37.759,257.275,37.759z M241.416,495.388v66.85h-55.414v-38.122l28.427-77.59L241.416,495.388z
	 M299.451,229.317L299.451,229.317L299.451,229.317L299.451,229.317z"/>
</svg>
