<?xml version="1.0" encoding="utf-8"?>
<!-- Generator: Adobe Illustrator 15.0.0, SVG Export Plug-In . SVG Version: 6.00 Build 0)  -->
<!DOCTYPE svg PUBLIC "-//W3C//DTD SVG 1.1//EN" "http://www.w3.org/Graphics/SVG/1.1/DTD/svg11.dtd">
<svg version="1.1" id="Capa_1" xmlns="http://www.w3.org/2000/svg" xmlns:xlink="http://www.w3.org/1999/xlink" x="0px" y="0px"
	 width="600px" height="600px" viewBox="0 0 600 600" enable-background="new 0 0 600 600" xml:space="preserve">
<g>
	<path d="M52.851,297.709h-3.439c-0.713,0-1.29,0.577-1.29,1.29v3.439c0,0.712,0.577,1.289,1.29,1.289h3.439
		c0.712,0,1.29-0.577,1.29-1.289v-3.439C54.141,298.287,53.563,297.709,52.851,297.709z"/>
	<path d="M77.712,297.709h-3.439c-0.712,0-1.29,0.577-1.29,1.29v3.439c0,0.712,0.578,1.289,1.29,1.289h3.439
		c0.713,0,1.29-0.577,1.29-1.289v-3.439C79.002,298.287,78.425,297.709,77.712,297.709z"/>
	<path d="M101.842,297.709h-3.439c-0.712,0-1.29,0.577-1.29,1.29v3.439c0,0.712,0.578,1.289,1.29,1.289h3.439
		c0.713,0,1.29-0.577,1.29-1.289v-3.439C103.131,298.287,102.554,297.709,101.842,297.709z"/>
	<path d="M125.971,297.709h-3.439c-0.712,0-1.29,0.577-1.29,1.29v3.439c0,0.712,0.578,1.289,1.29,1.289h3.439
		c0.713,0,1.29-0.577,1.29-1.289v-3.439C127.26,298.287,126.684,297.709,125.971,297.709z"/>
	<path d="M150.345,297.709h-3.439c-0.713,0-1.29,0.577-1.29,1.29v3.439c0,0.712,0.577,1.289,1.29,1.289h3.439
		c0.712,0,1.29-0.577,1.29-1.289v-3.439C151.635,298.287,151.057,297.709,150.345,297.709z"/>
	<path d="M174.962,297.709h-3.439c-0.713,0-1.29,0.577-1.29,1.29v3.439c0,0.712,0.577,1.289,1.29,1.289h3.439
		c0.712,0,1.29-0.577,1.29-1.289v-3.439C176.252,298.287,175.674,297.709,174.962,297.709z"/>
	<path d="M199.092,297.709h-3.439c-0.713,0-1.29,0.577-1.29,1.29v3.439c0,0.712,0.577,1.289,1.29,1.289h3.439
		c0.712,0,1.29-0.577,1.29-1.289v-3.439C200.382,298.287,199.804,297.709,199.092,297.709z"/>
	<path d="M223.709,297.709h-3.439c-0.713,0-1.29,0.577-1.29,1.29v3.439c0,0.712,0.577,1.289,1.29,1.289h3.439
		c0.712,0,1.29-0.577,1.29-1.289v-3.439C224.999,298.287,224.421,297.709,223.709,297.709z"/>
	<path d="M567.12,276.789h-13.109c-1.425,0-2.579,1.155-2.579,2.579v9.887h-6.048v-9.887c0-1.424-1.154-2.579-2.579-2.579h-13.107
		c-1.425,0-2.58,1.155-2.58,2.579v9.887h-6.047v-9.887c0-1.424-1.154-2.579-2.579-2.579h-13.108c-1.425,0-2.579,1.155-2.579,2.579
		v9.887h-6.047v-9.887c0-1.424-1.154-2.579-2.579-2.579h-13.109c-1.425,0-2.579,1.155-2.579,2.579v9.887h-6.047v-9.887
		c0-1.424-1.154-2.579-2.579-2.579h-13.108c-1.425,0-2.579,1.155-2.579,2.579v9.887h-6.048v-9.887c0-1.424-1.154-2.579-2.579-2.579
		H432.44c-1.424,0-2.579,1.155-2.579,2.579v9.887h-6.047v-9.887c0-1.424-1.154-2.579-2.579-2.579h-13.107
		c-1.425,0-2.58,1.155-2.58,2.579v9.887H399.5v-9.887c0-1.424-1.154-2.579-2.579-2.579h-13.108c-1.425,0-2.579,1.155-2.579,2.579
		v9.887h-6.048v-9.887c0-1.424-1.154-2.579-2.579-2.579h-10.529v-42.558c0-0.18-0.019-0.355-0.054-0.524v-29.218
		c0-1.424-1.154-2.579-2.579-2.579h-11.576c-1.425,0-2.58,1.155-2.58,2.579v9.887h-4.737v-9.887c0-1.424-1.154-2.579-2.579-2.579
		h-11.578c-1.425,0-2.579,1.155-2.579,2.579v9.887h-4.737v-9.887c0-1.424-1.154-2.579-2.579-2.579h-11.577
		c-1.425,0-2.579,1.155-2.579,2.579v9.887h-4.737v-9.887c0-1.424-1.154-2.579-2.579-2.579h-11.578c-1.425,0-2.58,1.155-2.58,2.579
		v9.887h-4.737v-9.887c0-1.424-1.155-2.579-2.58-2.579h-11.576c-1.425,0-2.58,1.155-2.58,2.579v9.887h-4.739v-9.887
		c0-1.424-1.154-2.579-2.579-2.579h-11.577c-1.424,0-2.579,1.155-2.579,2.579v29.742v42.558h-10.529
		c-1.425,0-2.579,1.155-2.579,2.579v9.887h-6.048v-9.887c0-1.424-1.154-2.579-2.579-2.579h-13.108c-1.425,0-2.58,1.155-2.58,2.579
		v9.887h-6.047v-9.887c0-1.424-1.155-2.579-2.579-2.579h-13.109c-1.425,0-2.579,1.155-2.579,2.579v9.887h-6.047v-9.887
		c0-1.424-1.155-2.579-2.58-2.579H154.45c-1.424,0-2.579,1.155-2.579,2.579v9.887h-6.047v-9.887c0-1.424-1.155-2.579-2.579-2.579
		h-13.109c-1.424,0-2.58,1.155-2.58,2.579v9.887h-6.047v-9.887c0-1.424-1.155-2.579-2.579-2.579h-13.109
		c-1.424,0-2.579,1.155-2.579,2.579v9.887h-6.047v-9.887c0-1.424-1.154-2.579-2.58-2.579H81.508c-1.424,0-2.58,1.155-2.58,2.579
		v9.887h-6.047v-9.887c0-1.424-1.154-2.579-2.579-2.579H57.195c-1.425,0-2.58,1.155-2.58,2.579v9.887h-6.047v-9.887
		c0-1.424-1.155-2.579-2.58-2.579H32.88c-1.425,0-2.579,1.155-2.579,2.579v29.742v86.401c0,1.426,1.154,2.579,2.579,2.579h207.621
		h45.28h27.45h46.267H567.12c1.425,0,2.579-1.153,2.579-2.579v-86.401v-29.742C569.699,277.943,568.545,276.789,567.12,276.789z
		 M35.46,311.689h202.462v4.041H35.46V311.689z M243.081,279.368V236.81h113.838v42.558v9.887H243.081V279.368z M243.081,294.414
		h113.838v2.006H243.081V294.414z M362.077,311.689h202.464v4.041H362.077V311.689z M370.027,281.947v9.887
		c0,1.424,1.155,2.579,2.58,2.579h11.206c1.425,0,2.579-1.155,2.579-2.579v-9.887h7.95v9.887c0,1.424,1.154,2.579,2.579,2.579
		h11.206c1.425,0,2.579-1.155,2.579-2.579v-9.887h7.949v9.887c0,1.424,1.154,2.579,2.579,2.579h11.205
		c1.426,0,2.58-1.155,2.58-2.579v-9.887h7.95v9.887c0,1.424,1.154,2.579,2.579,2.579h11.206c1.425,0,2.579-1.155,2.579-2.579v-9.887
		h7.95v9.887c0,1.424,1.154,2.579,2.579,2.579h11.205c1.425,0,2.579-1.155,2.579-2.579v-9.887h7.95v9.887
		c0,1.424,1.154,2.579,2.58,2.579h11.205c1.425,0,2.579-1.155,2.579-2.579v-9.887h7.95v9.887c0,1.424,1.154,2.579,2.579,2.579
		h11.206c1.425,0,2.579-1.155,2.579-2.579v-9.887h7.949v9.887c0,1.424,1.154,2.579,2.579,2.579h11.206
		c1.425,0,2.58-1.155,2.58-2.579v-9.887h7.95v24.583H362.077v-24.583H370.027z M249.499,207.068v9.887
		c0,1.424,1.155,2.579,2.579,2.579h9.897c1.424,0,2.579-1.155,2.579-2.579v-9.887h6.418v9.887c0,1.424,1.154,2.579,2.579,2.579
		h9.896c1.425,0,2.579-1.155,2.579-2.579v-9.887h6.42v9.887c0,1.424,1.154,2.579,2.579,2.579h9.896c1.425,0,2.579-1.155,2.579-2.579
		v-9.887h6.419v9.887c0,1.424,1.154,2.579,2.579,2.579h9.896c1.425,0,2.58-1.155,2.58-2.579v-9.887h6.418v9.887
		c0,1.424,1.155,2.579,2.58,2.579h9.896c1.425,0,2.579-1.155,2.579-2.579v-9.887h6.418v24.583H243.081v-24.583H249.499z
		 M35.46,281.947h7.949v9.887c0,1.424,1.155,2.579,2.579,2.579h11.207c1.424,0,2.579-1.155,2.579-2.579v-9.887h7.95v9.887
		c0,1.424,1.155,2.579,2.579,2.579h11.206c1.425,0,2.579-1.155,2.579-2.579v-9.887h7.95v9.887c0,1.424,1.155,2.579,2.579,2.579
		h11.206c1.425,0,2.58-1.155,2.58-2.579v-9.887h7.95v9.887c0,1.424,1.154,2.579,2.579,2.579h11.206c1.425,0,2.579-1.155,2.579-2.579
		v-9.887h7.95v9.887c0,1.424,1.155,2.579,2.58,2.579h11.205c1.425,0,2.58-1.155,2.58-2.579v-9.887h7.95v9.887
		c0,1.424,1.154,2.579,2.579,2.579h11.206c1.424,0,2.579-1.155,2.579-2.579v-9.887h7.95v9.887c0,1.424,1.155,2.579,2.58,2.579
		h11.206c1.424,0,2.579-1.155,2.579-2.579v-9.887h7.949v9.887c0,1.424,1.155,2.579,2.58,2.579h11.206
		c1.424,0,2.579-1.155,2.579-2.579v-9.887h7.95v24.583H35.46V281.947z M35.46,320.89h202.462v72.042H35.46V320.89z M243.081,309.109
		v-7.531h113.838v7.531v83.822h-41.108v-43.732l0.008-0.126c0.013-0.187,0.023-0.372,0.023-0.564
		c0-9.007-7.328-16.334-16.335-16.334s-16.335,7.327-16.335,16.334c0,0.192,0.011,0.378,0.023,0.564l0.007,43.858h-40.121V309.109z
		 M288.361,392.932v-43.806c0-0.039,0-0.078-0.002-0.114l-0.017-0.286c-0.005-0.072-0.012-0.143-0.012-0.217
		c0-6.162,5.014-11.176,11.177-11.176s11.177,5.014,11.177,11.176c0,0.074-0.007,0.145-0.012,0.217l-0.018,0.286
		c-0.001,0.036-0.002,0.075-0.002,0.114v43.806H288.361z M362.077,392.932V320.89h202.464v72.042H362.077z"/>
	<path d="M376.031,303.728h3.438c0.712,0,1.29-0.577,1.29-1.289v-3.439c0-0.712-0.578-1.29-1.29-1.29h-3.438
		c-0.712,0-1.29,0.577-1.29,1.29v3.439C374.74,303.15,375.319,303.728,376.031,303.728z"/>
	<path d="M400.891,303.728h3.439c0.712,0,1.289-0.577,1.289-1.289v-3.439c0-0.712-0.577-1.29-1.289-1.29h-3.439
		c-0.712,0-1.289,0.577-1.289,1.29v3.439C399.602,303.15,400.179,303.728,400.891,303.728z"/>
	<path d="M425.022,303.728h3.438c0.712,0,1.29-0.577,1.29-1.289v-3.439c0-0.712-0.578-1.29-1.29-1.29h-3.438
		c-0.712,0-1.29,0.577-1.29,1.29v3.439C423.732,303.15,424.31,303.728,425.022,303.728z"/>
	<path d="M449.151,303.728h3.438c0.712,0,1.29-0.577,1.29-1.289v-3.439c0-0.712-0.578-1.29-1.29-1.29h-3.438
		c-0.713,0-1.29,0.577-1.29,1.29v3.439C447.861,303.15,448.438,303.728,449.151,303.728z"/>
	<path d="M473.524,303.728h3.439c0.712,0,1.289-0.577,1.289-1.289v-3.439c0-0.712-0.577-1.29-1.289-1.29h-3.439
		c-0.712,0-1.289,0.577-1.289,1.29v3.439C472.235,303.15,472.812,303.728,473.524,303.728z"/>
	<path d="M498.141,303.728h3.439c0.712,0,1.29-0.577,1.29-1.289v-3.439c0-0.712-0.578-1.29-1.29-1.29h-3.439
		c-0.712,0-1.289,0.577-1.289,1.29v3.439C496.852,303.15,497.429,303.728,498.141,303.728z"/>
	<path d="M522.271,303.728h3.439c0.712,0,1.289-0.577,1.289-1.289v-3.439c0-0.712-0.577-1.29-1.289-1.29h-3.439
		c-0.712,0-1.29,0.577-1.29,1.29v3.439C520.981,303.15,521.559,303.728,522.271,303.728z"/>
	<path d="M546.888,303.728h3.439c0.712,0,1.289-0.577,1.289-1.289v-3.439c0-0.712-0.577-1.29-1.289-1.29h-3.439
		c-0.712,0-1.289,0.577-1.289,1.29v3.439C545.599,303.15,546.176,303.728,546.888,303.728z"/>
	<path d="M308.311,243.115h-16.622c-1.425,0-2.579,1.155-2.579,2.579v33.674c0,1.424,1.154,2.58,2.579,2.58h16.622
		c1.425,0,2.579-1.155,2.579-2.58v-33.674C310.89,244.27,309.736,243.115,308.311,243.115z M305.732,276.789h-11.463v-28.515h11.463
		V276.789z"/>
	<path d="M271.735,243.115h-16.621c-1.425,0-2.58,1.155-2.58,2.579v33.674c0,1.424,1.155,2.58,2.58,2.58h16.621
		c1.425,0,2.58-1.155,2.58-2.58v-33.674C274.314,244.27,273.159,243.115,271.735,243.115z M269.156,276.789h-11.462v-28.515h11.462
		V276.789z"/>
	<path d="M344.887,243.115h-16.621c-1.425,0-2.579,1.155-2.579,2.579v33.674c0,1.424,1.154,2.58,2.579,2.58h16.621
		c1.425,0,2.579-1.155,2.579-2.58v-33.674C347.466,244.27,346.312,243.115,344.887,243.115z M342.307,276.789h-11.462v-28.515
		h11.462V276.789z"/>
	<path d="M261.721,228.642h3.439c0.712,0,1.29-0.577,1.29-1.29v-3.439c0-0.712-0.578-1.29-1.29-1.29h-3.439
		c-0.712,0-1.29,0.577-1.29,1.29v3.439C260.431,228.065,261.009,228.642,261.721,228.642z"/>
	<path d="M286.582,228.642h3.439c0.712,0,1.29-0.577,1.29-1.29v-3.439c0-0.712-0.578-1.29-1.29-1.29h-3.439
		c-0.712,0-1.29,0.577-1.29,1.29v3.439C285.292,228.065,285.869,228.642,286.582,228.642z"/>
	<path d="M310.712,228.642h3.438c0.712,0,1.29-0.577,1.29-1.29v-3.439c0-0.712-0.578-1.29-1.29-1.29h-3.438
		c-0.712,0-1.29,0.577-1.29,1.29v3.439C309.422,228.065,310,228.642,310.712,228.642z"/>
	<path d="M334.841,228.642h3.438c0.712,0,1.29-0.577,1.29-1.29v-3.439c0-0.712-0.578-1.29-1.29-1.29h-3.438
		c-0.712,0-1.29,0.577-1.29,1.29v3.439C333.551,228.065,334.129,228.642,334.841,228.642z"/>
	<path d="M265.16,313.581h-3.439c-0.712,0-1.29,0.578-1.29,1.29v3.439c0,0.712,0.578,1.289,1.29,1.289h3.439
		c0.712,0,1.29-0.577,1.29-1.289v-3.439C266.449,314.159,265.872,313.581,265.16,313.581z"/>
	<path d="M286.582,319.6h3.439c0.712,0,1.29-0.577,1.29-1.289v-3.439c0-0.712-0.578-1.29-1.29-1.29h-3.439
		c-0.712,0-1.29,0.578-1.29,1.29v3.439C285.292,319.022,285.869,319.6,286.582,319.6z"/>
	<path d="M310.712,319.6h3.438c0.712,0,1.29-0.577,1.29-1.289v-3.439c0-0.712-0.578-1.29-1.29-1.29h-3.438
		c-0.712,0-1.29,0.578-1.29,1.29v3.439C309.422,319.022,310,319.6,310.712,319.6z"/>
	<path d="M334.841,319.6h3.438c0.712,0,1.29-0.577,1.29-1.289v-3.439c0-0.712-0.578-1.29-1.29-1.29h-3.438
		c-0.712,0-1.29,0.578-1.29,1.29v3.439C333.551,319.022,334.129,319.6,334.841,319.6z"/>
</g>
</svg>
