<?xml version="1.0" encoding="utf-8"?>
<!-- Generator: Adobe Illustrator 15.0.0, SVG Export Plug-In . SVG Version: 6.00 Build 0)  -->
<!DOCTYPE svg PUBLIC "-//W3C//DTD SVG 1.1//EN" "http://www.w3.org/Graphics/SVG/1.1/DTD/svg11.dtd">
<svg version="1.1" id="Capa_1" xmlns="http://www.w3.org/2000/svg" xmlns:xlink="http://www.w3.org/1999/xlink" x="0px" y="0px"
	 width="600px" height="600px" viewBox="0 0 600 600" enable-background="new 0 0 600 600" xml:space="preserve">
<g>
	<path fill="#222221" d="M300.002,119.266c-5.538,0-10.043,4.505-10.043,10.042s4.505,10.041,10.043,10.041
		c5.537,0,10.04-4.505,10.04-10.041S305.538,119.266,300.002,119.266z M300.002,131.58c-1.252,0-2.271-1.02-2.271-2.272
		c0-1.251,1.018-2.269,2.271-2.269s2.271,1.018,2.271,2.269C302.273,130.56,301.254,131.58,300.002,131.58z"/>
	<path fill="#222221" d="M424.536,453.803c3.207-5.319,4.897-11.424,4.897-17.727V304.105c0-21.2-8.217-41.211-23.138-56.348
		c-14.023-14.229-32.51-22.632-52.296-23.828c2.081-1.834,3.339-4.512,3.339-7.346V115.775c0-31.617-25.721-57.339-57.337-57.339
		c-31.618,0-57.34,25.722-57.34,57.339v100.809c0,2.834,1.256,5.512,3.337,7.346c-19.785,1.198-38.272,9.602-52.294,23.83
		c-14.921,15.135-23.138,35.146-23.138,56.346v131.971c0,6.244,1.711,12.345,4.959,17.71c-18.671,5.792-31.618,23.268-31.618,42.88
		c0,24.757,20.143,44.897,44.9,44.897h222.383c24.759,0,44.901-20.141,44.901-44.897
		C456.093,477.083,443.173,459.614,424.536,453.803z M300.002,66.208c23.81,0,44.108,16.783,48.636,40.052h-97.275
		C255.89,82.99,276.189,66.208,300.002,66.208z M411.192,533.793H188.808c-20.475,0-37.131-16.655-37.131-37.127
		c0-17.303,12.177-32.466,29.025-36.232c0.39,0.386,0.813,0.783,1.293,1.213c6.306,5.654,14.441,8.768,22.909,8.768h52.712
		c9.416,0,18.506-3.959,24.998-10.876h34.771c6.492,6.917,15.582,10.876,24.998,10.876h52.712c6.296,0,12.454-1.72,17.808-4.976
		c2.324-1.413,4.478-3.094,6.407-5c16.84,3.771,29.013,18.933,29.013,36.228C448.323,517.138,431.667,533.793,411.192,533.793z
		 M323.524,286.758c0,12.97-10.552,23.521-23.523,23.521c-12.971,0-23.523-10.552-23.523-23.521V231.58l47.047,0.016V286.758z
		 M300,318.577c17.546,0,31.82-14.274,31.82-31.819v-55.159l3.712,0.002v55.177c0,19.592-15.94,35.532-35.532,35.532
		s-35.532-15.94-35.532-35.532v-55.203l3.711,0.001v55.182C268.179,304.303,282.454,318.577,300,318.577z M300,330.606
		c24.168,0,43.829-19.661,43.829-43.829v-55.174h2.983v58.994c0,25.813-20.999,46.813-46.812,46.813
		c-25.813,0-46.813-21-46.813-46.813v-59.026l2.983,0.001v55.205C256.171,310.945,275.832,330.606,300,330.606z M340.92,223.76
		h-16.554c4.842-2.28,9.331-5.229,13.398-8.806v1.63C337.765,219.323,338.95,221.93,340.92,223.76z M347.554,218.602
		c-1.112,0-2.017-0.906-2.017-2.018v-9.938c1.472-1.922,2.82-3.932,4.029-6v15.937C349.567,217.696,348.664,218.602,347.554,218.602
		z M349.567,171.865c0,27.332-22.234,49.568-49.565,49.568c-27.332,0-49.568-22.236-49.568-49.568v-56.089
		c0-0.567,0.011-1.144,0.032-1.744h99.068c0.021,0.6,0.032,1.175,0.032,1.744V171.865z M275.635,223.76h-16.558
		c1.971-1.83,3.155-4.437,3.155-7.176v-1.632C266.301,218.53,270.79,221.48,275.635,223.76z M254.463,216.584
		c0,1.112-0.904,2.018-2.016,2.018c-1.11,0-2.013-0.906-2.013-2.018V200.65c1.209,2.068,2.557,4.074,4.029,5.997V216.584z
		 M300,345.708c30.388,0,55.11-24.723,55.11-55.111v-58.776c36.999,3.113,66.551,34.842,66.551,72.285v131.971
		c0,9.36-4.781,17.856-12.79,22.725c-4.144,2.514-8.907,3.842-13.775,3.842h-52.712c-14.65,0-26.568-11.918-26.568-26.566
		s11.918-26.564,26.568-26.564h22.261c2.143,0,3.887-1.744,3.887-3.887v-97.079c0-2.143-1.744-3.887-3.887-3.887
		s-3.886,1.744-3.886,3.887v93.192h-18.375c-18.934,0-34.338,15.404-34.338,34.338c0,5.434,1.323,10.829,3.837,15.689h-23.765
		c2.514-4.86,3.836-10.256,3.836-15.689c0-18.934-15.404-34.338-34.337-34.338h-18.375v-93.192c0-2.143-1.742-3.887-3.883-3.887
		c-2.143,0-3.886,1.744-3.886,3.887v97.079c0,2.143,1.744,3.887,3.886,3.887h22.257c14.65,0,26.568,11.916,26.568,26.564
		s-11.918,26.566-26.568,26.566h-52.712c-6.551,0-12.845-2.408-17.723-6.78c-0.392-0.352-0.737-0.676-1.06-1.002
		c-0.329-0.325-0.655-0.674-1.003-1.062c-4.374-4.879-6.782-11.174-6.782-17.723V304.105c0-37.96,29.02-69.189,66.554-72.281v58.773
		C244.89,320.985,269.612,345.708,300,345.708z"/>
</g>
</svg>
