<?xml version="1.0" encoding="utf-8"?>
<!-- Generator: Adobe Illustrator 15.0.0, SVG Export Plug-In . SVG Version: 6.00 Build 0)  -->
<!DOCTYPE svg PUBLIC "-//W3C//DTD SVG 1.1//EN" "http://www.w3.org/Graphics/SVG/1.1/DTD/svg11.dtd">
<svg version="1.1" id="Capa_1" xmlns="http://www.w3.org/2000/svg" xmlns:xlink="http://www.w3.org/1999/xlink" x="0px" y="0px"
	 width="600px" height="600px" viewBox="0 0 600 600" enable-background="new 0 0 600 600" xml:space="preserve">
<g>
	<path fill="#222221" d="M512.312,310.958H475.93c-0.738-22.332-8.294-43.508-21.896-61.314
		c-13.451-17.606-31.607-30.427-52.555-37.123c-1.161-15.623-13.309-28.233-28.843-30v-15.845h11.43c2.057,0,3.73-1.673,3.73-3.729
		c0-2.056-1.674-3.727-3.73-3.727h-11.43v-7.986c0-2.056-1.671-3.729-3.729-3.729c-2.053,0-3.724,1.673-3.724,3.729v7.986h-11.436
		c-2.053,0-3.724,1.671-3.724,3.727c0,2.056,1.671,3.729,3.724,3.729h11.436v15.845c-15.536,1.765-27.684,14.375-28.848,30
		c-20.941,6.696-39.101,19.517-52.552,37.123c-13.604,17.806-21.16,38.982-21.894,61.314h-28.54V202.791
		c0-1.929-1.571-3.497-3.5-3.497h-9.172c-1.42-26.261-18.862-49.165-43.856-57.535c-1.07-8.883-8.092-16.272-16.89-17.816v-6.887
		h5.424c1.929,0,3.5-1.571,3.5-3.5s-1.571-3.498-3.5-3.498h-5.424v-3.398c0-1.929-1.571-3.5-3.503-3.5
		c-1.927,0-3.498,1.571-3.498,3.5v3.398h-5.424c-1.929,0-3.5,1.568-3.5,3.498s1.571,3.5,3.5,3.5h5.424v6.887
		c-8.8,1.544-15.822,8.933-16.89,17.819c-24.995,8.367-42.436,31.271-43.856,57.532H83.01c-1.93,0-3.5,1.571-3.5,3.5V469.7
		c0,1.929,1.571,3.497,3.5,3.497h27.175c1.932,0,3.502-1.568,3.502-3.497V365.248c0-23.568,19.175-42.743,42.741-42.743
		c23.569,0,42.744,19.175,42.744,42.743V469.7c0,1.929,1.571,3.497,3.498,3.497h23.397v19.913c0,2.057,1.673,3.729,3.729,3.729
		h278.231c2.054,0,3.727-1.673,3.727-3.729V327.31h0.563c4.505,0,8.173-3.667,8.173-8.179
		C520.487,314.624,516.817,310.958,512.312,310.958z M504.296,327.31v162.074h-53.285V327.31H504.296z M443.552,327.31v162.074
		H294.266V327.31H443.552z M286.807,327.31v162.074h-53.284V327.31H286.807z M277.743,274.655c0.83,5.009,5.158,8.852,10.396,8.852
		c5.831,0,10.574-4.745,10.574-10.576s-4.743-10.574-10.574-10.574c-1.625,0-3.15,0.399-4.526,1.059
		c17.539-28.98,49.379-48.507,85.295-48.507c35.919,0,67.763,19.53,85.305,48.507c-1.38-0.657-2.904-1.059-4.532-1.059
		c-5.828,0-10.573,4.743-10.573,10.574s4.745,10.576,10.573,10.576c5.241,0,9.571-3.843,10.401-8.854
		c4.961,11.201,7.93,23.453,8.391,36.306H269.349C269.81,298.105,272.779,285.856,277.743,274.655z M285.023,272.931
		c0-1.72,1.399-3.118,3.115-3.118c1.72,0,3.121,1.398,3.121,3.118c0,1.719-1.401,3.117-3.121,3.117
		C286.422,276.048,285.023,274.65,285.023,272.931z M452.798,272.931c-0.003,1.719-1.399,3.117-3.118,3.117
		c-1.72,0-3.118-1.398-3.118-3.117c0-1.72,1.398-3.118,3.118-3.118C451.398,269.812,452.798,271.211,452.798,272.931z
		 M344.129,210.353c2.204-11.697,12.719-20.595,24.778-20.595c12.063,0,22.581,8.897,24.78,20.595
		c-8.09-1.924-16.416-2.899-24.78-2.899C360.546,207.453,352.221,208.429,344.129,210.353z M226.067,404.244V466.2h-19.894v-61.956
		H226.067z M226.067,386.803v4.764h-19.894v-4.764H226.067z M86.511,270.481v-55.669h41.948v55.669H86.511z M225.509,318.411
		h286.804c0.398,0,0.722,0.324,0.722,0.718c0,0.401-0.326,0.728-0.722,0.728H225.509c-0.396,0-0.719-0.323-0.719-0.723
		C224.79,318.735,225.113,318.411,225.509,318.411z M156.432,315.51c-27.428,0-49.742,22.313-49.742,49.738v8.871H93.406v-19.944
		c0-34.752,28.274-63.024,63.026-63.024c34.751,0,63.023,28.272,63.023,63.024v19.944h-13.282v-8.871
		C206.173,337.823,183.859,315.51,156.432,315.51z M225.509,327.312h0.558v19.465c-0.795-7.539-2.792-14.729-5.796-21.367
		C221.691,326.595,223.518,327.312,225.509,327.312z M226.35,310.958h-0.841c-4.508,0-8.178,3.668-8.178,8.176
		c0,0.181,0.005,0.361,0.019,0.539c-12.053-21.195-34.843-35.52-60.918-35.52c-37.325,0-67.922,29.352-69.918,66.187v-72.858H226.35
		V310.958z M86.511,207.811v-1.517h41.948v1.517H86.511z M99.194,199.296c1.83-29.821,27.207-53.848,57.238-53.848
		c30.028,0,55.403,24.027,57.232,53.848H99.194z M184.404,207.811v-1.517h41.946v1.517H184.404z M226.35,214.812v55.669h-41.946
		v-55.669H226.35z M177.403,214.812v55.669h-41.946v-55.669H177.403z M177.403,206.294v1.517h-41.946v-1.517H177.403z
		 M143.651,139.731c1.878-5.306,7.041-9.089,12.781-9.089c5.739,0,10.899,3.783,12.777,9.089c-4.201-0.852-8.488-1.281-12.777-1.281
		C152.142,138.45,147.852,138.879,143.651,139.731z M86.511,391.566v-4.764h20.176v4.764H86.511z M106.69,466.2H86.511v-61.956
		h20.176L106.69,466.2z"/>
	<path fill="#222221" d="M315.06,283.507c5.831,0,10.574-4.745,10.574-10.576s-4.743-10.574-10.574-10.574
		c-5.827,0-10.57,4.743-10.57,10.574S309.232,283.507,315.06,283.507z M315.06,269.812c1.723,0,3.121,1.398,3.121,3.118
		c0,1.719-1.401,3.117-3.121,3.117c-1.716,0-3.115-1.398-3.115-3.117C311.944,271.211,313.344,269.812,315.06,269.812z"/>
	<path fill="#222221" d="M341.983,283.507c5.832,0,10.574-4.745,10.574-10.576s-4.745-10.574-10.574-10.574
		c-5.828,0-10.573,4.743-10.573,10.574S336.155,283.507,341.983,283.507z M341.983,269.812c1.72,0,3.121,1.398,3.121,3.118
		c0,1.719-1.401,3.117-3.121,3.117c-1.719,0-3.115-1.398-3.115-3.117C338.868,271.211,340.267,269.812,341.983,269.812z"/>
	<path fill="#222221" d="M368.907,283.507c5.832,0,10.576-4.745,10.576-10.576c-0.002-5.831-4.744-10.574-10.576-10.574
		c-5.828,0-10.57,4.743-10.57,10.574S363.079,283.507,368.907,283.507z M368.907,269.812c1.72,0,3.121,1.398,3.121,3.118
		c-0.003,1.719-1.401,3.117-3.121,3.117c-1.716,0-3.114-1.398-3.114-3.117C365.793,271.211,367.191,269.812,368.907,269.812z"/>
	<path fill="#222221" d="M395.832,283.507c5.831,0,10.572-4.745,10.572-10.576s-4.741-10.574-10.572-10.574
		c-5.829,0-10.571,4.743-10.571,10.574S390.003,283.507,395.832,283.507z M395.832,269.812c1.72,0,3.12,1.398,3.12,3.118
		c-0.003,1.719-1.4,3.117-3.12,3.117c-1.717,0-3.115-1.398-3.115-3.117C392.717,271.211,394.115,269.812,395.832,269.812z"/>
	<path fill="#222221" d="M422.75,283.507c5.834,0,10.579-4.745,10.579-10.576s-4.745-10.574-10.579-10.574
		c-5.825,0-10.568,4.743-10.568,10.574S416.925,283.507,422.75,283.507z M422.75,269.812c1.725,0,3.124,1.398,3.124,3.118
		c0,1.719-1.399,3.117-3.124,3.117c-1.716,0-3.115-1.398-3.115-3.117C419.635,271.211,421.034,269.812,422.75,269.812z"/>
	<path fill="#222221" d="M348.884,467.744h40.05c2.056,0,3.729-1.671,3.729-3.727v-91.318c0-13.099-10.653-23.753-23.752-23.753
		c-13.098,0-23.754,10.654-23.754,23.753v91.318c-0.004,0.994,0.385,1.93,1.091,2.635
		C346.947,467.356,347.886,467.744,348.884,467.744z M368.907,356.402c8.989,0,16.3,7.311,16.3,16.297v87.592H352.61v-87.592
		C352.61,363.713,359.922,356.402,368.907,356.402z"/>
	<path fill="#222221" d="M368.907,399.755c5.644,0,10.234-4.588,10.234-10.229c0-5.643-4.591-10.233-10.234-10.233
		c-5.64,0-10.228,4.591-10.228,10.233C358.68,395.167,363.268,399.755,368.907,399.755z M368.907,386.748
		c1.531,0,2.776,1.248,2.776,2.778c0,1.528-1.245,2.772-2.776,2.772c-1.527,0-2.772-1.244-2.772-2.772
		C366.135,387.996,367.38,386.748,368.907,386.748z"/>
	<path fill="#222221" d="M368.907,422.572c5.644,0,10.234-4.592,10.234-10.233c0-5.64-4.591-10.229-10.234-10.229
		c-5.64,0-10.228,4.59-10.228,10.229C358.68,417.98,363.268,422.572,368.907,422.572z M368.907,409.566
		c1.531,0,2.776,1.245,2.776,2.772c0,1.53-1.245,2.775-2.776,2.775c-1.527,0-2.772-1.245-2.772-2.775
		C366.135,410.812,367.38,409.566,368.907,409.566z"/>
	<path fill="#222221" d="M368.907,445.387c5.644,0,10.234-4.588,10.234-10.23s-4.591-10.231-10.234-10.231
		c-5.64,0-10.228,4.589-10.228,10.231S363.268,445.387,368.907,445.387z M368.907,432.383c1.531,0,2.776,1.245,2.776,2.776
		c0,1.527-1.245,2.77-2.776,2.77c-1.527,0-2.772-1.242-2.772-2.77C366.135,433.628,367.38,432.383,368.907,432.383z"/>
</g>
</svg>
