<?xml version="1.0" encoding="utf-8"?>
<!-- Generator: Adobe Illustrator 15.0.0, SVG Export Plug-In . SVG Version: 6.00 Build 0)  -->
<!DOCTYPE svg PUBLIC "-//W3C//DTD SVG 1.1//EN" "http://www.w3.org/Graphics/SVG/1.1/DTD/svg11.dtd">
<svg version="1.1" id="Capa_1" xmlns="http://www.w3.org/2000/svg" xmlns:xlink="http://www.w3.org/1999/xlink" x="0px" y="0px"
	 width="600px" height="600px" viewBox="0 0 600 600" enable-background="new 0 0 600 600" xml:space="preserve">
<g>
	<path d="M96.672,163.152c-26.399,0-47.876,21.477-47.876,47.876v94.825v21.071v106.923c0,1.657,1.343,3,3,3h89.752
		c1.656,0,3-1.343,3-3V326.925v-21.071v-94.825C144.548,184.629,123.071,163.152,96.672,163.152z M54.796,221.13h38.876v68.797
		c0,0.136,0.022,0.266,0.04,0.397H83.081c-1.657,0-3,1.343-3,3s1.343,3,3,3h27.182c1.656,0,3-1.343,3-3s-1.344-3-3-3H99.632
		c0.018-0.131,0.04-0.261,0.04-0.397V221.13h38.876v105.794c0,23.091-18.786,41.877-41.876,41.877
		c-23.091,0-41.876-18.786-41.876-41.877V221.13z M96.672,169.152c23.09,0,41.876,18.786,41.876,41.876v4.102H54.796v-4.102
		C54.796,187.938,73.581,169.152,96.672,169.152z M138.548,430.848H54.796v-80.75c8.177,14.718,23.879,24.704,41.876,24.704
		s33.699-9.986,41.876-24.704V430.848z"/>
	<path d="M232.224,163.152c-26.398,0-47.876,21.477-47.876,47.876v94.825v21.071v106.923c0,1.657,1.344,3,3,3H277.1
		c1.657,0,3-1.343,3-3V326.925v-21.071v-94.825C280.1,184.629,258.623,163.152,232.224,163.152z M190.348,221.13h38.876v68.797
		c0,0.136,0.022,0.266,0.04,0.397h-10.631c-1.656,0-3,1.343-3,3s1.344,3,3,3h27.182c1.657,0,3-1.343,3-3s-1.343-3-3-3h-10.631
		c0.018-0.131,0.04-0.261,0.04-0.397V221.13H274.1v105.794c0,23.091-18.785,41.877-41.876,41.877
		c-23.09,0-41.876-18.786-41.876-41.877V221.13z M232.224,169.152c23.091,0,41.876,18.786,41.876,41.876v4.102h-83.752v-4.102
		C190.348,187.938,209.134,169.152,232.224,169.152z M274.1,430.848h-83.752v-80.75c8.177,14.718,23.879,24.704,41.876,24.704
		s33.7-9.986,41.876-24.704V430.848z"/>
	<path d="M367.777,163.152c-26.399,0-47.876,21.477-47.876,47.876v94.825v21.071v106.923c0,1.657,1.344,3,3,3h89.752
		c1.656,0,3-1.343,3-3V326.925v-21.071v-94.825C415.653,184.629,394.176,163.152,367.777,163.152z M325.901,221.13h38.876v68.797
		c0,0.136,0.022,0.266,0.04,0.397h-10.631c-1.656,0-3,1.343-3,3s1.344,3,3,3h27.182c1.656,0,3-1.343,3-3s-1.344-3-3-3h-10.631
		c0.018-0.131,0.04-0.261,0.04-0.397V221.13h38.876v105.794c0,23.091-18.785,41.877-41.876,41.877s-41.876-18.786-41.876-41.877
		V221.13z M367.777,169.152c23.091,0,41.876,18.786,41.876,41.876v4.102h-83.752v-4.102
		C325.901,187.938,344.686,169.152,367.777,169.152z M409.653,430.848h-83.752v-80.75c8.177,14.718,23.879,24.704,41.876,24.704
		s33.7-9.986,41.876-24.704V430.848z"/>
	<path d="M503.328,163.152c-26.398,0-47.875,21.477-47.875,47.876v94.825v21.071v106.923c0,1.657,1.344,3,3,3h89.752
		c1.656,0,3-1.343,3-3V326.925v-21.071v-94.825C551.205,184.629,529.729,163.152,503.328,163.152z M461.453,221.13h38.875v68.797
		c0,0.136,0.023,0.266,0.041,0.397h-10.631c-1.656,0-3,1.343-3,3s1.344,3,3,3h27.182c1.656,0,3-1.343,3-3s-1.344-3-3-3h-10.631
		c0.018-0.131,0.039-0.261,0.039-0.397V221.13h38.877v105.794c0,23.091-18.785,41.877-41.877,41.877
		c-23.09,0-41.875-18.786-41.875-41.877V221.13z M503.328,169.152c23.092,0,41.877,18.786,41.877,41.876v4.102h-83.752v-4.102
		C461.453,187.938,480.239,169.152,503.328,169.152z M545.205,430.848h-83.752v-80.75c8.176,14.718,23.879,24.704,41.875,24.704
		c17.998,0,33.701-9.986,41.877-24.704V430.848z"/>
</g>
</svg>
