<?xml version="1.0" encoding="utf-8"?>
<!-- Generator: Adobe Illustrator 15.0.0, SVG Export Plug-In . SVG Version: 6.00 Build 0)  -->
<!DOCTYPE svg PUBLIC "-//W3C//DTD SVG 1.1//EN" "http://www.w3.org/Graphics/SVG/1.1/DTD/svg11.dtd">
<svg version="1.1" id="Capa_1" xmlns="http://www.w3.org/2000/svg" xmlns:xlink="http://www.w3.org/1999/xlink" x="0px" y="0px"
	 width="600px" height="600px" viewBox="0 0 600 600" enable-background="new 0 0 600 600" xml:space="preserve">
<path d="M532.531,453.96c-0.004-0.109-0.018-0.218-0.033-0.326c-0.013-0.093-0.023-0.185-0.046-0.273
	c-0.021-0.089-0.053-0.18-0.083-0.269c-0.034-0.104-0.07-0.206-0.116-0.305c-0.014-0.028-0.02-0.059-0.032-0.085l-11.347-22.54
	v-10.098c0-1.655-1.343-3-3-3c-1.656,0-3,1.345-3,3v10.098l-11.346,22.54c-0.014,0.026-0.02,0.057-0.033,0.085
	c-0.045,0.099-0.081,0.201-0.115,0.305c-0.03,0.089-0.062,0.178-0.084,0.269c-0.021,0.09-0.032,0.182-0.046,0.273
	c-0.016,0.108-0.028,0.217-0.032,0.326c-0.001,0.031-0.01,0.06-0.01,0.091v25.666h-11.746v-45.5v-28.666
	c0-0.031-0.008-0.06-0.009-0.091c-0.004-0.108-0.018-0.218-0.032-0.326c-0.014-0.093-0.024-0.185-0.047-0.274
	c-0.021-0.088-0.053-0.178-0.083-0.268c-0.034-0.104-0.07-0.206-0.115-0.305c-0.015-0.028-0.021-0.059-0.033-0.085l-11.346-22.54
	v-10.098c0-1.655-1.344-3-3-3c-1.657,0-3,1.345-3,3v10.098l-11.347,22.54c-0.014,0.026-0.02,0.057-0.033,0.085
	c-0.045,0.099-0.08,0.201-0.115,0.305c-0.03,0.09-0.062,0.178-0.083,0.268c-0.021,0.091-0.033,0.183-0.046,0.274
	c-0.017,0.108-0.029,0.218-0.033,0.326c-0.001,0.031-0.009,0.06-0.009,0.091v25.666h-4.63v-39.999v-28.667
	c0-0.031-0.009-0.06-0.01-0.09c-0.004-0.109-0.018-0.218-0.033-0.327c-0.013-0.093-0.023-0.185-0.046-0.272
	c-0.021-0.092-0.053-0.18-0.083-0.27c-0.034-0.104-0.07-0.206-0.115-0.304c-0.015-0.028-0.021-0.058-0.033-0.086l-11.346-22.54
	v-10.096c0-1.657-1.344-3-3-3c-1.657,0-3,1.343-3,3v10.096l-11.347,22.54c-0.014,0.028-0.02,0.058-0.033,0.086
	c-0.045,0.098-0.081,0.2-0.115,0.304c-0.03,0.09-0.062,0.178-0.083,0.27c-0.021,0.089-0.033,0.181-0.046,0.272
	c-0.017,0.109-0.029,0.218-0.033,0.327c-0.001,0.03-0.009,0.059-0.009,0.09v25.667H423V251.217v-19.655
	c0-0.031-0.009-0.06-0.01-0.091c-0.004-0.109-0.018-0.218-0.033-0.327c-0.013-0.092-0.023-0.184-0.046-0.272
	c-0.021-0.091-0.053-0.181-0.084-0.271c-0.033-0.103-0.068-0.204-0.114-0.301c-0.015-0.028-0.02-0.059-0.033-0.087L415,214.958
	v-6.697c0-1.657-1.344-3-3-3c-1.657,0-3,1.343-3,3v6.697l-7.68,15.255c-0.015,0.028-0.021,0.059-0.033,0.087
	c-0.046,0.097-0.08,0.198-0.114,0.301c-0.031,0.09-0.062,0.18-0.084,0.271c-0.021,0.089-0.033,0.181-0.046,0.272
	c-0.017,0.109-0.029,0.218-0.033,0.327c-0.001,0.031-0.009,0.06-0.009,0.091v16.655H391v-17.775c0.04-0.18,0.066-0.365,0.066-0.558
	v-14.469c0-0.026-0.007-0.05-0.008-0.076c-0.003-0.091-0.015-0.18-0.027-0.271c-0.011-0.077-0.021-0.154-0.038-0.229
	c-0.018-0.076-0.044-0.15-0.068-0.226c-0.029-0.085-0.06-0.169-0.097-0.25c-0.012-0.024-0.017-0.049-0.027-0.073l-5.622-11.168
	v-4.861c0-1.381-1.119-2.5-2.5-2.5s-2.5,1.119-2.5,2.5v4.861l-5.622,11.168c-0.012,0.024-0.018,0.05-0.028,0.073
	c-0.037,0.081-0.065,0.165-0.095,0.25c-0.026,0.075-0.053,0.149-0.07,0.226c-0.018,0.074-0.027,0.151-0.038,0.229
	c-0.013,0.091-0.023,0.18-0.026,0.271c-0.001,0.026-0.009,0.05-0.009,0.076v11.469H369l-0.021-19.685v-0.022
	c-0.007-0.898-0.735-1.625-1.635-1.625h-1.368h-3.277h-3.002h-2.029h-3.92v-18.333c0-1.656-1.343-3-3-3h-12.249v-18.332
	c0-0.184-0.021-0.362-0.054-0.536c-0.244-5.118-3.542-9.438-8.114-11.18v-9.211c0-10.606-5.476-19.952-13.743-25.376L303,72.127
	V56.783c0-1.657-1.344-3-3-3s-3,1.343-3,3v15.346l-13.588,47.454c-8.27,5.424-13.745,14.771-13.745,25.377v9.21
	c-4.592,1.748-7.898,6.095-8.12,11.239c-0.024,0.156-0.048,0.313-0.048,0.478v18.332H249.25c-1.657,0-3,1.344-3,3v18.333h-3.375
	h-2.574h-3h-3.277h-1.303c-0.986,0-1.705,0.745-1.712,1.688c0,0.062-0.01,1.279-0.01,1.312v18.332h-5.291v-11.469
	c0-0.025-0.007-0.05-0.009-0.076c-0.002-0.09-0.015-0.18-0.025-0.27c-0.012-0.078-0.021-0.155-0.039-0.23
	c-0.019-0.075-0.043-0.147-0.068-0.221c-0.028-0.088-0.06-0.174-0.099-0.257c-0.011-0.023-0.015-0.047-0.026-0.07l-5.622-11.167
	v-4.862c0-1.381-1.118-2.5-2.5-2.5c-1.381,0-2.5,1.119-2.5,2.5v4.862l-5.621,11.167c-0.012,0.023-0.017,0.048-0.026,0.07
	c-0.038,0.083-0.068,0.169-0.099,0.257c-0.024,0.073-0.051,0.146-0.068,0.221c-0.019,0.075-0.027,0.152-0.038,0.23
	c-0.013,0.09-0.024,0.18-0.027,0.27c-0.001,0.026-0.008,0.051-0.008,0.076v14.469c0,0.193,0.026,0.379,0.068,0.56v17.773h-9.003
	v-16.793c0-0.031-0.009-0.061-0.01-0.091c-0.003-0.109-0.018-0.218-0.032-0.327c-0.014-0.092-0.024-0.184-0.045-0.272
	c-0.022-0.092-0.055-0.182-0.086-0.271c-0.033-0.103-0.068-0.203-0.113-0.3c-0.015-0.029-0.021-0.06-0.034-0.088l-7.679-15.254
	v-6.698c0-1.656-1.344-3-3-3s-3,1.344-3,3v6.698l-7.68,15.254c-0.014,0.028-0.02,0.059-0.032,0.088
	c-0.046,0.097-0.08,0.197-0.115,0.3c-0.03,0.09-0.062,0.18-0.084,0.271c-0.021,0.089-0.032,0.181-0.046,0.272
	c-0.016,0.109-0.029,0.218-0.032,0.327c-0.001,0.03-0.01,0.06-0.01,0.091v19.654c0,0.023,0.007,0.046,0.007,0.069
	s-0.007,0.045-0.007,0.069v137.001h-6.165V362.55c0-0.03-0.01-0.06-0.011-0.091c-0.003-0.109-0.018-0.218-0.031-0.327
	c-0.015-0.092-0.024-0.184-0.046-0.272c-0.021-0.092-0.055-0.18-0.084-0.271c-0.035-0.103-0.07-0.203-0.115-0.3
	c-0.015-0.028-0.021-0.059-0.033-0.087l-11.347-22.54v-10.096c0-1.657-1.344-3-3-3s-3,1.343-3,3v10.096l-11.347,22.54
	c-0.015,0.028-0.021,0.059-0.033,0.087c-0.045,0.097-0.08,0.197-0.114,0.3c-0.031,0.091-0.062,0.181-0.085,0.271
	c-0.021,0.09-0.032,0.182-0.045,0.272c-0.017,0.109-0.03,0.218-0.033,0.327c-0.001,0.031-0.009,0.061-0.009,0.091v28.662
	c0,0.001-0.001,0.003-0.001,0.005v39.999h-4.627V405.55c0-0.03-0.01-0.062-0.011-0.091c-0.003-0.109-0.018-0.218-0.031-0.327
	c-0.015-0.092-0.024-0.184-0.046-0.272c-0.021-0.092-0.055-0.182-0.084-0.271c-0.035-0.103-0.07-0.203-0.115-0.3
	c-0.015-0.029-0.021-0.061-0.033-0.088l-11.347-22.54v-10.097c0-1.655-1.344-3-3-3s-3,1.345-3,3v10.097l-11.347,22.54
	c-0.015,0.027-0.021,0.059-0.033,0.088c-0.046,0.097-0.08,0.197-0.114,0.3c-0.031,0.091-0.062,0.181-0.085,0.271
	c-0.021,0.09-0.032,0.182-0.045,0.272c-0.017,0.109-0.03,0.218-0.033,0.327c-0.001,0.029-0.009,0.061-0.009,0.091v28.661
	c0,0.002-0.001,0.004-0.001,0.005v45.5H96.794V454.05c0-0.031-0.009-0.061-0.01-0.091c-0.004-0.109-0.019-0.218-0.032-0.327
	c-0.015-0.092-0.024-0.184-0.046-0.271c-0.021-0.093-0.055-0.183-0.084-0.271c-0.035-0.103-0.07-0.203-0.115-0.3
	c-0.014-0.029-0.021-0.061-0.033-0.088l-11.347-22.54v-10.097c0-1.655-1.343-3-3-3c-1.656,0-3,1.345-3,3v10.097l-11.347,22.54
	c-0.015,0.027-0.021,0.059-0.033,0.088c-0.045,0.097-0.08,0.197-0.114,0.3c-0.031,0.09-0.062,0.18-0.085,0.271
	c-0.021,0.089-0.032,0.181-0.045,0.271c-0.017,0.109-0.03,0.218-0.033,0.327c-0.001,0.03-0.009,0.06-0.009,0.091v28.666
	c0,0.002,0,0.003,0,0.005v60.495c0,1.657,1.344,3,3,3h459.077c1.657,0,3-1.343,3-3v-60.5V454.05
	C532.538,454.02,532.531,453.991,532.531,453.96z M517.872,437.547l6.798,13.504h-13.595L517.872,437.547z M476.795,389.047
	l6.797,13.504h-13.595L476.795,389.047z M468.129,408.551h17.332v22.666h-17.332V408.551z M442.834,346.047l6.797,13.504h-13.595
	L442.834,346.047z M434.168,365.551H451.5v22.667h-17.332V365.551z M412,222.343l3.131,6.219h-6.262L412,222.343z M407.001,234.562
	H417v13.655h-9.999V234.562z M391.5,254.217h12.501H417v134.001h-25.5V254.217z M382.679,209.277l1.831,3.638h-3.662
	L382.679,209.277z M379.289,217.915h6.777v8.969h-6.777V217.915z M300.001,83.446l9.353,32.663c-2.948-0.958-6.09-1.482-9.354-1.482
	s-6.404,0.523-9.353,1.481L300.001,83.446z M275.667,144.96c0-13.418,10.916-24.333,24.333-24.333
	c13.416,0,24.332,10.915,24.332,24.333v8.377h-48.665V144.96z M274.138,159.337h51.723c2.541,0,4.75,1.442,5.857,3.55H268.28
	C269.388,160.779,271.596,159.337,274.138,159.337z M267.499,168.887H332.5v15.332h-65.001V168.887z M252.25,190.219h12.249H335.5
	h12.249v15.333H252.25V190.219z M237,211.552h12.25h101.5H363v15.332H237V211.552z M234,232.884h132h19v15.333H215v-15.333H234z
	 M340.75,311.28l-39-28c-1.048-0.751-2.453-0.751-3.499,0l-39.001,28c-0.785,0.562-1.25,1.471-1.25,2.437v74.501h-42.501V254.217
	H385v134.001h-43v-74.501C342,312.751,341.533,311.844,340.75,311.28z M328.759,318.496l-27.009-19.391
	c-1.048-0.751-2.454-0.751-3.499,0l-27.01,19.391c-0.785,0.562-1.25,1.471-1.25,2.438v67.284H264v-72.962l36-25.846l36,25.846
	v72.962h-5.991v-67.284C330.009,319.967,329.543,319.061,328.759,318.496z M299.881,337.432c-8.521,0-15.453,6.933-15.453,15.453
	v35.333h-8.437v-65.745L300,305.234l24.009,17.238v65.744h-8.675v-35.333C315.334,344.363,308.402,337.432,299.881,337.432z
	 M309.334,352.885v35.333h-18.906v-35.333c0-5.213,4.241-9.453,9.453-9.453C305.094,343.432,309.334,347.672,309.334,352.885z
	 M217.321,209.277l1.832,3.638h-3.662L217.321,209.277z M213.932,217.915h6.777v8.969h-6.777V217.915z M188.998,222.205l3.13,6.219
	h-6.26L188.998,222.205z M183.999,234.424h9.998v13.654h-9.998V234.424z M183.999,254.217H209v134.001h-25.001V254.217z
	 M157.167,346.047l6.798,13.504H150.37L157.167,346.047z M148.501,365.551h17.333v22.667h-17.333V365.551z M148.5,394.218h20.334
	h12.165H212h0.499H261h11.991h54.018H339h49h0.5H420h11.168H451.5v36.999h-303V394.218z M123.206,389.047l6.798,13.504h-13.595
	L123.206,389.047z M114.54,408.551h17.333v22.666H114.54V408.551z M114.539,437.217h20.334H145.5h309h10.629h20.332v42.5H114.539
	V437.217z M82.127,437.547l6.798,13.504H75.33L82.127,437.547z M73.461,457.051h17.333v22.666H73.461V457.051z M526.538,540.217
	H73.461v-54.5h20.333h17.745h376.922h17.745h20.332V540.217z M526.538,479.717h-17.332v-22.666h17.332V479.717z"/>
</svg>
