<?xml version="1.0" encoding="utf-8"?>
<!-- Generator: Adobe Illustrator 15.0.0, SVG Export Plug-In . SVG Version: 6.00 Build 0)  -->
<!DOCTYPE svg PUBLIC "-//W3C//DTD SVG 1.1//EN" "http://www.w3.org/Graphics/SVG/1.1/DTD/svg11.dtd">
<svg version="1.1" id="Capa_1" xmlns="http://www.w3.org/2000/svg" xmlns:xlink="http://www.w3.org/1999/xlink" x="0px" y="0px"
	 width="600px" height="600px" viewBox="0 0 600 600" enable-background="new 0 0 600 600" xml:space="preserve">
<path d="M579.351,276.239h-0.99v-16.982h0.99c3.355,0,6.085-2.729,6.085-6.085c0-3.095-2.323-5.652-5.318-6.031
	c-1.116-8.495-7.846-15.241-16.333-16.38v-10.266c0-1.406-1.14-2.547-2.548-2.547c-1.406,0-2.547,1.141-2.547,2.547v10.266
	c-8.486,1.139-15.217,7.885-16.333,16.38c-2.994,0.379-5.318,2.936-5.318,6.031c0,3.356,2.729,6.085,6.086,6.085h0.143v16.982
	h-0.143c-3.356,0-6.086,2.73-6.086,6.085c0,3.356,2.729,6.086,6.086,6.086h0.143v25.47h-20.38v-25.47h0.988
	c3.356,0,6.087-2.73,6.087-6.086c0-3.354-2.73-6.085-6.087-6.085h-0.988v-16.982h0.988c3.356,0,6.087-2.729,6.087-6.085
	c0-3.095-2.325-5.652-5.318-6.031c-1.116-8.495-7.846-15.241-16.334-16.38v-10.266c0-1.406-1.141-2.547-2.547-2.547
	c-1.408,0-2.547,1.141-2.547,2.547v10.266c-8.488,1.139-15.219,7.885-16.335,16.38c-2.993,0.379-5.317,2.936-5.317,6.031
	c0,3.356,2.73,6.085,6.085,6.085h0.143v16.982h-0.143c-3.354,0-6.085,2.73-6.085,6.085c0,3.356,2.73,6.086,6.085,6.086h0.143v25.47
	h-24.509c0.01-0.094,0.028-0.185,0.028-0.281c0-21.102-33.403-51.314-39.482-56.637v-4.782h2.867c1.406,0,2.547-1.141,2.547-2.547
	c0-1.407-1.141-2.547-2.547-2.547h-2.867v-13.956c0-1.406-1.141-2.547-2.547-2.547c-1.408,0-2.548,1.141-2.548,2.547v13.956h-3.076
	c-1.408,0-2.547,1.14-2.547,2.547c0,1.406,1.139,2.547,2.547,2.547h3.076v4.782c-6.079,5.323-39.483,35.535-39.483,56.637
	c0,0.097,0.018,0.188,0.028,0.281h-21.396v-78.873c1.166-0.233,2.045-1.262,2.045-2.497c0-3.855-2.551-7.125-6.052-8.213v-2.474
	c0-1.406-1.141-2.547-2.547-2.547c-1.408,0-2.548,1.141-2.548,2.547v2.474c-3.502,1.088-6.051,4.358-6.051,8.213
	c0,1.122,0.729,2.064,1.737,2.404v10.823c-10.099-21.88-36.56-45.67-41.916-50.35v-6.149h3.981c1.408,0,2.547-1.141,2.547-2.547
	s-1.139-2.547-2.547-2.547h-3.981V167.53c0-1.407-1.142-2.547-2.548-2.547c-1.407,0-2.547,1.14-2.547,2.547v16.614h-3.74
	c-1.407,0-2.547,1.14-2.547,2.547s1.14,2.547,2.547,2.547h3.74v6.149c-5.357,4.679-31.815,28.468-41.915,50.347v-10.791
	c1.057-0.311,1.833-1.276,1.833-2.434c0-3.855-2.55-7.125-6.051-8.213v-2.474c0-1.406-1.141-2.547-2.547-2.547
	s-2.547,1.141-2.547,2.547v2.474c-3.501,1.088-6.052,4.358-6.052,8.213c0,1.2,0.832,2.199,1.949,2.469v78.9h-21.404
	c0.011-0.094,0.029-0.185,0.029-0.281c0-21.103-33.405-51.315-39.483-56.637v-4.782h3.076c1.407,0,2.547-1.141,2.547-2.547
	c0-1.407-1.14-2.547-2.547-2.547h-3.076v-13.956c0-1.406-1.141-2.547-2.547-2.547s-2.547,1.141-2.547,2.547v13.956h-2.868
	c-1.407,0-2.547,1.14-2.547,2.547c0,1.406,1.141,2.547,2.547,2.547h2.868v4.782c-6.078,5.322-39.483,35.534-39.483,56.637
	c0,0.097,0.018,0.188,0.029,0.281h-24.51v-25.47h0.143c3.355,0,6.085-2.73,6.085-6.086c0-3.354-2.73-6.085-6.085-6.085h-0.143
	v-16.982h0.143c3.355,0,6.085-2.729,6.085-6.085c0-3.095-2.325-5.652-5.318-6.031c-1.116-8.495-7.847-15.241-16.334-16.38v-10.266
	c0-1.406-1.14-2.547-2.547-2.547s-2.547,1.141-2.547,2.547v10.266c-8.487,1.139-15.218,7.885-16.333,16.38
	c-2.994,0.379-5.318,2.936-5.318,6.031c0,3.356,2.73,6.085,6.085,6.085h0.989v16.982h-0.989c-3.355,0-6.085,2.73-6.085,6.085
	c0,3.356,2.73,6.086,6.085,6.086h0.989v25.47H56.734v-25.47h0.143c3.355,0,6.085-2.73,6.085-6.086c0-3.354-2.73-6.085-6.085-6.085
	h-0.143v-16.982h0.143c3.355,0,6.085-2.729,6.085-6.085c0-3.095-2.325-5.652-5.318-6.031c-1.116-8.495-7.847-15.241-16.334-16.38
	v-10.266c0-1.406-1.14-2.547-2.547-2.547s-2.547,1.141-2.547,2.547v10.266c-8.487,1.139-15.218,7.885-16.333,16.38
	c-2.994,0.379-5.318,2.936-5.318,6.031c0,3.356,2.73,6.085,6.085,6.085h0.989v16.982H20.65c-3.355,0-6.085,2.73-6.085,6.085
	c0,3.356,2.73,6.086,6.085,6.086h0.989V432.47c0,1.407,1.141,2.548,2.547,2.548h30h190.479c0.001,0,0.002,0,0.004,0
	c0.001,0,0.002,0,0.003,0h110.662h190.479h30c1.408,0,2.547-1.141,2.547-2.548V288.411h0.99c3.355,0,6.085-2.73,6.085-6.086
	C585.436,278.97,582.706,276.239,579.351,276.239z M573.267,276.239h-9.905v-16.982h9.905V276.239z M561.237,235.679
	c6.824,0,12.509,4.927,13.712,11.408h-27.421C548.73,240.606,554.412,235.679,561.237,235.679z M542.132,253.172
	c0-0.546,0.444-0.991,0.992-0.991h36.227c0.546,0,0.99,0.444,0.99,0.991s-0.444,0.991-0.99,0.991h-3.537h-30h-2.689
	C542.576,254.163,542.132,253.718,542.132,253.172z M548.362,259.257h9.905v16.982h-9.905V259.257z M517.793,276.239h-9.906v-16.982
	h9.906V276.239z M505.763,235.679c6.824,0,12.509,4.927,13.711,11.408h-27.422C493.254,240.606,498.939,235.679,505.763,235.679z
	 M486.658,253.172c0-0.546,0.444-0.991,0.99-0.991h36.227c0.548,0,0.992,0.444,0.992,0.991s-0.444,0.991-0.992,0.991h-3.535h-30.002
	h-2.689C487.103,254.163,486.658,253.718,486.658,253.172z M492.886,259.257h9.907v16.982h-9.907V259.257z M486.658,282.324
	c0-0.546,0.444-0.991,0.99-0.991h2.689h30.002h3.535c0.548,0,0.992,0.444,0.992,0.991s-0.444,0.992-0.992,0.992h-3.535h-30.002
	h-2.689C487.103,283.316,486.658,282.871,486.658,282.324z M492.886,288.411h24.907v25.47h-24.907V288.411z M421.281,261.52
	c2.777,2.483,8.694,7.934,14.994,14.72h-29.986C412.588,269.453,418.503,264.003,421.281,261.52z M384.344,313.6
	c0-9.567,8.42-21.875,17.394-32.279c0.045,0.002,0.086,0.013,0.131,0.013h38.972c8.967,10.398,17.376,22.698,17.376,32.266
	c0,0.097,0.019,0.188,0.028,0.281h-73.928C384.326,313.787,384.344,313.696,384.344,313.6z M490.338,318.976h30.002h22.927v14.151
	H357.882v-14.151H490.338z M351.328,229.007c1.715,0,3.139,1.24,3.439,2.869h-6.881
	C348.189,230.247,349.614,229.007,351.328,229.007z M277.118,223.089h45.426c0.109,0,0.212-0.018,0.318-0.032
	c10.254,11.87,19.935,25.917,20.418,37.049h-86.554C257.209,248.984,266.873,234.953,277.118,223.089z M300.003,199.943
	c3.191,2.842,10.564,9.604,18.34,18.052h-36.679C289.439,209.547,296.812,202.785,300.003,199.943z M245.335,231.876
	c0.301-1.629,1.726-2.869,3.44-2.869s3.139,1.24,3.44,2.869H245.335z M178.72,261.52c2.778,2.483,8.696,7.934,14.996,14.72h-29.987
	C170.028,269.453,175.943,264.003,178.72,261.52z M141.785,313.6c0-9.563,8.412-21.866,17.381-32.266h38.966
	c0.046,0,0.089-0.011,0.135-0.013c8.972,10.4,17.388,22.707,17.388,32.279c0,0.097,0.018,0.188,0.029,0.281h-73.928
	C141.767,313.787,141.785,313.696,141.785,313.6z M107.114,276.239h-9.906v-16.982h9.906V276.239z M94.238,235.679
	c6.824,0,12.509,4.927,13.711,11.408H80.527C81.729,240.606,87.414,235.679,94.238,235.679z M75.134,253.172
	c0-0.546,0.444-0.991,0.991-0.991h36.227c0.546,0,0.991,0.444,0.991,0.991s-0.444,0.991-0.991,0.991h-2.69h-30h-3.537
	C75.578,254.163,75.134,253.718,75.134,253.172z M82.208,259.257h9.906v16.982h-9.906V259.257z M75.134,282.324
	c0-0.546,0.444-0.991,0.991-0.991h3.537h30h2.69c0.546,0,0.991,0.444,0.991,0.991s-0.444,0.992-0.991,0.992h-2.69h-30h-3.537
	C75.578,283.316,75.134,282.871,75.134,282.324z M82.208,288.411h24.906v25.47H82.208V288.411z M79.661,318.976h30h132.457v14.151
	H56.734v-14.151H79.661z M51.639,276.239h-9.906v-16.982h9.906V276.239z M38.763,235.679c6.824,0,12.509,4.927,13.711,11.408H25.052
	C26.254,240.606,31.94,235.679,38.763,235.679z M19.659,253.172c0-0.546,0.444-0.991,0.991-0.991h36.227
	c0.546,0,0.991,0.444,0.991,0.991s-0.444,0.991-0.991,0.991h-2.69h-30H20.65C20.103,254.163,19.659,253.718,19.659,253.172z
	 M26.734,259.257h9.906v16.982h-9.906V259.257z M19.659,282.324c0-0.546,0.444-0.991,0.991-0.991h3.537h30h2.69
	c0.546,0,0.991,0.444,0.991,0.991s-0.444,0.992-0.991,0.992h-2.69h-30H20.65C20.103,283.316,19.659,282.871,19.659,282.324z
	 M26.734,288.411h24.906v28.018v19.246v94.248H26.734V288.411z M90.948,429.923H74.134v-41.871c0-4.636,3.771-8.407,8.408-8.407
	c4.636,0,8.407,3.771,8.407,8.407V429.923z M124.391,429.923h-16.815v-41.871c0-4.636,3.771-8.407,8.408-8.407
	c4.636,0,8.407,3.771,8.407,8.407V429.923z M157.834,429.923h-16.815v-41.871c0-4.636,3.772-8.407,8.408-8.407
	s8.408,3.771,8.408,8.407V429.923z M191.276,429.923h-16.815v-41.871c0-4.636,3.772-8.407,8.408-8.407s8.407,3.771,8.407,8.407
	V429.923z M224.718,429.923h-16.815v-41.871c0-4.636,3.772-8.407,8.408-8.407c4.635,0,8.407,3.771,8.407,8.407V429.923z
	 M242.118,429.923h-12.305v-41.871c0-7.445-6.057-13.502-13.501-13.502c-7.445,0-13.502,6.057-13.502,13.502v41.871h-6.439v-41.871
	c0-7.445-6.057-13.502-13.501-13.502c-7.445,0-13.502,6.057-13.502,13.502v41.871h-6.438v-41.871
	c0-7.445-6.057-13.502-13.502-13.502s-13.502,6.057-13.502,13.502v41.871h-6.438v-41.871c0-7.445-6.057-13.502-13.502-13.502
	s-13.502,6.057-13.502,13.502v41.871h-6.438v-41.871c0-7.445-6.058-13.502-13.502-13.502c-7.445,0-13.502,6.057-13.502,13.502
	v41.871H56.734v-91.701h185.384V429.923z M247.22,236.971h3.227v25.683c0,1.407,1.14,2.547,2.547,2.547h94.021
	c1.406,0,2.547-1.14,2.547-2.547v-25.683h3.226v79.458v19.246v94.248h-14.363v-81.568c0-20.908-35.462-45.658-36.971-46.701
	c-0.873-0.603-2.026-0.603-2.898,0c-1.509,1.043-36.972,25.793-36.972,46.701v81.568H247.22V236.971z M279.626,429.315v-70.715
	h40.755v70.715H279.626z M322.929,353.506h-45.85c-1.407,0-2.547,1.141-2.547,2.548v73.869h-7.854v-81.568
	c0-16.083,26.743-36.65,33.327-41.47c6.584,4.815,33.326,25.372,33.326,41.47v81.568h-7.854v-73.869
	C325.476,354.646,324.336,353.506,322.929,353.506z M357.882,338.222h185.385v91.701h-12.305v-41.871
	c0-7.445-6.059-13.502-13.503-13.502s-13.502,6.057-13.502,13.502v41.871h-6.438v-41.871c0-7.445-6.058-13.502-13.502-13.502
	s-13.502,6.057-13.502,13.502v41.871h-6.438v-41.871c0-7.445-6.058-13.502-13.502-13.502s-13.502,6.057-13.502,13.502v41.871h-6.438
	v-41.871c0-7.445-6.058-13.502-13.502-13.502s-13.501,6.057-13.501,13.502v41.871h-6.439v-41.871
	c0-7.445-6.058-13.502-13.502-13.502s-13.501,6.057-13.501,13.502v41.871h-12.307V338.222z M525.867,429.923h-16.816v-41.871
	c0-4.636,3.771-8.407,8.408-8.407c4.635,0,8.408,3.771,8.408,8.407V429.923z M492.425,429.923h-16.816v-41.871
	c0-4.636,3.771-8.407,8.408-8.407c4.635,0,8.408,3.771,8.408,8.407V429.923z M458.983,429.923h-16.816v-41.871
	c0-4.636,3.771-8.407,8.408-8.407c4.635,0,8.408,3.771,8.408,8.407V429.923z M425.539,429.923h-16.813v-41.871
	c0-4.636,3.771-8.407,8.406-8.407c4.635,0,8.407,3.771,8.407,8.407V429.923z M392.097,429.923h-16.813v-41.871
	c0-4.636,3.771-8.407,8.406-8.407c4.635,0,8.407,3.771,8.407,8.407V429.923z M573.267,429.923h-24.905v-94.248v-19.246v-28.018
	h24.905V429.923z M579.351,283.316h-3.537h-30h-2.689c-0.548,0-0.992-0.445-0.992-0.992s0.444-0.991,0.992-0.991h2.689h30h3.537
	c0.546,0,0.99,0.444,0.99,0.991S579.897,283.316,579.351,283.316z"/>
</svg>
