<?xml version="1.0" encoding="utf-8"?>
<!-- Generator: Adobe Illustrator 15.0.0, SVG Export Plug-In . SVG Version: 6.00 Build 0)  -->
<!DOCTYPE svg PUBLIC "-//W3C//DTD SVG 1.1//EN" "http://www.w3.org/Graphics/SVG/1.1/DTD/svg11.dtd">
<svg version="1.1" id="Capa_1" xmlns="http://www.w3.org/2000/svg" xmlns:xlink="http://www.w3.org/1999/xlink" x="0px" y="0px"
	 width="600px" height="600px" viewBox="0 0 600 600" enable-background="new 0 0 600 600" xml:space="preserve">
<path d="M487.265,185.569h-9.207v-46.036c0-1.089-0.883-1.973-1.972-1.973h-2.102c-0.893-7.127-6.555-12.789-13.682-13.682v-18.543
	c0-1.089-0.884-1.972-1.973-1.972c-1.091,0-1.973,0.883-1.973,1.972v18.542c-7.128,0.893-12.79,6.555-13.683,13.682h-2.101
	c-1.091,0-1.973,0.883-1.973,1.972v46.035h-9.207c-1.091,0-1.973,0.883-1.973,1.974V400.29h-3.289v-31.895
	c0-1.09-0.883-1.973-1.972-1.973h-34.858v-4.384h8.659c0.778,0,1.484-0.458,1.802-1.168c0.316-0.71,0.188-1.541-0.331-2.122
	l-39.602-44.281c-0.109-0.121-0.235-0.223-0.368-0.313l-35.797-38.405c-0.373-0.4-0.896-0.627-1.443-0.627h-91.416
	c-0.546,0-1.07,0.227-1.443,0.627l-35.795,38.405c-0.134,0.091-0.259,0.192-0.368,0.313l-39.603,44.281
	c-0.518,0.581-0.647,1.412-0.33,2.122c0.318,0.711,1.023,1.168,1.801,1.168h8.66v4.384h-34.855c-1.089,0-1.973,0.883-1.973,1.973
	v31.896h-12.167c-1.09,0-1.973,0.883-1.973,1.973v92.4c0,1.089,0.883,1.972,1.973,1.972h41.87c1.09,0,1.974-0.883,1.974-1.972
	V468.14c0-5.562,4.523-10.085,10.083-10.085s10.083,4.523,10.083,10.085v26.525c0,1.089,0.883,1.972,1.974,1.972h41.87h42.199
	c1.09,0,1.973-0.883,1.973-1.972v-51.297c0-6.648,5.409-12.059,12.057-12.059s12.058,5.41,12.058,12.059v51.297
	c0,1.089,0.883,1.972,1.972,1.972h37.595h41.871c1.089,0,1.972-0.883,1.972-1.972V468.14c0-5.562,4.523-10.085,10.084-10.085
	c5.562,0,10.085,4.523,10.085,10.085v26.525c0,1.089,0.883,1.972,1.973,1.972h34.965h6.905h50.968c1.09,0,1.973-0.883,1.973-1.972
	V187.542C489.239,186.452,488.355,185.569,487.265,185.569z M458.328,127.695c5.854,0,10.716,4.276,11.66,9.865H446.67
	C447.614,131.972,452.476,127.695,458.328,127.695z M442.545,141.506h31.566v6.576h-31.566V141.506z M442.545,152.029h31.567v33.541
	h-31.567V152.029z M431.365,189.515h9.207h35.514h9.207v13.482h-53.928V189.515z M431.365,206.944h53.927v1.782h0.002
	c-0.048,0.039-0.098,0.071-0.142,0.115l-12.715,12.714l-12.714-12.714c-0.771-0.771-2.019-0.77-2.79,0l-12.714,12.714
	l-12.714-12.714c-0.044-0.043-0.095-0.076-0.141-0.114V206.944z M485.293,214.281v20.128l-10.065-10.064L485.293,214.281z
	 M469.648,224.345l-11.318,11.318l-11.318-11.319l11.318-11.318L469.648,224.345z M441.429,224.345l-10.063,10.064v-20.128
	L441.429,224.345z M229.665,279.067h89.699l32.384,34.742H197.284L229.665,279.067z M157.481,358.093l36.073-40.336h161.924
	l36.072,40.336h-6.22H163.703H157.481z M383.357,362.038v4.385H165.676v-4.385H383.357z M194.283,492.692h-13.592V468.14
	c0-7.737-6.294-14.03-14.03-14.03c-7.735,0-14.03,6.293-14.03,14.03v24.553H139.04v-42.529c0-15.23,12.391-27.62,27.622-27.62
	s27.622,12.39,27.622,27.62V492.692z M218.617,492.691H198.23v-42.528c0-17.406-14.161-31.567-31.567-31.567
	c-17.407,0-31.567,14.161-31.567,31.567v42.528h-20.388v-88.453h12.167h91.743V492.691z M304.439,492.691h-11.618v-49.323
	c0-8.824-7.178-16.004-16.003-16.004c-8.823,0-16.003,7.18-16.003,16.004v49.323h-11.618v-58.97
	c0-15.23,12.391-27.621,27.621-27.621c15.231,0,27.621,12.391,27.621,27.621V492.691z M326.471,402.265v90.427h-18.086v-58.97
	c0-17.406-14.16-31.567-31.566-31.567c-17.407,0-31.567,14.161-31.567,31.567v58.97h-22.688v-90.427v-12.606h103.908V402.265z
	 M328.444,385.713H220.589c-1.089,0-1.972,0.883-1.972,1.973v12.605h-89.77v-29.923h34.855H385.33h34.854v29.923h-89.769v-12.605
	C330.416,386.596,329.533,385.713,328.444,385.713z M409.991,492.692h-13.59V468.14c0-7.737-6.296-14.03-14.032-14.03
	s-14.029,6.293-14.029,14.03v24.553h-13.591v-42.529c0-15.23,12.391-27.62,27.62-27.62c15.231,0,27.622,12.39,27.622,27.62V492.692z
	 M434.324,492.691h-20.387v-42.528c0-17.406-14.161-31.567-31.567-31.567c-17.404,0-31.566,14.161-31.566,31.567v42.528h-20.387
	v-88.453h91.741h12.166V492.691z M485.293,492.691h-47.022v-90.427c0-1.09-0.883-1.973-1.973-1.973h-4.932V246.073h53.927V492.691z
	 M485.294,242.129h-53.927v-2.165h-0.002c0.047-0.039,0.098-0.072,0.141-0.115l12.715-12.714l12.714,12.714
	c0.386,0.385,0.89,0.578,1.395,0.578s1.011-0.192,1.396-0.577l12.714-12.714l12.715,12.714c0.044,0.043,0.094,0.076,0.141,0.115
	V242.129z"/>
<path d="M442.35,456.361h31.959c0.979,0,1.774-0.793,1.774-1.773V264.625c0-0.981-0.795-1.776-1.774-1.776H442.35
	c-0.98,0-1.775,0.795-1.775,1.776v189.963C440.574,455.568,441.369,456.361,442.35,456.361z M444.125,266.4h28.406v186.412h-28.406
	V266.4z"/>
<path d="M458.328,271.721c-4.714,0-8.549,3.834-8.549,8.549s3.835,8.549,8.549,8.549s8.549-3.834,8.549-8.549
	S463.042,271.721,458.328,271.721z M458.328,284.873c-2.537,0-4.603-2.065-4.603-4.604c0-2.538,2.065-4.603,4.603-4.603
	c2.538,0,4.604,2.065,4.604,4.603C462.932,282.808,460.866,284.873,458.328,284.873z"/>
<path d="M458.328,294.466c-4.714,0-8.549,3.834-8.549,8.549s3.835,8.549,8.549,8.549s8.549-3.834,8.549-8.549
	S463.042,294.466,458.328,294.466z M458.328,307.619c-2.537,0-4.603-2.066-4.603-4.604c0-2.539,2.065-4.604,4.603-4.604
	c2.538,0,4.604,2.065,4.604,4.604C462.932,305.554,460.866,307.619,458.328,307.619z"/>
<path d="M458.328,317.211c-4.714,0-8.549,3.835-8.549,8.549c0,4.715,3.835,8.549,8.549,8.549s8.549-3.834,8.549-8.549
	C466.877,321.046,463.042,317.211,458.328,317.211z M458.328,330.362c-2.537,0-4.603-2.065-4.603-4.604
	c0-2.537,2.065-4.603,4.603-4.603c2.538,0,4.604,2.065,4.604,4.603C462.932,328.298,460.866,330.362,458.328,330.362z"/>
<path d="M458.328,339.957c-4.714,0-8.549,3.835-8.549,8.549s3.835,8.549,8.549,8.549s8.549-3.835,8.549-8.549
	S463.042,339.957,458.328,339.957z M458.328,353.107c-2.537,0-4.603-2.065-4.603-4.603s2.065-4.603,4.603-4.603
	c2.538,0,4.604,2.065,4.604,4.603S460.866,353.107,458.328,353.107z"/>
<path d="M458.328,362.702c-4.714,0-8.549,3.834-8.549,8.549c0,4.714,3.835,8.55,8.549,8.55s8.549-3.836,8.549-8.55
	C466.877,366.536,463.042,362.702,458.328,362.702z M458.328,375.854c-2.537,0-4.603-2.066-4.603-4.604
	c0-2.538,2.065-4.604,4.603-4.604c2.538,0,4.604,2.065,4.604,4.604C462.932,373.789,460.866,375.854,458.328,375.854z"/>
<path d="M458.328,385.447c-4.714,0-8.549,3.834-8.549,8.549s3.835,8.549,8.549,8.549s8.549-3.834,8.549-8.549
	S463.042,385.447,458.328,385.447z M458.328,398.599c-2.537,0-4.603-2.066-4.603-4.604c0-2.538,2.065-4.603,4.603-4.603
	c2.538,0,4.604,2.064,4.604,4.603S460.866,398.599,458.328,398.599z"/>
<path d="M458.328,408.191c-4.714,0-8.549,3.835-8.549,8.549s3.835,8.55,8.549,8.55s8.549-3.836,8.549-8.55
	S463.042,408.191,458.328,408.191z M458.328,421.343c-2.537,0-4.603-2.065-4.603-4.604c0-2.537,2.065-4.603,4.603-4.603
	c2.538,0,4.604,2.065,4.604,4.603C462.932,419.277,460.866,421.343,458.328,421.343z"/>
<path d="M458.328,430.937c-4.714,0-8.549,3.836-8.549,8.55s3.835,8.549,8.549,8.549s8.549-3.835,8.549-8.549
	S463.042,430.937,458.328,430.937z M458.328,444.089c-2.537,0-4.603-2.066-4.603-4.604s2.065-4.603,4.603-4.603
	c2.538,0,4.604,2.065,4.604,4.603S460.866,444.089,458.328,444.089z"/>
</svg>
