<?xml version="1.0" encoding="utf-8"?>
<!-- Generator: Adobe Illustrator 15.0.0, SVG Export Plug-In . SVG Version: 6.00 Build 0)  -->
<!DOCTYPE svg PUBLIC "-//W3C//DTD SVG 1.1//EN" "http://www.w3.org/Graphics/SVG/1.1/DTD/svg11.dtd">
<svg version="1.1" id="Capa_1" xmlns="http://www.w3.org/2000/svg" xmlns:xlink="http://www.w3.org/1999/xlink" x="0px" y="0px"
	 width="600px" height="600px" viewBox="0 0 600 600" enable-background="new 0 0 600 600" xml:space="preserve">
<g>
	<path d="M379.448,423.254h-7.248h-4.768v-43.473h2.426c1.107,0,2.006-0.898,2.006-2.006s-0.896-2.006-2.006-2.006h-4.434h-2.043
		v-30.768h1.238c1.109,0,2.008-0.896,2.008-2.006c0-1.107-0.896-2.006-2.008-2.006h-3.244h-9.076v-19.84h5.91
		c1.107,0,2.008-0.9,2.008-2.006c0-1.109-0.898-2.008-2.008-2.008h-5.91v-80.071c0-1.108-0.896-2.006-2.006-2.006h-4.568v-21.992
		h4.568c1.107,0,2.006-0.898,2.006-2.006c0-1.108-0.896-2.008-2.006-2.008h-6.574h-16.74v-63.354c0-0.033-0.01-0.065-0.01-0.1
		c-0.004-0.07-0.01-0.142-0.021-0.211c-0.012-0.068-0.023-0.136-0.043-0.201c-0.008-0.034-0.01-0.067-0.02-0.102l-4.16-12.98
		l-2.227-6.952l-2.453-7.651l-1.893-5.91l-2.42-7.552l-1.635-5.099l-2.371-7.408l-1.484-4.623l-6.102-19.045V32.953
		c0-1.107-0.896-2.006-2.005-2.006c-1.107,0-2.005,0.897-2.005,2.006v34.916l-6.103,19.044l-1.48,4.623l-2.373,7.407l-1.633,5.1
		l-2.42,7.552l-1.895,5.91l-2.451,7.652l-2.229,6.952l-4.158,12.979c-0.01,0.032-0.013,0.065-0.021,0.099
		c-0.019,0.066-0.033,0.136-0.044,0.205s-0.018,0.14-0.021,0.209c-0.001,0.033-0.01,0.065-0.01,0.101v63.354h-16.741h-6.573
		c-1.107,0-2.006,0.897-2.006,2.006c0,1.107,0.898,2.006,2.006,2.006h4.567v21.992h-4.567c-1.107,0-2.006,0.897-2.006,2.006v80.073
		h-5.91c-1.108,0-2.007,0.896-2.007,2.006c0,1.105,0.898,2.008,2.007,2.008h5.91v19.838h-9.076h-3.246
		c-1.107,0-2.006,0.898-2.006,2.008s0.898,2.006,2.006,2.006h1.24v30.766h-2.043h-4.432c-1.107,0-2.006,0.898-2.006,2.006
		s0.898,2.008,2.006,2.008h2.426v43.471h-4.768h-7.524c-1.108,0-2.006,0.9-2.006,2.008s0.897,2.006,2.006,2.006h5.518v139.779
		c0,1.109,0.898,2.006,2.007,2.006h144.125c1.109,0,2.008-0.896,2.008-2.006V427.268h5.24c1.109,0,2.008-0.898,2.008-2.008
		C381.453,424.152,380.557,423.254,379.448,423.254z M361.377,379.781h2.043v43.473h-26.252v-43.473h2.043H361.377z
		 M359.369,345.004v30.766h-18.15v-30.766H359.369z M324.729,213.068h0.244h16.74v21.992h-16.984V213.068z M322.967,147.708v61.349
		h-0.244h-0.859c-1.207-2.293-2.775-4.402-4.672-6.232V160.75c0-5.229-2.367-9.911-6.082-13.042H322.967z M300.137,74.758
		l3.644,11.374c-2.424-0.261-4.866-0.261-7.288,0L300.137,74.758z M295.129,90.39c3.315-0.56,6.697-0.56,10.016,0l2.301,7.18
		c-4.816-1.057-9.8-1.057-14.616,0L295.129,90.39z M291.377,102.101c5.716-1.734,11.803-1.734,17.52,0l2.363,7.373
		c-7.217-2.486-15.029-2.486-22.246,0.002L291.377,102.101z M287.421,114.448c8.085-3.747,17.345-3.747,25.431-0.001l2.416,7.539
		c-9.568-4.719-20.693-4.719-30.263,0.002L287.421,114.448z M283.186,127.667c10.315-6.926,23.586-6.926,33.9-0.001l2.451,7.652
		c-11.775-8.049-27.027-8.049-38.805,0L283.186,127.667z M278.474,142.371c12.17-12.082,31.153-12.083,43.323-0.002l0.426,1.326
		H278.05L278.474,142.371z M277.307,147.708h11.858c-3.716,3.131-6.082,7.813-6.082,13.041v42.074
		c-1.896,1.829-3.465,3.94-4.674,6.233h-0.858h-0.244V147.708z M258.559,213.068H275.3h0.244v21.992h-16.985V213.068z
		 M251.988,239.074h4.006c0.179,0.052,0.363,0.089,0.56,0.089h20.998c0.989,0,1.807-0.718,1.971-1.659
		c0.031-0.143,0.052-0.286,0.052-0.438v-16.551c0-5.839,2.498-11.424,6.854-15.324c0.425-0.381,0.667-0.924,0.667-1.494v-42.948
		c0-7.19,5.851-13.041,13.042-13.041c7.189,0,13.041,5.851,13.041,13.041v42.948c0,0.57,0.244,1.113,0.668,1.494
		c4.355,3.9,6.854,9.485,6.854,15.324v16.551c0,0.15,0.021,0.295,0.053,0.438c0.164,0.941,0.98,1.659,1.971,1.659h20.998
		c0.195,0,0.381-0.037,0.561-0.089h4.006V340.99h-6.98c-0.004,0-0.006,0-0.01,0h-5.393c-1.102,0-1.996,0.893-1.996,1.996
		c0,1.102,0.895,1.996,1.996,1.996h0.062v0.021h1.238v30.766h-2.043h-4.432c-1.109,0-2.006,0.898-2.006,2.006
		s0.896,2.008,2.006,2.008h2.426v43.471h-3.986h-1.479h-10.34h-4.115v0.012h-0.051c-1.107,0-2.006,0.898-2.006,2.006
		s0.898,2.006,2.006,2.006h5.51v85.596h-37.117v-85.596h5.546c1.107,0,2.006-0.898,2.006-2.006s-0.898-2.006-2.006-2.006h-2.494
		v-0.012h-1.707h-10.341h-1.931h-3.533v-43.471h2.426c1.107,0,2.006-0.898,2.006-2.008c0-1.107-0.898-2.006-2.006-2.006h-4.433
		h-2.042v-30.766h1.239h0.008c1.103,0,1.996-0.895,1.996-1.996c0-1.09-0.872-1.971-1.956-1.992l0.001-0.025h-12.37V239.074z
		 M240.904,345.004h18.021h0.131v30.766h-18.152V345.004z M236.855,379.781h2.042h22.165h2.043v43.473h-26.25V379.781z
		 M370.194,565.039H230.08V427.268h4.768h30.263h12.454v87.611c0,1.109,0.898,2.008,2.006,2.008h41.131
		c1.107,0,2.008-0.898,2.008-2.008v-87.611h12.451h30.266h4.768V565.039z"/>
	<path d="M296.116,190.858h7.767c1.793,0,3.25-1.458,3.25-3.25v-21.257c0-1.792-1.457-3.25-3.25-3.25h-7.767
		c-1.792,0-3.25,1.458-3.25,3.25v21.257C292.866,189.4,294.324,190.858,296.116,190.858z M297.366,167.601h5.267v18.757h-5.267
		V167.601z"/>
	<path d="M296.116,235.816h7.767c1.793,0,3.25-1.458,3.25-3.25v-21.257c0-1.792-1.457-3.25-3.25-3.25h-7.767
		c-1.792,0-3.25,1.458-3.25,3.25v21.257C292.866,234.358,294.324,235.816,296.116,235.816z M297.366,212.559h5.267v18.757h-5.267
		V212.559z"/>
	<path d="M296.116,280.774h7.767c1.793,0,3.25-1.458,3.25-3.25v-21.257c0-1.792-1.457-3.25-3.25-3.25h-7.767
		c-1.792,0-3.25,1.458-3.25,3.25v21.257C292.866,279.316,294.324,280.774,296.116,280.774z M297.366,257.517h5.267v18.757h-5.267
		V257.517z"/>
	<path d="M296.116,325.732h7.767c1.793,0,3.25-1.459,3.25-3.25v-21.258c0-1.792-1.457-3.25-3.25-3.25h-7.767
		c-1.792,0-3.25,1.458-3.25,3.25v21.258C292.866,324.273,294.324,325.732,296.116,325.732z M297.366,302.475h5.267v18.758h-5.267
		V302.475z"/>
	<path d="M326.115,280.774h7.768c1.793,0,3.25-1.458,3.25-3.25v-21.257c0-1.792-1.457-3.25-3.25-3.25h-7.768
		c-1.791,0-3.25,1.458-3.25,3.25v21.257C322.865,279.316,324.324,280.774,326.115,280.774z M327.365,257.517h5.268v18.757h-5.268
		V257.517z"/>
	<path d="M326.115,325.732h7.768c1.793,0,3.25-1.459,3.25-3.25v-21.258c0-1.792-1.457-3.25-3.25-3.25h-7.768
		c-1.791,0-3.25,1.458-3.25,3.25v21.258C322.865,324.273,324.324,325.732,326.115,325.732z M327.365,302.475h5.268v18.758h-5.268
		V302.475z"/>
	<path d="M266.116,280.774h7.768c1.792,0,3.25-1.458,3.25-3.25v-21.257c0-1.792-1.458-3.25-3.25-3.25h-7.768
		c-1.792,0-3.25,1.458-3.25,3.25v21.257C262.866,279.316,264.324,280.774,266.116,280.774z M267.366,257.517h5.268v18.757h-5.268
		V257.517z"/>
	<path d="M273.884,325.732c1.792,0,3.25-1.459,3.25-3.25v-21.258c0-1.792-1.458-3.25-3.25-3.25h-7.768
		c-1.792,0-3.25,1.458-3.25,3.25v21.258c0,1.791,1.458,3.25,3.25,3.25H273.884z M267.366,302.475h5.268v18.758h-5.268V302.475z"/>
	<path d="M296.116,370.689h7.767c1.793,0,3.25-1.457,3.25-3.25v-21.256c0-1.793-1.457-3.25-3.25-3.25h-7.767
		c-1.792,0-3.25,1.457-3.25,3.25v21.256C292.866,369.232,294.324,370.689,296.116,370.689z M297.366,347.434h5.267v18.756h-5.267
		V347.434z"/>
	<path d="M296.116,415.648h7.767c1.793,0,3.25-1.459,3.25-3.25v-21.258c0-1.791-1.457-3.25-3.25-3.25h-7.767
		c-1.792,0-3.25,1.459-3.25,3.25v21.258C292.866,414.189,294.324,415.648,296.116,415.648z M297.366,392.391h5.267v18.758h-5.267
		V392.391z"/>
	<path d="M254.884,438.102h-7.768c-1.792,0-3.25,1.457-3.25,3.25v21.256c0,1.793,1.458,3.25,3.25,3.25h7.768
		c1.792,0,3.25-1.457,3.25-3.25v-21.256C258.134,439.559,256.676,438.102,254.884,438.102z M253.634,461.357h-5.268v-18.756h5.268
		V461.357z"/>
	<path d="M254.884,483.059h-7.768c-1.792,0-3.25,1.459-3.25,3.25v21.258c0,1.791,1.458,3.25,3.25,3.25h7.768
		c1.792,0,3.25-1.459,3.25-3.25v-21.258C258.134,484.518,256.676,483.059,254.884,483.059z M253.634,506.316h-5.268v-18.758h5.268
		V506.316z"/>
	<path d="M254.884,528.018h-7.768c-1.792,0-3.25,1.457-3.25,3.25v21.256c0,1.793,1.458,3.25,3.25,3.25h7.768
		c1.792,0,3.25-1.457,3.25-3.25v-21.256C258.134,529.475,256.676,528.018,254.884,528.018z M253.634,551.273h-5.268v-18.756h5.268
		V551.273z"/>
	<path d="M352.883,438.102h-7.768c-1.791,0-3.25,1.457-3.25,3.25v21.256c0,1.793,1.459,3.25,3.25,3.25h7.768
		c1.793,0,3.25-1.457,3.25-3.25v-21.256C356.133,439.559,354.676,438.102,352.883,438.102z M351.633,461.357h-5.268v-18.756h5.268
		V461.357z"/>
	<path d="M352.883,483.059h-7.768c-1.791,0-3.25,1.459-3.25,3.25v21.258c0,1.791,1.459,3.25,3.25,3.25h7.768
		c1.793,0,3.25-1.459,3.25-3.25v-21.258C356.133,484.518,354.676,483.059,352.883,483.059z M351.633,506.316h-5.268v-18.758h5.268
		V506.316z"/>
	<path d="M352.883,528.018h-7.768c-1.791,0-3.25,1.457-3.25,3.25v21.256c0,1.793,1.459,3.25,3.25,3.25h7.768
		c1.793,0,3.25-1.457,3.25-3.25v-21.256C356.133,529.475,354.676,528.018,352.883,528.018z M351.633,551.273h-5.268v-18.756h5.268
		V551.273z"/>
	<path d="M296.116,460.605h7.767c1.793,0,3.25-1.457,3.25-3.25V436.1c0-1.793-1.457-3.25-3.25-3.25h-7.767
		c-1.792,0-3.25,1.457-3.25,3.25v21.256C292.866,459.148,294.324,460.605,296.116,460.605z M297.366,437.35h5.267v18.756h-5.267
		V437.35z"/>
	<path d="M296.116,505.564h7.767c1.793,0,3.25-1.459,3.25-3.25v-21.258c0-1.791-1.457-3.25-3.25-3.25h-7.767
		c-1.792,0-3.25,1.459-3.25,3.25v21.258C292.866,504.105,294.324,505.564,296.116,505.564z M297.366,482.307h5.267v18.758h-5.267
		V482.307z"/>
	<path d="M303.883,528.018h-7.767c-1.792,0-3.25,1.457-3.25,3.25v21.256c0,1.793,1.458,3.25,3.25,3.25h7.767
		c1.793,0,3.25-1.457,3.25-3.25v-21.256C307.133,529.475,305.676,528.018,303.883,528.018z M302.633,551.273h-5.267v-18.756h5.267
		V551.273z"/>
</g>
</svg>
