<?xml version="1.0" encoding="utf-8"?>
<!-- Generator: Adobe Illustrator 15.0.0, SVG Export Plug-In . SVG Version: 6.00 Build 0)  -->
<!DOCTYPE svg PUBLIC "-//W3C//DTD SVG 1.1//EN" "http://www.w3.org/Graphics/SVG/1.1/DTD/svg11.dtd">
<svg version="1.1" id="Capa_1" xmlns="http://www.w3.org/2000/svg" xmlns:xlink="http://www.w3.org/1999/xlink" x="0px" y="0px"
	 width="600px" height="600px" viewBox="0 0 600 600" enable-background="new 0 0 600 600" xml:space="preserve">
<g>
	<path d="M540.071,382.672H398.777v-19.755c0-1.423-1.153-2.577-2.577-2.577h-28.344v-35.865v-9.658
		c0-1.124-0.729-2.118-1.802-2.457l-19.305-6.097v-26.09c0-1.423-1.154-2.577-2.577-2.577h-6.411v-64.991
		c0-1.423-1.153-2.577-2.577-2.577h-5.867v-51.965c0-1.249-1.012-2.26-2.261-2.26h-6.92l-11.946-51.874h0.733
		c2.716,0,4.928-2.21,4.928-4.928c0-2.717-2.212-4.928-4.928-4.928h-7.077v-1.973c2.787-0.908,4.812-3.529,4.812-6.616
		c0-3.087-2.024-5.708-4.812-6.616v-1.974c0-1.186-0.962-2.147-2.148-2.147s-2.147,0.961-2.147,2.147v1.973
		c-2.789,0.908-4.812,3.529-4.812,6.616s2.023,5.709,4.812,6.617v1.973h-6.473c-2.717,0-4.928,2.211-4.928,4.928
		c0,2.718,2.21,4.928,4.928,4.928h0.734l-11.907,51.697l-0.178,0.177h-6.784c-1.248,0-2.26,1.011-2.26,2.26v51.965h-5.868
		c-1.423,0-2.577,1.154-2.577,2.577v64.991h-6.411c-1.423,0-2.577,1.154-2.577,2.577v26.09l-19.306,6.097
		c-1.072,0.339-1.801,1.333-1.801,2.457v9.658v35.865h-28.344c-1.423,0-2.577,1.154-2.577,2.577v19.755H59.93
		c-1.423,0-2.577,1.153-2.577,2.576v137.429c0,1.424,1.154,2.577,2.577,2.577h40.584c1.423,0,2.577-1.153,2.577-2.577v-48.529
		c0-15.866,12.908-28.774,28.774-28.774c15.867,0,28.774,12.908,28.774,28.774v48.529c0,1.424,1.154,2.577,2.577,2.577h40.584
		h67.426c1.423,0,2.577-1.153,2.577-2.577v-83.745c0-14.445,11.752-26.198,26.197-26.198s26.197,11.753,26.197,26.198v83.745
		c0,1.424,1.153,2.577,2.577,2.577h67.425h40.585c1.423,0,2.576-1.153,2.576-2.577v-48.529c0-15.866,12.909-28.774,28.774-28.774
		c15.866,0,28.774,12.908,28.774,28.774v48.529c0,1.424,1.153,2.577,2.576,2.577h40.585c1.423,0,2.576-1.153,2.576-2.577V385.248
		C542.647,383.825,541.493,382.672,540.071,382.672z M299.698,82.819c1.469,0,2.664,1.195,2.664,2.664
		c0,1.47-1.194,2.665-2.664,2.665s-2.665-1.195-2.665-2.665C297.033,84.014,298.229,82.819,299.698,82.819z M537.493,387.825v18.896
		H398.777v-18.896H537.493z M306.928,192.049l-5.232-5.201c-1.005-1-2.629-0.999-3.634,0l-4.989,4.959v-13.392
		c0-3.82,3.107-6.928,6.927-6.928c3.819,0,6.928,3.108,6.928,6.928V192.049z M299.879,192.308l17.825,17.72h-2.771l-13.24-13.101
		c-1.006-0.995-2.623-0.994-3.625,0l-13.236,13.101h-2.776L299.879,192.308z M292.156,210.028l7.723-7.644l7.726,7.644H292.156z
		 M294.124,155.428l5.755-5.696l5.756,5.696H294.124z M311.742,155.428l-10.354-10.244c-0.837-0.828-2.184-0.828-3.021,0
		l-10.348,10.243h-1.823l13.682-13.601l13.682,13.601H311.742z M290.445,99c0-0.35,0.284-0.633,0.633-0.633h17.845
		c0.349,0,0.632,0.284,0.632,0.633c0,0.349-0.283,0.633-0.632,0.633h-3.432h-5.349h-0.286h-5.346h-3.433
		C290.729,99.634,290.445,99.35,290.445,99z M296.219,103.929h3.637h0.286h3.64l10.668,46.329l-13.058-12.981
		c-0.838-0.833-2.19-0.833-3.028,0l-12.744,12.668L296.219,103.929z M324.797,160.322v49.49l-13.35-13.27v-18.126
		c0-6.312-5.136-11.447-11.447-11.447c-6.312,0-11.447,5.135-11.447,11.447V196.3l-13.35,13.271v-49.249H324.797z M275.807,215.182
		h48.145h8.656v1.717h-65.215v-1.717H275.807z M267.392,222.053h65.215v55.543h-65.215V222.053z M258.405,282.749h6.411h70.368
		h6.411v21.886l-40.819-12.89c-0.504-0.16-1.046-0.16-1.551,0l-40.819,12.89V282.749z M300,296.905l62.701,19.8v4.253
		l-61.926-19.556c-0.504-0.159-1.046-0.159-1.551,0l-61.926,19.556v-4.253L300,296.905z M237.299,326.362L300,306.562l62.701,19.801
		v33.978H237.299V326.362z M201.224,387.825v18.896H62.507v-18.896H201.224z M131.865,440.221
		c-18.708,0-33.927,15.219-33.927,33.927V520.1H62.507V411.875h138.717V520.1h-35.431v-45.952
		C165.793,455.439,150.573,440.221,131.865,440.221z M206.377,520.1v-18.608h62.272V520.1H206.377z M300,407.581
		c-17.287,0-31.351,14.063-31.351,31.351v57.405h-62.272V385.248v-19.755h28.345h130.557h28.345v19.755v111.089h-62.272v-57.405
		C331.351,421.645,317.287,407.581,300,407.581z M331.351,501.491h62.272V520.1h-62.272V501.491z M502.063,520.1v-45.952
		c0-18.708-15.22-33.927-33.928-33.927c-18.707,0-33.928,15.219-33.928,33.927V520.1h-35.431V411.875h138.717V520.1H502.063z"/>
	<path d="M300,225.489c-11.524,0-20.9,9.375-20.9,20.9c0,11.525,9.375,20.9,20.9,20.9s20.9-9.375,20.9-20.9
		C320.901,234.864,311.525,225.489,300,225.489z M300,262.135c-8.683,0-15.747-7.063-15.747-15.747
		c0-8.683,7.064-15.747,15.747-15.747s15.747,7.064,15.747,15.747C315.747,255.072,308.683,262.135,300,262.135z"/>
	<path d="M308.59,243.812h-6.013V237.8c0-1.423-1.153-2.577-2.577-2.577c-1.423,0-2.577,1.154-2.577,2.577v8.588
		c0,1.423,1.154,2.577,2.577,2.577h8.59c1.423,0,2.576-1.153,2.576-2.577C311.166,244.966,310.013,243.812,308.59,243.812z"/>
</g>
</svg>
