<?xml version="1.0" encoding="utf-8"?>
<!-- Generator: Adobe Illustrator 15.0.0, SVG Export Plug-In . SVG Version: 6.00 Build 0)  -->
<!DOCTYPE svg PUBLIC "-//W3C//DTD SVG 1.1//EN" "http://www.w3.org/Graphics/SVG/1.1/DTD/svg11.dtd">
<svg version="1.1" id="Capa_1" xmlns="http://www.w3.org/2000/svg" xmlns:xlink="http://www.w3.org/1999/xlink" x="0px" y="0px"
	 width="600px" height="600px" viewBox="0 0 600 600" enable-background="new 0 0 600 600" xml:space="preserve">
<g>
	<path d="M588.406,404.993h-51.757V234.799c0-7.764-6.316-14.081-14.08-14.081s-14.08,6.317-14.08,14.081v170.194h-13.524V259.697
		c0-6.923-5.633-12.557-12.558-12.557s-12.559,5.632-12.559,12.557v145.296h-34.194V298.522c0.001-3.344-1.299-6.486-3.661-8.85
		c-1.924-1.925-4.369-3.131-7.019-3.517c7.396-0.147,13.368-6.197,13.368-13.626c0-7.517-6.118-13.632-13.64-13.632
		c-7.517,0-13.631,6.115-13.631,13.632c0,6.879,5.123,12.572,11.749,13.494c-6.749,0.172-12.19,5.705-12.19,12.497v21.958h-9.985
		v-18.284c0-0.658-0.188-1.306-0.545-1.86l-19.323-30.183c-0.592-0.923-1.586-1.51-2.681-1.582
		c-1.102-0.069-2.156,0.383-2.862,1.219l-13.23,15.71v-2.753c0-0.008,0.002-0.015,0.002-0.023c0-0.008-0.002-0.015-0.002-0.023
		v-9.129c3.632-3.35,13.63-13.828,13.946-27.896c0.233-10.417-4.851-20.299-15.112-29.373
		c-27.025-23.905-51.081-37.047-57.993-40.596v-12.507c0-1.905-1.544-3.449-3.449-3.449c-1.905,0-3.449,1.544-3.449,3.449v12.505
		c-6.905,3.544-30.965,16.687-57.999,40.599c-10.259,9.075-15.343,18.958-15.11,29.375c0.312,13.945,10.133,24.354,13.842,27.795
		v11.902l-13.125-15.586c-0.708-0.838-1.779-1.293-2.864-1.219c-1.095,0.071-2.088,0.658-2.68,1.582l-19.315,30.183
		c-0.1,0.156-0.183,0.319-0.256,0.489c-0.016,0.033-0.024,0.068-0.038,0.102c-0.063,0.162-0.116,0.327-0.153,0.496
		c-0.011,0.045-0.022,0.093-0.03,0.14c-0.039,0.209-0.066,0.419-0.066,0.634v18.284h-9.993V298.52
		c0-6.488-4.961-11.833-11.287-12.451c3.042-0.349,5.861-1.697,8.059-3.895c2.576-2.578,3.996-6.003,3.996-9.645
		c0-7.517-6.119-13.632-13.64-13.632c-7.517,0-13.631,6.115-13.631,13.632c0,7.127,5.497,12.988,12.469,13.58
		c-6.179,0.757-10.983,6.028-10.983,12.41v106.472h-34.377V259.697c0-6.923-5.633-12.557-12.558-12.557
		c-6.923,0-12.557,5.632-12.557,12.557v145.296H90.132V234.799c0-7.764-6.316-14.081-14.081-14.081
		c-7.764,0-14.08,6.317-14.08,14.081v170.194H11.595c-1.905,0-3.449,1.544-3.449,3.449v28.358c0,1.904,1.544,3.449,3.449,3.449
		h576.811c1.905,0,3.449-1.545,3.449-3.449v-28.358C591.855,406.537,590.312,404.993,588.406,404.993z M515.388,234.799
		c0-3.961,3.223-7.182,7.183-7.182c3.958,0,7.181,3.221,7.181,7.182v170.194h-14.363V234.799z M476.746,259.697
		c0-3.12,2.538-5.659,5.66-5.659c3.121,0,5.659,2.539,5.659,5.659v145.296h-11.319V259.697z M417.969,272.53
		c0-3.712,3.021-6.733,6.733-6.733c3.717,0,6.741,3.02,6.741,6.733c0,3.717-3.024,6.742-6.741,6.742
		C420.99,279.272,417.969,276.247,417.969,272.53z M377.493,277.815l13.326,20.814h-28.958v-2.251L377.493,277.815z
		 M243.683,275.458h111.28v3.815h-111.28V275.458z M229.734,245.477c-0.169-8.277,4.132-16.354,12.786-24.008
		c26.563-23.496,50.749-36.62,56.876-39.772c6.124,3.147,30.27,16.241,56.875,39.772c8.653,7.654,12.956,15.73,12.786,24.007
		c-0.235,11.47-8.983,20.476-11.802,23.084H241.536C238.713,265.947,229.97,256.944,229.734,245.477z M221.298,277.815
		l15.384,18.269v2.66h-28.776L221.298,277.815z M168.556,272.53c0-3.712,3.02-6.733,6.733-6.733c3.718,0,6.742,3.02,6.742,6.733
		c0,1.8-0.702,3.493-1.975,4.767c-1.274,1.274-2.965,1.975-4.764,1.975h-0.003C171.576,279.272,168.556,276.247,168.556,272.53z
		 M170.042,298.521c0-3.096,2.516-5.615,5.61-5.615s5.61,2.519,5.61,5.615v25.405c0,1.905,1.544,3.449,3.449,3.449h16.891
		c1.904,0,3.449-1.544,3.449-3.449v-18.284h35.079c1.905,0,3.449-1.543,3.449-3.449v-6.446c0.062-0.259,0.104-0.524,0.104-0.799
		v-8.777h111.28v15.907c0,1.904,1.544,3.449,3.449,3.449h35.335v18.399c0,1.904,1.545,3.449,3.449,3.449h16.884
		c1.905,0,3.449-1.545,3.449-3.449V298.52c0-3.096,2.516-5.615,5.611-5.615c1.504,0,2.915,0.584,3.975,1.644
		c1.059,1.059,1.643,2.47,1.642,3.971v106.471H322.341v-39.74c0-12.325-10.023-22.35-22.343-22.35
		c-12.317,0-22.341,10.026-22.341,22.35v39.74H170.042V298.521L170.042,298.521z M315.443,404.993h-30.888v-39.741
		c0-8.521,6.929-15.452,15.443-15.452c8.516,0,15.445,6.932,15.445,15.452V404.993L315.443,404.993z M110.551,259.697
		c0-3.12,2.538-5.659,5.658-5.659s5.66,2.539,5.66,5.659v145.296h-11.318V259.697z M68.872,234.799c0-3.961,3.221-7.182,7.182-7.182
		s7.182,3.221,7.182,7.182v170.194H68.872V234.799z M584.956,433.352H15.044v-21.46h50.368c0.003,0,0.007,0.001,0.011,0.001h21.263
		c0.003,0,0.007-0.001,0.011-0.001h20.405h18.216h41.265c0.003,0,0.006,0.001,0.011,0.001h265.611c0.004,0,0.008-0.001,0.013-0.001
		h41.08h18.218h20.413c0.003,0,0.008,0.001,0.011,0.001H533.2c0.003,0,0.008-0.001,0.011-0.001h51.746L584.956,433.352
		L584.956,433.352z"/>
	<path d="M221.596,318.564c-1.905,0-3.449,1.544-3.449,3.449v24.337c0,1.904,1.543,3.449,3.449,3.449s3.449-1.545,3.449-3.449
		v-24.337C225.046,320.108,223.502,318.564,221.596,318.564z"/>
	<path d="M378.403,349.8c1.905,0,3.449-1.545,3.449-3.449v-24.337c0-1.905-1.544-3.449-3.449-3.449s-3.449,1.544-3.449,3.449v24.337
		C374.953,348.257,376.497,349.8,378.403,349.8z"/>
	<path d="M193.654,361.779c-1.905,0-3.449,1.544-3.449,3.449v24.336c0,1.904,1.543,3.449,3.449,3.449s3.449-1.545,3.449-3.449
		v-24.336C197.103,363.323,195.559,361.779,193.654,361.779z"/>
	<path d="M406.347,393.014c1.904,0,3.449-1.545,3.449-3.449v-24.336c0-1.905-1.545-3.449-3.449-3.449
		c-1.905,0-3.449,1.544-3.449,3.449v24.336C402.898,391.472,404.442,393.014,406.347,393.014z"/>
	<path d="M221.596,361.779c-1.905,0-3.449,1.544-3.449,3.449v24.336c0,1.904,1.543,3.449,3.449,3.449s3.449-1.545,3.449-3.449
		v-24.336C225.046,363.323,223.502,361.779,221.596,361.779z"/>
	<path d="M378.403,393.014c1.905,0,3.449-1.545,3.449-3.449v-24.336c0-1.905-1.544-3.449-3.449-3.449s-3.449,1.544-3.449,3.449
		v24.336C374.953,391.472,376.497,393.014,378.403,393.014z"/>
</g>
</svg>
