<?xml version="1.0" encoding="utf-8"?>
<!-- Generator: Adobe Illustrator 15.0.0, SVG Export Plug-In . SVG Version: 6.00 Build 0)  -->
<!DOCTYPE svg PUBLIC "-//W3C//DTD SVG 1.1//EN" "http://www.w3.org/Graphics/SVG/1.1/DTD/svg11.dtd">
<svg version="1.1" id="Capa_1" xmlns="http://www.w3.org/2000/svg" xmlns:xlink="http://www.w3.org/1999/xlink" x="0px" y="0px"
	 width="600px" height="600px" viewBox="0 0 600 600" enable-background="new 0 0 600 600" xml:space="preserve">
<g>
	<path d="M187.072,355.379c5.125,0,9.294-4.17,9.294-9.295v-20.358c0-5.125-4.169-9.294-9.294-9.294s-9.294,4.169-9.294,9.294
		v20.358C177.777,351.209,181.947,355.379,187.072,355.379z M183.088,325.726c0-2.196,1.787-3.983,3.983-3.983
		c2.196,0,3.983,1.787,3.983,3.983v20.358c0,2.197-1.787,3.983-3.983,3.983c-2.197,0-3.983-1.786-3.983-3.983V325.726z"/>
	<path d="M187.072,393.144c-5.125,0-9.294,4.17-9.294,9.294v20.359c0,5.126,4.169,9.294,9.294,9.294s9.294-4.168,9.294-9.294
		v-20.359C196.365,397.313,192.197,393.144,187.072,393.144z M191.054,422.797c0,2.197-1.787,3.983-3.983,3.983
		c-2.197,0-3.983-1.786-3.983-3.983v-20.359c0-2.195,1.787-3.982,3.983-3.982c2.196,0,3.983,1.787,3.983,3.982V422.797z"/>
	<path d="M187.072,387.391c4.88,0,8.852-3.971,8.852-8.852s-3.971-8.852-8.852-8.852c-4.881,0-8.852,3.971-8.852,8.852
		S182.19,387.391,187.072,387.391z M187.072,374.998c1.953,0,3.541,1.589,3.541,3.541s-1.588,3.54-3.541,3.54
		s-3.541-1.588-3.541-3.54S185.119,374.998,187.072,374.998z"/>
	<path d="M299.929,377.803c4.881,0,8.852-3.97,8.852-8.852c0-4.881-3.971-8.852-8.852-8.852c-4.88,0-8.852,3.971-8.852,8.852
		C291.077,373.833,295.049,377.803,299.929,377.803z M299.929,365.411c1.952,0,3.541,1.588,3.541,3.54
		c0,1.953-1.589,3.541-3.541,3.541c-1.953,0-3.541-1.588-3.541-3.541C296.388,366.999,297.976,365.411,299.929,365.411z"/>
	<path d="M412.787,355.379c5.124,0,9.294-4.17,9.294-9.295v-20.358c0-5.125-4.17-9.294-9.294-9.294
		c-5.126,0-9.295,4.169-9.295,9.294v20.358C403.492,351.209,407.661,355.379,412.787,355.379z M408.804,325.726
		c0-2.196,1.786-3.983,3.983-3.983c2.195,0,3.982,1.787,3.982,3.983v20.358c0,2.197-1.787,3.983-3.982,3.983
		c-2.197,0-3.983-1.786-3.983-3.983V325.726z"/>
	<path d="M412.787,393.144c-5.126,0-9.295,4.17-9.295,9.294v20.359c0,5.126,4.169,9.294,9.295,9.294
		c5.124,0,9.294-4.168,9.294-9.294v-20.359C422.081,397.313,417.911,393.144,412.787,393.144z M416.77,422.797
		c0,2.197-1.787,3.983-3.982,3.983c-2.197,0-3.983-1.786-3.983-3.983v-20.359c0-2.195,1.786-3.982,3.983-3.982
		c2.195,0,3.982,1.787,3.982,3.982V422.797z"/>
	<path d="M412.787,387.391c4.88,0,8.852-3.971,8.852-8.852s-3.972-8.852-8.852-8.852c-4.881,0-8.852,3.971-8.852,8.852
		S407.906,387.391,412.787,387.391z M412.787,374.998c1.951,0,3.54,1.589,3.54,3.541s-1.589,3.54-3.54,3.54
		c-1.954,0-3.541-1.588-3.541-3.54S410.833,374.998,412.787,374.998z"/>
	<path d="M299.929,322.627c5.125,0,9.295-4.17,9.295-9.294v-20.359c0-5.125-4.17-9.294-9.295-9.294s-9.294,4.169-9.294,9.294v20.359
		C290.635,318.457,294.804,322.627,299.929,322.627z M295.946,292.974c0-2.196,1.787-3.983,3.983-3.983s3.983,1.787,3.983,3.983
		v20.359c0,2.195-1.787,3.982-3.983,3.982s-3.983-1.787-3.983-3.982V292.974z"/>
	<path d="M96.416,165.77c-5.125,0-9.294,4.169-9.294,9.294v20.358c0,5.125,4.169,9.294,9.294,9.294c5.125,0,9.294-4.169,9.294-9.294
		v-20.358C105.711,169.939,101.541,165.77,96.416,165.77z M100.4,195.422c0,2.197-1.787,3.983-3.983,3.983
		c-2.196,0-3.983-1.787-3.983-3.983v-20.358c0-2.196,1.787-3.983,3.983-3.983c2.197,0,3.983,1.787,3.983,3.983V195.422z"/>
	<path d="M90.811,404.748h11.064c1.438,0,2.604-1.166,2.604-2.604v-15.344c0-1.438-1.166-2.604-2.604-2.604H90.811
		c-1.438,0-2.604,1.166-2.604,2.604v15.344C88.206,403.582,89.372,404.748,90.811,404.748z M93.415,389.405h5.855v10.134h-5.855
		V389.405z"/>
	<path d="M90.811,373.03h11.064c1.438,0,2.604-1.165,2.604-2.604v-15.343c0-1.438-1.166-2.604-2.604-2.604H90.811
		c-1.438,0-2.604,1.166-2.604,2.604v15.343C88.206,371.865,89.372,373.03,90.811,373.03z M93.415,357.688h5.855v10.133h-5.855
		V357.688z"/>
	<path d="M101.875,484.808H90.811c-1.438,0-2.604,1.165-2.604,2.604v15.344c0,1.438,1.166,2.605,2.604,2.605h11.064
		c1.438,0,2.604-1.167,2.604-2.605v-15.344C104.479,485.973,103.313,484.808,101.875,484.808z M99.27,500.151h-5.855v-10.135h5.855
		V500.151z"/>
	<path d="M101.875,453.091H90.811c-1.438,0-2.604,1.165-2.604,2.604v15.344c0,1.438,1.166,2.605,2.604,2.605h11.064
		c1.438,0,2.604-1.167,2.604-2.605v-15.344C104.479,454.256,103.313,453.091,101.875,453.091z M99.27,468.435h-5.855V458.3h5.855
		V468.435z"/>
	<path d="M90.811,341.313h11.064c1.438,0,2.604-1.165,2.604-2.604v-15.343c0-1.438-1.166-2.604-2.604-2.604H90.811
		c-1.438,0-2.604,1.166-2.604,2.604v15.343C88.206,340.148,89.372,341.313,90.811,341.313z M93.415,325.972h5.855v10.133h-5.855
		V325.972z"/>
	<path d="M90.811,309.597h11.064c1.438,0,2.604-1.165,2.604-2.604V291.65c0-1.438-1.166-2.604-2.604-2.604H90.811
		c-1.438,0-2.604,1.166-2.604,2.604v15.343C88.206,308.432,89.372,309.597,90.811,309.597z M93.415,294.254h5.855v10.133h-5.855
		V294.254z"/>
	<path d="M562.817,257.716h-10.622h-5.238v-36.661c0-1.466-1.188-2.655-2.656-2.655h-5.975v-68.969c0-0.038-0.009-0.072-0.01-0.109
		c-0.19-18.12-14.316-32.951-32.149-34.269v-5.147c3.793-1.144,6.564-4.666,6.564-8.827c0-4.161-2.771-7.683-6.564-8.826V71.427
		c0-1.467-1.189-2.656-2.655-2.656c-1.468,0-2.656,1.189-2.656,2.656v20.826c-3.793,1.144-6.563,4.666-6.563,8.826
		c0,4.161,2.771,7.683,6.563,8.827v5.159c-17.767,1.389-31.82,16.193-32.004,34.268c0,0.033-0.009,0.064-0.009,0.098v68.969h-5.977
		c-1.466,0-2.655,1.189-2.655,2.655v36.661h-5.384h-10.475c-1.466,0-2.655,1.189-2.655,2.656c0,1.466,1.189,2.655,2.655,2.655h7.819
		v44.256h-26.106v-10.326c0-6.412-4.569-11.776-10.622-13.01v-10.594c0-1.466-1.189-2.655-2.655-2.655
		c-1.468,0-2.656,1.189-2.656,2.655v10.594c-6.054,1.234-10.621,6.598-10.621,13.01v10.326h-26.112v-33.93
		c0-1.466-1.189-2.655-2.655-2.655h-9.295v-10.326c0-1.467-1.189-2.656-2.655-2.656c-1.468,0-2.655,1.189-2.655,2.656v10.326h-6.854
		c-1.293-8.912-8.962-15.786-18.227-15.786c-6.3,0-11.866,3.18-15.194,8.014v-5.505c0-7.879-5.756-14.423-13.277-15.693v-5.281
		c3.793-1.144,6.564-4.666,6.564-8.827c0-4.161-2.771-7.683-6.564-8.827v-20.826c0-1.466-1.189-2.655-2.656-2.655
		s-2.655,1.189-2.655,2.655v20.826c-3.793,1.144-6.564,4.666-6.564,8.827c0,4.161,2.771,7.683,6.564,8.827v5.281
		c-7.523,1.27-13.277,7.814-13.277,15.693v2.789c-3.33-3.271-7.887-5.297-12.913-5.297c-9.265,0-16.934,6.875-18.228,15.786h-9.134
		v-10.326c0-1.467-1.188-2.656-2.655-2.656c-1.467,0-2.656,1.189-2.656,2.656v10.326h-9.294c-1.467,0-2.656,1.189-2.656,2.655v33.93
		h-26.112v-10.326c0-6.412-4.569-11.776-10.622-13.01v-10.594c0-1.466-1.188-2.655-2.655-2.655s-2.656,1.189-2.656,2.655v10.594
		c-6.053,1.234-10.622,6.598-10.622,13.01v10.326h-26.112v-44.256h7.966c1.466,0,2.655-1.189,2.655-2.655
		c0-1.467-1.189-2.656-2.655-2.656h-10.622h-5.237v-36.661c0-1.466-1.189-2.655-2.655-2.655h-5.976v-68.969
		c0-0.036-0.009-0.068-0.01-0.104c-0.187-18.123-14.315-32.957-32.15-34.274v-5.147c3.793-1.144,6.564-4.666,6.564-8.827
		c0-4.161-2.771-7.683-6.564-8.826V71.427c0-1.467-1.189-2.656-2.656-2.656s-2.655,1.189-2.655,2.656v20.826
		c-3.793,1.144-6.564,4.666-6.564,8.826c0,4.161,2.771,7.683,6.564,8.827v5.159c-17.766,1.389-31.816,16.189-32.002,34.263
		c-0.001,0.035-0.01,0.068-0.01,0.104v68.969h-5.975c-1.467,0-2.656,1.189-2.656,2.655v36.661h-5.385H37.185
		c-1.466,0-2.655,1.189-2.655,2.656c0,1.466,1.189,2.655,2.655,2.655h7.819v265.546c0,1.468,1.189,2.655,2.655,2.655h97.367h84.09
		h23.899h15.416h62.996h15.416h23.899h84.084h0.006h97.362c1.466,0,2.655-1.188,2.655-2.655v-98.3
		c0.088-0.264,0.146-0.543,0.146-0.838c0-0.294-0.059-0.572-0.146-0.837V263.027h7.967c1.466,0,2.655-1.189,2.655-2.655
		C565.472,258.905,564.282,257.716,562.817,257.716z M503.583,120.258c15.245,0,27.816,11.652,29.284,26.518h-58.568
		C475.767,131.91,488.338,120.258,503.583,120.258z M474.154,152.086h58.861v66.313h-58.861V152.086z M471.498,223.71h64.172h5.975
		v14.398h-28.389c-1.151-4.269-5.045-7.423-9.673-7.423c-4.607,0-8.49,3.129-9.659,7.372h-28.402V223.71H471.498z M508.301,240.713
		c0,2.601-2.116,4.717-4.718,4.717c-2.601,0-4.716-2.116-4.716-4.717s2.115-4.716,4.716-4.716
		C506.185,235.997,508.301,238.112,508.301,240.713z M465.522,243.369h28.402c1.169,4.242,5.052,7.372,9.659,7.372
		c4.628,0,8.521-3.155,9.673-7.423h28.389v14.398h-76.123V243.369z M373.398,365.411h78.773v73.173h-78.773V365.411z
		 M402.165,312.595c1.466,0,2.655-1.188,2.655-2.655v-12.982c0-4.393,3.573-7.967,7.967-7.967c4.393,0,7.966,3.574,7.966,7.967
		v12.982c0,1.467,1.188,2.655,2.656,2.655h28.762V360.1h-78.773v-47.505H402.165z M255.671,438.584v-2.804h19.325
		c1.467,0,2.655-1.188,2.655-2.655c0-12.283,9.994-22.278,22.278-22.278s22.278,9.995,22.278,22.278
		c0,1.468,1.188,2.655,2.655,2.655h19.325v2.804h-12.761h-62.996H255.671z M283.847,365.411c1.467,0,2.656-1.188,2.656-2.655
		c0-7.404,6.023-13.428,13.426-13.428c7.403,0,13.427,6.023,13.427,13.428c0,1.467,1.188,2.655,2.655,2.655h28.177v65.058h-16.801
		c-1.34-13.971-13.142-24.933-27.458-24.933s-26.117,10.962-27.458,24.933h-16.8v-65.058H283.847z M344.188,443.896v82.022h-10.105
		v-82.022H344.188z M331.057,260.223c6.331,0,11.628,4.504,12.859,10.475h-25.72C319.427,264.727,324.726,260.223,331.057,260.223z
		 M299.929,246.798c5.857,0,10.622,4.765,10.622,10.622v15.933c0,1.467,1.188,2.656,2.656,2.656h30.98V360.1h-25.732
		c-1.297-9.075-9.099-16.082-18.526-16.082c-9.428,0-17.229,7.007-18.526,16.082h-25.732v-84.091h30.98
		c0.037,0,0.072-0.01,0.109-0.011c0.037,0.001,0.072,0.011,0.109,0.011c1.467,0,2.655-1.189,2.655-2.656
		c0-0.914-0.089-1.804-0.218-2.683v-13.25C289.307,251.563,294.072,246.798,299.929,246.798z M271.084,260.223
		c6.331,0,11.629,4.504,12.86,10.475h-25.72C259.454,264.727,264.753,260.223,271.084,260.223z M147.682,430.273
		c0.088-0.264,0.147-0.543,0.147-0.838c0-0.294-0.059-0.572-0.147-0.837v-63.188h78.779v73.173h-78.779V430.273z M176.449,312.595
		c1.466,0,2.655-1.188,2.655-2.655v-12.982c0-4.393,3.574-7.967,7.967-7.967s7.966,3.574,7.966,7.967v12.982
		c0,1.467,1.188,2.655,2.655,2.655h28.768V360.1h-78.779v-47.505H176.449z M96.416,120.258c15.245,0,27.817,11.652,29.285,26.518
		H67.132C68.599,131.91,81.172,120.258,96.416,120.258z M66.986,152.086h58.862v66.313H66.986V152.086z M64.33,223.71h64.173h5.975
		v14.398h-28.39c-1.151-4.269-5.045-7.423-9.672-7.423c-4.608,0-8.491,3.129-9.659,7.372H58.355V223.71H64.33z M101.133,240.713
		c0,2.601-2.116,4.717-4.717,4.717s-4.716-2.116-4.716-4.717s2.116-4.716,4.716-4.716S101.133,238.112,101.133,240.713z
		 M58.355,243.369h28.402c1.168,4.242,5.051,7.372,9.659,7.372c4.627,0,8.521-3.155,9.672-7.423h28.39v14.398H58.355V243.369z
		 M55.699,263.027h81.435h5.237v46.913V426.78H50.314V263.027H55.699z M50.314,432.091h92.057v93.827H50.314V432.091z
		 M147.682,443.896h78.779v82.022h-22.792v-44.259c0-9.15-7.445-16.597-16.597-16.597c-9.152,0-16.597,7.446-16.597,16.597v44.259
		h-22.792V443.896z M198.357,525.918h-22.572v-44.259c0-6.222,5.063-11.285,11.286-11.285c6.223,0,11.286,5.063,11.286,11.285
		V525.918z M231.772,309.939v-33.931h18.588v249.909h-18.588V309.939z M255.671,443.896h10.105v82.022h-10.105V443.896z
		 M314.799,525.918h-29.74v-49.633c0-8.198,6.671-14.87,14.87-14.87c8.198,0,14.87,6.672,14.87,14.87V525.918z M320.11,525.918
		v-49.633c0-11.127-9.054-20.181-20.181-20.181c-11.127,0-20.181,9.054-20.181,20.181v49.633h-8.661v-82.022h57.685v82.022H320.11z
		 M349.498,276.009h18.588v33.931v215.979h-18.588V276.009z M373.398,443.896h78.773v82.022h-22.787v-44.259
		c0-9.15-7.446-16.597-16.597-16.597c-9.152,0-16.597,7.446-16.597,16.597v44.259h-22.793V443.896z M424.073,525.918h-22.571
		v-44.259c0-6.222,5.062-11.285,11.286-11.285c6.222,0,11.285,5.063,11.285,11.285V525.918z M457.488,525.918v-93.827h92.052v93.827
		H457.488z M549.539,426.78h-92.052V309.939c0-0.018-0.005-0.033-0.005-0.052v-46.861h5.383H544.3h5.239V426.78z"/>
	<path d="M503.583,165.77c-5.124,0-9.294,4.169-9.294,9.294v20.358c0,5.125,4.17,9.294,9.294,9.294c5.126,0,9.294-4.169,9.294-9.294
		v-20.358C512.877,169.939,508.709,165.77,503.583,165.77z M507.567,195.422c0,2.197-1.786,3.983-3.983,3.983
		c-2.195,0-3.983-1.787-3.983-3.983v-20.358c0-2.196,1.788-3.983,3.983-3.983c2.197,0,3.983,1.787,3.983,3.983V195.422z"/>
	<path d="M509.043,384.196h-11.064c-1.438,0-2.604,1.166-2.604,2.604v15.344c0,1.438,1.166,2.604,2.604,2.604h11.064
		c1.438,0,2.604-1.166,2.604-2.604v-15.344C511.647,385.362,510.481,384.196,509.043,384.196z M506.438,399.539h-5.854v-10.134
		h5.854V399.539z"/>
	<path d="M509.043,352.479h-11.064c-1.438,0-2.604,1.166-2.604,2.604v15.343c0,1.438,1.166,2.604,2.604,2.604h11.064
		c1.438,0,2.604-1.165,2.604-2.604v-15.343C511.647,353.646,510.481,352.479,509.043,352.479z M506.438,367.821h-5.854v-10.133
		h5.854V367.821z"/>
	<path d="M509.043,484.808h-11.064c-1.438,0-2.604,1.165-2.604,2.604v15.344c0,1.438,1.166,2.605,2.604,2.605h11.064
		c1.438,0,2.604-1.167,2.604-2.605v-15.344C511.647,485.973,510.481,484.808,509.043,484.808z M506.438,500.151h-5.854v-10.135
		h5.854V500.151z"/>
	<path d="M509.043,453.091h-11.064c-1.438,0-2.604,1.165-2.604,2.604v15.344c0,1.438,1.166,2.605,2.604,2.605h11.064
		c1.438,0,2.604-1.167,2.604-2.605v-15.344C511.647,454.256,510.481,453.091,509.043,453.091z M506.438,468.435h-5.854V458.3h5.854
		V468.435z"/>
	<path d="M509.043,320.763h-11.064c-1.438,0-2.604,1.166-2.604,2.604v15.343c0,1.438,1.166,2.604,2.604,2.604h11.064
		c1.438,0,2.604-1.165,2.604-2.604v-15.343C511.647,321.929,510.481,320.763,509.043,320.763z M506.438,336.104h-5.854v-10.133
		h5.854V336.104z"/>
	<path d="M509.043,289.045h-11.064c-1.438,0-2.604,1.166-2.604,2.604v15.343c0,1.438,1.166,2.604,2.604,2.604h11.064
		c1.438,0,2.604-1.165,2.604-2.604V291.65C511.647,290.211,510.481,289.045,509.043,289.045z M506.438,304.388h-5.854v-10.133h5.854
		V304.388z"/>
</g>
</svg>
