<?xml version="1.0" encoding="utf-8"?>
<!-- Generator: Adobe Illustrator 15.0.0, SVG Export Plug-In . SVG Version: 6.00 Build 0)  -->
<!DOCTYPE svg PUBLIC "-//W3C//DTD SVG 1.1//EN" "http://www.w3.org/Graphics/SVG/1.1/DTD/svg11.dtd">
<svg version="1.1" id="Capa_1" xmlns="http://www.w3.org/2000/svg" xmlns:xlink="http://www.w3.org/1999/xlink" x="0px" y="0px"
	 width="600px" height="600px" viewBox="0 0 600 600" enable-background="new 0 0 600 600" xml:space="preserve">
<g>
	<path d="M504.898,222.446L303.067,119.121v-16.557l30.259-12.178c0.073-0.029,0.137-0.073,0.206-0.107
		c0.098-0.049,0.194-0.092,0.284-0.15c0.088-0.055,0.167-0.119,0.247-0.184c0.078-0.06,0.157-0.116,0.227-0.185
		c0.079-0.074,0.147-0.157,0.216-0.237c0.062-0.071,0.123-0.139,0.178-0.215c0.068-0.098,0.122-0.198,0.181-0.303
		c0.031-0.062,0.075-0.115,0.106-0.181c0.007-0.013,0.009-0.029,0.016-0.044c0.049-0.107,0.082-0.224,0.117-0.339
		c0.023-0.079,0.059-0.157,0.074-0.237c0.024-0.103,0.03-0.207,0.043-0.31c0.011-0.096,0.031-0.191,0.032-0.285
		c0.003-0.092-0.011-0.184-0.019-0.276c-0.007-0.107-0.008-0.217-0.025-0.321c-0.014-0.081-0.042-0.161-0.063-0.243
		c-0.029-0.114-0.058-0.231-0.1-0.343c-0.007-0.016-0.007-0.029-0.013-0.045c-0.028-0.068-0.069-0.127-0.102-0.193
		c-0.051-0.103-0.099-0.205-0.159-0.303c-0.054-0.084-0.115-0.158-0.176-0.236c-0.062-0.079-0.12-0.161-0.192-0.234
		c-0.072-0.076-0.153-0.143-0.233-0.211c-0.071-0.063-0.142-0.126-0.22-0.181c-0.097-0.068-0.198-0.122-0.301-0.178
		c-0.062-0.033-0.115-0.078-0.182-0.108l-32.187-14.917c-0.953-0.445-2.066-0.367-2.951,0.198c-0.887,0.566-1.421,1.544-1.421,2.594
		v27.812c0,0.005,0,0.015,0,0.02v18.675L94.875,222.554c-1.265,0.648-1.923,2.078-1.589,3.46c0.334,1.385,1.571,2.358,2.994,2.358
		h19.977v14.703v17.782c0,1.664,1.322,3.011,2.971,3.068c-1.601,2.303-2.544,5.093-2.544,8.105c0,4.875,2.464,9.183,6.207,11.754
		V450.06c-3.743,2.571-6.207,6.88-6.207,11.755c0,3.01,0.944,5.801,2.544,8.105c-1.649,0.058-2.971,1.404-2.971,3.067v27.199v27.2
		c0,1.701,1.378,3.079,3.079,3.079h357.187c1.699,0,3.079-1.378,3.079-3.079v-27.2v-27.199c0-1.663-1.322-3.011-2.972-3.067
		c1.601-2.305,2.544-5.096,2.544-8.105c0-4.875-2.463-9.184-6.208-11.756V283.786c3.744-2.57,6.208-6.878,6.208-11.754
		c0-3.029-0.957-5.834-2.573-8.146c1.459-0.243,2.573-1.501,2.573-3.028v-17.782v-14.703h24.528c0.008,0.001,0.016,0.001,0.02,0
		c1.702,0,3.079-1.378,3.079-3.079C506.801,224.009,506.015,222.91,504.898,222.446z M303.067,77.433l21.356,9.898l-21.356,8.595
		V77.433z M122.84,272.032c0-4.463,3.632-8.095,8.096-8.095h19.156c4.463,0,8.095,3.632,8.095,8.095
		c0,4.464-3.632,8.096-8.095,8.096h-19.156C126.472,280.127,122.84,276.496,122.84,272.032z M161.807,263.937h20.376
		c-1.595,2.301-2.537,5.089-2.537,8.095c0,4.875,2.463,9.183,6.208,11.754V450.06c-3.745,2.571-6.208,6.88-6.208,11.755
		c0,3.006,0.941,5.793,2.537,8.095h-20.376c1.596-2.302,2.538-5.089,2.538-8.095c0.001-4.875-2.463-9.184-6.207-11.755V283.786
		c3.743-2.571,6.207-6.879,6.207-11.754C164.345,269.025,163.404,266.237,161.807,263.937z M224.776,263.937h20.375
		c-1.595,2.301-2.536,5.089-2.536,8.095c0,4.875,2.462,9.183,6.207,11.754V450.06c-3.745,2.571-6.207,6.88-6.207,11.755
		c0,3.006,0.941,5.793,2.536,8.095h-20.375c1.595-2.302,2.535-5.089,2.535-8.095c0-4.875-2.464-9.184-6.208-11.755V283.786
		c3.743-2.571,6.208-6.879,6.208-11.754C227.311,269.025,226.37,266.237,224.776,263.937z M287.741,263.937h20.375
		c-1.595,2.301-2.536,5.089-2.536,8.095c0,4.875,2.464,9.183,6.209,11.754V450.06c-3.745,2.571-6.209,6.88-6.209,11.755
		c0,3.006,0.941,5.793,2.536,8.095h-20.375c1.595-2.302,2.535-5.089,2.535-8.095c0-4.875-2.461-9.184-6.207-11.755V283.786
		c3.746-2.571,6.207-6.879,6.207-11.754C290.276,269.025,289.336,266.237,287.741,263.937z M350.705,263.937h20.375
		c-1.594,2.301-2.536,5.089-2.536,8.095c0,4.875,2.464,9.183,6.207,11.754V450.06c-3.743,2.571-6.207,6.88-6.207,11.755
		c0,3.006,0.942,5.793,2.536,8.095h-20.375c1.594-2.302,2.536-5.089,2.536-8.095c0-4.875-2.462-9.184-6.208-11.756V283.786
		c3.744-2.57,6.208-6.878,6.208-11.754C353.241,269.025,352.299,266.237,350.705,263.937z M413.671,263.937h20.376
		c-1.594,2.301-2.536,5.089-2.536,8.095c0,4.875,2.463,9.183,6.207,11.754V450.06c-3.744,2.571-6.207,6.88-6.207,11.755
		c0,3.006,0.942,5.793,2.536,8.095h-20.376c1.597-2.302,2.536-5.089,2.536-8.095c0-4.875-2.464-9.184-6.208-11.756V283.786
		c3.743-2.57,6.208-6.878,6.208-11.754C416.207,269.025,415.268,266.237,413.671,263.937z M382.798,453.719h19.155
		c4.465,0,8.095,3.63,8.095,8.096c0,4.463-3.63,8.095-8.095,8.095h-19.155c-4.465,0-8.096-3.632-8.096-8.095
		C374.702,457.349,378.333,453.719,382.798,453.719z M380.91,447.561V286.287h1.888h19.155h1.887v161.274h-1.887h-19.155H380.91z
		 M401.953,280.127h-19.155c-4.465,0-8.096-3.632-8.096-8.096c0-4.463,3.631-8.095,8.096-8.095h19.155
		c4.465,0,8.095,3.632,8.095,8.095C410.048,276.496,406.418,280.127,401.953,280.127z M319.834,453.719h19.156
		c4.463,0,8.094,3.63,8.094,8.096c0,4.463-3.631,8.095-8.094,8.095h-19.156c-4.464,0-8.096-3.632-8.096-8.095
		C311.739,457.349,315.37,453.719,319.834,453.719z M317.946,447.561V286.287h1.889h19.156h1.885v161.274h-1.885h-19.156H317.946z
		 M338.989,280.127h-19.156c-4.463,0-8.094-3.632-8.094-8.096c0-4.463,3.631-8.095,8.094-8.095h19.156
		c4.464,0,8.095,3.632,8.095,8.095C347.083,276.496,343.452,280.127,338.989,280.127z M256.868,453.719h19.155
		c4.463,0,8.095,3.63,8.095,8.096c0,4.463-3.632,8.095-8.095,8.095h-19.155c-4.463,0-8.096-3.632-8.096-8.095
		C248.773,457.349,252.405,453.719,256.868,453.719z M254.979,447.561V286.287h1.887h19.156h1.888v161.274h-1.888h-19.156H254.979z
		 M276.022,280.127h-19.156c-4.462,0-8.094-3.632-8.094-8.096c0-4.463,3.632-8.095,8.094-8.095h19.156
		c4.464,0,8.096,3.632,8.096,8.095C284.117,276.496,280.486,280.127,276.022,280.127z M193.902,453.719h19.156
		c4.464,0,8.096,3.63,8.096,8.096c0,4.463-3.632,8.095-8.096,8.095h-19.156c-4.464,0-8.094-3.632-8.094-8.095
		C185.807,457.349,189.438,453.719,193.902,453.719z M192.014,447.561V286.287h1.887h19.156h1.886v161.274h-1.886h-19.156H192.014z
		 M213.057,280.127h-19.156c-4.464,0-8.094-3.632-8.094-8.096c0-4.463,3.63-8.095,8.094-8.095h19.156
		c4.464,0,8.096,3.632,8.096,8.095C221.153,276.496,217.521,280.127,213.057,280.127z M151.979,286.287v161.274h-1.887h-19.156
		h-1.887V286.287h1.887h19.156H151.979z M130.936,453.72h19.156c4.463,0,8.095,3.631,8.095,8.096c0,4.464-3.632,8.094-8.095,8.094
		h-19.156c-4.463,0-8.096-3.63-8.096-8.094C122.84,457.351,126.472,453.72,130.936,453.72z M473.443,524.309H122.414v-21.041
		h351.028V524.309z M473.443,497.108H122.414v-21.041h8.521h19.156h43.81h19.156h43.808h19.156h43.811h19.156h43.81h19.155h43.811
		h19.156h8.522V497.108z M473.016,461.814c0,4.463-3.633,8.095-8.096,8.095h-19.156c-4.464,0-8.094-3.632-8.094-8.095
		c0-4.466,3.63-8.096,8.094-8.096h19.156C469.383,453.719,473.016,457.349,473.016,461.814z M443.877,447.561V286.287h1.887h19.156
		h1.887v161.274h-1.887h-19.156H443.877z M464.92,280.127h-19.156c-4.464,0-8.094-3.632-8.094-8.096c0-4.463,3.63-8.095,8.094-8.095
		h19.156c4.463,0,8.096,3.632,8.096,8.095C473.016,276.496,469.383,280.127,464.92,280.127z M473.016,257.779h-8.096h-19.156h-43.81
		h-19.156h-43.81h-19.156h-43.811h-19.156h-43.808h-19.156h-43.81h-19.156h-8.521v-11.623h350.602V257.779z M473.016,239.997
		H122.414v-11.624h350.602V239.997z M476.094,222.213h-356.76h-10.284l190.939-97.75l190.939,97.75H476.094z"/>
	<path d="M153.487,208.184c-1.267,0.648-1.923,2.079-1.588,3.462c0.332,1.384,1.569,2.358,2.993,2.358h281.304
		c0.002,0,0.005,0,0.008,0h0.003h8.884c0.007,0,0.015,0,0.021,0c1.699,0,3.078-1.379,3.078-3.08c0-1.283-0.785-2.384-1.902-2.847
		l-144.893-74.177c-0.884-0.45-1.926-0.45-2.809,0L153.487,208.184z M300,140.123l132.688,67.721h-6.225h-8.326h-10.632h-8.418
		h-10.638l0.004,0.002h-8.379v-0.001l-0.002-0.001h-10.625h-8.379v0.001l-0.002-0.001h-10.524l0.001,0.001h-8.469l-0.002-0.001
		h-10.338h-8.664v0.001l-0.001-0.001h-10.255l0.002,0.001h-8.757l-0.002-0.001h-10.214l0.001,0.001h-8.759l-0.001-0.001h-9.893
		l0.003,0.002h-9.139v-0.001l-0.001-0.001h-10.004l0.001,0.001h-9.016l-0.001-0.001h-10.038l0.001,0.001h-9l-0.001-0.001h-10.198
		l0.001,0.001h-8.737l-0.001-0.001h-9.608l0.001,0.001h-9.487l-0.001-0.001h-10.194h-12.112l7.227-3.699h0.001l6.087-3.113
		l-0.001-0.001l6.391-3.273l0.003,0.002l5.958-3.049l-0.004-0.002l4.26-2.18l0.004,0.002l6.088-3.115l-0.005-0.004l5.791-2.965
		l0.007,0.005l6.051-3.096l-0.007-0.005l5.545-2.842l0.01,0.008l6.043-3.093l-0.009-0.007l5.985-3.063l0.01,0.008l6.021-3.082
		l-0.011-0.009l3.779-1.935l0.012,0.009l6.092-3.118l-0.014-0.01l5.012-2.565l0.015,0.011l6.099-3.121l-0.016-0.012l4.616-2.362
		l0.016,0.012l6.116-3.13l-0.018-0.013l3.825-1.957l0.017,0.012l6.159-3.152l-0.019-0.013l4.204-2.154l0.021,0.015l6.179-3.162
		l-0.021-0.015l4.812-2.464l0.021,0.016L300,140.123z"/>
</g>
</svg>
