<?xml version="1.0" encoding="utf-8"?>
<!-- Generator: Adobe Illustrator 15.0.0, SVG Export Plug-In . SVG Version: 6.00 Build 0)  -->
<!DOCTYPE svg PUBLIC "-//W3C//DTD SVG 1.1//EN" "http://www.w3.org/Graphics/SVG/1.1/DTD/svg11.dtd">
<svg version="1.1" id="Capa_1" xmlns="http://www.w3.org/2000/svg" xmlns:xlink="http://www.w3.org/1999/xlink" x="0px" y="0px"
	 width="600px" height="600px" viewBox="0 0 600 600" enable-background="new 0 0 600 600" xml:space="preserve">
<g>
	<path d="M460.407,280.722h-5.092v-33.464c0-1.206-0.977-2.182-2.183-2.182h-2.91v-31.402c0-1.206-0.977-2.183-2.183-2.183h-2.909
		V180.09c0-1.205-0.977-2.183-2.183-2.183h-2.183v-31.401c0-1.206-0.977-2.183-2.183-2.183h-2.183v-25.216
		c0-1.205-0.977-2.183-2.182-2.183h-2.909v-12.843c0-1.206-0.978-2.182-2.184-2.182h-1.92c-0.853-3.941-3.96-7.048-7.9-7.9v-9.694
		c0-1.206-0.977-2.183-2.183-2.183c-1.205,0-2.183,0.977-2.183,2.183v9.694c-3.94,0.852-7.048,3.959-7.9,7.9h-1.92
		c-1.206,0-2.183,0.977-2.183,2.182v12.843h-2.91c-1.206,0-2.183,0.978-2.183,2.183v25.216h-2.182c-1.206,0-2.183,0.977-2.183,2.183
		v31.401h-2.183c-1.205,0-2.183,0.978-2.183,2.183v31.402h-2.91c-1.205,0-2.183,0.977-2.183,2.183v31.402h-2.909
		c-1.205,0-2.183,0.977-2.183,2.182v33.464h-5.093c-1.205,0-2.183,0.977-2.183,2.183v43.352H228.344v-43.352
		c0-1.206-0.977-2.183-2.182-2.183h-5.093v-33.464c0-1.206-0.977-2.182-2.182-2.182h-2.91v-31.402c0-1.206-0.977-2.183-2.183-2.183
		h-2.91V180.09c0-1.205-0.978-2.183-2.183-2.183h-2.182v-31.401c0-1.206-0.978-2.183-2.183-2.183h-2.183v-25.216
		c0-1.205-0.977-2.183-2.182-2.183h-2.91v-12.843c0-1.206-0.977-2.182-2.183-2.182h-1.92c-0.853-3.941-3.96-7.048-7.9-7.9v-9.694
		c0-1.206-0.978-2.183-2.183-2.183c-1.206,0-2.182,0.977-2.182,2.183v9.694c-3.941,0.852-7.048,3.959-7.9,7.9h-1.921
		c-1.205,0-2.182,0.977-2.182,2.182v12.843h-2.91c-1.205,0-2.183,0.978-2.183,2.183v25.216h-2.182c-1.205,0-2.183,0.977-2.183,2.183
		v31.401h-2.183c-1.205,0-2.182,0.978-2.182,2.183v31.402h-2.91c-1.206,0-2.183,0.977-2.183,2.183v31.402h-2.91
		c-1.205,0-2.183,0.977-2.183,2.182v33.464h-5.092c-1.205,0-2.183,0.977-2.183,2.183v232.791c0,1.206,0.978,2.183,2.183,2.183
		h86.569h147.676h86.569c1.206,0,2.183-0.977,2.183-2.183V282.905C462.59,281.699,461.614,280.722,460.407,280.722z M417.123,98.126
		c2.513,0,4.662,1.567,5.535,3.773h-11.071C412.461,99.693,414.611,98.126,417.123,98.126z M407.303,106.264h19.642v10.661h-19.642
		V106.264z M402.21,121.29h2.91h24.006h2.91v23.033H402.21V121.29z M397.845,148.688h2.183h34.191h2.182v29.219h-38.556V148.688z
		 M393.481,182.272h2.183h42.92h2.183v29.219h-47.285V182.272z M388.388,215.856h2.91h51.65h2.91v29.22h-57.471V215.856z
		 M383.295,249.441h2.91h61.835h2.91v31.281h-67.655V249.441z M228.344,358.992h45.606l-45.606,23.398V358.992z M228.344,481.746
		h29.554v19.036h-29.554V481.746z M228.344,396.026l71.657-36.764l71.655,36.764v62.806H228.344V396.026z M371.656,382.391
		l-45.605-23.398h45.605V382.391z M371.656,500.782h-29.553v-19.036h29.553V500.782z M371.656,330.622v24.005h-54.64
		c-1.009,0-1.886,0.69-2.121,1.671c-0.236,0.979,0.228,1.994,1.125,2.454l55.636,28.545v3.823l-70.659-36.252
		c-0.312-0.16-0.654-0.241-0.996-0.241s-0.684,0.081-0.996,0.241l-70.66,36.252v-3.823l55.637-28.545
		c0.897-0.46,1.362-1.476,1.125-2.454c-0.237-0.98-1.113-1.671-2.122-1.671h-54.641v-24.005H371.656z M182.877,98.126
		c2.513,0,4.662,1.567,5.535,3.773h-11.07C178.215,99.693,180.365,98.126,182.877,98.126z M173.056,106.264h19.642v10.661h-19.642
		V106.264z M167.964,121.29h2.91h24.006h2.91v23.033h-29.826V121.29z M163.599,148.688h2.183h34.191h2.182v29.219h-38.556V148.688z
		 M159.234,182.272h2.183h42.921h2.183v29.219h-47.286V182.272z M154.142,215.856h2.909h51.651h2.91v29.22h-57.47V215.856z
		 M149.05,249.441h2.91h61.835h2.91v31.281H149.05V249.441z M141.775,285.087h5.092h72.02h5.092v43.353v28.37v29.154v8.729v66.321
		v18.55v23.4v10.548h-82.204V285.087z M228.344,505.147h31.736c1.205,0,2.182-0.978,2.182-2.183v-23.4
		c0-1.205-0.977-2.183-2.182-2.183h-31.736v-14.185h143.312v14.185H339.92c-1.206,0-2.183,0.978-2.183,2.183v23.4
		c0,1.205,0.977,2.183,2.183,2.183h31.735v8.365H228.344V505.147z M458.226,513.513h-82.205v-10.548v-23.4v-18.55v-66.321v-8.729
		V356.81v-28.37v-43.353h5.093h72.02h5.093V513.513z"/>
	<path d="M327.19,477.382h-54.378c-1.206,0-2.183,0.978-2.183,2.183v23.4c0,1.205,0.977,2.183,2.183,2.183h54.378
		c1.205,0,2.183-0.978,2.183-2.183v-23.4C329.372,478.359,328.395,477.382,327.19,477.382z M325.007,500.782h-50.014v-19.036h50.014
		V500.782z"/>
</g>
</svg>
