<?xml version="1.0" encoding="utf-8"?>
<!-- Generator: Adobe Illustrator 15.0.0, SVG Export Plug-In . SVG Version: 6.00 Build 0)  -->
<!DOCTYPE svg PUBLIC "-//W3C//DTD SVG 1.1//EN" "http://www.w3.org/Graphics/SVG/1.1/DTD/svg11.dtd">
<svg version="1.1" id="Capa_1" xmlns="http://www.w3.org/2000/svg" xmlns:xlink="http://www.w3.org/1999/xlink" x="0px" y="0px"
	 width="600px" height="600px" viewBox="0 0 600 600" enable-background="new 0 0 600 600" xml:space="preserve">
<g>
	<path fill="#222221" d="M530.323,292.152c1.404,0,2.543-1.138,2.543-2.542v-11.132c0-1.404-1.139-2.542-2.543-2.542h-3.619v-52.46
		c3.416-0.663,6.005-3.674,6.005-7.282c0-4.092-3.329-7.421-7.42-7.421h-1.879l-33.613-10.824v-31.848
		c0-1.404-1.139-2.543-2.543-2.543h-36.576c-1.403,0-2.542,1.139-2.542,2.543v18.432l-130.175-41.919
		c0.223-0.822,0.352-1.682,0.352-2.572c0-5.447-4.431-9.878-9.877-9.878h-5.894v-25.553c0-1.404-1.138-2.542-2.542-2.542
		c-1.404,0-2.542,1.138-2.542,2.542v25.553h-6.157c-5.447,0-9.878,4.432-9.878,9.878c0,0.919,0.136,1.806,0.372,2.651
		l-130.625,42.065v-18.656c0-1.404-1.138-2.543-2.543-2.543H112.05c-1.404,0-2.542,1.139-2.542,2.543v32.072l-32.917,10.6h-1.878
		c-4.092,0-7.421,3.329-7.421,7.421c0,3.607,2.588,6.618,6.004,7.282v52.461h-3.619c-1.404,0-2.542,1.138-2.542,2.542v11.132
		c0,1.404,1.138,2.542,2.542,2.542h3.776v9.649v7.422v75.122c-3.494,0.601-6.162,3.645-6.162,7.306c0,4.048,3.257,7.343,7.288,7.415
		v96.483c0,1.317,1.068,2.386,2.386,2.386h36.841c1.317,0,2.386-1.068,2.386-2.386v-51.817c0-7.672,5.852-14.004,13.327-14.766
		c0.498-0.05,1.003-0.076,1.515-0.076s1.017,0.026,1.516,0.076c7.476,0.762,13.327,7.094,13.327,14.766v51.817
		c0,1.317,1.068,2.386,2.386,2.386h36.841h13.259c1.318,0,2.386-1.068,2.386-2.386v-41.491c0-6.291,5.118-11.408,11.409-11.408
		c6.291,0,11.409,5.117,11.409,11.408v41.491c0,1.317,1.069,2.386,2.386,2.386h16.333c1.317,0,2.386-1.068,2.386-2.386v-41.491
		c0-6.291,5.118-11.408,11.409-11.408c6.291,0,11.409,5.117,11.409,11.408v41.491c0,1.317,1.068,2.386,2.386,2.386h16.332
		c1.318,0,2.385-1.068,2.385-2.386v-41.491c0-6.291,5.119-11.408,11.409-11.408c6.291,0,11.409,5.117,11.409,11.408v41.491
		c0,1.317,1.067,2.386,2.386,2.386h16.332c1.317,0,2.385-1.068,2.385-2.386v-41.491c0-6.291,5.119-11.408,11.41-11.408
		c6.29,0,11.408,5.117,11.408,11.408v41.491c0,1.317,1.067,2.386,2.386,2.386h16.333c1.317,0,2.385-1.068,2.385-2.386v-41.491
		c0-6.291,5.119-11.408,11.41-11.408c6.29,0,11.408,5.117,11.408,11.408v41.491c0,1.317,1.068,2.386,2.386,2.386h13.26h36.841
		c1.318,0,2.386-1.068,2.386-2.386v-51.817c0-7.672,5.853-14.004,13.327-14.766c0.498-0.05,1.003-0.076,1.515-0.076
		s1.018,0.026,1.516,0.076c7.475,0.762,13.327,7.094,13.327,14.766v51.817c0,1.317,1.067,2.386,2.385,2.386h36.842
		c1.318,0,2.386-1.068,2.386-2.386v-96.483c4.03-0.071,7.288-3.367,7.288-7.415c0-3.661-2.669-6.705-6.161-7.306v-92.193H530.323z
		 M521.777,384.23h-3.72v-72.622h3.72V384.23z M436.865,384.23v-72.622h64.203v72.622H436.865z M417.282,384.23v-72.622h2.593
		v72.622H417.282z M187.489,384.23v-72.622h225.023v72.622H187.489z M179.799,384.23v-72.622h2.919v72.622H179.799z M98.607,384.23
		v-72.622h64.203v72.622H98.607z M78.223,384.23v-72.622h3.394v72.622H78.223z M174.714,311.766v72.309h-6.819v-72.309H174.714z
		 M178.108,306.838c-0.267-0.097-0.551-0.157-0.851-0.157h-11.905c-0.3,0-0.584,0.061-0.851,0.157H96.915
		c-0.267-0.097-0.551-0.157-0.851-0.157H84.159c-0.299,0-0.584,0.061-0.851,0.157h-5.084v-2.651h104.495v2.651H178.108z
		 M93.521,311.766v72.309h-6.819v-72.309H93.521z M431.78,311.766v72.309h-6.819v-72.309H431.78z M512.972,311.766v72.309h-6.819
		v-72.309H512.972z M520.651,306.838h-4.285c-0.268-0.097-0.551-0.157-0.851-0.157H503.61c-0.3,0-0.584,0.061-0.851,0.157h-67.586
		c-0.267-0.097-0.551-0.157-0.851-0.157h-11.905c-0.3,0-0.583,0.061-0.851,0.157h-4.284v-2.651h103.368V306.838z M412.512,306.838
		H187.489v-2.651h225.023V306.838z M187.489,299.417v-7.264h225.023v7.264H187.489z M468.966,226.637
		c-1.403,0-2.542,1.138-2.542,2.542v7.846c-13.874,0.484-27.107,4.922-37.509,12.625c-5.019,3.717-9.037,7.977-11.907,12.507
		v-38.387H521.62v39.536c-2.899-4.959-7.162-9.627-12.603-13.656c-10.401-7.704-23.636-12.141-37.509-12.625v-7.846
		C471.509,227.775,470.37,226.637,468.966,226.637z M130.339,226.637c-1.405,0-2.543,1.138-2.543,2.542v7.846
		c-13.873,0.485-27.108,4.922-37.509,12.625c-5.018,3.717-9.037,7.977-11.907,12.506v-38.386h103.916v38.386
		c-2.87-4.53-6.888-8.79-11.907-12.506c-10.4-7.704-23.635-12.141-37.508-12.625v-7.846
		C132.881,227.775,131.743,226.637,130.339,226.637z M411.924,223.771v52.165H187.382v-52.165H411.924z M507.846,208.771h-18.049
		v-5.812L507.846,208.771z M453.221,206.808h31.491v1.806h-31.491V206.808z M484.712,168.642v33.081h-31.491v-33.081H484.712z
		 M448.136,208.771h-56.601c-0.908-15.558-10.638-31.246-27.022-43.381c-2.619-1.94-5.363-3.735-8.192-5.414l91.815,29.567V208.771z
		 M294.122,149.917h11.758c45.392,2.357,79.001,31.669,80.878,58.854H213.242C215.119,181.586,248.729,152.274,294.122,149.917z
		 M291.301,135.246h17.135c2.643,0,4.793,2.15,4.793,4.793s-2.15,4.793-4.793,4.793h-17.135c-2.643,0-4.793-2.15-4.793-4.793
		S288.658,135.246,291.301,135.246z M243.681,159.976c-2.83,1.679-5.574,3.474-8.193,5.414
		c-16.384,12.135-26.115,27.823-27.023,43.381h-57.296v-19.004L243.681,159.976z M114.593,206.808h31.491v1.806h-31.491V206.808z
		 M146.084,168.642v33.081h-31.491v-33.081H146.084z M109.508,203.183v5.588H92.154L109.508,203.183z M72.062,216.192
		c0-1.461,1.188-2.65,2.65-2.65h36.485c0.268,0.096,0.552,0.157,0.853,0.157h36.576c0.301,0,0.585-0.062,0.853-0.157h61.295h178.453
		h60.599c0.269,0.096,0.553,0.157,0.853,0.157h36.576c0.301,0,0.585-0.062,0.854-0.157h34.919c0.003,0,0.007,0,0.01,0
		s0.006,0,0.01,0h2.243c1.46,0,2.649,1.189,2.649,2.65s-1.189,2.65-2.649,2.65h-0.274c-0.268-0.096-0.552-0.157-0.853-0.157H75.838
		c-0.3,0-0.585,0.061-0.853,0.157h-0.273C73.251,218.843,72.062,217.654,72.062,216.192z M72.219,281.021h3.619
		c1.404,0,2.542-1.139,2.542-2.543c0-17.19,22.22-36.416,51.958-36.416c29.737,0,51.957,19.226,51.957,36.416
		c0,1.404,1.138,2.543,2.543,2.543h229.627c1.404,0,2.542-1.139,2.542-2.543c0-17.19,22.222-36.416,51.959-36.416
		c29.738,0,51.958,19.226,51.958,36.416c0,1.404,1.139,2.543,2.542,2.543h4.314v6.046H72.219V281.021z M182.718,292.152v7.264
		H78.223v-7.264H182.718z M150.648,493.164v-49.432c0-10.814-8.799-19.613-19.614-19.613c-10.814,0-19.613,8.799-19.613,19.613
		v49.432H79.35v-94.091h103.368v94.091H150.648z M387.844,437.879c-8.922,0-16.181,7.258-16.181,16.18v39.105h-11.562v-39.105
		c0-8.922-7.258-16.18-16.179-16.18c-8.922,0-16.181,7.258-16.181,16.18v39.105H316.18v-39.105c0-8.922-7.258-16.18-16.18-16.18
		c-8.921,0-16.18,7.258-16.18,16.18v39.105h-11.562v-39.105c0-8.922-7.259-16.18-16.18-16.18c-8.922,0-16.18,7.258-16.18,16.18
		v39.105h-11.562v-39.105c0-8.922-7.258-16.18-16.18-16.18c-8.921,0-16.18,7.258-16.18,16.18v39.105h-8.489v-94.091h225.023v94.091
		h-8.488v-39.105C404.024,445.137,396.765,437.879,387.844,437.879z M520.651,493.164h-32.071v-49.432
		c0-10.814-8.799-19.613-19.613-19.613c-10.813,0-19.612,8.799-19.612,19.613v49.432h-32.071v-94.091h103.368V493.164z
		 M527.939,391.651c0,1.462-1.189,2.651-2.649,2.651h-2.254H414.898H185.103H76.965h-2.253c-1.461,0-2.65-1.189-2.65-2.651
		c0-1.461,1.188-2.649,2.65-2.649h1.126h7.468c0.268,0.096,0.552,0.157,0.853,0.157h11.905c0.301,0,0.585-0.062,0.854-0.157h67.581
		c0.268,0.096,0.552,0.157,0.853,0.157h11.905c0.301,0,0.585-0.062,0.854-0.157h243.455c0.268,0.096,0.552,0.157,0.853,0.157h11.905
		c0.301,0,0.585-0.062,0.854-0.157h67.58c0.269,0.096,0.553,0.157,0.854,0.157h11.905c0.301,0,0.585-0.062,0.853-0.157h7.795h1.127
		C526.749,389.002,527.939,390.19,527.939,391.651z M521.777,299.417H417.282v-7.264h104.494V299.417z"/>
	<path fill="#222221" d="M130.339,247.578c-22.487,0-42.213,14.439-42.213,30.899c0,1.404,1.138,2.543,2.542,2.543h79.339
		c1.405,0,2.543-1.139,2.543-2.543C172.551,262.017,152.826,247.578,130.339,247.578z M93.435,275.935
		c1.996-11.462,17.122-23.271,36.904-23.271c19.78,0,34.907,11.809,36.902,23.271H93.435z"/>
	<path fill="#222221" d="M468.966,247.578c-22.486,0-42.212,14.439-42.212,30.899c0,1.404,1.139,2.543,2.543,2.543h79.339
		c1.404,0,2.542-1.139,2.542-2.543C511.178,262.017,491.453,247.578,468.966,247.578z M432.064,275.935
		c1.995-11.462,17.121-23.271,36.902-23.271s34.908,11.809,36.903,23.271H432.064z"/>
	<path fill="#222221" d="M142.348,321.523h-24.02c-1.404,0-2.542,1.138-2.542,2.542v47.708c0,1.404,1.138,2.543,2.542,2.543h24.02
		c1.404,0,2.542-1.139,2.542-2.543v-47.708C144.891,322.661,143.752,321.523,142.348,321.523z M139.805,369.231h-18.934v-42.623
		h18.934V369.231z"/>
	<path fill="#222221" d="M480.976,321.523h-24.02c-1.404,0-2.542,1.138-2.542,2.542v47.708c0,1.404,1.138,2.543,2.542,2.543h24.02
		c1.404,0,2.542-1.139,2.542-2.543v-47.708C483.518,322.661,482.38,321.523,480.976,321.523z M478.434,369.231h-18.936v-42.623
		h18.936V369.231z"/>
	<path fill="#222221" d="M390.07,326.823h-18.681c-1.404,0-2.543,1.139-2.543,2.543v37.106c0,1.404,1.139,2.543,2.543,2.543h18.681
		c1.403,0,2.542-1.139,2.542-2.543v-37.106C392.612,327.962,391.473,326.823,390.07,326.823z M387.528,363.931h-13.597v-32.021
		h13.597V363.931z"/>
	<path fill="#222221" d="M357.778,326.823h-18.681c-1.404,0-2.542,1.139-2.542,2.543v37.106c0,1.404,1.138,2.543,2.542,2.543h18.681
		c1.404,0,2.543-1.139,2.543-2.543v-37.106C360.321,327.962,359.182,326.823,357.778,326.823z M355.236,363.931h-13.597v-32.021
		h13.597V363.931z"/>
	<path fill="#222221" d="M325.487,326.823h-18.681c-1.404,0-2.543,1.139-2.543,2.543v37.106c0,1.404,1.139,2.543,2.543,2.543h18.681
		c1.404,0,2.542-1.139,2.542-2.543v-37.106C328.029,327.962,326.891,326.823,325.487,326.823z M322.945,363.931h-13.597v-32.021
		h13.597V363.931z"/>
	<path fill="#222221" d="M293.196,326.823h-18.682c-1.405,0-2.543,1.139-2.543,2.543v37.106c0,1.404,1.138,2.543,2.543,2.543h18.682
		c1.404,0,2.542-1.139,2.542-2.543v-37.106C295.738,327.962,294.6,326.823,293.196,326.823z M290.653,363.931h-13.596v-32.021
		h13.596V363.931z"/>
	<path fill="#222221" d="M260.905,326.823h-18.682c-1.405,0-2.543,1.139-2.543,2.543v37.106c0,1.404,1.138,2.543,2.543,2.543h18.682
		c1.404,0,2.542-1.139,2.542-2.543v-37.106C263.447,327.962,262.308,326.823,260.905,326.823z M258.361,363.931h-13.596v-32.021
		h13.596V363.931z"/>
	<path fill="#222221" d="M228.613,326.823h-18.682c-1.405,0-2.543,1.139-2.543,2.543v37.106c0,1.404,1.138,2.543,2.543,2.543h18.682
		c1.404,0,2.542-1.139,2.542-2.543v-37.106C231.155,327.962,230.017,326.823,228.613,326.823z M226.07,363.931h-13.596v-32.021
		h13.596V363.931z"/>
</g>
</svg>
