<?xml version="1.0" encoding="utf-8"?>
<!-- Generator: Adobe Illustrator 15.0.0, SVG Export Plug-In . SVG Version: 6.00 Build 0)  -->
<!DOCTYPE svg PUBLIC "-//W3C//DTD SVG 1.1//EN" "http://www.w3.org/Graphics/SVG/1.1/DTD/svg11.dtd">
<svg version="1.1" id="Capa_1" xmlns="http://www.w3.org/2000/svg" xmlns:xlink="http://www.w3.org/1999/xlink" x="0px" y="0px"
	 width="600px" height="600px" viewBox="0 0 600 600" enable-background="new 0 0 600 600" xml:space="preserve">
<g>
	<path fill="#222221" d="M540.651,287.523h-30.781v-42.197c0-18.886-32.251-59.701-33.623-61.428
		c-0.442-0.556-1.112-0.88-1.822-0.88c-0.711,0-1.383,0.325-1.824,0.88c-1.372,1.729-33.624,42.542-33.624,61.428v0.799H341.96
		h-6.514v-42.197c0-18.885-32.25-59.699-33.622-61.427c-0.443-0.556-1.113-0.881-1.824-0.881s-1.381,0.325-1.823,0.881
		c-1.373,1.728-33.621,42.542-33.621,61.427v42.197h-6.515h-97.086v-0.799c0-18.886-32.251-59.701-33.625-61.428
		c-0.441-0.556-1.113-0.88-1.823-0.88c-0.709,0-1.38,0.325-1.822,0.88c-1.373,1.729-33.624,42.542-33.624,61.428v42.197H59.35
		c-1.285,0-2.327,1.042-2.327,2.328v36.063v32.211v36.063v41.276v7.314v13.271c0,1.284,1.044,2.326,2.327,2.326h99.345h99.346
		h17.954h7.449h33.111h7.45h17.955h99.344h99.346c1.284,0,2.328-1.042,2.328-2.326V442.78v-7.314v-41.276v-36.063v-32.211v-36.063
		C542.979,288.565,541.934,287.523,540.651,287.523z M161.024,282.178v-31.396v-0.012h94.689v0.012v31.396v0.011h-6.232v-0.011
		h-4.655v0.011h-5.041v-0.011h-4.656v0.011h-5.04v-0.011h-4.656v0.011h-5.041v-0.011h-4.655v0.011h-5.041v-0.011h-4.656v0.011H201
		v-0.011h-4.655v0.011h-5.041v-0.011h-4.656v0.011h-5.041v-0.011h-4.656v0.011h-5.04v-0.011h-4.656v0.011h-6.231V282.178z
		 M161.024,286.846h94.689v14.645V314.4h-94.689V286.846z M161.024,319.057h94.69v4.53h-0.001h-94.689V319.057z M161.024,328.241
		h94.69v4.53h-0.001h-94.689V328.241z M161.024,337.427h94.69V355.8h-94.69V337.427z M125.507,189.146
		c1.056,1.381,2.519,3.315,4.231,5.651h-8.46C122.991,192.462,124.452,190.527,125.507,189.146z M117.92,199.453h15.177
		c1.863,2.625,3.871,5.531,5.9,8.591H112.02C114.049,204.984,116.057,202.078,117.92,199.453z M108.998,212.699h33.021
		c1.79,2.821,3.545,5.713,5.179,8.59h-43.381C105.451,218.412,107.208,215.52,108.998,212.699z M101.284,225.947h48.449
		c1.544,2.966,2.898,5.86,3.975,8.59H97.31C98.385,231.807,99.74,228.913,101.284,225.947z M94.718,245.327
		c0-1.81,0.36-3.88,0.994-6.134h59.593c0.633,2.254,0.993,4.324,0.993,6.134v2.457h-61.58V245.327z M94.718,252.44h61.58v8.589
		h-61.58V252.44z M94.718,265.686h61.58v8.59h-61.58V265.686z M94.718,278.933h61.58v8.59h-61.58V278.933z M61.68,323.578v-31.4
		v-0.002h94.688v0.002v31.4v0.009h-6.231v-0.009h-4.656v0.009h-5.041v-0.009h-4.655v0.009h-5.04v-0.009h-4.656v0.009h-5.041v-0.009
		h-4.656v0.009h-5.041v-0.009h-4.656v0.009h-5.04v-0.009h-4.657v0.009h-5.04v-0.009h-4.656v0.009h-5.04v-0.009h-4.656v0.009h-5.04
		v-0.009h-4.658v0.009H61.68V323.578z M61.679,328.241h94.689v27.557H61.679V328.241z M61.68,396.518h6.229v36.62H61.68V396.518z
		 M156.368,453.724H61.679v-8.615h94.689V453.724z M156.368,440.453H61.679v-2.659h8.559h33.343h10.887h33.341h8.56V440.453z
		 M72.567,433.138v-36.62h28.686v36.62H72.567z M105.908,433.138v-36.62h6.232v36.62H105.908z M116.795,433.138v-36.62h28.686v36.62
		H116.795z M156.368,433.138h-6.231v-36.62h6.231V433.138z M255.715,453.724h-94.69v-8.615h94.69V453.724z M255.715,440.453h-94.69
		v-2.659h8.559h33.343h10.887h33.341h8.56V440.453z M161.024,433.138v-36.62h6.231v36.62H161.024z M171.911,433.138v-36.62h28.686
		v36.62H171.911z M205.254,433.138v-36.62h6.231v36.62H205.254z M216.14,433.138v-36.62h28.687v36.62H216.14z M249.482,433.138
		v-36.62h6.232v36.62H249.482z M255.717,391.862H235.13h-5.04h-4.655h-5.041h-4.656h-1.926h-3.115h-4.656h-3.115H201h-4.655h-5.041
		h-4.656h-5.04h-4.657h-5.04H61.681l0,0H61.68v-31.408h0.001h6.228h4.658h5.04h4.656h5.04h4.656H97h4.656h5.04h4.656h5.041h4.655
		h5.041h4.658h5.04h4.655h5.041h4.656h6.231h4.656h6.231h4.656h5.04h4.657h5.04h4.656h5.041H201h5.041h4.656h5.041h4.656h5.041
		h4.655h5.04h4.656h5.041h4.655h6.232h0.003V391.862z M300,147.749c1.058,1.381,2.519,3.316,4.229,5.652h-8.458
		C297.483,151.064,298.944,149.13,300,147.749z M292.413,158.057h15.178c1.862,2.624,3.868,5.53,5.898,8.59h-26.978
		C288.542,163.587,290.55,160.681,292.413,158.057z M283.49,171.303h33.023c1.789,2.821,3.543,5.712,5.179,8.59h-43.381
		C279.946,177.016,281.7,174.124,283.49,171.303z M275.777,184.55h48.449c1.544,2.966,2.898,5.859,3.974,8.59h-56.398
		C272.877,190.409,274.232,187.517,275.777,184.55z M270.205,197.796h59.591c0.635,2.252,0.994,4.325,0.994,6.135v2.456h-61.578
		v-2.456h-0.001C269.211,202.122,269.571,200.049,270.205,197.796z M269.211,211.044h61.579v8.589h-61.579V211.044z
		 M269.211,224.289h61.579v8.589h-61.579V224.289z M269.211,237.536h61.579v8.59h-61.579V237.536z M260.37,250.782h6.513h66.234
		h6.511v21.863h-23.07c-1.14-8.128-8.119-14.41-16.558-14.41s-15.417,6.282-16.557,14.41H260.37V250.782z M273.667,453.722H260.37
		v-10.608h13.297V453.722z M273.667,438.46H260.37v-2.994v-41.276v-30.229h13.297V438.46z M273.668,359.303H260.37v-10.476h13.298
		V359.303z M314.227,453.722h-28.453v-89.761h28.453V453.722z M321.677,453.722h-2.793v-92.089c0-1.287-1.043-2.33-2.328-2.33
		h-33.111c-1.285,0-2.327,1.043-2.327,2.33v92.089h-2.795V348.827h43.354V453.722z M339.629,453.724h-13.296v-10.607h13.296V453.724
		z M339.629,435.466v2.994h-13.296v-74.499h13.296V435.466z M339.629,359.303h-13.296v-10.476h13.296V359.303z M339.631,344.173
		h-15.626h-48.01H260.37v-4.292h79.261V344.173z M339.631,335.167h-8.214h-4.656h-5.04h-4.654h-5.041h-4.656h-5.041h-4.655h-5.041
		h-4.656h-5.041h-4.655h-5.041h-4.656h-8.213v-31.346h8.213h4.656h5.041h4.655h5.041h4.656h5.041h4.655h5.041h4.656h5.041h4.654
		h5.04h4.656h8.214V335.167z M339.632,299.163H260.37v-14.646V277.3h25.221c1.287,0,2.328-1.041,2.328-2.328
		c0-6.66,5.42-12.08,12.083-12.08c6.662,0,12.083,5.42,12.083,12.08c0,1.287,1.04,2.328,2.326,2.328
		c0.041,0,0.078-0.009,0.117-0.011c0.038,0.002,0.075,0.011,0.115,0.011h24.989V299.163z M474.424,189.146
		c1.055,1.381,2.517,3.315,4.229,5.651h-8.46C471.906,192.462,473.366,190.527,474.424,189.146z M466.834,199.453h15.179
		c1.862,2.625,3.869,5.531,5.899,8.591h-26.977C462.964,204.984,464.972,202.078,466.834,199.453z M457.912,212.699h33.023
		c1.789,2.821,3.545,5.713,5.179,8.59h-43.381C454.367,218.412,456.123,215.52,457.912,212.699z M450.198,225.947h48.449
		c1.544,2.966,2.899,5.86,3.973,8.59h-56.396C447.299,231.807,448.656,228.913,450.198,225.947z M443.633,245.327
		c0-1.81,0.359-3.88,0.996-6.134h59.59c0.635,2.254,0.993,4.324,0.993,6.134v2.457h-61.579V245.327z M443.633,252.44h61.579v8.589
		h-61.579V252.44z M443.633,265.686h61.579v8.59h-61.579V265.686z M443.633,278.933h61.579v8.59h-61.579V278.933z M443.633,292.178
		h6.231h4.654h5.041h4.656h5.041h4.655h5.041h4.654h5.041h4.656h5.041h4.656h4.538h0.502h4.657h5.039h4.656h5.04h4.657h6.23v31.409
		h-6.23h-4.657h-5.04h-4.656h-5.039h-4.657h-5.04h-4.656h-5.041h-4.656h-5.041h-4.654h-5.041h-4.655h-5.041h-4.656h-5.041h-4.654
		h-6.231V292.178z M344.288,275.078v-0.21v-24.085v-0.012h94.688v0.012v31.407h-6.23h-4.656h-5.04h-4.657h-5.04h-4.655h-5.041H399
		h-5.041h-4.656h-5.04h-4.655h-5.041h-4.655h-5.039h-4.656h-5.041h-4.656h-6.23V275.078z M344.287,286.846h94.688V314.4h-94.688
		V286.846z M344.287,319.057h94.688v4.53h-94.688V319.057z M344.287,328.241h94.688v4.53h-94.688V328.241z M344.287,346.501v-8.945
		v-0.061v-0.065h94.688v18.37h-94.688V346.501z M344.287,396.518h39.571v36.62h-39.571V396.518z M438.976,453.724h-94.688v-8.615
		h94.688V453.724z M438.976,440.453h-94.688v-2.659h41.9h10.888h33.342h8.559V440.453z M388.517,433.138v-36.62h6.231v36.62H388.517
		z M399.405,433.138v-36.62h28.685v36.62H399.405z M438.976,433.138h-6.23v-36.62h6.23V433.138z M418.392,391.862h-5.04h-4.655
		h-5.041H399h-1.925h-3.116h-4.656h-3.115h-1.925h-4.655h-5.041h-4.655h-5.039h-4.656h-5.041h-4.657h-6.23v-31.408h6.23h4.657h5.041
		h4.656h5.039h4.655h5.041h4.655h5.04h4.656H399h4.655h5.041h4.655h5.04h4.657h5.04h4.656h6.23h4.657h6.231h4.654h5.041h4.656h5.041
		h4.655h5.041h4.654h5.041h4.656h5.041h4.656h5.04h4.657h5.039h4.656h5.04h4.657h6.23v31.408h-6.23h-82.228h-6.231H418.392z
		 M538.323,396.518v36.62h-6.23v-36.62H538.323z M527.435,396.518v36.62h-28.686v-36.62H527.435z M494.092,396.518v36.62h-6.229
		v-36.62H494.092z M483.205,396.518v36.62h-28.687v-36.62H483.205z M449.865,396.518v36.62h-6.231v-36.62H449.865z M538.323,453.722
		h-94.69v-8.613h94.69V453.722z M538.323,440.453L538.323,440.453h-94.69v-2.659h8.56h33.341h10.888h33.344h8.559V440.453z
		 M538.323,355.8L538.323,355.8h-94.69v-27.559h94.69V355.8z"/>
	<path fill="#222221" d="M300.001,267.697c-4.656,0-8.444,3.789-8.444,8.444c0,4.657,3.788,8.445,8.444,8.445
		c4.655,0,8.443-3.788,8.443-8.445C308.445,271.485,304.656,267.697,300.001,267.697z M300.001,280.462
		c-2.382,0-4.321-1.938-4.321-4.321c0.001-2.381,1.939-4.32,4.321-4.32s4.32,1.938,4.32,4.32
		C304.322,278.525,302.383,280.462,300.001,280.462z"/>
</g>
</svg>
