<?xml version="1.0" encoding="utf-8"?>
<!-- Generator: Adobe Illustrator 15.0.0, SVG Export Plug-In . SVG Version: 6.00 Build 0)  -->
<!DOCTYPE svg PUBLIC "-//W3C//DTD SVG 1.1//EN" "http://www.w3.org/Graphics/SVG/1.1/DTD/svg11.dtd">
<svg version="1.1" id="Capa_1" xmlns="http://www.w3.org/2000/svg" xmlns:xlink="http://www.w3.org/1999/xlink" x="0px" y="0px"
	 width="600px" height="600px" viewBox="0 0 600 600" enable-background="new 0 0 600 600" xml:space="preserve">
<path d="M511,296.115H396.667v-32.161h1.077c4.736,0,8.589-3.853,8.589-8.589s-3.853-8.588-8.589-8.588h-9.004
	c-1.555-46.583-39.158-84.186-85.74-85.741v-19.812c4.361-1.296,7.554-5.336,7.554-10.113c0-5.819-4.734-10.554-10.554-10.554
	s-10.554,4.734-10.554,10.554c0,4.777,3.192,8.817,7.554,10.113v19.812c-46.583,1.555-84.186,39.158-85.741,85.741h-9.003
	c-4.736,0-8.589,3.853-8.589,8.588s3.853,8.589,8.589,8.589h1.077v32.161H89c-1.657,0-3,1.343-3,3v177.328c0,1.656,1.343,3,3,3
	h22.531h18.5h23.42h18.5h33.002h18.5H247h18.5c1.657,0,3-1.344,3-3v-79.334v-6.666c0-17.369,14.131-31.5,31.5-31.5
	s31.5,14.131,31.5,31.5v86c0,1.656,1.343,3,3,3h0.127h18.5h23.42h18.5h33.002h18.5h23.419h18.5H511c1.657,0,3-1.344,3-3V299.115
	C514,297.458,512.657,296.115,511,296.115z M390.667,296.115h-12.716v-32.161h12.716V296.115z M244.429,296.115v-32.161h111.144
	v32.161H244.429z M228.049,263.955h10.38v32.161h-10.38V263.955z M361.573,263.955h10.379v32.161h-10.379V263.955z M295.447,131.111
	c0-2.511,2.043-4.554,4.554-4.554s4.554,2.043,4.554,4.554s-2.043,4.554-4.554,4.554S295.447,133.622,295.447,131.111z M300,166.98
	c44.648,0,81.134,35.529,82.721,79.797H217.28C218.867,202.51,255.352,166.98,300,166.98z M199.667,255.366
	c0-1.427,1.161-2.588,2.589-2.588h195.488c1.428,0,2.589,1.161,2.589,2.588c0,1.428-1.161,2.589-2.589,2.589h-4.077h-18.716h-16.379
	H241.429h-16.38h-18.716h-4.077C200.828,257.955,199.667,256.793,199.667,255.366z M209.333,263.955h12.716v32.161h-12.716V263.955z
	 M129.888,383.391v-20c0-5.141,4.187-9.323,9.333-9.323c5.147,0,9.334,4.183,9.334,9.323v20H129.888z M262.373,389.943v4.166H247
	h-23.547h-18.5h-33.002h-18.5h-23.42h-15.5v-4.166H262.373z M169.446,383.391v-20c0-5.141,4.187-9.323,9.333-9.323
	s9.333,4.183,9.333,9.323v20H169.446z M209.002,383.391v-20c0-5.141,4.187-9.323,9.333-9.323c5.147,0,9.334,4.183,9.334,9.323v20
	H209.002z M244,400.109v73.334h-17.547v-73.334H244z M201.953,400.109v73.334h-27.002v-73.334H201.953z M150.451,400.109v73.334
	h-17.42v-73.334H150.451z M114.531,473.443v-73.334h12.5v73.334H114.531z M156.451,473.443v-73.334h12.5v73.334H156.451z
	 M207.953,473.443v-73.334h12.5v73.334H207.953z M262.5,473.443H250v-73.334h12.5V473.443z M372.331,383.391v-20
	c0-5.141,4.187-9.323,9.333-9.323s9.333,4.183,9.333,9.323v20H372.331z M485.468,389.943v4.166h-15.5h-23.419h-18.5h-33.002h-18.5
	h-23.42h-15.5v-4.166H485.468z M411.888,383.391v-20c0-5.141,4.188-9.323,9.334-9.323s9.333,4.183,9.333,9.323v20H411.888z
	 M451.446,383.391v-20c0-5.141,4.187-9.323,9.333-9.323s9.334,4.183,9.334,9.323v20H451.446z M466.968,400.109v73.334h-17.419
	v-73.334H466.968z M425.049,400.109v73.334h-27.002v-73.334H425.049z M373.547,400.109v73.334h-17.42v-73.334H373.547z
	 M337.627,473.443v-73.334h12.5v73.334H337.627z M379.547,473.443v-73.334h12.5v73.334H379.547z M431.049,473.443v-73.334h12.5
	v73.334H431.049z M472.968,473.443v-73.334h12.5v73.334H472.968z M508,473.443h-16.532v-76.334v-10.166c0-1.658-1.343-3-3-3h-12.355
	v-20.553c0-8.449-6.879-15.323-15.334-15.323s-15.333,6.874-15.333,15.323v20.553h-8.891v-20.553
	c0-8.449-6.878-15.323-15.333-15.323s-15.334,6.874-15.334,15.323v20.553h-8.891v-20.553c0-8.449-6.878-15.323-15.333-15.323
	s-15.333,6.874-15.333,15.323v20.553h-29.406c-3.089-17.59-18.465-31-36.925-31s-33.836,13.41-36.924,31h-29.407v-20.553
	c0-8.449-6.879-15.323-15.334-15.323c-8.455,0-15.333,6.874-15.333,15.323v20.553h-8.891v-20.553
	c0-8.449-6.878-15.323-15.333-15.323s-15.333,6.874-15.333,15.323v20.553h-8.891v-20.553c0-8.449-6.879-15.323-15.334-15.323
	c-8.455,0-15.333,6.874-15.333,15.323v20.553h-12.356c-1.657,0-3,1.342-3,3v10.166v76.334H92V302.115h114.333h18.716h16.38h117.144
	h16.379h18.716H508V473.443z"/>
</svg>
