<?xml version="1.0" encoding="utf-8"?>
<!-- Generator: Adobe Illustrator 15.0.0, SVG Export Plug-In . SVG Version: 6.00 Build 0)  -->
<!DOCTYPE svg PUBLIC "-//W3C//DTD SVG 1.1//EN" "http://www.w3.org/Graphics/SVG/1.1/DTD/svg11.dtd">
<svg version="1.1" id="Capa_1" xmlns="http://www.w3.org/2000/svg" xmlns:xlink="http://www.w3.org/1999/xlink" x="0px" y="0px"
	 width="600px" height="600px" viewBox="0 0 600 600" enable-background="new 0 0 600 600" xml:space="preserve">
<g>
	<path d="M127.776,178.332h-9.167c-1.38,0-2.5,1.12-2.5,2.5v11.667c0,1.38,1.12,2.5,2.5,2.5h9.167c1.38,0,2.5-1.12,2.5-2.5v-11.667
		C130.276,179.452,129.156,178.332,127.776,178.332z M125.276,189.999h-4.167v-6.667h4.167V189.999z"/>
	<path d="M158.193,178.332h-9.167c-1.38,0-2.5,1.12-2.5,2.5v11.667c0,1.38,1.12,2.5,2.5,2.5h9.167c1.38,0,2.5-1.12,2.5-2.5v-11.667
		C160.693,179.452,159.573,178.332,158.193,178.332z M155.693,189.999h-4.167v-6.667h4.167V189.999z"/>
	<path d="M127.776,204.999h-9.167c-1.38,0-2.5,1.119-2.5,2.5v11.667c0,1.38,1.12,2.5,2.5,2.5h9.167c1.38,0,2.5-1.12,2.5-2.5v-11.667
		C130.276,206.118,129.156,204.999,127.776,204.999z M125.276,216.666h-4.167v-6.667h4.167V216.666z"/>
	<path d="M158.193,204.999h-9.167c-1.38,0-2.5,1.119-2.5,2.5v11.667c0,1.38,1.12,2.5,2.5,2.5h9.167c1.38,0,2.5-1.12,2.5-2.5v-11.667
		C160.693,206.118,159.573,204.999,158.193,204.999z M155.693,216.666h-4.167v-6.667h4.167V216.666z"/>
	<path d="M145.276,302.5h-10c-1.381,0-2.5,1.119-2.5,2.5v22.5c0,1.381,1.119,2.5,2.5,2.5h10c1.381,0,2.5-1.119,2.5-2.5V305
		C147.776,303.619,146.657,302.5,145.276,302.5z M142.776,325h-5v-17.5h5V325z"/>
	<path d="M498.752,158.332h-2.321c-1.229-17.539-15.279-31.589-32.818-32.819v-10.515c0-1.381-1.119-2.5-2.5-2.5s-2.5,1.119-2.5,2.5
		v10.515c-17.538,1.23-31.589,15.28-32.818,32.819h-2.876c-1.381,0-2.5,1.119-2.5,2.5v9.167c0,1.381,1.119,2.5,2.5,2.5h4.861V245
		h-3.89v-11.944c0-1.381-1.119-2.5-2.5-2.5h-30.556c-1.381,0-2.5,1.119-2.5,2.5V245h-17.5v-11.944c0-1.381-1.119-2.5-2.5-2.5
		h-30.556c-1.381,0-2.5,1.119-2.5,2.5V245h-17.5v-11.944c0-1.381-1.119-2.5-2.5-2.5h-30.557c-1.38,0-2.5,1.119-2.5,2.5V245h-17.5
		v-11.944c0-1.381-1.12-2.5-2.5-2.5h-30.556c-1.381,0-2.5,1.119-2.5,2.5V245h-17.5v-11.944c0-1.381-1.119-2.5-2.5-2.5H178.61
		c-1.38,0-2.5,1.119-2.5,2.5V245h-3.333v-72.501h4.306c1.381,0,2.5-1.119,2.5-2.5v-9.167c0-1.381-1.119-2.5-2.5-2.5h-2.32
		c-1.231-17.539-15.28-31.589-32.819-32.819v-10.515c0-1.381-1.119-2.5-2.5-2.5c-1.38,0-2.5,1.119-2.5,2.5v10.515
		c-17.539,1.23-31.588,15.28-32.819,32.819h-2.875c-1.381,0-2.5,1.119-2.5,2.5v9.167c0,1.381,1.119,2.5,2.5,2.5h4.861v312.503
		c0,1.381,1.119,2.5,2.5,2.5h61.667H430.28h61.667c1.381,0,2.5-1.119,2.5-2.5V172.499h4.306c1.381,0,2.5-1.119,2.5-2.5v-9.167
		C501.252,159.451,500.133,158.332,498.752,158.332z M461.113,130.415c15.93,0,29.029,12.311,30.306,27.917h-60.611
		C432.084,142.726,445.183,130.415,461.113,130.415z M178.61,250c1.381,0,2.5-1.12,2.5-2.5v-11.944h25.556V247.5
		c0,1.38,1.12,2.5,2.5,2.5h22.5c1.38,0,2.5-1.12,2.5-2.5v-11.944h25.556V247.5c0,1.38,1.119,2.5,2.5,2.5h22.5
		c1.381,0,2.5-1.12,2.5-2.5v-11.944h25.556V247.5c0,1.38,1.119,2.5,2.5,2.5h22.5c1.382,0,2.5-1.12,2.5-2.5v-11.944h25.556V247.5
		c0,1.38,1.119,2.5,2.5,2.5h22.5c1.381,0,2.5-1.12,2.5-2.5v-11.944h25.556V247.5c0,1.38,1.119,2.5,2.5,2.5h6.39v17.5H172.777V250
		H178.61z M139.443,130.415c15.929,0,29.029,12.311,30.306,27.917h-60.612C110.414,142.726,123.513,130.415,139.443,130.415z
		 M103.748,163.332h70.834v4.167h-4.306h-61.667h-4.861V163.332z M111.109,172.499h56.667V247.5v235.002h-56.667V172.499z
		 M172.777,272.5H427.78v210.002H172.777V272.5z M489.447,482.502H432.78V247.5v-75.001h56.667V482.502z M496.252,167.499h-4.306
		H430.28h-4.861v-4.167h70.834V167.499z"/>
	<path d="M440.28,194.999h9.166c1.382,0,2.5-1.12,2.5-2.5v-11.667c0-1.38-1.118-2.5-2.5-2.5h-9.166c-1.382,0-2.5,1.12-2.5,2.5
		v11.667C437.78,193.879,438.898,194.999,440.28,194.999z M442.78,183.332h4.166v6.667h-4.166V183.332z"/>
	<path d="M470.697,194.999h9.166c1.382,0,2.5-1.12,2.5-2.5v-11.667c0-1.38-1.118-2.5-2.5-2.5h-9.166c-1.382,0-2.5,1.12-2.5,2.5
		v11.667C468.197,193.879,469.315,194.999,470.697,194.999z M473.197,183.332h4.166v6.667h-4.166V183.332z"/>
	<path d="M440.28,221.666h9.166c1.382,0,2.5-1.12,2.5-2.5v-11.667c0-1.381-1.118-2.5-2.5-2.5h-9.166c-1.382,0-2.5,1.119-2.5,2.5
		v11.667C437.78,220.546,438.898,221.666,440.28,221.666z M442.78,209.999h4.166v6.667h-4.166V209.999z"/>
	<path d="M470.697,221.666h9.166c1.382,0,2.5-1.12,2.5-2.5v-11.667c0-1.381-1.118-2.5-2.5-2.5h-9.166c-1.382,0-2.5,1.119-2.5,2.5
		v11.667C468.197,220.546,469.315,221.666,470.697,221.666z M473.197,209.999h4.166v6.667h-4.166V209.999z"/>
	<path d="M456.946,330h10.001c1.381,0,2.5-1.119,2.5-2.5V305c0-1.381-1.119-2.5-2.5-2.5h-10.001c-1.381,0-2.5,1.119-2.5,2.5v22.5
		C454.446,328.881,455.565,330,456.946,330z M459.447,307.5h5V325h-5V307.5z"/>
	<path d="M213.078,290.351c-8.927,0-16.19,7.263-16.19,16.19v25.307c0,1.381,1.12,2.5,2.5,2.5h27.381c1.38,0,2.5-1.119,2.5-2.5
		v-25.307C229.268,297.613,222.006,290.351,213.078,290.351z M224.268,329.348h-22.381v-22.807c0-6.171,5.02-11.19,11.19-11.19
		s11.19,5.02,11.19,11.19V329.348z"/>
	<path d="M213.078,351.853c-8.927,0-16.19,7.263-16.19,16.19v25.307c0,1.381,1.12,2.5,2.5,2.5h27.381c1.38,0,2.5-1.119,2.5-2.5
		v-25.307C229.268,359.115,222.006,351.853,213.078,351.853z M224.268,390.85h-22.381v-22.807c0-6.171,5.02-11.19,11.19-11.19
		s11.19,5.02,11.19,11.19V390.85z"/>
	<path d="M213.078,413.354c-8.927,0-16.19,7.263-16.19,16.19v25.307c0,1.381,1.12,2.5,2.5,2.5h27.381c1.38,0,2.5-1.119,2.5-2.5
		v-25.307C229.268,420.617,222.006,413.354,213.078,413.354z M224.268,452.352h-22.381v-22.807c0-6.17,5.02-11.19,11.19-11.19
		s11.19,5.021,11.19,11.19V452.352z"/>
	<path d="M271.026,290.351c-8.927,0-16.19,7.263-16.19,16.19v25.307c0,1.381,1.12,2.5,2.5,2.5h27.381c1.38,0,2.5-1.119,2.5-2.5
		v-25.307C287.217,297.613,279.954,290.351,271.026,290.351z M282.217,329.348h-22.381v-22.807c0-6.171,5.02-11.19,11.19-11.19
		s11.19,5.02,11.19,11.19V329.348z"/>
	<path d="M271.026,351.853c-8.927,0-16.19,7.263-16.19,16.19v25.307c0,1.381,1.12,2.5,2.5,2.5h27.381c1.38,0,2.5-1.119,2.5-2.5
		v-25.307C287.217,359.115,279.954,351.853,271.026,351.853z M282.217,390.85h-22.381v-22.807c0-6.171,5.02-11.19,11.19-11.19
		s11.19,5.02,11.19,11.19V390.85z"/>
	<path d="M271.026,413.354c-8.927,0-16.19,7.263-16.19,16.19v25.307c0,1.381,1.12,2.5,2.5,2.5h27.381c1.38,0,2.5-1.119,2.5-2.5
		v-25.307C287.217,420.617,279.954,413.354,271.026,413.354z M282.217,452.352h-22.381v-22.807c0-6.17,5.02-11.19,11.19-11.19
		s11.19,5.021,11.19,11.19V452.352z"/>
	<path d="M328.974,290.351c-8.927,0-16.19,7.263-16.19,16.19v25.307c0,1.381,1.119,2.5,2.5,2.5h27.382c1.381,0,2.5-1.119,2.5-2.5
		v-25.307C345.165,297.613,337.902,290.351,328.974,290.351z M340.165,329.348h-22.382v-22.807c0-6.171,5.021-11.19,11.19-11.19
		c6.171,0,11.191,5.02,11.191,11.19V329.348z"/>
	<path d="M328.974,351.853c-8.927,0-16.19,7.263-16.19,16.19v25.307c0,1.381,1.119,2.5,2.5,2.5h27.382c1.381,0,2.5-1.119,2.5-2.5
		v-25.307C345.165,359.115,337.902,351.853,328.974,351.853z M340.165,390.85h-22.382v-22.807c0-6.171,5.021-11.19,11.19-11.19
		c6.171,0,11.191,5.02,11.191,11.19V390.85z"/>
	<path d="M328.974,413.354c-8.927,0-16.19,7.263-16.19,16.19v25.307c0,1.381,1.119,2.5,2.5,2.5h27.382c1.381,0,2.5-1.119,2.5-2.5
		v-25.307C345.165,420.617,337.902,413.354,328.974,413.354z M340.165,452.352h-22.382v-22.807c0-6.17,5.021-11.19,11.19-11.19
		c6.171,0,11.191,5.021,11.191,11.19V452.352z"/>
	<path d="M386.922,290.351c-8.927,0-16.19,7.263-16.19,16.19v25.307c0,1.381,1.119,2.5,2.5,2.5h27.382c1.381,0,2.5-1.119,2.5-2.5
		v-25.307C403.114,297.613,395.85,290.351,386.922,290.351z M398.114,329.348h-22.382v-22.807c0-6.171,5.021-11.19,11.19-11.19
		c6.171,0,11.191,5.02,11.191,11.19V329.348z"/>
	<path d="M386.922,351.853c-8.927,0-16.19,7.263-16.19,16.19v25.307c0,1.381,1.119,2.5,2.5,2.5h27.382c1.381,0,2.5-1.119,2.5-2.5
		v-25.307C403.114,359.115,395.85,351.853,386.922,351.853z M398.114,390.85h-22.382v-22.807c0-6.171,5.021-11.19,11.19-11.19
		c6.171,0,11.191,5.02,11.191,11.19V390.85z"/>
	<path d="M386.922,413.354c-8.927,0-16.19,7.263-16.19,16.19v25.307c0,1.381,1.119,2.5,2.5,2.5h27.382c1.381,0,2.5-1.119,2.5-2.5
		v-25.307C403.114,420.617,395.85,413.354,386.922,413.354z M398.114,452.352h-22.382v-22.807c0-6.17,5.021-11.19,11.19-11.19
		c6.171,0,11.191,5.021,11.191,11.19V452.352z"/>
</g>
</svg>
