<?xml version="1.0" encoding="utf-8"?>
<!-- Generator: Adobe Illustrator 15.0.0, SVG Export Plug-In . SVG Version: 6.00 Build 0)  -->
<!DOCTYPE svg PUBLIC "-//W3C//DTD SVG 1.1//EN" "http://www.w3.org/Graphics/SVG/1.1/DTD/svg11.dtd">
<svg version="1.1" id="Capa_1" xmlns="http://www.w3.org/2000/svg" xmlns:xlink="http://www.w3.org/1999/xlink" x="0px" y="0px"
	 width="600px" height="600px" viewBox="0 0 600 600" enable-background="new 0 0 600 600" xml:space="preserve">
<g>
	<path d="M409.544,549.229h-15.088v-50.399l8.331-22.351c2.211-2.751,3.437-5.911,3.437-9.549c0-0.006-0.001-0.012-0.001-0.018
		c0-0.023-0.004-0.047-0.005-0.07c-0.004-0.077-0.012-0.153-0.025-0.229c-0.006-0.032-0.014-0.065-0.022-0.099
		c-0.015-0.064-0.033-0.127-0.056-0.188c-0.013-0.035-0.024-0.069-0.039-0.104c-0.025-0.061-0.057-0.117-0.089-0.174
		c-0.037-0.067-0.079-0.13-0.125-0.191c-0.026-0.035-0.051-0.07-0.079-0.103c-0.039-0.045-0.082-0.088-0.126-0.129
		c-0.024-0.023-0.049-0.046-0.075-0.068c-0.049-0.04-0.098-0.08-0.151-0.116c-0.024-0.017-0.05-0.03-0.075-0.046
		c-0.051-0.03-0.098-0.065-0.152-0.092c-0.063-0.031-0.131-0.051-0.196-0.074c-0.021-0.007-0.042-0.017-0.063-0.023
		c-0.063-0.02-0.128-0.033-0.191-0.045c-0.03-0.006-0.06-0.011-0.089-0.015c-0.064-0.01-0.129-0.016-0.194-0.019
		c-0.026,0-0.053,0.002-0.08,0.002c-0.119,0.002-0.235,0.015-0.351,0.04c-0.031,0.006-0.063,0.011-0.094,0.019
		c-0.048,0.013-0.094,0.029-0.14,0.046c-0.05,0.018-0.099,0.036-0.147,0.059c-0.037,0.018-0.074,0.036-0.111,0.056
		c-0.062,0.034-0.121,0.071-0.18,0.112c-0.021,0.015-0.043,0.028-0.063,0.044c-0.011,0.009-0.022,0.015-0.033,0.023
		c-0.043,0.034-4.401,3.452-13.57,3.452c-1.211,0-2.471-0.06-3.743-0.178c-10.577-0.98-17.786-7.724-29.73-18.895
		c-3.159-2.955-6.737-6.3-10.761-9.893v-23.346l11.21-10.258c6.558-2.328,10.647-5.693,10.647-10.541c0-0.044-0.006-0.086-0.01-0.13
		c-0.002-0.033-0.003-0.067-0.008-0.1c-0.011-0.082-0.027-0.161-0.049-0.239c-0.011-0.043-0.025-0.084-0.039-0.127
		c-0.024-0.066-0.051-0.134-0.082-0.198c-0.026-0.053-0.059-0.104-0.09-0.155c-0.02-0.03-0.039-0.062-0.06-0.091
		c-0.023-0.031-0.04-0.066-0.065-0.098c-0.021-0.025-0.047-0.046-0.069-0.07c-0.004-0.004-0.007-0.008-0.011-0.011
		c-0.502-0.548-1.274-0.723-1.951-0.473c-0.004,0.001-0.008,0.002-0.011,0.003c-0.071,0.027-0.141,0.059-0.209,0.095
		c-0.029,0.016-0.058,0.032-0.087,0.05c-0.039,0.023-0.081,0.041-0.119,0.068c-0.025,0.018-0.854,0.602-2.211,1.476
		c-0.982,0.438-2.334,0.821-4.056,0.821c-1.226,0-2.525-0.197-3.862-0.589c-3.653-1.066-4.979-3.423-6.383-5.918
		c-0.713-1.265-1.449-2.563-2.486-3.65v-23.782l11.21-10.259c6.558-2.328,10.647-5.693,10.647-10.54c0-0.044-0.006-0.087-0.01-0.13
		c-0.002-0.034-0.003-0.067-0.008-0.101c-0.011-0.081-0.027-0.16-0.049-0.238c-0.011-0.043-0.025-0.085-0.039-0.127
		c-0.024-0.067-0.051-0.135-0.082-0.198c-0.026-0.054-0.059-0.104-0.09-0.155c-0.02-0.031-0.039-0.062-0.06-0.091
		c-0.023-0.032-0.04-0.067-0.065-0.098c-0.021-0.026-0.047-0.046-0.069-0.071c-0.004-0.003-0.007-0.007-0.011-0.011
		c-0.502-0.548-1.273-0.723-1.95-0.474c-0.004,0.002-0.009,0.003-0.013,0.005c-0.07,0.026-0.14,0.058-0.208,0.095
		c-0.029,0.015-0.058,0.032-0.087,0.049c-0.039,0.023-0.081,0.041-0.119,0.068c-0.025,0.019-0.854,0.603-2.211,1.477
		c-0.982,0.437-2.334,0.821-4.056,0.821c-1.226,0-2.525-0.198-3.862-0.589c-3.653-1.066-4.979-3.424-6.383-5.918
		c-0.713-1.266-1.449-2.563-2.486-3.65v-23.783l11.21-10.258c6.558-2.328,10.647-5.693,10.647-10.541
		c0-0.044-0.006-0.086-0.01-0.129c-0.002-0.034-0.003-0.067-0.008-0.101c-0.011-0.081-0.027-0.161-0.049-0.239
		c-0.011-0.042-0.025-0.084-0.039-0.126c-0.024-0.068-0.051-0.135-0.082-0.199c-0.026-0.053-0.059-0.104-0.09-0.155
		c-0.02-0.031-0.039-0.061-0.06-0.091c-0.023-0.032-0.04-0.067-0.065-0.098c-0.021-0.026-0.047-0.046-0.069-0.07
		c-0.004-0.004-0.007-0.008-0.011-0.011c-0.503-0.549-1.277-0.723-1.956-0.471c-0.001,0-0.003,0-0.004,0.001
		c-0.072,0.027-0.143,0.059-0.213,0.096c-0.027,0.015-0.055,0.031-0.082,0.047c-0.041,0.024-0.083,0.042-0.122,0.07
		c-0.025,0.018-0.854,0.603-2.211,1.476c-0.982,0.438-2.334,0.821-4.056,0.821c-1.226,0-2.525-0.198-3.862-0.588
		c-3.653-1.067-4.979-3.423-6.383-5.918c-0.713-1.265-1.449-2.563-2.486-3.65v-23.783l11.21-10.258
		c6.558-2.329,10.647-5.694,10.647-10.542c0-0.044-0.006-0.086-0.01-0.129c-0.002-0.034-0.003-0.067-0.008-0.101
		c-0.011-0.081-0.027-0.16-0.049-0.238c-0.011-0.043-0.025-0.085-0.039-0.126c-0.024-0.068-0.051-0.135-0.082-0.199
		c-0.026-0.053-0.059-0.104-0.09-0.155c-0.02-0.03-0.039-0.061-0.06-0.091c-0.023-0.032-0.04-0.067-0.065-0.098
		c-0.021-0.026-0.047-0.046-0.068-0.071c-0.005-0.004-0.009-0.008-0.013-0.012c-0.503-0.548-1.276-0.722-1.954-0.47
		c-0.002,0-0.004,0.001-0.005,0.001c-0.073,0.027-0.143,0.06-0.213,0.096c-0.027,0.015-0.054,0.031-0.081,0.046
		c-0.041,0.024-0.084,0.043-0.123,0.071c-0.025,0.018-0.854,0.603-2.211,1.476c-0.982,0.438-2.334,0.821-4.056,0.821
		c-1.226,0-2.525-0.198-3.862-0.588c-3.653-1.067-4.979-3.423-6.383-5.918c-0.713-1.265-1.449-2.563-2.486-3.65V201l11.21-10.258
		c6.558-2.329,10.647-5.694,10.647-10.542c0-0.044-0.006-0.086-0.01-0.129c-0.002-0.034-0.003-0.067-0.008-0.1
		c-0.011-0.082-0.027-0.161-0.049-0.239c-0.011-0.043-0.025-0.085-0.039-0.126c-0.024-0.068-0.051-0.135-0.082-0.199
		c-0.026-0.053-0.059-0.104-0.09-0.154c-0.02-0.031-0.039-0.062-0.06-0.091c-0.023-0.033-0.04-0.067-0.065-0.099
		c-0.021-0.026-0.047-0.046-0.069-0.07c-0.004-0.004-0.007-0.007-0.011-0.011c-0.503-0.549-1.277-0.723-1.954-0.472
		c-0.002,0.001-0.005,0.001-0.006,0.002c-0.073,0.027-0.143,0.059-0.213,0.096c-0.027,0.014-0.055,0.031-0.082,0.047
		c-0.04,0.024-0.083,0.043-0.122,0.07c-0.025,0.018-0.854,0.603-2.211,1.476c-0.982,0.438-2.334,0.821-4.056,0.821
		c-1.226,0-2.525-0.198-3.862-0.588c-3.653-1.067-4.979-3.423-6.383-5.918c-0.713-1.265-1.449-2.563-2.486-3.65v-23.783
		l11.21-10.258c6.558-2.329,10.647-5.694,10.647-10.542c0-0.043-0.006-0.086-0.01-0.129c-0.002-0.034-0.003-0.067-0.008-0.101
		c-0.011-0.081-0.027-0.16-0.049-0.238c-0.011-0.043-0.025-0.085-0.039-0.126c-0.024-0.068-0.051-0.135-0.082-0.199
		c-0.026-0.053-0.059-0.103-0.09-0.155c-0.02-0.03-0.039-0.061-0.06-0.09c-0.023-0.033-0.04-0.067-0.065-0.098
		c-0.021-0.026-0.047-0.046-0.069-0.071c-0.004-0.004-0.007-0.007-0.011-0.011c-0.503-0.549-1.277-0.723-1.956-0.471
		c-0.001,0-0.003,0.001-0.004,0.001c-0.072,0.027-0.143,0.059-0.213,0.096c-0.027,0.015-0.055,0.031-0.082,0.048
		c-0.041,0.024-0.083,0.042-0.122,0.07c-0.025,0.018-0.854,0.603-2.211,1.476c-0.982,0.438-2.334,0.822-4.056,0.822
		c-1.226,0-2.525-0.198-3.862-0.589c-5.436-1.587-6.983-5.017-8.622-8.648c-0.139-0.307-0.276-0.611-0.414-0.91l-0.727-1.575
		c-8.761-19.008-17.799-38.583-37.36-42.437c1.124-1.029,1.835-2.502,1.835-4.143c0-3.099-2.521-5.62-5.62-5.62h-1.614V36.891
		c0-1-0.811-1.811-1.811-1.811s-1.811,0.811-1.811,1.811v26.292h-1.614c-3.099,0-5.621,2.521-5.621,5.62
		c0,1.641,0.711,3.114,1.835,4.143c-19.562,3.854-28.6,23.43-37.362,42.438l-0.726,1.573c-0.138,0.299-0.275,0.604-0.414,0.91
		c-1.639,3.631-3.187,7.062-8.622,8.648c-1.337,0.391-2.636,0.589-3.862,0.589c-0.622,0-1.19-0.054-1.716-0.139
		c-2.835-1.269-4.701-2.255-4.748-2.28c-0.018-0.01-0.037-0.015-0.055-0.023c-0.07-0.034-0.141-0.064-0.214-0.089
		c-0.032-0.011-0.065-0.021-0.099-0.03c-0.066-0.018-0.133-0.033-0.202-0.043c-0.033-0.005-0.065-0.011-0.098-0.015
		c-0.077-0.008-0.155-0.01-0.233-0.007c-0.022,0-0.043-0.001-0.065,0c-0.101,0.006-0.202,0.02-0.302,0.044
		c-0.008,0.001-0.016,0.005-0.024,0.007c-0.077,0.02-0.154,0.042-0.229,0.071c-0.01,0.004-0.019,0.01-0.029,0.015
		c-0.031,0.013-0.061,0.029-0.091,0.044c-0.061,0.03-0.121,0.061-0.177,0.097c-0.031,0.02-0.06,0.041-0.09,0.062
		c-0.055,0.04-0.106,0.081-0.156,0.126c-0.026,0.023-0.052,0.046-0.076,0.072c-0.057,0.058-0.109,0.119-0.157,0.184
		c-0.01,0.014-0.023,0.025-0.034,0.039c-0.002,0.004-0.004,0.008-0.006,0.012c-0.059,0.084-0.11,0.173-0.154,0.267
		c-0.011,0.023-0.018,0.047-0.028,0.07c-0.029,0.069-0.055,0.14-0.075,0.213c-0.01,0.035-0.017,0.07-0.024,0.105
		c-0.014,0.063-0.024,0.126-0.031,0.191c-0.004,0.038-0.007,0.076-0.008,0.114c-0.001,0.024-0.006,0.048-0.006,0.073
		c0,4.557,3.521,8.056,10.685,10.575l11.174,10.225v23.782c-1.038,1.087-1.774,2.386-2.487,3.651
		c-1.404,2.495-2.73,4.851-6.383,5.918c-1.337,0.391-2.636,0.588-3.862,0.588c-0.622,0-1.19-0.054-1.716-0.138
		c-2.835-1.269-4.701-2.255-4.748-2.281c-0.017-0.009-0.036-0.013-0.053-0.022c-0.071-0.035-0.143-0.066-0.217-0.091
		c-0.032-0.011-0.063-0.02-0.096-0.029c-0.068-0.02-0.137-0.034-0.207-0.045c-0.031-0.005-0.062-0.011-0.092-0.014
		c-0.08-0.009-0.161-0.011-0.242-0.008c-0.019,0-0.038-0.001-0.057,0c-0.102,0.006-0.203,0.021-0.304,0.044
		c-0.005,0.001-0.011,0.004-0.016,0.005c-0.079,0.02-0.158,0.043-0.236,0.074c-0.01,0.004-0.019,0.01-0.029,0.015
		c-0.031,0.013-0.061,0.029-0.091,0.044c-0.061,0.029-0.121,0.061-0.177,0.096c-0.031,0.02-0.06,0.041-0.09,0.062
		c-0.055,0.039-0.106,0.081-0.156,0.126c-0.026,0.023-0.052,0.046-0.076,0.071c-0.057,0.058-0.109,0.119-0.157,0.184
		c-0.01,0.014-0.023,0.025-0.034,0.04c-0.002,0.003-0.004,0.008-0.006,0.011c-0.059,0.084-0.11,0.173-0.154,0.267
		c-0.011,0.023-0.018,0.047-0.028,0.07c-0.029,0.069-0.055,0.14-0.075,0.213c-0.01,0.035-0.017,0.07-0.024,0.105
		c-0.014,0.063-0.024,0.126-0.031,0.191c-0.004,0.039-0.007,0.076-0.008,0.114c-0.001,0.025-0.006,0.049-0.006,0.073
		c0,4.848,4.091,8.213,10.648,10.542L254.537,201v23.782c-1.038,1.087-1.774,2.385-2.487,3.651c-1.404,2.495-2.73,4.851-6.383,5.918
		c-1.337,0.391-2.636,0.588-3.862,0.588c-0.622,0-1.19-0.054-1.716-0.138c-2.835-1.269-4.701-2.255-4.748-2.281
		c-0.019-0.01-0.038-0.015-0.057-0.024c-0.069-0.034-0.139-0.063-0.211-0.088c-0.033-0.011-0.066-0.021-0.1-0.03
		c-0.066-0.019-0.133-0.033-0.201-0.043c-0.033-0.005-0.065-0.011-0.098-0.015c-0.078-0.008-0.156-0.01-0.235-0.007
		c-0.021,0-0.042-0.001-0.062,0c-0.102,0.006-0.203,0.02-0.303,0.044c-0.007,0.001-0.013,0.004-0.02,0.006
		c-0.078,0.02-0.156,0.042-0.232,0.072c-0.01,0.004-0.019,0.01-0.029,0.015c-0.031,0.013-0.061,0.029-0.091,0.044
		c-0.061,0.03-0.121,0.061-0.177,0.097c-0.031,0.02-0.06,0.041-0.09,0.062c-0.055,0.039-0.106,0.081-0.156,0.126
		c-0.026,0.023-0.052,0.046-0.076,0.072c-0.057,0.058-0.109,0.119-0.157,0.184c-0.01,0.014-0.023,0.025-0.034,0.039
		c-0.002,0.004-0.004,0.008-0.006,0.012c-0.059,0.084-0.11,0.173-0.154,0.267c-0.011,0.023-0.018,0.047-0.028,0.07
		c-0.029,0.069-0.055,0.14-0.075,0.213c-0.01,0.035-0.017,0.07-0.024,0.105c-0.014,0.063-0.024,0.126-0.031,0.191
		c-0.004,0.039-0.007,0.076-0.008,0.115c-0.001,0.024-0.006,0.048-0.006,0.073c0,4.848,4.091,8.213,10.648,10.542l11.21,10.258
		v23.782c-1.038,1.087-1.774,2.385-2.487,3.651c-1.404,2.495-2.73,4.851-6.383,5.918c-1.337,0.391-2.636,0.588-3.862,0.588
		c-0.622,0-1.19-0.054-1.716-0.138c-2.835-1.269-4.701-2.255-4.748-2.281c-0.019-0.01-0.04-0.015-0.059-0.024
		c-0.067-0.033-0.136-0.063-0.207-0.087c-0.035-0.012-0.07-0.022-0.106-0.032c-0.063-0.017-0.127-0.031-0.192-0.042
		c-0.036-0.006-0.071-0.012-0.107-0.016c-0.072-0.007-0.145-0.009-0.218-0.007c-0.027,0-0.053-0.001-0.08,0
		c-0.099,0.006-0.199,0.02-0.297,0.043c-0.014,0.004-0.027,0.01-0.042,0.013c-0.071,0.019-0.143,0.039-0.213,0.066
		c-0.01,0.004-0.018,0.01-0.028,0.014c-0.033,0.014-0.064,0.031-0.096,0.047c-0.059,0.029-0.117,0.059-0.172,0.094
		c-0.032,0.02-0.062,0.042-0.093,0.064c-0.054,0.039-0.105,0.08-0.154,0.124c-0.026,0.024-0.053,0.047-0.078,0.073
		c-0.057,0.057-0.108,0.119-0.157,0.183c-0.01,0.014-0.023,0.025-0.034,0.04c-0.002,0.004-0.004,0.008-0.006,0.012
		c-0.059,0.084-0.11,0.173-0.154,0.266c-0.011,0.023-0.018,0.047-0.028,0.071c-0.029,0.069-0.055,0.14-0.075,0.213
		c-0.01,0.035-0.017,0.07-0.024,0.105c-0.014,0.063-0.024,0.126-0.031,0.191c-0.004,0.039-0.007,0.076-0.008,0.114
		c-0.001,0.024-0.006,0.048-0.006,0.073c0,4.848,4.091,8.213,10.648,10.541l11.21,10.258v23.782
		c-1.038,1.087-1.774,2.386-2.487,3.651c-1.404,2.494-2.73,4.852-6.383,5.918c-1.337,0.391-2.636,0.589-3.862,0.589
		c-0.622,0-1.19-0.055-1.716-0.14c-2.835-1.268-4.701-2.255-4.748-2.279c-0.018-0.01-0.036-0.015-0.054-0.023
		c-0.07-0.034-0.141-0.065-0.214-0.09c-0.032-0.011-0.065-0.02-0.099-0.029c-0.066-0.019-0.134-0.033-0.202-0.044
		c-0.033-0.006-0.064-0.012-0.097-0.015c-0.078-0.008-0.156-0.01-0.234-0.008c-0.021,0-0.042-0.001-0.063,0
		c-0.102,0.006-0.203,0.021-0.303,0.044c-0.007,0.002-0.013,0.005-0.02,0.007c-0.079,0.019-0.156,0.042-0.233,0.072
		c-0.01,0.005-0.019,0.011-0.03,0.015c-0.03,0.013-0.06,0.028-0.09,0.044c-0.061,0.029-0.121,0.061-0.178,0.097
		c-0.031,0.019-0.06,0.04-0.089,0.062c-0.055,0.04-0.107,0.082-0.157,0.127c-0.025,0.023-0.051,0.046-0.076,0.071
		c-0.057,0.058-0.109,0.119-0.157,0.184c-0.011,0.014-0.023,0.024-0.034,0.039c-0.002,0.003-0.004,0.008-0.006,0.012
		c-0.059,0.084-0.11,0.173-0.154,0.267c-0.011,0.023-0.018,0.047-0.028,0.07c-0.029,0.069-0.055,0.14-0.075,0.213
		c-0.01,0.035-0.017,0.07-0.024,0.105c-0.014,0.062-0.024,0.126-0.031,0.191c-0.004,0.038-0.007,0.075-0.008,0.114
		c-0.001,0.024-0.006,0.048-0.006,0.073c0,4.848,4.091,8.212,10.648,10.54l11.21,10.259v23.782c-1.038,1.087-1.774,2.386-2.487,3.65
		c-1.404,2.495-2.73,4.852-6.383,5.918c-1.337,0.392-2.636,0.589-3.862,0.589c-0.622,0-1.19-0.054-1.716-0.139
		c-2.835-1.269-4.701-2.255-4.748-2.28c-0.018-0.009-0.037-0.015-0.055-0.023c-0.069-0.034-0.14-0.064-0.212-0.089
		c-0.033-0.011-0.067-0.021-0.101-0.03c-0.065-0.019-0.131-0.032-0.198-0.043c-0.034-0.006-0.068-0.012-0.102-0.016
		c-0.075-0.007-0.15-0.009-0.226-0.007c-0.024,0-0.048-0.002-0.072,0c-0.1,0.006-0.2,0.02-0.299,0.043
		c-0.013,0.003-0.024,0.009-0.037,0.012c-0.073,0.019-0.146,0.039-0.218,0.067c-0.01,0.004-0.018,0.011-0.028,0.015
		c-0.033,0.014-0.064,0.03-0.096,0.046c-0.059,0.029-0.117,0.06-0.172,0.094c-0.032,0.021-0.062,0.042-0.093,0.064
		c-0.054,0.038-0.105,0.08-0.154,0.124c-0.026,0.024-0.053,0.048-0.078,0.073c-0.057,0.057-0.108,0.118-0.157,0.183
		c-0.01,0.014-0.023,0.025-0.034,0.039c-0.002,0.004-0.004,0.009-0.006,0.012c-0.059,0.085-0.11,0.174-0.154,0.267
		c-0.011,0.023-0.018,0.047-0.028,0.071c-0.029,0.069-0.055,0.14-0.075,0.212c-0.01,0.035-0.017,0.07-0.024,0.106
		c-0.014,0.062-0.024,0.126-0.031,0.19c-0.004,0.038-0.007,0.076-0.008,0.114c-0.001,0.025-0.006,0.049-0.006,0.073
		c0,4.848,4.091,8.213,10.648,10.541l11.21,10.258v23.346c-4.024,3.593-7.601,6.937-10.76,9.892
		c-11.945,11.171-19.155,17.915-29.731,18.896c-1.272,0.118-2.532,0.178-3.744,0.178c-9.17,0-13.528-3.418-13.561-3.444
		c-0.04-0.032-0.083-0.059-0.124-0.088c-0.023-0.017-0.045-0.034-0.068-0.05c-0.083-0.052-0.17-0.098-0.259-0.136
		c-0.014-0.005-0.028-0.009-0.042-0.014c-0.078-0.031-0.156-0.056-0.237-0.076c-0.028-0.006-0.056-0.011-0.085-0.017
		c-0.069-0.013-0.138-0.022-0.208-0.027c-0.031-0.002-0.061-0.004-0.092-0.005c-0.076-0.002-0.151,0.002-0.227,0.01
		c-0.023,0.003-0.045,0.003-0.068,0.006c-0.097,0.014-0.194,0.036-0.289,0.065c-0.02,0.007-0.039,0.016-0.059,0.022
		c-0.056,0.02-0.112,0.039-0.167,0.064c-0.019,0.01-0.036,0.021-0.054,0.031c-0.012,0.006-0.025,0.009-0.038,0.016
		c-0.017,0.01-0.031,0.022-0.047,0.032c-0.062,0.036-0.122,0.075-0.179,0.119c-0.025,0.019-0.051,0.037-0.075,0.058
		c-0.065,0.055-0.125,0.113-0.182,0.176c-0.01,0.011-0.021,0.021-0.03,0.03c-0.063,0.073-0.118,0.152-0.168,0.234
		c-0.016,0.025-0.028,0.053-0.042,0.078c-0.033,0.061-0.062,0.121-0.088,0.185c-0.013,0.031-0.024,0.063-0.035,0.095
		c-0.021,0.062-0.039,0.126-0.053,0.192c-0.007,0.031-0.016,0.062-0.021,0.095c-0.013,0.079-0.02,0.159-0.023,0.241
		c0,0.018-0.004,0.034-0.004,0.053c0,0.002,0,0.003,0,0.004c0,3.43,1.114,6.53,3.349,9.312l8.419,22.587v50.4h-15.088
		c-1,0-1.811,0.81-1.811,1.811v12.07c0,1,0.811,1.811,1.811,1.811h219.088c1,0,1.811-0.811,1.811-1.811v-12.07
		C411.355,550.038,410.544,549.229,409.544,549.229z M258.158,417.682h83.685v21.729h-83.685V417.682z M258.158,363.765h83.685
		v21.728h-83.685V363.765z M258.158,309.848h83.685v21.728h-83.685V309.848z M258.158,255.93h83.685v21.728h-83.685V255.93z
		 M258.158,202.012h83.685v21.728h-83.685V202.012z M258.158,148.095h83.685v21.728h-83.685V148.095z M296.576,66.804h6.849
		c1.102,0,1.999,0.897,1.999,1.999s-0.897,1.999-1.999,1.999h-6.849c-1.102,0-1.999-0.897-1.999-1.999
		S295.474,66.804,296.576,66.804z M241.805,130.726c1.57,0,3.211-0.247,4.877-0.733c7.035-2.055,9.183-6.812,10.908-10.635
		c0.134-0.297,0.267-0.592,0.401-0.882l0.727-1.575c9.725-21.098,18.911-41.026,41.283-41.026c22.371,0,31.557,19.927,41.282,41.024
		l0.727,1.577c0.134,0.29,0.267,0.585,0.401,0.882c1.726,3.823,3.873,8.581,10.908,10.635c1.666,0.486,3.308,0.733,4.877,0.733
		c1.22,0,2.315-0.148,3.282-0.381c-3.136,2.619-9.55,4.659-18.993,6.002c-11.975,1.703-26.293,1.921-37.431,1.921L300,138.263
		l-5.054,0.005c-11.137,0-25.456-0.219-37.431-1.922c-9.442-1.343-15.856-3.383-18.992-6.001
		C239.49,130.578,240.585,130.726,241.805,130.726z M257.006,139.932c12.2,1.735,26.685,1.958,37.941,1.958l5.054-0.005l5.054,0.005
		c15.319,0,31.833-0.497,44.004-3.004l-6.107,5.588h-85.899l-6.099-5.581C252.825,139.276,254.84,139.623,257.006,139.932z
		 M241.805,184.643c1.57,0,3.211-0.247,4.877-0.734c5.07-1.48,6.985-4.884,8.524-7.618c0.627-1.115,1.184-2.104,1.868-2.848h85.852
		c0.685,0.744,1.24,1.733,1.868,2.848c1.538,2.734,3.453,6.137,8.524,7.618c1.666,0.487,3.308,0.734,4.877,0.734
		c1.22,0,2.315-0.148,3.282-0.381c-3.136,2.619-9.55,4.659-18.993,6.002c-11.975,1.703-26.293,1.921-37.431,1.921L300,192.18
		l-5.054,0.005c-11.137,0-25.456-0.219-37.431-1.922c-9.442-1.343-15.856-3.383-18.992-6.001
		C239.49,184.495,240.585,184.643,241.805,184.643z M294.947,195.807l5.054-0.005l5.054,0.005c15.319,0,31.833-0.496,44.004-3.004
		l-6.107,5.588h-85.899l-6.107-5.588C263.115,195.311,279.628,195.807,294.947,195.807z M241.805,238.561
		c1.57,0,3.211-0.247,4.877-0.734c5.07-1.48,6.985-4.884,8.524-7.618c0.627-1.115,1.184-2.104,1.868-2.848h85.852
		c0.685,0.744,1.24,1.732,1.868,2.848c1.538,2.734,3.453,6.137,8.524,7.618c1.666,0.487,3.308,0.734,4.877,0.734
		c1.22,0,2.315-0.148,3.282-0.381c-3.136,2.619-9.55,4.659-18.993,6.002c-11.975,1.703-26.293,1.921-37.431,1.921L300,246.098
		l-5.054,0.005c-11.137,0-25.456-0.219-37.431-1.922c-9.442-1.343-15.856-3.383-18.992-6.001
		C239.49,238.413,240.585,238.561,241.805,238.561z M294.947,249.724l5.054-0.005l5.054,0.005c15.319,0,31.833-0.496,44.004-3.004
		l-6.107,5.588h-85.899l-6.107-5.588C263.115,249.228,279.628,249.724,294.947,249.724z M241.805,292.478
		c1.57,0,3.211-0.247,4.877-0.734c5.07-1.48,6.985-4.884,8.524-7.618c0.627-1.115,1.184-2.104,1.868-2.848h85.852
		c0.685,0.744,1.24,1.732,1.868,2.848c1.538,2.734,3.453,6.137,8.524,7.618c1.666,0.487,3.308,0.734,4.877,0.734
		c1.22,0,2.315-0.148,3.282-0.381c-3.136,2.619-9.55,4.659-18.993,6.002c-11.975,1.703-26.293,1.921-37.431,1.921L300,300.015
		l-5.054,0.005c-11.137,0-25.456-0.219-37.431-1.922c-9.442-1.343-15.856-3.383-18.992-6.001
		C239.49,292.33,240.585,292.478,241.805,292.478z M294.947,303.642l5.054-0.005l5.054,0.005c15.319,0,31.833-0.496,44.004-3.004
		l-6.107,5.588h-85.899l-6.107-5.588C263.115,303.146,279.628,303.642,294.947,303.642z M241.805,346.396
		c1.57,0,3.211-0.247,4.877-0.733c5.07-1.481,6.985-4.884,8.524-7.618c0.627-1.115,1.184-2.104,1.868-2.848h85.852
		c0.685,0.744,1.24,1.732,1.868,2.848c1.538,2.734,3.453,6.137,8.524,7.618c1.666,0.486,3.308,0.733,4.877,0.733
		c1.22,0,2.315-0.148,3.282-0.381c-3.136,2.618-9.55,4.659-18.993,6.001c-11.975,1.704-26.293,1.922-37.431,1.922L300,353.933
		l-5.054,0.005c-11.137,0-25.456-0.218-37.431-1.922c-9.442-1.343-15.856-3.383-18.992-6.001
		C239.49,346.247,240.585,346.396,241.805,346.396z M294.947,357.559l5.054-0.005l5.054,0.005c15.319,0,31.833-0.496,44.004-3.003
		l-6.107,5.588h-85.899l-6.107-5.588C263.115,357.062,279.628,357.559,294.947,357.559z M241.805,400.313
		c1.57,0,3.211-0.248,4.877-0.734c5.07-1.481,6.985-4.884,8.524-7.618c0.627-1.115,1.184-2.104,1.868-2.848h85.852
		c0.685,0.744,1.24,1.732,1.868,2.848c1.538,2.734,3.453,6.137,8.524,7.618c1.666,0.486,3.308,0.734,4.877,0.734
		c1.22,0,2.315-0.149,3.282-0.381c-3.136,2.618-9.55,4.658-18.993,6.001c-11.975,1.703-26.293,1.922-37.431,1.922L300,407.851
		l-5.054,0.005c-11.137,0-25.456-0.219-37.431-1.922c-9.442-1.344-15.856-3.383-18.992-6.001
		C239.49,400.164,240.585,400.313,241.805,400.313z M294.947,411.477l5.054-0.005l5.054,0.005c15.319,0,31.833-0.496,44.004-3.004
		l-6.107,5.588h-85.899l-6.107-5.588C263.115,410.98,279.628,411.477,294.947,411.477z M197.94,470.305
		c2.607,1.12,6.695,2.296,12.363,2.295c1.323,0,2.694-0.064,4.078-0.192c11.811-1.095,19.361-8.157,31.871-19.856
		c3.052-2.854,6.494-6.073,10.344-9.52h86.81c3.851,3.446,7.293,6.666,10.346,9.521c12.509,11.699,20.059,18.761,31.87,19.855
		c1.383,0.128,2.755,0.192,4.077,0.192c5.696,0,9.797-1.187,12.401-2.312c-6.383,20.552-71.81,20.55-94.044,20.55
		c-1.6,0-3.116-0.002-4.535-0.004c-1.252-0.003-2.429-0.005-3.521-0.005l-2.928,0.005c-1.263,0.002-2.647,0.004-4.138,0.004
		c-15.874,0-39.282-0.372-59.216-3.593C212.548,483.825,200.545,478.136,197.94,470.305z M202.841,481.207
		c13.851,8.893,43.669,13.253,90.093,13.253c1.493,0,2.879-0.003,4.145-0.005l1.57-0.003c0.037,0.002,0.082,0.004,0.107,0.005
		c0.029,0.003,0.058,0.003,0.087,0.003h4.023c0.047,0,0.094-0.002,0.141-0.005c0.002,0,0.007-0.001,0.01-0.001
		c0.168,0,0.325,0.001,0.496,0.001c1.422,0.002,2.94,0.005,4.542,0.005c31.757,0,71.393-1.622,89.003-12.981l-5.67,15.213H208.613
		L202.841,481.207z M390.835,500.341v48.888h-4.024v-48.888H390.835z M383.19,500.312v48.916h-5.432v-48.916H383.19z
		 M374.137,500.341v48.888h-4.024v-48.888H374.137z M366.491,500.312v48.916h-7.344v-48.916H366.491z M310.059,507.382h-20.118
		c-1,0-1.811,0.81-1.811,1.811v40.036h-43.657v-48.888h111.053v48.888h-43.657v-40.036
		C311.869,508.191,311.059,507.382,310.059,507.382z M308.248,511.003v38.226h-16.497v-38.226H308.248z M240.852,500.312v48.916
		h-7.343v-48.916H240.852z M229.888,500.341v48.888h-4.024v-48.888H229.888z M222.242,500.312v48.916h-5.432v-48.916H222.242z
		 M213.189,500.341v48.888h-4.024v-48.888H213.189z M407.734,561.299H192.267v-8.449h15.088H215h9.053h7.645h10.965h47.278h20.118
		h47.278h10.965h7.646H385h7.646h15.088V561.299z"/>
	<path d="M305.13,366.353h-10.26c-1,0-1.811,0.811-1.811,1.811v12.675c0,1,0.811,1.811,1.811,1.811h10.26
		c1.001,0,1.811-0.811,1.811-1.811v-12.675C306.941,367.163,306.131,366.353,305.13,366.353z M303.32,379.027h-6.639v-9.054h6.639
		V379.027z"/>
	<path d="M305.13,420.398h-10.26c-1,0-1.811,0.811-1.811,1.811v12.674c0,1.001,0.811,1.812,1.811,1.812h10.26
		c1.001,0,1.811-0.811,1.811-1.812v-12.674C306.941,421.209,306.131,420.398,305.13,420.398z M303.32,433.072h-6.639v-9.053h6.639
		V433.072z"/>
	<path d="M305.13,312.563h-10.26c-1,0-1.811,0.811-1.811,1.811v12.675c0,1,0.811,1.811,1.811,1.811h10.26
		c1.001,0,1.811-0.811,1.811-1.811v-12.675C306.941,313.374,306.131,312.563,305.13,312.563z M303.32,325.237h-6.639v-9.053h6.639
		V325.237z"/>
	<path d="M305.13,258.774h-10.26c-1,0-1.811,0.811-1.811,1.811v12.675c0,1,0.811,1.811,1.811,1.811h10.26
		c1.001,0,1.811-0.811,1.811-1.811v-12.675C306.941,259.585,306.131,258.774,305.13,258.774z M303.32,271.449h-6.639v-9.053h6.639
		V271.449z"/>
	<path d="M305.13,204.985h-10.26c-1,0-1.811,0.811-1.811,1.811v12.674c0,1,0.811,1.811,1.811,1.811h10.26
		c1.001,0,1.811-0.811,1.811-1.811v-12.674C306.941,205.795,306.131,204.985,305.13,204.985z M303.32,217.659h-6.639v-9.053h6.639
		V217.659z"/>
	<path d="M305.13,151.195h-10.26c-1,0-1.811,0.811-1.811,1.811v12.675c0,1,0.811,1.811,1.811,1.811h10.26
		c1.001,0,1.811-0.811,1.811-1.811v-12.675C306.941,152.006,306.131,151.195,305.13,151.195z M303.32,163.87h-6.639v-9.053h6.639
		V163.87z"/>
</g>
</svg>
