<?xml version="1.0" encoding="utf-8"?>
<!-- Generator: Adobe Illustrator 15.0.0, SVG Export Plug-In . SVG Version: 6.00 Build 0)  -->
<!DOCTYPE svg PUBLIC "-//W3C//DTD SVG 1.1//EN" "http://www.w3.org/Graphics/SVG/1.1/DTD/svg11.dtd">
<svg version="1.1" id="Capa_1" xmlns="http://www.w3.org/2000/svg" xmlns:xlink="http://www.w3.org/1999/xlink" x="0px" y="0px"
	 width="600px" height="600px" viewBox="0 0 600 600" enable-background="new 0 0 600 600" xml:space="preserve">
<path d="M336.25,164.097h-22.839l-1.682-71.129C318.081,92.117,323,86.677,323,80.097c0-7.169-5.832-13-13-13h-1.516l-5.301-37.192
	c-0.211-1.479-1.477-2.577-2.97-2.577s-2.759,1.099-2.97,2.577l-5.299,37.192H290c-7.168,0-13,5.831-13,13
	c0,6.58,4.918,12.021,11.27,12.871l-1.682,71.129H263.75c-20.402,0-37,16.598-37,37c0,20.401,16.598,37,37,37h21.088l-7.837,331.505
	c-0.019,0.808,0.288,1.589,0.853,2.167c0.565,0.578,1.338,0.904,2.146,0.904h40c0.007,0,0.015,0,0.02,0c1.657,0,3-1.343,3-3
	c0-0.143-0.01-0.282-0.028-0.42l-7.83-331.156h21.089c20.402,0,37-16.599,37-37C373.25,180.694,356.653,164.097,336.25,164.097z
	 M300.214,51.593l2.21,15.504h-4.419L300.214,51.593z M283,80.097c0-3.86,3.14-7,7-7h3.872c0.216,0.049,0.438,0.077,0.665,0.077
	h11.356c0.226,0,0.448-0.028,0.664-0.077H310c3.859,0,7,3.14,7,7c0,3.859-3.141,7-7,7h-1.339h-17.323H290
	C286.14,87.097,283,83.956,283,80.097z M294.268,93.097h11.464l1.679,71h-14.821L294.268,93.097z M263.75,170.097h72.5
	c16.081,0,29.338,12.31,30.853,28H232.898C234.412,182.406,247.669,170.097,263.75,170.097z M290.84,238.097H297v328.576h-13.928
	L290.84,238.097z M316.929,566.673H303V238.097h6.16L316.929,566.673z M336.25,232.097h-72.5c-16.081,0-29.338-12.31-30.852-28
	h134.205C365.588,219.787,352.331,232.097,336.25,232.097z"/>
</svg>
