<?xml version="1.0" encoding="utf-8"?>
<!-- Generator: Adobe Illustrator 15.0.0, SVG Export Plug-In . SVG Version: 6.00 Build 0)  -->
<!DOCTYPE svg PUBLIC "-//W3C//DTD SVG 1.1//EN" "http://www.w3.org/Graphics/SVG/1.1/DTD/svg11.dtd">
<svg version="1.1" id="Capa_1" xmlns="http://www.w3.org/2000/svg" xmlns:xlink="http://www.w3.org/1999/xlink" x="0px" y="0px"
	 width="600px" height="600px" viewBox="0 0 600 600" enable-background="new 0 0 600 600" xml:space="preserve">
<path d="M546.799,452.486h-71.244c9.618-3.439,17.774-7.746,24.697-13.016c19.745-15.029,29.343-37.664,29.343-69.195
	c0-36.549-20.641-86.323-55.212-133.15c-26.447-35.822-65.305-74.103-95.049-74.103c-2.597,0-4.7,2.104-4.7,4.701v284.763h-56.966
	v-87.23c0-2.598-2.104-4.701-4.7-4.701h-25.935c-2.597,0-4.701,2.104-4.701,4.701v87.23h-26.891V107.58
	c0-2.597-2.104-4.701-4.701-4.701c-35.528,0-82.136,45.983-113.904,89.017c-41.595,56.341-66.43,116.185-66.43,160.081
	c0,38.428,11.9,65.819,36.38,83.732c9.572,7.006,21.098,12.542,34.973,16.78H53.201c-2.597,0-4.701,2.104-4.701,4.701v35.229
	c0,2.597,2.104,4.701,4.701,4.701h493.598c2.596,0,4.701-2.104,4.701-4.701V457.19C551.5,454.592,549.395,452.486,546.799,452.486z
	 M384.034,172.816c47.489,7.6,136.158,124.313,136.158,197.459c0,52.613-26.979,76.442-93.099,82.211h-43.059L384.034,172.816
	L384.034,172.816z M291.734,369.957h16.533v82.529h-16.533V369.957z M79.808,351.977c0-89.129,108.857-231.657,166.231-239.368
	v339.881h-48.775C113.845,446.084,79.808,416.957,79.808,351.977z M542.098,487.719H57.902v-25.827h139.18h53.657h36.293h25.935
	h66.367h47.963h114.802V487.719z"/>
</svg>
