<?xml version="1.0" encoding="utf-8"?>
<!-- Generator: Adobe Illustrator 15.0.0, SVG Export Plug-In . SVG Version: 6.00 Build 0)  -->
<!DOCTYPE svg PUBLIC "-//W3C//DTD SVG 1.1//EN" "http://www.w3.org/Graphics/SVG/1.1/DTD/svg11.dtd">
<svg version="1.1" id="Capa_1" xmlns="http://www.w3.org/2000/svg" xmlns:xlink="http://www.w3.org/1999/xlink" x="0px" y="0px"
	 width="600px" height="600px" viewBox="0 0 600 600" enable-background="new 0 0 600 600" xml:space="preserve">
<g>
	<path fill="#222221" d="M282,235.389h-20c-1.657,0-3,1.343-3,3v30c0,1.657,1.343,3,3,3h20c1.657,0,3-1.343,3-3v-30
		C285,236.732,283.657,235.389,282,235.389z M279,265.389h-14v-24h14V265.389z"/>
	<path fill="#222221" d="M310,235.389h-20c-1.657,0-3,1.343-3,3v30c0,1.657,1.343,3,3,3h20c1.657,0,3-1.343,3-3v-30
		C313,236.732,311.657,235.389,310,235.389z M307,265.389h-14v-24h14V265.389z"/>
	<path fill="#222221" d="M338,235.389h-20c-1.657,0-3,1.343-3,3v30c0,1.657,1.343,3,3,3h20c1.657,0,3-1.343,3-3v-30
		C341,236.732,339.657,235.389,338,235.389z M335,265.389h-14v-24h14V265.389z"/>
	<path fill="#222221" d="M249.917,219.587h16.667c1.657,0,3-1.343,3-3v-16.667c0-1.657-1.343-3-3-3h-16.667c-1.657,0-3,1.343-3,3
		v16.667C246.917,218.244,248.26,219.587,249.917,219.587z M252.917,202.921h10.667v10.667h-10.667V202.921z"/>
	<path fill="#222221" d="M277.75,219.587h16.667c1.657,0,3-1.343,3-3v-16.667c0-1.657-1.343-3-3-3H277.75c-1.657,0-3,1.343-3,3
		v16.667C274.75,218.244,276.094,219.587,277.75,219.587z M280.75,202.921h10.667v10.667H280.75V202.921z"/>
	<path fill="#222221" d="M305.584,219.587h16.666c1.657,0,3-1.343,3-3v-16.667c0-1.657-1.343-3-3-3h-16.666c-1.657,0-3,1.343-3,3
		v16.667C302.584,218.244,303.927,219.587,305.584,219.587z M308.584,202.921h10.666v10.667h-10.666V202.921z"/>
	<path fill="#222221" d="M333.417,219.587h16.666c1.657,0,3-1.343,3-3v-16.667c0-1.657-1.343-3-3-3h-16.666c-1.657,0-3,1.343-3,3
		v16.667C330.417,218.244,331.76,219.587,333.417,219.587z M336.417,202.921h10.666v10.667h-10.666V202.921z"/>
	<path fill="#222221" d="M553.5,318.002h-20.28c-1.657,0-3,1.344-3,3v18.406h-4.48V228.686c0-1.657-1.343-3-3-3H368v-33.098h4.333
		c1.657,0,3-1.343,3-3v-13c0-1.657-1.343-3-3-3h-3.667v-18.333c0-1.657-1.343-3-3-3H303V131.92c0-1.657-1.343-3-3-3
		c-1.657,0-3,1.343-3,3v20.335h-62.667c-1.657,0-3,1.343-3,3v18.333h-3.667c-1.657,0-3,1.343-3,3v13c0,1.657,1.343,3,3,3H232v33.098
		H77.261c-1.657,0-3,1.343-3,3v110.722H69.78v-18.406c0-1.656-1.343-3-3-3H46.5c-1.657,0-3,1.344-3,3v37.078v110
		c0,1.657,1.343,3,3,3H281c1.657,0,3-1.343,3-3v-55.667h32v55.667c0,1.657,1.343,3,3,3h234.5c1.657,0,3-1.343,3-3v-110v-37.078
		C556.5,319.346,555.157,318.002,553.5,318.002z M80.261,285.275H519.74v21.163H80.261V285.275z M237.334,158.255h125.333v15.333
		H237.334V158.255z M230.667,179.588h3.667h131.333h3.667v7H365H235h-4.333V179.588z M235,231.686c1.657,0,3-1.343,3-3v-36.098h124
		v36.098c0,1.657,1.343,3,3,3H519.74v47.589H80.261v-47.589H235z M80.261,312.438H519.74v26.97h-3.799v-18.406c0-1.656-1.343-3-3-3
		h-20.28c-1.657,0-3,1.344-3,3v18.406h-14.28v-18.406c0-1.656-1.343-3-3-3H452.1c-1.657,0-3,1.344-3,3v18.406h-14.279v-18.406
		c0-1.656-1.343-3-3-3h-20.28c-1.657,0-3,1.344-3,3v18.406h-14.28v-18.406c0-1.656-1.343-3-3-3h-20.279c-1.657,0-3,1.344-3,3v18.406
		H353.7v-18.406c0-1.656-1.343-3-3-3h-20.28c-1.657,0-3,1.344-3,3v18.406h-14.279v-18.406c0-1.656-1.343-3-3-3H289.86
		c-1.657,0-3,1.344-3,3v18.406h-14.28v-18.406c0-1.656-1.343-3-3-3H249.3c-1.657,0-3,1.344-3,3v18.406h-14.28v-18.406
		c0-1.656-1.343-3-3-3h-20.28c-1.657,0-3,1.344-3,3v18.406h-14.28v-18.406c0-1.656-1.343-3-3-3h-20.28c-1.657,0-3,1.344-3,3v18.406
		H150.9v-18.406c0-1.656-1.343-3-3-3h-20.28c-1.657,0-3,1.344-3,3v18.406h-14.28v-18.406c0-1.656-1.343-3-3-3H87.06
		c-1.657,0-3,1.344-3,3v18.406h-3.799V312.438z M49.5,324.002h14.28v18.406c0,1.656,1.343,3,3,3h20.28c1.657,0,3-1.344,3-3v-18.406
		h14.28v18.406c0,1.656,1.343,3,3,3h20.28c1.657,0,3-1.344,3-3v-18.406h14.28v18.406c0,1.656,1.343,3,3,3h20.28c1.657,0,3-1.344,3-3
		v-18.406h14.28v18.406c0,1.656,1.343,3,3,3h20.28c1.657,0,3-1.344,3-3v-18.406h14.28v18.406c0,1.656,1.343,3,3,3h20.28
		c1.657,0,3-1.344,3-3v-18.406h14.28v18.406c0,1.656,1.343,3,3,3h20.28c1.657,0,3-1.344,3-3v-18.406h14.281v18.406
		c0,1.656,1.343,3,3,3h20.279c1.657,0,3-1.344,3-3v-18.406h14.28v18.406c0,1.656,1.343,3,3,3h20.28c1.657,0,3-1.344,3-3v-18.406
		h14.279v18.406c0,1.656,1.343,3,3,3h20.28c1.657,0,3-1.344,3-3v-18.406h14.28v18.406c0,1.656,1.343,3,3,3H452.1
		c1.657,0,3-1.344,3-3v-18.406h14.28v18.406c0,1.656,1.343,3,3,3h20.28c1.657,0,3-1.344,3-3v-18.406h14.28v18.406
		c0,1.656,1.343,3,3,3h20.279c1.657,0,3-1.344,3-3v-18.406h14.28v31.078h-501V324.002z M550.5,465.08H322v-55.667
		c0-1.657-1.343-3-3-3h-38c-1.657,0-3,1.343-3,3v55.667H49.5v-104h27.761H522.74H550.5V465.08z"/>
</g>
</svg>
