<?xml version="1.0" encoding="utf-8"?>
<!-- Generator: Adobe Illustrator 15.0.0, SVG Export Plug-In . SVG Version: 6.00 Build 0)  -->
<!DOCTYPE svg PUBLIC "-//W3C//DTD SVG 1.1//EN" "http://www.w3.org/Graphics/SVG/1.1/DTD/svg11.dtd">
<svg version="1.1" id="Capa_1" xmlns="http://www.w3.org/2000/svg" xmlns:xlink="http://www.w3.org/1999/xlink" x="0px" y="0px"
	 width="600px" height="600px" viewBox="0 0 600 600" enable-background="new 0 0 600 600" xml:space="preserve">
<path fill="#222221" d="M550.216,190.125h-15.27c-1.467,0-2.655,1.189-2.655,2.656v12.614h-6.142v-12.614
	c0-1.467-1.188-2.656-2.655-2.656h-15.27c-1.467,0-2.656,1.189-2.656,2.656v12.614h-6.141v-12.614c0-1.467-1.188-2.656-2.655-2.656
	h-15.271c-1.467,0-2.655,1.189-2.655,2.656v12.614h-6.141v-12.614c0-1.467-1.188-2.656-2.656-2.656h-15.27
	c-1.467,0-2.655,1.189-2.655,2.656v12.614h-6.141v-12.614c0-1.467-1.189-2.656-2.656-2.656h-15.27c-1.467,0-2.655,1.189-2.655,2.656
	v57.943h-12.799c-1.468,0-2.656,1.189-2.656,2.656v12.799h-13.614v-12.799c0-1.467-1.188-2.656-2.655-2.656h-15.455
	c-1.467,0-2.655,1.189-2.655,2.656v12.799h-13.615v-12.799c0-1.467-1.188-2.656-2.655-2.656h-15.455
	c-1.467,0-2.655,1.189-2.655,2.656v12.799h-13.614v-12.799c0-1.467-1.188-2.656-2.655-2.656h-15.455
	c-1.467,0-2.655,1.189-2.655,2.656v12.799h-13.615v-12.799c0-1.467-1.188-2.656-2.655-2.656h-15.455
	c-1.467,0-2.655,1.189-2.655,2.656v12.799h-13.614v-12.799c0-1.467-1.188-2.656-2.656-2.656h-15.455
	c-1.466,0-2.655,1.189-2.655,2.656v12.799h-13.615v-12.799c0-1.467-1.189-2.656-2.656-2.656h-15.455
	c-1.466,0-2.656,1.189-2.656,2.656v12.799h-13.614v-12.799c0-1.467-1.189-2.656-2.656-2.656h-12.799v-57.943
	c0-1.467-1.189-2.656-2.655-2.656h-15.27c-1.467,0-2.656,1.189-2.656,2.656v12.614h-6.141v-12.614c0-1.467-1.189-2.656-2.656-2.656
	h-15.27c-1.466,0-2.655,1.189-2.655,2.656v12.614h-6.141v-12.614c0-1.467-1.189-2.656-2.656-2.656h-15.27
	c-1.467,0-2.656,1.189-2.656,2.656v12.614h-6.141v-12.614c0-1.467-1.189-2.656-2.655-2.656h-15.27c-1.466,0-2.655,1.189-2.655,2.656
	v12.614H67.71v-12.614c0-1.467-1.189-2.656-2.656-2.656h-15.27c-1.466,0-2.656,1.189-2.656,2.656V407.22
	c0,1.467,1.189,2.655,2.656,2.655h122.157h256.117h122.157c1.467,0,2.655-1.188,2.655-2.655V192.781
	C552.871,191.314,551.683,190.125,550.216,190.125z M440.673,195.436v12.614c0,1.466,1.188,2.656,2.655,2.656h11.452
	c1.468,0,2.656-1.189,2.656-2.656v-12.614h9.958v12.614c0,1.466,1.188,2.656,2.655,2.656h11.452c1.468,0,2.656-1.189,2.656-2.656
	v-12.614h9.958v12.614c0,1.466,1.188,2.656,2.656,2.656h11.452c1.467,0,2.655-1.189,2.655-2.656v-12.614h9.958v12.614
	c0,1.466,1.189,2.656,2.656,2.656h11.452c1.467,0,2.655-1.189,2.655-2.656v-12.614h9.959v21.761H430.714v-21.761H440.673z
	 M184.74,256.035v12.799c0,1.467,1.189,2.656,2.656,2.656h18.926c1.466,0,2.656-1.189,2.656-2.656v-12.799h10.143v12.799
	c0,1.467,1.189,2.656,2.656,2.656h18.926c1.467,0,2.656-1.189,2.656-2.656v-12.799h10.144v12.799c0,1.467,1.188,2.656,2.655,2.656
	h18.925c1.467,0,2.656-1.189,2.656-2.656v-12.799h10.144v12.799c0,1.467,1.188,2.656,2.656,2.656h18.926
	c1.467,0,2.656-1.189,2.656-2.656v-12.799h10.143v12.799c0,1.467,1.189,2.656,2.656,2.656h18.925c1.468,0,2.656-1.189,2.656-2.656
	v-12.799h10.144v12.799c0,1.467,1.188,2.656,2.655,2.656h18.926c1.468,0,2.656-1.189,2.656-2.656v-12.799h10.144v12.799
	c0,1.467,1.188,2.656,2.655,2.656h18.926c1.467,0,2.655-1.189,2.655-2.656v-12.799h10.144v25.487H174.597v-25.487H184.74z
	 M62.399,195.436v12.614c0,1.466,1.189,2.656,2.655,2.656h11.452c1.467,0,2.656-1.189,2.656-2.656v-12.614h9.958v12.614
	c0,1.466,1.189,2.656,2.656,2.656h11.452c1.466,0,2.655-1.189,2.655-2.656v-12.614h9.958v12.614c0,1.466,1.189,2.656,2.656,2.656
	h11.452c1.467,0,2.656-1.189,2.656-2.656v-12.614h9.958v12.614c0,1.466,1.189,2.656,2.655,2.656h11.452
	c1.466,0,2.655-1.189,2.655-2.656v-12.614h9.959v21.761H52.44v-21.761H62.399z M52.44,222.509h116.846v30.871v151.184H52.44V222.509
	z M174.597,286.833h250.807v117.73H174.597V286.833z M430.714,404.563V253.379v-30.871h116.847v182.055H430.714z"/>
</svg>
