<?xml version="1.0" encoding="utf-8"?>
<!-- Generator: Adobe Illustrator 15.0.0, SVG Export Plug-In . SVG Version: 6.00 Build 0)  -->
<!DOCTYPE svg PUBLIC "-//W3C//DTD SVG 1.1//EN" "http://www.w3.org/Graphics/SVG/1.1/DTD/svg11.dtd">
<svg version="1.1" id="Capa_1" xmlns="http://www.w3.org/2000/svg" xmlns:xlink="http://www.w3.org/1999/xlink" x="0px" y="0px"
	 width="600px" height="600px" viewBox="0 0 600 600" enable-background="new 0 0 600 600" xml:space="preserve">
<path d="M560.5,304.426h-4.653L446.799,168.312c-0.411-0.515-0.959-0.849-1.55-1.01c-0.523-0.448-1.195-0.729-1.938-0.729h-34
	c-1.657,0-3,1.344-3,3v0.121L300.236,302.1L193.628,169.032c-0.256-1.397-1.475-2.458-2.945-2.458h-34
	c-0.945,0-1.778,0.446-2.328,1.13c-0.25,0.166-0.486,0.361-0.684,0.608L44.624,304.426H39.5c-1.657,0-3,1.343-3,3v27v96
	c0,1.657,1.343,3,3,3h21.667c1.657,0,3-1.343,3-3v-93h13.167v93c0,1.657,1.343,3,3,3h10.833c1.657,0,3-1.343,3-3v-93h59.516v93
	c0,1.657,1.343,3,3,3h34c1.657,0,3-1.343,3-3v-93h212.628v93c0,1.657,1.343,3,3,3h34c1.657,0,3-1.343,3-3v-93h59.522v93
	c0,1.657,1.343,3,3,3h10.833c1.657,0,3-1.343,3-3v-93h13.168v93c0,1.657,1.343,3,3,3H560.5c1.657,0,3-1.343,3-3v-96v-27
	C563.5,305.769,562.157,304.426,560.5,304.426z M548.159,304.426h-17.607l-83.76-103.669c-0.145-0.179-0.309-0.331-0.481-0.468
	v-22.991L548.159,304.426z M446.311,274.666l23.843,29.76h-23.843V274.666z M477.841,304.426l-31.042-38.746
	c-0.146-0.183-0.312-0.337-0.488-0.476v-23.096l49.947,62.317H477.841z M503.947,304.426l-56.943-71.047
	c-0.2-0.25-0.439-0.446-0.692-0.613v-23.057l76.526,94.717H503.947z M406.311,234.508l-56.039,69.918h-18.891l74.93-92.74V234.508z
	 M406.311,244.103v22.961l-29.934,37.362h-18.416L406.311,244.103z M406.311,276.658v27.768h-22.246L406.311,276.658z
	 M406.311,202.138l-82.645,102.288H306.06L406.311,179.29V202.138z M193.683,276.064l22.723,28.361h-22.723V276.064z
	 M224.094,304.426l-30.411-37.958v-22.961l48.827,60.919H224.094z M250.199,304.426l-56.516-70.513v-22.818l75.406,93.331H250.199z
	 M276.803,304.426l-83.121-102.878v-22.852l100.728,125.729H276.803z M153.683,233.159c-0.072,0.073-0.149,0.138-0.215,0.22
	l-56.944,71.047H77.633l76.05-94.127V233.159z M153.683,242.704v22.963c-0.004,0.005-0.008,0.008-0.012,0.013l-31.042,38.746
	h-18.416L153.683,242.704z M153.683,275.261v29.165h-23.366L153.683,275.261z M153.683,177.893v22.86
	c-0.001,0.001-0.003,0.003-0.004,0.004L69.919,304.426H52.312L153.683,177.893z M58.167,427.426H42.5v-90h15.667V427.426z
	 M88.167,427.426h-4.833v-90h4.833V427.426z M443.311,331.426c-1.657,0-3,1.343-3,3v93h-28v-93c0-1.657-1.343-3-3-3H190.683
	c-1.657,0-3,1.343-3,3v93h-28v-93c0-1.657-1.343-3-3-3H91.167H80.334H61.167H42.5v-21h114.183c1.657,0,3-1.343,3-3V172.574h28
	v134.852c0,1.657,1.343,3,3,3h218.628c1.657,0,3-1.343,3-3v-38.318c0.592-0.971,0.575-2.169,0-3.11v-29.585
	c0.313-0.748,0.307-1.578,0-2.312v-29.904c0.592-0.971,0.575-2.169,0-3.111v-28.511h28v134.852c0,1.657,1.343,3,3,3H557.5v21
	h-18.666h-19.168h-10.833H443.311z M516.666,427.426h-4.833v-90h4.833V427.426z M557.5,427.426h-15.666v-90H557.5V427.426z"/>
</svg>
