<?xml version="1.0" encoding="utf-8"?>
<!-- Generator: Adobe Illustrator 15.0.0, SVG Export Plug-In . SVG Version: 6.00 Build 0)  -->
<!DOCTYPE svg PUBLIC "-//W3C//DTD SVG 1.1//EN" "http://www.w3.org/Graphics/SVG/1.1/DTD/svg11.dtd">
<svg version="1.1" id="Capa_1" xmlns="http://www.w3.org/2000/svg" xmlns:xlink="http://www.w3.org/1999/xlink" x="0px" y="0px"
	 width="600px" height="600px" viewBox="0 0 600 600" enable-background="new 0 0 600 600" xml:space="preserve">
<path d="M435.832,479.133l-3.973-16.938c-0.281-1.197-1.35-2.045-2.58-2.045h-20.003v-40.568h8.36c0.006,0,0.013,0,0.018,0
	c1.464,0,2.649-1.186,2.649-2.649c0-0.293-0.047-0.573-0.134-0.836l-3.507-16.935c-0.254-1.229-1.337-2.111-2.594-2.111h-19.442
	v-40.569h6.849c0.007,0,0.013,0,0.017,0c1.464,0,2.649-1.187,2.649-2.649c0-0.268-0.038-0.524-0.111-0.768l-3.024-16.931
	c-0.225-1.264-1.324-2.184-2.607-2.184h-8.442c-2.077-35.327-44.248-96.721-69.977-131.118v-44.007c0-0.011-0.003-0.022-0.003-0.034
	c-0.001-0.092-0.017-0.184-0.028-0.277c-0.01-0.088-0.016-0.177-0.035-0.262c-0.003-0.012-0.002-0.024-0.004-0.036l-17.269-73.14
	V49.736c0-1.463-1.186-2.649-2.649-2.649c-1.463,0-2.649,1.186-2.649,2.649v35.341l-17.268,73.14
	c-0.003,0.012-0.002,0.024-0.004,0.036c-0.019,0.086-0.025,0.175-0.035,0.264c-0.011,0.092-0.026,0.183-0.027,0.274
	c0,0.012-0.004,0.023-0.004,0.034v44.006c-25.728,34.396-67.899,95.791-69.976,131.118h-8.442c-1.284,0-2.382,0.92-2.608,2.184
	l-3.077,17.232c-0.138,0.771,0.073,1.564,0.577,2.167c0.503,0.6,1.247,0.948,2.031,0.948h6.848v40.569h-19.443
	c-1.256,0-2.34,0.882-2.595,2.111l-3.566,17.233c-0.162,0.78,0.037,1.592,0.54,2.209c0.502,0.618,1.257,0.978,2.054,0.978h8.36
	v40.568h-20.004c-1.23,0-2.298,0.848-2.58,2.045l-4.042,17.232c-0.185,0.788,0.001,1.617,0.503,2.251
	c0.502,0.635,1.267,1.004,2.076,1.004h9.828v67.581c0,1.464,1.186,2.649,2.649,2.649h241.708c1.463,0,2.648-1.186,2.648-2.649
	v-67.581h9.828c0.006,0,0.013,0,0.018,0c1.464,0,2.649-1.188,2.649-2.649C435.99,479.717,435.934,479.414,435.832,479.133z
	 M299.991,96.917l13.991,59.26h-27.982L299.991,96.917z M285.302,161.475h29.379v39.699h-29.379V161.475z M283.897,206.473h32.19
	c25.343,33.925,66.444,93.756,68.572,127.478H215.324C217.451,300.229,258.554,240.397,283.897,206.473z M203.803,339.249h8.786
	h174.805h8.786l2.132,11.934h-6.334H208.006h-6.333L203.803,339.249z M210.655,356.481h178.674v40.569H210.655V356.481z
	 M188.07,402.349h19.936h183.972h19.935l2.471,11.935h-7.756H193.356H185.6L188.07,402.349z M196.005,419.582h207.973v40.568
	H196.005V419.582z M418.197,547.614H181.787v-64.932h236.409V547.614z M420.846,477.384H179.138h-9.135l2.799-11.935h20.554h213.271
	h20.553l2.8,11.935H420.846z"/>
</svg>
