<?xml version="1.0" encoding="utf-8"?>
<!-- Generator: Adobe Illustrator 15.0.0, SVG Export Plug-In . SVG Version: 6.00 Build 0)  -->
<!DOCTYPE svg PUBLIC "-//W3C//DTD SVG 1.1//EN" "http://www.w3.org/Graphics/SVG/1.1/DTD/svg11.dtd">
<svg version="1.1" id="Capa_1" xmlns="http://www.w3.org/2000/svg" xmlns:xlink="http://www.w3.org/1999/xlink" x="0px" y="0px"
	 width="600px" height="600px" viewBox="0 0 600 600" enable-background="new 0 0 600 600" xml:space="preserve">
<path d="M554,382.5h-73.265c30.218-8.865,51.765-31.514,51.765-58c0-1.656-1.343-3-3-3h-154c-1.657,0-3,1.344-3,3
	c0,26.486,21.547,49.135,51.765,58H313v-229c0-1.657-1.343-3-3-3h-33.5c-1.657,0-3,1.343-3,3v99h-19v-99c0-1.657-1.343-3-3-3H218
	c-1.657,0-3,1.343-3,3v184.602c-10.725-8.813-24.076-14.606-43.009-14.606c-44.073,0-60.404,27.183-78.739,59.005H46
	c-1.657,0-3,1.343-3,3v36v25c0,1.657,1.343,3,3,3s3-1.343,3-3v-22h33.5v22c0,1.657,1.343,3,3,3s3-1.343,3-3v-22h33v22
	c0,1.657,1.343,3,3,3s3-1.343,3-3v-22h33v22c0,1.657,1.343,3,3,3s3-1.343,3-3v-22h33v22c0,1.657,1.343,3,3,3s3-1.343,3-3v-22h33v22
	c0,1.657,1.343,3,3,3s3-1.343,3-3v-22h33v22c0,1.657,1.343,3,3,3s3-1.343,3-3v-22h33v22c0,1.657,1.343,3,3,3s3-1.343,3-3v-22h33v22
	c0,1.657,1.343,3,3,3s3-1.343,3-3v-22h33v22c0,1.657,1.343,3,3,3s3-1.343,3-3v-22h33v22c0,1.657,1.343,3,3,3s3-1.343,3-3v-22h33v22
	c0,1.657,1.343,3,3,3s3-1.343,3-3v-22h33v22c0,1.657,1.343,3,3,3s3-1.343,3-3v-22H551v22c0,1.657,1.343,3,3,3s3-1.343,3-3v-25v-36
	C557,383.843,555.657,382.5,554,382.5z M378.605,327.5h147.791c-2.067,29.489-34.422,53-73.896,53S380.672,356.989,378.605,327.5z
	 M279.5,156.5H307v226h-27.5v-88.333v-14V269.5v-14V156.5z M254.5,382.5v-85.333h19V382.5H254.5z M254.5,283.167h19v8h-19V283.167z
	 M273.5,277.167h-19V272.5h19V277.167z M273.5,258.5v8h-19v-8H273.5z M248.5,156.5v99v14v10.667v14v85.574
	c-2.396-3.324-4.702-6.64-6.95-9.876c-6.529-9.399-12.92-18.587-20.55-26.277V156.5H248.5z M171.991,329.495
	c34.214,0,47.637,19.325,64.631,43.792c2.094,3.015,4.236,6.098,6.463,9.204h-142.9
	C117.524,352.531,132.645,329.495,171.991,329.495z M49,418.5v-30h33.5v30H49z M88.5,418.5v-30h33v30H88.5z M127.5,418.5v-30h33v30
	H127.5z M166.5,418.5v-30h33v30H166.5z M205.5,418.5v-30H218h20.5v30H205.5z M244.5,418.5v-30h7h25h1v30H244.5z M283.5,418.5v-30
	H310h6.5v30H283.5z M322.5,418.5v-30h33v30H322.5z M361.5,418.5v-30h33v30H361.5z M400.5,418.5v-30h33v30H400.5z M439.5,418.5v-30
	h33v30H439.5z M478.5,418.5v-30h33v30H478.5z M517.5,418.5v-30H551v30H517.5z"/>
</svg>
