<?xml version="1.0" encoding="utf-8"?>
<!-- Generator: Adobe Illustrator 15.0.0, SVG Export Plug-In . SVG Version: 6.00 Build 0)  -->
<!DOCTYPE svg PUBLIC "-//W3C//DTD SVG 1.1//EN" "http://www.w3.org/Graphics/SVG/1.1/DTD/svg11.dtd">
<svg version="1.1" id="Capa_1" xmlns="http://www.w3.org/2000/svg" xmlns:xlink="http://www.w3.org/1999/xlink" x="0px" y="0px"
	 width="600px" height="600px" viewBox="0 0 600 600" enable-background="new 0 0 600 600" xml:space="preserve">
<g>
	<path fill="#222221" d="M524.704,488.95H500.29v-94.236h11.755c1.39,0,2.518-1.127,2.518-2.518v-10.851
		c0-1.39-1.128-2.518-2.518-2.518H500.29v-88.811c0-1.498-1.214-2.713-2.713-2.713h-3.617v-42.499c0-1.499-1.214-2.713-2.713-2.713
		h-1.206v-31.95h3.015c1.499,0,2.713-1.214,2.713-2.712v-9.043c0-1.498-1.214-2.712-2.713-2.712h-3.802l-13.221-37.812
		c3.214-0.637,5.644-3.476,5.644-6.873c0-3.324-2.328-6.11-5.439-6.825c0.346-0.901,0.542-1.875,0.542-2.896
		c0-4.487-3.65-8.138-8.138-8.138c-4.488,0-8.139,3.651-8.139,8.138c0,1.021,0.197,1.995,0.542,2.896
		c-3.11,0.715-5.439,3.5-5.439,6.825c0,3.397,2.431,6.236,5.644,6.873l-13.221,37.812h-3.802c-1.498,0-2.713,1.214-2.713,2.712
		v9.043c0,1.498,1.215,2.712,2.713,2.712h3.014v31.95h-1.205c-1.498,0-2.713,1.214-2.713,2.713v42.499h-3.616h-36.365V221.4h2.004
		c1.39,0,2.518-1.127,2.518-2.518V207.43c0-1.391-1.128-2.518-2.518-2.518h-23.913V183.36c0-44.059-35.173-80.053-78.914-81.388
		V90.056c0-1.39-1.128-2.517-2.518-2.517c-1.39,0-2.517,1.127-2.517,2.517v11.917c-43.741,1.335-78.914,37.329-78.914,81.388v21.552
		h-23.913c-1.391,0-2.517,1.127-2.517,2.518v11.453c0,1.391,1.126,2.518,2.517,2.518h2.003v65.904h-36.365h-3.617v-42.499
		c0-1.499-1.214-2.713-2.712-2.713h-1.206v-31.95h3.015c1.498,0,2.712-1.214,2.712-2.712v-9.043c0-1.498-1.214-2.712-2.712-2.712
		h-3.802l-13.222-37.812c3.214-0.637,5.645-3.475,5.645-6.873c0-3.325-2.329-6.11-5.44-6.825c0.345-0.901,0.542-1.875,0.542-2.896
		c0-4.487-3.651-8.138-8.138-8.138c-4.487,0-8.138,3.651-8.138,8.138c0,1.021,0.197,1.995,0.542,2.896
		c-3.111,0.715-5.44,3.5-5.44,6.825c0,3.397,2.431,6.236,5.644,6.873l-13.222,37.812h-3.801c-1.499,0-2.713,1.214-2.713,2.712v9.043
		c0,1.498,1.214,2.712,2.713,2.712h3.014v31.95h-1.206c-1.498,0-2.712,1.214-2.712,2.713v42.499h-3.617
		c-1.498,0-2.713,1.215-2.713,2.713v88.811H87.955c-1.391,0-2.517,1.128-2.517,2.518v10.851c0,1.391,1.126,2.518,2.517,2.518H99.71
		v94.236H75.296c-1.498,0-2.712,1.215-2.712,2.713v18.085c0,1.499,1.214,2.713,2.712,2.713h449.409c1.499,0,2.713-1.214,2.713-2.713
		v-18.085C527.417,490.165,526.203,488.95,524.704,488.95z M223.604,185.878h152.793v18.911H223.604V185.878z M300,106.964
		c41.281,0,74.996,32.917,76.333,73.879H223.668C225.003,139.881,258.719,106.964,300,106.964z M494.865,488.95h-52.446v-94.236
		h52.446V488.95z M163.008,488.95v-94.236h273.986v94.236H163.008z M494.865,378.828h-52.446V292.73h3.617h45.212h3.617V378.828z
		 M468.642,138.557c1.496,0,2.713,1.217,2.713,2.712c0,1.496-1.217,2.713-2.713,2.713s-2.713-1.217-2.713-2.713
		C465.929,139.773,467.146,138.557,468.642,138.557z M462.614,149.407h12.056c0.872,0,1.583,0.71,1.583,1.583
		s-0.711,1.583-1.583,1.583h-2.41h-3.617h-3.617h-2.411c-0.872,0-1.582-0.71-1.582-1.583S461.741,149.407,462.614,149.407z
		 M466.949,157.998h1.692h1.691l13.173,37.677h-29.729L466.949,157.998z M446.94,201.1h3.003c0.004,0,0.008,0.001,0.011,0.001
		c0.004,0,0.008-0.001,0.012-0.001h37.353c0.003,0,0.008,0.001,0.011,0.001c0.004,0,0.008-0.001,0.011-0.001h3.004v3.617h-3.015
		h-37.375h-3.014V201.1z M452.666,210.142h31.95v31.95h-31.95V210.142z M448.748,247.518h1.205h37.375h1.207v39.787h-39.787V247.518
		z M436.993,378.828H163.008V292.73h273.986V378.828z M243.557,287.304L300,257.227l56.442,30.077H243.557z M367.149,287.304
		l-65.964-35.151c-0.74-0.395-1.628-0.395-2.368,0l-65.963,35.151H209.62L300,239.142l90.38,48.162H367.149z M197.174,209.947
		h205.654v6.419h-2.004H199.177h-2.003V209.947z M398.306,221.4v64.423l-97.121-51.755c-0.74-0.395-1.628-0.395-2.368,0
		l-97.123,51.755V221.4H398.306z M131.359,138.557c1.496,0,2.712,1.217,2.712,2.712c0,1.496-1.217,2.713-2.712,2.713
		c-1.496,0-2.713-1.217-2.713-2.713C128.646,139.773,129.863,138.557,131.359,138.557z M125.331,149.407h12.056
		c0.873,0,1.583,0.71,1.583,1.583s-0.71,1.583-1.583,1.583h-2.412h-3.616h0h-3.617h-2.411c-0.873,0-1.583-0.71-1.583-1.583
		S124.458,149.407,125.331,149.407z M129.667,157.998h1.692h0h1.691l13.174,37.677h-29.731L129.667,157.998z M109.657,201.1h3.003
		c0.003,0,0.007,0.001,0.011,0.001s0.007-0.001,0.011-0.001h37.353c0.004,0,0.007,0.001,0.012,0.001c0.003,0,0.007-0.001,0.01-0.001
		h3.004v3.617h-3.014h-37.375h-3.014V201.1z M115.384,210.142h31.95v31.95h-31.95V210.142z M111.466,247.518h1.206h37.375h1.206
		v39.787h-39.787V247.518z M105.136,292.73h3.617h45.212h3.617v86.098h-52.446V292.73z M90.472,389.679v-5.815h419.055v5.815H90.472
		z M105.136,394.714h52.446v94.236h-52.446V394.714z M521.992,507.035H78.009v-12.659h24.415h57.872h279.412h57.871h24.415V507.035z
		"/>
	<path fill="#222221" d="M136.784,213.231h-10.851c-1.498,0-2.712,1.215-2.712,2.713v20.345c0,1.498,1.214,2.713,2.712,2.713h10.851
		c1.498,0,2.713-1.215,2.713-2.713v-20.345C139.497,214.446,138.282,213.231,136.784,213.231z M134.072,233.577h-5.425v-14.92h5.425
		V233.577z"/>
	<path fill="#222221" d="M131.359,255.204c-6.731,0-12.208,5.477-12.208,12.208s5.476,12.207,12.208,12.207
		c6.731,0,12.207-5.476,12.207-12.207S138.09,255.204,131.359,255.204z M131.359,274.193c-3.74,0-6.782-3.042-6.782-6.782
		s3.042-6.782,6.782-6.782s6.782,3.042,6.782,6.782S135.099,274.193,131.359,274.193z"/>
	<path fill="#222221" d="M140.702,330.708h-19.667c-1.498,0-2.712,1.214-2.712,2.713v31.196c0,1.498,1.214,2.713,2.712,2.713h19.667
		c1.498,0,2.713-1.215,2.713-2.713v-31.196C143.415,331.922,142.2,330.708,140.702,330.708z M137.99,361.904h-14.241v-25.771h14.241
		V361.904z"/>
	<path fill="#222221" d="M130.869,407.65c-7.714,0-13.99,6.276-13.99,13.99v27.223c0,1.498,1.214,2.712,2.713,2.712h22.554
		c1.498,0,2.713-1.214,2.713-2.712v-27.223C144.859,413.927,138.583,407.65,130.869,407.65z M139.433,446.15h-17.128v-24.51
		c0-4.723,3.842-8.564,8.564-8.564s8.564,3.842,8.564,8.564V446.15z"/>
	<path fill="#222221" d="M474.067,213.231h-10.851c-1.498,0-2.713,1.215-2.713,2.713v20.345c0,1.498,1.215,2.713,2.713,2.713h10.851
		c1.499,0,2.713-1.215,2.713-2.713v-20.345C476.78,214.446,475.566,213.231,474.067,213.231z M471.355,233.577h-5.426v-14.92h5.426
		V233.577z"/>
	<path fill="#222221" d="M468.642,255.204c-6.731,0-12.208,5.477-12.208,12.208s5.477,12.207,12.208,12.207
		s12.207-5.476,12.207-12.207S475.373,255.204,468.642,255.204z M468.642,274.193c-3.74,0-6.782-3.042-6.782-6.782
		s3.042-6.782,6.782-6.782c3.739,0,6.781,3.042,6.781,6.782S472.381,274.193,468.642,274.193z"/>
	<path fill="#222221" d="M477.986,330.708h-19.667c-1.498,0-2.713,1.214-2.713,2.713v31.196c0,1.498,1.215,2.713,2.713,2.713h19.667
		c1.498,0,2.712-1.215,2.712-2.713v-31.196C480.698,331.922,479.484,330.708,477.986,330.708z M475.273,361.904h-14.241v-25.771
		h14.241V361.904z"/>
	<path fill="#222221" d="M456.874,451.575h22.555c1.499,0,2.713-1.214,2.713-2.712v-27.223c0-7.714-6.276-13.99-13.99-13.99
		c-7.715,0-13.99,6.276-13.99,13.99v27.223C454.161,450.361,455.375,451.575,456.874,451.575z M459.587,421.641
		c0-4.723,3.842-8.564,8.564-8.564s8.564,3.842,8.564,8.564v24.51h-17.129V421.641z"/>
	<path fill="#222221" d="M199.177,367.135h31.348c1.39,0,2.517-1.128,2.517-2.518v-57.42c0-1.391-1.127-2.518-2.517-2.518h-31.348
		c-1.39,0-2.517,1.127-2.517,2.518v57.42C196.66,366.007,197.787,367.135,199.177,367.135z M201.694,309.715h26.313V362.1h-26.313
		V309.715z"/>
	<path fill="#222221" d="M284.326,367.135h31.348c1.391,0,2.518-1.128,2.518-2.518v-57.42c0-1.391-1.127-2.518-2.518-2.518h-31.348
		c-1.39,0-2.517,1.127-2.517,2.518v57.42C281.809,366.007,282.936,367.135,284.326,367.135z M286.844,309.715h26.313V362.1h-26.313
		V309.715z"/>
	<path fill="#222221" d="M369.476,367.135h31.348c1.39,0,2.518-1.128,2.518-2.518v-57.42c0-1.391-1.128-2.518-2.518-2.518h-31.348
		c-1.39,0-2.518,1.127-2.518,2.518v57.42C366.958,366.007,368.086,367.135,369.476,367.135z M371.993,309.715h26.312V362.1h-26.312
		V309.715z"/>
	<path fill="#222221" d="M230.525,408.359h-31.348c-1.39,0-2.517,1.127-2.517,2.518v57.419c0,1.39,1.127,2.518,2.517,2.518h31.348
		c1.39,0,2.517-1.128,2.517-2.518v-57.419C233.042,409.486,231.915,408.359,230.525,408.359z M228.008,465.778h-26.313v-52.384
		h26.313V465.778z"/>
	<path fill="#222221" d="M315.674,408.359h-31.348c-1.39,0-2.517,1.127-2.517,2.518v57.419c0,1.39,1.127,2.518,2.517,2.518h31.348
		c1.391,0,2.518-1.128,2.518-2.518v-57.419C318.192,409.486,317.065,408.359,315.674,408.359z M313.156,465.778h-26.313v-52.384
		h26.313V465.778z"/>
	<path fill="#222221" d="M400.823,408.359h-31.348c-1.39,0-2.518,1.127-2.518,2.518v57.419c0,1.39,1.128,2.518,2.518,2.518h31.348
		c1.39,0,2.518-1.128,2.518-2.518v-57.419C403.341,409.486,402.213,408.359,400.823,408.359z M398.306,465.778h-26.312v-52.384
		h26.312V465.778z"/>
</g>
</svg>
