<?xml version="1.0" encoding="utf-8"?>
<!-- Generator: Adobe Illustrator 15.0.0, SVG Export Plug-In . SVG Version: 6.00 Build 0)  -->
<!DOCTYPE svg PUBLIC "-//W3C//DTD SVG 1.1//EN" "http://www.w3.org/Graphics/SVG/1.1/DTD/svg11.dtd">
<svg version="1.1" id="Capa_1" xmlns="http://www.w3.org/2000/svg" xmlns:xlink="http://www.w3.org/1999/xlink" x="0px" y="0px"
	 width="600px" height="600px" viewBox="0 0 600 600" enable-background="new 0 0 600 600" xml:space="preserve">
<g>
	<path d="M381.75,529.553h-27.883L340.078,206.09h0.93c6.207,0,11.258-5.05,11.258-11.257s-5.051-11.258-11.258-11.258h-0.662
		V162.96c0-1.657-1.344-3-3-3h-6.359v-20.615c0-1.657-1.342-3-3-3h-4.342v-39.75h2.779c1.658,0,3-1.343,3-3
		c0-15.212-11.604-27.765-26.424-29.272V50.106c0-1.657-1.344-3-3-3c-1.657,0-3,1.343-3,3v14.217
		c-14.821,1.508-26.424,14.061-26.424,29.272c0,1.657,1.343,3,3,3h2.78v39.75h-4.342c-1.657,0-3,1.343-3,3v20.615h-6.359
		c-1.657,0-3,1.343-3,3v20.614h-0.662c-6.208,0-11.258,5.05-11.258,11.258s5.05,11.257,11.258,11.257h0.929l-13.788,323.463H218.25
		c-1.657,0-3,1.344-3,3v17.342c0,1.656,1.343,3,3,3h163.5c1.658,0,3-1.344,3-3v-17.342
		C384.75,530.896,383.408,529.553,381.75,529.553z M257.805,396.641h84.391l2.879,67.523h-90.148L257.805,396.641z M260.939,323.117
		h78.122l2.879,67.523H258.06L260.939,323.117z M264.073,249.593h71.854l2.879,67.524h-77.61L264.073,249.593z M300,70.171
		c11.9,0,21.756,8.919,23.232,20.424h-2.588h-41.289h-2.589C278.244,79.091,288.1,70.171,300,70.171z M282.356,96.596h35.289v39.75
		h-35.289V96.596z M275.014,142.346h4.342h41.289h4.342v17.615h-49.973V142.346z M265.655,165.96h6.359h55.973h6.359v17.614h-68.691
		V165.96z M253.735,194.833c0-2.899,2.358-5.258,5.258-5.258h3.662h74.691h3.662c2.898,0,5.258,2.358,5.258,5.258
		c0,2.899-2.359,5.257-5.258,5.257h-4.061h-73.896h-4.059C256.094,200.09,253.735,197.731,253.735,194.833z M334.073,206.09
		l1.598,37.503h-71.342l1.599-37.503H334.073z M254.671,470.164h90.66l2.531,59.389h-95.722L254.671,470.164z M378.75,546.895
		h-157.5v-11.342h27.759h101.984c0.006,0,0.014,0.002,0.02,0h27.738V546.895z"/>
	<path d="M300,104.57c-6.562,0-11.901,5.339-11.901,11.901s5.339,11.901,11.901,11.901c6.562,0,11.9-5.339,11.9-11.901
		S306.563,104.57,300,104.57z M300,122.372c-3.254,0-5.901-2.647-5.901-5.901s2.647-5.901,5.901-5.901s5.9,2.647,5.9,5.901
		S303.254,122.372,300,122.372z"/>
</g>
</svg>
