<?xml version="1.0" encoding="utf-8"?>
<!-- Generator: Adobe Illustrator 15.0.0, SVG Export Plug-In . SVG Version: 6.00 Build 0)  -->
<!DOCTYPE svg PUBLIC "-//W3C//DTD SVG 1.1//EN" "http://www.w3.org/Graphics/SVG/1.1/DTD/svg11.dtd">
<svg version="1.1" id="Capa_1" xmlns="http://www.w3.org/2000/svg" xmlns:xlink="http://www.w3.org/1999/xlink" x="0px" y="0px"
	 width="600px" height="600px" viewBox="0 0 600 600" enable-background="new 0 0 600 600" xml:space="preserve">
<path d="M507.62,287.31v-24.798v-0.965v-4.308c0-1.707-1.384-3.09-3.091-3.09H460.08v-37.61c0-1.708-1.385-3.09-3.092-3.09h-10.055
	v-26.277c0-1.707-1.382-3.089-3.09-3.089h-6.959c-1.617-16.767-16.254-33.522-40.73-46.4
	c-26.488-13.933-60.638-21.607-96.156-21.607c-35.519,0-69.668,7.674-96.156,21.607c-24.479,12.877-39.117,29.632-40.729,46.398
	h-6.959c-1.708,0-3.092,1.385-3.092,3.091v26.275h-10.054c-1.706,0-3.09,1.384-3.09,3.092v37.608H95.47
	c-1.708,0-3.092,1.384-3.092,3.091v4.309l0,0v25.763v5.992v3.091v24.332v124.043v36.062c0,1.709,1.384,3.094,3.09,3.094h409.062
	c1.708,0,3.092-1.385,3.092-3.094v-36.062V318.11v-24.807v-5.993H507.62z M443.846,219.631H453.9v32.524h-0.001l-62.727-32.524
	H443.846z M444.312,254.149H155.684l144.315-74.829L444.312,254.149z M440.751,190.265v23.183h-61.505l-44.712-23.183h99.413
	H440.751z M299.999,122.26c72.387,0,127.086,32.012,130.672,61.821H322.613l-21.192-10.986c-0.892-0.463-1.953-0.463-2.845,0
	l-21.189,10.986H169.328C172.912,154.272,227.612,122.26,299.999,122.26z M159.246,190.265h6.805h99.412l-44.712,23.183h-61.504
	V190.265z M146.1,219.631h10.053h52.674L146.1,252.156V219.631z M98.558,262.512v-0.965v-1.217h44.449h313.981
	c0.008,0.001,0.017,0,0.021,0h44.429v1.217v0.965v24.798v2.901H463.52h-32.6h-41.012H357.31h-41.012H283.7h-41.011H210.09h-41.011
	h-32.598H98.56v-2.901h-0.001V262.512z M460.428,296.393v145.285h-26.416V296.393H460.428z M427.83,296.393v145.285H393V296.393
	H427.83z M386.819,296.393v145.285h-26.417V296.393H386.819z M354.22,296.393v145.285h-34.83V296.393H354.22z M313.206,296.393
	v145.285h-26.416V296.393H313.206z M280.609,296.393v145.285h-34.828V296.393H280.609z M239.597,296.393v145.285h-26.416V296.393
	H239.597z M206.998,296.393v145.285h-34.83V296.393H206.998z M165.987,296.393v145.285h-26.416V296.393H165.987z M133.389,296.393
	v145.285H98.558V296.393H133.389z M501.439,477.74H98.558v-29.88h37.921h32.597h41.012h32.599h41.011h32.597h41.014h32.598h41.011
	h32.6h37.921V477.74z M501.439,441.678h-34.828V296.393h34.828V441.678z"/>
</svg>
