<?xml version="1.0" encoding="utf-8"?>
<!-- Generator: Adobe Illustrator 15.0.0, SVG Export Plug-In . SVG Version: 6.00 Build 0)  -->
<!DOCTYPE svg PUBLIC "-//W3C//DTD SVG 1.1//EN" "http://www.w3.org/Graphics/SVG/1.1/DTD/svg11.dtd">
<svg version="1.1" id="Capa_1" xmlns="http://www.w3.org/2000/svg" xmlns:xlink="http://www.w3.org/1999/xlink" x="0px" y="0px"
	 width="600px" height="600px" viewBox="0 0 600 600" enable-background="new 0 0 600 600" xml:space="preserve">
<g>
	<path d="M389.715,347.455v-41.732c5.144-0.251,9.255-4.503,9.255-9.708c0-5.366-4.365-9.731-9.733-9.731h-7.796v-27.15
		c4.675-0.708,8.274-4.741,8.274-9.61c0-4.812-3.514-8.808-8.107-9.585l-16.137-28.618v-31.142c0-1.458-1.183-2.64-2.641-2.64
		h-16.41l-43.78-77.642V74.676c0-1.458-1.183-2.64-2.64-2.64c-1.458,0-2.64,1.182-2.64,2.64v25.219l-43.782,77.642h-16.409
		c-1.458,0-2.64,1.183-2.64,2.64v31.142l-16.138,28.618c-4.593,0.777-8.107,4.773-8.107,9.585c0,4.869,3.599,8.903,8.274,9.61v27.15
		h-7.796c-5.366,0-9.732,4.365-9.732,9.731c0,5.206,4.11,9.457,9.254,9.708v41.732c-5.144,0.252-9.254,4.503-9.254,9.707
		c0,5.205,4.11,9.456,9.254,9.708v158.454c0,1.458,1.182,2.64,2.64,2.64h174.149c1.458,0,2.641-1.182,2.641-2.64V366.87
		c5.144-0.252,9.255-4.503,9.255-9.708S394.859,347.706,389.715,347.455z M239.469,213.309c0.223-0.395,0.34-0.842,0.34-1.297
		v-29.194h15.312c0.953,0,1.832-0.513,2.299-1.343l42.58-75.51l42.58,75.51c0.47,0.83,1.348,1.343,2.3,1.343h15.312v29.194
		c0,0.455,0.117,0.902,0.341,1.297l14.932,26.482H224.536L239.469,213.309z M215.565,249.522c0-2.455,1.997-4.452,4.452-4.452
		h159.967c2.454,0,4.451,1.997,4.451,4.452c0,2.455-1.997,4.452-4.451,4.452h-1.183H221.199h-1.182
		C217.562,253.974,215.565,251.977,215.565,249.522z M376.161,259.254v27.029H223.839v-27.029H376.161z M206.311,296.014
		c0-2.454,1.997-4.451,4.452-4.451h10.436h157.602h10.436c2.456,0,4.453,1.997,4.453,4.451c0,2.456-1.997,4.453-4.453,4.453h-2.162
		H212.925h-2.162C208.308,300.467,206.311,298.47,206.311,296.014z M384.435,305.746v41.685h-168.87v-41.685H384.435z
		 M384.435,522.685h-168.87v-155.79h168.87V522.685z M389.237,361.614h-2.162H212.925h-2.162c-2.455,0-4.452-1.997-4.452-4.452
		c0-2.454,1.997-4.451,4.452-4.451h2.162h174.149h2.162c2.456,0,4.453,1.997,4.453,4.451
		C393.69,359.617,391.693,361.614,389.237,361.614z"/>
	<path d="M234.468,420.008h19.7c1.458,0,2.64-1.182,2.64-2.641v-33.096c0-1.458-1.182-2.64-2.64-2.64h-19.7
		c-1.458,0-2.64,1.182-2.64,2.64v33.096C231.827,418.826,233.01,420.008,234.468,420.008z M237.107,386.911h14.42v27.816h-14.42
		V386.911z"/>
	<path d="M290.15,420.008h19.7c1.458,0,2.641-1.182,2.641-2.641v-33.096c0-1.458-1.183-2.64-2.641-2.64h-19.7
		c-1.458,0-2.64,1.182-2.64,2.64v33.096C287.51,418.826,288.692,420.008,290.15,420.008z M292.79,386.911h14.42v27.816h-14.42
		V386.911z"/>
	<path d="M345.831,420.008h19.699c1.458,0,2.641-1.182,2.641-2.641v-33.096c0-1.458-1.183-2.64-2.641-2.64h-19.699
		c-1.459,0-2.64,1.182-2.64,2.64v33.096C343.192,418.826,344.372,420.008,345.831,420.008z M348.471,386.911h14.42v27.816h-14.42
		V386.911z"/>
	<path d="M226.603,341.331h16.586c1.458,0,2.64-1.182,2.64-2.64v-15.912c0-6.029-4.904-10.934-10.933-10.934
		s-10.933,4.904-10.933,10.934v15.912C223.963,340.149,225.145,341.331,226.603,341.331z M229.243,322.779
		c0-3.117,2.536-5.653,5.653-5.653c3.117,0,5.653,2.536,5.653,5.653v13.272h-11.306V322.779z"/>
	<path d="M259.155,341.331h16.586c1.458,0,2.64-1.182,2.64-2.64v-15.912c0-6.029-4.904-10.934-10.933-10.934
		s-10.933,4.904-10.933,10.934v15.912C256.515,340.149,257.697,341.331,259.155,341.331z M261.795,322.779
		c0-3.117,2.536-5.653,5.653-5.653c3.117,0,5.653,2.536,5.653,5.653v13.272h-11.306V322.779z"/>
	<path d="M291.707,341.331h16.586c1.459,0,2.64-1.182,2.64-2.64v-15.912c0-6.029-4.905-10.934-10.933-10.934
		c-6.028,0-10.933,4.904-10.933,10.934v15.912C289.067,340.149,290.249,341.331,291.707,341.331z M294.347,322.779
		c0-3.117,2.536-5.653,5.653-5.653c3.119,0,5.653,2.536,5.653,5.653v13.272h-11.306V322.779z"/>
	<path d="M324.258,341.331h16.587c1.458,0,2.64-1.182,2.64-2.64v-15.912c0-6.029-4.904-10.934-10.933-10.934
		s-10.934,4.904-10.934,10.934v15.912C321.618,340.149,322.801,341.331,324.258,341.331z M326.898,322.779
		c0-3.117,2.537-5.653,5.654-5.653c3.116,0,5.653,2.536,5.653,5.653v13.272h-11.308V322.779z"/>
	<path d="M356.81,341.331h16.586c1.459,0,2.64-1.182,2.64-2.64v-15.912c0-6.029-4.903-10.934-10.933-10.934
		c-6.027,0-10.933,4.904-10.933,10.934v15.912C354.17,340.149,355.353,341.331,356.81,341.331z M359.45,322.779
		c0-3.117,2.536-5.653,5.652-5.653c3.118,0,5.653,2.536,5.653,5.653v13.272H359.45V322.779z"/>
	<path d="M240.345,283.682h11.089c1.458,0,2.64-1.182,2.64-2.64v-15.235c0-1.458-1.182-2.64-2.64-2.64h-11.089
		c-1.458,0-2.64,1.182-2.64,2.64v15.235C237.705,282.5,238.887,283.682,240.345,283.682z M242.986,268.447h5.809v9.955h-5.809
		V268.447z"/>
	<path d="M267.4,283.682h11.089c1.458,0,2.64-1.182,2.64-2.64v-15.235c0-1.458-1.182-2.64-2.64-2.64H267.4
		c-1.458,0-2.64,1.182-2.64,2.64v15.235C264.76,282.5,265.943,283.682,267.4,283.682z M270.04,268.447h5.809v9.955h-5.809V268.447z"
		/>
	<path d="M294.455,283.682h11.09c1.457,0,2.64-1.182,2.64-2.64v-15.235c0-1.458-1.183-2.64-2.64-2.64h-11.09
		c-1.458,0-2.64,1.182-2.64,2.64v15.235C291.815,282.5,292.997,283.682,294.455,283.682z M297.095,268.447h5.81v9.955h-5.81V268.447
		z"/>
	<path d="M321.51,283.682h11.089c1.459,0,2.64-1.182,2.64-2.64v-15.235c0-1.458-1.181-2.64-2.64-2.64H321.51
		c-1.458,0-2.641,1.182-2.641,2.64v15.235C318.869,282.5,320.052,283.682,321.51,283.682z M324.15,268.447h5.81v9.955h-5.81V268.447
		z"/>
	<path d="M348.566,283.682h11.089c1.458,0,2.64-1.182,2.64-2.64v-15.235c0-1.458-1.182-2.64-2.64-2.64h-11.089
		c-1.459,0-2.64,1.182-2.64,2.64v15.235C345.926,282.5,347.107,283.682,348.566,283.682z M351.205,268.447h5.81v9.955h-5.81V268.447
		z"/>
</g>
</svg>
