<?xml version="1.0" encoding="utf-8"?>
<!-- Generator: Adobe Illustrator 15.0.0, SVG Export Plug-In . SVG Version: 6.00 Build 0)  -->
<!DOCTYPE svg PUBLIC "-//W3C//DTD SVG 1.1//EN" "http://www.w3.org/Graphics/SVG/1.1/DTD/svg11.dtd">
<svg version="1.1" id="Capa_1" xmlns="http://www.w3.org/2000/svg" xmlns:xlink="http://www.w3.org/1999/xlink" x="0px" y="0px"
	 width="600px" height="600px" viewBox="0 0 600 600" enable-background="new 0 0 600 600" xml:space="preserve">
<path d="M527.235,467.41h-47.674V259.915c0-1.878-1.521-3.398-3.398-3.398h-8.34v-17.967c7.588-0.934,26.291-5.293,40.739-25.689
	c0.696-0.982,0.82-2.259,0.327-3.357c-0.493-1.098-1.532-1.853-2.728-1.986c-0.48-0.052-46.884-5.487-65.37-31.784
	c0.032-0.19,0.059-0.384,0.059-0.583v-29.393c7.348-2.252,17.495-7.404,25.858-19.21c0.695-0.982,0.819-2.261,0.326-3.358
	c-0.494-1.098-1.532-1.853-2.729-1.986c-0.378-0.042-36.733-4.268-51.41-24.782c0.009-0.107,0.03-0.207,0.03-0.313V81.19
	c0-1.876-1.521-3.398-3.398-3.398c-1.877,0-3.4,1.522-3.4,3.398v11.517H194.789V81.19c0-1.876-1.522-3.398-3.4-3.398
	c-1.876,0-3.398,1.522-3.398,3.398v13.898c-14.001,21.614-51.909,26.072-52.296,26.113c-1.196,0.133-2.235,0.889-2.727,1.987
	c-0.495,1.098-0.37,2.375,0.325,3.355c8.792,12.412,19.559,17.472,26.968,19.537v28.079c-17.707,27.65-65.931,33.301-66.421,33.354
	c-1.197,0.132-2.234,0.888-2.727,1.986c-0.493,1.098-0.37,2.375,0.326,3.357c14.448,20.398,33.153,24.757,40.742,25.689v17.967
	h-8.341c-1.876,0-3.398,1.522-3.398,3.4V467.41H72.766c-1.878,0-3.4,1.521-3.4,3.398v48c0,1.879,1.522,3.399,3.4,3.399h454.468
	c1.876,0,3.399-1.521,3.399-3.399v-48C530.634,468.932,529.111,467.41,527.235,467.41z M260.508,467.41v-75.742
	c0-21.775,17.717-39.492,39.493-39.492c21.774,0,39.491,17.717,39.491,39.492v75.742H260.508z M346.291,451.74h126.472v15.67
	H346.291V451.74z M142.365,127.041c11.874-2.208,38.358-9.05,50.877-27.534h213.514c12.521,18.484,39.003,25.327,50.877,27.534
	c-11.956,13.342-25.94,13.66-26.662,13.667H169.033C168.385,140.703,154.355,140.422,142.365,127.041z M430.98,147.507h3.071v24.244
	H167.06v-24.244h1.96H430.98z M100.463,213.399c14.006-2.446,49.087-10.799,65.062-34.852h268.952
	c15.978,24.057,51.065,32.409,65.069,34.852c-15.539,18.258-34.284,18.6-35.134,18.605H135.579
	C135.373,232.006,116.151,231.776,100.463,213.399z M138.977,238.804h322.045v17.712H138.977V238.804z M135.579,263.314h328.842
	h8.34v181.627h-126.47v-53.273c0-25.524-20.767-46.291-46.291-46.291c-25.523,0-46.29,20.767-46.29,46.291v53.273H127.239V263.314
	H135.579z M127.238,451.74h126.471v15.67H127.238V451.74z M523.835,515.41H76.165v-41.202h47.673h133.271h85.784h133.27h47.673
	V515.41z"/>
</svg>
