<?xml version="1.0" encoding="utf-8"?>
<!-- Generator: Adobe Illustrator 15.0.0, SVG Export Plug-In . SVG Version: 6.00 Build 0)  -->
<!DOCTYPE svg PUBLIC "-//W3C//DTD SVG 1.1//EN" "http://www.w3.org/Graphics/SVG/1.1/DTD/svg11.dtd">
<svg version="1.1" id="Capa_1" xmlns="http://www.w3.org/2000/svg" xmlns:xlink="http://www.w3.org/1999/xlink" x="0px" y="0px"
	 width="600px" height="600px" viewBox="0 0 600 600" enable-background="new 0 0 600 600" xml:space="preserve">
<g>
	<path d="M114.446,238.904c-21.925,0-39.762,17.837-39.762,39.762V412.41c0,0.801,0.03,1.643,0.097,2.645
		c0.125,1.901,1.703,3.38,3.607,3.38h72.117c1.905,0,3.481-1.479,3.607-3.38c0.066-1.002,0.097-1.844,0.097-2.645V278.666
		C154.207,256.74,136.37,238.904,114.446,238.904z M146.978,411.205H81.913V278.666c0-17.939,14.593-32.532,32.532-32.532
		c17.938,0,32.532,14.593,32.532,32.532V411.205z"/>
	<path d="M207.223,238.904c-21.925,0-39.762,17.837-39.762,39.762V412.41c0,0.801,0.029,1.643,0.097,2.645
		c0.125,1.901,1.703,3.38,3.607,3.38h72.116c1.905,0,3.482-1.479,3.608-3.38c0.066-1.002,0.096-1.844,0.096-2.645V278.666
		C246.985,256.74,229.148,238.904,207.223,238.904z M239.755,411.205h-65.064V278.666c0-17.939,14.593-32.532,32.532-32.532
		c17.938,0,32.532,14.593,32.532,32.532V411.205z"/>
	<path d="M300,238.904c-21.925,0-39.762,17.837-39.762,39.762V412.41c0,0.801,0.029,1.643,0.097,2.645
		c0.125,1.901,1.703,3.38,3.606,3.38h72.116c1.903,0,3.48-1.476,3.606-3.376c0.067-1,0.097-1.842,0.097-2.648V278.666
		C339.762,256.74,321.925,238.904,300,238.904z M332.532,411.205h-65.064V278.666c0-17.939,14.593-32.532,32.532-32.532
		c17.938,0,32.532,14.593,32.532,32.532V411.205z"/>
	<path d="M392.778,238.904c-21.925,0-39.762,17.837-39.762,39.762V412.41c0,0.807,0.029,1.648,0.097,2.648
		c0.126,1.9,1.702,3.376,3.606,3.376h72.116c1.903,0,3.48-1.476,3.606-3.376c0.067-1,0.098-1.842,0.098-2.648V278.666
		C432.539,256.74,414.702,238.904,392.778,238.904z M425.31,411.205h-65.064V278.666c0-17.939,14.593-32.532,32.532-32.532
		c17.938,0,32.532,14.593,32.532,32.532V411.205z"/>
	<path d="M485.555,238.904c-21.925,0-39.762,17.837-39.762,39.762V412.41c0,0.807,0.029,1.648,0.097,2.648
		c0.126,1.9,1.702,3.376,3.606,3.376h72.116c1.903,0,3.48-1.476,3.606-3.376c0.066-1,0.098-1.842,0.098-2.648V278.666
		C525.317,256.74,507.48,238.904,485.555,238.904z M518.087,411.205h-65.064V278.666c0-17.939,14.593-32.532,32.532-32.532
		c17.938,0,32.532,14.593,32.532,32.532V411.205z"/>
	<path d="M114.446,141.91c-21.925,0-39.762,17.837-39.762,39.761v37.188c0,0.801,0.03,1.642,0.097,2.646
		c0.125,1.9,1.703,3.379,3.607,3.379h72.117c1.905,0,3.481-1.479,3.607-3.379c0.066-1.003,0.097-1.845,0.097-2.646v-37.188
		C154.207,159.746,136.37,141.91,114.446,141.91z M146.978,217.655H81.913v-35.983c0-17.938,14.593-32.532,32.532-32.532
		c17.938,0,32.532,14.594,32.532,32.532V217.655z"/>
	<path d="M207.223,141.91c-21.925,0-39.762,17.837-39.762,39.761v37.188c0,0.801,0.029,1.642,0.097,2.646
		c0.125,1.9,1.703,3.379,3.607,3.379h72.116c1.905,0,3.482-1.479,3.608-3.379c0.066-1.003,0.096-1.845,0.096-2.646v-37.188
		C246.985,159.746,229.148,141.91,207.223,141.91z M239.755,217.655h-65.064v-35.983c0-17.938,14.593-32.532,32.532-32.532
		c17.938,0,32.532,14.594,32.532,32.532V217.655z"/>
	<path d="M300,141.91c-21.925,0-39.762,17.837-39.762,39.761v37.188c0,0.801,0.029,1.642,0.097,2.646
		c0.125,1.9,1.703,3.379,3.606,3.379h72.116c1.903,0,3.48-1.476,3.606-3.375c0.067-1.001,0.097-1.842,0.097-2.649v-37.188
		C339.762,159.746,321.925,141.91,300,141.91z M332.532,217.655h-65.064v-35.983c0-17.938,14.593-32.532,32.532-32.532
		c17.938,0,32.532,14.594,32.532,32.532V217.655z"/>
	<path d="M392.778,141.91c-21.925,0-39.762,17.837-39.762,39.761v37.188c0,0.806,0.029,1.648,0.097,2.649
		c0.126,1.899,1.702,3.375,3.606,3.375h72.116c1.903,0,3.48-1.476,3.606-3.375c0.067-1.001,0.098-1.842,0.098-2.649v-37.188
		C432.539,159.746,414.702,141.91,392.778,141.91z M425.31,217.655h-65.064v-35.983c0-17.938,14.593-32.532,32.532-32.532
		c17.938,0,32.532,14.594,32.532,32.532V217.655z"/>
	<path d="M485.555,141.91c-21.925,0-39.762,17.837-39.762,39.761v37.188c0,0.806,0.029,1.648,0.097,2.649
		c0.126,1.899,1.702,3.375,3.606,3.375h72.116c1.903,0,3.48-1.476,3.606-3.375c0.066-1.001,0.098-1.842,0.098-2.649v-37.188
		C525.317,159.746,507.48,141.91,485.555,141.91z M518.087,217.655h-65.064v-35.983c0-17.938,14.593-32.532,32.532-32.532
		c17.938,0,32.532,14.594,32.532,32.532V217.655z"/>
	<path d="M566.886,433.704h-19.278V126.441c0-1.997-1.619-3.615-3.615-3.615H56.008c-1.997,0-3.615,1.618-3.615,3.615v307.263
		H33.115c-1.997,0-3.615,1.618-3.615,3.614v36.24c0,1.997,1.618,3.614,3.615,3.614h533.771c1.995,0,3.614-1.617,3.614-3.614v-36.24
		C570.5,435.32,568.881,433.704,566.886,433.704z M59.623,130.056h480.755v303.648H59.623V130.056z M563.271,469.943H36.73v-29.01
		h19.278h487.984h19.278V469.943z"/>
</g>
</svg>
