<?xml version="1.0" encoding="utf-8"?>
<!-- Generator: Adobe Illustrator 15.0.0, SVG Export Plug-In . SVG Version: 6.00 Build 0)  -->
<!DOCTYPE svg PUBLIC "-//W3C//DTD SVG 1.1//EN" "http://www.w3.org/Graphics/SVG/1.1/DTD/svg11.dtd">
<svg version="1.1" id="Capa_1" xmlns="http://www.w3.org/2000/svg" xmlns:xlink="http://www.w3.org/1999/xlink" x="0px" y="0px"
	 width="600px" height="600px" viewBox="0 0 600 600" enable-background="new 0 0 600 600" xml:space="preserve">
<path d="M544.152,289.964l-2.218-11.304c-4.191-21.375-25.896-39.284-62.769-51.791c-30.996-10.514-71.285-16.544-110.539-16.544
	c-20.224,0-39.31,1.646-55.195,4.761l-13.43,2.634l-13.435-2.634c-15.884-3.114-34.97-4.761-55.194-4.761
	c-39.254,0-79.544,6.03-110.537,16.544c-36.873,12.506-58.579,30.417-62.771,51.792l-2.216,11.302
	c-0.329,1.674,0.766,3.304,2.443,3.634l5.305,1.041l39.681,35.93c-1.233,0.41-2.124,1.571-2.124,2.939v13.966h-8.025
	c-1.707,0-3.095,1.387-3.095,3.095v36.008c0,1.708,1.389,3.098,3.095,3.098h407.746c1.707,0,3.096-1.39,3.096-3.098v-36.005
	c0-1.708-1.389-3.095-3.096-3.095h-8.023v-13.969c0-0.599-0.18-1.187-0.509-1.686l40.238-36.433l9.135-1.792
	c0.811-0.16,1.511-0.625,1.973-1.31C544.145,291.608,544.311,290.784,544.152,289.964z M484.67,330.413H353.966L520.8,297.698
	L484.67,330.413z M343.329,347.475v-10.871h143.324v10.871H343.329z M497.775,353.667v29.817H343.329v-29.817H497.775z
	 M271.983,336.604v46.881h-15.122v-46.881H271.983z M250.668,336.604v10.874H107.343v-10.874H250.668z M246.031,330.413H112.328
	l-36.96-33.466L246.031,330.413z M250.668,353.667v29.817H96.223v-29.817H250.668z M318.322,330.413h-36.645L300,236.967
	L318.322,330.413z M266.279,322.541c0.128-0.006,0.255-0.022,0.383-0.045l0.17-0.036c0.125-0.031,0.248-0.069,0.379-0.12
	l0.149-0.059c0.163-0.075,0.323-0.156,0.553-0.323c0.133-0.097,0.265-0.2,0.378-0.314c0.042-0.042,0.08-0.089,0.131-0.153
	c0.086-0.098,0.172-0.2,0.256-0.323c0.037-0.053,0.067-0.111,0.135-0.242c0.052-0.089,0.103-0.181,0.149-0.293
	c0.074-0.184,0.134-0.379,0.176-0.579l19.273-98.292l7.954,1.559l-20.894,106.554L62.519,288.117l1.024-5.225l201.963,39.604
	c0.196,0.036,0.397,0.056,0.593,0.056L266.279,322.541z M64.874,276.843c11.503-39.186,94.104-60.323,166.498-60.323
	c18.5,0,36.101,1.408,50.959,4.073l-18.674,95.229L64.874,276.843z M315.823,336.604v46.881h-37.647v-46.881H315.823z
	 M336.341,315.821l-18.674-95.229c14.858-2.665,32.46-4.073,50.959-4.073c72.394,0,154.993,21.137,166.496,60.323L336.341,315.821z
	 M332.551,322.231c0.069,0.036,0.136,0.069,0.211,0.098c0.12,0.047,0.241,0.083,0.377,0.119l0.165,0.042
	c0.153,0.031,0.312,0.045,0.446,0.051l0.145,0.011c0.198,0,0.398-0.02,0.599-0.059l201.961-39.601l1.022,5.224l-212.949,41.757
	l-20.895-106.554l7.952-1.559l19.273,98.282c0.034,0.189,0.092,0.379,0.18,0.596l0.075,0.15c0.057,0.117,0.116,0.234,0.182,0.337
	c0.029,0.048,0.063,0.092,0.13,0.179c0.075,0.101,0.153,0.197,0.228,0.271c0.047,0.053,0.097,0.1,0.164,0.164
	c0.086,0.075,0.17,0.145,0.312,0.248l0.123,0.081C332.364,322.14,332.478,322.201,332.551,322.231z M337.138,336.604v46.881h-15.122
	v-46.878L337.138,336.604z"/>
</svg>
