<?xml version="1.0" encoding="utf-8"?>
<!-- Generator: Adobe Illustrator 15.0.0, SVG Export Plug-In . SVG Version: 6.00 Build 0)  -->
<!DOCTYPE svg PUBLIC "-//W3C//DTD SVG 1.1//EN" "http://www.w3.org/Graphics/SVG/1.1/DTD/svg11.dtd">
<svg version="1.1" id="Capa_1" xmlns="http://www.w3.org/2000/svg" xmlns:xlink="http://www.w3.org/1999/xlink" x="0px" y="0px"
	 width="600px" height="600px" viewBox="0 0 600 600" enable-background="new 0 0 600 600" xml:space="preserve">
<g>
	<path d="M188.09,399.934h-15.997V189.639c0-1.592-1.296-2.888-2.888-2.888h-9.169v-66.673c0-1.592-1.294-2.886-2.886-2.886h-14.253
		c-1.002,0-1.946,0.529-2.463,1.383l-59.849,98.061c-0.255,0.417-0.401,0.896-0.423,1.39l-7.07,181.908H56.98
		c-1.592,0-2.886,1.296-2.886,2.888v77.099c0,1.593,1.294,2.889,2.886,2.889H188.09c1.592,0,2.888-1.296,2.888-2.889v-77.101
		C190.976,401.229,189.68,399.934,188.09,399.934z M185.202,465.045v11.989H59.866v-11.989H185.202z M185.202,444.259v15.014H59.866
		v-15.014H185.202z M142.206,189.639v33.356l-35.641,58.397c-0.256,0.422-0.402,0.902-0.42,1.389l-4.555,117.153H78.865L85.901,219
		l58.615-96.036h9.744v63.787h-9.166C143.502,186.751,142.206,188.047,142.206,189.639z M142.208,234.078v165.857h-34.839
		l4.517-116.176L142.208,234.078z M147.979,399.934v-207.41h18.338v207.41H147.979z M185.202,405.707v32.779H59.866v-32.779H185.202
		z"/>
	<path d="M543.02,399.934h-16.11l-7.071-181.909c-0.021-0.491-0.166-0.972-0.423-1.39l-59.848-98.061
		c-0.522-0.852-1.467-1.381-2.465-1.381h-14.252c-1.592,0-2.886,1.294-2.886,2.886v66.673h-9.168c-1.592,0-2.888,1.296-2.888,2.888
		v210.295h-15.997c-1.594,0-2.89,1.294-2.89,2.886v77.101c0,1.593,1.296,2.889,2.89,2.889H543.02c1.593,0,2.887-1.296,2.887-2.889
		v-77.101C545.906,401.228,544.613,399.934,543.02,399.934z M540.134,465.045v11.989H414.797v-11.989H540.134z M540.134,444.259
		v15.014H414.797v-15.014H540.134z M454.906,186.751h-9.168v-63.787h9.746L514.1,219l7.032,180.934H498.41l-4.557-117.157
		c-0.021-0.491-0.166-0.97-0.419-1.386l-35.643-58.396v-33.356C457.792,188.047,456.498,186.751,454.906,186.751z M457.792,234.078
		l30.323,49.679l4.518,116.177h-34.841V234.078z M433.684,399.934v-207.41h18.338v207.41H433.684z M540.134,405.707v32.779H414.797
		v-32.779H540.134z"/>
	<path d="M332.027,343.68c-3.832-2.586-7.795-5.257-11.554-8.471c-6.703-5.731-12.865-16.1-15.714-21.304h9.807
		c1.594,0,2.89-1.294,2.89-2.886v-10.881c0-1.592-1.296-2.888-2.89-2.888h-11.681v-7.991l13.407-10.015
		c1.001-0.743,1.409-2.039,1.014-3.223c-0.392-1.182-1.493-1.977-2.738-1.977h-29.133c-1.244,0-2.345,0.794-2.74,1.977
		c-0.392,1.182,0.015,2.477,1.013,3.221l13.409,10.017v7.991h-11.681c-1.592,0-2.888,1.295-2.888,2.888v10.881
		c0,1.592,1.296,2.886,2.888,2.886h9.714c-3.34,5.884-9.304,15.404-15.611,20.745c-3.603,3.055-7.397,5.653-11.064,8.168
		l-0.137,0.093c-10.05,6.877-19.542,13.372-19.542,26.155V479.92c0,1.593,1.296,2.889,2.888,2.889h96.642
		c1.592,0,2.888-1.296,2.888-2.889V369.066C351.208,356.612,341.892,350.331,332.027,343.68z M294.12,279.819h11.757L300,284.211
		L294.12,279.819z M299.947,317.166c3.42,6.212,9.636,16.327,16.774,22.434c4.006,3.421,8.109,6.188,12.085,8.868
		c9.291,6.268,16.63,11.218,16.63,20.599v107.968h-90.871V369.066c0-9.734,7.512-14.876,17.032-21.392
		c3.828-2.618,7.786-5.325,11.673-8.621C290.168,333.213,296.452,323.283,299.947,317.166z M288.32,308.133v-5.109h23.361v5.109
		H288.32z"/>
	<path d="M314.566,399.934h-29.131c-1.593,0-2.889,1.296-2.889,2.888v59.335c0,1.593,1.296,2.889,2.889,2.889h29.131
		c1.594,0,2.89-1.296,2.89-2.889v-59.335C317.455,401.229,316.159,399.934,314.566,399.934z M311.681,405.707v53.565H288.32v-53.565
		H311.681z"/>
	<path d="M294.614,388.512c1.75,0.569,3.563,0.856,5.389,0.856c7.587,0,14.258-4.852,16.597-12.07
		c1.44-4.436,1.067-9.166-1.051-13.316c-2.117-4.154-5.726-7.233-10.159-8.673c-1.746-0.568-3.559-0.856-5.393-0.856
		c-7.587,0-14.258,4.851-16.597,12.07C280.428,375.674,285.46,385.539,294.614,388.512z M299.997,360.225
		c1.227,0,2.439,0.193,3.608,0.575c2.968,0.961,5.382,3.022,6.802,5.802c1.417,2.78,1.667,5.947,0.703,8.913
		c-1.568,4.834-6.032,8.081-11.107,8.081c-1.218,0-2.432-0.193-3.608-0.575c-6.124-1.99-9.491-8.591-7.505-14.716
		C290.458,363.471,294.922,360.225,299.997,360.225z"/>
</g>
</svg>
