<?xml version="1.0" encoding="utf-8"?>
<!-- Generator: Adobe Illustrator 15.0.0, SVG Export Plug-In . SVG Version: 6.00 Build 0)  -->
<!DOCTYPE svg PUBLIC "-//W3C//DTD SVG 1.1//EN" "http://www.w3.org/Graphics/SVG/1.1/DTD/svg11.dtd">
<svg version="1.1" id="Capa_1" xmlns="http://www.w3.org/2000/svg" xmlns:xlink="http://www.w3.org/1999/xlink" x="0px" y="0px"
	 width="600px" height="600px" viewBox="0 0 600 600" enable-background="new 0 0 600 600" xml:space="preserve">
<g>
	<path d="M235.894,336.241h-16.603c-1.137,0-2.062,0.926-2.062,2.062v68.787c0,1.137,0.926,2.062,2.062,2.062h16.603
		c1.138,0,2.064-0.925,2.064-2.062v-68.787C237.958,337.167,237.032,336.241,235.894,336.241z M233.833,340.368v64.659h-12.478
		v-64.659H233.833z"/>
	<path d="M205.534,336.241H188.93c-1.137,0-2.062,0.926-2.062,2.062v68.787c0,1.137,0.925,2.062,2.062,2.062h16.604
		c1.137,0,2.062-0.925,2.062-2.062v-68.785c0.001-0.552-0.214-1.068-0.602-1.46C206.604,336.456,206.085,336.241,205.534,336.241z
		 M203.471,340.368v64.659h-12.477v-64.659H203.471z"/>
	<path d="M175.173,336.241h-16.603c-1.137,0-2.063,0.926-2.063,2.062v68.787c0,1.137,0.926,2.062,2.063,2.062h16.603
		c1.137,0,2.063-0.925,2.063-2.062v-68.785c0.001-0.552-0.214-1.068-0.603-1.458C176.244,336.456,175.725,336.241,175.173,336.241z
		 M173.11,340.368v64.659h-12.477v-64.659H173.11z"/>
	<path d="M144.813,336.241h-16.604c-1.137,0-2.062,0.926-2.062,2.062v68.787c0,1.137,0.925,2.062,2.062,2.062h16.604
		c1.137,0,2.062-0.925,2.062-2.062v-68.785c0.001-0.552-0.214-1.068-0.603-1.46C145.883,336.456,145.364,336.241,144.813,336.241z
		 M142.75,340.368v64.659h-12.477v-64.659H142.75z"/>
	<path d="M114.452,336.241H97.849c-1.137,0-2.063,0.926-2.063,2.062v68.787c0,1.137,0.926,2.062,2.063,2.062h16.603
		c1.137,0,2.063-0.925,2.063-2.062v-68.785c0.001-0.552-0.214-1.068-0.603-1.458C115.523,336.456,115.004,336.241,114.452,336.241z
		 M112.389,340.368v64.659H99.912v-64.659H112.389z"/>
	<path d="M84.092,336.241H67.487c-1.137,0-2.063,0.926-2.063,2.062v68.787c0,1.137,0.926,2.062,2.063,2.062h16.605
		c1.137,0,2.062-0.925,2.062-2.062v-68.785c0.001-0.552-0.214-1.068-0.603-1.46C85.161,336.456,84.643,336.241,84.092,336.241z
		 M82.029,340.368v64.659H69.552v-64.659H82.029z"/>
	<path d="M364.105,409.152h16.604c1.138,0,2.063-0.925,2.063-2.062v-68.787c0-1.137-0.926-2.062-2.063-2.062h-16.604
		c-1.137,0-2.062,0.926-2.062,2.062v68.785c-0.001,0.55,0.212,1.068,0.603,1.457C363.034,408.937,363.553,409.152,364.105,409.152z
		 M366.168,405.027v-64.659h12.478v64.659H366.168z"/>
	<path d="M394.466,409.152h16.604c1.138,0,2.063-0.925,2.063-2.062v-68.787c0-1.137-0.926-2.062-2.063-2.062h-16.604
		c-1.137,0-2.062,0.926-2.062,2.062v68.787C392.404,408.228,393.329,409.152,394.466,409.152z M396.528,405.027v-64.659h12.479
		v64.659H396.528z"/>
	<path d="M424.826,409.152h16.604c1.138,0,2.062-0.925,2.062-2.062v-68.787c0-1.137-0.924-2.062-2.062-2.062h-16.604
		c-1.138,0-2.063,0.926-2.063,2.062v68.785c-0.001,0.55,0.213,1.068,0.603,1.457C423.755,408.937,424.274,409.152,424.826,409.152z
		 M426.889,405.027v-64.659h12.479v64.659H426.889z"/>
	<path d="M455.188,409.152h16.604c1.137,0,2.062-0.925,2.062-2.062v-68.787c0-1.137-0.926-2.062-2.062-2.062h-16.604
		c-1.138,0-2.063,0.926-2.063,2.062v68.787C453.124,408.228,454.05,409.152,455.188,409.152z M457.249,405.027v-64.659h12.478
		v64.659H457.249z"/>
	<path d="M485.547,409.152h16.605c1.137,0,2.062-0.925,2.062-2.062v-68.787c0-1.137-0.925-2.062-2.062-2.062h-16.605
		c-1.137,0-2.062,0.926-2.062,2.062v68.785c-0.001,0.55,0.212,1.068,0.603,1.457C484.477,408.937,484.995,409.152,485.547,409.152z
		 M487.611,405.027v-64.659h12.478v64.659H487.611z"/>
	<path d="M515.908,409.152h16.604c1.138,0,2.063-0.925,2.063-2.062v-68.787c0-1.137-0.926-2.062-2.063-2.062h-16.604
		c-1.137,0-2.062,0.926-2.062,2.062v68.787C513.846,408.228,514.772,409.152,515.908,409.152z M517.97,405.027v-64.659h12.479
		v64.659H517.97z"/>
	<path d="M274.383,396.701h51.234c1.137,0,2.062-0.926,2.062-2.062v-25.616c0-1.137-0.926-2.062-2.062-2.062h-51.234
		c-1.137,0-2.062,0.926-2.062,2.062v25.613c-0.001,0.551,0.211,1.068,0.6,1.46C273.312,396.486,273.831,396.701,274.383,396.701z
		 M276.447,392.574v-21.49h47.108v21.49H276.447z"/>
	<path d="M574.731,313.874c0-2.301-1.291-4.386-3.321-5.425v-10.941c0-4.187-2.301-8.057-5.931-10.087
		c1.077-1.299,1.662-2.91,1.662-4.619c0-4.015-3.267-7.28-7.281-7.28c-4.016,0-7.281,3.266-7.281,7.28
		c0,1.708,0.585,3.32,1.662,4.619c-3.63,2.03-5.932,5.9-5.932,10.087v10.941c-2.03,1.039-3.321,3.124-3.321,5.425
		c0,0.671,0.113,1.337,0.329,1.969H345.707v-0.822c0-5.301-4.313-9.614-9.614-9.614c-5.302,0-9.615,4.313-9.615,9.614v0.822h-3.067
		v-57.544h7.453c1.138,0,2.063-0.926,2.063-2.062c0-0.086-0.006-0.174-0.012-0.184c-0.086-6.524-4.698-12.011-11.048-13.246v-22.624
		c0-1.137-0.926-2.062-2.062-2.062h-12.677c0.725-1.243,1.103-2.642,1.103-4.104v-22.53c0-4.539-3.692-8.23-8.232-8.23
		c-4.538,0-8.23,3.691-8.23,8.23v22.53c0,1.463,0.377,2.861,1.101,4.104h-12.676c-1.137,0-2.062,0.926-2.062,2.062v22.624
		c-6.337,1.244-11.05,6.922-11.05,13.43c0,1.137,0.926,2.062,2.063,2.062h7.445v57.544h-3.07v-0.822
		c0-5.301-4.312-9.614-9.613-9.614s-9.614,4.313-9.614,9.614v0.822H54.685c0.216-0.631,0.327-1.298,0.327-1.969
		c0-2.299-1.29-4.385-3.32-5.427v-10.939c0-4.187-2.301-8.057-5.932-10.087c1.078-1.299,1.663-2.91,1.663-4.619
		c0-4.015-3.266-7.28-7.282-7.28c-4.015,0-7.28,3.266-7.28,7.28c0,1.708,0.584,3.318,1.66,4.619c-3.629,2.03-5.932,5.9-5.932,10.087
		v10.939c-2.03,1.041-3.32,3.126-3.32,5.427c0,1.288,0.394,2.506,1.142,3.547c-0.039,0.159-0.059,0.321-0.059,0.486v96.774
		c0,1.138,0.924,2.063,2.062,2.063h543.172c1.137,0,2.062-0.926,2.062-2.063v-96.774c0-0.165-0.02-0.327-0.06-0.487
		C574.327,316.385,574.731,315.14,574.731,313.874z M559.86,290.084c4.094,0,7.425,3.331,7.425,7.424v10.271h-14.849v-10.271
		c0-1.979,0.772-3.844,2.177-5.248C556.017,290.857,557.879,290.084,559.86,290.084z M559.86,279.647
		c1.739,0,3.155,1.415,3.155,3.154c0,1.74-1.416,3.156-3.155,3.156c-1.74,0-3.155-1.416-3.155-3.156
		C556.704,281.062,558.119,279.647,559.86,279.647z M570.605,313.874c0,1.086-0.883,1.969-1.969,1.969h-17.554
		c-1.087,0-1.97-0.883-1.97-1.969c0-1.085,0.883-1.968,1.97-1.968h17.554C569.722,311.906,570.605,312.789,570.605,313.874z
		 M569.522,319.968v92.65h-19.325v-92.65H569.522z M263.908,309.532c3.026,0,5.489,2.463,5.489,5.488v14.388H258.42v-14.388
		C258.42,311.995,260.882,309.532,263.908,309.532z M295.896,214.016v-22.53c0-2.264,1.842-4.105,4.104-4.105
		s4.104,1.842,4.104,4.105v22.53c0,2.263-1.841,4.104-4.104,4.104S295.896,216.278,295.896,214.016z M282.258,242.553v-20.306
		h35.485v20.306H282.258z M310.272,309.532v20.543H289.73v-20.543H310.272z M312.334,305.406h-24.668
		c-1.137,0-2.063,0.926-2.063,2.063v22.605h-4.888v-59.442h38.569v59.442h-4.887V307.47
		C314.398,306.332,313.472,305.406,312.334,305.406z M319.284,258.299v8.209h-38.569v-8.209H319.284z M271.431,254.175
		c0.957-4.323,4.846-7.498,9.337-7.498h38.464c4.491,0,8.381,3.175,9.337,7.498H271.431z M273.521,329.408v-9.44h3.07v9.44H273.521z
		 M323.412,329.408v-9.44h3.067v9.44H323.412z M336.093,309.532c3.025,0,5.488,2.463,5.488,5.488v14.388h-10.977v-14.388
		C330.605,311.995,333.067,309.532,336.093,309.532z M258.419,346.915v-12.714h83.162v12.714H258.419z M354.554,346.915h-2.143
		v-8.611c0-1.137-0.926-2.062-2.062-2.062h-4.642v-2.707H546.07v79.083H356.617v-63.641
		C356.617,347.841,355.692,346.915,354.554,346.915z M345.705,346.915v-6.547h2.579v6.547H345.705z M352.49,351.041v61.577H247.508
		v-61.577H352.49z M254.294,340.368v6.547h-2.579v-6.547H254.294z M249.652,336.241c-1.137,0-2.062,0.926-2.062,2.062v8.61h-2.144
		c-1.137,0-2.062,0.926-2.062,2.062v63.639H53.929v-79.081h200.364v2.707H249.652z M53.929,329.408v-9.44h200.364v9.44H53.929z
		 M546.07,319.968v9.44H345.707v-9.44H546.07z M40.14,290.084c4.093,0,7.424,3.331,7.424,7.424v10.271H32.717v-10.271
		C32.717,293.415,36.048,290.084,40.14,290.084z M40.14,279.647c1.739,0,3.155,1.415,3.155,3.154c0,1.74-1.416,3.156-3.155,3.156
		s-3.155-1.416-3.155-3.156C36.986,281.062,38.401,279.647,40.14,279.647z M50.885,313.874c0,1.086-0.883,1.969-1.969,1.969H31.365
		c-1.086,0-1.969-0.883-1.969-1.969c0-1.085,0.883-1.968,1.969-1.968h17.552C50.002,311.906,50.885,312.789,50.885,313.874z
		 M49.802,319.968v92.65H30.477v-92.65H49.802z"/>
</g>
</svg>
