<?xml version="1.0" encoding="utf-8"?>
<!-- Generator: Adobe Illustrator 15.0.0, SVG Export Plug-In . SVG Version: 6.00 Build 0)  -->
<!DOCTYPE svg PUBLIC "-//W3C//DTD SVG 1.1//EN" "http://www.w3.org/Graphics/SVG/1.1/DTD/svg11.dtd">
<svg version="1.1" id="Capa_1" xmlns="http://www.w3.org/2000/svg" xmlns:xlink="http://www.w3.org/1999/xlink" x="0px" y="0px"
	 width="600px" height="600px" viewBox="0 0 600 600" enable-background="new 0 0 600 600" xml:space="preserve">
<path fill="#222221" d="M479.839,365c0-6.065-4.935-11-11-11h-0.469l-27.725-162.37l17.729-28.026
	c0.038-0.06,0.06-0.124,0.093-0.185c0.055-0.101,0.11-0.199,0.153-0.307c0.037-0.093,0.061-0.189,0.089-0.285
	c0.025-0.091,0.057-0.179,0.074-0.273c0.022-0.121,0.029-0.242,0.036-0.364c0.005-0.064,0.02-0.125,0.02-0.19
	c0-0.011-0.003-0.021-0.003-0.033c-0.002-0.129-0.021-0.256-0.039-0.383c-0.01-0.069-0.011-0.141-0.025-0.208
	c-0.022-0.107-0.062-0.21-0.098-0.314c-0.025-0.08-0.043-0.163-0.076-0.239c-0.043-0.103-0.104-0.197-0.159-0.294
	c-0.039-0.069-0.07-0.144-0.114-0.209c-0.053-0.078-0.121-0.146-0.182-0.22c-0.062-0.076-0.119-0.157-0.189-0.227
	c-0.046-0.045-0.102-0.083-0.151-0.125c-0.1-0.087-0.198-0.175-0.31-0.248c-0.006-0.004-0.011-0.01-0.017-0.014l-43-28
	c-0.994-0.647-2.279-0.647-3.273,0l-43,28c-0.006,0.004-0.011,0.009-0.017,0.014c-0.111,0.073-0.21,0.161-0.31,0.248
	c-0.05,0.043-0.105,0.08-0.151,0.125c-0.071,0.07-0.129,0.153-0.192,0.23c-0.06,0.072-0.126,0.139-0.179,0.216
	c-0.046,0.068-0.078,0.145-0.118,0.217c-0.054,0.095-0.113,0.187-0.155,0.286c-0.033,0.076-0.051,0.159-0.076,0.239
	c-0.035,0.104-0.075,0.207-0.098,0.314c-0.015,0.067-0.016,0.139-0.025,0.208c-0.018,0.127-0.037,0.254-0.039,0.383
	c0,0.011-0.003,0.021-0.003,0.033c0,0.065,0.015,0.127,0.02,0.191c0.008,0.122,0.014,0.242,0.036,0.363
	c0.018,0.094,0.049,0.183,0.075,0.274c0.027,0.096,0.051,0.191,0.088,0.284c0.043,0.107,0.099,0.206,0.153,0.307
	c0.033,0.061,0.055,0.125,0.093,0.185l17.644,27.892c-0.427,0.328-0.776,0.767-0.981,1.306
	c-0.139,0.365-14.105,36.608-34.771,44.672c-5.482,2.139-10.828,2.06-16.288-0.233v-18.619c0-3.029-1.231-5.776-3.219-7.768
	c2.794-2.269,4.585-5.728,4.585-9.599c0-6.819-5.548-12.367-12.366-12.367s-12.366,5.548-12.366,12.367
	c0,3.872,1.791,7.33,4.585,9.599c-1.987,1.992-3.219,4.738-3.219,7.768v35.379h-22.738v-35.379c0-3.029-1.231-5.776-3.219-7.767
	c2.794-2.27,4.585-5.728,4.585-9.6c0-6.819-5.547-12.367-12.366-12.367s-12.366,5.548-12.366,12.367c0,3.872,1.791,7.33,4.585,9.6
	c-1.988,1.991-3.219,4.738-3.219,7.767v18.619c-5.458,2.292-10.803,2.372-16.281,0.235c-19.763-7.706-33.428-41.257-34.676-44.417
	l-0.244-1.429l17.729-28.026c0.038-0.06,0.06-0.125,0.093-0.186c0.055-0.101,0.11-0.199,0.153-0.306
	c0.037-0.093,0.06-0.187,0.087-0.282c0.027-0.092,0.058-0.182,0.076-0.277c0.022-0.118,0.028-0.237,0.036-0.356
	c0.004-0.066,0.02-0.13,0.02-0.197c0-0.012-0.003-0.022-0.003-0.034c-0.001-0.127-0.021-0.251-0.038-0.376
	c-0.01-0.071-0.011-0.145-0.026-0.214c-0.022-0.107-0.063-0.21-0.098-0.314c-0.026-0.079-0.043-0.162-0.076-0.238
	c-0.049-0.117-0.117-0.225-0.182-0.335c-0.032-0.055-0.056-0.115-0.091-0.167c-0.063-0.093-0.142-0.175-0.216-0.261
	c-0.052-0.061-0.097-0.128-0.154-0.185c-0.053-0.052-0.117-0.095-0.174-0.144c-0.094-0.08-0.184-0.162-0.287-0.23
	c-0.006-0.004-0.011-0.01-0.018-0.015l-43-28c-0.995-0.647-2.279-0.647-3.274,0l-43,28c-0.007,0.004-0.012,0.01-0.018,0.015
	c-0.103,0.068-0.193,0.15-0.287,0.23c-0.057,0.049-0.121,0.091-0.174,0.144c-0.057,0.057-0.102,0.124-0.154,0.185
	c-0.074,0.086-0.153,0.168-0.216,0.261c-0.035,0.053-0.059,0.112-0.091,0.167c-0.064,0.11-0.132,0.218-0.182,0.335
	c-0.033,0.076-0.05,0.159-0.076,0.238c-0.035,0.104-0.075,0.207-0.098,0.314c-0.015,0.069-0.016,0.143-0.026,0.214
	c-0.018,0.125-0.037,0.25-0.038,0.376c0,0.011-0.003,0.022-0.003,0.034c0,0.067,0.016,0.131,0.02,0.197
	c0.008,0.119,0.014,0.238,0.036,0.356c0.018,0.096,0.049,0.186,0.076,0.277c0.027,0.095,0.05,0.189,0.087,0.282
	c0.043,0.107,0.099,0.205,0.153,0.306c0.033,0.061,0.055,0.125,0.093,0.186l17.729,28.026L131.63,354h-0.469
	c-6.065,0-11,4.935-11,11c0,5.556,4.144,10.15,9.5,10.886V466c0,1.657,1.343,3,3,3h17.5h25.333h23.333h25.334h17.5
	c1.657,0,3-1.343,3-3v-31.833h110.678V466c0,1.657,1.343,3,3,3h17.5h25.333h23.333h25.334h17.5c1.657,0,3-1.343,3-3v-90.114
	C475.696,375.15,479.839,370.556,479.839,365z M462.283,354h-98.889l27.32-160h44.248L462.283,354z M355.339,393.334H244.661
	v-17.448c5.356-0.735,9.5-5.33,9.5-10.886c0-0.168-0.018-0.332-0.025-0.499h91.729c-0.008,0.167-0.025,0.331-0.025,0.499
	c0,5.556,4.144,10.15,9.5,10.886V393.334z M347.985,358.501h-95.969c-1.852-2.517-4.741-4.215-8.037-4.46l6-24.373h99.117
	l6.026,24.479C352.203,354.608,349.666,356.217,347.985,358.501z M266.96,260.695c1.623,4.053,5.583,6.928,10.209,6.928
	c4.886,0,9.034-3.205,10.463-7.621h23.811c1.431,4.416,5.578,7.621,10.464,7.621c4.626,0,8.587-2.875,10.21-6.928l6.928,28.14
	h-79.013L266.96,260.695z M258.555,294.835h81.967l7.099,28.833h-96.164L258.555,294.835z M435.842,188h-46.006l-14.55-23h75.105
	L435.842,188z M412.839,137.58L445.734,159h-65.789L412.839,137.58z M351.377,243.063c13.254-5.172,23.659-19.704,30.246-31.469
	l-22.694,132.911l-24.733-100.47C339.904,245.616,345.662,245.294,351.377,243.063z M321.907,194.889
	c3.511,0,6.366,2.856,6.366,6.367s-2.855,6.367-6.366,6.367s-6.366-2.856-6.366-6.367S318.397,194.889,321.907,194.889z
	 M326.907,218.623v38c0,2.757-2.243,5-5,5s-5-2.243-5-5v-38c0-2.757,2.243-5,5-5S326.907,215.866,326.907,218.623z M277.169,194.889
	c3.51,0,6.366,2.856,6.366,6.367s-2.856,6.367-6.366,6.367s-6.366-2.856-6.366-6.367S273.659,194.889,277.169,194.889z
	 M282.169,218.623v38c0,2.757-2.243,5-5,5s-5-2.243-5-5v-38c0-2.757,2.243-5,5-5S282.169,215.866,282.169,218.623z M247.699,243.063
	c5.715,2.231,11.472,2.554,17.182,0.973l-24.188,98.255l-21.924-128.397C225.389,225.188,235.298,238.224,247.699,243.063z
	 M187.161,137.58L220.056,159h-65.79L187.161,137.58z M149.609,165h75.104l-14.549,23h-46.006L149.609,165z M165.037,194h44.248
	l0.058,0.336c0.001,0.006,0.002,0.012,0.003,0.018L236.606,354h-98.889L165.037,194z M126.161,365c0-2.757,2.243-5,5-5h3h105.995
	c0.002,0,0.005,0.001,0.008,0.001c0.004,0,0.008-0.001,0.012-0.001h2.986c2.757,0,5,2.243,5,5s-2.243,5-5,5h-1.5h-109h-1.5
	C128.405,370,126.161,367.757,126.161,365z M153.161,463v-54c0-5.33,4.336-9.666,9.667-9.666c5.33,0,9.666,4.336,9.666,9.666v54
	H153.161z M201.827,463v-54c0-5.33,4.336-9.666,9.667-9.666s9.667,4.336,9.667,9.666v54H201.827z M238.661,463h-11.5v-54
	c0-8.639-7.028-15.666-15.667-15.666s-15.667,7.027-15.667,15.666v54h-17.333v-54c0-8.639-7.028-15.666-15.666-15.666
	c-8.639,0-15.667,7.027-15.667,15.666v54h-11.5v-87h103V463z M244.661,428.167v-28.833h110.678v28.833H244.661z M378.839,463v-54
	c0-5.33,4.337-9.666,9.667-9.666s9.666,4.336,9.666,9.666v54H378.839z M427.505,463v-54c0-5.33,4.337-9.666,9.667-9.666
	s9.667,4.336,9.667,9.666v54H427.505z M464.339,463h-11.5v-54c0-8.639-7.028-15.666-15.667-15.666s-15.667,7.027-15.667,15.666v54
	h-17.333v-54c0-8.639-7.027-15.666-15.666-15.666s-15.667,7.027-15.667,15.666v54h-11.5v-87h103V463z M468.839,370h-1.5h-109h-1.5
	c-2.757,0-5-2.243-5-5s2.243-5,5-5h2.062c0.004,0,0.008,0.001,0.012,0.001c0.003,0,0.005-0.001,0.008-0.001h0.918h106h3
	c2.757,0,5,2.243,5,5S471.596,370,468.839,370z"/>
</svg>
