<?xml version="1.0" encoding="utf-8"?>
<!-- Generator: Adobe Illustrator 15.0.0, SVG Export Plug-In . SVG Version: 6.00 Build 0)  -->
<!DOCTYPE svg PUBLIC "-//W3C//DTD SVG 1.1//EN" "http://www.w3.org/Graphics/SVG/1.1/DTD/svg11.dtd">
<svg version="1.1" id="Capa_1" xmlns="http://www.w3.org/2000/svg" xmlns:xlink="http://www.w3.org/1999/xlink" x="0px" y="0px"
	 width="600px" height="600px" viewBox="0 0 600 600" enable-background="new 0 0 600 600" xml:space="preserve">
<path d="M506.342,364.446c-0.166-2.186-2.011-3.896-4.2-3.896H467.78v-48.409c12.75-6.31,40.823-23.021,40.811-47.745
	c-0.002-1.448-0.734-2.776-1.963-3.555c-1.197-0.755-2.759-0.852-4.057-0.242c-0.15,0.072-15.451,7.239-35.556,7.239
	c-22.099,0-41.029-8.395-56.292-24.959c8.625-1.743,27.045-5.773,45.418-11.748c34.72-11.291,52.32-24.056,52.314-37.939
	c0-1.539-0.841-2.953-2.193-3.69c-1.322-0.723-3.014-0.664-4.289,0.152c-0.163,0.104-16.614,10.413-40.562,10.413
	c-19.525,0-38.584-6.643-56.645-19.745c-50.354-36.521-93.207-78.311-100.695-86.749V64.475c0-2.32-1.888-4.208-4.207-4.208
	c-2.322,0-4.209,1.887-4.209,4.208v29.396c-8.233,9.128-50.462,50.211-100.422,86.449c-18.061,13.102-37.119,19.745-56.645,19.745
	c-23.833,0-40.398-10.308-40.553-10.407c-1.271-0.82-2.967-0.883-4.295-0.162c-1.355,0.739-2.198,2.155-2.198,3.693
	c-0.008,14.098,17.604,26.511,53.845,37.951c17.202,5.431,34.532,9.273,44.332,11.258c-15.34,16.883-34.417,25.44-56.734,25.44
	c-19.96,0-35.407-7.167-35.558-7.238c-1.275-0.609-2.854-0.518-4.054,0.239c-1.229,0.775-1.963,2.105-1.963,3.558
	c-0.014,24.72,28.06,41.435,40.809,47.744v48.409H97.856c-2.191,0-4.034,1.71-4.197,3.897L80.921,535.215
	c-0.085,1.163,0.321,2.318,1.112,3.171c0.792,0.857,1.916,1.347,3.085,1.347h429.764c1.165,0,2.289-0.489,3.085-1.343
	c0.794-0.856,1.198-2.012,1.11-3.175L506.342,364.446z M183.521,386.837v144.48h-93.87l10.774-144.48H183.521z M261.066,449.244
	c0-21.467,17.465-38.934,38.931-38.934c21.468,0,38.932,17.467,38.932,38.934v82.073h-77.863V449.244z M299.997,401.896
	c-26.108,0-47.348,21.239-47.348,47.349v82.073H191.94v-166.56c0-2.317-1.887-4.207-4.209-4.207h-47.099v-45.512H282.31v17.813
	c0,2.32,1.887,4.208,4.208,4.208h26.96c2.32,0,4.208-1.888,4.208-4.208v-17.813h141.679v45.512h-47.099
	c-2.32,0-4.208,1.885-4.208,4.207v166.56h-60.711v-82.073C347.347,423.135,326.105,401.896,299.997,401.896z M199.588,243.836
	h200.821c17.342,21.211,40.365,32.42,66.606,32.42c13.896,0,25.616-3.111,32.267-5.356c-5.536,20.082-35.226,33.802-39.595,35.725
	H317.688v-17.811c0-2.32-1.888-4.208-4.21-4.208h-26.96c-2.32,0-4.208,1.888-4.208,4.208v17.811H140.306
	c-4.369-1.916-34.06-15.602-39.594-35.726c6.65,2.246,18.373,5.357,32.271,5.357C159.224,276.256,182.245,265.047,199.588,243.836z
	 M309.271,293.022v35.623h-18.545v-35.623H309.271z M405.132,235.421l-207.105,0.017c-30.288-5.336-77.905-18.259-93.251-33.226
	c8.146,3.163,19.738,6.275,33.813,6.275c21.335,0,42.055-7.183,61.584-21.349c47.865-34.719,88.193-73.493,99.824-85.619
	c11.628,12.124,51.959,50.9,99.823,85.619c19.534,14.167,40.255,21.349,61.589,21.349c14.241,0,25.945-3.188,34.126-6.399
	c-6.858,7.07-21.205,14.277-41.943,21.023C430.69,230.564,407.509,234.962,405.132,235.421z M416.475,378.422v-9.456h81.764
	l0.702,9.456H416.475z M416.475,386.837h83.094l10.776,144.48h-93.87V386.837z M183.521,368.966v9.456h-82.466l0.704-9.456H183.521z
	"/>
</svg>
