<?xml version="1.0" encoding="utf-8"?>
<!-- Generator: Adobe Illustrator 15.0.0, SVG Export Plug-In . SVG Version: 6.00 Build 0)  -->
<!DOCTYPE svg PUBLIC "-//W3C//DTD SVG 1.1//EN" "http://www.w3.org/Graphics/SVG/1.1/DTD/svg11.dtd">
<svg version="1.1" id="Capa_1" xmlns="http://www.w3.org/2000/svg" xmlns:xlink="http://www.w3.org/1999/xlink" x="0px" y="0px"
	 width="600px" height="600px" viewBox="0 0 600 600" enable-background="new 0 0 600 600" xml:space="preserve">
<g>
	<path d="M553.097,200.209h-27.413v-42.456c0-1.962-1.598-3.56-3.56-3.56H77.876c-1.964,0-3.562,1.598-3.562,3.56v42.456H46.902
		c-1.962,0-3.56,1.598-3.56,3.562v17.699c0,1.962,1.598,3.56,3.56,3.56h11.925v217.214c0,1.966,1.598,3.563,3.56,3.563H273.01
		c1.962,0,3.56-1.598,3.56-3.563V329.454h46.861v112.789c0,1.966,1.598,3.563,3.56,3.563h210.62c1.962,0,3.56-1.598,3.56-3.563
		V225.029h11.928c1.962,0,3.56-1.598,3.56-3.56v-17.699C556.658,201.807,555.061,200.209,553.097,200.209z M498.433,320.605v118.08
		h-30.049v-118.08H498.433z M501.99,313.482h-2.333c3.769-4.075,5.894-9.436,5.894-15.021c0-12.21-9.934-22.146-22.144-22.146
		s-22.146,9.935-22.146,22.146c0,5.586,2.125,10.945,5.896,15.021h-2.334c-1.964,0-3.562,1.598-3.562,3.562v121.642h-28.499V225.031
		H534.05v213.655h-28.499V317.044C505.551,315.08,503.953,313.482,501.99,313.482z M483.407,283.437
		c8.284,0,15.023,6.74,15.023,15.025c0,8.283-6.739,15.022-15.023,15.022c-8.284-0.002-15.023-6.741-15.023-15.022
		C468.384,290.177,475.123,283.437,483.407,283.437z M432.763,200.209v-38.896h85.802v38.896H432.763z M549.535,207.332v10.577
		H432.763v-10.577H549.535z M326.99,322.333h-53.98c-1.962,0-3.56,1.598-3.56,3.562v112.791h-17.216V268.393h95.535v170.293h-17.216
		V325.895C330.552,323.931,328.953,322.333,326.99,322.333z M351.325,261.272H248.672c-1.962,0-3.56,1.598-3.56,3.562v173.852
		h-70.754V225.029h251.285v213.656h-70.755V264.834C354.887,262.87,353.289,261.272,351.325,261.272z M425.642,207.331v10.579
		H174.357v-10.579H425.642z M425.642,161.313v38.896H174.357v-38.896H425.642z M131.615,320.605v118.08H101.57v-118.08H131.615z
		 M135.175,313.482h-2.333c3.771-4.075,5.896-9.436,5.896-15.021c0-12.21-9.933-22.146-22.144-22.146
		c-12.212,0-22.147,9.935-22.147,22.146c0,5.584,2.125,10.945,5.897,15.021H98.01c-1.964,0-3.562,1.598-3.562,3.562v121.642H65.949
		V225.029h101.287v213.656h-28.499V317.044C138.737,315.08,137.139,313.482,135.175,313.482z M116.593,283.437
		c8.282,0,15.022,6.74,15.022,15.025c0,8.283-6.74,15.022-15.022,15.022c-8.284-0.002-15.023-6.741-15.023-15.022
		C101.57,290.177,108.309,283.437,116.593,283.437z M167.236,207.331v10.579H50.462v-10.579H167.236z M167.236,161.313v38.896
		H81.436v-38.896H167.236z"/>
	<path d="M335.86,309.965v-30.088c0-1.962-1.598-3.56-3.56-3.56h-64.601c-1.964,0-3.562,1.598-3.562,3.56v30.088
		c0,1.964,1.598,3.562,3.562,3.562H332.3C334.262,313.526,335.86,311.929,335.86,309.965z M271.26,306.403v-22.966h57.479v22.966
		H271.26z"/>
</g>
</svg>
