<?xml version="1.0" encoding="utf-8"?>
<!-- Generator: Adobe Illustrator 15.0.0, SVG Export Plug-In . SVG Version: 6.00 Build 0)  -->
<!DOCTYPE svg PUBLIC "-//W3C//DTD SVG 1.1//EN" "http://www.w3.org/Graphics/SVG/1.1/DTD/svg11.dtd">
<svg version="1.1" id="Capa_1" xmlns="http://www.w3.org/2000/svg" xmlns:xlink="http://www.w3.org/1999/xlink" x="0px" y="0px"
	 width="600px" height="600px" viewBox="0 0 600 600" enable-background="new 0 0 600 600" xml:space="preserve">
<g>
	<path fill="#222221" d="M487.847,436.93l-65.991-187.503c-0.423-1.201-1.558-2.004-2.83-2.004h-13.688l-10.775-43.717
		c-0.331-1.34-1.533-2.282-2.913-2.282H374.32v-18h9.084c1.657,0,3-1.343,3-3v-18.666c0-1.656-1.343-3-3-3H216.57
		c-1.657,0-3,1.344-3,3v18.666c0,1.657,1.343,3,3,3h9.084v18h-17.329c-1.38,0-2.583,0.942-2.913,2.282l-10.775,43.717h-13.693
		c-1.273,0-2.407,0.803-2.83,2.004l-66.091,187.819c-0.323,0.918-0.181,1.936,0.382,2.729c0.562,0.795,1.475,1.267,2.448,1.267
		h124.126H361h124.128c0.006,0,0.014,0,0.02,0c1.657,0,3-1.343,3-3C488.148,437.771,488.04,437.326,487.847,436.93z
		 M374.321,207.424h14.978l9.859,39.999h-24.837V207.424z M219.57,164.758h160.833v12.666h-9.084H228.654h-9.084V164.758z
		 M368.32,183.424v63.999h-27.351H317.32v-45.665c0-1.657-1.343-3-3-3h-28.666c-1.657,0-3,1.343-3,3v45.665h-23.647h-27.353v-42.999
		v-21H368.32z M311.32,247.423h-22.666v-42.665h22.666V247.423z M210.676,207.424h14.979v39.999h-24.838L210.676,207.424z
		 M183.069,253.423h13.918h31.667h27.016l-19.388,181.819H119.089L183.069,253.423z M242.316,435.242l19.388-181.819h23.95h28.666
		h23.952l19.392,181.819H242.316z M363.698,435.242l-19.392-181.819h27.014h0.001h31.666h0.02h13.895l63.991,181.819H363.698z"/>
	<path fill="#222221" d="M402.987,385.425h-23.333c-1.657,0-3,1.343-3,3v33.333c0,1.657,1.343,3,3,3h23.333c1.657,0,3-1.343,3-3
		v-33.333C405.987,386.768,404.644,385.425,402.987,385.425z M399.987,418.758h-17.333v-27.333h17.333V418.758z"/>
	<path fill="#222221" d="M425.653,424.758h23.333c1.657,0,3-1.343,3-3v-33.333c0-1.657-1.343-3-3-3h-23.333c-1.657,0-3,1.343-3,3
		v33.333C422.653,423.415,423.995,424.758,425.653,424.758z M428.653,391.425h17.333v27.333h-17.333V391.425z"/>
	<path fill="#222221" d="M174.321,385.425h-23.333c-1.657,0-3,1.343-3,3v33.333c0,1.657,1.343,3,3,3h23.333c1.657,0,3-1.343,3-3
		v-33.333C177.321,386.768,175.978,385.425,174.321,385.425z M171.321,418.758h-17.333v-27.333h17.333V418.758z"/>
	<path fill="#222221" d="M220.32,385.425h-23.333c-1.657,0-3,1.343-3,3v33.333c0,1.657,1.343,3,3,3h23.333c1.657,0,3-1.343,3-3
		v-33.333C223.32,386.768,221.977,385.425,220.32,385.425z M217.32,418.758h-17.333v-27.333h17.333V418.758z"/>
</g>
</svg>
