<?xml version="1.0" encoding="utf-8"?>
<!-- Generator: Adobe Illustrator 15.0.0, SVG Export Plug-In . SVG Version: 6.00 Build 0)  -->
<!DOCTYPE svg PUBLIC "-//W3C//DTD SVG 1.1//EN" "http://www.w3.org/Graphics/SVG/1.1/DTD/svg11.dtd">
<svg version="1.1" id="Capa_1" xmlns="http://www.w3.org/2000/svg" xmlns:xlink="http://www.w3.org/1999/xlink" x="0px" y="0px"
	 width="600px" height="600px" viewBox="0 0 600 600" enable-background="new 0 0 600 600" xml:space="preserve">
<g>
	<path fill="#222221" d="M300,412.089c-8.39,0-15.216,6.825-15.216,15.215v38.443c0,1.44,1.172,2.612,2.612,2.612h25.209
		c1.44,0,2.611-1.172,2.611-2.612v-38.443C315.216,418.914,308.39,412.089,300,412.089z M300,417.312
		c5.51,0,9.992,4.482,9.992,9.991v35.832h-19.984v-35.832C290.007,421.795,294.49,417.312,300,417.312z"/>
	<path fill="#222221" d="M253.145,422.75c-6.867,0-12.453,5.586-12.453,12.453v30.017c0,1.44,1.171,2.612,2.611,2.612h19.683
		c1.441,0,2.612-1.172,2.612-2.612v-30.017C265.599,428.336,260.012,422.75,253.145,422.75z M253.145,427.974
		c3.986,0,7.229,3.243,7.229,7.229v27.403h-14.459v-27.403C245.916,431.217,249.159,427.974,253.145,427.974z"/>
	<path fill="#222221" d="M346.418,422.75c-6.868,0-12.453,5.586-12.453,12.453v30.017c0,1.44,1.171,2.612,2.612,2.612h19.684
		c1.439,0,2.609-1.172,2.609-2.612v-30.017C358.87,428.336,353.284,422.75,346.418,422.75z M346.418,427.974
		c3.986,0,7.229,3.243,7.229,7.229v27.403h-14.459v-27.403C339.189,431.217,342.432,427.974,346.418,427.974z"/>
	<path fill="#222221" d="M299.738,393.705c26.083,0,47.305-21.221,47.305-47.304c0-26.084-21.222-47.304-47.305-47.304
		c-26.083,0-47.303,21.22-47.303,47.304C252.434,372.484,273.654,393.705,299.738,393.705z M299.738,304.321
		c23.204,0,42.081,18.878,42.081,42.08c0,23.203-18.877,42.079-42.081,42.079c-23.203,0-42.079-18.876-42.079-42.079
		C257.658,323.199,276.535,304.321,299.738,304.321z"/>
	<path fill="#222221" d="M275.627,355.764c0.622,0,1.326-0.087,2.072-0.231c-0.644,0.436-1.206,0.874-1.631,1.299
		c-3.649,3.65-3.649,9.59,0.001,13.241c1.765,1.768,4.116,2.741,6.619,2.742c2.5,0,4.852-0.975,6.622-2.742
		c0.453-0.454,0.904-1.033,1.341-1.686c-0.178,0.85-0.276,1.584-0.276,2.128c0,5.16,4.2,9.36,9.363,9.362
		c5.162,0,9.362-4.2,9.363-9.363c0-0.544-0.098-1.277-0.275-2.127c0.437,0.652,0.889,1.231,1.343,1.686
		c1.77,1.768,4.121,2.742,6.62,2.742s4.851-0.975,6.622-2.742c3.647-3.65,3.646-9.591-0.002-13.241
		c-0.44-0.44-1.027-0.893-1.698-1.343c0.856,0.178,1.595,0.277,2.142,0.277c5.16,0,9.36-4.201,9.36-9.362
		c0-5.163-4.2-9.363-9.36-9.363c-0.55,0-1.289,0.099-2.146,0.279c0.673-0.451,1.262-0.905,1.702-1.348
		c1.768-1.767,2.743-4.117,2.743-6.619c0-2.503-0.976-4.854-2.743-6.62c-1.767-1.769-4.118-2.743-6.62-2.743
		c-2.499,0-4.851,0.975-6.62,2.742c-0.39,0.39-0.863,1.021-1.366,1.797c0.193-0.898,0.299-1.671,0.299-2.239
		c0-5.162-4.2-9.362-9.363-9.362c-5.162,0-9.361,4.2-9.361,9.362c0,0.568,0.105,1.34,0.297,2.237
		c-0.495-0.766-0.965-1.396-1.365-1.795c-1.767-1.77-4.117-2.743-6.62-2.743c-2.501,0-4.853,0.974-6.624,2.743
		c-3.648,3.65-3.647,9.59,0.002,13.239c0.439,0.44,1.025,0.894,1.696,1.344c-0.83-0.172-1.571-0.276-2.138-0.276
		c-5.163,0-9.363,4.202-9.363,9.365C266.263,351.564,270.464,355.764,275.627,355.764z M279.95,326.613
		c0.731-0.731,1.704-1.135,2.739-1.135c1.035,0,2.007,0.403,2.736,1.135c1.573,1.572,3.807,6.957,4.283,9.739
		c-3.135-0.504-8.422-2.929-9.757-4.264C278.442,330.58,278.441,328.124,279.95,326.613z M299.738,318.417
		c2.136,0,3.872,1.737,3.872,3.872c0,2.224-2.234,7.622-3.872,9.932c-1.635-2.313-3.871-7.711-3.871-9.932
		C295.866,320.154,297.603,318.417,299.738,318.417z M316.788,325.479c1.036,0,2.009,0.403,2.739,1.135
		c0.731,0.731,1.132,1.703,1.132,2.738c0,1.033-0.4,2.005-1.132,2.737c-1.336,1.335-6.623,3.762-9.759,4.263
		c0.477-2.78,2.709-8.165,4.281-9.738C314.782,325.883,315.755,325.479,316.788,325.479z M323.852,350.274
		c-2.223,0-7.621-2.236-9.931-3.872c2.312-1.636,7.71-3.871,9.931-3.871c2.133,0,3.872,1.736,3.872,3.872
		C327.724,348.537,325.985,350.274,323.852,350.274z M299.738,374.387c-2.134,0-3.871-1.737-3.871-3.872
		c0-2.22,2.236-7.618,3.871-9.931c1.635,2.312,3.872,7.709,3.872,9.93C303.61,372.649,301.873,374.387,299.738,374.387z
		 M299.738,349.304c-1.6,0-2.901-1.302-2.901-2.902s1.301-2.901,2.901-2.901c1.602,0,2.903,1.301,2.903,2.901
		S301.339,349.304,299.738,349.304z M275.627,342.53c2.22,0,7.617,2.235,9.929,3.871c-2.311,1.637-7.708,3.872-9.929,3.872
		c-2.135,0-3.874-1.737-3.875-3.87C271.754,344.268,273.491,342.53,275.627,342.53z M291.464,347.747
		c0.216,1.333,0.746,2.561,1.513,3.604c-0.655-0.307-1.419-0.479-2.32-0.479c-0.684,0-1.493,0.102-2.367,0.276
		C290.243,349.837,291.106,348.695,291.464,347.747z M289.707,356.452c-0.474,2.779-2.708,8.164-4.281,9.736
		c-0.697,0.697-1.694,1.097-2.739,1.097c-1.043,0-2.041-0.399-2.736-1.094c-1.51-1.511-1.51-3.969-0.001-5.479
		C281.285,359.378,286.573,356.955,289.707,356.452z M294.838,353.202c1.06,0.766,2.305,1.287,3.655,1.489
		c-1.253,0.507-2.449,1.724-3.52,3.291C295.461,355.597,295.263,354.142,294.838,353.202z M300.984,354.691
		c1.35-0.202,2.593-0.724,3.653-1.489c-0.424,0.941-0.621,2.396-0.135,4.78C303.431,356.415,302.236,355.198,300.984,354.691z
		 M319.528,366.19c-0.697,0.695-1.695,1.095-2.739,1.095s-2.042-0.399-2.738-1.094c-1.574-1.575-3.808-6.961-4.281-9.74
		c3.136,0.504,8.421,2.928,9.756,4.263C321.036,362.223,321.036,364.681,319.528,366.19z M292.975,341.453
		c-0.781,1.063-1.314,2.314-1.522,3.676c-0.509-1.31-1.739-2.483-3.199-3.481c0.89,0.179,1.711,0.283,2.407,0.283
		C291.558,341.931,292.322,341.759,292.975,341.453z M308.817,350.872c-0.898,0-1.661,0.173-2.314,0.478
		c0.786-1.07,1.32-2.33,1.525-3.701c0.51,1.256,1.732,2.456,3.307,3.528C310.399,350.981,309.54,350.872,308.817,350.872z
		 M308.028,345.153c-0.205-1.37-0.739-2.63-1.525-3.7c0.653,0.306,1.418,0.478,2.316,0.478c0.723,0,1.582-0.11,2.516-0.305
		C309.76,342.699,308.537,343.897,308.028,345.153z M304.716,339.66c-1.077-0.797-2.348-1.342-3.73-1.549
		c1.277-0.518,2.495-1.774,3.58-3.387C304.227,336.465,304.132,338.299,304.716,339.66z M298.49,338.111
		c-1.398,0.21-2.681,0.765-3.765,1.575c0.56-1.285,0.535-3.067,0.148-5.019C295.968,336.307,297.198,337.587,298.49,338.111z"/>
	<path fill="#222221" d="M178.682,175.755c-8.39,0-15.216,6.826-15.216,15.217v38.442c0,1.441,1.172,2.614,2.611,2.614h25.209
		c1.44,0,2.611-1.173,2.611-2.614v-38.442C193.898,182.581,187.072,175.755,178.682,175.755z M178.682,180.98
		c5.51,0,9.993,4.482,9.993,9.992v35.831h-19.986v-35.831C168.689,185.462,173.172,180.98,178.682,180.98z"/>
	<path fill="#222221" d="M186.055,353.786h25.209c1.44,0,2.611-1.171,2.611-2.612v-38.442c0-8.39-6.826-15.216-15.217-15.216
		c-8.39,0-15.216,6.826-15.216,15.216v38.442C183.443,352.615,184.614,353.786,186.055,353.786z M198.659,302.738
		c5.51,0,9.993,4.482,9.993,9.993v35.83h-19.985v-35.83C188.667,307.221,193.149,302.738,198.659,302.738z"/>
	<path fill="#222221" d="M148.116,353.786h25.208c1.441,0,2.612-1.171,2.612-2.612v-38.442c0-8.39-6.826-15.216-15.216-15.216
		c-8.391,0-15.217,6.826-15.217,15.216v38.442C145.504,352.615,146.676,353.786,148.116,353.786z M160.721,302.738
		c5.509,0,9.991,4.482,9.991,9.993v35.83h-19.984v-35.83C150.728,307.221,155.211,302.738,160.721,302.738z"/>
	<path fill="#222221" d="M186.055,473.427h25.209c1.44,0,2.611-1.172,2.611-2.611v-38.444c0-8.391-6.826-15.218-15.217-15.218
		c-8.39,0-15.216,6.827-15.216,15.218v38.444C183.443,472.255,184.614,473.427,186.055,473.427z M198.659,422.378
		c5.51,0,9.993,4.483,9.993,9.993v35.831h-19.985v-35.831C188.667,426.861,193.149,422.378,198.659,422.378z"/>
	<path fill="#222221" d="M148.116,473.427h25.208c1.441,0,2.612-1.172,2.612-2.611v-38.444c0-8.391-6.826-15.218-15.216-15.218
		c-8.391,0-15.217,6.827-15.217,15.218v38.444C145.504,472.255,146.676,473.427,148.116,473.427z M160.721,422.378
		c5.509,0,9.991,4.483,9.991,9.993v35.831h-19.984v-35.831C150.728,426.861,155.211,422.378,160.721,422.378z"/>
	<path fill="#222221" d="M186.055,540.211h25.209c1.44,0,2.611-1.172,2.611-2.611v-38.444c0-8.391-6.826-15.217-15.217-15.217
		c-8.39,0-15.216,6.826-15.216,15.217V537.6C183.443,539.039,184.614,540.211,186.055,540.211z M198.659,489.162
		c5.51,0,9.993,4.483,9.993,9.993v35.831h-19.985v-35.831C188.667,493.646,193.149,489.162,198.659,489.162z"/>
	<path fill="#222221" d="M148.116,540.211h25.208c1.441,0,2.612-1.172,2.612-2.611v-38.444c0-8.391-6.826-15.217-15.216-15.217
		c-8.391,0-15.217,6.826-15.217,15.217V537.6C145.504,539.039,146.676,540.211,148.116,540.211z M160.721,489.162
		c5.509,0,9.991,4.483,9.991,9.993v35.831h-19.984v-35.831C150.728,493.646,155.211,489.162,160.721,489.162z"/>
	<path fill="#222221" d="M469.809,241.219c0.156-0.486,0.166-0.995,0.029-1.483L418.572,57.082V39.089
		c0-1.441-1.171-2.612-2.611-2.612c-1.439,0-2.612,1.171-2.612,2.612v18.067l-40.483,182.252h-43.615l-26.897-28.672v-14.723
		c0-1.44-1.173-2.612-2.614-2.612c-1.439,0-2.611,1.172-2.611,2.612v14.736l-26.392,28.659h-52.511v-67.81h3.754
		c1.439,0,2.611-1.171,2.611-2.613c0-1.439-1.172-2.611-2.611-2.611h-3.754V146.3c0-0.055-0.006-0.107-0.019-0.219
		c-0.006-0.094-0.014-0.186-0.032-0.279c-0.021-0.107-0.053-0.207-0.093-0.331c-0.012-0.048-0.026-0.095-0.054-0.169l-35.724-88.368
		V39.089c0-1.441-1.171-2.612-2.611-2.612s-2.612,1.171-2.612,2.612v17.845l-35.714,88.342l-0.045,0.125
		c-0.011,0.033-0.021,0.072-0.035,0.123c-0.03,0.091-0.059,0.182-0.078,0.278c-0.02,0.104-0.027,0.207-0.037,0.344
		c-0.007,0.05-0.012,0.101-0.012,0.186v20.042h-5.77c-1.441,0-2.612,1.172-2.612,2.611c0,1.441,1.171,2.613,2.612,2.613h5.77v67.81
		h-8.481c-1.44,0-2.612,1.171-2.612,2.612v318.893c0,1.439,1.172,2.611,2.612,2.611h105.733c1.44,0,2.611-1.172,2.611-2.611v-46.101
		c0-0.042,0.001-0.083,0.002-0.125h24.681c0,0.042,0.002,0.083,0.002,0.125v46.101c0,1.439,1.171,2.611,2.612,2.611h13.721
		c1.44,0,2.612-1.172,2.612-2.611v-57.768c0-0.227,0.006-0.451,0.018-0.675h30.663c0.012,0.224,0.019,0.448,0.019,0.675v57.768
		c0,1.439,1.17,2.611,2.611,2.611h13.722c1.44,0,2.611-1.172,2.611-2.611v-46.101c0-0.042,0.001-0.083,0.001-0.125h24.682
		c0,0.042,0.002,0.083,0.002,0.125v46.101c0,1.439,1.171,2.611,2.612,2.611h105.733c1.44,0,2.611-1.172,2.611-2.611V242.02
		C469.936,241.746,469.894,241.478,469.809,241.219z M464.71,256.674V558.3h-86.787V256.674H464.71z M378.217,239.408
		l38.038-171.247l48.064,171.247H378.217z M464.71,244.632v6.816h-86.787v-6.816H464.71z M346.636,502.47
		c4.778,0,9.058,2.72,11.114,6.993h-22.228C337.579,505.189,341.858,502.47,346.636,502.47z M300,487.797
		c6.197,0,11.796,3.767,14.168,9.45h-28.337C288.205,491.563,293.804,487.797,300,487.797z M253.364,502.47
		c4.778,0,9.057,2.72,11.114,6.993H242.25C244.305,505.189,248.585,502.47,253.364,502.47z M346.636,497.247
		c-8.436,0-15.694,6.015-17.262,14.325c-0.204,1.08-0.306,2.169-0.306,3.239V558.3h-8.496v-55.155
		c0-11.344-9.228-20.572-20.573-20.572c-9.883,0-18.384,7.048-20.218,16.784c-0.236,1.263-0.355,2.537-0.355,3.788V558.3h-8.497
		v-43.488c0-9.686-7.881-17.564-17.566-17.564c-8.435,0-15.692,6.014-17.263,14.333c-0.201,1.076-0.302,2.163-0.302,3.231V558.3
		H227.3V406.39h145.398V558.3h-8.495v-43.488C364.202,505.126,356.322,497.247,346.636,497.247z M372.698,291.689v109.477H227.3
		V291.689H372.698z M227.3,273.439v-28.807h4.479v28.807H227.3z M237.003,273.439v-28.807h4.148v28.807H237.003z M246.375,273.439
		v-28.807h4.148v28.807H246.375z M255.748,273.439v-28.807h4.148v28.807H255.748z M265.122,273.439v-28.807h4.148v28.807H265.122z
		 M316.134,244.632v28.807h-4.148v-28.807H316.134z M306.76,244.632v28.807h-4.148v-28.807H306.76z M297.388,244.632v28.807h-4.149
		v-28.807H297.388z M288.015,244.632v28.807h-4.148v-28.807H288.015z M277.838,239.408l21.918-23.801l22.33,23.801H277.838z
		 M325.505,244.632v28.807h-4.148v-28.807H325.505z M274.493,273.439v-28.807h4.148v28.807H274.493z M330.73,273.439v-28.807h4.148
		v28.807H330.73z M340.103,273.439v-28.807h4.146v28.807H340.103z M349.475,273.439v-28.807h4.15v28.807H349.475z M358.848,273.439
		v-28.807h4.148v28.807H358.848z M372.698,278.664v7.801H227.3v-7.801H372.698z M372.698,244.632v28.807h-4.477v-28.807H372.698z
		 M222.075,256.674V558.3h-86.788V256.674H222.075z M147.642,143.688l32.049-79.276l32.047,79.276H147.642z M146.382,166.374
		v-17.463h66.617v17.463H146.382z M146.382,239.408v-67.81h66.617v67.81H146.382z M222.075,244.632v6.816h-86.788v-6.816H222.075z"
		/>
	<path fill="#222221" d="M428.691,353.786h25.208c1.44,0,2.612-1.171,2.612-2.612v-38.442c0-8.39-6.825-15.216-15.215-15.216
		c-8.393,0-15.219,6.826-15.219,15.216v38.442C426.077,352.615,427.249,353.786,428.691,353.786z M441.296,302.738
		c5.51,0,9.99,4.482,9.99,9.993v35.83h-19.983v-35.83C431.303,307.221,435.785,302.738,441.296,302.738z"/>
	<path fill="#222221" d="M390.752,353.786h25.208c1.44,0,2.611-1.171,2.611-2.612v-38.442c0-8.39-6.824-15.216-15.214-15.216
		c-8.393,0-15.219,6.826-15.219,15.216v38.442C388.139,352.615,389.312,353.786,390.752,353.786z M403.358,302.738
		c5.51,0,9.99,4.482,9.99,9.993v35.83h-19.984v-35.83C393.364,307.221,397.847,302.738,403.358,302.738z"/>
	<path fill="#222221" d="M428.691,473.427h25.208c1.44,0,2.612-1.172,2.612-2.611v-38.444c0-8.391-6.825-15.218-15.215-15.218
		c-8.393,0-15.219,6.827-15.219,15.218v38.444C426.077,472.255,427.249,473.427,428.691,473.427z M441.296,422.378
		c5.51,0,9.99,4.483,9.99,9.993v35.831h-19.983v-35.831C431.303,426.861,435.785,422.378,441.296,422.378z"/>
	<path fill="#222221" d="M390.752,473.427h25.208c1.44,0,2.611-1.172,2.611-2.611v-38.444c0-8.391-6.824-15.218-15.214-15.218
		c-8.393,0-15.219,6.827-15.219,15.218v38.444C388.139,472.255,389.312,473.427,390.752,473.427z M403.358,422.378
		c5.51,0,9.99,4.483,9.99,9.993v35.831h-19.984v-35.831C393.364,426.861,397.847,422.378,403.358,422.378z"/>
	<path fill="#222221" d="M428.691,540.211h25.208c1.44,0,2.612-1.172,2.612-2.611v-38.444c0-8.391-6.825-15.217-15.215-15.217
		c-8.393,0-15.219,6.826-15.219,15.217V537.6C426.077,539.039,427.249,540.211,428.691,540.211z M441.296,489.162
		c5.51,0,9.99,4.483,9.99,9.993v35.831h-19.983v-35.831C431.303,493.646,435.785,489.162,441.296,489.162z"/>
	<path fill="#222221" d="M390.752,540.211h25.208c1.44,0,2.611-1.172,2.611-2.611v-38.444c0-8.391-6.824-15.217-15.214-15.217
		c-8.393,0-15.219,6.826-15.219,15.217V537.6C388.139,539.039,389.312,540.211,390.752,540.211z M403.358,489.162
		c5.51,0,9.99,4.483,9.99,9.993v35.831h-19.984v-35.831C393.364,493.646,397.847,489.162,403.358,489.162z"/>
</g>
</svg>
