<?xml version="1.0" encoding="utf-8"?>
<!-- Generator: Adobe Illustrator 15.0.0, SVG Export Plug-In . SVG Version: 6.00 Build 0)  -->
<!DOCTYPE svg PUBLIC "-//W3C//DTD SVG 1.1//EN" "http://www.w3.org/Graphics/SVG/1.1/DTD/svg11.dtd">
<svg version="1.1" id="Capa_1" xmlns="http://www.w3.org/2000/svg" xmlns:xlink="http://www.w3.org/1999/xlink" x="0px" y="0px"
	 width="600px" height="600px" viewBox="0 0 600 600" enable-background="new 0 0 600 600" xml:space="preserve">
<g>
	<path fill="#222221" d="M412.316,241.847h-14.181c-1.41,0-2.553,1.144-2.553,2.553v30.062c0,1.409,1.143,2.552,2.553,2.552h14.181
		c1.41,0,2.553-1.143,2.553-2.552V244.4C414.868,242.991,413.726,241.847,412.316,241.847z M409.764,271.91h-9.077v-24.958h9.077
		V271.91z"/>
	<path fill="#222221" d="M505.407,193.352h-14.181c-1.41,0-2.553,1.144-2.553,2.553v30.062c0,1.409,1.143,2.552,2.553,2.552h14.181
		c1.409,0,2.552-1.143,2.552-2.552v-30.062C507.959,194.495,506.817,193.352,505.407,193.352z M502.855,223.414h-9.075v-24.958
		h9.075V223.414z"/>
	<path fill="#222221" d="M201.804,241.825h-14.181c-1.409,0-2.552,1.144-2.552,2.553v30.062c0,1.409,1.143,2.552,2.552,2.552h14.181
		c1.409,0,2.552-1.143,2.552-2.552v-30.062C204.356,242.968,203.213,241.825,201.804,241.825z M199.251,271.887h-9.075V246.93h9.075
		V271.887z"/>
	<path fill="#222221" d="M301.652,372.464c-0.951-0.81-2.351-0.81-3.304,0c-2.008,1.704-19.618,16.982-19.618,28.178v40.697
		c0,1.41,1.143,2.553,2.552,2.553h37.436c1.41,0,2.552-1.143,2.552-2.553v-40.697C321.27,389.446,303.66,374.168,301.652,372.464z
		 M316.165,438.787h-32.33v-38.146c0-6.771,10.48-17.676,16.166-22.832c5.685,5.152,16.164,16.052,16.164,22.832V438.787z"/>
	<path fill="#222221" d="M400.77,372.464c-0.952-0.81-2.351-0.81-3.303,0c-2.009,1.704-19.618,16.982-19.618,28.178v40.697
		c0,1.41,1.142,2.553,2.552,2.553h37.436c1.41,0,2.553-1.143,2.553-2.553v-40.697C420.389,389.446,402.779,374.168,400.77,372.464z
		 M415.283,438.787h-32.33v-38.146c0-6.771,10.481-17.676,16.166-22.832c5.685,5.152,16.164,16.052,16.164,22.832V438.787z"/>
	<path fill="#222221" d="M202.534,372.464c-0.953-0.81-2.351-0.81-3.304,0c-2.008,1.704-19.618,16.982-19.618,28.178v40.697
		c0,1.41,1.143,2.553,2.552,2.553h37.435c1.41,0,2.553-1.143,2.553-2.553v-40.697C222.152,389.446,204.542,374.168,202.534,372.464z
		 M217.047,438.787h-32.331v-38.146c0-6.771,10.481-17.676,16.167-22.832c5.685,5.152,16.164,16.052,16.164,22.832V438.787z"/>
	<path fill="#222221" d="M540.777,343.638c0-4.45-3.125-8.178-7.293-9.122v-83.748c3.31-1.611,5.602-4.999,5.602-8.921
		c0-5.473-4.452-9.925-9.927-9.925h-5.388v-40.942c4.837-0.661,8.578-4.808,8.578-9.823c0-5.473-4.453-9.925-9.926-9.925h-2.164
		c-0.826-10.667-9.173-19.254-19.734-20.449c0.009-0.084,0.026-0.167,0.026-0.253V138.05c0-1.409-1.143-2.553-2.553-2.553
		s-2.553,1.144-2.553,2.553v12.479c0,0.086,0.018,0.169,0.026,0.253c-10.562,1.195-18.908,9.782-19.734,20.449h-2.661
		c-5.473,0-9.925,4.453-9.925,9.925c0,5.187,3.999,9.449,9.074,9.883v40.882h-5.885c-5.474,0-9.927,4.453-9.927,9.925
		c0,3.922,2.292,7.31,5.602,8.921v69.047h-21.624v-20.552c3.31-1.611,5.602-4.999,5.602-8.92c0-5.473-4.453-9.925-9.927-9.925
		h-5.388v-40.942c4.836-0.661,8.578-4.808,8.578-9.823c0-5.473-4.452-9.925-9.926-9.925h-2.165
		c-0.825-10.667-9.172-19.254-19.733-20.449c0.009-0.085,0.025-0.167,0.025-0.253v-12.479c0-1.409-1.142-2.553-2.552-2.553
		s-2.553,1.144-2.553,2.553v12.479c0,0.086,0.018,0.168,0.025,0.253c-10.561,1.195-18.906,9.782-19.732,20.449h-2.661
		c-5.474,0-9.927,4.453-9.927,9.925c0,5.187,4,9.45,9.076,9.883v40.882h-5.886c-5.474,0-9.926,4.453-9.926,9.925
		c0,3.923,2.292,7.31,5.602,8.921v20.552h-14.474v-50.747c3.728-0.838,6.522-4.169,6.522-8.146c0-4.032-2.872-7.406-6.678-8.186
		c-1.043-8.276-7.439-14.904-15.603-16.296v-7.866c0-1.41-1.143-2.552-2.553-2.552s-2.553,1.142-2.553,2.552v7.591h-67.177v-7.591
		c0-1.41-1.143-2.552-2.552-2.552s-2.552,1.142-2.552,2.552v7.866c-8.164,1.393-14.56,8.021-15.603,16.296
		c-3.806,0.779-6.678,4.153-6.678,8.186c0,3.977,2.795,7.308,6.523,8.146v50.747h-14.535v-20.574
		c3.309-1.612,5.601-4.999,5.601-8.921c0-5.473-4.453-9.925-9.926-9.925h-5.885v-40.882c5.076-0.434,9.075-4.697,9.075-9.883
		c0-5.473-4.453-9.925-9.926-9.925h-2.662c-0.826-10.667-9.172-19.254-19.733-20.449c0.008-0.085,0.025-0.167,0.025-0.253v-12.479
		c0-1.409-1.143-2.552-2.552-2.552c-1.41,0-2.553,1.143-2.553,2.552v12.479c0,0.086,0.017,0.168,0.025,0.253
		c-10.561,1.195-18.907,9.782-19.733,20.449h-2.164c-5.474,0-9.926,4.453-9.926,9.925c0,5.015,3.742,9.163,8.579,9.823v40.942
		h-5.389c-5.473,0-9.926,4.453-9.926,9.925c0,3.922,2.292,7.309,5.601,8.921v20.574h-21.625v-69.07
		c3.31-1.612,5.602-4.999,5.602-8.921c0-5.473-4.453-9.925-9.926-9.925h-5.885v-40.882c5.076-0.434,9.076-4.697,9.076-9.883
		c0-5.473-4.453-9.925-9.926-9.925H124.2c-0.826-10.667-9.172-19.254-19.733-20.449c0.008-0.084,0.025-0.167,0.025-0.253v-12.479
		c0-1.409-1.143-2.553-2.552-2.553s-2.552,1.144-2.552,2.553v12.479c0,0.086,0.017,0.169,0.025,0.253
		c-10.561,1.195-18.907,9.782-19.733,20.449h-2.165c-5.473,0-9.926,4.453-9.926,9.925c0,5.015,3.742,9.163,8.578,9.823v40.942H70.78
		c-5.473,0-9.926,4.453-9.926,9.925c0,3.922,2.292,7.309,5.601,8.921v83.786c-4.138,0.967-7.231,4.679-7.231,9.106
		s3.094,8.138,7.231,9.105v109.208c0,1.41,1.143,2.553,2.553,2.553h66.362h328.984c0.071,0.006,0.141,0.021,0.214,0.021h66.362
		c1.41,0,2.553-1.143,2.553-2.553V352.759C537.652,351.814,540.777,348.088,540.777,343.638z M467.121,251.773h61.258v82.506
		h-61.258V251.773z M497.998,155.739c8.913,0,16.268,6.804,17.142,15.492h-34.283C481.731,162.543,489.085,155.739,497.998,155.739z
		 M468.256,181.156c0-2.658,2.163-4.82,4.82-4.82h49.347c2.658,0,4.82,2.163,4.82,4.82c0,2.659-2.162,4.821-4.82,4.821h-1.205
		h-46.439h-1.702C470.419,185.978,468.256,183.815,468.256,181.156z M477.33,191.083h41.336v40.839H477.33V191.083z
		 M466.341,237.027h8.438h46.439h7.94c2.659,0,4.822,2.163,4.822,4.82c0,2.659-2.163,4.822-4.822,4.822h-62.817
		c-2.659,0-4.821-2.163-4.821-4.822C461.52,239.189,463.682,237.027,466.341,237.027z M462.016,324.92v9.359h-21.624v-9.359H462.016
		z M374.03,334.279v-9.359h61.258v9.359H374.03z M404.906,204.235c8.913,0,16.268,6.804,17.142,15.491h-34.282
		C388.64,211.039,395.992,204.235,404.906,204.235z M375.164,229.652c0-2.658,2.162-4.821,4.821-4.821h49.346
		c2.658,0,4.821,2.163,4.821,4.821c0,2.659-2.163,4.822-4.821,4.822h-1.205h-46.439h-1.701
		C377.326,234.474,375.164,232.311,375.164,229.652z M384.24,239.578h41.334v40.839H384.24V239.578z M373.249,285.522h8.438h46.439
		h7.94c2.659,0,4.821,2.163,4.821,4.82c0,2.659-2.162,4.822-4.821,4.822h-62.817c-2.658,0-4.821-2.163-4.821-4.822
		C368.428,287.685,370.591,285.522,373.249,285.522z M374.03,300.269h61.258v19.546H374.03V300.269z M368.925,324.92v9.359h-14.474
		v-9.359H368.925z M250.654,324.92h5.247v5.956c0,1.409,1.143,2.552,2.552,2.552h19.285c1.41,0,2.553-1.143,2.553-2.552v-5.956
		h7.515v5.956c0,1.409,1.143,2.552,2.552,2.552h19.285c1.41,0,2.553-1.143,2.553-2.552v-5.956h7.516v5.956
		c0,1.409,1.142,2.552,2.552,2.552h19.285c1.41,0,2.553-1.143,2.553-2.552v-5.956h5.246v9.359h-98.693V324.92z M275.186,319.815
		h-14.18v-42.801h14.18V319.815z M275.186,324.92v3.403h-14.18v-3.403H275.186z M307.091,319.815H292.91v-42.801h14.181V319.815z
		 M307.091,324.92v3.403H292.91v-3.403H307.091z M338.995,319.815h-14.18v-42.801h14.18V319.815z M338.995,324.92v3.403h-14.18
		v-3.403H338.995z M264.503,241.271h70.994c6.764,0,12.401,4.877,13.604,11.297H250.9
		C252.102,246.148,257.74,241.271,264.503,241.271z M244.131,260.923c0-1.792,1.458-3.25,3.25-3.25h105.237
		c1.792,0,3.251,1.458,3.251,3.25c0,1.792-1.459,3.25-3.251,3.25h-0.72H248.101h-0.72
		C245.589,264.173,244.131,262.715,244.131,260.923z M250.654,269.278h98.693v50.537h-5.246v-45.354c0-1.41-1.143-2.552-2.553-2.552
		h-19.285c-1.41,0-2.552,1.142-2.552,2.552v45.354h-7.516v-45.354c0-1.41-1.143-2.552-2.553-2.552h-19.285
		c-1.41,0-2.552,1.142-2.552,2.552v45.354h-7.515v-45.354c0-1.41-1.143-2.552-2.553-2.552h-19.285c-1.409,0-2.552,1.142-2.552,2.552
		v45.354h-5.247V269.278z M245.549,324.92v9.359h-14.535v-9.359H245.549z M164.652,324.92h61.257v9.359h-61.257V324.92z
		 M195.032,204.213c8.913,0,16.267,6.804,17.141,15.491h-34.282C178.765,211.017,186.119,204.213,195.032,204.213z M165.787,229.629
		c0-2.658,2.163-4.82,4.821-4.82h49.346c2.658,0,4.821,2.163,4.821,4.82c0,2.659-2.163,4.822-4.821,4.822h-1.702h-46.439h-1.205
		C167.949,234.451,165.787,232.288,165.787,229.629z M174.365,239.556h41.334v40.839h-41.334V239.556z M163.872,285.5h7.941h46.439
		h8.438c2.658,0,4.821,2.163,4.821,4.82c0,2.659-2.163,4.822-4.821,4.822h-62.818c-2.658,0-4.821-2.163-4.821-4.822
		C159.051,287.663,161.214,285.5,163.872,285.5z M164.652,300.247h61.257v19.569h-61.257V300.247z M159.547,324.92v9.359h-21.625
		v-9.359H159.547z M132.818,320.245c-0.684,0.459-1.135,1.237-1.135,2.122s0.451,1.664,1.135,2.121v9.791H71.56v-82.528h61.258
		V320.245z M101.941,155.717c8.914,0,16.267,6.804,17.141,15.492H84.8C85.674,162.521,93.027,155.717,101.941,155.717z
		 M72.695,181.134c0-2.658,2.163-4.82,4.821-4.82h49.346c2.658,0,4.821,2.163,4.821,4.82c0,2.659-2.163,4.821-4.821,4.821h-1.702
		H78.721h-1.205C74.858,185.955,72.695,183.792,72.695,181.134z M81.274,191.06h41.334v40.839H81.274V191.06z M70.78,237.004h7.941
		h46.439h8.438c2.659,0,4.821,2.163,4.821,4.82c0,2.659-2.163,4.822-4.821,4.822H70.78c-2.658,0-4.821-2.163-4.821-4.822
		C65.959,239.167,68.122,237.004,70.78,237.004z M71.56,352.996h61.258v106.402H71.56V352.996z M137.923,352.996h324.093v106.402
		H137.923V352.996z M467.183,459.42V352.996h61.196V459.42H467.183z M531.418,347.892H464.63H135.37H68.582
		c-2.345,0-4.254-1.908-4.254-4.254s1.909-4.254,4.254-4.254h93.517h66.363h19.639h103.797h19.356
		c0.074,0.007,0.146,0.022,0.223,0.022h66.362c0.076,0,0.147-0.016,0.223-0.022h93.355c2.346,0,4.254,1.908,4.254,4.254
		S533.764,347.892,531.418,347.892z"/>
	<path fill="#222221" d="M108.712,193.329h-14.18c-1.41,0-2.552,1.144-2.552,2.553v30.062c0,1.409,1.143,2.552,2.552,2.552h14.18
		c1.41,0,2.552-1.143,2.552-2.552v-30.062C111.264,194.473,110.122,193.329,108.712,193.329z M106.16,223.392h-9.076v-24.958h9.076
		V223.392z"/>
</g>
</svg>
