<?xml version="1.0" encoding="utf-8"?>
<!-- Generator: Adobe Illustrator 15.0.0, SVG Export Plug-In . SVG Version: 6.00 Build 0)  -->
<!DOCTYPE svg PUBLIC "-//W3C//DTD SVG 1.1//EN" "http://www.w3.org/Graphics/SVG/1.1/DTD/svg11.dtd">
<svg version="1.1" id="Capa_1" xmlns="http://www.w3.org/2000/svg" xmlns:xlink="http://www.w3.org/1999/xlink" x="0px" y="0px"
	 width="600px" height="600px" viewBox="0 0 600 600" enable-background="new 0 0 600 600" xml:space="preserve">
<g>
	<path fill="#222221" d="M55.303,323.719h19.429c2.084,0,3.779-1.697,3.779-3.782v-26.072c0-7.439-6.054-13.492-13.494-13.492
		c-7.44,0-13.493,6.053-13.493,13.492v26.072C51.524,322.021,53.219,323.719,55.303,323.719z M65.017,287.931
		c3.271,0,5.933,2.662,5.933,5.933v22.293H59.083v-22.293C59.083,290.593,61.745,287.931,65.017,287.931z"/>
	<path fill="#222221" d="M107.164,323.719h19.426c2.084,0,3.779-1.697,3.779-3.782v-26.072c0-7.439-6.053-13.492-13.493-13.492
		c-7.44,0-13.493,6.053-13.493,13.492v26.072C103.384,322.021,105.08,323.719,107.164,323.719z M116.877,287.931
		c3.273,0,5.935,2.662,5.935,5.933v22.293h-11.868v-22.293C110.944,290.593,113.606,287.931,116.877,287.931z"/>
	<path fill="#222221" d="M156.755,323.719h19.426c2.084,0,3.779-1.697,3.779-3.782v-26.072c0-7.439-6.053-13.492-13.493-13.492
		c-7.44,0-13.495,6.053-13.495,13.492v26.072C152.973,322.021,154.669,323.719,156.755,323.719z M166.468,287.931
		c3.273,0,5.935,2.662,5.935,5.933v22.293h-11.868v-22.293C160.534,290.593,163.196,287.931,166.468,287.931z"/>
	<path fill="#222221" d="M584.452,255.51l-97.55-150.389V83.745c0-2.084-1.696-3.78-3.78-3.78c-2.085,0-3.779,1.696-3.779,3.78
		v21.376l-95.659,147.475v-40.439c0-2.084-1.695-3.78-3.779-3.78h-29.384v-49.197c0-2.084-1.696-3.78-3.781-3.78h-24.666v-32.798
		c0-2.085-1.696-3.781-3.781-3.781h-37.209c-2.084,0-3.781,1.696-3.781,3.781v32.798h-24.671c-2.084,0-3.779,1.696-3.779,3.78
		v49.197H219.47c-2.084,0-3.779,1.696-3.779,3.78v39.474l-95.035-146.511V83.745c0-2.084-1.695-3.78-3.779-3.78
		s-3.779,1.696-3.779,3.78v21.375L15.55,255.51c-0.757,1.162-0.815,2.641-0.153,3.86c0.663,1.22,1.934,1.977,3.321,1.977h16.671
		v74.921h-8.733c-2.084,0-3.779,1.694-3.779,3.779c0,2.084,1.695,3.779,3.779,3.779h8.733v66.743h-8.733
		c-2.084,0-3.779,1.694-3.779,3.779c0,2.084,1.695,3.779,3.779,3.779h8.733v98.126c0,2.085,1.695,3.782,3.779,3.782h175.241
		c2.084,0,3.779-1.697,3.779-3.782c0-44.936,36.56-81.495,81.499-81.495c44.938,0,81.497,36.56,81.497,81.495
		c0,2.085,1.696,3.782,3.781,3.782h19.825c0.104,0,0.202-0.011,0.326-0.025c0.098,0.015,0.196,0.025,0.298,0.025h155.418
		c2.084,0,3.779-1.697,3.779-3.782v-98.126h8.732c2.084,0,3.78-1.695,3.78-3.779c0-2.085-1.696-3.779-3.78-3.779h-8.732v-66.743
		h8.732c2.084,0,3.78-1.695,3.78-3.779c0-2.085-1.696-3.779-3.78-3.779h-8.732v-74.921h16.671c1.386,0,2.657-0.757,3.32-1.976
		C585.266,258.152,585.207,256.673,584.452,255.51z M557.051,418.128v94.347H409.194v-94.347H557.051z M557.051,343.826v66.743
		H409.194v-66.743H557.051z M557.051,261.347v74.921H409.194v-74.921H557.051z M190.807,418.128v94.347H42.948v-94.347H190.807z
		 M190.807,343.826v66.743H42.948v-66.743H190.807z M190.807,261.347v74.921H42.948v-74.921H190.807z M208.078,253.787H25.676
		l91.201-140.602L208.078,253.787z M318.292,162.958h24.668v49.198c0,2.084,1.695,3.779,3.779,3.779h29.384v37.851H223.249v-37.851
		h29.382c2.084,0,3.781-1.695,3.781-3.779v-49.198h24.671c2.084,0,3.779-1.695,3.779-3.779v-32.8h29.65v32.8
		C314.513,161.264,316.208,162.958,318.292,162.958z M401.011,261.347v74.921H198.365v-74.921H401.011z M401.011,343.826v66.743
		H198.365v-66.743H401.011z M401.011,418.128v94.347h-12.346c-0.958-22.839-10.551-44.188-27.061-60.175
		c-16.716-16.187-38.705-25.103-61.917-25.103s-45.202,8.916-61.918,25.103c-16.51,15.987-26.104,37.336-27.062,60.175h-12.341
		v-94.347H401.011z M574.324,253.787H391.919l91.203-140.602L574.324,253.787z"/>
	<path fill="#222221" d="M423.819,323.719h19.427c2.085,0,3.779-1.697,3.779-3.782v-26.072c0-7.439-6.053-13.492-13.493-13.492
		s-13.493,6.053-13.493,13.492v26.072C420.038,322.021,421.735,323.719,423.819,323.719z M433.531,287.931
		c3.272,0,5.935,2.662,5.935,5.933v22.293h-11.868v-22.293C427.598,290.593,430.26,287.931,433.531,287.931z"/>
	<path fill="#222221" d="M473.408,323.719h19.428c2.084,0,3.78-1.697,3.78-3.782v-26.072c0-7.439-6.054-13.492-13.494-13.492
		s-13.493,6.053-13.493,13.492v26.072C469.629,322.021,471.323,323.719,473.408,323.719z M483.122,287.931
		c3.272,0,5.935,2.662,5.935,5.933v22.293h-11.868v-22.293C477.189,290.593,479.851,287.931,483.122,287.931z"/>
	<path fill="#222221" d="M523,323.719h19.427c2.084,0,3.779-1.697,3.779-3.782v-26.072c0-7.439-6.053-13.492-13.493-13.492
		s-13.493,6.053-13.493,13.492v26.072C519.22,322.021,520.916,323.719,523,323.719z M532.713,287.931
		c3.271,0,5.933,2.662,5.933,5.933v22.293H526.78v-22.293C526.78,290.593,529.442,287.931,532.713,287.931z"/>
	<path fill="#222221" d="M220.716,395.291h19.428c2.084,0,3.779-1.695,3.779-3.779v-26.073c0-7.439-6.053-13.492-13.493-13.492
		c-7.44,0-13.495,6.053-13.495,13.492v26.073C216.935,393.596,218.631,395.291,220.716,395.291z M230.429,359.505
		c3.273,0,5.935,2.66,5.935,5.934v22.294h-11.869v-22.294C224.495,362.165,227.156,359.505,230.429,359.505z"/>
	<path fill="#222221" d="M255.345,395.291h19.426c2.084,0,3.779-1.695,3.779-3.779v-26.073c0-7.439-6.053-13.492-13.493-13.492
		c-7.44,0-13.493,6.053-13.493,13.492v26.073C251.565,393.596,253.26,395.291,255.345,395.291z M265.057,359.505
		c3.273,0,5.935,2.66,5.935,5.934v22.294h-11.867v-22.294C259.126,362.165,261.786,359.505,265.057,359.505z"/>
	<path fill="#222221" d="M289.973,395.291H309.4c2.084,0,3.78-1.695,3.78-3.779v-26.073c0-7.439-6.053-13.492-13.493-13.492
		c-7.44,0-13.493,6.053-13.493,13.492v26.073C286.194,393.596,287.889,395.291,289.973,395.291z M299.687,359.505
		c3.271,0,5.933,2.66,5.933,5.934v22.294h-11.866v-22.294C293.754,362.165,296.416,359.505,299.687,359.505z"/>
	<path fill="#222221" d="M324.603,395.291h19.428c2.085,0,3.779-1.695,3.779-3.779v-26.073c0-7.439-6.053-13.492-13.491-13.492
		c-7.44,0-13.495,6.053-13.495,13.492v26.073C320.823,393.596,322.519,395.291,324.603,395.291z M334.319,359.505
		c3.271,0,5.933,2.66,5.933,5.934v22.294h-11.868v-22.294C328.383,362.165,331.045,359.505,334.319,359.505z"/>
	<path fill="#222221" d="M359.233,395.291h19.426c2.085,0,3.781-1.695,3.781-3.779v-26.073c0-7.439-6.055-13.492-13.495-13.492
		c-7.438,0-13.491,6.053-13.491,13.492v26.073C355.453,393.596,357.148,395.291,359.233,395.291z M368.945,359.505
		c3.273,0,5.935,2.66,5.935,5.934v22.294h-11.867v-22.294C363.012,362.165,365.674,359.505,368.945,359.505z"/>
	<path fill="#222221" d="M220.716,329.171h19.428c2.084,0,3.779-1.695,3.779-3.779v-26.074c0-7.44-6.053-13.495-13.493-13.495
		c-7.44,0-13.495,6.054-13.495,13.495v26.074C216.935,327.476,218.631,329.171,220.716,329.171z M230.429,293.384
		c3.273,0,5.935,2.662,5.935,5.933v22.292h-11.869v-22.292C224.495,296.046,227.156,293.384,230.429,293.384z"/>
	<path fill="#222221" d="M255.345,329.171h19.426c2.084,0,3.779-1.695,3.779-3.779v-26.074c0-7.44-6.053-13.495-13.493-13.495
		c-7.44,0-13.493,6.054-13.493,13.495v26.074C251.565,327.476,253.26,329.171,255.345,329.171z M265.057,293.384
		c3.273,0,5.935,2.662,5.935,5.933v22.292h-11.867v-22.292C259.126,296.046,261.786,293.384,265.057,293.384z"/>
	<path fill="#222221" d="M289.973,329.171H309.4c2.084,0,3.78-1.695,3.78-3.779v-26.074c0-7.44-6.053-13.495-13.493-13.495
		c-7.44,0-13.493,6.054-13.493,13.495v26.074C286.194,327.476,287.889,329.171,289.973,329.171z M299.687,293.384
		c3.271,0,5.933,2.662,5.933,5.933v22.292h-11.866v-22.292C293.754,296.046,296.416,293.384,299.687,293.384z"/>
	<path fill="#222221" d="M324.603,329.171h19.428c2.085,0,3.779-1.695,3.779-3.779v-26.074c0-7.44-6.053-13.495-13.491-13.495
		c-7.44,0-13.495,6.054-13.495,13.495v26.074C320.823,327.476,322.519,329.171,324.603,329.171z M334.319,293.384
		c3.271,0,5.933,2.662,5.933,5.933v22.292h-11.868v-22.292C328.383,296.046,331.045,293.384,334.319,293.384z"/>
	<path fill="#222221" d="M359.233,329.171h19.426c2.085,0,3.781-1.695,3.781-3.779v-26.074c0-7.44-6.055-13.495-13.495-13.495
		c-7.438,0-13.491,6.054-13.491,13.495v26.074C355.453,327.476,357.148,329.171,359.233,329.171z M368.945,293.384
		c3.273,0,5.935,2.662,5.935,5.933v22.292h-11.867v-22.292C363.012,296.046,365.674,293.384,368.945,293.384z"/>
	<path fill="#222221" d="M248.274,220.385h-16.899c-2.084,0-3.779,1.696-3.779,3.78v23.858c0,2.084,1.695,3.779,3.779,3.779h16.899
		c2.084,0,3.779-1.695,3.779-3.779v-23.858C252.053,222.081,250.358,220.385,248.274,220.385z M244.493,227.944v16.298h-9.339
		v-16.298H244.493z"/>
	<path fill="#222221" d="M351.727,251.803h16.899c2.085,0,3.78-1.695,3.78-3.779v-23.858c0-2.084-1.695-3.78-3.78-3.78h-16.899
		c-2.084,0-3.779,1.696-3.779,3.78v23.858C347.948,250.108,349.643,251.803,351.727,251.803z M355.507,244.243v-16.298h9.34v16.298
		H355.507z"/>
	<path fill="#222221" d="M309.714,127.509h-19.428c-2.084,0-3.779,1.696-3.779,3.781v116.733c0,2.084,1.695,3.779,3.779,3.779
		h19.428c2.084,0,3.779-1.695,3.779-3.779V131.29C313.493,129.206,311.798,127.509,309.714,127.509z M305.934,203.576v40.667
		h-11.865v-40.667H305.934z M305.934,147.509v48.506h-11.865v-48.506H305.934z M305.934,135.069v4.881h-11.865v-4.881H305.934z"/>
	<path fill="#222221" d="M319.939,251.803h18.916c2.084,0,3.779-1.695,3.779-3.779v-78.902c0-2.084-1.695-3.781-3.779-3.781h-18.916
		c-2.085,0-3.779,1.696-3.779,3.781v78.902C316.159,250.108,317.854,251.803,319.939,251.803z M323.718,178.123v-5.222h11.357v5.222
		H323.718z M323.718,244.243v-58.56h11.357v58.56H323.718z"/>
	<path fill="#222221" d="M280.062,165.341h-18.916c-2.084,0-3.779,1.696-3.779,3.781v78.902c0,2.084,1.695,3.779,3.779,3.779h18.916
		c2.084,0,3.781-1.695,3.781-3.779v-78.902C283.843,167.037,282.146,165.341,280.062,165.341z M276.281,189.772v54.47h-11.354
		v-54.47H276.281z M276.281,172.901v9.313h-11.354v-9.313H276.281z"/>
</g>
</svg>
