<?xml version="1.0" encoding="utf-8"?>
<!-- Generator: Adobe Illustrator 15.0.0, SVG Export Plug-In . SVG Version: 6.00 Build 0)  -->
<!DOCTYPE svg PUBLIC "-//W3C//DTD SVG 1.1//EN" "http://www.w3.org/Graphics/SVG/1.1/DTD/svg11.dtd">
<svg version="1.1" id="Capa_1" xmlns="http://www.w3.org/2000/svg" xmlns:xlink="http://www.w3.org/1999/xlink" x="0px" y="0px"
	 width="600px" height="600px" viewBox="0 0 600 600" enable-background="new 0 0 600 600" xml:space="preserve">
<path d="M483.194,240.219c-9.032,0-16.609,6.297-18.611,14.728h-17.863c-1.104-37.142-16.074-70.861-39.897-96.152l12.677-12.678
	c2.991,1.851,6.432,2.858,10.036,2.858c5.117,0,9.924-1.992,13.54-5.609c3.616-3.614,5.609-8.424,5.609-13.537
	c0-5.113-1.993-9.921-5.609-13.536c-3.616-3.617-8.426-5.611-13.54-5.611c-5.111,0-9.918,1.994-13.534,5.609
	c-3.618,3.614-5.609,8.424-5.609,13.537c0,3.606,1.01,7.049,2.859,10.039l-12.68,12.679c-25.291-23.827-59.007-38.795-96.151-39.898
	V94.782c8.431-2.002,14.728-9.576,14.728-18.611c0-10.557-8.59-19.146-19.147-19.146c-10.556,0-19.145,8.589-19.145,19.146
	c0,9.035,6.295,16.608,14.728,18.611v17.866c-37.144,1.103-70.861,16.071-96.152,39.896l-12.681-12.679
	c4.545-7.38,3.642-17.188-2.75-23.579c-3.616-3.614-8.423-5.606-13.536-5.606c-5.113,0-9.923,1.994-13.539,5.609
	c-7.463,7.46-7.465,19.606-0.001,27.079c3.617,3.616,8.425,5.606,13.542,5.606c3.605,0,7.049-1.008,10.038-2.856l12.677,12.675
	c-23.825,25.291-38.793,59.008-39.897,96.15H135.42c-2.005-8.43-9.579-14.727-18.617-14.727c-5.113,0-9.919,1.992-13.535,5.609
	c-3.618,3.616-5.608,8.426-5.608,13.537c-0.001,10.554,8.586,19.145,19.145,19.148h0.001c9.037-0.001,16.612-6.3,18.616-14.731
	h17.861c1.103,37.144,16.073,70.862,39.896,96.153L180.5,372.611c-2.989-1.85-6.431-2.856-10.036-2.856
	c-5.118,0-9.926,1.992-13.542,5.609c-3.616,3.616-5.606,8.426-5.606,13.537c0,5.114,1.992,9.921,5.608,13.536
	c3.616,3.617,8.424,5.61,13.54,5.61c5.113,0,9.919-1.992,13.537-5.609c6.39-6.389,7.293-16.198,2.747-23.577l12.68-12.679
	c13.907,13.103,30.366,23.522,48.541,30.437l-30.07,103.043h-43.026c-11.942,0-21.658,9.715-21.658,21.656
	s9.716,21.657,21.658,21.657h250.261c11.941,0,21.655-9.716,21.655-21.657s-9.714-21.656-21.655-21.656h-43.027l-30.071-103.043
	c18.174-6.912,34.631-17.333,48.536-30.434l12.683,12.68c-4.545,7.378-3.642,17.188,2.747,23.575
	c3.616,3.615,8.423,5.607,13.534,5.607c5.114,0,9.922-1.992,13.537-5.607c7.468-7.464,7.468-19.611,0.003-27.077
	c-3.616-3.616-8.426-5.608-13.54-5.608c-3.604,0-7.048,1.009-10.036,2.858l-12.68-12.679c23.826-25.291,38.796-59.009,39.9-96.152
	h17.863c2.002,8.431,9.576,14.728,18.614,14.728c10.558,0,19.144-8.588,19.144-19.145S493.751,240.219,483.194,240.219z
	 M437.876,254.947l-12.798,0.001c-1.087-31.186-13.626-59.497-33.546-80.864l9.041-9.04
	C422.801,188.73,436.778,220.24,437.876,254.947z M300.004,432.247c5.681,0,10.306,4.627,10.306,10.311
	c0,5.685-4.625,10.309-10.306,10.309v4.418l-0.006-4.418c-5.683,0-10.305-4.624-10.305-10.307
	C289.692,436.874,294.317,432.247,300.004,432.247z M300.01,269.675c-0.002,0-0.005-0.001-0.011-0.001
	c-0.003,0-0.006,0.001-0.009,0.001c-5.678-0.006-10.296-4.628-10.296-10.31c0-5.684,4.624-10.31,10.31-10.31
	c5.679,0,10.301,4.621,10.31,10.301c0,0.004-0.003,0.007-0.003,0.01s0.003,0.006,0.003,0.01
	C310.304,265.054,305.688,269.671,300.01,269.675z M310.033,243.089c-1.711-1.062-3.599-1.855-5.611-2.334v-97.627
	c28.748,1.079,54.855,12.631,74.614,30.956L310.033,243.089z M295.584,240.754c-2.012,0.479-3.898,1.273-5.611,2.333l-69.006-69.007
	c19.759-18.324,45.865-29.875,74.617-30.955V240.754z M283.724,249.334c-1.059,1.711-1.855,3.597-2.333,5.61h-97.627
	c1.08-28.751,12.629-54.856,30.956-74.615L283.724,249.334z M281.39,263.781c0.479,2.014,1.274,3.899,2.331,5.612L214.716,338.4
	c-18.325-19.759-29.875-45.866-30.953-74.618h97.627V263.781z M280.514,285.098l-23.979,82.165
	c-13.234-5.352-25.266-13.059-35.57-22.614L280.514,285.098z M292.141,276.805c1.096,0.497,2.245,0.889,3.44,1.172v97.627
	c-10.667-0.398-20.97-2.228-30.722-5.324L292.141,276.805z M295.583,384.441v12.799c-12.768-0.404-25.105-2.547-36.78-6.207
	l3.58-12.263C272.92,382.097,284.058,384.037,295.583,384.441z M304.419,384.441c11.523-0.401,22.664-2.345,33.201-5.671
	l3.581,12.263c-11.676,3.66-24.014,5.802-36.782,6.207V384.441z M304.419,375.604l-0.003-97.626c1.196-0.283,2.35-0.676,3.448-1.174
	l27.276,93.477C325.392,373.377,315.085,375.203,304.419,375.604z M319.491,285.105l59.545,59.546
	c-10.304,9.556-22.336,17.261-35.568,22.611L319.491,285.105z M316.279,269.396c1.059-1.712,1.855-3.597,2.336-5.612h97.628
	c-1.082,28.751-12.632,54.857-30.958,74.616L316.279,269.396z M318.615,254.949c-0.478-2.012-1.274-3.897-2.333-5.612l69.006-69.007
	c18.323,19.759,29.873,45.868,30.955,74.618h-97.628V254.949z M422.248,122.538c1.947-1.945,4.536-3.019,7.289-3.019
	s5.342,1.074,7.292,3.021c1.944,1.947,3.018,4.536,3.018,7.289c0,2.754-1.073,5.343-3.018,7.289
	c-1.95,1.949-4.539,3.021-7.292,3.021s-5.342-1.071-7.286-3.016c0-0.001,0-0.003-0.003-0.003c0-0.001,0-0.001-0.003-0.003
	C418.23,133.097,418.23,126.558,422.248,122.538z M394.325,158.797l-9.044,9.041c-21.364-19.92-49.675-32.456-80.859-33.546v-12.798
	C339.127,122.59,370.637,136.568,394.325,158.797z M289.693,76.172c0-5.684,4.624-10.31,10.31-10.31
	c5.682,0,10.31,4.625,10.31,10.31s-4.628,10.31-10.31,10.31C294.317,86.482,289.693,81.858,289.693,76.172z M295.584,121.492v12.798
	c-31.185,1.09-59.498,13.626-80.861,33.544l-9.04-9.04C229.368,136.568,260.877,122.59,295.584,121.492z M163.176,137.121
	c-4.019-4.023-4.019-10.564,0-14.583c1.948-1.946,4.537-3.019,7.29-3.019c2.754,0,5.342,1.073,7.289,3.018
	c4.02,4.023,4.021,10.564,0.003,14.584c-1.948,1.946-4.535,3.018-7.291,3.018C167.713,140.138,165.122,139.067,163.176,137.121z
	 M199.434,165.043l9.041,9.04c-19.92,21.366-32.458,49.677-33.546,80.861h-12.799C163.226,220.239,177.207,188.729,199.434,165.043z
	 M116.81,269.675c-5.687-0.003-10.31-4.627-10.31-10.311c0-2.754,1.072-5.342,3.018-7.289s4.536-3.021,7.288-3.021
	c5.688,0,10.315,4.625,10.315,10.311C127.123,265.05,122.496,269.674,116.81,269.675z M162.128,263.781h12.799
	c1.087,31.186,13.624,59.497,33.543,80.864l-9.04,9.04C177.204,330,163.225,298.488,162.128,263.781z M177.756,396.19
	c-1.947,1.946-4.537,3.021-7.291,3.021c-2.754,0-5.343-1.074-7.291-3.021c-1.947-1.947-3.019-4.536-3.019-7.289
	s1.071-5.342,3.017-7.289c1.949-1.947,4.54-3.021,7.294-3.021c2.754,0,5.343,1.073,7.292,3.02
	C181.776,385.631,181.775,392.171,177.756,396.19z M205.679,359.935l9.04-9.041c11.352,10.584,24.667,19.074,39.333,24.884
	l-3.599,12.33C233.714,381.644,218.543,372.005,205.679,359.935z M437.951,521.318c0,7.07-5.75,12.82-12.818,12.82H174.872
	c-7.071,0-12.821-5.75-12.821-12.82c0-7.069,5.75-12.819,12.821-12.819h250.261C432.201,508.499,437.951,514.249,437.951,521.318z
	 M372.898,499.662H227.103l29.223-100.141c12.458,3.891,25.627,6.156,39.255,6.562v17.863c-8.433,2.002-14.728,9.578-14.728,18.613
	c0,10.556,8.588,19.144,19.144,19.144l0.004-4.419v4.419c10.556,0,19.143-8.588,19.143-19.146c0-9.035-6.297-16.609-14.728-18.614
	v-17.86c13.629-0.404,26.798-2.671,39.259-6.562L372.898,499.662z M349.552,388.109l-3.599-12.329
	c14.665-5.811,27.978-14.3,39.328-24.884l9.044,9.041C381.458,372.008,366.29,381.644,349.552,388.109z M436.829,381.612
	c4.019,4.019,4.019,10.562-0.003,14.581c-1.947,1.944-4.533,3.018-7.289,3.018c-2.753,0-5.342-1.073-7.286-3.018
	c-4.021-4.02-4.021-10.562,0-14.582c1.944-1.946,4.533-3.02,7.286-3.02C432.293,378.592,434.879,379.666,436.829,381.612z
	 M400.571,353.688l-9.041-9.04c19.92-21.367,32.459-49.678,33.547-80.863l12.797-0.001
	C436.778,298.493,422.801,330.003,400.571,353.688z M483.197,269.675c-5.687,0-10.312-4.624-10.312-10.31
	c0-5.684,4.626-10.31,10.31-10.31c5.685,0,10.31,4.625,10.31,10.311C493.503,265.051,488.878,269.675,483.197,269.675z"/>
</svg>
