<?xml version="1.0" encoding="utf-8"?>
<!-- Generator: Adobe Illustrator 15.0.0, SVG Export Plug-In . SVG Version: 6.00 Build 0)  -->
<!DOCTYPE svg PUBLIC "-//W3C//DTD SVG 1.1//EN" "http://www.w3.org/Graphics/SVG/1.1/DTD/svg11.dtd">
<svg version="1.1" id="Capa_1" xmlns="http://www.w3.org/2000/svg" xmlns:xlink="http://www.w3.org/1999/xlink" x="0px" y="0px"
	 width="600px" height="600px" viewBox="0 0 600 600" enable-background="new 0 0 600 600" xml:space="preserve">
<g>
	<path d="M291.752,415.517c-4.431,0-8.035,3.604-8.035,8.034v29.071c0,4.43,3.604,8.033,8.035,8.033c4.43,0,8.034-3.604,8.034-8.033
		v-29.071C299.786,419.121,296.182,415.517,291.752,415.517z M294.791,452.622c0,1.675-1.363,3.039-3.039,3.039
		c-1.676,0-3.04-1.364-3.04-3.039v-29.071c0-1.676,1.364-3.039,3.04-3.039c1.676,0,3.039,1.363,3.039,3.039V452.622z"/>
	<path d="M318.977,415.517c-4.431,0-8.034,3.604-8.034,8.034v29.071c0,4.43,3.604,8.033,8.034,8.033c4.43,0,8.034-3.604,8.034-8.033
		v-29.071C327.011,419.121,323.406,415.517,318.977,415.517z M322.016,452.622c0,1.675-1.363,3.039-3.039,3.039
		s-3.039-1.364-3.039-3.039v-29.071c0-1.676,1.363-3.039,3.039-3.039s3.039,1.363,3.039,3.039V452.622z"/>
	<path d="M408.031,415.517c-4.43,0-8.033,3.604-8.033,8.034v29.071c0,4.43,3.604,8.033,8.033,8.033c4.432,0,8.036-3.604,8.036-8.033
		v-29.071C416.068,419.121,412.463,415.517,408.031,415.517z M411.073,452.622c0,1.675-1.364,3.039-3.041,3.039
		c-1.675,0-3.038-1.364-3.038-3.039v-29.071c0-1.676,1.363-3.039,3.038-3.039c1.677,0,3.041,1.363,3.041,3.039V452.622z"/>
	<path d="M435.257,415.517c-4.431,0-8.034,3.604-8.034,8.034v29.071c0,4.43,3.604,8.033,8.034,8.033s8.034-3.604,8.034-8.033
		v-29.071C443.291,419.121,439.688,415.517,435.257,415.517z M438.296,452.622c0,1.675-1.362,3.039-3.039,3.039
		c-1.676,0-3.039-1.364-3.039-3.039v-29.071c0-1.676,1.363-3.039,3.039-3.039c1.677,0,3.039,1.363,3.039,3.039V452.622z"/>
	<path d="M283.504,400.32H300c1.379,0,2.498-1.117,2.498-2.497v-36.915c0-1.38-1.118-2.497-2.498-2.497h-16.496
		c-1.379,0-2.498,1.117-2.498,2.497v36.915C281.006,399.203,282.125,400.32,283.504,400.32z M286.001,363.406h11.501v31.919h-11.501
		V363.406z"/>
	<path d="M310.729,400.32h16.496c1.38,0,2.497-1.117,2.497-2.497v-36.915c0-1.38-1.117-2.497-2.497-2.497h-16.496
		c-1.379,0-2.498,1.117-2.498,2.497v36.915C308.231,399.203,309.35,400.32,310.729,400.32z M313.226,363.406h11.501v31.919h-11.501
		V363.406z"/>
	<path d="M399.784,400.32h16.496c1.381,0,2.497-1.117,2.497-2.497v-36.915c0-1.38-1.116-2.497-2.497-2.497h-16.496
		c-1.38,0-2.498,1.117-2.498,2.497v36.915C397.286,399.203,398.405,400.32,399.784,400.32z M402.281,363.406h11.502v31.919h-11.502
		V363.406z"/>
	<path d="M427.009,400.32h16.497c1.379,0,2.497-1.117,2.497-2.497v-36.915c0-1.38-1.118-2.497-2.497-2.497h-16.497
		c-1.379,0-2.498,1.117-2.498,2.497v36.915C424.511,399.203,425.63,400.32,427.009,400.32z M429.506,363.406h11.502v31.919h-11.502
		V363.406z"/>
	<path d="M464.558,325.188H445.93c-1.717-32.423-36.695-58.522-79.928-59.494v-23.767c0-1.379-1.119-2.498-2.498-2.498
		s-2.497,1.119-2.497,2.498v23.767c-43.233,0.972-78.211,27.071-79.928,59.494h-18.628c-1.379,0-2.498,1.117-2.498,2.497v8.306
		c0,1.38,1.118,2.497,2.498,2.497h4.77v53.146h-38.343l-1.843-58.517c3.865-1.912,6.536-5.887,6.536-10.482
		c0-4.633-2.713-8.634-6.628-10.528l-1.857-45.817c3.858-1.915,6.523-5.885,6.523-10.477c0-4.643-2.725-8.649-6.652-10.539
		l-1.807-30.25c3.844-1.919,6.497-5.883,6.497-10.464c0-4.642-2.724-8.65-6.652-10.54l-1.807-30.249
		c3.844-1.92,6.497-5.883,6.497-10.464c0-6.452-5.249-11.701-11.701-11.701h-0.236c-1.021-5.393-5.276-9.648-10.67-10.67v-10.895
		c0-1.38-1.118-2.498-2.498-2.498s-2.498,1.118-2.498,2.498v10.895c-5.393,1.022-9.649,5.277-10.67,10.67h-0.236
		c-6.452,0-11.7,5.249-11.7,11.701c0,4.582,2.653,8.544,6.497,10.464l-1.807,30.249c-3.928,1.89-6.652,5.897-6.652,10.54
		c0,4.582,2.653,8.545,6.497,10.464l-1.807,30.25c-3.928,1.89-6.652,5.896-6.652,10.539c0,4.591,2.665,8.562,6.523,10.477
		l-1.857,45.817c-3.915,1.895-6.628,5.896-6.628,10.528c0,4.596,2.67,8.57,6.535,10.482l-1.843,58.517h-40.84
		c-1.379,0-2.498,1.117-2.498,2.497v85.826c0,1.379,1.118,2.497,2.498,2.497h134.276h74.059c1.38,0,2.498-1.118,2.498-2.497v-92.401
		c0-9.5,7.729-17.229,17.229-17.229c9.501,0,17.229,7.729,17.229,17.229v92.401c0,1.379,1.118,2.497,2.497,2.497h74.061
		c1.379,0,2.497-1.118,2.497-2.497v-141.47h4.77c1.38,0,2.497-1.117,2.497-2.497v-8.306
		C467.055,326.306,465.938,325.188,464.558,325.188z M363.504,270.658c41.599,0,75.647,24.239,77.431,54.53h-154.86
		C287.857,294.897,321.906,270.658,363.504,270.658z M202.581,135.691c3.771,0,6.97,2.493,8.036,5.917h-16.072
		C195.611,138.184,198.81,135.691,202.581,135.691z M189.177,146.603h26.808c3.698,0,6.706,3.008,6.706,6.706
		c0,3.698-3.008,6.706-6.706,6.706h-26.808c-3.697,0-6.706-3.008-6.706-6.706C182.471,149.611,185.479,146.603,189.177,146.603z
		 M215.984,165.009h0.274l1.664,27.852H187.24l1.663-27.852h0.273H215.984z M187.215,197.855h30.731
		c3.697,0,6.706,3.008,6.706,6.705c0,3.698-3.009,6.706-6.706,6.706h-30.731c-3.698,0-6.706-3.008-6.706-6.706
		C180.51,200.863,183.517,197.855,187.215,197.855z M217.946,216.261h0.274l1.664,27.852h-34.605l1.664-27.852h0.273H217.946z
		 M185.253,249.107h34.655c3.698,0,6.706,3.008,6.706,6.706c0,3.697-3.008,6.705-6.706,6.705h-34.655
		c-3.697,0-6.706-3.008-6.706-6.705C178.548,252.116,181.556,249.107,185.253,249.107z M183.265,310.936l1.76-43.422h0.228h34.655
		h0.228l1.76,43.422h-0.026h-38.579H183.265z M183.291,315.931h38.579c3.697,0,6.706,3.007,6.706,6.705
		c0,3.697-3.009,6.705-6.706,6.705h-38.579c-3.698,0-6.706-3.008-6.706-6.705C176.586,318.938,179.594,315.931,183.291,315.931z
		 M183.085,334.336h0.206h38.579h0.207l1.804,57.299h-42.6L183.085,334.336z M137.94,396.63h40.763h47.755h0.017h40.747v80.83
		H137.94V396.63z M454.793,477.46h-69.064v-89.903c0-12.254-9.97-22.224-22.225-22.224c-12.254,0-22.224,9.97-22.224,22.224v89.903
		h-69.064v-83.328v-55.644h182.577V477.46z M462.06,333.493h-4.769H269.719h-4.77v-3.311h18.555h160.002h18.554V333.493z"/>
	<path d="M233.248,414.703c-7.285,0-13.211,5.927-13.211,13.211v30.244c0,1.38,1.118,2.497,2.498,2.497h21.427
		c1.379,0,2.498-1.117,2.498-2.497v-30.244C246.459,420.63,240.533,414.703,233.248,414.703z M241.464,455.661h-16.432v-27.747
		c0-4.53,3.686-8.216,8.216-8.216s8.216,3.686,8.216,8.216V455.661z"/>
	<path d="M186.661,435.588h-12.573c-1.379,0-2.498,1.118-2.498,2.498v20.072c0,1.38,1.118,2.497,2.498,2.497h12.573
		c1.379,0,2.498-1.117,2.498-2.497v-20.072C189.159,436.706,188.041,435.588,186.661,435.588z M184.164,455.661h-7.578v-15.078
		h7.578V455.661z"/>
</g>
</svg>
