<?xml version="1.0" encoding="utf-8"?>
<!-- Generator: Adobe Illustrator 15.0.0, SVG Export Plug-In . SVG Version: 6.00 Build 0)  -->
<!DOCTYPE svg PUBLIC "-//W3C//DTD SVG 1.1//EN" "http://www.w3.org/Graphics/SVG/1.1/DTD/svg11.dtd">
<svg version="1.1" id="Capa_1" xmlns="http://www.w3.org/2000/svg" xmlns:xlink="http://www.w3.org/1999/xlink" x="0px" y="0px"
	 width="600px" height="600px" viewBox="0 0 600 600" enable-background="new 0 0 600 600" xml:space="preserve">
<g>
	<path d="M345.748,113.089H337V82.5c0-19.391-14.997-35.334-34-36.868V29.604c0-1.657-1.343-3-3-3c-1.657,0-3,1.343-3,3v16.028
		c-19.003,1.534-34,17.477-34,36.868v30.589h-8.748c-1.657,0-3,1.343-3,3v91.495V526.08c0,1.657,1.343,3,3,3h91.496
		c1.657,0,3-1.343,3-3V207.584v-91.495C348.748,114.433,347.406,113.089,345.748,113.089z M300,51.5
		c16.081,0,29.338,12.31,30.853,28h-61.705C270.662,63.81,283.919,51.5,300,51.5z M269,85.5h62v27.589h-62V85.5z M257.253,119.089
		H266h68h8.748v85.495h-85.496V119.089z M342.748,523.08h-85.496V210.584h85.496V523.08z"/>
	<path d="M300,129.255c-11.855,0-21.5,9.645-21.5,21.5v40.663c0,1.657,1.343,3,3,3h37c1.657,0,3-1.343,3-3v-40.663
		C321.5,138.9,311.856,129.255,300,129.255z M315.5,188.418h-31v-37.663c0-8.547,6.953-15.5,15.5-15.5s15.5,6.953,15.5,15.5V188.418
		z"/>
	<path d="M300,352.167c19.299,0,35-15.701,35-35s-15.701-35-35-35s-35,15.701-35,35S280.701,352.167,300,352.167z M300,288.167
		c15.99,0,29,13.01,29,29s-13.01,29-29,29c-15.991,0-29-13.01-29-29S284.01,288.167,300,288.167z"/>
	<path d="M286.772,326.153l-5.701,5.702c-1.171,1.172-1.171,3.071,0,4.242c0.586,0.586,1.354,0.879,2.121,0.879
		c0.768,0,1.536-0.293,2.122-0.879l5.701-5.702c1.773,1.209,3.802,2.063,5.986,2.479l0,8.063c0,1.657,1.343,3,3,3s3-1.344,3-3
		L303,332.875c2.184-0.416,4.213-1.271,5.986-2.479l5.701,5.701c0.586,0.586,1.354,0.879,2.121,0.879s1.535-0.293,2.121-0.879
		c1.172-1.171,1.172-3.071,0-4.242l-5.701-5.701c1.209-1.773,2.063-3.803,2.479-5.986h8.063c1.657,0,3-1.343,3-3s-1.343-3-3-3
		h-8.063c-0.416-2.184-1.271-4.213-2.479-5.986l5.701-5.701c1.172-1.172,1.172-3.071,0-4.243c-1.172-1.171-3.072-1.171-4.242,0
		l-5.701,5.701c-1.773-1.208-3.803-2.063-5.986-2.479v-8.062c0-1.657-1.343-3-3-3c-1.657,0-3,1.343-3,3v8.062
		c-2.184,0.416-4.212,1.271-5.986,2.479l-5.702-5.701c-1.172-1.171-3.071-1.171-4.243,0c-1.171,1.172-1.171,3.071,0,4.243l5.701,5.7
		c-1.208,1.772-2.063,3.802-2.479,5.985l-8.063,0.001c-1.657,0-3,1.344-3,3c0,1.657,1.343,3,3,3l8.062-0.001
		C284.709,322.351,285.563,324.38,286.772,326.153z M300,307.167c5.514,0,10,4.486,10,10s-4.486,10-10,10c-5.514,0-10-4.486-10-10
		S294.486,307.167,300,307.167z"/>
	<path d="M313,381.5c0-7.168-5.832-13-13-13c-7.168,0-13,5.832-13,13s5.832,13,13,13C307.168,394.5,313,388.668,313,381.5z
		 M300,388.5c-3.86,0-7-3.141-7-7s3.14-7,7-7c3.859,0,7,3.141,7,7S303.86,388.5,300,388.5z"/>
	<path d="M293.443,420.832h-13.771c-1.657,0-3,1.343-3,3v18.667c0,1.657,1.343,3,3,3h13.771c1.657,0,3-1.343,3-3v-18.667
		C296.443,422.175,295.099,420.832,293.443,420.832z M290.443,439.499h-7.771v-12.667h7.771V439.499z"/>
	<path d="M320.328,420.832h-13.771c-1.657,0-3,1.343-3,3v18.667c0,1.657,1.343,3,3,3h13.771c1.657,0,3-1.343,3-3v-18.667
		C323.328,422.175,321.986,420.832,320.328,420.832z M317.328,439.499h-7.771v-12.667h7.771V439.499z"/>
	<path d="M307,89.295h-14c-1.657,0-3,1.343-3,3v14c0,1.657,1.343,3,3,3h14c1.657,0,3-1.343,3-3v-14
		C310,90.638,308.657,89.295,307,89.295z M304,103.295h-8v-8h8V103.295z"/>
</g>
</svg>
