<?xml version="1.0" encoding="utf-8"?>
<!-- Generator: Adobe Illustrator 15.0.0, SVG Export Plug-In . SVG Version: 6.00 Build 0)  -->
<!DOCTYPE svg PUBLIC "-//W3C//DTD SVG 1.1//EN" "http://www.w3.org/Graphics/SVG/1.1/DTD/svg11.dtd">
<svg version="1.1" id="Capa_1" xmlns="http://www.w3.org/2000/svg" xmlns:xlink="http://www.w3.org/1999/xlink" x="0px" y="0px"
	 width="600px" height="600px" viewBox="0 0 600 600" enable-background="new 0 0 600 600" xml:space="preserve">
<path d="M544.688,294.477H540.1v-13.946h4.588c0.005,0.001,0.011,0.001,0.015,0c1.23,0,2.229-0.998,2.229-2.229
	c0-0.479-0.151-0.923-0.409-1.287l-6.702-12.064c-0.393-0.707-1.139-1.146-1.948-1.146H381.969v-34.123
	c0-0.025-0.007-0.047-0.008-0.072c1.609-1.525,2.62-3.676,2.62-6.063s-1.011-4.538-2.62-6.063c0.001-0.024,0.008-0.047,0.008-0.072
	v-36.352c0-7.556-5.594-18.429-13.632-20.337v-8.745c0-1.23-0.998-2.229-2.229-2.229c-1.231,0-2.229,0.998-2.229,2.229v8.641
	c-8.415,1.565-13.873,12.813-13.873,20.442c0,0.357,0.092,0.689,0.241,0.988v21.774h-47.906v-46.505
	c0-1.231-0.997-2.229-2.228-2.229s-2.229,0.998-2.229,2.229v46.505h-48.146v-22.763c0-7.554-5.354-18.659-13.632-20.393v-8.69
	c0-1.23-0.998-2.229-2.229-2.229c-1.231,0-2.229,0.998-2.229,2.229v8.69c-8.278,1.734-13.632,12.838-13.632,20.393v36.352
	c0,0.025,0.006,0.047,0.007,0.071c-1.61,1.525-2.621,3.676-2.621,6.063c0,2.387,1.011,4.539,2.621,6.063
	c-0.001,0.024-0.007,0.046-0.007,0.071v34.123H62.114c-0.81,0-1.555,0.439-1.948,1.146L53.35,277.22
	c-0.383,0.691-0.373,1.532,0.027,2.213s1.131,1.098,1.921,1.098h4.587v13.946h-4.587c-0.79,0-1.521,0.417-1.921,1.098
	s-0.411,1.523-0.027,2.213l6.535,11.765v138.469c0,1.23,0.998,2.229,2.229,2.229h65.774c1.231,0,2.229-0.998,2.229-2.229v-44.305
	c0-2.388,0.761-4.669,2.202-6.599c0.505-0.678,0.584-1.583,0.204-2.337c-0.692-1.373-1.043-2.838-1.043-4.355
	c0-3.577,5.496-9.168,9.7-12.526c4.203,3.358,9.699,8.949,9.699,12.526c0,1.518-0.351,2.982-1.043,4.355
	c-0.38,0.754-0.301,1.659,0.204,2.337c1.441,1.93,2.203,4.211,2.203,6.599v44.305c0,1.23,0.998,2.229,2.229,2.229h65.774h27.265
	h28.719c1.231,0,2.229-0.998,2.229-2.229v-70.115c0-11.941,9.715-21.656,21.656-21.656c11.94,0,21.655,9.715,21.655,21.656v70.115
	c0,1.23,0.998,2.229,2.229,2.229h28.479h27.264h65.774c1.231,0,2.229-0.998,2.229-2.229v-44.305c0-2.388,0.763-4.669,2.203-6.599
	c0.506-0.678,0.584-1.583,0.204-2.337c-0.692-1.373-1.044-2.838-1.044-4.355c0-3.577,5.497-9.168,9.7-12.526
	c4.203,3.358,9.699,8.949,9.699,12.526c0,1.518-0.352,2.982-1.044,4.355c-0.381,0.754-0.302,1.659,0.204,2.337
	c1.44,1.93,2.202,4.211,2.202,6.599v44.305c0,1.23,0.998,2.229,2.229,2.229h65.774c1.231,0,2.229-0.998,2.229-2.229v-138.47
	l6.535-11.764c0.384-0.69,0.374-1.532-0.026-2.213S545.477,294.477,544.688,294.477z M535.643,294.477H382.209v-13.946h153.434
	V294.477z M333.915,294.477v-26.215h6.107v26.215H333.915z M323.351,294.477v-26.215h6.107v26.215H323.351z M312.786,294.477
	v-26.215h6.106v26.215H312.786z M302.221,294.477v-26.215h6.107v26.215H302.221z M291.657,294.477v-26.215h6.107v26.215H291.657z
	 M281.092,294.477v-26.215h6.108v26.215H281.092z M270.527,294.477v-26.215h6.107v26.215H270.527z M259.962,294.477v-26.215h6.107
	v26.215H259.962z M250.066,294.477c-0.614-4.735-3.073-10.206-6.737-13.946h0.659c4.612,0,8.363-3.751,8.363-8.363
	c0-1.41-0.354-2.739-0.974-3.905h4.127v26.215H250.066z M219.861,223.547c0-2.154,1.752-3.906,3.906-3.906h20.221
	c2.154,0,3.906,1.752,3.906,3.906s-1.752,3.906-3.906,3.906h-20.221C221.613,227.453,219.861,225.701,219.861,223.547z
	 M249.739,231.911h100.509v31.895H249.739V231.911z M380.123,223.547c0,2.154-1.752,3.906-3.905,3.906h-20.221
	c-2.154,0-3.906-1.752-3.906-3.906s1.752-3.906,3.906-3.906h20.221C378.371,219.642,380.123,221.394,380.123,223.547z
	 M355.997,268.262h20.221c2.153,0,3.905,1.752,3.905,3.905c0,2.154-1.752,3.906-3.905,3.906h-20.221
	c-2.154,0-3.906-1.752-3.906-3.906C352.091,270.015,353.843,268.262,355.997,268.262z M376.218,280.531h1.293v2.633
	c-0.671-0.942-1.404-1.827-2.193-2.633H376.218z M365.866,280.531c5.298,0,10.489,7.198,11.645,13.639v0.307h-1.293h-20.221h-1.362
	C355.606,287.868,360.596,280.531,365.866,280.531z M245.573,294.477h-1.586h-20.221h-1.121c0.97-6.609,5.96-13.946,11.231-13.946
	C239.26,280.531,244.531,287.96,245.573,294.477z M223.767,276.074c-2.154,0-3.906-1.752-3.906-3.906
	c0-2.153,1.752-3.905,3.906-3.905h20.221c2.154,0,3.906,1.752,3.906,3.905c0,2.154-1.752,3.906-3.906,3.906H223.767z
	 M223.767,280.531h0.815c-0.762,0.806-1.465,1.691-2.107,2.632v-2.632H223.767z M219.861,302.84c0-2.153,1.752-3.906,3.906-3.906
	h20.221c2.154,0,3.906,1.752,3.906,3.906s-1.752,3.905-3.906,3.905h-20.221C221.613,306.745,219.861,304.993,219.861,302.84z
	 M344.48,268.262h4.128c-0.62,1.167-0.974,2.495-0.974,3.905c0,4.612,3.751,8.363,8.363,8.363h0.573
	c-3.549,3.751-5.846,9.24-6.42,13.946h-5.671V268.262z M352.091,302.84c0-2.153,1.752-3.906,3.906-3.906h20.221
	c2.153,0,3.905,1.752,3.905,3.906s-1.752,3.905-3.905,3.905h-20.221C353.843,306.745,352.091,304.993,352.091,302.84z
	 M540.9,276.074h-3.028H383.608c0.619-1.167,0.974-2.495,0.974-3.906c0-1.41-0.354-2.739-0.974-3.905H536.56L540.9,276.074z
	 M377.511,231.911v31.895h-1.293h-20.221h-1.293v-31.895h1.293h20.221H377.511z M355.997,215.184h-1.293V183.29h22.807v31.895
	h-1.293H355.997z M365.866,164.886c5.272,0,10.438,7.429,11.46,13.946h-22.691C355.606,172.223,360.596,164.886,365.866,164.886z
	 M350.006,208.281v9.443c-1.466,1.507-2.372,3.56-2.372,5.823c0,1.41,0.354,2.739,0.974,3.906h-97.23
	c0.62-1.167,0.974-2.496,0.974-3.906c0-2.384-1.007-4.532-2.612-6.056v-0.079v-9.131H350.006z M233.877,164.886
	c5.271,0,10.261,7.337,11.231,13.946h-22.462C223.616,172.223,228.607,164.886,233.877,164.886z M222.474,215.184V183.29h22.807
	v22.763v9.132h-1.293h-20.221H222.474z M243.988,231.911h1.293v31.895h-1.293h-18.971h-1.25h-1.292v-31.895h1.292H243.988z
	 M63.425,268.262h152.952c-0.619,1.167-0.974,2.495-0.974,3.905c0,1.411,0.354,2.74,0.974,3.906H62.114h-3.028L63.425,268.262z
	 M64.343,280.531h153.674v13.946H64.343V280.531z M62.114,298.934h154.263c-0.619,1.167-0.974,2.496-0.974,3.906
	c0,1.411,0.354,2.739,0.974,3.905H63.425l-4.339-7.811H62.114z M154.367,395.557c0.644-1.639,0.969-3.359,0.969-5.131
	c0-7.5-11.524-16.169-12.839-17.133c-0.784-0.576-1.851-0.576-2.635,0c-1.314,0.964-12.839,9.633-12.839,17.133
	c0,1.771,0.325,3.492,0.969,5.131c-1.53,2.456-2.333,5.251-2.333,8.16v42.076H64.343v-134.59h153.674v134.59h-61.317v-42.076
	C156.699,400.808,155.897,398.013,154.367,395.557z M222.474,445.793v-134.59h1.292h20.221h1.293v134.59H222.474z M300.113,351.793
	c-14.398,0-26.113,11.714-26.113,26.113v67.887h-24.262V308.975c0-0.024-0.006-0.048-0.007-0.071c1.609-1.525,2.62-3.676,2.62-6.063
	c0-1.41-0.354-2.738-0.974-3.906h97.23c-0.62,1.167-0.974,2.496-0.974,3.906c0,2.388,1.011,4.539,2.62,6.064
	c-0.001,0.023-0.007,0.046-0.007,0.07v136.818h-24.021v-67.887C326.226,363.507,314.511,351.793,300.113,351.793z M354.704,311.203
	h1.293h20.221h1.293v134.59h-22.807V311.203z M535.643,445.793h-61.317v-42.076c0-2.909-0.803-5.704-2.333-8.16
	c0.644-1.639,0.97-3.359,0.97-5.131c0-7.5-11.524-16.169-12.838-17.133c-0.785-0.576-1.852-0.576-2.637,0
	c-1.313,0.964-12.839,9.633-12.839,17.133c0,1.771,0.326,3.492,0.97,5.131c-1.53,2.456-2.333,5.251-2.333,8.16v42.076h-61.316
	v-134.59h153.674V445.793z M536.56,306.745H383.608c0.619-1.166,0.974-2.494,0.974-3.905c0-1.41-0.354-2.738-0.974-3.906h154.264
	h3.028L536.56,306.745z"/>
</svg>
