<?xml version="1.0" encoding="utf-8"?>
<!-- Generator: Adobe Illustrator 15.0.0, SVG Export Plug-In . SVG Version: 6.00 Build 0)  -->
<!DOCTYPE svg PUBLIC "-//W3C//DTD SVG 1.1//EN" "http://www.w3.org/Graphics/SVG/1.1/DTD/svg11.dtd">
<svg version="1.1" id="Capa_1" xmlns="http://www.w3.org/2000/svg" xmlns:xlink="http://www.w3.org/1999/xlink" x="0px" y="0px"
	 width="600px" height="600px" viewBox="0 0 600 600" enable-background="new 0 0 600 600" xml:space="preserve">
<path d="M567.546,244.609h-14.649c-1.746,0-3.167,1.421-3.167,3.168c0,1.638,1.249,2.99,2.897,3.151v37.975h-14.191v-37.971
	c1.621-0.137,2.897-1.5,2.897-3.156c0-1.747-1.421-3.168-3.167-3.168h-14.651c-1.745,0-3.166,1.421-3.166,3.168
	c0,1.638,1.25,2.99,2.899,3.151v37.975h-14.192v-37.971c1.619-0.137,2.896-1.5,2.896-3.156c0-1.747-1.421-3.168-3.166-3.168h-14.65
	c-1.747,0-3.168,1.421-3.168,3.168c0,1.638,1.251,2.99,2.899,3.151v37.975h-7.19v-37.97c1.622-0.137,2.9-1.5,2.9-3.157
	c0-1.747-1.421-3.168-3.168-3.168h-14.651c-1.745,0-3.166,1.421-3.166,3.168c0,1.638,1.249,2.99,2.897,3.151v37.975h-14.192v-37.97
	c1.62-0.138,2.897-1.501,2.897-3.157c0-1.747-1.421-3.168-3.166-3.168h-14.651c-1.746,0-3.167,1.421-3.167,3.168
	c0,1.638,1.249,2.99,2.898,3.151v37.975h-8.422v-66.223h-90.938v66.223h-85.496v-66.223h-90.937v66.223h-8.422v-37.971
	c1.621-0.137,2.898-1.5,2.898-3.156c0-1.747-1.421-3.168-3.167-3.168h-14.65c-1.746,0-3.167,1.421-3.167,3.168
	c0,1.638,1.25,2.99,2.898,3.151v37.975h-14.193v-37.97c1.621-0.137,2.898-1.501,2.898-3.157c0-1.747-1.421-3.168-3.167-3.168h-14.65
	c-1.747,0-3.167,1.421-3.167,3.168c0,1.638,1.25,2.99,2.897,3.151v37.975h-7.188v-37.97c1.621-0.138,2.898-1.501,2.898-3.157
	c0-1.747-1.421-3.168-3.167-3.168h-14.65c-1.747,0-3.167,1.421-3.167,3.168c0,1.638,1.25,2.99,2.898,3.151v37.975H76.754v-37.971
	c1.621-0.137,2.898-1.5,2.898-3.156c0-1.747-1.421-3.168-3.168-3.168H61.835c-1.747,0-3.167,1.421-3.167,3.168
	c0,1.638,1.25,2.99,2.898,3.151v37.975H47.373v-37.97c1.621-0.137,2.897-1.501,2.897-3.157c0-1.747-1.42-3.168-3.166-3.168H32.453
	c-1.747,0-3.167,1.421-3.167,3.168c0,1.638,1.25,2.99,2.899,3.151v126.391h535.632V250.933c1.62-0.138,2.896-1.5,2.896-3.156
	C570.714,246.031,569.293,244.609,567.546,244.609z M345.701,355.127v-44.029h9.281v44.029H345.701z M357.937,355.127v-44.029
	h10.061v44.029H357.937z M370.95,355.127v-44.029h9.282v44.029H370.95z M383.186,355.127v-44.029h10.061v44.029H383.186z
	 M396.199,355.127v-44.029h9.282v44.029H396.199z M408.435,355.127v-44.029h10.062v44.029H408.435z M430.731,358.08v16.286h-85.029
	V358.08H430.731z M430.731,311.098v44.029h-9.281v-44.029H430.731z M345.701,288.904v-44.03h9.281v44.03H345.701z M357.937,288.904
	v-44.03h10.061v44.03H357.937z M370.95,288.904v-44.03h9.282v44.03H370.95z M383.186,288.904v-44.03h10.061v44.03H383.186z
	 M396.199,288.904v-44.03h9.282v44.03H396.199z M408.435,288.904v-44.03h10.062v44.03H408.435z M430.731,291.859v16.284h-85.029
	v-16.284H430.731z M430.731,244.874v44.03h-9.281v-44.03H430.731z M430.731,225.635v16.286h-85.029v-16.286H430.731z
	 M442.108,291.857v82.509h-8.422v-82.509H442.108z M471.544,247.777c0-0.118,0.096-0.213,0.213-0.213h14.651
	c0.117,0,0.214,0.095,0.214,0.213c0,0.116-0.098,0.213-0.278,0.213h-14.587C471.64,247.99,471.544,247.895,471.544,247.777z
	 M483.723,291.857v16.286h-38.662v-16.286H483.723z M445.061,288.904v-37.959h9.282v37.959H445.061z M442.163,247.777
	c0-0.118,0.095-0.213,0.213-0.213h14.651c0.116,0,0.213,0.095,0.213,0.213s-0.097,0.213-0.277,0.213h-14.587
	C442.258,247.99,442.163,247.895,442.163,247.777z M457.296,355.127v-44.029h14.192v44.029H457.296z M483.723,358.08v16.286h-38.662
	V358.08H483.723z M445.061,355.127v-44.029h9.282v44.029H445.061z M483.723,311.098v44.029h-9.281v-44.029H483.723z
	 M483.723,250.945v37.959h-9.281v-37.959H483.723z M493.866,291.857v82.509h-7.19v-82.509H493.866z M552.684,247.777
	c0-0.118,0.097-0.213,0.213-0.213h14.649c0.118,0,0.215,0.095,0.215,0.213s-0.097,0.213-0.275,0.213h-14.589
	C552.781,247.99,552.684,247.895,552.684,247.777z M564.864,291.857v16.286H496.82v-16.286H564.864z M496.82,288.904v-37.959h9.281
	v37.959H496.82z M535.483,250.945v37.959h-9.281v-37.959H535.483z M538.104,247.99h-14.589c-0.116,0-0.211-0.095-0.211-0.213
	s0.095-0.213,0.211-0.213h14.651c0.118,0,0.214,0.095,0.214,0.213C538.38,247.893,538.282,247.99,538.104,247.99z M493.922,247.777
	c0-0.118,0.096-0.213,0.213-0.213h14.65c0.117,0,0.213,0.095,0.213,0.213s-0.096,0.213-0.275,0.213h-14.588
	C494.018,247.99,493.922,247.895,493.922,247.777z M509.056,355.127v-44.029h14.192v44.029H509.056z M526.201,355.127v-44.029h9.281
	v44.029H526.201z M538.436,355.127v-44.029h14.191v44.029H538.436z M564.864,358.08v16.286H496.82V358.08H564.864z M496.82,355.127
	v-44.029h9.281v44.029H496.82z M564.864,311.098v44.029h-9.282v-44.029H564.864z M564.864,250.945v37.959h-9.282v-37.959H564.864z
	 M342.748,291.857v82.509h-20.463v-82.509H342.748z M280.67,355.127v-44.029h9.28v44.029H280.67z M292.905,355.127v-44.029h14.191
	v44.029H292.905z M319.332,358.08v16.286H280.67V358.08H319.332z M319.332,311.098v44.029h-9.281v-44.029H319.332z M319.332,291.857
	v16.286H280.67v-16.286H319.332z M169.27,355.127v-44.029h9.281v44.029H169.27z M181.505,355.127v-44.029h10.061v44.029H181.505z
	 M194.52,355.127v-44.029h9.28v44.029H194.52z M206.754,355.127v-44.029h10.061v44.029H206.754z M219.769,355.127v-44.029h9.281
	v44.029H219.769z M232.003,355.127v-44.029h10.062v44.029H232.003z M254.299,358.08v16.286H169.27V358.08H254.299z M254.299,311.098
	v44.029h-9.28v-44.029H254.299z M169.27,288.904v-44.03h9.281v44.03H169.27z M181.505,288.904v-44.03h10.061v44.03H181.505z
	 M194.52,288.904v-44.03h9.28v44.03H194.52z M206.754,288.904v-44.03h10.061v44.03H206.754z M219.769,288.904v-44.03h9.281v44.03
	H219.769z M232.003,288.904v-44.03h10.062v44.03H232.003z M254.299,291.859v16.284H169.27v-16.284H254.299z M254.299,244.874v44.03
	h-9.28v-44.03H254.299z M254.299,225.635v16.286H169.27v-16.286H254.299z M277.716,291.857v82.509h-20.463v-82.509H277.716z
	 M91.002,247.777c0-0.118,0.096-0.213,0.214-0.213h14.65c0.117,0,0.213,0.095,0.213,0.213s-0.096,0.213-0.276,0.213H91.216
	C91.097,247.99,91.002,247.895,91.002,247.777z M103.181,291.857v16.286H35.138v-16.286H103.181z M35.138,288.904v-37.959h9.281
	v37.959H35.138z M73.8,250.945v37.959h-9.281v-37.959H73.8z M76.422,247.99H61.835c-0.118,0-0.214-0.095-0.214-0.213
	s0.096-0.213,0.214-0.213h14.649c0.118,0,0.213,0.095,0.213,0.213S76.602,247.99,76.422,247.99z M32.453,247.564h14.651
	c0.117,0,0.212,0.095,0.212,0.213s-0.095,0.213-0.276,0.213H32.453c-0.117,0-0.213-0.095-0.213-0.213S32.336,247.564,32.453,247.564
	z M47.373,355.127v-44.029h14.193v44.029H47.373z M64.519,355.127v-44.029H73.8v44.029H64.519z M76.754,355.127v-44.029h14.192
	v44.029H76.754z M103.181,358.08v16.286H35.138V358.08H103.181z M35.138,355.127v-44.029h9.281v44.029H35.138z M103.181,311.098
	v44.029H93.9v-44.029H103.181z M103.181,250.945v37.959H93.9v-37.959H103.181z M113.323,291.857v82.509h-7.188v-82.509H113.323z
	 M142.761,247.777c0-0.118,0.096-0.213,0.213-0.213h14.65c0.117,0,0.212,0.095,0.212,0.213s-0.095,0.213-0.275,0.213h-14.587
	C142.857,247.99,142.761,247.895,142.761,247.777z M154.939,291.857v16.286h-38.661v-16.286H154.939z M116.278,288.904v-37.959
	h9.281v37.959H116.278z M113.381,247.777c0-0.118,0.095-0.213,0.212-0.213h14.65c0.118,0,0.214,0.095,0.214,0.213
	s-0.096,0.213-0.277,0.213h-14.586C113.476,247.99,113.381,247.895,113.381,247.777z M128.512,355.127v-44.029h14.193v44.029
	H128.512z M154.939,358.08v16.286h-38.661V358.08H154.939z M116.278,355.127v-44.029h9.281v44.029H116.278z M154.939,311.098v44.029
	h-9.281v-44.029H154.939z M154.939,250.945v37.959h-9.281v-37.959H154.939z M166.316,291.857v82.509h-8.422v-82.509H166.316z"/>
</svg>
