<?xml version="1.0" encoding="utf-8"?>
<!-- Generator: Adobe Illustrator 15.0.0, SVG Export Plug-In . SVG Version: 6.00 Build 0)  -->
<!DOCTYPE svg PUBLIC "-//W3C//DTD SVG 1.1//EN" "http://www.w3.org/Graphics/SVG/1.1/DTD/svg11.dtd">
<svg version="1.1" id="Capa_1" xmlns="http://www.w3.org/2000/svg" xmlns:xlink="http://www.w3.org/1999/xlink" x="0px" y="0px"
	 width="600px" height="600px" viewBox="0 0 600 600" enable-background="new 0 0 600 600" xml:space="preserve">
<path d="M464.918,266.799h-37.892v-46.504c0-1.427-1.157-2.583-2.584-2.583H393.44v-40.477c0-0.017-0.005-0.033-0.005-0.049
	c-0.004-0.156-0.017-0.311-0.047-0.462c-0.004-0.019-0.012-0.038-0.016-0.056c-0.028-0.129-0.068-0.255-0.117-0.378
	c-0.019-0.047-0.039-0.091-0.061-0.137c-0.044-0.096-0.095-0.189-0.151-0.28c-0.025-0.04-0.048-0.081-0.075-0.119
	c-0.082-0.117-0.172-0.229-0.274-0.333c-0.005-0.004-0.009-0.009-0.014-0.015l-49.946-49.946c-0.484-0.485-1.142-0.757-1.827-0.757
	h-38.322V99.818c0-1.427-1.157-2.584-2.584-2.584s-2.583,1.157-2.583,2.584v24.884h-38.323c-0.685,0-1.342,0.271-1.827,0.757
	l-49.947,49.947c-0.003,0.002-0.006,0.007-0.009,0.009c-0.104,0.105-0.196,0.219-0.278,0.338c-0.027,0.038-0.05,0.079-0.075,0.119
	c-0.057,0.091-0.107,0.184-0.152,0.28c-0.021,0.045-0.042,0.09-0.061,0.137c-0.048,0.122-0.087,0.248-0.116,0.375
	c-0.005,0.021-0.013,0.04-0.017,0.061c-0.03,0.15-0.043,0.304-0.046,0.459c0,0.018-0.005,0.033-0.005,0.051v40.477h-31.003
	c-1.427,0-2.583,1.156-2.583,2.583v46.504h-37.893c-1.427,0-2.583,1.156-2.583,2.583v51.321v8.102v171.377
	c0,1.428,1.157,2.584,2.583,2.584h40.476h28.329h31.001h22.741h31.001h22.741h31.002h22.74h31.002h28.328h40.476
	c1.428,0,2.584-1.156,2.584-2.584V328.805v-8.102v-51.321C467.502,267.955,466.346,266.799,464.918,266.799z M137.665,323.287h44.32
	l-6.95,2.934h-37.37V323.287z M411.679,326.221H188.321L300,279.076L411.679,326.221z M424.966,326.221l-6.95-2.934h44.319v2.934
	H424.966z M260.164,129.869h79.673l44.782,44.782H215.382L260.164,129.869z M211.728,179.818h176.545v37.893H211.728V179.818z
	 M178.141,222.878h31.003h181.711h31.003v43.921H178.141V222.878z M137.665,271.966h37.893h248.885h37.893v46.153h-56.56
	l-104.771-44.228c-0.643-0.271-1.368-0.271-2.009,0l-104.77,44.228h-56.561V271.966z M137.665,331.388h35.309v166.211h-35.309
	V331.388z M206.47,497.599V359.454h25.834v138.145H206.47z M260.212,497.599V359.454h25.834v138.145H260.212z M313.954,497.599
	V359.454h25.834v138.145H313.954z M367.697,497.599V359.454h25.834v138.145H367.697z M398.698,497.599V356.871
	c0-1.427-1.156-2.584-2.583-2.584h-31.002c-1.427,0-2.583,1.157-2.583,2.584v140.728h-17.574V356.871
	c0-1.427-1.156-2.584-2.583-2.584H311.37c-1.427,0-2.583,1.157-2.583,2.584v140.728h-17.574V356.871
	c0-1.427-1.157-2.584-2.583-2.584h-31.001c-1.427,0-2.583,1.157-2.583,2.584v140.728h-17.574V356.871
	c0-1.427-1.157-2.584-2.584-2.584h-31.001c-1.427,0-2.583,1.157-2.583,2.584v140.728h-23.162V331.388h243.717v166.211H398.698z
	 M462.335,497.599h-35.309V331.388h35.309V497.599z"/>
</svg>
