<?xml version="1.0" encoding="utf-8"?>
<!-- Generator: Adobe Illustrator 15.0.0, SVG Export Plug-In . SVG Version: 6.00 Build 0)  -->
<!DOCTYPE svg PUBLIC "-//W3C//DTD SVG 1.1//EN" "http://www.w3.org/Graphics/SVG/1.1/DTD/svg11.dtd">
<svg version="1.1" id="Capa_1" xmlns="http://www.w3.org/2000/svg" xmlns:xlink="http://www.w3.org/1999/xlink" x="0px" y="0px"
	 width="600px" height="600px" viewBox="0 0 600 600" enable-background="new 0 0 600 600" xml:space="preserve">
<g>
	<path d="M372.023,345.405h14.452c1.597,0,2.891-1.295,2.891-2.891v-37.577c0-1.596-1.294-2.89-2.891-2.89h-14.452
		c-1.597,0-2.891,1.294-2.891,2.89v37.577C369.132,344.11,370.426,345.405,372.023,345.405z M374.913,307.828h8.671v31.796h-8.671
		V307.828z"/>
	<path d="M372.023,409.479h14.452c1.597,0,2.891-1.294,2.891-2.891v-37.576c0-1.597-1.294-2.891-2.891-2.891h-14.452
		c-1.597,0-2.891,1.294-2.891,2.891v37.576C369.132,408.185,370.426,409.479,372.023,409.479z M374.913,371.902h8.671v31.795h-8.671
		V371.902z"/>
	<path d="M213.525,345.405h14.453c1.597,0,2.891-1.295,2.891-2.891v-37.577c0-1.596-1.294-2.89-2.891-2.89h-14.453
		c-1.596,0-2.89,1.294-2.89,2.89v37.577C210.635,344.11,211.929,345.405,213.525,345.405z M216.416,307.828h8.671v31.796h-8.671
		V307.828z"/>
	<path d="M213.525,409.479h14.453c1.597,0,2.891-1.294,2.891-2.891v-37.576c0-1.597-1.294-2.891-2.891-2.891h-14.453
		c-1.596,0-2.89,1.294-2.89,2.891v37.576C210.635,408.185,211.929,409.479,213.525,409.479z M216.416,371.902h8.671v31.795h-8.671
		V371.902z"/>
	<path d="M434.892,170.528c0-5.844-4.755-10.599-10.599-10.599H302.891v-59.256h60.219c1.598,0,2.891-1.294,2.891-2.891V65.265
		c0-1.596-1.293-2.891-2.891-2.891H300c-1.596,0-2.891,1.294-2.891,2.891v32.518v62.146H175.708
		c-5.844,0-10.599,4.755-10.599,10.599c0,4.841,3.266,8.925,7.708,10.188v354.019c0,1.597,1.294,2.89,2.891,2.89h81.898
		c1.597,0,2.891-1.293,2.891-2.89V304.938c0-21.782,17.722-39.503,39.504-39.503s39.504,17.721,39.504,39.503v229.798
		c0,1.597,1.294,2.89,2.891,2.89h81.898c1.597,0,2.891-1.293,2.891-2.89V180.716C431.625,179.454,434.892,175.37,434.892,170.528z
		 M302.891,84.415h25.773v10.478h-25.773V84.415z M302.891,78.634V68.155h25.773v10.479H302.891z M334.446,94.893V84.415h25.774
		v10.478H334.446z M360.22,78.634h-25.774V68.155h25.774V78.634z M304.818,259.33h-9.635v-20.234h9.635V259.33z M421.403,531.845
		h-76.117V304.938c0-21.319-14.814-39.234-34.687-44.02v-24.713c0-1.596-1.294-2.891-2.891-2.891h-15.416
		c-1.596,0-2.891,1.294-2.891,2.891v24.713c-19.873,4.785-34.687,22.7-34.687,44.02v226.907h-76.117V181.127h242.805V531.845z
		 M424.293,175.346H175.708c-2.656,0-4.818-2.161-4.818-4.817s2.162-4.817,4.818-4.817h248.585c2.656,0,4.817,2.161,4.817,4.817
		S426.949,175.346,424.293,175.346z"/>
</g>
</svg>
