<?xml version="1.0" encoding="utf-8"?>
<!-- Generator: Adobe Illustrator 15.0.0, SVG Export Plug-In . SVG Version: 6.00 Build 0)  -->
<!DOCTYPE svg PUBLIC "-//W3C//DTD SVG 1.1//EN" "http://www.w3.org/Graphics/SVG/1.1/DTD/svg11.dtd">
<svg version="1.1" id="Capa_1" xmlns="http://www.w3.org/2000/svg" xmlns:xlink="http://www.w3.org/1999/xlink" x="0px" y="0px"
	 width="600px" height="600px" viewBox="0 0 600 600" enable-background="new 0 0 600 600" xml:space="preserve">
<g>
	<path d="M387.333,523.275h-24.657V351.763c0,0-2.397-231.182-2.795-231.686V66.991c0-1.512-1.126-2.788-2.626-2.977
		c-1.499-0.188-2.907,0.77-3.28,2.234l-13.454,52.685h-29.66l-7.943-71.626c-0.169-1.52-1.453-2.669-2.981-2.669
		c-1.529,0-2.813,1.149-2.982,2.669l-7.943,71.626h-30.304l-13.454-52.685c-0.374-1.465-1.782-2.428-3.28-2.234
		c-1.501,0.188-2.626,1.465-2.626,2.977v54.914l-2.15,229.886v171.484h-24.657c-1.657,0-3,1.343-3,3v24.971c0,1.657,1.343,3,3,3
		h174.795c1.657,0,3-1.343,3-3v-24.971C390.333,524.618,388.99,523.275,387.333,523.275z M243.196,351.819l2.15-229.886v-31.07
		l8.124,31.812c0.339,1.329,1.535,2.258,2.906,2.258h35.319c1.529,0,2.813-1.149,2.982-2.669l5.258-47.41l5.258,47.41
		c0.169,1.52,1.453,2.669,2.981,2.669h34.676c1.371,0,2.567-0.929,2.907-2.258l8.123-31.812v31.069
		c0,0.712,2.795,229.857,2.795,229.857v171.484h-113.48V351.819z M384.333,548.246H215.538v-18.971h24.657h119.48h24.657V548.246z"
		/>
	<path d="M335.521,190.596h-22.499c-1.656,0-3,1.344-3,3v251.819c0,1.657,1.344,3,3,3h22.499c1.657,0,3-1.343,3-3V193.596
		C338.521,191.939,337.178,190.596,335.521,190.596z M332.521,442.415h-16.499V196.596h16.499V442.415z"/>
	<path d="M286.85,190.596h-22.499c-1.657,0-3,1.344-3,3v251.819c0,1.657,1.343,3,3,3h22.499c1.657,0,3-1.343,3-3V193.596
		C289.85,191.939,288.507,190.596,286.85,190.596z M283.85,442.415h-16.499V196.596h16.499V442.415z"/>
	<path d="M335.521,142.803h-22.499c-1.656,0-3,1.344-3,3v23.923c0,1.657,1.344,3,3,3h22.499c1.657,0,3-1.343,3-3v-23.923
		C338.521,144.146,337.178,142.803,335.521,142.803z M332.521,166.726h-16.499v-17.923h16.499V166.726z"/>
	<path d="M286.85,142.803h-22.499c-1.657,0-3,1.344-3,3v23.923c0,1.657,1.343,3,3,3h22.499c1.657,0,3-1.343,3-3v-23.923
		C289.85,144.146,288.507,142.803,286.85,142.803z M283.85,166.726h-16.499v-17.923h16.499V166.726z"/>
</g>
</svg>
