<?xml version="1.0" encoding="utf-8"?>
<!-- Generator: Adobe Illustrator 15.0.0, SVG Export Plug-In . SVG Version: 6.00 Build 0)  -->
<!DOCTYPE svg PUBLIC "-//W3C//DTD SVG 1.1//EN" "http://www.w3.org/Graphics/SVG/1.1/DTD/svg11.dtd">
<svg version="1.1" id="Capa_1" xmlns="http://www.w3.org/2000/svg" xmlns:xlink="http://www.w3.org/1999/xlink" x="0px" y="0px"
	 width="600px" height="600px" viewBox="0 0 600 600" enable-background="new 0 0 600 600" xml:space="preserve">
<g>
	<path d="M552.964,431.947c-1.122-0.012-112.525-1.544-141.512-32.016c-38.833-40.824-68.569-120.147-88.401-235.775l-0.229-2.314
		c-0.072-0.73-0.412-1.361-0.899-1.836L303,124.54v-20.042c0-1.656-1.343-3-3-3c-1.657,0-3,1.344-3,3v20.042l-19.293,36.16
		c-0.001,0.002-0.002,0.004-0.003,0.006l-0.01,0.019c-0.083,0.155-0.148,0.317-0.203,0.484c-0.017,0.052-0.026,0.105-0.04,0.158
		c-0.024,0.089-0.052,0.177-0.068,0.268c-19.831,117-49.719,197.175-88.834,238.297c-28.977,30.462-140.39,32.004-141.512,32.016
		c-1.644,0.018-2.968,1.355-2.968,3v60.555c0,1.657,1.343,3,3,3h238.455h28.953h238.455c1.657,0,3-1.343,3-3v-60.555
		C555.932,433.303,554.608,431.965,552.964,431.947z M317.099,164.934l32.375,327.568h-31.997v-86.57
		c0-8.8-13.591-25.913-15.141-27.836c-0.57-0.706-1.429-1.117-2.336-1.117s-1.766,0.411-2.335,1.117
		c-1.55,1.923-15.141,19.036-15.141,27.836v86.57h-31.819l32.563-329.479L300,131.663l16.784,31.456
		C316.888,163.73,316.994,164.325,317.099,164.934z M311.477,430.471h-22.953v-24.539c0-4.357,6.315-14.191,11.477-21.063
		c5.163,6.869,11.476,16.701,11.476,21.063V430.471z M50.069,437.894c18.557-0.428,114.523-4.071,142.828-33.827
		c23.204-24.394,43.329-62.131,59.817-112.164c6.752-20.488,12.867-42.81,18.448-67.39l-26.486,267.989H50.069V437.894z
		 M288.524,492.502v-56.031h22.953v56.031H288.524z M549.932,492.502h-194.43l-26.354-266.653
		c5.498,24.05,11.511,45.94,18.14,66.054c16.487,50.033,36.613,87.771,59.816,112.164c28.306,29.756,124.271,33.399,142.827,33.827
		V492.502z"/>
	<path d="M290.85,183.577v20.21c0,1.656,1.343,3,3,3h12.301c1.657,0,3-1.344,3-3v-20.21c0-5.045-4.104-9.15-9.15-9.15
		C294.955,174.427,290.85,178.532,290.85,183.577z M303.151,183.577v17.21h-6.301v-17.21c0-1.737,1.413-3.15,3.15-3.15
		S303.151,181.84,303.151,183.577z"/>
	<path d="M304.481,331.414h-8.961c-1.657,0-3,1.343-3,3v20.502c0,1.657,1.343,3,3,3h8.961c1.657,0,3-1.343,3-3v-20.502
		C307.481,332.757,306.138,331.414,304.481,331.414z M301.481,351.916h-2.961v-14.502h2.961V351.916z"/>
	<path d="M304.481,286.867h-8.961c-1.657,0-3,1.343-3,3v20.502c0,1.657,1.343,3,3,3h8.961c1.657,0,3-1.343,3-3v-20.502
		C307.481,288.21,306.138,286.867,304.481,286.867z M301.481,307.369h-2.961v-14.502h2.961V307.369z"/>
	<path d="M304.481,242.319h-8.961c-1.657,0-3,1.344-3,3v20.502c0,1.657,1.343,3,3,3h8.961c1.657,0,3-1.343,3-3v-20.502
		C307.481,243.663,306.138,242.319,304.481,242.319z M301.481,262.821h-2.961v-14.502h2.961V262.821z"/>
</g>
</svg>
