<?xml version="1.0" encoding="utf-8"?>
<!-- Generator: Adobe Illustrator 15.0.0, SVG Export Plug-In . SVG Version: 6.00 Build 0)  -->
<!DOCTYPE svg PUBLIC "-//W3C//DTD SVG 1.1//EN" "http://www.w3.org/Graphics/SVG/1.1/DTD/svg11.dtd">
<svg version="1.1" id="Capa_1" xmlns="http://www.w3.org/2000/svg" xmlns:xlink="http://www.w3.org/1999/xlink" x="0px" y="0px"
	 width="600px" height="600px" viewBox="0 0 600 600" enable-background="new 0 0 600 600" xml:space="preserve">
<g>
	<path d="M415.071,354.105h-9.685V228.128v-29.61c0-1.338-1.085-2.423-2.423-2.423h-13.67c-1.339,0-2.423,1.085-2.423,2.423v11.575
		h-2.846v-11.575c0-1.338-1.085-2.423-2.423-2.423h-13.67c-1.338,0-2.422,1.085-2.422,2.423v11.575h-0.905v-35.801v-23.316
		c0-1.338-1.085-2.423-2.423-2.423h-11.306c-1.339,0-2.423,1.085-2.423,2.423v7.3h-2.692v-7.3c0-1.338-1.084-2.423-2.423-2.423
		h-11.306c-1.338,0-2.423,1.085-2.423,2.423v7.3h-2.69v-7.3c0-1.338-1.084-2.423-2.423-2.423h-11.306
		c-1.338,0-2.423,1.085-2.423,2.423v7.3h-2.691v-7.3c0-1.338-1.084-2.423-2.423-2.423h-3.23v-13.106h28.668
		c1.338,0,2.423-1.085,2.423-2.423v-17.952c0-1.338-1.085-2.423-2.423-2.423H300c-1.338,0-2.423,1.085-2.423,2.423v17.952v15.529
		h-3.23c-1.338,0-2.423,1.085-2.423,2.423v7.3h-2.692v-7.3c0-1.338-1.084-2.423-2.422-2.423h-11.306
		c-1.338,0-2.422,1.085-2.422,2.423v7.3h-2.692v-7.3c0-1.338-1.085-2.423-2.423-2.423h-11.306c-1.338,0-2.423,1.085-2.423,2.423v7.3
		h-2.692v-7.3c0-1.338-1.084-2.423-2.422-2.423h-11.306c-1.338,0-2.422,1.085-2.422,2.423v23.316v35.801h-0.904v-11.575
		c0-1.338-1.085-2.423-2.423-2.423h-13.67c-1.338,0-2.422,1.085-2.422,2.423v11.575h-2.846v-11.575c0-1.338-1.085-2.423-2.423-2.423
		h-13.67c-1.338,0-2.422,1.085-2.422,2.423v29.61v125.978h-9.685c-1.338,0-2.423,1.085-2.423,2.423v13.396
		c0,1.339,1.085,2.423,2.423,2.423h9.685V484.93c0,1.338,1.084,2.422,2.422,2.422h205.926c1.338,0,2.423-1.084,2.423-2.422V372.347
		h9.685c1.339,0,2.423-1.084,2.423-2.423v-13.396C417.493,355.19,416.409,354.105,415.071,354.105z M328.668,130.601h-26.245
		v-13.106h26.245V130.601z M338.878,196.095h-13.67c-1.338,0-2.422,1.085-2.422,2.423v11.575h-2.847v-11.575
		c0-1.338-1.084-2.423-2.423-2.423h-13.671c-1.338,0-2.422,1.085-2.422,2.423v11.575h-2.846v-11.575
		c0-1.338-1.084-2.423-2.422-2.423h-13.67c-1.338,0-2.423,1.085-2.423,2.423v11.575h-2.846v-11.575c0-1.338-1.085-2.423-2.423-2.423
		h-13.67c-1.338,0-2.423,1.085-2.423,2.423v11.575h-2.846v-11.575c0-1.338-1.085-2.423-2.423-2.423h-13.19v-19.381h119.518v19.381
		h-13.188c-1.338,0-2.422,1.085-2.422,2.423v11.575h-2.848v-11.575C341.301,197.18,340.217,196.095,338.878,196.095z
		 M240.241,153.398h6.46v7.299c0,1.338,1.084,2.423,2.423,2.423h7.537c1.338,0,2.422-1.085,2.422-2.423v-7.299h6.46v7.299
		c0,1.338,1.085,2.423,2.423,2.423h7.537c1.338,0,2.423-1.085,2.423-2.423v-7.299h6.46v7.299c0,1.338,1.085,2.423,2.423,2.423h7.537
		c1.338,0,2.423-1.085,2.423-2.423v-7.299h6.461v7.299c0,1.338,1.084,2.423,2.422,2.423h7.537c1.339,0,2.423-1.085,2.423-2.423
		v-7.299h6.46v7.299c0,1.338,1.085,2.423,2.423,2.423h7.536c1.339,0,2.423-1.085,2.423-2.423v-7.299h6.46v7.299
		c0,1.338,1.085,2.423,2.423,2.423h7.538c1.338,0,2.423-1.085,2.423-2.423v-7.299h6.46v18.471H240.241V153.398z M199.46,200.94
		h8.825v11.575c0,1.338,1.084,2.423,2.422,2.423h7.691c1.338,0,2.423-1.085,2.423-2.423V200.94h8.825v11.575
		c0,1.338,1.084,2.423,2.422,2.423h7.691c1.338,0,2.423-1.085,2.423-2.423V200.94h8.825v11.575c0,1.338,1.084,2.423,2.422,2.423
		h7.692c1.338,0,2.422-1.085,2.422-2.423V200.94h8.825v11.575c0,1.338,1.084,2.423,2.422,2.423h7.692
		c1.338,0,2.422-1.085,2.422-2.423V200.94h8.825v11.575c0,1.338,1.085,2.423,2.423,2.423h7.69c1.339,0,2.423-1.085,2.423-2.423
		V200.94h8.826v11.575c0,1.338,1.084,2.423,2.422,2.423h7.691c1.339,0,2.423-1.085,2.423-2.423V200.94h8.825v11.575
		c0,1.338,1.084,2.423,2.422,2.423h7.692c1.339,0,2.423-1.085,2.423-2.423V200.94h8.824v11.575c0,1.338,1.084,2.423,2.423,2.423
		h7.691c1.339,0,2.423-1.085,2.423-2.423V200.94h8.824v11.575c0,1.338,1.084,2.423,2.423,2.423h7.691
		c1.338,0,2.423-1.085,2.423-2.423V200.94h8.824v24.765H199.46V200.94z M199.46,230.551h38.358h124.363h38.358v123.555H199.46
		V230.551z M400.54,482.507H199.46v-110.16h201.08V482.507z M412.648,367.502H187.352v-8.551h225.295V367.502z"/>
	<path d="M223.687,424.363h16.151c1.338,0,2.423-1.085,2.423-2.423v-27.457c0-1.338-1.085-2.423-2.423-2.423h-16.151
		c-1.338,0-2.423,1.085-2.423,2.423v27.457C221.264,423.278,222.349,424.363,223.687,424.363z M226.109,396.906h11.306v22.611
		h-11.306V396.906z"/>
	<path d="M322.208,288.291h-16.151c-1.338,0-2.423,1.084-2.423,2.422v27.457c0,1.339,1.085,2.423,2.423,2.423h16.151
		c1.338,0,2.422-1.084,2.422-2.423v-27.457C324.63,289.375,323.546,288.291,322.208,288.291z M319.785,315.747H308.48v-22.611
		h11.306V315.747z"/>
	<path d="M239.838,256.393h-16.151c-1.338,0-2.423,1.085-2.423,2.423v27.456c0,1.338,1.085,2.423,2.423,2.423h16.151
		c1.338,0,2.423-1.085,2.423-2.423v-27.456C242.26,257.478,241.176,256.393,239.838,256.393z M237.415,283.85h-11.306v-22.612
		h11.306V283.85z"/>
	<path d="M372.276,288.291h-16.15c-1.339,0-2.423,1.084-2.423,2.422v27.457c0,1.339,1.084,2.423,2.423,2.423h16.15
		c1.339,0,2.423-1.084,2.423-2.423v-27.457C374.698,289.375,373.615,288.291,372.276,288.291z M369.854,315.747h-11.306v-22.611
		h11.306V315.747z"/>
</g>
</svg>
