<?xml version="1.0" encoding="utf-8"?>
<!-- Generator: Adobe Illustrator 15.0.0, SVG Export Plug-In . SVG Version: 6.00 Build 0)  -->
<!DOCTYPE svg PUBLIC "-//W3C//DTD SVG 1.1//EN" "http://www.w3.org/Graphics/SVG/1.1/DTD/svg11.dtd">
<svg version="1.1" id="Capa_1" xmlns="http://www.w3.org/2000/svg" xmlns:xlink="http://www.w3.org/1999/xlink" x="0px" y="0px"
	 width="600px" height="600px" viewBox="0 0 600 600" enable-background="new 0 0 600 600" xml:space="preserve">
<g>
	<path d="M426.318,443.705v-86c0-1.811-1.473-3.284-3.283-3.284h-119.75v-73.459c0-1.811-1.474-3.284-3.284-3.284h-17.756v-70.746
		c0-1.81-1.473-3.283-3.284-3.283h-5.924V146.21c0-1.811-1.473-3.284-3.284-3.284h-5.924v-39.022c0-0.061-0.006-0.121-0.019-0.207
		c-0.007-0.11-0.016-0.22-0.035-0.344c-0.021-0.121-0.052-0.236-0.086-0.36l-21.035-60.089V26.68c0-1.811-1.473-3.284-3.284-3.284
		s-3.284,1.473-3.284,3.284v16.225l-20.987,59.911c-0.021,0.059-0.035,0.117-0.049,0.188c-0.033,0.112-0.063,0.228-0.087,0.36
		c-0.017,0.111-0.026,0.222-0.037,0.357l-0.015,39.205h-5.924c-1.811,0-3.284,1.473-3.284,3.284v57.439h-5.924
		c-1.811,0-3.284,1.473-3.284,3.283v70.746h-19.529c-1.811,0-3.284,1.473-3.284,3.284v162.743c-3.391,2.021-5.482,5.676-5.482,9.626
		s2.091,7.604,5.482,9.625V573.32c0,1.812,1.473,3.284,3.284,3.284h189.017c1.812,0,3.284-1.473,3.284-3.284v-24.364
		c0-4.906,3.992-8.898,8.898-8.898s8.898,3.992,8.898,8.898v24.364c0,1.812,1.473,3.284,3.283,3.284h32.687
		c1.811,0,3.283-1.473,3.283-3.284V462.956c3.391-2.021,5.482-5.675,5.482-9.625S429.708,445.726,426.318,443.705z M222.826,100.621
		l16.544-47.225l16.543,47.225H222.826z M221.479,142.926v-35.738h35.781v35.738H221.479z M212.271,203.649v-54.155h54.197v54.155
		H212.271z M203.063,277.678v-67.462h72.613v67.462H203.063z M425.232,453.331c0,2.557-2.079,4.636-4.635,4.636H179.402
		c-2.555,0-4.633-2.079-4.633-4.636c0-2.556,2.078-4.635,4.633-4.635h241.195C423.153,448.696,425.232,450.775,425.232,453.331z
		 M419.75,360.989v81.139h-6.221v-81.139H419.75z M406.963,360.989v81.139h-5.615v-81.139H406.963z M394.781,360.989v81.139h-5.615
		v-81.139H394.781z M382.598,360.989v81.139h-5.614v-81.139H382.598z M370.415,360.989v81.139h-5.614v-81.139H370.415z
		 M358.233,360.989v81.139h-5.613v-81.139H358.233z M346.051,360.989v81.139h-5.614v-81.139H346.051z M333.868,360.989v81.139
		h-5.613v-81.139H333.868z M321.687,360.989v81.139h-5.614v-81.139H321.687z M303.284,442.128v-81.139h6.22v81.139H303.284z
		 M180.25,442.128V284.246h116.466v157.882H180.25z M378.166,533.49c-8.528,0-15.466,6.938-15.466,15.466v21.08H180.25V464.534
		h239.5v105.502h-26.118v-21.08C393.632,540.428,386.695,533.49,378.166,533.49z"/>
	<path d="M245.387,348.533h-13.806c-1.811,0-3.284,1.473-3.284,3.283v22.741c0,1.811,1.473,3.284,3.284,3.284h13.806
		c1.811,0,3.284-1.474,3.284-3.284v-22.741C248.671,350.006,247.198,348.533,245.387,348.533z M242.103,355.101v16.173h-7.238
		v-16.173H242.103z"/>
	<path d="M220.617,484.695H206.81c-1.811,0-3.284,1.473-3.284,3.284v22.739c0,1.811,1.473,3.284,3.284,3.284h13.807
		c1.811,0,3.284-1.474,3.284-3.284v-22.739C223.901,486.168,222.428,484.695,220.617,484.695z M217.333,491.262v16.173h-7.239
		v-16.173H217.333z"/>
	<path d="M245.387,519.482h-13.806c-1.811,0-3.284,1.473-3.284,3.284v22.74c0,1.811,1.473,3.284,3.284,3.284h13.806
		c1.811,0,3.284-1.474,3.284-3.284v-22.74C248.671,520.955,247.198,519.482,245.387,519.482z M242.103,526.05v16.173h-7.238V526.05
		H242.103z"/>
	<path d="M270.156,484.695h-13.806c-1.811,0-3.284,1.473-3.284,3.284v22.739c0,1.811,1.473,3.284,3.284,3.284h13.806
		c1.811,0,3.284-1.474,3.284-3.284v-22.739C273.441,486.168,271.968,484.695,270.156,484.695z M266.872,491.262v16.173h-7.238
		v-16.173H266.872z"/>
	<path d="M338.777,484.695h-13.806c-1.812,0-3.284,1.473-3.284,3.284v22.739c0,1.811,1.473,3.284,3.284,3.284h13.806
		c1.811,0,3.284-1.474,3.284-3.284v-22.739C342.061,486.168,340.587,484.695,338.777,484.695z M335.492,491.262v16.173h-7.237
		v-16.173H335.492z"/>
	<path d="M305.446,518.026h-13.805c-1.811,0-3.284,1.473-3.284,3.284v22.739c0,1.811,1.473,3.284,3.284,3.284h13.805
		c1.811,0,3.284-1.474,3.284-3.284v-22.739C308.73,519.499,307.256,518.026,305.446,518.026z M302.161,524.595v16.171h-7.238
		v-16.171H302.161z"/>
	<path d="M393.632,488.244c0-8.529-6.938-15.467-15.466-15.467s-15.466,6.938-15.466,15.467v24.364c0,1.811,1.473,3.283,3.283,3.283
		h24.364c1.812,0,3.284-1.473,3.284-3.283V488.244z M378.166,479.345c4.906,0,8.898,3.991,8.898,8.899v21.08h-17.797v-21.08
		C369.268,483.336,373.26,479.345,378.166,479.345z"/>
	<path d="M239.37,222.39c-8.528,0-15.466,6.938-15.466,15.466v24.365c0,1.811,1.473,3.284,3.284,3.284h24.364
		c1.811,0,3.284-1.473,3.284-3.284v-24.365C254.836,229.328,247.898,222.39,239.37,222.39z M239.37,228.957
		c4.906,0,8.898,3.992,8.898,8.899v21.081h-17.796v-21.081C230.472,232.948,234.464,228.957,239.37,228.957z"/>
	<path d="M239.37,155.014c-8.528,0-15.466,6.939-15.466,15.467v24.364c0,1.811,1.473,3.284,3.284,3.284h24.364
		c1.811,0,3.284-1.473,3.284-3.284v-24.364C254.836,161.953,247.898,155.014,239.37,155.014z M239.37,161.582
		c4.906,0,8.898,3.992,8.898,8.899v21.08h-17.796v-21.08C230.472,165.574,234.464,161.582,239.37,161.582z"/>
	<path d="M239.37,108.248c-6.782,0-12.301,5.518-12.301,12.3v18.035c0,1.811,1.473,3.284,3.284,3.284h18.034
		c1.811,0,3.284-1.473,3.284-3.284v-18.035C251.671,113.766,246.152,108.248,239.37,108.248z M233.637,120.548
		c0-3.162,2.571-5.733,5.733-5.733s5.733,2.571,5.733,5.733v14.751h-11.466V120.548z"/>
</g>
</svg>
