<?xml version="1.0" encoding="utf-8"?>
<!-- Generator: Adobe Illustrator 16.0.3, SVG Export Plug-In . SVG Version: 6.00 Build 0)  -->
<!DOCTYPE svg PUBLIC "-//W3C//DTD SVG 1.1//EN" "http://www.w3.org/Graphics/SVG/1.1/DTD/svg11.dtd">
<svg version="1.1" id="Layer_1" xmlns="http://www.w3.org/2000/svg" xmlns:xlink="http://www.w3.org/1999/xlink" x="0px" y="0px"
	 width="512px" height="512px" viewBox="0 0 512 512" style="enable-background:new 0 0 512 512;" xml:space="preserve">
<style type="text/css">
<![CDATA[
	.st0{fill:#127274;}
	.st1{fill:#14B6B9;}
	.st2{fill:#EF4823;}
	.st3{fill:#BCBCBC;}
	.st4{fill:#F6851F;}
	.st5{fill:#C56528;}
	.st6{fill:#FEBF10;}
	.st7{fill:none;}
	.st8{fill:#010101;}
	.st9{fill:#3AB37C;}
	.st10{fill:#D6E5E5;}
	.st11{fill:#71C598;}
	.st12{fill:#74CCCF;}
]]>
</style>
<g>
	<g>
		<g>
			<path class="st6" d="M32.748,198.894c-0.105-0.197-0.193-0.394-0.272-0.59c-1.314,0.765-2.756,0.811-4.038,0.368
				c-1.598,3.514-2.709,7.437-2.094,10.691c1.607,0.214,3.424-0.373,4.896-0.984C34.23,207.135,33.998,201.234,32.748,198.894z"/>
		</g>
	</g>
	<g>
		<g>
			<g>
				<path class="st11" d="M243.914,197.05c-0.077-15.411,0.047-30.825-0.638-46.227c-0.719-16.159-1.091-32.411-2.417-48.533
					c-1.022-12.436-3.635-24.825-4.595-37.274c-4.081,2.351-7.731,6.203-10.888,9.078c-5.591,5.093-11.327,9.984-16.594,15.427
					c-10.926,11.291-20.247,23.71-29.106,36.654c-17.05,24.911-32.944,50.504-43.684,78.784c0.076,1.092-0.276,2.242-1.228,3.305
					c-0.129,0.354-0.268,0.704-0.395,1.059c-0.801,2.36-1.673,4.698-2.506,7.048c5.979-2.175,12.812-3.033,18.223-3.406
					c11.529-0.796,24.225-0.949,35.491,2.09c14.146,3.816,28.161,8.667,41.763,14.099c2.625,1.048,9.037,3.155,14.552,6.118
					c0.347-0.31,0.726-0.579,1.133-0.786C245.315,222.155,243.977,209.561,243.914,197.05z"/>
			</g>
		</g>
		<g>
			<g>
				<path class="st6" d="M262.617,384.519c-1.184-9.146-2.615-18.25-3.613-27.421c-3.056-28.099-3.098-56.385-3.098-84.615
					c0-1.081,0.287-1.998,0.758-2.751c-3.586,1.525-7.762,1.469-10.984-1.133c-0.474-0.382-0.893-0.804-1.285-1.245
					c0.904,4.826,1.777,9.659,2.336,14.541c1.657,14.516,2.275,29.082,3.277,43.648c1.822,26.491,2.732,53.04,2.846,79.593
					c0.984-0.232,2.096-0.126,3.264,0.483c2.107,1.1,4.811,0.923,7.362,0.703C265.463,399.776,263.404,390.609,262.617,384.519z"/>
			</g>
		</g>
		<g>
			<g>
				<path class="st2" d="M168.805,75.487c-23.572,8.606-46.038,19.271-66.623,33.732c-18.725,13.153-36.83,28.7-50.889,46.872
					c-4.354,5.627-8.42,11.533-11.922,17.73c-1.869,3.311-3.721,6.711-4.992,10.306c-0.107,0.307-0.211,0.623-0.309,0.942
					c6.012-3.029,12.975-4.337,19.615-4.8c9.776-0.681,20.104-0.221,29.635,2.224c15.534,3.982,31.822,15.916,38.91,31.274
					c0.947-2.673,1.943-5.33,2.87-8c0.166-0.935,0.439-1.763,0.933-2.56c11.445-31.286,29.304-59.199,48.109-86.519
					c9.872-14.341,20.625-27.994,33.375-39.912c5.42-5.066,10.959-10.125,16.631-14.907c0.497-0.418,0.998-0.826,1.5-1.23
					C206.221,63.225,187.156,68.787,168.805,75.487z"/>
			</g>
		</g>
		<g>
			<g>
				<path class="st6" d="M325.738,458.13c-0.227-3.057-3.721-4.133-6.941-4.645c-0.658,0.993-1.576,1.519-2.572,1.667
					c-3.146,7.214-8.334,14.877-16.065,17.103c-9.153,2.634-18.97-1.412-24.827-8.771c-9.793-12.307-8.768-30.1-7.647-45.27
					c-0.067-0.041-0.136-0.076-0.202-0.118c-0.119-0.075-0.192-0.132-0.244-0.179c-0.203,0.06-0.705,0.104-1.818,0.057
					c-1.09-0.061-2.178-0.129-3.268-0.204c-5.893-0.49-11.753-1.357-17.66-1.616c4.064,13.586,3.374,28.031,6.185,41.875
					c1.411,6.951,3.956,14.686,9.417,19.565c5.715,5.106,13.06,6.822,20.513,7.614c13.595,1.446,29.154,1.98,37.952-10.493
					C321.415,470.664,326.129,463.401,325.738,458.13z"/>
			</g>
		</g>
		<g>
			<g>
				<path class="st6" d="M249.973,39.888c-0.897-3.863-1.245-7.979-2.789-11.665c-0.383-0.916-0.811-1.562-1.436-2.329
					c-0.105-0.091-0.194-0.17-0.273-0.243c-1.734,0.174-3.446,0.383-5.197,0.434c-0.137,0.004-0.268-0.003-0.398-0.008v0.637
					c0,0.035-0.004,0.066-0.005,0.101c-0.051,7.063-0.658,14.608,1.64,21.33c2.426,0.125,6.193,0.518,7.826-0.754
					C250.621,46.394,250.273,41.183,249.973,39.888z"/>
			</g>
		</g>
		<g>
			<g>
				<path class="st6" d="M121.383,245.446c-1.252,2.522-3.452,6.25-3.664,9.413c0.572-0.133,1.201-0.343,1.521-0.481
					c0.862-0.373,1.894-3.377,2.248-4.357c0.866-2.393,1.44-5.007,1.644-7.546c0.01-0.117,0.014-0.236,0.021-0.355
					C122.537,243.216,121.941,244.321,121.383,245.446z"/>
			</g>
		</g>
		<g>
			<g>
				<path class="st6" d="M251.668,250.577c-0.207-0.083-0.398-0.176-0.581-0.275c-0.183,1.055-0.331,2.116-0.394,3.184
					c-0.123,2.078,0.128,5.816,1.116,7.166c0.188,0.258-0.376,0.23,0.72,0.01c1.051-0.211,1.833-1.025,2.031-2.083
					C255.07,255.864,254.415,251.685,251.668,250.577z"/>
			</g>
		</g>
		<g>
			<g>
				<path class="st11" d="M436.244,135.243c-4.904-5.046-10.007-9.888-14.923-14.923c-14.425-14.771-30.79-27.72-48.777-37.896
					c-33.759-19.098-72.348-29.411-111.065-25.14c0.842,0.551,1.658,1.113,2.446,1.659c5.63,3.904,10.857,8.354,15.995,12.877
					c12.627,11.118,25.951,21.395,37.869,33.312c13.664,13.663,27.62,28.131,39.29,43.556c5.005,6.614,9.618,13.501,12.923,21.131
					c1.666,3.848,3.145,9.715,6.039,13.417c-0.307-8.918,1.59-17.891,7.474-24.948c8.505-10.2,21.495-15.457,34.574-16.247
					c3.321-0.201,15.419,0.136,25.667,2.273C441.531,141.061,438.991,138.07,436.244,135.243z"/>
			</g>
		</g>
		<g>
			<g>
				<path class="st6" d="M464.549,161.413c-0.693-1.387-2.204-2.455-3.778-2.634c0.042,0.417,0.062,0.841,0.03,1.272
					c-0.125,1.761,1.096,4.638,2.235,5.8c0.463,0.472,0.942,0.936,1.474,1.331c-0.074-0.082,0.066-0.047,0.251,0.028
					c0.204-0.797,0.427-1.624,0.513-2.432C465.395,163.626,465.064,162.446,464.549,161.413z"/>
			</g>
		</g>
		<g>
			<g>
				<path class="st6" d="M382.592,196.854c-0.25-0.256-0.461-0.522-0.645-0.794c-0.049-0.003-0.098-0.007-0.146-0.011v0.002
					c-0.088,1.077,0.629,3.812,1.55,5.377c0.418,0.711,1.327,2.134,1.574,2.391c0.282,0.295,0.572,0.586,0.876,0.86
					c0.088-0.197,0.16-0.388,0.184-0.537C386.434,201.207,384.545,198.852,382.592,196.854z"/>
			</g>
		</g>
		<g>
			<g>
				<path class="st2" d="M362.654,178.032c-2.951-6.975-6.281-13.307-10.717-19.481c-11.145-15.511-24.852-29.811-38.254-43.392
					c-11.947-12.106-25.262-22.469-37.971-33.71c-4.745-4.197-9.5-8.421-14.568-12.227c-2.668-2.003-7.671-6.37-10.867-6.138
					c-1.956,0.143-3.379-0.684-4.242-1.909c0.765,14.789,4.129,29.469,5.083,44.268c1.036,16.07,1.729,32.223,2.276,48.316
					c0.518,15.24,0.15,30.485,0.547,45.723c0.21,8.016,0.67,16.148,0.32,24.203c11.205-19.766,29.614-34.846,51.695-41.627
					c17.295-5.311,38.666-8.922,56.858-3.638C362.762,178.292,362.707,178.159,362.654,178.032z"/>
			</g>
		</g>
		<g>
			<g>
				<path d="M473.687,157.504c-3.333-6.674-9.806-9.536-16.946-8.214c-0.157-0.126-0.32-0.251-0.49-0.373
					c-0.929-11.806-15.006-22.915-22.486-30.049c-7.354-7.013-14.14-14.447-21.905-21.055c-8.79-7.48-18.233-14.176-28.021-20.28
					c-36.671-22.868-80.964-35.21-124.161-30.107c0.393-2.379,0.375-4.884,0.293-7.215c-0.211-6.027-2.111-13.073-4.833-18.416
					c-3.489-6.85-9.245-5.868-15.628-5.685c-3.348,0.096-4.742,2.832-4.411,5.415c-2.56,0.111-5.19,1.919-5.19,5.216
					c0,7.699-0.484,15.687,1.674,23.145c-23.197,2.19-45.98,8.822-67.766,16.776c-25.918,9.462-50.362,21.865-72.669,38.167
					c-18.81,13.747-36.977,30.169-50.685,49.107c-5.061,6.992-9.859,14.318-13.538,22.141c-1.606,3.415-3.243,7.568-3.37,11.515
					c-0.42,0.342-0.806,0.765-1.139,1.28c-4.584,7.083-10.264,21.529-2.44,28.265c4.952,4.264,14.812,2.211,19.042-2.135
					c5.57-5.725,5.616-14.974,2.021-21.701c-0.078-0.147-0.162-0.282-0.248-0.415c4.354-1.669,9.275-2.267,13.666-2.644
					c8.361-0.718,16.875-0.063,25.082,1.635c17.687,3.66,36.879,20.393,36.369,39.604c-0.023,0.91,0.164,1.665,0.49,2.289
					c-6.221,9.537-14.888,26.613-2.094,30.914c3.249,1.093,8.412-0.33,10.967-2.429c3.385-2.78,4.943-6.929,6.264-10.968
					c1.73-5.298,3.846-17.688-3.526-19.847c1.678-8.172,21.243-8.487,26.987-8.735c9.44-0.407,19.479-0.27,28.677,2.164
					c11.368,3.009,22.554,6.932,33.558,11.054c4.607,1.726,9.186,3.544,13.678,5.555v0.004c0.164,13.327,3.961,26.128,5.623,39.283
					c1.832,14.503,2.567,29.13,3.377,43.717c1.512,27.231,2.823,54.397,2.972,81.67c-0.456-0.014-0.913-0.035-1.37-0.042
					c-3.047-0.046-4.469,2.161-4.447,4.51c-2.248,0.893-3.925,3.18-2.888,6.129c6.256,17.785,2.981,37.541,10.29,55.122
					c3.523,8.475,9.813,15.351,18.168,19.186c8.395,3.853,17.943,4.213,26.998,4.85c8.827,0.621,17.539-0.908,25.435-4.916
					c7.86-3.99,12.752-11.546,16.591-19.164c2.826-5.61,5.805-13.063,2.91-19.221c-3.16-6.721-10.992-8.547-17.718-9.419
					c-1.72-0.223-3.918,0.332-4.989,1.848c-1.434,0.131-2.753,0.987-3.443,2.836c-2.188,5.853-5.33,12.571-11.562,14.942
					c-6.308,2.4-12.952-3.757-15.812-8.74c-6.15-10.718-4.083-26.276-3.24-38.023c0.2-2.795-1.051-5.194-3.954-5.862
					c-0.313-0.072-0.635-0.218-0.954-0.396c0.535-2.136,0.709-4.405,0.812-6.104c0.707-11.531-1.563-23.106-3.158-34.48
					c-4.532-32.304-4.668-64.942-4.668-97.497c0-3.419-2.807-4.8-5.442-4.384c1.481-1.335,2.663-2.981,3.317-4.838
					c2.421-6.878,0.127-17.066-6.899-20.516c8.472-23.443,26.335-41.651,50.082-49.725c19.27-6.552,47.284-11.479,65.118,1.433
					c-0.032,0.15-0.058,0.304-0.07,0.461c-0.396,4.861,0.93,9.228,3.387,13.406c2.064,3.51,5.766,7.292,10.031,7.73
					c5.618,0.577,8.71-3.625,10.207-8.48c2.051-6.646-1.982-12.925-6.416-17.459c-0.869-0.889-1.814-1.324-2.742-1.42
					c-0.938-7.094-0.615-14.033,2.898-20.557c4.775-8.863,15.538-13.319,24.951-14.848c7.334-1.191,13.773-0.765,20.336,0.288
					c3.329,0.533,6.633,1.233,9.896,2.077c0.812,0.21,1.611,0.452,2.404,0.713c0.661,0.997,1.633,1.771,2.7,2.202
					c0.356,0.459,0.805,0.855,1.309,1.178c-0.19,5.677,1.85,10.683,5.878,14.789c3.931,4.006,10.4,5.336,14.705,1.211
					C475.86,170.821,476.236,162.61,473.687,157.504z M239.874,26.813c0.001-0.034,0.005-0.066,0.005-0.101v-0.637
					c0.131,0.005,0.262,0.012,0.398,0.008c1.751-0.05,3.463-0.259,5.197-0.434c0.079,0.073,0.168,0.152,0.273,0.243
					c0.625,0.768,1.053,1.413,1.436,2.329c1.544,3.686,1.892,7.802,2.789,11.665c0.301,1.295,0.648,6.506-0.633,7.502
					c-1.633,1.271-5.4,0.879-7.826,0.754C239.216,41.422,239.823,33.876,239.874,26.813z M31.239,208.378
					c-1.472,0.611-3.288,1.199-4.896,0.984c-0.615-3.254,0.496-7.177,2.094-10.691c1.282,0.443,2.724,0.396,4.038-0.368
					c0.079,0.197,0.167,0.393,0.272,0.59C33.998,201.234,34.23,207.135,31.239,208.378z M123.131,242.475
					c-0.203,2.539-0.777,5.153-1.644,7.546c-0.354,0.979-1.386,3.984-2.248,4.357c-0.319,0.139-0.948,0.349-1.521,0.481
					c0.212-3.163,2.412-6.891,3.664-9.413c0.559-1.125,1.154-2.23,1.77-3.326C123.145,242.239,123.141,242.358,123.131,242.475z
					 M126.033,203.209c-0.493,0.797-0.767,1.625-0.933,2.56c-0.927,2.67-1.923,5.327-2.87,8
					c-7.088-15.358-23.376-27.292-38.91-31.274c-9.531-2.444-19.858-2.905-29.635-2.224c-6.641,0.462-13.604,1.771-19.615,4.8
					c0.098-0.319,0.201-0.635,0.309-0.942c1.271-3.595,3.123-6.995,4.992-10.306c3.502-6.197,7.568-12.104,11.922-17.73
					c14.059-18.172,32.164-33.719,50.889-46.872c20.585-14.461,43.051-25.126,66.623-33.732c18.352-6.7,37.416-12.263,56.844-14.846
					c-0.502,0.404-1.003,0.812-1.5,1.23c-5.672,4.783-11.211,9.841-16.631,14.907c-12.75,11.918-23.503,25.571-33.375,39.912
					C155.337,144.01,137.479,171.923,126.033,203.209z M243.026,234.485c-0.407,0.207-0.786,0.477-1.133,0.786
					c-5.515-2.963-11.927-5.07-14.552-6.118c-13.602-5.433-27.616-10.283-41.763-14.099c-11.267-3.039-23.962-2.886-35.491-2.09
					c-5.41,0.374-12.244,1.231-18.223,3.406c0.833-2.35,1.705-4.688,2.506-7.048c0.127-0.355,0.266-0.704,0.395-1.059
					c0.951-1.063,1.304-2.213,1.228-3.305c10.739-28.28,26.634-53.873,43.684-78.784c8.859-12.944,18.181-25.364,29.106-36.654
					c5.267-5.443,11.003-10.333,16.594-15.427c3.156-2.875,6.807-6.727,10.888-9.078c0.96,12.449,3.572,24.838,4.595,37.274
					c1.326,16.122,1.698,32.374,2.417,48.533c0.685,15.401,0.561,30.816,0.638,46.227
					C243.977,209.561,245.315,222.155,243.026,234.485z M265.42,417.974c1.113,0.047,1.615,0.003,1.818-0.057
					c0.052,0.047,0.125,0.104,0.244,0.179c0.066,0.042,0.135,0.077,0.202,0.118c-1.12,15.17-2.146,32.963,7.647,45.27
					c5.857,7.36,15.674,11.405,24.827,8.771c7.731-2.226,12.92-9.889,16.065-17.103c0.996-0.148,1.914-0.674,2.572-1.667
					c3.221,0.512,6.715,1.588,6.941,4.645c0.391,5.271-4.323,12.534-7.18,16.585c-8.798,12.473-24.357,11.939-37.952,10.493
					c-7.453-0.792-14.798-2.508-20.513-7.614c-5.461-4.879-8.006-12.615-9.417-19.565c-2.811-13.844-2.12-28.289-6.185-41.875
					c5.907,0.258,11.768,1.126,17.66,1.616C263.242,417.845,264.33,417.913,265.42,417.974z M259.004,357.098
					c0.998,9.171,2.43,18.275,3.613,27.421c0.787,6.09,2.846,15.257,0.862,21.802c-2.552,0.221-5.255,0.397-7.362-0.703
					c-1.168-0.609-2.279-0.716-3.264-0.483c-0.113-26.553-1.023-53.102-2.846-79.593c-1.002-14.566-1.62-29.132-3.277-43.648
					c-0.559-4.881-1.432-9.714-2.336-14.541c0.393,0.44,0.812,0.862,1.285,1.245c3.223,2.602,7.398,2.658,10.984,1.133
					c-0.471,0.754-0.758,1.671-0.758,2.751C255.906,300.713,255.948,328.999,259.004,357.098z M251.81,260.652
					c-0.988-1.349-1.239-5.087-1.116-7.166c0.062-1.068,0.211-2.129,0.394-3.184c0.183,0.099,0.374,0.192,0.581,0.275
					c2.747,1.107,3.402,5.287,2.893,8.002c-0.198,1.058-0.98,1.872-2.031,2.083C251.434,260.882,251.998,260.91,251.81,260.652z
					 M305.957,182.058c-22.081,6.781-40.49,21.861-51.695,41.627c0.35-8.055-0.11-16.187-0.32-24.203
					c-0.396-15.237-0.029-30.482-0.547-45.723c-0.547-16.094-1.24-32.247-2.276-48.316c-0.954-14.799-4.318-29.479-5.083-44.268
					c0.863,1.225,2.286,2.051,4.242,1.909c3.196-0.232,8.199,4.135,10.867,6.138c5.068,3.806,9.823,8.03,14.568,12.227
					c12.709,11.242,26.023,21.604,37.971,33.71c13.402,13.581,27.109,27.881,38.254,43.392c4.436,6.175,7.766,12.507,10.717,19.481
					c0.053,0.127,0.107,0.259,0.161,0.388C344.623,173.136,323.252,176.747,305.957,182.058z M385.984,204.144
					c-0.023,0.149-0.096,0.34-0.184,0.537c-0.304-0.274-0.594-0.565-0.876-0.86c-0.247-0.257-1.156-1.68-1.574-2.391
					c-0.921-1.565-1.638-4.3-1.55-5.377v-0.002c0.049,0.004,0.098,0.008,0.146,0.011c0.184,0.271,0.395,0.538,0.645,0.794
					C384.545,198.852,386.434,201.207,385.984,204.144z M418.089,142.043c-13.079,0.79-26.069,6.047-34.574,16.247
					c-5.884,7.057-7.78,16.03-7.474,24.948c-2.895-3.702-4.373-9.569-6.039-13.417c-3.305-7.63-7.918-14.517-12.923-21.131
					c-11.67-15.425-25.626-29.893-39.29-43.556c-11.918-11.917-25.242-22.195-37.869-33.312
					c-5.138-4.523-10.365-8.973-15.995-12.877c-0.788-0.546-1.604-1.108-2.446-1.659c38.718-4.271,77.307,6.042,111.065,25.14
					c17.987,10.176,34.353,23.124,48.777,37.896c4.916,5.035,10.019,9.876,14.923,14.923c2.747,2.827,5.287,5.817,7.512,9.073
					C433.508,142.179,421.41,141.842,418.089,142.043z M465.273,164.779c-0.086,0.808-0.309,1.635-0.513,2.432
					c-0.185-0.075-0.325-0.11-0.251-0.028c-0.531-0.396-1.011-0.859-1.474-1.331c-1.14-1.162-2.36-4.039-2.235-5.8
					c0.031-0.432,0.012-0.855-0.03-1.272c1.574,0.179,3.085,1.247,3.778,2.634C465.064,162.446,465.395,163.626,465.273,164.779z"/>
			</g>
		</g>
	</g>
</g>
</svg>
