<?xml version="1.0" encoding="utf-8"?>
<!-- Generator: Adobe Illustrator 16.0.3, SVG Export Plug-In . SVG Version: 6.00 Build 0)  -->
<!DOCTYPE svg PUBLIC "-//W3C//DTD SVG 1.1//EN" "http://www.w3.org/Graphics/SVG/1.1/DTD/svg11.dtd">
<svg version="1.1" id="Layer_1" xmlns="http://www.w3.org/2000/svg" xmlns:xlink="http://www.w3.org/1999/xlink" x="0px" y="0px"
	 width="512px" height="512px" viewBox="0 0 512 512" style="enable-background:new 0 0 512 512;" xml:space="preserve">
<style type="text/css">
<![CDATA[
	.st0{fill:#127274;}
	.st1{fill:#14B6B9;}
	.st2{fill:#1E4384;}
	.st3{fill:#ED2224;}
	.st4{fill:#EF4823;}
	.st5{fill:#BCBCBC;}
	.st6{fill:#231F20;}
	.st7{fill:#F26824;}
	.st8{fill:#F3AD20;}
	.st9{fill:#F6851F;}
	.st10{fill:#C56528;}
	.st11{fill:#FCBF95;}
	.st12{fill:#FEBF10;}
	.st13{fill:none;}
	.st14{fill:#010101;}
	.st15{fill:#D4E2A9;}
	.st16{fill:#3AB37C;}
	.st17{fill:#085084;}
	.st18{fill:#D6E5E5;}
	.st19{fill:#71C598;}
	.st20{fill:#73A1B2;}
	.st21{fill:#74CCCF;}
]]>
</style>
<g>
	<g>
		<g>
			<path class="st4" d="M168.277,137.722c-0.269-3.249-1.034-7.384-4.276-9.032c-6.101-3.104-10.354,0.086-14.666,4.549
				c-2.591,2.68-9.644,7.051-9.545,11.314c0.125,5.465,2.014,11.256,4.224,16.205c1.222,2.736,2.497,4.779,4.468,4.791
				c4.379,0.026,8.756-0.747,13.107-1.16c0.404-0.039,0.786-0.035,1.149-0.001c0.054-0.476,0.161-0.964,0.347-1.462
				C165.995,155.107,168.975,146.169,168.277,137.722z"/>
		</g>
	</g>
	<g>
		<g>
			<path class="st4" d="M108.688,144.962c-6.05-5.198-15.892,3.378-19.485,8.116c-3.814,5.029-10.926,18.858-3.659,23.962
				c3.438,2.413,9.213,0.812,12.873-0.161c2.914-0.774,5.802-1.621,8.717-2.365c0.393-5.257,1.74-10.248,2.765-15.439
				C110.69,155.066,112.397,148.148,108.688,144.962z"/>
		</g>
	</g>
	<g>
		<g>
			<path class="st4" d="M95.577,357.844c-0.729-0.432-1.295-0.955-1.726-1.533c-9.021,9.424-20.289,16.615-28.372,26.896
				c3.143,1.884,6.271,3.808,9.54,5.408c0.116-1.382,0.895-2.699,2.597-3.592c10.627-5.574,18.212-14.942,26.285-23.597
				C101.012,360.539,98.212,359.402,95.577,357.844z"/>
		</g>
	</g>
	<g>
		<g>
			<path class="st4" d="M247.133,146.396c-1.662-12.602-18.564-14.734-27.586-8.215c-16.892,12.208-8.617,46.679,14.037,44.205
				h0.004c0.205-0.389,0.461-0.771,0.787-1.146C242.027,172.449,248.704,158.304,247.133,146.396z"/>
		</g>
	</g>
	<g>
		<g>
			<path class="st4" d="M178.45,442.762c-3.814,3.421-8.12,6.301-12.248,9.516c-5.23,4.074-9.025,11.312-15.691,13.163
				c-0.008,0.003-0.017,0.003-0.025,0.006c0.586,1.204,1.172,2.407,1.756,3.612c1.475,3.037,2.911,6.09,4.264,9.184
				c1.877-2.434,4.041-4.689,6.055-6.957c5.679-6.396,10.832-13.245,16.771-19.408C178.602,449.034,178.447,445.818,178.45,442.762z
				"/>
		</g>
	</g>
	<g>
		<g>
			<path class="st4" d="M387.077,378.422c0.379-0.319,0.625-0.581,0.785-0.788c0.001-0.003,0.001-0.005,0.002-0.008
				C387.633,377.903,387.375,378.17,387.077,378.422z"/>
		</g>
	</g>
	<g>
		<g>
			<path class="st4" d="M387.864,377.626c0.012-0.014,0.024-0.027,0.036-0.042C388.358,376.968,387.966,376.929,387.864,377.626z"/>
		</g>
	</g>
	<g>
		<g>
			<path class="st4" d="M396.282,411.578c-0.474-2.934-0.943-6.614-2.76-9.094c-0.702-0.958-0.168-0.917-1.478-0.289
				c-4.683,2.242-8.214,8.016-11.051,12.26c0.737,1.036,1.125,2.369,0.905,3.955c-0.492,3.559,2.027,5.65,5.166,6.764
				c1.987,0.704,6.035,2.141,7.991,0.634C398.53,423.131,396.854,415.12,396.282,411.578z"/>
		</g>
	</g>
	<g>
		<g>
			<path class="st18" d="M422.258,80.791c-6.589-4.5-15.828-2.426-22.696,0.193c-10.339,3.945-19.28,10.424-28.361,16.621
				c-11.36,7.754-22.615,15.678-33.525,24.055c-16.853,12.942-33.345,26.883-47.197,43.084c-0.02,0.004-0.038,0.004-0.058,0.008
				c-0.201,0.043-0.391,0.103-0.59,0.148c-1.619,0.377-3.187,0.828-4.701,1.365c-1.535,0.035-3.068,0.094-4.602,0.165
				c-0.562,0.026-1.125,0.062-1.688,0.093c-1.364,0.076-2.729,0.156-4.092,0.268c0.251-0.336,0.513-0.662,0.766-0.995
				c-1.852-0.396-3.707-0.769-5.573-1.08c-2.546-0.427-5.177-0.938-7.765-0.962c-0.759-0.008-1.531-0.021-2.296,0.033
				c-0.88,1.781-2.663,2.547-4.507,2.467c-2.828,8.314-7.438,16.166-12.733,22.25c-1.159,1.332-2.543,1.882-3.896,1.874
				c-0.724,1.534-2.144,2.743-4.311,2.979c-4.114,0.449-8.321,0.216-12.287-1.006c-14.266-4.396-21.977-19.004-22.343-33.605
				c-1.229,0.49-2.692,0.446-4.24-0.445c-5.138-2.959-13.234-1.129-19.056-0.958c-1.066,3.604-2.318,7.122-3.568,10.478
				c-1.058,2.842-3.465,3.557-5.681,2.932c-0.325,2.265-1.893,4.326-4.823,4.605c-5.697,0.543-12.216,2.189-17.867,0.578
				c-6.016-1.715-9.213-7.086-11.377-12.595c-2.174-0.051-4.346-0.224-6.521-0.222h-0.126c-0.216,0.48-0.511,0.945-0.897,1.385
				c-1.462,1.66-4.198,2.373-6.295,1.502c-0.68,3.278-1.262,6.475-1.352,9.443c-0.021,0.688-0.146,1.314-0.354,1.883
				c0.474,2.873-1.021,6.338-4.707,7.025c-11.613,2.166-29.61,10.951-37.925-2.656c-1.122-1.836-1.919-3.783-2.443-5.793
				c-4.874,1.315-10.663,2.24-14.449,5.095c-4.175,3.149-3.216,11.873-3.069,16.497c0.173,5.406,0.107,12.248,3.578,16.781
				c3.164,4.133,9.096,5.355,13.926,6.207c11.66,2.057,23.646,1.996,35.438,2.794c11.99,0.812,23.973,2.216,35.854,4.007
				c11.635,1.755,23.174,4.216,34.862,5.604c10.544,1.251,20.587,0.251,30.748,4.049c1.643,0.615,3.038,2.775,3.038,4.504v8.878
				c1.871,1.834,2.527,4.748,0.146,7.177c-7.807,7.963-14.027,17.371-19.518,27.037c-5.498,9.682-9.553,19.975-14.701,29.789
				c-4.754,9.066-10.463,17.593-15.607,26.436c-3.443,5.918-7.413,12.253-9.391,18.985c1.022,2.113,0.822,4.749-1.565,6.48
				c-0.551,1.081-1.427,1.788-2.44,2.171c-1.388,3.181-5.312,5.169-8.359,1.982c-1.76-1.842-6.066-2.257-8.506-2.812
				c-3.207-0.732-6.411-1.576-9.635-2.227c-2.17-0.438-4.375-0.813-6.587-1.197c-0.224,0.363-0.498,0.721-0.841,1.068
				c-9.639,9.76-18.185,21.248-30.282,28.121c2.864,1.333,5.726,2.671,8.597,3.988c9.842,4.514,19.947,8.705,28.518,15.461
				c0.097,0.076,0.176,0.165,0.265,0.247c2.684-2.639,6.136-4.775,8.663-7.306c4.594-4.599,8.875-9.496,13.5-14.061
				c0.281-2.266,1.85-4.232,4.85-4.232h1.334c4.292,0,8.438,5.51,4.557,9.115c-5.174,4.804-9.728,10.184-14.71,15.172
				c-2.386,2.389-4.866,5.196-7.681,7.09c-1.025,0.689-3.444,1.836-3.678,3.156c-0.047,0.264-0.111,0.51-0.184,0.748
				c5.188,6.645,9.406,18.043,10.695,20.793c1.885,4.02,3.806,8.025,5.739,12.024c0.356-0.188,0.755-0.35,1.198-0.473
				c2.678-0.743,4.534-3.718,6.307-5.699c1.76-1.968,3.703-3.731,5.786-5.354c5.323-4.146,12.365-7.764,16.132-13.535
				c0.789-1.208,1.838-1.957,2.97-2.341c-0.925-8.845-2.823-17.54-2.238-26.546h-0.784c3.343-13.949,15.639-22.759,26.817-30.498
				c28.738-19.896,47.073-50.399,74.069-72.277c3.187-2.582,6.564-0.617,7.799,2.356c3.434,1.198,4.231,4.92,3.07,7.653
				c0.027,0.057,0.049,0.117,0.076,0.174c0.55,1.098,1.158,2.168,1.75,3.242c1.42,2.584,2.836,5.092,4.416,7.582
				c4.251,6.699,8.188,13.589,11.891,20.605c7.406,14.035,14.057,28.434,21.704,42.341c6.237,11.34,12.88,22.728,16.706,35.155
				c1.604,5.207,3.023,10.479,4.744,15.65c0.664,2,1.324,4.021,2.188,5.947c0.481,1.074,1.038,1.961,1.358,2.213
				c2.261,1.787,2.403,4.211,1.404,6.164c1.199,5.812,2.02,12.08,5.048,16.871c3.493,5.524,11.563,7.627,17.108,3.699
				c8.781-6.221,12.812-24.406,3.676-31.969c-1.653-1.368-2.137-3.078-1.863-4.674c-4.272-3.688-6.8-9.045-5.904-15.508
				c0.139-1.006,0.484-1.817,0.961-2.461c-0.947-1.788-1.098-4.049,0.305-6.119c2.021-2.986,5.004-7.377,8.582-10.956
				c-1.921-6.038-4.893-13.624-4.051-19.916c-3.506,0.051-6.975-0.56-10.102-2.103c-7.75-3.824-11.214-11.558-10.781-19.969
				c0.075-1.452,0.479-2.999,1.387-4.128c-1.971-6.296,6.33-13.017,10.357-16.329c0.357-0.294,0.721-0.592,1.088-0.891
				c-4.175-2.322-5.143-8.25-5.439-12.564c-0.1-1.445-0.352-3.566-0.316-5.643c-5.91,1.467-13.411,3.078-19.047-0.009
				c-5.734-3.143-9.93-7.492-10.771-14.298c-0.409-3.315-0.048-6.594,1.106-9.531c-0.754-1.047-1.113-2.422-0.777-4.076
				c1.771-8.713,8.357-17.137,14.715-23.715c-5.78-12.674-7.488-28.053-0.744-40.681c0.236-0.441,0.508-0.821,0.802-1.155
				c-0.389-1.47-0.038-3.102,1.493-4.529c13.625-12.712,26.387-26.306,38.768-40.225c9.771-10.985,20.101-21.762,29.358-33.168
				c7.644-9.416,13.69-20.381,14.505-32.715C433.156,101.197,431.243,86.928,422.258,80.791z"/>
		</g>
	</g>
	<g>
		<g>
			<path class="st4" d="M387.895,333.924c-3.773,1.709-7.307,4.363-10.457,6.746c-2.441,1.848-4.873,3.749-6.963,5.999
				c-0.609,0.657-1.469,1.511-1.938,2.228c0.107,0.328,0.181,0.646,0.217,0.955c1.883,2.589,1.789,6.533-1.666,7.943
				c0.418,3.485,1.9,6.676,5.869,7.559c4.855,1.078,10.229,0.082,14.529-2.437C397.612,356.985,393.487,342.867,387.895,333.924z"/>
		</g>
	</g>
	<g>
		<g>
			<path class="st4" d="M375.15,281.373c-0.725-5.516-1.598-14.365-6.265-18.203c-1.375-1.129-1.961-1.088-3.586,0.003
				c-3.156,2.117-5.906,4.723-8.469,7.521c-3.402,3.715-7.707,8.268-10.336,13.184c2.719,2.047,3.748,6.549,0.084,9.05
				c-6.717,4.584-0.192,13.409,6.357,12.942c7.985-0.57,15.462-3.765,22.936-6.516C376.289,293.383,375.922,287.255,375.15,281.373z
				"/>
		</g>
	</g>
	<g>
		<g>
			<path d="M387.864,377.626c-0.001,0.003-0.001,0.005-0.002,0.008c0.014-0.017,0.026-0.033,0.038-0.05
				C387.888,377.599,387.875,377.612,387.864,377.626z"/>
		</g>
	</g>
	<g>
		<g>
			<path d="M421.297,156.738c17.613-18.567,27.193-42.633,19.19-67.918c-2.911-9.199-9.264-17.133-18.591-20.187
				c-8.514-2.788-17.762-0.999-25.973,1.968c-10.277,3.715-19.279,10.029-28.255,16.104c-11.337,7.674-22.531,15.559-33.465,23.797
				c-18.1,13.641-36.001,28.48-50.935,45.736c-6.189-1.662-17.295-4.604-25.073-3.584c0.181-2.689,0.138-5.358-0.206-7.961
				c-2.411-18.274-22.732-24.596-38.43-18.862c-10.392,3.796-16.555,12.681-18.801,22.812c-0.101-0.065-0.196-0.134-0.304-0.195
				c-6.191-3.567-14.294-2.633-21.501-2.211c0.641-4.868,0.625-9.755-0.513-14.487c-1.485-6.175-5.413-11.211-11.298-13.731
				c-8.525-3.652-16.523-1.053-23.07,5.031c-5.678,5.277-12.522,10.66-14.847,18.314c-0.983,3.238-0.634,7.084,0.255,10.879
				c-2.529-0.142-5.07-0.275-7.549,0.174c-0.093,0.017-0.18,0.039-0.271,0.058c0.418-6.528-0.956-12.606-7.369-17.06
				c-11.358-7.889-25.912,1.294-33.355,10.402c-4.156,5.087-7.521,11.822-8.697,18.701c-0.179,0.047-0.359,0.099-0.543,0.164
				c-6.346,2.256-13.304,3.353-19.152,6.818c-6.447,3.82-8.044,11.669-8.393,18.559c-0.723,14.293,0.18,31.168,14.919,37.932
				c8.503,3.9,18.375,4.387,27.537,4.965c14.175,0.893,28.361,1.4,42.427,3.504c12.84,1.92,25.66,3.857,38.486,5.929
				c6.449,1.042,12.896,1.95,19.436,1.974c4.889,0.018,9.834,0.248,14.566,1.493v7.413c-14.229,15.687-24.336,35.869-32.439,55.151
				c-6.688,15.911-20.461,29.591-25.727,46.272v4.221c-4.818-2.014-10.928-2.605-15.33-3.643c-9.139-2.15-19.322-2.408-27.557-7.281
				c-1.781-1.054-3.451-0.959-4.777-0.212c-1.938-2.438-5.776-3.49-8.469-0.491c-9.998,11.141-23.395,18.896-32,31.332
				c-0.389,0.562-0.658,1.138-0.83,1.715c-2.898,2.172-3.709,7.333,0.516,9.512c5.172,2.667,10.082,5.799,15.196,8.574
				c5.468,2.967,11.363,5.37,17.022,7.958c8.394,3.838,17.332,7.278,25,12.528c0.658,2.057,2.461,3.807,4.643,4.118
				c-0.143,2.239,1.072,4.492,2.881,5.587c0.53,0.722,1.018,1.479,1.508,2.229c1.042,1.59,2.018,3.222,3.015,4.839
				c3.406,5.522,5.624,12.083,8.452,17.937c3.074,6.361,6.167,12.715,9.23,19.082c1.496,3.107,2.913,6.22,4.309,9.373
				c0.664,1.499,2.65,4.646,3.264,6.47c-0.548,2.706,0.668,5.539,4.211,5.776c0.137,0.01,0.273,0.02,0.41,0.027
				c1.442,0.098,2.787-0.192,3.881-0.814c2.162-0.184,4.212-1.506,4.824-4.229c1.119-4.98,7.178-9.695,10.434-13.449
				c4.942-5.697,9.512-11.693,14.779-17.105c3.067-1.523,4.909-6.099,1.686-9.295c1.562,1.549,0.741,0.906,0.527-0.536
				c-0.26-1.759-0.352-3.548-0.454-5.321c-0.177-3.05-0.206-6.109-0.218-9.164c-0.043-10.895-3.861-21.502-2.754-32.463
				c0.049-0.479,0.039-0.931-0.014-1.362c3.981-10.023,16.352-16.983,24.443-22.598c25.551-17.731,42.328-44.668,65.246-65.244
				c2.359,5.712,6.225,11.146,9.42,16.274c9.769,15.682,17.252,32.549,25.743,48.911c7.247,13.966,16.154,27.383,20.999,42.445
				c1.912,5.942,3.502,11.983,5.474,17.909c0.853,2.564,1.816,5.559,3.308,8.092c3.146,9.967,3.545,20.701,10.941,28.755
				c7.209,7.849,20.544,7.823,29.029,2.433c11.913-7.57,16.881-26.771,11.324-40.269c0.072-0.001,0.145,0.002,0.217,0.001
				c11.551-0.193,15.318-10.508,15.02-20.492c-0.274-9.158-2.383-22.79-12.638-25.758c-1.557-0.45-3.091-0.488-4.589-0.214
				c-0.464-1.507-0.932-3.013-1.363-4.528c-0.496-1.745-0.921-3.498-1.217-5.289c-0.164-0.984-0.221-1.975-0.259-2.97
				c-0.007-0.166,0.004-0.306,0.021-0.428c-0.16,0.207-0.406,0.469-0.785,0.788c0.299-0.252,0.557-0.519,0.787-0.796
				c0.103-0.697,0.494-0.658,0.036-0.042c0.839-1.028,1.22-2.207,1.253-3.379c0.75-0.311,1.488-0.635,2.199-0.984
				c9.109-4.475,13.014-11.719,13.149-21.754c0.128-9.459-4.092-19.866-9.941-27.178c-1.69-2.111-3.776-2.729-6.378-2.115
				c-3.717,0.877-7.365,2.719-10.807,4.936c-0.283-1.086-0.977-2.074-2.166-2.781c-0.156-0.359-0.357-0.801-0.414-1.008
				c-0.017-0.068-0.025-0.103-0.038-0.156c-0.058-0.326-0.109-0.652-0.153-0.98c-0.131-0.893-0.2-1.794-0.262-2.693
				c-0.1-1.446-0.11-2.898-0.082-4.348c0.148-0.52,0.231-1.084,0.227-1.699c-0.005-0.604-0.051-1.189-0.225-1.772
				c2.85-1.05,5.688-2.134,8.557-3.113c1.725-0.588,3.362-2.271,3.58-4.142c1.049-8.974,0.65-18.222-0.745-27.131
				c-1.331-8.5-3.86-19.264-11.822-24.039c-6.14-3.682-11.901-1.338-16.893,2.429c-3.282-9.061-4.188-19.096,0.491-27.857
				c0.615-1.151,0.781-2.255,0.627-3.251c0.025-0.023,0.051-0.041,0.076-0.064C380.821,203.334,400.006,179.183,421.297,156.738z
				 M219.547,138.182c9.021-6.52,25.924-4.387,27.586,8.215c1.57,11.907-5.106,26.053-12.758,34.844
				c-0.326,0.375-0.582,0.758-0.787,1.146h-0.004C210.93,184.86,202.656,150.39,219.547,138.182z M149.334,133.238
				c4.312-4.463,8.565-7.652,14.666-4.549c3.242,1.648,4.008,5.783,4.276,9.032c0.698,8.447-2.282,17.386-5.192,25.204
				c-0.186,0.498-0.293,0.986-0.347,1.462c-0.363-0.034-0.745-0.038-1.149,0.001c-4.352,0.413-8.729,1.187-13.107,1.16
				c-1.971-0.012-3.246-2.055-4.468-4.791c-2.21-4.949-4.099-10.74-4.224-16.205C139.691,140.289,146.744,135.918,149.334,133.238z
				 M89.203,153.078c3.594-4.738,13.436-13.314,19.485-8.116c3.709,3.187,2.002,10.104,1.21,14.112
				c-1.024,5.191-2.372,10.183-2.765,15.439c-2.915,0.744-5.803,1.591-8.717,2.365c-3.66,0.973-9.436,2.574-12.873,0.161
				C78.277,171.937,85.388,158.107,89.203,153.078z M75.019,388.614c-3.27-1.601-6.397-3.524-9.54-5.408
				c8.083-10.28,19.352-17.472,28.372-26.896c0.431,0.578,0.997,1.102,1.726,1.533c2.636,1.559,5.436,2.695,8.324,3.582
				c-8.073,8.654-15.658,18.022-26.285,23.597C75.914,385.915,75.135,387.232,75.019,388.614z M162.559,471.285
				c-2.014,2.268-4.178,4.523-6.055,6.957c-1.353-3.094-2.789-6.146-4.264-9.184c-0.584-1.205-1.17-2.408-1.756-3.612
				c0.009-0.003,0.018-0.003,0.025-0.006c6.666-1.851,10.461-9.089,15.691-13.163c4.128-3.215,8.434-6.095,12.248-9.516
				c-0.003,3.057,0.152,6.272,0.88,9.115C173.391,458.04,168.238,464.89,162.559,471.285z M392.044,402.195
				c1.31-0.628,0.775-0.669,1.478,0.289c1.816,2.479,2.286,6.16,2.76,9.094c0.572,3.542,2.248,11.553-1.226,14.229
				c-1.956,1.507-6.004,0.07-7.991-0.634c-3.139-1.113-5.658-3.205-5.166-6.764c0.22-1.586-0.168-2.919-0.905-3.955
				C383.831,410.211,387.362,404.438,392.044,402.195z M377.438,340.67c3.15-2.383,6.684-5.037,10.457-6.746
				c5.592,8.943,9.717,23.062-0.408,28.993c-4.301,2.519-9.674,3.515-14.529,2.437c-3.969-0.883-5.451-4.073-5.869-7.559
				c3.455-1.41,3.549-5.354,1.666-7.943c-0.036-0.309-0.109-0.627-0.217-0.955c0.469-0.717,1.328-1.57,1.938-2.228
				C372.565,344.419,374.997,342.518,377.438,340.67z M356.831,270.693c2.562-2.798,5.312-5.403,8.469-7.521
				c1.625-1.091,2.211-1.132,3.586-0.003c4.667,3.838,5.54,12.688,6.265,18.203c0.772,5.882,1.139,12.01,0.722,17.98
				c-7.474,2.751-14.95,5.945-22.936,6.516c-6.55,0.467-13.074-8.358-6.357-12.942c3.664-2.501,2.635-7.003-0.084-9.05
				C349.124,278.961,353.428,274.408,356.831,270.693z M349.87,217.238c-1.531,1.428-1.882,3.06-1.493,4.529
				c-0.294,0.334-0.565,0.714-0.802,1.155c-6.744,12.628-5.036,28.007,0.744,40.681c-6.357,6.578-12.943,15.002-14.715,23.715
				c-0.336,1.654,0.023,3.029,0.777,4.076c-1.154,2.938-1.516,6.216-1.106,9.531c0.841,6.806,5.036,11.155,10.771,14.298
				c5.636,3.087,13.137,1.476,19.047,0.009c-0.035,2.076,0.217,4.197,0.316,5.643c0.297,4.314,1.265,10.242,5.439,12.564
				c-0.367,0.299-0.73,0.597-1.088,0.891c-4.027,3.312-12.328,10.033-10.357,16.329c-0.907,1.129-1.312,2.676-1.387,4.128
				c-0.433,8.411,3.031,16.145,10.781,19.969c3.127,1.543,6.596,2.153,10.102,2.103c-0.842,6.292,2.13,13.878,4.051,19.916
				c-3.578,3.579-6.561,7.97-8.582,10.956c-1.402,2.07-1.252,4.331-0.305,6.119c-0.477,0.644-0.822,1.455-0.961,2.461
				c-0.896,6.463,1.632,11.82,5.904,15.508c-0.273,1.596,0.21,3.306,1.863,4.674c9.137,7.562,5.105,25.748-3.676,31.969
				c-5.545,3.928-13.615,1.825-17.108-3.699c-3.028-4.791-3.849-11.059-5.048-16.871c0.999-1.953,0.856-4.377-1.404-6.164
				c-0.32-0.252-0.877-1.139-1.358-2.213c-0.864-1.926-1.524-3.947-2.188-5.947c-1.721-5.172-3.14-10.443-4.744-15.65
				c-3.826-12.428-10.469-23.815-16.706-35.155c-7.647-13.907-14.298-28.306-21.704-42.341c-3.703-7.017-7.64-13.906-11.891-20.605
				c-1.58-2.49-2.996-4.998-4.416-7.582c-0.592-1.074-1.2-2.145-1.75-3.242c-0.027-0.057-0.049-0.117-0.076-0.174
				c1.161-2.733,0.363-6.455-3.07-7.653c-1.234-2.974-4.612-4.938-7.799-2.356c-26.996,21.878-45.331,52.382-74.069,72.277
				c-11.179,7.739-23.475,16.549-26.817,30.498h0.784c-0.585,9.006,1.313,17.701,2.238,26.546c-1.132,0.384-2.181,1.133-2.97,2.341
				c-3.767,5.771-10.809,9.389-16.132,13.535c-2.083,1.623-4.026,3.387-5.786,5.354c-1.772,1.981-3.629,4.956-6.307,5.699
				c-0.443,0.123-0.842,0.284-1.198,0.473c-1.934-3.999-3.854-8.005-5.739-12.024c-1.289-2.75-5.507-14.148-10.695-20.793
				c0.072-0.238,0.137-0.484,0.184-0.748c0.233-1.32,2.652-2.467,3.678-3.156c2.814-1.894,5.295-4.701,7.681-7.09
				c4.982-4.988,9.536-10.368,14.71-15.172c3.881-3.605-0.265-9.115-4.557-9.115H149.6c-3,0-4.568,1.967-4.85,4.232
				c-4.625,4.564-8.906,9.462-13.5,14.061c-2.527,2.53-5.979,4.667-8.663,7.306c-0.089-0.082-0.168-0.171-0.265-0.247
				c-8.57-6.756-18.676-10.947-28.518-15.461c-2.871-1.317-5.732-2.655-8.597-3.988c12.098-6.873,20.644-18.361,30.282-28.121
				c0.343-0.348,0.617-0.705,0.841-1.068c2.212,0.384,4.417,0.76,6.587,1.197c3.224,0.65,6.428,1.494,9.635,2.227
				c2.439,0.556,6.746,0.971,8.506,2.812c3.047,3.187,6.972,1.198,8.359-1.982c1.014-0.383,1.89-1.09,2.44-2.171
				c2.388-1.731,2.588-4.367,1.565-6.48c1.978-6.732,5.947-13.067,9.391-18.985c5.145-8.843,10.854-17.369,15.607-26.436
				c5.148-9.814,9.203-20.107,14.701-29.789c5.49-9.666,11.711-19.074,19.518-27.037c2.381-2.429,1.725-5.343-0.146-7.177v-8.878
				c0-1.729-1.396-3.889-3.038-4.504c-10.161-3.798-20.204-2.798-30.748-4.049c-11.688-1.388-23.228-3.849-34.862-5.604
				c-11.881-1.791-23.863-3.195-35.854-4.007c-11.791-0.798-23.777-0.737-35.438-2.794c-4.83-0.852-10.762-2.074-13.926-6.207
				c-3.471-4.533-3.405-11.375-3.578-16.781c-0.146-4.624-1.105-13.348,3.069-16.497c3.786-2.854,9.575-3.779,14.449-5.095
				c0.524,2.01,1.321,3.957,2.443,5.793c8.314,13.607,26.312,4.822,37.925,2.656c3.686-0.688,5.181-4.152,4.707-7.025
				c0.207-0.568,0.333-1.195,0.354-1.883c0.09-2.969,0.672-6.165,1.352-9.443c2.097,0.871,4.833,0.158,6.295-1.502
				c0.387-0.439,0.682-0.904,0.897-1.385h0.126c2.176-0.002,4.348,0.171,6.521,0.222c2.164,5.509,5.361,10.88,11.377,12.595
				c5.651,1.611,12.17-0.035,17.867-0.578c2.931-0.279,4.498-2.341,4.823-4.605c2.216,0.625,4.623-0.09,5.681-2.932
				c1.25-3.355,2.502-6.874,3.568-10.478c5.821-0.171,13.918-2.001,19.056,0.958c1.548,0.892,3.012,0.936,4.24,0.445
				c0.366,14.602,8.077,29.21,22.343,33.605c3.966,1.222,8.173,1.455,12.287,1.006c2.167-0.236,3.587-1.445,4.311-2.979
				c1.354,0.008,2.737-0.542,3.896-1.874c5.295-6.084,9.905-13.936,12.733-22.25c1.844,0.08,3.627-0.686,4.507-2.467
				c0.765-0.054,1.537-0.041,2.296-0.033c2.588,0.024,5.219,0.535,7.765,0.962c1.866,0.312,3.722,0.685,5.573,1.08
				c-0.253,0.333-0.515,0.659-0.766,0.995c1.362-0.111,2.728-0.191,4.092-0.268c0.563-0.031,1.126-0.066,1.688-0.093
				c1.533-0.071,3.066-0.13,4.602-0.165c1.515-0.537,3.082-0.988,4.701-1.365c0.199-0.046,0.389-0.105,0.59-0.148
				c0.02-0.004,0.038-0.004,0.058-0.008c13.853-16.201,30.345-30.142,47.197-43.084c10.91-8.377,22.165-16.301,33.525-24.055
				c9.081-6.197,18.022-12.676,28.361-16.621c6.868-2.619,16.107-4.693,22.696-0.193c8.984,6.137,10.897,20.406,10.242,30.34
				c-0.814,12.334-6.861,23.299-14.505,32.715c-9.258,11.406-19.587,22.183-29.358,33.168
				C376.256,190.933,363.495,204.526,349.87,217.238z"/>
		</g>
	</g>
</g>
</svg>
