<?xml version="1.0" encoding="utf-8"?>
<!-- Generator: Adobe Illustrator 16.0.3, SVG Export Plug-In . SVG Version: 6.00 Build 0)  -->
<!DOCTYPE svg PUBLIC "-//W3C//DTD SVG 1.1//EN" "http://www.w3.org/Graphics/SVG/1.1/DTD/svg11.dtd">
<svg version="1.1" id="Layer_1" xmlns="http://www.w3.org/2000/svg" xmlns:xlink="http://www.w3.org/1999/xlink" x="0px" y="0px"
	 width="512px" height="512px" viewBox="0 0 512 512" style="enable-background:new 0 0 512 512;" xml:space="preserve">
<style type="text/css">
<![CDATA[
	.st0{fill:#127274;}
	.st1{fill:#14B6B9;}
	.st2{fill:#1E4384;}
	.st3{fill:#EF4754;}
	.st4{fill:#EF4823;}
	.st5{fill:#BCBCBC;}
	.st6{fill:#F6851F;}
	.st7{fill:#C56528;}
	.st8{fill:#FCBF95;}
	.st9{fill:#FEBF10;}
	.st10{fill:none;}
	.st11{fill:#010101;}
	.st12{fill:#3AB37C;}
	.st13{fill:#D6E5E5;}
	.st14{fill:#71C598;}
	.st15{fill:#74CCCF;}
]]>
</style>
<g>
	<g>
		<g>
			<path class="st7" d="M266.825,317.759c-5.021-14.39-11.119-30.046-6.395-45.372c0.9-2.92,2.168-5.968,3.779-8.869
				c-5.68,2.437-10.973,6.048-15.242,10.439c-20.162,20.739-17.209,49.932-22.466,76.348c0.31,10.016,1.831,20.9,9.634,27.702
				c2.678,2.335,5.689,4.241,8.886,5.681c-0.002-0.045-0.009-0.09-0.011-0.135c0.002-2.038,0.153-3.982,0.523-5.986
				c0.59-3.202,1.439-6.364,3.078-9.201c3.131-5.42,8.906-8.512,13.355-12.684c4.439-4.162,8.359-8.58,9.064-14.863
				C271.924,332.866,269.415,325.176,266.825,317.759z"/>
		</g>
	</g>
	<g>
		<g>
			<path class="st13" d="M370.744,87.289c-0.016,0.015-0.03,0.029-0.046,0.044c-7.83,7.172-18.618,11.994-28.619,15.185
				c-12.717,4.057-26.017,6.115-39.318,6.946c-13.744,0.858-27.508,0.687-41.268,0.426c-14.448-0.274-28.908-0.123-43.338-0.961
				c-28.338-1.646-56.245-6.648-83.653-13.848c-0.648,11.784-1.759,23.546-1.332,35.347c20.525,1.716,39.642,10.609,60.2,12.416
				c23.484,2.063,47.068,0.77,70.602,0.799c34.568,0.042,75.278,1.778,101.322-25.146c0.871-0.9,1.85-1.407,2.841-1.614
				C372.354,107.737,371.611,97.408,370.744,87.289z"/>
		</g>
	</g>
	<g>
		<g>
			<path class="st13" d="M365.972,73.572c-2.439-4.069-8.024-6.85-12.896-8.916c-6.925-2.937-14.178-5.014-21.508-6.67
				c-18.162-4.102-34.957-5.051-53.703-4.825c-30.691,0.369-61.335,4.28-91.727,8.312c-18.628,2.472-38.988,6.793-49.918,22.716
				c22.223,5.877,44.821,10.414,67.713,12.66c23.693,2.324,47.693,2.16,71.488,2.283c21.994,0.114,45.09-0.296,65.973-8.011
				c7.256-2.681,15.979-6.076,21.646-11.604c0.867-0.847,1.735-1.72,2.43-2.72c-0.188,0.271,0.689-1.862,0.594-1.245
				C366.271,74.618,366.278,74.083,365.972,73.572z M308.382,84.906c-6.133,0.178-12.148-2.129-18.027-2.29
				c-6.299-0.171-7.668-8.992-2.795-10.687c0.207-2.053,1.36-3.96,3.553-4.489c8.367-2.019,17.127-3.292,25.265,0.264
				c1.737,0.76,2.888,2.662,3.038,4.504C319.987,79.211,315.593,84.697,308.382,84.906z"/>
		</g>
	</g>
	<g>
		<g>
			<path class="st7" d="M304.536,274.155c-5.535-9.434-13.998-13.616-23.027-14.031c-3.696,1.781-6.841,7.021-8.273,9.892
				c-3.017,6.042-4.022,12.178-3.217,18.922c1.93,16.167,12.174,30.828,12.174,47.283c-0.001,13.818-6.838,23.097-17.395,31.416
				c-4.957,3.907-8.201,6.978-8.771,13.625c-0.153,1.783-0.051,3.616-0.067,5.335c6.011,0.56,12.144-0.525,17.671-3.628
				c18.566-10.421,29.871-30.722,34.301-51.036C311.802,314.179,314.19,290.608,304.536,274.155z"/>
		</g>
	</g>
	<g>
		<g>
			<path class="st13" d="M380.376,115.528c-0.018-0.002-0.032-0.007-0.049-0.01c-0.721,2.563-1.687,5.087-2.973,7.558
				c-0.94,1.806-2.428,2.686-3.991,2.878c-27.306,28.033-67.525,28.734-104.131,28.666c-24.011-0.045-48.101,1.233-72.077-0.506
				c-11.993-0.87-23.246-3.307-34.813-6.509c-11.101-3.073-22.379-6.332-33.979-6.492c-2.736-0.038-5.204-1.577-5.789-4.279
				c-1.393,1.535-2.792,3.064-4.162,4.621c-3.676,4.177-8.215,9.03-9.558,14.614c-2.45,10.19,5.29,20.06,13.608,25.23
				c1.82,0.016,3.559,0.826,4.411,2.491c19.325,10.042,42.985,11.725,64.261,13.055c23.902,1.494,47.928,2.64,71.878,2.613
				c26.935-0.03,54.349-1.667,80.365-9.132c13.009-3.733,25.776-8.623,37.561-15.33c9.308-5.298,21.774-11.461,26.108-21.963
				C414.665,134.577,397.439,118.222,380.376,115.528z"/>
		</g>
	</g>
	<g>
		<g>
			<path class="st2" d="M390.96,182.005c-31.104,18.729-68.227,26.208-104.199,27.902c-27.053,1.274-54.239,0.113-81.266-1.345
				c-19.281-1.04-38.771-1.856-57.672-6.125c-6.822-1.541-13.679-3.488-20.102-6.201c1.154,21.972,5.469,43.618,9.512,65.233
				c4.543,24.29,8.221,48.774,12.004,73.194c3.963,25.584,7.717,51.203,11.945,76.745c1.738,10.493,2.964,21.048,4.711,31.535
				c1.337,8.028,2.707,16.439,6.234,23.849c0.263,0.551,0.419,1.08,0.496,1.584c13.535,13.655,33.449,19.781,51.948,22.876
				c16.817,2.814,34.816,4.496,51.872,3.143c14.381-1.14,28.859-3.683,42.773-7.474c6.821-1.858,14.043-3.833,20.263-7.287
				c2.042-1.134,4.257-2.42,5.547-3.887c0.554-0.629,0.986-1.46,0.849-0.919c0.108-0.425,0.177-0.582,0.215-0.633
				c-0.033-0.053-0.086-0.218-0.148-0.663c-0.589-4.155,2.992-6.129,6.23-5.617c0.184-1.849,1.236-3.61,3.436-4.497
				c-0.264,0.106,0.527-0.48,0.93-1.229c0.742-1.386,1.432-2.835,1.886-4.345c1.149-3.818,1.972-7.725,2.606-11.661
				c1.17-7.25,1.75-14.562,2.736-21.834c3.684-27.134,7.086-54.305,10.943-81.416c4.112-28.9,8.896-57.639,11.893-86.682
				c1.453-14.09,2.779-28.197,3.713-42.332C391.017,203.291,390.995,192.651,390.96,182.005z M321.528,314.693
				c-1.49,20.138-7.184,40.275-19.251,56.713c-13.864,18.884-35.95,32.603-59.512,23.159c-9.22-3.695-17.267-9.691-21.808-18.697
				c-3.804-7.544-5.042-15.922-5.391-24.291c-0.175-0.677-0.21-1.434-0.072-2.262c-0.025-1.094-0.042-2.187-0.047-3.276
				c-0.006-1.532,0.506-2.771,1.311-3.703c4.305-26.609,3.305-55.333,23.945-75.644c10.799-10.626,26.715-18.47,41.857-17.886
				c1.263-0.163,2.567-0.201,3.918-0.085c1.043,0.089,1.88,0.405,2.535,0.869c6.559,1.383,12.801,4.58,18.211,10.089
				C321.151,273.865,322.921,295.866,321.528,314.693z"/>
		</g>
	</g>
	<g>
		<g>
			<path class="st11" d="M417.741,132.497c-5.063-15.292-19.844-25.332-35.266-27.767c-0.14-0.022-0.273-0.032-0.41-0.044
				c0.623-10.219-1.057-20.782-1.154-30.978c-0.031-3.301-2.425-4.875-4.969-4.903c-2.014-4.558-6.816-7.938-10.811-10.392
				c-12.365-7.596-27.992-10.91-42.12-13.348c-20.853-3.597-42.634-3.395-63.667-2.295c-15.759,0.823-31.461,2.557-47.124,4.437
				c-12.384,1.486-24.864,2.716-37.16,4.84c-19.073,3.296-37.796,10.461-48.481,26.726c-1.428,0.891-2.489,2.391-2.606,4.445
				c-0.332,0.643-0.653,1.297-0.962,1.965c-1.042,2.256-0.5,4.312,0.76,5.767c-0.393,9.746-1.299,19.469-1.584,29.208
				c-11.523,15.95-33.467,31.272-21.338,53.403c3.904,7.125,9.338,12.539,15.66,16.737c0.512,24.303,5.277,48.19,9.755,72.018
				c4.683,24.921,8.419,50.056,12.3,75.114c3.963,25.58,7.736,51.189,11.965,76.727c1.714,10.354,2.918,20.77,4.643,31.121
				c1.177,7.062,2.422,14.504,4.971,21.307c-0.811,1.491-0.787,3.334,0.735,5.102c15.015,17.431,36.748,25.653,58.849,29.873
				c18.731,3.576,39.18,5.265,58.236,3.753c16.477-1.307,33.125-4.534,48.979-9.159c10.062-2.936,29.846-8.627,30.056-21.926
				c0.698,0.023,1.45-0.104,2.249-0.426c6.761-2.725,9.107-10.356,10.809-16.812c2.213-8.399,3.01-17.168,3.954-25.779
				c2.944-26.846,6.929-53.635,10.681-80.379c4.238-30.206,9.327-60.248,12.515-90.586c1.546-14.72,2.9-29.46,3.909-44.227
				c0.94-13.756,0.809-27.493,0.799-41.272c1.389-1.011,2.768-2.039,4.125-3.103C418.06,162.217,422.519,146.925,417.741,132.497z
				 M186.138,61.473c30.392-4.032,61.035-7.943,91.727-8.312c18.746-0.226,35.541,0.723,53.703,4.825
				c7.33,1.656,14.583,3.733,21.508,6.67c4.872,2.066,10.457,4.847,12.896,8.916c0.307,0.512,0.299,1.046,0.092,1.98
				c0.096-0.618-0.782,1.516-0.594,1.245c-0.694,1-1.562,1.873-2.43,2.72c-5.668,5.528-14.391,8.923-21.646,11.604
				c-20.883,7.715-43.979,8.125-65.973,8.011c-23.795-0.123-47.795,0.042-71.488-2.283c-22.892-2.246-45.49-6.782-67.713-12.66
				C147.149,68.266,167.51,63.944,186.138,61.473z M134.502,95.081c27.408,7.2,55.315,12.202,83.653,13.848
				c14.43,0.838,28.89,0.687,43.338,0.961c13.76,0.261,27.523,0.433,41.268-0.426c13.302-0.831,26.602-2.889,39.318-6.946
				c10.001-3.191,20.789-8.013,28.619-15.185c0.016-0.015,0.03-0.029,0.046-0.044c0.867,10.119,1.61,20.448-2.609,29.594
				c-0.991,0.207-1.97,0.714-2.841,1.614c-26.044,26.924-66.754,25.188-101.322,25.146c-23.533-0.029-47.117,1.265-70.602-0.799
				c-20.559-1.806-39.675-10.7-60.2-12.416C132.743,118.627,133.854,106.865,134.502,95.081z M390.315,213.921
				c-0.934,14.135-2.26,28.242-3.713,42.332c-2.996,29.043-7.78,57.782-11.893,86.682c-3.857,27.111-7.26,54.282-10.943,81.416
				c-0.986,7.272-1.566,14.583-2.736,21.834c-0.635,3.936-1.457,7.842-2.606,11.661c-0.454,1.51-1.144,2.959-1.886,4.345
				c-0.402,0.75-1.193,1.335-0.93,1.229c-2.199,0.887-3.252,2.648-3.436,4.497c-3.238-0.512-6.819,1.462-6.23,5.617
				c0.062,0.445,0.115,0.61,0.148,0.663c-0.038,0.051-0.106,0.208-0.215,0.633c0.138-0.541-0.295,0.29-0.849,0.919
				c-1.29,1.466-3.505,2.753-5.547,3.887c-6.22,3.454-13.441,5.429-20.263,7.287c-13.914,3.791-28.393,6.333-42.773,7.474
				c-17.056,1.353-35.055-0.329-51.872-3.143c-18.499-3.096-38.413-9.221-51.948-22.876c-0.077-0.505-0.233-1.033-0.496-1.584
				c-3.527-7.41-4.897-15.821-6.234-23.849c-1.747-10.487-2.973-21.042-4.711-31.535c-4.229-25.542-7.982-51.161-11.945-76.745
				c-3.783-24.42-7.461-48.904-12.004-73.194c-4.043-21.615-8.357-43.261-9.512-65.233c6.423,2.713,13.279,4.66,20.102,6.201
				c18.9,4.269,38.391,5.084,57.672,6.125c27.026,1.458,54.213,2.619,81.266,1.345c35.973-1.694,73.095-9.173,104.199-27.902
				C390.995,192.651,391.017,203.291,390.315,213.921z M407.046,153.033c-4.334,10.502-16.801,16.666-26.108,21.963
				c-11.784,6.707-24.552,11.597-37.561,15.33c-26.017,7.465-53.431,9.102-80.365,9.132c-23.95,0.026-47.976-1.12-71.878-2.613
				c-21.275-1.33-44.936-3.013-64.261-13.055c-0.853-1.665-2.591-2.476-4.411-2.491c-8.318-5.171-16.059-15.04-13.608-25.23
				c1.343-5.584,5.882-10.438,9.558-14.614c1.37-1.557,2.77-3.086,4.162-4.621c0.585,2.702,3.053,4.241,5.789,4.279
				c11.601,0.16,22.879,3.419,33.979,6.492c11.567,3.202,22.82,5.639,34.813,6.509c23.977,1.739,48.066,0.461,72.077,0.506
				c36.605,0.069,76.825-0.633,104.131-28.666c1.563-0.192,3.051-1.072,3.991-2.878c1.286-2.471,2.252-4.995,2.973-7.558
				c0.017,0.003,0.031,0.008,0.049,0.01C397.439,118.222,414.665,134.577,407.046,153.033z"/>
		</g>
	</g>
	<g>
		<g>
			<path class="st11" d="M319.415,72.208c-0.15-1.842-1.301-3.744-3.038-4.504c-8.138-3.557-16.897-2.283-25.265-0.264
				c-2.192,0.529-3.346,2.437-3.553,4.489c-4.873,1.695-3.504,10.516,2.795,10.687c5.879,0.161,11.895,2.468,18.027,2.29
				C315.593,84.697,319.987,79.211,319.415,72.208z"/>
		</g>
	</g>
	<g>
		<g>
			<path class="st11" d="M307.226,259.682c-5.41-5.51-11.652-8.706-18.211-10.089c-0.655-0.464-1.492-0.78-2.535-0.869
				c-1.351-0.116-2.655-0.078-3.918,0.085c-15.143-0.584-31.059,7.26-41.857,17.886c-20.641,20.311-19.641,49.034-23.945,75.644
				c-0.805,0.932-1.316,2.171-1.311,3.703c0.005,1.089,0.021,2.182,0.047,3.276c-0.138,0.829-0.103,1.585,0.072,2.262
				c0.349,8.369,1.587,16.747,5.391,24.291c4.541,9.005,12.588,15.001,21.808,18.697c23.562,9.443,45.647-4.275,59.512-23.159
				c12.067-16.438,17.761-36.575,19.251-56.713C322.921,295.866,321.151,273.865,307.226,259.682z M248.612,368.366
				c-1.639,2.837-2.488,5.999-3.078,9.201c-0.37,2.003-0.521,3.948-0.523,5.986c0.002,0.045,0.009,0.09,0.011,0.135
				c-3.196-1.439-6.208-3.346-8.886-5.681c-7.803-6.802-9.324-17.686-9.634-27.702c5.257-26.416,2.304-55.609,22.466-76.348
				c4.27-4.392,9.562-8.003,15.242-10.439c-1.611,2.901-2.879,5.949-3.779,8.869c-4.725,15.326,1.373,30.982,6.395,45.372
				c2.59,7.417,5.099,15.107,4.207,23.06c-0.705,6.284-4.625,10.701-9.064,14.863C257.519,359.854,251.743,362.945,248.612,368.366z
				 M307.931,331.933c-4.43,20.314-15.734,40.615-34.301,51.036c-5.527,3.103-11.66,4.188-17.671,3.628
				c0.017-1.719-0.086-3.552,0.067-5.335c0.57-6.647,3.814-9.718,8.771-13.625c10.557-8.319,17.394-17.598,17.395-31.416
				c0-16.456-10.244-31.116-12.174-47.283c-0.806-6.744,0.2-12.88,3.217-18.922c1.433-2.871,4.577-8.111,8.273-9.892
				c9.029,0.416,17.492,4.597,23.027,14.031C314.19,290.608,311.802,314.179,307.931,331.933z"/>
		</g>
	</g>
</g>
</svg>
