<?xml version="1.0" encoding="utf-8"?>
<!-- Generator: Adobe Illustrator 16.0.3, SVG Export Plug-In . SVG Version: 6.00 Build 0)  -->
<!DOCTYPE svg PUBLIC "-//W3C//DTD SVG 1.1//EN" "http://www.w3.org/Graphics/SVG/1.1/DTD/svg11.dtd">
<svg version="1.1" id="Layer_1" xmlns="http://www.w3.org/2000/svg" xmlns:xlink="http://www.w3.org/1999/xlink" x="0px" y="0px"
	 width="512px" height="512px" viewBox="0 0 512 512" style="enable-background:new 0 0 512 512;" xml:space="preserve">
<style type="text/css">
<![CDATA[
	.st0{fill:#127274;}
	.st1{fill:#14B6B9;}
	.st2{fill:#1E4384;}
	.st3{fill:#EF4754;}
	.st4{fill:#EF4823;}
	.st5{fill:#BCBCBC;}
	.st6{fill:#F6851F;}
	.st7{fill:#C56528;}
	.st8{fill:#FCBF95;}
	.st9{fill:#FEBF10;}
	.st10{fill:none;}
	.st11{fill:#010101;}
	.st12{fill:#3AB37C;}
	.st13{fill:#D6E5E5;}
	.st14{fill:#71C598;}
	.st15{fill:#74CCCF;}
]]>
</style>
<g>
	<g>
		<g>
			<path d="M416.546,375.117c-7.089,0-6.212,10.971,0.847,10.971C424.482,386.088,423.605,375.117,416.546,375.117z"/>
		</g>
	</g>
	<g>
		<g>
			<path d="M429.601,399.471c-1.173-1.033-2.532-1.354-4.054-1.354h-1c-1.374,0-2.827,0.853-3.709,1.854
				c-0.973,1.104-1.465,2.586-1.353,4.054c0.109,1.421,0.785,2.767,1.854,3.708c1.173,1.033,2.532,1.354,4.054,1.354h1
				c1.374,0,2.827-0.853,3.709-1.854c0.973-1.104,1.465-2.586,1.353-4.054C431.346,401.758,430.67,400.412,429.601,399.471z"/>
		</g>
	</g>
	<g>
		<g>
			<path class="st3" d="M300.92,126.001c-9.054-0.56-15.334,5.621-20.923,11.877c-3.15,3.526-6.358,7.19-9.938,10.368
				c2.123,2.529,4.308,4.952,6.542,7.223c0.849,0.864,1.332,1.825,1.536,2.799c0.203-1.082,0.326-2.173,0.348-3.243
				c0.144-7.003,10.971-7.978,10.971-0.847v3c0,0.964-0.21,1.809-0.564,2.539c-2.259,12.217-11.148,22.135-24.971,20.284
				c-7.039-0.942-4.9-11.735,2.099-10.798c4.627,0.62,7.959-1.724,10.01-5.164c-1.833,1.56-4.479,1.944-6.69-0.305
				c-2.874-2.923-5.677-6.038-8.37-9.305c-0.583,0.274-1.175,0.535-1.781,0.772c-4.658,1.824-9.698,2.471-14.556,3.576
				c-3.696,0.841-8.795,1.69-11.567,4.563c-5.004,5.185-5.119,17.292,1.696,20.806c1.179-0.123,2.387,0.147,3.435,0.939
				c0.118,0.009,0.23,0.026,0.35,0.031c4.128,0.173,6.137,4.05,5.648,7.148c14.605,14.756,39.684,15.431,58.453,8.587
				c13.967-5.094,28.2-15.314,31.762-30.608C339.381,148.9,322.856,127.357,300.92,126.001z"/>
		</g>
	</g>
	<g>
		<g>
			<path class="st4" d="M416.357,353.354c-8.602,3.704-17.603,6.288-26.826,7.903c-20.018,3.504-41.044,3.899-61.166,1.124
				c-11.133-1.535-22.171-3.62-33.385-4.509c-10.344-0.821-20.419-1.848-30.068-5.764c-5.43,3.77-11.843,5.907-18.683,4.968
				c-7.2-0.989-13.174-4.564-17.52-9.75c-0.646,0.39-1.417,0.661-2.318,0.762c-8.611,0.964-17.247-2.662-25.734-3.739
				c-8.87-1.126-17.496-2.572-26.039-5.253c-15.258-4.789-30.489-10.213-44.472-18.056c-2.629,9.493-8.961,19.035-19.519,19.752
				c-9.92,0.673-21.54-6.716-23.975-16.804c-1.48-6.132-1.039-12.538-0.799-18.786c0.058-1.491,0.119-2.984,0.179-4.478
				c-0.17-0.058-0.341-0.119-0.513-0.194c-8.437-3.667-17.285-6.292-25.48-10.539c-3.206-1.661-6.81-3.661-9.919-6.147
				c-0.315,0.083-0.641,0.136-0.978,0.158c-0.03,0.237-0.067,0.472-0.083,0.712c-0.099,1.6,0.062,3.287,0.236,4.877
				c0.468,4.256,1.081,6.819,3.14,11.012c6.139,12.503,17.541,22.225,28.162,30.868c20.814,16.938,47.9,23.958,73.761,28.877
				c28.505,5.422,56.823,8.774,85.856,9.375c15.911,0.329,31.834,0.346,47.736,1.029c15.497,0.665,30.915,2.414,46.393,3.373
				c15.381,0.953,31.972,1.975,47.2-1.008c8.227-1.611,16.368-4.41,24.041-7.753c10.647-4.639,25.481-12.329,30.991-23.723
				C430.703,346.656,423.307,350.36,416.357,353.354z"/>
		</g>
	</g>
	<g>
		<g>
			<path class="st7" d="M415.221,443.184c-9.924,4.542-21.431,5.602-32.225,5.665c-13.214,0.078-26.364-1.346-39.429-3.215
				c-13.11-1.876-26.203-4.157-39.412-5.245c-12.986-1.07-26.136,0.116-39.167-0.622c-15.632-0.885-31.169-4.089-46.543-6.936
				c-14.725-2.727-29.426-4.846-44.283-6.676c-24.38-3.003-49.183-5.716-72.617-13.459c-17.521-5.79-37.781-14.408-48.94-29.869
				c-0.086,2.207-0.167,4.414-0.215,6.619c-0.228,10.63-0.285,22.085,4.177,31.975c10.455,23.172,40.296,24.552,61.935,28.88
				c16.076,3.215,32.144,6.941,48.329,9.549c15.927,2.565,31.988,4.171,48.088,5.126c32.737,1.942,65.54,1.688,98.308,2.623
				c16.488,0.47,32.974,1.146,49.468,1.399c12.466,0.192,24.98,0.654,36.938-3.474c17.037-5.883,29.325-18.308,32.284-35.026
				C427.476,435.722,421.989,440.086,415.221,443.184z"/>
		</g>
	</g>
	<g>
		<g>
			<path class="st8" d="M245.637,100.461c0.328,1.554,0.678,3.089,1.067,4.577c3.13,11.945,9.182,23.894,16.659,34.506
				c0.121-0.113,0.244-0.221,0.364-0.337c4.082-3.953,7.592-8.43,11.596-12.455c1.297-1.303,2.634-2.504,4.005-3.615
				C277.473,108.565,259.104,102.216,245.637,100.461z"/>
		</g>
	</g>
	<g>
		<g>
			<path class="st13" d="M436.996,358.998c-11.36,10.521-28.015,17.574-40.471,21.488c-17.273,5.429-35.371,5.832-53.35,5.03
				c-16.103-0.719-32.133-2.279-48.204-3.312c2.502,3.182,1.533,8.884-3.578,8.884c-5.351,0-7.145-6.3-4.615-9.351
				c-3.769-0.19-7.54-0.352-11.317-0.439c-22.48-0.517-45.08-0.336-67.517-2.07c0.313,0.622,0.511,1.295,0.511,1.952v2
				c0,1.522-0.32,2.881-1.353,4.054c-0.942,1.07-2.288,1.745-3.709,1.854c-1.468,0.112-2.95-0.38-4.054-1.354
				c-1.002-0.882-1.854-2.335-1.854-3.708v-2c0-1.35,0.255-2.571,1.032-3.648c-5.332-0.554-10.652-1.229-15.956-2.079
				c-25.484-4.083-51.387-8.021-75.553-17.469c-11.573-4.524-22.852-10.292-32.531-18.169c-0.797-0.649-1.599-1.305-2.4-1.964
				c-0.533,1.89-2.062,3.391-4.683,3.391c-6.023,0-7.541-7.983-3.453-10.327c-6.224-5.562-12.109-11.594-16.688-18.408
				c-2.247,6.214,1.262,14.917,2.757,20.637c2.15,8.228,2.932,16.675,4.623,24.992c0.104,0.511,0.214,1.021,0.328,1.53
				c0.508-0.202,1.038-0.353,1.587-0.395c1.468-0.112,2.95,0.38,4.054,1.354c1.002,0.882,1.854,2.335,1.854,3.708v1
				c0,1.522-0.32,2.881-1.353,4.054c-0.641,0.729-1.477,1.255-2.389,1.563c1.913,3.983,4.487,7.603,8.032,10.546
				c6.645,5.517,13.992,10.027,21.847,13.618c33.195,15.174,70.235,16.465,105.795,21.602c0.845,0.122,1.688,0.259,2.531,0.388
				c-0.152-0.109-0.306-0.217-0.454-0.341c-1.335-1.112-1.978-2.887-1.979-4.583c-0.001-1.522,0.321-2.882,1.353-4.054
				c0.942-1.07,2.288-1.745,3.709-1.854c1.468-0.112,2.95,0.38,4.054,1.354c0.26,0.229,0.509,0.497,0.736,0.791
				c0.088,0.069,0.178,0.133,0.264,0.209c1.07,0.941,1.745,2.287,1.854,3.708c0.112,1.468-0.38,2.95-1.353,4.054
				c-0.613,0.696-1.504,1.314-2.452,1.63c12.674,2.116,25.261,4.731,37.962,6.679c-0.456-0.216-0.892-0.472-1.274-0.808
				c-1.002-0.882-1.854-2.335-1.854-3.708v-1c0-1.522,0.32-2.881,1.353-4.054c0.942-1.07,2.288-1.745,3.709-1.854
				c1.468-0.112,2.95,0.38,4.054,1.354c1.002,0.882,1.854,2.335,1.854,3.708v1c0,1.522-0.32,2.881-1.353,4.054
				c-0.868,0.986-2.083,1.615-3.38,1.796c7.407,1.177,14.744,2.515,22.272,2.872c0.668,0.032,1.337,0.047,2.005,0.073
				c-0.968-0.166-1.859-0.534-2.66-1.24c-1.07-0.941-1.745-2.287-1.854-3.708c-0.112-1.468,0.38-2.95,1.353-4.054
				c0.229-0.26,0.497-0.509,0.791-0.736c0.069-0.088,0.133-0.178,0.209-0.264c0.942-1.07,2.288-1.745,3.709-1.854
				c1.468-0.112,2.95,0.38,4.054,1.354c1.001,0.881,1.855,2.335,1.854,3.708c-0.001,0.694,0.013,1.407-0.106,2.088
				c-0.193,1.096-0.667,1.996-1.372,2.841c-0.962,1.155-2.42,1.79-3.895,1.941c6.055,0.189,12.11,0.193,18.168,0.14
				c7.917-0.069,15.772,0.479,23.597,1.323c-0.181-0.464-0.322-0.948-0.363-1.487c-0.112-1.468,0.38-2.95,1.353-4.054
				c0.942-1.07,2.288-1.745,3.709-1.854c1.39-0.106,3.044,0.342,4.054,1.354c0.544,0.544,1.042,1.101,1.544,1.692
				c0.398,0.468,0.646,1.081,0.892,1.621c0.335,0.737,0.418,1.59,0.419,2.396c0,0.608-0.054,1.189-0.182,1.743
				c18.386,2.507,36.685,5.844,55.297,5.956c11.145,0.067,24.081-0.072,34.148-5.679c-0.117-0.381-0.204-0.772-0.234-1.173
				c-0.112-1.468,0.38-2.95,1.353-4.054c0.882-1.002,2.335-1.854,3.709-1.854h1c0.969,0,1.871,0.132,2.701,0.493
				c4.142-4.208,7.353-9.251,9.693-14.82C437.725,394.649,438.577,376.354,436.996,358.998z M73.393,361.088
				c-7.059,0-7.936-10.971-0.847-10.971C79.605,350.117,80.482,361.088,73.393,361.088z M88.102,381.233l-1,1
				c-1.038,1.038-2.212,1.739-3.709,1.854c-1.468,0.112-2.95-0.38-4.054-1.354c-2.141-1.884-2.624-5.64-0.501-7.763l1-1
				c1.038-1.038,2.212-1.739,3.709-1.854c1.468-0.112,2.95,0.38,4.054,1.354C89.741,375.354,90.225,379.111,88.102,381.233z
				 M121.546,367.117c7.059,0,7.936,10.971,0.847,10.971C115.334,378.088,114.457,367.117,121.546,367.117z M129.455,394.929
				c0,7.059-10.971,7.936-10.971,0.847v-0.75c0-7.059,10.971-7.936,10.971-0.847V394.929z M161.393,386.088
				c-7.059,0-7.936-10.971-0.847-10.971C167.605,375.117,168.482,386.088,161.393,386.088z M183.393,403.088
				c-7.059,0-7.936-10.971-0.847-10.971C189.605,392.117,190.482,403.088,183.393,403.088z M247.102,398.233
				c-0.881,1.001-2.335,1.855-3.709,1.854c-0.694-0.001-1.407,0.013-2.088-0.106c-1.096-0.193-1.996-0.667-2.841-1.372
				c-1.335-1.112-1.978-2.887-1.979-4.583c-0.001-1.522,0.321-2.882,1.353-4.054c0.942-1.07,2.288-1.745,3.709-1.854
				c1.468-0.112,2.95,0.38,4.054,1.354c0.26,0.229,0.509,0.497,0.736,0.791c0.088,0.069,0.178,0.133,0.264,0.209
				c1.07,0.941,1.745,2.287,1.854,3.708C248.567,395.647,248.075,397.129,247.102,398.233z M320.102,403.233
				c-0.942,1.07-2.288,1.745-3.709,1.854c-1.468,0.112-2.95-0.38-4.054-1.354c-0.26-0.229-0.509-0.497-0.736-0.791
				c-0.088-0.068-0.178-0.133-0.264-0.209c-1.07-0.941-1.745-2.287-1.854-3.708c-0.112-1.468,0.38-2.95,1.353-4.054
				c0.881-1.001,2.335-1.855,3.709-1.854c0.694,0.001,1.407-0.013,2.088,0.106c1.096,0.193,1.996,0.667,2.841,1.372
				c1.335,1.112,1.978,2.887,1.979,4.583C321.456,400.701,321.134,402.062,320.102,403.233z M335.484,404.026
				c-0.112-1.468,0.38-2.95,1.353-4.054c0.882-1.002,2.335-1.854,3.709-1.854h1c1.522,0,2.881,0.32,4.054,1.354
				c1.07,0.941,1.745,2.287,1.854,3.708c0.112,1.468-0.38,2.95-1.353,4.054c-0.882,1.002-2.335,1.854-3.709,1.854h-1
				c-1.522,0-2.881-0.32-4.054-1.354C336.269,406.793,335.594,405.447,335.484,404.026z M350.455,427.179
				c0,1.522-0.32,2.881-1.353,4.054c-0.942,1.07-2.288,1.745-3.709,1.854c-1.468,0.112-2.95-0.38-4.054-1.354
				c-1.002-0.882-1.854-2.335-1.854-3.708v-1c0-1.522,0.32-2.881,1.353-4.054c0.942-1.07,2.288-1.745,3.709-1.854
				c1.468-0.112,2.95,0.38,4.054,1.354c1.002,0.882,1.854,2.335,1.854,3.708V427.179z M361.102,395.233l-1,1
				c-1.038,1.038-2.212,1.739-3.709,1.854c-1.468,0.112-2.95-0.38-4.054-1.354c-2.141-1.884-2.624-5.64-0.501-7.763l1-1
				c1.038-1.038,2.212-1.739,3.709-1.854c1.468-0.112,2.95,0.38,4.054,1.354C362.741,389.354,363.225,393.111,361.102,395.233z
				 M379.339,414.734c-1.002-0.882-1.854-2.335-1.854-3.708v-1c0-1.522,0.32-2.881,1.353-4.054c0.942-1.07,2.288-1.745,3.709-1.854
				c1.468-0.112,2.95,0.38,4.054,1.354c1.002,0.882,1.854,2.335,1.854,3.708v1c0,1.522-0.32,2.881-1.353,4.054
				c-0.942,1.07-2.288,1.745-3.709,1.854C381.925,416.2,380.443,415.708,379.339,414.734z M387.393,436.088
				c-7.059,0-7.936-10.971-0.847-10.971C393.605,425.117,394.482,436.088,387.393,436.088z M403.393,394.088
				c-7.059,0-7.936-10.971-0.847-10.971C409.605,383.117,410.482,394.088,403.393,394.088z M417.393,386.088
				c-7.059,0-7.936-10.971-0.847-10.971C423.605,375.117,424.482,386.088,417.393,386.088z M430.102,407.233
				c-0.882,1.002-2.335,1.854-3.709,1.854h-1c-1.522,0-2.881-0.32-4.054-1.354c-1.07-0.941-1.745-2.287-1.854-3.708
				c-0.112-1.468,0.38-2.95,1.353-4.054c0.882-1.002,2.335-1.854,3.709-1.854h1c1.522,0,2.881,0.32,4.054,1.354
				c1.07,0.941,1.745,2.287,1.854,3.708C431.567,404.647,431.075,406.129,430.102,407.233z"/>
		</g>
	</g>
	<g>
		<g>
			<path class="st8" d="M430.283,240.721c-9.072-11.135-19.137-21.41-29.64-31.195c-17.626-16.422-36.289-31.676-54.246-47.725
				c0.003,0.953-0.013,1.909-0.073,2.875c-1.03,16.592-11.464,30.966-25.397,39.506c-26.797,16.424-69.464,17.921-89.388-9.905
				c-10.014-4.408-15.638-16.105-12.456-27.541c3.974-14.284,15.975-16.879,28.798-19.793c2.145-0.487,4.166-1.04,6.086-1.739
				c-9.514-13.649-16.805-29.243-19.453-45.052c-0.023-0.141-0.046-0.285-0.07-0.426c-8.983-0.104-17.767,1.038-26.412,4.246
				c-13.177,4.89-25.45,12.141-37.897,18.605c-24.306,12.622-49.445,24.063-73.178,37.737
				c-10.555,6.081-21.207,12.788-29.739,21.585c-3.755,3.872-8.581,8.763-9.42,14.359c-1.01,6.733,4.354,8.464,8.624,12.064
				c72.925,21.916,146.885,40.116,220.964,57.653c15.337,3.631,30.884,6.752,45.909,11.554c14.083,4.5,27.926,9.916,42.28,13.525
				c13.478,3.389,26.678,4.993,40.464,2.717c10.04-1.657,26.276-5.626,28.962-17.433
				C447.996,263.178,438.105,250.321,430.283,240.721z"/>
		</g>
	</g>
	<g>
		<g>
			<path class="st7" d="M222.731,336.454c-3.174-9.573-3.656-19.739-6.866-29.303c-1.068-3.184-2.554-9.208-6.101-10.612
				c-3.317-1.312-6.753,3.166-8.524,5.258c-5.61,6.629-12.101,16.408-21.92,16.088c-10.142-0.331-15.597-9.022-18.299-17.736
				c-2.271-7.321-5.078-21.961-15.961-14.855c-4.866,3.177-8.575,7.73-10.833,13.091c-1.481,3.518-1.962,7.259-2.325,11.021
				c0.17,0.081,0.341,0.168,0.514,0.271c14.296,8.436,30.063,14.292,45.897,19.115c8.004,2.438,16.151,3.728,24.444,4.76
				c6.569,0.818,13.568,3.643,20.259,3.687C222.924,336.976,222.819,336.719,222.731,336.454z"/>
		</g>
	</g>
	<g>
		<g>
			<path class="st13" d="M425.375,303.053c-12.67,2.93-25.283,3.775-38.167,1.674c-14.486-2.363-28.37-7.081-42.222-11.807
				c-30.065-10.259-61.297-16.463-92.152-23.882c-63.344-15.231-126.513-31.271-188.914-50.037
				c-0.742-0.223-1.371-0.558-1.905-0.965c-0.9-0.148-1.812-0.557-2.677-1.301c-2.537-2.187-5.781-3.399-7.929-6.057
				c-0.312-0.387-0.612-0.783-0.904-1.185c-1.252,5.529-2.312,11.129-2.941,16.743c-0.041,0.365-0.142,2.525-0.104,0.669
				c-0.018,0.865-0.083,1.724-0.179,2.583c-0.22,1.98-0.468,3.958-0.687,5.938c-0.516,4.66-0.992,9.371-0.706,14.065
				c0.181,2.976,0.321,9.495,3.528,11.184c4.351,2.292,8.464-1.205,12.036-3.587c6.804-4.537,15.666-8.821,23.646-4.17
				c13.262,7.729,12.455,27.488,12.105,40.75c-0.196,7.402-0.85,14.856-0.547,22.262c0.162,3.95,0.127,5.222,2.526,8.34
				c2.455,3.19,7.117,6.91,11.5,5.375c12.329-4.319,9.26-22.069,12.161-32.015c2.905-9.959,11.538-21.68,22.132-24.258
				c11.304-2.75,19.566,3.036,23.394,13.552c1.635,4.491,3.799,20.613,11.05,20.021c4.132-0.337,7.353-4.947,9.78-7.87
				c2.877-3.464,5.649-7.201,9.239-9.978c8.069-6.24,18.761-3.989,23.677,4.881c4.819,8.696,6.602,18.284,8.347,27.949
				c1.744,9.654,4.777,22.553,16.438,24.154c12.605,1.731,20.222-10.732,24.32-20.753c3.878-9.482,7.463-19.816,17.632-24.21
				c10.497-4.535,22.938-4.477,32.604,1.949c9.936,6.605,12.641,17.283,19.355,26.401c6.422,8.721,15.909,6.982,24.435,1.694
				c9.966-6.181,19.338-14.724,31.818-14.206c10.928,0.453,22.682,6.633,32.371-1.529c4.633-3.903,7.596-8.793,9.924-14.062
				c0.064-1.095,0.522-2.107,1.226-2.94c0.232-0.588,0.461-1.178,0.684-1.771C436.534,299.618,431.062,301.738,425.375,303.053z"/>
		</g>
	</g>
	<g>
		<g>
			<path class="st7" d="M434.453,325.403c-5.43,3.644-11.802,5.588-18.372,5.261c-3.193-0.159-6.353-0.435-9.505-0.99
				c-3.215-0.566-6.845-1.891-10.11-1.807c-12.439,0.319-20.63,11.701-31.678,15.928c-9.268,3.546-20.181,4.805-28.078-2.477
				c-3.603-3.322-6.367-7.37-8.692-11.66c-2.577-4.756-4.645-10.221-8.581-14.07c-3.92-3.834-8.952-6.861-14.639-6.725
				c-4.729,0.114-11.414,0.875-14.93,4.475c-7.318,7.49-8.789,19.314-14.532,27.972c-0.518,0.78-1.075,1.543-1.649,2.296
				c7.555,2.285,15.497,2.823,23.393,3.468c9.314,0.761,18.476,2.331,27.713,3.698c18.082,2.675,36.318,3.112,54.494,0.902
				c16.397-1.993,32.524-6.588,46.421-15.767c5.094-3.364,9.073-7.763,12.046-13.039
				C436.729,323.761,435.634,324.61,434.453,325.403z"/>
		</g>
	</g>
	<g>
		<g>
			<path d="M455.281,279.341c0.799-2.578,1.271-5.358,1.341-8.356c0.417-17.721-14.915-34.179-25.814-46.49
				c-26.519-29.953-59.093-53.771-88.207-81.025c-0.146-0.137-0.299-0.245-0.45-0.361c-6.268-13.296-18.848-23.423-33.634-27.024
				c-6.934-1.688-13.277-1.153-19.079,1.083c-4.511-15.771-23.226-23.97-38.494-26.951c-2.331-0.455-4.702-0.795-7.087-1.065
				c-0.563-5.422-0.729-10.87-0.426-15.944c0.189-3.174,0.882-6.342,1.637-9.422c0.331-1.35,0.739-2.663,1.237-3.958
				c0.551-1.432,2.31-2.758,0.484-2.034c6.57-2.605,2.978-13.007-3.638-10.383c-6.914,2.742-8.647,12.36-9.864,18.811
				c-1.356,7.19-1.188,14.847-0.4,22.339c-5.653,0.041-11.296,0.597-16.736,1.72c-13.886,2.866-26.22,9.659-38.673,16.153
				c-26.908,14.032-54.325,27.191-81.02,41.614c-11.695,6.318-23.113,13.417-33.016,22.342c-3.334,3.005-6.863,6.447-9.821,10.267
				c-10.472,0.289-14.291,28.217-15.427,34.357c-1.241,6.702-1.702,12.238-2.398,18.314c-1.082,9.45-2.277,20.2,1.695,29.16
				c1.299,2.931,3.087,5.123,5.179,6.691c-0.151,0.559-0.22,1.175-0.186,1.848c0.051,0.995,0.224,1.938,0.465,2.852
				c-3.442,2.394-4.859,7.889-4.846,12.886c0.015,5.516,1.231,10.741,3.253,15.696c-0.177,0.157-0.351,0.324-0.519,0.512
				c-8.081,8.987-4.72,21.608-1.914,32.048c1.536,5.716,2.464,11.555,3.437,17.382c-0.678,0.919-1.042,2.13-0.876,3.624
				c2.566,23.238-4.729,48.132,5.256,70.264c11.415,25.3,39.75,28.826,63.857,33.647c32.062,6.413,63.734,13.132,96.417,15.459
				c32.334,2.302,64.775,2.25,97.166,2.924c19.131,0.398,38.25,1.247,57.383,1.613c14.683,0.28,28.867,0.406,42.912-4.443
				c24.898-8.597,40.863-30.806,38.98-57.311c-0.123-1.725-0.871-2.977-1.922-3.785c7.802-18.966,8.128-42.47,5.922-61.215
				c-0.215-1.829-1.123-3.122-2.329-3.917c3.749-6.152,5.571-13.166,4.329-21.083c-0.126-0.805-0.39-1.502-0.748-2.102
				c4.178-8.05,6.228-17.277,2.399-24.939c1.917-5.042,3.643-10.206,5.791-15.088C458.003,283.534,457.076,280.877,455.281,279.341z
				 M300.92,126.001c21.936,1.356,38.46,22.899,33.489,44.243c-3.562,15.293-17.795,25.514-31.762,30.608
				c-18.769,6.844-43.848,6.169-58.453-8.587c0.489-3.098-1.52-6.976-5.648-7.148c-0.12-0.005-0.232-0.022-0.35-0.031
				c-1.048-0.792-2.256-1.062-3.435-0.939c-6.815-3.514-6.7-15.622-1.696-20.806c2.772-2.873,7.871-3.722,11.567-4.563
				c4.858-1.105,9.898-1.752,14.556-3.576c0.606-0.237,1.198-0.499,1.781-0.772c2.693,3.268,5.496,6.382,8.37,9.305
				c2.211,2.249,4.857,1.864,6.69,0.305c-2.05,3.44-5.383,5.784-10.01,5.164c-6.999-0.937-9.137,9.855-2.099,10.798
				c13.823,1.851,22.712-8.066,24.971-20.284c0.354-0.729,0.564-1.574,0.564-2.539v-3c0-7.131-10.827-6.157-10.971,0.847
				c-0.022,1.07-0.146,2.162-0.348,3.243c-0.204-0.974-0.687-1.935-1.536-2.799c-2.233-2.271-4.419-4.694-6.542-7.223
				c3.58-3.178,6.788-6.842,9.938-10.368C285.586,131.622,291.867,125.442,300.92,126.001z M279.327,123.138
				c-1.371,1.111-2.708,2.312-4.005,3.615c-4.003,4.024-7.514,8.501-11.596,12.455c-0.12,0.117-0.243,0.224-0.364,0.337
				c-7.477-10.612-13.529-22.561-16.659-34.506c-0.39-1.488-0.739-3.023-1.067-4.577
				C259.104,102.216,277.473,108.565,279.327,123.138z M399.633,465.523c-11.958,4.128-24.472,3.666-36.938,3.474
				c-16.494-0.253-32.979-0.929-49.468-1.399c-32.768-0.935-65.57-0.681-98.308-2.623c-16.101-0.955-32.162-2.561-48.088-5.126
				c-16.185-2.608-32.253-6.334-48.329-9.549c-21.639-4.328-51.48-5.708-61.935-28.88c-4.462-9.89-4.405-21.345-4.177-31.975
				c0.047-2.206,0.128-4.412,0.215-6.619c11.159,15.461,31.419,24.079,48.94,29.869c23.434,7.744,48.236,10.457,72.617,13.459
				c14.857,1.83,29.559,3.95,44.283,6.676c15.374,2.847,30.911,6.051,46.543,6.936c13.03,0.738,26.18-0.448,39.167,0.622
				c13.208,1.088,26.301,3.369,39.412,5.245c13.065,1.87,26.215,3.293,39.429,3.215c10.794-0.063,22.301-1.123,32.225-5.665
				c6.768-3.098,12.255-7.461,16.696-12.687C428.958,447.216,416.67,459.641,399.633,465.523z M430.941,410.79
				c-2.34,5.569-5.551,10.613-9.693,14.82c-0.831-0.361-1.732-0.493-2.701-0.493h-1c-1.374,0-2.827,0.853-3.709,1.854
				c-0.973,1.104-1.465,2.586-1.353,4.054c0.031,0.401,0.117,0.792,0.234,1.173c-10.067,5.607-23.004,5.747-34.148,5.679
				c-18.612-0.112-36.911-3.449-55.297-5.956c0.127-0.554,0.182-1.135,0.182-1.743c-0.001-0.806-0.084-1.659-0.419-2.396
				c-0.246-0.541-0.493-1.153-0.892-1.621c-0.502-0.591-1-1.148-1.544-1.692c-1.01-1.012-2.664-1.46-4.054-1.354
				c-1.421,0.109-2.767,0.785-3.709,1.854c-0.973,1.104-1.465,2.586-1.353,4.054c0.041,0.539,0.182,1.023,0.363,1.487
				c-7.825-0.844-15.68-1.393-23.597-1.323c-6.059,0.054-12.114,0.05-18.168-0.14c1.475-0.152,2.933-0.787,3.895-1.941
				c0.705-0.845,1.178-1.745,1.372-2.841c0.12-0.682,0.105-1.394,0.106-2.088c0.001-1.374-0.854-2.828-1.854-3.708
				c-1.104-0.973-2.586-1.466-4.054-1.354c-1.421,0.109-2.767,0.785-3.709,1.854c-0.076,0.086-0.14,0.176-0.209,0.264
				c-0.294,0.227-0.562,0.476-0.791,0.736c-0.973,1.104-1.465,2.586-1.353,4.054c0.109,1.421,0.785,2.767,1.854,3.708
				c0.801,0.706,1.692,1.074,2.66,1.24c-0.668-0.026-1.337-0.041-2.005-0.073c-7.528-0.356-14.865-1.694-22.272-2.872
				c1.297-0.182,2.512-0.811,3.38-1.796c1.033-1.173,1.353-2.532,1.353-4.054v-1c0-1.374-0.853-2.827-1.854-3.708
				c-1.104-0.973-2.586-1.466-4.054-1.354c-1.421,0.109-2.767,0.785-3.709,1.854c-1.033,1.173-1.353,2.532-1.353,4.054v1
				c0,1.374,0.853,2.827,1.854,3.708c0.382,0.336,0.818,0.592,1.274,0.808c-12.702-1.948-25.289-4.563-37.962-6.679
				c0.947-0.315,1.839-0.934,2.452-1.63c0.973-1.104,1.465-2.586,1.353-4.054c-0.109-1.421-0.785-2.767-1.854-3.708
				c-0.086-0.076-0.176-0.14-0.264-0.209c-0.228-0.294-0.477-0.562-0.736-0.791c-1.104-0.973-2.586-1.466-4.054-1.354
				c-1.421,0.109-2.767,0.785-3.709,1.854c-1.032,1.172-1.354,2.532-1.353,4.054c0.001,1.697,0.645,3.471,1.979,4.583
				c0.148,0.124,0.302,0.231,0.454,0.341c-0.844-0.129-1.687-0.266-2.531-0.388c-35.56-5.136-72.6-6.427-105.795-21.602
				c-7.854-3.591-15.202-8.101-21.847-13.618c-3.545-2.943-6.119-6.562-8.032-10.546c0.912-0.309,1.748-0.835,2.389-1.563
				c1.033-1.173,1.353-2.532,1.353-4.054v-1c0-1.374-0.853-2.827-1.854-3.708c-1.104-0.973-2.586-1.466-4.054-1.354
				c-0.55,0.042-1.079,0.192-1.587,0.395c-0.114-0.509-0.224-1.02-0.328-1.53c-1.691-8.316-2.473-16.764-4.623-24.992
				c-1.495-5.719-5.004-14.423-2.757-20.637c4.58,6.814,10.465,12.846,16.688,18.408c-4.087,2.344-2.57,10.327,3.453,10.327
				c2.621,0,4.15-1.501,4.683-3.391c0.802,0.659,1.603,1.315,2.4,1.964c9.68,7.877,20.958,13.645,32.531,18.169
				c24.166,9.448,50.068,13.386,75.553,17.469c5.304,0.85,10.625,1.525,15.956,2.079c-0.777,1.077-1.032,2.298-1.032,3.648v2
				c0,1.374,0.853,2.827,1.854,3.708c1.104,0.973,2.586,1.466,4.054,1.354c1.421-0.109,2.767-0.785,3.709-1.854
				c1.033-1.173,1.353-2.532,1.353-4.054v-2c0-0.657-0.198-1.33-0.511-1.952c22.437,1.734,45.037,1.553,67.517,2.07
				c3.777,0.087,7.548,0.249,11.317,0.439c-2.53,3.051-0.736,9.351,4.615,9.351c5.111,0,6.08-5.702,3.578-8.884
				c16.071,1.032,32.102,2.593,48.204,3.312c17.979,0.802,36.077,0.399,53.35-5.03c12.456-3.915,29.11-10.967,40.471-21.488
				C438.577,376.354,437.725,394.649,430.941,410.79z M60.042,289.991c8.195,4.247,17.043,6.872,25.48,10.539
				c0.172,0.075,0.343,0.136,0.513,0.194c-0.06,1.494-0.122,2.987-0.179,4.478c-0.24,6.249-0.682,12.654,0.799,18.786
				c2.435,10.088,14.054,17.477,23.975,16.804c10.558-0.717,16.89-10.259,19.519-19.752c13.983,7.843,29.214,13.268,44.472,18.056
				c8.542,2.681,17.168,4.127,26.039,5.253c8.487,1.077,17.123,4.703,25.734,3.739c0.901-0.101,1.671-0.372,2.318-0.762
				c4.346,5.185,10.32,8.761,17.52,9.75c6.839,0.939,13.253-1.198,18.683-4.968c9.649,3.916,19.724,4.943,30.068,5.764
				c11.213,0.89,22.252,2.975,33.385,4.509c20.122,2.775,41.147,2.38,61.166-1.124c9.223-1.615,18.224-4.199,26.826-7.903
				c6.949-2.993,14.346-6.698,20.221-11.712c-5.51,11.394-20.344,19.083-30.991,23.723c-7.673,3.343-15.814,6.142-24.041,7.753
				c-15.229,2.983-31.819,1.96-47.2,1.008c-15.478-0.959-30.896-2.708-46.393-3.373c-15.902-0.683-31.825-0.7-47.736-1.029
				c-29.033-0.601-57.351-3.953-85.856-9.375c-25.861-4.919-52.947-11.939-73.761-28.877c-10.622-8.644-22.023-18.365-28.162-30.868
				c-2.059-4.193-2.672-6.755-3.14-11.012c-0.174-1.59-0.334-3.277-0.236-4.877c0.015-0.24,0.052-0.475,0.083-0.712
				c0.336-0.022,0.663-0.075,0.978-0.158C53.232,286.33,56.837,288.33,60.042,289.991z M53.929,272.06
				c2.777-0.279,5.62-1.132,8.348-2.522c5.59-2.849,13.265-10.81,18.834-6.077c4.176,3.548,4.597,11.896,4.962,17.162
				c0.192,2.783,0.259,5.572,0.259,8.363c-5.709-2.277-11.523-4.292-17.141-6.809C65.303,280.434,56.118,276.958,53.929,272.06z
				 M131.903,309.405c0.363-3.762,0.844-7.503,2.325-11.021c2.257-5.36,5.966-9.914,10.833-13.091
				c10.883-7.106,13.69,7.534,15.961,14.855c2.702,8.714,8.157,17.405,18.299,17.736c9.82,0.32,16.31-9.459,21.92-16.088
				c1.771-2.092,5.207-6.57,8.524-5.258c3.546,1.403,5.032,7.428,6.101,10.612c3.21,9.564,3.692,19.729,6.866,29.303
				c0.088,0.266,0.192,0.522,0.286,0.784c-6.691-0.044-13.69-2.868-20.259-3.687c-8.292-1.032-16.44-2.322-24.444-4.76
				c-15.834-4.824-31.602-10.679-45.897-19.115C132.244,309.573,132.073,309.486,131.903,309.405z M425.708,335.906
				c-13.897,9.179-30.024,13.773-46.421,15.767c-18.175,2.21-36.412,1.773-54.494-0.902c-9.237-1.367-18.399-2.937-27.713-3.698
				c-7.896-0.645-15.837-1.183-23.393-3.468c0.574-0.753,1.131-1.516,1.649-2.296c5.744-8.658,7.214-20.482,14.532-27.972
				c3.516-3.599,10.202-4.361,14.93-4.475c5.687-0.136,10.718,2.891,14.639,6.725c3.936,3.849,6.003,9.313,8.581,14.07
				c2.325,4.291,5.089,8.338,8.692,11.66c7.897,7.282,18.81,6.023,28.078,2.477c11.048-4.227,19.238-15.608,31.678-15.928
				c3.265-0.084,6.895,1.241,10.11,1.807c3.152,0.555,6.312,0.831,9.505,0.99c6.57,0.328,12.942-1.617,18.372-5.261
				c1.182-0.793,2.276-1.642,3.302-2.536C434.781,328.144,430.802,332.542,425.708,335.906z M440.586,298.425
				c-0.704,0.833-1.162,1.845-1.226,2.94c-2.328,5.269-5.291,10.159-9.924,14.062c-9.689,8.162-21.443,1.982-32.371,1.529
				c-12.48-0.518-21.853,8.025-31.818,14.206c-8.526,5.288-18.013,7.027-24.435-1.694c-6.714-9.118-9.419-19.795-19.355-26.401
				c-9.666-6.426-22.108-6.484-32.604-1.949c-10.169,4.394-13.753,14.728-17.632,24.21c-4.099,10.021-11.715,22.484-24.32,20.753
				c-11.661-1.601-14.694-14.5-16.438-24.154c-1.745-9.665-3.527-19.253-8.347-27.949c-4.916-8.87-15.608-11.121-23.677-4.881
				c-3.59,2.776-6.362,6.514-9.239,9.978c-2.427,2.923-5.648,7.533-9.78,7.87c-7.251,0.592-9.416-15.529-11.05-20.021
				c-3.828-10.516-12.09-16.302-23.394-13.552c-10.595,2.578-19.228,14.299-22.132,24.258c-2.901,9.945,0.168,27.696-12.161,32.015
				c-4.383,1.535-9.045-2.185-11.5-5.375c-2.399-3.118-2.365-4.39-2.526-8.34c-0.303-7.406,0.352-14.86,0.547-22.262
				c0.35-13.263,1.157-33.022-12.105-40.75c-7.98-4.651-16.842-0.367-23.646,4.17c-3.572,2.382-7.685,5.879-12.036,3.587
				c-3.208-1.689-3.347-8.208-3.528-11.184c-0.286-4.694,0.19-9.405,0.706-14.065c0.219-1.98,0.467-3.958,0.687-5.938
				c0.096-0.859,0.162-1.718,0.179-2.583c-0.038,1.856,0.063-0.305,0.104-0.669c0.63-5.613,1.689-11.214,2.941-16.743
				c0.292,0.402,0.592,0.798,0.904,1.185c2.147,2.657,5.392,3.87,7.929,6.057c0.864,0.745,1.776,1.153,2.677,1.301
				c0.534,0.408,1.163,0.742,1.905,0.965c62.401,18.766,125.57,34.805,188.914,50.037c30.855,7.419,62.086,13.623,92.152,23.882
				c13.852,4.726,27.736,9.443,42.222,11.807c12.884,2.102,25.497,1.256,38.167-1.674c5.687-1.314,11.159-3.435,15.895-6.399
				C441.047,297.247,440.818,297.837,440.586,298.425z M445.001,276.34c-2.687,11.807-18.923,15.776-28.962,17.433
				c-13.787,2.276-26.987,0.672-40.464-2.717c-14.354-3.61-28.196-9.025-42.28-13.525c-15.025-4.801-30.572-7.922-45.909-11.554
				c-74.079-17.537-148.039-35.738-220.964-57.653c-4.27-3.6-9.634-5.331-8.624-12.064c0.839-5.596,5.665-10.487,9.42-14.359
				c8.533-8.797,19.184-15.504,29.739-21.585c23.733-13.674,48.873-25.116,73.178-37.737c12.447-6.464,24.72-13.715,37.897-18.605
				c8.645-3.208,17.428-4.35,26.412-4.246c0.023,0.141,0.046,0.285,0.07,0.426c2.648,15.809,9.939,31.403,19.453,45.052
				c-1.92,0.699-3.941,1.251-6.086,1.739c-12.823,2.914-24.824,5.509-28.798,19.793c-3.182,11.436,2.442,23.133,12.456,27.541
				c19.924,27.826,62.591,26.329,89.388,9.905c13.933-8.54,24.367-22.914,25.397-39.506c0.06-0.965,0.076-1.922,0.073-2.875
				c17.957,16.049,36.62,31.302,54.246,47.725c10.502,9.785,20.567,20.061,29.64,31.195
				C438.105,250.321,447.996,263.178,445.001,276.34z"/>
		</g>
	</g>
	<g>
		<g>
			<path d="M160.546,375.117c-7.089,0-6.212,10.971,0.847,10.971C168.482,386.088,167.605,375.117,160.546,375.117z"/>
		</g>
	</g>
	<g>
		<g>
			<path d="M118.484,395.026v0.75c0,7.089,10.971,6.212,10.971-0.847v-0.75C129.455,387.09,118.484,387.967,118.484,395.026z"/>
		</g>
	</g>
	<g>
		<g>
			<path d="M121.546,367.117c-7.089,0-6.212,10.971,0.847,10.971C129.482,378.088,128.605,367.117,121.546,367.117z"/>
		</g>
	</g>
	<g>
		<g>
			<path d="M87.601,373.471c-1.104-0.973-2.586-1.466-4.054-1.354c-1.497,0.115-2.671,0.816-3.709,1.854l-1,1
				c-2.123,2.123-1.639,5.879,0.501,7.763c1.104,0.973,2.586,1.466,4.054,1.354c1.497-0.115,2.671-0.816,3.709-1.854l1-1
				C90.225,379.111,89.741,375.354,87.601,373.471z"/>
		</g>
	</g>
	<g>
		<g>
			<path d="M319.476,394.596c-0.845-0.705-1.745-1.179-2.841-1.372c-0.681-0.12-1.394-0.105-2.088-0.106
				c-1.374-0.001-2.828,0.854-3.709,1.854c-0.973,1.104-1.465,2.586-1.353,4.054c0.109,1.421,0.785,2.767,1.854,3.708
				c0.086,0.076,0.176,0.141,0.264,0.209c0.228,0.294,0.477,0.562,0.736,0.791c1.104,0.973,2.586,1.466,4.054,1.354
				c1.421-0.109,2.767-0.785,3.709-1.854c1.032-1.172,1.354-2.532,1.353-4.054C321.454,397.482,320.811,395.708,319.476,394.596z"/>
		</g>
	</g>
	<g>
		<g>
			<path d="M348.601,422.471c-1.104-0.973-2.586-1.466-4.054-1.354c-1.421,0.109-2.767,0.785-3.709,1.854
				c-1.033,1.173-1.353,2.532-1.353,4.054v1c0,1.374,0.853,2.827,1.854,3.708c1.104,0.973,2.586,1.466,4.054,1.354
				c1.421-0.109,2.767-0.785,3.709-1.854c1.033-1.173,1.353-2.532,1.353-4.054v-1C350.455,424.806,349.603,423.353,348.601,422.471z
				"/>
		</g>
	</g>
	<g>
		<g>
			<path d="M386.601,405.471c-1.104-0.973-2.586-1.466-4.054-1.354c-1.421,0.109-2.767,0.785-3.709,1.854
				c-1.033,1.173-1.353,2.532-1.353,4.054v1c0,1.374,0.853,2.827,1.854,3.708c1.104,0.973,2.586,1.466,4.054,1.354
				c1.421-0.109,2.767-0.785,3.709-1.854c1.033-1.173,1.353-2.532,1.353-4.054v-1C388.455,407.806,387.603,406.353,386.601,405.471z
				"/>
		</g>
	</g>
	<g>
		<g>
			<path d="M402.546,383.117c-7.089,0-6.212,10.971,0.847,10.971C410.482,394.088,409.605,383.117,402.546,383.117z"/>
		</g>
	</g>
	<g>
		<g>
			<path d="M246.601,390.471c-0.086-0.076-0.176-0.14-0.264-0.209c-0.228-0.294-0.477-0.562-0.736-0.791
				c-1.104-0.973-2.586-1.466-4.054-1.354c-1.421,0.109-2.767,0.785-3.709,1.854c-1.032,1.172-1.354,2.532-1.353,4.054
				c0.001,1.697,0.645,3.471,1.979,4.583c0.845,0.705,1.745,1.179,2.841,1.372c0.681,0.12,1.394,0.105,2.088,0.106
				c1.374,0.001,2.828-0.854,3.709-1.854c0.973-1.104,1.465-2.586,1.353-4.054C248.346,392.758,247.67,391.412,246.601,390.471z"/>
		</g>
	</g>
	<g>
		<g>
			<path d="M182.546,392.117c-7.089,0-6.212,10.971,0.847,10.971C190.482,403.088,189.605,392.117,182.546,392.117z"/>
		</g>
	</g>
	<g>
		<g>
			<path d="M360.601,387.471c-1.104-0.973-2.586-1.466-4.054-1.354c-1.497,0.115-2.671,0.816-3.709,1.854l-1,1
				c-2.123,2.123-1.639,5.879,0.501,7.763c1.104,0.973,2.586,1.466,4.054,1.354c1.497-0.115,2.671-0.816,3.709-1.854l1-1
				C363.225,393.111,362.741,389.354,360.601,387.471z"/>
		</g>
	</g>
	<g>
		<g>
			<path d="M386.546,425.117c-7.089,0-6.212,10.971,0.847,10.971C394.482,436.088,393.605,425.117,386.546,425.117z"/>
		</g>
	</g>
	<g>
		<g>
			<path d="M345.601,399.471c-1.173-1.033-2.532-1.354-4.054-1.354h-1c-1.374,0-2.827,0.853-3.709,1.854
				c-0.973,1.104-1.465,2.586-1.353,4.054c0.109,1.421,0.785,2.767,1.854,3.708c1.173,1.033,2.532,1.354,4.054,1.354h1
				c1.374,0,2.827-0.853,3.709-1.854c0.973-1.104,1.465-2.586,1.353-4.054C347.346,401.758,346.67,400.412,345.601,399.471z"/>
		</g>
	</g>
</g>
</svg>
