<?xml version="1.0" encoding="utf-8"?>
<!-- Generator: Adobe Illustrator 16.0.3, SVG Export Plug-In . SVG Version: 6.00 Build 0)  -->
<!DOCTYPE svg PUBLIC "-//W3C//DTD SVG 1.1//EN" "http://www.w3.org/Graphics/SVG/1.1/DTD/svg11.dtd">
<svg version="1.1" id="Layer_1" xmlns="http://www.w3.org/2000/svg" xmlns:xlink="http://www.w3.org/1999/xlink" x="0px" y="0px"
	 width="512px" height="512px" viewBox="0 0 512 512" style="enable-background:new 0 0 512 512;" xml:space="preserve">
<style type="text/css">
<![CDATA[
	.st0{fill:#127274;}
	.st1{fill:#14B6B9;}
	.st2{fill:#1E4384;}
	.st3{fill:#EF4754;}
	.st4{fill:#EF4823;}
	.st5{fill:#BCBCBC;}
	.st6{fill:#F6851F;}
	.st7{fill:#C56528;}
	.st8{fill:#FCBF95;}
	.st9{fill:#FEBF10;}
	.st10{fill:none;}
	.st11{fill:#010101;}
	.st12{fill:#3AB37C;}
	.st13{fill:#D6E5E5;}
	.st14{fill:#71C598;}
	.st15{fill:#74CCCF;}
]]>
</style>
<g>
	<g>
		<g>
			<path class="st15" d="M206.885,316.708c-0.838,0.387-1.412,0.986-1.795,1.729c0.318,0.019,0.646,0.058,0.99,0.136
				c2.961,0.665,6.098,0.387,8.26-1.097c0.193-0.125,0.373-0.266,0.557-0.401C212.752,315.913,209.273,315.604,206.885,316.708z"/>
		</g>
	</g>
	<g>
		<g>
			<path class="st9" d="M370.951,229.475c-0.037-0.273-0.047-0.419-0.041-0.487c-0.021-0.059-0.043-0.12-0.07-0.198
				c-0.291-0.842-0.547-1.766-1.01-2.537c-0.934-1.561-1.934-2.96-3.361-4.11c-6.484-5.231-16.027-5.872-24.029-5.971
				c-8.322-0.103-16.672,0.732-24.984,0.285c-0.541-0.029-1.043-0.128-1.51-0.274c-2.465,11.326-4.766,22.683-6.834,34.111
				c2.688-0.199,5.373-0.417,8.055-0.676c14.416-1.389,29.689-3.107,43.094-8.961c2.324-1.016,4.59-2.187,6.693-3.791
				c0.928-0.707,2.889-2.801,3.148-3.287c0.873-1.626,0.654-1.066,0.832-2.162c0.031-0.194,0.068-1.266,0.088-0.849
				C371.014,230.203,371,229.837,370.951,229.475z"/>
		</g>
	</g>
	<g>
		<g>
			<path class="st15" d="M209.443,394.58c-0.475-0.767-0.967-1.481-1.629-2.101c-1.539-1.44-3.182-2.312-5.316-2.49
				c-3.842-0.32-5.441,2.071-4.982,5.559c0.262,1.986-0.42,3.475-1.557,4.434c0.225,0.27,0.438,0.57,0.631,0.915
				c0.631,1.126,0.248,0.998,2.004,1.157c0.746,0.068,3.057-0.309,4.41-0.826c1.504-0.575,3.254-1.353,4.379-2.449
				c1.285-1.252,2.033-2.236,2.189-3.252C209.545,395.548,209.547,394.747,209.443,394.58z"/>
		</g>
	</g>
	<g>
		<g>
			<path class="st12" d="M315.33,133.099c-6.869,1.105-13.678,2.238-20.523,3.001c-2.42,6.389-2.449,14.471-2.934,20.694
				c-0.768,9.847-2.547,19.407-3.834,29.19c-2.867,21.791-4.762,43.672-7.799,65.438c5.861-0.043,11.723-0.188,17.578-0.455
				c3.91-21.997,8.748-43.68,13.838-65.436c4.133-17.666,7.979-35.441,9.982-53.474C319.537,132.412,317.434,132.76,315.33,133.099z
				"/>
		</g>
	</g>
	<g>
		<g>
			<path class="st15" d="M187.213,280.573c-0.051,0.004-0.09-1.592-0.139-1.862c-0.189-1.048-0.959-3.481-2.473-3.328
				c-4.008,0.405-4.945,3.276-5.117,6.434c0.088,0.104,0.166,0.214,0.244,0.324c0.373,0.093,0.75,0.176,1.131,0.236
				c0.207,0.033,1.625,0.159,1.283,0.174c0.697,0.016,1.396,0.015,2.09-0.064c0.285-0.027,0.57-0.067,0.854-0.111
				c0.059-0.015,0.098-0.024,0.174-0.044c0.359-0.112,0.721-0.232,1.07-0.376c0.064-0.04,0.143-0.087,0.258-0.153
				c0.082-0.062,0.129-0.097,0.186-0.137c0.047-0.051,0.09-0.105,0.135-0.157c-0.115,0.018,0.244-0.752,0.166-0.244
				C187.129,281.035,187.18,280.806,187.213,280.573z"/>
		</g>
	</g>
	<g>
		<g>
			<path class="st12" d="M278.584,262.512c-4.15,25.911-9.506,51.601-15.016,77.251c-1.367,6.367-3.217,12.813-4.139,19.258
				c-0.586,4.097-2.451,8.79-1.912,12.944c0.381,2.949,4.346,3.502,6.787,4.149c1.842,0.489,3.705,0.977,5.596,1.241
				c3.197,0.447,1.869-0.676,0.203,2.168c2.117-3.613,6.473-3.369,8.898-1.287c0.709-2.571,0.705-5.482,1.061-8.018
				c0.693-4.959,1.426-9.925,2.248-14.869c1.922-11.555,3.266-23.176,4.822-34.783c2.609-19.447,5.488-38.859,8.74-58.209
				C290.086,262.524,284.314,262.563,278.584,262.512z"/>
		</g>
	</g>
	<g>
		<g>
			<path class="st15" d="M275.955,136.957c-14.115-0.507-28.08-1.5-42.219-1.5h-41.344c-23.678,0-52.143,4.006-73.383-9.015
				c-1.621-0.994-3.188-2.103-4.652-3.312c0.994,8.304,2.648,16.545,4.195,24.771c2.666,14.172,3.896,28.479,5.678,42.778
				c1.365,10.978,2.414,21.965,3.312,32.959c3.512-3.627,8.289-6.376,12.764-8.288c12.336-5.271,25.977-7.618,39.189-9.482
				c11.059-1.561,22.264-2.947,33.408-3.757c20.205-1.468,40.469-0.65,60.703-0.624c0.5,0.001,0.967,0.062,1.406,0.165
				c0.631-5.293,1.283-10.587,1.98-15.879c1.488-11.321,3.303-22.416,4.303-33.794c0.436-4.972,0.924-10.108,2.104-15.019
				C280.932,137.041,278.451,137.045,275.955,136.957z"/>
		</g>
	</g>
	<g>
		<g>
			<path class="st15" d="M305.713,418.347c-1.609-0.304-4.213-1.276-5.02,0.655c-1.016,2.438-1.658,4.999-2.736,7.416
				c-0.211,0.475-0.463,0.881-0.74,1.236c0.488,0.318,0.953,0.729,1.373,1.241c2.445,2.978,6.85,2.736,10.088,1.349
				c2.188-0.938,6.084-3.322,5.85-6.221C314.211,420.109,309.004,418.969,305.713,418.347z"/>
		</g>
	</g>
	<g>
		<g>
			<path class="st15" d="M356.16,125.106c-7.719,1.891-15.496,3.508-23.303,4.965c-1.902,20.059-6.207,39.799-10.836,59.395
				c-1.266,5.363-2.508,10.725-3.721,16.088c17.473,0.532,44.115-4.25,57.143,9.64c2.115-33.606,3.611-67.247,3.994-100.925
				C372.508,119.754,363.066,123.415,356.16,125.106z"/>
		</g>
	</g>
	<g>
		<g>
			<path class="st12" d="M433.42,40.02c-0.365-4.041-0.09-9.978-5.625-9.428c-4.871,0.484-9.482,2.291-14.34,2.864
				c-5.289,0.624-10.596,0.991-15.916,1.198c-18.551,0.719-37.246,1.29-55.711,3.383c-6.939,0.786-15.592,1.484-21.502,5.628
				c-3.266,2.292-3.787,5.905-4.092,9.706c-0.363,4.543-0.57,8.844-1.729,13.273c-1.465,5.607-3.023,11.188-4.615,16.76
				c-1.406,4.924-1.611,10.262-2.387,15.319c-1.143,7.456-2.617,15.023-5.615,21.966c4.82,0.923,9.906,1.271,14.596,0.368
				c5.795-1.116,4.902-9.423,5.332-14.1c0.822-8.926,1.883-17.989,3.658-26.776c1.293-6.404,2.158-13.938,5.797-19.542
				c3.199-4.929,8.26-7.194,13.994-7.795c9.16-0.959,18.477-0.436,27.676-1.116c20.408-1.51,40.707-4.484,61.168-5.117
				C433.801,44.43,433.621,42.224,433.42,40.02z"/>
		</g>
	</g>
	<g>
		<g>
			<path class="st15" d="M279.324,71.515c-9.908-0.183-19.834,0.101-29.723,0.763c-19.684,1.318-39.158,4.424-58.799,6.158
				c-18.426,1.626-38.016,2.75-55.307,9.926c-8.424,3.495-27.424,15.33-15.43,25.414c9.545,8.025,23.264,10.217,35.357,10.771
				c12.684,0.581,25.398-0.062,38.09-0.062h49.219c15.037,0,30.111,2.36,45.148,1.362c0.164-0.262,0.348-0.516,0.521-0.773
				c-0.234-1.071-0.068-2.281,0.701-3.551c5.961-9.83,7.16-21.482,8.682-32.652c0.826-6.057,2.561-11.901,4.158-17.771
				C294.441,71.948,286.879,71.655,279.324,71.515z"/>
		</g>
	</g>
	<g>
		<g>
			<path class="st15" d="M377.248,96.053c-1.92-4.647-7.172-7.81-11.68-9.516c-9.219-3.487-19.299-3.68-29.068-4.647
				c-1.324,7.217-2.432,14.446-3.332,21.763c-0.572,4.656-0.551,9.89-1.555,14.708c0.24,0.225,0.461,0.472,0.662,0.736
				c1.609-0.317,3.217-0.636,4.818-0.954c11.738-2.34,25.215-4.113,34.838-11.908C374.65,104.032,378.883,100.012,377.248,96.053z"
				/>
		</g>
	</g>
	<g>
		<g>
			<path class="st6" d="M355.965,253.885c-15.65,4.655-32.209,6.962-48.855,7.975c-3.635,21.496-6.852,43.061-9.691,64.677
				c-1.527,11.62-3.164,23.187-4.934,34.77c-1.137,7.446-0.826,17.386-4.527,24.112c-2.203,4.006-7.113,3.385-9.377,0.761
				c-5.281,5.12-16.096,1.095-21.961-1.046c-10.523-3.84-10.879-13.134-8.945-22.796c4.123-20.592,8.676-41.103,12.809-61.698
				c-4.381,1.478-9.205,0.51-13.082-2.536c-2.102-1.65-2.379-3.85-1.611-5.718c-1.338-0.917-2.309-2.342-2.244-3.99
				c0.242-6.183,3.699-12.291,9.947-14.218c4.162-1.283,8.443-0.663,11.68,1.759c0.053-0.301,0.111-0.6,0.164-0.9
				c0.742-4.236,1.426-8.477,2.072-12.721c-0.744-0.02-1.492-0.035-2.232-0.056c-16.879-0.48-33.748-2.241-50.576-3.507
				c-28.4-2.138-56.836-4.357-85.068-8.181c0.68,9.946,1.342,19.897,2.1,29.856c2.312,30.415,5.328,60.867,11.047,90.854
				c2.889,15.154,6.18,30.251,9.371,45.346c1.295,6.127,2.453,12.168,3.158,18.395c0.154,1.35,0.295,2.707,0.451,4.066
				c6.256-6.691,17.969-9.793,26.08-11.406c14.51-2.887,29.176-3.117,43.869-4.196c7.086-0.521,7.914,10.451,0.848,10.971
				c-12.639,0.928-25.285,1.108-37.83,3.116c-6.59,1.054-13.941,2.264-19.891,5.467c-2.141,1.153-4.191,2.354-5.582,4.27
				c-0.76,1.046-0.916,1.962-0.729,3.556c13.158,7.649,28.811,10.042,43.73,11.855c16.854,2.05,33.857,4.479,50.846,4.837
				c18.414,0.389,37.303-0.622,55.223-5.152c7.623-1.926,15.043-4.545,22.475-7.094c5.738-1.969,12.227-4.008,17.043-7.952
				c-1.455-3.706-4.361-6.299-7.34-9.256c-5.008-4.968,2.211-13.276,7.262-8.264c1.252,1.243,2.57,2.472,3.834,3.749
				c0.012-0.071,0.021-0.143,0.033-0.215c2.203-14.79,5.049-29.764,6.016-44.703c0.037-0.67,0.119-2.13,0.088-1.749
				c0.162-1.959,0.326-3.919,0.492-5.878c0.33-3.922,0.662-7.844,0.996-11.766c0.67-7.853,1.348-15.705,2.027-23.558
				c1.418-16.394,2.844-32.786,4.213-49.185c1.422-17.016,2.779-34.039,4.02-51.071
				C368.293,249.393,361.738,252.168,355.965,253.885z M180.156,293.361c-1.492-0.163-3.273-0.588-4.959-1.273
				c-3.057,0.794-6.619-0.659-6.652-4.692c-0.043-5.51-0.504-11.176,2.803-15.925c2.766-3.973,8.381-7.115,13.252-7.046
				c10.105,0.144,16.748,12.687,12.4,21.566C193.896,292.334,186.66,294.069,180.156,293.361z M207.312,411.353
				c-6.602,2.525-15.891,2.744-19.842-4.307c-1.49-2.661-0.631-5.329,1.104-7c-1.039-0.804-1.812-2.011-2.029-3.651
				c-1.193-9.077,5.518-17.613,15.035-17.374c8.285,0.209,18.389,5.909,18.943,15.191
				C221.008,402.343,214.436,408.628,207.312,411.353z M221.826,325.583c-4.807,4.053-11.836,5.139-17.846,3.787
				c-1.172-0.264-2.08-0.798-2.754-1.488c-3.104,1.183-7.316-0.188-7.682-4.486c-0.611-7.219,2.682-14.336,9.703-17.07
				c5.963-2.323,15.564-1.729,20.113,3.386C227.984,314.908,227.039,321.187,221.826,325.583z M311.359,440.977
				c-8.264,2.531-16.303,0.871-21.889-5.931c-2.041-2.485-1.273-5.094,0.588-6.702c-2.008-1.397-3.23-3.953-1.955-6.82
				c2.221-4.986,2.877-9.971,7.852-13.112c3.637-2.298,9.197-1.659,13.119-0.565c8.238,2.299,16.607,6.393,16.404,16.236
				C325.314,432.022,318.701,438.729,311.359,440.977z"/>
		</g>
	</g>
	<g>
		<g>
			<path class="st9" d="M216.725,212.874c-10.168,0.672-20.381,1.879-30.488,3.172c-12.525,1.602-25.297,3.475-37.242,7.721
				c-4.223,1.502-9.348,3.327-12.592,6.412c-1.592,1.514-2.49,2.578-2.871,3.844c1.645,1.6,2.203,4.151,1.557,6.201
				c29.482,3.858,59.172,6.074,88.814,8.268c16.113,1.193,30.109,2.627,45.084,2.885c1.775-12.955,3.25-25.937,4.758-38.923
				C254.748,212.409,235.699,211.623,216.725,212.874z"/>
		</g>
	</g>
	<g>
		<g>
			<path class="st15" d="M259.111,285.393c-0.453-0.686-0.174-0.498-0.803-0.951c0.594,0.428-1.025-0.142-0.051,0.021
				c-0.689-0.115-0.463-0.255-1.686,0.312c-0.773,0.358-2.023,1.936-2.057,2.772c-0.025,0.678-0.145,1.332-0.332,1.951
				c0.16,0.105,0.32,0.216,0.479,0.34c1.078,0.848,2.354,0.861,3.354-0.207C259.111,288.461,260.146,286.958,259.111,285.393z"/>
		</g>
	</g>
	<g>
		<g>
			<path d="M446.223,50.153c-3.291-8.683,0.109-20.511-7.65-27.262c-8.346-7.262-21.73-0.732-31.172,0.143
				c-13.158,1.219-26.414,0.828-39.586,1.905c-8.52,0.697-17.076,1.159-25.584,1.996c-8.176,0.805-16.797,2.03-24.295,5.554
				c-9.193,4.318-12.07,11.941-12.711,21.692c-0.121,1.846-0.354,3.667-0.65,5.474c-13.934,2.336-28.463,0.61-42.525,1.013
				c-15.689,0.448-31.33,1.988-46.881,4.049c-28.172,3.731-59.164,2.524-85.607,14.248c-9.285,4.116-19.139,10.993-23.035,20.753
				c-0.186,0.467-0.346,0.93-0.49,1.391c-1.873,0.788-3.385,2.583-3.49,5.287c-0.553,14.31,2.381,28.368,5.037,42.352
				c2.691,14.166,3.904,28.48,5.678,42.778c3.781,30.479,5.219,61.038,7.545,91.647c2.312,30.427,5.537,60.822,11.258,90.814
				c2.83,14.847,6.1,29.628,9.211,44.419c1.332,6.322,2.408,12.557,3.135,18.978c0.662,5.835,1.268,11.9,3.432,17.406
				c1.092,2.781,3.58,3.739,5.893,3.426c0.256,0.242,0.535,0.473,0.852,0.683c14.492,9.621,32.543,12.498,49.471,14.62
				c17.846,2.237,35.803,4.518,53.791,5.01c19.482,0.531,39.055-1.16,58.016-5.739c8.539-2.062,16.893-5.118,25.174-8.033
				c6.512-2.292,13.207-5.103,18.498-9.634c2.246-0.438,4.135-2.095,4.043-4.866c0.41-0.605,0.717-1.339,0.854-2.234
				c1.939-12.619,3.809-25.251,5.557-37.897c2.859-20.678,4.162-41.514,5.959-62.304c5.668-65.525,11.381-131.079,13.633-196.829
				c0.609-17.808,0.926-35.625,0.938-53.443c0.002-2.283-1.137-3.736-2.68-4.426c-0.182-0.573-0.391-1.153-0.633-1.74
				c-3.854-9.329-14.232-14.32-23.336-16.868c-8.178-2.289-16.754-2.569-25.189-3.411c0.869-3.361,2.248-6.12,6.098-7.115
				c3.025-0.781,6.586-0.518,9.68-0.53c5.807-0.023,11.604-0.257,17.398-0.624c23.238-1.473,46.275-5.271,69.602-5.376
				C444.986,57.44,447.42,53.31,446.223,50.153z M135.496,88.362c17.291-7.176,36.881-8.3,55.307-9.926
				c19.641-1.734,39.115-4.84,58.799-6.158c9.889-0.662,19.814-0.945,29.723-0.763c7.555,0.14,15.117,0.433,22.619-0.415
				c-1.598,5.87-3.332,11.715-4.158,17.771c-1.521,11.17-2.721,22.822-8.682,32.652c-0.77,1.27-0.936,2.479-0.701,3.551
				c-0.174,0.258-0.357,0.512-0.521,0.773c-15.037,0.998-30.111-1.362-45.148-1.362h-49.219c-12.691,0-25.406,0.643-38.09,0.062
				c-12.094-0.555-25.812-2.746-35.357-10.771C108.072,103.692,127.072,91.857,135.496,88.362z M311.656,185.532
				c-5.09,21.756-9.928,43.438-13.838,65.436c-5.855,0.268-11.717,0.412-17.578,0.455c3.037-21.766,4.932-43.646,7.799-65.438
				c1.287-9.783,3.066-19.344,3.834-29.19c0.484-6.224,0.514-14.306,2.934-20.694c6.846-0.763,13.654-1.896,20.523-3.001
				c2.104-0.339,4.207-0.688,6.309-1.041C319.635,150.09,315.789,167.866,311.656,185.532z M317.455,216.457
				c8.312,0.447,16.662-0.388,24.984-0.285c8.002,0.099,17.545,0.739,24.029,5.971c1.428,1.15,2.428,2.55,3.361,4.11
				c0.463,0.771,0.719,1.695,1.01,2.537c0.027,0.078,0.049,0.14,0.07,0.198c-0.006,0.068,0.004,0.214,0.041,0.487
				c0.049,0.362,0.062,0.728,0.07,1.093c-0.02-0.417-0.057,0.654-0.088,0.849c-0.178,1.096,0.041,0.536-0.832,2.162
				c-0.26,0.486-2.221,2.58-3.148,3.287c-2.104,1.604-4.369,2.775-6.693,3.791c-13.404,5.854-28.678,7.572-43.094,8.961
				c-2.682,0.259-5.367,0.477-8.055,0.676c2.068-11.429,4.369-22.785,6.834-34.111C316.412,216.329,316.914,216.427,317.455,216.457
				z M269.9,377.356c-1.891-0.265-3.754-0.752-5.596-1.241c-2.441-0.647-6.406-1.2-6.787-4.149
				c-0.539-4.154,1.326-8.848,1.912-12.944c0.922-6.444,2.771-12.891,4.139-19.258c5.51-25.65,10.865-51.34,15.016-77.251
				c5.73,0.051,11.502,0.012,17.289-0.154c-3.252,19.35-6.131,38.762-8.74,58.209c-1.557,11.607-2.9,23.229-4.822,34.783
				c-0.822,4.944-1.555,9.91-2.248,14.869c-0.355,2.535-0.352,5.446-1.061,8.018c-2.426-2.082-6.781-2.326-8.898,1.287
				C271.77,376.68,273.098,377.803,269.9,377.356z M133.531,234.022c0.381-1.266,1.279-2.33,2.871-3.844
				c3.244-3.085,8.369-4.91,12.592-6.412c11.945-4.246,24.717-6.119,37.242-7.721c10.107-1.293,20.32-2.5,30.488-3.172
				c18.975-1.251,38.023-0.465,57.02-0.421c-1.508,12.986-2.982,25.968-4.758,38.923c-14.975-0.258-28.971-1.691-45.084-2.885
				c-29.643-2.193-59.332-4.409-88.814-8.268C135.734,238.173,135.176,235.622,133.531,234.022z M124.23,190.678
				c-1.781-14.299-3.012-28.606-5.678-42.778c-1.547-8.226-3.201-16.467-4.195-24.771c1.465,1.21,3.031,2.318,4.652,3.312
				c21.24,13.021,49.705,9.015,73.383,9.015h41.344c14.139,0,28.104,0.993,42.219,1.5c2.496,0.089,4.977,0.084,7.445,0.003
				c-1.18,4.91-1.668,10.047-2.104,15.019c-1,11.378-2.814,22.473-4.303,33.794c-0.697,5.292-1.35,10.586-1.98,15.879
				c-0.439-0.104-0.906-0.164-1.406-0.165c-20.234-0.026-40.498-0.844-60.703,0.624c-11.145,0.81-22.35,2.196-33.408,3.757
				c-13.213,1.864-26.854,4.212-39.189,9.482c-4.475,1.912-9.252,4.661-12.764,8.288
				C126.645,212.643,125.596,201.656,124.23,190.678z M369.361,296.536c-1.369,16.398-2.795,32.791-4.213,49.185
				c-0.68,7.853-1.357,15.705-2.027,23.558c-0.334,3.922-0.666,7.844-0.996,11.766c-0.166,1.959-0.33,3.919-0.492,5.878
				c0.031-0.381-0.051,1.079-0.088,1.749c-0.967,14.939-3.812,29.913-6.016,44.703c-0.012,0.072-0.021,0.144-0.033,0.215
				c-1.264-1.277-2.582-2.506-3.834-3.749c-5.051-5.013-12.27,3.296-7.262,8.264c2.979,2.957,5.885,5.55,7.34,9.256
				c-4.816,3.944-11.305,5.983-17.043,7.952c-7.432,2.549-14.852,5.168-22.475,7.094c-17.92,4.53-36.809,5.541-55.223,5.152
				c-16.988-0.358-33.992-2.787-50.846-4.837c-14.92-1.813-30.572-4.206-43.73-11.855c-0.188-1.594-0.031-2.51,0.729-3.556
				c1.391-1.915,3.441-3.116,5.582-4.27c5.949-3.203,13.301-4.413,19.891-5.467c12.545-2.008,25.191-2.188,37.83-3.116
				c7.066-0.52,6.238-11.491-0.848-10.971c-14.693,1.079-29.359,1.31-43.869,4.196c-8.111,1.613-19.824,4.715-26.08,11.406
				c-0.156-1.359-0.297-2.717-0.451-4.066c-0.705-6.227-1.863-12.268-3.158-18.395c-3.191-15.095-6.482-30.191-9.371-45.346
				c-5.719-29.986-8.734-60.438-11.047-90.854c-0.758-9.959-1.42-19.91-2.1-29.856c28.232,3.823,56.668,6.043,85.068,8.181
				c16.828,1.266,33.697,3.026,50.576,3.507c0.74,0.021,1.488,0.036,2.232,0.056c-0.646,4.244-1.33,8.484-2.072,12.721
				c-0.053,0.301-0.111,0.6-0.164,0.9c-3.236-2.422-7.518-3.042-11.68-1.759c-6.248,1.927-9.705,8.035-9.947,14.218
				c-0.064,1.648,0.906,3.073,2.244,3.99c-0.768,1.868-0.49,4.067,1.611,5.718c3.877,3.046,8.701,4.014,13.082,2.536
				c-4.133,20.596-8.686,41.106-12.809,61.698c-1.934,9.662-1.578,18.956,8.945,22.796c5.865,2.141,16.68,6.166,21.961,1.046
				c2.264,2.624,7.174,3.245,9.377-0.761c3.701-6.727,3.391-16.666,4.527-24.112c1.77-11.583,3.406-23.149,4.934-34.77
				c2.84-21.616,6.057-43.181,9.691-64.677c16.646-1.013,33.205-3.319,48.855-7.975c5.773-1.717,12.328-4.492,17.416-8.421
				C372.141,262.497,370.783,279.52,369.361,296.536z M258.309,284.442c0.629,0.453,0.35,0.266,0.803,0.951
				c1.035,1.564,0,3.068-1.096,4.238c-1,1.068-2.275,1.055-3.354,0.207c-0.158-0.124-0.318-0.234-0.479-0.34
				c0.188-0.619,0.307-1.273,0.332-1.951c0.033-0.837,1.283-2.414,2.057-2.772c1.223-0.566,0.996-0.427,1.686-0.312
				C257.283,284.3,258.902,284.87,258.309,284.442z M375.443,215.193c-13.027-13.89-39.67-9.107-57.143-9.64
				c1.213-5.363,2.455-10.725,3.721-16.088c4.629-19.596,8.934-39.336,10.836-59.395c7.807-1.457,15.584-3.074,23.303-4.965
				c6.906-1.691,16.348-5.352,23.277-10.838C379.055,147.946,377.559,181.586,375.443,215.193z M365.568,86.538
				c4.508,1.706,9.76,4.868,11.68,9.516c1.635,3.959-2.598,7.979-5.316,10.182c-9.623,7.795-23.1,9.568-34.838,11.908
				c-1.602,0.318-3.209,0.637-4.818,0.954c-0.201-0.265-0.422-0.512-0.662-0.736c1.004-4.818,0.982-10.052,1.555-14.708
				c0.9-7.316,2.008-14.546,3.332-21.763C346.27,82.858,356.35,83.05,365.568,86.538z M372.941,51.729
				c-9.199,0.681-18.516,0.157-27.676,1.116c-5.734,0.601-10.795,2.866-13.994,7.795c-3.639,5.604-4.504,13.138-5.797,19.542
				c-1.775,8.787-2.836,17.851-3.658,26.776c-0.43,4.677,0.463,12.983-5.332,14.1c-4.689,0.902-9.775,0.555-14.596-0.368
				c2.998-6.942,4.473-14.51,5.615-21.966c0.775-5.058,0.98-10.396,2.387-15.319c1.592-5.572,3.15-11.152,4.615-16.76
				c1.158-4.43,1.365-8.73,1.729-13.273c0.305-3.801,0.826-7.414,4.092-9.706c5.91-4.144,14.562-4.842,21.502-5.628
				c18.465-2.093,37.16-2.664,55.711-3.383c5.32-0.207,10.627-0.574,15.916-1.198c4.857-0.573,9.469-2.38,14.34-2.864
				c5.535-0.55,5.26,5.387,5.625,9.428c0.201,2.204,0.381,4.41,0.689,6.592C413.648,47.245,393.35,50.219,372.941,51.729z"/>
		</g>
	</g>
	<g>
		<g>
			<path d="M220.523,394.212c-0.555-9.282-10.658-14.982-18.943-15.191c-9.518-0.239-16.229,8.297-15.035,17.374
				c0.217,1.641,0.99,2.848,2.029,3.651c-1.734,1.671-2.594,4.339-1.104,7c3.951,7.051,13.24,6.832,19.842,4.307
				C214.436,408.628,221.008,402.343,220.523,394.212z M207.383,398.778c-1.125,1.097-2.875,1.874-4.379,2.449
				c-1.354,0.518-3.664,0.895-4.41,0.826c-1.756-0.159-1.373-0.031-2.004-1.157c-0.193-0.345-0.406-0.646-0.631-0.915
				c1.137-0.959,1.818-2.447,1.557-4.434c-0.459-3.487,1.141-5.879,4.982-5.559c2.135,0.179,3.777,1.05,5.316,2.49
				c0.662,0.619,1.154,1.334,1.629,2.101c0.104,0.167,0.102,0.969,0.129,0.946C209.416,396.542,208.668,397.526,207.383,398.778z"/>
		</g>
	</g>
	<g>
		<g>
			<path d="M223.361,309.71c-4.549-5.115-14.15-5.709-20.113-3.386c-7.021,2.734-10.314,9.852-9.703,17.07
				c0.365,4.299,4.578,5.669,7.682,4.486c0.674,0.69,1.582,1.225,2.754,1.488c6.01,1.352,13.039,0.266,17.846-3.787
				C227.039,321.187,227.984,314.908,223.361,309.71z M214.34,317.476c-2.162,1.483-5.299,1.762-8.26,1.097
				c-0.344-0.078-0.672-0.117-0.99-0.136c0.383-0.743,0.957-1.343,1.795-1.729c2.389-1.104,5.867-0.795,8.012,0.367
				C214.713,317.21,214.533,317.351,214.34,317.476z"/>
		</g>
	</g>
	<g>
		<g>
			<path d="M184.6,264.424c-4.871-0.069-10.486,3.073-13.252,7.046c-3.307,4.749-2.846,10.415-2.803,15.925
				c0.033,4.033,3.596,5.486,6.652,4.692c1.686,0.686,3.467,1.11,4.959,1.273c6.504,0.708,13.74-1.026,16.844-7.37
				C201.348,277.111,194.705,264.568,184.6,264.424z M187.074,281.263c0.078-0.508-0.281,0.262-0.166,0.244
				c-0.045,0.052-0.088,0.106-0.135,0.157c-0.057,0.04-0.104,0.074-0.186,0.137c-0.115,0.066-0.193,0.113-0.258,0.153
				c-0.35,0.144-0.711,0.264-1.07,0.376c-0.076,0.02-0.115,0.029-0.174,0.044c-0.283,0.044-0.568,0.084-0.854,0.111
				c-0.693,0.079-1.393,0.08-2.09,0.064c0.342-0.015-1.076-0.141-1.283-0.174c-0.381-0.061-0.758-0.144-1.131-0.236
				c-0.078-0.11-0.156-0.22-0.244-0.324c0.172-3.157,1.109-6.028,5.117-6.434c1.514-0.153,2.283,2.28,2.473,3.328
				c0.049,0.271,0.088,1.866,0.139,1.862C187.18,280.806,187.129,281.035,187.074,281.263z"/>
		</g>
	</g>
	<g>
		<g>
			<path d="M309.074,407.846c-3.922-1.094-9.482-1.732-13.119,0.565c-4.975,3.142-5.631,8.126-7.852,13.112
				c-1.275,2.867-0.053,5.423,1.955,6.82c-1.861,1.608-2.629,4.217-0.588,6.702c5.586,6.802,13.625,8.462,21.889,5.931
				c7.342-2.248,13.955-8.955,14.119-16.895C325.682,414.239,317.312,410.145,309.074,407.846z M308.678,430.245
				c-3.238,1.388-7.643,1.629-10.088-1.349c-0.42-0.513-0.885-0.923-1.373-1.241c0.277-0.355,0.529-0.762,0.74-1.236
				c1.078-2.417,1.721-4.979,2.736-7.416c0.807-1.932,3.41-0.959,5.02-0.655c3.291,0.622,8.498,1.762,8.814,5.677
				C314.762,426.922,310.865,429.307,308.678,430.245z"/>
		</g>
	</g>
</g>
</svg>
