<?xml version="1.0" encoding="utf-8"?>
<!-- Generator: Adobe Illustrator 16.0.3, SVG Export Plug-In . SVG Version: 6.00 Build 0)  -->
<!DOCTYPE svg PUBLIC "-//W3C//DTD SVG 1.1//EN" "http://www.w3.org/Graphics/SVG/1.1/DTD/svg11.dtd">
<svg version="1.1" id="Layer_1" xmlns="http://www.w3.org/2000/svg" xmlns:xlink="http://www.w3.org/1999/xlink" x="0px" y="0px"
	 width="512px" height="512px" viewBox="0 0 512 512" style="enable-background:new 0 0 512 512;" xml:space="preserve">
<style type="text/css">
<![CDATA[
	.st0{fill:#127274;}
	.st1{fill:#14B6B9;}
	.st2{fill:#1E4384;}
	.st3{fill:#EF4754;}
	.st4{fill:#EF4823;}
	.st5{fill:#BCBCBC;}
	.st6{fill:#F6851F;}
	.st7{fill:#C56528;}
	.st8{fill:#FCBF95;}
	.st9{fill:#FEBF10;}
	.st10{fill:none;}
	.st11{fill:#010101;}
	.st12{fill:#3AB37C;}
	.st13{fill:#D6E5E5;}
	.st14{fill:#71C598;}
	.st15{fill:#74CCCF;}
]]>
</style>
<g>
	<g>
		<g>
			<path class="st15" d="M253.268,106.578c-0.117-7.433-1.92-14.606-3.49-21.811c-0.521,0.194-1.113,0.309-1.785,0.314
				c-21.818,0.186-43.258,5.247-64.932,7.188c-21.934,1.965-43.988,1.896-65.924,3.788c-13.992,1.207-26.934,2.529-39.994,7.637
				c-1.371,0.536-4.5,1.687-6.838,3.013c0.264,0.604,0.398,1.323,0.361,2.164c-0.039,0.901-0.037,1.799-0.018,2.696
				c0.568,0.095,1.178,0.165,1.807,0.213c0.758-0.887,1.908-1.472,3.488-1.471c46.721,0.027,93.312,0.797,140.025-0.513
				c12.51-0.351,25.088-0.594,37.602-1.499C253.387,107.793,253.279,107.222,253.268,106.578z"/>
		</g>
	</g>
	<g>
		<g>
			<path class="st15" d="M323.457,103.636c-0.508-0.171-0.984-0.441-1.414-0.786c-1.73,0.879-3.488,1.605-5.117,2.187
				c-9.252,3.307-18.439,6.711-28.09,8.747c-20.91,4.411-42.189,5.428-63.496,6.032c-24.273,0.688-48.514,1.533-72.803,1.422
				c-23.068-0.104-46.129-0.546-69.195-0.637c-0.756,0.91-1.918,1.512-3.523,1.51c-2.361-0.003-5.043,0.072-7.715-0.092
				c3.979,15.761,15.287,30.394,24.82,42.519c7.988,10.165,16.371,19.994,25.051,29.573c10.553,11.645,21.361,23.161,33.033,33.697
				c4.744,4.281,9.627,8.714,15.051,12.132c1.611,1.015,4.715,2.788,5.66,3.067c0.402,0.12,2.604,0.417,1.393,0.431
				c0.275-0.004,0.436,0.008,0.52,0.025c0.068-0.044,0.18-0.105,0.379-0.193c2.32-1.026,4.24-0.241,5.395,1.268h0.539
				c1.424,0,2.693,0.299,3.791,1.266c0.543,0.478,0.965,1.072,1.264,1.724c8.91,5.562,13.287,17.217,15.932,26.799
				c4.398,15.926,6.17,32.553,7.203,48.999c1.713,27.3,0.527,54.474,0.479,81.777c-0.004,1.667-0.66,2.964-1.641,3.867
				c-0.041,1.41-0.678,2.82-2.156,3.878c-3.648,2.613-6.836,7.743-7.002,12.312c-0.104,2.799-1.705,5.293-4.734,5.525
				c-2.553,0.196-5.627-1.928-5.525-4.733c0.055-1.473,0.234-2.941,0.525-4.387c-7.396,2.501-15.656,3.32-22.938,5.158
				c-5.564,1.404-10.438,3.081-14.939,6.738c-4.137,3.36-9.383,8.266-9.906,13.934c-0.971,10.507,17.631,10.058,24.219,10.061
				c7.24,0.003,14.795,1.932,22.039,2.543c7.352,0.621,14.723,1.047,22.104,1.123c11.033,0.113,22.053-0.353,32.975-1.998
				c9.584-1.443,19.26-3.501,28.203-7.332c6.395-2.737,14.594-7.123,17.18-14.167c-1.523-2.083-0.818-4.648,0.869-6.268
				c-1.078-12.875-21.357-14.347-33.609-14.529c0.746,1.251,1.389,2.563,1.893,3.942c2.287,6.246-7.432,9.62-9.709,3.401
				c-1.475-4.027-4.939-7.061-8.395-9.513c-2.922,1.222-6.994-0.033-7.309-4.134c-0.264-3.441-0.492-6.884-0.701-10.329
				c-1.932-31.597-3.008-63.459-1.178-95.083c0.84-14.533,1.689-29.768,6.191-43.723c1.553-4.813,3.709-10.051,7.098-13.699
				c0.719-1.331,1.955-2.432,3.479-2.845c1.553-0.918,3.299-1.539,5.273-1.749c0.623-0.401,1.234-0.827,1.822-1.239
				c3.375-2.356,6.584-4.942,9.695-7.636c6.895-5.97,13.465-12.355,19.764-18.946c15.502-16.216,32.691-33.464,41.65-54.296
				c0.381-0.884,0.902-1.538,1.504-2C321.76,144.28,324.252,120.341,323.457,103.636z M267.355,217.17
				c-12.279,10.371-26.852,19.831-42.207,24.914c-16.938,5.605-34.068,0.653-47.773-10.173
				c-14.275-11.277-24.645-26.498-38.326-38.395c-4.678-4.068,0.949-11.1,5.799-8.425c0.158-0.076,0.322-0.145,0.488-0.205
				c0.15-0.479,0.357-0.96,0.66-1.442c2.398-3.826,6.629-5.659,10.779-7.049c13.66-4.573,28.963-7.301,43.389-7.301
				c17.143,0,34.289-0.112,51.43,0c8.16,0.053,19.779-0.162,26.91,4.594c1.203,0.803,2.148,1.662,2.857,2.557
				c2.873-1.774,7.684-0.676,8.158,3.754C291.133,195.104,277.865,208.293,267.355,217.17z"/>
		</g>
	</g>
	<g>
		<g>
			<path class="st9" d="M337.244,40.494c-7.656,1.397-8.598,8.912-8.42,15.526c0.098,3.571,0.453,7.144,0.707,10.718
				c6.645-3.645,14.332-7.081,16.096-14.66C347.275,44.997,345.643,38.961,337.244,40.494z"/>
		</g>
	</g>
	<g>
		<g>
			<path class="st15" d="M249.693,468.87c-24.744,4.036-50.334,3.013-75.107-0.291c-7.15-0.953-15.393-0.4-22.779-2.061
				c14.469,16.54,46.123,16.434,65.992,14.945c18.266-1.369,38.385-1.747,55.334-9.336c7.209-3.228,13.469-7.62,17.242-14.687
				c0.801-1.501,1.791-3.434,2.617-5.518C281.781,462.521,264.244,466.497,249.693,468.87z"/>
		</g>
	</g>
	<g>
		<g>
			<path class="st9" d="M269.898,181.296c-4.457-1.095-9.08-1.721-13.666-1.869c-15.656-0.504-31.387-0.074-47.047-0.074
				c-8.045,0-15.699,0.019-23.639,1.195c-7.439,1.104-14.92,2.402-22.141,4.542c-1.092,0.323-2.301,0.673-3.486,1.063
				c24.6,3.178,49.469,5.91,74.215,3.536c7.318-0.702,14.654-1.69,21.789-3.503c4.615-1.172,10.199-2.302,14.623-4.707
				C270.332,181.417,270.119,181.351,269.898,181.296z"/>
		</g>
	</g>
	<g>
		<g>
			<path class="st9" d="M276.141,189.995c-12.252,6.48-27.559,8.779-41.215,9.953c-26.365,2.268-52.719-0.596-78.877-3.954
				c17.715,19.325,37.412,45.742,64.85,36.661c13.719-4.541,26.652-12.562,37.824-21.629c6.496-5.271,16.08-13.252,19.422-22.264
				C277.523,189.204,276.855,189.618,276.141,189.995z"/>
		</g>
	</g>
	<g>
		<g>
			<path class="st9" d="M304.457,95.54c-6.295-12.672-18.08-0.316-23.301,9.351c8.51-1.579,16.943-3.725,24.982-6.954
				c0.115-0.046,0.238-0.093,0.365-0.141C305.684,97.298,304.965,96.561,304.457,95.54z"/>
		</g>
	</g>
	<g>
		<g>
			<path class="st9" d="M293.123,80.292c-3.156,0.265-6.334,0.597-9.504,0.602c-6.068,0.009-11.281-1.04-16.178-4.832
				c-5.449-4.221-9.254-11.088-8.646-17.732c-0.92,3.705-1.32,7.545-1.076,11.447c0.764,12.211,5.611,23.719,5.809,36.009
				c0.008,0.6-0.068,1.15-0.215,1.653c1.979-0.207,3.957-0.443,5.93-0.695c2.979-9.316,9.895-19.041,18.287-23.922
				c2.186-1.271,4.312-2.118,6.359-2.584C293.633,80.257,293.379,80.27,293.123,80.292z"/>
		</g>
	</g>
	<g>
		<g>
			<path class="st9" d="M400.76,75.929c-4.191-15.61-12.006-30.688-24.164-41.583c-13.135-11.771-29.184-16.462-46.639-16.698
				c-20.568-0.278-44.504,4.172-59.316,19.719c-4.018,4.215-7.359,9.132-9.65,14.468c0.338-0.54,0.717-1.071,1.141-1.591
				c7.893-9.691,21.264-10.078,31.611-4.288c9.156,5.123,18.246,14.317,15.99,25.72c-0.549,2.768-2.691,3.998-4.873,4.003
				c-0.145,2.048-1.344,3.98-3.066,4.718c5.082,1.475,9.344,5.641,12.373,11.74c0.555,1.113,0.66,2.134,0.451,3.02
				c4.059-1.501,7.855-3.586,8.16-6.929c0.602-6.605,10.693-4.577,10.098,1.963c-0.09,0.979-0.303,1.908-0.621,2.79
				c0.326,0.577,0.574,1.241,0.701,2.004c0.311,1.846,0.549,3.704,0.697,5.571c1.234,15.507-1.355,32.024,2.635,47.213
				c1.467,5.583,3.828,11.388,9.73,13.398c7.385,2.515,17.004-1.154,23.711-4.137C400.625,143.291,408.91,106.28,400.76,75.929z
				 M330.467,78.2c-0.354,0.253-0.707,0.449-1.059,0.602c-1.402,5.615-10.611,3.502-9.953-2.761
				c1.043-9.893-2.461-19.897-0.104-29.788c2.588-10.858,12.041-17.714,23.4-16.22c11.252,1.48,15.547,12.944,13.197,23.044
				c-1.311,5.627-3.736,10.521-8.266,14.241C342.4,71.66,336.004,74.235,330.467,78.2z M378.961,140.522
				c-9.48,7.488-21.395,6.013-27.736-4.524c-5.475-9.097-7.172-19.437-9.975-29.503c-1.033-3.714,1.834-6.422,4.758-6.771
				c1.383-1.207,3.334-1.819,5.471-1.08C364.891,103.288,399.264,124.489,378.961,140.522z M393.451,88.111
				c-0.646,11.935-12.727,13.168-22.135,11.221c-5.316-1.101-10.494-2.808-15.59-4.66c-2.152-0.782-4.289-1.599-6.432-2.407
				c-0.645-0.244-1.289-0.485-1.939-0.719c-0.211-0.068-0.557-0.182-0.689-0.217c-2.885-0.777-4.062-3.274-3.9-5.615
				c-6.037-3.564-1.061-10.148,3.607-12.646c5.781-3.093,11.434-6.275,17.912-7.743c7.164-1.621,15.91-2.037,21.506,3.75
				C390.48,73.926,393.824,81.22,393.451,88.111z"/>
		</g>
	</g>
	<g>
		<g>
			<path class="st9" d="M285.676,53.557c-5.447-2.006-16.166-1.564-16.736,6.266c-0.445,6.138,7.27,10.822,12.529,10.814
				c4.428-0.006,8.805-0.526,13.219-0.785c1.514-0.089,3.287-0.259,4.934-0.04c0.006-0.033,0.008-0.064,0.014-0.098
				C301.141,62.104,291.758,55.798,285.676,53.557z"/>
		</g>
	</g>
	<g>
		<g>
			<path class="st9" d="M382.801,84.511c-1.424-4.987-3.77-9.73-9.539-10.077c-4.604-0.277-11.469,1.485-15.332,4.02
				c-1.57,1.031-3.297,1.8-4.949,2.684c-0.557,0.299-1.113,0.6-1.664,0.912c4.398,1.455,8.652,3.414,13.064,4.81
				c5.105,1.614,13.506,4.808,18.416,2.417c-0.07,0.035,0.281-0.496,0.279-0.494C383.33,87.474,383.203,85.925,382.801,84.511z"/>
		</g>
	</g>
	<g>
		<g>
			<path class="st9" d="M352.666,110.388c2.82,12.254,8.086,31.444,19.738,22.242C380.562,126.188,362.957,115.429,352.666,110.388z
				"/>
		</g>
	</g>
	<g>
		<g>
			<path class="st11" d="M373.119,18.822C357.604,8.664,338.238,6.602,320.117,7.57c-21.211,1.133-43.141,8.245-58.064,23.907
				c-8.719,9.151-14.18,21.868-14.592,34.493c-0.098,3.007,0.119,5.967,0.506,8.901c-0.248-0.03-0.5-0.05-0.766-0.047
				c-25.137,0.214-49.957,6.239-75.01,7.988c-25.797,1.801-51.74,1.481-77.34,5.571c-11.125,1.776-25.271,4.783-33.676,12.747
				c-4.289,4.064-5.062,9.336-2.26,14.471c0.527,0.967,1.168,1.783,1.889,2.486c2.52,18.894,15.525,36.585,26.668,51.021
				c8.936,11.574,18.547,22.619,28.361,33.45c11.277,12.446,22.9,24.697,35.535,35.784c5.25,4.609,15.012,14.097,23.82,15.369
				c0.861,0.693,1.988,1.121,3.375,1.087c2.992-0.071,5.973,1.567,8.359,4.505c3.586,4.415,5.633,9.881,7.348,15.234
				c4.879,15.228,6.352,31.59,7.461,47.459c1.934,27.64,0.852,55.207,0.627,82.863c-0.805,0.619-1.572,1.285-2.297,1.991
				c-1.402-0.14-2.885,0.249-4.16,1.424c-3.15,2.907-8.285,3.86-12.293,4.858c-5.914,1.473-11.941,2.462-17.871,3.881
				c-11.139,2.667-20.74,8.755-27.277,18.322c-3.16,4.623-4.949,9.865-4.303,15.496c0.09,0.775,0.258,1.52,0.48,2.239
				c7.506,38.919,55.049,41.073,86.902,38.417c21.932-1.829,46.299-2.528,65.182-15.193c10.955-7.349,24.438-28.761,15.58-41.652
				c0.695-8.491-3.76-16.724-11.607-21.437c-10.738-6.447-25.188-6.641-37.322-6.664c-1.469-0.003-2.57,0.5-3.326,1.283
				c-0.701-0.543-1.416-1.065-2.141-1.56c-1.002-0.685-2.119-1.117-3.227-1.203c-1.814-25.421-2.609-50.973-2.332-76.447
				c0.182-16.523,0.822-33.142,3.324-49.497c0.895-5.858,2.113-12.184,4.105-17.497c0.777-2.074,1.736-4.081,2.918-5.954
				c-0.299,0.474,0.309-0.295,0.787-0.885c5.051-0.791,9.936-4.938,13.646-7.845c8.207-6.428,15.787-13.724,23.129-21.109
				c7.039-7.08,13.576-14.638,20.242-22.063c9.938-11.07,19.514-22.786,25.744-36.388c3.646,2.735,8.35,4.426,14.41,4.698
				c8.955,0.402,18.607-3.266,26.475-7.237c7.391-3.729,13.938-8.823,19.412-15.033c10.676-12.11,16.066-28.233,17.182-44.151
				C416.045,72.458,401.373,37.318,373.119,18.822z M258.795,58.33c-0.607,6.644,3.197,13.511,8.646,17.732
				c4.896,3.792,10.109,4.841,16.178,4.832c3.17-0.005,6.348-0.337,9.504-0.602c0.256-0.021,0.51-0.035,0.766-0.055
				c-2.047,0.466-4.174,1.313-6.359,2.584c-8.393,4.881-15.309,14.606-18.287,23.922c-1.973,0.252-3.951,0.488-5.93,0.695
				c0.146-0.503,0.223-1.053,0.215-1.653c-0.197-12.291-5.045-23.798-5.809-36.009C257.475,65.875,257.875,62.034,258.795,58.33z
				 M299.635,69.714c-0.006,0.034-0.008,0.065-0.014,0.098c-1.646-0.219-3.42-0.049-4.934,0.04
				c-4.414,0.259-8.791,0.778-13.219,0.785c-5.26,0.008-12.975-4.676-12.529-10.814c0.57-7.831,11.289-8.272,16.736-6.266
				C291.758,55.798,301.141,62.104,299.635,69.714z M304.457,95.54c0.508,1.021,1.227,1.758,2.047,2.256
				c-0.127,0.047-0.25,0.094-0.365,0.141c-8.039,3.229-16.473,5.375-24.982,6.954C286.377,95.224,298.162,82.867,304.457,95.54z
				 M70.666,108.872c0.037-0.841-0.098-1.561-0.361-2.164c2.338-1.326,5.467-2.477,6.838-3.013
				c13.061-5.108,26.002-6.43,39.994-7.637c21.936-1.892,43.99-1.823,65.924-3.788c21.674-1.942,43.113-7.002,64.932-7.188
				c0.672-0.005,1.264-0.121,1.785-0.314c1.57,7.204,3.373,14.377,3.49,21.811c0.012,0.644,0.119,1.215,0.303,1.72
				c-12.514,0.905-25.092,1.148-37.602,1.499c-46.713,1.311-93.305,0.541-140.025,0.513c-1.58-0.001-2.73,0.584-3.488,1.471
				c-0.629-0.049-1.238-0.119-1.807-0.213C70.629,110.671,70.627,109.773,70.666,108.872z M290.375,457.44
				c-3.773,7.067-10.033,11.459-17.242,14.687c-16.949,7.589-37.068,7.967-55.334,9.336c-19.869,1.489-51.523,1.595-65.992-14.945
				c7.387,1.661,15.629,1.108,22.779,2.061c24.773,3.304,50.363,4.327,75.107,0.291c14.551-2.374,32.088-6.35,43.299-16.948
				C292.166,454.006,291.176,455.938,290.375,457.44z M327.848,160.979c-8.959,20.832-26.148,38.08-41.65,54.296
				c-6.299,6.591-12.869,12.977-19.764,18.946c-3.111,2.693-6.32,5.28-9.695,7.636c-0.588,0.412-1.199,0.838-1.822,1.239
				c-1.975,0.21-3.721,0.83-5.273,1.749c-1.523,0.413-2.76,1.515-3.479,2.845c-3.389,3.648-5.545,8.885-7.098,13.699
				c-4.502,13.955-5.352,29.19-6.191,43.723c-1.83,31.624-0.754,63.487,1.178,95.083c0.209,3.444,0.438,6.888,0.701,10.329
				c0.314,4.101,4.387,5.356,7.309,4.134c3.455,2.452,6.92,5.486,8.395,9.513c2.277,6.218,11.996,2.844,9.709-3.401
				c-0.504-1.378-1.146-2.69-1.893-3.942c12.252,0.183,32.531,1.654,33.609,14.529c-1.688,1.62-2.393,4.184-0.869,6.268
				c-2.586,7.045-10.785,11.43-17.18,14.167c-8.943,3.831-18.619,5.888-28.203,7.332c-10.922,1.646-21.941,2.111-32.975,1.998
				c-7.381-0.076-14.752-0.502-22.104-1.123c-7.244-0.611-14.799-2.54-22.039-2.543c-6.588-0.003-25.189,0.446-24.219-10.061
				c0.523-5.668,5.77-10.574,9.906-13.934c4.502-3.657,9.375-5.334,14.939-6.738c7.281-1.837,15.541-2.656,22.938-5.158
				c-0.291,1.446-0.471,2.914-0.525,4.387c-0.102,2.806,2.973,4.929,5.525,4.733c3.029-0.232,4.631-2.726,4.734-5.525
				c0.166-4.569,3.354-9.699,7.002-12.312c1.479-1.058,2.115-2.469,2.156-3.878c0.98-0.902,1.637-2.199,1.641-3.867
				c0.049-27.304,1.234-54.477-0.479-81.777c-1.033-16.446-2.805-33.073-7.203-48.999c-2.645-9.582-7.021-21.236-15.932-26.799
				c-0.299-0.651-0.721-1.246-1.264-1.724c-1.098-0.966-2.367-1.266-3.791-1.266h-0.539c-1.154-1.509-3.074-2.294-5.395-1.268
				c-0.199,0.087-0.311,0.148-0.379,0.193c-0.084-0.017-0.244-0.029-0.52-0.025c1.211-0.015-0.99-0.312-1.393-0.431
				c-0.945-0.28-4.049-2.052-5.66-3.067c-5.424-3.417-10.307-7.851-15.051-12.132c-11.672-10.536-22.48-22.052-33.033-33.697
				c-8.68-9.579-17.062-19.409-25.051-29.573c-9.533-12.125-20.842-26.758-24.82-42.519c2.672,0.164,5.354,0.089,7.715,0.092
				c1.605,0.001,2.768-0.601,3.523-1.51c23.066,0.091,46.127,0.533,69.195,0.637c24.289,0.11,48.529-0.734,72.803-1.422
				c21.307-0.604,42.586-1.622,63.496-6.032c9.65-2.036,18.838-5.439,28.09-8.747c1.629-0.582,3.387-1.308,5.117-2.187
				c0.43,0.344,0.906,0.614,1.414,0.786c0.795,16.706-1.697,40.645,5.895,55.344C328.75,159.442,328.229,160.095,327.848,160.979z
				 M369.729,157.031c-6.707,2.982-16.326,6.651-23.711,4.137c-5.902-2.01-8.264-7.815-9.73-13.398
				c-3.99-15.189-1.4-31.706-2.635-47.213c-0.148-1.867-0.387-3.725-0.697-5.571c-0.127-0.763-0.375-1.428-0.701-2.004
				c0.318-0.882,0.531-1.812,0.621-2.79c0.596-6.54-9.496-8.568-10.098-1.963c-0.305,3.343-4.102,5.428-8.16,6.929
				c0.209-0.886,0.104-1.907-0.451-3.02c-3.029-6.099-7.291-10.265-12.373-11.74c1.723-0.738,2.922-2.67,3.066-4.718
				c2.182-0.005,4.324-1.236,4.873-4.003c2.256-11.403-6.834-20.598-15.99-25.72c-10.348-5.79-23.719-5.403-31.611,4.288
				c-0.424,0.52-0.803,1.051-1.141,1.591c2.291-5.336,5.633-10.253,9.65-14.468c14.812-15.547,38.748-19.997,59.316-19.719
				c17.455,0.236,33.504,4.927,46.639,16.698c12.158,10.895,19.973,25.973,24.164,41.583
				C408.91,106.28,400.625,143.291,369.729,157.031z"/>
		</g>
	</g>
	<g>
		<g>
			<path class="st11" d="M342.752,30.034c-11.359-1.494-20.812,5.361-23.4,16.22c-2.357,9.891,1.146,19.895,0.104,29.788
				c-0.658,6.263,8.551,8.376,9.953,2.761c0.352-0.152,0.705-0.349,1.059-0.602c5.537-3.965,11.934-6.54,17.217-10.881
				c4.529-3.721,6.955-8.614,8.266-14.241C358.299,42.978,354.004,31.514,342.752,30.034z M345.627,52.079
				c-1.764,7.579-9.451,11.015-16.096,14.66c-0.254-3.574-0.609-7.147-0.707-10.718c-0.178-6.614,0.764-14.129,8.42-15.526
				C345.643,38.961,347.275,44.997,345.627,52.079z"/>
		</g>
	</g>
	<g>
		<g>
			<path class="st11" d="M385.791,69.075c-5.596-5.787-14.342-5.371-21.506-3.75c-6.479,1.467-12.131,4.65-17.912,7.743
				c-4.668,2.497-9.645,9.081-3.607,12.646c-0.162,2.341,1.016,4.838,3.9,5.615c0.133,0.035,0.479,0.148,0.689,0.217
				c0.65,0.233,1.295,0.475,1.939,0.719c2.143,0.809,4.279,1.625,6.432,2.407c5.096,1.853,10.273,3.56,15.59,4.66
				c9.408,1.947,21.488,0.714,22.135-11.221C393.824,81.22,390.48,73.926,385.791,69.075z M383.076,88.782
				c0.002-0.002-0.35,0.529-0.279,0.494c-4.91,2.391-13.311-0.803-18.416-2.417c-4.412-1.396-8.666-3.354-13.064-4.81
				c0.551-0.312,1.107-0.613,1.664-0.912c1.652-0.884,3.379-1.652,4.949-2.684c3.863-2.535,10.729-4.297,15.332-4.02
				c5.77,0.347,8.115,5.089,9.539,10.077C383.203,85.925,383.33,87.474,383.076,88.782z"/>
		</g>
	</g>
	<g>
		<g>
			<path class="st11" d="M351.479,98.644c-2.137-0.739-4.088-0.127-5.471,1.08c-2.924,0.35-5.791,3.058-4.758,6.771
				c2.803,10.066,4.5,20.406,9.975,29.503c6.342,10.537,18.256,12.013,27.736,4.524C399.264,124.489,364.891,103.288,351.479,98.644
				z M372.404,132.63c-11.652,9.202-16.918-9.988-19.738-22.242C362.957,115.429,380.562,126.188,372.404,132.63z"/>
		</g>
	</g>
	<g>
		<g>
			<path class="st11" d="M289.52,179.999c-0.475-4.43-5.285-5.528-8.158-3.754c-0.709-0.895-1.654-1.754-2.857-2.557
				c-7.131-4.756-18.75-4.541-26.91-4.594c-17.141-0.112-34.287,0-51.43,0c-14.426,0-29.729,2.728-43.389,7.301
				c-4.15,1.39-8.381,3.223-10.779,7.049c-0.303,0.482-0.51,0.963-0.66,1.442c-0.166,0.061-0.33,0.129-0.488,0.205
				c-4.85-2.675-10.477,4.356-5.799,8.425c13.682,11.896,24.051,27.117,38.326,38.395c13.705,10.826,30.836,15.778,47.773,10.173
				c15.355-5.083,29.928-14.543,42.207-24.914C277.865,208.293,291.133,195.104,289.52,179.999z M163.406,185.09
				c7.221-2.14,14.701-3.438,22.141-4.542c7.939-1.177,15.594-1.195,23.639-1.195c15.66,0,31.391-0.43,47.047,0.074
				c4.586,0.148,9.209,0.774,13.666,1.869c0.221,0.055,0.434,0.121,0.648,0.184c-4.424,2.405-10.008,3.535-14.623,4.707
				c-7.135,1.812-14.471,2.801-21.789,3.503c-24.746,2.374-49.615-0.358-74.215-3.536
				C161.105,185.763,162.314,185.413,163.406,185.09z M258.723,211.026c-11.172,9.066-24.105,17.088-37.824,21.629
				c-27.438,9.081-47.135-17.336-64.85-36.661c26.158,3.358,52.512,6.222,78.877,3.954c13.656-1.174,28.963-3.473,41.215-9.953
				c0.715-0.377,1.383-0.791,2.004-1.232C274.803,197.774,265.219,205.755,258.723,211.026z"/>
		</g>
	</g>
</g>
</svg>
