<?xml version="1.0" encoding="utf-8"?>
<!-- Generator: Adobe Illustrator 16.0.3, SVG Export Plug-In . SVG Version: 6.00 Build 0)  -->
<!DOCTYPE svg PUBLIC "-//W3C//DTD SVG 1.1//EN" "http://www.w3.org/Graphics/SVG/1.1/DTD/svg11.dtd">
<svg version="1.1" id="Layer_1" xmlns="http://www.w3.org/2000/svg" xmlns:xlink="http://www.w3.org/1999/xlink" x="0px" y="0px"
	 width="512px" height="512px" viewBox="0 0 512 512" style="enable-background:new 0 0 512 512;" xml:space="preserve">
<style type="text/css">
<![CDATA[
	.st0{fill:#127274;}
	.st1{fill:#14B6B9;}
	.st2{fill:#1E4384;}
	.st3{fill:#EF4754;}
	.st4{fill:#EF4823;}
	.st5{fill:#BCBCBC;}
	.st6{fill:#F6851F;}
	.st7{fill:#C56528;}
	.st8{fill:#FCBF95;}
	.st9{fill:#FEBF10;}
	.st10{fill:none;}
	.st11{fill:#010101;}
	.st12{fill:#3AB37C;}
	.st13{fill:#D6E5E5;}
	.st14{fill:#71C598;}
	.st15{fill:#74CCCF;}
]]>
</style>
<g>
	<g>
		<g>
			<path class="st9" d="M198.246,368.818c-2.436-21.575-6.166-42.962-10.199-64.289c-2.104-11.116-4.344-22.185-6.686-33.251
				c-1.143-5.399-1.904-10.904-2.732-16.384c-1.783-0.644-3.482-1.692-5-3.158c-3.262-3.15-4.449-10.624-9.717-10.124
				c-0.961,0.091-1.793-0.058-2.494-0.372c-0.049,0.06-0.082,0.128-0.133,0.186c-0.795,0.903-2.129,1.698-3.373,1.686
				c-0.527-0.005-1.098-0.027-1.668-0.09c1.555,8.988,2.203,18.204,2.783,27.091c1.467,22.479,5.357,44.227,9.152,66.401
				c4.035,23.57,7.822,48.41,2.951,72.154c-0.045,0.22-0.096,0.441-0.143,0.662c0.961-0.827,2.314-1.172,3.992-0.622
				c9.49,3.113,18.922,5.122,28.428,6.44C202.775,399.688,199.975,384.141,198.246,368.818z"/>
		</g>
	</g>
	<g>
		<g>
			<path class="st9" d="M237.984,313.943c-0.396-18.693-2.242-37.311-4.469-55.865c-8.285-0.327-15.213-3.279-22.725-6.76
				c-3.396-1.574-6.855-3.817-10.764-2.997c-3.734,0.784-5.949,2.499-8.955,4.637c-0.789,0.562-1.607,1.026-2.441,1.413
				c1.029,6.475,2.004,12.966,3.41,19.386c2.322,10.593,4.336,21.24,6.336,31.898c4.002,21.323,7.779,42.723,10.051,64.31
				c1.615,15.367,4.555,30.851,5.023,46.329c8.686,0.8,17.471,1.155,26.457,1.355c0.373,0.008,0.748,0.021,1.121,0.031
				C240.965,383.064,238.719,348.533,237.984,313.943z"/>
		</g>
	</g>
	<g>
		<g>
			<path class="st9" d="M385.215,414.374c-1.004-1.103-1.408-2.361-1.391-3.583c-4.879-0.389-9.682-1.3-14.262-2.765
				c-2.455-0.785-4.707-3.001-3.953-5.862c0.311-1.184,0.57-2.274,1.387-3.237c0.145-0.195,0.254-0.334,0.34-0.436
				c0.644-1.613,1.907-2.555,3.314-2.936c-4.66-10.509-8.737-23.732-3.041-32.596c-2.051-1.392-3.831-3.31-5.199-5.631
				c-6.166-10.458-1.283-20.71-1.379-31.822c-0.137-15.841-1.666-31.795-2.664-47.605c-0.779-12.339-1.42-24.682-1.693-37.039
				c-1.281,0.955-3.01,1.25-4.881,0.243c-2.711-1.461-4.896-3.447-7.219-5.426c-0.637-0.542-1.234-1.09-1.953-1.424
				c0.098,0.097-0.273,0.151-0.807,0.516c-0.055,0.038-0.109,0.066-0.166,0.102c-0.701,1.05-1.771,1.83-3.041,2.115
				c-0.225,0.153-0.434,0.331-0.65,0.495c0.314,0.889,0.393,1.89,0.125,2.997c-0.697,2.872-3.219,4.72-5.701,6.031
				c-2.168,1.145-4.631,2.433-7.184,3.489c6.922,51.59,15.367,103.034,15.781,155.181c0.018,0.178,0.027,0.362,0.027,0.553v1.945
				c2.598-0.497,5.068-1.264,7.217-2.705c5.357-3.597,10.951,4.693,5.592,8.29c-4.146,2.784-9.279,3.518-14.109,4.302
				c-2.205,0.357-9.877,0.599-11.207,2.777c-3.328,5.454-12.324,1.067-8.957-4.449c2.729-4.473,6.916-6.013,11.484-6.817
				c-0.09-52.816-8.609-104.893-15.643-157.114c-1.182-0.29-2.094-0.975-2.717-1.863c-1.342,0.627-2.943,0.679-4.371,0.006
				c-0.445-0.209-0.893-0.409-1.354-0.582c-0.053-0.014-0.209-0.062-0.484-0.149c-0.627-0.178-1.262-0.339-1.879-0.541
				c-1.814-0.592-3.406-1.156-4.859-2.451c-0.113-0.102-0.201-0.222-0.303-0.332c-0.523-0.056-1.064-0.199-1.621-0.446
				c-1.508-0.67-3.209-1.118-4.879-0.976l-0.006,0c0.236,1.087,0.145,2.25-0.41,3.221c-2.893,5.073-8.916,9.773-15.471,12.118
				c1.934,14.076,3.824,28.157,5.273,42.292c3.562,34.739,4.664,70.059,4.705,104.972c0.008,6.418-9.965,7.215-9.973,0.77
				c-0.043-35.543-1.086-71.571-4.91-106.92c-1.432-13.234-3.209-26.427-5.016-39.617c-2.207-0.179-4.324-0.752-6.246-1.801
				c-4.473-2.441-8.312-5.929-12.875-8.21c-2.271-1.135-3.957-1.542-5.328-1.177c0.416,3.293,0.785,6.594,1.17,9.896
				c2.123,18.207,3.984,36.516,4.156,54.861c0.32,34.24,2.992,68.43,3.023,102.699c0,0.104-0.01,0.202-0.016,0.303
				c4.307,0.158,8.613,0.271,12.922,0.143c6.404-0.191,14.482-0.099,19.809-4.206c5.117-3.945,10.678,4.369,5.592,8.29
				c-6.037,4.656-14.678,5.499-22.035,5.798c-8.564,0.348-17.094-0.227-25.652-0.417c-23.559-0.523-45.969-1.708-68.557-9.118
				c-1.83-0.601-2.934-1.923-3.418-3.418c-2.383,9.727-5.162,19.744-3.455,29.643c1.963,11.387,9.492,20.785,19.754,25.93
				c10.797,5.414,22.643,6.92,34.592,6.949c16.115,0.04,32.229,0.388,48.342,0.374c23.234-0.021,47.275,0.448,69.887-5.645
				c15.973-4.303,32.988-10.369,45.609-21.452c4.746-4.168,9.092-9.704,9.76-16.186C394.938,426.986,390.18,419.827,385.215,414.374
				z"/>
		</g>
	</g>
	<g>
		<g>
			<path class="st13" d="M327.172,107.852c-6.209,1.604-9.547-7.827-3.307-9.439c3.916-1.011,6.293-3.705,6.92-7.75
				c0.383-2.473,0.602-6.207-1.475-8.098c-4.137-3.769-10.631-3.054-15.637-1.711c-3.156,0.846-6.285-0.952-6.641-4.335
				c-0.682-6.519,0.154-15.749-4.17-21.198c-6.111-7.702-17.312-3.482-24.826-0.855c-4.334,1.515-8.75,2.796-13.139,4.139
				c-2.139,0.654-4.537,1.455-6.781,0.845c-2.533-0.689-3.787-2.426-5.131-4.518c-1.898-2.957-4.479-5.335-7.08-7.672
				c-5.922-5.317-12.584-10.291-20.49-12.115c-8.188-1.89-17.027-1.708-25.17,0.38c-13.258,3.4-29.504,10.625-28.732,26.726
				c0.182,3.805-3.713,6.554-7.211,4.864c-19.043-9.202-43.602-0.151-58.703,12.74c-6.9,5.891-13.438,14.035-14.26,23.405
				c-0.885,10.083,6.326,17.721,13.992,23.116c2.562,1.803,2.092,6.387-0.506,7.901c-7.838,4.571-15.719,11.747-14.611,21.721
				c1.066,9.601,7.896,17.061,15.117,22.875c1.742,1.403,2.131,4.032,1.178,5.981c-4.703,9.632-9.689,25.849,2.244,32.294
				c1.703,0.919,2.488,2.375,2.605,3.878c22.299-2.009,23.752-29.999,15.949-47.243c-1.029-2.277,0.562-5.815,3.066-6.373
				c12.283-2.732,37.166-22.577,23.91-35.201c-0.537-0.42-1.062-0.855-1.559-1.32c-4.742-4.451,1.484-11.368,6.602-7.513
				c0.389,0.292,0.76,0.588,1.119,0.887c3.914,2.727,12.443,5.66,15.213,1.712c-0.205-0.575-0.283-1.175-0.285-1.773
				c-2.25-0.621-4.014-2.59-3.256-5.524c1.764-6.832,7.465-12.802,14.445-14.343c3.412-2.604,7.861-3.062,11.842,0.289
				c1.996,1.681,3.539,3.758,4.59,6.053c1.514,2.692,2.084,6.06,1.438,9.91c-1.07,6.39-10.707,4.438-9.816-1.908
				c0.168-1.195-0.051-2.423-0.525-3.545c-0.637-0.848-1.695-1.191-2.934-1.154c-1.234,1.262-2.891,1.63-4.436,1.362
				c-1.258,0.691-2.432,1.598-3.318,2.624c1.713,0.407,3.08,1.702,3.105,3.979c11.146,5.103,24.791,4.856,36.686,4.791
				c17.408-0.095,34.701,1.681,52.125,0.515c12-0.803,24.369-1.738,35.857-5.552c8.523-2.829,17.25-7.229,20.434-15.718
				C330.254,106.796,328.773,107.438,327.172,107.852z M188.408,91.753c-0.717,4.52-3.42,8.631-7.734,10.393
				c-5.619,2.294-11.609-0.745-16.098-4.016c-1.836-1.337-2.074-4.013-1.139-5.972c-0.896-1.766-0.549-3.887,0.684-5.584
				c2.16-2.979,4.715-6.004,7.865-7.979c2.459-1.541,5.002-2.312,7.902-2.037c2.506,0.237,4.521,1.806,6.078,3.656
				C188.533,83.265,189.01,87.961,188.408,91.753z M236.244,85.442c-2.373,16.31-31.732,25.65-34.355,4.817
				c-0.234-1.852,0.434-3.227,1.518-4.096c0.652-8.429,7.66-15.551,16.109-16.816C228.77,67.961,237.646,75.806,236.244,85.442z
				 M267.463,122.395c-7.297,2.631-14.949-0.287-18.268-7.134c-1.371-0.63-2.359-1.943-2.309-4.003
				c0.176-7.13,3.508-15.457,11.314-17.186c6.975-1.545,13.977,1.208,16.873,8.063C278.287,109.741,275.723,119.417,267.463,122.395
				z M302.066,88.521c-0.762,2.803-2.473,4.844-5.17,5.971c-2.287,0.956-5.064,0.818-7.441,0.354
				c-3.396-0.663-6.693-2.016-9.809-3.493c-2.463-1.167-3.449-4.296-2.254-6.704c0.002-0.006,0.008-0.011,0.01-0.017
				c-0.529-0.972-0.74-2.101-0.439-3.212c0.936-3.46,2.336-6.438,5.076-8.799c1.99-1.714,4.586-2.121,7.109-1.92
				c2.186,0.174,4.162,1.329,5.904,2.564c2.984,2.116,5.486,5.648,6.572,9.137C302.215,84.295,302.6,86.562,302.066,88.521z"/>
		</g>
	</g>
	<g>
		<g>
			<path class="st13" d="M259.355,196.12c-1.111,0.119-2.215,0.221-3.303,0.31c-10.57,0.862-21.164,0.549-31.752,0.291
				c-13.43-0.329-26.938,1.385-40.422,1.394c-7.523,0.005-14.895-0.528-22.318-1.77c-6.656-1.113-13.299-2.408-20.051-2.673
				c-0.023,4.435-0.555,8.832-1.643,12.968c0.838,0.299,1.635,0.841,2.307,1.692c5.838,7.398,9.504,15.844,11.9,24.743
				c0.023-0.012,0.043-0.027,0.066-0.04c0.578-0.295,1.186-0.643,1.814-0.851c0.859-0.284,1.781-0.527,2.688-0.544
				c0.936-0.018,1.812,0.149,2.613,0.537c0.541-0.277,1.166-0.469,1.887-0.537c5.146-0.489,8.887,1.295,11.811,4.564
				c-1.029-4.259-2.107-8.506-3.166-12.757c-0.959-3.846-2.426-7.965-2.746-11.935c-0.52-6.44,9.455-7.188,9.973-0.77
				c0.262,3.235,2.062,8.8,3.064,12.811c1.496,5.984,3.055,11.964,4.295,18.009c0.16,0.781,0.305,1.566,0.455,2.35
				c1.139-0.921,2.234-1.951,3.236-2.563c14.773-9.02,26.74,4.753,40.926,6.59c0.299-0.524,0.615-1.04,0.955-1.542
				c-0.828-5.354-1.83-10.658-3.162-15.997c-1.928-7.723-3.453-15.235-2.668-23.226c0.633-6.418,10.443-4.452,9.816,1.908
				c-0.615,6.25,0.836,12.362,2.385,18.406c0.412-1.841,1.818-3.347,4.322-3.347c6.416,0,7.215,9.973,0.77,9.973
				c-1.676,0-2.963-0.683-3.844-1.687c0.102,0.421,0.203,0.841,0.299,1.262c0.482,2.095,0.9,4.199,1.273,6.309
				c0.311-0.039,0.627-0.064,0.949-0.075c5.066-0.172,9.672,1.902,13.84,4.626c2.475,1.617,6.545,5.385,9.758,6.499
				C263.189,232.78,260.807,214.503,259.355,196.12z"/>
		</g>
	</g>
	<g>
		<g>
			<path class="st13" d="M213.361,87.99c0.109,1.356-0.252,2.457-0.887,3.295c2.699,4.103,12.758-2.282,13.686-6.322
				C228.266,75.801,212.652,79.148,213.361,87.99z"/>
		</g>
	</g>
	<g>
		<g>
			<path class="st13" d="M178.525,87.493c-0.004-0.016-0.008-0.032-0.012-0.048c-0.086-0.299-0.195-0.591-0.311-0.881
				c-0.01,0.004-0.021,0.007-0.031,0.011c-0.09,0.034-0.174,0.075-0.26,0.112c-0.4,0.237-0.791,0.49-1.162,0.769
				c-0.219,0.164-0.434,0.334-0.645,0.508c-0.457,0.428-0.9,0.867-1.324,1.326c-0.693,0.751-1.342,1.541-1.973,2.345
				c0.109,0.062,0.217,0.132,0.328,0.191c0.561,0.296,1.139,0.552,1.729,0.786c0.5,0.14,1.008,0.243,1.523,0.309
				c0.162-0.006,0.324-0.013,0.484-0.032c0.082-0.026,0.158-0.061,0.238-0.089c0.129-0.081,0.256-0.167,0.377-0.257
				c0.051-0.054,0.104-0.107,0.152-0.163c0.047-0.055,0.09-0.114,0.135-0.17c0.186-0.324,0.35-0.657,0.494-1
				c0.178-0.64,0.303-1.291,0.375-1.951C178.643,88.667,178.615,88.076,178.525,87.493z"/>
		</g>
	</g>
	<g>
		<g>
			<path class="st13" d="M291.738,84.536c-0.256-0.457-0.525-0.906-0.826-1.333c-0.18-0.253-0.363-0.503-0.557-0.746
				c-0.01-0.011-0.02-0.022-0.027-0.033c-0.35-0.369-0.715-0.726-1.105-1.051c-0.148-0.124-0.307-0.24-0.461-0.357
				c-0.236-0.134-0.477-0.256-0.725-0.368c-0.068,0.078-0.148,0.146-0.213,0.228c-0.008,0.009-0.014,0.019-0.02,0.027
				c-0.34,0.595-0.611,1.221-0.855,1.86c-0.055,0.189-0.119,0.376-0.17,0.566c-0.021,0.079-0.059,0.151-0.082,0.229
				c0.744,0.311,1.5,0.59,2.262,0.858c0.992,0.305,2,0.564,3.023,0.719C291.906,84.933,291.824,84.733,291.738,84.536z"/>
		</g>
	</g>
	<g>
		<g>
			<path class="st13" d="M439.027,313.139c-0.004-15.767,0.008-31.552-0.766-47.304c-0.67-13.666-1.773-27.359-4.373-40.81
				c-2.197-11.368-5.33-23.354-11.762-33.137c-6.973-10.605-16.906-16.57-29.604-17.85c-12.223-1.232-24.512,0.966-36.381,3.83
				c-0.822,0.529-1.619,1.004-2.328,1.406c-5.465,3.097-10.977-4.775-5.91-8.088c0.48-1.046,1.432-1.897,2.961-2.276
				c0.203-0.05,0.41-0.1,0.613-0.15c0.711-0.564,1.4-1.152,2.072-1.777c0.107-14.097,0.572-28.047-0.037-42.156
				c-0.223-5.177-1.072-10.82-3.801-15.338c-1.363-2.258-2.895-4.393-5.002-6.009c0.369,0.332-0.266,0.095-0.834-0.083
				c-0.438,0.206-0.912,0.336-1.416,0.373c-0.01,0.106-0.018,0.209-0.035,0.318c-4.307,27.363-40.412,31.232-62.453,32.862
				c-19.201,1.419-38.244-0.219-57.438-0.238c-12.678-0.013-27.082,0.044-39.074-5.14c-3.441,4.602-9.338,6.442-15.434,5.956
				c1.613,15.005-14.76,31.938-29.398,37.771c0.9,2.7,1.588,5.52,2.072,8.393c13.68,0.465,26.938,4.46,40.666,4.451
				c7.793-0.005,15.6-0.003,23.385-0.444c5.613-0.318,11.168-1.126,16.789-0.998c9.977,0.228,19.982,0.654,29.953,0.029
				c7.234-0.453,18.086-0.568,23.771-5.901c4.654-4.368,12.225,2.181,7.512,6.602c-3.783,3.55-8.516,5.653-13.523,6.966
				c1.43,18.492,3.838,36.87,6.355,55.235c2.645-1.062,5.096-2.605,6.795-4.625c-0.896-3.78,0.539-7.608,4.803-9.286
				c4.848-1.909,10.379-1.144,15.037,0.926c0.645,0.286,1.158,0.651,1.566,1.065c0.908,0.138,1.787,0.512,2.51,1.158
				c0.018,0.015,0.023,0.02,0.039,0.033c0.1,0.049,0.201,0.094,0.303,0.138c0.295,0.085,1.082,0.341,1.211,0.378
				c1.658,0.472,3.311,0.992,4.871,1.729c0.516,0.244,0.959,0.58,1.336,0.974c-2-15.359-3.812-30.736-5.195-46.152
				c-0.656,0.405-1.48,0.646-2.48,0.646c-6.416,0-7.213-9.973-0.77-9.973c1.758,0,3.09,0.75,3.971,1.835
				c2.504-2.86,8.484-2.162,8.9,2.767c0.377,4.448,0.793,8.893,1.238,13.335c1.838,1.828,2.145,4.975,0.719,6.895
				c1.01,9.377,2.148,18.742,3.357,28.1c0.066-0.028,0.133-0.051,0.199-0.08c1.182-0.507,1.916-0.798,2.689-1.202
				c-0.002-0.123,0.004-0.246,0.008-0.369c-0.441-1.593-0.166-3.388,1.047-4.599c2.029-2.029,4.4-4.625,7.232-5.7
				c0.318-0.413,0.723-0.799,1.227-1.144c3.633-2.488,7.83-2.989,11.709-0.71c3.037,1.784,5.219,4.708,8.311,6.376
				c0.109,0.059,0.209,0.124,0.311,0.187c-0.008-0.941-0.02-1.882-0.021-2.823c-0.008-3.807,3.496-5.635,6.354-5.149
				c0.027-1.378,0.568-2.774,1.836-3.88c21.375-18.638,38.061,19.874,42.646,35.363c6.973,23.556,9.578,48.477,0.564,71.77
				c-2.875,7.433-6.604,14.56-11.041,21.178c-3.701,5.519-8.379,11.875-14.588,14.935c-0.504,1.215-1.451,2.287-2.939,2.951
				c-10.206,4.552,1.762,25.762,4.871,31.988c0.371,0.741,0.549,1.441,0.582,2.094c5.545,0.407,11.146,0.053,16.629-1.066
				c10.312-2.104,20.918-6.919,27.805-15.114c7.789-9.267,9.584-21.9,10.061-33.653
				C439.824,338.327,439.029,325.739,439.027,313.139z M297.627,228.168c-0.801,0.91-2.123,1.686-3.371,1.686h-1.5
				c-1.385,0-2.619-0.291-3.686-1.23c-0.973-0.855-1.586-2.078-1.686-3.371c-0.104-1.334,0.346-2.682,1.23-3.686
				c0.801-0.91,2.121-1.686,3.371-1.686h1.5c1.383,0,2.619,0.291,3.686,1.23c0.973,0.855,1.586,2.078,1.686,3.371
				C298.959,225.817,298.512,227.165,297.627,228.168z M294.254,179.395c-6.938,0.316-13.082-3.314-15.604-9.871
				c-0.023-0.064-0.039-0.125-0.061-0.188c-2.543-0.944-4.387-3.632-2.697-6.689c3.572-6.462,10.695-9.965,18.02-9.224
				c6.361,0.645,12.75,5.602,12.443,12.563C306.053,172.911,301.707,179.057,294.254,179.395z M328.855,170.486
				c0,1.384-0.291,2.619-1.23,3.686c-0.855,0.973-2.078,1.587-3.371,1.686c-1.334,0.103-2.682-0.346-3.686-1.229
				c-0.91-0.802-1.686-2.123-1.686-3.372v-1.5c0-1.384,0.291-2.619,1.23-3.686c0.855-0.973,2.078-1.587,3.371-1.686
				c1.334-0.103,2.682,0.346,3.686,1.229c0.91,0.802,1.686,2.123,1.686,3.372V170.486z"/>
		</g>
	</g>
	<g>
		<g>
			<path class="st13" d="M265.205,104.883c-1.215-1.531-3.029-1.779-4.834-1.006c-1.926,0.824-2.986,2.916-3.355,5.106
				c0.436,0.46,0.807,1.032,1.076,1.736c1.064,2.78,4.482,3.581,6.871,1.755C267.195,110.769,266.824,106.922,265.205,104.883z"/>
		</g>
	</g>
	<g>
		<g>
			<path class="st13" d="M296.305,165.555c-1.258-3.513-5.959-2.715-9.031-0.782c0.324,0.404,0.602,0.884,0.816,1.444
				C289.59,170.116,298.129,170.651,296.305,165.555z"/>
		</g>
	</g>
	<g>
		<g>
			<path class="st11" d="M449.355,331.387c-0.652-29.447,0.266-58.985-2.744-88.332c-2.318-22.618-6.865-47.735-22.715-65.055
				c-15.219-16.629-39.24-15.929-60.338-11.906c-0.016-0.423-0.029-0.839-0.023-1.231c0.037-3.161,0.152-6.322,0.258-9.482
				c0.371-10.922,0.113-21.642-0.359-32.544c-0.342-7.915-2.939-15.992-7.721-22.329c-3.012-3.992-9.492-9.125-15.146-7.535
				c0.992-4.472,0.617-9.259-1.416-13.398c-4.252-8.662-13.83-10.411-22.648-9.352c-0.561-6.449-1.234-12.809-4.23-18.734
				c-4.389-8.677-15.602-11.477-24.471-10.186c-9.133,1.33-17.627,6.271-26.523,8.085c-0.854-1.33-1.789-2.567-2.84-3.761
				c-3.348-3.799-7.225-7.202-11.199-10.326C231.631,23.035,212.225,21.644,193.572,27c-14.705,4.223-28.594,13.596-31.504,28.546
				c-22.23-6.771-47.766,3.409-64.545,18.183c-8.6,7.571-15.502,18.107-16.15,29.784c-0.584,10.504,4.754,19.491,12.227,26.271
				c-7.797,6.074-13.105,14.256-13.447,24.734c-0.377,11.574,7.375,22.012,15.775,29.494c-5.971,14.34-7.58,32.536,7.281,41.456
				c-0.016,2.639,1.805,5.528,5.207,5.646c13.244,0.461,22.197-5.588,27.418-14.532c13.404,19.36,12.404,45.289,14.152,67.851
				c2.033,26.282,8.924,51.973,11.947,78.148c1.574,13.628,2.184,27.491-0.041,41.077c-2.209,13.482-7.113,26.304-5.883,40.182
				c2.33,26.304,27.047,40.217,50.795,43.072c14.271,1.715,29.053,0.786,43.404,0.94c16.195,0.174,32.393,0.235,48.582-0.395
				c19.375-0.753,37.645-3.211,56.002-9.564c15.311-5.3,31.928-12.944,42.273-25.896c10.494-13.137,8.012-28.766-1.871-41.24
				c12.783-1.092,25.348-5.682,35.178-13.48C450.207,381.542,449.867,354.478,449.355,331.387z M127.309,173.782
				c7.803,17.245,6.35,45.234-15.949,47.243c-0.117-1.502-0.902-2.958-2.605-3.878c-11.934-6.446-6.947-22.662-2.244-32.294
				c0.953-1.949,0.564-4.578-1.178-5.981c-7.221-5.814-14.051-13.275-15.117-22.875c-1.107-9.974,6.773-17.15,14.611-21.721
				c2.598-1.514,3.068-6.099,0.506-7.901c-7.666-5.395-14.877-13.033-13.992-23.116c0.822-9.371,7.359-17.514,14.26-23.405
				c15.102-12.891,39.66-21.941,58.703-12.74c3.498,1.69,7.393-1.059,7.211-4.864c-0.771-16.101,15.475-23.325,28.732-26.726
				c8.143-2.088,16.982-2.27,25.17-0.38c7.906,1.824,14.568,6.798,20.49,12.115c2.602,2.337,5.182,4.715,7.08,7.672
				c1.344,2.092,2.598,3.829,5.131,4.518c2.244,0.61,4.643-0.19,6.781-0.845c4.389-1.343,8.805-2.624,13.139-4.139
				c7.514-2.627,18.715-6.847,24.826,0.855c4.324,5.45,3.488,14.679,4.17,21.198c0.355,3.383,3.484,5.181,6.641,4.335
				c5.006-1.343,11.5-2.058,15.637,1.711c2.076,1.891,1.857,5.625,1.475,8.098c-0.627,4.045-3.004,6.739-6.92,7.75
				c-6.24,1.612-2.902,11.043,3.307,9.439c1.602-0.414,3.082-1.056,4.439-1.873c-3.184,8.489-11.91,12.889-20.434,15.718
				c-11.488,3.813-23.857,4.749-35.857,5.552c-17.424,1.166-34.717-0.61-52.125-0.515c-11.895,0.065-25.539,0.312-36.686-4.791
				c-0.025-2.278-1.393-3.572-3.105-3.979c0.887-1.025,2.061-1.933,3.318-2.624c1.545,0.268,3.201-0.101,4.436-1.362
				c1.238-0.037,2.297,0.307,2.934,1.154c0.475,1.122,0.693,2.35,0.525,3.545c-0.891,6.346,8.746,8.298,9.816,1.908
				c0.646-3.85,0.076-7.218-1.438-9.91c-1.051-2.295-2.594-4.373-4.59-6.053c-3.98-3.351-8.43-2.893-11.842-0.289
				c-6.98,1.542-12.682,7.511-14.445,14.343c-0.758,2.934,1.006,4.903,3.256,5.524c0.002,0.598,0.08,1.198,0.285,1.773
				c-2.77,3.948-11.299,1.014-15.213-1.712c-0.359-0.299-0.73-0.595-1.119-0.887c-5.117-3.855-11.344,3.062-6.602,7.513
				c0.496,0.465,1.021,0.9,1.559,1.32c13.256,12.624-11.627,32.469-23.91,35.201C127.871,167.967,126.279,171.505,127.309,173.782z
				 M154.141,233.034c-0.023,0.012-0.043,0.027-0.066,0.04c-2.396-8.898-6.062-17.344-11.9-24.743
				c-0.672-0.851-1.469-1.393-2.307-1.692c1.088-4.137,1.619-8.534,1.643-12.968c6.752,0.265,13.395,1.56,20.051,2.673
				c7.424,1.242,14.795,1.775,22.318,1.77c13.484-0.009,26.992-1.722,40.422-1.394c10.588,0.259,21.182,0.572,31.752-0.291
				c1.088-0.089,2.191-0.191,3.303-0.31c1.451,18.383,3.834,36.66,6.328,54.926c-3.213-1.113-7.283-4.881-9.758-6.499
				c-4.168-2.724-8.773-4.798-13.84-4.626c-0.322,0.011-0.639,0.037-0.949,0.075c-0.373-2.11-0.791-4.214-1.273-6.309
				c-0.096-0.42-0.197-0.841-0.299-1.262c0.881,1.004,2.168,1.687,3.844,1.687c6.445,0,5.646-9.973-0.77-9.973
				c-2.504,0-3.91,1.506-4.322,3.347c-1.549-6.043-3-12.155-2.385-18.406c0.627-6.36-9.184-8.327-9.816-1.908
				c-0.785,7.991,0.74,15.503,2.668,23.226c1.332,5.339,2.334,10.643,3.162,15.997c-0.34,0.502-0.656,1.019-0.955,1.542
				c-14.186-1.837-26.152-15.61-40.926-6.59c-1.002,0.612-2.098,1.642-3.236,2.563c-0.15-0.783-0.295-1.568-0.455-2.35
				c-1.24-6.044-2.799-12.024-4.295-18.009c-1.002-4.011-2.803-9.576-3.064-12.811c-0.518-6.418-10.492-5.67-9.973,0.77
				c0.32,3.969,1.787,8.089,2.746,11.935c1.059,4.251,2.137,8.499,3.166,12.757c-2.924-3.269-6.664-5.053-11.811-4.564
				c-0.721,0.068-1.346,0.26-1.887,0.537c-0.801-0.388-1.678-0.555-2.613-0.537c-0.906,0.017-1.828,0.26-2.688,0.544
				C155.326,232.391,154.719,232.739,154.141,233.034z M241.029,417.68c-0.373-0.01-0.748-0.023-1.121-0.031
				c-8.986-0.2-17.771-0.555-26.457-1.355c-0.469-15.478-3.408-30.961-5.023-46.329c-2.271-21.587-6.049-42.987-10.051-64.31
				c-2-10.658-4.014-21.306-6.336-31.898c-1.406-6.42-2.381-12.911-3.41-19.386c0.834-0.387,1.652-0.851,2.441-1.413
				c3.006-2.139,5.221-3.853,8.955-4.637c3.908-0.82,7.367,1.423,10.764,2.997c7.512,3.481,14.439,6.434,22.725,6.76
				c2.227,18.554,4.072,37.171,4.469,55.865C238.719,348.533,240.965,383.064,241.029,417.68z M159.027,270.112
				c-0.58-8.887-1.229-18.103-2.783-27.091c0.57,0.063,1.141,0.085,1.668,0.09c1.244,0.013,2.578-0.783,3.373-1.686
				c0.051-0.058,0.084-0.126,0.133-0.186c0.701,0.314,1.533,0.463,2.494,0.372c5.268-0.5,6.455,6.973,9.717,10.124
				c1.518,1.466,3.217,2.514,5,3.158c0.828,5.48,1.59,10.984,2.732,16.384c2.342,11.066,4.582,22.135,6.686,33.251
				c4.033,21.327,7.764,42.714,10.199,64.289c1.729,15.323,4.529,30.87,5.162,46.331c-9.506-1.318-18.938-3.327-28.428-6.44
				c-1.678-0.551-3.031-0.206-3.992,0.622c0.047-0.221,0.098-0.442,0.143-0.662c4.871-23.745,1.084-48.584-2.951-72.154
				C164.385,314.339,160.494,292.591,159.027,270.112z M394.143,434.72c-0.668,6.482-5.014,12.018-9.76,16.186
				c-12.621,11.083-29.637,17.149-45.609,21.452c-22.611,6.092-46.652,5.624-69.887,5.645c-16.113,0.014-32.227-0.334-48.342-0.374
				c-11.949-0.029-23.795-1.535-34.592-6.949c-10.262-5.146-17.791-14.543-19.754-25.93c-1.707-9.899,1.072-19.916,3.455-29.643
				c0.484,1.495,1.588,2.818,3.418,3.418c22.588,7.41,44.998,8.595,68.557,9.118c8.559,0.19,17.088,0.765,25.652,0.417
				c7.357-0.299,15.998-1.142,22.035-5.798c5.086-3.921-0.475-12.235-5.592-8.29c-5.326,4.107-13.404,4.015-19.809,4.206
				c-4.309,0.129-8.615,0.016-12.922-0.143c0.006-0.101,0.016-0.199,0.016-0.303c-0.031-34.269-2.703-68.459-3.023-102.699
				c-0.172-18.345-2.033-36.654-4.156-54.861c-0.385-3.301-0.754-6.603-1.17-9.896c1.371-0.365,3.057,0.042,5.328,1.177
				c4.562,2.281,8.402,5.769,12.875,8.21c1.922,1.049,4.039,1.622,6.246,1.801c1.807,13.189,3.584,26.383,5.016,39.617
				c3.824,35.349,4.867,71.377,4.91,106.92c0.008,6.445,9.98,5.648,9.973-0.77c-0.041-34.913-1.143-70.233-4.705-104.972
				c-1.449-14.135-3.34-28.217-5.273-42.292c6.555-2.344,12.578-7.044,15.471-12.118c0.555-0.971,0.646-2.134,0.41-3.221l0.006,0
				c1.67-0.142,3.371,0.306,4.879,0.976c0.557,0.247,1.098,0.39,1.621,0.446c0.102,0.11,0.189,0.23,0.303,0.332
				c1.453,1.295,3.045,1.859,4.859,2.451c0.617,0.202,1.252,0.363,1.879,0.541c0.275,0.087,0.432,0.135,0.484,0.149
				c0.461,0.172,0.908,0.372,1.354,0.582c1.428,0.673,3.029,0.622,4.371-0.006c0.623,0.888,1.535,1.573,2.717,1.863
				c7.033,52.221,15.553,104.298,15.643,157.114c-4.568,0.804-8.756,2.344-11.484,6.817c-3.367,5.516,5.629,9.903,8.957,4.449
				c1.33-2.179,9.002-2.42,11.207-2.777c4.83-0.784,9.963-1.518,14.109-4.302c5.359-3.597-0.234-11.887-5.592-8.29
				c-2.148,1.441-4.619,2.208-7.217,2.705v-1.945c0-0.191-0.01-0.375-0.027-0.553c-0.414-52.147-8.859-103.591-15.781-155.181
				c2.553-1.056,5.016-2.344,7.184-3.489c2.482-1.311,5.004-3.16,5.701-6.031c0.268-1.106,0.189-2.107-0.125-2.997
				c0.217-0.164,0.426-0.341,0.65-0.495c1.27-0.285,2.34-1.065,3.041-2.115c0.057-0.035,0.111-0.064,0.166-0.102
				c0.533-0.365,0.904-0.419,0.807-0.516c0.719,0.334,1.316,0.881,1.953,1.424c2.322,1.979,4.508,3.965,7.219,5.426
				c1.871,1.008,3.6,0.712,4.881-0.243c0.273,12.357,0.914,24.7,1.693,37.039c0.998,15.81,2.527,31.764,2.664,47.605
				c0.096,11.111-4.787,21.364,1.379,31.822c1.368,2.321,3.148,4.239,5.199,5.631c-5.696,8.864-1.619,22.087,3.041,32.596
				c-1.407,0.381-2.671,1.323-3.314,2.936c-0.086,0.102-0.195,0.241-0.34,0.436c-0.816,0.963-1.076,2.053-1.387,3.237
				c-0.754,2.861,1.498,5.077,3.953,5.862c4.58,1.464,9.383,2.376,14.262,2.765c-0.018,1.222,0.387,2.48,1.391,3.583
				C390.18,419.827,394.938,426.986,394.143,434.72z M370.254,309.737c-0.633-8.274-0.857-16.559-1.406-24.837
				c-1.221-18.352-2.262-36.711-2.336-55.107c1.18,0.334,2.514,0.102,3.801-1.021c6.137-5.35,10.867-1.86,15.225,3.886
				c5.082,6.701,8.402,14.737,11.143,22.627c7.578,21.82,10.459,46.779,2.018,68.594c-2.854,7.374-6.637,14.601-11.205,21.053
				c-2.141,3.021-8.605,12.11-12.91,10.603c-9.363-3.281-4.68-19.333-3.873-26.087C371.486,322.934,370.752,316.245,370.254,309.737
				z M439.311,350.927c-0.477,11.752-2.271,24.386-10.061,33.653c-6.887,8.195-17.492,13.01-27.805,15.114
				c-5.482,1.119-11.084,1.473-16.629,1.066c-0.033-0.653-0.211-1.354-0.582-2.094c-3.109-6.226-15.077-27.436-4.871-31.988
				c1.488-0.664,2.436-1.736,2.939-2.951c6.209-3.061,10.887-9.416,14.588-14.935c4.438-6.618,8.166-13.745,11.041-21.178
				c9.014-23.292,6.408-48.213-0.564-71.77c-4.586-15.489-21.271-54.001-42.646-35.363c-1.268,1.106-1.809,2.502-1.836,3.88
				c-2.857-0.486-6.361,1.342-6.354,5.149c0.002,0.941,0.014,1.882,0.021,2.823c-0.102-0.063-0.201-0.128-0.311-0.187
				c-3.092-1.667-5.273-4.592-8.311-6.376c-3.879-2.279-8.076-1.778-11.709,0.71c-0.504,0.344-0.908,0.73-1.227,1.144
				c-2.832,1.075-5.203,3.671-7.232,5.7c-1.213,1.21-1.488,3.006-1.047,4.599c-0.004,0.123-0.01,0.246-0.008,0.369
				c-0.773,0.404-1.508,0.695-2.689,1.202c-0.066,0.028-0.133,0.052-0.199,0.08c-1.209-9.358-2.348-18.723-3.357-28.1
				c1.426-1.92,1.119-5.067-0.719-6.895c-0.445-4.442-0.861-8.887-1.238-13.335c-0.416-4.929-6.396-5.626-8.9-2.767
				c-0.881-1.085-2.213-1.835-3.971-1.835c-6.443,0-5.646,9.973,0.77,9.973c1,0,1.824-0.241,2.48-0.646
				c1.383,15.416,3.195,30.793,5.195,46.152c-0.377-0.395-0.82-0.73-1.336-0.974c-1.561-0.737-3.213-1.256-4.871-1.729
				c-0.129-0.037-0.916-0.293-1.211-0.378c-0.102-0.044-0.203-0.089-0.303-0.138c-0.016-0.013-0.021-0.018-0.039-0.033
				c-0.723-0.646-1.602-1.02-2.51-1.158c-0.408-0.414-0.922-0.779-1.566-1.065c-4.658-2.07-10.189-2.835-15.037-0.926
				c-4.264,1.678-5.699,5.506-4.803,9.286c-1.699,2.019-4.15,3.562-6.795,4.625c-2.518-18.366-4.926-36.743-6.355-55.235
				c5.008-1.312,9.74-3.416,13.523-6.966c4.713-4.421-2.857-10.969-7.512-6.602c-5.686,5.333-16.537,5.448-23.771,5.901
				c-9.971,0.625-19.977,0.198-29.953-0.029c-5.621-0.128-11.176,0.68-16.789,0.998c-7.785,0.44-15.592,0.439-23.385,0.444
				c-13.729,0.009-26.986-3.986-40.666-4.451c-0.484-2.874-1.172-5.693-2.072-8.393c14.639-5.833,31.012-22.766,29.398-37.771
				c6.096,0.487,11.992-1.354,15.434-5.956c11.992,5.184,26.396,5.127,39.074,5.14c19.193,0.019,38.236,1.657,57.438,0.238
				c22.041-1.63,58.146-5.5,62.453-32.862c0.018-0.108,0.025-0.212,0.035-0.318c0.504-0.037,0.979-0.167,1.416-0.373
				c0.568,0.179,1.203,0.415,0.834,0.083c2.107,1.617,3.639,3.751,5.002,6.009c2.729,4.518,3.578,10.161,3.801,15.338
				c0.609,14.109,0.145,28.059,0.037,42.156c-0.672,0.625-1.361,1.213-2.072,1.777c-0.203,0.05-0.41,0.1-0.613,0.15
				c-1.529,0.379-2.48,1.23-2.961,2.276c-5.066,3.313,0.445,11.185,5.91,8.088c0.709-0.402,1.506-0.877,2.328-1.406
				c11.869-2.864,24.158-5.062,36.381-3.83c12.697,1.28,22.631,7.244,29.604,17.85c6.432,9.783,9.564,21.769,11.762,33.137
				c2.6,13.451,3.703,27.144,4.373,40.81c0.773,15.752,0.762,31.537,0.766,47.304C439.029,325.739,439.824,338.327,439.311,350.927z
				"/>
		</g>
	</g>
	<g>
		<g>
			<path class="st11" d="M219.516,69.347c-8.449,1.266-15.457,8.387-16.109,16.816c-1.084,0.869-1.752,2.244-1.518,4.096
				c2.623,20.833,31.982,11.493,34.355-4.817C237.646,75.806,228.77,67.961,219.516,69.347z M226.16,84.962
				c-0.928,4.041-10.986,10.425-13.686,6.322c0.635-0.838,0.996-1.938,0.887-3.295C212.652,79.148,228.266,75.801,226.16,84.962z"/>
		</g>
	</g>
	<g>
		<g>
			<path class="st11" d="M185.967,80.214c-1.557-1.851-3.572-3.419-6.078-3.656c-2.9-0.275-5.443,0.496-7.902,2.037
				c-3.15,1.975-5.705,5-7.865,7.979c-1.232,1.698-1.58,3.818-0.684,5.584c-0.936,1.959-0.697,4.635,1.139,5.972
				c4.488,3.271,10.479,6.31,16.098,4.016c4.314-1.762,7.018-5.874,7.734-10.393C189.01,87.961,188.533,83.265,185.967,80.214z
				 M178.27,91.208c-0.145,0.342-0.309,0.676-0.494,1c-0.045,0.056-0.088,0.115-0.135,0.17c-0.049,0.056-0.102,0.109-0.152,0.163
				c-0.121,0.09-0.248,0.176-0.377,0.257c-0.08,0.029-0.156,0.063-0.238,0.089c-0.16,0.019-0.322,0.025-0.484,0.032
				c-0.516-0.065-1.023-0.169-1.523-0.309c-0.59-0.234-1.168-0.49-1.729-0.786c-0.111-0.059-0.219-0.129-0.328-0.191
				c0.631-0.804,1.279-1.593,1.973-2.345c0.424-0.459,0.867-0.898,1.324-1.326c0.211-0.174,0.426-0.344,0.645-0.508
				c0.371-0.278,0.762-0.532,1.162-0.769c0.086-0.037,0.17-0.078,0.26-0.112c0.01-0.004,0.021-0.007,0.031-0.011
				c0.115,0.29,0.225,0.582,0.311,0.881c0.004,0.016,0.008,0.032,0.012,0.048c0.09,0.583,0.117,1.174,0.119,1.765
				C178.572,89.918,178.447,90.569,178.27,91.208z"/>
		</g>
	</g>
	<g>
		<g>
			<path class="st11" d="M327.17,165.614c-1.004-0.884-2.352-1.332-3.686-1.229c-1.293,0.099-2.516,0.713-3.371,1.686
				c-0.939,1.066-1.23,2.302-1.23,3.686v1.5c0,1.249,0.775,2.57,1.686,3.372c1.004,0.884,2.352,1.332,3.686,1.229
				c1.293-0.099,2.516-0.713,3.371-1.686c0.939-1.066,1.23-2.302,1.23-3.686v-1.5C328.855,167.737,328.08,166.416,327.17,165.614z"
				/>
		</g>
	</g>
	<g>
		<g>
			<path class="st11" d="M297.172,221.112c-1.066-0.939-2.303-1.23-3.686-1.23h-1.5c-1.25,0-2.57,0.775-3.371,1.686
				c-0.885,1.004-1.334,2.352-1.23,3.686c0.1,1.293,0.713,2.516,1.686,3.371c1.066,0.939,2.301,1.23,3.686,1.23h1.5
				c1.248,0,2.57-0.775,3.371-1.686c0.885-1.004,1.332-2.352,1.23-3.686C298.758,223.19,298.145,221.967,297.172,221.112z"/>
		</g>
	</g>
	<g>
		<g>
			<path class="st11" d="M293.912,153.422c-7.324-0.741-14.447,2.762-18.02,9.224c-1.689,3.058,0.154,5.745,2.697,6.689
				c0.021,0.063,0.037,0.124,0.061,0.188c2.521,6.557,8.666,10.188,15.604,9.871c7.453-0.338,11.799-6.484,12.102-13.409
				C306.662,159.024,300.273,154.067,293.912,153.422z M288.09,166.217c-0.215-0.561-0.492-1.04-0.816-1.444
				c3.072-1.933,7.773-2.73,9.031,0.782C298.129,170.651,289.59,170.116,288.09,166.217z"/>
		</g>
	</g>
	<g>
		<g>
			<path class="st11" d="M275.074,102.135c-2.896-6.854-9.898-9.608-16.873-8.063c-7.807,1.729-11.139,10.056-11.314,17.186
				c-0.051,2.06,0.938,3.373,2.309,4.003c3.318,6.847,10.971,9.765,18.268,7.134C275.723,119.417,278.287,109.741,275.074,102.135z
				 M264.963,112.475c-2.389,1.826-5.807,1.025-6.871-1.755c-0.27-0.704-0.641-1.276-1.076-1.736c0.369-2.19,1.43-4.282,3.355-5.106
				c1.805-0.773,3.619-0.525,4.834,1.006C266.824,106.922,267.195,110.769,264.963,112.475z"/>
		</g>
	</g>
	<g>
		<g>
			<path class="st11" d="M301.625,82.402c-1.086-3.488-3.588-7.021-6.572-9.137c-1.742-1.236-3.719-2.391-5.904-2.564
				c-2.523-0.2-5.119,0.206-7.109,1.92c-2.74,2.362-4.141,5.339-5.076,8.799c-0.301,1.112-0.09,2.24,0.439,3.212
				c-0.002,0.006-0.008,0.011-0.01,0.017c-1.195,2.407-0.209,5.537,2.254,6.704c3.115,1.477,6.412,2.831,9.809,3.493
				c2.377,0.464,5.154,0.602,7.441-0.354c2.697-1.127,4.408-3.168,5.17-5.971C302.6,86.562,302.215,84.295,301.625,82.402z
				 M288.959,84.416c-0.762-0.269-1.518-0.548-2.262-0.858c0.023-0.078,0.061-0.149,0.082-0.229c0.051-0.19,0.115-0.377,0.17-0.566
				c0.244-0.639,0.516-1.265,0.855-1.86c0.006-0.009,0.012-0.019,0.02-0.027c0.064-0.082,0.145-0.149,0.213-0.228
				c0.248,0.111,0.488,0.233,0.725,0.368c0.154,0.117,0.312,0.233,0.461,0.357c0.391,0.325,0.756,0.682,1.105,1.051
				c0.008,0.011,0.018,0.022,0.027,0.033c0.193,0.243,0.377,0.493,0.557,0.746c0.301,0.427,0.57,0.876,0.826,1.333
				c0.086,0.197,0.168,0.397,0.244,0.599C290.959,84.98,289.951,84.721,288.959,84.416z"/>
		</g>
	</g>
</g>
</svg>
