<?xml version="1.0" encoding="utf-8"?>
<!-- Generator: Adobe Illustrator 16.0.3, SVG Export Plug-In . SVG Version: 6.00 Build 0)  -->
<!DOCTYPE svg PUBLIC "-//W3C//DTD SVG 1.1//EN" "http://www.w3.org/Graphics/SVG/1.1/DTD/svg11.dtd">
<svg version="1.1" id="Layer_1" xmlns="http://www.w3.org/2000/svg" xmlns:xlink="http://www.w3.org/1999/xlink" x="0px" y="0px"
	 width="512px" height="512px" viewBox="0 0 512 512" style="enable-background:new 0 0 512 512;" xml:space="preserve">
<style type="text/css">
<![CDATA[
	.st0{fill:#127274;}
	.st1{fill:#14B6B9;}
	.st2{fill:#1E4384;}
	.st3{fill:#EF4754;}
	.st4{fill:#EF4823;}
	.st5{fill:#BCBCBC;}
	.st6{fill:#F6851F;}
	.st7{fill:#C56528;}
	.st8{fill:#FCBF95;}
	.st9{fill:#FEBF10;}
	.st10{fill:none;}
	.st11{fill:#010101;}
	.st12{fill:#3AB37C;}
	.st13{fill:#D6E5E5;}
	.st14{fill:#71C598;}
	.st15{fill:#74CCCF;}
]]>
</style>
<g>
	<g>
		<g>
			<path class="st7" d="M274.982,250.442c-7.434-5.122-16.205-8.019-25.219-6.783c-4.256,0.584-10.125,1.892-14.719,4.525
				c1.324,2.699,0.746,6.355-2.93,7.583c-1.693,0.566-3.295,1.342-4.812,2.284c-0.717,1.005-1.705,1.664-2.793,2.001
				c-9.336,7.59-14.982,21.677-18.086,32.039c-2.832,9.458-5.906,22.167-1.797,31.783c0.396-0.206,0.842-0.376,1.352-0.494
				c9.205-2.134,19.045-5.519,25.881-12.37c5.525-5.538,7.395-12.046,9.346-19.428c1.736-6.563,3.482-13.609,7.85-18.998
				c4.67-5.763,11.139-8.389,18.316-9.495c7.029-1.083,7.803,9.898,0.848,10.97c-14.963,2.306-15.162,18.179-19.238,29.863
				c-5.6,16.046-20.705,24.886-36.432,29.106c13.682,9,34.932,6.146,48.227-1.839c14.297-8.587,25.215-23.238,28.553-39.693
				C292.482,275.95,288.566,259.804,274.982,250.442z"/>
		</g>
	</g>
	<g>
		<g>
			<path class="st13" d="M414.684,234.174c-5.084-4.311-10.746,5.826-12.105,11.14c0.789,0.17,1.58,0.528,2.342,1.13
				c3.156,2.5,8.219,3.446,11.088-0.127C418.578,243.112,417.889,236.89,414.684,234.174z"/>
		</g>
	</g>
	<g>
		<g>
			<path class="st7" d="M306.719,189.899c-6.084-0.389-12.254,0.253-18.354,0.099c-18.25-0.462-35.852-0.437-54.002,1.928
				c-15.736,2.05-31.336,4.896-47.084,6.832c-5.951,0.731-13.811,1.343-20.486,3.664c10.816-0.125,21.629-0.441,32.434-1.032
				c14.641-0.8,29.195-2.455,43.818-3.414c13.717-0.9,27.449-1.553,41.162-2.504c9.734-0.675,19.568-1.426,29.371-2.521
				C312.404,191.011,310.281,190.127,306.719,189.899z"/>
		</g>
	</g>
	<g>
		<g>
			<path class="st5" d="M354.324,160.845c-23.135-5.729-48.094-4.283-71.551-1.818c-15.49,1.628-30.963,2.685-46.533,3.105
				c-15.678,0.424-31.395-0.251-47.055,0.801c-15.117,1.016-30.531,4.861-44.639,10.286c-8.02,3.084-23.98,9.408-27.285,19.407
				c0.014,0.172,0.025,0.347,0.025,0.53c0,2.892,0.006,5.783,0.01,8.675c10.018,0.312,20.039,0.533,30.062,0.619
				c0.68-1.914,1.982-2.996,3.641-3.521c8.76-7.939,23.234-9.642,34.234-10.995c18.072-2.222,35.969-5.642,54.066-7.684
				c10.549-1.19,21.018-2.021,31.641-1.742c9.41,0.247,18.791,0.714,28.205,0.452c6.23-0.173,12.982-0.448,18.609,2.669
				c3.922,2.173,6.111,5.811,7.182,9.87c12.314-1.77,24.504-4.248,36.299-7.994c2.207-0.702,12.34-3.596,14.758-7.188
				c0.014-0.968,0.035-1.936,0.066-2.905C372.377,166.382,361.328,162.579,354.324,160.845z"/>
		</g>
	</g>
	<g>
		<g>
			<path class="st13" d="M436.236,285.973c-1.158-0.323-2.053-0.909-2.717-1.644c-2.553,2.148-5.346,3.885-8.354,4.908
				c-7.395,2.516-16.332,2.902-24.02,1.448c0.76,23.481-2.74,48.656-26.537,59.577c-0.955,0.438-1.844,0.578-2.65,0.499
				c-1.881,1.992-3.896,3.865-6.092,5.596c-16.256,12.826-37.588,17.635-57.775,19.736c-20.404,2.123-40.867,1.482-61.34,1.462
				c-22.959-0.022-45.996,1.116-68.877-1.4c-20.273-2.229-41.221-7.277-57.514-19.965c-2.371,0.382-5.014-0.526-6.25-3.301
				c-4.293-9.638-6.322-20.096-7.252-30.765c-7.211,0.634-13.645,5.868-18.293,11.085c-4.914,5.517-9.658,12.124-9.473,19.854
				c0.385,15.944,14.242,25.291,29.285,25.52c7.043,0.107,7.932,11.078,0.848,10.97c-20.023-0.304-41.496-13.357-41.104-35.643
				c0.191-10.842,4.812-20.084,12.18-27.963c6.785-7.257,15.646-14.181,25.938-14.812c-0.182-6.321-0.119-12.644-0.041-18.846
				c-17.01,1.53-34.148,7.434-49.592,14.272c-15.359,6.8-35.516,16.798-42.512,33.253c-7.832,18.421,12.18,34.345,25.508,43.341
				c20.139,13.595,42.725,24.717,66.312,30.639c61.979,15.559,127.414,10.522,190.148,3.248
				c26.951-3.125,54.057-6.558,80.279-13.744c13.145-3.603,26.131-7.976,38.498-13.739c11.199-5.217,23.789-11.41,32.824-20.011
				C472.09,346.294,474.258,296.569,436.236,285.973z"/>
		</g>
	</g>
	<g>
		<g>
			<path class="st13" d="M439.646,226.846c-4.719-9.529-18.973-13.744-28.736-14.114c-7.574-0.288-20.973,0.789-20.637,10.422
				c0.08,2.283-1.008,3.914-2.525,4.845c-2.719,3.76-9.916,3.243-9.943-2.499c-0.062-12.087-1.152-24.135-1.625-36.195
				c-0.326,0.175-0.654,0.347-0.984,0.511c-9.496,4.741-20.346,7.012-30.658,9.171c-7.211,1.509-14.473,2.737-21.764,3.754
				c-1.256,0.628-2.727,0.816-4.064,0.539c-6.352,0.817-12.723,1.489-19.104,2.038c-15.027,1.292-30.09,2.07-45.145,2.968
				c-15.566,0.928-31.059,2.635-46.619,3.616c-30.15,1.901-60.354,1.81-90.533,0.868c0.039,22.841,0.111,45.685-0.035,68.524
				c-0.127,20.164-1.707,42.546,4.918,62.06c0.25,0.17,0.498,0.359,0.742,0.585c0.945,0.879,1.891,1.758,2.891,2.576
				c17.74,14.537,41.986,18.312,64.211,19.697c21.855,1.362,43.797,0.227,65.676,0.445c21.027,0.21,42.318,0.476,63.115-3.112
				c18.857-3.254,39.51-10.118,50.537-26.921c2.184-3.328,6.332-3.201,8.787-1.382c13.545-11.909,12.756-34.327,11.654-51.245
				c-0.084-1.294,0.215-2.378,0.76-3.245c0.256-1.204,0.914-2.479,2.092-3.809c3.41-3.849,8.699-1.09,9.549,2.747
				c0.559,0.115,1.154,0.229,1.531,0.282c3.043,0.435,6.1,0.547,9.17,0.348c6.947-0.451,11.164-1.899,15.916-6.875
				c6.26-6.554,10.111-14.943,11.695-23.839C441.756,242.651,442.912,233.444,439.646,226.846z M296.436,305.531
				c-6.697,16.326-19.289,30.422-35.4,37.866c-16.393,7.573-38.99,9.077-54.582-1.245c-16.951-11.221-16.576-32.181-11.518-49.809
				c4.062-14.149,11.094-31.919,23.6-41.578c4.809-11.01,17.83-16.356,29.225-17.918c12.973-1.779,25.957,2.413,36.16,10.576
				C302.764,258.498,305.182,284.208,296.436,305.531z M422.795,255c-7.447,6.593-17.646,5.641-25.139-0.292
				c-0.705-0.558-1.201-1.177-1.523-1.825c-2.562,0.004-4.93-1.559-4.828-4.884c0.264-8.693,4.41-18.013,12.109-22.686
				c6.924-4.201,15.824-4.138,20.771,3.132C429.674,236.509,430.613,248.081,422.795,255z"/>
		</g>
	</g>
	<g>
		<g>
			<path d="M470.424,299.967c-6.229-11.91-16.834-19.845-29.352-23.958c1.75-2.438,3.279-4.957,4.547-7.359
				c5.309-10.051,7.25-21.894,6.824-33.157c-0.684-18.027-14.15-28.043-30.611-32.165c-10.52-2.634-24.391-2.844-33.775,3.514
				c-0.586-9.422-1.307-18.847-1.236-28.266c0.754-2.16,0.908-4.546,0.227-7.153c0.043-0.765,0.082-1.529,0.141-2.294
				c0.277-3.692-2.605-6.04-5.465-6.391c-5.156-5.128-12.766-8.652-18.834-10.737c-21.254-7.301-46.086-6.904-68.244-5.166
				c-15.467,1.213-30.811,3.494-46.348,3.75c-15.467,0.255-30.953,0.603-46.43,0.854c-17.766,0.289-34.787,3.039-51.785,8.25
				c-15.082,4.624-32.861,11.521-41.379,25.707c-2.969,4.944-3.449,10.66-2.377,16.173c0,0.438,0,0.875,0.002,1.312
				c-1.789,1.827-1.715,5.194,0.006,7.442c0.035,23.64,0.107,47.282-0.029,70.921c-16.322,1.301-32.682,6.561-47.758,12.587
				c-17.311,6.921-35.373,16.229-47.631,30.663c-12.256,14.432-11.998,32.327-0.568,47.24
				c12.602,16.439,32.273,26.687,50.152,36.299c25.721,13.829,54.41,20.33,83.252,23.433c32.457,3.493,64.822,4.084,97.402,1.995
				c29.814-1.913,59.686-5.403,89.24-9.761c26.918-3.969,53.777-9.69,79.09-19.862c16.832-6.764,34.93-15.601,47.955-28.491
				c9.703-9.602,15.771-22.833,18.248-36.134C478.141,326.054,476.658,311.89,470.424,299.967z M144.547,173.219
				c14.107-5.425,29.521-9.27,44.639-10.286c15.66-1.052,31.377-0.376,47.055-0.801c15.57-0.421,31.043-1.477,46.533-3.105
				c23.457-2.465,48.416-3.912,71.551,1.818c7.004,1.734,18.053,5.537,21.736,12.567c-0.031,0.969-0.053,1.937-0.066,2.905
				c-2.418,3.593-12.551,6.487-14.758,7.188c-11.795,3.746-23.984,6.224-36.299,7.994c-1.07-4.059-3.26-7.697-7.182-9.87
				c-5.627-3.118-12.379-2.843-18.609-2.669c-9.414,0.262-18.795-0.205-28.205-0.452c-10.623-0.279-21.092,0.551-31.641,1.742
				c-18.098,2.042-35.994,5.462-54.066,7.684c-11,1.353-25.475,3.055-34.234,10.995c-1.658,0.525-2.961,1.607-3.641,3.521
				c-10.023-0.085-20.045-0.307-30.062-0.619c-0.004-2.892-0.01-5.783-0.01-8.675c0-0.183-0.012-0.357-0.025-0.53
				C120.566,182.627,136.527,176.303,144.547,173.219z M313.578,192.949c-9.803,1.095-19.637,1.846-29.371,2.521
				c-13.713,0.951-27.445,1.604-41.162,2.504c-14.623,0.959-29.178,2.614-43.818,3.414c-10.805,0.591-21.617,0.908-32.434,1.032
				c6.676-2.321,14.535-2.933,20.486-3.664c15.748-1.936,31.348-4.782,47.084-6.832c18.15-2.364,35.752-2.39,54.002-1.928
				c6.1,0.154,12.27-0.487,18.354-0.099C310.281,190.127,312.404,191.011,313.578,192.949z M117.273,281.293
				c0.146-22.839,0.074-45.683,0.035-68.524c30.18,0.942,60.383,1.033,90.533-0.868c15.561-0.981,31.053-2.688,46.619-3.616
				c15.055-0.898,30.117-1.675,45.145-2.968c6.381-0.549,12.752-1.221,19.104-2.038c1.338,0.278,2.809,0.089,4.064-0.539
				c7.291-1.017,14.553-2.245,21.764-3.754c10.312-2.159,21.162-4.43,30.658-9.171c0.33-0.165,0.658-0.336,0.984-0.511
				c0.473,12.06,1.562,24.107,1.625,36.195c0.027,5.741,7.225,6.259,9.943,2.499c1.518-0.931,2.605-2.562,2.525-4.845
				c-0.336-9.633,13.062-10.709,20.637-10.422c9.764,0.37,24.018,4.584,28.736,14.114c3.266,6.599,2.109,15.805,0.871,22.759
				c-1.584,8.896-5.436,17.286-11.695,23.839c-4.752,4.976-8.969,6.424-15.916,6.875c-3.07,0.199-6.127,0.087-9.17-0.348
				c-0.377-0.054-0.973-0.167-1.531-0.282c-0.85-3.836-6.139-6.595-9.549-2.747c-1.178,1.33-1.836,2.605-2.092,3.809
				c-0.545,0.867-0.844,1.951-0.76,3.245c1.102,16.918,1.891,39.336-11.654,51.245c-2.455-1.819-6.604-1.946-8.787,1.382
				c-11.027,16.803-31.68,23.667-50.537,26.921c-20.797,3.588-42.088,3.322-63.115,3.112c-21.879-0.219-43.82,0.917-65.676-0.445
				c-22.225-1.385-46.471-5.16-64.211-19.697c-1-0.818-1.945-1.697-2.891-2.576c-0.244-0.226-0.492-0.415-0.742-0.585
				C115.566,323.84,117.146,301.457,117.273,281.293z M447.666,369.548c-9.035,8.601-21.625,14.794-32.824,20.011
				c-12.367,5.763-25.354,10.136-38.498,13.739c-26.223,7.187-53.328,10.619-80.279,13.744
				c-62.734,7.274-128.17,12.311-190.148-3.248c-23.588-5.921-46.174-17.044-66.312-30.639c-13.328-8.997-33.34-24.92-25.508-43.341
				c6.996-16.455,27.152-26.453,42.512-33.253c15.443-6.838,32.582-12.742,49.592-14.272c-0.078,6.202-0.141,12.525,0.041,18.846
				c-10.291,0.631-19.152,7.556-25.938,14.812c-7.367,7.879-11.988,17.122-12.18,27.963c-0.393,22.285,21.08,35.339,41.104,35.643
				c7.084,0.108,6.195-10.863-0.848-10.97c-15.043-0.229-28.9-9.575-29.285-25.52c-0.186-7.731,4.559-14.337,9.473-19.854
				c4.648-5.217,11.082-10.451,18.293-11.085c0.93,10.669,2.959,21.127,7.252,30.765c1.236,2.774,3.879,3.683,6.25,3.301
				c16.293,12.688,37.24,17.736,57.514,19.965c22.881,2.516,45.918,1.377,68.877,1.4c20.473,0.02,40.936,0.661,61.34-1.462
				c20.188-2.101,41.52-6.91,57.775-19.736c2.195-1.731,4.211-3.604,6.092-5.596c0.807,0.079,1.695-0.061,2.65-0.499
				c23.797-10.921,27.297-36.096,26.537-59.577c7.688,1.454,16.625,1.068,24.02-1.448c3.008-1.023,5.801-2.76,8.354-4.908
				c0.664,0.735,1.559,1.321,2.717,1.644C474.258,296.569,472.09,346.294,447.666,369.548z"/>
		</g>
	</g>
	<g>
		<g>
			<path d="M424.186,228.445c-4.947-7.27-13.848-7.333-20.771-3.132c-7.699,4.673-11.846,13.993-12.109,22.686
				c-0.102,3.325,2.266,4.889,4.828,4.884c0.322,0.647,0.818,1.267,1.523,1.825c7.492,5.933,17.691,6.885,25.139,0.292
				C430.613,248.081,429.674,236.509,424.186,228.445z M416.008,246.316c-2.869,3.574-7.932,2.627-11.088,0.127
				c-0.762-0.602-1.553-0.96-2.342-1.13c1.359-5.313,7.021-15.45,12.105-11.14C417.889,236.89,418.578,243.112,416.008,246.316z"/>
		</g>
	</g>
	<g>
		<g>
			<path d="M283.92,243.423c-10.203-8.163-23.188-12.355-36.16-10.576c-11.395,1.562-24.416,6.909-29.225,17.918
				c-12.506,9.659-19.537,27.428-23.6,41.578c-5.059,17.628-5.434,38.588,11.518,49.809c15.592,10.321,38.189,8.817,54.582,1.245
				c16.111-7.444,28.703-21.54,35.4-37.866C305.182,284.208,302.764,258.498,283.92,243.423z M289.328,291.496
				c-3.338,16.456-14.256,31.106-28.553,39.693c-13.295,7.985-34.545,10.839-48.227,1.839c15.727-4.22,30.832-13.06,36.432-29.106
				c4.076-11.684,4.275-27.557,19.238-29.863c6.955-1.072,6.182-12.053-0.848-10.97c-7.178,1.106-13.646,3.732-18.316,9.495
				c-4.367,5.389-6.113,12.435-7.85,18.998c-1.951,7.381-3.82,13.89-9.346,19.428c-6.836,6.851-16.676,10.236-25.881,12.37
				c-0.51,0.118-0.955,0.289-1.352,0.494c-4.109-9.616-1.035-22.325,1.797-31.783c3.104-10.362,8.75-24.449,18.086-32.039
				c1.088-0.337,2.076-0.996,2.793-2.001c1.518-0.942,3.119-1.718,4.812-2.284c3.676-1.229,4.254-4.885,2.93-7.583
				c4.594-2.633,10.463-3.941,14.719-4.525c9.014-1.236,17.785,1.661,25.219,6.783C288.566,259.804,292.482,275.95,289.328,291.496z
				"/>
		</g>
	</g>
	<g>
		<g>
			<path d="M222.744,83.338c-4.441-7.28-12.295-12.294-15.826-20.145c-3.244-7.21,1.381-20.064,8.699-23.416
				c6.387-2.925,2.826-13.343-3.639-10.383c-9.561,4.378-16.525,16-17.158,26.456c-0.662,10.945,5.945,18.688,12.916,26.26
				c3.207,3.484,6.25,7.136,7.977,11.594c1.732,4.474-1.248,10.095-3.15,14.028c-3.854,7.967-10.875,16.898-6.324,25.923
				c3.189,6.327,12.27,0.099,9.119-6.151c0.512,1.016,0.369-0.875,0.637-1.88c0.395-1.489,1.254-2.95,1.93-4.325
				c1.992-4.055,4.256-7.957,6.076-12.098C228.002,100.097,227.959,91.886,222.744,83.338z"/>
		</g>
	</g>
	<g>
		<g>
			<path d="M270.58,81.866c-2.789-7.612-6.365-14.913-9.312-22.462c-1.053-2.695-2.217-5.727-2.686-8.42
				c-0.049-0.276-0.08-0.531-0.104-0.769c5.127-1.655,6.109-10.122-0.133-10.528c-21.141-1.375-5.033,29.258-1.359,37.872
				c1.674,3.922,3.299,7.873,4.58,11.943c1.248,3.964,1.381,4.779-0.533,8.333c-5.24,9.725-18.158,19.138-11.93,31.564
				c3.131,6.246,13.562,2.704,10.383-3.638c-2.137-4.266,0.529-7.843,3.08-11.349c3.051-4.197,6.414-8.144,8.887-12.733
				C274.984,95.126,272.982,88.423,270.58,81.866z"/>
		</g>
	</g>
	<g>
		<g>
			<path d="M312.965,94.208c-1.684-7.42-4.605-14.557-7.334-21.637c-1.152-2.989-2.301-5.979-3.295-9.024
				c-0.209-0.636-0.756-2.665-0.742-2.595c-0.045-0.243-0.07-0.406-0.092-0.536c2.379-5.989-6.955-10.337-10.135-4.278
				c-2.168,4.131,0.006,9.465,1.412,13.488c2.42,6.918,5.307,13.659,7.621,20.617c1.863,5.599,4.238,12.392,2.494,18.29
				c-3.139,10.61-12,19.203-17.527,28.601c-3.607,6.13,6.283,10.965,9.854,4.895c5.398-9.178,12.814-17.153,16.986-27.037
				C315.145,108.034,314.598,101.406,312.965,94.208z"/>
		</g>
	</g>
</g>
</svg>
