<?xml version="1.0" encoding="utf-8"?>
<!-- Generator: Adobe Illustrator 16.0.3, SVG Export Plug-In . SVG Version: 6.00 Build 0)  -->
<!DOCTYPE svg PUBLIC "-//W3C//DTD SVG 1.1//EN" "http://www.w3.org/Graphics/SVG/1.1/DTD/svg11.dtd">
<svg version="1.1" id="Layer_1" xmlns="http://www.w3.org/2000/svg" xmlns:xlink="http://www.w3.org/1999/xlink" x="0px" y="0px"
	 width="512px" height="512px" viewBox="0 0 512 512" style="enable-background:new 0 0 512 512;" xml:space="preserve">
<style type="text/css">
<![CDATA[
	.st0{fill:#127274;}
	.st1{fill:#14B6B9;}
	.st2{fill:#1E4384;}
	.st3{fill:#EF4754;}
	.st4{fill:#EF4823;}
	.st5{fill:#BCBCBC;}
	.st6{fill:#F6851F;}
	.st7{fill:#C56528;}
	.st8{fill:#FCBF95;}
	.st9{fill:#FEBF10;}
	.st10{fill:none;}
	.st11{fill:#010101;}
	.st12{fill:#3AB37C;}
	.st13{fill:#D6E5E5;}
	.st14{fill:#71C598;}
	.st15{fill:#74CCCF;}
]]>
</style>
<g>
	<g>
		<g>
			<path class="st12" d="M322.865,132.182c-2.5-1.498-3.985-4.579-2.48-7.374c4.797-8.905,10.266-17.521,13.246-26.944
				c-9.664,5.881-22.262,8.731-31.895,8.877c-5.969,0.09-8.52-8.88-2.242-10.677c2.473-0.709,2.873-2.868,2.334-5.124
				c-4.021,5.263-8.156,10.41-13.222,14.767c-7.962,6.846-16.997,8.872-26.476,12.74c-0.042,0.018-0.083,0.027-0.125,0.044
				c0.131,1.73,0.321,3.451,0.605,5.153c0.615,3.682,2.011,7.05,3.238,10.49c1.324-0.189,2.75,0.068,4.094,0.989
				c9.406,6.443,22.483-4.555,29.236-10.499c5.158-4.541,13.399,2.128,8.266,7.262c-0.668,0.667-1.334,1.334-2,2
				c-0.574,0.574-1.195,0.98-1.832,1.254c-10.697,8.73-24.068,16.417-37.062,10.439c-0.046,0.075-0.103,0.143-0.15,0.216
				c0.527,0.394,1.023,0.855,1.471,1.385c2.259,2.671,1.173,5.503-1.049,7.05c-0.009,0.451-0.022,0.901-0.023,1.354
				c-0.002,1.047-0.03,2.107,0.125,3.148c0.396,2.652,1.267,5.252,2.312,7.717c0.999,2.355,4.146,9.809,6.124,10.408
				c6.722,2.033,4.689,12.852-2.098,10.797c-8.979-2.716-14.415-15.07-16.39-23.458c-0.989-4.202-1.44-8.668-0.865-12.987
				c-1.372,0.236-2.747,0.377-4.065,0.455c0.127,13.948-4.164,30.814-16.555,38.151c-6.082,3.601-12.268-5.498-6.152-9.119
				c7.82-4.63,10.912-14.851,11.572-24.199c-0.387-0.053-0.764-0.141-1.119-0.271c-14.252,7.848-35.848,3.275-48.824-4.044
				c-4.393-2.478-3.781-10.412,2.023-10.412h3c2.459,0,4.165,1.333,5.049,3.067c5.327,2.198,11.074,3.49,16.772,3.988
				c6.2,0.542,13.829,0.366,18.894-3.725c-0.17-1.797-0.431-3.576-0.747-5.346c-10.163-0.013-21.706-0.607-29.175-7.368
				c-5.25-4.753,1.988-13.038,7.262-8.264c3.718,3.365,9.481,4.385,15.232,4.651c-3.057-2.662-6.748-4.634-10.334-6.672
				c-6.33-3.598-12.58-7.393-18.661-11.396c-5.929-3.902-11.59-8.154-16.505-13.281c1.045,9.967,3.582,19.729,7.828,29.012
				c1.636,3.575-1.617,6.651-4.768,7.304c-10.303,2.131-21.432,5.88-32.052,3.687c-3.365-0.695-6.54-1.839-9.626-3.197
				c2.387,4.227,4.359,8.729,6.938,12.825c2.909,4.622,5.733,5.51,10.376,7.799c3.072,1.516,5.439,3.823,6.875,6.963
				c3.608,7.888-9.578,15.024-14.896,17.702c-5.73,2.884-11.744,4.494-17.754,6.194c6.224,2.345,13.199,3.227,19.514,3.436
				c5.358,0.177,10.751,0.054,16.072-0.65c4.158-0.55,8.221-1.772,12.379-2.244c9.049-1.026,13.7,5.158,12.777,13.825
				c-0.826,7.764-4.35,13.999-8.578,19.963c4.199-0.867,8.342-2.226,12.268-3.506c5.354-1.746,8.535-3.867,12.469-7.84
				c2.805-2.832,6.221-6.482,10.496-6.756c4.869-0.311,8.816,2.826,11.137,6.928c2.381,4.21,3.2,8.74,3.895,13.485
				c0.316,2.162,0.509,4.417,1.088,6.527c0.191,0.694,0.389,1.401,0.654,2.075c0.15-0.06,0.307-0.137,0.469-0.261
				c1.266-0.973,2.476-1.972,3.506-3.202c1.838-2.197,3.308-4.559,4.377-7.229c2.322-5.793,3.32-12.018,4.795-18.06
				c0.806-3.305,4.592-5.71,7.846-3.877c10.677,6.014,17.176,15.167,23.837,24.755c5.321-8.787,6.646-21.132,2.524-30.01
				c-2.225-4.792,3.646-8.369,7.639-6.745c13.639,5.547,30.247,5.759,42.433-2.447c-5.864-1.78-11.644-4.175-15.511-8.494
				c-2.859-3.192-2.213-7.5,1.812-9.323c6.766-3.065,14.539-6.027,19.277-12.058c3.986-5.073,6.07-11.7,7.688-18.307
				C341.984,138.494,332.09,137.711,322.865,132.182z"/>
		</g>
	</g>
	<g>
		<g>
			<path class="st4" d="M444.746,214.48c-2.17,0.618-4.662,0.044-5.993-2.15c-1.483-2.444-2.481-5.108-3.107-7.867
				c-2.086-0.414-3.817-1.969-3.817-4.784v-8c0-3.319,2.887-6.434,6.155-5.958c-6.2-17.899-15.925-34.774-28.671-48.453
				c-8.225-8.826-17.729-16.705-29.037-21.225c-12.824-5.126-25.164-4.526-38.539-2.303c-1.113,0.185-2.067,0.062-2.86-0.277
				c-1.855,3.788-3.892,7.539-5.962,11.328c7.806,2.823,15.658,1.562,23.322-3.096c3.852-2.341,9.705,0.695,8.475,5.609
				c-2.792,11.159-4.895,24.993-12.675,33.964c-4.099,4.725-9.171,7.997-14.577,10.778c4.209,1.722,8.939,2.687,12.902,3.81
				c3.972,1.125,5.938,5.651,3.084,9.029c-0.979,1.16-2.008,2.244-3.069,3.271c1.579,0.666,2.684,2.101,3.21,3.834
				c0.35,0.438,0.658,0.925,0.918,1.446c2.29,4.589,4.146,9.192,4.293,14.395c0.137,4.823-5.307,7.738-9.115,4.556
				c-5.478-4.576-5.62-11.918-6.801-18.411c-12.188,7.503-27.422,8.771-41.599,5.5c1.616,12.943-2.928,28.021-11.837,36.41
				c-2.605,2.453-6.484,2.523-8.692-0.556c-5.73-7.987-10.549-16.633-17.931-22.95c-2.711,11.354-6.551,23.677-17.684,28.602
				c-11.557,5.112-15.471-6.773-16.779-15.698c-0.373-2.551-0.607-5.2-1.35-7.677c-0.408-1.356-0.861-2.562-1.725-3.713
				c-0.168-0.226-0.408-0.425-0.62-0.588c-0.151,0.086-0.312,0.191-0.477,0.327c-0.603,0.496-1.155,1.043-1.705,1.598
				c-1.842,1.86-3.663,3.726-5.644,5.441c-5.271,4.568-11.959,6.388-18.578,8.197c-7.266,1.987-14.443,3.397-21.998,2.784
				c-4.562-0.369-5.25-6.057-3.084-9.029c5.137-7.047,14.393-15.85,13.371-25.497c-1.273,0.108-2.531,0.295-3.785,0.554
				c-3.648,0.754-7.266,1.551-10.979,1.934c-17.157,1.774-38.471,0.689-52.105-11.228c-3.221-2.814-1.959-7.804,1.812-9.323
				c8.014-3.229,16.801-4.057,24.665-7.702c3.849-1.785,7.796-3.928,11.017-6.768c-0.615-0.275-1.232-0.542-1.859-0.801
				c-7.824-3.229-11.723-8.81-15.443-16.222c-0.967-1.924-1.996-3.812-3.059-5.684c-6.373,0.368-12.775,1.092-19,2.439
				c1.055,0.202,2.05,0.526,2.945,1.001c1.857,0.984,3.244,3.088,3.062,5.241c0.154,1.01,0.003,2.084-0.582,3.133
				c-2.244,4.02-6.531,7.801-10.498,10.016c-2.551,1.425-5.726,2.924-8.747,2.175c-2.937-0.729-5.44-2.882-6.219-5.897
				c-0.971-3.764,0.499-7.232,3.181-9.967c-3.452,1.688-6.77,3.698-9.896,6.114c-20.866,16.117-33.994,43.738-39.23,69.051
				c-6.088,29.425-1.571,58.452,8.699,86.421c9.944,27.084,23.247,52.967,36.268,78.675c12.369,24.423,25.726,49.297,44.277,69.672
				c9.149,10.05,19.297,18.872,31.705,24.664c5.07,2.366,10.307,4.259,15.648,5.788c-2.902-1.938-5.025-4.729-6.307-8.34
				c-1.08-3.043,0.477-5.445,2.717-6.541c0.105-4.753,5.221-7.524,9.105-4.409c5.107,4.095,7.182,10.855,5.768,17.182
				c-0.387,1.729-1.699,3.358-3.359,4.099c4.479,0.96,9.016,1.689,13.586,2.201c11.777,1.318,23.762,1.714,35.637,1.683
				c-3.425-2.95-4.43-6.776-4.695-10.831c-1.219-1.434-1.669-3.453-0.494-5.648c0.145-0.271,0.293-0.527,0.439-0.779
				c0.001-0.116,0.003-0.233,0.004-0.35c0.016-1.649,0.587-3.197,1.626-4.299c1.764-3.271,7.271-3.326,9.418-0.2
				c3.868,5.63,4.049,12.612,2.839,19.125c-0.223,1.2-0.811,2.176-1.6,2.905c12.374-0.239,24.984-1.174,36.826-4.872
				c1.058-0.33,2.099-0.689,3.132-1.062c-0.155-0.778-0.146-1.642,0.06-2.563c-1.373-0.915-2.377-2.359-2.301-4.033
				c0.35-7.711,4.654-16.436,12.666-18.615c2.435-0.662,4.873,0.136,6.235,1.961c2.587,0.783,4.72,3.271,3.981,6.28
				c-0.752,3.071-2.051,5.86-3.682,8.452c14.824-9.698,26.68-23.771,36.402-38.716c8.428-12.953,15.773-26.546,23.125-40.137
				c-2.008-0.981-3.382-3.013-2.643-5.699c1.041-3.783,2.965-7.235,4-11c0.102-0.37,0.233-0.727,0.391-1.065
				c-1.174-3.602,1.294-8.377,6.057-7.283c2.117,0.486,3.625,1.357,4.662,2.486c1.023-1.778,2.053-3.553,3.1-5.316
				c9.807-16.527,19.98-32.924,29.272-49.779c-2.252-0.958-4.012-3.21-3.481-6.042c0.074-0.394,0.172-0.779,0.257-1.169
				c-0.864-0.828-1.406-1.958-1.343-3.357c0.25-5.56,3.122-15.909,10.061-15.909c0.596,0,1.153,0.091,1.688,0.226
				c1.822-0.529,3.988-0.086,5.367,1.128c0.072,0.063,0.135,0.132,0.203,0.197c0.633-1.355,1.264-2.713,1.877-4.078
				C440.744,270.175,448.249,243.073,444.746,214.48z M82.889,203.77c0.32-0.024,0.642-0.013,0.96,0.022
				c1.106-1.641,2.515-3.062,4.388-4.097c3.188-1.759,8.742-0.397,8.561,4.136c-0.172,4.341-2.309,9.428-6.002,12.139
				c-0.027,0.111-0.057,0.223-0.084,0.335c-0.721,2.909-3.391,4.943-6.447,4.349c-2.345-0.455-4.28-2.584-4.466-4.957
				c-1.392-1.614-1.917-3.975-1.97-6.018C77.748,206.684,79.791,204.007,82.889,203.77z M77.865,300.182
				c-6.118-3.478-7.969-10.897-8.037-17.503c-0.031-2.996,1.926-5.669,5.061-5.909c2.155-0.165,4.424,1.112,5.404,3.049
				c2.255-0.01,4.504,1.239,5.211,3.618c1.241,4.167,1.457,8.672,0.207,12.868C84.754,299.521,81.228,302.094,77.865,300.182z
				 M103.711,374.305c-0.492,4.3-6.054,5.593-9.029,3.082c-0.46-0.388-0.867-0.802-1.245-1.229c-0.631-0.41-1.208-1.006-1.684-1.827
				c-4.798-8.274-8.64-15.259-7.839-25.125c0.272-3.366,5.011-5.68,7.846-3.877C101.232,351.35,104.947,363.522,103.711,374.305z
				 M117.914,240.205c1.408-7.438,5.029-15.071,10.266-20.581c2.924-3.076,9.867-1.904,9.617,3.207
				c-0.172,3.535-1.277,6.705-2.486,10.016c-0.521,1.43-1.07,2.852-1.572,4.288c-0.011,0.03-0.025,0.437-0.054,0.806
				c0.284,2.264-0.72,4.608-3.554,5.506c-0.38,0.12-0.743,0.207-1.094,0.269c-0.764,0.792-1.636,1.505-2.648,2.1
				C122.343,248.192,116.98,245.13,117.914,240.205z M112.753,322.33c-3.407-6.327-3.001-12.701-2.925-19.651
				c0.046-4.241,4.034-6.246,7.188-5.631c1.853-1.577,4.582-2.037,6.928,0.075c8.15,7.338,5.342,23.25-4.812,27.323
				C117.018,325.295,113.873,324.411,112.753,322.33z M133.865,420.182c-6.783-4.328-11.752-11.25-12.037-19.503
				c-0.12-3.457,2.433-5.425,5.105-5.715c1.151-0.996,2.691-1.502,4.428-1.107c9.52,2.163,10.432,12.897,10.436,20.975
				C141.799,418.562,137.711,422.636,133.865,420.182z M181.227,263.899c3.113-3.336,8.145-2.727,10.646,1.012
				c4.255,6.356,2.571,15.03-1.428,20.975c-1.752,2.604-5.629,2.136-7.764,0.501c-3.702-2.834-3.996-7.132-3.928-11.361
				C178.606,271.274,178.666,266.644,181.227,263.899z M194.24,361.702c-1.178,2.581-4.854,3.971-7.375,2.479
				c-6.049-3.575-7.03-10.003-7.037-16.503c-0.002-1.66,0.607-2.973,1.533-3.926c0.238-0.977,0.569-1.945,1.023-2.945
				c1.5-3.297,5.924-3.914,8.559-1.685C197.086,344.318,197.377,354.82,194.24,361.702z M222.24,435.702
				c-1.154,2.581-4.874,3.976-7.375,2.479c-3.058-1.829-5.963-5.271-7.867-9.205c-0.859-0.591-1.541-1.536-1.877-2.903
				c-1.242-5.055-2.808-11.225-0.119-16.086c2.973-5.379,10.268-5.228,14.38-1.359C225.732,414.603,225.574,428.244,222.24,435.702z
				 M251.95,333.6c-0.019,0.692-0.049,1.383-0.089,2.073c0.028-0.479-0.142,3.74-0.059,0.984c-0.114,3.795-1.547,7.459-3.696,10.558
				c-2.095,3.022-5.878,5.231-9.526,3.423c-4-1.984-4-6.619-3.666-10.433c0.019-0.214,0.059-0.421,0.108-0.623
				c-0.458-4.235-0.101-8.778,1.489-12.34c1.561-3.495,4.918-5.915,8.85-5.386c3.86,0.519,5.742,4.059,6.325,7.526
				C251.921,330.777,251.988,332.187,251.95,333.6z M249.768,268.964c-1.627,0.736-3.74,0.566-5.316-0.203
				c-1.797-0.877-2.795-2.33-3.646-4.057c-1.403-2.844-1.104-6.454-0.891-9.499c0.027-0.387,0.111-0.753,0.241-1.1
				c0.104-0.951,0.224-1.9,0.378-2.84c0.383-2.327,0.834-5,1.979-7.083c0.895-1.629,2.052-2.859,3.824-3.535
				c2.633-1.005,5.326,0.276,6.953,2.359c1.924,2.465,2.164,6.307,2.577,9.261C256.686,258.128,255.881,266.195,249.768,268.964z
				 M274.445,438.886c-2.592,3.699-7.815,1.524-9.324-1.812c-1.346-2.977-1.908-6.258-1.785-9.52
				c-0.708-1.328-0.834-2.979,0.049-4.746l3-6c1.253-2.504,4.807-4.046,7.375-2.479C282.26,419.513,279.193,432.108,274.445,438.886
				z M286.121,292.073c-1.129-5.014-1.343-9.823-0.207-14.868c0.39-1.732,1.361-2.899,2.574-3.566
				c0.26-0.623,0.547-1.237,0.896-1.831c2.529-4.297,10.416-3.852,10.412,2.023c-0.004,7.094-0.237,14.018-4.352,20.055
				C293.225,297.145,286.98,295.892,286.121,292.073z M312.185,368.499c-0.494,3.802-1.407,9.307-5.09,11.443
				c-4.401,2.553-10.022,0.547-12.378-3.94c-1.454-2.769-1.637-5.743-1.467-8.813c0.09-1.609,0.225-3.209,0.398-4.812
				c0.025-0.233,0.211-2.808,0.18-1.698c0.086-2.994,1.84-5.662,5.061-5.909c0.221-0.017,0.444-0.013,0.67,0.002
				c0.497-0.745,1.02-1.473,1.621-2.147c1.582-1.773,3.557-1.854,5.709-1.854c2.811,0,5.91,1.901,5.908,5.062
				C312.797,360.048,312.729,364.313,312.185,368.499z M335.83,410.245c-1.265,9.175-7.777,17.752-17.094,19.495
				c-3.642,0.681-6.37-3.317-5.822-6.535c0.798-4.689,2.665-8.956,4.541-13.237c-1.842-2.269-2.205-5.96,0.781-8.272
				c3.531-2.734,8.913-5.586,13.278-2.852C335.486,401.331,336.438,405.847,335.83,410.245z M342.921,280.851
				c-3.315,0.564-6.728-1.344-7.884-4.518c-0.573-1.573-0.572-3.203-0.268-4.802c-0.082-0.94,0.093-1.889,0.615-2.724
				c0.195-0.312,0.379-0.641,0.557-0.981c0.144-0.345,0.292-0.686,0.443-1.019c0.088-0.193,0.184-0.375,0.283-0.549
				c2.224-5.216,3.575-12.134,10.374-12.295c4.223-0.1,8.3,3.326,9.56,7.291c0.986,3.098,0.662,6.402-0.78,9.314
				C353.374,275.508,348.451,279.91,342.921,280.851z M359.736,351.74c-3.074,0.58-5.538-2.351-5.908-5.062
				c-0.739-5.4,0.709-10.31,2.086-15.474c0.639-2.396,2.389-3.692,4.311-4.072c-0.33-1.874,0.182-3.923,2.012-5.438
				c1.29-1.067,2.711-1.933,4-3c2.815-2.329,7.123-0.324,8.268,2.741C378.695,332.662,372.137,349.397,359.736,351.74z
				 M390.121,182.073c-0.168-0.58-0.309-1.158-0.438-1.735c-3.625-3.56-6.596-7.72-7.562-12.265
				c-0.623-2.933,0.279-5.923,3.373-7.01c2.554-0.897,6.386,0.438,7.01,3.373c0.102,0.48,0.25,0.954,0.418,1.425
				c0.75-0.203,1.57-0.229,2.439-0.005c8.214,2.113,13.561,10.029,12.35,18.448c-0.479,3.325-4.861,5.724-7.846,3.877
				c-1.256-0.777-2.572-1.649-3.895-2.599C393.576,186.079,391.002,185.133,390.121,182.073z M410.436,257.431
				c-0.604,5.053-5.698,13.155-11.869,10.039c-4.613-2.33-4.382-8.354-4.145-12.752c0.172-3.18,0.39-6.433,0.914-9.605
				c-1.294-4.033,2.332-9.159,6.854-7.082c2.189,0.297,4.188,1.714,4.607,3.99C409.959,246.299,411.043,252.346,410.436,257.431z"/>
		</g>
	</g>
	<g>
		<g>
			<path class="st12" d="M272.479,55.247c-2.097-1.17-4.028-2.607-5.675-4.429c-2.315-2.562-3.796-5.519-4.707-8.676
				c-5.364,4.049-10.467,8.419-14.393,13.956c-6.336,8.934-9.715,20.171-10.642,31.021c-1.3,15.218,4.606,29.243,8.186,43.662
				c1.233,1.514,1.662,3.623,1.211,5.418c0.312,1.593,0.585,3.193,0.8,4.803c0.488-0.146,1.027-0.231,1.629-0.233
				c2.057-0.006,5.299,0.361,7.256-0.562c-0.063-0.178-0.129-0.354-0.189-0.532c-1.884-5.558-3.896-10.915-4.534-16.807
				c-1.184-10.937-1.151-22.725,0.571-33.619C254.316,74.546,261.215,62.981,272.479,55.247z"/>
		</g>
	</g>
	<g>
		<g>
			<path d="M88.236,199.695c-1.873,1.034-3.281,2.456-4.388,4.097c-0.318-0.035-0.64-0.047-0.96-0.022
				c-3.098,0.237-5.141,2.914-5.061,5.909c0.053,2.043,0.578,4.403,1.97,6.018c0.186,2.373,2.121,4.502,4.466,4.957
				c3.057,0.595,5.727-1.439,6.447-4.349c0.027-0.112,0.057-0.224,0.084-0.335c3.693-2.711,5.83-7.798,6.002-12.139
				C96.979,199.298,91.424,197.937,88.236,199.695z"/>
		</g>
	</g>
	<g>
		<g>
			<path d="M85.504,283.437c-0.707-2.379-2.956-3.628-5.211-3.618c-0.98-1.937-3.249-3.214-5.404-3.049
				c-3.135,0.24-5.092,2.913-5.061,5.909c0.068,6.605,1.919,14.025,8.037,17.503c3.362,1.912,6.889-0.66,7.846-3.877
				C86.961,292.108,86.745,287.604,85.504,283.437z"/>
		</g>
	</g>
	<g>
		<g>
			<path d="M441.468,165.813c-9.097-18.901-22.103-36.866-38.948-49.58c-8.105-6.119-17.152-10.573-26.935-13.278
				c-10.657-2.948-21.288-2.257-32.013-0.612c2.198-6.415,3.508-13.135,3.225-20.512c-0.207-5.43-8.162-6.918-10.412-2.023
				c-2.736,5.957-9.464,9.149-15.228,11.491c-2.706,1.099-5.521,2.038-8.388,2.777c0.355-6.099-2.369-12.884-6.826-16.953
				c-2.108-1.925-5.956-1.841-7.764,0.501c-4.996,6.473-9.682,13.154-15.612,18.83c-6,5.74-13.355,7.652-20.784,10.35
				c0.012-0.911,0.024-1.82,0.035-2.725c0.107-9.121,1.133-18.541,5.047-26.877c4.189-8.926,12.262-14.398,21.266-17.756
				c5.184-1.933,4.58-9.395-0.77-10.59c-4.255-0.951-8.623-2.042-11.994-4.952c-3.353-2.893-3.51-8.014-3.57-12.073
				c-0.06-4.111-5.332-6.479-8.561-4.136c-8.234,5.977-16.506,11.905-22.891,19.937c-7.303,9.188-11.313,20.619-13.373,32.06
				c-2.159,11.995-0.791,23.638,2.287,35.308c-6.155-3.92-12.996-7.121-18.628-10.589c-6.614-4.073-12.942-8.552-18.515-13.984
				c-4.982-4.857-5.918-13.25-9.245-19.246c-2.264-4.081-9.476-2.627-9.958,2.025c-1.802,17.369-0.341,34.873,5.842,51.167
				c-6.719,1.551-13.519,3.008-20.395,2.484c-8.787-0.669-16.809-6.947-24.602-10.528c-5.378-2.472-9.422,3.286-7.007,8.002
				c1.218,2.38,2.531,4.705,3.875,7.013c-20.884,2.033-40.304,8.688-55.405,24.369c-18.74,19.459-30.311,45.914-35.137,72.23
				C29.341,286.541,60.241,341.67,85.559,392.229c12.284,24.533,25.422,48.869,43.057,70.035
				c8.67,10.408,18.244,19.664,29.695,26.965c10.828,6.903,23.222,11.215,35.711,13.938c12.811,2.794,25.938,3.36,38.998,3.788
				c13.489,0.441,27.008,0.523,40.43-1.083c13.053-1.562,25.691-5.124,37.24-11.457c10.784-5.914,20.166-14.402,28.349-23.498
				c16.944-18.835,28.835-41.781,40.688-63.975c13.67-25.594,29.502-49.937,43.623-75.276
				c14.266-25.602,27.791-53.239,32.019-82.525C459.477,220.679,453.869,191.581,441.468,165.813z M237.063,87.12
				c0.927-10.851,4.306-22.088,10.642-31.021c3.926-5.537,9.028-9.907,14.393-13.956c0.911,3.157,2.392,6.114,4.707,8.676
				c1.646,1.821,3.578,3.259,5.675,4.429c-11.265,7.734-18.163,19.299-20.487,34.002c-1.723,10.895-1.755,22.683-0.571,33.619
				c0.638,5.892,2.65,11.249,4.534,16.807c0.061,0.178,0.126,0.354,0.189,0.532c-1.957,0.924-5.199,0.557-7.256,0.562
				c-0.602,0.002-1.141,0.088-1.629,0.233c-0.215-1.609-0.488-3.21-0.8-4.803c0.451-1.795,0.022-3.904-1.211-5.418
				C241.67,116.363,235.764,102.338,237.063,87.12z M154.685,137.427c10.62,2.193,21.749-1.556,32.052-3.687
				c3.15-0.652,6.403-3.729,4.768-7.304c-4.246-9.282-6.783-19.045-7.828-29.012c4.915,5.127,10.576,9.379,16.505,13.281
				c6.081,4.004,12.331,7.799,18.661,11.396c3.586,2.038,7.277,4.01,10.334,6.672c-5.751-0.267-11.515-1.286-15.232-4.651
				c-5.273-4.774-12.512,3.511-7.262,8.264c7.469,6.761,19.012,7.355,29.175,7.368c0.316,1.77,0.577,3.549,0.747,5.346
				c-5.064,4.091-12.693,4.267-18.894,3.725c-5.698-0.498-11.445-1.79-16.772-3.988c-0.884-1.734-2.59-3.067-5.049-3.067h-3
				c-5.805,0-6.416,7.935-2.023,10.412c12.977,7.319,34.572,11.892,48.824,4.044c0.355,0.13,0.732,0.218,1.119,0.271
				c-0.66,9.349-3.752,19.569-11.572,24.199c-6.115,3.621,0.07,12.72,6.152,9.119c12.391-7.337,16.682-24.203,16.555-38.151
				c1.318-0.078,2.693-0.219,4.065-0.455c-0.575,4.319-0.124,8.785,0.865,12.987c1.975,8.388,7.411,20.742,16.39,23.458
				c6.787,2.055,8.819-8.764,2.098-10.797c-1.978-0.6-5.125-8.053-6.124-10.408c-1.046-2.465-1.917-5.064-2.312-7.717
				c-0.155-1.041-0.127-2.102-0.125-3.148c0.001-0.452,0.015-0.902,0.023-1.354c2.222-1.547,3.308-4.379,1.049-7.05
				c-0.447-0.529-0.943-0.991-1.471-1.385c0.048-0.073,0.104-0.141,0.15-0.216c12.993,5.978,26.364-1.709,37.062-10.439
				c0.637-0.273,1.258-0.68,1.832-1.254c0.666-0.666,1.332-1.333,2-2c5.134-5.134-3.107-11.803-8.266-7.262
				c-6.753,5.944-19.83,16.942-29.236,10.499c-1.344-0.921-2.77-1.179-4.094-0.989c-1.228-3.44-2.623-6.809-3.238-10.49
				c-0.284-1.702-0.475-3.423-0.605-5.153c0.042-0.017,0.083-0.026,0.125-0.044c9.479-3.868,18.514-5.895,26.476-12.74
				c5.065-4.356,9.2-9.504,13.222-14.767c0.539,2.256,0.139,4.415-2.334,5.124c-6.277,1.797-3.727,10.767,2.242,10.677
				c9.633-0.146,22.23-2.996,31.895-8.877c-2.98,9.424-8.449,18.039-13.246,26.944c-1.505,2.795-0.02,5.876,2.48,7.374
				c9.225,5.529,19.119,6.312,28.594,3.518c-1.617,6.606-3.701,13.233-7.688,18.307c-4.738,6.03-12.512,8.992-19.277,12.058
				c-4.025,1.823-4.672,6.131-1.812,9.323c3.867,4.319,9.646,6.714,15.511,8.494c-12.186,8.206-28.794,7.994-42.433,2.447
				c-3.993-1.624-9.863,1.953-7.639,6.745c4.121,8.878,2.797,21.223-2.524,30.01c-6.661-9.588-13.16-18.741-23.837-24.755
				c-3.254-1.833-7.04,0.572-7.846,3.877c-1.475,6.042-2.473,12.267-4.795,18.06c-1.069,2.67-2.539,5.031-4.377,7.229
				c-1.03,1.23-2.24,2.229-3.506,3.202c-0.162,0.124-0.318,0.201-0.469,0.261c-0.266-0.674-0.463-1.381-0.654-2.075
				c-0.579-2.11-0.771-4.365-1.088-6.527c-0.694-4.745-1.514-9.275-3.895-13.485c-2.32-4.102-6.268-7.238-11.137-6.928
				c-4.275,0.273-7.691,3.924-10.496,6.756c-3.934,3.973-7.114,6.094-12.469,7.84c-3.926,1.28-8.068,2.639-12.268,3.506
				c4.229-5.964,7.752-12.199,8.578-19.963c0.923-8.667-3.729-14.852-12.777-13.825c-4.158,0.472-8.221,1.694-12.379,2.244
				c-5.321,0.704-10.714,0.827-16.072,0.65c-6.314-0.209-13.29-1.091-19.514-3.436c6.01-1.7,12.023-3.311,17.754-6.194
				c5.318-2.678,18.505-9.814,14.896-17.702c-1.436-3.14-3.803-5.447-6.875-6.963c-4.643-2.289-7.467-3.177-10.376-7.799
				c-2.579-4.097-4.552-8.599-6.938-12.825C148.145,135.588,151.319,136.731,154.685,137.427z M429.023,296.242
				c-0.613,1.365-1.244,2.723-1.877,4.078c-0.068-0.065-0.131-0.134-0.203-0.197c-1.379-1.214-3.545-1.657-5.367-1.128
				c-0.534-0.135-1.092-0.226-1.688-0.226c-6.938,0-9.811,10.35-10.061,15.909c-0.063,1.399,0.479,2.529,1.343,3.357
				c-0.085,0.39-0.183,0.775-0.257,1.169c-0.53,2.832,1.229,5.084,3.481,6.042c-9.292,16.855-19.466,33.252-29.272,49.779
				c-1.047,1.764-2.076,3.538-3.1,5.316c-1.037-1.129-2.545-2-4.662-2.486c-4.763-1.094-7.23,3.682-6.057,7.283
				c-0.157,0.339-0.289,0.695-0.391,1.065c-1.035,3.765-2.959,7.217-4,11c-0.739,2.687,0.635,4.718,2.643,5.699
				c-7.352,13.591-14.697,27.184-23.125,40.137c-9.723,14.944-21.578,29.018-36.402,38.716c1.631-2.592,2.93-5.381,3.682-8.452
				c0.738-3.01-1.395-5.497-3.981-6.28c-1.362-1.825-3.801-2.623-6.235-1.961c-8.012,2.18-12.316,10.904-12.666,18.615
				c-0.076,1.674,0.928,3.118,2.301,4.033c-0.205,0.922-0.215,1.785-0.06,2.563c-1.033,0.373-2.074,0.732-3.132,1.062
				c-11.842,3.698-24.452,4.633-36.826,4.872c0.789-0.729,1.377-1.705,1.6-2.905c1.21-6.513,1.029-13.495-2.839-19.125
				c-2.147-3.126-7.654-3.07-9.418,0.2c-1.039,1.102-1.61,2.649-1.626,4.299c-0.001,0.116-0.003,0.233-0.004,0.35
				c-0.146,0.252-0.295,0.509-0.439,0.779c-1.175,2.195-0.725,4.215,0.494,5.648c0.266,4.055,1.271,7.881,4.695,10.831
				c-11.875,0.031-23.859-0.364-35.637-1.683c-4.57-0.512-9.106-1.241-13.586-2.201c1.66-0.74,2.973-2.369,3.359-4.099
				c1.414-6.326-0.66-13.087-5.768-17.182c-3.885-3.115-9-0.344-9.105,4.409c-2.24,1.096-3.797,3.498-2.717,6.541
				c1.281,3.611,3.404,6.401,6.307,8.34c-5.342-1.529-10.578-3.422-15.648-5.788c-12.408-5.792-22.556-14.614-31.705-24.664
				c-18.552-20.375-31.908-45.249-44.277-69.672c-13.021-25.708-26.323-51.591-36.268-78.675
				c-10.271-27.969-14.787-56.996-8.699-86.421c5.236-25.312,18.364-52.934,39.23-69.051c3.127-2.416,6.444-4.426,9.896-6.114
				c-2.682,2.734-4.151,6.203-3.181,9.967c0.778,3.016,3.282,5.169,6.219,5.897c3.021,0.749,6.196-0.75,8.747-2.175
				c3.967-2.215,8.254-5.996,10.498-10.016c0.585-1.049,0.736-2.123,0.582-3.133c0.182-2.153-1.205-4.257-3.062-5.241
				c-0.896-0.475-1.891-0.799-2.945-1.001c6.225-1.348,12.627-2.071,19-2.439c1.062,1.871,2.092,3.76,3.059,5.684
				c3.721,7.412,7.619,12.992,15.443,16.222c0.627,0.259,1.244,0.525,1.859,0.801c-3.221,2.84-7.168,4.982-11.017,6.768
				c-7.864,3.646-16.651,4.473-24.665,7.702c-3.771,1.52-5.033,6.509-1.812,9.323c13.635,11.917,34.948,13.002,52.105,11.228
				c3.713-0.383,7.33-1.18,10.979-1.934c1.254-0.259,2.512-0.445,3.785-0.554c1.021,9.647-8.234,18.45-13.371,25.497
				c-2.166,2.973-1.479,8.66,3.084,9.029c7.555,0.613,14.732-0.797,21.998-2.784c6.619-1.81,13.307-3.629,18.578-8.197
				c1.98-1.716,3.802-3.581,5.644-5.441c0.55-0.555,1.103-1.102,1.705-1.598c0.165-0.136,0.325-0.241,0.477-0.327
				c0.212,0.163,0.452,0.362,0.62,0.588c0.863,1.151,1.316,2.356,1.725,3.713c0.742,2.477,0.977,5.126,1.35,7.677
				c1.309,8.925,5.223,20.811,16.779,15.698c11.133-4.925,14.973-17.247,17.684-28.602c7.382,6.317,12.2,14.963,17.931,22.95
				c2.208,3.079,6.087,3.009,8.692,0.556c8.909-8.389,13.453-23.467,11.837-36.41c14.177,3.271,29.411,2.003,41.599-5.5
				c1.181,6.493,1.323,13.835,6.801,18.411c3.809,3.183,9.252,0.268,9.115-4.556c-0.146-5.202-2.003-9.806-4.293-14.395
				c-0.26-0.521-0.568-1.008-0.918-1.446c-0.526-1.733-1.631-3.168-3.21-3.834c1.062-1.026,2.09-2.11,3.069-3.271
				c2.854-3.378,0.888-7.904-3.084-9.029c-3.963-1.123-8.693-2.088-12.902-3.81c5.406-2.781,10.479-6.054,14.577-10.778
				c7.78-8.971,9.883-22.805,12.675-33.964c1.23-4.914-4.623-7.95-8.475-5.609c-7.664,4.658-15.517,5.919-23.322,3.096
				c2.07-3.789,4.106-7.54,5.962-11.328c0.793,0.339,1.747,0.462,2.86,0.277c13.375-2.224,25.715-2.823,38.539,2.303
				c11.309,4.52,20.812,12.398,29.037,21.225c12.746,13.679,22.471,30.554,28.671,48.453c-3.269-0.476-6.155,2.639-6.155,5.958v8
				c0,2.815,1.731,4.37,3.817,4.784c0.626,2.759,1.624,5.423,3.107,7.867c1.331,2.194,3.823,2.769,5.993,2.15
				C448.249,243.073,440.744,270.175,429.023,296.242z"/>
		</g>
	</g>
	<g>
		<g>
			<path d="M123.943,297.123c-2.346-2.112-5.075-1.652-6.928-0.075c-3.153-0.615-7.142,1.39-7.188,5.631
				c-0.076,6.95-0.482,13.324,2.925,19.651c1.12,2.081,4.265,2.965,6.378,2.116C129.285,320.373,132.094,304.461,123.943,297.123z"
				/>
		</g>
	</g>
	<g>
		<g>
			<path d="M406.797,242.021c-0.42-2.276-2.418-3.693-4.607-3.99c-4.521-2.077-8.147,3.049-6.854,7.082
				c-0.524,3.173-0.742,6.426-0.914,9.605c-0.237,4.397-0.469,10.422,4.145,12.752c6.171,3.116,11.266-4.986,11.869-10.039
				C411.043,252.346,409.959,246.299,406.797,242.021z"/>
		</g>
	</g>
	<g>
		<g>
			<path d="M374.504,321.437c-1.145-3.065-5.452-5.07-8.268-2.741c-1.289,1.067-2.71,1.933-4,3c-1.83,1.515-2.342,3.563-2.012,5.438
				c-1.922,0.38-3.672,1.677-4.311,4.072c-1.377,5.164-2.825,10.073-2.086,15.474c0.37,2.711,2.834,5.642,5.908,5.062
				C372.137,349.397,378.695,332.662,374.504,321.437z"/>
		</g>
	</g>
	<g>
		<g>
			<path d="M331.515,398.844c-4.365-2.734-9.747,0.117-13.278,2.852c-2.986,2.312-2.623,6.004-0.781,8.272
				c-1.876,4.281-3.743,8.548-4.541,13.237c-0.548,3.218,2.181,7.216,5.822,6.535c9.316-1.743,15.829-10.32,17.094-19.495
				C336.438,405.847,335.486,401.331,331.515,398.844z"/>
		</g>
	</g>
	<g>
		<g>
			<path d="M306.889,350.77c-2.152,0-4.127,0.081-5.709,1.854c-0.602,0.675-1.124,1.402-1.621,2.147
				c-0.226-0.015-0.449-0.019-0.67-0.002c-3.221,0.247-4.975,2.915-5.061,5.909c0.031-1.109-0.154,1.465-0.18,1.698
				c-0.174,1.603-0.309,3.202-0.398,4.812c-0.17,3.07,0.013,6.045,1.467,8.813c2.355,4.487,7.977,6.493,12.378,3.94
				c3.683-2.137,4.596-7.642,5.09-11.443c0.544-4.186,0.612-8.451,0.612-12.668C312.799,352.671,309.699,350.77,306.889,350.77z"/>
		</g>
	</g>
	<g>
		<g>
			<path d="M356.602,261.255c-1.26-3.965-5.337-7.391-9.56-7.291c-6.799,0.161-8.15,7.079-10.374,12.295
				c-0.1,0.174-0.195,0.355-0.283,0.549c-0.151,0.333-0.3,0.674-0.443,1.019c-0.178,0.341-0.361,0.67-0.557,0.981
				c-0.522,0.835-0.697,1.783-0.615,2.724c-0.305,1.599-0.306,3.229,0.268,4.802c1.156,3.174,4.568,5.082,7.884,4.518
				c5.53-0.94,10.453-5.343,12.9-10.281C357.264,267.657,357.588,264.353,356.602,261.255z"/>
		</g>
	</g>
	<g>
		<g>
			<path d="M219.382,408.628c-4.112-3.868-11.407-4.02-14.38,1.359c-2.688,4.861-1.123,11.031,0.119,16.086
				c0.336,1.367,1.018,2.312,1.877,2.903c1.904,3.935,4.81,7.376,7.867,9.205c2.501,1.496,6.221,0.102,7.375-2.479
				C225.574,428.244,225.732,414.603,219.382,408.628z"/>
		</g>
	</g>
	<g>
		<g>
			<path d="M251.687,329.383c-0.583-3.468-2.465-7.008-6.325-7.526c-3.932-0.529-7.289,1.891-8.85,5.386
				c-1.59,3.562-1.947,8.104-1.489,12.34c-0.05,0.202-0.09,0.409-0.108,0.623c-0.334,3.813-0.334,8.448,3.666,10.433
				c3.648,1.809,7.432-0.4,9.526-3.423c2.149-3.099,3.582-6.763,3.696-10.558c-0.083,2.756,0.087-1.463,0.059-0.984
				c0.04-0.69,0.07-1.381,0.089-2.073C251.988,332.187,251.921,330.777,251.687,329.383z"/>
		</g>
	</g>
	<g>
		<g>
			<path d="M289.385,271.808c-0.35,0.594-0.637,1.208-0.896,1.831c-1.213,0.667-2.185,1.834-2.574,3.566
				c-1.136,5.045-0.922,9.854,0.207,14.868c0.859,3.818,7.104,5.071,9.324,1.812c4.114-6.037,4.348-12.961,4.352-20.055
				C299.801,267.956,291.914,267.511,289.385,271.808z"/>
		</g>
	</g>
	<g>
		<g>
			<path d="M191.873,264.911c-2.502-3.738-7.533-4.348-10.646-1.012c-2.561,2.744-2.62,7.375-2.473,11.126
				c-0.068,4.229,0.226,8.527,3.928,11.361c2.135,1.635,6.012,2.104,7.764-0.501C194.444,279.941,196.128,271.268,191.873,264.911z"
				/>
		</g>
	</g>
	<g>
		<g>
			<path d="M190.943,339.123c-2.635-2.229-7.059-1.612-8.559,1.685c-0.454,1-0.785,1.969-1.023,2.945
				c-0.926,0.953-1.535,2.266-1.533,3.926c0.007,6.5,0.988,12.928,7.037,16.503c2.521,1.491,6.197,0.102,7.375-2.479
				C197.377,354.82,197.086,344.318,190.943,339.123z"/>
		</g>
	</g>
	<g>
		<g>
			<path d="M131.361,393.856c-1.736-0.395-3.276,0.111-4.428,1.107c-2.673,0.29-5.226,2.258-5.105,5.715
				c0.285,8.253,5.254,15.175,12.037,19.503c3.846,2.454,7.934-1.619,7.932-5.351C141.793,406.754,140.881,396.02,131.361,393.856z"
				/>
		</g>
	</g>
	<g>
		<g>
			<path d="M273.76,414.328c-2.568-1.566-6.122-0.024-7.375,2.479l-3,6c-0.883,1.767-0.757,3.418-0.049,4.746
				c-0.123,3.262,0.439,6.543,1.785,9.52c1.509,3.337,6.732,5.512,9.324,1.812C279.193,432.108,282.26,419.513,273.76,414.328z"/>
		</g>
	</g>
	<g>
		<g>
			<path d="M128.18,219.624c-5.236,5.51-8.857,13.143-10.266,20.581c-0.934,4.925,4.429,7.987,8.475,5.609
				c1.013-0.595,1.885-1.308,2.648-2.1c0.351-0.062,0.714-0.148,1.094-0.269c2.834-0.897,3.838-3.242,3.554-5.506
				c0.028-0.369,0.043-0.775,0.054-0.806c0.502-1.437,1.051-2.858,1.572-4.288c1.209-3.311,2.314-6.48,2.486-10.016
				C138.047,217.72,131.104,216.548,128.18,219.624z"/>
		</g>
	</g>
	<g>
		<g>
			<path d="M395.361,165.856c-0.869-0.224-1.689-0.198-2.439,0.005c-0.168-0.471-0.316-0.944-0.418-1.425
				c-0.624-2.936-4.456-4.271-7.01-3.373c-3.094,1.087-3.996,4.077-3.373,7.01c0.967,4.545,3.938,8.705,7.562,12.265
				c0.129,0.577,0.27,1.155,0.438,1.735c0.881,3.06,3.455,4.006,5.85,3.51c1.322,0.949,2.639,1.821,3.895,2.599
				c2.984,1.847,7.367-0.552,7.846-3.877C408.922,175.886,403.575,167.97,395.361,165.856z"/>
		</g>
	</g>
	<g>
		<g>
			<path d="M255.866,252.268c-0.413-2.954-0.653-6.796-2.577-9.261c-1.627-2.083-4.32-3.364-6.953-2.359
				c-1.772,0.676-2.93,1.906-3.824,3.535c-1.145,2.083-1.596,4.756-1.979,7.083c-0.154,0.939-0.274,1.889-0.378,2.84
				c-0.13,0.347-0.214,0.713-0.241,1.1c-0.213,3.045-0.513,6.655,0.891,9.499c0.852,1.727,1.85,3.18,3.646,4.057
				c1.576,0.77,3.689,0.939,5.316,0.203C255.881,266.195,256.686,258.128,255.866,252.268z"/>
		</g>
	</g>
	<g>
		<g>
			<path d="M91.76,345.328c-2.835-1.803-7.573,0.511-7.846,3.877c-0.801,9.866,3.041,16.851,7.839,25.125
				c0.476,0.821,1.053,1.417,1.684,1.827c0.378,0.428,0.785,0.842,1.245,1.229c2.976,2.511,8.537,1.218,9.029-3.082
				C104.947,363.522,101.232,351.35,91.76,345.328z"/>
		</g>
	</g>
</g>
</svg>
