<?xml version="1.0" encoding="utf-8"?>
<!-- Generator: Adobe Illustrator 16.0.3, SVG Export Plug-In . SVG Version: 6.00 Build 0)  -->
<!DOCTYPE svg PUBLIC "-//W3C//DTD SVG 1.1//EN" "http://www.w3.org/Graphics/SVG/1.1/DTD/svg11.dtd">
<svg version="1.1" id="Layer_1" xmlns="http://www.w3.org/2000/svg" xmlns:xlink="http://www.w3.org/1999/xlink" x="0px" y="0px"
	 width="512px" height="512px" viewBox="0 0 512 512" style="enable-background:new 0 0 512 512;" xml:space="preserve">
<style type="text/css">
<![CDATA[
	.st0{fill:#127274;}
	.st1{fill:#14B6B9;}
	.st2{fill:#1E4384;}
	.st3{fill:#EF4754;}
	.st4{fill:#EF4823;}
	.st5{fill:#BCBCBC;}
	.st6{fill:#F6851F;}
	.st7{fill:#C56528;}
	.st8{fill:#FCBF95;}
	.st9{fill:#FEBF10;}
	.st10{fill:none;}
	.st11{fill:#010101;}
	.st12{fill:#3AB37C;}
	.st13{fill:#D6E5E5;}
	.st14{fill:#71C598;}
	.st15{fill:#74CCCF;}
]]>
</style>
<g>
	<g>
		<g>
			<path class="st13" d="M197.139,364.766c-0.056,0.009-0.11,0.02-0.166,0.027c0.09,0,0.184,0.004,0.319,0.017
				C197.221,364.791,197.17,364.776,197.139,364.766z"/>
		</g>
	</g>
	<g>
		<g>
			<path class="st13" d="M196.686,364.817c0.097-0.008,0.191-0.014,0.287-0.024C196.788,364.789,196.698,364.801,196.686,364.817z"
				/>
		</g>
	</g>
	<g>
		<g>
			<path class="st13" d="M372.155,366.927c-3.142,0.522-6.264,1.182-9.255,2.233c0.209,0.616,0.321,1.305,0.299,2.072
				c-0.094,3.346,0.412,6.767,0.887,10.066c0.281,1.968,0.57,3.944,1.01,5.885c0.125,0.553,0.258,1.111,0.406,1.662
				c0.376,0.451,0.684,0.96,0.916,1.502c3.592-0.048,7.199-0.211,10.809-0.479c0.467-0.265,0.926-0.54,1.377-0.814
				C376.998,381.537,374.473,374.258,372.155,366.927z"/>
		</g>
	</g>
	<g>
		<g>
			<path class="st13" d="M216.547,342.334c-1.085-0.42-2.184-0.801-3.297-1.139c-4.752-1.475-6.854-1.932-10.033,2.267
				c-2.428,3.201-5.22,6.319-6.393,10.212c1.618-0.066,3.354,0.206,4.938,0.607c1.796,0.457,3.574,0.977,5.359,1.475
				c0.357,0.1,0.719,0.191,1.076,0.289c0.02-0.027,0.033-0.057,0.055-0.084c2.348-3.348,5.352-6.145,7.787-9.416
				c0.544-0.728,1.778-1.995,2.119-3.087C217.976,343.388,217.523,342.69,216.547,342.334z"/>
		</g>
	</g>
	<g>
		<g>
			<polygon class="st13" points="197.295,364.811 197.303,364.812 197.309,364.811 			"/>
		</g>
	</g>
	<g>
		<g>
			<path class="st13" d="M215.678,216.119c-0.393-0.137-0.787-0.324-1.184-0.568c-0.01,0.002-0.016,0.002-0.023,0.004
				c0.461,0.342-0.559,0.041,0,0c-0.006-0.004-0.009-0.008-0.014-0.01c-0.544-0.003-0.621,0-0.184,0.004
				c-0.451,0.092-1.738,0.409-1.805,0.437c-0.969,0.403-1.904,0.862-2.83,1.345c0.039,0.678-0.059,1.357-0.346,2.009
				c-0.482,1.093-0.553,2.294-0.449,3.521c1.493-0.236,2.988-0.455,4.494-0.613c1.617-0.169,3.289-0.33,4.924-0.271
				C217.41,220.02,216.549,218.065,215.678,216.119z"/>
		</g>
	</g>
	<g>
		<g>
			<path class="st13" d="M214.383,215.488c0.037,0.023,0.047,0.035,0.074,0.057c0.01,0,0.016-0.002,0.023,0
				C214.447,215.523,214.416,215.51,214.383,215.488z"/>
		</g>
	</g>
	<g>
		<g>
			<path class="st13" d="M250.438,319.662c-3.487-1.117-7.297-1.637-11-1.322c-0.461,0.604-1.086,1.143-1.899,1.576
				c-2.407,1.283,3.493,6.564,5.507,7.41c3.029,1.275,6.18,2.482,9.416,3.109c0.49,0.096,1.582,0.017,2.157,0.064
				c0.105-0.251,0.253-0.564,0.299-0.809C255.723,325.416,254.854,321.076,250.438,319.662z"/>
		</g>
	</g>
	<g>
		<g>
			<path class="st13" d="M229.381,381.804c-0.16-0.972-0.197-2.401-0.647-3.288c-0.013-0.024-0.021-0.043-0.032-0.064
				c-2.222,0-4.26,0.641-6.256,1.651c-3.623,1.834-7.74,4.659-11.974,5.355c1.173,5.302,1.304,10.609,1.429,16.075
				c2.846-0.947,5.673-1.946,8.436-3.105c3.104-1.3,7.58-2.543,10.062-4.922C232.167,391.811,229.775,384.188,229.381,381.804z"/>
		</g>
	</g>
	<g>
		<g>
			<path class="st13" d="M214.48,215.545c0.004,0.002,0.01,0.004,0.014,0.006c0.034-0.002,0.05-0.006,0.096-0.006H214.48z"/>
		</g>
	</g>
	<g>
		<g>
			<path class="st13" d="M207.551,176.821c2.328,3.551,4.467,7.14,6.434,10.616c9.719,17.182,16.662,35.553,24.805,53.451
				c1.252-4.12,2.643-8.198,4.201-12.208c6.9-17.767,15.798-35.404,27.643-50.435c1.643-2.084,3.318-4.15,5.01-6.204
				C252.938,169.118,229.895,172.4,207.551,176.821z"/>
		</g>
	</g>
	<g>
		<g>
			<path class="st13" d="M168.578,364.628c-0.393-0.379-0.753-0.76-1.103-1.146c-0.104,0.074-0.2,0.158-0.3,0.237
				c0.328,2.104-0.393,4.376-2.694,5.78c-0.003,0.1-0.007,0.211-0.008,0.361c-0.003,0.598,0.009,1.356,0.267,1.917
				c0.254,0.548,0.473,1.075,0.826,1.532c0.125,0.033,0.27,0.064,0.439,0.068c2.938,0.057,5.959-0.707,8.754-1.912
				C173.088,368.873,170.582,366.562,168.578,364.628z"/>
		</g>
	</g>
	<g>
		<g>
			<path class="st9" d="M411.375,148.623c-11.996-4.335-22.723-11.744-34.059-17.471c-13.404-6.771-27.803-9.922-42.658-11.678
				c-28.008-3.308-56.246-1.863-84.116,2c-1.663,2.002-4.546,3.176-7.493,1.756c-7.645-3.689-18.598-2.283-26.674-1.322
				c-11.039,1.316-21.963,3.493-32.77,6.082c-11.883,2.846-23.586,6.101-35.113,10.182c-11.995,4.247-23.965,8.791-36.373,11.633
				c-0.56,1.498-1.832,2.708-3.961,3.053C90.271,155.757,75.605,169,65.021,183.02c-10.899,14.434-20.001,31.26-23.667,49.114
				c-6.535,31.813-3.121,66.041,10.318,95.667c16.764,36.953,48.987,67.646,90.234,73.896c18.688,2.832,40.264,2.344,58.781-3.686
				c-0.098-5.021-0.528-9.965-2.682-14.772c-1.391-3.101-0.066-7.583,3.755-8.147l0.679-0.1c0.688-0.102,1.409-0.09,2.115,0.025
				c0.893-0.601,2.047-0.914,3.467-0.76c2.764,0.299,6.699-2.992,9.164-4.175c3.571-1.71,7.623-3.203,11.664-2.98
				c4.254,0.235,6.957,2.011,8.732,4.643c5.088-6.39,9.522-13.427,13.605-20.735c0.213-0.383,0.449-0.717,0.701-1.011
				c-2.051-2.899-3.939-5.917-5.697-9.025c-5.384-1.483-10.596-4.223-13.681-6.901c-5.782-5.021-8.701-14.324-4.501-20.443
				c0.105-2.27,1.367-4.523,4.087-5.396c0.653-0.21,1.349-0.391,2.062-0.559c-3.261-17.644-2.569-35.698,1.119-53.182
				c-1.602-0.157-3.117-1.065-4.035-3.003c-2.795-5.904-5.402-11.889-7.977-17.884l-0.595,0.087
				c-0.917,0.136-1.758,0.072-2.513-0.141c-1.85-0.141-3.707-0.381-5.586-0.137c-3.033,0.393-6.039,0.955-9.061,1.424
				c-2.89,0.445-6.26-1.068-6.773-4.266c-0.766-4.767-2.254-10.092-0.207-14.736c0.35-0.793,0.82-1.505,1.383-2.102
				c-0.252-2.047,0.511-4.211,2.802-5.527c2.335-1.342,4.978-2.639,7.688-3.358c-1.484-3.009-3.021-5.992-4.646-8.939
				c-7.37-13.38-18.146-32.143-33.88-37.661c-1.023,0.34-2.23,0.305-3.57-0.291c-0.951-0.424-1.926-0.806-2.91-1.17
				c-1-0.105-1.846-0.42-2.551-0.869c-3.674-1.142-7.494-1.889-11.281-2.204c-5.725-0.479-11.145,0.499-16.578,2.37
				c-3.58,1.236-9,3.131-11.072,6.609c-2.867,4.816,11.578,10.627,18.74,13.456c3.509-1.365,6.615,0.743,7.779,3.447
				c5.729,2.796,11.244,6.071,15.447,10.975c6.719,7.837,9.714,17.28,13.783,26.567c6.063,13.842,12.436,27.899,16.672,42.495
				c6.283-5.312,15.763-10.3,23.984-10.085c8.518,0.223,10.322,7.831,10.346,14.955c0.029,7.828-1.587,15.928-8.908,20.124
				c-5.455,3.126-13.424,6.417-18.721,1.44c-1.197-1.125-1.697-2.38-1.699-3.594c-0.191-0.16-0.38-0.326-0.559-0.498
				c2.21,23.159-6.545,45.444-26.279,58.712c-38.416,25.829-91.611-7.253-99.227-49.312c-4.277-23.615,2.908-48.027,15.285-68.168
				c9.816-15.972,23.127-30.684,39.293-40.551c-7.924-3.645-22.088-12.2-16.891-23.241c4.416-9.384,15.227-13.708,24.82-15.862
				c10.04-2.253,20.912-1.302,30.631,2.271c13.066,2.162,23.49,10.7,31.896,21.027c0.357-0.148,0.744-0.271,1.168-0.357
				c25.549-5.191,52.385-9.389,78.389-5.238c1.463,0.232,2.601,0.899,3.432,1.795c5.622-6.361,11.49-12.512,17.648-18.316
				c8.83-8.325,20.533-19.902,33.438-20.617c16.242-0.9,15.439,20.777,13.652,31.33c-0.961,5.672-2.539,11.13-4.535,16.438
				c1.682,0.369,3.32,0.762,4.854,1.082c5.615,1.176,11.188,2.58,16.629,4.398c10.166,3.395,20.123,7.799,29.213,13.506
				c36.656,23.02,66.391,73.695,45.969,116.447c7.295-1.419,17.082-6.529,23.078,0.773c5.887,7.167,4.735,16.527,6.715,25.059
				c0.432,1.861-0.162,4.203-1.705,5.432c-7.549,6.016-18.096,9.967-27.791,9.826c-2.495-0.037-4.73-1.999-5.26-4.398
				c-1.706-7.707-2.42-15.56-3.471-23.369c-23.093,28.393-66.656,33.324-98.182,14.975c-2.357,3.643-5.53,6.963-9.156,8.874
				c-5.588,2.944-12.047,2.145-16.643-2.378c-4.143-4.078-5.6-9.45-6.035-15.053c-0.432-1.07-0.496-2.343,0.006-3.766
				c1.257-3.553,3.133-7.867,5.538-11.887c-9.54-13.032-15.763-28.602-15.774-44.76c-0.006-8.727,1.584-17.086,4.182-25.152
				c-1.846,0.271-3.711,0.174-5.488-0.473c-2.506-0.914-4.412-2.473-5.793-4.43c-0.238-0.162-0.473-0.34-0.701-0.547
				c-8.549-7.782-8.707-19.146,1.173-25.758c7.009-4.689,18.849-6.613,25.56-0.343c1.188-2.065,2.389-4.118,3.595-6.156
				c4.737-8.005,9.968-16.339,14.312-25.039c-1.602-3.052-0.793-7.288,3.543-7.929l0.092-0.014
				c3.625-8.771,5.997-17.906,5.799-27.435c-0.055-2.583-0.475-5.642-1.307-7.089c-0.252-0.438-0.203-0.463-0.428-0.605
				c0.31,0.198-0.975-0.225-0.504-0.24c-1.197-0.057-3.149,0.313-4.545,0.937c-2.557,1.138-4.988,2.54-7.305,4.111
				c-12.449,8.452-23.11,20.054-32.999,31.288c-8.636,9.811-16.364,19.871-22.878,31.221
				c-17.51,30.512-29.131,68.953-22.481,103.899c6.382,0.484,12.737,2.546,16.472,6.692c5.748,6.384,7.396,21.812-1.039,26.845
				c-0.508,0.302-1.048,0.556-1.613,0.772c1.104,1.668,2.264,3.317,3.5,4.941c21.609,28.374,56.68,41.911,91.514,43.938
				c-0.297-1.267-0.514-2.517-0.689-3.611c-0.822-5.132-1.705-10.546-1.558-15.757c0.059-2.081,1.021-3.523,2.36-4.357
				c-1.289-2.493-0.9-5.607,2.473-6.9c5.91-2.266,11.893-3.441,18.135-4.369c3.201-0.475,5.855,1.133,6.773,4.265
				c2.838,9.688,6.471,19.171,8.365,29.104c26.566-3.917,52.516-14.008,72.812-31.326
				C533.117,297.146,467.589,192.671,411.375,148.623z M185.867,350.791c1.746-6.992,8.027-15.717,14.01-19.736
				c5.967-4.012,14.004-2.292,20.171,0.518c5.854,2.666,11.748,7.9,8.886,15.101c-2.428,6.103-7.49,10.173-11.182,15.438
				c-0.691,0.984-1.53,1.634-2.428,2.013c-0.833,2.25-3.086,4.088-5.572,3.777c-2.646-0.332-5.211-1.123-7.77-1.846
				c-1.395-0.393-2.787-0.801-4.197-1.125c-0.221-0.052-0.373-0.09-0.482-0.117c-0.422,0.062-0.637,0.036-0.617,0.005
				c-3.107,0.249-6.322-1.688-5.916-5.672c0.038-0.379,0.098-0.731,0.174-1.063C187.842,357.603,184.878,354.753,185.867,350.791z
				 M153.829,363.836c2.243-5.791,13.63-18.914,20.095-10.344c4.727,6.264,11.803,11.125,13.535,19.27
				c0.57,2.676-0.717,4.834-2.888,6.264c-6.698,4.41-20.36,9.361-26.947,2.351c-3.604-3.835-5.144-9.357-4.022-14.163
				C153.314,366.23,153.343,365.09,153.829,363.836z M286.892,301.476c-6.946,6.976-17.987,7.407-25.655,1.366
				c-1.332-1.051-2.01-2.381-2.203-3.742c-5.682-5.88-6.312-14.76,0.873-20.592c6.734-5.469,17.309-7.533,24.471-1.537
				C292.051,283.396,294.549,293.787,286.892,301.476z"/>
		</g>
	</g>
	<g>
		<g>
			<path class="st13" d="M455.484,316.534c-1.719-2.814-9.652,1.026-12.691,1.786c0.824,6.156,1.457,12.339,2.524,18.455
				c4.524-0.707,9.241-2.506,13.028-4.928C457.841,326.643,458.018,320.682,455.484,316.534z"/>
		</g>
	</g>
	<g>
		<g>
			<path class="st13" d="M325.883,323.71c-0.822-2.526-1.791-5.004-2.857-7.438c-0.523-1.188-1.164-2.814-1.846-4.262
				c-0.414,0.461-0.807,0.939-1.18,1.453c-2.754,3.799-5.432,7.971-7.148,12.387c0.049,0.262,0.088,0.53,0.104,0.812
				c0.15,2.551,0.894,7.229,3.875,8.131c2.523,0.762,5.293-2.621,6.658-4.607c1.043-1.518,2.129-3.086,2.662-4.871
				C326.037,325.58,326.143,324.502,325.883,323.71z"/>
		</g>
	</g>
	<g>
		<g>
			<path class="st13" d="M303.166,218.93c-0.287-0.594-0.355-0.74-0.924-1.049c-0.463-0.254-3.133-0.724-4.701-0.465
				c-2.637,0.437-4.678,1.057-6.877,2.531c0.016-0.012-1.773,1.721-1.57,1.427c-0.139,0.201-0.256,0.401-0.354,0.587
				c1.983,0.244,3.676,1.576,3.939,4.27c0.133,1.365,0.226,2.861,0.941,4.043c0.037-0.006,0.105-0.006,0.268-0.008
				c1.234-0.014,3.6-1.234,5.227-2.787c1.934-1.84,3.541-4.053,4.063-6.721C303.271,220.283,302.975,218.535,303.166,218.93z"/>
		</g>
	</g>
	<g>
		<g>
			<path class="st13" d="M277.584,285.957c-2.77-1.9-6.797-1.734-9.49,0.451c-0.789,0.641-1.469,1.189-1.904,1.914
				c-0.156,0.258-0.443,1.198-0.414,0.711c-0.059,0.959,0.494,1.738,2.088,2.852c1.236,0.863,1.947,1.959,2.255,3.113
				c2.882,1.262,6.083,1.198,8.62-1.352C281.266,291.11,280.723,288.108,277.584,285.957z"/>
		</g>
	</g>
	<g>
		<g>
			<path class="st13" d="M219.366,263.989c-0.017-0.997,0.038-2.046-0.114-3.046c-1.289,0.135-2.621,0.467-3.748,0.914
				c-3.233,1.285-6.354,2.63-9.207,4.48c0.168,0.486,0.324,0.98,0.463,1.484c0.41,1.485,0.736,3.002,1.191,4.473
				c0.291,0.941,1.236,1.955-0.163,1.289c1.64,0.779,2.645,2.055,3.13,3.473c0.506-0.133,1.011-0.27,1.506-0.441
				c1.391-0.586,3.243-1.182,4.389-2.199C219.635,271.908,219.428,267.453,219.366,263.989z"/>
		</g>
	</g>
	<g>
		<g>
			<path class="st11" d="M214.48,215.545c-0.008-0.002-0.014,0-0.023,0c0.005,0.002,0.008,0.006,0.014,0.01
				c0.008-0.002,0.014-0.002,0.023-0.004C214.49,215.549,214.484,215.547,214.48,215.545z"/>
		</g>
	</g>
	<g>
		<g>
			<path class="st11" d="M214.471,215.555C213.912,215.596,214.932,215.896,214.471,215.555L214.471,215.555z"/>
		</g>
	</g>
	<g>
		<g>
			<path class="st11" d="M470.701,196.957c-14.551-21.602-32.191-41.301-52.678-57.436c-0.229-0.222-0.488-0.427-0.77-0.613
				c-0.025-0.02-0.051-0.04-0.076-0.062c-0.929-0.724-1.863-1.079-2.758-1.153c-12.479-4.611-23.659-12.61-35.627-18.34
				c-13.709-6.565-28.625-9.291-43.619-11.18c-30.055-3.787-60.738-1.605-90.605,2.753c-0.631,0.093-1.186,0.265-1.672,0.495
				c-7.166-1.906-14.796-1.758-22.209-1.203c-12.146,0.912-24.148,3.202-36.012,5.899c-11.863,2.696-23.613,5.819-35.123,9.771
				c-15.902,5.458-31.574,11.875-48.273,14.5c-2.354,0.369-3.664,1.799-4.115,3.514c-18.852,6.193-33.917,21.863-45.103,37.704
				c-13.071,18.513-20.716,39.066-23.812,61.386c-5.756,41.518,5.609,85.092,30.285,118.833
				c23.436,32.042,60.178,51.79,99.934,52.63c13.963,0.295,28.709-0.992,42.492-4.883c0.504,3.148,3.243,6.304,6.834,5.146
				c10.076-3.248,21.778-6.212,30.232-12.856c5.295-4.16,4.312-10.865,3.287-16.839c7.02-7.714,12.902-16.554,18.079-25.591
				c12.858,14.465,29.556,25.595,48.474,32.664c18.4,6.879,38.277,9.954,58.143,9.708c0.373,0.228,0.789,0.427,1.254,0.585
				c4.203,1.423,8.121,0.445,11.889-1.229c14.145-1.212,28.115-4.068,41.368-8.414c37.116-12.17,72.048-38.006,81.399-77.74
				C511.625,273.776,493.395,230.645,470.701,196.957z M230.398,393.506c-2.482,2.379-6.959,3.622-10.062,4.922
				c-2.763,1.159-5.59,2.158-8.436,3.105c-0.125-5.466-0.256-10.773-1.429-16.075c4.233-0.696,8.351-3.521,11.974-5.355
				c1.996-1.011,4.034-1.651,6.256-1.651c0.012,0.021,0.02,0.04,0.032,0.064c0.45,0.887,0.487,2.316,0.647,3.288
				C229.775,384.188,232.167,391.811,230.398,393.506z M254.917,329.691c-0.046,0.244-0.193,0.558-0.299,0.809
				c-0.575-0.048-1.667,0.031-2.157-0.064c-3.236-0.627-6.387-1.834-9.416-3.109c-2.014-0.846-7.914-6.127-5.507-7.41
				c0.813-0.434,1.438-0.973,1.899-1.576c3.703-0.314,7.513,0.205,11,1.322C254.854,321.076,255.723,325.416,254.917,329.691z
				 M209.639,217.33c0.926-0.482,1.861-0.941,2.83-1.345c0.066-0.027,1.354-0.345,1.805-0.437c-0.438-0.004-0.36-0.007,0.184-0.004
				c-0.027-0.021-0.037-0.033-0.074-0.057c0.033,0.021,0.064,0.035,0.098,0.057h0.109c-0.046,0-0.062,0.004-0.096,0.006
				c0.396,0.244,0.791,0.432,1.184,0.568c0.871,1.946,1.732,3.9,2.584,5.856c-1.635-0.06-3.307,0.102-4.924,0.271
				c-1.506,0.158-3.001,0.377-4.494,0.613c-0.104-1.227-0.033-2.428,0.449-3.521C209.58,218.688,209.678,218.008,209.639,217.33z
				 M213.984,187.438c-1.967-3.477-4.105-7.065-6.434-10.616c22.344-4.421,45.387-7.703,68.092-4.779
				c-1.691,2.054-3.367,4.12-5.01,6.204c-11.845,15.03-20.742,32.668-27.643,50.435c-1.559,4.01-2.949,8.088-4.201,12.208
				C230.646,222.99,223.703,204.619,213.984,187.438z M377.227,389.869c-3.609,0.268-7.217,0.431-10.809,0.479
				c-0.232-0.542-0.54-1.051-0.916-1.502c-0.148-0.551-0.281-1.109-0.406-1.662c-0.439-1.94-0.729-3.917-1.01-5.885
				c-0.475-3.3-0.98-6.721-0.887-10.066c0.022-0.768-0.09-1.456-0.299-2.072c2.991-1.052,6.113-1.711,9.255-2.233
				c2.317,7.331,4.843,14.61,6.448,22.128C378.152,389.329,377.693,389.604,377.227,389.869z M462.816,357.135
				c-20.297,17.318-46.246,27.409-72.812,31.326c-1.895-9.934-5.527-19.416-8.365-29.104c-0.918-3.132-3.572-4.739-6.773-4.265
				c-6.242,0.928-12.225,2.104-18.135,4.369c-3.373,1.293-3.762,4.407-2.473,6.9c-1.34,0.834-2.302,2.276-2.36,4.357
				c-0.147,5.211,0.735,10.625,1.558,15.757c0.176,1.095,0.393,2.345,0.689,3.611c-34.834-2.027-69.904-15.564-91.514-43.938
				c-1.236-1.624-2.396-3.273-3.5-4.941c0.565-0.217,1.105-0.471,1.613-0.772c8.435-5.032,6.787-20.461,1.039-26.845
				c-3.734-4.146-10.09-6.208-16.472-6.692c-6.649-34.946,4.972-73.388,22.481-103.899c6.514-11.35,14.242-21.41,22.878-31.221
				c9.889-11.234,20.55-22.836,32.999-31.288c2.316-1.571,4.748-2.974,7.305-4.111c1.396-0.623,3.348-0.993,4.545-0.937
				c-0.471,0.016,0.813,0.438,0.504,0.24c0.225,0.143,0.176,0.168,0.428,0.605c0.832,1.447,1.252,4.506,1.307,7.089
				c0.198,9.528-2.174,18.663-5.799,27.435l-0.092,0.014c-4.336,0.641-5.145,4.877-3.543,7.929
				c-4.344,8.7-9.574,17.034-14.312,25.039c-1.206,2.038-2.407,4.091-3.595,6.156c-6.711-6.271-18.551-4.347-25.56,0.343
				c-9.88,6.611-9.722,17.976-1.173,25.758c0.229,0.207,0.463,0.385,0.701,0.547c1.381,1.957,3.287,3.516,5.793,4.43
				c1.777,0.646,3.643,0.743,5.488,0.473c-2.598,8.066-4.188,16.426-4.182,25.152c0.012,16.158,6.234,31.728,15.774,44.76
				c-2.405,4.02-4.281,8.334-5.538,11.887c-0.502,1.423-0.438,2.695-0.006,3.766c0.436,5.603,1.893,10.975,6.035,15.053
				c4.596,4.522,11.055,5.322,16.643,2.378c3.626-1.911,6.799-5.231,9.156-8.874c31.525,18.35,75.089,13.418,98.182-14.975
				c1.051,7.81,1.765,15.662,3.471,23.369c0.529,2.399,2.765,4.361,5.26,4.398c9.695,0.141,20.242-3.811,27.791-9.826
				c1.543-1.229,2.137-3.57,1.705-5.432c-1.979-8.531-0.828-17.892-6.715-25.059c-5.996-7.303-15.783-2.192-23.078-0.773
				c20.422-42.752-9.312-93.428-45.969-116.447c-9.09-5.707-19.047-10.111-29.213-13.506c-5.441-1.818-11.014-3.223-16.629-4.398
				c-1.533-0.32-3.172-0.713-4.854-1.082c1.996-5.308,3.574-10.766,4.535-16.438c1.787-10.553,2.59-32.23-13.652-31.33
				c-12.904,0.715-24.607,12.292-33.438,20.617c-6.158,5.805-12.026,11.955-17.648,18.316c-0.831-0.896-1.969-1.562-3.432-1.795
				c-26.004-4.15-52.84,0.047-78.389,5.238c-0.424,0.087-0.811,0.209-1.168,0.357c-8.406-10.327-18.83-18.865-31.896-21.027
				c-9.719-3.573-20.591-4.524-30.631-2.271c-9.594,2.154-20.404,6.479-24.82,15.862c-5.197,11.041,8.967,19.597,16.891,23.241
				c-16.166,9.867-29.477,24.579-39.293,40.551c-12.377,20.141-19.562,44.553-15.285,68.168
				c7.615,42.059,60.811,75.141,99.227,49.312c19.734-13.268,28.489-35.553,26.279-58.712c0.179,0.172,0.367,0.338,0.559,0.498
				c0.002,1.214,0.502,2.469,1.699,3.594c5.297,4.977,13.266,1.686,18.721-1.44c7.321-4.196,8.938-12.296,8.908-20.124
				c-0.023-7.124-1.828-14.732-10.346-14.955c-8.222-0.215-17.701,4.772-23.984,10.085c-4.236-14.596-10.608-28.653-16.672-42.495
				c-4.069-9.287-7.064-18.73-13.783-26.567c-4.203-4.903-9.718-8.179-15.447-10.975c-1.164-2.704-4.271-4.812-7.779-3.447
				c-7.162-2.829-21.607-8.64-18.74-13.456c2.072-3.479,7.492-5.373,11.072-6.609c5.434-1.871,10.854-2.85,16.578-2.37
				c3.787,0.315,7.607,1.062,11.281,2.204c0.705,0.449,1.551,0.764,2.551,0.869c0.984,0.364,1.959,0.746,2.91,1.17
				c1.34,0.596,2.547,0.631,3.57,0.291c15.733,5.519,26.51,24.281,33.88,37.661c1.624,2.947,3.161,5.931,4.646,8.939
				c-2.711,0.72-5.354,2.017-7.688,3.358c-2.291,1.316-3.054,3.48-2.802,5.527c-0.562,0.597-1.033,1.309-1.383,2.102
				c-2.047,4.645-0.559,9.97,0.207,14.736c0.514,3.197,3.884,4.711,6.773,4.266c3.021-0.469,6.027-1.031,9.061-1.424
				c1.879-0.244,3.736-0.004,5.586,0.137c0.755,0.213,1.596,0.276,2.513,0.141l0.595-0.087c2.574,5.995,5.182,11.979,7.977,17.884
				c0.918,1.938,2.434,2.846,4.035,3.003c-3.688,17.483-4.38,35.538-1.119,53.182c-0.713,0.168-1.408,0.349-2.062,0.559
				c-2.72,0.872-3.981,3.126-4.087,5.396c-4.2,6.119-1.281,15.423,4.501,20.443c3.085,2.679,8.297,5.418,13.681,6.901
				c1.758,3.108,3.646,6.126,5.697,9.025c-0.252,0.294-0.488,0.628-0.701,1.011c-4.083,7.309-8.518,14.346-13.605,20.735
				c-1.775-2.632-4.479-4.407-8.732-4.643c-4.041-0.223-8.093,1.271-11.664,2.98c-2.465,1.183-6.4,4.474-9.164,4.175
				c-1.42-0.154-2.574,0.159-3.467,0.76c-0.706-0.115-1.428-0.127-2.115-0.025l-0.679,0.1c-3.821,0.564-5.146,5.047-3.755,8.147
				c2.153,4.808,2.584,9.751,2.682,14.772c-18.518,6.029-40.094,6.518-58.781,3.686c-41.247-6.25-73.471-36.943-90.234-73.896
				c-13.439-29.626-16.854-63.854-10.318-95.667c3.666-17.854,12.768-34.681,23.667-49.114
				c10.585-14.02,25.251-27.263,43.138-30.162c2.129-0.345,3.401-1.555,3.961-3.053c12.408-2.842,24.378-7.386,36.373-11.633
				c11.527-4.081,23.23-7.336,35.113-10.182c10.807-2.589,21.73-4.766,32.77-6.082c8.076-0.961,19.029-2.367,26.674,1.322
				c2.947,1.42,5.83,0.246,7.493-1.756c27.87-3.863,56.108-5.308,84.116-2c14.855,1.756,29.254,4.907,42.658,11.678
				c11.336,5.727,22.062,13.136,34.059,17.471C467.589,192.671,533.117,297.146,462.816,357.135z M318.5,299.848
				c-1.344,0.617-2.621,1.475-3.841,2.486c-4.511-6.896-7.93-14.491-9.96-22.414c-5.885-22.959,4.119-44.527,15.35-64.062
				c6.311-10.975,13.328-21.896,18.887-33.398c1.156,0.283,2.275,0.586,3.139,0.732c2.826,0.483,5.627,1.139,8.414,1.803
				c6.006,1.436,11.895,3.323,17.664,5.514c10.81,4.107,20.903,9.887,30.055,16.942c18.602,14.338,31.691,36.019,36.189,59.028
				c4.115,21.059-3.711,42.31-20.258,55.809c-17.531,14.301-43.029,16.371-63.803,8.887c-4.551-1.642-8.887-3.793-12.963-6.357
				c-0.064-2.459-0.828-4.82-1.857-7.605C333.016,310.448,328.594,295.211,318.5,299.848z M326.15,325.314
				c-0.533,1.785-1.619,3.354-2.662,4.871c-1.365,1.986-4.135,5.369-6.658,4.607c-2.981-0.902-3.725-5.58-3.875-8.131
				c-0.016-0.282-0.055-0.551-0.104-0.812c1.717-4.416,4.395-8.588,7.148-12.387c0.373-0.514,0.766-0.992,1.18-1.453
				c0.682,1.447,1.322,3.073,1.846,4.262c1.066,2.435,2.035,4.912,2.857,7.438C326.143,324.502,326.037,325.58,326.15,325.314z
				 M303.179,220.758c-0.522,2.668-2.13,4.881-4.063,6.721c-1.627,1.553-3.992,2.773-5.227,2.787
				c-0.162,0.002-0.23,0.002-0.268,0.008c-0.716-1.182-0.809-2.678-0.941-4.043c-0.264-2.693-1.956-4.025-3.939-4.27
				c0.098-0.186,0.215-0.386,0.354-0.587c-0.203,0.294,1.586-1.438,1.57-1.427c2.199-1.475,4.24-2.095,6.877-2.531
				c1.568-0.259,4.238,0.211,4.701,0.465c0.568,0.309,0.637,0.455,0.924,1.049C302.975,218.535,303.271,220.283,303.179,220.758z
				 M442.793,318.32c3.039-0.76,10.973-4.601,12.691-1.786c2.533,4.147,2.356,10.108,2.861,15.313
				c-3.787,2.422-8.504,4.221-13.028,4.928C444.25,330.659,443.617,324.477,442.793,318.32z M142.934,188.419
				c3.682,1.716,7.264,3.61,10.549,5.991c7.076,5.128,10.649,13.971,13.682,21.829c3.932,10.193,8.701,20.049,12.705,30.22
				c7.818,19.856,15.498,45.059,5.369,65.482c-9.387,18.927-29.67,29.835-50.484,25.645c-20.984-4.221-37.99-20.29-45.99-39.742
				c-8.561-20.814-1.244-45.914,9.053-64.627C108.068,214.583,123.654,197.834,142.934,188.419z M207.951,272.295
				c-0.455-1.471-0.781-2.987-1.191-4.473c-0.139-0.504-0.295-0.998-0.463-1.484c2.854-1.851,5.974-3.195,9.207-4.48
				c1.127-0.447,2.459-0.779,3.748-0.914c0.152,1,0.098,2.049,0.114,3.046c0.062,3.464,0.269,7.919-2.554,10.427
				c-1.146,1.018-2.998,1.613-4.389,2.199c-0.495,0.172-1,0.309-1.506,0.441c-0.485-1.418-1.49-2.693-3.13-3.473
				C209.188,274.25,208.242,273.236,207.951,272.295z"/>
		</g>
	</g>
	<g>
		<g>
			<path class="st11" d="M284.377,276.971c-7.162-5.996-17.736-3.932-24.471,1.537c-7.186,5.832-6.555,14.712-0.873,20.592
				c0.193,1.361,0.871,2.691,2.203,3.742c7.668,6.041,18.709,5.609,25.655-1.366C294.549,293.787,292.051,283.396,284.377,276.971z
				 M278.738,293.646c-2.537,2.55-5.738,2.613-8.62,1.352c-0.308-1.154-1.019-2.25-2.255-3.113
				c-1.594-1.113-2.146-1.893-2.088-2.852c-0.029,0.487,0.258-0.453,0.414-0.711c0.436-0.725,1.115-1.273,1.904-1.914
				c2.693-2.186,6.721-2.352,9.49-0.451C280.723,288.108,281.266,291.11,278.738,293.646z"/>
		</g>
	</g>
	<g>
		<g>
			<path class="st11" d="M187.459,372.762c-1.732-8.145-8.809-13.006-13.535-19.27c-6.465-8.57-17.852,4.553-20.095,10.344
				c-0.486,1.254-0.515,2.395-0.228,3.377c-1.121,4.806,0.419,10.328,4.022,14.163c6.587,7.011,20.249,2.06,26.947-2.351
				C186.742,377.596,188.029,375.438,187.459,372.762z M166.006,373.379c-0.17-0.004-0.314-0.035-0.439-0.068
				c-0.354-0.457-0.572-0.984-0.826-1.532c-0.258-0.561-0.27-1.319-0.267-1.917c0.001-0.15,0.005-0.262,0.008-0.361
				c2.302-1.404,3.022-3.677,2.694-5.78c0.1-0.079,0.195-0.163,0.3-0.237c0.35,0.386,0.71,0.767,1.103,1.146
				c2.004,1.935,4.51,4.245,6.182,6.839C171.965,372.672,168.943,373.436,166.006,373.379z"/>
		</g>
	</g>
	<g>
		<g>
			<path class="st11" d="M220.048,331.572c-6.167-2.81-14.204-4.529-20.171-0.518c-5.982,4.02-12.264,12.744-14.01,19.736
				c-0.989,3.962,1.975,6.812,5.076,7.291c-0.076,0.332-0.136,0.685-0.174,1.063c-0.406,3.983,2.809,5.921,5.916,5.672
				c0.013-0.017,0.103-0.028,0.287-0.024c0.056-0.008,0.11-0.019,0.166-0.027c0.031,0.011,0.082,0.025,0.153,0.044
				c0.001,0.001,0.002,0.001,0.002,0.001h0.015l-0.006,0.002c0.109,0.027,0.262,0.065,0.482,0.117
				c1.41,0.324,2.803,0.732,4.197,1.125c2.559,0.723,5.123,1.514,7.77,1.846c2.486,0.311,4.739-1.527,5.572-3.777
				c0.897-0.379,1.736-1.028,2.428-2.013c3.691-5.265,8.754-9.335,11.182-15.438C231.796,339.473,225.902,334.238,220.048,331.572z
				 M216.039,346.545c-2.436,3.271-5.439,6.068-7.787,9.416c-0.021,0.027-0.035,0.057-0.055,0.084
				c-0.357-0.098-0.719-0.189-1.076-0.289c-1.785-0.498-3.563-1.018-5.359-1.475c-1.584-0.401-3.319-0.674-4.938-0.607
				c1.173-3.893,3.965-7.011,6.393-10.212c3.18-4.198,5.281-3.741,10.033-2.267c1.113,0.338,2.212,0.719,3.297,1.139
				c0.977,0.356,1.429,1.054,1.611,1.124C217.817,344.55,216.583,345.817,216.039,346.545z"/>
		</g>
	</g>
	<g>
		<g>
			<path class="st11" d="M197.298,364.811c0,0-0.005,0-0.006-0.001c-0.136-0.013-0.229-0.017-0.319-0.017
				c-0.096,0.011-0.19,0.017-0.287,0.024c-0.02,0.031,0.195,0.058,0.617-0.005C197.3,364.812,197.298,364.811,197.298,364.811z"/>
		</g>
	</g>
</g>
</svg>
