<?xml version="1.0" encoding="utf-8"?>
<!-- Generator: Adobe Illustrator 16.0.3, SVG Export Plug-In . SVG Version: 6.00 Build 0)  -->
<!DOCTYPE svg PUBLIC "-//W3C//DTD SVG 1.1//EN" "http://www.w3.org/Graphics/SVG/1.1/DTD/svg11.dtd">
<svg version="1.1" id="Layer_1" xmlns="http://www.w3.org/2000/svg" xmlns:xlink="http://www.w3.org/1999/xlink" x="0px" y="0px"
	 width="512px" height="512px" viewBox="0 0 512 512" style="enable-background:new 0 0 512 512;" xml:space="preserve">
<style type="text/css">
<![CDATA[
	.st0{fill:#127274;}
	.st1{fill:#14B6B9;}
	.st2{fill:#1E4384;}
	.st3{fill:#EF4754;}
	.st4{fill:#EF4823;}
	.st5{fill:#BCBCBC;}
	.st6{fill:#F6851F;}
	.st7{fill:#C56528;}
	.st8{fill:#FCBF95;}
	.st9{fill:#FEBF10;}
	.st10{fill:none;}
	.st11{fill:#010101;}
	.st12{fill:#3AB37C;}
	.st13{fill:#D6E5E5;}
	.st14{fill:#71C598;}
	.st15{fill:#74CCCF;}
]]>
</style>
<g>
	<g>
		<g>
			<path class="st4" d="M276.047,147.223c-1.611-4.428-7.059-8.195-11.447-4.99c-4.383,3.201-5.865,8.791-4.583,13.906
				c0.931,0.096,1.877,0.551,2.736,1.496c2.906,3.199,6.476,3.875,9.7,0.482C275.039,155.396,277.458,151.096,276.047,147.223z"/>
		</g>
	</g>
	<g>
		<g>
			<path class="st4" d="M373.208,128.752c-1.455-1.74-8.531-8.635-10.724-4.543c-1.635,3.049-1.957,6.523-2.023,9.958
				c0.702,0.04,1.448,0.267,2.217,0.746c3.31,2.06,7.864,3.478,11.64,1.729C377.541,135.151,374.729,130.572,373.208,128.752z"/>
		</g>
	</g>
	<g>
		<g>
			<path class="st4" d="M320.011,63.195c-3.714-1.492-7.601,0.979-9.745,3.955c-1.79,2.483-2.519,5.395-2.26,8.27
				c0.539,0.062,1.098,0.219,1.672,0.493c3.916,1.87,11.738,5.405,13.868-0.304C325.209,71.149,325.074,65.23,320.011,63.195z"/>
		</g>
	</g>
	<g>
		<g>
			<path class="st4" d="M188.114,449.377c-2.252-5.539-3.917-11.154-5.603-16.887c-4.074-13.852-8.148-27.703-12.222-41.557
				c-3.941-13.398-7.8-27.01-12.294-40.236c-3.432-10.1-8.296-20.127-10.6-30.619c-16.019,3.195-27.594-13.705-39.719-24.338
				c1.604,7.008,4.36,13.744,7.155,20.369c3.843,9.113,7.601,18.232,10.435,27.721c5.896,19.736,11.201,39.422,18.615,58.684
				c3.934,10.217,8.094,20.345,12.411,30.404c3.182,7.414,5.762,17.301,11.516,23.23c4.679,4.822,10.759,6.625,17.175,8.024
				c2.496,0.546,5.032,0.981,7.589,1.354C192.63,459.945,190.171,454.436,188.114,449.377z"/>
		</g>
	</g>
	<g>
		<g>
			<path class="st4" d="M351.49,326.362c-0.775-0.188-1.569-0.429-2.384-0.733c-5.384-2.014-9.893-5.561-14.754-8.531
				c-3.999-2.445-8.996-5.329-13.791-3.203c-3.737,1.656-5.935,5.854-8.126,9.086c-2.586,3.814-5.442,7.268-9.636,9.365
				c-9.305,4.652-20.717,0.627-29.318-3.785c-5.204-2.668-10.149-5.757-14.989-9.031c-3.838-2.596-7.646-6.332-11.776-8.34
				c-3.307-1.609-9.398,4.346-11.952,6.613c-3.706,3.289-7.34,6.939-11.699,9.363c-1.155,0.641-2.333,1.088-3.522,1.371
				c0.84,22.545,6.605,44.467,11.727,66.356c5.437,23.237,9.296,46.763,14.172,70.114c1.317,6.309-8.676,6.982-9.973,0.77
				c-4.958-23.746-8.902-47.654-14.51-71.266c-5.224-21.998-10.841-44.189-11.429-66.893c-4.649-1.715-9.032-4.852-12.505-7.762
				c-4.228-3.539-8.124-7.448-12.327-11.014c-2.504-2.123-5.612-5.178-9.204-4.635c-6.93,1.047-12.752,7.723-18.73,11.819
				c1.113,6.233,3.627,12.12,5.923,18.001c2.415,6.184,4.568,12.488,6.506,18.84c4.106,13.457,8.235,26.932,12.204,40.426
				c4.257,14.473,8.779,28.896,12.778,43.443c2.826,10.281,8.322,19.143,8.231,29.974c4.223,0.44,8.444,0.841,12.587,1.372
				c24.943,3.195,50.285,6.395,75.487,5.193c0.145-44.184,2.946-88.313,2.988-132.5c0.006-6.416,9.979-7.215,9.973-0.77
				c-0.041,44.203-2.845,88.35-2.988,132.55c2.239-0.218,4.478-0.462,6.714-0.763c11.956-1.602,24.327-3.763,35.197-9.245
				c0.02-0.353,0.079-0.724,0.183-1.112c3.723-13.884,4.662-28.256,5.285-42.561c0.618-14.184,2.405-28.232,3.1-42.406
				c0.565-11.525,0.343-22.912,0.095-34.428C350.92,337.154,350.563,331.525,351.49,326.362z"/>
		</g>
	</g>
	<g>
		<g>
			<path class="st4" d="M198.069,162.178c-5.421-7.827-8.496,0.732-9.828,7.939c0.377,0.441,0.698,0.975,0.933,1.621
				c0.396,1.09,0.786,2.267,1.76,2.988c0.074,0.055,0.626,0.121,0.592,0.152c1.122-0.11,2.594-0.779,3.689-1.912
				C197.693,170.399,200.489,165.671,198.069,162.178z"/>
		</g>
	</g>
	<g>
		<g>
			<path class="st4" d="M308.526,106.576c-1.024-5.377-7.783-6.516-11.468-3.416c-3.884,3.266-6.758,8.781-7.456,13.971
				c1.062-0.012,2.163,0.429,3.153,1.504C299.725,126.209,310.019,114.412,308.526,106.576z"/>
		</g>
	</g>
	<g>
		<g>
			<path class="st4" d="M387.671,289.896c-1.651,1.388-2.738,3.929-3.701,5.794c-2.307,4.469-4.359,8.979-7.062,13.231
				c-4.094,6.44-8.75,13.487-15.078,16.468c-1.136,2.521-0.854,7.141-0.878,9.631c-0.042,4.477,0.116,8.947,0.293,13.418
				c0.454,11.432,0.017,22.902-0.755,34.312c-0.96,14.203-2.242,28.32-3.034,42.537c-0.558,9.998-1.333,19.988-3.224,29.805
				c0.733-0.37,1.491-0.686,2.296-0.9c3.23-0.858,6.508-1.594,9.698-2.594c0.665-0.209,1.384-0.426,2.127-0.658
				c-1.433-2.555-0.505-6.228,2.086-7.32c0.076-0.15,0.168-0.293,0.239-0.447c0.718-1.566,1.357-3.181,1.888-4.82
				c1.726-5.328,3.159-10.75,4.489-16.188c2.733-11.17,5.157-22.43,7.2-33.746c2.789-15.454,3.605-31.469,4.85-47.11
				c0.768-9.646,1.533-19.282,2.253-28.935c0.491-6.572,1.201-13.051,2.826-19.377C391.604,291.363,388.306,289.363,387.671,289.896
				z"/>
		</g>
	</g>
	<g>
		<g>
			<path class="st4" d="M421.834,284.291c-1.653,1.521-3.639,2.613-5.996,3.088c-6.323,1.271-7-8.721-0.77-9.973
				c-0.863,0.172,0.233-0.287,0.532-0.846c0.434-0.812,0.854-1.63,1.151-2.504c0.599-1.761,0.909-3.714,1.091-5.57
				c-4.609,7.014-8.474,14.525-12.61,21.846c-0.048,0.418-0.142,0.848-0.301,1.285c-3.342,9.186-3.59,19.486-4.173,29.141
				c-0.65,10.762-1.672,21.51-2.72,32.24c-1.439,14.725-2.353,29.375-5.209,43.895c-1.965,9.991-4.059,19.996-6.604,29.871
				c2.275-5.914,4.516-11.844,6.569-17.838c5.137-15.001,8.274-30.396,11.928-45.793c3.562-15.01,8.147-29.779,11.314-44.873
				c1.423-6.78,1.983-13.742,3.909-20.396C421.082,293.945,423.589,288.311,421.834,284.291z"/>
		</g>
	</g>
	<g>
		<g>
			<path class="st4" d="M272.44,67.186c-2.063-1.566-6.827-3.749-8.132-0.318c-0.434,1.14-0.653,2.367-0.767,3.621
				c0.071,0.05,0.143,0.094,0.213,0.146c2.421,1.854,6.251,4.088,9.418,4.027C278.061,74.568,275.027,69.152,272.44,67.186z"/>
		</g>
	</g>
	<g>
		<g>
			<path class="st13" d="M405.171,265.221c-2.974,2.007-7.805,1.051-7.704-3.444c0.221-9.824,3.599-18.752,5.078-28.34
				c1.674-10.847,3.617-21.791,3.864-32.789c0.44-19.64-0.39-39.965-4.935-59.145c-6.253-26.387-18.697-50.917-37.765-70.369
				c-17.27-17.617-38.607-32.795-62.553-39.588c-22.413-6.359-50.261-9.892-71.646,1.725c-9.957,5.408-21.587,13.271-26.09,24.166
				c-2.993,7.242-2.275,17.621,3.325,23.521c9.284-14.25,29.895-22.578,43.485-8.6c1.194,1.228,2.265,2.521,3.238,3.859
				c-0.005-6.31-0.061-15.948,6.483-19.251c7.781-3.927,17.634-0.786,22.534,6.371c3.213,4.692,4.16,10.968,1.712,15.548
				c2.498,0.967,4.327,3.659,2.736,6.73c-7.805,15.068-20.725,25.694-33.135,36.824c-12.466,11.178-22.854,23.338-30.193,38.527
				c-16.248,33.626-15.182,71.605-15.165,108.039c0.003,6.416-9.97,7.215-9.973,0.77c-0.018-36.874-1.272-76.025,14.749-110.252
				c4.967-10.609,11.131-20.219,18.523-28.949c-0.321-0.268-0.613-0.578-0.871-0.922c-7.148,1.758-14.076,5.68-20.762,8.457
				c-13.234,5.498-27.1,12.123-37.895,21.836c-0.453,2.031-2,3.929-4.354,4.303c-18.408,20.084-26.06,55.882-13.26,80.346
				c2.957,5.652-5.302,11.307-8.291,5.592c-7.867-15.037-9.256-32.525-6.18-49.082c1.512-8.14,3.929-16.547,7.491-24.367
				c-0.657,0.541-1.314,1.082-1.968,1.627c-9.229,7.713-18.57,15.047-26.027,24.611c-7.912,10.148-13.442,21.865-15.085,34.715
				c-1.628,12.732-0.03,25.561,2.634,38.047c0.539,2.529-0.692,4.586-2.437,5.717c0.309,0.115,0.623,0.264,0.941,0.458
				c11.506,7.032,18.792,19.489,30.397,26.188c4.53,2.614,8.73,3.423,13.467,0.71c4.429-2.535,8.241-5.885,12.384-8.832
				c8.442-6.007,17.202-7.955,25.972-1.376c4.533,3.401,8.505,7.46,12.756,11.192c3.835,3.367,8.542,7.965,13.792,8.879
				c4.826,0.84,8.469-3.629,11.788-6.572c3.951-3.508,7.84-6.799,12.523-9.306c10.077-5.396,17.413,3.185,25.324,8.536
				c8.074,5.461,19.358,13.604,29.633,13.07c8.853-0.461,10.846-9.35,16.23-14.834c6.641-6.762,16.251-8.115,24.722-3.769
				c4.763,2.444,8.963,5.784,13.629,8.386c2.204,1.23,4.924,2.759,7.469,2.771c0.874-0.672,1.852-0.885,2.805-0.762
				c0.387-0.238,0.765-0.527,1.124-0.9c7.484-7.776,11.165-17.113,16.497-26.213c2.26-3.859,5.184-8.756,10.22-9.057
				c4.382-0.26,7.666,1.67,11.106,3.662c3.276-5.862,6.457-11.797,9.979-17.503C406.71,265.889,405.933,265.572,405.171,265.221z
				 M184.211,181.782c-2.924,1.206-6.773,0.003-6.744-4.005c0.06-8.271,1.097-18.795,7.277-24.957
				c7.326-7.303,20.079-2.281,23.184,6.881c2.751,8.119-1.119,17.779-8.23,22.439C194.104,185.807,188.337,185.326,184.211,181.782z
				 M256.153,165.148c-0.517-0.568-0.873-1.18-1.097-1.805c-1.849,0.021-3.63-0.957-4.322-3.299
				c-2.96-10.016,0.265-22.031,10.022-27.099c9.133-4.743,20.914,0.483,24.413,10.099
				C291.132,159.426,270.196,180.605,256.153,165.148z M311.966,216.994c-2.703,20.201-10.568,39.225-13.604,59.352
				c-0.963,6.385-10.775,4.45-9.816-1.908c3.123-20.705,11.732-40.283,13.817-61.17c0.968-9.693,2.017-19.521,1.356-29.271
				c-0.287-4.229-1.123-7.889-2.224-11.969c-0.763-2.826-1.526-5.658-0.949-8.59c1.245-6.326,11.062-4.42,9.816,1.908
				c-0.559,2.838,1.686,7.07,2.349,9.844c1.01,4.223,1.136,8.73,1.14,13.055C313.859,197.805,313.234,207.516,311.966,216.994z
				 M286.153,126.148c-0.589-0.639-0.969-1.333-1.187-2.041c-2.7,0.519-5.601-0.832-5.499-4.33
				c0.297-10.154,5.429-21.66,14.719-26.635c9.075-4.859,21.186,0.658,23.891,10.584
				C322.591,120.29,300.031,141.229,286.153,126.148z M344.362,209.346c-1.357,6.297-11.177,4.4-9.816-1.908
				c4.25-19.712,11.368-38.883,7.249-59.292c-4.182-20.72-11.983-40.546-20.911-59.649c-3.88,0.299-8.082-0.633-11.861-2.025
				c-1.981,2.408-5.813,3.184-7.714-0.283c-4.713-8.597-4.653-19.772,2.666-27.073c6.272-6.257,15.574-8.704,23.224-3.241
				c8.294,5.924,9.172,17.465,4.37,26.03c-0.502,0.896-1.063,1.683-1.673,2.375c9.474,20.171,17.683,41.14,21.873,63.098
				C355.852,168.78,348.82,188.668,344.362,209.346z M380.221,144.76c-6.788,3.867-15.425,3.198-21.992-0.889
				c-0.807-0.502-1.391-1.129-1.792-1.82c-2.775,0.701-5.974-0.623-5.97-4.273c0.007-7.979,0.132-18.873,8.237-23.186
				c8.457-4.498,18.784,2.365,23.463,9.463C386.266,130.271,387.939,140.363,380.221,144.76z"/>
		</g>
	</g>
	<g>
		<g>
			<path class="st13" d="M260.708,80.568c-1.351,0.707-2.979,0.854-4.35,0.406c3.318,6.755,4.052,14.42,1.732,22.15
				c-0.34,1.134-0.746,2.238-1.186,3.328c7.261-6.588,14.146-13.555,19.196-21.947C270.963,85.445,265.307,83.35,260.708,80.568z"/>
		</g>
	</g>
	<g>
		<g>
			<path class="st11" d="M431.173,280.738c-1.055-2.16-3.065-3.043-5.005-2.992c3.102-7.623,2.762-17.863,0.005-24.008
				c-1.498-3.338-5.841-4.652-8.476-1.647c-1.354,1.543-2.634,3.137-3.865,4.763c-0.175-0.061-0.349-0.123-0.475-0.169
				c-0.728-0.268-1.446-0.559-2.16-0.861c-0.847-0.358-1.675-0.757-2.486-1.188c-0.121-0.064-0.236-0.139-0.354-0.207
				c-0.035-0.03-0.134-0.103-0.254-0.19c0.739-4.635,1.963-9.225,3.055-13.743c1.914-7.923,2.953-16.062,3.954-24.148
				c1.864-15.053,1.566-30.322,0.575-45.432c-1.853-28.236-9.323-55.896-24.094-80.168c-13.126-21.568-31.935-39.1-52.996-52.768
				c-21.02-13.641-45.156-20.632-70.112-21.9c-23.937-1.217-45.743,6.061-63.331,22.482c-8.393,7.834-13.413,17.477-13.37,29.035
				c0.039,10.217,5.123,20.619,14.445,25.275c2.311,1.154,5.663,0.26,6.704-2.254c4.709-11.373,18.514-20.83,29.742-11.621
				c13.809,11.326,4.682,27.859-5.655,38.381c-2.063,0.805-4.044,1.701-5.594,1.996c-9.055,1.721-17.513,6.345-25.941,9.846
				c-15.251,6.335-30.353,14.311-42.447,25.709c-7.687,1.852-14.828,8.449-20.491,13.084c-10.356,8.477-20.74,16.723-29.368,27.043
				c-9.414,11.261-15.723,24.623-18.21,39.092c-2.573,14.965-0.367,30.213,2.766,44.898c0.396,1.858,1.5,2.869,2.822,3.217
				c-0.521,0.471-0.954,1.064-1.265,1.73c-1.729,0.725-3.032,2.346-2.824,4.785c1.211,14.217,7.575,27.141,12.914,40.154
				c5.684,13.857,9.177,28.352,13.33,42.701c4.423,15.281,10.058,30.225,15.976,44.98c5.52,13.762,10.632,28.615,18.177,41.41
				c5.212,8.838,13.932,12.904,23.509,15.334c6.945,1.764,14.261,2.209,21.36,3.104c8.111,1.021,16.22,2.057,24.325,3.119
				c29.881,3.916,60.945,6.145,90.78,0.799c10.112-1.812,19.797-4.105,29.121-8.563c2.329-1.114,4.584-2.362,6.8-3.683
				c2.25-1.344,4.536-3.795,7.078-4.502c5.321-1.479,10.665-2.646,15.77-4.809c7.229-3.062,12.226-6.918,14.791-14.469
				c3.735-11.004,8.195-21.746,11.962-32.745c7.981-23.308,12.012-47.726,18.501-71.464c3.249-11.888,5.376-23.715,7.691-35.785
				C429.974,296.939,434.828,288.227,431.173,280.738z M184.984,464.173c-6.416-1.399-12.496-3.202-17.175-8.024
				c-5.754-5.93-8.334-15.816-11.516-23.23c-4.317-10.06-8.478-20.188-12.411-30.404c-7.414-19.262-12.719-38.947-18.615-58.684
				c-2.834-9.488-6.592-18.607-10.435-27.721c-2.795-6.625-5.551-13.361-7.155-20.369c12.125,10.633,23.7,27.533,39.719,24.338
				c2.304,10.492,7.168,20.52,10.6,30.619c4.494,13.227,8.353,26.838,12.294,40.236c4.074,13.854,8.148,27.705,12.222,41.557
				c1.686,5.732,3.35,11.348,5.603,16.887c2.057,5.059,4.516,10.568,4.458,16.15C190.016,465.154,187.48,464.719,184.984,464.173z
				 M351.025,342.043c0.248,11.516,0.47,22.902-0.095,34.428c-0.694,14.174-2.481,28.223-3.1,42.406
				c-0.623,14.305-1.562,28.677-5.285,42.561c-0.104,0.389-0.163,0.76-0.183,1.112c-10.87,5.482-23.241,7.644-35.197,9.245
				c-2.236,0.301-4.475,0.545-6.714,0.763c0.143-44.2,2.947-88.347,2.988-132.55c0.006-6.445-9.967-5.646-9.973,0.77
				c-0.042,44.187-2.844,88.316-2.988,132.5c-25.202,1.201-50.544-1.998-75.487-5.193c-4.143-0.531-8.364-0.932-12.587-1.372
				c0.091-10.831-5.406-19.692-8.231-29.974c-3.999-14.547-8.521-28.971-12.778-43.443c-3.969-13.494-8.097-26.969-12.204-40.426
				c-1.938-6.352-4.092-12.656-6.506-18.84c-2.296-5.881-4.811-11.768-5.923-18.001c5.978-4.097,11.8-10.772,18.73-11.819
				c3.592-0.543,6.7,2.512,9.204,4.635c4.203,3.565,8.1,7.475,12.327,11.014c3.473,2.91,7.855,6.047,12.505,7.762
				c0.588,22.703,6.205,44.895,11.429,66.893c5.607,23.611,9.551,47.52,14.51,71.266c1.297,6.213,11.29,5.539,9.973-0.77
				c-4.876-23.352-8.735-46.877-14.172-70.114c-5.122-21.89-10.887-43.812-11.727-66.356c1.189-0.283,2.367-0.73,3.522-1.371
				c4.359-2.424,7.993-6.074,11.699-9.363c2.554-2.268,8.645-8.223,11.952-6.613c4.131,2.008,7.938,5.744,11.776,8.34
				c4.84,3.274,9.786,6.363,14.989,9.031c8.602,4.412,20.013,8.438,29.318,3.785c4.194-2.098,7.05-5.551,9.636-9.365
				c2.192-3.231,4.389-7.43,8.126-9.086c4.795-2.126,9.792,0.758,13.791,3.203c4.861,2.971,9.37,6.518,14.754,8.531
				c0.815,0.305,1.609,0.545,2.384,0.733C350.563,331.525,350.92,337.154,351.025,342.043z M348.295,314.186
				c-4.666-2.602-8.866-5.941-13.629-8.386c-8.471-4.347-18.081-2.993-24.722,3.769c-5.384,5.484-7.377,14.373-16.23,14.834
				c-10.274,0.533-21.559-7.609-29.633-13.07c-7.912-5.352-15.247-13.932-25.324-8.536c-4.683,2.507-8.572,5.798-12.523,9.306
				c-3.318,2.943-6.961,7.412-11.788,6.572c-5.25-0.914-9.957-5.512-13.792-8.879c-4.251-3.732-8.223-7.791-12.756-11.192
				c-8.77-6.579-17.529-4.631-25.972,1.376c-4.143,2.947-7.955,6.297-12.384,8.832c-4.736,2.713-8.937,1.904-13.467-0.71
				c-11.605-6.698-18.892-19.155-30.397-26.188c-0.318-0.194-0.632-0.343-0.941-0.458c1.744-1.131,2.976-3.188,2.437-5.717
				c-2.664-12.486-4.262-25.314-2.634-38.047c1.643-12.85,7.173-24.566,15.085-34.715c7.457-9.564,16.797-16.898,26.027-24.611
				c0.653-0.545,1.311-1.086,1.968-1.627c-3.562,7.82-5.979,16.228-7.491,24.367c-3.076,16.557-1.688,34.045,6.18,49.082
				c2.989,5.715,11.248,0.061,8.291-5.592c-12.8-24.464-5.148-60.262,13.26-80.346c2.354-0.374,3.9-2.271,4.354-4.303
				c10.795-9.713,24.66-16.338,37.895-21.836c6.687-2.777,13.614-6.699,20.762-8.457c0.257,0.344,0.549,0.654,0.871,0.922
				c-7.393,8.73-13.557,18.34-18.523,28.949c-16.021,34.227-14.767,73.378-14.749,110.252c0.003,6.445,9.976,5.646,9.973-0.77
				c-0.017-36.434-1.083-74.413,15.165-108.039c7.339-15.189,17.728-27.35,30.193-38.527c12.41-11.13,25.33-21.756,33.135-36.824
				c1.59-3.071-0.239-5.764-2.736-6.73c2.448-4.58,1.501-10.855-1.712-15.548c-4.9-7.157-14.753-10.298-22.534-6.371
				c-6.544,3.303-6.489,12.941-6.483,19.251c-0.973-1.339-2.044-2.632-3.238-3.859c-13.59-13.979-34.201-5.65-43.485,8.6
				c-5.6-5.9-6.317-16.279-3.325-23.521c4.502-10.896,16.133-18.758,26.09-24.166c21.385-11.616,49.233-8.084,71.646-1.725
				c23.946,6.793,45.284,21.971,62.553,39.588c19.068,19.452,31.512,43.982,37.765,70.369c4.545,19.18,5.375,39.505,4.935,59.145
				c-0.247,10.998-2.19,21.942-3.864,32.789c-1.479,9.588-4.857,18.516-5.078,28.34c-0.101,4.495,4.729,5.451,7.704,3.444
				c0.762,0.351,1.54,0.667,2.324,0.963c-3.523,5.706-6.704,11.641-9.979,17.503c-3.44-1.992-6.724-3.922-11.106-3.662
				c-5.037,0.301-7.96,5.197-10.22,9.057c-5.332,9.1-9.012,18.437-16.497,26.213c-0.359,0.373-0.736,0.662-1.124,0.9
				c-0.953-0.123-1.931,0.09-2.805,0.762C353.22,316.944,350.5,315.416,348.295,314.186z M276.101,84.506
				c-5.05,8.393-11.936,15.359-19.196,21.947c0.44-1.09,0.846-2.194,1.186-3.328c2.319-7.73,1.586-15.396-1.732-22.15
				c1.372,0.448,3,0.301,4.35-0.406C265.307,83.35,270.963,85.445,276.101,84.506z M263.541,70.488
				c0.114-1.254,0.333-2.481,0.767-3.621c1.305-3.431,6.068-1.248,8.132,0.318c2.587,1.967,5.621,7.383,0.732,7.477
				c-3.167,0.061-6.997-2.174-9.418-4.027C263.684,70.582,263.612,70.538,263.541,70.488z M384.257,388.418
				c-2.043,11.316-4.467,22.576-7.2,33.746c-1.331,5.438-2.764,10.859-4.489,16.188c-0.531,1.64-1.169,3.254-1.888,4.82
				c-0.071,0.154-0.163,0.297-0.239,0.447c-2.591,1.093-3.519,4.766-2.086,7.32c-0.743,0.232-1.462,0.449-2.127,0.658
				c-3.19,1-6.468,1.735-9.698,2.594c-0.805,0.215-1.562,0.53-2.296,0.9c1.891-9.816,2.666-19.807,3.224-29.805
				c0.792-14.217,2.074-28.334,3.034-42.537c0.772-11.41,1.209-22.881,0.755-34.312c-0.178-4.471-0.336-8.941-0.293-13.418
				c0.023-2.49-0.258-7.109,0.878-9.631c6.328-2.98,10.984-10.027,15.078-16.468c2.703-4.253,4.754-8.763,7.062-13.231
				c0.963-1.865,2.05-4.406,3.701-5.794c0.635-0.532,3.933,1.468,6.515,3.101c-1.625,6.326-2.334,12.805-2.826,19.377
				c-0.721,9.652-1.486,19.289-2.253,28.935C387.863,356.949,387.046,372.964,384.257,388.418z M419.947,297.863
				c-1.926,6.654-2.486,13.616-3.909,20.396c-3.167,15.094-7.751,29.863-11.314,44.873c-3.654,15.396-6.792,30.792-11.928,45.793
				c-2.053,5.994-4.293,11.924-6.569,17.838c2.545-9.875,4.638-19.88,6.604-29.871c2.856-14.52,3.77-29.17,5.209-43.895
				c1.048-10.73,2.07-21.479,2.72-32.24c0.583-9.654,0.832-19.955,4.173-29.141c0.159-0.438,0.253-0.867,0.301-1.285
				c4.136-7.32,8.001-14.832,12.61-21.846c-0.183,1.856-0.492,3.81-1.091,5.57c-0.298,0.874-0.717,1.691-1.151,2.504
				c-0.299,0.559-1.395,1.018-0.532,0.846c-6.231,1.252-5.554,11.244,0.77,9.973c2.356-0.475,4.343-1.566,5.996-3.088
				C423.589,288.311,421.082,293.945,419.947,297.863z"/>
		</g>
	</g>
	<g>
		<g>
			<path class="st11" d="M312.71,175.189c-0.663-2.773-2.907-7.006-2.349-9.844c1.246-6.328-8.571-8.234-9.816-1.908
				c-0.577,2.932,0.187,5.764,0.949,8.59c1.101,4.08,1.938,7.74,2.224,11.969c0.661,9.75-0.388,19.578-1.356,29.271
				c-2.085,20.887-10.694,40.465-13.817,61.17c-0.959,6.358,8.854,8.293,9.816,1.908c3.036-20.127,10.901-39.15,13.604-59.352
				c1.269-9.479,1.894-19.189,1.884-28.75C313.846,183.92,313.72,179.412,312.71,175.189z"/>
		</g>
	</g>
	<g>
		<g>
			<path class="st11" d="M351.768,147.376c-4.19-21.958-12.399-42.927-21.873-63.098c0.609-0.692,1.171-1.479,1.673-2.375
				c4.802-8.565,3.924-20.106-4.37-26.03c-7.65-5.463-16.952-3.016-23.224,3.241c-7.319,7.301-7.378,18.477-2.666,27.073
				c1.9,3.467,5.732,2.691,7.714,0.283c3.78,1.393,7.981,2.324,11.861,2.025c8.928,19.104,16.729,38.93,20.911,59.649
				c4.119,20.409-2.999,39.58-7.249,59.292c-1.36,6.309,8.459,8.205,9.816,1.908C348.82,188.668,355.852,168.78,351.768,147.376z
				 M323.546,75.609c-2.129,5.709-9.952,2.174-13.868,0.304c-0.574-0.274-1.134-0.431-1.672-0.493
				c-0.258-2.875,0.471-5.786,2.26-8.27c2.145-2.977,6.031-5.447,9.745-3.955C325.074,65.23,325.209,71.149,323.546,75.609z"/>
		</g>
	</g>
	<g>
		<g>
			<path class="st11" d="M285.169,143.045c-3.5-9.615-15.28-14.842-24.413-10.099c-9.758,5.067-12.982,17.083-10.022,27.099
				c0.692,2.342,2.474,3.32,4.322,3.299c0.224,0.625,0.58,1.236,1.097,1.805C270.196,180.605,291.132,159.426,285.169,143.045z
				 M272.455,158.117c-3.225,3.393-6.794,2.717-9.7-0.482c-0.859-0.945-1.805-1.4-2.736-1.496
				c-1.282-5.115,0.199-10.705,4.583-13.906c4.388-3.205,9.835,0.562,11.447,4.99C277.458,151.096,275.039,155.396,272.455,158.117z
				"/>
		</g>
	</g>
	<g>
		<g>
			<path class="st11" d="M318.078,103.727c-2.705-9.926-14.816-15.443-23.891-10.584c-9.29,4.975-14.422,16.48-14.719,26.635
				c-0.103,3.498,2.799,4.849,5.499,4.33c0.218,0.708,0.598,1.402,1.187,2.041C300.031,141.229,322.591,120.29,318.078,103.727z
				 M292.754,118.635c-0.99-1.075-2.091-1.516-3.153-1.504c0.698-5.189,3.572-10.705,7.456-13.971
				c3.685-3.1,10.444-1.961,11.468,3.416C310.019,114.412,299.725,126.209,292.754,118.635z"/>
		</g>
	</g>
	<g>
		<g>
			<path class="st11" d="M207.928,159.701c-3.105-9.162-15.857-14.184-23.184-6.881c-6.18,6.162-7.217,16.686-7.277,24.957
				c-0.029,4.008,3.82,5.211,6.744,4.005c4.125,3.544,9.892,4.024,15.486,0.358C206.809,177.48,210.679,167.82,207.928,159.701z
				 M195.214,172.967c-1.095,1.133-2.567,1.802-3.689,1.912c0.034-0.031-0.518-0.098-0.592-0.152
				c-0.974-0.722-1.364-1.898-1.76-2.988c-0.234-0.646-0.556-1.18-0.933-1.621c1.332-7.207,4.407-15.767,9.828-7.939
				C200.489,165.671,197.693,170.399,195.214,172.967z"/>
		</g>
	</g>
	<g>
		<g>
			<path class="st11" d="M382.167,124.055c-4.679-7.098-15.006-13.961-23.463-9.463c-8.105,4.312-8.23,15.207-8.237,23.186
				c-0.004,3.65,3.195,4.975,5.97,4.273c0.401,0.691,0.985,1.318,1.792,1.82c6.567,4.087,15.204,4.756,21.992,0.889
				C387.939,140.363,386.266,130.271,382.167,124.055z M374.318,136.643c-3.775,1.748-8.33,0.33-11.64-1.729
				c-0.77-0.479-1.515-0.706-2.217-0.746c0.066-3.435,0.388-6.909,2.023-9.958c2.193-4.092,9.27,2.803,10.724,4.543
				C374.729,130.572,377.541,135.151,374.318,136.643z"/>
		</g>
	</g>
</g>
</svg>
