<?xml version="1.0" encoding="utf-8"?>
<!-- Generator: Adobe Illustrator 16.0.3, SVG Export Plug-In . SVG Version: 6.00 Build 0)  -->
<!DOCTYPE svg PUBLIC "-//W3C//DTD SVG 1.1//EN" "http://www.w3.org/Graphics/SVG/1.1/DTD/svg11.dtd">
<svg version="1.1" id="Layer_1" xmlns="http://www.w3.org/2000/svg" xmlns:xlink="http://www.w3.org/1999/xlink" x="0px" y="0px"
	 width="512px" height="512px" viewBox="0 0 512 512" style="enable-background:new 0 0 512 512;" xml:space="preserve">
<style type="text/css">
<![CDATA[
	.st0{fill:#127274;}
	.st1{fill:#14B6B9;}
	.st2{fill:#1E4384;}
	.st3{fill:#EF4754;}
	.st4{fill:#EF4823;}
	.st5{fill:#BCBCBC;}
	.st6{fill:#F6851F;}
	.st7{fill:#C56528;}
	.st8{fill:#FCBF95;}
	.st9{fill:#FEBF10;}
	.st10{fill:none;}
	.st11{fill:#010101;}
	.st12{fill:#3AB37C;}
	.st13{fill:#D6E5E5;}
	.st14{fill:#71C598;}
	.st15{fill:#74CCCF;}
]]>
</style>
<g>
	<g>
		<g>
			<path class="st1" d="M87.349,205.568c-6.418-9.803-12.886-20.355-21.855-27.639c-0.085,0.16-0.179,0.32-0.286,0.48
				c-11.715,17.637-23.117,37.783-42.825,47.494c-0.683,0.336-1.327,0.496-1.929,0.521c-0.314,1.578-0.547,3.17-0.671,4.775
				c-0.587,7.639,2.649,12.92,8.542,17.057c1.391,0.189,2.523,0.99,3.283,2.064c5.273,3.107,10.842,5.727,16.091,8.871
				c0.169-1.188,0.854-2.324,2.234-3.152c8.983-5.402,15.349-12.828,20.23-22.045c2.573-4.857,5.315-9.57,8.425-14.111
				c1.609-2.352,3.25-4.727,5.062-6.926c0.774-0.939,1.601-1.842,2.365-2.789C85.744,208.523,86.289,206.779,87.349,205.568z"/>
		</g>
	</g>
	<g>
		<g>
			<path class="st1" d="M71.129,287.484c-9.189-5.195-16.854-12.428-25.739-18.008c-5.825-3.66-12.131-6.523-18.041-10.039
				c-1.396,1.676-2.442,4.23-3.152,5.711c-1.474,3.068-3.196,6.34-4.032,9.658c-2.439,9.68-2.867,19.971-2.42,29.922
				c0.441,9.801,1.736,20.977,6.068,29.896c1.742,3.586,4.311,6.006,7.413,7.812c9.684-11.248,18.296-24.311,30.519-32.877
				c5.067-3.551,10.38-6.836,15.127-10.822c2.047-1.717,4.604-3.934,6.239-6.496C79.062,291.226,75.064,289.71,71.129,287.484z"/>
		</g>
	</g>
	<g>
		<g>
			<path class="st1" d="M334.842,153.033c-0.297-0.174-0.588-0.359-0.887-0.531c-7.93-4.578-16.535-7.686-25.464-9.686
				c-0.273,2.033-1.7,3.936-4.378,4.355l-0.589,0.158c-1.095,0.771-2.202,1.02-3.224,0.904c-6.078,2.395-11.26,7.799-15.348,12.471
				c-5.53,6.32-10.396,13.156-15.041,20.143c-11.619,17.475-21.068,36.771-34.893,52.689
				c-14.613,16.828-28.874,33.994-46.141,48.236c-7.583,6.256-15.258,12.547-23.057,18.533c-1.762,1.352-3.559,2.701-5.398,4.006
				c-4.328,1.824-8.699,3.559-13.089,5.246c-6.743,1.367-12.976,3.998-19.167,6.986c-1.103,0.168-2.187,0.398-3.235,0.729
				c-5.519,1.746-9.976,5.113-14.61,8.479c-9.734,7.068-19.189,14.764-29.568,20.887c-8.314,4.904-17.934,8.729-27.66,9.873
				c1.765,15.318,9.766,28.244,20.831,39.307c1.886,1.883,5.255,5.859,8.313,5.324c2.839-0.496,5.562-2.59,7.781-4.301
				c5.699-4.396,11.016-9.24,14.336-15.719c4.221-8.24,6.66-17.404,11.432-25.359c4.439-7.398,9.895-14.418,15.906-20.604
				c8.163-8.402,17.48-15.686,27.908-20.793c0.043,0.004,0.084,0.016,0.127,0.018c10.883,0.691,20.439-3.92,30.585-7.078
				c0.107-0.033,0.203-0.078,0.299-0.123c4.812-1.102,9.608-2.283,14.213-4.312c9.158-4.035,18.085-8.912,26.503-14.326
				c15.517-9.98,30.323-21.873,42.645-35.66c13.6-15.221,26.986-30.689,39.264-47.008c9.948-13.225,20.73-29.016,22.337-46.049
				C333.592,158.242,332.697,155.412,334.842,153.033z"/>
		</g>
	</g>
	<g>
		<g>
			<path class="st8" d="M256.567,140.916c-3.163,0.318-6.292,0.758-9.396,1.281c1.107,2.02,0.936,4.613-1.647,6.133
				c-9.726,5.723-15.613,15.312-21.312,24.705c-6.911,11.391-13.432,23.014-20.795,34.125
				c-12.221,18.438-29.293,35.348-51.036,41.744c-0.587,0.174-1.146,0.244-1.676,0.229c-0.19,0.023-0.388,0.035-0.593,0.039
				c-6.688,0.09-14.141,1.551-20.646-0.488c-5.382-1.688-10.376-4.771-14.647-8.43c-8.225-7.047-14.42-15.738-20.547-24.535
				c-0.454,0.656-0.95,1.297-1.476,1.906c-4.741,5.49-8.953,11.709-12.282,18.156c-6.039,11.693-13.567,21.682-24.991,28.549
				c-0.049,0.029-0.097,0.051-0.146,0.078c6.594,4.904,12.942,10.229,20.199,14.119c4.031,2.16,8.03,3.596,12.094,4.494
				c2.166-1.1,4.955-0.834,6.281,0.975c4.46,0.418,9.049,0.32,13.891-0.094c7.621-0.652,15.26-1.529,22.911-1.674
				c0.188-0.02,0.386-0.029,0.589-0.029h1.516c6.417,0,7.215,9.973,0.77,9.973c-13.601,0-27.209,2.631-40.412,1.654
				c-3.745,9.418-13.727,15.697-21.922,21.293c-5.562,3.797-10.142,7.498-14.532,12.631c-5.241,6.125-10.345,12.365-15.594,18.482
				c1.485,0.328,2.967,0.559,4.44,0.682c1.596-0.766,3.542-0.77,4.996,0.053c14.318-0.877,27.781-10.227,39.051-18.453
				c8.324-6.076,16.459-13.123,25.559-18.002c6.397-3.428,13.174-4.158,20.212-4.287c0.535-0.799,1.396-1.438,2.648-1.76
				c9.796-2.51,18.138-9.111,25.854-15.381c7.913-6.428,16.188-12.564,23.762-19.387c8.357-7.531,16.188-15.617,23.637-24.047
				c7.343-8.309,15.021-16.613,21.623-25.525c12.234-16.514,21.646-34.941,33.451-51.771c7.043-10.039,15.707-22.01,27.134-27.889
				C281.166,139.261,268.557,139.707,256.567,140.916z"/>
		</g>
	</g>
	<g>
		<g>
			<path class="st1" d="M178.493,172.408c-21.401,15.924-41.937,36.168-48.856,62.73c-0.252,0.969-0.704,1.74-1.281,2.33
				c0.563,0.285,1.131,0.564,1.715,0.811c5.988,2.527,12.945,1.006,19.273,0.92c0.18-0.002,0.353,0.006,0.523,0.018
				c22.329-6.893,37.938-25.426,49.821-44.631c6.676-10.791,12.676-22.039,19.573-32.686c3.842-5.93,8.135-11.742,13.396-16.477
				C213.158,150.808,194.994,160.13,178.493,172.408z"/>
		</g>
	</g>
	<g>
		<g>
			<path class="st1" d="M39.522,168.203c0.536,6.26,0.541,12.639-1.368,18.594c-2.511,7.834-7.172,14.201-10.855,21.449
				c-0.775,1.527-1.533,3.086-2.255,4.668c13.46-9.436,22.438-25.754,31.206-38.953c0.247-0.373,0.524-0.693,0.82-0.973
				C51.516,170.748,45.42,169.697,39.522,168.203z"/>
		</g>
	</g>
	<g>
		<g>
			<path class="st8" d="M498.584,240.98c-0.046-0.064-0.081-0.131-0.123-0.195c-11.951,21.471-38.993,19.445-60.348,19.387
				c-6.414-0.018-7.214-9.99-0.77-9.973c18.154,0.051,48.828,3.658,54.504-19.709c5.457-22.467-11.686-42.557-15.445-64.307
				c-5.385,2.461-9.142,8.953-11.742,13.816c-4.316,8.07-7.567,16.621-10.715,25.199c-3.225,8.785-7.416,15.803-16.865,19.041
				c-3.232,1.107-6.633,1.812-10.066,2.084c-7.922-0.73-15.713-1.807-23.175-5.039c-1.456-0.631-3.483,0.428-3.41,1.936
				c-0.033-0.076-0.062-0.156-0.097-0.232c-0.037,0.141-0.074,0.279-0.125,0.422c-4.908,13.998-7.998,28.654-14.178,42.199
				c-5.429,11.898-11.621,23.068-19.704,33.402c-14.875,19.02-32.672,36.4-51.198,51.854
				c-33.447,27.902-78.045,55.176-123.244,48.332c1.585,1.256,3.229,2.459,4.973,3.566c22.215,14.09,48.469,16.912,74.263,16.424
				c1.943-0.037,3.896-0.119,5.854-0.232c0.328-0.193,0.692-0.359,1.103-0.49c29.309-9.355,54.743-30.785,76.452-51.982
				c5.938-5.799,11.528-12.021,16.29-18.834c4.194-6,7.302-12.422,10.634-18.9c2.535-4.926,4.938-10.068,6.619-15.355
				c0.887-2.789,2.383-6.576,2.36-9.895c0.622-1.045,1.261-2.078,1.929-3.086c0.791-1.117,1.593-2.229,2.403-3.334
				c0.729-0.787,1.493-1.547,2.258-2.307c0.421,0.197,0.823,0.449,1.178,0.789c0.902-2.6,3.635-4.539,6.755-2.855
				c15.75,8.506,17.988,30.166,20.078,46.027c2.271,17.225,5.367,34.33,21.072,42.789c2.22-6.607,2.6-13.705,4.924-20.346
				c2.471-7.061,8.385-12.5,9.793-19.945c0.021-0.107,0.05-0.209,0.075-0.312c-0.321-0.137-0.646-0.285-0.972-0.447
				c-8.058-4-13.404-11.842-21.42-15.807c-5.773-2.855-1.341-11.822,4.449-8.959c6.593,3.262,11.471,8.801,17.256,13.186
				c1.707,1.295,4.337,3.521,6.665,3.18c2.182-0.322,3.735-2.619,4.882-4.883c-7.438-5.646-13.179-14.18-22.981-15.094
				c-6.42-0.6-4.45-10.41,1.908-9.816c10.775,1.004,17.047,8.783,24.79,15.266c8.365,7.002,17.715,5.225,23.787-3.791
				c6.299-9.352,11.299-22.703,11.627-33.951C511.303,265.541,506.635,252.626,498.584,240.98z"/>
		</g>
	</g>
	<g>
		<g>
			<path class="st8" d="M368.742,187.57c0.382-7.807-10.438-14.723-15.606-19.244c-2.643-2.312-4.981-4.699-7.771-6.738
				c-1.96,16.982-11.305,32.922-21.265,46.396c-13.183,17.838-27.381,35.363-42.615,51.502
				c-13.705,14.52-29.025,27.738-46.026,38.271c-8.714,5.398-17.861,10.58-27.326,14.553c-4.999,2.1-10.06,3.844-15.374,4.953
				c-4.873,1.018-9.723,1.812-14.376,3.641c-2.222,0.873-4.065,0.135-5.212-1.26c-14.994,4.936-27.827,14.695-38.115,26.668
				c4.875,0.477,9.307,2.33,13.313,4.98c0.306-0.057,0.628-0.092,0.976-0.094c50.531-0.289,96.65-25.205,136.589-54.158
				c21.437-15.541,40.829-33.957,57.506-54.529c7.864-9.701,16.872-19.953,21.456-31.721c1.031-2.648,1.833-5.467,2.29-8.322
				c2.235-3.469,3.251-7.268,3.358-11.125C369.41,190.654,368.652,189.412,368.742,187.57z"/>
		</g>
	</g>
	<g>
		<g>
			<path class="st1" d="M411.989,321.548c-1.861-7.221-4.438-16.078-11.485-19.885c-0.078-0.041-0.148-0.09-0.223-0.135
				c0.342,4.215-0.77,8.661-2.008,12.553c-1.889,5.941-4.165,11.764-6.963,17.342c-7.228,14.41-15.266,27.668-26.756,39.174
				c-12.136,12.152-25.504,23.689-39.348,33.854c-3.617,2.654-7.312,5.207-11.09,7.627c13.905-4.486,27.068-11.135,38.277-20.088
				c10.868-8.684,20.037-19.115,29.604-29.152c4.801-5.037,9.7-9.975,14.946-14.553c2.481-2.166,5.001-4.299,7.651-6.258
				c1.197-0.885,2.702-1.398,4.088-2c0.344-2.871,3.398-4.076,6.066-3.41C414.077,331.539,413.26,326.476,411.989,321.548z"/>
		</g>
	</g>
	<g>
		<g>
			<path class="st1" d="M391.637,212.767c-5.086-6.855-9.271-14.131-13.961-21.105c0.518,4.697-0.162,9.885-0.77,13.156
				c-2.351,12.646-9.674,23.371-17.415,33.369c-17.438,22.518-36.825,43.232-59.397,60.719
				c-40.43,31.32-89.035,58.818-141.076,61.955c7.668,8.443,13.895,18.139,21.201,26.789c0.913-0.547,2.08-0.744,3.464-0.373
				c46.415,12.432,93.064-16.834,127.015-45.68c17.693-15.033,35.094-31.865,49.08-50.445c7.782-10.338,14.02-21.576,18.83-33.59
				c5.041-12.59,8.158-25.816,12.643-38.602c0.656-1.873,1.961-2.736,3.39-2.861C393.577,215.052,392.534,213.976,391.637,212.767z"
				/>
		</g>
	</g>
	<g>
		<g>
			<path class="st11" d="M506.873,235.388c-1.391-2.012-3.447-2.455-5.265-1.943c7.721-25.135-14.538-48.895-15.894-73.645
				c-0.16-2.916-2.697-4.543-5.371-4.602c-17.45-0.381-26.508,22.783-31.746,35.967c-2.548,6.414-4.07,15.207-8.987,20.254
				c-6.567,6.74-19.925,6.252-27.657,2.285c-1.242-0.637-2.421-0.715-3.45-0.422c-0.374-0.057-0.76-0.084-1.159-0.084
				c-0.567,0-1.143,0.078-1.696,0.23c-1.849-2.025-3.903-3.924-5.72-6.254c-4.215-5.408-7.483-11.535-11.076-17.355
				c-7.264-11.764-17.062-22.031-27.744-30.746c-10.51-8.576-22.368-16.52-35.077-21.389c-12.216-4.68-25.288-6.74-38.299-7.463
				c-27.228-1.516-54.434,2.039-79.464,13.152c-25.125,11.154-48.327,28.336-66.441,49.014
				c-10.009,11.426-17.518,24.715-21.589,39.34c-1.505-1.344-2.946-2.754-4.333-4.176c-8.644-8.854-15.33-20.105-22.206-30.326
				c-7.149-10.627-15.014-23.105-26.065-30.088c-9.709-6.137-21.272-6.178-31.68-10.434c-3.32-1.357-7.706,0.822-7.211,4.865
				c1.07,8.74,2.006,17.416-1.32,25.797c-3.271,8.238-8.933,15.367-12.406,23.58c-3.307,7.814-5.587,16.225-5.227,24.764
				c0.312,7.406,4.084,13.342,9.398,17.988c-2.922,3.816-4.872,8.814-6.49,12.672c-4.008,9.559-4.739,19.738-4.922,30.002
				c-0.217,12.174,0.72,25.201,4.695,36.814c2.522,7.369,6.377,13.336,12.995,17.551c5.53,3.521,11.476,5.363,17.542,5.932
				c0.66,7.859,2.638,15.492,6.2,22.617c3.894,7.787,9.707,14.555,15.411,21.08c4.785,5.475,11.357,11.977,19.321,10.586
				c7.583-1.324,13.969-7.4,19.403-12.436c6.5-6.02,10.471-13.312,13.857-21.441c3.556-8.537,7.043-16.342,12.354-23.793
				c0.807,1.582,2.348,2.822,4.559,2.889c8.542,0.258,15.961,9.258,20.963,15.195c6.563,7.791,12.16,16.332,18.573,24.238
				c15.138,18.664,39.426,28.289,62.628,31.656c27.105,3.936,55.402,2.576,81.463-6.053c13.176-4.363,26.332-10.67,37.557-18.871
				c11.045-8.07,20.432-18.193,29.738-28.143c6.025-6.441,12.084-12.893,18.736-18.697c3.017-2.633,6.273-5.873,10.152-7.062
				c0.8-0.246,1.518-0.602,2.147-1.045c2.403,19.572,10.856,38.049,30.433,45.273c2.586,0.955,5.357,0.363,6.703-2.254
				c3.963-7.701,4.584-16.166,6.719-24.424c2.148-8.312,9.07-14.174,10.711-22.848c0.133-0.705,0.124-1.352,0.012-1.943
				c4.082-1.619,7.416-5.336,9.883-9.564c10.011,2.523,20.26-2.969,26.241-11.277c7.683-10.668,12.802-25.344,13.914-38.332
				C522.125,265.23,516.33,249.066,506.873,235.388z M129.637,235.138c6.92-26.562,27.455-46.807,48.856-62.73
				c16.501-12.277,34.665-21.6,54.164-26.984c-5.261,4.734-9.554,10.547-13.396,16.477c-6.897,10.646-12.897,21.895-19.573,32.686
				c-11.884,19.205-27.492,37.738-49.821,44.631c-0.171-0.012-0.344-0.02-0.523-0.018c-6.328,0.086-13.285,1.607-19.273-0.92
				c-0.584-0.246-1.151-0.525-1.715-0.811C128.933,236.878,129.385,236.107,129.637,235.138z M27.299,208.246
				c3.684-7.248,8.345-13.615,10.855-21.449c1.909-5.955,1.904-12.334,1.368-18.594c5.897,1.494,11.993,2.545,17.548,4.785
				c-0.296,0.279-0.573,0.6-0.82,0.973c-8.769,13.199-17.746,29.518-31.206,38.953C25.766,211.332,26.523,209.773,27.299,208.246z
				 M19.782,231.201c0.124-1.605,0.356-3.197,0.671-4.775c0.602-0.025,1.246-0.186,1.929-0.521
				c19.708-9.711,31.11-29.857,42.825-47.494c0.107-0.16,0.201-0.32,0.286-0.48c8.97,7.283,15.438,17.836,21.855,27.639
				c-1.06,1.211-1.604,2.955-1.333,4.602c-0.765,0.947-1.591,1.85-2.365,2.789c-1.812,2.199-3.453,4.574-5.062,6.926
				c-3.109,4.541-5.852,9.254-8.425,14.111c-4.882,9.217-11.247,16.643-20.23,22.045c-1.38,0.828-2.065,1.965-2.234,3.152
				c-5.249-3.145-10.817-5.764-16.091-8.871c-0.76-1.074-1.893-1.875-3.283-2.064C22.432,244.121,19.195,238.839,19.782,231.201z
				 M23.812,334.625c-4.332-8.92-5.627-20.096-6.068-29.896c-0.447-9.951-0.02-20.242,2.42-29.922
				c0.836-3.318,2.559-6.59,4.032-9.658c0.71-1.48,1.757-4.035,3.152-5.711c5.91,3.516,12.216,6.379,18.041,10.039
				c8.886,5.58,16.55,12.812,25.739,18.008c3.936,2.227,7.934,3.742,11.981,4.758c-1.636,2.562-4.192,4.779-6.239,6.496
				c-4.747,3.986-10.06,7.271-15.127,10.822c-12.223,8.566-20.835,21.629-30.519,32.877C28.123,340.63,25.555,338.21,23.812,334.625
				z M45.609,346.914c-1.474-0.123-2.955-0.354-4.44-0.682c5.249-6.117,10.353-12.357,15.594-18.482
				c4.391-5.133,8.971-8.834,14.532-12.631c8.195-5.596,18.177-11.875,21.922-21.293c13.203,0.977,26.812-1.654,40.412-1.654
				c6.445,0,5.647-9.973-0.77-9.973h-1.516c-0.203,0-0.4,0.01-0.589,0.029c-7.651,0.145-15.29,1.021-22.911,1.674
				c-4.842,0.414-9.431,0.512-13.891,0.094c-1.326-1.809-4.115-2.074-6.281-0.975c-4.063-0.898-8.062-2.334-12.094-4.494
				c-7.257-3.891-13.605-9.215-20.199-14.119c0.049-0.027,0.097-0.049,0.146-0.078c11.424-6.867,18.952-16.855,24.991-28.549
				c3.329-6.447,7.541-12.666,12.282-18.156c0.525-0.609,1.021-1.25,1.476-1.906c6.127,8.797,12.322,17.488,20.547,24.535
				c4.271,3.658,9.266,6.742,14.647,8.43c6.505,2.039,13.957,0.578,20.646,0.488c0.205-0.004,0.402-0.016,0.593-0.039
				c0.529,0.016,1.089-0.055,1.676-0.229c21.743-6.396,38.815-23.307,51.036-41.744c7.363-11.111,13.884-22.734,20.795-34.125
				c5.698-9.393,11.586-18.982,21.312-24.705c2.583-1.52,2.755-4.113,1.647-6.133c3.104-0.523,6.232-0.963,9.396-1.281
				c11.989-1.209,24.599-1.654,36.969-0.451c-11.427,5.879-20.091,17.85-27.134,27.889c-11.806,16.83-21.217,35.258-33.451,51.771
				c-6.602,8.912-14.28,17.217-21.623,25.525c-7.448,8.43-15.279,16.516-23.637,24.047c-7.573,6.822-15.849,12.959-23.762,19.387
				c-7.717,6.27-16.059,12.871-25.854,15.381c-1.253,0.322-2.113,0.961-2.648,1.76c-7.038,0.129-13.814,0.859-20.212,4.287
				c-9.1,4.879-17.234,11.926-25.559,18.002c-11.27,8.227-24.732,17.576-39.051,18.453
				C49.151,346.144,47.205,346.148,45.609,346.914z M131.693,335.16c-6.012,6.186-11.467,13.205-15.906,20.604
				c-4.771,7.955-7.211,17.119-11.432,25.359c-3.32,6.479-8.637,11.322-14.336,15.719c-2.22,1.711-4.942,3.805-7.781,4.301
				c-3.059,0.535-6.428-3.441-8.313-5.324c-11.065-11.062-19.066-23.988-20.831-39.307c9.727-1.145,19.346-4.969,27.66-9.873
				c10.379-6.123,19.834-13.818,29.568-20.887c4.635-3.365,9.092-6.732,14.61-8.479c1.049-0.33,2.133-0.561,3.235-0.729
				c6.191-2.988,12.424-5.619,19.167-6.986c4.39-1.688,8.761-3.422,13.089-5.246c1.84-1.305,3.637-2.654,5.398-4.006
				c7.799-5.986,15.474-12.277,23.057-18.533c17.267-14.242,31.527-31.408,46.141-48.236c13.824-15.918,23.273-35.215,34.893-52.689
				c4.645-6.986,9.511-13.822,15.041-20.143c4.088-4.672,9.27-10.076,15.348-12.471c1.021,0.115,2.129-0.133,3.224-0.904
				l0.589-0.158c2.678-0.42,4.104-2.322,4.378-4.355c8.929,2,17.534,5.107,25.464,9.686c0.299,0.172,0.59,0.357,0.887,0.531
				c-2.145,2.379-1.25,5.209,0.731,6.795c-1.606,17.033-12.389,32.824-22.337,46.049c-12.277,16.318-25.664,31.787-39.264,47.008
				c-12.321,13.787-27.128,25.68-42.645,35.66c-8.418,5.414-17.345,10.291-26.503,14.326c-4.604,2.029-9.401,3.211-14.213,4.312
				c-0.096,0.045-0.191,0.09-0.299,0.123c-10.146,3.158-19.702,7.77-30.585,7.078c-0.043-0.002-0.084-0.014-0.127-0.018
				C149.174,319.474,139.856,326.757,131.693,335.16z M149.344,351.199c-0.348,0.002-0.67,0.037-0.976,0.094
				c-4.007-2.65-8.438-4.504-13.313-4.98c10.288-11.973,23.121-21.732,38.115-26.668c1.146,1.395,2.99,2.133,5.212,1.26
				c4.653-1.828,9.503-2.623,14.376-3.641c5.314-1.109,10.375-2.854,15.374-4.953c9.465-3.973,18.612-9.154,27.326-14.553
				c17.001-10.533,32.321-23.752,46.026-38.271c15.234-16.139,29.433-33.664,42.615-51.502c9.96-13.475,19.305-29.414,21.265-46.396
				c2.79,2.039,5.129,4.426,7.771,6.738c5.168,4.521,15.988,11.438,15.606,19.244c-0.09,1.842,0.668,3.084,1.801,3.773
				c-0.107,3.857-1.123,7.656-3.358,11.125c-0.457,2.855-1.259,5.674-2.29,8.322c-4.584,11.768-13.592,22.02-21.456,31.721
				c-16.677,20.572-36.069,38.988-57.506,54.529C245.994,325.994,199.875,350.91,149.344,351.199z M180.219,387.65
				c-7.307-8.65-13.533-18.346-21.201-26.789c52.041-3.137,100.646-30.635,141.076-61.955
				c22.572-17.486,41.959-38.201,59.397-60.719c7.741-9.998,15.064-20.723,17.415-33.369c0.607-3.271,1.287-8.459,0.77-13.156
				c4.689,6.975,8.875,14.25,13.961,21.105c0.897,1.209,1.94,2.285,3.003,3.332c-1.429,0.125-2.733,0.988-3.39,2.861
				c-4.484,12.785-7.602,26.012-12.643,38.602c-4.811,12.014-11.048,23.252-18.83,33.59c-13.986,18.58-31.387,35.413-49.08,50.445
				c-33.95,28.846-80.6,58.111-127.015,45.68C182.299,386.906,181.132,387.103,180.219,387.65z M408.684,340.027
				c-1.386,0.602-2.891,1.115-4.088,2c-2.65,1.959-5.17,4.092-7.651,6.258c-5.246,4.578-10.146,9.516-14.946,14.553
				c-9.566,10.037-18.735,20.469-29.604,29.152c-11.209,8.953-24.372,15.602-38.277,20.088c3.777-2.42,7.473-4.973,11.09-7.627
				c13.844-10.164,27.212-21.701,39.348-33.854c11.49-11.506,19.528-24.764,26.756-39.174c2.798-5.578,5.074-11.4,6.963-17.342
				c1.238-3.892,2.35-8.338,2.008-12.553c0.074,0.045,0.145,0.094,0.223,0.135c7.048,3.807,9.624,12.664,11.485,19.885
				c1.271,4.928,2.088,9.99,2.761,15.068C412.082,335.951,409.027,337.156,408.684,340.027z M510.887,279.8
				c-0.328,11.248-5.328,24.6-11.627,33.951c-6.072,9.016-15.422,10.793-23.787,3.791c-7.743-6.482-14.015-14.262-24.79-15.266
				c-6.358-0.594-8.328,9.217-1.908,9.816c9.803,0.914,15.543,9.447,22.981,15.094c-1.146,2.264-2.7,4.561-4.882,4.883
				c-2.328,0.342-4.958-1.885-6.665-3.18c-5.785-4.385-10.663-9.924-17.256-13.186c-5.79-2.863-10.223,6.104-4.449,8.959
				c8.016,3.965,13.362,11.807,21.42,15.807c0.326,0.162,0.65,0.311,0.972,0.447c-0.025,0.104-0.055,0.205-0.075,0.312
				c-1.408,7.445-7.322,12.885-9.793,19.945c-2.324,6.641-2.704,13.738-4.924,20.346c-15.705-8.459-18.801-25.564-21.072-42.789
				c-2.09-15.861-4.328-37.521-20.078-46.027c-3.12-1.684-5.853,0.256-6.755,2.855c-0.354-0.34-0.757-0.592-1.178-0.789
				c-0.765,0.76-1.528,1.52-2.258,2.307c-0.811,1.105-1.612,2.217-2.403,3.334c-0.668,1.008-1.307,2.041-1.929,3.086
				c0.022,3.318-1.474,7.105-2.36,9.895c-1.682,5.287-4.084,10.43-6.619,15.355c-3.332,6.479-6.439,12.9-10.634,18.9
				c-4.762,6.812-10.353,13.035-16.29,18.834c-21.709,21.197-47.144,42.627-76.452,51.982c-0.41,0.131-0.774,0.297-1.103,0.49
				c-1.958,0.113-3.911,0.195-5.854,0.232c-25.794,0.488-52.048-2.334-74.263-16.424c-1.744-1.107-3.388-2.311-4.973-3.566
				c45.199,6.844,89.797-20.43,123.244-48.332c18.526-15.453,36.323-32.834,51.198-51.854c8.083-10.334,14.275-21.504,19.704-33.402
				c6.18-13.545,9.27-28.201,14.178-42.199c0.051-0.143,0.088-0.281,0.125-0.422c0.035,0.076,0.063,0.156,0.097,0.232
				c-0.073-1.508,1.954-2.566,3.41-1.936c7.462,3.232,15.253,4.309,23.175,5.039c3.434-0.271,6.834-0.977,10.066-2.084
				c9.449-3.238,13.641-10.256,16.865-19.041c3.147-8.578,6.398-17.129,10.715-25.199c2.601-4.863,6.357-11.355,11.742-13.816
				c3.76,21.75,20.902,41.84,15.445,64.307c-5.676,23.367-36.35,19.76-54.504,19.709c-6.444-0.018-5.645,9.955,0.77,9.973
				c21.354,0.059,48.396,2.084,60.348-19.387c0.042,0.064,0.077,0.131,0.123,0.195C506.635,252.626,511.303,265.541,510.887,279.8z"
				/>
		</g>
	</g>
</g>
</svg>
