<?xml version="1.0" encoding="utf-8"?>
<!-- Generator: Adobe Illustrator 16.0.3, SVG Export Plug-In . SVG Version: 6.00 Build 0)  -->
<!DOCTYPE svg PUBLIC "-//W3C//DTD SVG 1.1//EN" "http://www.w3.org/Graphics/SVG/1.1/DTD/svg11.dtd">
<svg version="1.1" id="Layer_1" xmlns="http://www.w3.org/2000/svg" xmlns:xlink="http://www.w3.org/1999/xlink" x="0px" y="0px"
	 width="512px" height="512px" viewBox="0 0 512 512" style="enable-background:new 0 0 512 512;" xml:space="preserve">
<style type="text/css">
<![CDATA[
	.st0{fill:#127274;}
	.st1{fill:#14B6B9;}
	.st2{fill:#1E4384;}
	.st3{fill:#ED2224;}
	.st4{fill:#EF4823;}
	.st5{fill:#BCBCBC;}
	.st6{fill:#231F20;}
	.st7{fill:#F26824;}
	.st8{fill:#F3AD20;}
	.st9{fill:#F6851F;}
	.st10{fill:#C56528;}
	.st11{fill:#FCBF95;}
	.st12{fill:#FEBF10;}
	.st13{fill:none;}
	.st14{fill:#010101;}
	.st15{fill:#D4E2A9;}
	.st16{fill:#3AB37C;}
	.st17{fill:#085084;}
	.st18{fill:#D6E5E5;}
	.st19{fill:#71C598;}
	.st20{fill:#73A1B2;}
	.st21{fill:#74CCCF;}
]]>
</style>
<g>
	<g>
		<g>
			<path class="st12" d="M324.963,107.475c-0.206,0.007-0.41,0.008-0.617,0.017c-0.975,1.291-2.533,2.009-4.082,2.105
				c-0.52,0.758-1.259,1.422-2.251,1.893c-5.991,2.841-12.069,5.234-18.212,7.289c1.189,2.921,1.885,5.942,1.838,8.926
				c3.948-2.677,8.158-5.053,11.956-7.668C316.951,117.725,325.741,112.623,324.963,107.475z"/>
		</g>
	</g>
	<g>
		<g>
			<path class="st12" d="M309.328,192.664c-0.365-6.792-1.677-13.502-3.471-20.054c-1.837-6.703-4.008-13.354-6.784-19.732
				c-1.531-3.518-3.767-8.536-6.015-10.352c-0.116-0.094-0.202-0.208-0.306-0.311c-0.535,0.312-1.085,0.6-1.646,0.867
				c0.138,0.406,0.233,0.834,0.239,1.303c0.133,10.786,3.258,22.144,6.094,32.462c1.795,6.525,3.752,13.133,6.668,19.261
				c0.938,1.97,2.023,3.967,3.443,5.637c-0.077-0.091,0.211,0.104,0.499,0.324c0.378-0.724,0.631-1.328,0.781-2.033
				C309.352,197.589,309.463,195.161,309.328,192.664z"/>
		</g>
	</g>
	<g>
		<g>
			<path class="st12" d="M150.452,131.323c0.106,0.057,0.227,0.121,0.376,0.199c3.574,1.863,6.955,2.752,10.973,3.625
				c11.924,2.594,24.229,3.602,36.404,4.002c12.889,0.423,25.879,0.303,38.712-1.064c4.505-0.48,9.08-1.001,13.465-2.158
				c1.64-0.433,3.293-0.902,4.845-1.594c0.25-0.111,1.417-0.91,1.376-0.863c2.014-2.265,4.745-2.006,6.628-0.595
				c0.69-0.558,1.559-0.979,2.421-1.066c0.09-1.749,0.496-3.482,1.122-5.177C228.707,132.518,188.979,129.483,150.452,131.323z"/>
		</g>
	</g>
	<g>
		<g>
			<path class="st10" d="M223.496,273.769c-10.156,3.174-19.277,8.73-26.23,18.12c-1.843,2.489-2.945,4.876-2.461,7.214
				c-0.005-0.021,0.491,1.141,1.308,2.106c0.177,0.209,1.743,1.574,2.519,2.107c5.856,4.029,14.038,5.697,21.037,6.977
				c3.699,0.676,7.422,1.229,11.158,1.69C228.958,299.279,226.92,286.274,223.496,273.769z"/>
		</g>
	</g>
	<g>
		<g>
			<path class="st10" d="M350.947,46.714c-2.924,0-5.832,0.353-8.719,0.786c-6.979,1.047-14.01,2.653-21.092,2.754
				c-4.154,0.06-7.895-0.349-11.738-2.034c-4.459-1.955-8.496-4.953-13.059-6.645c-12.047-4.468-21.075,7.438-29.462,13.841
				c-9.05,6.909-20.778,10.42-32.088,8.052c-10.792-2.26-20.127-8.105-30.446-11.674c-11.274-3.899-22.248-0.966-32.158,5.352
				c-4.953,3.159-8.533,6.639-10.738,12.149c-1.807,4.51-3.054,9.542-5.752,13.633c-5.936,8.999-15.268,11.42-25.52,8.902
				c-9.433-2.317-19.726-8.631-29.664-7.663c-4.988,0.486-13.873,5.72-11.969,11.343c1.928,5.689,8.32,9.527,13.291,12.28
				c11.967,6.63,25.879,12.028,39.479,14.071c0.006,0.001,0.011,0.002,0.017,0.003c0.207-0.038,0.42-0.067,0.645-0.082
				c54.832-3.65,112.689,4.933,164.675-16.215c0.255-0.333,0.554-0.65,0.914-0.944c1.843-1.499,3.793-2.302,5.969-2.642
				c0.11-1.85,1.147-3.536,3.177-4.036c0.922-0.983,2.212-1.556,3.517-1.688c1.984-3.623,2.064-8.643,3.226-12.443
				c1.779-5.822,8.852-10.985,13.002-15.203c4.738-4.815,9.352-9.96,12.887-15.751c0.971-1.591,1.956-3.216,2.641-4.956
				c0.157-0.4,0.26-0.74,0.334-1.038C351.79,46.768,351.334,46.714,350.947,46.714z"/>
		</g>
	</g>
	<g>
		<g>
			<path class="st12" d="M277.689,145.122c-3.514,6.651-6.269,13.776-8.844,20.811c-3.339,9.124-6.286,18.437-8.385,27.93
				c-1.732,7.837-3.539,16.374-2.27,24.423c0.354,2.248,1.354,4.785,2.559,6.05c0.54,0.567,0.96,0.924,1.186,1.106
				c0.42-0.471,1.419-1.765,1.182-1.38c1.276-2.071,2.295-4.291,3.158-6.563c5.142-13.545,7.279-28.414,9.62-42.645
				c1.566-9.521,2.09-20.127,5.021-29.492C279.859,145.355,278.773,145.279,277.689,145.122z"/>
		</g>
	</g>
	<g>
		<g>
			<path class="st12" d="M291.708,126.48c-3.168,2.875-7.688,0.331-8.326-3.056c-1.5,0.352-3.003,0.687-4.509,1.004
				c-0.15,0.553-0.394,1.105-0.757,1.644c-1.337,1.98-2.368,3.928-2.601,6.139c0.038-0.362,0.146,1.171,0.075,0.971
				c0.044,0.125,0.183,0.378,0.274,0.545c0.217,0.258,0.474,0.542,0.135,0.225c0.891,0.847,1.112,0.946,2.609,1.223
				c1.832,0.34,2.105,0.387,4.356,0.049c2.831-0.425,5.954-1.839,7.742-4.307c0.365-0.505,1.128-2.365,1.088-3.478
				C291.784,127.111,291.742,126.798,291.708,126.48z"/>
		</g>
	</g>
	<g>
		<g>
			<path class="st10" d="M285.03,338.315c-1.428-8.276-8.506-12.41-16.067-13.893c2.025,12.349,3.682,24.742,4.799,37.176
				C280.797,355.894,286.619,347.527,285.03,338.315z"/>
		</g>
	</g>
	<g>
		<g>
			<path class="st10" d="M420.734,415.747c-1.19-8.142-10.205-14.686-14.375-21.404c-6.787-10.938-7.343-24.082-7.464-36.66
				c-0.295-30.562,1.187-61.159,1.659-91.714c0.428-27.538,0.574-56.277-5.454-83.314c-7.052-31.628-26.045-69.09-59.751-74.542
				c0.363,13.443-21.695,22.451-32.068,30.931c2.409,3.502,4.1,7.786,5.597,11.389c3.247,7.813,5.887,15.931,7.749,24.188
				c1.746,7.743,3.254,15.724,2.549,23.694c-0.45,5.096-2.569,12.303-8.336,13.746c-13.131,3.285-18.747-17.983-21.404-26.895
				c-1.091-3.658-2.212-7.45-3.262-11.31c-0.404,2.499-0.804,4.998-1.231,7.493c-2.429,14.173-4.69,29.189-10.468,42.469
				c-1.898,4.366-4.471,9.067-9.032,11.075c-4.811,2.119-9.479-0.751-12.499-4.413c-9.768-11.841-4.16-32.181-0.616-45.367
				c3.925-14.607,8.749-29.825,15.838-43.356h-1.421c-1.242,0-2.364-0.239-3.353-0.967c-6.269,6.058-18.595,6.581-26.53,7.353
				c-14.538,1.414-29.253,1.515-43.832,0.722c-8.226-0.448-45.299-1.175-52.77-13.342c-0.455,0.14-0.949,0.234-1.516,0.234
				c-1.581,0-2.818-0.607-3.693-1.52c-29.057,4.695-43.191,32.063-48.922,59.03c-6.739,31.715-5.77,65.117-1.589,97.118
				c2.996,22.934,7.558,45.516,8.576,68.702c0.646,14.703,0.43,29.571-1.666,44.161c-1.04,7.243-2.163,14.823-4.611,21.747
				c-1.497,4.234-3.592,8.233-5.258,12.4c-1.344,3.359-4.354,8.864-0.985,11.858c3.53,3.136,8.209,4.543,12.785,5.362
				c12.035,2.154,24.385,0.93,36.445-0.447c15.327-1.75,30.586-4.186,45.992-5.181c16.386-1.059,32.807-1.142,49.219-0.791
				c28.251,0.605,56.493,1.291,84.744,1.85c21.715,0.43,43.857,0.874,65.28-3.27c9.813-1.898,19.95-4.791,28.493-10.129
				c4.192-2.621,7.629-5.638,11.049-9.177C417.536,424.433,421.414,420.389,420.734,415.747z M295.12,343.58
				c-1.091,13.155-9.674,22.933-20.497,29.311c0.444,7.152,0.701,14.317,0.723,21.495c0.02,6.419-9.953,7.215-9.973,0.77
				c-0.018-5.88-0.196-11.751-0.503-17.613c-3.019,1.143-6.085,2.062-9.112,2.748c-2.752,0.624-5.575,1.192-8.44,1.702
				c-0.54,5.451-8.63,6.319-9.8,1.433c-15.346,1.763-31.376,1.208-45.383-4.175c-2.079-0.799-3.037-3.395-2.684-5.434
				c0.369-2.132,1.639-3.912,2-6c1.103-6.359,10.916-4.438,9.816,1.908c-0.117,0.673-0.326,1.309-0.565,1.932
				c10.55,3.013,22.395,2.824,33.08,1.934c1.129-0.094,2.282-0.196,3.445-0.304c-0.515-17.152-2.444-34.015-4.909-51.072
				c-3.678-0.401-7.342-0.887-10.98-1.485c-10.928-1.798-28.242-4.483-34.417-15.202c-8.084-14.031,8.743-28.523,19.601-34.763
				c4.61-2.649,9.328-4.689,14.13-6.243c-2.259-6.565-4.995-12.931-8.438-18.955c-3.181-5.568,5.087-11.2,8.291-5.592
				c4.015,7.027,7.166,14.438,9.733,22.074c5.102-1.005,10.277-1.558,15.499-1.817c-1.359-5.948-2.731-11.885-4.098-17.808
				c-1.436-6.226,7.992-9.58,9.439-3.307c1.606,6.967,3.225,13.952,4.822,20.954c9.763,0.145,19.623,1.025,29.412,1.791
				c6.423,0.503,4.444,10.313-1.908,9.816c-7.956-0.623-16.554-1.393-25.249-1.631c3.271,14.62,6.38,29.312,9.034,44.072
				c6.911,0.703,13.698,2.657,19.029,7.385C292.58,327.145,295.824,335.095,295.12,343.58z"/>
		</g>
	</g>
	<g>
		<g>
			<path class="st10" d="M258.725,323.721c-5.392-0.071-10.799-0.259-16.195-0.616c2.313,16.341,4.14,32.531,4.661,48.985
				c5.88-0.92,11.753-2.322,17.021-4.645C263.068,352.81,261.146,338.233,258.725,323.721z"/>
		</g>
	</g>
	<g>
		<g>
			<path class="st10" d="M247.965,270.06c-5.029,0.164-10.021,0.59-14.869,1.425c3.7,13.597,5.912,27.698,7.961,41.519
				c5.302,0.408,10.617,0.636,15.924,0.728C254.318,299.105,251.216,284.547,247.965,270.06z"/>
		</g>
	</g>
	<g>
		<g>
			<path class="st14" d="M429.223,409.341c-3.489-8.54-11.196-14.736-15.809-22.643c-3.071-5.267-3.465-11.638-4-17.578
				c-0.68-7.565-0.623-15.193-0.498-22.78c0.244-14.896,0.398-29.797,0.734-44.691c0.721-31.949,2.23-63.97-1.123-95.829
				c-3.983-37.847-16.688-82.11-52.742-101.529c-7.868-4.237-16.634-6.406-25.5-6.811c1.164-3.586,1.826-7.513,2.666-10.721
				c0.497-1.896,4.654-5.1,6.09-6.587c2.426-2.515,4.938-4.944,7.363-7.459c4.507-4.671,8.406-9.934,11.894-15.401
				c3.144-4.929,6.687-12.787,1.477-17.654c-4.129-3.857-10.808-3.088-15.934-2.46c-7.048,0.864-13.989,2.432-21.079,2.97
				c-3.088,0.234-6.007,0.251-8.913-0.905c-4.903-1.951-9.157-5.197-14.112-7.035c-11.463-4.251-22.439,1.105-31.091,8.559
				c-9.066,7.811-17.932,14.891-30.681,13.089c-10.746-1.519-20.253-7.955-30.386-11.46c-4.928-1.704-9.815-2.654-15.034-2.751
				c-5.722-0.106-11.805,2.398-16.991,4.578C165.029,48.666,156.342,55.218,152.026,66c-1.783,4.455-2.981,9.408-5.901,13.299
				c-3.104,4.136-8.321,3.83-12.878,2.969c-10.248-1.935-19.473-7.522-30.044-8.059c-9.459-0.48-17.666,4.181-22.684,12.102
				c-8.713,13.755,8.305,25.829,18.564,31.368c7.017,3.788,14.77,7.167,22.709,9.75c-9.424,3.491-17.815,9.263-24.642,17.182
				c-10.808,12.537-16.678,28.771-20.378,44.674c-8.021,34.481-6.491,71.631-1.584,106.458c3.438,24.391,7.764,48.385,8.24,73.113
				c0.287,14.955-0.853,29.901-3.914,44.552c-2.184,10.452-8.25,19.515-10.192,29.977c-1.919,10.333,7.321,16.781,16.041,19.5
				c10.635,3.316,21.956,3.162,32.954,2.416c15.023-1.019,29.92-3.502,44.877-5.171c16.2-1.808,32.542-2.197,48.83-2.142
				c30.111,0.102,60.249,1.354,90.357,1.872c21.48,0.369,43.02,1.061,64.388-1.671c19.749-2.524,40.604-8.275,54.606-23.285
				C428.12,427.675,433.303,419.325,429.223,409.341z M101.834,107.791c-4.971-2.753-11.363-6.591-13.291-12.28
				c-1.904-5.623,6.98-10.856,11.969-11.343c9.938-0.968,20.231,5.345,29.664,7.663c10.252,2.518,19.584,0.097,25.52-8.902
				c2.698-4.091,3.945-9.123,5.752-13.633c2.205-5.51,5.785-8.991,10.738-12.149c9.91-6.318,20.884-9.251,32.158-5.352
				c10.319,3.569,19.654,9.414,30.446,11.674c11.31,2.369,23.038-1.143,32.088-8.052c8.387-6.403,17.415-18.309,29.462-13.841
				c4.562,1.692,8.6,4.69,13.059,6.645c3.844,1.685,7.584,2.093,11.738,2.034c7.082-0.102,14.113-1.708,21.092-2.754
				c2.887-0.433,5.795-0.787,8.719-0.786c0.387,0,0.843,0.053,1.367,0.154c-0.074,0.298-0.177,0.638-0.334,1.038
				c-0.685,1.74-1.67,3.365-2.641,4.956c-3.535,5.791-8.148,10.937-12.887,15.751c-4.15,4.218-11.223,9.381-13.002,15.203
				c-1.161,3.8-1.241,8.821-3.226,12.443c-1.305,0.133-2.595,0.705-3.517,1.688c-2.029,0.5-3.066,2.186-3.177,4.036
				c-2.176,0.339-4.126,1.143-5.969,2.642c-0.36,0.293-0.659,0.611-0.914,0.944c-51.985,21.147-109.843,12.565-164.675,16.215
				c-0.225,0.015-0.438,0.044-0.645,0.082c-0.006-0.001-0.011-0.002-0.017-0.003C127.713,119.819,113.801,114.421,101.834,107.791z
				 M261.936,225.441c-0.226-0.182-0.646-0.54-1.186-1.106c-1.205-1.265-2.205-3.802-2.559-6.05
				c-1.27-8.05,0.537-16.586,2.27-24.423c2.099-9.493,5.046-18.806,8.385-27.93c2.575-7.035,5.33-14.16,8.844-20.811
				c1.084,0.157,2.17,0.234,3.228,0.24c-2.932,9.365-3.455,19.971-5.021,29.492c-2.341,14.23-4.479,29.1-9.62,42.645
				c-0.863,2.272-1.882,4.492-3.158,6.563C263.354,223.677,262.355,224.97,261.936,225.441z M278.609,135.174
				c-1.497-0.277-1.719-0.376-2.609-1.223c0.339,0.317,0.082,0.034-0.135-0.225c-0.092-0.167-0.23-0.42-0.274-0.545
				c0.07,0.201-0.037-1.333-0.075-0.971c0.232-2.211,1.264-4.159,2.601-6.139c0.363-0.538,0.606-1.091,0.757-1.644
				c1.506-0.317,3.009-0.652,4.509-1.004c0.638,3.387,5.158,5.931,8.326,3.056c0.034,0.318,0.076,0.631,0.088,0.958
				c0.04,1.113-0.723,2.972-1.088,3.478c-1.788,2.468-4.911,3.882-7.742,4.307C280.715,135.562,280.441,135.514,278.609,135.174z
				 M292.753,142.216c0.104,0.103,0.189,0.217,0.306,0.311c2.248,1.816,4.483,6.833,6.015,10.352
				c2.776,6.378,4.947,13.029,6.784,19.732c1.794,6.552,3.105,13.262,3.471,20.054c0.135,2.497,0.023,4.925-0.497,7.372
				c-0.15,0.705-0.403,1.31-0.781,2.033c-0.288-0.22-0.576-0.415-0.499-0.324c-1.42-1.67-2.506-3.667-3.443-5.637
				c-2.916-6.128-4.873-12.735-6.668-19.261c-2.836-10.318-5.961-21.676-6.094-32.462c-0.006-0.468-0.102-0.897-0.239-1.303
				C291.668,142.816,292.218,142.528,292.753,142.216z M299.801,118.779c6.143-2.055,12.221-4.448,18.212-7.289
				c0.992-0.471,1.731-1.135,2.251-1.893c1.549-0.097,3.107-0.814,4.082-2.105c0.207-0.009,0.411-0.01,0.617-0.017
				c0.778,5.148-8.012,10.25-11.368,12.562c-3.798,2.616-8.008,4.992-11.956,7.668C301.686,124.722,300.99,121.701,299.801,118.779z
				 M266.773,126.632c-0.626,1.694-1.032,3.428-1.122,5.177c-0.862,0.088-1.73,0.508-2.421,1.066
				c-1.883-1.411-4.614-1.67-6.628,0.595c0.041-0.046-1.126,0.752-1.376,0.863c-1.552,0.692-3.205,1.162-4.845,1.594
				c-4.385,1.157-8.96,1.678-13.465,2.158c-12.833,1.367-25.823,1.488-38.712,1.064c-12.176-0.4-24.48-1.408-36.404-4.002
				c-4.018-0.874-7.398-1.762-10.973-3.625c-0.149-0.078-0.27-0.142-0.376-0.199C188.979,129.483,228.707,132.518,266.773,126.632z
				 M414.604,427.47c-3.42,3.539-6.856,6.556-11.049,9.177c-8.543,5.338-18.68,8.231-28.493,10.129
				c-21.423,4.144-43.565,3.7-65.28,3.27c-28.251-0.559-56.493-1.244-84.744-1.85c-16.412-0.351-32.833-0.268-49.219,0.791
				c-15.406,0.996-30.665,3.431-45.992,5.181c-12.061,1.377-24.41,2.601-36.445,0.447c-4.576-0.819-9.255-2.226-12.785-5.362
				c-3.369-2.994-0.358-8.499,0.985-11.858c1.666-4.167,3.761-8.166,5.258-12.4c2.448-6.924,3.571-14.504,4.611-21.747
				c2.096-14.59,2.312-29.458,1.666-44.161c-1.019-23.186-5.58-45.768-8.576-68.702c-4.181-32.001-5.15-65.403,1.589-97.118
				c5.73-26.967,19.865-54.335,48.922-59.03c0.875,0.913,2.112,1.52,3.693,1.52c0.566,0,1.061-0.094,1.516-0.234
				c7.471,12.167,44.544,12.894,52.77,13.342c14.579,0.793,29.294,0.692,43.832-0.722c7.936-0.772,20.262-1.295,26.53-7.353
				c0.988,0.728,2.11,0.967,3.353,0.967h1.421c-7.089,13.531-11.913,28.749-15.838,43.356c-3.544,13.186-9.151,33.526,0.616,45.367
				c3.021,3.662,7.688,6.531,12.499,4.413c4.562-2.008,7.134-6.709,9.032-11.075c5.777-13.28,8.039-28.296,10.468-42.469
				c0.428-2.495,0.827-4.994,1.231-7.493c1.05,3.86,2.171,7.651,3.262,11.31c2.657,8.911,8.273,30.18,21.404,26.895
				c5.767-1.443,7.886-8.649,8.336-13.746c0.705-7.97-0.803-15.951-2.549-23.694c-1.862-8.256-4.502-16.375-7.749-24.188
				c-1.497-3.604-3.188-7.887-5.597-11.389c10.373-8.48,32.432-17.488,32.068-30.931c33.706,5.452,52.699,42.914,59.751,74.542
				c6.028,27.037,5.882,55.776,5.454,83.314c-0.473,30.556-1.954,61.152-1.659,91.714c0.121,12.579,0.677,25.723,7.464,36.66
				c4.17,6.718,13.185,13.262,14.375,21.404C421.414,420.389,417.536,424.433,414.604,427.47z"/>
		</g>
	</g>
	<g>
		<g>
			<path class="st14" d="M286.22,321.505c-5.331-4.728-12.118-6.683-19.029-7.385c-2.654-14.76-5.763-29.453-9.034-44.072
				c8.695,0.238,17.293,1.008,25.249,1.631c6.353,0.497,8.331-9.313,1.908-9.816c-9.789-0.766-19.649-1.646-29.412-1.791
				c-1.598-7.002-3.216-13.987-4.822-20.954c-1.447-6.273-10.875-2.919-9.439,3.307c1.366,5.923,2.738,11.859,4.098,17.808
				c-5.222,0.259-10.397,0.812-15.499,1.817c-2.567-7.636-5.719-15.047-9.733-22.074c-3.204-5.608-11.472,0.023-8.291,5.592
				c3.442,6.024,6.179,12.39,8.438,18.955c-4.802,1.554-9.52,3.594-14.13,6.243c-10.857,6.24-27.685,20.731-19.601,34.763
				c6.175,10.719,23.489,13.404,34.417,15.202c3.639,0.599,7.303,1.084,10.98,1.485c2.465,17.057,4.395,33.919,4.909,51.072
				c-1.163,0.108-2.316,0.209-3.445,0.304c-10.686,0.89-22.53,1.08-33.08-1.934c0.239-0.624,0.448-1.259,0.565-1.932
				c1.1-6.347-8.714-8.267-9.816-1.908c-0.361,2.088-1.631,3.868-2,6c-0.354,2.039,0.604,4.634,2.684,5.434
				c14.007,5.383,30.037,5.938,45.383,4.175c1.17,4.886,9.26,4.018,9.8-1.433c2.865-0.51,5.688-1.078,8.44-1.702
				c3.027-0.686,6.094-1.605,9.112-2.748c0.307,5.862,0.485,11.733,0.503,17.613c0.02,6.445,9.992,5.65,9.973-0.77
				c-0.021-7.178-0.278-14.343-0.723-21.495c10.823-6.378,19.406-16.156,20.497-29.311
				C295.824,335.095,292.58,327.145,286.22,321.505z M219.668,310.292c-6.999-1.28-15.181-2.948-21.037-6.977
				c-0.775-0.533-2.342-1.897-2.519-2.107c-0.816-0.965-1.312-2.127-1.308-2.106c-0.484-2.338,0.618-4.725,2.461-7.214
				c6.953-9.389,16.074-14.946,26.23-18.12c3.424,12.506,5.462,25.511,7.33,38.214C227.09,311.521,223.367,310.969,219.668,310.292z
				 M241.057,313.003c-2.049-13.821-4.261-27.922-7.961-41.519c4.848-0.835,9.84-1.261,14.869-1.425
				c3.251,14.487,6.354,29.046,9.016,43.672C251.674,313.64,246.358,313.412,241.057,313.003z M247.19,372.09
				c-0.521-16.454-2.348-32.644-4.661-48.985c5.396,0.357,10.804,0.545,16.195,0.616c2.422,14.513,4.344,29.089,5.486,43.724
				C258.943,369.768,253.07,371.17,247.19,372.09z M273.762,361.599c-1.117-12.434-2.773-24.827-4.799-37.176
				c7.562,1.482,14.64,5.617,16.067,13.893C286.619,347.527,280.797,355.894,273.762,361.599z"/>
		</g>
	</g>
</g>
</svg>
