<?xml version="1.0" encoding="utf-8"?>
<!-- Generator: Adobe Illustrator 16.0.3, SVG Export Plug-In . SVG Version: 6.00 Build 0)  -->
<!DOCTYPE svg PUBLIC "-//W3C//DTD SVG 1.1//EN" "http://www.w3.org/Graphics/SVG/1.1/DTD/svg11.dtd">
<svg version="1.1" id="Layer_1" xmlns="http://www.w3.org/2000/svg" xmlns:xlink="http://www.w3.org/1999/xlink" x="0px" y="0px"
	 width="512px" height="512px" viewBox="0 0 512 512" style="enable-background:new 0 0 512 512;" xml:space="preserve">
<style type="text/css">
<![CDATA[
	.st0{fill:#127274;}
	.st1{fill:#14B6B9;}
	.st2{fill:#1E4384;}
	.st3{fill:#EF4754;}
	.st4{fill:#EF4823;}
	.st5{fill:#BCBCBC;}
	.st6{fill:#F6851F;}
	.st7{fill:#C56528;}
	.st8{fill:#FCBF95;}
	.st9{fill:#FEBF10;}
	.st10{fill:none;}
	.st11{fill:#010101;}
	.st12{fill:#3AB37C;}
	.st13{fill:#D6E5E5;}
	.st14{fill:#71C598;}
	.st15{fill:#74CCCF;}
]]>
</style>
<g>
	<g>
		<g>
			<path class="st7" d="M241.312,419.03c-4.878-7.839-9.411-15.752-13.58-23.822c-0.772,0.68-1.53,1.374-2.307,2.049
				c-0.624,0.542-1.258,0.889-1.883,1.084c2.444,7.479,4.976,14.927,7.651,22.322c3.496,9.654,6.72,19.399,9.972,29.135
				c4.282-3.039,8.429-6.235,12.511-9.506C249.607,433.161,245.629,425.97,241.312,419.03z"/>
		</g>
	</g>
	<g>
		<g>
			<path class="st7" d="M275.719,472.829c-0.371-0.416-0.723-0.844-1.086-1.264c-0.113-0.013-0.411-0.25-0.914-0.736
				c-1.002-0.771-1.588-1.666-1.854-2.592c-4.643-5.801-8.736-11.989-12.581-18.35c-4.511,3.585-9.103,7.074-13.859,10.37
				c-0.204,0.142-0.408,0.263-0.612,0.373c0.622,1.824,1.248,3.648,1.883,5.469c1.299,3.728,8.748,29.677,16.097,24.824
				c6.112-4.036,11.055-10.155,15.278-16.673C277.225,474.062,276.414,473.61,275.719,472.829z"/>
		</g>
	</g>
	<g>
		<g>
			<path class="st7" d="M300.48,416.129c-2.614,1.96-5.188,3.97-7.734,6.008c0.27,0.431,0.529,0.874,0.803,1.302
				c2.109,3.304,4.352,6.517,6.291,9.92c0.17,0.296,0.344,0.592,0.514,0.888c1.678-2.968,3.389-5.921,5.156-8.853
				c4.67-7.741,9.242-15.511,13.664-23.348C313.057,407.032,306.547,411.582,300.48,416.129z"/>
		</g>
	</g>
	<g>
		<g>
			<path class="st7" d="M291.654,441.119c-2.395-4.057-4.846-8.083-7.299-12.109c-5.563,4.646-11.066,9.365-16.639,14.003
				c4.242,7.146,8.812,14.049,14.188,20.296c0.645,0.545,1.188,1.087,1.65,1.735c0.834-1.495,1.645-2.973,2.43-4.408
				c2.869-5.245,5.668-10.499,8.498-15.73C293.354,443.686,292.377,442.341,291.654,441.119z"/>
		</g>
	</g>
	<g>
		<g>
			<path class="st7" d="M249.469,365.555c-5.008-15.567-9.164-31.532-13.102-47.49c-6.748,7.356-14.088,14.199-22.141,20.083
				c2.443,8.16,4.624,16.402,7.388,24.473c2.87,8.38,6.099,16.465,9.667,24.361c6.486-6.08,12.834-12.309,19.119-18.599
				C250.088,367.44,249.773,366.499,249.469,365.555z"/>
		</g>
	</g>
	<g>
		<g>
			<path class="st7" d="M231.695,298.905c-3.186-13.11-6.013-26.333-7.811-39.687c-0.685,1.149-1.383,2.29-2.104,3.415
				c-6.229,9.713-14.732,18.085-22.734,26.531c0.713,2.733,1.447,5.46,2.219,8.175c2.84,9.99,6.101,19.847,9.398,29.693
				c7.917-6.144,15.092-13.226,21.584-20.888c0.314-0.371,0.621-0.746,0.932-1.119C232.685,302.983,232.189,300.941,231.695,298.905
				z"/>
		</g>
	</g>
	<g>
		<g>
			<path class="st7" d="M314.453,301.022c-4.531,6.104-12.807,13.068-20.598,8.103c-1.816-1.158-3.342-2.454-4.641-3.855
				c1.303,6.999,2.884,13.939,4.619,20.867c1.676-1.638,3.344-3.285,4.998-4.945c5.551-5.568,10.984-11.334,16.07-17.381
				C314.734,302.885,314.584,301.955,314.453,301.022z"/>
		</g>
	</g>
	<g>
		<g>
			<path class="st7" d="M277.266,239.662c-8.346-9.599-23.273-9.216-36.357-7.944c-0.341,0.771-0.832,1.542-1.463,2.305
				c0.088,2.165-0.869,4.431-3.277,5.616c-0.778,0.383-1.833,1.778-2.891,3.424c1.133,16.991,4.326,33.785,8.348,50.341
				c0.07,0.286,0.141,0.573,0.209,0.859c2.184-2.721,4.402-5.416,6.748-8.022c6.068-6.742,12.221-13.428,17.963-20.453
				c2.342-2.864,4.791-5.754,6.736-8.91c0.225-0.365,0.449-0.734,0.668-1.107c-0.055-3.632-0.082-7.266-0.086-10.9
				C273.861,242.254,275.368,240.489,277.266,239.662z"/>
		</g>
	</g>
	<g>
		<g>
			<path class="st7" d="M276.199,293.426c-0.793-6.666-1.316-13.347-1.672-20.037c-5.062,6.17-10.443,12.083-15.784,18.008
				c-4.785,5.308-9.108,10.925-13.591,16.444c3.613,14.653,7.365,29.315,11.551,43.772c0.773,2.675,1.588,5.34,2.428,8
				c0.289-0.291,0.579-0.583,0.869-0.874c8.086-8.128,16.457-15.954,24.752-23.855C281.149,321.239,277.869,307.448,276.199,293.426
				z"/>
		</g>
	</g>
	<g>
		<g>
			<path class="st7" d="M276.926,426.446c-8.787-14.854-16.328-30.49-22.457-46.642c-5.992,5.929-12.062,11.774-18.254,17.495
				c4.307,8.589,9.023,17,14.216,25.331c4.114,6.603,7.886,13.54,11.74,20.443c5.489-4.597,10.917-9.264,16.421-13.844
				C278.037,428.301,277.477,427.376,276.926,426.446z"/>
		</g>
	</g>
	<g>
		<g>
			<path class="st7" d="M308.846,394.155c-3.588-5.522-6.748-11.315-9.525-17.288c-4.52-9.723-8.18-19.817-11.254-30.085
				c-7.988,7.657-15.943,15.342-23.762,23.202c-0.417,0.419-0.836,0.837-1.253,1.257c4.468,12.489,9.714,24.712,15.914,36.413
				c2.604,4.915,5.288,9.845,8.074,14.708c1.696-1.341,3.401-2.671,5.128-3.976c6.986-5.277,14.873-10.483,21.916-16.463
				C311.949,399.299,310.174,396.199,308.846,394.155z"/>
		</g>
	</g>
	<g>
		<g>
			<path class="st8" d="M353.863,60.871c0.398-10.279-8.254-19.582-15.39-26.011c-6.095-5.492-12.638-9.333-20.417-11.967
				c-14.646-4.958-30.906-5.61-46.111-3.33c-29.209,4.381-60.611,22.189-62.041,54.645c15-0.247,30.301,2.503,43.301,9.924
				c20.01,11.421,34.748,32.856,40.034,55.202c8.549-3.329,17.558-5.494,26.732-6.324c6.437-0.583,13.011-0.571,19.501,0.139
				c0.477-6.968,3.369-13.754,5.139-20.463c2.9-11.003,5.386-22.1,8.045-33.163c1.158-4.818,2.313-9.599,3.406-14.397
				C354.715,64.389,353.781,62.991,353.863,60.871z"/>
		</g>
	</g>
	<g>
		<g>
			<path class="st7" d="M387.727,49.032c-2.32-1.306-4.742-2.104-7.367-2.556c-4.875-0.839-7.97-0.974-9.792,4.17
				c-1.808,5.106-1.985,10.668-3.3,15.899c-2.202,8.766-4.398,17.523-6.457,26.326c-2.035,8.702-3.947,17.489-6.631,26.021
				c-1.636,5.197-3.702,10.673-3.717,16.179c2.557,0.625,5.08,1.367,7.553,2.248c-0.203-1.015-0.109-2.141,0.406-3.319
				c4.856-11.085,13.139-20.066,20.25-29.796c-0.652-1.013-0.967-2.295-0.722-3.807c1.411-8.695,2.269-17.483,3.849-26.151
				c1.291-7.08,3.42-13.327,5.898-20.024C388.316,52.547,389.61,50.092,387.727,49.032z"/>
		</g>
	</g>
	<g>
		<g>
			<path class="st7" d="M200.68,331.87c-3.836-11.433-7.711-22.878-10.801-34.542c-0.137-0.517-0.279-1.038-0.418-1.555
				c-1.033-0.23-2.003-0.757-2.788-1.478c4.333,11.558,8.544,23.162,12.366,34.912c0.525,1.618,1.045,3.239,1.564,4.86
				c0.221-0.137,0.434-0.288,0.653-0.427C201.064,333.051,200.877,332.458,200.68,331.87z"/>
		</g>
	</g>
	<g>
		<g>
			<path class="st7" d="M221.865,231.93c-7.873,0.045-15.785-0.285-23.649,0.077c-3.47,0.16-6.938,0.385-10.403,0.658
				c0.008,0.119,0.021,0.235,0.021,0.359c0.137,11.156,2.561,22.069,5.336,32.827c0.919,3.56,1.807,7.131,2.692,10.703
				c6.995-7.363,13.896-14.898,18.935-23.601c2.255-3.893,4.527-8.698,7.287-13.074C221.957,237.234,221.881,234.585,221.865,231.93
				z"/>
		</g>
	</g>
	<g>
		<g>
			<path class="st7" d="M176.863,233.871c0-0.057,0.006-0.109,0.006-0.166c-1.57,0.179-3.141,0.38-4.701,0.632
				c-0.381,0.062-2.297,0.431-2.012,0.355c-0.422,0.112-0.709,0.207-0.906,0.281c-0.363,0.216-0.461,0.175,0,0
				c0.576-0.341,1.799-1.324,2.498-3.477c-1.062,3.271-4.217,4.442-6.891,3.993c6.224,18.164,13.219,36.037,20.002,53.991
				c0.157-0.899,0.582-1.808,1.357-2.665c0.197-0.219,0.4-0.437,0.6-0.655C182.045,269.066,177.078,251.366,176.863,233.871z"/>
		</g>
	</g>
	<g>
		<g>
			<path class="st7" d="M353.573,299.339c-3.245-6.262-6.089-12.529-8.583-19.124c-0.113-0.297-0.225-0.598-0.338-0.896
				c-2.998,5.676-6.342,11.184-9.953,16.475c-2.523,3.697-5.189,7.283-7.959,10.786c2.051,8.403,5.4,16.591,8.309,24.604
				c2.996,8.257,7.766,15.651,11.928,23.341c0.523-1.332,1.061-2.658,1.567-3.999c4.325-11.426,8.358-22.961,12.399-34.493
				C359.264,310.193,356.346,304.69,353.573,299.339z"/>
		</g>
	</g>
	<g>
		<g>
			<path class="st8" d="M391.261,218.467c-2.532-1.493-4.202-5.026-2.323-8.21c0.129-0.962,0.475-1.811,0.955-2.539
				c-1.662-2.264-0.99-5.464,0.904-7.323c-0.213-8.572-1.124-17.505-5.314-24.979c-4.283-7.642-9.229-14.611-16.341-19.884
				c-13.725-10.174-31.58-13.319-48.323-11.552c-18.497,1.952-37.41,9.327-50.901,22.423c-5.409,5.25-10.128,11.311-14.36,17.547
				c-3.373,4.969-8.498,12.43-6.016,18.679c2.627,6.614-7.773,10.206-10.383,3.638c-3.377-8.498,0.562-17.848,5.163-25.085
				c4.946-7.781,10.577-15.72,17.331-22.04c6.445-6.032,13.717-11.136,21.523-15.224c-0.129-0.328-0.236-0.674-0.312-1.046
				c-4.734-23.462-23.031-46.984-46.392-54.054c-35.47-10.734-81.727,2.464-104.23,32.592
				c-22.788,30.509-11.666,87.591,27.157,99.64c2.496,0.775,3.779,2.763,4.059,4.844c3.93-3.099,10.951-3.014,15.467-3.47
				c6.945-0.701,14.012-1.461,21.002-1.461c10.709,0,21.969-1.003,32.648,0.24c1.031,0.12,1.984,0.332,2.859,0.614
				c0.682-0.443,1.508-0.752,2.492-0.854c11.787-1.228,24.795-2.116,35.986,2.599c10.473,4.412,16.777,13.569,19.336,24.42
				c3.277,13.894-1.252,27.733,0.957,41.656c0.354,2.231,2.723,12.265,6.781,9.568c4.111-2.732,6.77-7.475,8.896-11.811
				c4.918-10.022,8.271-21.082,9.82-32.127c1.484-10.579,0.516-22.31,10.023-29.507c7.842-5.938,17.436-3.455,22.094,5.035
				c1.492,2.719,2.236,5.427,2.342,8.519c0.07,2.055-0.238,4.739,0.638,6.65c1.392,3.036,6.068-5.454,6.454-6.29
				c3.041-6.583,2.951-20.231,14.051-17.857c10.188,2.179,12.885,13.416,11.793,22.531c-0.289,2.416-0.945,4.761-1.879,7.01
				c-0.721,1.735-2.543,4.515-2.131,6.486c0.517,2.472,3.922,1.323,4.938,0.26c1.708-1.788,3.15-3.732,4.017-6.077
				C396.033,241.227,394.581,229.365,391.261,218.467z"/>
		</g>
	</g>
	<g>
		<g>
			<path class="st7" d="M335.863,238.871c0.146-2.801,1.996-4.624,4.135-5.352c-0.023-0.011-0.041-0.025-0.064-0.035
				c-2.305-0.965-5.092,2.082-6.063,3.864c-2.793,5.118-2.216,11.137-2.937,16.784c-0.806,6.315-1.976,12.586-3.85,18.679
				c-1.615,5.253-3.377,10.519-5.578,15.575c1.371,0.431,2.527,1.391,3.041,2.919c2.328-3.333,4.527-6.753,6.555-10.281
				c3.039-5.289,5.445-11.103,8.459-16.459C337.068,256.191,335.408,247.59,335.863,238.871z"/>
		</g>
	</g>
	<g>
		<g>
			<path class="st7" d="M211.231,366.258c-2.43-7.218-4.489-14.543-6.644-21.838c-0.217,0.088-0.434,0.167-0.65,0.228
				c5.438,17.489,10.597,35.085,16.109,52.556c0.902-0.788,1.78-1.603,2.675-2.399C218.393,385.577,214.545,376.103,211.231,366.258
				z"/>
		</g>
	</g>
	<g>
		<g>
			<path class="st9" d="M408.484,75.59c-6.396,9.594-11.002,20.297-17.327,29.958c-7.354,11.231-17.455,20.96-22.881,33.346
				c-0.417,0.952-0.987,1.652-1.642,2.146c3.414,1.768,6.689,3.83,9.77,6.227c4.114,3.203,7.828,6.918,11.079,11.006
				c0.024-0.005,0.048-0.01,0.073-0.015c7.842-9.425,11.283-22.01,17.006-32.709c6.861-12.828,16.691-23.959,22.92-37.108
				C420.896,84.381,413.477,81.243,408.484,75.59z"/>
		</g>
	</g>
	<g>
		<g>
			<path class="st7" d="M373.873,250.014c1.938-4.654,4.441-11.969,0.807-16.604c-0.039-0.051-0.111-0.138-0.199-0.234
				c-0.229,0.836-0.36,1.715-0.524,2.551c-0.534,2.723-1.241,5.365-2.409,7.893c-2.707,5.857-6.802,12.361-13.629,13.648
				c-0.045,0.009-0.088,0.01-0.133,0.018c-0.016,0.072-0.02,0.139-0.037,0.213c-0.413,1.673-1.369,2.811-2.553,3.482
				c-0.334,0.312-0.924,0.813-1.354,1.426c-0.568,0.81-1.091,1.621-1.565,2.489c-0.237,0.433-0.478,0.859-0.716,1.288
				c1.676,5.042,3.605,10.006,5.488,14.891c2.617,6.793,6.17,13.123,9.311,19.613c3.896-10.916,7.918-21.785,12.328-32.509
				C372.32,263.697,370.719,257.59,373.873,250.014z"/>
		</g>
	</g>
	<g>
		<g>
			<path class="st7" d="M332.531,351.188c-3.51-6.256-6.391-12.536-8.863-19.26c-1.838-5.002-3.769-10.084-5.43-15.246
				c-5.125,5.75-10.512,11.272-16.076,16.605c-1.719,1.647-3.438,3.29-5.156,4.934c5.367,19.491,12.441,39.641,24.982,55.509
				c0.156,0.017,0.314,0.044,0.471,0.08c2.193-2.478,4.184-5.098,5.867-7.919c-0.984-3.127,0.426-6.929,4.6-6.929h2
				c0.467,0,0.917,0.056,1.35,0.149c1.74-3.648,3.414-7.332,5.047-11.036C338.948,362.167,335.65,356.744,332.531,351.188z"/>
		</g>
	</g>
	<g>
		<g>
			<path d="M169.25,234.974C168.789,235.149,168.887,235.189,169.25,234.974L169.25,234.974z"/>
		</g>
	</g>
	<g>
		<g>
			<path d="M437.98,82.315c-7.158-5.16-20.297-8.693-23.439-17.687c-0.859-2.459-3.123-3.667-5.615-3.667
				c-6.105,0-10.082,9.15-12.844,13.688c-1.554,2.552-3.012,5.16-4.449,7.781c0.557-3.716,1.175-7.423,1.943-11.105
				c1.541-7.384,5.938-14.157,6.082-21.765c0.26-13.616-24.014-17.699-32.875-12.037c-2.771,1.77-4.596,4.533-5.873,7.602
				c-2.939-5.412-7.113-10.318-11.111-14.562c-6.617-7.024-14.256-12.488-23.172-16.15c-16.387-6.731-34.807-8.197-52.291-6.243
				c-34.2,3.824-71.261,24.198-75.133,61.727c-0.171,1.665-0.259,3.343-0.303,5.019c-0.672,0.075-1.347,0.142-2.014,0.228
				c-37.396,4.784-77.921,28.271-85.736,67.705c-6.814,34.377,8.615,74.879,42.571,87.76c-0.843,1.227-1.181,2.822-0.563,4.659
				c9.963,29.701,22.607,58.419,32.408,88.179c10.28,31.218,19.465,62.779,29.646,94.028c4.977,15.277,10.473,30.378,15.555,45.621
				c4.404,13.211,8.223,26.989,15.319,39.069c5.826,9.918,15.884,13.187,25.338,5.844c9.832-7.636,16.81-19.336,22.881-29.979
				c3.829-6.711,7.292-13.626,10.864-20.476c4.326-8.292,9.406-16.121,14.17-24.165c10.424-17.598,21.017-35.44,29.336-54.138
				c1.218-2.736,2.393-5.488,3.549-8.249c0.217-0.37,0.383-0.772,0.496-1.199c6.199-14.918,11.596-30.147,16.93-45.402
				c2.117-0.657,3.699-2.48,3.184-5.375c-0.141-0.791-0.305-1.571-0.482-2.346c5.539-15.836,11.145-31.648,17.648-47.114
				c3.934-1.645,7.422-5.056,9.559-8.339c9.732-14.955,6.096-35.835,0.324-51.661c1.285-1.1,1.959-2.611,1.951-4.54
				c-0.041-11.325-0.988-22.652-5.85-33.04c-0.671-1.435-1.408-2.838-2.178-4.225c9.572-9.768,14.041-23.762,19.86-35.842
				c7.276-15.103,19.448-27.299,25.609-43.022C440.117,86.75,440.074,83.825,437.98,82.315z M367.268,66.546
				c1.314-5.231,1.492-10.793,3.3-15.899c1.822-5.145,4.917-5.01,9.792-4.17c2.625,0.452,5.047,1.25,7.367,2.556
				c1.884,1.06,0.59,3.515-0.029,5.189c-2.479,6.697-4.607,12.945-5.898,20.024c-1.58,8.668-2.438,17.456-3.849,26.151
				c-0.245,1.512,0.069,2.794,0.722,3.807c-7.111,9.73-15.394,18.711-20.25,29.796c-0.516,1.179-0.609,2.304-0.406,3.319
				c-2.473-0.881-4.996-1.623-7.553-2.248c0.015-5.506,2.081-10.982,3.717-16.179c2.684-8.531,4.596-17.318,6.631-26.021
				C362.869,84.069,365.065,75.312,367.268,66.546z M271.945,19.563c15.205-2.281,31.465-1.628,46.111,3.33
				c7.779,2.633,14.322,6.475,20.417,11.967c7.136,6.43,15.788,15.732,15.39,26.011c-0.082,2.12,0.852,3.518,2.199,4.254
				c-1.093,4.799-2.248,9.58-3.406,14.397c-2.659,11.062-5.145,22.159-8.045,33.163c-1.77,6.709-4.662,13.495-5.139,20.463
				c-6.49-0.709-13.064-0.722-19.501-0.139c-9.175,0.831-18.184,2.995-26.732,6.324c-5.286-22.345-20.024-43.781-40.034-55.202
				c-13-7.421-28.301-10.171-43.301-9.924C211.334,41.752,242.736,23.944,271.945,19.563z M184.859,289.481
				c-6.783-17.954-13.778-35.828-20.002-53.991c2.674,0.449,5.828-0.723,6.891-3.993c-0.699,2.152-1.922,3.136-2.498,3.477
				c0.197-0.074,0.484-0.169,0.906-0.281c-0.285,0.075,1.631-0.294,2.012-0.355c1.561-0.252,3.131-0.453,4.701-0.632
				c0,0.056-0.006,0.109-0.006,0.166c0.215,17.495,5.182,35.195,9.953,52.291c-0.199,0.219-0.402,0.436-0.6,0.655
				C185.441,287.674,185.017,288.583,184.859,289.481z M200.604,334.067c-0.52-1.621-1.039-3.242-1.564-4.86
				c-3.822-11.75-8.033-23.354-12.366-34.912c0.785,0.721,1.755,1.247,2.788,1.478c0.139,0.518,0.281,1.039,0.418,1.555
				c3.09,11.664,6.965,23.109,10.801,34.542c0.197,0.589,0.385,1.181,0.577,1.771C201.037,333.779,200.824,333.93,200.604,334.067z
				 M187.812,232.665c3.465-0.273,6.934-0.498,10.403-0.658c7.864-0.362,15.776-0.032,23.649-0.077
				c0.016,2.655,0.092,5.305,0.219,7.949c-2.76,4.376-5.032,9.182-7.287,13.074c-5.039,8.702-11.939,16.238-18.935,23.601
				c-0.886-3.572-1.773-7.144-2.692-10.703c-2.775-10.757-5.199-21.671-5.336-32.827C187.833,232.9,187.82,232.784,187.812,232.665z
				 M199.047,289.164c8.002-8.445,16.506-16.818,22.734-26.531c0.721-1.125,1.419-2.266,2.104-3.415
				c1.798,13.353,4.625,26.576,7.811,39.687c0.494,2.037,0.989,4.079,1.484,6.121c-0.311,0.373-0.617,0.748-0.932,1.119
				c-6.492,7.662-13.667,14.744-21.584,20.888c-3.298-9.847-6.559-19.703-9.398-29.693
				C200.494,294.625,199.76,291.897,199.047,289.164z M299.32,376.867c2.777,5.973,5.938,11.766,9.525,17.288
				c1.328,2.044,3.104,5.144,5.238,7.768c-7.043,5.979-14.93,11.186-21.916,16.463c-1.727,1.305-3.432,2.635-5.128,3.976
				c-2.786-4.863-5.47-9.794-8.074-14.708c-6.2-11.7-11.446-23.923-15.914-36.413c0.417-0.42,0.836-0.838,1.253-1.257
				c7.818-7.86,15.773-15.544,23.762-23.202C291.141,357.05,294.801,367.145,299.32,376.867z M289.215,305.27
				c1.299,1.401,2.824,2.697,4.641,3.855c7.791,4.965,16.066-1.999,20.598-8.103c0.131,0.933,0.281,1.862,0.449,2.789
				c-5.086,6.047-10.52,11.812-16.07,17.381c-1.654,1.66-3.322,3.307-4.998,4.945C292.099,319.209,290.518,312.269,289.215,305.27z
				 M278.592,429.229c-5.504,4.58-10.932,9.247-16.421,13.844c-3.854-6.903-7.626-13.841-11.74-20.443
				c-5.192-8.331-9.909-16.741-14.216-25.331c6.191-5.72,12.262-11.566,18.254-17.495c6.129,16.152,13.67,31.789,22.457,46.642
				C277.477,427.376,278.037,428.301,278.592,429.229z M260,358.74c-0.29,0.291-0.58,0.583-0.869,0.874
				c-0.84-2.66-1.654-5.325-2.428-8c-4.186-14.457-7.938-29.119-11.551-43.772c4.482-5.519,8.806-11.137,13.591-16.444
				c5.341-5.925,10.722-11.838,15.784-18.008c0.355,6.69,0.879,13.372,1.672,20.037c1.67,14.022,4.95,27.813,8.553,41.459
				C276.457,342.786,268.086,350.612,260,358.74z M273.863,244.871c0.004,3.634,0.031,7.268,0.086,10.9
				c-0.219,0.373-0.443,0.742-0.668,1.107c-1.945,3.156-4.395,6.046-6.736,8.91c-5.742,7.025-11.895,13.711-17.963,20.453
				c-2.346,2.606-4.564,5.302-6.748,8.022c-0.068-0.286-0.139-0.573-0.209-0.859c-4.021-16.556-7.215-33.35-8.348-50.341
				c1.058-1.646,2.112-3.041,2.891-3.424c2.408-1.186,3.365-3.451,3.277-5.616c0.631-0.762,1.122-1.534,1.463-2.305
				c13.084-1.271,28.012-1.654,36.357,7.944C275.368,240.489,273.861,242.254,273.863,244.871z M236.367,318.065
				c3.938,15.958,8.094,31.923,13.102,47.49c0.305,0.944,0.619,1.886,0.932,2.828c-6.285,6.291-12.633,12.519-19.119,18.599
				c-3.568-7.896-6.797-15.981-9.667-24.361c-2.764-8.07-4.944-16.312-7.388-24.473
				C222.279,332.264,229.619,325.421,236.367,318.065z M220.047,397.203c-5.513-17.471-10.672-35.067-16.109-52.556
				c0.217-0.06,0.434-0.14,0.65-0.228c2.154,7.295,4.214,14.62,6.644,21.838c3.313,9.845,7.161,19.319,11.49,28.546
				C221.827,395.601,220.949,396.415,220.047,397.203z M231.193,430.413c-2.676-7.395-5.207-14.843-7.651-22.322
				c0.625-0.195,1.259-0.542,1.883-1.084c0.776-0.675,1.534-1.369,2.307-2.049c4.169,8.069,8.702,15.982,13.58,23.822
				c4.317,6.94,8.296,14.131,12.364,21.262c-4.082,3.271-8.229,6.467-12.511,9.506C237.913,449.812,234.689,440.066,231.193,430.413
				z M262.792,500.673c-7.349,4.853-14.798-21.097-16.097-24.824c-0.635-1.821-1.261-3.645-1.883-5.469
				c0.204-0.11,0.408-0.231,0.612-0.373c4.757-3.296,9.349-6.784,13.859-10.37c3.845,6.361,7.938,12.549,12.581,18.35
				c0.266,0.926,0.852,1.821,1.854,2.592c0.503,0.487,0.801,0.723,0.914,0.736c0.363,0.42,0.715,0.848,1.086,1.264
				c0.695,0.781,1.506,1.232,2.352,1.421C273.847,490.518,268.904,496.637,262.792,500.673z M285.984,470.386
				c-0.785,1.435-1.596,2.913-2.43,4.408c-0.463-0.648-1.006-1.19-1.65-1.735c-5.375-6.247-9.945-13.149-14.188-20.296
				c5.572-4.638,11.075-9.356,16.639-14.003c2.453,4.026,4.904,8.052,7.299,12.109c0.723,1.222,1.699,2.567,2.828,3.787
				C291.652,459.888,288.854,465.141,285.984,470.386z M305.51,435.146c-1.768,2.932-3.479,5.885-5.156,8.853
				c-0.17-0.296-0.344-0.592-0.514-0.888c-1.939-3.403-4.182-6.616-6.291-9.92c-0.273-0.428-0.533-0.872-0.803-1.302
				c2.547-2.039,5.12-4.048,7.734-6.008c6.066-4.547,12.576-9.097,18.693-14.082C314.752,419.635,310.18,427.405,305.51,435.146z
				 M336.275,379.111c-0.433-0.093-0.883-0.149-1.35-0.149h-2c-4.174,0-5.584,3.801-4.6,6.929c-1.684,2.821-3.674,5.442-5.867,7.919
				c-0.156-0.036-0.314-0.063-0.471-0.08c-12.541-15.869-19.615-36.019-24.982-55.509c1.719-1.644,3.438-3.286,5.156-4.934
				c5.564-5.333,10.951-10.855,16.076-16.605c1.661,5.162,3.592,10.243,5.43,15.246c2.473,6.724,5.354,13.004,8.863,19.26
				c3.119,5.557,6.417,10.98,8.791,16.888C339.689,371.779,338.016,375.463,336.275,379.111z M339.561,264.565
				c-3.014,5.356-5.42,11.17-8.459,16.459c-2.027,3.528-4.227,6.948-6.555,10.281c-0.514-1.529-1.67-2.489-3.041-2.919
				c2.201-5.056,3.963-10.321,5.578-15.575c1.874-6.093,3.044-12.364,3.85-18.679c0.721-5.647,0.144-11.666,2.937-16.784
				c0.972-1.782,3.759-4.829,6.063-3.864c0.023,0.01,0.041,0.024,0.064,0.035c-2.139,0.729-3.988,2.551-4.135,5.352
				C335.408,247.59,337.068,256.191,339.561,264.565z M348.544,350.525c-0.507,1.341-1.044,2.667-1.567,3.999
				c-4.162-7.689-8.932-15.084-11.928-23.341c-2.908-8.013-6.258-16.201-8.309-24.604c2.77-3.503,5.436-7.089,7.959-10.786
				c3.611-5.292,6.955-10.799,9.953-16.475c0.113,0.298,0.225,0.599,0.338,0.896c2.494,6.595,5.338,12.862,8.583,19.124
				c2.772,5.352,5.69,10.854,7.37,16.694C356.902,327.564,352.869,339.1,348.544,350.525z M366.359,300.687
				c-3.141-6.49-6.693-12.82-9.311-19.613c-1.883-4.885-3.812-9.85-5.488-14.891c0.238-0.429,0.479-0.855,0.716-1.288
				c0.475-0.868,0.997-1.68,1.565-2.489c0.43-0.613,1.02-1.114,1.354-1.426c1.184-0.671,2.14-1.809,2.553-3.482
				c0.018-0.074,0.021-0.141,0.037-0.213c0.045-0.008,0.088-0.009,0.133-0.018c6.827-1.287,10.922-7.791,13.629-13.648
				c1.168-2.528,1.875-5.17,2.409-7.893c0.164-0.836,0.296-1.715,0.524-2.551c0.088,0.097,0.16,0.184,0.199,0.234
				c3.635,4.636,1.131,11.95-0.807,16.604c-3.154,7.577-1.553,13.683,4.814,18.164C374.277,278.901,370.256,289.771,366.359,300.687
				z M392.043,252.025c-0.866,2.344-2.309,4.289-4.017,6.077c-1.017,1.063-4.422,2.212-4.938-0.26
				c-0.412-1.972,1.41-4.751,2.131-6.486c0.934-2.249,1.59-4.595,1.879-7.01c1.092-9.115-1.605-20.352-11.793-22.531
				c-11.1-2.374-11.01,11.274-14.051,17.857c-0.386,0.836-5.062,9.326-6.454,6.29c-0.876-1.911-0.567-4.595-0.638-6.65
				c-0.105-3.091-0.85-5.799-2.342-8.519c-4.658-8.49-14.252-10.972-22.094-5.035c-9.508,7.198-8.539,18.929-10.023,29.507
				c-1.55,11.045-4.902,22.105-9.82,32.127c-2.127,4.336-4.785,9.078-8.896,11.811c-4.059,2.697-6.428-7.337-6.781-9.568
				c-2.209-13.923,2.32-27.762-0.957-41.656c-2.559-10.851-8.863-20.008-19.336-24.42c-11.191-4.715-24.199-3.826-35.986-2.599
				c-0.984,0.103-1.811,0.411-2.492,0.854c-0.875-0.283-1.828-0.494-2.859-0.614c-10.68-1.243-21.939-0.24-32.648-0.24
				c-6.99,0-14.057,0.76-21.002,1.461c-4.516,0.456-11.537,0.371-15.467,3.47c-0.279-2.081-1.562-4.069-4.059-4.844
				c-38.823-12.049-49.945-69.131-27.157-99.64c22.504-30.128,68.761-43.326,104.23-32.592c23.36,7.07,41.657,30.592,46.392,54.054
				c0.076,0.373,0.184,0.718,0.312,1.046c-7.807,4.087-15.078,9.191-21.523,15.224c-6.754,6.32-12.385,14.259-17.331,22.04
				c-4.601,7.238-8.54,16.588-5.163,25.085c2.609,6.568,13.01,2.976,10.383-3.638c-2.482-6.25,2.643-13.71,6.016-18.679
				c4.232-6.236,8.951-12.297,14.36-17.547c13.491-13.096,32.404-20.471,50.901-22.423c16.743-1.767,34.599,1.377,48.323,11.552
				c7.112,5.272,12.058,12.242,16.341,19.884c4.19,7.475,5.102,16.408,5.314,24.979c-1.895,1.859-2.566,5.059-0.904,7.323
				c-0.48,0.728-0.826,1.577-0.955,2.539c-1.879,3.184-0.209,6.718,2.323,8.21C394.581,229.365,396.033,241.227,392.043,252.025z
				 M404.562,125.55c-5.723,10.699-9.164,23.284-17.006,32.709c-0.025,0.005-0.049,0.009-0.073,0.015
				c-3.251-4.088-6.965-7.804-11.079-11.006c-3.08-2.397-6.355-4.459-9.77-6.227c0.654-0.493,1.225-1.194,1.642-2.146
				c5.426-12.386,15.526-22.114,22.881-33.346c6.325-9.661,10.931-20.364,17.327-29.958c4.992,5.653,12.412,8.791,18.998,12.851
				C421.254,101.59,411.424,112.722,404.562,125.55z"/>
		</g>
	</g>
</g>
</svg>
