<?xml version="1.0" encoding="utf-8"?>
<!-- Generator: Adobe Illustrator 16.0.3, SVG Export Plug-In . SVG Version: 6.00 Build 0)  -->
<!DOCTYPE svg PUBLIC "-//W3C//DTD SVG 1.1//EN" "http://www.w3.org/Graphics/SVG/1.1/DTD/svg11.dtd">
<svg version="1.1" id="Layer_1" xmlns="http://www.w3.org/2000/svg" xmlns:xlink="http://www.w3.org/1999/xlink" x="0px" y="0px"
	 width="512px" height="512px" viewBox="0 0 512 512" style="enable-background:new 0 0 512 512;" xml:space="preserve">
<style type="text/css">
<![CDATA[
	.st0{fill:#127274;}
	.st1{fill:#14B6B9;}
	.st2{fill:#1E4384;}
	.st3{fill:#EF4754;}
	.st4{fill:#EF4823;}
	.st5{fill:#BCBCBC;}
	.st6{fill:#F6851F;}
	.st7{fill:#C56528;}
	.st8{fill:#FCBF95;}
	.st9{fill:#FEBF10;}
	.st10{fill:none;}
	.st11{fill:#010101;}
	.st12{fill:#3AB37C;}
	.st13{fill:#D6E5E5;}
	.st14{fill:#71C598;}
	.st15{fill:#74CCCF;}
]]>
</style>
<g>
	<g>
		<g>
			<path class="st7" d="M347.779,147.595c-1.865-11.533-2.615-23.322-5.367-34.699c-2.361-9.766-2.047-20.28-3.703-30.216
				c-1.549-9.287-3.435-21.684-11.877-27.391c-8.211-5.549-19.583-4.153-28.816-2.843c-3.055,0.433-6.112,0.848-9.171,1.253
				c2.541,21.354,9.776,41.869,14.069,62.899c0.479,2.344,0.928,4.694,1.367,7.045c4.455-0.716,8.923-1.329,13.369-2.137
				c4.631-0.842,11.336-1.637,14.982-4.964c5.176-4.724,13.51,2.474,8.264,7.262c-9.073,8.282-23.045,8.766-34.709,10.541
				c2.564,14.934,4.907,29.895,8.826,44.533c8.567-4.948,17.873-10.093,24.699-16.918c3.505-3.506,7.012-7.012,10.517-10.518
				C349.011,150.652,348.067,149.38,347.779,147.595z"/>
		</g>
	</g>
	<g>
		<g>
			<path class="st7" d="M246.785,203.574c-3.104,0.736-6.193,1.521-9.259,2.225c-3.568,0.82-7.174,1.644-10.627,2.878
				c-0.532,0.19-1.049,0.401-1.571,0.604c7.83,1.808,15.79,3.21,23.738,3.833C248.311,209.936,247.549,206.756,246.785,203.574z"/>
		</g>
	</g>
	<g>
		<g>
			<path class="st7" d="M292.281,119.097c-4.369-21.402-11.699-42.272-14.342-63.998c-14.539,1.813-29.1,3.452-43.643,5.273
				c0.373,25.443,3.779,50.607,8.562,75.57c1.072-0.232,2.148-0.45,3.219-0.694c15.743-3.594,31.629-6.499,47.477-9.614
				C293.145,123.452,292.726,121.272,292.281,119.097z"/>
		</g>
	</g>
	<g>
		<g>
			<path class="st7" d="M295.444,136.172c-15.308,2.754-30.598,6.104-45.728,9.458c-1.575,0.349-3.154,0.67-4.731,0.996
				c3.044,14.75,6.485,29.433,9.977,44.065c13.839-2.052,29.511,0.85,42.485-5.212c2.113-0.988,3.913-0.523,5.156,0.645
				c0.867-0.5,1.734-1.001,2.6-1.502C300.754,168.717,298.249,152.427,295.444,136.172z"/>
		</g>
	</g>
	<g>
		<g>
			<path class="st5" d="M234.201,148.686c-13.709,2.393-27.509,3.991-41.359,5.052c0.244,5.814,0.4,11.635,0.715,17.46
				c0.511,9.44,0.304,21.475,5.274,29.895c0.185,0.312,0.327,0.624,0.446,0.935c0.818,0.26,1.634,0.525,2.457,0.777
				c3.188,0.972,6.432,1.938,9.714,2.87c0.196-0.801,0.547-1.56,1.079-2.192c1.703-2.023,5.592-3.226,7.984-4.161
				c3.836-1.499,7.785-2.622,11.797-3.543c3.938-0.905,7.92-1.955,11.914-2.913C240.717,178.198,237.263,163.476,234.201,148.686z"
				/>
		</g>
	</g>
	<g>
		<g>
			<path class="st5" d="M369.97,155.448c-1.843-6.822-5.354-10.019-11.49-10.441c0.091,0.581,0.175,1.162,0.269,1.742
				c0.106,0.658,0.106,1.262,0.018,1.809c2.913,1.526,4.607,5.268,1.631,8.245c-4.141,4.14-8.28,8.28-12.42,12.42
				c-7.472,7.472-17.26,12.911-26.254,18.373c-1.199,0.728-2.406,1.443-3.612,2.16c0.046,0.164,0.104,0.326,0.14,0.492
				c1.055,5.059-5.471,7.217-8.93,4.676c-2.891,1.688-5.78,3.377-8.647,5.103c7.841-1.695,16.176-1.41,24.314,1.151
				c14.134,4.447,25.122,14.646,30.876,27.572c4.932-13.667,9.521-27.433,12.439-41.735
				C370.32,177.125,372.652,165.376,369.97,155.448z"/>
		</g>
	</g>
	<g>
		<g>
			<path class="st7" d="M259.787,201.152c-0.752,0.081-1.504,0.185-2.256,0.292c0.957,3.996,1.91,7.99,2.854,11.979
				c1.741-0.044,3.479-0.118,5.212-0.259c1.027-3.086,4.828-4.713,7.605-3.568c1.794-3.611,4.579-6.72,7.705-9.414
				C273.829,200.587,266.641,200.413,259.787,201.152z"/>
		</g>
	</g>
	<g>
		<g>
			<path class="st13" d="M390.495,340.143c-3.898-30.102-7.661-60.185-11.108-90.343c-1.586-13.881-2.12-28.433-4.998-42.116
				c-4.226,14.345-9.559,28.367-14.697,42.43c-1.913,5.233-10.164,3.139-10.412-2.024c-0.789-16.391-11.148-31.721-27.363-36.423
				c-15.838-4.593-30.855,0.609-40.758,13.239c-9.83,28.483-47.003,31.199-72.844,28.271c-18.404-2.085-36.184-7.847-54.653-9.782
				c-4.306-0.451-8.638-0.735-12.956-0.789c-0.001,0.002-0.002,0.005-0.004,0.007c-5.229,7.942-3.536,19.315-2.227,28.17
				c1.67,11.301,4.519,22.338,6.971,33.482c6.643,30.18,9.494,61.288,12.271,92.017c1.089,12.057,1.695,23.94,1.964,36.03
				c0.192,8.688,0.303,18.097,4.01,26.144c4.055,8.802,12.166,11.715,21.133,13.3c14.156,2.503,28.525,3.394,42.891,3.267
				c27.596-0.243,54.998-3.533,82.221-7.86c24.83-3.946,51.062-9.11,71.63-24.477c0.739-0.639,1.638-1.062,2.637-1.155
				c1.134-0.143,2.21,0.16,3.125,0.755c0.984,0.505,1.877,0.451,0.962,0.752c0.641-0.21,0.521-0.001,1.35-1.115
				c1.408-1.898,2.434-5.052,3.065-7.608c1.644-6.646,2.509-13.542,2.861-20.375C396.832,389.376,393.645,364.457,390.495,340.143z"
				/>
		</g>
	</g>
	<g>
		<g>
			<path class="st5" d="M201.027,214.027c-12.248-3.735-24.077-8.052-35.794-13.23c-12.205-5.394-24.551-11.061-38.007-12.229
				c-1.523-0.132-2.614-0.739-3.323-1.601c-0.828-0.215-1.61-0.596-2.259-1.166c-1.002-0.882-1.854-2.335-1.854-3.709v-1.5
				c0-1.522,0.319-2.881,1.352-4.054c0.758-0.861,1.782-1.449,2.892-1.71c-0.047-0.94-0.12-1.879-0.179-2.818
				c-4.711,0.308-7.238,4.41-9.162,9.688c-2.965,8.137-3.86,17.126-4.898,25.669c-1.091,8.979-1.522,20.03-4.213,29.872
				c12.396-4.763,25.975-6.247,39.379-5.487c19.561,1.108,38.081,6.163,57.275,9.468c20.146,3.469,57.766,5.365,67.686-17.432
				C247.021,226.642,222.691,220.634,201.027,214.027z"/>
		</g>
	</g>
	<g>
		<g>
			<path class="st7" d="M223.332,61.792c-2.205,0.294-4.41,0.584-6.613,0.894c-13.312,1.867-26.629,3.749-39.966,5.441
				c0.076,0.624,0.146,1.257,0.287,1.868c0.569,2.451,1.242,4.873,1.961,7.284c1.282,4.302,2.714,8.584,3.642,12.981
				c3.159,14.961,6.932,29.741,8.816,44.965c0.318,2.572,0.557,5.147,0.758,7.723c13.373-0.986,26.692-2.505,39.867-4.862
				C227.229,112.875,223.753,87.462,223.332,61.792z"/>
		</g>
	</g>
	<g>
		<g>
			<path class="st7" d="M180.01,132.49c-2.117-14.723-4.981-29.776-9.143-44.043c-1.45-4.969-4.854-12.436-5.279-18.959
				c-12.24,1.432-24.502,2.655-36.805,3.47c0.926,2.146,0.313,4.238-1.008,5.708c-0.008,0.695-0.018,1.391-0.016,2.086
				c-0.003,2.103-0.434,4.172-0.418,6.285c0.032,4.529,0.404,9.029,0.855,13.533c0.86,8.568,1.129,17.159,1.998,25.725
				c0.629,6.202,1.383,12.399,2.113,18.6c0.465-0.13,0.977-0.207,1.543-0.207c15.729-0.009,31.564-0.206,47.359-1.042
				C180.919,139.923,180.544,136.205,180.01,132.49z"/>
		</g>
	</g>
	<g>
		<g>
			<path class="st7" d="M182.587,172.045c-0.294-5.868-0.468-11.727-0.729-17.576c-15.684,0.893-31.422,1.178-47.16,1.188
				c-0.42,0-0.816-0.041-1.193-0.114c0.756,7.138,1.379,14.286,1.63,21.457c0.081,0.385,0.126,0.8,0.126,1.248v0.327
				c11.008,1.966,21.514,6.479,31.688,10.966c6.197,2.732,12.383,5.32,18.65,7.704C183.355,189.089,182.992,180.152,182.587,172.045
				z"/>
		</g>
	</g>
	<g>
		<g>
			<path d="M404.187,362.369c-3.218-31.454-8.073-62.738-11.634-94.158c-1.748-15.418-3.526-30.833-5.269-46.252
				c-0.714-6.32-1.388-12.536-2.687-18.754c-0.506-2.423-0.86-4.87-1.1-7.333c-0.115-1.182-0.124-2.366-0.117-3.552
				c0.004-0.675,0.873-2.351-0.043-1.589c4.241-3.528,1.397-9.928-2.66-10.326c1.676-10.6,2.494-22.352-1.582-32.346
				c-3.92-9.61-12.537-14.021-22.204-14.085c-1.065-7.786-2.122-15.567-3.769-23.273c-2.309-10.803-2.153-22.172-4.189-33.083
				c-1.949-10.454-4.825-21.48-12.826-28.983c-8.164-7.655-20.17-8.709-30.778-8.044c-6.966,0.437-13.911,1.47-20.856,2.479
				c-1.611-0.44-3.436-0.192-4.848,0.691c-3.174,0.44-6.35,0.85-9.527,1.161c-16.185,1.588-32.309,3.752-48.415,5.985
				c-32.192,4.464-64.362,9.316-96.831,11.286c-4.136,0.251-5.564,4.103-4.625,7.175c-0.557,0.296-1.057,0.694-1.451,1.218
				c-2.099,2.791-1.939,5.986-1.982,9.342c-0.057,4.344-0.49,8.589-0.28,12.95c0.458,9.552,1.411,19.19,2.198,28.721
				c1.089,13.206,3.008,26.347,4.287,39.536c-15.912,1.231-20.494,20.314-22.678,34.313c-1.578,10.114-2.377,20.333-4.023,30.438
				c-1.04,6.387-2.75,16.43-7.096,20.223c-5.181,4.522,0.273,13.415,6.152,9.119c9.914-7.245,21.172-10.783,32.867-12.055
				c-2.247,6.561-2.083,14.101-1.591,20.793c0.806,10.934,3.33,21.749,5.778,32.408c6.033,26.272,9.569,52.91,12.323,79.715
				c1.509,14.676,3.38,29.502,3.778,44.254c0.258,9.508-0.043,19.052,1.284,28.498c1.245,8.86,4.257,17.044,10.433,23.639
				c7.445,7.953,18.769,9.615,28.973,11.127c35.29,5.229,71.946,1.874,107.039-3.287c30.387-4.468,63.445-8.779,89.197-26.86
				c13.82,4.472,18.611-17.271,19.975-27.387C408.25,405.003,406.337,383.39,404.187,362.369z M360.396,156.802
				c2.977-2.977,1.282-6.719-1.631-8.245c0.089-0.547,0.089-1.15-0.018-1.809c-0.094-0.58-0.178-1.161-0.269-1.742
				c6.137,0.422,9.647,3.619,11.49,10.441c2.683,9.929,0.351,21.677-1.667,31.564c-2.918,14.302-7.508,28.068-12.439,41.735
				c-5.754-12.926-16.742-23.125-30.876-27.572c-8.139-2.561-16.474-2.846-24.314-1.151c2.867-1.725,5.757-3.415,8.647-5.103
				c3.459,2.541,9.984,0.383,8.93-4.676c-0.035-0.166-0.094-0.328-0.14-0.492c1.206-0.717,2.413-1.432,3.612-2.16
				c8.994-5.462,18.782-10.901,26.254-18.373C352.116,165.083,356.256,160.942,360.396,156.802z M254.962,190.691
				c-3.491-14.632-6.933-29.314-9.977-44.065c1.577-0.326,3.156-0.646,4.731-0.996c15.13-3.354,30.42-6.704,45.728-9.458
				c2.805,16.254,5.31,32.545,9.759,48.448c-0.865,0.501-1.732,1.002-2.6,1.502c-1.243-1.167-3.043-1.632-5.156-0.645
				C284.473,191.541,268.801,188.639,254.962,190.691z M280.908,200.182c-3.126,2.694-5.911,5.803-7.705,9.414
				c-2.777-1.146-6.578,0.482-7.605,3.568c-1.732,0.141-3.471,0.215-5.212,0.259c-0.944-3.989-1.897-7.983-2.854-11.979
				c0.752-0.106,1.504-0.21,2.256-0.292C266.641,200.413,273.829,200.587,280.908,200.182z M249.066,213.114
				c-7.948-0.623-15.908-2.025-23.738-3.833c0.522-0.204,1.039-0.415,1.571-0.604c3.453-1.234,7.059-2.058,10.627-2.878
				c3.065-0.704,6.155-1.488,9.259-2.225C247.549,206.756,248.311,209.936,249.066,213.114z M298.016,52.446
				c9.233-1.31,20.605-2.706,28.816,2.843c8.442,5.707,10.328,18.104,11.877,27.391c1.656,9.936,1.342,20.451,3.703,30.216
				c2.752,11.376,3.502,23.166,5.367,34.699c0.288,1.785,1.231,3.057,2.45,3.847c-3.505,3.506-7.012,7.012-10.517,10.518
				c-6.826,6.825-16.132,11.97-24.699,16.918c-3.919-14.639-6.262-29.6-8.826-44.533c11.664-1.775,25.636-2.259,34.709-10.541
				c5.246-4.788-3.088-11.986-8.264-7.262c-3.646,3.327-10.352,4.123-14.982,4.964c-4.446,0.808-8.914,1.42-13.369,2.137
				c-0.439-2.351-0.889-4.701-1.367-7.045c-4.293-21.03-11.528-41.544-14.069-62.899C291.903,53.294,294.961,52.879,298.016,52.446z
				 M277.939,55.099c2.643,21.726,9.973,42.596,14.342,63.998c0.444,2.175,0.863,4.355,1.273,6.537
				c-15.848,3.116-31.733,6.021-47.477,9.614c-1.07,0.244-2.146,0.462-3.219,0.694c-4.783-24.962-8.189-50.127-8.562-75.57
				C248.84,58.55,263.4,56.912,277.939,55.099z M244.223,192.865c-3.994,0.958-7.976,2.008-11.914,2.913
				c-4.012,0.921-7.961,2.044-11.797,3.543c-2.393,0.935-6.281,2.138-7.984,4.161c-0.532,0.632-0.883,1.391-1.079,2.192
				c-3.282-0.932-6.525-1.897-9.714-2.87c-0.823-0.251-1.639-0.517-2.457-0.777c-0.119-0.311-0.262-0.623-0.446-0.935
				c-4.971-8.42-4.764-20.455-5.274-29.895c-0.314-5.825-0.471-11.646-0.715-17.46c13.851-1.061,27.65-2.66,41.359-5.052
				C237.263,163.476,240.717,178.198,244.223,192.865z M216.719,62.686c2.203-0.309,4.408-0.599,6.613-0.894
				c0.421,25.67,3.897,51.083,8.752,76.294c-13.175,2.356-26.494,3.876-39.867,4.862c-0.201-2.576-0.439-5.151-0.758-7.723
				c-1.885-15.224-5.657-30.003-8.816-44.965c-0.928-4.397-2.359-8.679-3.642-12.981c-0.719-2.411-1.392-4.833-1.961-7.284
				c-0.142-0.611-0.211-1.244-0.287-1.868C190.09,66.435,203.406,64.553,216.719,62.686z M135.134,177
				c-0.251-7.17-0.874-14.318-1.63-21.457c0.377,0.073,0.773,0.114,1.193,0.114c15.738-0.009,31.477-0.294,47.16-1.188
				c0.262,5.85,0.436,11.708,0.729,17.576c0.405,8.107,0.769,17.044,3.012,25.199c-6.268-2.384-12.453-4.972-18.65-7.704
				c-10.175-4.487-20.681-9-31.688-10.966v-0.327C135.26,177.799,135.215,177.384,135.134,177z M127.76,80.752
				c-0.002-0.696,0.008-1.391,0.016-2.086c1.321-1.47,1.934-3.562,1.008-5.708c12.303-0.814,24.564-2.038,36.805-3.47
				c0.426,6.523,3.829,13.99,5.279,18.959c4.161,14.267,7.025,29.32,9.143,44.043c0.534,3.715,0.909,7.434,1.201,11.155
				c-15.795,0.836-31.63,1.033-47.359,1.042c-0.566,0-1.078,0.077-1.543,0.207c-0.73-6.201-1.484-12.398-2.113-18.6
				c-0.869-8.566-1.138-17.156-1.998-25.725c-0.451-4.504-0.823-9.004-0.855-13.533C127.326,84.924,127.757,82.854,127.76,80.752z
				 M105.582,237.241c2.69-9.842,3.122-20.894,4.213-29.872c1.038-8.543,1.934-17.533,4.898-25.669
				c1.924-5.278,4.451-9.38,9.162-9.688c0.059,0.939,0.132,1.878,0.179,2.818c-1.109,0.261-2.134,0.849-2.892,1.71
				c-1.032,1.173-1.352,2.532-1.352,4.054v1.5c0,1.374,0.852,2.827,1.854,3.709c0.648,0.57,1.431,0.951,2.259,1.166
				c0.709,0.862,1.8,1.469,3.323,1.601c13.456,1.167,25.802,6.835,38.007,12.229c11.717,5.178,23.546,9.495,35.794,13.23
				c21.664,6.607,45.994,12.615,68.895,9.763c-9.92,22.797-47.539,20.901-67.686,17.432c-19.194-3.306-37.715-8.36-57.275-9.468
				C131.557,230.994,117.979,232.478,105.582,237.241z M395.563,413.94c-0.353,6.833-1.218,13.729-2.861,20.375
				c-0.632,2.556-1.657,5.71-3.065,7.608c-0.828,1.114-0.709,0.905-1.35,1.115c0.915-0.301,0.022-0.247-0.962-0.752
				c-0.915-0.595-1.991-0.897-3.125-0.755c-0.999,0.094-1.897,0.517-2.637,1.155c-20.568,15.366-46.8,20.53-71.63,24.477
				c-27.223,4.327-54.625,7.617-82.221,7.86c-14.365,0.126-28.734-0.764-42.891-3.267c-8.967-1.585-17.078-4.498-21.133-13.3
				c-3.707-8.047-3.817-17.456-4.01-26.144c-0.269-12.09-0.875-23.973-1.964-36.03c-2.776-30.729-5.628-61.837-12.271-92.017
				c-2.452-11.144-5.301-22.181-6.971-33.482c-1.31-8.855-3.002-20.228,2.227-28.17c0.002-0.002,0.003-0.005,0.004-0.007
				c4.318,0.054,8.65,0.338,12.956,0.789c18.47,1.935,36.249,7.697,54.653,9.782c25.841,2.928,63.014,0.212,72.844-28.271
				c9.902-12.63,24.92-17.832,40.758-13.239c16.215,4.702,26.574,20.032,27.363,36.423c0.248,5.163,8.499,7.257,10.412,2.024
				c5.139-14.063,10.472-28.084,14.697-42.43c2.878,13.683,3.412,28.234,4.998,42.116c3.447,30.158,7.21,60.241,11.108,90.343
				C393.645,364.457,396.832,389.376,395.563,413.94z"/>
		</g>
	</g>
</g>
</svg>
