<?xml version="1.0" encoding="utf-8"?>
<!-- Generator: Adobe Illustrator 16.0.3, SVG Export Plug-In . SVG Version: 6.00 Build 0)  -->
<!DOCTYPE svg PUBLIC "-//W3C//DTD SVG 1.1//EN" "http://www.w3.org/Graphics/SVG/1.1/DTD/svg11.dtd">
<svg version="1.1" id="Layer_1" xmlns="http://www.w3.org/2000/svg" xmlns:xlink="http://www.w3.org/1999/xlink" x="0px" y="0px"
	 width="512px" height="512px" viewBox="0 0 512 512" style="enable-background:new 0 0 512 512;" xml:space="preserve">
<style type="text/css">
<![CDATA[
	.st0{fill:#127274;}
	.st1{fill:#14B6B9;}
	.st2{fill:#1E4384;}
	.st3{fill:#EF4754;}
	.st4{fill:#EF4823;}
	.st5{fill:#BCBCBC;}
	.st6{fill:#F6851F;}
	.st7{fill:#C56528;}
	.st8{fill:#FCBF95;}
	.st9{fill:#FEBF10;}
	.st10{fill:none;}
	.st11{fill:#010101;}
	.st12{fill:#3AB37C;}
	.st13{fill:#D6E5E5;}
	.st14{fill:#71C598;}
	.st15{fill:#74CCCF;}
]]>
</style>
<g>
	<g>
		<g>
			<path class="st8" d="M304.093,191.972c-6.121-6.277-14.52-9.838-22.97-11.751c-22.616-5.12-43.743,2.664-62.882,14.837
				c-10.229,6.507-21.281,14.004-27.367,24.828c-6.002,10.673-6.146,21.345,3.395,29.822c0.382-0.457,0.875-0.878,1.5-1.24
				c4.17-2.414,5.77-7.431,8.186-11.363c3.046-4.961,8.081-8.92,12.854-12.14c10-6.749,21.122-11.053,32.624-14.485
				c17.683-5.276,41.066-10.954,56.634,2.161C309.234,205.743,309.921,197.949,304.093,191.972z"/>
		</g>
	</g>
	<g>
		<g>
			<path class="st15" d="M347.222,203.542c-3.33-3.04-8.687-2.997-12.954-3.028c-1.005-0.007-1.881-0.243-2.63-0.63
				c-1.976,0.408-4.22,1.195-3.98,2.581c0.179,1.032,1.299,2.005,1.906,2.736c-0.462-0.519-0.422-0.504,0.115,0.045
				c2.306,2.112,4.79,4.032,7.297,5.9c2.042,1.522,4.086,3.194,6.31,4.457c0.015-0.006,0.022-0.011,0.037-0.017
				c0.835-0.246,1.608-0.619,2.321-1.118c1.397-0.937,2.702-1.931,3.944-3.031C349.538,208.354,349.055,205.215,347.222,203.542z"/>
		</g>
	</g>
	<g>
		<g>
			<path class="st15" d="M355.556,247.529c0.857,7.381,1.537,14.405,0.123,21.482c1.918,0.17,3.878,0.081,5.768-0.25
				c0.194-6.975,0.654-13.942,0.836-20.917C360.053,247.639,357.818,247.55,355.556,247.529z"/>
		</g>
	</g>
	<g>
		<g>
			<path class="st15" d="M124.293,302.183c-1.014-2.109-2.846-4.656-4.937-5.811c-1.821-1.006-3.574-1.409-5.211-1.261
				c-0.265,0.53-0.644,1.051-1.169,1.548c-2.153,2.036-4.512,3.789-6.771,5.698c-0.62,0.525-1.276,1.088-1.826,1.717
				c0.138,0.08,0.393,0.189,0.879,0.293c5.566,1.189,12.305,1.508,17.727-0.572c0.167-0.064,1.088-0.324,1.601-0.64
				C124.531,302.932,124.468,302.546,124.293,302.183z"/>
		</g>
	</g>
	<g>
		<g>
			<path class="st15" d="M354.823,134.573c-2.111-1.521-7.246-0.126-8.939,2.299c0.139,0.069,0.275,0.142,0.409,0.229
				c2.063,1.359,5.729,2.829,8.153,1.342C355.907,137.547,356.481,135.767,354.823,134.573z"/>
		</g>
	</g>
	<g>
		<g>
			<path class="st15" d="M213.831,126.679c0.031,0.368,0.014-0.029-0.021-0.438c-1.117-0.179-2.244-0.166-3.33,0.21
				c-1.948,0.674-4.316,1.812-4.15,4.153c0.021,0.284,0.016,0.554,0,0.818c1.779,0.987,3.688,1.729,4.936,1.266
				C213.119,131.999,214.009,128.835,213.831,126.679z"/>
		</g>
	</g>
	<g>
		<g>
			<path class="st15" d="M381.393,167.888c-1.994-0.041-4.063-0.102-6.051,0.195c-0.749,6.083,0.087,12.396-0.829,18.454
				c0.573,0.081,1.169,0.261,1.78,0.563c5.331,2.642,7.091-1.089,8.293-6.153c1-4.212,1.478-8.486,1.666-12.788
				C384.633,168.038,383.014,167.921,381.393,167.888z"/>
		</g>
	</g>
	<g>
		<g>
			<path class="st15" d="M382.369,89.869c-3.61-5.408-9.234-5.989-15.084-3.587c-2.046,0.84-7.192,3.391-7.299,6.205
				c2.659-1.226,6.427-0.686,8.049,2.722C371.065,101.571,387.343,97.314,382.369,89.869z M370.546,88.791
				c-1.063-0.339-2.133-0.661-3.205-0.975c0.577-0.713,1.179-1.395,1.832-2.002c0.258,0.259,0.533,0.589,0.829,1.019
				c0.413,0.592,0.694,1.177,0.873,1.752C370.769,88.661,370.657,88.726,370.546,88.791z"/>
		</g>
	</g>
	<g>
		<g>
			<path class="st8" d="M406.3,107.539c-4.13-3.345-8.499-6.285-13.043-8.884c-5.275,11.069-25.91,14.613-34.204,2.613
				c-2.287,1.738-5.738,1.937-7.77-1.164c-3.717-5.672-2.531-11.349,0.891-15.901c-4.765-0.898-9.564-1.603-14.366-2.133
				c-26.947-2.974-54.482-1.028-81.033,4.244c-53.69,10.662-105.489,36.641-145.867,73.686
				c-19.78,18.148-36.713,39.235-49.634,62.813c-11.904,21.722-21.044,46.239-17.86,71.192c1.17,0.527,2.143,1.558,2.622,3.205
				c4.022,13.789,14.636,24.596,25.728,33.194c11.533,8.939,24.393,16.277,37.835,21.943c31.282,13.184,70.035,13.982,102.428,4.49
				c6.796-1.991,10.446,8.388,3.638,10.383c-28.659,8.398-61.779,9.454-91.406,1.668c3.553,3.347,6.838,6.93,9.117,11.417
				c4.666,9.19,7.674,21.116,19.59,23.067c13.799,2.261,20.664-10.082,31.305-15.907c10.34-5.66,21.074-4.851,32.034-1.263
				c21.728,7.113,43.356,27.362,67.147,16.029c11.168-5.322,17.218-16.717,25.195-25.567c8.467-9.392,17.859-14.676,30.762-14.545
				c6.938,0.071,13.826,1.06,20.752,0.109c6.92-0.951,13.673-3.004,19.955-6.081c4.326-2.119,11.559-5.222,11.533-11.049
				c-0.008-1.785-0.086-3.553-0.163-5.316c-5.419,3.815-10.958,7.421-16.566,10.805c-6.054,3.654-12.236-5.447-6.149-9.119
				c40.251-24.287,78.859-60.711,84.807-109.79C458.959,187.252,441.552,136.087,406.3,107.539z M130.76,312.194
				c-4.792,2.782-10.504,3.915-16.016,3.962c-5.121,0.044-12.213,0.227-16.53-2.997c-4.563-3.404-6.676-8.385-3.969-13.701
				c0.806-1.583,1.958-2.915,3.261-4.127c0.116-0.249,0.246-0.499,0.412-0.751c6.423-9.892,18.454-14.454,28.589-6.559
				C133.09,293.149,141.035,306.227,130.76,312.194z M137.977,238.659c-3.983,4.363-5.408,10.343-9,15
				c-3.149,4.083-6.587,5.052-11.313,6.561c-4.291,1.37-7.318-2.313-7.232-5.738c-0.771-0.586-1.402-1.446-1.778-2.634
				c-3.345-10.598,0.044-20.669,5.485-29.665c-7.702,9.967-19.537,17.827-31.74,9.773c-3.219-2.124-3.196-6.091-1.535-8.566
				c-0.9-0.547-1.681-1.377-2.21-2.542c-4.063-8.939,6.759-16.072,13.546-19.203c9.703-4.476,15.89,1.37,20.987,8.983
				c2.61,1.091,4.636,4.384,3.52,7.586c0.655-0.953,1.325-1.893,2.007-2.816c3.148-4.268,8.831-0.942,9.617,3.208
				c1.011,5.325,5.146,9.023,9.146,12.292C139.765,232.766,139.943,236.504,137.977,238.659z M364.014,128.338
				c4.276,5.662,3.61,14.916-2.767,18.826c-5.962,3.656-13.959,3.668-19.85-0.209c-1.062-0.698-1.926-1.604-2.464-2.638
				c-2.323-0.258-4.423-1.833-4.575-4.866C333.65,125.336,355.247,116.728,364.014,128.338z M293.712,106.397
				c3.122-3.062,7.518-2.042,9.323,1.812c3.467,7.393,19.283,20.844,7.487,28.72c-6.587,4.396-23.1,7.238-26.87-2.083
				c-0.278-0.688-0.407-1.339-0.425-1.954c-2.175-0.913-3.965-2.991-3.782-5.915C280,118.085,287.856,112.139,293.712,106.397z
				 M195.411,129.103c0.668-6.409,5.838-11.853,12.234-13.261c7.169-1.58,15.534-0.115,16.951,8.334
				c1.138,6.785-1.982,16.029-8.925,18.609c-7.17,2.665-14.77-1.474-20.458-5.625C191.946,134.777,192.918,131.076,195.411,129.103z
				 M245.663,342.219c-5.701,2.275-11.349,4.17-17.396,5.294c-2.202,0.409-5.11-1.477-5.615-3.667
				c-1.964-8.515-7.589-13.736-14.438-18.687c-5.122-3.701,0.122-10.642,5.365-9.184c0.54-0.229,1.151-0.383,1.842-0.434
				c13.399-0.989,29.331,6.116,33.614,19.667C249.969,338.161,248.509,341.083,245.663,342.219z M339.236,225.914
				c-4.597-2.129-8.937-5.94-12.87-9.078c-2.649-2.113-5.497-4.514-7.405-7.392c-4.242,20.536-26.441,34.587-44.08,42.432
				c-11.165,4.966-22.639,8.255-34.861,9.304c-15.561,1.335-31.163,0.375-46.752,0.334c-2.149-0.006-3.723-1.031-4.675-2.449
				c-0.466-0.219-0.93-0.513-1.379-0.904c-14.232-12.411-14.524-30.234-4.707-45.564c9.75-15.224,26.544-25.817,42.342-33.869
				c19.426-9.902,40.293-14.637,61.629-8.467c13.519,3.91,28.286,12.224,32.175,25.817c3.044-4.683,9.199-7.236,14.769-7.535
				c1.501-0.081,2.719,0.352,3.643,1.081c6.462,0.262,13.282,1.356,17.896,6.148c4.48,4.653,5.48,11.095,5.465,17.34
				c0.193,0.75,0.194,1.542-0.045,2.331c-0.015,0.389-0.031,0.777-0.051,1.162c-0.137,2.681-1.161,4.494-3.666,5.615
				c-0.198,0.089-0.397,0.177-0.595,0.266c-0.859,0.385-1.912,0.429-2.912,0.216C348.931,225.8,343.9,228.073,339.236,225.914z
				 M372.329,272.604c-0.016,2.501-1.197,4.742-3.666,5.615c-7.234,2.56-15.09,2.274-22.266-0.265
				c-2.982-1.055-3.486-4.864-2.479-7.374c3.125-7.789,1.385-16.079,0.44-24.129c-0.381-3.246,1.73-5.165,4.203-5.615
				c0.26-2.294,1.83-4.296,4.859-4.293c5.203,0.006,10.341,0.162,15.473,1.086c2.254,0.406,4.449,2.581,4.436,4.976
				C373.272,252.614,372.392,262.596,372.329,272.604z M393.534,188.761c-4.075,9.517-12.825,12.809-22.137,8.193
				c-2.104-1.043-2.971-2.826-2.964-4.628c-2.962-0.257-5.764-2.59-4.988-6.349c1.598-7.736-1.914-18.545,3.05-25.286
				c4.902-6.661,18.106-3.282,24.926-3.15c2.803,0.055,5.915,1.86,5.908,5.062C397.312,171.28,397.002,180.669,393.534,188.761z"/>
		</g>
	</g>
	<g>
		<g>
			<path class="st7" d="M464.817,230.611c-0.349,3.057-0.798,6.098-1.361,9.112c-7.146,38.095-31.466,68.646-61.251,92.083
				c0.054,0.404,0.069,0.828,0.038,1.271c-0.443,6.285,1.574,12.755-0.991,18.805c-3.133,7.391-10.56,11.439-17.5,14.649
				c-8.65,3.999-18.181,6.821-27.77,7.082c-7.98,0.217-16.133-1.474-24.052,0.146c-12.004,2.457-18.679,15.067-25.997,23.729
				c-7.944,9.408-17.921,16.704-30.336,18.737c-25.096,4.11-43.824-15.394-66.803-20.798c-5.489-1.291-11.204-2.109-16.534,0.255
				c-4.646,2.06-8.555,5.605-12.284,8.977c-9.176,8.296-22.908,13.276-34.806,7.712c-5.402-2.526-10.344-5.769-13.578-10.923
				c-2.768-4.41-4.575-9.249-6.82-13.921c-5.428-11.293-17.216-17.203-24.352-27.242c-13.561-6.187-26.655-13.891-38.123-23.381
				c-3.84-3.177-7.593-6.611-11.058-10.311c2.078,7.768,4.956,15.313,8.78,22.4c19.79,36.68,57.385,58.332,95.731,71.334
				c42.493,14.41,89.671,22.492,134.308,15.375c47.418-7.561,91.016-31.537,123.611-66.7c17.842-19.248,33.163-41.464,44.617-65.097
				C469.584,280.602,476.018,254.428,464.817,230.611z"/>
		</g>
	</g>
	<g>
		<g>
			<path class="st15" d="M227.385,328.175c1.681,2.265,3.095,4.717,4.173,7.389c1.52-0.426,3.019-0.917,4.506-1.447
				C233.874,331.429,230.78,329.449,227.385,328.175z"/>
		</g>
	</g>
	<g>
		<g>
			<path class="st15" d="M298.557,121.119c-0.655-0.87-1.291-1.74-1.911-2.616c-2.912,2.72-5.588,5.75-6.258,9.42
				c1.03,0.263,1.99,0.825,2.739,1.735c0.245,0.065,0.62,0.123,1.182,0.121c1.614-0.006,3.234-0.085,4.829-0.345
				c1.364-0.222,2.721-0.508,4.01-1.015c0.083-0.033,0.152-0.062,0.224-0.092C302.612,125.731,300.068,123.128,298.557,121.119z"/>
		</g>
	</g>
	<g>
		<g>
			<path class="st15" d="M121.929,230.438c-2.962,5.468-4.773,11.518-2.946,17.567c1.048-0.673,1.897-1.684,2.889-3.6
				c1.5-2.897,2.876-5.859,4.58-8.615C124.752,234.111,123.23,232.343,121.929,230.438z"/>
		</g>
	</g>
	<g>
		<g>
			<path class="st15" d="M95.836,212.027c-1.728,0.863-3.47,1.935-4.967,3.158c-0.613,0.502-1.533,1.165-1.922,1.904
				c0.03,0.039,0.052,0.066,0.088,0.12c1.026,2.254,0.428,4.154-0.907,5.405c6.529,3.703,11.895-0.368,16.137-5.542
				C101.836,213.388,100.612,209.644,95.836,212.027z"/>
		</g>
	</g>
	<g>
		<g>
			<path d="M370.002,86.833c-0.296-0.43-0.571-0.759-0.829-1.019c-0.653,0.607-1.255,1.289-1.832,2.002
				c1.072,0.314,2.142,0.636,3.205,0.975c0.111-0.065,0.223-0.13,0.329-0.207C370.696,88.009,370.415,87.425,370.002,86.833z"/>
		</g>
	</g>
	<g>
		<g>
			<path d="M470.402,217.953c-1.217-1.954-2.995-2.622-4.718-2.435c0.118-38.122-15.133-77.312-40.267-105.005
				c-9.495-10.459-20.604-18.47-32.719-24.522c-0.021-0.042-0.038-0.084-0.059-0.126c-5.513-11.065-17.065-13.953-28.167-10.235
				c-25.847-6.596-53.867-7.011-79.713-4.536c-54.23,5.194-106.13,25.454-150.736,56.504c-29.141,20.285-53.794,45.232-73.29,74.885
				c-18.542,28.205-34.373,63.52-27.376,97.968c0.396,1.944,1.564,3.275,3.004,4.027c1.76,21.419,8.315,41.947,20.08,59.986
				c11.092,17.006,26.511,30.597,43.403,41.622c35.221,22.986,77.805,34.037,118.949,40.34
				c48.161,7.378,97.123,0.107,140.517-22.189c44.874-23.057,78.903-61.405,103.328-104.947
				C480.227,287.937,490.782,250.634,470.402,217.953z M367.285,86.282c5.85-2.402,11.474-1.821,15.084,3.587
				c4.974,7.445-11.304,11.702-14.334,5.34c-1.622-3.408-5.39-3.948-8.049-2.722C360.093,89.673,365.239,87.122,367.285,86.282z
				 M43.413,294.004c-3.184-24.953,5.956-49.471,17.86-71.192c12.921-23.578,29.854-44.665,49.634-62.813
				c40.378-37.045,92.177-63.024,145.867-73.686c26.551-5.272,54.086-7.218,81.033-4.244c4.802,0.53,9.602,1.235,14.366,2.133
				c-3.422,4.552-4.607,10.229-0.891,15.901c2.031,3.101,5.482,2.902,7.77,1.164c8.294,12,28.929,8.457,34.204-2.613
				c4.544,2.599,8.913,5.54,13.043,8.884c35.252,28.548,52.659,79.713,47.275,124.14c-5.947,49.079-44.556,85.503-84.807,109.79
				c-6.087,3.672,0.096,12.773,6.149,9.119c5.608-3.383,11.147-6.989,16.566-10.805c0.077,1.764,0.155,3.532,0.163,5.316
				c0.025,5.828-7.207,8.931-11.533,11.049c-6.282,3.077-13.035,5.13-19.955,6.081c-6.926,0.951-13.814-0.039-20.752-0.109
				c-12.902-0.131-22.295,5.153-30.762,14.545c-7.978,8.85-14.027,20.245-25.195,25.567c-23.791,11.333-45.42-8.916-67.147-16.029
				c-10.96-3.588-21.694-4.397-32.034,1.263c-10.641,5.825-17.506,18.167-31.305,15.907c-11.916-1.952-14.924-13.877-19.59-23.067
				c-2.279-4.488-5.564-8.071-9.117-11.417c29.627,7.786,62.747,6.73,91.406-1.668c6.809-1.995,3.158-12.374-3.638-10.383
				c-32.393,9.492-71.146,8.693-102.428-4.49c-13.442-5.666-26.302-13.004-37.835-21.943c-11.092-8.598-21.705-19.405-25.728-33.194
				C45.556,295.562,44.583,294.531,43.413,294.004z M458.288,303.904c-11.454,23.633-26.775,45.849-44.617,65.097
				c-32.596,35.163-76.193,59.139-123.611,66.7c-44.637,7.117-91.814-0.965-134.308-15.375
				c-38.347-13.003-75.941-34.655-95.731-71.334c-3.824-7.087-6.702-14.632-8.78-22.4c3.465,3.7,7.218,7.134,11.058,10.311
				c11.468,9.49,24.562,17.194,38.123,23.381c7.136,10.039,18.924,15.949,24.352,27.242c2.245,4.672,4.053,9.511,6.82,13.921
				c3.234,5.154,8.176,8.397,13.578,10.923c11.897,5.564,25.63,0.583,34.806-7.712c3.729-3.371,7.639-6.917,12.284-8.977
				c5.33-2.364,11.045-1.546,16.534-0.255c22.979,5.404,41.707,24.909,66.803,20.798c12.415-2.033,22.392-9.33,30.336-18.737
				c7.318-8.662,13.993-21.272,25.997-23.729c7.919-1.621,16.071,0.071,24.052-0.146c9.589-0.261,19.119-3.083,27.77-7.082
				c6.94-3.209,14.367-7.258,17.5-14.649c2.565-6.05,0.548-12.52,0.991-18.805c0.031-0.443,0.016-0.867-0.038-1.271
				c29.785-23.437,54.104-53.989,61.251-92.083c0.563-3.014,1.013-6.055,1.361-9.112
				C476.018,254.428,469.584,280.602,458.288,303.904z"/>
		</g>
	</g>
	<g>
		<g>
			<path d="M391.421,157.542c-6.819-0.132-20.023-3.511-24.926,3.15c-4.964,6.74-1.452,17.549-3.05,25.286
				c-0.775,3.759,2.026,6.092,4.988,6.349c-0.007,1.802,0.859,3.584,2.964,4.628c9.312,4.615,18.062,1.323,22.137-8.193
				c3.468-8.092,3.777-17.481,3.795-26.157C397.336,159.403,394.224,157.597,391.421,157.542z M384.586,180.948
				c-1.202,5.064-2.962,8.795-8.293,6.153c-0.611-0.302-1.207-0.483-1.78-0.563c0.916-6.058,0.08-12.371,0.829-18.454
				c1.987-0.297,4.057-0.236,6.051-0.195c1.621,0.033,3.24,0.149,4.859,0.272C386.063,172.461,385.586,176.736,384.586,180.948z"/>
		</g>
	</g>
	<g>
		<g>
			<path d="M249.035,335.209c-4.283-13.55-20.215-20.655-33.614-19.667c-0.69,0.051-1.302,0.204-1.842,0.434
				c-5.243-1.458-10.487,5.483-5.365,9.184c6.85,4.951,12.475,10.172,14.438,18.687c0.505,2.19,3.413,4.075,5.615,3.667
				c6.047-1.124,11.694-3.019,17.396-5.294C248.509,341.083,249.969,338.161,249.035,335.209z M231.558,335.564
				c-1.078-2.672-2.492-5.125-4.173-7.389c3.396,1.274,6.489,3.253,8.679,5.942C234.576,334.648,233.077,335.138,231.558,335.564z"
				/>
		</g>
	</g>
	<g>
		<g>
			<path d="M368.894,237.629c-5.132-0.924-10.27-1.081-15.473-1.086c-3.029-0.003-4.6,2-4.859,4.293
				c-2.473,0.451-4.584,2.37-4.203,5.615c0.944,8.05,2.685,16.34-0.44,24.129c-1.007,2.51-0.503,6.319,2.479,7.374
				c7.176,2.539,15.031,2.824,22.266,0.265c2.469-0.873,3.65-3.113,3.666-5.615c0.062-10.008,0.943-19.99,1-30
				C373.343,240.209,371.147,238.035,368.894,237.629z M361.446,268.761c-1.89,0.331-3.85,0.42-5.768,0.25
				c1.414-7.077,0.734-14.101-0.123-21.482c2.263,0.021,4.497,0.11,6.727,0.314C362.101,254.819,361.641,261.786,361.446,268.761z"
				/>
		</g>
	</g>
	<g>
		<g>
			<path d="M303.035,108.209c-1.806-3.854-6.201-4.874-9.323-1.812c-5.855,5.742-13.712,11.688-14.267,20.581
				c-0.183,2.924,1.607,5.002,3.782,5.915c0.018,0.614,0.146,1.266,0.425,1.954c3.771,9.32,20.283,6.479,26.87,2.083
				C322.318,129.053,306.502,115.602,303.035,108.209z M303.147,128.42c-1.289,0.507-2.646,0.792-4.01,1.015
				c-1.595,0.26-3.215,0.339-4.829,0.345c-0.562,0.002-0.937-0.056-1.182-0.121c-0.749-0.91-1.709-1.472-2.739-1.735
				c0.67-3.67,3.346-6.7,6.258-9.42c0.62,0.875,1.256,1.746,1.911,2.616c1.512,2.009,4.056,4.612,4.814,7.209
				C303.3,128.358,303.23,128.387,303.147,128.42z"/>
		</g>
	</g>
	<g>
		<g>
			<path d="M224.597,124.176c-1.417-8.449-9.782-9.914-16.951-8.334c-6.396,1.409-11.566,6.853-12.234,13.261
				c-2.493,1.973-3.465,5.674-0.197,8.057c5.688,4.151,13.288,8.29,20.458,5.625C222.614,140.205,225.734,130.96,224.597,124.176z
				 M211.265,132.688c-1.248,0.464-3.156-0.279-4.936-1.266c0.016-0.264,0.021-0.534,0-0.818c-0.166-2.34,2.202-3.479,4.15-4.153
				c1.086-0.376,2.213-0.389,3.33-0.21c0.035,0.408,0.053,0.806,0.021,0.438C214.009,128.835,213.119,131.999,211.265,132.688z"/>
		</g>
	</g>
	<g>
		<g>
			<path d="M364.014,128.338c-8.767-11.61-30.363-3.001-29.655,11.113c0.152,3.033,2.252,4.608,4.575,4.866
				c0.538,1.034,1.402,1.939,2.464,2.638c5.891,3.877,13.888,3.865,19.85,0.209C367.624,143.253,368.29,134,364.014,128.338z
				 M354.446,138.443c-2.425,1.486-6.09,0.017-8.153-1.342c-0.134-0.087-0.271-0.16-0.409-0.229
				c1.693-2.425,6.828-3.819,8.939-2.299C356.481,135.767,355.907,137.547,354.446,138.443z"/>
		</g>
	</g>
	<g>
		<g>
			<path d="M137.476,230.896c-4-3.268-8.136-6.967-9.146-12.292c-0.786-4.15-6.469-7.475-9.617-3.208
				c-0.682,0.924-1.352,1.863-2.007,2.816c1.116-3.202-0.909-6.495-3.52-7.586c-5.098-7.614-11.284-13.459-20.987-8.983
				c-6.787,3.13-17.609,10.264-13.546,19.203c0.529,1.164,1.31,1.995,2.21,2.542c-1.661,2.476-1.684,6.442,1.535,8.566
				c12.203,8.054,24.038,0.194,31.74-9.773c-5.441,8.996-8.83,19.067-5.485,29.665c0.376,1.188,1.007,2.048,1.778,2.634
				c-0.086,3.425,2.941,7.108,7.232,5.738c4.727-1.509,8.164-2.478,11.313-6.561c3.592-4.657,5.017-10.637,9-15
				C139.943,236.504,139.765,232.766,137.476,230.896z M88.128,222.614c1.335-1.25,1.934-3.15,0.907-5.405
				c-0.036-0.053-0.058-0.081-0.088-0.12c0.389-0.739,1.309-1.401,1.922-1.904c1.497-1.223,3.239-2.295,4.967-3.158
				c4.776-2.384,6,1.361,8.429,5.044C100.022,222.246,94.657,226.316,88.128,222.614z M121.871,244.406
				c-0.991,1.916-1.841,2.927-2.889,3.6c-1.827-6.049-0.016-12.099,2.946-17.567c1.302,1.905,2.823,3.672,4.522,5.352
				C124.747,238.547,123.371,241.508,121.871,244.406z"/>
		</g>
	</g>
	<g>
		<g>
			<path d="M126.507,288.022c-10.135-7.896-22.166-3.333-28.589,6.559c-0.166,0.253-0.296,0.503-0.412,0.751
				c-1.303,1.212-2.455,2.544-3.261,4.127c-2.707,5.315-0.595,10.296,3.969,13.701c4.317,3.223,11.409,3.041,16.53,2.997
				c5.512-0.047,11.224-1.18,16.016-3.962C141.035,306.227,133.09,293.149,126.507,288.022z M122.985,303.794
				c-5.422,2.08-12.16,1.761-17.727,0.572c-0.486-0.104-0.741-0.213-0.879-0.293c0.55-0.629,1.206-1.192,1.826-1.717
				c2.259-1.909,4.617-3.662,6.771-5.698c0.525-0.497,0.904-1.018,1.169-1.548c1.637-0.148,3.39,0.255,5.211,1.261
				c2.091,1.155,3.923,3.702,4.937,5.811c0.175,0.363,0.238,0.749,0.293,0.972C124.073,303.471,123.152,303.73,122.985,303.794z"/>
		</g>
	</g>
	<g>
		<g>
			<path d="M360.425,213.112c0.016-6.246-0.984-12.688-5.465-17.34c-4.614-4.792-11.435-5.886-17.896-6.148
				c-0.924-0.729-2.142-1.162-3.643-1.081c-5.569,0.299-11.725,2.853-14.769,7.535c-3.889-13.594-18.656-21.907-32.175-25.817
				c-21.336-6.17-42.203-1.436-61.629,8.467c-15.798,8.052-32.592,18.645-42.342,33.869c-9.817,15.33-9.525,33.153,4.707,45.564
				c0.449,0.392,0.913,0.685,1.379,0.904c0.952,1.418,2.525,2.443,4.675,2.449c15.589,0.042,31.191,1.001,46.752-0.334
				c12.223-1.049,23.696-4.337,34.861-9.304c17.639-7.844,39.838-21.896,44.08-42.432c1.908,2.877,4.756,5.278,7.405,7.392
				c3.934,3.138,8.273,6.949,12.87,9.078c4.664,2.159,9.694-0.113,13.92-3.213c1,0.213,2.053,0.169,2.912-0.216
				c0.197-0.088,0.396-0.177,0.595-0.266c2.505-1.121,3.529-2.934,3.666-5.615c0.02-0.385,0.036-0.773,0.051-1.162
				C360.619,214.654,360.618,213.862,360.425,213.112z M280.817,236.596c-9.367,5.479-20.062,9.997-30.735,12.113
				c-13.591,2.694-27.561,2.491-41.447,2.144c2.874-4.297,5.025-9.221,9.009-12.696c8.882-7.747,19.892-12.444,31.02-15.938
				c15.046-4.724,37.877-12.576,51.26-0.314C294.586,227.919,287.557,232.653,280.817,236.596z M306.066,212.641
				c-15.567-13.114-38.951-7.437-56.634-2.161c-11.502,3.432-22.624,7.736-32.624,14.485c-4.773,3.22-9.809,7.179-12.854,12.14
				c-2.416,3.933-4.016,8.95-8.186,11.363c-0.625,0.362-1.118,0.783-1.5,1.24c-9.541-8.478-9.396-19.149-3.395-29.822
				c6.086-10.824,17.138-18.321,27.367-24.828c19.139-12.173,40.266-19.957,62.882-14.837c8.45,1.913,16.849,5.474,22.97,11.751
				C309.921,197.949,309.234,205.743,306.066,212.641z M345.644,214.468c-0.713,0.499-1.486,0.872-2.321,1.118
				c-0.015,0.006-0.022,0.011-0.037,0.017c-2.224-1.263-4.268-2.935-6.31-4.457c-2.507-1.868-4.991-3.789-7.297-5.9
				c-0.537-0.55-0.577-0.564-0.115-0.045c-0.607-0.731-1.728-1.705-1.906-2.736c-0.239-1.386,2.005-2.173,3.98-2.581
				c0.749,0.388,1.625,0.623,2.63,0.63c4.268,0.031,9.624-0.012,12.954,3.028c1.833,1.674,2.316,4.812,2.366,7.896
				C348.346,212.538,347.041,213.532,345.644,214.468z"/>
		</g>
	</g>
</g>
</svg>
