<?xml version="1.0" encoding="utf-8"?>
<!-- Generator: Adobe Illustrator 16.0.3, SVG Export Plug-In . SVG Version: 6.00 Build 0)  -->
<!DOCTYPE svg PUBLIC "-//W3C//DTD SVG 1.1//EN" "http://www.w3.org/Graphics/SVG/1.1/DTD/svg11.dtd">
<svg version="1.1" id="Layer_1" xmlns="http://www.w3.org/2000/svg" xmlns:xlink="http://www.w3.org/1999/xlink" x="0px" y="0px"
	 width="512px" height="512px" viewBox="0 0 512 512" style="enable-background:new 0 0 512 512;" xml:space="preserve">
<style type="text/css">
<![CDATA[
	.st0{fill:#127274;}
	.st1{fill:#14B6B9;}
	.st2{fill:#1E4384;}
	.st3{fill:#EF4754;}
	.st4{fill:#EF4823;}
	.st5{fill:#BCBCBC;}
	.st6{fill:#F6851F;}
	.st7{fill:#C56528;}
	.st8{fill:#FCBF95;}
	.st9{fill:#FEBF10;}
	.st10{fill:none;}
	.st11{fill:#010101;}
	.st12{fill:#3AB37C;}
	.st13{fill:#D6E5E5;}
	.st14{fill:#71C598;}
	.st15{fill:#74CCCF;}
]]>
</style>
<g>
	<g>
		<g>
			<path class="st13" d="M153.838,335.994c-1.691-1.66-3.426-3.383-5.207-5.094c-0.093,0.091-0.184,0.182-0.286,0.268
				c-7.491,6.346-4.822,14.559,2.235,19.963c3.433,2.631,13.914,8.154,15.56,1.938c0.462-1.746,1.573-2.852,2.895-3.4
				C163.604,345.554,158.717,340.785,153.838,335.994z"/>
		</g>
	</g>
	<g>
		<g>
			<path class="st13" d="M332.917,339.162c-1.488,1.395-3.037,2.717-4.721,3.881c-6.69,4.625-14.758,6.341-22.763,5.826
				c2.009,8.723,10.97,16.955,20.018,16.139c5.532-0.498,8.541-5.122,9.537-10.306C335.789,350.535,336.145,342.963,332.917,339.162
				z"/>
		</g>
	</g>
	<g>
		<g>
			<path class="st13" d="M257.037,446.574c-6.216-1.482-12.99-0.531-17.407,4.592c-5.147,5.973,1.451,13.639,3.635,19.697
				c0.056,0.154,0.1,0.307,0.14,0.457c1.646,0.162,3.29,0.342,4.931,0.562c8.439,1.14,16.938,1.904,25.455,2.291
				c0.095-0.355,0.258-0.941,0.411-1.441c0.007-1.281,0.525-2.459,1.322-3.385C276.592,459.016,266.661,448.871,257.037,446.574z"/>
		</g>
	</g>
	<g>
		<g>
			<path class="st7" d="M392.734,224.003c-3.869-9.519-8.442-18.987-14.835-27.099c-3.696-4.691-8.203-9.27-13.904-11.174
				c-1.129,7.002-5.061,13.592-10.553,18.045c-7.846,6.362-18.053,8.789-27.875,10.043c-9.83,1.256-20.108,0.586-27.444,8.383
				c-6.679,7.1-11.726,15.945-20.286,21.098c-16.551,9.963-43.023,17.82-58.605,1.658c-3.861-4.004-6.604-8.408-8.291-13.725
				c-1.225-3.859-2.097-8.67-5.556-11.238c-5.184-3.849-12.354-2.293-18.257-1.223c-5.596,1.014-11.088,2.32-16.749,2.934
				c-9.49,1.027-19.681,1.557-28.626-2.41c-1.906-0.844-3.739-1.871-5.495-3.039c-1.46,2.449-3.312,4.734-4.704,6.668
				c-4.701,6.537-9.292,13.123-12.512,20.557c-3.95,9.123-6.856,20.191-6.177,30.205c0.724,10.67,4.069,20.96,4.605,31.639
				c23.928-2.967,41.146,24.967,59.29,37.717c18.272,12.841,37.559-2.381,54.151-10.875c9.297-4.759,19.404-8.428,30.016-7.359
				c13.28,1.338,24.408,9.583,37.153,12.691c10.42,2.541,20.341,1.842,28.254-5.875c7.334-7.153,14.299-16.119,24.687-18.83
				c11.409-2.979,29.028,0.93,36.751-10.033c4.929-6.996,6.684-15.283,12.488-21.133c-0.545-2.85,1.659-5.797,4.32-6.197
				C405.292,258.225,399.094,239.646,392.734,224.003z"/>
		</g>
	</g>
	<g>
		<g>
			<path class="st3" d="M255.767,91.928c-5.36-7.062-11.986-7.562-18.927-2.246c-1.218,0.932-2.459,1.17-3.577,0.943
				c-0.345,0.023-0.716-0.011-1.098-0.072c-0.846,1.609-1.724,3.183-2.641,4.707c-3.298,5.479-12.292,1.088-8.959-4.449
				c0.729-1.213,1.438-2.459,2.121-3.732c-5.385-2.41-10.709-5.07-16.481-5.861c-8.258-1.133-19.575,1.424-23.799,9.49
				c-3.421,6.533-2.971,14.297-0.613,21.129c5.873,17.023,20.373,26.361,37.887,28.443c17.048,2.027,40.394-4.15,42.553-24.496
				C263.093,107.68,260.712,98.446,255.767,91.928z M241.954,104.488c-0.657,7.973-10.819,9.262-17.002,8.683
				c-7.275-0.683-15.229-3.739-18.125-10.983c-2.401-6.006,7.055-9.271,9.439-3.307c1.268,3.173,6.697,4.108,9.621,4.383
				c1.704,0.16,3.759,0.246,5.403-0.311c0.344-0.117,0.595-0.182,0.84-0.291c0.003-0.031,0.003-0.047,0.007-0.082
				C232.666,96.158,242.477,98.135,241.954,104.488z"/>
		</g>
	</g>
	<g>
		<g>
			<path class="st13" d="M354.311,181.242c-0.488-8.869-9.023-12.402-14.581-18.057c-3.659-3.725-6.69-7.9-8.054-13.004
				c-0.178-0.666-0.322-1.336-0.442-2.006c-1.327,2.469-3.118,4.809-4.937,6.656c-3.091,3.141-6.291,6.412-7.793,10.65
				c-1.248,3.518-1.571,7.416-2.226,11.07c-1.548,8.645-3.8,19.572-13.495,22.557c-7.58,2.332-15.389,0.233-23.032-0.633
				c-4.146-0.469-9.148-0.936-13.161,0.5c-3.833,1.371-6.073,4.383-8.353,7.604c-5.023,7.1-11.201,12.274-20.466,11.488
				c-11.137-0.943-15.568-11.199-19.346-20.268c-3.639-8.732-7.181-19.682-18.494-18.783c-6.44,0.512-7.189-9.463-0.77-9.973
				c9.271-0.736,17.205,3.225,21.982,11.283c4.573,7.715,6.39,17.654,11.983,24.655c5.757,7.204,13.157,1.269,17.035-4.212
				c4.692-6.631,9.721-11.016,17.995-12.229c7.754-1.135,15.326,0.57,23.006,1.424c6.94,0.771,12.07-0.395,13.844-7.967
				c1.775-7.586,1.775-16.469,5.644-23.425c1.895-3.407,4.321-6.472,7.053-9.247c1.457-1.48,2.645-3.213,3.868-4.895
				c0.51-0.7,1.056-1.414,1.499-2.175c-4.259-2.79-2.208-10.728,3.423-9.134c1.767,0.5,3.133,1.193,4.174,2.025
				c-0.009-0.32-0.012-0.642-0.026-0.961c-0.599-13.58-11.577-20.846-24.476-17.531c-3.578,0.92-7.139,2.098-10.762,2.865
				c0.615,1.199,0.768,2.664,0.116,4.234c0.313-0.754-0.351,1.929-0.431,2.467c-0.196,1.311-0.375,2.621-0.57,3.932
				c-0.516,3.469-1.033,7.01-2.121,10.355c-2.058,6.325-5.305,11.773-11.667,14.496c-6.06,2.593-12.823,2.779-19.303,3.236
				c-4.175,0.293-11.909-0.102-13.905,4.512c-2.561,5.918-11.514,1.457-8.959-4.449c5.299-12.244,22.688-9.206,33.264-11.066
				c14.152-2.492,10.604-16.596,14.384-27.021c-2.674-0.172-5.316-0.434-7.957-0.958c-1.917-0.38-4.194-1.194-6.286-1.558
				c-0.262,2.041-0.698,4.012-1.33,5.867c-12.85,37.729-72.691,33.811-92.037,4.262c-0.496-0.76-0.98-1.543-1.45-2.347
				c-0.446-0.296-0.867-0.677-1.249-1.155c-0.343-0.436-0.781-0.734-1.314-0.895c-11.15-4.349-18.649,4.916-21.891,14.281
				c2.531-0.249,5.183,1.158,5.338,4.432c0.312,6.553,8.645,11.145,13.313,14.627c3.394,2.531,1.304,8.742-2.916,8.742h-4.499
				c-3.564,0-5.392-3.076-5.211-5.812c-3.935-3.18-7.592-6.811-9.432-11.319c-0.421,1.175-0.878,2.334-1.395,3.469
				c-2.098,4.612-5.146,8.179-8.609,11.832c-7.499,7.913-16.54,16.347-11.002,28.025c4.324,9.12,12.318,18.107,22.646,20.028
				c10.208,1.897,20.891-0.084,30.924-2.084c11.173-2.229,24.382-4.565,32.649,5.369c6.451,7.752,5.365,18.684,14.24,24.914
				c8.643,6.066,20.404,4.752,29.843,1.456c10.229-3.571,18.188-8.805,24.947-17.296c5.832-7.328,11.968-15.088,21.48-17.609
				c9.963-2.643,20.521-1.754,30.451-4.761C344.754,198.918,354.922,192.354,354.311,181.242z"/>
		</g>
	</g>
	<g>
		<g>
			<path class="st13" d="M384.792,362.557c-2.198,4.371-4.051,10.512-1.618,14.514c1.461,2.401,3.581,3.934,6.308,4.939
				c1.804,0.664,3.776,1.04,5.683,1.262c0.782,0.091,1.566,0.175,2.353,0.221c1.558-3.123,6.547-4.146,8.651-0.867
				c1.827-10.057,2.99-20.209,3.631-30.406C401.682,342.91,389.146,353.896,384.792,362.557z"/>
		</g>
	</g>
	<g>
		<g>
			<path class="st13" d="M182.839,423.744c-0.628-5.703-4.95-11.621-10.144-14.059c-5.711-2.68-11.55-1.836-16.891,0.812
				c-1.05,1.674-3.063,2.486-4.947,2.352c-0.027,0.004-0.055,0.008-0.081,0.01c2.276,4.846,4.601,9.662,6.971,14.445
				c2.438,4.922,4.766,10.366,7.438,15.612c1.297-1.089,3.115-1.472,5.087-0.379C179.814,447.824,183.543,430.139,182.839,423.744z"
				/>
		</g>
	</g>
	<g>
		<g>
			<path class="st13" d="M332.206,415.705c-4.767-2.598-10.545-3.574-15.923-2.52c-2.318,0.454-5.202,1.637-6.872,3.369
				c-1.836,1.905-2.134,2.094,0.355,3.484c4.024,2.249,2.885,7.518-0.17,9.137c2.632,5.867,7.797,11.119,12.916,14.266
				c3.957,2.432,13.108,7.148,16.526,1.238C344.159,435.829,341.644,420.85,332.206,415.705z"/>
		</g>
	</g>
	<g>
		<g>
			<path class="st1" d="M411.718,293.199c-0.163-1.99-0.24-4.756-1.124-6.883c-7.647,4.346-8.779,12.977-13.213,19.923
				c-5.463,8.556-13.783,12.944-23.848,13.993c-10.832,1.129-20.857,0.35-29.6,7.965c-1.396,1.217-2.721,2.518-4.021,3.85
				c5.165,5.717,6.317,15.18,5.255,22.408c-1.285,8.754-6.126,17.465-15.158,19.89c-15.977,4.288-34.576-11.235-34.973-27.39
				c-11.67-3.515-22.599-10.98-34.738-12.203c-21.582-2.173-38.015,17.479-58.017,22.08c-9.006,2.072-18.053,1.951-26.199-2.475
				c-0.03,0.201-0.071,0.406-0.127,0.619c-4.023,15.197-21.679,11.558-31.31,4.181c-5.403-4.139-10.147-10.167-10.95-17.13
				c-0.827-7.18,2.532-13.049,7.503-17.752c-7.598-6.102-16.029-10.402-25.581-8.189c7.296,30.227,18.247,59.604,31.101,87.973
				c0.436-0.561,0.931-1.064,1.59-1.518c0.856-0.59,1.824-0.841,2.789-0.826c8.467-4.19,18.754-5.611,27.147-0.389
				c7.709,4.797,14.312,13.155,14.632,22.57c0.419,12.336-7.311,32.023-21.252,29.702c4.364,5.881,9.839,10.591,17.402,12.597
				c14.229,3.777,28.815,3.646,43.357,4.35c-3.654-8.645-8.526-18.059-0.269-25.98c7.011-6.727,16.005-10.389,25.769-8.059
				c16.865,4.023,31.216,20.49,26.705,37.945c18.69,0.103,37.379-1.743,55.621-5.922c7.125-1.633,14.141-3.646,21.295-5.156
				c5.611-1.186,11.486-2.191,16.767-4.521c11.422-5.036,14.952-19.965,17.579-31.069c1.518-6.41,2.722-12.881,4.004-19.342
				c1.025-5.172,2.657-10.232,4.031-15.354c-2.661,0.892-5.89,0.457-8.566,0.213c-5.75-0.523-11.877-2.057-16.365-5.906
				c-7.582-6.502-8.104-16.645-4.785-25.494c5.472-14.588,22.097-27.617,36.146-21.266c0.305-10.781,0.426-21.469,1.173-32.234
				C411.838,303.361,412.129,298.245,411.718,293.199z M270.002,392.209c-1.188,28.986-46.749,25.459-53.594,2.131
				c-0.903-0.518-1.657-1.383-2.082-2.666c-0.767-2.318-1.449-4.773-1.651-7.217c-1.355-16.426,13.632-25.259,28.521-23.734
				C257.41,362.385,270.692,375.402,270.002,392.209z M350.731,441.834c-1.488,6.231-4.975,12.719-11.569,14.678
				c-5.772,1.713-11.855,0.621-17.208-1.975c-11.585-5.613-21.77-16.664-23.898-29.634c-0.22-1.339,0.051-2.424,0.618-3.25
				c-1.407-4.05-0.232-8.612,4.044-12.433c6.435-5.75,15.555-7.379,23.918-5.912C344.44,406.434,354.888,424.426,350.731,441.834z"
				/>
		</g>
	</g>
	<g>
		<g>
			<path class="st13" d="M260.032,390.348c-0.858-11.506-10.326-19.963-21.941-19.848c-8.898,0.088-15.18,4.396-15.315,11.945
				c1.616,0.521,2.842,1.889,2.757,4.189C224.852,405.102,261.522,410.3,260.032,390.348z"/>
		</g>
	</g>
	<g>
		<g>
			<path class="st11" d="M415.837,276.77c-0.436-0.391-0.886-0.682-1.341-0.891c0.008-0.079,0.021-0.156,0.025-0.238
				c0.489-8.576-1.33-17.271-3.184-25.594c-2.484-11.152-6.07-22.086-10.515-32.607c-6.71-15.882-18.198-39.037-37.372-42.162
				c-2.344-8.26-9.474-12.801-15.618-18.197c-3.512-3.084-6.208-6.807-6.901-11.511c-0.854-5.804,0.088-11.71-0.842-17.528
				c-2.244-14.039-15.835-23.223-29.528-22.244c-6.604,0.473-12.71,3.383-19.208,4.319c-5.615,0.81-10.842-0.962-16.187-1.955
				c-0.706-0.384-1.543-0.614-2.509-0.614h-0.755c-2.384-18.508-16.393-37.332-34.017-30.053c6.851-19.104,8.66-41.205,2.377-59.609
				c-2.082-6.1-11.525-2.807-9.438,3.307c6.055,17.736,3.358,39.252-4.03,57.172c-8.437-3.281-16.168-7.531-25.844-7.395
				c-9.181,0.131-18.975,4.148-24.851,11.295c-7.051,8.574-7.419,19.909-4.468,30.334c-5.572-0.478-11.495,0.963-15.856,3.725
				c-8.677,5.496-11.762,15.711-14.625,24.94c-1.252,4.034-2.668,8.151-5.358,11.468c-3.846,4.742-8.483,8.799-12.314,13.57
				c-7.322,9.118-8.975,19.561-3.917,30.228c2.187,4.61,5.182,9.077,8.788,12.952c-0.074,0.203-0.173,0.447-0.334,0.762
				c-0.747,1.451-1.686,2.812-2.611,4.152c-2.007,2.906-4.137,5.727-6.164,8.619c-4.963,7.082-9.119,14.838-11.863,23.048
				c-3.027,9.058-4.817,18.825-4.485,28.394c0.39,11.25,4.425,22.021,4.667,33.312c-0.585,0.328-1.125,0.755-1.574,1.271
				c-3.771,2.294-2.996,7.786-0.057,9.335c6.707,28.048,16.694,55.229,28.163,81.66c5.722,13.186,12.111,26.027,18.34,38.975
				c5.083,10.566,10.09,21.48,19.104,29.328c10.132,8.82,25.411,10.25,38.231,11.209c14.73,1.103,29.374,1.416,44.072,3.051
				c30.101,3.348,60.109,1.934,89.68-4.628c10.488-2.327,21.091-4.767,31.486-7.481c9.684-2.529,16.867-7.318,21.822-16.066
				c5.327-9.407,7.973-20.385,10.224-30.863c1.041-4.846,1.931-9.723,2.895-14.584c1.318-6.646,3.75-13.156,5.163-19.82
				c2.506-11.816,3.819-23.859,4.578-35.903c0.705-11.183,0.227-22.416,0.915-33.579c0.489-7.941,1.351-15.848,1.242-23.816
				C421.754,289.316,421.01,281.41,415.837,276.77z M182.407,90.707c4.224-8.066,15.541-10.623,23.799-9.49
				c5.772,0.791,11.097,3.451,16.481,5.861c-0.684,1.273-1.392,2.52-2.121,3.732c-3.333,5.537,5.661,9.928,8.959,4.449
				c0.917-1.524,1.795-3.098,2.641-4.707c0.382,0.062,0.753,0.096,1.098,0.072c1.118,0.227,2.359-0.012,3.577-0.943
				c6.94-5.316,13.566-4.816,18.927,2.246c4.945,6.519,7.326,15.752,6.466,23.855c-2.159,20.346-25.505,26.523-42.553,24.496
				c-17.514-2.082-32.014-11.42-37.887-28.443C179.436,105.004,178.986,97.24,182.407,90.707z M128.286,191.712
				c-5.538-11.679,3.503-20.112,11.002-28.025c3.463-3.653,6.512-7.22,8.609-11.832c0.517-1.135,0.974-2.294,1.395-3.469
				c1.84,4.509,5.497,8.14,9.432,11.319c-0.181,2.736,1.646,5.812,5.211,5.812h4.499c4.22,0,6.31-6.211,2.916-8.742
				c-4.669-3.482-13.002-8.074-13.313-14.627c-0.155-3.273-2.807-4.681-5.338-4.432c3.241-9.365,10.74-18.63,21.891-14.281
				c0.533,0.16,0.972,0.459,1.314,0.895c0.382,0.479,0.803,0.859,1.249,1.155c0.47,0.804,0.954,1.587,1.45,2.347
				c19.346,29.549,79.188,33.467,92.037-4.262c0.632-1.855,1.068-3.826,1.33-5.867c2.092,0.363,4.369,1.178,6.286,1.558
				c2.641,0.524,5.283,0.786,7.957,0.958c-3.779,10.426-0.231,24.529-14.384,27.021c-10.575,1.86-27.965-1.178-33.264,11.066
				c-2.555,5.906,6.398,10.367,8.959,4.449c1.996-4.613,9.73-4.219,13.905-4.512c6.479-0.457,13.243-0.644,19.303-3.236
				c6.362-2.723,9.609-8.171,11.667-14.496c1.088-3.346,1.605-6.887,2.121-10.355c0.195-1.311,0.374-2.621,0.57-3.932
				c0.08-0.538,0.744-3.221,0.431-2.467c0.651-1.57,0.499-3.035-0.116-4.234c3.623-0.768,7.184-1.945,10.762-2.865
				c12.898-3.314,23.877,3.951,24.476,17.531c0.015,0.319,0.018,0.641,0.026,0.961c-1.041-0.832-2.407-1.525-4.174-2.025
				c-5.631-1.594-7.682,6.344-3.423,9.134c-0.443,0.761-0.989,1.475-1.499,2.175c-1.224,1.682-2.411,3.414-3.868,4.895
				c-2.731,2.775-5.158,5.84-7.053,9.247c-3.868,6.956-3.868,15.839-5.644,23.425c-1.773,7.572-6.903,8.738-13.844,7.967
				c-7.68-0.854-15.252-2.559-23.006-1.424c-8.274,1.213-13.303,5.598-17.995,12.229c-3.878,5.48-11.278,11.416-17.035,4.212
				c-5.594-7.001-7.41-16.94-11.983-24.655c-4.777-8.059-12.711-12.02-21.982-11.283c-6.42,0.51-5.671,10.484,0.77,9.973
				c11.313-0.898,14.855,10.051,18.494,18.783c3.777,9.068,8.209,19.324,19.346,20.268c9.265,0.786,15.442-4.389,20.466-11.488
				c2.279-3.221,4.52-6.232,8.353-7.604c4.013-1.436,9.016-0.969,13.161-0.5c7.644,0.866,15.452,2.965,23.032,0.633
				c9.695-2.984,11.947-13.912,13.495-22.557c0.654-3.654,0.978-7.553,2.226-11.07c1.502-4.238,4.702-7.51,7.793-10.65
				c1.818-1.848,3.609-4.188,4.937-6.656c0.12,0.67,0.265,1.34,0.442,2.006c1.363,5.104,4.395,9.279,8.054,13.004
				c5.558,5.654,14.093,9.188,14.581,18.057c0.611,11.111-9.557,17.676-18.845,20.487c-9.931,3.007-20.488,2.118-30.451,4.761
				c-9.513,2.521-15.648,10.281-21.48,17.609c-6.759,8.491-14.718,13.725-24.947,17.296c-9.438,3.296-21.2,4.61-29.843-1.456
				c-8.875-6.23-7.789-17.162-14.24-24.914c-8.268-9.935-21.477-7.598-32.649-5.369c-10.033,2-20.716,3.981-30.924,2.084
				C140.604,209.819,132.61,200.832,128.286,191.712z M119.042,243.48c3.22-7.434,7.811-14.02,12.512-20.557
				c1.392-1.934,3.244-4.219,4.704-6.668c1.756,1.168,3.589,2.195,5.495,3.039c8.945,3.967,19.136,3.438,28.626,2.41
				c5.661-0.613,11.153-1.92,16.749-2.934c5.903-1.07,13.073-2.626,18.257,1.223c3.459,2.568,4.331,7.379,5.556,11.238
				c1.687,5.316,4.43,9.721,8.291,13.725c15.582,16.162,42.055,8.305,58.605-1.658c8.561-5.152,13.607-13.998,20.286-21.098
				c7.336-7.797,17.614-7.127,27.444-8.383c9.822-1.254,20.029-3.681,27.875-10.043c5.492-4.453,9.424-11.043,10.553-18.045
				c5.701,1.904,10.208,6.482,13.904,11.174c6.393,8.111,10.966,17.58,14.835,27.099c6.36,15.644,12.558,34.222,11.847,51.427
				c-2.661,0.4-4.865,3.348-4.32,6.197c-5.805,5.85-7.56,14.137-12.488,21.133c-7.723,10.963-25.342,7.055-36.751,10.033
				c-10.388,2.711-17.353,11.677-24.687,18.83c-7.913,7.717-17.834,8.416-28.254,5.875c-12.745-3.108-23.873-11.354-37.153-12.691
				c-10.611-1.068-20.719,2.601-30.016,7.359c-16.593,8.494-35.879,23.716-54.151,10.875c-18.144-12.75-35.362-40.684-59.29-37.717
				c-0.536-10.679-3.882-20.969-4.605-31.639C112.185,263.672,115.091,252.604,119.042,243.48z M334.989,354.702
				c-0.996,5.184-4.005,9.808-9.537,10.306c-9.048,0.816-18.009-7.416-20.018-16.139c8.005,0.515,16.072-1.201,22.763-5.826
				c1.684-1.164,3.232-2.486,4.721-3.881C336.145,342.963,335.789,350.535,334.989,354.702z M169.035,349.668
				c-1.321,0.549-2.433,1.654-2.895,3.4c-1.646,6.217-12.127,0.693-15.56-1.938c-7.058-5.404-9.727-13.617-2.235-19.963
				c0.103-0.086,0.193-0.177,0.286-0.268c1.781,1.711,3.516,3.434,5.207,5.094C158.717,340.785,163.604,345.554,169.035,349.668z
				 M170.273,442.538c-1.972-1.093-3.79-0.71-5.087,0.379c-2.673-5.246-5-10.69-7.438-15.612c-2.37-4.783-4.694-9.6-6.971-14.445
				c0.026-0.002,0.054-0.006,0.081-0.01c1.884,0.135,3.897-0.678,4.947-2.352c5.341-2.648,11.18-3.492,16.891-0.812
				c5.193,2.438,9.516,8.355,10.144,14.059C183.543,430.139,179.814,447.824,170.273,442.538z M275.523,469.348
				c-0.797,0.926-1.315,2.104-1.322,3.385c-0.153,0.5-0.316,1.086-0.411,1.441c-8.517-0.387-17.016-1.151-25.455-2.291
				c-1.641-0.221-3.285-0.4-4.931-0.562c-0.04-0.15-0.084-0.303-0.14-0.457c-2.184-6.059-8.782-13.725-3.635-19.697
				c4.417-5.123,11.191-6.074,17.407-4.592C266.661,448.871,276.592,459.016,275.523,469.348z M406.168,382.625
				c-2.104-3.279-7.094-2.256-8.651,0.867c-0.786-0.046-1.57-0.13-2.353-0.221c-1.906-0.222-3.879-0.598-5.683-1.262
				c-2.727-1.006-4.847-2.538-6.308-4.939c-2.433-4.002-0.58-10.143,1.618-14.514c4.354-8.66,16.89-19.646,25.007-10.338
				C409.159,362.416,407.996,372.568,406.168,382.625z M411.49,308.4c-0.747,10.766-0.868,21.453-1.173,32.234
				c-14.05-6.352-30.675,6.678-36.146,21.266c-3.319,8.85-2.797,18.992,4.785,25.494c4.488,3.85,10.615,5.383,16.365,5.906
				c2.677,0.244,5.905,0.679,8.566-0.213c-1.374,5.121-3.006,10.182-4.031,15.354c-1.282,6.461-2.486,12.932-4.004,19.342
				c-2.627,11.104-6.157,26.033-17.579,31.069c-5.28,2.329-11.155,3.335-16.767,4.521c-7.154,1.511-14.17,3.523-21.295,5.156
				c-18.242,4.179-36.931,6.024-55.621,5.922c4.511-17.455-9.84-33.922-26.705-37.945c-9.764-2.33-18.758,1.332-25.769,8.059
				c-8.258,7.922-3.386,17.336,0.269,25.98c-14.542-0.703-29.129-0.572-43.357-4.35c-7.563-2.006-13.038-6.716-17.402-12.597
				c13.941,2.321,21.671-17.366,21.252-29.702c-0.319-9.415-6.923-17.773-14.632-22.57c-8.394-5.223-18.681-3.802-27.147,0.389
				c-0.965-0.015-1.933,0.236-2.789,0.826c-0.659,0.453-1.154,0.957-1.59,1.518c-12.854-28.369-23.805-57.746-31.101-87.973
				c9.552-2.213,17.983,2.088,25.581,8.189c-4.971,4.703-8.33,10.572-7.503,17.752c0.803,6.963,5.547,12.991,10.95,17.13
				c9.631,7.377,27.286,11.017,31.31-4.181c0.056-0.213,0.097-0.418,0.127-0.619c8.146,4.426,17.193,4.547,26.199,2.475
				c20.002-4.602,36.435-24.253,58.017-22.08c12.14,1.223,23.068,8.688,34.738,12.203c0.396,16.154,18.996,31.678,34.973,27.39
				c9.032-2.425,13.873-11.136,15.158-19.89c1.062-7.229-0.09-16.691-5.255-22.408c1.3-1.332,2.625-2.633,4.021-3.85
				c8.742-7.615,18.768-6.836,29.6-7.965c10.064-1.049,18.385-5.438,23.848-13.993c4.434-6.946,5.565-15.577,13.213-19.923
				c0.884,2.127,0.961,4.893,1.124,6.883C412.129,298.245,411.838,303.361,411.49,308.4z"/>
		</g>
	</g>
	<g>
		<g>
			<path class="st11" d="M232.137,102.58c-0.004,0.035-0.004,0.051-0.007,0.082c-0.245,0.109-0.496,0.174-0.84,0.291
				c-1.645,0.557-3.699,0.471-5.403,0.311c-2.924-0.274-8.354-1.21-9.621-4.383c-2.385-5.965-11.841-2.699-9.439,3.307
				c2.896,7.244,10.85,10.301,18.125,10.983c6.183,0.579,16.345-0.71,17.002-8.683C242.477,98.135,232.666,96.158,232.137,102.58z"
				/>
		</g>
	</g>
	<g>
		<g>
			<path class="st11" d="M241.196,360.723c-14.889-1.524-29.876,7.309-28.521,23.734c0.202,2.443,0.885,4.898,1.651,7.217
				c0.425,1.283,1.179,2.148,2.082,2.666c6.845,23.328,52.405,26.855,53.594-2.131C270.692,375.402,257.41,362.385,241.196,360.723z
				 M225.532,386.635c0.085-2.301-1.141-3.668-2.757-4.189c0.136-7.549,6.417-11.857,15.315-11.945
				c11.615-0.115,21.083,8.342,21.941,19.848C261.522,410.3,224.852,405.102,225.532,386.635z"/>
		</g>
	</g>
	<g>
		<g>
			<path class="st11" d="M326.635,403.309c-8.363-1.467-17.483,0.162-23.918,5.912c-4.276,3.82-5.451,8.383-4.044,12.433
				c-0.567,0.826-0.838,1.911-0.618,3.25c2.129,12.97,12.313,24.021,23.898,29.634c5.353,2.596,11.436,3.688,17.208,1.975
				c6.595-1.959,10.081-8.446,11.569-14.678C354.888,424.426,344.44,406.434,326.635,403.309z M339.039,444.68
				c-3.418,5.91-12.569,1.193-16.526-1.238c-5.119-3.146-10.284-8.398-12.916-14.266c3.055-1.619,4.194-6.888,0.17-9.137
				c-2.489-1.391-2.191-1.579-0.355-3.484c1.67-1.732,4.554-2.915,6.872-3.369c5.378-1.055,11.156-0.078,15.923,2.52
				C341.644,420.85,344.159,435.829,339.039,444.68z"/>
		</g>
	</g>
</g>
</svg>
