<?xml version="1.0" encoding="utf-8"?>
<!-- Generator: Adobe Illustrator 16.0.3, SVG Export Plug-In . SVG Version: 6.00 Build 0)  -->
<!DOCTYPE svg PUBLIC "-//W3C//DTD SVG 1.1//EN" "http://www.w3.org/Graphics/SVG/1.1/DTD/svg11.dtd">
<svg version="1.1" id="Layer_1" xmlns="http://www.w3.org/2000/svg" xmlns:xlink="http://www.w3.org/1999/xlink" x="0px" y="0px"
	 width="512px" height="512px" viewBox="0 0 512 512" style="enable-background:new 0 0 512 512;" xml:space="preserve">
<style type="text/css">
<![CDATA[
	.st0{fill:#127274;}
	.st1{fill:#14B6B9;}
	.st2{fill:#1E4384;}
	.st3{fill:#EF4754;}
	.st4{fill:#EF4823;}
	.st5{fill:#BCBCBC;}
	.st6{fill:#F6851F;}
	.st7{fill:#C56528;}
	.st8{fill:#FCBF95;}
	.st9{fill:#FEBF10;}
	.st10{fill:none;}
	.st11{fill:#010101;}
	.st12{fill:#3AB37C;}
	.st13{fill:#D6E5E5;}
	.st14{fill:#71C598;}
	.st15{fill:#74CCCF;}
]]>
</style>
<g>
	<g>
		<g>
			<path class="st7" d="M453.691,402.01c-0.092-0.715-0.059-1.36,0.073-1.936c-4.151,2.972-9.046,5.084-13.624,6.964
				c-8.221,3.377-16.383,7.292-24.85,9.986c-14.33,4.559-29.217,7.466-43.918,10.538c-15.613,3.263-31.258,6.396-46.986,9.059
				c-31.465,5.322-63.324,9.239-95.292,8.831c-15.647-0.2-31.31-0.841-46.953-1.265c-15.505-0.42-31.052-1.043-46.445-3.053
				c-14.907-1.945-29.356-6.535-43.135-12.49c-6.785-2.934-13.155-6.072-19.15-10.426c-3.237-2.351-6.376-4.811-9.622-7.123
				c0.086,1.641,0.184,3.281,0.316,4.919c0.51,6.298,1.709,12.845,5.497,18.076c3.896,5.379,9.843,8.512,15.663,11.424
				c27.991,14.008,60.006,19.262,90.845,22.64c28.841,3.159,58.15,4.809,87.163,4.894c29.402,0.086,59.051-1.732,87.816-8.14
				c24.153-5.379,47.414-14.16,70.014-24.168C437.508,433.476,456.314,422.648,453.691,402.01z"/>
		</g>
	</g>
	<g>
		<g>
			<path class="st8" d="M454.547,188.565c-0.872-0.765-1.393-1.616-1.64-2.486c-6.656-3.731-16.153-4.702-22.427-6.327
				c-4.174-1.082-7.811-3.062-11.854-4.482c-2.453-0.861-4.947-1.701-7.502-2.216c-1.08-0.218-2.188-0.496-3.301-0.452
				c-0.235,0.01-0.393,0.02-0.518,0.028c-1.312,0.957-2.756,1.196-4.097,0.938c-0.271,6.424-0.431,12.904,0.354,19.058
				c1.328,10.42,7.256,29.127-3.389,36.553c-5.619,3.922-20.891,8.869-28.311,4.137c-1.852,0.233-3.801-0.438-5.107-2.471
				c-2.195-3.416-1.939-6.93-1.537-10.817c0.516-4.971,0.195-10.087-0.195-15.056c-0.732-9.276-1.193-18.67-2.636-27.869
				c-0.413-2.636-0.876-5.271-1.348-7.907c-0.851,0.948-2.104,1.583-3.777,1.605c-17.354,0.235-34.601-2.352-51.911-3.192
				c-15.281-0.742-31.416-4.621-46.594-1.26c-0.77,0.17-1.488,0.184-2.158,0.084c0.814,7.379,2.074,14.768,4.47,21.695
				c1.97,5.695,4.186,12.808-1.759,16.867c-6.209,4.239-23.398,9.51-28.484,1.261c-2.928,0.356-5.998-1.289-5.871-5.069
				c0.32-9.531-0.422-19.026-1.676-28.472c-0.334-2.512-0.74-5.034-1.166-7.562c-0.744,0.481-1.666,0.785-2.77,0.827
				c-12.947,0.503-25.914,0.949-38.842,1.828c-10.98,0.746-21.898,1.84-32.822,3.211c-5.1,0.641-10.26,1.005-15.342,1.771
				c-3.689,0.557-8.319,1.197-10.838,4.219c-1.549,1.858-3.492,2.195-5.201,1.617c2.469,15.874,6.461,31.688,9.207,47.146
				c0.574,3.233-1.181,7.237-5.072,7.097c-9.875-0.355-19.904-0.01-29.357-3.327c-1.961-0.688-3.856-2.188-4.17-4.345
				c-2.938,0.371-6.02-1.272-5.879-5.062c0.357-9.547,0.246-19.156-0.084-28.759c-0.553-0.444-0.203-0.29-1.674-0.132
				c-1.633,0.178-3.25,0.703-4.782,1.281c-4.011,1.516-7.802,3.61-11.377,5.971c-3.8,2.508-7.483,5.248-10.647,8.542
				c1.627,3.206,0.539,7.636-3.521,7.784c-0.474,5.982,7.21,14.629,10.374,17.723c8.291,8.109,18.858,13.247,29.883,16.545
				c25.135,7.518,51.064,11.196,77.206,12.66c32.268,1.806,64.93,4.152,97.253,3.008c15.561-0.552,30.961-2.633,46.438-4.223
				c15.322-1.574,30.705-3.059,45.889-5.695c26.786-4.651,54.086-13.033,75.982-29.815c6.496-4.979,12.188-11.044,16.748-17.851
				C451.107,203.605,459.239,192.678,454.547,188.565z M172.941,254.029c-15.318,7.475-29.451-0.31-38.82-12.987
				c-1.846-2.495-1.088-4.991,0.697-6.538c-1.201-5.262-2.082-11.065-0.398-16.105c2.256-6.75,6.6-10.289,12.961-13.096
				c14.227-6.277,30.162,3.436,35.471,17.185C187.468,234.449,185.309,247.996,172.941,254.029z M209.437,199.85
				c-1.634,7.776-9.528,12.12-17.003,12.458c-6.235,0.281-14.027-2.111-16-8.66c-1.768-0.705-3.207-2.248-3.43-4.655
				c-0.973-10.479,9.031-19.857,19.421-19.344C202.465,180.145,211.672,189.217,209.437,199.85z M318.799,215.283
				c-2.797,10.678-14.125,17.105-24.852,16.111c-12.475-1.155-21.642-9.357-22.285-22.232c-0.018-0.368,0-0.713,0.039-1.045
				c-1.191-15.06,11.503-26.452,26.455-23.458C311.074,187.246,322.33,201.805,318.799,215.283z"/>
		</g>
	</g>
	<g>
		<g>
			<path class="st4" d="M172.323,225.684c-3.813-8.902-14.292-14.521-23.135-9.232c-6.616,3.957-4.608,11.882-3.036,18.198
				c0.334,1.347,0.195,2.55-0.25,3.567c5.816,6.378,14.062,10.693,22.51,5.841C175.428,240.029,175.237,232.486,172.323,225.684z"/>
		</g>
	</g>
	<g>
		<g>
			<path class="st4" d="M400.95,323.852c-0.821,1.17-2.206,1.914-4.179,1.752c-0.646-0.054-1.25-0.103-1.838-0.198
				c-1.518,6.158-4.121,12.079-8.914,16.243c-7.662,6.659-19.727,10.951-29.754,7.733c-4.631-1.486-8.094-4.496-10.951-8.122
				c-11.991,5.57-25.514,5.112-38.477,4.569c-0.601-0.025-1.148-0.133-1.652-0.3c-0.07,3.756-0.265,7.493-0.879,11.17
				c18.107,0.458,36.312-0.797,54.108-4.206c14.784-2.831,29.001-7.471,43.571-11.111c11.311-2.825,22.723-5.666,33.578-9.978
				c6.649-2.642,18.328-6.947,19.818-14.871c0.312-1.66,1.158-2.772,2.243-3.42c0.007-0.855,0.024-1.711,0.026-2.566
				c0.002-0.398,0.005-0.798,0.007-1.197C440.496,319.3,420.428,321.244,400.95,323.852z"/>
		</g>
	</g>
	<g>
		<g>
			<path class="st7" d="M442.979,340.182c-11.534,4.996-23.747,8.213-35.914,11.257c-15.187,3.8-30.025,8.735-45.454,11.583
				c-20.058,3.7-40.305,5.362-60.697,4.577c-0.02-0.001-0.036-0.004-0.055-0.005c-1.852,3.713-4.289,7.161-6.803,10.425
				c-13.16,17.087-34.523,31.854-56.262,20.793c-10.379-5.282-16.385-14.845-20.609-25.257c-6.896,3.562-17.154,1.924-24.282,1.511
				c-14.288-0.827-28.755,0.848-43.103,0.164c-24.116-1.149-47.908-4.789-67.154-19.769c-3.773,6.062-8.703,11.523-15.76,13.436
				c-2.338,0.635-4.605,0.845-6.782,0.713c0.08,0.463,0.148,0.929,0.226,1.393c26.969,16.249,55.285,28.847,87.044,31.321
				c31.665,2.468,63.515,5.432,95.29,5.804c29.733,0.349,59.535-2.658,88.732-8.225c24.777-4.725,48.641-12.512,73.186-18.034
				c9.459-2.128,19.032-4.35,28.027-8.039c6.738-2.764,15.527-6.947,17.963-14.462c1.018-3.137,3.908-4.257,6.471-3.867
				c0.008-1.927,0.015-3.854,0.022-5.781c0.024-5.85,0.139-11.699,0.258-17.549C452.947,335.606,447.646,338.16,442.979,340.182z"/>
		</g>
	</g>
	<g>
		<g>
			<path class="st7" d="M189.978,317.572c-4.564-2.449-8.616-2.915-12.202-0.736c-3.959,2.406-7.319,6.699-10.047,10.912
				c-1.92,2.97-3.703,6.197-5.533,9.439c14.709,1.997,29.936,6.049,44.623,3.686C203.469,331.318,198.705,322.254,189.978,317.572z"
				/>
		</g>
	</g>
	<g>
		<g>
			<path class="st4" d="M212.058,358.385c-0.656-2.206-1.302-4.537-1.978-6.93c-17.93,3.256-36.291-2.111-54.22-4.032
				c-2.345,3.261-4.979,6.234-8.159,8.591c-11.281,8.358-23.236-1.41-29.9-10.771c-2.761-3.877-5.189-8.106-8.279-11.734
				c-1.703-2.001-4.574-5.962-7.657-5.549c-6.833,0.916-11.082,10.976-14.022,17.592c18.188,15.203,41.938,18.084,65.004,18.824
				c12.931,0.414,26.052-1.094,38.928-0.349c3.861,0.224,7.727,0.538,11.597,0.513c3.128-0.021,7.429,0.362,10.069-1.613
				C212.963,361.402,212.504,359.885,212.058,358.385z"/>
		</g>
	</g>
	<g>
		<g>
			<path class="st4" d="M434.717,384.787c-11.803,4.497-24.16,6.799-36.395,9.744c-12.666,3.05-25.039,7.299-37.733,10.324
				c-14.317,3.412-28.757,6.298-43.302,8.563c-28.998,4.519-58.553,6.938-87.899,5.235c-16.169-0.939-32.339-1.682-48.497-2.836
				c-15.704-1.121-31.723-1.586-47.303-3.902c-25.465-3.785-49.141-14.267-71.324-27.012c0.204,1.88,0.391,3.761,0.547,5.645
				c0.196,2.354,0.328,4.712,0.434,7.07c5.933,3.524,11.159,7.956,16.793,11.92c6.057,4.26,12.664,7.358,19.5,10.17
				c14.25,5.863,28.901,9.788,44.236,11.369c15.746,1.623,31.598,1.985,47.413,2.339c15.702,0.353,31.429,1.285,47.137,1.016
				c16.052-0.275,32.081-1.417,48.022-3.308c31.899-3.782,63.395-10.113,94.784-16.836c14.485-3.102,29.491-6.141,42.954-12.511
				c9.103-4.307,21.271-6.434,27.598-14.921c1.389-1.863,3.176-2.283,4.8-1.814c0.114-2.271,0.2-4.543,0.266-6.815
				c0.077-2.696,0.13-5.394,0.171-8.091C451.521,377.164,443.055,381.609,434.717,384.787z"/>
		</g>
	</g>
	<g>
		<g>
			<path class="st9" d="M192.808,190.645c-3.726,0.071-7.459,1.904-8.532,5.26c1.163,0.562,2.076,1.666,2.402,3.423
				c0.119,0.642,0.231,0.887,0.234,0.919c0.072,0.074,0.117,0.127,0.146,0.166c0.06,0.029,0.131,0.066,0.215,0.11
				c0.321,0.182,0.651,0.345,0.991,0.487c0.419,0.164,2.452,0.41,3.786,0.301c1.379-0.111,3.043-0.432,4.129-1.047
				c0.93-0.527,1.395-0.828,1.813-1.307c0.169-0.192,0.479-0.741,0.472-0.595C199.225,195.447,196.909,190.565,192.808,190.645z"/>
		</g>
	</g>
	<g>
		<g>
			<path class="st9" d="M252.014,196.045c-0.32-1.195-0.66-2.381-1.064-3.551c-4.848-14.018-5.836-29.295-6.807-44.021
				c-1.027-15.58-1.559-31.113,0.359-46.646c0.124-1.001-0.266-3.087,0.312-2.856c-0.781-0.49-2.973-1.029-4.045-1.235
				c-5.262-1.013-10.462-2.22-15.756-2.7c1.102,6.909,1.263,14.094,1.91,20.943c0.844,8.926,2.766,17.75,3.291,26.705
				c1.092,18.607,5.899,36.588,5.781,55.315c1.113,0.117,2.193,0.543,3.078,1.32c0.201,0.025,0.473,0.04,0.85,0.027
				c0.936-0.034,1.869-0.077,2.797-0.202c1.938-0.261,3.865-0.689,5.732-1.275c0.92-0.29,2.613-0.736,3.684-1.244
				C252.11,196.456,252.074,196.268,252.014,196.045z"/>
		</g>
	</g>
	<g>
		<g>
			<path class="st9" d="M112.971,92c-2.279-8.354-8.016-14.937-12.379-22.12c-2.951,4.454-6.605,8.638-8.701,13.579
				c-2.547,6.005-2.063,21.784,4.828,25.818l0.531-12.57c0.297-7.053,11.295-7.467,10.995-0.384l-0.627,14.858
				c1.121-1.326,2.032-3.486,2.771-5.112C112.348,101.757,114.234,96.626,112.971,92z"/>
		</g>
	</g>
	<g>
		<g>
			<path class="st9" d="M247.33,55.691c-3.986-6.302-9.629-11.51-14.078-17.421c-3.463,4.303-8.344,8.256-9.99,13.587
				c-3.002,9.723-1.959,19.745,6.289,24.847c-0.051-2.814-0.076-5.628,0.016-8.442c0.23-7.064,11.228-7.471,10.996-0.384
				c-0.095,2.911-0.064,5.821-0.01,8.731c2.512-1.707,5.029-3.395,7.061-5.592C251.699,66.593,250.309,60.398,247.33,55.691z"/>
		</g>
	</g>
	<g>
		<g>
			<path class="st4" d="M297.443,195.773c-8.744-2.186-15.48,2.901-14.744,12.006c0.035,0.438,0.027,0.848-0.021,1.232
				c0.403,6.107,4.52,11.008,10.886,11.387c4.912,0.293,12.516-1.232,14.137-6.294C309.979,206.99,304.749,197.598,297.443,195.773z
				"/>
		</g>
	</g>
	<g>
		<g>
			<path class="st9" d="M113.617,221.691c-6.043-30.902-15.023-62.862-7.889-94.037c-5.604-0.656-10.998-1.425-16.149-3.266
				c-0.006,4.545-0.427,9.107-0.364,13.753c0.117,8.661,0.907,17.351,1.404,25.999c0.971,16.846,1.9,33.9,1.531,50.805
				c2.944-0.381,6.03,1.26,5.87,5.057l-0.005,0.096C103.141,221.279,108.355,221.545,113.617,221.691z"/>
		</g>
	</g>
	<g>
		<g>
			<path class="st7" d="M454.658,259.689c-3.465-0.728-4.156,4.104-4.684,6.799c-1.541,7.881-1.045,16.382-4.416,23.823
				c-4.013,8.857-12.285,10.479-21.142,9.349c-4.519-0.576-8.802-2.033-13.111-3.448c-3.12-1.024-6.792-2.636-10.146-2.367
				c-3.209,0.256-3.08,5.426-3.319,7.874c-0.37,3.807-0.632,7.625-0.995,11.432c3.078-0.674,6.529-0.666,9.364-1.029
				c5.853-0.75,11.731-1.454,17.528-2.568c10.057-1.932,19.75-4.733,28.551-9.823c0.514-2.048,2.137-3.691,4.932-3.573l0.557,0.023
				c0.176-11.762,0.601-23.508,1.714-35.227C457.902,260.518,456.307,260.035,454.658,259.689z"/>
		</g>
	</g>
	<g>
		<g>
			<path class="st7" d="M338.049,329.504c-3.561-6.409-9.865-18.835-19.24-16.492c-9.518,2.378-12.444,12.642-13.277,21.856
				c0.294-0.032,0.598-0.05,0.924-0.036c10.662,0.447,22.887,1.533,32.949-2.885C338.947,331.127,338.498,330.309,338.049,329.504z"
				/>
		</g>
	</g>
	<g>
		<g>
			<path class="st9" d="M393.619,200.119c-0.904-5.886-1.205-11.469-1.184-17.446c0.029-8.78,0.201-17.56,0.283-26.339
				c0.064-6.927,0.735-14.293,0.033-21.204c-2.6-0.062-5.199-0.032-7.796-0.212c-5.816-0.403-11.577-1.163-17.326-2.059
				c-0.654,14.135,3.335,28.432,5.503,42.248c1.336,8.522,1.849,17.124,2.579,25.713c0.372,4.375,0.755,8.774,0.722,13.168
				c-0.012,1.652-0.723,5-0.826,7.707c1.006,0.381,1.915,1.167,2.561,2.473c-0.521-1.053,0.902-0.232,2.398-0.316
				c2.447-0.139,4.839-0.486,7.199-1.17c3.92-1.134,6.775-1.631,7.211-5.847C395.542,211.354,394.449,205.521,393.619,200.119z"/>
		</g>
	</g>
	<g>
		<g>
			<path class="st8" d="M469.486,217.512c-0.232-2.359-1.16-15.562-3.257-21.552c-1.095,4.962-3.64,9.898-6.065,13.741
				c-6.021,9.537-13.352,17.961-22.435,24.692c-29.092,21.556-64.643,29.751-99.916,34.12c-30.915,3.83-62.132,7.832-93.321,7.42
				c-16.281-0.215-32.539-1.111-48.803-1.846c-15.936-0.719-31.899-1.211-47.785-2.729c-15.539-1.485-30.598-4.166-45.809-7.601
				c-12.854-2.901-26.18-6.38-37.503-13.372c-9.179-5.67-18.001-13.394-22.843-23.252c-0.14-0.285-0.278-0.572-0.415-0.861
				c-1.128,4.387-1.638,8.943-1.704,13.526c-0.191,13.224,1.977,26.251,3.4,39.356c0.771,7.107,0.912,13.843,0.373,20.979
				c-0.555,7.343-1.283,14.764-0.914,22.135c0.52,10.358,2.998,21.859,9.239,30.418c2.313,3.173,5.699,6.585,9.986,6.101
				c4.261-0.48,7.653-3.426,10.108-6.758c5.76-7.811,8.246-17.535,14.213-25.259c5.299-6.858,14.605-12.925,23.214-8.013
				c8.126,4.635,12.579,13.417,17.92,20.722c1.814,2.481,4.206,5.265,6.676,6.928c0.556,0.373,2.854,1.604,2.316,1.427
				c1.259,0.415,1.846,0.467,1.938,0.465c1.332-0.036,1.934-0.155,3.838-1.658c-0.522,0.412,1.308-1.277,1.682-1.691
				c0.801-0.886,1.57-1.799,2.286-2.757c2.915-3.9,5.96-9.521,8.733-14.171c5.887-9.873,13.121-21.504,25.467-23.403
				c14.974-2.305,27.713,11.772,33.291,24.02c1.576,3.464,2.887,7.05,4.077,10.69c2.929,1.279,4.177,5.396,2.495,8.162
				c2.885,9.929,5.561,19.946,10.601,28.876c3.541,6.274,8.497,11.987,15.677,14.045c11.098,3.182,20.891-0.9,29.248-8.47
				c8.936-8.092,17.908-18.548,18.541-31.127c0.678-13.442-0.491-27.118,7.852-38.654c5.438-7.517,15.199-12.51,24.52-9.42
				c10.277,3.407,16.005,11.902,21.012,21c3.912,7.107,8.026,16.938,17.771,15.561c10.566-1.492,17.286-7.633,19.439-17.998
				c2-9.627,0.585-20.512,4.127-29.696c3.201-8.301,11.523-9.911,19.39-7.827c4.306,1.143,8.454,2.805,12.759,3.95
				c3.424,0.911,8.148,2.39,11.637,1.124c5.684-2.061,5.193-13.434,5.74-18.214c0.92-8.022,2.911-19.929,12.395-21.878
				c4.864-1,8.902,1.461,13.559,2.168c3.969,0.604,5.857-2.905,6.607-6.295C472.881,235.433,470.381,226.63,469.486,217.512z"/>
		</g>
	</g>
	<g>
		<g>
			<path class="st9" d="M372.479,66.947c-0.875,1.943-1.902,3.834-3.01,5.674c-3.182,5.281-8.348,11.595-8.594,18.043
				c-0.246,6.416,3.855,11.205,7.971,15.819c1.471,1.648,3.209,3.769,5.137,5.683c-0.036-7.273-1.395-14.568-1.219-21.846
				c0.172-7.072,11.168-7.474,10.996-0.384c-0.238,9.849,1.677,19.466,0.75,29.303c0.42,0.714,0.66,1.517,0.721,2.342
				C401.1,107.848,384.74,83.843,372.479,66.947z"/>
		</g>
	</g>
	<g>
		<g>
			<path class="st11" d="M479.476,207.597c-1.175-9.562-3.274-23.666-13.644-25.267c-7.59-8.762-22.412-10.684-32.799-13.278
				c-8.09-2.021-20.525-10.425-29.396-6.915c0.004-0.183,0.009-0.366,0.012-0.548c0.074-5.669,0.124-11.337,0.114-17.006
				c-0.007-4.173,0.374-8.538-0.396-12.663c-0.701-3.762-2.965-5.858-5.945-6.912c16.683-21.633-9.954-54.62-22.947-74.15
				c-2.957-4.444-10.504-2.619-10.184,3.072c0.414,7.369-4.687,13.659-8.289,19.668c-4.088,6.819-7.051,14.414-5.839,22.477
				c1.062,7.064,6.562,13.143,11.078,18.359c2.116,2.444,4.538,5.101,7.226,7.415c-1.488-0.215-2.979-0.442-4.477-0.693
				c-2.715-0.456-6.213,0.955-6.626,4.073c-1.567,11.838,0.046,23.503,2.089,35.129c-0.727-0.359-1.581-0.567-2.572-0.555
				c-17.85,0.243-35.615-2.399-53.423-3.265c-15.972-0.776-31.911-4.227-47.796-0.736c-0.744-9.907-1.371-19.835-1.512-29.769
				c-0.127-9.121,1.271-18.031,1.541-27.09c0.178-5.961-3.99-9.113-9.078-10.942c-0.749-0.271-1.533-0.511-2.312-0.757
				c3.891-3.224,8.464-5.592,11.938-9.353c4.934-5.343,5.811-12.985,4.098-19.815c-3.418-13.615-17.982-20.84-22.287-33.666
				c-0.146-0.974-0.408-1.96-0.785-2.959c-0.01-0.051-0.023-0.1-0.033-0.15l-0.018,0.008c-0.166-0.428-0.35-0.857-0.561-1.291
				c-2.965-6.066-11-1.157-9.949,4.479c0.182,0.968,0.426,1.897,0.699,2.807c-0.832,4.17-9.131,11.628-10.846,14.015
				c-3.984,5.539-5.182,11.853-5.639,18.518c-0.703,10.246,2.922,18.42,9.867,23.963c-0.952,0.011-1.902,0.027-2.826,0.078
				c-3.557,0.199-6.092,3.635-5.071,7.097c2.521,8.55,2.373,18.325,3.21,27.19c0.846,8.946,2.701,17.748,3.229,26.733
				c0.199,3.399,0.621,6.808,1.135,10.216c-0.462-0.101-0.959-0.152-1.499-0.131c-13.401,0.521-26.825,0.97-40.204,1.922
				c-12.424,0.885-24.748,2.288-37.107,3.822c-8.622,1.071-19.966,0.883-26.742,7.246c-1.521-14.662-1.225-29.318,3.083-43.741
				c0.647-2.171-0.591-5.021-2.649-6.154c4.297-5.106,7.348-12.535,8.469-17.934c1.701-8.184-1.301-15.963-5.512-22.902
				c-4.826-7.954-12.312-15.153-12.194-25.048c0.069-7.095-10.911-6.696-10.995,0.383c-0.066,6.788-4.061,12.025-7.842,17.33
				c-3.928,5.51-7.197,11.43-7.684,18.313c-0.463,6.559,0.484,14.368,3.504,20.772c-3.354-0.064-6.344,3.964-5.389,7.303
				c2.209,7.721,0.436,16.047,0.543,23.949c0.117,8.707,0.988,17.468,1.49,26.16c0.259,4.505,0.512,9.026,0.735,13.556
				c-7.956-0.392-17.669,5.669-23.116,9.163c-6.511,4.174-16.09,10.852-19.115,19.026c-0.875,0.431-1.668,1.145-2.276,2.202
				c-13.095,22.737-5.505,50.658-3.336,75.125c1.312,14.803-2.382,29.531-0.5,44.396c1.263,9.982,4.554,20.22,10.235,28.577
				c1.657,2.438,3.59,4.566,5.736,6.305c0.02,0.171,0.043,0.342,0.078,0.518c3.203,15.962,4.27,32.052,4.779,48.291
				c0.352,11.166,3.1,21.79,10.516,30.353c7.795,9,21.369,13.993,32.199,18.094c12.824,4.855,26.078,8.329,39.506,11.053
				c27.197,5.514,54.95,7.583,82.6,9.322c29.357,1.848,58.838,2.474,88.188,0.149c19.74-1.564,39.393-4.666,58.588-9.542
				c17.229-4.378,33.508-11.051,49.961-17.642c22.827-9.145,52.753-22.938,50.346-51.912c2.691-4.876,2.289-12.865,2.547-17.363
				c0.611-10.634,0.613-21.305,0.645-31.953c0.036-12.141,0.514-24.269,0.574-36.411c0.096-18.854-0.109-37.787,1.808-56.567
				c9.065-3.217,11.678-13.51,12.171-22.337C483.177,228.487,480.73,217.814,479.476,207.597z M360.875,90.664
				c0.246-6.448,5.412-12.762,8.594-18.043c1.107-1.84,2.135-3.73,3.01-5.674c12.262,16.896,28.621,40.9,12.752,54.634
				c-0.061-0.825-0.301-1.628-0.721-2.342c0.927-9.837-0.988-19.454-0.75-29.303c0.172-7.09-10.824-6.688-10.996,0.384
				c-0.176,7.277,1.183,14.572,1.219,21.846c-1.928-1.914-3.666-4.034-5.137-5.683C364.73,101.869,360.629,97.08,360.875,90.664z
				 M367.63,132.859c5.749,0.896,11.51,1.655,17.326,2.059c2.597,0.18,5.196,0.15,7.796,0.212
				c0.702,6.911,0.031,14.277-0.033,21.204c-0.082,8.779-0.254,17.559-0.283,26.339c-0.021,5.978,0.279,11.561,1.184,17.446
				c0.83,5.402,1.923,11.234,1.357,16.716c-0.436,4.216-3.291,4.713-7.211,5.847c-2.36,0.684-4.752,1.031-7.199,1.17
				c-1.496,0.084-2.919-0.736-2.398,0.316c-0.646-1.306-1.555-2.092-2.561-2.473c0.104-2.707,0.814-6.055,0.826-7.707
				c0.033-4.394-0.35-8.793-0.722-13.168c-0.73-8.589-1.243-17.19-2.579-25.713C370.965,161.291,366.976,146.994,367.63,132.859z
				 M244.814,98.971c-0.578-0.23-0.188,1.855-0.312,2.856c-1.918,15.532-1.387,31.065-0.359,46.646
				c0.971,14.727,1.959,30.004,6.807,44.021c0.404,1.17,0.744,2.355,1.064,3.551c0.061,0.223,0.097,0.411,0.123,0.58
				c-1.07,0.508-2.764,0.954-3.684,1.244c-1.867,0.586-3.795,1.015-5.732,1.275c-0.928,0.125-1.861,0.168-2.797,0.202
				c-0.377,0.013-0.648-0.002-0.85-0.027c-0.885-0.777-1.965-1.203-3.078-1.32c0.118-18.728-4.689-36.708-5.781-55.315
				c-0.525-8.955-2.447-17.779-3.291-26.705c-0.647-6.85-0.809-14.034-1.91-20.943c5.294,0.48,10.494,1.688,15.756,2.7
				C241.842,97.941,244.033,98.48,244.814,98.971z M223.262,51.857c1.646-5.331,6.527-9.284,9.99-13.587
				c4.449,5.911,10.092,11.119,14.078,17.421c2.979,4.707,4.369,10.901,0.283,15.326c-2.031,2.197-4.549,3.885-7.061,5.592
				c-0.055-2.91-0.085-5.82,0.01-8.731c0.231-7.087-10.766-6.681-10.996,0.384c-0.092,2.814-0.066,5.628-0.016,8.442
				C221.303,71.603,220.26,61.58,223.262,51.857z M91.891,83.459c2.096-4.941,5.75-9.125,8.701-13.579
				c4.363,7.184,10.1,13.767,12.379,22.12c1.264,4.626-0.623,9.757-2.582,14.069c-0.738,1.626-1.649,3.786-2.771,5.112l0.627-14.858
				c0.3-7.083-10.698-6.669-10.995,0.384l-0.531,12.57C89.827,105.243,89.344,89.464,91.891,83.459z M89.579,124.389
				c5.151,1.841,10.546,2.609,16.149,3.266c-7.135,31.175,1.846,63.135,7.889,94.037c-5.262-0.146-10.477-0.412-15.602-1.594
				l0.005-0.096c0.16-3.797-2.926-5.438-5.87-5.057c0.369-16.904-0.561-33.959-1.531-50.805c-0.497-8.648-1.287-17.338-1.404-25.999
				C89.152,133.496,89.573,128.934,89.579,124.389z M52.465,207.036c3.164-3.294,6.848-6.034,10.647-8.542
				c3.575-2.36,7.366-4.455,11.377-5.971c1.532-0.578,3.149-1.104,4.782-1.281c1.471-0.158,1.121-0.312,1.674,0.132
				c0.33,9.603,0.441,19.212,0.084,28.759c-0.141,3.79,2.941,5.434,5.879,5.062c0.313,2.157,2.209,3.656,4.17,4.345
				c9.453,3.317,19.482,2.972,29.357,3.327c3.892,0.141,5.646-3.863,5.072-7.097c-2.746-15.458-6.738-31.271-9.207-47.146
				c1.709,0.578,3.652,0.241,5.201-1.617c2.519-3.021,7.148-3.662,10.838-4.219c5.082-0.767,10.242-1.131,15.342-1.771
				c10.924-1.371,21.842-2.465,32.822-3.211c12.928-0.879,25.895-1.325,38.842-1.828c1.104-0.042,2.025-0.346,2.77-0.827
				c0.426,2.528,0.832,5.051,1.166,7.562c1.254,9.445,1.996,18.94,1.676,28.472c-0.127,3.78,2.943,5.426,5.871,5.069
				c5.086,8.249,22.275,2.979,28.484-1.261c5.944-4.06,3.729-11.172,1.759-16.867c-2.396-6.928-3.655-14.316-4.47-21.695
				c0.67,0.1,1.389,0.086,2.158-0.084c15.178-3.361,31.312,0.518,46.594,1.26c17.311,0.841,34.557,3.428,51.911,3.192
				c1.674-0.022,2.927-0.657,3.777-1.605c0.472,2.636,0.935,5.271,1.348,7.907c1.442,9.199,1.903,18.593,2.636,27.869
				c0.391,4.969,0.711,10.085,0.195,15.056c-0.402,3.888-0.658,7.401,1.537,10.817c1.307,2.033,3.256,2.704,5.107,2.471
				c7.42,4.732,22.691-0.215,28.311-4.137c10.645-7.426,4.717-26.133,3.389-36.553c-0.785-6.153-0.625-12.634-0.354-19.058
				c1.341,0.259,2.784,0.02,4.097-0.938c0.125-0.009,0.282-0.019,0.518-0.028c1.113-0.044,2.221,0.234,3.301,0.452
				c2.555,0.515,5.049,1.354,7.502,2.216c4.043,1.42,7.68,3.4,11.854,4.482c6.273,1.625,15.771,2.596,22.427,6.327
				c0.247,0.87,0.768,1.722,1.64,2.486c4.692,4.112-3.439,15.04-5.83,18.606c-4.561,6.807-10.252,12.871-16.748,17.851
				c-21.896,16.782-49.196,25.164-75.982,29.815c-15.184,2.637-30.566,4.121-45.889,5.695c-15.477,1.59-30.877,3.671-46.438,4.223
				c-32.323,1.145-64.985-1.202-97.253-3.008c-26.142-1.464-52.071-5.143-77.206-12.66c-11.024-3.298-21.592-8.436-29.883-16.545
				c-3.164-3.094-10.848-11.74-10.374-17.723C53.004,214.672,54.092,210.242,52.465,207.036z M421.104,440.74
				c-22.6,10.008-45.86,18.789-70.014,24.168c-28.766,6.407-58.414,8.226-87.816,8.14c-29.013-0.085-58.322-1.734-87.163-4.894
				c-30.839-3.378-62.854-8.632-90.845-22.64c-5.82-2.912-11.768-6.045-15.663-11.424c-3.788-5.231-4.987-11.778-5.497-18.076
				c-0.133-1.638-0.23-3.278-0.316-4.919c3.246,2.312,6.385,4.772,9.622,7.123c5.995,4.354,12.365,7.492,19.15,10.426
				c13.778,5.955,28.228,10.545,43.135,12.49c15.394,2.01,30.94,2.633,46.445,3.053c15.644,0.424,31.306,1.064,46.953,1.265
				c31.968,0.408,63.827-3.509,95.292-8.831c15.729-2.662,31.373-5.796,46.986-9.059c14.701-3.072,29.588-5.979,43.918-10.538
				c8.467-2.694,16.629-6.609,24.85-9.986c4.578-1.88,9.473-3.992,13.624-6.964c-0.132,0.575-0.165,1.221-0.073,1.936
				C456.314,422.648,437.508,433.476,421.104,440.74z M456.747,378.228c-0.065,2.272-0.151,4.545-0.266,6.815
				c-1.624-0.469-3.411-0.049-4.8,1.814c-6.327,8.487-18.495,10.614-27.598,14.921c-13.463,6.37-28.469,9.409-42.954,12.511
				c-31.39,6.723-62.885,13.054-94.784,16.836c-15.941,1.891-31.971,3.032-48.022,3.308c-15.708,0.27-31.435-0.663-47.137-1.016
				c-15.815-0.354-31.667-0.716-47.413-2.339c-15.335-1.581-29.986-5.506-44.236-11.369c-6.836-2.812-13.443-5.91-19.5-10.17
				c-5.634-3.964-10.86-8.396-16.793-11.92c-0.105-2.358-0.237-4.716-0.434-7.07c-0.156-1.884-0.343-3.765-0.547-5.645
				c22.184,12.745,45.859,23.227,71.324,27.012c15.58,2.316,31.599,2.781,47.303,3.902c16.158,1.154,32.328,1.896,48.497,2.836
				c29.347,1.703,58.901-0.717,87.899-5.235c14.545-2.266,28.984-5.151,43.302-8.563c12.694-3.025,25.067-7.274,37.733-10.324
				c12.234-2.945,24.592-5.247,36.395-9.744c8.338-3.178,16.805-7.623,22.201-14.65
				C456.877,372.834,456.824,375.531,456.747,378.228z M457.065,349.719c-0.008,1.928-0.015,3.854-0.022,5.781
				c-2.562-0.39-5.453,0.73-6.471,3.867c-2.436,7.515-11.225,11.698-17.963,14.462c-8.995,3.689-18.568,5.911-28.027,8.039
				c-24.545,5.522-48.408,13.31-73.186,18.034c-29.197,5.566-58.999,8.573-88.732,8.225c-31.775-0.372-63.625-3.336-95.29-5.804
				c-31.759-2.475-60.075-15.072-87.044-31.321c-0.077-0.464-0.146-0.93-0.226-1.393c2.177,0.132,4.444-0.078,6.782-0.713
				c7.057-1.912,11.986-7.374,15.76-13.436c19.246,14.979,43.038,18.619,67.154,19.769c14.348,0.684,28.814-0.991,43.103-0.164
				c7.128,0.413,17.387,2.052,24.282-1.511c4.225,10.412,10.23,19.975,20.609,25.257c21.738,11.061,43.102-3.706,56.262-20.793
				c2.514-3.264,4.951-6.712,6.803-10.425c0.019,0.001,0.035,0.004,0.055,0.005c20.393,0.785,40.64-0.877,60.697-4.577
				c15.429-2.848,30.268-7.783,45.454-11.583c12.167-3.044,24.38-6.261,35.914-11.257c4.667-2.021,9.968-4.575,14.344-8.012
				C457.204,338.02,457.09,343.869,457.065,349.719z M210.08,351.455c0.676,2.393,1.321,4.724,1.978,6.93
				c0.446,1.5,0.905,3.018,1.382,4.541c-2.641,1.976-6.941,1.593-10.069,1.613c-3.87,0.025-7.735-0.289-11.597-0.513
				c-12.876-0.745-25.997,0.763-38.928,0.349c-23.066-0.74-46.816-3.621-65.004-18.824c2.94-6.616,7.189-16.676,14.022-17.592
				c3.083-0.413,5.954,3.548,7.657,5.549c3.09,3.628,5.519,7.857,8.279,11.734c6.664,9.361,18.619,19.13,29.9,10.771
				c3.18-2.356,5.814-5.33,8.159-8.591C173.789,349.344,192.15,354.711,210.08,351.455z M162.195,337.188
				c1.83-3.242,3.613-6.47,5.533-9.439c2.728-4.213,6.088-8.506,10.047-10.912c3.586-2.179,7.638-1.713,12.202,0.736
				c8.728,4.682,13.491,13.746,16.841,23.301C192.131,343.236,176.904,339.185,162.195,337.188z M457.652,310.547
				c-0.002,0.855-0.02,1.711-0.026,2.566c-1.085,0.647-1.931,1.76-2.243,3.42c-1.49,7.924-13.169,12.229-19.818,14.871
				c-10.855,4.312-22.268,7.152-33.578,9.978c-14.57,3.641-28.787,8.28-43.571,11.111c-17.796,3.409-36.001,4.664-54.108,4.206
				c0.614-3.677,0.809-7.414,0.879-11.17c0.504,0.167,1.052,0.274,1.652,0.3c12.963,0.543,26.485,1.001,38.477-4.569
				c2.857,3.626,6.32,6.636,10.951,8.122c10.027,3.218,22.092-1.074,29.754-7.733c4.793-4.164,7.396-10.085,8.914-16.243
				c0.588,0.096,1.191,0.145,1.838,0.198c1.973,0.162,3.357-0.582,4.179-1.752c19.478-2.607,39.546-4.552,56.709-14.502
				C457.657,309.749,457.654,310.148,457.652,310.547z M305.531,334.868c0.833-9.215,3.76-19.479,13.277-21.856
				c9.375-2.343,15.68,10.083,19.24,16.492c0.449,0.805,0.898,1.623,1.355,2.443c-10.062,4.418-22.287,3.332-32.949,2.885
				C306.129,334.818,305.825,334.836,305.531,334.868z M457.777,296.18l-0.557-0.023c-2.795-0.118-4.418,1.525-4.932,3.573
				c-8.801,5.09-18.494,7.892-28.551,9.823c-5.797,1.114-11.676,1.818-17.528,2.568c-2.835,0.363-6.286,0.355-9.364,1.029
				c0.363-3.807,0.625-7.625,0.995-11.432c0.239-2.448,0.11-7.618,3.319-7.874c3.354-0.269,7.025,1.343,10.146,2.367
				c4.31,1.415,8.593,2.872,13.111,3.448c8.856,1.131,17.129-0.491,21.142-9.349c3.371-7.441,2.875-15.942,4.416-23.823
				c0.527-2.695,1.219-7.526,4.684-6.799c1.648,0.346,3.244,0.828,4.833,1.264C458.378,272.672,457.953,284.418,457.777,296.18z
				 M470.844,244.637c-0.75,3.39-2.639,6.898-6.607,6.295c-4.656-0.707-8.694-3.168-13.559-2.168
				c-9.483,1.949-11.475,13.855-12.395,21.878c-0.547,4.78-0.057,16.153-5.74,18.214c-3.488,1.266-8.213-0.213-11.637-1.124
				c-4.305-1.146-8.453-2.808-12.759-3.95c-7.866-2.084-16.188-0.474-19.39,7.827c-3.542,9.185-2.127,20.069-4.127,29.696
				c-2.153,10.365-8.873,16.506-19.439,17.998c-9.745,1.377-13.859-8.453-17.771-15.561c-5.007-9.098-10.734-17.593-21.012-21
				c-9.32-3.09-19.082,1.903-24.52,9.42c-8.343,11.536-7.174,25.212-7.852,38.654c-0.633,12.579-9.605,23.035-18.541,31.127
				c-8.357,7.569-18.15,11.651-29.248,8.47c-7.18-2.058-12.136-7.771-15.677-14.045c-5.04-8.93-7.716-18.947-10.601-28.876
				c1.682-2.766,0.434-6.883-2.495-8.162c-1.19-3.641-2.501-7.227-4.077-10.69c-5.578-12.247-18.317-26.324-33.291-24.02
				c-12.346,1.899-19.58,13.53-25.467,23.403c-2.773,4.65-5.818,10.271-8.733,14.171c-0.716,0.958-1.485,1.871-2.286,2.757
				c-0.374,0.414-2.204,2.104-1.682,1.691c-1.904,1.503-2.506,1.622-3.838,1.658c-0.093,0.002-0.68-0.05-1.938-0.465
				c0.538,0.178-1.761-1.054-2.316-1.427c-2.47-1.663-4.861-4.446-6.676-6.928c-5.341-7.305-9.794-16.087-17.92-20.722
				c-8.608-4.912-17.915,1.154-23.214,8.013c-5.967,7.724-8.453,17.448-14.213,25.259c-2.455,3.332-5.848,6.277-10.108,6.758
				c-4.287,0.484-7.673-2.928-9.986-6.101c-6.241-8.559-8.72-20.06-9.239-30.418c-0.369-7.371,0.359-14.792,0.914-22.135
				c0.539-7.137,0.398-13.872-0.373-20.979c-1.424-13.105-3.592-26.133-3.4-39.356c0.066-4.583,0.576-9.14,1.704-13.526
				c0.137,0.289,0.275,0.576,0.415,0.861c4.842,9.858,13.664,17.582,22.843,23.252c11.323,6.992,24.649,10.471,37.503,13.372
				c15.211,3.435,30.27,6.115,45.809,7.601c15.886,1.518,31.85,2.01,47.785,2.729c16.264,0.734,32.521,1.631,48.803,1.846
				c31.189,0.412,62.406-3.59,93.321-7.42c35.273-4.369,70.824-12.564,99.916-34.12c9.083-6.731,16.413-15.155,22.435-24.692
				c2.426-3.843,4.971-8.779,6.065-13.741c2.097,5.989,3.024,19.192,3.257,21.552C470.381,226.63,472.881,235.433,470.844,244.637z"
				/>
		</g>
	</g>
	<g>
		<g>
			<path class="st11" d="M298.156,184.659c-14.952-2.994-27.646,8.398-26.455,23.458c-0.039,0.332-0.057,0.677-0.039,1.045
				c0.644,12.875,9.811,21.077,22.285,22.232c10.727,0.994,22.055-5.434,24.852-16.111
				C322.33,201.805,311.074,187.246,298.156,184.659z M307.701,214.104c-1.621,5.062-9.225,6.587-14.137,6.294
				c-6.366-0.379-10.482-5.279-10.886-11.387c0.048-0.385,0.056-0.795,0.021-1.232c-0.736-9.104,6-14.191,14.744-12.006
				C304.749,197.598,309.979,206.99,307.701,214.104z"/>
		</g>
	</g>
	<g>
		<g>
			<path class="st11" d="M192.425,179.648c-10.39-0.514-20.394,8.864-19.421,19.344c0.223,2.407,1.662,3.95,3.43,4.655
				c1.973,6.549,9.765,8.941,16,8.66c7.475-0.338,15.369-4.682,17.003-12.458C211.672,189.217,202.465,180.145,192.425,179.648z
				 M198.465,198.362c0.007-0.146-0.303,0.402-0.472,0.595c-0.419,0.479-0.884,0.779-1.813,1.307
				c-1.086,0.615-2.75,0.936-4.129,1.047c-1.334,0.109-3.367-0.137-3.786-0.301c-0.34-0.143-0.67-0.306-0.991-0.487
				c-0.084-0.044-0.155-0.081-0.215-0.11c-0.029-0.039-0.074-0.092-0.146-0.166c-0.003-0.032-0.115-0.277-0.234-0.919
				c-0.326-1.757-1.239-2.861-2.402-3.423c1.073-3.355,4.807-5.188,8.532-5.26C196.909,190.565,199.225,195.447,198.465,198.362z"/>
		</g>
	</g>
	<g>
		<g>
			<path class="st11" d="M182.852,222.487c-5.309-13.749-21.244-23.462-35.471-17.185c-6.361,2.807-10.705,6.346-12.961,13.096
				c-1.684,5.04-0.803,10.844,0.398,16.105c-1.785,1.547-2.543,4.043-0.697,6.538c9.369,12.678,23.502,20.462,38.82,12.987
				C185.309,247.996,187.468,234.449,182.852,222.487z M168.412,244.058c-8.447,4.853-16.693,0.537-22.51-5.841
				c0.445-1.018,0.584-2.221,0.25-3.567c-1.572-6.316-3.58-14.241,3.036-18.198c8.843-5.288,19.321,0.33,23.135,9.232
				C175.237,232.486,175.428,240.029,168.412,244.058z"/>
		</g>
	</g>
</g>
</svg>
