<?xml version="1.0" encoding="utf-8"?>
<!-- Generator: Adobe Illustrator 16.0.3, SVG Export Plug-In . SVG Version: 6.00 Build 0)  -->
<!DOCTYPE svg PUBLIC "-//W3C//DTD SVG 1.1//EN" "http://www.w3.org/Graphics/SVG/1.1/DTD/svg11.dtd">
<svg version="1.1" id="Layer_1" xmlns="http://www.w3.org/2000/svg" xmlns:xlink="http://www.w3.org/1999/xlink" x="0px" y="0px"
	 width="512px" height="512px" viewBox="0 0 512 512" style="enable-background:new 0 0 512 512;" xml:space="preserve">
<style type="text/css">
<![CDATA[
	.st0{fill:#127274;}
	.st1{fill:#14B6B9;}
	.st2{fill:#1E4384;}
	.st3{fill:#EF4754;}
	.st4{fill:#EF4823;}
	.st5{fill:#BCBCBC;}
	.st6{fill:#F6851F;}
	.st7{fill:#C56528;}
	.st8{fill:#FCBF95;}
	.st9{fill:#FEBF10;}
	.st10{fill:none;}
	.st11{fill:#010101;}
	.st12{fill:#3AB37C;}
	.st13{fill:#D6E5E5;}
	.st14{fill:#71C598;}
	.st15{fill:#74CCCF;}
]]>
</style>
<g>
	<g>
		<g>
			<path class="st9" d="M302.842,84.676c0.491-6.18,2.119-17.638-3.908-21.887c-5.958-4.199-17.856-1.191-23.954,1.418
				c-2.373,1.016-4.411,2.312-6.171,3.825c-0.374,0.61-0.839,1.214-1.434,1.825c-0.445,0.457-0.919,0.811-1.407,1.078
				c-5.913,7.213-7.451,17.587-7.603,27.197c-0.129,8.143,0.395,16.266,0.834,24.393c0.554,10.25,0.236,20.346,0.028,30.605
				c-0.587,28.887,0.209,57.788-0.999,86.664c-0.037,0.874-0.239,1.652-0.565,2.334c5.434,0.003,10.857,0.175,16.25,0.852
				c0.613,0.077,1.243,0.168,1.883,0.264c0.457-27.837,7.357-54.74,13.03-81.854c3.062-14.633,5.263-29.205,6.68-44.081
				c0.8-8.401,1.997-17.267,5.708-24.952c0.699-1.447,1.512-2.859,2.427-4.202C303.054,87.195,302.734,86.027,302.842,84.676z"/>
		</g>
	</g>
	<g>
		<g>
			<path class="st9" d="M259.275,62.378c-0.011-0.198-0.018-0.419-0.018-0.677v-9.676c-4.436-0.215-8.868-0.535-13.311-0.557
				c-3.522-0.018-12.217-0.821-14.57,1.891c-1.691,1.947-3.861,2.223-5.715,1.531c1.296,20.401,5.132,40.604,5.523,61.077
				c5.468-0.62,10.996-1.001,16.426-1.157c-0.616-10.641-0.875-21.299,1.225-31.668C250.536,74.75,254.121,67.748,259.275,62.378z"
				/>
		</g>
	</g>
	<g>
		<g>
			<path class="st9" d="M248.754,137.586c-0.039-3.906-0.231-7.846-0.465-11.801c-7.749,0.228-15.694,0.905-23.373,2.111
				c-2.385,37.842,0.203,75.754,0.308,113.627c1.575,0.164,3.149,0.301,4.715,0.414c5.808,0.422,11.641,0.385,17.473,0.301
				c-0.119-0.479-0.179-1.008-0.154-1.598c0.083-1.989,0.166-3.979,0.231-5.971c0.538-16.502,0.513-33.013,0.52-49.522
				C248.015,169.306,248.914,153.412,248.754,137.586z"/>
		</g>
	</g>
	<g>
		<g>
			<path class="st9" d="M384.407,86.363c-0.125-3.959-0.078-8.771-1.886-12.436c-0.674-1.365-3.092-1.84-4.438-2.195
				c-3.736-0.988-7.498-1.946-11.301-2.646c-5.645-1.038-12.456-2.321-17.953,0.055c-5.644,2.439-6.524,9.203-6.605,14.662
				c-0.014,0.921-0.217,1.734-0.553,2.439c1.035,1.066,1.95,2.227,2.677,3.506c9.493,16.718,1.146,38.133-1.624,55.6
				c-3.479,21.936,0.462,47.504-11.513,67.242c9.345-2.225,19.021-2.76,28.623-3.534c-0.259-0.83-0.288-1.797,0.004-2.886
				c8.972-33.441,10.454-68.266,17.999-101.994c0.5-2.238,2.509-4.459,4.976-4.436c0.371,0.004,0.767,0.008,1.157,0.012
				C384.213,95.289,384.547,90.822,384.407,86.363z"/>
		</g>
	</g>
	<g>
		<g>
			<path class="st9" d="M404.7,115.699c-0.831-2.907-5.714-3.268-8.638-3.764c-2.785-0.473-5.59-0.838-8.408-1.044
				c-6.681,32.187-8.447,65.261-16.944,97.092c7.707-0.903,15.439-1.497,23.168-2.177c0.802-1.308,2.052-2.311,3.45-2.664
				c5.169-19.312,2.419-40.445,4.719-60.082c0.581-4.959,1.511-9.869,2.146-14.822C404.675,124.467,405.774,119.461,404.7,115.699z"
				/>
		</g>
	</g>
	<g>
		<g>
			<path class="st9" d="M334.734,95.131c-3.723-5.096-14.966-8.699-19.954-3.434c-5.39,5.689-6.842,14.314-7.816,21.807
				c-1.698,13.053-2.645,26.069-5.136,39.033c-5.84,30.39-14.915,60.547-15.1,91.723c1.49-0.09,2.939-0.336,4.304-0.821
				c4.974-1.771,8.136-6.003,11.309-10.009c6.117-7.721,12.97-14.496,21.761-18.42c-2.813-1.041-4.789-3.955-2.789-7.237
				c4.491-7.37,6.234-15.784,7.148-24.279c1.282-11.909,1.68-23.903,2.879-35.819c0.913-9.072,3.464-17.918,4.896-26.911
				C337.439,113.209,339.666,101.881,334.734,95.131z"/>
		</g>
	</g>
	<g>
		<g>
			<path class="st9" d="M214.349,48.803c-7.105-0.236-14.242,0.863-21.357,1.496c4.434,15.813,0.927,34.456-0.771,50.071
				c-2.647,24.329-1.488,48.986-1.488,73.429c0,3.29-2.384,5.236-4.929,5.659c4.796,17.454,9.025,35.013,10.595,53.012
				c5.378,3.656,11.484,5.899,17.842,7.321c-0.207-39.225-2.703-78.423,0.106-117.617c0.186-2.588,2.768-4.017,4.976-4.436
				c0.301-0.057,0.606-0.105,0.908-0.161C219.888,94.525,215.074,71.824,214.349,48.803z"/>
		</g>
	</g>
	<g>
		<g>
			<path class="st4" d="M405.087,215.779c-0.169,0.018-0.339,0.033-0.509,0.051c-1.632,3.672-6.801,3.528-9.146,0.877
				c-1.282,0.113-2.562,0.23-3.845,0.337c-8.366,0.698-16.763,1.317-25.07,2.562c-12.668,1.896-26.485,0.271-38.453,5.62
				c-11.516,5.147-16.218,16.657-25.591,24.226c-9.556,7.715-20.865,5.395-32.117,4.152c-14.69-1.623-29.639,0.448-44.404-1.031
				c-11.808-1.182-24.429-3.412-34.509-10.039c-2.561,0.142-5.174-1.26-5.624-4.372c-6.599-5.923-12.469-13.4-20.681-16.847
				c-6.838-2.871-15.693-1.339-22.909-0.701c-7.579,0.67-15.223,1.601-22.845,1.389c-9.528-0.266-19.086-0.23-28.61-0.699
				c-3.075-0.152-7.456,0.008-11.548-0.549c6.292,39.041,19.25,76.501,29.305,114.665c5.465,20.743,10.376,41.616,16.409,62.209
				c2.911,9.938,5.61,19.899,9.617,29.462c3.502,8.357,6.976,16.644,8.178,25.693c0.02,0.151,0.027,0.296,0.037,0.441
				c12.303,6.179,26.514,8.839,39.847,11.349c19.185,3.61,38.336,6.241,57.904,6.21c20.673-0.033,41.377-2.35,61.969-4.012
				c8.182-0.661,16.326-1.48,24.484-2.375c5.143-0.562,13.527-0.608,17.63-4.32c0.348-0.314,0.711-0.572,1.083-0.785
				c0.122-0.24,0.256-0.479,0.417-0.715c26.724-39.062,33.903-88.693,42.878-134.113c5.021-25.409,9.323-51.154,15.315-76.35
				c1.779-7.48,3.824-14.896,5.617-22.373c0.848-3.535,1.701-7.082,2.317-10.666c0.025-0.148,0.048-0.297,0.074-0.445
				C409.882,215.004,407.435,215.527,405.087,215.779z"/>
		</g>
	</g>
	<g>
		<g>
			<path class="st9" d="M111.384,198.914c-1.318-7.992-2.437-16.016-3.631-24.026c-1.488-9.976-2.464-20.015-3.351-30.067h-1.949
				c-0.509,0-0.998-0.041-1.47-0.127c-0.645,0.314-1.413,0.502-2.308,0.514c-6.282,0.086-12.497,0.909-18.669,2.002
				c1.864,20.736,12.799,39.898,11.731,61.088c-0.039,0.774-0.214,1.47-0.483,2.093c1.94,0.085,3.882,0.145,5.824,0.189
				c5.617,0.129,11.331,0.405,17.014,0.494C112.087,207.598,111.879,201.916,111.384,198.914z"/>
		</g>
	</g>
	<g>
		<g>
			<path class="st9" d="M183.252,58.637c-5.419-2.41-12.877-1.908-18.528-1.703c-5.264,0.189-10.774,0.428-16.001,1.547
				c0,3.533,0.072,7.096,0.493,10.594c3.396-0.197,6.785-0.4,10.11-0.832c3.182-0.413,5.085,1.595,5.578,4.006
				c1.162,0.775,1.926,2.111,1.831,4.055c-1.369,27.923,5.394,54.582,12.875,81.158c-0.253-18.332-0.555-36.761,1.357-54.924
				c1.077-10.229,2.536-20.488,2.751-30.784C183.808,67.399,183.794,62.97,183.252,58.637z"/>
		</g>
	</g>
	<g>
		<g>
			<path class="st9" d="M155.686,79.609c-2.875,0.169-5.852,0.22-8.825,0.354c-1.574,0.853-3.438,1.043-4.915,0.336
				c-4.096,0.402-8.073,1.186-11.641,2.912c1.298,5.186,2.377,10.379,2.237,15.707c4.869,1.556,8.923,4.686,11.28,10.697
				c5.457,13.92,4.355,29.418,6.317,43.988c1.567,11.629,4.573,23.141,6.671,34.686c1.072,5.898,2.219,11.84,2.771,17.815
				c0.079,0.854,0.157,1.847,0.172,2.879c3.129,0.216,6.208,0.768,9.124,1.991c5.926,2.487,10.633,6.442,15.173,10.664
				C177,173.818,154.104,128.668,155.686,79.609z"/>
		</g>
	</g>
	<g>
		<g>
			<path class="st9" d="M148.668,207.578c-0.208-2.253-0.504-4.496-0.845-6.733c-0.867-5.698-1.898-11.372-2.975-17.034
				c-1.851-9.729-4.49-19.524-5.678-29.361c-1.532-12.678-0.772-26.207-4.757-38.468c-1.736-5.343-3.6-7.078-9.351-7.456
				c-4.366-0.286-8.729,0.113-13.091,0.412c2.545,20.761,3.22,41.75,6.344,62.391c1.098,7.252,2.108,14.518,3.241,21.764
				c0.523,3.346,1.04,6.699,1.692,10.023c0.136,0.69,0.238,1.259,0.468,2.097c1.402,1.629,1.328,3.908,0.322,5.756
				c0.07-0.003,0.141-0.004,0.211-0.007c8.133-0.369,16.213-1.452,24.342-1.845c0.044-0.106,0.096-0.209,0.149-0.312
				C148.719,208.396,148.706,207.986,148.668,207.578z"/>
		</g>
	</g>
	<g>
		<g>
			<path class="st11" d="M421.366,204.588c-1.234-0.938-2.547-1.27-3.787-1.176c-0.455-0.111-0.939-0.178-1.462-0.178h-3.306
				c-1.109,0-2.023,0.269-2.749,0.722c-0.617,0.111-1.231,0.222-1.841,0.325c4.993-21.234,2.202-43.866,5.497-65.377
				c1.366-8.914,5.477-23.377-0.828-31.262c-3.798-4.748-10.97-6.611-18.005-7.363c0.599-10.854,2.3-23.232-3.367-32.629
				c-4.296-7.122-16.564-8.244-23.837-9.582c-8.229-1.515-17.792-2.262-25.341,2.062c-7.405,4.242-10.083,11.988-10.838,19.947
				c-4.003-1.375-8.265-1.979-12.032-1.805c-1.905,0.088-3.689,0.492-5.36,1.127c0.259-7.151-0.312-14.365-4.053-20.618
				c-5.32-8.894-16.763-9.213-25.847-8.147c-5.137,0.603-9.806,1.943-13.983,3.915v-8.245c0-3.179-3.099-5.039-5.908-5.062
				c-7.222-0.059-14.417-0.782-21.645-0.743c-5.562,0.029-12.638,0.249-17.428,3.677c-0.003-0.29-0.014-0.58-0.016-0.871
				c-0.014-2.299-2.156-4.699-4.436-4.977c-12.058-1.463-23.931,1.259-35.971,1.414c-3.11,0.04-5.874,3.672-4.997,6.698
				c-4.504-0.63-9.212-0.555-13.432-0.53c-8.253,0.047-17.043,0.635-24.964,3.126c-2.471,0.777-3.667,3.187-3.666,5.614
				c0.002,5.154,0.072,10.24,0.636,15.301c-5.091,0.658-10.051,1.84-14.667,4.335c-3.106,0.381-6.194,3.282-5.174,7.259
				c1.338,5.215,3.069,10.561,3.073,15.976c-5.517-0.005-11.237,0.655-16.304,0.72c-2.863,0.035-5.461,3.076-5.062,5.908
				c1.391,9.866,2.316,19.782,3.181,29.701h-1.841c-0.714,0-1.449,0.233-2.115,0.596c-0.51-0.139-1.062-0.215-1.663-0.207
				c-8.093,0.111-16.075,1.438-23.999,3c-3.086,0.607-5.11,2.631-5.062,5.908c0.335,22.674,13.147,43.216,12,65.996
				c-0.007,0.137-0.002,0.264,0,0.394c-0.467-0.065-0.935-0.122-1.401-0.198c-2.527-0.413-1.942-1.113-0.554,0.807
				c-2.499-3.454-6.796-2.607-8.919-0.132c-1.755,0.831-2.987,2.562-2.625,5.13c5.71,40.517,18.735,79.348,29.478,118.688
				c5.606,20.529,10.385,41.269,16.177,61.752c2.858,10.111,5.49,20.48,9.271,30.285c3.083,7.996,7.12,15.789,8.943,24.195
				c-2.482,2.233-3.091,7.146,0.666,9.572c14.295,9.227,32.26,12.597,48.718,15.736c20.763,3.961,41.498,6.414,62.665,6.379
				c21.89-0.035,43.9-2.684,65.703-4.459c8.081-0.658,16.2-1.483,24.239-2.567c7.101-0.958,14.301-2.461,19.744-7.386
				c0.008-0.007,0.014-0.015,0.021-0.021c0.53-0.345,1.032-0.825,1.479-1.479c28.256-41.301,36.195-92.635,45.696-140.717
				c5.151-26.072,9.473-52.551,15.867-78.346c2.073-8.363,4.355-16.674,6.199-25.092
				C423.129,217.137,425.995,208.104,421.366,204.588z M396.062,111.936c2.924,0.496,7.808,0.856,8.638,3.764
				c1.075,3.762-0.024,8.768-0.507,12.539c-0.635,4.953-1.564,9.863-2.146,14.822c-2.3,19.637,0.45,40.771-4.719,60.082
				c-1.398,0.354-2.648,1.356-3.45,2.664c-7.729,0.68-15.461,1.273-23.168,2.177c8.498-31.831,10.263-64.905,16.944-97.092
				C390.471,111.098,393.277,111.463,396.062,111.936z M344.349,89.748c-0.727-1.279-1.642-2.439-2.677-3.506
				c0.336-0.705,0.539-1.519,0.553-2.439c0.081-5.459,0.961-12.223,6.605-14.662c5.498-2.376,12.308-1.093,17.953-0.055
				c3.803,0.7,7.564,1.658,11.301,2.646c1.346,0.355,3.764,0.83,4.438,2.195c1.808,3.664,1.761,8.477,1.886,12.436
				c0.14,4.459-0.194,8.926-0.437,13.389c-0.391-0.004-0.786-0.008-1.157-0.012c-2.466-0.023-4.475,2.197-4.976,4.436
				c-7.545,33.729-9.027,68.553-17.999,101.994c-0.292,1.089-0.263,2.056-0.004,2.886c-9.603,0.774-19.278,1.31-28.623,3.534
				c11.975-19.738,8.034-45.307,11.513-67.242C345.495,127.881,353.841,106.466,344.349,89.748z M314.78,91.697
				c4.987-5.266,16.23-1.662,19.954,3.434c4.932,6.75,2.706,18.078,1.502,25.632c-1.432,8.993-3.983,17.839-4.896,26.911
				c-1.2,11.916-1.598,23.91-2.879,35.819c-0.914,8.495-2.658,16.909-7.148,24.279c-2,3.282-0.024,6.196,2.789,7.237
				c-8.792,3.924-15.644,10.699-21.761,18.42c-3.173,4.006-6.335,8.238-11.309,10.009c-1.365,0.485-2.814,0.731-4.304,0.821
				c0.186-31.176,9.26-61.333,15.1-91.723c2.491-12.964,3.438-25.98,5.136-39.033C307.938,106.012,309.391,97.387,314.78,91.697z
				 M265.968,70.936c0.488-0.268,0.962-0.621,1.407-1.078c0.595-0.611,1.06-1.215,1.434-1.825c1.76-1.513,3.798-2.81,6.171-3.825
				c6.098-2.609,17.997-5.617,23.954-1.418c6.027,4.249,4.399,15.707,3.908,21.887c-0.107,1.352,0.212,2.52,0.798,3.479
				c-0.915,1.343-1.728,2.755-2.427,4.202c-3.71,7.686-4.907,16.551-5.708,24.952c-1.417,14.876-3.618,29.448-6.68,44.081
				c-5.673,27.113-12.573,54.017-13.03,81.854c-0.641-0.096-1.271-0.187-1.883-0.264c-5.393-0.677-10.815-0.849-16.25-0.852
				c0.326-0.682,0.529-1.46,0.565-2.334c1.208-28.876,0.412-57.777,0.999-86.664c0.208-10.26,0.526-20.355-0.028-30.605
				c-0.439-8.127-0.963-16.25-0.834-24.393C258.517,88.522,260.055,78.148,265.968,70.936z M231.377,53.359
				c2.353-2.712,11.048-1.908,14.57-1.891c4.442,0.021,8.875,0.342,13.311,0.557v9.676c0,0.258,0.007,0.479,0.018,0.677
				c-5.154,5.37-8.74,12.372-10.439,20.765c-2.1,10.369-1.841,21.027-1.225,31.668c-5.43,0.156-10.958,0.537-16.426,1.157
				c-0.391-20.474-4.227-40.676-5.523-61.077C227.516,55.582,229.686,55.307,231.377,53.359z M224.916,127.896
				c7.679-1.206,15.624-1.884,23.373-2.111c0.234,3.955,0.426,7.895,0.465,11.801c0.159,15.826-0.739,31.72-0.746,47.562
				c-0.007,16.51,0.018,33.021-0.52,49.522c-0.065,1.991-0.147,3.981-0.231,5.971c-0.024,0.59,0.035,1.118,0.154,1.598
				c-5.833,0.084-11.665,0.121-17.473-0.301c-1.566-0.113-3.141-0.25-4.715-0.414C225.119,203.65,222.531,165.738,224.916,127.896z
				 M190.731,173.799c0-24.442-1.159-49.1,1.488-73.429c1.699-15.615,5.206-34.258,0.771-50.071
				c7.116-0.633,14.252-1.732,21.357-1.496c0.725,23.021,5.539,45.723,5.881,68.774c-0.302,0.056-0.607,0.104-0.908,0.161
				c-2.208,0.419-4.79,1.848-4.976,4.436c-2.809,39.194-0.313,78.393-0.106,117.617c-6.358-1.422-12.464-3.665-17.842-7.321
				c-1.57-17.999-5.799-35.558-10.595-53.012C188.348,179.035,190.731,177.089,190.731,173.799z M164.724,56.934
				c5.651-0.205,13.109-0.707,18.528,1.703c0.542,4.333,0.556,8.763,0.464,13.116c-0.215,10.296-1.675,20.556-2.751,30.784
				c-1.912,18.163-1.61,36.592-1.357,54.924c-7.481-26.576-14.244-53.235-12.875-81.158c0.095-1.943-0.669-3.279-1.831-4.055
				c-0.493-2.411-2.396-4.419-5.578-4.006c-3.325,0.432-6.714,0.635-10.11,0.832c-0.421-3.498-0.493-7.061-0.493-10.594
				C153.95,57.361,159.46,57.123,164.724,56.934z M141.946,80.299c1.477,0.707,3.34,0.517,4.915-0.336
				c2.974-0.134,5.951-0.185,8.825-0.354c-1.582,49.059,21.314,94.209,28.365,142.029c-4.54-4.222-9.247-8.177-15.173-10.664
				c-2.916-1.224-5.995-1.775-9.124-1.991c-0.016-1.032-0.094-2.025-0.172-2.879c-0.551-5.976-1.698-11.917-2.771-17.815
				c-2.098-11.545-5.104-23.057-6.671-34.686c-1.962-14.57-0.86-30.068-6.317-43.988c-2.357-6.012-6.412-9.142-11.28-10.697
				c0.14-5.328-0.939-10.521-2.237-15.707C133.873,81.484,137.85,80.701,141.946,80.299z M125.062,108.525
				c5.751,0.378,7.614,2.113,9.351,7.456c3.985,12.261,3.225,25.79,4.757,38.468c1.188,9.837,3.828,19.633,5.678,29.361
				c1.077,5.662,2.108,11.336,2.975,17.034c0.341,2.237,0.638,4.48,0.845,6.733c0.038,0.408,0.05,0.818,0.072,1.227
				c-0.053,0.103-0.105,0.205-0.149,0.312c-8.128,0.393-16.209,1.476-24.342,1.845c-0.07,0.003-0.141,0.004-0.211,0.007
				c1.006-1.848,1.08-4.127-0.322-5.756c-0.23-0.838-0.333-1.406-0.468-2.097c-0.652-3.324-1.168-6.678-1.692-10.023
				c-1.133-7.246-2.144-14.512-3.241-21.764c-3.124-20.641-3.799-41.63-6.344-62.391
				C116.333,108.639,120.696,108.239,125.062,108.525z M80.005,147.209c6.173-1.093,12.387-1.916,18.669-2.002
				c0.896-0.012,1.663-0.199,2.308-0.514c0.472,0.086,0.96,0.127,1.47,0.127h1.949c0.887,10.053,1.863,20.092,3.351,30.067
				c1.195,8.011,2.313,16.034,3.631,24.026c0.495,3.002,0.704,8.684,2.708,12.159c-5.683-0.089-11.397-0.365-17.014-0.494
				c-1.942-0.045-3.884-0.104-5.824-0.189c0.27-0.623,0.444-1.318,0.483-2.093C92.804,187.107,81.869,167.945,80.005,147.209z
				 M412.234,215.074c-0.617,3.584-1.47,7.131-2.317,10.666c-1.793,7.478-3.838,14.893-5.617,22.373
				c-5.993,25.195-10.295,50.94-15.315,76.35c-8.975,45.42-16.154,95.052-42.878,134.113c-0.162,0.236-0.295,0.475-0.417,0.715
				c-0.372,0.213-0.734,0.471-1.083,0.785c-4.103,3.712-12.487,3.758-17.63,4.32c-8.158,0.895-16.303,1.714-24.484,2.375
				c-20.592,1.662-41.296,3.979-61.969,4.012c-19.568,0.031-38.72-2.6-57.904-6.21c-13.333-2.51-27.544-5.17-39.847-11.349
				c-0.009-0.146-0.017-0.29-0.037-0.441c-1.202-9.05-4.676-17.336-8.178-25.693c-4.007-9.562-6.706-19.523-9.617-29.462
				c-6.033-20.593-10.944-41.466-16.409-62.209c-10.054-38.164-23.013-75.624-29.305-114.665c4.092,0.557,8.474,0.396,11.548,0.549
				c9.524,0.469,19.082,0.434,28.61,0.699c7.622,0.212,15.266-0.719,22.845-1.389c7.216-0.638,16.071-2.17,22.909,0.701
				c8.212,3.446,14.082,10.924,20.681,16.847c0.45,3.112,3.063,4.514,5.624,4.372c10.081,6.627,22.702,8.857,34.509,10.039
				c14.765,1.479,29.714-0.592,44.404,1.031c11.251,1.242,22.561,3.562,32.117-4.152c9.374-7.568,14.075-19.078,25.591-24.226
				c11.967-5.349,25.785-3.724,38.453-5.62c8.307-1.244,16.704-1.863,25.07-2.562c1.282-0.106,2.563-0.224,3.845-0.337
				c2.345,2.651,7.514,2.795,9.146-0.877c0.169-0.018,0.339-0.033,0.509-0.051c2.348-0.252,4.794-0.775,7.221-1.15
				C412.283,214.777,412.26,214.926,412.234,215.074z"/>
		</g>
	</g>
</g>
</svg>
