<?xml version="1.0" encoding="utf-8"?>
<!-- Generator: Adobe Illustrator 16.0.3, SVG Export Plug-In . SVG Version: 6.00 Build 0)  -->
<!DOCTYPE svg PUBLIC "-//W3C//DTD SVG 1.1//EN" "http://www.w3.org/Graphics/SVG/1.1/DTD/svg11.dtd">
<svg version="1.1" id="Layer_1" xmlns="http://www.w3.org/2000/svg" xmlns:xlink="http://www.w3.org/1999/xlink" x="0px" y="0px"
	 width="512px" height="512px" viewBox="0 0 512 512" style="enable-background:new 0 0 512 512;" xml:space="preserve">
<style type="text/css">
<![CDATA[
	.st0{fill:#127274;}
	.st1{fill:#14B6B9;}
	.st2{fill:#1E4384;}
	.st3{fill:#EF4754;}
	.st4{fill:#EF4823;}
	.st5{fill:#BCBCBC;}
	.st6{fill:#F6851F;}
	.st7{fill:#C56528;}
	.st8{fill:#FCBF95;}
	.st9{fill:#FEBF10;}
	.st10{fill:none;}
	.st11{fill:#010101;}
	.st12{fill:#3AB37C;}
	.st13{fill:#D6E5E5;}
	.st14{fill:#71C598;}
	.st15{fill:#74CCCF;}
]]>
</style>
<g>
	<g>
		<g>
			<path class="st15" d="M258.696,184.702c-4.455-0.354-8.969-0.478-13.432-0.23c-1.473,0.081-3.346,0.146-4.777,0.39
				c-0.078,0.375-0.188,0.741-0.328,1.094c7.186-0.208,14.373-0.465,21.551-0.786C260.751,184.957,259.759,184.787,258.696,184.702z
				"/>
		</g>
	</g>
	<g>
		<g>
			<path class="st1" d="M326.237,161.488c-4.115-3.354-9.004-5.531-13.982-7.285c-14.416-5.076-29.76-5.743-44.898-5.78
				c-16.094-0.039-32.215,1.091-48.32,1.265c-16.443,0.179-32.891,0.155-49.334,0.381c-19.006,0.262-38.42-0.166-57.158,3.535
				c-12.707,2.509-32.184,8.133-33.539,23.551c44.26,7.903,89.232,10.128,134.141,9.397c5.758-0.094,11.529-0.204,17.303-0.34
				c-2.441-4.177-1.275-9.059,3.967-11.048c4.811-1.827,10.453-1.823,15.527-1.764c11.582,0.139,23.105,1.186,30.725,10.762
				c0.02-0.001,0.039-0.002,0.059-0.004c14.41-0.905,33.346-1.162,44.879-11.182C330.099,169.073,331.104,165.454,326.237,161.488z"
				/>
		</g>
	</g>
	<g>
		<g>
			<path class="st9" d="M317.958,364.355c-0.104-21.576-3.527-43.166-9.252-63.949c-7.629-0.036-15.318-0.165-22.967,0.133
				c0.029,1.655,0.082,3.311,0.189,4.969c0.457,7.087-10.514,7.92-10.971,0.848c-0.107-1.676-0.168-3.348-0.207-5.02
				c-6.248,0.693-12.432,1.848-18.488,3.787c-0.668,0.214-1.303,0.301-1.902,0.29c-1.902,5.177-0.238,11.702,0.693,16.924
				c1.039,5.824,1.705,11.641,2.07,17.546c0.4,6.477,0.609,13.014,1.562,19.441c0.488,3.293,0.551,9.401,4.156,10.967
				c7.881,3.42,17.961,0.268,26.213,0.167c8.662-0.105,20.326,2.052,28.312-2.086c0.619-0.32,1.236-0.515,1.842-0.61
				C318.452,366.96,317.966,365.833,317.958,364.355z"/>
		</g>
	</g>
	<g>
		<g>
			<path class="st15" d="M419.831,269.824c-1.123-12.443-3.082-25.122-8.369-36.561c-5.424-11.732-14.871-22.088-27.227-26.632
				c-14.295-5.257-28.111,0.191-39.717,8.859c-4.299,3.212-8.732-1.278-8.475-5.609c0.574-9.617-1.338-19.226-3.172-28.744
				c-8.035,7.144-19.24,10.097-29.604,11.776c-5.576,0.904-11.203,1.501-16.848,1.934c1.73,4.768,2.736,9.812,3.471,14.854
				c1.48,10.166,2.209,20.16,1.637,30.436c-0.922,16.521-4.467,32.952-5.52,49.477c7.982-0.291,16.01-0.18,24.012-0.167
				c1.939,0.003,3.408,0.837,4.377,2.04c1.855,0.135,3.564,1.237,4.238,3.627c6.252,22.181,10.182,45.314,10.293,68.395
				c0.016,3.324-2.404,5.276-4.977,5.674c2.598,2.217,3.385,6.331-0.434,8.31c-11.109,5.757-23.691,3.271-35.662,4.022
				c-9.969,0.627-22.512,3.434-31.518-2.303c-5.621-3.58-7.094-9.76-8.139-15.98c-1.252-7.447-1.553-14.977-2.045-22.5
				c-0.453-6.905-1.488-13.592-2.566-20.412c-1.07-6.763-1.488-13.319,0.928-19.834c0.941-2.539,2.961-3.38,4.961-3.087
				c0.529-1.163,1.543-2.144,3.146-2.657c7.326-2.346,14.779-3.661,22.299-4.402c1.484-28.758,9.932-57.14,2.871-86.027
				c-0.771-3.16-1.803-6.131-3.176-8.763c-2.529,0.114-5.057,0.215-7.578,0.308c-63.846,2.328-127.631,3.322-190.75-8.006
				c0.002,0.914-0.006,1.828,0.006,2.741c0.088,6.22,0.354,12.433,0.557,18.648c0.691,21.366,0.848,42.685,1.121,64.059
				c0.324,25.382,1.959,50.753,5.076,75.947c1.5,12.112,3.932,24.184,4.783,36.359c0.709,10.148,0.77,20.493,2.846,30.482
				c0.764,0.802,1.25,1.935,1.25,3.421v1.732c0.344,0.543,0.682,1.087,1.074,1.616c1.557,2.102,1.301,4.257,0.148,5.861
				c0.898,3.632,2.125,7.181,3.785,10.541c8.338,16.899,26.213,25.285,43.742,29.343c21.322,4.937,43.488,5.648,65.219,7.555
				c29.545,2.592,60.201,5.066,89.393-1.75c23.061-5.383,54.275-16.084,57.754-43.524c0.371-2.925,2.451-4.262,4.689-4.328
				c1.404-0.917,3.207-1.273,5.158-0.549c0.488,0.193,0.99,0.345,1.506,0.452c9.805,2.201,20.637-0.586,29.49-4.936
				c10.033-4.93,15.85-12.546,19.203-23.176c3.959-12.55,5.318-25.742,5.68-38.85c0.389-14.118,0.74-28.134,1.605-42.239
				C421.354,301.3,421.267,285.737,419.831,269.824z M364.263,398.123c-3.355,1.04-7.053-1.122-7.305-4.768
				c-2.246-32.58,0.523-65.555-3.189-98.005c-1.461-12.763-3.736-25.263-6.752-37.733c-1.389-5.746-6.039-18.318-0.705-23.316
				c2.248-2.106,5.113-1.901,7.182-0.598c0.807-0.801,1.975-1.298,3.527-1.257c16.662,0.438,26.188,17.026,32.041,30.624
				c5.725,13.301,11.004,28.838,11.934,43.423C403.036,338.483,401.452,386.596,364.263,398.123z"/>
		</g>
	</g>
	<g>
		<g>
			<path d="M429.581,258.312c-3.561-25.295-14.5-49.624-38.826-60.86c-14.812-6.843-30.525-4.006-44.043,3.51
				c-0.789-10.555-3.211-20.906-4.783-31.453c-0.201-1.352-0.779-2.408-1.57-3.188c-0.139-4.567-2.396-9.094-6.859-13.097
				c-9.25-8.296-23.334-11.804-35.211-13.812c-12.701-2.146-26.35-2.556-39.197-1.861c-14.928,0.807-29.883,1.06-44.828,1.208
				c-24.562,0.243-49.15,0.04-73.703,0.863c-22.998,0.771-62.229,4.413-70.883,29.597c-0.104,0.051-0.205,0.096-0.309,0.153
				c-4.309,2.415-3.846,9.801-3.992,13.894c-0.264,7.271,0.062,14.573,0.326,21.84c0.764,21.075,1.229,42.104,1.26,63.197
				c0.037,26.681,1.756,53.349,4.883,79.842c1.51,12.781,4.025,25.477,5.018,38.307c0.934,12.068,1.082,24.115,4.035,35.902
				c-0.008,0.32,0.008,0.652,0.061,1.002c3.037,20.317,13.742,36.564,31.734,46.61c17.018,9.503,37.373,12.257,56.479,14.063
				c26.881,2.544,54.002,5.371,81.014,5.646c28.268,0.289,57.926-3.934,83.26-17.135c13.768-7.174,25.951-19.873,29.602-35.222
				c17.697,3.821,39.627-4.271,51.17-17.415c7.668-8.73,10.939-21.85,12.98-32.974c2.354-12.832,2.635-26.045,2.719-39.057
				c0.1-15.103,1.557-30.135,2.125-45.224C432.599,287.811,431.651,273.011,429.581,258.312z M112.544,153.604
				c18.738-3.701,38.152-3.273,57.158-3.535c16.443-0.226,32.891-0.202,49.334-0.381c16.105-0.174,32.227-1.304,48.32-1.265
				c15.139,0.037,30.482,0.704,44.898,5.78c4.979,1.754,9.867,3.932,13.982,7.285c4.867,3.966,3.861,7.585-0.633,11.488
				c-11.533,10.02-30.469,10.276-44.879,11.182c-0.02,0.002-0.039,0.003-0.059,0.004c-7.619-9.576-19.143-10.623-30.725-10.762
				c-5.074-0.06-10.717-0.063-15.527,1.764c-5.242,1.989-6.408,6.871-3.967,11.048c-5.773,0.136-11.545,0.246-17.303,0.34
				c-44.908,0.73-89.881-1.494-134.141-9.397C80.36,161.736,99.837,156.112,112.544,153.604z M285.929,305.508
				c-0.107-1.658-0.16-3.313-0.189-4.969c7.648-0.298,15.338-0.169,22.967-0.133c5.725,20.783,9.148,42.373,9.252,63.949
				c0.008,1.478,0.494,2.604,1.252,3.406c-0.605,0.096-1.223,0.29-1.842,0.61c-7.986,4.138-19.65,1.98-28.312,2.086
				c-8.252,0.101-18.332,3.253-26.213-0.167c-3.605-1.565-3.668-7.674-4.156-10.967c-0.953-6.428-1.162-12.965-1.562-19.441
				c-0.365-5.905-1.031-11.722-2.07-17.546c-0.932-5.222-2.596-11.747-0.693-16.924c0.6,0.011,1.234-0.076,1.902-0.29
				c6.057-1.939,12.24-3.094,18.488-3.787c0.039,1.672,0.1,3.344,0.207,5.02C275.415,313.428,286.386,312.595,285.929,305.508z
				 M261.71,185.169c-7.178,0.321-14.365,0.578-21.551,0.786c0.141-0.353,0.25-0.719,0.328-1.094
				c1.432-0.244,3.305-0.309,4.777-0.39c4.463-0.247,8.977-0.124,13.432,0.23C259.759,184.787,260.751,184.957,261.71,185.169z
				 M420.376,317.257c-0.865,14.105-1.217,28.121-1.605,42.239c-0.361,13.107-1.721,26.3-5.68,38.85
				c-3.354,10.63-9.17,18.246-19.203,23.176c-8.854,4.35-19.686,7.137-29.49,4.936c-0.516-0.107-1.018-0.259-1.506-0.452
				c-1.951-0.725-3.754-0.368-5.158,0.549c-2.238,0.066-4.318,1.403-4.689,4.328c-3.479,27.44-34.693,38.142-57.754,43.524
				c-29.191,6.816-59.848,4.342-89.393,1.75c-21.73-1.906-43.896-2.618-65.219-7.555c-17.529-4.058-35.404-12.443-43.742-29.343
				c-1.66-3.36-2.887-6.909-3.785-10.541c1.152-1.604,1.408-3.76-0.148-5.861c-0.393-0.529-0.73-1.073-1.074-1.616v-1.732
				c0-1.486-0.486-2.619-1.25-3.421c-2.076-9.989-2.137-20.334-2.846-30.482c-0.852-12.176-3.283-24.247-4.783-36.359
				c-3.117-25.194-4.752-50.565-5.076-75.947c-0.273-21.374-0.43-42.692-1.121-64.059c-0.203-6.216-0.469-12.429-0.557-18.648
				c-0.012-0.913-0.004-1.827-0.006-2.741c63.119,11.328,126.904,10.334,190.75,8.006c2.521-0.093,5.049-0.193,7.578-0.308
				c1.373,2.632,2.404,5.603,3.176,8.763c7.061,28.888-1.387,57.27-2.871,86.027c-7.52,0.741-14.973,2.057-22.299,4.402
				c-1.604,0.514-2.617,1.494-3.146,2.657c-2-0.293-4.02,0.548-4.961,3.087c-2.416,6.515-1.998,13.071-0.928,19.834
				c1.078,6.82,2.113,13.507,2.566,20.412c0.492,7.523,0.793,15.053,2.045,22.5c1.045,6.221,2.518,12.4,8.139,15.98
				c9.006,5.736,21.549,2.93,31.518,2.303c11.971-0.752,24.553,1.734,35.662-4.022c3.818-1.979,3.031-6.093,0.434-8.31
				c2.572-0.397,4.992-2.35,4.977-5.674c-0.111-23.08-4.041-46.214-10.293-68.395c-0.674-2.39-2.383-3.492-4.238-3.627
				c-0.969-1.203-2.438-2.037-4.377-2.04c-8.002-0.013-16.029-0.124-24.012,0.167c1.053-16.524,4.598-32.955,5.52-49.477
				c0.572-10.275-0.156-20.27-1.637-30.436c-0.734-5.041-1.74-10.086-3.471-14.854c5.645-0.433,11.271-1.029,16.848-1.934
				c10.363-1.68,21.568-4.633,29.604-11.776c1.834,9.519,3.746,19.127,3.172,28.744c-0.258,4.331,4.176,8.821,8.475,5.609
				c11.605-8.668,25.422-14.116,39.717-8.859c12.355,4.544,21.803,14.899,27.227,26.632c5.287,11.438,7.246,24.117,8.369,36.561
				C421.267,285.737,421.354,301.3,420.376,317.257z"/>
		</g>
	</g>
	<g>
		<g>
			<path d="M400.995,306.493c-0.93-14.585-6.209-30.122-11.934-43.423c-5.854-13.598-15.379-30.187-32.041-30.624
				c-1.553-0.041-2.721,0.456-3.527,1.257c-2.068-1.304-4.934-1.509-7.182,0.598c-5.334,4.998-0.684,17.57,0.705,23.316
				c3.016,12.471,5.291,24.971,6.752,37.733c3.713,32.45,0.943,65.425,3.189,98.005c0.252,3.646,3.949,5.808,7.305,4.768
				C401.452,386.596,403.036,338.483,400.995,306.493z M367.493,384.787c-1.324-28.196,0.393-56.572-2.178-84.663
				c-1.211-13.241-3.105-26.598-6.262-39.524c-0.961-3.935-2.027-7.846-2.854-11.812c-0.416-2.003-0.748-4.021-0.979-6.054v-0.007
				c0.752,0.408,1.633,0.664,2.645,0.69c11.867,0.312,19,18.594,22.557,27.499c4.66,11.666,8.859,24.793,9.666,37.422
				C391.642,332.676,391.808,371.242,367.493,384.787z"/>
		</g>
	</g>
	<g>
		<g>
			<path d="M168.53,88.336c-4.172-3.562-11.141-5.562-12.895-11.223c-1.082-3.488,2.176-11.548,5.627-12.99
				c6.51-2.721,2.928-13.127-3.639-10.383c-11.297,4.722-16.238,21.15-10.344,31.496c3.223,5.655,10.146,8.086,14.895,12.138
				c7.324,6.25-0.02,12.663-4.863,16.927c-1.879,1.654-1.604,4.797-0.428,6.706c0.609,0.99,1.346,1.806,2.408,2.333
				c0.467,0.158,0.932,0.314,1.398,0.473c1.861,0.097,1.963,0.111,0.307,0.046c4.279,2.14,7.879-1.631,7.848-5.291
				c3.48-3.383,6.438-7.169,7.271-12.185C177.218,99.741,173.44,92.525,168.53,88.336z"/>
		</g>
	</g>
	<g>
		<g>
			<path d="M211.364,85.335c-4.52-4.253-9.326-8.311-13.227-13.163c-1.117-1.39-2.898-3.879-3.141-5.078
				c-0.111-0.544-0.176-0.756-0.203-0.826c0.031,0.05,0.119,0.113,0.252-0.148c-0.211,0.416,1.588-0.759,2.217-0.996
				c6.619-2.504,3.018-12.9-3.639-10.383c-5.68,2.149-9.93,6.184-9.672,12.611c0.242,5.984,5.133,11.284,8.924,15.428
				c4.201,4.591,8.996,8.589,13.436,12.938c0.775,0.76,1.252,1.259,1.549,1.619c0.408,0.497,0.596,0.635,0.674,0.659
				c-0.037,0.087-0.057,0.379,0.102,1.249c0.852,4.641-3.277,7.791-7.012,9.496c-6.391,2.918-2.83,13.336,3.639,10.383
				c8.324-3.801,14.215-9.845,14.453-19.365C219.874,93.389,215.608,89.329,211.364,85.335z"/>
		</g>
	</g>
	<g>
		<g>
			<path d="M260.272,84.758c-4.781-5.512-10.207-10.412-15.225-15.699c-2.047-2.154-3.953-4.431-5.516-6.964
				c-0.086-0.14-0.289-0.669-0.447-1.056c4.795-4.261-1.113-12.614-6.717-8.667c-13.26,9.34,5.795,25.466,12.477,32.092
				c2.328,2.309,4.709,4.601,6.857,7.079c0.979,1.128,1.881,2.314,2.701,3.561c0.146,0.223,0.24,0.356,0.305,0.441
				c0.027,0.081,0.074,0.203,0.154,0.392c0.033,0.079,0.062,0.145,0.09,0.201c0,0.058,0,0.126,0.006,0.218
				c0.189,3.178-4.559,5.845-6.662,7.4c-3.576,2.646-6.965,5.568-8.779,9.729c-2.83,6.49,7.02,11.396,9.854,4.895
				c1.488-3.412,4.842-5.294,7.707-7.469c3.264-2.478,6.238-5.384,7.771-9.253C267.478,95.027,264.569,89.711,260.272,84.758z"/>
		</g>
	</g>
</g>
</svg>
