<?xml version="1.0" encoding="utf-8"?>
<!-- Generator: Adobe Illustrator 16.0.3, SVG Export Plug-In . SVG Version: 6.00 Build 0)  -->
<!DOCTYPE svg PUBLIC "-//W3C//DTD SVG 1.1//EN" "http://www.w3.org/Graphics/SVG/1.1/DTD/svg11.dtd">
<svg version="1.1" id="Layer_1" xmlns="http://www.w3.org/2000/svg" xmlns:xlink="http://www.w3.org/1999/xlink" x="0px" y="0px"
	 width="512px" height="512px" viewBox="0 0 512 512" style="enable-background:new 0 0 512 512;" xml:space="preserve">
<style type="text/css">
<![CDATA[
	.st0{fill:#127274;}
	.st1{fill:#14B6B9;}
	.st2{fill:#1E4384;}
	.st3{fill:#EF4754;}
	.st4{fill:#EF4823;}
	.st5{fill:#BCBCBC;}
	.st6{fill:#F6851F;}
	.st7{fill:#C56528;}
	.st8{fill:#FCBF95;}
	.st9{fill:#FEBF10;}
	.st10{fill:none;}
	.st11{fill:#010101;}
	.st12{fill:#3AB37C;}
	.st13{fill:#D6E5E5;}
	.st14{fill:#71C598;}
	.st15{fill:#74CCCF;}
]]>
</style>
<g>
	<g>
		<g>
			<path class="st12" d="M402.678,69.256c-0.416-0.39-0.84-0.768-1.291-1.114c-1.176-0.9-2.387-1.695-3.678-2.421
				c-1.488-0.836-3.002-1.646-4.58-2.303c-1.074-0.447-0.826-0.397-1.418-0.546c-0.328-0.083-1.842-0.277-0.195-0.192
				c-1.609-0.083-3.107-0.608-4.203-1.571c-4.477,2.043-9.074,3.652-13.762,4.912c6.678,5.43,13.652,10.591,18.1,18.099
				c3.604,6.079-5.496,12.265-9.119,6.15c-5.355-9.038-15.045-14.352-22.535-21.44c-6.082,0.937-12.238,1.531-18.389,2.029
				c5.951,5.333,11.557,11.023,17.752,16.09c2.078,1.699,1.791,1.605,3.555,2.694c1.57,0.97,3.027,1.965,3.674,3.806
				c1.318,3.753-1.268,6.816-4.678,7.938c-3.504,1.152-6.164-1.098-6.969-3.836c-0.771-0.523-1.514-1.104-1.975-1.709
				c-2.186-2.869-6.164-5.279-8.795-7.85c-5.287-5.17-10.859-10.125-16.711-14.665c-0.441-0.342-0.793-0.71-1.082-1.092
				c-4.342,0.475-8.662,1.041-12.961,1.757c1.979,1.384,3.082,3.878,1.6,6.65c-0.016,0.029-0.027,0.049-0.043,0.072
				c0.012,0.05,0.021,0.101,0.031,0.166c-0.104-0.688,0.402,1.311,0.352,1.186c0.551,1.404,1.248,2.686,2.076,3.948
				c2.223,3.385,4.752,6.575,7.502,9.546c3.006,3.246,6.129,6.391,9.424,9.345c1.168,1.047,2.342,2.091,3.562,3.078
				c0.398,0.322,3.016,2.165,1.617,1.285c5.938,3.734,1.119,13.637-4.895,9.854c-7.654-4.815-14.238-11.995-20.08-18.796
				c-5.105-5.939-13.912-16.134-9.4-24.578c0.039-0.07,0.082-0.133,0.121-0.201c-3.297,0.717-6.578,1.538-9.844,2.502
				c-9.65,2.85-21.195,6.959-30.664,13.22c-0.098,0.534-0.178,1.07-0.24,1.608c15.574,1.697,28.143,12.169,40.949,20.923
				c14.463,9.889,33.822,16.229,51.514,13.666c19.582-2.839,29.787-24.526,39.164-39.718c3.09-5.004,5.93-10.121,8.818-15.168
				C403.828,71.849,402.949,70.72,402.678,69.256z"/>
		</g>
	</g>
	<g>
		<g>
			<path class="st12" d="M226.383,80.404c-2.375-5.798-4.982-11.594-6.721-17.625c-0.719-2.497-1.463-5.199-1.52-7.854
				c-4.414-1.701-11.494-3.094-16.877-3.121c-1.66-0.009-3.359,0.001-4.994,0.316c-0.088,0.017-0.232,0.06-0.389,0.11
				c0.076,0.292,0.191,0.667,0.4,1.145c0.637,1.455,1.859,2.616,3.062,3.612c4.092,3.39,8.738,5.97,12.984,9.147
				c4.043,3.027,7.023,6.617,10.141,10.559c1.734,2.194,3.441,4.41,5.053,6.676C227.162,82.377,226.785,81.388,226.383,80.404z"/>
		</g>
	</g>
	<g>
		<g>
			<path class="st12" d="M424.773,44.534c-4.996-0.628-10.184-0.425-15.131-0.853c-8.76-0.758-17.451-2.827-26.082-4.459
				c-18.904-3.573-37.182-5.173-55.98,0.002c-15.057,4.145-29.57,11.51-41.391,21.813c-4.275,3.728-9.053,8.29-13.045,13.391
				c5.156-2.305,10.369-4.207,15.299-5.744c14.727-4.59,29.818-7.011,45.174-8.23c15.947-1.266,31.865-2.357,46.74-8.302
				c0.73-1.419,2.146-2.443,4.311-2.443h2c2.098,0,3.648,0.843,4.607,2.065c5.027,0.434,9.725,2.967,13.902,5.671
				c1.98,1.281,4.301,2.851,6.006,4.776c3.92-6.13,8.248-11.944,13.602-17.065C424.77,44.948,424.768,44.741,424.773,44.534z"/>
		</g>
	</g>
	<g>
		<g>
			<path class="st9" d="M362.693,311.567c-15.33-26.719-31.775-53.574-43.303-82.226c-15.676-38.958-26.539-87.09-68.156-106.065
				c-0.555,0.156-1.125,0.291-1.719,0.403c-2.328,0.441-3.959-0.491-4.85-1.975c-0.047,0.034-0.086,0.081-0.135,0.113
				c0.014,0.887,0.023,1.771,0.031,2.649c0.004,0.101,0.014,0.198,0.014,0.303v2c0,7.054-10.943,7.943-10.971,0.848
				c-0.008-2.189-0.039-4.383-0.096-6.576c-9.412,1.137-18.252,4.559-26.93,10.356c-10.836,7.241-19.867,16.556-25.684,28.308
				c-6.213,12.553-9.473,26.42-12.072,40.117c-1.676,8.824-2.766,17.788-4.877,26.525c-1.59,6.586-5.068,13.645-5.371,20.422
				c-0.197,4.437-4.67,6.424-7.844,5.492c-7.727,7.603-15.537,15.146-22.9,23.085c-35.596,38.371-68.068,93.545-46.764,146.958
				c16.121,40.421,57.121,62.875,97.738,71.988c14.516,3.257,29.203,5.095,43.855,5.414c-0.34-0.189-0.68-0.377-1.018-0.587
				c-0.998-0.618-1.719-1.429-2.201-2.319c-2.221-1.264-3.639-3.938-2.279-7.055c0.613-1.403,1.48-2.681,2.52-3.75
				c0.402-0.492,0.82-0.973,1.275-1.434c1.406-1.424,3.08-1.862,4.645-1.646c1.578-0.182,3.242,0.068,4.904,0.898
				c0.395,0.197,0.771,0.417,1.141,0.647c1.418-0.781,3.16-0.989,4.891-0.195c1.629,0.747,3.316,1.347,5.129,1.441
				c2.992,0.157,5.658,1.787,5.908,5.062c0.164,2.134-1.229,4.686-3.303,5.58c0.004,0.008,0.006,0.017,0.01,0.025
				c0.305,0.937,0.361,1.832,0.23,2.657c19.963-1.681,39.666-6.317,58.574-14.21c39.09-16.316,76.055-47.125,83.191-91.035
				C391.141,363.888,377.117,336.706,362.693,311.567z M111.223,346.825c-1.154,1.677-2.02,5.546-2.553,8.028
				c-0.33,1.535-0.643,3.075-0.873,4.629c-0.066,0.461-0.287,3.351-0.221,1.288c-0.096,2.994-1.832,5.662-5.061,5.909
				c-2.74,0.21-6.006-2.062-5.91-5.062c0.238-7.376,2.148-15.949,6.354-22.055c1.701-2.471,5.715-2.305,7.764-0.501
				C113.168,341.214,112.924,344.356,111.223,346.825z M126.018,306.642c-0.967,2.844-4.961,3.677-7.373,2.479
				c-2.949-1.463-3.445-4.538-2.48-7.374c0.254-0.744,0.52-1.483,0.781-2.225c0.047-0.134,0.082-0.231,0.113-0.314
				c0.02-0.081,0.045-0.179,0.082-0.313c0.137-0.503,0.277-1.009,0.357-1.525c0.008-0.053,0.131-1.758,0.107-0.751
				c0.066-2.995,1.855-5.663,5.062-5.909c2.764-0.212,5.975,2.062,5.908,5.062C128.49,299.689,127.268,302.971,126.018,306.642z
				 M159.223,289.825c-2.129,2.131-4.314,4.249-6.205,6.601c-1.482,1.845-2.307,3.446-3.74,5.228
				c-1.199,1.49-3.344,2.125-5.182,1.768c-2.092-0.406-3.242-1.781-4.143-3.58c-0.342-0.687-0.344-1.478-0.348-2.223
				c-0.008-2.032,0.877-3.913,2.43-4.99c0.121-0.161,0.246-0.32,0.383-0.469c0.854-0.938,1.521-2.021,2.336-2.996
				c1.941-2.32,4.068-4.462,6.205-6.6c2.115-2.116,5.404-2.578,7.764-0.501C160.863,283.946,161.346,287.702,159.223,289.825z
				 M187.018,251.642c-1.109,2.285-1.889,4.715-3,7c-1.309,2.695-4.705,3.803-7.373,2.479c-2.701-1.339-3.791-4.68-2.48-7.374
				c1.111-2.285,1.889-4.715,3-7c1.311-2.695,4.707-3.803,7.375-2.479C187.238,245.606,188.328,248.947,187.018,251.642z
				 M194.49,192.244c-1.123,7.45-2.951,14.756-5,22c-1.916,6.773-12.73,4.73-10.797-2.1c2.049-7.243,3.875-14.549,5-22
				C184.752,183.122,195.545,185.25,194.49,192.244z M215.576,281.771c0,7.06-10.971,7.937-10.971,0.848v-17
				c0-7.06,10.971-7.937,10.971-0.848V281.771z M234.531,240.27c-3.721-6.543-5.781-14.121-5.926-21.651
				c-0.135-7.073,10.836-7.938,10.971-0.848c0.107,5.586,1.291,11.451,4.074,16.349C247.137,240.249,238.043,246.446,234.531,240.27
				z M287.016,205.635c2.285-1.541,6.232-1.171,7.635,1.484c3.545,6.708,9.283,11.866,11.633,19.257
				c2.148,6.762-8.234,10.398-10.383,3.637c-2.025-6.371-7.291-10.915-10.369-16.743
				C284.133,210.622,284.332,207.444,287.016,205.635z M297.531,284.27c-2.375-4.278-4.43-8.847-7-13
				c-4.156-6.715-8.443-12.734-9.926-20.651c-1.305-6.98,9.682-7.734,10.971-0.848c1.252,6.689,6.34,12.149,9.463,18.033
				c1.836,3.457,3.713,6.893,5.611,10.315C310.068,284.276,300.979,290.479,297.531,284.27z M309.531,315.27
				c-1.287-2.504-2.838-4.725-2.926-7.651c-0.088-2.994,1.971-5.672,5.062-5.909c2.881-0.221,5.82,2.065,5.908,5.062
				c0,0.121,0.014,0.24,0.021,0.361c0.096,0.215,0.227,0.471,0.277,0.572c0.266,0.468,0.529,0.936,0.775,1.415
				c0.699,1.36,1.145,2.558,0.84,4.125c-0.277,1.426-1.119,2.698-2.324,3.51C314.902,318.281,310.904,317.94,309.531,315.27z
				 M332.223,451.825c-0.381,0.4-0.73,0.824-1.057,1.268c-0.182,0.288-0.736,1.131-0.848,1.311
				c-0.855,1.392-1.705,2.815-2.711,4.104c-2.326,2.981-5.719,4.835-9.566,4.085c-6.553-1.277-5.076-10.914,0.926-10.911
				c0.213-0.253,0.434-0.499,0.623-0.771c0.016-0.022,0.025-0.035,0.041-0.056c0.033-0.056,0.074-0.122,0.127-0.206
				c1.299-2.076,2.502-4.305,4.201-6.086c2.066-2.165,5.443-2.543,7.764-0.501C333.902,445.981,334.295,449.654,332.223,451.825z
				 M326.605,369.618c-1.195-9.58-3.719-18.785-1.912-28.474c1.299-6.976,12.096-4.871,10.797,2.1
				c-1.594,8.554,1.029,17.056,2.086,25.526C338.457,375.83,327.48,376.624,326.605,369.618z M339.9,315.013
				c-2.797-6.542,7.611-10.119,10.383-3.637c5.367,12.555,12.955,24.198,12.293,38.395c-0.326,7.003-11.299,7.912-10.971,0.848
				C352.219,337.459,344.879,326.66,339.9,315.013z M371.49,403.244c-3.465,11.39-1.332,23.722-9.268,33.581
				c-4.447,5.528-12.707-1.739-8.264-7.262c6.158-7.652,4-19.438,6.734-28.419C362.736,394.429,373.555,396.46,371.49,403.244z"/>
		</g>
	</g>
	<g>
		<g>
			<path d="M63.75,377.657c-0.645,8.22-0.344,16.433,0.826,24.495v-31.835C64.236,372.75,63.943,375.194,63.75,377.657z"/>
		</g>
	</g>
	<g>
		<g>
			<path d="M436.271,40.861c0.154-2.496-1.098-5.174-4.131-6.065c-6.938-2.04-14.633-1.413-21.779-2.031
				c-9.486-0.821-18.965-3.278-28.316-5.018c-10.117-1.881-20.295-3.191-30.602-3.16c-9.717,0.029-19.674,2.1-29.008,4.67
				c-16.195,4.457-31.889,13.204-44.395,24.41c-8.971,8.04-19.352,19.033-23.072,31.255c-4.762,3.591-8.996,7.703-12.281,12.41
				c-0.92-5.683-2.279-11.248-4.303-16.522c-1.965-5.115-4.17-10.135-6.127-15.252c-0.932-2.432-1.773-4.895-2.494-7.396
				c-0.281-0.974-0.467-1.919-0.598-2.925c-0.076-0.593,0.193-1.304-0.148-0.595c1.629-3.389-0.369-6.352-3.064-7.441
				c-0.5-0.789-1.283-1.469-2.414-1.933c-10.025-4.112-38.258-10.677-38.982,6.728c-0.449,10.756,13.352,17.273,20.51,22.405
				c4.984,3.573,8.455,8.558,12.131,13.394c4.486,5.903,8.562,12.31,9.408,19.824c0.146,1.289,0.639,2.309,1.336,3.08
				c-8.098,1.443-15.924,4.359-23.426,8.963c-12.734,7.814-23.354,17.79-31.031,30.659c-7.654,12.831-10.787,27.384-14.25,41.72
				c-2.414,9.994-3.525,20.261-5.656,30.315c-1.172,5.53-3.197,10.923-4.568,16.421c-0.381,0.223-0.742,0.479-1.051,0.787
				c-19.982,19.982-40.129,39.393-55.855,63.062c-13.577,20.433-24.122,43.299-27.527,67.691v31.835
				c2.338,16.1,8.211,31.584,17.42,45.231c11.781,17.464,28.795,30.82,47.262,40.617c36.744,19.491,82.428,26.654,123.557,21.499
				c42.6-5.339,85.787-23.853,115.229-55.714c14.607-15.809,24.803-35.418,28.805-56.589c5.414-28.636-5.24-55.881-18.723-80.638
				c-15.193-27.896-31.936-54.82-45.268-83.713c-9.553-20.703-15.643-42.834-25.285-63.522
				c-10.779-23.131-26.211-43.684-49.336-54.943c-0.484-1.749-1.826-3.206-4.096-3.585c-1.922-0.321-3.83-0.567-5.729-0.76
				c1.248-3.242,3.004-6.203,5.178-8.891c0.914,1.566,2.572,2.681,4.926,2.534c18.041-1.124,32.512,14.108,46.725,23.009
				c15.199,9.519,36.273,14.113,54.035,11.539c20.422-2.96,32.148-21.807,42.199-37.994c10.602-17.073,18.383-37.891,34.691-50.479
				C439.488,47.19,439.012,42.903,436.271,40.861z M222.471,76.694c-3.117-3.941-6.098-7.531-10.141-10.559
				c-4.246-3.178-8.893-5.758-12.984-9.147c-1.203-0.996-2.426-2.157-3.062-3.612c-0.209-0.478-0.324-0.853-0.4-1.145
				c0.156-0.051,0.301-0.094,0.389-0.11c1.635-0.315,3.334-0.325,4.994-0.316c5.383,0.027,12.463,1.42,16.877,3.121
				c0.057,2.654,0.801,5.356,1.52,7.854c1.738,6.031,4.346,11.827,6.721,17.625c0.402,0.983,0.779,1.973,1.141,2.966
				C225.912,81.104,224.205,78.889,222.471,76.694z M249.516,123.68c0.594-0.112,1.164-0.247,1.719-0.403
				c41.617,18.976,52.48,67.107,68.156,106.065c11.527,28.651,27.973,55.507,43.303,82.226
				c14.424,25.139,28.447,52.32,23.586,82.221c-7.137,43.91-44.102,74.719-83.191,91.035c-18.908,7.893-38.611,12.529-58.574,14.21
				c0.131-0.825,0.074-1.721-0.23-2.657c-0.004-0.009-0.006-0.018-0.01-0.025c2.074-0.895,3.467-3.446,3.303-5.58
				c-0.25-3.274-2.916-4.904-5.908-5.062c-1.812-0.095-3.5-0.694-5.129-1.441c-1.73-0.794-3.473-0.586-4.891,0.195
				c-0.369-0.23-0.746-0.45-1.141-0.647c-1.662-0.83-3.326-1.08-4.904-0.898c-1.564-0.216-3.238,0.223-4.645,1.646
				c-0.455,0.461-0.873,0.941-1.275,1.434c-1.039,1.069-1.906,2.347-2.52,3.75c-1.359,3.116,0.059,5.791,2.279,7.055
				c0.482,0.891,1.203,1.701,2.201,2.319c0.338,0.21,0.678,0.397,1.018,0.587c-14.652-0.319-29.34-2.157-43.855-5.414
				c-40.617-9.113-81.617-31.567-97.738-71.988c-21.305-53.413,11.168-108.587,46.764-146.958
				c7.363-7.938,15.174-15.482,22.9-23.085c3.174,0.932,7.646-1.056,7.844-5.492c0.303-6.777,3.781-13.836,5.371-20.422
				c2.111-8.737,3.201-17.701,4.877-26.525c2.6-13.697,5.859-27.564,12.072-40.117c5.816-11.752,14.848-21.066,25.684-28.308
				c8.678-5.798,17.518-9.22,26.93-10.356c0.057,2.193,0.088,4.387,0.096,6.576c0.027,7.096,10.971,6.206,10.971-0.848v-2
				c0-0.104-0.01-0.202-0.014-0.303c-0.008-0.879-0.018-1.763-0.031-2.649c0.049-0.032,0.088-0.079,0.135-0.113
				C245.557,123.188,247.188,124.121,249.516,123.68z M396.164,87.747c-9.377,15.191-19.582,36.879-39.164,39.718
				c-17.691,2.563-37.051-3.777-51.514-13.666c-12.807-8.754-25.375-19.226-40.949-20.923c0.062-0.538,0.143-1.074,0.24-1.608
				c9.469-6.261,21.014-10.37,30.664-13.22c3.266-0.964,6.547-1.785,9.844-2.502c-0.039,0.068-0.082,0.131-0.121,0.201
				c-4.512,8.444,4.295,18.639,9.4,24.578c5.842,6.801,12.426,13.98,20.08,18.796c6.014,3.783,10.832-6.119,4.895-9.854
				c1.398,0.88-1.219-0.963-1.617-1.285c-1.221-0.987-2.395-2.031-3.562-3.078c-3.295-2.954-6.418-6.099-9.424-9.345
				c-2.75-2.971-5.279-6.161-7.502-9.546c-0.828-1.263-1.525-2.544-2.076-3.948c0.051,0.125-0.455-1.873-0.352-1.186
				c-0.01-0.065-0.02-0.116-0.031-0.166c0.016-0.023,0.027-0.043,0.043-0.072c1.482-2.772,0.379-5.267-1.6-6.65
				c4.299-0.716,8.619-1.282,12.961-1.757c0.289,0.382,0.641,0.75,1.082,1.092c5.852,4.54,11.424,9.495,16.711,14.665
				c2.631,2.57,6.609,4.98,8.795,7.85c0.461,0.604,1.203,1.186,1.975,1.709c0.805,2.738,3.465,4.988,6.969,3.836
				c3.41-1.121,5.996-4.185,4.678-7.938c-0.646-1.841-2.104-2.836-3.674-3.806c-1.764-1.089-1.477-0.995-3.555-2.694
				c-6.195-5.066-11.801-10.757-17.752-16.09c6.15-0.498,12.307-1.093,18.389-2.029c7.49,7.089,17.18,12.402,22.535,21.44
				c3.623,6.114,12.723-0.071,9.119-6.15c-4.447-7.508-11.422-12.669-18.1-18.099c4.688-1.26,9.285-2.869,13.762-4.912
				c1.096,0.963,2.594,1.488,4.203,1.571c-1.646-0.085-0.133,0.109,0.195,0.192c0.592,0.148,0.344,0.099,1.418,0.546
				c1.578,0.657,3.092,1.467,4.58,2.303c1.291,0.726,2.502,1.521,3.678,2.421c0.451,0.347,0.875,0.725,1.291,1.114
				c0.271,1.464,1.15,2.593,2.305,3.323C402.094,77.626,399.254,82.743,396.164,87.747z M411.184,62.222
				c-1.705-1.926-4.025-3.495-6.006-4.776c-4.178-2.704-8.875-5.237-13.902-5.671c-0.959-1.223-2.51-2.065-4.607-2.065h-2
				c-2.164,0-3.58,1.024-4.311,2.443c-14.875,5.944-30.793,7.036-46.74,8.302c-15.355,1.22-30.447,3.641-45.174,8.23
				c-4.93,1.537-10.143,3.439-15.299,5.744c3.992-5.101,8.77-9.663,13.045-13.391c11.82-10.304,26.334-17.669,41.391-21.813
				c18.799-5.175,37.076-3.575,55.98-0.002c8.631,1.632,17.322,3.701,26.082,4.459c4.947,0.428,10.135,0.225,15.131,0.853
				c-0.006,0.207-0.004,0.414,0.012,0.622C419.432,50.277,415.104,56.092,411.184,62.222z"/>
		</g>
	</g>
	<g>
		<g>
			<path d="M184.539,244.268c-2.668-1.323-6.064-0.216-7.375,2.479c-1.111,2.285-1.889,4.715-3,7
				c-1.311,2.694-0.221,6.035,2.48,7.374c2.668,1.323,6.064,0.216,7.373-2.479c1.111-2.285,1.891-4.715,3-7
				C188.328,248.947,187.238,245.606,184.539,244.268z"/>
		</g>
	</g>
	<g>
		<g>
			<path d="M158.723,282.062c-2.359-2.077-5.648-1.615-7.764,0.501c-2.137,2.138-4.264,4.279-6.205,6.6
				c-0.814,0.975-1.482,2.058-2.336,2.996c-0.137,0.148-0.262,0.308-0.383,0.469c-1.553,1.077-2.438,2.958-2.43,4.99
				c0.004,0.745,0.006,1.536,0.348,2.223c0.9,1.799,2.051,3.174,4.143,3.58c1.838,0.357,3.982-0.277,5.182-1.768
				c1.434-1.781,2.258-3.383,3.74-5.228c1.891-2.352,4.076-4.47,6.205-6.601C161.346,287.702,160.863,283.946,158.723,282.062z"/>
		</g>
	</g>
	<g>
		<g>
			<path d="M183.693,190.145c-1.125,7.451-2.951,14.757-5,22c-1.934,6.83,8.881,8.873,10.797,2.1c2.049-7.244,3.877-14.55,5-22
				C195.545,185.25,184.752,183.122,183.693,190.145z"/>
		</g>
	</g>
	<g>
		<g>
			<path d="M204.605,265.618v17c0,7.089,10.971,6.212,10.971-0.848v-17C215.576,257.682,204.605,258.559,204.605,265.618z"/>
		</g>
	</g>
	<g>
		<g>
			<path d="M243.65,234.119c-2.783-4.897-3.967-10.763-4.074-16.349c-0.135-7.09-11.105-6.226-10.971,0.848
				c0.145,7.53,2.205,15.108,5.926,21.651C238.043,246.446,247.137,240.249,243.65,234.119z"/>
		</g>
	</g>
	<g>
		<g>
			<path d="M306.65,278.119c-1.898-3.423-3.775-6.858-5.611-10.315c-3.123-5.884-8.211-11.344-9.463-18.033
				c-1.289-6.887-12.275-6.133-10.971,0.848c1.482,7.917,5.77,13.937,9.926,20.651c2.57,4.153,4.625,8.722,7,13
				C300.979,290.479,310.068,284.276,306.65,278.119z"/>
		</g>
	</g>
	<g>
		<g>
			<path d="M306.283,226.376c-2.35-7.391-8.088-12.549-11.633-19.257c-1.402-2.655-5.35-3.025-7.635-1.484
				c-2.684,1.81-2.883,4.987-1.484,7.635c3.078,5.828,8.344,10.372,10.369,16.743C298.049,236.774,308.432,233.138,306.283,226.376z
				"/>
		</g>
	</g>
	<g>
		<g>
			<path d="M350.283,311.376c-2.771-6.482-13.18-2.905-10.383,3.637c4.979,11.647,12.318,22.446,11.705,35.605
				c-0.328,7.064,10.645,6.155,10.971-0.848C363.238,335.574,355.65,323.931,350.283,311.376z"/>
		</g>
	</g>
	<g>
		<g>
			<path d="M337.576,368.771c-1.057-8.471-3.68-16.973-2.086-25.526c1.299-6.971-9.498-9.075-10.797-2.1
				c-1.807,9.688,0.717,18.894,1.912,28.474C327.48,376.624,338.457,375.83,337.576,368.771z"/>
		</g>
	</g>
	<g>
		<g>
			<path d="M360.693,401.145c-2.734,8.981-0.576,20.767-6.734,28.419c-4.443,5.522,3.816,12.79,8.264,7.262
				c7.936-9.859,5.803-22.191,9.268-33.581C373.555,396.46,362.736,394.429,360.693,401.145z"/>
		</g>
	</g>
	<g>
		<g>
			<path d="M331.723,444.062c-2.32-2.042-5.697-1.664-7.764,0.501c-1.699,1.781-2.902,4.01-4.201,6.086
				c-0.053,0.084-0.094,0.15-0.127,0.206c-0.016,0.021-0.025,0.033-0.041,0.056c-0.189,0.271-0.41,0.518-0.623,0.771
				c-6.002-0.003-7.479,9.634-0.926,10.911c3.848,0.75,7.24-1.104,9.566-4.085c1.006-1.289,1.855-2.713,2.711-4.104
				c0.111-0.18,0.666-1.022,0.848-1.311c0.326-0.443,0.676-0.867,1.057-1.268C334.295,449.654,333.902,445.981,331.723,444.062z"/>
		</g>
	</g>
	<g>
		<g>
			<path d="M318.65,309.119c-0.246-0.479-0.51-0.947-0.775-1.415c-0.051-0.102-0.182-0.357-0.277-0.572
				c-0.008-0.121-0.021-0.24-0.021-0.361c-0.088-2.996-3.027-5.282-5.908-5.062c-3.092,0.237-5.15,2.915-5.062,5.909
				c0.088,2.927,1.639,5.147,2.926,7.651c1.373,2.671,5.371,3.012,7.635,1.484c1.205-0.812,2.047-2.084,2.324-3.51
				C319.795,311.677,319.35,310.479,318.65,309.119z"/>
		</g>
	</g>
	<g>
		<g>
			<path d="M110.723,339.062c-2.049-1.804-6.062-1.97-7.764,0.501c-4.205,6.105-6.115,14.679-6.354,22.055
				c-0.096,3,3.17,5.271,5.91,5.062c3.229-0.247,4.965-2.915,5.061-5.909c-0.066,2.062,0.154-0.827,0.221-1.288
				c0.23-1.554,0.543-3.094,0.873-4.629c0.533-2.482,1.398-6.352,2.553-8.028C112.924,344.356,113.168,341.214,110.723,339.062z"/>
		</g>
	</g>
	<g>
		<g>
			<path d="M122.668,290.709c-3.207,0.246-4.996,2.914-5.062,5.909c0.023-1.007-0.1,0.698-0.107,0.751
				c-0.08,0.517-0.221,1.022-0.357,1.525c-0.037,0.135-0.062,0.232-0.082,0.313c-0.031,0.083-0.066,0.181-0.113,0.314
				c-0.262,0.741-0.527,1.48-0.781,2.225c-0.965,2.836-0.469,5.911,2.48,7.374c2.412,1.197,6.406,0.364,7.373-2.479
				c1.25-3.671,2.473-6.952,2.559-10.871C128.643,292.771,125.432,290.497,122.668,290.709z"/>
		</g>
	</g>
</g>
</svg>
