<?xml version="1.0" encoding="utf-8"?>
<!-- Generator: Adobe Illustrator 16.0.3, SVG Export Plug-In . SVG Version: 6.00 Build 0)  -->
<!DOCTYPE svg PUBLIC "-//W3C//DTD SVG 1.1//EN" "http://www.w3.org/Graphics/SVG/1.1/DTD/svg11.dtd">
<svg version="1.1" id="Layer_1" xmlns="http://www.w3.org/2000/svg" xmlns:xlink="http://www.w3.org/1999/xlink" x="0px" y="0px"
	 width="512px" height="512px" viewBox="0 0 512 512" style="enable-background:new 0 0 512 512;" xml:space="preserve">
<style type="text/css">
<![CDATA[
	.st0{fill:#127274;}
	.st1{fill:#14B6B9;}
	.st2{fill:#1E4384;}
	.st3{fill:#ED2224;}
	.st4{fill:#EF4823;}
	.st5{fill:#BCBCBC;}
	.st6{fill:#231F20;}
	.st7{fill:#F26824;}
	.st8{fill:#F3AD20;}
	.st9{fill:#F6851F;}
	.st10{fill:#C56528;}
	.st11{fill:#FCBF95;}
	.st12{fill:#FEBF10;}
	.st13{fill:none;}
	.st14{fill:#010101;}
	.st15{fill:#D4E2A9;}
	.st16{fill:#3AB37C;}
	.st17{fill:#085084;}
	.st18{fill:#D6E5E5;}
	.st19{fill:#71C598;}
	.st20{fill:#73A1B2;}
	.st21{fill:#74CCCF;}
]]>
</style>
<g>
	<g>
		<g>
			<path class="st16" d="M128.31,434.885c-2.611-1.939-6.351-2.337-9.388-3.241c-4.844-1.441-8.551-3.358-12.535-6.499
				c-5.297-4.176-10.453-5.754-17.062-6.612c-5.582-0.726-11.27-1.158-16.592-3.13c-5.941-2.202-10.711-6.024-14.998-10.428
				c6.706,9.156,14.395,17.605,23.166,25.058c13.05,11.088,27.691,19.44,43.346,25.744c2.154-2.84,4.523-5.563,5.729-8.816
				C131.16,443.763,131.502,437.256,128.31,434.885z"/>
		</g>
	</g>
	<g>
		<g>
			<path class="st16" d="M252.172,163.351c-6.504,0.279-12.77,0.704-19.291,0.314c-2.176-0.129-10.525-1.464-11.283,1.84
				c-1.42,6.183,0.824,12.574,5.625,16.61c4.661,3.919,10.396,6.979,13.861,12.151c3.423,5.111,2.396,10.254,4.199,15.759
				c0.004,0.009,0.006,0.015,0.008,0.022c0.922-0.627,1.734-1.314,2.506-2.14c2.207-2.362,4.256-4.882,6.086-7.55
				c4.012-5.851,4.612-12.387,4.703-19.205C258.521,175.246,258.029,163.1,252.172,163.351z"/>
		</g>
	</g>
	<g>
		<g>
			<path class="st16" d="M156.129,180.044c-1.63-2.369-5.689-4.083-8.456-4.123c-5.849-0.084-11.288,0.67-16.903,2.304
				c-10.264,2.987-20.248,4.655-30.949,2.999c-8.909-1.378-16.568-5.58-21.94-12.936c-2.692-3.686-4.283-7.736-6.486-11.683
				c-1.9-3.407-3.297-5.332-7.419-4.706c-0.492,0.074-0.945,0.078-1.369,0.031c-0.74,0.595-1.641,0.969-2.631,0.969h-2.366
				c-1.503,1.143-3.444,1.229-5.133,0.464c-7.243,12.529-13.053,25.84-17.108,39.794c0.016,0.859-0.206,1.748-0.737,2.609
				c-0.39,1.424-0.766,2.853-1.118,4.289c-0.502,1.012-0.959,2.035-1.391,3.066c-0.131,0.949-0.26,1.871-0.445,2.698
				c-0.922,4.108-1.982,8.179-2.732,12.326c-1.385,7.654-1.136,15.72-3.812,23.022c-0.234,2.114-0.49,4.22-0.794,6.306
				c-0.037,0.256-0.024,0.492,0.01,0.719c-0.475,4.389-0.883,8.791-1.287,13.205c-0.691,7.546-1.062,15.118-1.087,22.696
				c2.5-2.905,5.687-5.023,7.47-8.665c3.85-7.857,5.245-16.156,11.03-23.102c4.554-5.467,10.665-9.758,17.714-11.256
				c8.274-1.757,16.209-0.771,24.572-0.862c8.238-0.091,16.889-1.296,23.143-7.229c6.951-6.593,12.018-15.639,20.449-20.523
				c4.665-2.703,10.1-3.663,15.042-5.693c3.884-1.597,7.978-4.072,11.279-6.695c4.546-3.609,5.595-8.354,5.845-13.572
				C155.832,185.395,155.201,182.399,156.129,180.044z"/>
		</g>
	</g>
	<g>
		<g>
			<path class="st21" d="M346.834,432.613c3.122-4.252,4.604-11.01,3.915-16.215c-0.747-5.642-5.683-9.975-6.671-15.732
				c-1.103-6.423,1.557-13.041,2.369-19.407c0.725-5.675,1.459-11.49,0.791-17.21c-1.243-10.65-8.934-19.897-20.456-16.792
				c-8.368,2.255-17.177,7.532-26.138,5.603c-5.059-1.09-10.227-3.887-13.048-8.379c-2.931-4.667-3.661-9.946-6.024-14.81
				c-2.566-5.283-9.418-5.961-14.562-6.723c-5.128-0.76-10.93-1.391-15.468-4.123c-17.954-10.813-16.137-33.723-11.862-51.846
				c-4.749-2.677-1.436-10.671,1.162-14.393c3.855-5.523,8.854-11.221,15.465-13.329c10.261-3.271,21.166-2.841,31.794-2.507
				c4.241,0.134,10.275,1.252,14.237-0.589c1.528-0.71,2-3.923,2.626-5.336c3.832-8.651,12.777-15.19,21.965-17.146
				c2.819-0.6,5.619-0.977,8.439-1.203c-1.42-1.288-2.861-2.559-4.377-3.732c-4.365-3.382-9.579-2.938-14.646-0.832
				c-7.359,3.061-13.438,7.76-21.402,9.543c-5.962,1.335-13.773,2.568-18.886-1.791c-5.942-5.066-4.007-13.033-1.25-19.29
				c-1.552-4.346-1.675-8.968,0.321-13.224c1.619-3.455,4.197-6.256,6.037-9.564c4.094-7.361-2.469-12.278-6.346-18.013
				c-11.492-16.999,8.129-38.957,26.225-37.701c3.479,0.241,11.713,2.771,14.329-0.544c2.302-2.916,1.034-8.41,0.644-11.761
				c-0.925-7.923-1.799-15.167,3.654-21.595c4.857-5.727,18.438-17.657,28.068-16.029C306.27,48.117,259.043,38.003,213.273,45.23
				c-0.99,0.157-1.98,0.326-2.971,0.496c3.777,4.186,5.711,9.853,3.478,15.334c-4.403,10.803-15.954,17.919-24.151,25.6
				c-8.35,7.826-13.784,16.613-16.193,27.817c-1.801,8.377-3.131,18.087-9.316,24.571c-5.854,6.135-18.867,12.773-27.162,8.085
				c-8.324-4.704-6.152-22.326-19.763-18.434c-9.479,2.711-16.343,15.135-27.229,13.208c-4.883-0.864-8.618-3.93-11.252-8.039
				c-0.902-1.406-1.627-2.715-2.488-3.749c-1.984,2.125-5.651,2.745-7.734-0.349c-3.359,4.263-6.533,8.655-9.529,13.156h0.244
				c0.477,0,0.938,0.071,1.386,0.174c0.675-0.584,1.541-1.011,2.614-1.174c5.54-0.842,10.691,1.002,14.146,5.492
				c3.051,3.966,4.395,8.857,7.188,12.962c6.93,10.185,17.963,12.686,29.846,11.406c12.646-1.361,25.828-9.099,38.828-5.192
				c5.84,1.756,9.498,5.393,12.258,10.665c1.734,0.476,3.113,1.869,3.105,4.269c-0.023,7.398-0.153,15.24-4.797,21.414
				c-4.738,6.299-13.205,11.261-20.541,13.803c-5.002,1.734-11.289,2.841-15.18,6.694c-3.379,3.346-6.723,7.083-9.713,10.774
				c-5.153,6.364-11.801,11.871-19.853,14.044c-8.761,2.364-17.276,1.684-26.224,1.524c-7.109-0.126-14.604,0.473-20.352,5.129
				c-6.949,5.631-8.898,13.599-12.004,21.525c-1.604,4.095-4.057,8.812-7.529,11.621c-3.341,2.705-4.312,4.13-3.809,8.471
				c0.455,3.916-3.074,5.709-6.067,5.072c0.892,13.853,2.892,27.654,6.384,41.084c4.553,17.505,11.381,34.484,20.652,49.94
				c1.127-3.161,6.248-5.024,9.189-1.508c3.689,4.409,7.494,9.086,12.305,12.336c4.865,3.287,9.937,3.557,15.505,4.552
				c6.536,1.168,13.331,1.36,19.276,4.7c4.789,2.692,8.668,7.235,13.982,8.817c7.646,2.275,17.268,3.833,19.744,12.841
				c1.491,5.426,1.836,11.835-0.613,17.047c-1.358,2.89-3.322,5.367-5.194,7.904c3.161,1.085,6.353,2.104,9.579,3.044
				c25.01,7.289,51.033,11.408,77.107,11.471c44.902,0.11,89.975-10.561,128.863-33.061
				C346.498,439.64,344.462,435.84,346.834,432.613z M215.383,183.794c-4.09-6.658-6.912-18.872-1.024-25.446
				c4.962-5.541,12.608-4.965,19.376-4.562c4.447,0.266,8.916,0.369,13.359-0.062c3.63-0.354,8.18-0.988,11.441,1.15
				c7.061,4.629,9.136,12.84,9.768,20.959c0.174,0.496,0.273,1.06,0.273,1.695c-0.001,1.036-0.014,2.053-0.035,3.062
				c0.016,0.652,0.027,1.3,0.035,1.938c0.006,0.488-0.052,0.939-0.153,1.362c-0.464,8.698-2.19,16.507-7.706,24.027
				c-3.939,5.37-11.738,15.794-19.808,11.749c-8.147-4.083-3.599-13.857-8.115-19.808
				C227.969,193.505,219.662,190.761,215.383,183.794z"/>
		</g>
	</g>
	<g>
		<g>
			<path class="st16" d="M201.693,51.482c-0.452-0.334-0.911-0.663-1.381-0.976c-1.906,0.538-4.183,0.063-5.549-1.515
				c-44.217,10.987-86.355,35.851-117.122,69.941c1.75,0.655,3.384,1.639,4.849,3.084c2.445,2.416,3.547,6.008,6.025,8.307
				c6.096,5.652,15.745-7.293,21.42-9.705c9.092-3.863,21.298-2.893,26.799,6.499c1.982,3.382,2.748,7.858,4.971,10.99
				c1.344,1.894,9.121-1.462,10.811-2.482c7.242-4.376,8.812-12.094,10.425-19.842c1.845-8.863,4.35-17.344,9.581-24.872
				c6.12-8.809,14.752-14.873,22.439-22.165c2.904-2.755,9.254-7.744,9.72-11.963C204.951,54.341,203.473,52.796,201.693,51.482z"/>
		</g>
	</g>
	<g>
		<g>
			<path class="st16" d="M353.414,70.724c-0.317-0.161-0.639-0.315-0.957-0.475c0.834,0.76,1.602,1.695,2.277,2.868
				c3.203,5.56-5.064,11.189-8.289,5.592c-1.645-2.854-10.406,3.721-12.23,5.151c-4.454,3.491-9.338,7.262-8.977,13.273
				c0.439,7.299,3.537,17.331-0.523,24.116c-4.521,7.553-12.295,7.918-20.261,6.972c-4.562-0.542-9.313-0.967-13.356,1.765
				c-3.986,2.692-7.363,6.669-9.072,11.209c-2.387,6.334,2.218,9.893,5.645,14.634c4.32,5.979,6.863,13.363,3.396,20.408
				c-2.689,5.465-9.174,10.449-6.757,17.022c0.462,1.258,0.418,2.394,0.046,3.354c0.33,1.048,0.297,2.253-0.287,3.524
				c-0.771,1.683-3.016,6.092-1.768,7.712c0.545,0.706,3.063,0.914,4.627,0.806c5.914-0.412,12.193-2.376,17.25-5.506
				c7.684-4.757,20.58-10.623,29.302-4.844c4.403,2.918,12.031,7.641,13.83,12.954c0.121,0.358,0.2,0.706,0.245,1.044
				c2.57,0.048,5.156,0.012,7.557-0.469c5.707-1.14,12.198-4.758,17.951-6.982c2.696-1.043,8.088-3.248,11.468-1.997
				c0.687-0.524,1.573-0.87,2.675-0.929c0.846-0.046,1.67-0.041,2.48-0.006c0.949-12.573,25.057-11.123,33.436-12.467
				c2.688-0.43,5.297-0.738,7.062-2.896c2.816-3.44,2.112-8.118,3.147-12.213c1.093-4.323,3.269-9.065,7.415-11.287
				c2.948-1.579,6.34-2.326,9.048-4.29c0.478-0.348,0.958-0.591,1.434-0.748C428.814,120.223,392.066,90.275,353.414,70.724z"/>
		</g>
	</g>
	<g>
		<g>
			<path class="st16" d="M411.76,238.576c-3.508-10.545-10.15-27.411-23.785-26.676c-0.919,0.05-1.719-0.116-2.402-0.429
				c-1.383,1.196-3.293,1.731-4.887,1.298c-0.027,0-0.056,0.001-0.084,0c-0.068,0.021-0.137,0.038-0.203,0.06
				c-1.059,0.351-2.109,0.722-3.15,1.124c-2.883,1.114-5.734,2.311-8.594,3.487c-4.263,1.75-8.995,4.189-13.68,4.46
				c-14.756,0.856-35.141-2.303-41.68,14.958c-2.113,5.577-5.812,9.077-11.951,9.775c-8.078,0.919-16.366-0.257-24.48-0.119
				c-6.797,0.116-16.129-0.071-21.408,4.479c-2.206,1.9-4.205,4.217-5.928,6.559c-0.502,0.684-0.976,1.385-1.408,2.111
				c1.811,0.841,3.049,2.658,2.379,5.204c-0.293,1.112-0.586,2.225-0.851,3.344c-2.341,9.87-4.765,21.677-1.35,31.585
				c1.726,5.01,4.896,9.299,10.05,11.172c5.104,1.855,10.66,1.861,15.912,3.089c5.309,1.241,10.987,3.36,14.298,7.983
				c3.13,4.369,3.778,9.535,5.944,14.325c4.803,10.623,15.531,5.945,23.752,3.084c9.371-3.26,19.045-4.332,27.515,1.884
				c9.686,7.107,12.058,19.041,11.575,30.383c-0.262,6.145-0.705,12.809-2.209,18.783c-0.838,3.325-1.91,6.367-0.825,9.761
				c0.874,2.735,2.532,5.08,3.878,7.601c4.671,8.755,2.843,20.422-2.219,28.878c3.389-2.12,6.73-4.321,10.01-6.63
				c13.586-9.56,26.59-20.812,38.569-33.365c-0.742-0.965-1.126-2.242-0.866-3.784c1.141-6.756,2.832-12.955,5.84-19.104
				c4.695-9.601,5.969-18.891,4.455-29.567c-0.954-6.734-2.622-13.297-4.07-19.933c-1.172-5.365-2.834-11.136-2.779-16.661
				c0.1-10.084,4.854-17.898,8.33-27.039C420.341,267.812,415.932,251.123,411.76,238.576z"/>
		</g>
	</g>
	<g>
		<g>
			<path class="st21" d="M415.986,383.979c50.103-59.48,77.031-142.248,41.611-214.212c-0.529-1.074-1.078-2.138-1.629-3.199
				c-0.179,0.17-0.368,0.335-0.584,0.49c-2.788,2.023-6.258,2.468-9.047,4.291c-3.785,2.475-3.513,7.437-4.152,11.438
				c-1.088,6.816-5.164,13.416-12.168,15.36c-6.288,1.744-12.867,2.015-19.312,2.815c-2.992,0.371-6.092,0.683-8.961,1.668
				c-0.781,0.269-1.549,0.518-2.23,0.969c-0.002,0.071-0.008,0.156-0.016,0.269c-0.014,0.191-0.037,0.374-0.066,0.55
				c9.342,4.628,15.641,14.889,19.533,24.705c3.072,7.748,5.194,15.85,6.664,24.048c1.133,6.316,2.46,13.249,1.869,19.697
				c-0.992,10.824-8.227,19.319-9.98,29.779c-1.123,6.694,0.734,13.66,2.227,20.175c1.434,6.266,3.051,12.547,3.953,18.919
				c1.575,11.114,1.346,22.476-3.426,32.804C418.793,377.75,417.141,380.727,415.986,383.979z"/>
		</g>
	</g>
	<g>
		<g>
			<path class="st16" d="M381.693,212.447c-0.354,0.095-0.704,0.201-1.054,0.311c0.016,0.005,0.031,0.008,0.046,0.012
				C381.518,212.771,382.092,212.336,381.693,212.447z"/>
		</g>
	</g>
	<g>
		<g>
			<path class="st16" d="M378.027,210.138c0.613,2.059,1.712,2.597,2.574,2.631c0.012-0.004,0.025-0.008,0.038-0.012
				C379.491,212.43,378.514,211.598,378.027,210.138z"/>
		</g>
	</g>
	<g>
		<g>
			<path d="M380.64,212.757c-0.013,0.004-0.026,0.008-0.038,0.012c0.028,0.001,0.057,0,0.084,0
				C380.671,212.765,380.655,212.762,380.64,212.757z"/>
		</g>
	</g>
	<g>
		<g>
			<path d="M457.285,148.839c-25.207-40.398-65.945-71.646-108.667-91.566c-43.312-20.195-92.884-29.541-140.296-21.322
				c-81.824,14.183-159.953,74.66-182.875,155.631c-3.336,5.541-3.768,13.082-5.205,19.19c-1.014,4.303-1.729,8.689-2.326,13.068
				c-0.059,0.433-0.109,0.865-0.156,1.296c-0.097,0.263-0.188,0.532-0.248,0.832c-0.836,4.189-1.517,8.409-2.104,12.646
				c-0.033,0.074-0.061,0.148-0.096,0.223c-0.533,1.158-0.605,2.259-0.366,3.238c-1.014,8.078-1.688,16.207-2.263,24.316
				c-0.812,11.434-0.903,22.898-0.26,34.343c1.252,22.286,5.646,44.519,13.34,65.481c15.342,41.799,45.506,76.547,86.127,95.293
				c3.162,1.459,6.377,2.823,9.629,4.113c1.25,1.69,3.553,2.617,5.559,2.109c18.889,6.877,38.965,11.17,58.684,13.736
				c25.529,3.324,51.527,3.104,76.998-0.598c50.869-7.389,98.494-29.662,136.101-64.753c36.374-33.94,64.978-77.57,78.112-125.768
				C490.088,242.23,483.777,191.295,457.285,148.839z M354.734,73.118c-0.676-1.173-1.443-2.108-2.277-2.868
				c0.318,0.159,0.64,0.314,0.957,0.475c38.652,19.551,75.4,49.499,97.813,87.297c-0.476,0.157-0.956,0.4-1.434,0.748
				c-2.708,1.964-6.1,2.711-9.048,4.29c-4.146,2.222-6.322,6.964-7.415,11.287c-1.035,4.095-0.331,8.772-3.147,12.213
				c-1.766,2.157-4.375,2.466-7.062,2.896c-8.379,1.344-32.486-0.106-33.436,12.467c-0.811-0.035-1.635-0.04-2.48,0.006
				c-1.102,0.06-1.988,0.405-2.675,0.929c-3.38-1.251-8.771,0.954-11.468,1.997c-5.753,2.225-12.244,5.843-17.951,6.982
				c-2.4,0.48-4.986,0.517-7.557,0.469c-0.045-0.338-0.124-0.686-0.245-1.044c-1.799-5.313-9.427-10.036-13.83-12.954
				c-8.722-5.779-21.618,0.087-29.302,4.844c-5.057,3.13-11.336,5.094-17.25,5.506c-1.563,0.108-4.082-0.1-4.627-0.806
				c-1.248-1.62,0.996-6.029,1.768-7.712c0.584-1.271,0.617-2.477,0.287-3.524c0.372-0.96,0.416-2.096-0.046-3.354
				c-2.417-6.573,4.067-11.558,6.757-17.022c3.467-7.045,0.924-14.43-3.396-20.408c-3.427-4.741-8.031-8.3-5.645-14.634
				c1.709-4.54,5.086-8.517,9.072-11.209c4.043-2.731,8.795-2.307,13.356-1.765c7.966,0.946,15.74,0.581,20.261-6.972
				c4.061-6.785,0.963-16.817,0.523-24.116c-0.361-6.012,4.522-9.782,8.977-13.273c1.824-1.431,10.586-8.005,12.23-5.151
				C349.67,84.307,357.938,78.677,354.734,73.118z M194.764,48.992c1.366,1.578,3.643,2.053,5.549,1.515
				c0.47,0.312,0.929,0.642,1.381,0.976c1.779,1.314,3.258,2.859,2.987,5.302c-0.466,4.219-6.815,9.208-9.72,11.963
				c-7.688,7.292-16.319,13.356-22.439,22.165c-5.231,7.528-7.736,16.009-9.581,24.872c-1.612,7.748-3.183,15.466-10.425,19.842
				c-1.689,1.021-9.467,4.376-10.811,2.482c-2.223-3.132-2.988-7.608-4.971-10.99c-5.501-9.392-17.707-10.362-26.799-6.499
				c-5.675,2.412-15.324,15.357-21.42,9.705c-2.479-2.299-3.58-5.891-6.025-8.307c-1.465-1.445-3.099-2.429-4.849-3.084
				C108.408,84.842,150.547,59.979,194.764,48.992z M23.061,261.398c0.404-4.414,0.812-8.816,1.287-13.205
				c-0.034-0.227-0.047-0.463-0.01-0.719c0.304-2.086,0.56-4.191,0.794-6.306c2.676-7.302,2.427-15.368,3.812-23.022
				c0.75-4.147,1.811-8.217,2.732-12.326c0.186-0.827,0.314-1.749,0.445-2.698c0.432-1.031,0.889-2.055,1.391-3.066
				c0.353-1.437,0.729-2.865,1.118-4.289c0.531-0.861,0.753-1.75,0.737-2.609c4.056-13.954,9.865-27.265,17.108-39.794
				c1.688,0.765,3.63,0.679,5.133-0.464h2.366c0.99,0,1.891-0.374,2.631-0.969c0.424,0.047,0.877,0.043,1.369-0.031
				c4.122-0.626,5.519,1.299,7.419,4.706c2.203,3.947,3.794,7.998,6.486,11.683c5.372,7.355,13.031,11.558,21.94,12.936
				c10.701,1.656,20.686-0.012,30.949-2.999c5.615-1.634,11.055-2.388,16.903-2.304c2.767,0.04,6.826,1.754,8.456,4.123
				c-0.928,2.354-0.297,5.351,2.389,6.451c-0.25,5.219-1.299,9.963-5.845,13.572c-3.302,2.623-7.396,5.099-11.279,6.695
				c-4.942,2.03-10.377,2.99-15.042,5.693c-8.432,4.885-13.498,13.931-20.449,20.523c-6.254,5.934-14.904,7.139-23.143,7.229
				c-8.363,0.092-16.298-0.895-24.572,0.862c-7.049,1.498-13.16,5.789-17.714,11.256c-5.785,6.945-7.181,15.244-11.03,23.102
				c-1.783,3.642-4.97,5.76-7.47,8.665C21.998,276.516,22.369,268.944,23.061,261.398z M129.975,446.96
				c-1.205,3.253-3.574,5.977-5.729,8.816c-15.654-6.304-30.296-14.656-43.346-25.744c-8.771-7.452-16.46-15.901-23.166-25.058
				c4.287,4.403,9.057,8.226,14.998,10.428c5.322,1.972,11.01,2.404,16.592,3.13c6.609,0.858,11.766,2.437,17.062,6.612
				c3.984,3.141,7.691,5.058,12.535,6.499c3.037,0.904,6.776,1.302,9.388,3.241C131.502,437.256,131.16,443.763,129.975,446.96z
				 M349.289,440.769c-38.889,22.5-83.961,33.17-128.863,33.061c-26.074-0.062-52.098-4.182-77.107-11.471
				c-3.227-0.94-6.418-1.959-9.579-3.044c1.872-2.537,3.836-5.014,5.194-7.904c2.449-5.212,2.104-11.621,0.613-17.047
				c-2.477-9.008-12.098-10.565-19.744-12.841c-5.314-1.582-9.193-6.125-13.982-8.817c-5.945-3.34-12.74-3.532-19.276-4.7
				c-5.568-0.995-10.64-1.265-15.505-4.552c-4.811-3.25-8.615-7.927-12.305-12.336c-2.941-3.517-8.062-1.653-9.189,1.508
				c-9.271-15.456-16.1-32.436-20.652-49.94c-3.492-13.43-5.492-27.231-6.384-41.084c2.993,0.637,6.522-1.156,6.067-5.072
				c-0.504-4.34,0.468-5.766,3.809-8.471c3.473-2.81,5.926-7.526,7.529-11.621c3.105-7.927,5.055-15.895,12.004-21.525
				c5.748-4.656,13.242-5.255,20.352-5.129c8.947,0.159,17.463,0.84,26.224-1.524c8.052-2.173,14.699-7.68,19.853-14.044
				c2.99-3.691,6.334-7.429,9.713-10.774c3.891-3.854,10.178-4.96,15.18-6.694c7.336-2.542,15.803-7.504,20.541-13.803
				c4.644-6.174,4.773-14.016,4.797-21.414c0.008-2.399-1.371-3.793-3.105-4.269c-2.76-5.272-6.418-8.909-12.258-10.665
				c-13-3.907-26.183,3.831-38.828,5.192c-11.883,1.279-22.916-1.222-29.846-11.406c-2.793-4.104-4.137-8.996-7.188-12.962
				c-3.455-4.49-8.606-6.334-14.146-5.492c-1.073,0.163-1.939,0.59-2.614,1.174c-0.448-0.103-0.909-0.174-1.386-0.174h-0.244
				c2.996-4.501,6.17-8.894,9.529-13.156c2.083,3.094,5.75,2.474,7.734,0.349c0.861,1.034,1.586,2.343,2.488,3.749
				c2.634,4.109,6.369,7.175,11.252,8.039c10.887,1.927,17.75-10.497,27.229-13.208c13.61-3.893,11.438,13.729,19.763,18.434
				c8.295,4.688,21.309-1.95,27.162-8.085c6.186-6.484,7.516-16.194,9.316-24.571c2.409-11.205,7.844-19.991,16.193-27.817
				c8.197-7.681,19.748-14.797,24.151-25.6c2.233-5.481,0.3-11.148-3.478-15.334c0.99-0.17,1.98-0.339,2.971-0.496
				c45.77-7.227,92.996,2.887,134.467,22.713c-9.63-1.628-23.211,10.303-28.068,16.029c-5.453,6.428-4.579,13.672-3.654,21.595
				c0.391,3.351,1.658,8.845-0.644,11.761c-2.616,3.314-10.851,0.785-14.329,0.544c-18.096-1.256-37.717,20.702-26.225,37.701
				c3.877,5.734,10.439,10.651,6.346,18.013c-1.84,3.309-4.418,6.109-6.037,9.564c-1.996,4.256-1.873,8.878-0.321,13.224
				c-2.757,6.257-4.692,14.224,1.25,19.29c5.112,4.359,12.924,3.126,18.886,1.791c7.965-1.783,14.043-6.482,21.402-9.543
				c5.067-2.105,10.281-2.55,14.646,0.832c1.516,1.174,2.957,2.445,4.377,3.732c-2.82,0.227-5.62,0.604-8.439,1.203
				c-9.188,1.955-18.133,8.494-21.965,17.146c-0.626,1.413-1.098,4.626-2.626,5.336c-3.962,1.841-9.996,0.723-14.237,0.589
				c-10.628-0.334-21.533-0.765-31.794,2.507c-6.61,2.108-11.609,7.806-15.465,13.329c-2.598,3.722-5.911,11.716-1.162,14.393
				c-4.274,18.123-6.092,41.032,11.862,51.846c4.538,2.732,10.34,3.363,15.468,4.123c5.144,0.762,11.995,1.439,14.562,6.723
				c2.363,4.864,3.094,10.143,6.024,14.81c2.821,4.493,7.989,7.29,13.048,8.379c8.961,1.93,17.77-3.348,26.138-5.603
				c11.522-3.105,19.213,6.142,20.456,16.792c0.668,5.72-0.066,11.535-0.791,17.21c-0.812,6.366-3.472,12.984-2.369,19.407
				c0.988,5.757,5.924,10.09,6.671,15.732c0.689,5.206-0.793,11.963-3.915,16.215C344.462,435.84,346.498,439.64,349.289,440.769z
				 M409.906,324.355c1.448,6.636,3.116,13.199,4.07,19.933c1.514,10.676,0.24,19.966-4.455,29.567
				c-3.008,6.149-4.699,12.348-5.84,19.104c-0.26,1.542,0.124,2.819,0.866,3.784c-11.979,12.553-24.983,23.806-38.569,33.365
				c-3.279,2.309-6.621,4.51-10.01,6.63c5.062-8.456,6.89-20.123,2.219-28.878c-1.346-2.521-3.004-4.865-3.878-7.601
				c-1.085-3.394-0.013-6.436,0.825-9.761c1.504-5.975,1.947-12.639,2.209-18.783c0.482-11.342-1.89-23.275-11.575-30.383
				c-8.47-6.216-18.144-5.144-27.515-1.884c-8.221,2.861-18.949,7.539-23.752-3.084c-2.166-4.79-2.814-9.956-5.944-14.325
				c-3.311-4.623-8.989-6.742-14.298-7.983c-5.252-1.228-10.809-1.233-15.912-3.089c-5.154-1.873-8.324-6.162-10.05-11.172
				c-3.415-9.908-0.991-21.715,1.35-31.585c0.265-1.119,0.558-2.231,0.851-3.344c0.67-2.546-0.568-4.363-2.379-5.204
				c0.433-0.727,0.906-1.428,1.408-2.111c1.723-2.342,3.722-4.658,5.928-6.559c5.279-4.551,14.611-4.363,21.408-4.479
				c8.114-0.138,16.402,1.038,24.48,0.119c6.139-0.698,9.838-4.198,11.951-9.775c6.539-17.261,26.924-14.102,41.68-14.958
				c4.685-0.271,9.417-2.71,13.68-4.46c2.859-1.176,5.711-2.373,8.594-3.487c1.041-0.402,2.092-0.773,3.15-1.124
				c0.066-0.021,0.135-0.038,0.203-0.06c-0.862-0.034-1.961-0.572-2.574-2.631c0.486,1.46,1.464,2.292,2.612,2.619
				c0.35-0.109,0.7-0.216,1.054-0.311c0.398-0.11-0.176,0.325-1.008,0.322c1.594,0.434,3.504-0.102,4.887-1.298
				c0.684,0.312,1.483,0.479,2.402,0.429c13.635-0.735,20.277,16.131,23.785,26.676c4.172,12.547,8.581,29.236,3.697,42.08
				c-3.477,9.141-8.23,16.955-8.33,27.039C407.072,313.219,408.734,318.991,409.906,324.355z M415.986,383.979
				c1.154-3.252,2.807-6.23,4.285-9.435c4.771-10.328,5.001-21.69,3.426-32.804c-0.902-6.372-2.52-12.653-3.953-18.919
				c-1.492-6.516-3.35-13.481-2.227-20.175c1.754-10.459,8.988-18.955,9.98-29.779c0.591-6.448-0.736-13.381-1.869-19.697
				c-1.47-8.198-3.592-16.3-6.664-24.048c-3.893-9.816-10.191-20.077-19.533-24.705c0.029-0.176,0.053-0.358,0.066-0.55
				c0.008-0.112,0.014-0.197,0.016-0.269c0.682-0.451,1.449-0.7,2.23-0.969c2.869-0.985,5.969-1.297,8.961-1.668
				c6.445-0.8,13.024-1.071,19.312-2.815c7.004-1.944,11.08-8.543,12.168-15.36c0.64-4.002,0.367-8.964,4.152-11.438
				c2.789-1.823,6.259-2.268,9.047-4.291c0.216-0.155,0.405-0.32,0.584-0.49c0.551,1.062,1.1,2.125,1.629,3.199
				C493.018,241.732,466.089,324.5,415.986,383.979z"/>
		</g>
	</g>
	<g>
		<g>
			<path d="M268.576,177.529c0-0.636-0.1-1.199-0.273-1.695c-0.632-8.119-2.707-16.33-9.768-20.959
				c-3.262-2.139-7.812-1.504-11.441-1.15c-4.443,0.432-8.912,0.328-13.359,0.062c-6.768-0.403-14.414-0.979-19.376,4.562
				c-5.888,6.574-3.065,18.788,1.024,25.446c4.279,6.967,12.586,9.711,17.411,16.065c4.517,5.95-0.032,15.725,8.115,19.808
				c8.069,4.045,15.868-6.379,19.808-11.749c5.516-7.521,7.242-15.329,7.706-24.027c0.102-0.423,0.159-0.874,0.153-1.362
				c-0.008-0.639-0.02-1.286-0.035-1.938C268.562,179.582,268.575,178.564,268.576,177.529z M253.883,200.359
				c-1.83,2.668-3.879,5.188-6.086,7.55c-0.771,0.825-1.584,1.513-2.506,2.14c-0.002-0.008-0.004-0.014-0.008-0.022
				c-1.803-5.504-0.776-10.647-4.199-15.759c-3.465-5.173-9.2-8.232-13.861-12.151c-4.801-4.036-7.045-10.427-5.625-16.61
				c0.758-3.304,9.107-1.969,11.283-1.84c6.521,0.39,12.787-0.035,19.291-0.314c5.857-0.251,6.35,11.895,6.414,17.803
				C258.495,187.972,257.895,194.508,253.883,200.359z"/>
		</g>
	</g>
</g>
</svg>
