<?xml version="1.0" encoding="utf-8"?>
<!-- Generator: Adobe Illustrator 16.0.3, SVG Export Plug-In . SVG Version: 6.00 Build 0)  -->
<!DOCTYPE svg PUBLIC "-//W3C//DTD SVG 1.1//EN" "http://www.w3.org/Graphics/SVG/1.1/DTD/svg11.dtd">
<svg version="1.1" id="Layer_1" xmlns="http://www.w3.org/2000/svg" xmlns:xlink="http://www.w3.org/1999/xlink" x="0px" y="0px"
	 width="512px" height="512px" viewBox="0 0 512 512" style="enable-background:new 0 0 512 512;" xml:space="preserve">
<style type="text/css">
<![CDATA[
	.st0{fill:#127274;}
	.st1{fill:#14B6B9;}
	.st2{fill:#1E4384;}
	.st3{fill:#EF4754;}
	.st4{fill:#EF4823;}
	.st5{fill:#BCBCBC;}
	.st6{fill:#F6851F;}
	.st7{fill:#C56528;}
	.st8{fill:#FCBF95;}
	.st9{fill:#FEBF10;}
	.st10{fill:none;}
	.st11{fill:#010101;}
	.st12{fill:#3AB37C;}
	.st13{fill:#D6E5E5;}
	.st14{fill:#71C598;}
	.st15{fill:#74CCCF;}
]]>
</style>
<g>
	<g>
		<g>
			<path class="st3" d="M190.722,89.539c-9.702-0.938-19.621-1.195-29.313,0.004c-7.498,0.928-16.924,2.389-21.627,9.004
				c-0.676,0.951-1.477,1.508-2.311,1.758c-5.657,8.867-10.709,18.533-14.155,28.373c-1.964,5.609-3.583,11.369-4.836,17.215
				c27.046-24.773,67.712-36.609,102.456-22.549c5.337-5.211,11.949-9.27,18.92-11.947
				C231.418,94.289,208.095,91.217,190.722,89.539z"/>
		</g>
	</g>
	<g>
		<g>
			<path class="st8" d="M121.781,156.547c-1.612,1.648-3.619,1.852-5.321,1.227c-2.271,18.199-0.842,36.842,5.152,54.199
				c2.342-6.504,6.925-12.098,11.523-17.389c6.969-8.02,12.929-16.729,20.763-24.01c7.906-7.348,16.553-13.826,26.488-18.184
				c9.24-4.051,19.018-6.186,28.889-8.061c0.206-1.158,0.465-2.309,0.797-3.447c0.976-3.342,2.428-6.471,4.241-9.377
				C182.383,120.061,144.941,132.865,121.781,156.547z"/>
		</g>
	</g>
	<g>
		<g>
			<path class="st3" d="M186.992,324.521c-7.619-3.826-5.81-11.617-0.322-16.348c6.248-5.387,14.438-8.785,21.979-11.932
				c3.355-1.398,6.742-3.082,10.188-4.639c-6.88-0.377-13.761-0.381-20.686,0.629c-15.228,2.221-30.027,6.873-43.371,14.613
				c-5.777,3.35-10.961,6.52-14.822,12.094c-3.201,4.623-5.795,10.102-6.559,15.715c-1.559,11.463,5.398,18.676,16.492,19.697
				c11.175,1.027,21.266-2.844,30.433-8.971c11.229-7.506,21.608-16.299,32.321-24.547c-0.991,0.393-1.984,0.775-2.983,1.139
				C203.164,324.346,193.761,327.918,186.992,324.521z"/>
		</g>
	</g>
	<g>
		<g>
			<path class="st8" d="M274.912,84.057c-2.029-8.525-5.172-17.33-11.031-24.016c-0.021-0.023-0.037-0.049-0.059-0.072
				c-3.376-0.557-6.733-1.049-10.043-1.475c-15.43-1.986-30.703,0.074-45.873,3.049c-14.251,2.791-29.93,2.76-42.875,10.15
				c-4.404,2.514-8.391,5.602-12.031,9.068c1.797-0.363,3.575-0.65,5.291-0.885c11.344-1.557,22.965-1.326,34.339-0.154
				c21.529,2.221,47.581,7.217,56.953,28.889c7.571-1.455,15.249-1.209,21.79,1.219C277.797,103.369,276.857,92.225,274.912,84.057z
				"/>
		</g>
	</g>
	<g>
		<g>
			<path class="st3" d="M208.945,154.525c-18.586,3.688-34.943,10.221-48.748,23.812c-6.619,6.518-11.838,13.967-17.892,20.941
				c-4.579,5.273-11.927,12.119-12.294,19.582c-0.116,2.369-1.572,3.969-3.338,4.715c8.582,15.84,22.409,27.264,39.066,35.211
				c5.561,2.652,11.245,5.076,17.017,7.301c-1.928-5.615-1.902-12.105-1.718-17.832c0.303-9.402,0.789-19.238,2.912-28.418
				c3.052-13.203,5.795-26.311,11.748-38.586c3.399-7.01,7.722-15.234,14.734-19.098C209.719,159.633,209.21,157.08,208.945,154.525
				z"/>
		</g>
	</g>
	<g>
		<g>
			<path class="st3" d="M288.723,50.984c-4.565-3.248-9.422-6.053-14.307-8.789c-5.75-3.219-10.972-7.252-17.094-9.822
				c-7.01-2.943-14.336-4.072-21.912-4.141c-0.416-0.004-0.807-0.051-1.174-0.133c-7.062,2.064-14.058,4.428-20.808,7.365
				c-6.532,2.844-12.308,6.746-18.607,9.926c-4.864,2.455-9.692,5.109-14.114,8.305c-1.278,0.924-2.727,1.951-4.119,3.09
				c7.088-1.676,14.276-2.695,21.487-3.715c7.283-1.029,14.456-2.662,21.737-3.719c14.455-2.1,28.469-2.021,42.874,0.354
				c11.103,1.83,22.802,4.312,34.011,8.082C294.693,54.959,290.926,52.553,288.723,50.984z"/>
		</g>
	</g>
	<g>
		<g>
			<path class="st8" d="M336.586,127.523c-6.341,15.646-16.315,30.814-34.098,33.9c-26.002,4.514-56.602-16.57-47.76-43.848
				c-10.568,1.361-22.021,7.461-28.736,14.764c-0.211,0.309-0.46,0.584-0.738,0.832c-1.218,1.416-2.256,2.869-3.07,4.34
				c-7.605,13.742-0.455,31.461,9.471,42.156c5.243,5.65,11.533,10.77,19.239,12.408c8.706,1.854,17.83,1.871,26.479-0.402
				c23.647-6.213,44.896-23.816,54.757-46.287c3.157-7.197,5.438-14.967,6.277-22.699
				C337.84,124.312,337.233,125.926,336.586,127.523z"/>
		</g>
	</g>
	<g>
		<g>
			<path class="st3" d="M331.725,96.002c-2.102-1.67-2.18-3.943-1.195-5.742c-1.918-2.516-4.193-4.881-6.893-7.045
				c-12.987-10.414-29.215-16.588-45.768-20.465c3.868,7.121,6.258,15.33,7.492,22.973c1.584,9.811,1.465,21.471-5.266,29.4
				c1.604,1.486,3.047,3.201,4.262,5.188c0.096-0.014,0.184-0.043,0.283-0.051c1.334-0.104,2.682,0.346,3.686,1.229
				c1.945,1.715,2.386,5.129,0.455,7.059c-0.299,0.299-0.6,0.6-0.899,0.9c0.511,5.654-8.114,8.416-9.576,2.451
				c-1.958-7.992-6.873-12.242-13.053-13.842c-9.67,21.516,16.282,36.898,35.405,33.578c13.976-2.426,21.503-15.074,26.441-27.258
				c2.067-5.102,3.792-10.252,4.824-15.674C332.483,105.768,334.559,98.256,331.725,96.002z"/>
		</g>
	</g>
	<g>
		<g>
			<path class="st3" d="M430.875,116.471c-8.219-22.842-20.137-44.621-38.689-60.709c-2.749-2.385-5.598-4.627-8.525-6.75
				c0.338,2.566,0.454,5.113,0.508,7.355c0.211,8.953-0.53,17.98-1.838,26.836c-1.521,10.312-4.639,20.316-10.08,29.287
				c-3.178,5.238-6.752,10.795-11.258,15.008c-3.648,3.41-9.271,6.385-11.488,10.973c-1.098,2.271-3.14,2.969-5.049,2.633
				c-5.663,16.066-15.391,30.404-28.307,41.328c9.06,0.789,18.807-1.547,27.492-2.172c15.012-1.082,28.454-6.02,41.589-13.16
				c5.929-3.223,11.958-6.324,17.625-10c4.648-3.014,11.048-6.736,14.007-11.6c2.254-3.705,4.536-7.432,6.342-11.385
				c0.844-1.848,3.615-8.035,2.521-9.113C421.618,120.957,426.499,114.457,430.875,116.471z"/>
		</g>
	</g>
	<g>
		<g>
			<path class="st8" d="M370.725,43.002c-1.281-0.955-1.836-2.135-1.869-3.309c-15.706-8.58-33.006-14.309-50.525-17.886
				c-13.867-2.831-27.957-3.625-42.069-2.468c-6.185,0.508-12.153,1.443-18.05,2.641c1.197,0.433,2.386,0.906,3.561,1.434
				c6.891,3.09,13.027,7.48,19.562,11.217c6.127,3.5,12.399,7.158,17.771,11.768c4.159,3.57,9.164,8.502,8.906,14.463
				c-0.019,0.424-0.082,0.82-0.181,1.195c8.554,3.762,16.561,8.49,23.464,14.531c14.44,12.633,19.316,30.635,17.014,48.658
				c0.612-0.5,1.228-1,1.841-1.498c4.448-3.611,8.312-8.051,11.394-12.893c5.269-8.281,9.026-17.201,10.565-26.908
				c1.226-7.727,2.128-15.582,2.126-23.416C374.233,55.824,375.013,46.201,370.725,43.002z"/>
		</g>
	</g>
	<g>
		<g>
			<path class="st3" d="M317.791,325.156c-2.904-1.818-5.764-3.607-8.536-5.629c-7.436-5.426-17.206-13.578-27.357-17.375
				c-1.72-0.105-3.441-0.182-5.163-0.23c1.432,0.783,2.854,1.59,4.225,2.488c3.18,2.082,6.11,4.451,8.93,6.959
				c0.494,0.248,0.979,0.609,1.438,1.121c6.26,6.951,15.312,8.521,23.563,11.91c1.071,0.441,2.532,1.229,3.864,1.51
				C318.437,325.654,318.125,325.391,317.791,325.156z"/>
		</g>
	</g>
	<g>
		<g>
			<path class="st8" d="M441.528,161.738c-0.606-10.814-3.064-21.268-6.161-31.592c-1.306,6.184-5.197,12.586-7.892,17.068
				c-7.673,12.768-21.339,19.887-34.066,26.773c-7.849,4.246-15.657,8.545-24.176,11.334c-8.153,2.672-16.316,4.025-24.823,4.91
				c-12.77,1.326-26.484,3.971-39.008,0.018c-1.425,0.887-2.872,1.744-4.354,2.555c-7.373,4.033-15.769,7.326-24.426,9.16
				c9.882,16.971,21.939,33.494,39.057,43.723c10.014,5.982,20.309,8.998,31.781,10.799c5.314,0.834,10.645,1.604,15.927,2.627
				c3.757,0.729,7.589,1.59,11.368,1.35c1.636-2.098,5.219-2.762,7.509-0.889c1.71,0.588,2.926,1.941,3.431,3.479
				c5.249-3.141,10.303-6.746,15.133-10.904c17.158-14.77,30.652-34.74,36.711-56.654
				C440.573,184.518,442.168,173.139,441.528,161.738z"/>
		</g>
	</g>
	<g>
		<g>
			<path class="st3" d="M347.246,266.568c-12.786-2.008-24.906-5.031-36.016-11.922c-19.461-12.072-33.156-29.93-44.35-49.605
				c-0.312-0.547-0.51-1.096-0.616-1.635c-8.996,0.576-17.949-0.693-26.032-4.621c0.385,15.271-0.414,30.604,4.312,45.369
				c3.948,12.336,8.644,25.68,18.781,34.336c1.879,1.604,2.066,3.695,1.311,5.432c23.309,1.678,46.824,0.691,69.865-3.244
				c12.727-2.172,24.92-5.342,36.385-10.168C362.922,270.158,354.627,267.727,347.246,266.568z"/>
		</g>
	</g>
	<g>
		<g>
			<path class="st8" d="M235.105,247.463c-5.551-17.654-4.107-35.629-5.066-53.832c-0.029-0.553,0.022-1.059,0.133-1.527
				c-6.389-5.428-12.199-12.695-16.154-20.723c-2.484,1.867-4.542,5.439-5.785,7.574c-2.004,3.447-3.783,7.014-5.364,10.674
				c-4.704,10.887-6.702,22.395-9.513,33.85c-1.768,7.203-2.065,15.371-2.304,22.762c-0.159,4.963-1.437,15.143,2.274,19.25
				c1.341,1.482,1.614,3.248,1.225,4.824c16.717,5.52,34.037,9.373,51.354,11.691c2.517,0.336,5.04,0.631,7.565,0.906
				C244.17,273.279,239.059,260.029,235.105,247.463z"/>
		</g>
	</g>
	<g>
		<g>
			<path class="st3" d="M233.188,297.01c-3.284,0.688-6.402,2.188-9.421,3.604c-7.206,3.379-14.794,5.949-21.849,9.656
				c-2.898,1.523-6.399,3.148-8.872,5.482c8.04-0.23,16.07-4.104,23.271-7.344c7.426-3.342,14.826-6.635,22.324-9.812
				c1.141-0.484,2.275-0.926,3.41-1.352C239.084,297.037,236.162,296.389,233.188,297.01z"/>
		</g>
	</g>
	<g>
		<g>
			<path class="st3" d="M375.557,339.414c-6.522-15.939-27.447-23.117-42.566-27.549c-8.42-2.467-16.998-4.656-25.666-6.359
				c5.332,3.799,10.354,7.643,14.916,10.691c4.549,3.039,8.134,6.312,7.621,12.176c-0.451,5.158-6.113,7.822-10.825,7.564
				c12.184,8.574,25.416,17.93,39.77,22.258c3.978,1.201,11.665,3.49,14.974,0.123C378.291,353.725,377.824,344.957,375.557,339.414
				z"/>
		</g>
	</g>
	<g>
		<g>
			<path class="st3" d="M259.465,302.734c-1.057,0.176-2.105,0.383-3.148,0.609c-1.483,1.902-3.689,3.4-6.124,4.711
				c1.221,0.547,2.445,1.078,3.787,1.283c3.532,0.539,6.612-1.424,8.161-4.43C261.212,304.229,260.314,303.51,259.465,302.734z"/>
		</g>
	</g>
	<g>
		<g>
			<path class="st7" d="M272.648,422.553c-1.152-17.436-2.07-34.885-2.438-52.359c-0.22-10.467,0.121-20.889,0.145-31.35
				c0.018-8.158-0.101-16.646-2.974-24.355c-3.063,2.924-7.173,4.846-11.337,4.916c-2.064,0.033-3.938-0.195-5.838-0.719
				c-0.115,0.178-0.238,0.348-0.373,0.508c-0.535,3.475,0.001,7.244,0.346,10.613c0.506,4.926,0.832,9.768,0.832,14.723
				c0,10.699,0.42,21.498-0.088,32.186c-1.014,21.334-1.615,42.633-1.921,63.988c-0.161,11.277-1.18,22.502-1.761,33.76
				c-0.289,5.611-0.532,11.236-0.414,16.855c0.054,2.582-0.584,6.338,1.24,8.512c4.299,5.123,19.68,0.756,19.971-6.199
				c0.051-1.226,0.465-2.244,1.092-3.047c0.099-1.461,0.828-2.848,2.355-3.672c0.259-0.512,0.23-0.482,0.348-0.914
				c0.578-2.158,0.945-4.369,1.199-6.588c0.704-6.129,0.861-12.309,0.886-18.475C273.969,448.137,273.491,435.324,272.648,422.553z"
				/>
		</g>
	</g>
	<g>
		<g>
			<path class="st11" d="M440.736,114.24c-8.821-25.447-22.656-49.262-43.156-67.041c-20.434-17.717-46.408-28.051-72.471-34.143
				c-27.322-6.387-55.818-5.17-82.861,2.047c-17.365,4.636-34.789,10.828-50.197,20.186c-11.204,6.805-27.087,13.105-30.934,27.002
				c-0.035,0.129-0.059,0.254-0.085,0.379c-16.753,9.129-28.639,25.512-37.782,42.33c-13.088,24.07-19.23,51.338-17.468,78.719
				c1.538,23.883,9.891,47.846,27.097,64.879c16.461,16.297,39.542,24.807,61.107,31.861c1.739,0.57,3.484,1.119,5.234,1.652
				c-8.292,0.982-16.488,2.801-24.561,5.15c-23.449,6.82-50.31,22.193-51.467,49.564c-0.447,10.582,4.75,20.143,14.451,24.635
				c9.202,4.262,20.293,3.549,29.868,1.146c12.239-3.07,22.927-11.789,32.614-19.439c12.412-9.801,25.041-19.287,37.694-28.777
				c0.944-0.707,2.08-1.361,3.319-1.996c0.023,0.189,0.055,0.377,0.098,0.562c-3.06,9.34-0.365,19.068-0.199,28.674
				c0.227,13.143,0.357,26.432-0.264,39.559c-1.254,26.479-0.887,53.062-2.601,79.5c-0.798,12.303-1.702,24.607-1.136,36.941
				c0.321,7,5.36,11.627,11.715,13.518c11.677,3.477,27.037-4.029,29.043-16.293c6.607-4.875,5.703-20.045,5.939-26.477
				c0.521-14.217-0.056-28.5-0.875-42.695c-1.01-17.514-2.104-35.002-2.587-52.547c-0.31-11.201-0.124-22.355,0.04-33.555
				c0.121-8.213-0.021-16.943-2.33-24.963c3.251,2.379,6.258,5.043,9.258,7.902c7.219,6.877,14.416,13.295,22.547,19.061
				c12.818,9.092,26.057,18.189,40.674,24.152c11.771,4.803,29.167,7.883,34.778-7.148c6.456-17.293-3.974-33.486-18.163-42.729
				c-15.384-10.021-33.881-14.811-51.623-18.723c-4.651-1.025-9.296-1.932-13.956-2.701c21.347-0.893,42.979-4.014,63.023-10.441
				c43.661-14.002,77.648-53.473,85.519-98.514C454.318,160.998,448.744,137.342,440.736,114.24z M384.168,56.367
				c-0.054-2.242-0.17-4.789-0.508-7.355c2.928,2.123,5.776,4.365,8.525,6.75c18.553,16.088,30.471,37.867,38.689,60.709
				c-4.376-2.014-9.257,4.486-5.15,8.531c1.094,1.078-1.678,7.266-2.521,9.113c-1.806,3.953-4.088,7.68-6.342,11.385
				c-2.959,4.863-9.358,8.586-14.007,11.6c-5.667,3.676-11.696,6.777-17.625,10c-13.135,7.141-26.577,12.078-41.589,13.16
				c-8.686,0.625-18.433,2.961-27.492,2.172c12.916-10.924,22.644-25.262,28.307-41.328c1.909,0.336,3.951-0.361,5.049-2.633
				c2.217-4.588,7.84-7.562,11.488-10.973c4.506-4.213,8.08-9.77,11.258-15.008c5.441-8.971,8.559-18.975,10.08-29.287
				C383.638,74.348,384.379,65.32,384.168,56.367z M302.488,161.424c17.782-3.086,27.757-18.254,34.098-33.9
				c0.647-1.598,1.254-3.211,1.821-4.836c-0.839,7.732-3.12,15.502-6.277,22.699c-9.86,22.471-31.109,40.074-54.757,46.287
				c-8.649,2.273-17.773,2.256-26.479,0.402c-7.706-1.639-13.996-6.758-19.239-12.408c-9.926-10.695-17.076-28.414-9.471-42.156
				c0.814-1.471,1.853-2.924,3.07-4.34c0.278-0.248,0.527-0.523,0.738-0.832c6.715-7.303,18.168-13.402,28.736-14.764
				C245.887,144.854,276.486,165.938,302.488,161.424z M288.326,121.488c-1.004-0.883-2.352-1.332-3.686-1.229
				c-0.1,0.008-0.188,0.037-0.283,0.051c-1.215-1.986-2.657-3.701-4.262-5.188c6.73-7.93,6.85-19.59,5.266-29.4
				c-1.234-7.643-3.624-15.852-7.492-22.973c16.553,3.877,32.78,10.051,45.768,20.465c2.699,2.164,4.975,4.529,6.893,7.045
				c-0.984,1.799-0.906,4.072,1.195,5.742c2.834,2.254,0.759,9.766,0.199,12.701c-1.032,5.422-2.757,10.572-4.824,15.674
				c-4.938,12.184-12.466,24.832-26.441,27.258c-19.123,3.32-45.075-12.062-35.405-33.578c6.18,1.6,11.095,5.85,13.053,13.842
				c1.462,5.965,10.087,3.203,9.576-2.451c0.3-0.301,0.601-0.602,0.899-0.9C290.712,126.617,290.271,123.203,288.326,121.488z
				 M276.261,19.34c14.112-1.157,28.202-0.363,42.069,2.468c17.52,3.577,34.819,9.306,50.525,17.886
				c0.033,1.174,0.588,2.354,1.869,3.309c4.288,3.199,3.509,12.822,3.51,17.529c0.002,7.834-0.9,15.689-2.126,23.416
				c-1.539,9.707-5.297,18.627-10.565,26.908c-3.082,4.842-6.945,9.281-11.394,12.893c-0.613,0.498-1.229,0.998-1.841,1.498
				c2.303-18.023-2.573-36.025-17.014-48.658c-6.903-6.041-14.91-10.77-23.464-14.531c0.099-0.375,0.162-0.771,0.181-1.195
				c0.258-5.961-4.747-10.893-8.906-14.463c-5.372-4.609-11.645-8.268-17.771-11.768c-6.535-3.736-12.672-8.127-19.562-11.217
				c-1.175-0.527-2.363-1.001-3.561-1.434C264.107,20.783,270.076,19.848,276.261,19.34z M180.707,53.695
				c4.422-3.195,9.25-5.85,14.114-8.305c6.3-3.18,12.075-7.082,18.607-9.926c6.75-2.938,13.745-5.301,20.808-7.365
				c0.367,0.082,0.758,0.129,1.174,0.133c7.576,0.068,14.902,1.197,21.912,4.141c6.122,2.57,11.344,6.604,17.094,9.822
				c4.885,2.736,9.741,5.541,14.307,8.789c2.203,1.568,5.971,3.975,7.975,6.803c-11.209-3.77-22.908-6.252-34.011-8.082
				c-14.405-2.375-28.419-2.453-42.874-0.354c-7.281,1.057-14.454,2.689-21.737,3.719c-7.211,1.02-14.399,2.039-21.487,3.715
				C177.98,55.646,179.429,54.619,180.707,53.695z M165.031,71.693c12.945-7.391,28.624-7.359,42.875-10.15
				c15.17-2.975,30.443-5.035,45.873-3.049c3.31,0.426,6.667,0.918,10.043,1.475c0.021,0.023,0.037,0.049,0.059,0.072
				c5.859,6.686,9.002,15.49,11.031,24.016c1.945,8.168,2.885,19.312-3.539,25.773c-6.541-2.428-14.219-2.674-21.79-1.219
				c-9.372-21.672-35.424-26.668-56.953-28.889c-11.374-1.172-22.995-1.402-34.339,0.154c-1.716,0.234-3.494,0.521-5.291,0.885
				C156.641,77.295,160.627,74.207,165.031,71.693z M123.315,128.678c3.446-9.84,8.498-19.506,14.155-28.373
				c0.834-0.25,1.635-0.807,2.311-1.758c4.703-6.615,14.129-8.076,21.627-9.004c9.692-1.199,19.611-0.941,29.313-0.004
				c17.373,1.678,40.696,4.75,49.134,21.857c-6.971,2.678-13.583,6.736-18.92,11.947c-34.744-14.061-75.41-2.225-102.456,22.549
				C119.732,140.047,121.352,134.287,123.315,128.678z M116.46,157.773c1.702,0.625,3.709,0.422,5.321-1.227
				c23.16-23.682,60.602-36.486,92.532-25.041c-1.813,2.906-3.266,6.035-4.241,9.377c-0.332,1.139-0.591,2.289-0.797,3.447
				c-9.871,1.875-19.648,4.01-28.889,8.061c-9.936,4.357-18.582,10.836-26.488,18.184c-7.834,7.281-13.794,15.99-20.763,24.01
				c-4.599,5.291-9.182,10.885-11.523,17.389C115.618,194.615,114.189,175.973,116.46,157.773z M182.757,266.088
				c-5.771-2.225-11.456-4.648-17.017-7.301c-16.657-7.947-30.484-19.371-39.066-35.211c1.766-0.746,3.222-2.346,3.338-4.715
				c0.367-7.463,7.715-14.309,12.294-19.582c6.054-6.975,11.272-14.424,17.892-20.941c13.805-13.592,30.162-20.125,48.748-23.812
				c0.265,2.555,0.773,5.107,1.488,7.629c-7.013,3.863-11.335,12.088-14.734,19.098c-5.953,12.275-8.696,25.383-11.748,38.586
				c-2.123,9.18-2.609,19.016-2.912,28.418C180.854,253.982,180.829,260.473,182.757,266.088z M180.323,345.381
				c-9.167,6.127-19.258,9.998-30.433,8.971c-11.094-1.021-18.051-8.234-16.492-19.697c0.764-5.613,3.357-11.092,6.559-15.715
				c3.861-5.574,9.045-8.744,14.822-12.094c13.344-7.74,28.144-12.393,43.371-14.613c6.925-1.01,13.806-1.006,20.686-0.629
				c-3.445,1.557-6.832,3.24-10.188,4.639c-7.541,3.146-15.73,6.545-21.979,11.932c-5.487,4.73-7.297,12.521,0.322,16.348
				c6.769,3.396,16.172-0.176,22.669-2.549c0.999-0.363,1.992-0.746,2.983-1.139C201.932,329.082,191.552,337.875,180.323,345.381z
				 M238.641,298.596c-7.498,3.178-14.898,6.471-22.324,9.812c-7.2,3.24-15.23,7.113-23.271,7.344
				c2.473-2.334,5.974-3.959,8.872-5.482c7.055-3.707,14.643-6.277,21.849-9.656c3.019-1.416,6.137-2.916,9.421-3.604
				c2.975-0.621,5.896,0.027,8.863,0.234C240.916,297.67,239.781,298.111,238.641,298.596z M194.551,270.314
				c0.39-1.576,0.116-3.342-1.225-4.824c-3.711-4.107-2.434-14.287-2.274-19.25c0.238-7.391,0.536-15.559,2.304-22.762
				c2.811-11.455,4.809-22.963,9.513-33.85c1.581-3.66,3.36-7.227,5.364-10.674c1.243-2.135,3.301-5.707,5.785-7.574
				c3.955,8.027,9.766,15.295,16.154,20.723c-0.11,0.469-0.162,0.975-0.133,1.527c0.959,18.203-0.484,36.178,5.066,53.832
				c3.953,12.566,9.064,25.816,18.365,35.449c-2.525-0.275-5.049-0.57-7.565-0.906C228.588,279.688,211.268,275.834,194.551,270.314
				z M256.316,303.344c1.043-0.227,2.092-0.434,3.148-0.609c0.85,0.775,1.747,1.494,2.676,2.174
				c-1.549,3.006-4.629,4.969-8.161,4.43c-1.342-0.205-2.566-0.736-3.787-1.283C252.627,306.744,254.833,305.246,256.316,303.344z
				 M273.033,479.41c-0.254,2.219-0.621,4.43-1.199,6.588c-0.117,0.432-0.089,0.402-0.348,0.914
				c-1.527,0.824-2.257,2.211-2.355,3.672c-0.627,0.803-1.041,1.821-1.092,3.047c-0.291,6.955-15.672,11.322-19.971,6.199
				c-1.824-2.174-1.187-5.93-1.24-8.512c-0.118-5.619,0.125-11.244,0.414-16.855c0.581-11.258,1.6-22.482,1.761-33.76
				c0.306-21.355,0.907-42.654,1.921-63.988c0.508-10.688,0.088-21.486,0.088-32.186c0-4.955-0.326-9.797-0.832-14.723
				c-0.345-3.369-0.881-7.139-0.346-10.613c0.135-0.16,0.258-0.33,0.373-0.508c1.899,0.523,3.773,0.752,5.838,0.719
				c4.164-0.07,8.273-1.992,11.337-4.916c2.873,7.709,2.991,16.197,2.974,24.355c-0.023,10.461-0.364,20.883-0.145,31.35
				c0.367,17.475,1.285,34.924,2.438,52.359c0.843,12.771,1.32,25.584,1.271,38.383C273.895,467.102,273.737,473.281,273.033,479.41
				z M332.99,311.865c15.119,4.432,36.044,11.609,42.566,27.549c2.268,5.543,2.734,14.311-1.777,18.904
				c-3.309,3.367-10.996,1.078-14.974-0.123c-14.354-4.328-27.586-13.684-39.77-22.258c4.712,0.258,10.374-2.406,10.825-7.564
				c0.513-5.863-3.072-9.137-7.621-12.176c-4.562-3.049-9.584-6.893-14.916-10.691C315.992,307.209,324.57,309.398,332.99,311.865z
				 M309.255,319.527c2.772,2.021,5.632,3.811,8.536,5.629c0.334,0.234,0.646,0.498,0.963,0.754
				c-1.332-0.281-2.793-1.068-3.864-1.51c-8.251-3.389-17.304-4.959-23.563-11.91c-0.459-0.512-0.943-0.873-1.438-1.121
				c-2.819-2.508-5.75-4.877-8.93-6.959c-1.371-0.898-2.793-1.705-4.225-2.488c1.722,0.049,3.443,0.125,5.163,0.23
				C292.049,305.949,301.819,314.102,309.255,319.527z M334.502,280.678c-23.041,3.936-46.557,4.922-69.865,3.244
				c0.756-1.736,0.568-3.828-1.311-5.432c-10.138-8.656-14.833-22-18.781-34.336c-4.727-14.766-3.928-30.098-4.312-45.369
				c8.083,3.928,17.036,5.197,26.032,4.621c0.106,0.539,0.304,1.088,0.616,1.635c11.193,19.676,24.889,37.533,44.35,49.605
				c11.109,6.891,23.229,9.914,36.016,11.922c7.381,1.158,15.676,3.59,23.641,3.941
				C359.422,275.336,347.229,278.506,334.502,280.678z M437.539,195.494c-6.059,21.914-19.553,41.885-36.711,56.654
				c-4.83,4.158-9.884,7.764-15.133,10.904c-0.505-1.537-1.721-2.891-3.431-3.479c-2.29-1.873-5.873-1.209-7.509,0.889
				c-3.779,0.24-7.611-0.621-11.368-1.35c-5.282-1.023-10.612-1.793-15.927-2.627c-11.473-1.801-21.768-4.816-31.781-10.799
				c-17.117-10.229-29.175-26.752-39.057-43.723c8.657-1.834,17.053-5.127,24.426-9.16c1.481-0.811,2.929-1.668,4.354-2.555
				c12.523,3.953,26.238,1.309,39.008-0.018c8.507-0.885,16.67-2.238,24.823-4.91c8.519-2.789,16.327-7.088,24.176-11.334
				c12.728-6.887,26.394-14.006,34.066-26.773c2.694-4.482,6.586-10.885,7.892-17.068c3.097,10.324,5.555,20.777,6.161,31.592
				C442.168,173.139,440.573,184.518,437.539,195.494z"/>
		</g>
	</g>
</g>
</svg>
