<?xml version="1.0" encoding="utf-8"?>
<!-- Generator: Adobe Illustrator 16.0.3, SVG Export Plug-In . SVG Version: 6.00 Build 0)  -->
<!DOCTYPE svg PUBLIC "-//W3C//DTD SVG 1.1//EN" "http://www.w3.org/Graphics/SVG/1.1/DTD/svg11.dtd">
<svg version="1.1" id="Layer_1" xmlns="http://www.w3.org/2000/svg" xmlns:xlink="http://www.w3.org/1999/xlink" x="0px" y="0px"
	 width="512px" height="512px" viewBox="0 0 512 512" style="enable-background:new 0 0 512 512;" xml:space="preserve">
<style type="text/css">
<![CDATA[
	.st0{fill:#127274;}
	.st1{fill:#14B6B9;}
	.st2{fill:#1E4384;}
	.st3{fill:#EF4754;}
	.st4{fill:#EF4823;}
	.st5{fill:#BCBCBC;}
	.st6{fill:#F6851F;}
	.st7{fill:#C56528;}
	.st8{fill:#FCBF95;}
	.st9{fill:#FEBF10;}
	.st10{fill:none;}
	.st11{fill:#010101;}
	.st12{fill:#3AB37C;}
	.st13{fill:#D6E5E5;}
	.st14{fill:#71C598;}
	.st15{fill:#74CCCF;}
]]>
</style>
<g>
	<g>
		<g>
			<path class="st7" d="M347.53,138.732c-6.086-12.898-24.266-18.761-36.84-22.341c-15.115-4.304-31.238-7.7-46.982-8.317
				c-30.476-1.191-61.117,3.216-90.305,11.945c-10.219,3.057-20.115,6.766-29.209,12.434c-7.38,4.6-16.722,11.187-18.134,20.514
				c-1.628,10.748,7.394,12.25,15.7,13.367c8.595,1.156,17.985,4.141,22.605,12.187c5.026,8.751,5.701,19.099,6.008,28.978
				c0.137,4.396-0.464,9.703,0.812,13.953c1.515,5.045,3.62,10.227,3.127,15.525c7.687-1.65,15.382-3.257,23.24-4.279
				c14.434-1.877,28.961-2.86,43.453-4.15c26.241-2.336,52.605-3.471,78.936-2.475c4.372-8.637-0.833-19.883-2.188-28.752
				c-1.468-9.609-0.387-18.36,6.308-25.777c5.624-6.232,12.819-10.59,18.827-16.375C347.918,150.324,350.737,145.529,347.53,138.732
				z M224.418,158.008c0.88-1.002,2.334-1.854,3.709-1.854h1.5c1.521,0,2.881,0.319,4.054,1.352
				c1.068,0.942,1.745,2.287,1.854,3.709c0.112,1.469-0.381,2.95-1.354,4.056c-0.881,1.001-2.334,1.853-3.708,1.853h-1.5
				c-1.522,0-2.881-0.319-4.055-1.352c-1.069-0.942-1.744-2.287-1.854-3.709C222.953,160.594,223.446,159.112,224.418,158.008z
				 M228.713,206.227c-6.584,1.465-14.041-1.186-15.854-8.271c-0.133-0.517-0.188-1.013-0.189-1.49
				c-2.688-1.578-4.307-5.305-1.752-8.459c6.729-8.307,26.82-9.84,27.922,4.055C239.377,198.847,235.471,204.724,228.713,206.227z
				 M288.915,143.008c0.883-1.002,2.335-1.854,3.709-1.854h3c1.524,0,2.882,0.32,4.055,1.353c0.719,0.638,1.238,1.409,1.561,2.313
				c0.619,1.764,0.307,4.085-1.059,5.45c-0.639,0.638-1.289,1.223-1.974,1.819c-0.549,0.478-1.1,0.683-1.799,1.031
				c-0.887,0.444-1.956,0.502-2.936,0.503c-1.522,0.001-2.883-0.32-4.055-1.353c-1.07-0.941-1.745-2.287-1.853-3.709
				c-0.032-0.404-0.007-0.809,0.051-1.207c-0.013-0.1-0.044-0.193-0.051-0.293C287.449,145.594,287.942,144.113,288.915,143.008z
				 M259.533,185.214c0,1.522-0.319,2.882-1.352,4.055c-0.942,1.069-2.288,1.745-3.708,1.854c-1.469,0.112-2.951-0.38-4.055-1.353
				c-1.002-0.882-1.854-2.335-1.854-3.709v-1.5c0-1.522,0.32-2.881,1.352-4.055c0.942-1.069,2.289-1.744,3.709-1.854
				c1.469-0.113,2.95,0.38,4.055,1.353c1.001,0.882,1.853,2.335,1.853,3.709V185.214z M271.533,156.715
				c0,1.523-0.32,2.882-1.353,4.056c-0.941,1.069-2.287,1.744-3.709,1.853c-1.468,0.113-2.949-0.379-4.055-1.352
				c-1-0.883-1.853-2.335-1.853-3.709v-1.5c0-1.523,0.319-2.882,1.353-4.055c0.942-1.07,2.288-1.745,3.709-1.854
				c1.467-0.113,2.949,0.379,4.055,1.352c1.001,0.883,1.853,2.336,1.853,3.709V156.715z M288.865,189.328
				c-1.058,0.273-2.134,0.291-3.129,0.067c-0.417,0.14-0.844,0.227-1.265,0.227h-1.5c-1.522,0-2.881-0.319-4.055-1.353
				c-1.068-0.941-1.744-2.287-1.853-3.709c-0.113-1.469,0.38-2.949,1.353-4.055c0.881-1.002,2.334-1.854,3.709-1.854h1.498
				c0.663,0,1.292,0.066,1.892,0.22c2.129-0.546,4.425-1.136,6.271-2.352c-1.987-0.036-3.975,0.213-5.92,0.809
				c-6.778,2.076-10.421-8.306-3.636-10.383c5.748-1.761,12.092-1.977,17.867-0.208c2.534,0.776,4.014,2.326,4.435,4.977
				C306.13,181.721,297.274,187.165,288.865,189.328z"/>
		</g>
	</g>
	<g>
		<g>
			<path class="st5" d="M259.059,338.281c-6.652,1.175-8.918,6.576-9.674,12.555c1.623,1.082,2.775,2.924,2.562,5.342
				c-0.607,6.894,1.603,17.708,9.896,19.13c8.895,1.524,12.97-9.431,14.037-16.393C277.518,348.229,271.412,336.103,259.059,338.281
				z"/>
		</g>
	</g>
	<g>
		<g>
			<path class="st5" d="M200.92,489.754c-1.041-0.836-1.628-1.808-1.859-2.805c-7.355,0.359-14.711,0.627-22.064,0.749
				c-0.158,4.938-0.627,10.653,1.293,15.038c2.035,4.646,8.828,5.924,13.177,6.945c5.891,1.385,8.25,1.906,10.637-4.183
				C203.504,501.93,204.243,492.425,200.92,489.754z"/>
		</g>
	</g>
	<g>
		<g>
			<path class="st7" d="M227.891,193.039c-0.004-0.003-0.012-0.008-0.017-0.011c-0.009,0.114-0.091,0.034-0.168-0.085
				c-0.242-0.061-0.933-0.285-1.004-0.295c-0.572-0.08-1.626-0.104-2.843,0.109c-0.374,0.064-0.745,0.162-1.108,0.275
				c0.201,0.381,0.37,0.805,0.493,1.285c0.287,1.119,0.383,1.197,0.707,1.261c0.968,0.188,1.883,0.225,3.061-0.301
				c0.746-0.334,0.695-0.189,0.819-1.007C227.946,193.514,227.989,193.625,227.891,193.039z"/>
		</g>
	</g>
	<g>
		<g>
			<path class="st5" d="M420.704,442.248c-0.625-6.436-2.008-12.777-2.648-19.199c-2.048-20.561-3.846-41.129-5.434-61.729
				c-0.807-10.467-1.759-20.923-2.669-31.383c-0.899-10.346-2.456-20.99-2.396-31.383c0.088-15.262,3.315-32.332-2.285-46.975
				c-11.028-1.924-21.692-5.508-32.522-8.345c-13.789-3.612-28.019-4.86-42.22-5.722c-29.533-1.791-59.231-0.686-88.677,2.004
				c-14.488,1.322-29.03,2.201-43.455,4.15c-13.712,1.854-26.937,5.41-40.507,7.826c-18.266,3.253-40.639,5.677-55.258,18.199
				c-0.192,0.164-0.385,0.307-0.579,0.438c0.428,68.899,24.124,135.366,24.019,204.272c50.191,6.321,100.666-1.462,150.912-2.979
				c12.819-0.387,25.635-0.129,38.424-1.226c12.78-1.095,25.474-2.874,38.184-4.577c9.455-1.267,18.788-2.098,28.242-2.616
				c1.397-0.907,3.204-1.194,5.155-0.31c0.037,0.018,0.068,0.036,0.105,0.053c0.459-0.02,0.916-0.043,1.377-0.061
				c9.067-0.358,18.204-0.82,27.02-2.941c0.841-2.016,2.9-3.338,4.986-3.541C422.117,452.229,421.051,445.832,420.704,442.248z
				 M220.358,389.945c-2.614-6.732-4.553-13.877-5.896-21.188c-3.332,0.665-6.79,0.796-10.26,0.718
				c-4.619-0.104-11.799-1.545-16.075,0.713c-0.196,0.104-0.393,0.195-0.588,0.274c0.61,5.767,1.746,11.811,5.072,16.089
				c4.361,5.611-4.787,11.727-9.119,6.152c-5.655-7.277-6.639-18.297-7.428-27.135c-0.833-9.318-0.996-18.665-0.996-28.016
				c-0.002-7.059,10.969-7.936,10.969-0.846c0.002,7.525,0.069,15.068,0.566,22.582c4.078-1.068,8.329-1.027,12.684-0.895
				c4.191,0.127,9.296,0.706,13.643-0.398c-0.971-9.385-1.03-18.852-0.277-27.916c0.586-7.064,11.377-4.891,10.796,2.1
				c-0.697,8.396-0.536,17.24,0.5,25.992c1.151,1.559,1.577,3.6,0.738,5.344c1.271,7.902,3.276,15.637,6.054,22.793
				C233.316,392.941,222.918,396.539,220.358,389.945z M286.678,361.014c-2.518,12.669-11.389,28.625-26.934,25.092
				c-9.676-2.199-15.196-9.57-17.49-18.209c-2.249-0.295-4.19-1.863-4.19-4.845c0.003-7.917-0.376-17.062,3.438-24.29
				c3.838-7.272,11.212-11.703,19.515-11.701C278.865,327.062,290.053,344.035,286.678,361.014z M333.969,321.615
				c-4.828-0.041-9.644-0.342-14.467-0.498c0.018,0.191,0.029,0.387,0.029,0.59v53.998c0,7.059-10.97,7.936-10.97,0.846v-53.997
				c0-0.51,0.062-0.983,0.169-1.427c-3.132,0.1-6.267,0.296-9.36,0.752c-2.438,0.36-6.559,0.894-8.189,2.383
				c-5.176,4.724-13.512-2.475-8.266-7.263c6.724-6.136,17.104-6.643,25.767-6.872c8.168-0.217,16.284,0.447,24.44,0.52
				C340.172,310.707,341.055,321.678,333.969,321.615z"/>
		</g>
	</g>
	<g>
		<g>
			<path class="st5" d="M384.374,473.891c-5.973,0.301-11.902,0.705-17.842,1.281c0.936,5.735,2.84,11.252,2.873,17.232
				c0.003,0.527,0.021,1.707,0.047,2.367c2.522,0.48,5.413,0.715,7.856-0.154C385.641,491.652,392.15,479.705,384.374,473.891z"/>
		</g>
	</g>
	<g>
		<g>
			<path class="st5" d="M439.364,311.322c0.34-5.256,0.678-10.926-6.013-11.479c-4.778-0.396-9.892,0.589-14.535,2.263
				c1.363,20.504,3.53,40.943,5,61.438c6.977-0.057,13.893-0.356,20.725-1.725C442.498,345.109,438.286,328.053,439.364,311.322z"/>
		</g>
	</g>
	<g>
		<g>
			<path class="st11" d="M456.026,365.619c-1.049-11.084-2.773-22.078-4.278-33.105c-0.731-5.366-1.773-10.949-1.704-16.371
				c0.053-4.193,0.716-8.357,0.295-12.551c-1.591-15.842-19.06-16.416-31.957-12.846c0.142-13.239,2.256-26.553-1.538-39.386
				c0.671-0.852,1.213-1.89,1.596-3.177c0.803-2.697-1.566-6.163-4.35-6.448c-13.432-1.377-26.266-5.806-39.241-9.298
				c-14.103-3.797-28.775-4.898-43.314-5.787c2.643-9.291-0.783-19.406-2.56-28.725c-0.945-4.955-1.803-10.467,0.51-15.138
				c1.987-4.013,5.812-7.187,9.198-9.989c7.028-5.816,15.157-11.061,19.425-19.41c3.896-7.621,1.484-16.588-2.973-23.363
				c-9.868-14.996-30.471-21.332-46.839-25.665c-14.462-3.828-29.152-6.21-44.003-7.078c0.49-0.568,0.89-1.262,1.154-2.091
				c2.639-8.271,8.074-15.414,9.582-24.09c1.744-10.033-4.666-17.286-12.533-22.385c-5.957-3.86-10.769,6.047-4.895,9.854
				c6.331,4.103,7.882,8.718,5.172,15.62c-2.521,6.418-6.018,12.298-8.124,18.9c-0.494,1.55-0.299,2.846,0.311,3.85
				c-2.104-0.033-4.211-0.041-6.32-0.013c-30.344,0.416-60.657,6.527-89.407,16.021c-8.829,2.916-17.677,7.832-25.304,13.076
				c-8.25,5.67-15.165,13.04-18.179,22.725c-2.995,9.625,1.056,20.071,9.81,24.94c7.564,4.208,16.947,2.176,24.542,6.134
				c8.209,4.279,8.607,15.562,9.092,23.619c0.278,4.639,0.294,9.289,0.503,13.932c0.269,6.041,2.879,11.299,3.715,17.197
				c0.141,0.86,0.054,1.698-0.258,2.514c-0.197,0.826-0.213,1.582-0.09,2.263c-2.363,0.479-4.73,0.946-7.109,1.37
				c-19.709,3.509-43.697,6.342-59.474,19.855c-1.422,1.217-2.024,2.762-2.05,4.287c-1.881,0.832-3.367,2.592-3.359,5.195
				c0.221,69.672,24.439,136.836,24.02,206.525c-0.011,0.152-0.022,0.305-0.022,0.464v3c0,3.964,3.357,5.423,6.357,4.731
				c0.334,0.107,0.689,0.193,1.078,0.244c14.502,1.906,29.023,2.67,43.555,2.746c-0.07,7.675-0.528,16.186,4.072,22.699
				c5.181,7.334,16.187,9.904,24.536,11.047c9.141,1.25,16.277-4.987,18.281-13.844c1.397-6.165,2-15.072-1.088-21.421
				c22.002-1.319,44.003-3.126,65.97-3.854c12.824-0.426,25.623-0.205,38.426-1.227c13.221-1.055,26.361-2.986,39.5-4.752
				c0.841,3.992,2.179,7.842,2.552,11.946c0.323,3.562-0.092,7.011,0.793,10.516c2.26,8.951,16.305,8.092,22.807,5.778
				c12.892-4.586,19.845-19.941,15.422-31.383c9.507-0.594,18.996-1.822,28.029-4.959c2.543-0.883,3.613-2.807,3.604-4.779
				c2.913-4.533,3.118-10.36,3.084-15.631c-0.044-7.261-1.294-14.52-2.412-21.675c-2.658-17.02-3.877-34.46-5.057-51.727
				c9.409-0.12,18.59-0.774,27.779-3.269C454.684,370.604,456.245,367.935,456.026,365.619z M141.76,166.334
				c-8.307-1.117-17.329-2.619-15.7-13.367c1.412-9.327,10.753-15.914,18.134-20.514c9.094-5.668,18.99-9.377,29.209-12.434
				c29.188-8.729,59.829-13.137,90.305-11.945c15.744,0.617,31.867,4.014,46.982,8.317c12.575,3.58,30.754,9.442,36.84,22.341
				c3.207,6.797,0.388,11.592-4.642,16.436c-6.008,5.785-13.203,10.143-18.827,16.375c-6.694,7.417-7.775,16.168-6.308,25.777
				c1.355,8.869,6.56,20.115,2.188,28.752c-26.33-0.996-52.694,0.139-78.936,2.475c-14.492,1.29-29.02,2.273-43.453,4.15
				c-7.857,1.022-15.553,2.629-23.24,4.279c0.493-5.299-1.612-10.48-3.127-15.525c-1.277-4.25-0.676-9.558-0.812-13.953
				c-0.307-9.879-0.982-20.227-6.008-28.978C159.746,170.475,150.355,167.49,141.76,166.334z M202.104,505.499
				c-2.387,6.089-4.746,5.567-10.637,4.183c-4.35-1.021-11.142-2.299-13.177-6.945c-1.92-4.385-1.451-10.101-1.293-15.038
				c7.353-0.122,14.709-0.39,22.064-0.749c0.231,0.997,0.818,1.969,1.859,2.805C204.243,492.425,203.504,501.93,202.104,505.499z
				 M377.307,494.617c-2.443,0.869-5.334,0.635-7.856,0.154c-0.026-0.66-0.044-1.84-0.047-2.367
				c-0.032-5.98-1.937-11.497-2.873-17.232c5.94-0.576,11.869-0.98,17.842-1.281C392.15,479.705,385.641,491.652,377.307,494.617z
				 M420.477,456.205c-2.086,0.203-4.146,1.525-4.986,3.541c-8.816,2.121-17.952,2.583-27.02,2.941
				c-0.461,0.018-0.918,0.041-1.377,0.061c-0.037-0.017-0.068-0.035-0.105-0.053c-1.952-0.885-3.758-0.598-5.155,0.31
				c-9.454,0.519-18.787,1.35-28.242,2.616c-12.709,1.703-25.404,3.482-38.184,4.577c-12.789,1.097-25.605,0.839-38.424,1.226
				c-50.246,1.518-100.72,9.301-150.912,2.979c0.105-68.906-23.59-135.373-24.019-204.272c0.193-0.131,0.386-0.273,0.579-0.438
				c14.62-12.522,36.993-14.946,55.258-18.199c13.57-2.416,26.795-5.973,40.507-7.826c14.424-1.949,28.967-2.828,43.455-4.15
				c29.446-2.689,59.144-3.795,88.677-2.004c14.202,0.861,28.432,2.109,42.22,5.722c10.831,2.837,21.495,6.421,32.522,8.345
				c5.6,14.643,2.373,31.713,2.285,46.975c-0.061,10.393,1.496,21.037,2.396,31.383c0.91,10.46,1.862,20.916,2.669,31.383
				c1.588,20.6,3.385,41.168,5.434,61.729c0.641,6.422,2.023,12.764,2.648,19.199C421.051,445.832,422.117,452.229,420.477,456.205z
				 M423.816,363.543c-1.47-20.494-3.637-40.934-5-61.438c4.643-1.674,9.757-2.658,14.535-2.263
				c6.69,0.554,6.353,6.224,6.013,11.479c-1.078,16.73,3.134,33.787,5.178,50.496C437.709,363.187,430.793,363.486,423.816,363.543z
				"/>
		</g>
	</g>
	<g>
		<g>
			<path class="st11" d="M238.84,192.061c-1.102-13.895-21.193-12.361-27.922-4.055c-2.555,3.154-0.936,6.881,1.752,8.459
				c0.002,0.478,0.057,0.974,0.189,1.49c1.812,7.086,9.27,9.736,15.854,8.271C235.471,204.724,239.377,198.847,238.84,192.061z
				 M227.83,194.271c-0.124,0.817-0.073,0.673-0.819,1.007c-1.178,0.525-2.093,0.489-3.061,0.301
				c-0.324-0.063-0.419-0.142-0.707-1.261c-0.123-0.48-0.292-0.904-0.493-1.285c0.364-0.113,0.734-0.211,1.108-0.275
				c1.216-0.213,2.271-0.189,2.843-0.109c0.071,0.01,0.762,0.234,1.004,0.295c0.077,0.119,0.16,0.199,0.168,0.085
				c0.005,0.003,0.013,0.008,0.017,0.011C227.989,193.625,227.946,193.514,227.83,194.271z"/>
		</g>
	</g>
	<g>
		<g>
			<path class="st11" d="M233.682,157.506c-1.173-1.032-2.533-1.352-4.054-1.352h-1.5c-1.375,0-2.829,0.852-3.709,1.854
				c-0.973,1.104-1.466,2.586-1.354,4.055c0.11,1.422,0.785,2.767,1.854,3.709c1.174,1.032,2.533,1.352,4.055,1.352h1.5
				c1.375,0,2.828-0.852,3.708-1.853c0.973-1.105,1.466-2.587,1.354-4.056C235.426,159.793,234.75,158.448,233.682,157.506z"/>
		</g>
	</g>
	<g>
		<g>
			<path class="st11" d="M257.68,180.005c-1.105-0.973-2.586-1.466-4.055-1.353c-1.421,0.109-2.767,0.784-3.709,1.854
				c-1.032,1.174-1.352,2.532-1.352,4.055v1.5c0,1.374,0.852,2.827,1.854,3.709c1.104,0.973,2.586,1.465,4.055,1.353
				c1.421-0.108,2.766-0.784,3.708-1.854c1.033-1.173,1.352-2.532,1.352-4.055v-1.5C259.533,182.34,258.682,180.887,257.68,180.005z
				"/>
		</g>
	</g>
	<g>
		<g>
			<path class="st11" d="M269.68,151.506c-1.105-0.973-2.587-1.465-4.055-1.352c-1.422,0.108-2.768,0.783-3.709,1.854
				c-1.033,1.173-1.353,2.531-1.353,4.055v1.5c0,1.374,0.852,2.826,1.853,3.709c1.106,0.973,2.587,1.465,4.055,1.352
				c1.422-0.108,2.768-0.783,3.709-1.853c1.033-1.174,1.353-2.532,1.353-4.056v-1.5C271.533,153.842,270.681,152.389,269.68,151.506
				z"/>
		</g>
	</g>
	<g>
		<g>
			<path class="st11" d="M304.531,171.715c-0.421-2.65-1.901-4.2-4.435-4.977c-5.775-1.769-12.119-1.553-17.867,0.208
				c-6.785,2.077-3.142,12.459,3.636,10.383c1.946-0.596,3.934-0.845,5.92-0.809c-1.845,1.216-4.142,1.806-6.271,2.352
				c-0.599-0.153-1.229-0.22-1.892-0.22h-1.498c-1.375,0-2.828,0.852-3.709,1.854c-0.972,1.105-1.465,2.586-1.353,4.055
				c0.109,1.422,0.784,2.768,1.853,3.709c1.174,1.033,2.533,1.353,4.055,1.353h1.5c0.42,0,0.848-0.087,1.265-0.227
				c0.996,0.224,2.071,0.206,3.129-0.067C297.274,187.165,306.13,181.721,304.531,171.715z"/>
		</g>
	</g>
	<g>
		<g>
			<path class="st11" d="M301.239,144.82c-0.323-0.904-0.841-1.676-1.561-2.313c-1.173-1.032-2.531-1.353-4.055-1.353h-3
				c-1.374,0-2.826,0.852-3.709,1.854c-0.973,1.105-1.465,2.586-1.351,4.055c0.007,0.1,0.039,0.193,0.051,0.293
				c-0.059,0.398-0.083,0.803-0.051,1.207c0.108,1.422,0.783,2.768,1.853,3.709c1.172,1.032,2.533,1.354,4.055,1.353
				c0.98-0.001,2.049-0.059,2.936-0.503c0.699-0.349,1.25-0.554,1.799-1.031c0.685-0.597,1.335-1.182,1.974-1.819
				C301.545,148.905,301.858,146.584,301.239,144.82z"/>
		</g>
	</g>
	<g>
		<g>
			<path class="st11" d="M212.612,71.816c-1.752-2.764-4.931-3.868-7.272-5.961c-2.198-1.965-1.886-7.553,1.03-8.52
				c6.732-2.231,3.104-12.617-3.637-10.383c-11.093,3.676-11.056,16.018-6.584,24.858c1.592,3.146,5.276,3.69,7.344,6.155
				c1.503,1.793-1.986,6.783-3.074,8.044c-4.638,5.382,3.637,12.634,8.265,7.263C213.598,87.572,216.973,78.695,212.612,71.816z"/>
		</g>
	</g>
	<g>
		<g>
			<path class="st11" d="M248.797,64.377c-1.494-3.494-3.592-6.725-5.43-10.041c-0.609-1.101-1.35-2.431-1.606-3.672
				c-0.264-1.273-0.664-0.281,0.608-0.828c6.475-2.78,2.9-13.189-3.638-10.383c-9.903,4.252-8.833,12.859-4.483,21.034
				c1.79,3.361,4.676,6.868,5.269,10.723c0.271,1.756-1.622,3.842-2.5,5.222c-1.54,2.422-2.542,4.922-3.367,7.661
				c-2.042,6.792,8.776,8.825,10.799,2.099c1.234-4.104,4.654-7.148,5.659-11.354C250.975,71.213,250.239,67.746,248.797,64.377z"/>
		</g>
	</g>
	<g>
		<g>
			<path class="st11" d="M230.741,386.309c-2.778-7.156-4.784-14.891-6.054-22.793c0.839-1.744,0.413-3.785-0.738-5.344
				c-1.035-8.752-1.196-17.596-0.5-25.992c0.581-6.99-10.21-9.164-10.796-2.1c-0.752,9.064-0.693,18.531,0.277,27.916
				c-4.346,1.104-9.451,0.525-13.643,0.398c-4.354-0.133-8.606-0.174-12.684,0.895c-0.498-7.514-0.564-15.057-0.566-22.582
				c0-7.09-10.971-6.213-10.969,0.846c0,9.351,0.163,18.697,0.996,28.016c0.79,8.838,1.773,19.857,7.428,27.135
				c4.332,5.574,13.48-0.541,9.119-6.152c-3.326-4.278-4.462-10.322-5.072-16.089c0.195-0.079,0.392-0.171,0.588-0.274
				c4.276-2.258,11.456-0.816,16.075-0.713c3.47,0.078,6.928-0.053,10.26-0.718c1.343,7.312,3.282,14.456,5.896,21.188
				C222.918,396.539,233.316,392.941,230.741,386.309z"/>
		</g>
	</g>
	<g>
		<g>
			<path class="st11" d="M261.018,327.061c-8.303-0.002-15.677,4.429-19.515,11.701c-3.814,7.229-3.435,16.373-3.438,24.29
				c0,2.981,1.941,4.55,4.19,4.845c2.294,8.639,7.814,16.01,17.49,18.209c15.545,3.533,24.416-12.423,26.934-25.092
				C290.053,344.035,278.865,327.062,261.018,327.061z M275.881,358.915c-1.066,6.962-5.142,17.917-14.037,16.393
				c-8.293-1.422-10.504-12.236-9.896-19.13c0.213-2.418-0.939-4.26-2.562-5.342c0.756-5.979,3.021-11.38,9.674-12.555
				C271.412,336.103,277.518,348.229,275.881,358.915z"/>
		</g>
	</g>
	<g>
		<g>
			<path class="st11" d="M333.122,310.646c-8.157-0.072-16.272-0.736-24.44-0.52c-8.662,0.229-19.043,0.736-25.767,6.872
				c-5.247,4.788,3.09,11.986,8.266,7.263c1.631-1.489,5.751-2.022,8.189-2.383c3.094-0.456,6.228-0.652,9.36-0.752
				c-0.106,0.443-0.169,0.917-0.169,1.427v53.997c0,7.09,10.97,6.213,10.97-0.846v-53.998c0-0.203-0.011-0.398-0.029-0.59
				c4.823,0.156,9.639,0.457,14.467,0.498C341.055,321.678,340.172,310.707,333.122,310.646z"/>
		</g>
	</g>
</g>
</svg>
