<?xml version="1.0" encoding="utf-8"?>
<!-- Generator: Adobe Illustrator 16.0.3, SVG Export Plug-In . SVG Version: 6.00 Build 0)  -->
<!DOCTYPE svg PUBLIC "-//W3C//DTD SVG 1.1//EN" "http://www.w3.org/Graphics/SVG/1.1/DTD/svg11.dtd">
<svg version="1.1" id="Layer_1" xmlns="http://www.w3.org/2000/svg" xmlns:xlink="http://www.w3.org/1999/xlink" x="0px" y="0px"
	 width="512px" height="512px" viewBox="0 0 512 512" style="enable-background:new 0 0 512 512;" xml:space="preserve">
<style type="text/css">
<![CDATA[
	.st0{fill:#127274;}
	.st1{fill:#14B6B9;}
	.st2{fill:#1E4384;}
	.st3{fill:#EF4754;}
	.st4{fill:#EF4823;}
	.st5{fill:#BCBCBC;}
	.st6{fill:#F6851F;}
	.st7{fill:#C56528;}
	.st8{fill:#FCBF95;}
	.st9{fill:#FEBF10;}
	.st10{fill:none;}
	.st11{fill:#010101;}
	.st12{fill:#3AB37C;}
	.st13{fill:#D6E5E5;}
	.st14{fill:#71C598;}
	.st15{fill:#74CCCF;}
]]>
</style>
<g>
	<g>
		<g>
			<path class="st6" d="M294.254,213.321c-0.685-16.492-2.531-32.357-6.189-48.456c-6.007-26.427-12.351-54.186-25.158-78.29
				c-5.249-9.877-10.745-18.032-23.06-17.354c-11.075,0.611-21.504,4.825-31.82,8.567c-11.758,4.265-24.002,6.862-35.586,11.667
				c-12.052,5-23.407,11.483-33.709,19.512c-10.261,7.997-19.696,17.149-29.547,25.659c-8.784,7.587-18.878,16.667-20.327,28.839
				c-0.045,0.383-0.125,0.732-0.223,1.063c2.021,2.132,2.509,5.809,0.412,8.092c0.566,1.906,1.329,3.751,2.197,5.54
				c2.795,5.751,6.354,11.187,9.91,16.488c7.674,11.44,15.914,22.568,24.682,33.195c21.711,26.317,50.465,59.564,86.074,71.072
				c1.834-0.391,3.779,0.018,5.079,1.499c2.582,0.688,4.08,2.971,4.388,5.316c6.278-1.423,12.443-3.262,18.662-4.917
				c12.915-3.438,26.541-6.619,36.5-16.256c7.942-7.686,12.438-18.853,21.368-25.455
				C295.203,243.987,294.888,228.644,294.254,213.321z M146.891,156.487c0.026-0.713-0.03-1.465,0.189-2.151
				c0.494-1.548,0.497-1.653,1.451-2.953c0.725-0.987,1.909-1.665,3.018-2.116c1.206-0.489,2.544-0.578,3.831-0.58
				c1.603,0,3.034,0.338,4.269,1.426c1.127,0.991,1.838,2.408,1.953,3.905c0.118,1.546-0.401,3.105-1.426,4.27
				c-0.848,0.965-2.196,1.786-3.526,1.923c-0.962,0.914-2.209,1.506-3.538,1.608c-1.545,0.118-3.105-0.401-4.268-1.425
				C147.824,159.497,146.837,157.907,146.891,156.487z M159.84,179.155c-0.239,0.23-0.492,0.449-0.776,0.642
				c-0.44,0.222-0.882,0.442-1.322,0.665c-0.305,0.151-0.627,0.344-0.96,0.428c-1.012,0.255-2.052,0.526-3.104,0.232
				c-1.628-0.455-2.672-1.125-3.716-2.457c-1.505-1.922-1.304-5.447,0.52-7.154c0.502-0.469,1.006-0.945,1.587-1.315
				c1.008-0.641,2.097-1.184,3.178-1.679c1.015-0.463,2.183-0.845,3.293-0.876c3.153-0.091,5.972,2.07,6.222,5.329
				C164.982,175.867,162.791,178.823,159.84,179.155z M183.592,133.544c-1.056-0.928-1.953-2.458-1.953-3.906v-2.93
				c0-1.604,0.337-3.034,1.425-4.271c0.991-1.126,2.409-1.837,3.905-1.952c1.546-0.119,3.106,0.4,4.27,1.425
				c1.055,0.929,1.952,2.458,1.952,3.905v2.932c0,1.603-0.337,3.034-1.425,4.27c-0.991,1.125-2.408,1.837-3.904,1.952
				C186.314,135.087,184.754,134.567,183.592,133.544z M195.756,207.622c-7.432,0-8.355-11.553-0.89-11.553
				C202.299,196.069,203.222,207.622,195.756,207.622z M209.139,175.659c-0.928,1.056-2.459,1.952-3.905,1.952h-1.579
				c-1.603,0-3.034-0.336-4.27-1.423c-1.125-0.992-1.837-2.41-1.952-3.906c-0.118-1.547,0.401-3.105,1.425-4.27
				c0.929-1.055,2.459-1.951,3.906-1.951h1.579c1.603,0,3.034,0.336,4.269,1.423c1.126,0.993,1.838,2.409,1.953,3.905
				C210.683,172.937,210.163,174.497,209.139,175.659z M219.449,130.23c-7.434,0-8.357-11.552-0.893-11.552
				C225.99,118.679,226.914,130.23,219.449,130.23z M256.521,175.659c-0.898,1.021-2.486,2.006-3.904,1.952
				c-1.644-0.061-2.119-0.099-3.633-0.681c-0.588-0.227-1.307-0.773-1.708-1.076c-0.069-0.053-0.13-0.117-0.194-0.176
				c-0.665-0.211-1.291-0.539-1.893-1.07c-1.127-0.99-1.838-2.408-1.953-3.905c-0.118-1.546,0.4-3.105,1.425-4.27
				c0.897-1.019,2.487-2.005,3.906-1.952c1.641,0.062,2.116,0.102,3.63,0.682c0.588,0.226,1.308,0.773,1.708,1.077
				c0.068,0.052,0.128,0.116,0.194,0.173c0.664,0.212,1.291,0.541,1.895,1.071c1.127,0.993,1.837,2.409,1.952,3.905
				C258.064,172.937,257.547,174.497,256.521,175.659z"/>
		</g>
	</g>
	<g>
		<g>
			<path class="st6" d="M367.588,156.138c-0.26-14.784,0.543-29.611-0.41-44.381c-0.575-8.898,0.163-21.236-8.734-26.289
				c-8.168-4.639-17.839-6.199-27.105-6.82c-8.369-0.56-17.133-0.383-25.354,1.434c-5.917,1.309-12.002,2.77-17.485,5.421
				c-1.63,0.786-2.874,1.643-4.056,2.687c-0.517,2.125-2.143,3.93-4.978,4.136c0.037-0.022,0.073-0.046,0.11-0.067
				c-0.359,0.152-0.731,0.277-1.126,0.352c9.862,22.77,15.804,47.189,21.2,71.324c3.601,16.107,5.506,32,6.154,48.496
				c0.32,8.132,0.568,16.273,1.135,24.385c6.016-0.631,12.024-1.412,17.989-2.396c9.386-1.546,17.06-2.729,23.505-9.577
				c8.394-8.917,13.964-20.283,16.873-32.137C368.35,180.306,367.808,168.747,367.588,156.138z"/>
		</g>
	</g>
	<g>
		<g>
			<path class="st6" d="M174.058,366.36c-2.999,3.2-6.584,5.854-10.657,7.889c-10.659,5.323-21.988,9.096-33.799,10.76
				c-9.214,1.297-18.537,1.684-27.79,2.633c0.13,0.156,0.256,0.32,0.376,0.496c7.55,11.055,18.151,20.633,30.846,25.336
				c2.576,0.955,5.398,2.221,7.417,1.465c2.343-0.878,4.719-1.645,7.143-2.264c4.325-1.104,8.724-1.922,13.03-3.092
				c9.547-2.594,18.217-7.811,20.073-18.441C182.107,383.069,180.714,372.06,174.058,366.36z"/>
		</g>
	</g>
	<g>
		<g>
			<path class="st6" d="M150.895,272.233c-12.833-12.655-25.22-26.147-36.528-40.204c-9.933-12.347-19.566-25.149-27.819-38.692
				c-1.099-1.805-2.889-4.607-4.61-7.805c-0.459,0.018-0.94-0.016-1.449-0.113c-0.263-0.052-0.321-0.092-0.331-0.107
				c0.008,0.021-0.017,0.104-0.438,0.299c0.362-0.167-1.333,0.855-1.585,1.094c-2.234,2.111-4.178,4.506-5.914,7.039
				c-4.273,6.232-7.694,13.135-10.827,19.994c-6.142,13.443-10.642,26.164-13.876,40.588c-1.355,6.046-2.896,12.703-1.734,18.912
				c0.993,5.314,5.503,7.982,10.018,10.15c6.887,3.303,13.639,6.812,20.334,10.489c13.823,7.584,27.467,15.501,41.755,22.204
				c13.722,6.439,29.789,13.982,45.327,13.533c5.379-0.155,10.871-1.232,14.351-5.16c4.628-5.227,5.595-12.687,5.651-19.499
				c0.021-2.424,1.268-4.15,2.933-5.123C173.246,292.372,161.551,282.742,150.895,272.233z"/>
		</g>
	</g>
	<g>
		<g>
			<path class="st6" d="M215.594,407.311c-5.573-6.626-16.409-8.492-24.576-8.578c-0.194-0.003-0.383-0.017-0.567-0.033
				c-2.602,6.811-7.271,12.558-13.356,16.522c11.787,3.305,23.079,11.722,35.41,9.75
				C219.965,423.779,219.399,411.836,215.594,407.311z"/>
		</g>
	</g>
	<g>
		<g>
			<path class="st6" d="M168.938,340.784c-0.82,0.117-1.646,0.209-2.475,0.268c-19.201,1.325-38.771-7.373-55.664-15.514
				c-13.992-6.742-27.38-14.557-41.027-21.944c-6.143-3.325-12.525-6.233-18.686-9.511c0.338,19.574,2.754,38.291,9.051,57.007
				c2.294,6.817,4.264,14.104,7.896,20.362c1.741,2.999,3.674,6.027,6.582,8.033c3.057,2.109,5.223,0.17,9.508-0.783
				c20.816-4.631,43.535-1.707,63.469-10.164c7.011-2.975,14.67-5.318,19.447-11.65c1.701-2.256,3.269-4.854,4.074-7.59
				c0.432-1.467,0.89-2.981,1.006-4.516c0.011-0.145,0.036-0.251,0.066-0.344C170.168,343.706,169.172,342.321,168.938,340.784z"/>
		</g>
	</g>
	<g>
		<g>
			<path class="st6" d="M233.326,407.238c-0.085-0.272-0.351-1.363-0.455-1.649c-0.158-0.432-0.33-0.859-0.517-1.281
				c-0.078-0.08-0.755-1.287-0.945-1.551c-0.163-0.227-0.336-0.447-0.509-0.667c-0.099-0.108-0.199-0.216-0.262-0.272
				c-0.276-0.258-0.553-0.518-0.854-0.746c-0.023-0.018-0.035-0.028-0.055-0.044c-0.391-0.191-1.293-0.502-1.207-0.513
				c-0.109-0.021-0.218-0.043-0.328-0.059c-0.008,0-0.012,0.002-0.02,0.002c-0.211,0.012-0.422,0.027-0.633,0.049
				c-0.205,0.061-0.626,0.173-0.764,0.227c-0.259,0.101-0.711,0.355-1.218,0.681c1.441,2.067,2.534,4.47,3.266,7.03
				c1.362-0.71,2.999-0.802,4.591-0.381C233.397,407.788,233.364,407.513,233.326,407.238z"/>
		</g>
	</g>
	<g>
		<g>
			<path class="st6" d="M464.805,215.097c-0.461-0.969-1.262-2.715-2.274-3.443c-0.582,0.676-1.067,1.418-1.426,2.246
				c-1.725,3.13-5.021,3.572-7.58,2.463c-4.156,5.262-9.045,9.89-14.782,13.152c2.243,0.389,4.09,2.03,3.997,5.054
				c-0.197,6.442-3.282,14.616-0.31,20.643c3.439,6.97,11.938-0.971,14.896-4.562c5.497-6.674,8.159-15.447,8.871-23.984
				C466.522,222.759,466.519,218.702,464.805,215.097z"/>
		</g>
	</g>
	<g>
		<g>
			<path class="st6" d="M438.982,267.911c-2.131-1.418-4.018-3.225-5.522-5.299c-2.296,2.614-3.872,5.381-3.428,9.263
				c0.241,0.284,0.47,0.602,0.677,0.966c0.509,0.891,0.057,1.104,1.037,0.804c1.619-0.497,3.001-1.173,4.371-2.187
				c1.166-0.863,2.447-1.933,3.559-3.129C439.443,268.194,439.211,268.063,438.982,267.911z"/>
		</g>
	</g>
	<g>
		<g>
			<path class="st6" d="M425.368,147.06c0.155-8.138-2.77-14.893-8.006-21.068c-9.67-11.404-24.297-20.211-39.244-22.404
				c1.163,10.727,1.1,21.592,1.018,32.369c-0.103,13.359,1.174,26.908,0.393,40.225c-0.666,11.344-3.19,22.767-7.682,33.252
				c6.246,3.878,13.155,9.98,21.064,8.6c5.283-0.921,8.67-6.352,10.873-10.756c5.765-11.521,9.599-24.176,14.654-36.043
				c1.622-3.81,3.343-7.852,4.665-11.994c-0.188-1.245,0.099-2.505,1.013-3.545C424.838,152.831,425.313,149.939,425.368,147.06z"/>
		</g>
	</g>
	<g>
		<g>
			<path class="st6" d="M455.477,184.417c-0.634-3.65-2.842-7.053-5.105-9.896c-2.926-3.676-10.743-12.254-16.73-10.98
				c-1.188,3.863-2.62,7.669-4.227,11.439c-3.163,7.426-6.388,14.705-9.091,22.316c-2.646,7.445-5.375,14.997-10.009,21.478
				c-0.215,0.3-0.439,0.599-0.666,0.895c7.041,5.017,16.222,4.23,23.699-0.33c7.797-4.755,13.646-12.757,17.975-20.708
				C453.58,194.481,456.328,189.329,455.477,184.417z"/>
		</g>
	</g>
	<g>
		<g>
			<path class="st11" d="M476.598,213.513c-1.516-5.166-5.091-10.559-10.098-12.83c-0.964-0.436-1.898-0.693-2.809-0.82
				c5.966-12.745,2.88-24.609-6.35-34.951c-5.546-6.213-13.055-11.806-21.105-12.529c0.314-2.048,0.562-4.115,0.683-6.213
				c0.545-9.426-3.476-18.167-9.048-25.525c-11.387-15.039-30.966-26.822-49.82-28.725c-0.622-0.062-1.204-0.033-1.752,0.062
				c-4.261-19.212-27.056-23.652-43.945-24.783c-9.186-0.615-18.503-0.484-27.542,1.388c-5.95,1.23-11.829,2.685-17.514,4.856
				c-2.624,1.002-5.151,2.299-7.577,3.707c-1.097,0.637-2.089,1.414-3.07,2.212c-0.677,0.575-1.337,1.17-1.98,1.782
				c-0.359,0.428-0.587,0.744-0.716,0.979c-0.091,0.074-0.163,0.157-0.249,0.232c-4.555-9.255-10.014-18.477-20-22.473
				c-10.156-4.062-21.479-1.953-31.648,0.882c-10.838,3.022-21.134,7.62-32.004,10.547c-12.796,3.447-25.092,8.288-36.813,14.463
				c-17.146,9.03-30.161,22.215-44.854,34.467c-12.843,10.709-28.775,23.189-30.899,41.014c-0.226,1.901,0.365,3.459,1.378,4.602
				c-1.761,2.171-1.997,5.131-1.388,8.346c-4.96,1.258-9.06,5.488-12.182,9.462c-5.904,7.515-10.283,16.286-14.28,24.919
				c-7.99,17.259-15.151,36.774-16.889,55.77c-0.84,9.197,1.188,16.719,6.713,22.533c-0.826,0.977-1.354,2.266-1.35,3.854
				c0.032,12.803,0.687,25.555,2.82,38.192c1.855,10.986,5.331,21.396,8.879,31.911c2.877,8.524,6.198,17.531,12.416,24.234
				c2.665,2.873,5.843,5.188,9.57,6.462c5.921,2.024,12.861-1.618,18.877-2.621c0.06-0.011,0.119-0.017,0.179-0.026
				c-0.919,1.635-1.032,3.694,0.355,5.725c9.307,13.628,22.554,24.999,38.33,30.311c2.939,0.989,7.945,3.275,11.03,1.926
				c3.079-1.345,6.233-2.373,9.478-3.244c3.318-0.891,6.679-1.591,10.018-2.379c0.55,2.516,2.56,4.65,5.886,4.352
				c2.419-0.215,6.651,1.087,9.81,2.171c5.518,1.894,10.96,3.989,16.511,5.791c9.476,3.073,21.845,5.899,30.014-1.613
				c3.591-3.302,5.54-8.029,6.079-13.015c5.37,1.83,10.85,1.145,13.936-4.225c2.357-4.104,1.424-9.881-0.293-14.013
				c-2.18-5.247-6.076-9.53-11.574-11.252c-5.505-1.722-10.807,0.685-15.028,4.13c-4.636-2.746-9.964-4.434-15.378-5.375
				c-0.907-0.618-2.034-0.998-3.377-0.998h-5.263c0.509-11.338-3.507-23.123-12.292-30.322c0.25-0.534,0.489-1.076,0.717-1.627
				c2.239-5.439,4.144-14.143-0.176-18.805c2.101-1.332,4.033-2.947,5.729-4.86c4.196-4.739,6.269-10.753,7.243-16.958
				c6.604,11.191,37.38,0.652,45.794-1.715c12.56-3.534,24.825-6.342,36.086-13.31c6.955-4.306,12.544-10.163,17.223-16.798
				c4.178-5.925,7.898-12.541,14.444-16.123c1.607-0.879,2.907-3.424,2.538-5.247c-0.879-4.337-1.542-8.696-2.061-13.071
				c5.169-0.555,10.326-1.232,15.466-2.008c8.339-1.259,17.649-2.345,25.122-6.523c7.549-4.221,13.574-12.077,18.104-20.004
				c8.419,5.18,15.649,10.235,26.021,9.885c2.886-0.097,5.593-0.938,8.068-2.26c8.824,7.723,20.486,8.828,31.191,5.136
				c-0.467,0.813-0.761,1.776-0.794,2.887c-0.154,5.017-1.246,9.911-1.363,14.933c-0.68,0.289-1.338,0.719-1.949,1.331
				c-5.993,6.003-10.786,12.712-9.322,21.645c0.236,1.444,0.881,2.564,1.749,3.386c0.063,0.836,0.312,1.7,0.805,2.564
				c8.244,14.457,27.112,0.38,31.83-10.906c6.823-2.988,13.086-9.543,16.31-14.473C476.457,242.91,480.367,226.374,476.598,213.513z
				 M226.779,400.733c0.138-0.054,0.559-0.166,0.764-0.227c0.211-0.021,0.422-0.037,0.633-0.049c0.008,0,0.012-0.002,0.02-0.002
				c0.11,0.016,0.219,0.037,0.328,0.059c-0.086,0.011,0.816,0.321,1.207,0.513c0.02,0.016,0.031,0.026,0.055,0.044
				c0.301,0.229,0.577,0.488,0.854,0.746c0.062,0.057,0.163,0.164,0.262,0.272c0.173,0.22,0.346,0.44,0.509,0.667
				c0.19,0.264,0.867,1.471,0.945,1.551c0.187,0.422,0.358,0.85,0.517,1.281c0.104,0.286,0.37,1.377,0.455,1.649
				c0.038,0.274,0.071,0.55,0.092,0.825c-1.592-0.421-3.229-0.329-4.591,0.381c-0.731-2.561-1.824-4.963-3.266-7.03
				C226.068,401.089,226.521,400.834,226.779,400.733z M84.123,378.702c-4.285,0.953-6.451,2.893-9.508,0.783
				c-2.908-2.006-4.841-5.034-6.582-8.033c-3.633-6.258-5.603-13.545-7.896-20.362c-6.297-18.716-8.713-37.433-9.051-57.007
				c6.16,3.277,12.543,6.186,18.686,9.511c13.647,7.388,27.035,15.202,41.027,21.944c16.894,8.141,36.463,16.839,55.664,15.514
				c0.829-0.059,1.654-0.15,2.475-0.268c0.234,1.537,1.23,2.922,3.248,3.654c-0.03,0.093-0.056,0.199-0.066,0.344
				c-0.116,1.534-0.574,3.049-1.006,4.516c-0.806,2.736-2.373,5.334-4.074,7.59c-4.777,6.332-12.437,8.676-19.447,11.65
				C127.658,376.995,104.939,374.071,84.123,378.702z M190.45,398.699c0.185,0.017,0.373,0.03,0.567,0.033
				c8.167,0.086,19.003,1.952,24.576,8.578c3.806,4.525,4.371,16.469-3.09,17.661c-12.331,1.972-23.623-6.445-35.41-9.75
				C183.18,411.257,187.849,405.51,190.45,398.699z M180.696,391.142c-1.856,10.631-10.526,15.848-20.073,18.441
				c-4.307,1.17-8.705,1.988-13.03,3.092c-2.424,0.619-4.8,1.386-7.143,2.264c-2.019,0.756-4.841-0.51-7.417-1.465
				c-12.694-4.703-23.296-14.281-30.846-25.336c-0.12-0.176-0.246-0.34-0.376-0.496c9.253-0.949,18.576-1.336,27.79-2.633
				c11.811-1.664,23.14-5.437,33.799-10.76c4.073-2.034,7.658-4.688,10.657-7.889C180.714,372.06,182.107,383.069,180.696,391.142z
				 M183.217,304.955c-0.057,6.812-1.023,14.272-5.651,19.499c-3.479,3.928-8.972,5.005-14.351,5.16
				c-15.538,0.449-31.605-7.094-45.327-13.533c-14.288-6.703-27.932-14.62-41.755-22.204c-6.695-3.677-13.447-7.187-20.334-10.489
				c-4.515-2.168-9.024-4.836-10.018-10.15c-1.162-6.209,0.379-12.866,1.734-18.912c3.234-14.424,7.734-27.145,13.876-40.588
				c3.133-6.859,6.554-13.762,10.827-19.994c1.736-2.533,3.68-4.928,5.914-7.039c0.252-0.238,1.947-1.261,1.585-1.094
				c0.422-0.195,0.446-0.278,0.438-0.299c0.01,0.016,0.068,0.056,0.331,0.107c0.509,0.098,0.99,0.131,1.449,0.113
				c1.722,3.197,3.512,6,4.61,7.805c8.253,13.543,17.887,26.346,27.819,38.692c11.309,14.057,23.695,27.549,36.528,40.204
				c10.656,10.509,22.352,20.139,35.255,27.599C184.484,300.805,183.237,302.531,183.217,304.955z M276.539,284.56
				c-9.959,9.637-23.585,12.818-36.5,16.256c-6.219,1.655-12.384,3.494-18.662,4.917c-0.308-2.346-1.806-4.628-4.388-5.316
				c-1.3-1.481-3.245-1.89-5.079-1.499c-35.609-11.508-64.363-44.755-86.074-71.072c-8.768-10.627-17.008-21.755-24.682-33.195
				c-3.556-5.302-7.115-10.737-9.91-16.488c-0.868-1.789-1.631-3.634-2.197-5.54c2.097-2.283,1.609-5.96-0.412-8.092
				c0.098-0.331,0.178-0.681,0.223-1.063c1.449-12.172,11.543-21.252,20.327-28.839c9.851-8.51,19.286-17.662,29.547-25.659
				c10.302-8.028,21.657-14.512,33.709-19.512c11.584-4.805,23.828-7.402,35.586-11.667c10.316-3.742,20.745-7.956,31.82-8.567
				c12.314-0.679,17.811,7.477,23.06,17.354c12.808,24.104,19.151,51.863,25.158,78.29c3.658,16.099,5.505,31.964,6.189,48.456
				c0.634,15.322,0.949,30.666,3.653,45.783C288.977,265.707,284.481,276.874,276.539,284.56z M365.307,192.704
				c-2.909,11.854-8.479,23.22-16.873,32.137c-6.445,6.848-14.119,8.031-23.505,9.577c-5.965,0.983-11.974,1.765-17.989,2.396
				c-0.566-8.111-0.814-16.253-1.135-24.385c-0.648-16.496-2.554-32.389-6.154-48.496c-5.396-24.135-11.338-48.555-21.2-71.324
				c0.395-0.074,0.767-0.199,1.126-0.352c-0.037,0.021-0.073,0.045-0.11,0.067c2.835-0.206,4.461-2.011,4.978-4.136
				c1.182-1.044,2.426-1.9,4.056-2.687c5.483-2.651,11.568-4.112,17.485-5.421c8.221-1.816,16.984-1.993,25.354-1.434
				c9.267,0.621,18.938,2.182,27.105,6.82c8.897,5.053,8.159,17.391,8.734,26.289c0.953,14.77,0.15,29.597,0.41,44.381
				C367.808,168.747,368.35,180.306,365.307,192.704z M392.911,218.032c-7.909,1.381-14.818-4.722-21.064-8.6
				c4.491-10.485,7.016-21.908,7.682-33.252c0.781-13.316-0.495-26.865-0.393-40.225c0.082-10.777,0.146-21.643-1.018-32.369
				c14.947,2.193,29.574,11,39.244,22.404c5.236,6.176,8.161,12.931,8.006,21.068c-0.055,2.88-0.53,5.771-1.252,8.635
				c-0.914,1.04-1.2,2.3-1.013,3.545c-1.322,4.143-3.043,8.185-4.665,11.994c-5.056,11.867-8.89,24.521-14.654,36.043
				C401.581,211.681,398.194,217.111,392.911,218.032z M409.648,219.668c0.227-0.296,0.451-0.595,0.666-0.895
				c4.634-6.48,7.363-14.032,10.009-21.478c2.703-7.611,5.928-14.891,9.091-22.316c1.606-3.771,3.038-7.576,4.227-11.439
				c5.987-1.273,13.805,7.305,16.73,10.98c2.264,2.844,4.472,6.246,5.105,9.896c0.852,4.912-1.896,10.064-4.154,14.213
				c-4.328,7.951-10.178,15.953-17.975,20.708C425.87,223.898,416.689,224.685,409.648,219.668z M436.117,271.458
				c-1.37,1.014-2.752,1.689-4.371,2.187c-0.98,0.3-0.528,0.087-1.037-0.804c-0.207-0.364-0.436-0.682-0.677-0.966
				c-0.444-3.882,1.132-6.648,3.428-9.263c1.505,2.074,3.392,3.881,5.522,5.299c0.229,0.152,0.461,0.283,0.693,0.418
				C438.564,269.525,437.283,270.595,436.117,271.458z M466.196,226.665c-0.712,8.537-3.374,17.311-8.871,23.984
				c-2.958,3.591-11.456,11.531-14.896,4.562c-2.973-6.026,0.112-14.2,0.31-20.643c0.093-3.023-1.754-4.665-3.997-5.054
				c5.737-3.263,10.626-7.891,14.782-13.152c2.56,1.109,5.855,0.667,7.58-2.463c0.358-0.828,0.844-1.57,1.426-2.246
				c1.013,0.729,1.813,2.475,2.274,3.443C466.519,218.702,466.522,222.759,466.196,226.665z"/>
		</g>
	</g>
	<g>
		<g>
			<path class="st11" d="M164.761,172.97c-0.25-3.259-3.068-5.42-6.222-5.329c-1.11,0.031-2.278,0.413-3.293,0.876
				c-1.081,0.495-2.17,1.038-3.178,1.679c-0.581,0.37-1.085,0.847-1.587,1.315c-1.823,1.707-2.024,5.232-0.52,7.154
				c1.044,1.332,2.088,2.002,3.716,2.457c1.052,0.294,2.092,0.022,3.104-0.232c0.333-0.084,0.655-0.276,0.96-0.428
				c0.44-0.223,0.882-0.443,1.322-0.665c0.284-0.192,0.537-0.411,0.776-0.642C162.791,178.823,164.982,175.867,164.761,172.97z"/>
		</g>
	</g>
	<g>
		<g>
			<path class="st11" d="M191.238,121.91c-1.163-1.024-2.724-1.544-4.27-1.425c-1.496,0.115-2.914,0.826-3.905,1.952
				c-1.088,1.236-1.425,2.667-1.425,4.271v2.93c0,1.448,0.897,2.979,1.953,3.906c1.162,1.023,2.723,1.543,4.27,1.425
				c1.496-0.115,2.913-0.827,3.904-1.952c1.088-1.235,1.425-2.667,1.425-4.27v-2.932C193.19,124.368,192.293,122.839,191.238,121.91
				z"/>
		</g>
	</g>
	<g>
		<g>
			<path class="st11" d="M194.866,196.069c-7.466,0-6.542,11.553,0.89,11.553C203.222,207.622,202.299,196.069,194.866,196.069z"/>
		</g>
	</g>
	<g>
		<g>
			<path class="st11" d="M257.946,171.39c-0.115-1.496-0.825-2.912-1.952-3.905c-0.604-0.53-1.23-0.859-1.895-1.071
				c-0.066-0.057-0.126-0.121-0.194-0.173c-0.4-0.304-1.12-0.852-1.708-1.077c-1.514-0.58-1.989-0.619-3.63-0.682
				c-1.419-0.053-3.009,0.934-3.906,1.952c-1.024,1.164-1.543,2.724-1.425,4.27c0.115,1.497,0.826,2.915,1.953,3.905
				c0.602,0.531,1.228,0.859,1.893,1.07c0.064,0.059,0.125,0.123,0.194,0.176c0.401,0.303,1.12,0.85,1.708,1.076
				c1.514,0.582,1.989,0.62,3.633,0.681c1.418,0.054,3.006-0.932,3.904-1.952C257.547,174.497,258.064,172.937,257.946,171.39z"/>
		</g>
	</g>
	<g>
		<g>
			<path class="st11" d="M218.557,118.679c-7.465,0-6.541,11.552,0.893,11.552C226.914,130.23,225.99,118.679,218.557,118.679z"/>
		</g>
	</g>
	<g>
		<g>
			<path class="st11" d="M210.564,171.39c-0.115-1.496-0.827-2.912-1.953-3.905c-1.234-1.087-2.666-1.423-4.269-1.423h-1.579
				c-1.447,0-2.978,0.896-3.906,1.951c-1.023,1.164-1.543,2.723-1.425,4.27c0.115,1.496,0.827,2.914,1.952,3.906
				c1.235,1.087,2.667,1.423,4.27,1.423h1.579c1.446,0,2.978-0.896,3.905-1.952C210.163,174.497,210.683,172.937,210.564,171.39z"/>
		</g>
	</g>
	<g>
		<g>
			<path class="st11" d="M161.602,154.018c-0.115-1.497-0.826-2.914-1.953-3.905c-1.234-1.088-2.666-1.426-4.269-1.426
				c-1.287,0.002-2.625,0.091-3.831,0.58c-1.108,0.451-2.293,1.129-3.018,2.116c-0.954,1.3-0.957,1.405-1.451,2.953
				c-0.22,0.687-0.163,1.438-0.189,2.151c-0.054,1.42,0.934,3.01,1.953,3.906c1.162,1.023,2.723,1.543,4.268,1.425
				c1.329-0.103,2.576-0.694,3.538-1.608c1.33-0.137,2.679-0.958,3.526-1.923C161.2,157.123,161.72,155.563,161.602,154.018z"/>
		</g>
	</g>
</g>
</svg>
