<?xml version="1.0" encoding="utf-8"?>
<!-- Generator: Adobe Illustrator 16.0.3, SVG Export Plug-In . SVG Version: 6.00 Build 0)  -->
<!DOCTYPE svg PUBLIC "-//W3C//DTD SVG 1.1//EN" "http://www.w3.org/Graphics/SVG/1.1/DTD/svg11.dtd">
<svg version="1.1" id="Layer_1" xmlns="http://www.w3.org/2000/svg" xmlns:xlink="http://www.w3.org/1999/xlink" x="0px" y="0px"
	 width="512px" height="512px" viewBox="0 0 512 512" style="enable-background:new 0 0 512 512;" xml:space="preserve">
<style type="text/css">
<![CDATA[
	.st0{fill:#127274;}
	.st1{fill:#14B6B9;}
	.st2{fill:#1E4384;}
	.st3{fill:#EF4754;}
	.st4{fill:#EF4823;}
	.st5{fill:#BCBCBC;}
	.st6{fill:#F6851F;}
	.st7{fill:#C56528;}
	.st8{fill:#FCBF95;}
	.st9{fill:#FEBF10;}
	.st10{fill:none;}
	.st11{fill:#010101;}
	.st12{fill:#3AB37C;}
	.st13{fill:#D6E5E5;}
	.st14{fill:#71C598;}
	.st15{fill:#74CCCF;}
]]>
</style>
<g>
	<g>
		<g>
			<path class="st4" d="M290.199,339.773c-2.795-7.816-6.279-15.582-10.768-22.6c-1.474,0.629-3.023,1.728-4.286,2.323
				c-1.772,0.835-3.573,1.546-5.426,2.131c2.684,7.3,4.638,14.9,7.545,22.114c0.481,1.193,1.21,3.113,2.142,5.24
				c3.613-2.5,7.913-3.867,12.262-4.882C291.11,342.316,290.56,340.783,290.199,339.773z"/>
		</g>
	</g>
	<g>
		<g>
			<path class="st4" d="M291.492,355.551c-1.77,0.545-4.722,1.268-5.903,2.33c-0.198,0.178-0.405,0.342-0.616,0.498
				c1.82,1.945,3.852,2.982,6.015,2.09c1.954-0.807,2.676-2.926,2.718-5.545C292.964,355.12,292.225,355.325,291.492,355.551z"/>
		</g>
	</g>
	<g>
		<g>
			<path class="st5" d="M389.982,483.642c-0.808-1.296-1.647-2.569-2.558-3.796c-1.968-2.652-4.065-5.193-6.138-7.762
				c-5.779-7.164-10.342-15.668-14.918-23.633c-7.621-13.263-16.771-30.143-9.454-44.865c-0.294-1.792,0.361-3.668,2.468-4.896
				c5.181-3.018,4.883-10.868,4.518-16.073c-0.574-8.178-2.319-16.202-4.596-24.063c-5.545-19.143-14.192-37.211-20.827-55.985
				c-1.249-0.787-2.218-2.073-2.505-3.895c-0.459-2.924-1.201-7.369-4.194-8.384c-1.178-0.399-3.117,0.067-4.98,0.724
				c1.361,1.874,2.432,4.093,3.105,5.718c2.49,6.017,4.439,12.216,7.106,18.157c4.021,8.961,8.664,19.163,5.427,29.09
				c-1.821,5.586-6.15,11.344-12.34,12.197c-11.255,1.551-19.164-12.617-23.414-20.868c-4.323-8.392-8.448-17.331-10.799-26.573
				h-0.002c-0.225,0.008-1.34,0.194-1.088,0.102c-0.375,0.095-0.75,0.188-1.117,0.306c-1.275,0.413-2.534,0.886-3.743,1.468
				c-0.004,0.018-0.824,0.469-1.207,0.689c5.811,9.084,10.623,19.547,13.466,29.888c0.387,1.409,0.762,2.927,1.087,4.502
				c0.371,0.683,0.61,1.417,0.665,2.138c0.036,0.475,0.011,0.92-0.057,1.342c1.194,8.51,0.221,17.77-8.572,21.4
				c-22.37,9.236-30.546-29.334-36.511-46.498c-1.29,0.225-2.583,0.432-3.877,0.633c0.004,0.042,0.015,0.08,0.018,0.123
				c1.526,20.949,15.578,39.508,24.342,57.941c4.316,9.078,8.573,18.428,14.751,26.432c5.907,7.652,13.304,13.099,22.168,16.814
				c18.665,4.213,27.255,27.626,32.971,43.541c1.565,4.359,3.304,8.747,4.479,13.23c0.785,2.996,2.155,13.975,4.689,16.395
				c0.08-0.215,1.147-0.294,1.84-0.599c1.151-0.506,2.292-1.048,3.457-1.522c3.269-1.334,6.502-2.751,9.678-4.293
				c5.701-2.768,11.275-5.776,16.821-8.838C390.089,483.828,390.038,483.73,389.982,483.642z"/>
		</g>
	</g>
	<g>
		<g>
			<path class="st4" d="M68.423,249.66c-1.759-2.632-3.878-6.186-6.669-8.019c-0.151,0.437-0.302,0.872-0.477,1.297
				c-1.031,2.5-2.42,5.165-4.33,7.123c-2.245,2.3-4.85,4.19-7.349,6.19c7.622,5.246,13.155,12.542,8.266,22.553
				c-1.915,3.922-1.271,6.535,2.769,8.236c2.062,0.869,4.2,1.529,6.35,2.157c0.037-1.371,0.1-2.749,0.195-4.134
				c0.567-8.28,1.946-19.064,4.659-29.88C70.783,253.217,69.537,251.328,68.423,249.66z"/>
		</g>
	</g>
	<g>
		<g>
			<path class="st4" d="M480.47,201.045c-1.49-8.838-4.163-17.368-7.049-25.838c-1.767-0.633-3.211-2.121-3.449-4.533
				c-0.132-1.336-0.313-2.763-0.52-4.256c-2.716-1.317-4.341-5.098-2.635-8.012c-6.35-6.843-16.383-11.63-25.037-13.248
				c-12.311-2.303-22.337,3.844-31.191,11.723c-20.43,18.184-42.081,34.791-66.53,47.238c-12.689,6.46-25.966,11.514-39.3,16.461
				c-14.502,5.381-29.166,10.314-44.301,13.597c-30.081,6.522-62.61,4.558-92.796-0.48c-15.309-2.555-30.45-5.673-45.564-9.19
				c-4.478-1.043-9.219-0.828-13.628-2.275c-0.696-0.229-1.394-0.55-2.056-0.945c-10.29,3.258-16.525,15.594-20.146,25.306
				c-0.985,2.642-1.9,5.366-2.746,8.145c0.598,1.734,1.086,3.447,1.422,5.091c0.691,3.386-1.563,5.293-4.219,5.574
				c-2.273,10.309-3.399,20.992-2.833,31.053c1.172,20.819,11.938,38.518,29.725,49.431c18.991,11.65,41.445,16.933,63.47,18.749
				c27.761,2.289,55.72-0.584,82.921-6.389c-4.504-9.18-8.228-18.63-9.61-28.599c-2.311-0.454-3.616-2.038-4.112-3.995
				c-9.094-0.879-17.787-4.357-26.878-6.002c-6.984-1.262-4.876-12.059,2.1-10.797c10.973,1.984,20.861,6.435,32.012,5.725
				c3.452-1.326,7.454-1.785,10.515-1.811c0.5-0.004,0.989,0.051,1.46,0.153c2.83-0.521,5.623-1.192,8.28-2.202
				c3.538-1.345,6.811-3.56,10.462-4.562c3.274-5.001,11.646-8.217,16.797-8.389c1.632-0.055,2.929,0.49,3.878,1.357
				c2.867-0.459,6.323,1.037,7.03,4.703c-0.288-1.488,0.165,0.646,0.234,0.904c0.212,0.79,0.432,1.578,0.673,2.359
				c0.518,1.684,1.067,3.357,1.662,5.015c1.576,4.386,3.316,8.722,5.29,12.944c2.934,6.276,7.463,16.703,13.614,19.792
				c1.095,0.55,0.6,0.396,1.166,0.456c0.082-0.012,0.182-0.035,0.292-0.082c-0.055,0.023,1.276-1.018,1.748-1.812
				c3.921-6.595,0.746-14.092-2.071-20.54c-2.179-4.986-4.254-9.924-6.133-15.025c-0.922-2.504-1.853-5.012-2.898-7.469
				c-0.349-0.82-0.66-1.717-1.09-2.496c-0.094-0.17-0.175-0.311-0.246-0.432c-2.097-1.666-3.158-4.656-1.265-7.309
				c-1.332-2.673-0.818-6.516,2.721-8.074c1.358-0.599,2.859-1.185,4.431-1.671c-0.05-0.813,0.082-1.683,0.461-2.585
				c2.329-5.529,8.802-10.428,12.981-14.479c2.604-2.523,5.223-5.04,7.945-7.436c1.465-1.289,3.207-3.254,5.181-3.83
				c6.797-1.982,10.45,8.396,3.638,10.383c1.905-0.555,0.528-0.204-0.333,0.529c-0.437,0.372-1.456,1.281-2.341,2.097
				c-2.437,2.249-4.84,4.534-7.2,6.862c-2.354,2.32-4.701,4.656-6.938,7.092c-0.366,0.398-0.732,0.8-1.096,1.203
				c0.512,0.225,1.014,0.475,1.495,0.785c4.495,2.9,6.757,7.105,8.056,11.888c0.738,0.579,1.349,1.408,1.729,2.534
				c3.526,10.453,7.79,20.668,11.892,30.938c21.555-8.219,42.646-17.867,61.969-30.518c21.537-14.097,43.969-32.232,54.271-56.549
				C480.911,227.191,482.662,214.054,480.47,201.045z"/>
		</g>
	</g>
	<g>
		<g>
			<path class="st4" d="M500.038,189.139c-2.758-4.874-7.25-9.795-7.15-15.725c0.066-3.977,1.265-7.366,1.949-11.213
				c0.642-3.613-1.833-6.439-4.827-8.32c-5.453-3.426-8.509-8.191-10.949-13.531c-0.774,3.293-0.579,7.053-0.38,10.096
				c0.137,2.096,0.358,4.179,0.611,6.259c0.558,1.104,0.736,2.283,0.548,3.407c2.659,7.904,5.5,15.848,7.805,23.877
				c1.136-0.02,2.321,0.311,3.444,1.129c2.606,1.897,5.871,6.348,9.226,6.711C501.873,191.996,500.826,190.533,500.038,189.139z"/>
		</g>
	</g>
	<g>
		<g>
			<path class="st11" d="M229.904,185.322c-10.946-4.703-3.014-19.666-0.423-27.648c3.754-11.567,3.085-23.253-2.314-34.205
				c-5.046-10.237-13.503-18.061-22.079-25.352c-3.943-3.352-8.188-6.656-9.884-11.721c-1.124-3.355,0.153-11.768,4.072-12.955
				c6.791-2.057,3.146-12.438-3.638-10.383c-12.528,3.795-13.738,21.937-8.729,31.688c2.853,5.553,8.626,9.656,13.246,13.627
				c5.031,4.322,9.843,8.875,13.761,14.25c3.906,5.357,6.183,11.504,7.056,18.051c0.928,6.949-1.952,13.778-4.136,20.203
				c-4.236,12.464-6.503,27.992,8.174,34.301C231.511,197.971,236.42,188.123,229.904,185.322z"/>
		</g>
	</g>
	<g>
		<g>
			<path class="st11" d="M281.633,131.85c-2.257-10.138-9.66-18.022-16.805-25.105c-7.095-7.033-15.002-13.497-20.586-21.875
				c-5.434-8.153-3.908-15.799,2.348-22.988c4.666-5.361-3.61-12.609-8.264-7.262c-7.333,8.426-10.898,18.694-6.813,29.5
				c3.759,9.943,12.305,17.694,19.797,24.863c6.982,6.683,15.629,13.691,18.957,23.086c3.267,9.228,2.317,19.275-1.68,28.047
				c-3.756,8.242-5.166,15.98-0.688,24.211c3.393,6.236,12.481,0.027,9.119-6.152c-3.788-6.964,3.03-15.547,4.824-22.293
				C283.934,148.006,283.383,139.707,281.633,131.85z"/>
		</g>
	</g>
	<g>
		<g>
			<path class="st11" d="M310.745,128.336c1.401-6.444,4.193-12.47,5.111-19.037c0.963-6.894,2.412-13.129,1.981-20.197
				c-0.661-10.838-5.333-19.8-11.585-28.34c-3.785-5.17-10.609-15.801-18.218-14.996c-6.715,0.709-6.279,10.738-0.069,10.992
				c0.162,0.092,0.459,0.276,0.932,0.67c1.231,1.027,2.322,2.229,3.403,3.408c2.759,3.009,5.15,6.424,7.466,9.777
				c5.836,8.449,8.029,17.906,6.949,28.182c-1.226,11.66-6.919,22.436-7.747,34.074c-0.864,12.143,7.663,22.688,8.004,34.805
				c0.2,7.09,11.169,6.23,10.971-0.848C317.566,153.475,307.854,141.632,310.745,128.336z"/>
		</g>
	</g>
	<g>
		<g>
			<path class="st11" d="M505.961,177.779c-2.022-3.188-2.439-4.606-1.654-8.336c0.921-4.373,2.602-8.586,1.134-13.091
				c-1.755-5.386-5.907-9.302-10.537-12.326c-5.293-3.456-7.01-10.983-9.256-16.595c-1.396-3.488-5.099-4.504-8.267-2.741
				c-7.396,4.112-9.716,11.655-9.982,19.917c-4.952-3.417-10.495-6.071-15.907-8.032c-11.176-4.051-23.073-3.886-33.738,1.671
				c-11.667,6.079-20.983,16.49-31.125,24.725c-10.509,8.533-21.549,16.399-33.128,23.414
				c-24.687,14.954-52.907,25.179-80.507,33.311c-30.58,9.01-62.442,8.699-93.842,4.6c-13.58-1.772-27.166-4.324-40.539-7.266
				c-5.761-1.268-12.153-3.73-18.122-4.189c-0.567-1.497-1.853-2.695-3.984-2.988c-20.624-2.84-32.991,12.415-40.228,31.146
				c-2.988-4.041-6.525-7.51-10.375-9.676c-6.46-3.633-11.766-1.146-14.065,5.57c-2.681,7.832-10.354,10.786-15.514,16.727
				c-2.35,2.704-1.489,6.939,1.685,8.559c2.809,1.432,12.328,5.551,10.84,9.908c-1.613,4.723-3.867,8.607-2.785,13.857
				c2.112,10.241,12.818,11.941,21.327,14.688c1.57,15.41,7.372,29.6,18.442,41.603c14.167,15.36,34.852,23.677,54.717,28.601
				c39.302,9.743,79.458,5.988,118.582-2.705c3.797,7.043,7.722,13.978,11.027,20.923c8.981,18.867,19.105,36.282,38.237,45.52
				c0.966,1.272,2.473,2.163,4.483,2.163h0.859c8.779,1.951,14.023,11.695,17.814,19.014c4.499,8.684,7.449,18.133,10.712,27.32
				c2.907,8.188,4.027,29.442,17.48,27.145c5.873-1.002,11.889-4.537,17.208-7.064c6.702-3.184,13.232-6.725,19.724-10.316
				c1.936,0.229,3.844-0.643,4.706-3.135c2.074-5.996-1.414-11.234-4.84-16.003c-4.18-5.815-8.655-11.128-12.506-17.208
				c-5.267-8.316-10.629-16.828-14.751-25.781c-3.216-6.982-6.793-16.871-1.698-23.824c0.224-0.306,0.405-0.616,0.56-0.929
				c11.636-9.961,6.266-32.26,3.219-44.751c-2.043-8.378-4.798-16.525-7.833-24.582c34.36-13.16,67.194-30.076,94.409-55.253
				c16.235-15.019,29.334-33.731,33.35-55.817c1.646-9.057,1.292-17.914-0.177-26.637c5.268,3.677,10.954,6.024,17.095,0.934
				C515.865,193.503,510.08,184.268,505.961,177.779z M67.177,285.064c-0.095,1.385-0.158,2.763-0.195,4.134
				c-2.15-0.628-4.288-1.288-6.35-2.157c-4.039-1.701-4.684-4.314-2.769-8.236c4.889-10.011-0.644-17.307-8.266-22.553
				c2.5-2,5.104-3.891,7.349-6.19c1.91-1.958,3.299-4.623,4.33-7.123c0.175-0.425,0.326-0.86,0.477-1.297
				c2.791,1.833,4.911,5.387,6.669,8.019c1.114,1.668,2.36,3.557,3.413,5.524C69.123,266,67.744,276.784,67.177,285.064z
				 M363.9,382.617c0.365,5.205,0.663,13.056-4.518,16.073c-2.106,1.228-2.762,3.104-2.468,4.896
				c-7.317,14.723,1.833,31.603,9.454,44.865c4.576,7.965,9.14,16.469,14.918,23.633c2.073,2.568,4.17,5.109,6.138,7.762
				c0.91,1.227,1.75,2.5,2.558,3.796c0.056,0.089,0.106,0.187,0.155,0.286c-5.546,3.062-11.121,6.07-16.821,8.838
				c-3.176,1.542-6.41,2.959-9.678,4.293c-1.164,0.475-2.305,1.017-3.457,1.522c-0.693,0.305-1.76,0.384-1.84,0.599
				c-2.535-2.42-3.904-13.398-4.689-16.395c-1.175-4.483-2.913-8.871-4.479-13.23c-5.716-15.915-14.306-39.328-32.971-43.541
				c-8.864-3.716-16.261-9.162-22.168-16.814c-6.178-8.004-10.435-17.354-14.751-26.432c-8.764-18.434-22.815-36.992-24.342-57.941
				c-0.003-0.043-0.014-0.081-0.018-0.123c1.294-0.201,2.588-0.408,3.877-0.633c5.965,17.164,14.142,55.734,36.511,46.498
				c8.793-3.631,9.767-12.891,8.572-21.4c0.068-0.422,0.093-0.867,0.057-1.342c-0.055-0.721-0.294-1.455-0.665-2.138
				c-0.325-1.575-0.7-3.093-1.087-4.502c-2.843-10.341-7.655-20.804-13.466-29.888c0.383-0.221,1.203-0.672,1.207-0.689
				c1.209-0.582,2.468-1.055,3.743-1.468c0.368-0.118,0.743-0.211,1.117-0.306c-0.251,0.093,0.864-0.094,1.088-0.102h0.002
				c2.351,9.242,6.476,18.182,10.799,26.573c4.25,8.251,12.159,22.419,23.414,20.868c6.189-0.854,10.519-6.611,12.34-12.197
				c3.237-9.927-1.405-20.129-5.427-29.09c-2.667-5.941-4.616-12.141-7.106-18.157c-0.673-1.625-1.744-3.844-3.105-5.718
				c1.863-0.656,3.802-1.123,4.98-0.724c2.994,1.015,3.735,5.46,4.194,8.384c0.287,1.821,1.256,3.107,2.505,3.895
				c6.635,18.774,15.282,36.843,20.827,55.985C361.581,366.415,363.326,374.439,363.9,382.617z M279.406,348.982
				c-0.932-2.127-1.661-4.047-2.142-5.24c-2.908-7.214-4.862-14.814-7.545-22.114c1.853-0.585,3.653-1.296,5.426-2.131
				c1.263-0.596,2.812-1.694,4.286-2.323c4.489,7.018,7.973,14.783,10.768,22.6c0.361,1.01,0.911,2.543,1.469,4.327
				C287.319,345.115,283.02,346.482,279.406,348.982z M293.707,354.924c-0.042,2.619-0.764,4.738-2.718,5.545
				c-2.163,0.893-4.195-0.145-6.015-2.09c0.211-0.156,0.417-0.32,0.616-0.498c1.181-1.062,4.133-1.785,5.903-2.33
				C292.225,355.325,292.964,355.12,293.707,354.924z M475.78,239.303c-10.303,24.316-32.734,42.452-54.271,56.549
				c-19.323,12.65-40.414,22.299-61.969,30.518c-4.102-10.27-8.365-20.484-11.892-30.938c-0.38-1.126-0.991-1.955-1.729-2.534
				c-1.299-4.782-3.562-8.987-8.056-11.888c-0.481-0.311-0.983-0.561-1.495-0.785c0.363-0.403,0.729-0.805,1.096-1.203
				c2.237-2.436,4.584-4.771,6.938-7.092c2.36-2.328,4.764-4.613,7.2-6.862c0.885-0.815,1.904-1.725,2.341-2.097
				c0.861-0.733,2.237-1.084,0.333-0.529c6.812-1.986,3.16-12.365-3.638-10.383c-1.975,0.576-3.716,2.541-5.181,3.83
				c-2.722,2.396-5.341,4.912-7.945,7.436c-4.18,4.051-10.652,8.949-12.981,14.479c-0.38,0.902-0.512,1.771-0.461,2.585
				c-1.571,0.486-3.073,1.072-4.431,1.671c-3.539,1.559-4.052,5.401-2.721,8.074c-1.893,2.652-0.832,5.643,1.265,7.309
				c0.071,0.121,0.152,0.262,0.246,0.432c0.431,0.779,0.741,1.676,1.09,2.496c1.045,2.457,1.976,4.965,2.898,7.469
				c1.878,5.102,3.954,10.039,6.133,15.025c2.817,6.448,5.993,13.945,2.071,20.54c-0.472,0.794-1.803,1.835-1.748,1.812
				c-0.11,0.047-0.21,0.07-0.292,0.082c-0.566-0.061-0.07,0.094-1.166-0.456c-6.151-3.089-10.68-13.516-13.614-19.792
				c-1.974-4.223-3.714-8.559-5.29-12.944c-0.595-1.657-1.145-3.331-1.662-5.015c-0.241-0.781-0.46-1.569-0.673-2.359
				c-0.069-0.258-0.522-2.393-0.234-0.904c-0.708-3.666-4.163-5.162-7.03-4.703c-0.95-0.867-2.246-1.412-3.878-1.357
				c-5.151,0.172-13.523,3.388-16.797,8.389c-3.651,1.003-6.924,3.218-10.462,4.562c-2.657,1.01-5.451,1.681-8.28,2.202
				c-0.472-0.103-0.961-0.157-1.46-0.153c-3.061,0.025-7.062,0.484-10.515,1.811c-11.151,0.71-21.04-3.74-32.012-5.725
				c-6.976-1.262-9.083,9.535-2.1,10.797c9.091,1.645,17.784,5.123,26.878,6.002c0.496,1.957,1.801,3.541,4.112,3.995
				c1.382,9.969,5.106,19.419,9.61,28.599c-27.201,5.805-55.16,8.678-82.921,6.389c-22.024-1.816-44.479-7.099-63.47-18.749
				c-17.787-10.913-28.553-28.611-29.725-49.431c-0.567-10.061,0.559-20.744,2.833-31.053c2.655-0.281,4.91-2.188,4.219-5.574
				c-0.336-1.644-0.824-3.356-1.422-5.091c0.845-2.778,1.76-5.503,2.746-8.145c3.622-9.712,9.856-22.048,20.146-25.306
				c0.662,0.396,1.36,0.717,2.056,0.945c4.41,1.447,9.151,1.232,13.628,2.275c15.114,3.518,30.255,6.636,45.564,9.19
				c30.187,5.038,62.715,7.003,92.796,0.48c15.135-3.282,29.799-8.216,44.301-13.597c13.334-4.947,26.611-10.001,39.3-16.461
				c24.449-12.447,46.101-29.055,66.53-47.238c8.854-7.879,18.881-14.025,31.191-11.723c8.654,1.618,18.687,6.405,25.037,13.248
				c-1.706,2.914-0.081,6.694,2.635,8.012c0.206,1.493,0.388,2.92,0.52,4.256c0.238,2.412,1.682,3.9,3.449,4.533
				c2.886,8.47,5.559,17,7.049,25.838C482.662,214.054,480.911,227.191,475.78,239.303z M500.314,191.828
				c-3.355-0.363-6.62-4.813-9.226-6.711c-1.124-0.818-2.309-1.148-3.444-1.129c-2.305-8.029-5.146-15.973-7.805-23.877
				c0.188-1.124,0.01-2.303-0.548-3.407c-0.252-2.08-0.474-4.163-0.611-6.259c-0.199-3.043-0.394-6.803,0.38-10.096
				c2.44,5.34,5.496,10.105,10.949,13.531c2.993,1.881,5.469,4.707,4.827,8.32c-0.684,3.847-1.882,7.236-1.949,11.213
				c-0.101,5.93,4.392,10.851,7.15,15.725C500.826,190.533,501.873,191.996,500.314,191.828z"/>
		</g>
	</g>
</g>
</svg>
