<?xml version="1.0" encoding="utf-8"?>
<!-- Generator: Adobe Illustrator 16.0.3, SVG Export Plug-In . SVG Version: 6.00 Build 0)  -->
<!DOCTYPE svg PUBLIC "-//W3C//DTD SVG 1.1//EN" "http://www.w3.org/Graphics/SVG/1.1/DTD/svg11.dtd">
<svg version="1.1" id="Layer_1" xmlns="http://www.w3.org/2000/svg" xmlns:xlink="http://www.w3.org/1999/xlink" x="0px" y="0px"
	 width="512px" height="512px" viewBox="0 0 512 512" style="enable-background:new 0 0 512 512;" xml:space="preserve">
<style type="text/css">
<![CDATA[
	.st0{fill:#127274;}
	.st1{fill:#14B6B9;}
	.st2{fill:#1E4384;}
	.st3{fill:#EF4754;}
	.st4{fill:#EF4823;}
	.st5{fill:#BCBCBC;}
	.st6{fill:#F6851F;}
	.st7{fill:#C56528;}
	.st8{fill:#FCBF95;}
	.st9{fill:#FEBF10;}
	.st10{fill:none;}
	.st11{fill:#010101;}
	.st12{fill:#3AB37C;}
	.st13{fill:#D6E5E5;}
	.st14{fill:#71C598;}
	.st15{fill:#74CCCF;}
]]>
</style>
<g>
	<g>
		<g>
			<path class="st4" d="M375.112,345.112c-3.304-7.205-5.253-15.306-10.124-21.456c-3.938,1.919-7.852,3.862-11.482,6.312
				c4.635,5.066,7.982,11.27,9.969,18.154c0.254,0.881,0.297,1.707,0.183,2.467c3.354-0.485,6.71-0.977,10.06-1.496
				c0.094-0.015,0.188-0.031,0.281-0.046c0.02-1.265,0.413-2.534,1.191-3.55C375.158,345.369,375.135,345.241,375.112,345.112z"/>
		</g>
	</g>
	<g>
		<g>
			<path class="st4" d="M257.793,346.814c-15.857-13.331-45.319-1.265-52.34,16.968c16.451-0.506,32.896-1.252,49.323-2.257
				C254.581,356.086,255.707,351.192,257.793,346.814z"/>
		</g>
	</g>
	<g>
		<g>
			<path class="st4" d="M415.903,327.253c-6.049-1.301-9.722,1.891-13.115,6.484c-2.823,3.822-5.457,8.104-8.558,11.794
				c8.229-1.458,16.473-2.807,24.775-3.493c3.568-0.295,7.207-0.527,10.857-0.822C427.451,335.438,422.314,328.63,415.903,327.253z"
				/>
		</g>
	</g>
	<g>
		<g>
			<path class="st4" d="M252.027,332.036c4.291,1.195,8.34,3.1,11.924,5.817c2.859-3.086,6.248-5.794,9.938-8.163
				C266.752,324.581,255.857,322.396,252.027,332.036z"/>
		</g>
	</g>
	<g>
		<g>
			<path class="st15" d="M446.451,375.21c-34.897,11.31-71.478,17.598-107.979,20.578c-31.305,2.557-62.713,3.023-94.105,3.311
				c-32.04,0.291-63.99,1.812-96.012,2.657c-15.105,0.397-30.237,0.552-45.338-0.088c2.227,1.56,4.371,3.235,6.385,5.072
				c6.336,5.778,11.281,12.594,16.84,19.065c4.006,4.662,8.672,9.093,14.494,11.352c6.396,2.481,13.824,3.297,20.642,3.595
				c14.989,0.653,30.104-0.14,45.081-0.801c32.646-1.439,65.221-4.765,97.719-8.188c32.168-3.388,63.521-9.891,95.221-16.111
				c11.367-2.232,26.264-3.539,34.852-12.389c7.494-7.724,10.184-18.501,13.777-28.59
				C447.503,374.854,446.98,375.038,446.451,375.21z"/>
		</g>
	</g>
	<g>
		<g>
			<path class="st4" d="M353.092,351.759c-2.916-10.104-9.083-18.471-19.24-22.121c-9.404-3.378-19.865-2.188-29.459-0.282
				c-10.563,2.099-25.121,7.253-33.012,16.407c1.732,3.508-1.118,6.918-4.43,7.467c-0.833,2.338-1.273,4.854-1.197,7.57
				c19.881-1.361,39.735-3.1,59.537-5.314c9.311-1.042,18.611-2.189,27.898-3.44C353.156,351.949,353.12,351.858,353.092,351.759z"
				/>
		</g>
	</g>
	<g>
		<g>
			<path class="st15" d="M480.053,329.976c-2.195,3.646-5.219,6.824-8.537,9.493c-14.422,11.593-34.082,12.013-51.664,13.54
				c-21.665,1.883-43.127,6.952-64.693,9.868c-21.836,2.95-43.748,5.318-65.709,7.126c-32.252,2.653-64.58,4.258-96.924,5.203
				c-31.863,0.931-64.092,1.131-95.916-0.86c-9.377-0.587-19.112-0.696-28.363-2.519c-6.641-1.307-14.109-3.263-19.512-7.675
				c0.725,5.044,3.6,10.154,6.688,13.995c5.88,7.312,15.294,9.859,24.232,10.982c24.944,3.137,50.624,2.264,75.683,1.418
				c31.91-1.076,63.745-2.158,95.675-2.492c31.398-0.329,62.858-0.895,94.134-3.905c30.715-2.956,60.707-8.64,90.375-17.11
				c12.301-3.512,23.846-8.011,33.133-17.109C472.873,345.796,480.831,337.062,480.053,329.976z"/>
		</g>
	</g>
	<g>
		<g>
			<path class="st12" d="M488.051,223.135c-1.445-2.872-2.207-5.757-2.238-8.986c-0.057-5.699,0.021-10.421-4.764-14.237
				c-4.492-3.584-8.703-6.704-14.703-6.303c-10.533,0.705-23.861,3.77-32.227-4.873c-2.904-3.001-3.518-10.07-7.744-11.574
				c-4.327-1.538-10.863,3.21-14.096,5.681c-7.943,6.07-19.305,15.172-27.879,4.463c-2.199-2.747-5.303-12.549-9.734-12.156
				c-4.332,0.384-7.717,6.053-10.068,9.198c-2.898,3.878-6.219,9.994-11.387,11.189c-4.212,0.975-8.023,0.156-11.373-2.67
				c-5.551-4.68-11.922-18.498-21.068-13.962c-5.455,2.706-1.963,9.235,0.26,12.856c2.734,4.453,5.031,8.658,6.277,13.617
				c3.533,1.09,7.016,2.29,10.424,3.635c11.35,4.479,22.611,9.801,32.928,16.437c1.959-7.185,2.136-14.589,2.139-22.085
				c0.004-7.059,10.975-7.937,10.971-0.848c-0.004,10.205-0.531,19.908-3.736,29.547c7.467,5.825,14.199,12.539,19.783,20.383
				c2.672,1.016,5.33,1.591,7.922,1.529c0.061-0.359,0.115-0.721,0.147-1.084c0.441-4.986,5.403-11.287,8.269-15.213
				c2.871-3.938,4.143-9.297,6.416-13.604c2.293-4.343,4.938-8.437,8.582-11.765c5.174-4.726,13.51,2.472,8.265,7.262
				c-6.587,6.015-8.78,14.52-12.937,22.016c1.943-2.01,3.828-4.092,5.679-6.27c4.749-5.586,9.446-10.803,15.552-14.959
				c5.569-3.791,11.484-6.954,17.498-9.978c3.297-1.657,6.732-0.803,8.268,2.741c4.62,10.666,4.785,22.745,1.641,34.075
				c0.08-0.115,0.158-0.23,0.245-0.346c2.261-2.987,5.764-5.4,8.847-7.471c2.594-1.741,7.098-3.945,8.204-7.138
				C493.217,229.919,489.064,225.153,488.051,223.135z M416.415,211.571c-6.151,8.453-11.319,20.33-10.647,30.945
				c0.449,7.087-10.521,7.922-10.971,0.848c-0.868-13.725,5.418-28.15,13.354-39.055
				C412.322,198.577,420.562,205.873,416.415,211.571z"/>
		</g>
	</g>
	<g>
		<g>
			<path class="st4" d="M82.473,351.267c-2.824-3.476-5.498-7.01-8.045-10.609c0.217-0.523,0.19-1.155-0.246-1.827
				c-2.465-3.79-5.342-7.174-8.432-10.36c-5.158,0.559-8.814,6.499-10.001,12.331c0.806,0.644,1.596,1.308,2.359,2.005
				c-0.47,0.421-0.911,0.855-1.331,1.299c-0.445-0.492-0.887-0.988-1.322-1.488c-0.604,5.256,0.947,9.939,5.404,9.84
				c4.564-0.102,6.537,4.424,5.464,7.693c0.038,0.01,0.083,0.02,0.12,0.029c6.918,1.662,13.76,1.941,20.794,2.531
				c3.315,0.278,6.632,0.514,9.95,0.72C91.516,360.147,86.66,356.418,82.473,351.267z"/>
		</g>
	</g>
	<g>
		<g>
			<path class="st13" d="M467.15,323.31c-0.992,1.262-0.082,0.301-0.088-0.547c0.012-0.729-0.009-1.458-0.062-2.186
				c-0.169-1.945-0.386-3.914-0.835-5.818c-0.943-3.982-2.088-7.882-4.336-11.354c-5.425-8.371-13.48-14.201-21.178-20.332
				c-2.605-2.074-2.502-7.029,0.555-8.692c17.516-9.529,28.664-32.041,23.881-51.664c-5.279,2.79-10.457,5.832-15.053,9.609
				c-6.383,5.247-10.961,12.377-16.766,18.233c-4.812,4.855-10.139,9.925-16.514,12.647c-0.324,0.733-0.717,1.412-1.23,1.974
				c-2.127,2.325-6.379,2.578-8.365-0.066c-4.277-0.092-8.512-1.292-12.517-2.915c-0.425-0.118-0.841-0.292-1.238-0.538
				c-1.277-0.654-2.048-1.605-2.405-2.67c-14.43-20.438-39.174-34.498-62.775-41.587c-52.525-15.776-112.463-13.979-164.131,4.327
				c-26.266,9.307-52.354,24.193-72.018,44.182c-5.459,5.549-10.646,11.452-15.301,17.693c-2.718,3.643-5.381,7.422-7.283,11.568
				c-0.629,1.373-1.259,2.74-1.51,4.243c-0.102,0.614,0.26,2.129-0.141,1.446c1.355,2.314,0.881,4.641-0.421,6.304
				c2.348,5.081,4.792,10.128,7.658,14.94c2.917,4.897,6.619,9.073,9.763,13.756c3.344,4.981,6.812,10.285,11.562,14.058
				c1.342,1.065,2.744,1.925,4.213,2.802c0.564,0.336,1.133,0.676,1.71,1c2.761-0.23,5.847,1.303,6.44,4.793
				c0.457,2.68-0.412,4.424-1.906,5.423c8.35,0.366,16.707,0.556,25.065,0.625c14.935,0.124,29.878,0.081,44.82-0.136
				c-0.188-1.345,0.188-2.795,1.403-4.119c4.84-5.275,4.988-16.226,5.621-22.926c0.873-9.234,1.069-18.479,1.019-27.748
				c-0.042-7.636-0.134-15.307-0.943-22.908c-0.67-6.297-2.026-12.441-2.94-18.695c-0.756-5.178-1.314-10.442-2.486-15.547
				c-0.926-4.03-1.855-9.25-4.768-12.412c-4.752-5.158,2.447-13.489,7.262-8.266c7.709,8.369,8.891,20.902,10.432,31.694
				c0.977,6.839,2.537,13.6,3.268,20.47c0.879,8.249,1.123,16.527,1.146,24.818c0.03,10.66-0.164,21.34-1.316,31.947
				c-0.801,7.356-1.568,16.684-5.58,23.477c2.246-0.046,4.493-0.119,6.74-0.175c-0.652-1.301-0.843-2.869-0.248-4.546
				c6.312-17.788,26.635-29.18,45.662-28.98c2.858-8.491,8.918-15.604,18.465-16.24c8.659-0.578,16.955,2.928,23.432,8.535
				c0.527,0.457,0.93,0.951,1.227,1.463c6.439-2.789,13.187-4.739,19.404-5.885c12.376-2.279,25.713-3.23,37.423,2.32
				c1.315,0.623,2.574,1.314,3.788,2.055c0.143-0.13,0.291-0.258,0.451-0.38c5.859-4.468,12.688-7.384,19.257-10.632
				c1.659-0.82,4.165-0.156,5.45,1.059c8.076,7.639,10.037,17.968,14.809,27.311c2.592-2.639,4.652-6.26,6.381-8.791
				c3.558-5.208,7.388-10.926,13.36-13.578c15.509-6.885,30.603,6.598,36.011,20.373c0.256,0.652,0.382,1.274,0.405,1.861
				c6.007-0.932,11.882-2.404,17.354-5.029c2.395-1.148,5.59-3.219,8.311-5.704C465.643,327.491,465.592,325.293,467.15,323.31z
				 M132.034,307.161c-10.828,0.57-24.545-5.548-25.237-17.797c-0.399-7.086,10.57-7.926,10.971-0.848
				c0.34,6.027,9.567,8.454,14.463,7.555c6.411-1.178,6.521-10.625,6.566-15.707c0.064-7.051,11.035-7.934,10.971-0.848
				C149.662,291.315,146.496,306.399,132.034,307.161z M308.533,259.766c-2.777,10.028-13.295,24.104-24.863,23.589
				c-1.891,1.997-5.488,2.564-7.873,0.689c-2.877-1.087-4.193-4.279-3.72-6.88c-2.292-4.993-4.94-9.828-8.526-14.026
				c-5.084-5.948-11.871-10.842-18.613-14.725c-5.852-3.37-11.713-6.579-17.707-9.643c-3.59-1.834-7.876-3.624-10.568-6.706
				c-1.039-1.189-1.197-2.681-0.83-4.084c-1.584-1.83-1.975-4.478,0.318-6.671c9.553-9.139,23.664-11.979,36.521-11.808
				c13.074,0.173,27.059,2.421,38.271,9.563C303.4,227.002,312.66,244.862,308.533,259.766z"/>
		</g>
	</g>
	<g>
		<g>
			<path class="st4" d="M57.216,303.161c-1.646-7.406,3.075-15.682,7.892-22.357c-0.006-0.016-0.012-0.029-0.016-0.045
				c-2.245-7.707-14.938-0.97-19.216,1.543c-2.729,1.602-7.095,3.682-8.634,6.654c-3.076,5.943-1.602,11.508-0.146,17.564
				c2.049-0.165,4.149-0.135,6.236,0.022c7.065,0.529,4.887,11.321-2.099,10.796c-9.44-0.709-11.714,4.384-8.507,12.498
				c1.373,3.475,3.408,6.845,6.256,9.132c1.186,0.952,1.711,1.324,2.828,1.457c-0.203-0.024,0.475-0.241,0.34-0.116
				c0.879-0.82,1.854-1.281,2.836-1.47c1.547-9.306,7.111-18.258,15.688-20.721c-1.6-3.062-3.128-6.177-4.582-9.36
				C55.006,306.384,55.728,304.403,57.216,303.161z"/>
		</g>
	</g>
	<g>
		<g>
			<path class="st9" d="M298.15,250.988c-1.082-11.12-7.396-20.567-17.647-25.096c-9.513-4.202-20.425-5.871-30.786-5.353
				c-7.412,0.37-16.061,1.463-22.467,5.77c0.971,0.544,1.941,1.088,2.929,1.603c2.091,1.091,4.561,1.881,6.552,3.101
				c2.027,1.245,4.096,2.426,6.174,3.596c0.123-2.597,0.387-5.182,0.979-7.717c1.61-6.89,12.413-4.816,10.798,2.098
				c-0.893,3.822-0.912,7.625-0.914,11.527c0,0.135-0.008,0.268-0.016,0.401c1.455,0.92,2.892,1.869,4.285,2.884
				c0.172,0.125,0.334,0.253,0.504,0.379c3.102-5.393,8.559-7.777,13.923-10.432c2.694-1.334,6.108,0.805,7.011,3.373
				c1.086,3.09-0.691,5.683-3.373,7.01c-1.891,0.936-3.262,1.502-4.993,2.618c-1.522,0.981-2.368,1.666-2.898,2.638
				c-0.378,0.693-0.88,1.285-1.461,1.762c0.798,0.78,1.569,1.574,2.319,2.38c0.258-0.046,0.521-0.077,0.791-0.073
				c4.549,0.059,9.229,0.861,13.604-0.707c6.694-2.4,10.307,7.992,3.638,10.383c-3.205,1.148-6.375,1.416-9.593,1.428
				c1.702,2.715,3.271,5.564,4.722,8.582c0.884-0.451,1.922-0.689,3.102-0.599c-1.525-0.118,0.559-0.419,1.234-0.881
				c0.813-0.556,1.684-1.106,2.402-1.785c1.777-1.677,3.474-3.452,4.941-5.411C297.045,260.281,298.67,256.319,298.15,250.988z"/>
		</g>
	</g>
	<g>
		<g>
			<path d="M499.842,221.864c-2.83-4.543-3.011-7.533-3.098-12.801c-0.092-5.467-1.941-10.666-5.641-14.708
				c-8.303-9.069-18.387-12.726-30.411-11.24c-5.556,0.687-11.131,1.344-16.515-0.688c-4.061-1.532-4.625-7.601-7.416-10.683
				c-8.857-9.781-21.471-4.834-30.635,1.977c-2.268,1.687-8.988,8.645-12,7.574c-1.85-0.656-2.771-3.46-3.579-5.041
				c-1.562-3.051-3.54-5.546-6.03-7.904c-10.523-9.961-21.57-0.014-28.184,8.733c-1.656,2.191-3.239,4.448-4.959,6.589
				c-0.436,0.543-0.875,0.992-1.453,1.305c-0.157-0.024-0.45-0.1-0.822-0.375c-3.939-2.916-6.658-7.604-10.033-11.123
				c-7.75-8.082-22.283-8.832-29.179,0.746c-3.413,4.74-3.585,10.354-1.998,15.799c1.274,4.375,4.222,7.984,6.429,11.923
				c-18.924-4.233-38.854-5.613-57.689-5.854c-55.936-0.714-112.771,14.047-157.211,48.926
				c-9.975,7.827-18.908,16.559-26.924,26.301c-6.877-8.178-21.021-4.285-29.965,0.346c-4.932,2.555-11.166,5.952-14.174,10.828
				c-5.641,9.144-3.885,17.873-1.658,27.553c-1.409,1.043-2.684,2.346-3.768,3.981c-3.656,5.521-2.854,12.813-0.836,18.767
				c2.588,7.641,9.797,17.061,17.829,18.362c-3.856,7.846-2.483,17.472,1.528,25.436c5.141,10.204,13.438,17.362,24.342,20.783
				c4.305,1.351,8.727,2.188,13.195,2.747c0.41,1.141,1.314,2.141,2.848,2.746c12.045,4.76,21.741,12.18,29.807,22.301
				c7.525,9.447,15.158,18.877,27.012,22.863c13.727,4.615,29.036,4.088,43.32,3.718c15.492-0.403,30.976-0.919,46.451-1.802
				c16.33-0.933,32.629-3.045,48.916-4.543c16.5-1.518,32.994-3.091,49.432-5.188c15.881-2.026,31.606-5.118,47.289-8.292
				c14.871-3.01,29.991-5.443,44.71-9.112c10.169-2.535,19.741-7.104,26.468-15.354c8.402-10.306,10.309-24.336,15.97-36.071
				c0.482-1,0.647-1.963,0.573-2.852c7.528-4.243,14.273-9.713,19.918-16.576c8.334-10.133,13.822-24.619,3.213-35.152
				c-0.657-0.652-1.351-1.074-2.049-1.312c-1.211-4.097-4.257-7.5-7.902-10.058c-0.164-0.451-0.328-0.894-0.488-1.315
				c-3.951-10.384-12.283-17.881-20.787-24.725c8.654-6.568,15.471-15.986,19.502-26.409c-0.064,4.53,2.588,9.037,3.002,13.894
				c0.391,4.579-10.699,5.882-13.728,6.867c-6.745,2.195-3.114,12.58,3.638,10.383c8.307-2.703,17.992-4.182,20.753-13.754
				c1.397-4.846-0.757-10.395-2.413-14.848c-1.376-3.701,4.699-6.213,7.236-7.916c4.146-2.785,8.332-5.895,10.588-10.477
				C504.809,231.971,502.65,226.372,499.842,221.864z M82.473,351.267c4.188,5.151,9.043,8.881,14.715,12.163
				c-3.318-0.206-6.635-0.441-9.95-0.72c-7.034-0.59-13.876-0.869-20.794-2.531c-0.037-0.01-0.082-0.02-0.12-0.029
				c1.073-3.27-0.899-7.795-5.464-7.693c-4.457,0.1-6.008-4.584-5.404-9.84c0.436,0.5,0.877,0.996,1.322,1.488
				c0.42-0.443,0.861-0.878,1.331-1.299c-0.764-0.697-1.554-1.361-2.359-2.005c1.187-5.832,4.843-11.772,10.001-12.331
				c3.09,3.187,5.967,6.57,8.432,10.36c0.437,0.672,0.463,1.304,0.246,1.827C76.975,344.257,79.648,347.791,82.473,351.267z
				 M42.15,340.31c0.135-0.125-0.543,0.092-0.34,0.116c-1.117-0.133-1.643-0.505-2.828-1.457c-2.848-2.287-4.883-5.657-6.256-9.132
				c-3.207-8.114-0.934-13.207,8.507-12.498c6.985,0.525,9.164-10.267,2.099-10.796c-2.087-0.157-4.188-0.188-6.236-0.022
				c-1.455-6.057-2.93-11.621,0.146-17.564c1.539-2.973,5.904-5.053,8.634-6.654c4.278-2.513,16.971-9.25,19.216-1.543
				c0.004,0.016,0.01,0.029,0.016,0.045c-4.816,6.676-9.537,14.951-7.892,22.357c-1.488,1.242-2.21,3.223-1.124,5.598
				c1.454,3.184,2.982,6.299,4.582,9.36c-8.576,2.463-14.141,11.415-15.688,20.721C44.004,339.028,43.029,339.489,42.15,340.31z
				 M434.25,403.263c-8.588,8.85-23.484,10.156-34.852,12.389c-31.699,6.221-63.053,12.724-95.221,16.111
				c-32.498,3.424-65.072,6.749-97.719,8.188c-14.977,0.661-30.092,1.454-45.081,0.801c-6.817-0.298-14.245-1.113-20.642-3.595
				c-5.822-2.259-10.488-6.689-14.494-11.352c-5.559-6.472-10.504-13.287-16.84-19.065c-2.014-1.837-4.158-3.513-6.385-5.072
				c15.101,0.64,30.232,0.485,45.338,0.088c32.021-0.845,63.972-2.366,96.012-2.657c31.393-0.287,62.801-0.754,94.105-3.311
				c36.501-2.98,73.081-9.269,107.979-20.578c0.529-0.172,1.052-0.355,1.576-0.537C444.434,384.762,441.744,395.539,434.25,403.263z
				 M480.053,329.976c0.778,7.087-7.18,15.82-11.398,19.955c-9.287,9.099-20.832,13.598-33.133,17.109
				c-29.668,8.471-59.66,14.154-90.375,17.11c-31.275,3.011-62.735,3.576-94.134,3.905c-31.93,0.334-63.765,1.416-95.675,2.492
				c-25.059,0.846-50.738,1.719-75.683-1.418c-8.938-1.123-18.353-3.671-24.232-10.982c-3.089-3.841-5.964-8.951-6.688-13.995
				c5.402,4.412,12.871,6.368,19.512,7.675c9.251,1.822,18.986,1.932,28.363,2.519c31.824,1.991,64.053,1.791,95.916,0.86
				c32.344-0.945,64.672-2.55,96.924-5.203c21.961-1.808,43.873-4.176,65.709-7.126c21.566-2.916,43.028-7.985,64.693-9.868
				c17.582-1.527,37.242-1.947,51.664-13.54C474.834,336.8,477.857,333.622,480.053,329.976z M271.381,345.763
				c7.891-9.154,22.448-14.309,33.012-16.407c9.594-1.906,20.055-3.096,29.459,0.282c10.157,3.65,16.324,12.017,19.24,22.121
				c0.028,0.1,0.064,0.19,0.098,0.286c-9.287,1.251-18.588,2.398-27.898,3.44c-19.802,2.215-39.656,3.953-59.537,5.314
				c-0.076-2.716,0.364-5.232,1.197-7.57C270.263,352.681,273.113,349.271,271.381,345.763z M263.951,337.854
				c-3.584-2.718-7.633-4.622-11.924-5.817c3.83-9.641,14.725-7.455,21.861-2.346C270.199,332.06,266.811,334.768,263.951,337.854z
				 M257.793,346.814c-2.086,4.378-3.212,9.271-3.017,14.711c-16.427,1.005-32.872,1.751-49.323,2.257
				C212.474,345.55,241.936,333.483,257.793,346.814z M363.475,348.122c-1.986-6.885-5.334-13.088-9.969-18.154
				c3.631-2.449,7.545-4.393,11.482-6.312c4.871,6.15,6.82,14.251,10.124,21.456c0.022,0.129,0.046,0.257,0.077,0.385
				c-0.778,1.016-1.172,2.285-1.191,3.55c-0.094,0.015-0.188,0.031-0.281,0.046c-3.35,0.52-6.705,1.011-10.06,1.496
				C363.771,349.829,363.729,349.003,363.475,348.122z M394.23,345.531c3.101-3.69,5.734-7.972,8.558-11.794
				c3.394-4.594,7.066-7.785,13.115-6.484c6.411,1.377,11.548,8.186,13.96,13.963c-3.65,0.295-7.289,0.527-10.857,0.822
				C410.703,342.725,402.459,344.073,394.23,345.531z M441.207,274.381c-3.057,1.663-3.16,6.618-0.555,8.692
				c7.697,6.131,15.753,11.961,21.178,20.332c2.248,3.472,3.393,7.371,4.336,11.354c0.449,1.904,0.666,3.873,0.835,5.818
				c0.053,0.728,0.073,1.456,0.062,2.186c0.006,0.848-0.904,1.809,0.088,0.547c-1.559,1.983-1.508,4.182-0.605,5.94
				c-2.721,2.485-5.916,4.556-8.311,5.704c-5.473,2.625-11.348,4.098-17.354,5.029c-0.023-0.587-0.149-1.209-0.405-1.861
				c-5.408-13.775-20.502-27.258-36.011-20.373c-5.973,2.652-9.803,8.37-13.36,13.578c-1.729,2.531-3.789,6.152-6.381,8.791
				c-4.771-9.343-6.732-19.672-14.809-27.311c-1.285-1.215-3.791-1.879-5.45-1.059c-6.568,3.248-13.397,6.164-19.257,10.632
				c-0.16,0.122-0.309,0.25-0.451,0.38c-1.214-0.74-2.473-1.432-3.788-2.055c-11.71-5.551-25.047-4.6-37.423-2.32
				c-6.218,1.146-12.965,3.096-19.404,5.885c-0.297-0.512-0.699-1.006-1.227-1.463c-6.477-5.607-14.772-9.113-23.432-8.535
				c-9.547,0.636-15.606,7.749-18.465,16.24c-19.027-0.199-39.35,11.192-45.662,28.98c-0.595,1.677-0.404,3.245,0.248,4.546
				c-2.247,0.056-4.494,0.129-6.74,0.175c4.012-6.793,4.779-16.12,5.58-23.477c1.152-10.607,1.347-21.287,1.316-31.947
				c-0.023-8.291-0.268-16.569-1.146-24.818c-0.73-6.87-2.291-13.631-3.268-20.47c-1.541-10.792-2.723-23.325-10.432-31.694
				c-4.814-5.224-12.014,3.107-7.262,8.266c2.912,3.162,3.842,8.382,4.768,12.412c1.172,5.104,1.73,10.369,2.486,15.547
				c0.914,6.254,2.271,12.398,2.94,18.695c0.81,7.602,0.901,15.272,0.943,22.908c0.051,9.27-0.146,18.514-1.019,27.748
				c-0.633,6.7-0.781,17.65-5.621,22.926c-1.215,1.324-1.592,2.774-1.403,4.119c-14.942,0.217-29.886,0.26-44.82,0.136
				c-8.358-0.069-16.716-0.259-25.065-0.625c1.494-0.999,2.363-2.743,1.906-5.423c-0.594-3.49-3.68-5.023-6.44-4.793
				c-0.577-0.324-1.146-0.664-1.71-1c-1.469-0.877-2.871-1.736-4.213-2.802c-4.75-3.772-8.219-9.076-11.562-14.058
				c-3.144-4.683-6.846-8.858-9.763-13.756c-2.866-4.812-5.311-9.859-7.658-14.94c1.302-1.663,1.776-3.989,0.421-6.304
				c0.4,0.683,0.039-0.832,0.141-1.446c0.251-1.503,0.881-2.87,1.51-4.243c1.902-4.146,4.565-7.926,7.283-11.568
				c4.654-6.241,9.842-12.145,15.301-17.693c19.663-19.988,45.752-34.875,72.018-44.182c51.668-18.307,111.605-20.104,164.131-4.327
				c23.602,7.089,48.346,21.149,62.775,41.587c0.357,1.064,1.128,2.016,2.405,2.67c0.397,0.246,0.813,0.42,1.238,0.538
				c4.005,1.623,8.239,2.823,12.517,2.915c1.986,2.645,6.238,2.392,8.365,0.066c0.514-0.562,0.906-1.24,1.23-1.974
				c6.375-2.723,11.702-7.792,16.514-12.647c5.805-5.856,10.383-12.986,16.766-18.233c4.596-3.777,9.773-6.819,15.053-9.609
				C469.871,242.34,458.723,264.852,441.207,274.381z M492.411,232.243c-1.106,3.192-5.61,5.396-8.204,7.138
				c-3.083,2.07-6.586,4.483-8.847,7.471c-0.087,0.115-0.165,0.23-0.245,0.346c3.145-11.33,2.979-23.409-1.641-34.075
				c-1.535-3.544-4.971-4.398-8.268-2.741c-6.014,3.023-11.929,6.187-17.498,9.978c-6.105,4.156-10.803,9.373-15.552,14.959
				c-1.851,2.178-3.735,4.26-5.679,6.27c4.156-7.496,6.35-16.001,12.937-22.016c5.245-4.79-3.091-11.987-8.265-7.262
				c-3.645,3.328-6.289,7.422-8.582,11.765c-2.273,4.308-3.545,9.667-6.416,13.604c-2.865,3.926-7.827,10.227-8.269,15.213
				c-0.032,0.363-0.087,0.725-0.147,1.084c-2.592,0.062-5.25-0.514-7.922-1.529c-5.584-7.844-12.316-14.558-19.783-20.383
				c3.205-9.639,3.732-19.342,3.736-29.547c0.004-7.089-10.967-6.211-10.971,0.848c-0.003,7.496-0.18,14.9-2.139,22.085
				c-10.316-6.636-21.578-11.958-32.928-16.437c-3.408-1.345-6.891-2.545-10.424-3.635c-1.246-4.959-3.543-9.164-6.277-13.617
				c-2.223-3.621-5.715-10.15-0.26-12.856c9.146-4.536,15.518,9.282,21.068,13.962c3.35,2.826,7.161,3.645,11.373,2.67
				c5.168-1.195,8.488-7.312,11.387-11.189c2.352-3.146,5.736-8.814,10.068-9.198c4.432-0.393,7.535,9.409,9.734,12.156
				c8.574,10.709,19.936,1.607,27.879-4.463c3.232-2.471,9.769-7.219,14.096-5.681c4.227,1.504,4.84,8.573,7.744,11.574
				c8.365,8.643,21.693,5.578,32.227,4.873c6-0.401,10.211,2.719,14.703,6.303c4.785,3.816,4.707,8.538,4.764,14.237
				c0.031,3.229,0.793,6.114,2.238,8.986C489.064,225.153,493.217,229.919,492.411,232.243z"/>
		</g>
	</g>
	<g>
		<g>
			<path d="M138.797,280.364c-0.045,5.082-0.155,14.529-6.566,15.707c-4.896,0.899-14.123-1.527-14.463-7.555
				c-0.4-7.078-11.37-6.238-10.971,0.848c0.692,12.249,14.409,18.367,25.237,17.797c14.462-0.762,17.628-15.846,17.733-27.645
				C149.832,272.431,138.861,273.313,138.797,280.364z"/>
		</g>
	</g>
	<g>
		<g>
			<path d="M214.903,118.683c-2.095-10.256-6.943-18.038-13.424-26.051c-2.872-3.551-4.133-6.07-4.022-10.564
				c0.041-1.671,0.456-3.38,0.86-4.992c0.278-1.111,1.3-1.739,0.389-1.65c7.04-0.702,6.229-11.676-0.847-10.969
				c-10.068,1.004-11.682,13.396-11.352,21.469c0.223,5.453,3.521,9.977,6.832,14.07c4.502,5.564,8.033,10.796,10.097,17.744
				c1.634,5.5,2.483,11.857,0.366,17.336c-1.699,4.398-5.006,7.463-8.189,10.748c-2.344,2.418-5.141,5.467-5.608,8.941
				c-0.726,5.379,3.98,8.012,8.701,7.66c4.62-0.341,5.864-5.151,4.192-8.293c0.325-0.352,0.653-0.701,0.979-1.046
				c2.232-2.373,4.436-4.47,6.346-7.149C216.094,137.706,216.884,128.38,214.903,118.683z"/>
		</g>
	</g>
	<g>
		<g>
			<path d="M258.016,129.097c5.545-8.511,6.117-17.268,3.816-26.988c-1.936-8.187-6.492-15.977-11.094-22.945
				c-3.111-4.712-10.628-13.562-8.528-19.775c2.239-6.627-7.593-11.588-9.854-4.895c-5.499,16.275,10.729,30.588,16.76,44.441
				c2.219,5.092,3.607,10.617,3.061,16.192c-0.517,5.254-4.695,10.065-7.485,14.335c-2.261,3.459-4.603,7.247-5.101,11.419
				c-0.526,4.414,1.271,8.729,2.502,12.878c2.016,6.803,12.396,3.154,10.383-3.637c-0.787-2.654-2.76-6.347-1.707-9.152
				C252.35,136.752,255.572,132.846,258.016,129.097z"/>
		</g>
	</g>
	<g>
		<g>
			<path d="M288.475,71.122c-2.836-6.443-13.248-2.874-10.383,3.637c4.744,10.784,10.188,21.515,11.707,33.332
				c0.669,5.194,0.295,10.232-0.854,15.306c-0.45,1.989-1.502,7.847-4.086,8.06c-7.059,0.58-6.236,11.553,0.847,10.969
				c11.51-0.947,14.675-15.672,15.265-25.089C302.012,100.67,295.012,85.979,288.475,71.122z"/>
		</g>
	</g>
	<g>
		<g>
			<path d="M408.15,204.31c-7.936,10.904-14.222,25.33-13.354,39.055c0.449,7.074,11.42,6.239,10.971-0.848
				c-0.672-10.615,4.496-22.492,10.647-30.945C420.562,205.873,412.322,198.577,408.15,204.31z"/>
		</g>
	</g>
	<g>
		<g>
			<path d="M290.943,219.065c-11.213-7.143-25.197-9.391-38.271-9.563c-12.857-0.171-26.969,2.669-36.521,11.808
				c-2.293,2.193-1.902,4.841-0.318,6.671c-0.367,1.403-0.209,2.895,0.83,4.084c2.692,3.082,6.979,4.872,10.568,6.706
				c5.994,3.063,11.855,6.272,17.707,9.643c6.742,3.883,13.529,8.776,18.613,14.725c3.586,4.198,6.234,9.033,8.526,14.026
				c-0.474,2.601,0.843,5.793,3.72,6.88c2.385,1.875,5.982,1.308,7.873-0.689c11.568,0.516,22.086-13.561,24.863-23.589
				C312.66,244.862,303.4,227.002,290.943,219.065z M293.91,264.466c-1.468,1.959-3.164,3.734-4.941,5.411
				c-0.719,0.679-1.589,1.229-2.402,1.785c-0.676,0.462-2.76,0.763-1.234,0.881c-1.18-0.091-2.218,0.147-3.102,0.599
				c-1.451-3.018-3.02-5.867-4.722-8.582c3.218-0.012,6.388-0.279,9.593-1.428c6.669-2.391,3.057-12.783-3.638-10.383
				c-4.375,1.568-9.056,0.766-13.604,0.707c-0.271-0.004-0.533,0.027-0.791,0.073c-0.75-0.806-1.521-1.6-2.319-2.38
				c0.581-0.477,1.083-1.068,1.461-1.762c0.53-0.972,1.376-1.656,2.898-2.638c1.731-1.116,3.103-1.683,4.993-2.618
				c2.682-1.327,4.459-3.92,3.373-7.01c-0.902-2.568-4.316-4.707-7.011-3.373c-5.364,2.654-10.821,5.039-13.923,10.432
				c-0.17-0.126-0.332-0.254-0.504-0.379c-1.394-1.015-2.83-1.964-4.285-2.884c0.008-0.134,0.016-0.267,0.016-0.401
				c0.002-3.902,0.021-7.705,0.914-11.527c1.615-6.914-9.188-8.987-10.798-2.098c-0.593,2.535-0.856,5.12-0.979,7.717
				c-2.078-1.17-4.146-2.351-6.174-3.596c-1.991-1.22-4.461-2.01-6.552-3.101c-0.987-0.515-1.958-1.059-2.929-1.603
				c6.406-4.307,15.055-5.399,22.467-5.77c10.361-0.519,21.273,1.15,30.786,5.353c10.251,4.528,16.565,13.976,17.647,25.096
				C298.67,256.319,297.045,260.281,293.91,264.466z"/>
		</g>
	</g>
</g>
</svg>
