<?xml version="1.0" encoding="utf-8"?>
<!-- Generator: Adobe Illustrator 16.0.3, SVG Export Plug-In . SVG Version: 6.00 Build 0)  -->
<!DOCTYPE svg PUBLIC "-//W3C//DTD SVG 1.1//EN" "http://www.w3.org/Graphics/SVG/1.1/DTD/svg11.dtd">
<svg version="1.1" id="Layer_1" xmlns="http://www.w3.org/2000/svg" xmlns:xlink="http://www.w3.org/1999/xlink" x="0px" y="0px"
	 width="512px" height="512px" viewBox="0 0 512 512" style="enable-background:new 0 0 512 512;" xml:space="preserve">
<style type="text/css">
<![CDATA[
	.st0{fill:#127274;}
	.st1{fill:#14B6B9;}
	.st2{fill:#1E4384;}
	.st3{fill:#EF4754;}
	.st4{fill:#EF4823;}
	.st5{fill:#BCBCBC;}
	.st6{fill:#F6851F;}
	.st7{fill:#C56528;}
	.st8{fill:#FCBF95;}
	.st9{fill:#FEBF10;}
	.st10{fill:none;}
	.st11{fill:#010101;}
	.st12{fill:#3AB37C;}
	.st13{fill:#D6E5E5;}
	.st14{fill:#71C598;}
	.st15{fill:#74CCCF;}
]]>
</style>
<g>
	<g>
		<g>
			<path class="st9" d="M445.309,398.556l-0.229,0.123c-0.006,0.014-0.012,0.032-0.018,0.05c0.012-0.005,0.021-0.008,0.033-0.013
				c-0.016,0.007-0.02,0.008-0.033,0.014c-0.062,0.2-0.184,0.611-0.467,1.463c0.221-0.666,0.533-1.24,0.906-1.733
				C445.42,398.514,445.355,398.544,445.309,398.556z"/>
		</g>
	</g>
	<g>
		<g>
			<path class="st9" d="M212.494,310.274c-8.174-1.662-17.02-0.559-23.896,4.469c-4.309,3.148-12.889,11.548-10.83,17.826
				c0.846,0.782,1.479,1.857,1.711,3.248c2.178,13,14.547,22.637,26.893,25.367c11.781,2.605,25.707-0.473,29.174-13.689
				C239.988,330.556,229.906,313.815,212.494,310.274z"/>
		</g>
	</g>
	<g>
		<g>
			<path class="st9" d="M321.986,397.964c-5.461,1.451-15.273,5.723-16.4,12.318c8.842-1.148,17.686-2.285,26.537-3.35
				c1.875-0.226,3.75-0.445,5.625-0.662C334.129,400.86,328.533,396.225,321.986,397.964z"/>
		</g>
	</g>
	<g>
		<g>
			<path class="st9" d="M158.258,381.116c-8.684-1.76-15.984,3.636-15.779,12.701c0.02,0.819-0.117,1.551-0.363,2.201
				c0.227,0.686,0.332,1.443,0.277,2.271c-0.121,1.818,0.998,3.37,2.645,4.24c2.416,1.278,5.035,1.947,7.975,1.922
				c5.477-0.048,13.611-1.59,16.102-6.685C172.186,391.479,165.209,382.524,158.258,381.116z"/>
		</g>
	</g>
	<g>
		<g>
			<path class="st9" d="M132.867,200.685c-2.471,0.27-4.938,0.52-7.406,0.76c-0.201,6.631,2.186,13.596,10.109,12.785
				c6.154-0.629,11.082-5.176,10.938-11.564c-0.033-1.507,0.441-2.729,1.205-3.656C142.764,199.572,137.816,200.144,132.867,200.685
				z"/>
		</g>
	</g>
	<g>
		<g>
			<path class="st9" d="M448.477,274.858c-0.451-5.543-0.924-11.084-1.406-16.625c-0.574-0.18-1.148-0.459-1.707-0.859
				c-4.01-2.871-9.85-2.21-13.648,0.715c-4.57,3.521-5.9,9.811-3.973,15.195c1.801,5.023,5.748,8.602,10.998,9.754
				c2.234,0.49,4.584,0.986,6.881,1.015c0.934,0.011,1.881,0.036,2.811-0.068c0.207-0.308,0.443-0.579,0.701-0.818
				C448.92,280.396,448.701,277.627,448.477,274.858z"/>
		</g>
	</g>
	<g>
		<g>
			<path class="st9" d="M390.658,165.095c-22.105,2.707-44.096,7.036-66.002,10.532c-5.135,0.818-10.271,1.622-15.41,2.419
				c-0.031,0.532-0.131,1.081-0.326,1.643c-1.209,3.5,3.377,10.014,5.111,12.713c2.635,4.104,5.402,8.528,9.672,11.131
				c10.121,6.17,22.354,7.57,33.867,5.225c20.174-4.113,34.605-19.305,35.148-39.339
				C391.51,168.336,390.686,166.771,390.658,165.095z"/>
		</g>
	</g>
	<g>
		<g>
			<path class="st4" d="M434.76,137.604c-5.227-6.525-12.604-11.412-19.566-15.895c-7.539-4.852-14.852-10.016-22.359-14.905
				c-20.285-13.214-41.893-24.5-63.881-34.596c-10.703-4.915-21.684-9.188-32.406-14.04c-8.814-3.988-18.193-10.122-28.129-10.443
				c-0.047-0.002-0.09-0.009-0.135-0.011c-0.053,0.052-0.105,0.104-0.158,0.157c-0.961,0.961-2.045,1.465-3.135,1.623
				c-7.865,5.401-15.119,11.604-22.777,17.309c-9.35,6.963-19.426,12.972-29.266,19.209c-19.877,12.6-39.848,25.071-59.389,38.191
				c-19.365,13.002-37.84,26.814-56.275,41.084c-8.346,6.461-16.381,13.179-24.512,19.904c-3.453,2.856-6.982,5.635-10.682,8.144
				c2.281-0.167,4.549-0.409,6.727-0.499c7.406-0.308,14.842-0.049,22.254-0.205c15.668-0.333,31.242-1.754,46.801-3.582
				c31.273-3.676,62.574-7.289,93.82-11.185c31.439-3.921,62.797-8.494,94.078-13.522c28.107-4.519,56.365-10.346,84.832-12.205
				c0.885-1.404,2.357-2.406,4.305-2.402c1.172-0.34,2.455-0.233,3.674,0.532c5.008,0.734,10.541,0.86,15.188-0.889
				C439.77,147.12,438.201,141.903,434.76,137.604z"/>
		</g>
	</g>
	<g>
		<g>
			<path class="st9" d="M452.793,369.827c-0.393-9.957-0.277-19.923-0.553-29.885c-0.414-15.013-1.217-30.009-2.252-44.989
				c-4.311,0.561-9.273-0.224-12.389-0.907c-9.408-2.064-18.377-8.479-20.6-18.365c-2.273-10.117-0.129-21.714,9.529-27.359
				c6.23-3.644,13.062-4.609,19.445-2.573c-2.572-28.917-5.264-57.825-6.855-86.812c-5.141,2.309-11.594,2.923-17.58,2.608
				c-0.793,0.683-1.836,1.129-3.121,1.182c-4.963,0.205-9.92,0.555-14.869,0.998c2.551,29.842-19.84,53.328-49.062,56.67
				c-14.205,1.625-31.863-1.223-42.189-12.042c-6.648-6.965-14.607-18.224-14.148-28.604c-23.133,3.502-46.307,6.74-69.531,9.571
				c-24.246,2.956-48.514,5.966-72.791,8.775c0.963,0.81,1.615,2.04,1.652,3.724c0.275,12.24-9.16,23.216-21.811,23.428
				c-13.332,0.223-21.557-10.057-21.184-22.842c-10.098,0.771-20.205,1.236-30.367,1.296c-6.867,0.04-13.67,0.122-20.523,0.501
				c-3.99,0.221-7.852,0.227-11.66-0.374c0.463,1.806,1.092,3.585,1.545,5.411c1.006,4.059,1.396,8.146,1.857,12.295
				c1,9.008,1.908,18.031,3.002,27.027c1.715,14.1,3.859,28.182,4.213,42.372c9.492-4.69,20.758-5.884,31.191-4.288
				c13.494,2.062,22.072,13.527,23.75,26.578c0.791,6.155,0.879,13.593-1.83,19.33c-2.941,6.231-8.086,11.17-13.752,14.979
				c-6.029,4.054-12.684,8.115-20.045,8.924c-6.105,0.671-12.15-0.156-18.195-0.979c0.68,14.227,3.031,28.361,4.943,42.455
				c1.234,9.113,4.002,18.841,3.445,28.211c9.572,2.785,20.541,0.634,30.361,0.611c11.689-0.027,23.488,0.021,35.125-1.213
				c32.432-3.441,65.055-4.371,97.541-7.11c19.871-1.676,39.648-4.151,59.418-6.711c0.17-12.743,13.508-21.856,24.9-24.37
				c13.465-2.971,24.492,6.237,30.225,17.611c17.926-1.856,35.834-3.122,53.916-2.999c8.893,0.062,17.822,0.034,26.693-0.667
				c3.684-0.292,7.523-0.52,11.121-1.409c1.158-0.286,2.338-0.59,3.443-1.051c0.029-0.021,0.139-0.081,0.277-0.155
				c0.074-0.222,0.061-0.08,0.229-0.123c0.082-0.045,0.154-0.084,0.207-0.114c1.229-1.616,3.148-2.339,4.992-2.313v-0.463
				c0-0.9,0.182-1.699,0.492-2.396c0.621-3.087,1.637-6.18,1.848-9.327C453.164,379.246,452.977,374.524,452.793,369.827z
				 M179.51,401.467c-8.094,19.169-49.609,19.917-47.914-5.274c0.01-0.137,0.029-0.265,0.045-0.395
				c-0.074-0.354-0.123-0.729-0.133-1.133c-0.348-15.484,12.957-28.363,28.85-24.347
				C173.074,373.532,185.242,387.892,179.51,401.467z M241.119,360.709c-9.424,12.9-26.994,14.727-41.262,10.009
				c-14.607-4.83-26.805-15.786-30.646-30.751c-7.553-11.523,2.438-25.885,11.648-33.14c15.369-12.102,38.729-10.522,53.211,2.295
				C248.408,321.812,252.836,344.673,241.119,360.709z M268.697,276.565c-14.236,5.359-31.932,5.904-45.756-1.09
				c-14.4-7.287-20.68-21.721-16.346-37.283c0.488-1.758,1.578-2.918,2.889-3.561c1.535-16.813,24.096-28.54,39.088-29.828
				c19.529-1.677,41.652,11.103,46.092,31.043C298.781,254.345,285.184,270.358,268.697,276.565z M348.514,352.104
				c-9.168,0.286-19.037-1.226-26.826-6.356c-7.824-5.155-10.51-13.275-12.18-22.082c-0.453-2.392,0.541-4.051,2.096-4.924
				c0.363-8.797,1.928-18.41,7.658-25.155c5.74-6.755,14.623-9.401,23.275-8.624c16.879,1.518,33.783,15.035,37.629,31.777
				C384.77,336.769,367.373,351.517,348.514,352.104z"/>
		</g>
	</g>
	<g>
		<g>
			<path class="st9" d="M368.934,317.263c-4.02-11.158-15.498-20.334-27.406-21.404c-5.189-0.467-11.836,0.951-14.629,5.861
				c-3.471,6.1-4.363,13.172-4.42,20.098c-0.012,1.561-0.561,2.817-1.404,3.754c1.258,5.131,3.43,9.697,8.604,12.143
				c5.883,2.783,12.756,3.92,19.244,3.346C361.215,339.968,373.908,331.077,368.934,317.263z"/>
		</g>
	</g>
	<g>
		<g>
			<path class="st9" d="M283.746,237.306c-2.781-8.844-10.025-15.536-18.494-19.018c-9.264-3.809-18.229-3.031-27.281,0.91
				c-7.193,3.131-18.514,9.337-17.492,18.619c0.336,3.049-1.516,4.93-3.789,5.522c-5.535,30.59,42.23,31.35,59.459,16.263
				C282.248,254.26,286.283,245.372,283.746,237.306z"/>
		</g>
	</g>
	<g>
		<g>
			<path d="M463.828,370.719c-0.334-9.883-0.342-19.765-0.568-29.651c-0.492-21.727-1.932-43.424-3.654-65.083
				c-3.451-43.385-8.244-86.668-10.127-130.167c-0.037-0.858-0.232-1.6-0.545-2.229c-0.188-8.738-8.004-16.185-14.182-21.344
				c-7.562-6.316-16.211-11.111-24.354-16.602c-22.949-15.476-46.516-29.101-71.559-40.962
				c-12.299-5.825-24.82-11.177-37.398-16.368c-11.221-4.629-21.379-11.154-33.871-11.557c-0.5-0.016-0.957,0.029-1.379,0.117
				c-1.08-0.089-2.209,0.141-3.273,0.808c-8.98,5.637-17.062,12.487-25.451,18.938c-9.205,7.078-19.27,13.037-29.064,19.254
				c-19.873,12.617-39.834,25.102-59.424,38.16c-18.914,12.605-37.096,25.892-54.984,39.904
				c-7.932,6.214-15.857,12.323-23.516,18.875c-7.695,6.582-15.723,13.598-25.303,17.236c-1.662,0.631-2.674,1.76-3.16,3.056
				c-0.742,0.707-1.27,1.724-1.42,3.087c-0.863,7.81,2.492,14.69,3.342,22.329c1,9.004,2.002,18.008,2.98,27.015
				c2.035,18.693,5.385,37.248,4.59,56.129c-0.221,5.281,6.609,6.055,9.617,3.207c7.506-7.104,19.318-8.584,29.191-7.598
				c10.01,1,15.152,8.611,16.369,18.069c0.564,4.386,0.49,9.417-1.42,13.464c-2.123,4.496-6.705,7.721-10.701,10.406
				c-4.682,3.146-9.484,5.824-15.16,6.448c-6.723,0.739-13.695-1.146-20.361-1.819c-3.703-0.375-6.562,2.022-6.535,5.822
				c0.115,15.493,2.74,30.758,4.756,46.08c1.387,10.533,5.574,22.88,3.332,33.447c-0.92,4.331,2.938,6.771,6.326,6.312
				c0.555,0.478,1.225,0.87,2.021,1.135c6.404,2.127,13.184,1.848,19.834,1.459c8.078-0.472,16.152-0.349,24.24-0.437
				c16.377-0.177,32.535-2.019,48.844-3.282c32.471-2.516,65.027-3.717,97.414-7.255c32.383-3.539,64.588-8.536,97.002-11.819
				c12.316-1.248,24.848-2.738,37.24-2.527c7.844,0.135,15.684,0.233,23.527,0.097c8.092-0.141,16.279-0.43,24.264-1.837
				c5.777-1.018,11.955-2.572,14.045-8.649c2.939,0.066,6.125-1.938,6.125-5.743c0-1.533,1.234-4.005,1.549-5.623
				c0.428-2.199,0.584-4.45,0.734-6.682C464.066,379.802,463.982,375.263,463.828,370.719z M448.477,274.858
				c0.225,2.769,0.443,5.538,0.656,8.308c-0.258,0.239-0.494,0.511-0.701,0.818c-0.93,0.104-1.877,0.079-2.811,0.068
				c-2.297-0.028-4.646-0.524-6.881-1.015c-5.25-1.152-9.197-4.73-10.998-9.754c-1.928-5.385-0.598-11.674,3.973-15.195
				c3.799-2.925,9.639-3.586,13.648-0.715c0.559,0.4,1.133,0.68,1.707,0.859C447.553,263.774,448.025,269.315,448.477,274.858z
				 M72.771,185.192c8.131-6.726,16.166-13.443,24.512-19.904c18.436-14.27,36.91-28.082,56.275-41.084
				c19.541-13.12,39.512-25.592,59.389-38.191c9.84-6.237,19.916-12.246,29.266-19.209c7.658-5.704,14.912-11.907,22.777-17.309
				c1.09-0.158,2.174-0.662,3.135-1.623c0.053-0.053,0.105-0.105,0.158-0.157c0.045,0.002,0.088,0.009,0.135,0.011
				c9.936,0.321,19.314,6.455,28.129,10.443c10.723,4.852,21.703,9.125,32.406,14.04c21.988,10.096,43.596,21.382,63.881,34.596
				c7.508,4.89,14.82,10.054,22.359,14.905c6.963,4.482,14.34,9.369,19.566,15.895c3.441,4.299,5.01,9.516-0.992,11.774
				c-4.646,1.749-10.18,1.623-15.188,0.889c-1.219-0.766-2.502-0.872-3.674-0.532c-1.947-0.004-3.42,0.998-4.305,2.402
				c-28.467,1.859-56.725,7.687-84.832,12.205c-31.281,5.028-62.639,9.602-94.078,13.522c-31.246,3.896-62.547,7.509-93.82,11.185
				c-15.559,1.828-31.133,3.249-46.801,3.582c-7.412,0.156-14.848-0.103-22.254,0.205c-2.178,0.09-4.445,0.332-6.727,0.499
				C65.789,190.827,69.318,188.049,72.771,185.192z M392.719,169.418c-0.543,20.034-14.975,35.226-35.148,39.339
				c-11.514,2.346-23.746,0.945-33.867-5.225c-4.27-2.603-7.037-7.027-9.672-11.131c-1.734-2.699-6.32-9.213-5.111-12.713
				c0.195-0.562,0.295-1.11,0.326-1.643c5.139-0.797,10.275-1.601,15.41-2.419c21.906-3.496,43.896-7.825,66.002-10.532
				C390.686,166.771,391.51,168.336,392.719,169.418z M147.713,199.009c-0.764,0.927-1.238,2.149-1.205,3.656
				c0.145,6.389-4.783,10.936-10.938,11.564c-7.924,0.811-10.311-6.154-10.109-12.785c2.469-0.24,4.936-0.49,7.406-0.76
				C137.816,200.144,142.764,199.572,147.713,199.009z M332.123,406.933c-8.852,1.064-17.695,2.201-26.537,3.35
				c1.127-6.596,10.939-10.867,16.4-12.318c6.547-1.739,12.143,2.896,15.762,8.307C335.873,406.487,333.998,406.707,332.123,406.933
				z M452.848,383.942c-0.211,3.147-1.227,6.24-1.848,9.327c-0.311,0.696-0.492,1.495-0.492,2.396v0.463
				c-1.844-0.025-3.764,0.697-4.992,2.313c-0.053,0.03-0.125,0.069-0.207,0.114c0.047-0.012,0.111-0.042,0.193-0.097
				c-0.373,0.493-0.686,1.067-0.906,1.733c0.283-0.852,0.404-1.263,0.467-1.463c0.014-0.006,0.018-0.007,0.033-0.014
				c-0.012,0.005-0.021,0.008-0.033,0.013c0.006-0.018,0.012-0.036,0.018-0.05c-0.139,0.074-0.248,0.134-0.277,0.155
				c-1.105,0.461-2.285,0.765-3.443,1.051c-3.598,0.89-7.438,1.117-11.121,1.409c-8.871,0.701-17.801,0.729-26.693,0.667
				c-18.082-0.123-35.99,1.143-53.916,2.999c-5.732-11.374-16.76-20.582-30.225-17.611c-11.393,2.514-24.73,11.627-24.9,24.37
				c-19.77,2.56-39.547,5.035-59.418,6.711c-32.486,2.739-65.109,3.669-97.541,7.11c-11.637,1.234-23.436,1.186-35.125,1.213
				c-9.82,0.022-20.789,2.174-30.361-0.611c0.557-9.37-2.211-19.098-3.445-28.211c-1.912-14.094-4.264-28.229-4.943-42.455
				c6.045,0.822,12.09,1.649,18.195,0.979c7.361-0.809,14.016-4.87,20.045-8.924c5.666-3.809,10.811-8.747,13.752-14.979
				c2.709-5.737,2.621-13.175,1.83-19.33c-1.678-13.051-10.256-24.516-23.75-26.578c-10.434-1.596-21.699-0.402-31.191,4.288
				c-0.354-14.19-2.498-28.272-4.213-42.372c-1.094-8.996-2.002-18.02-3.002-27.027c-0.461-4.148-0.852-8.236-1.857-12.295
				c-0.453-1.826-1.082-3.605-1.545-5.411c3.809,0.601,7.67,0.595,11.66,0.374c6.854-0.379,13.656-0.461,20.523-0.501
				c10.162-0.06,20.27-0.525,30.367-1.296c-0.373,12.785,7.852,23.064,21.184,22.842c12.65-0.212,22.086-11.188,21.811-23.428
				c-0.037-1.684-0.689-2.914-1.652-3.724c24.277-2.81,48.545-5.819,72.791-8.775c23.225-2.831,46.398-6.069,69.531-9.571
				c-0.459,10.381,7.5,21.64,14.148,28.604c10.326,10.819,27.984,13.667,42.189,12.042c29.223-3.342,51.613-26.828,49.062-56.67
				c4.949-0.443,9.906-0.793,14.869-0.998c1.285-0.053,2.328-0.499,3.121-1.182c5.986,0.314,12.439-0.3,17.58-2.608
				c1.592,28.987,4.283,57.896,6.855,86.812c-6.383-2.036-13.215-1.07-19.445,2.573c-9.658,5.646-11.803,17.242-9.529,27.359
				c2.223,9.886,11.191,16.301,20.6,18.365c3.115,0.684,8.078,1.468,12.389,0.907c1.035,14.98,1.838,29.977,2.252,44.989
				c0.275,9.962,0.16,19.928,0.553,29.885C452.977,374.524,453.164,379.246,452.848,383.942z"/>
		</g>
	</g>
	<g>
		<g>
			<path d="M445.08,398.679l0.229-0.123C445.141,398.599,445.154,398.457,445.08,398.679z"/>
		</g>
	</g>
	<g>
		<g>
			<path d="M294.664,235.847c-4.439-19.94-26.562-32.72-46.092-31.043c-14.992,1.288-37.553,13.015-39.088,29.828
				c-1.311,0.643-2.4,1.803-2.889,3.561c-4.334,15.562,1.945,29.996,16.346,37.283c13.824,6.994,31.52,6.449,45.756,1.09
				C285.184,270.358,298.781,254.345,294.664,235.847z M276.148,259.603c-17.229,15.087-64.994,14.327-59.459-16.263
				c2.273-0.593,4.125-2.474,3.789-5.522c-1.021-9.282,10.299-15.488,17.492-18.619c9.053-3.941,18.018-4.719,27.281-0.91
				c8.469,3.481,15.713,10.174,18.494,19.018C286.283,245.372,282.248,254.26,276.148,259.603z"/>
		</g>
	</g>
	<g>
		<g>
			<path d="M234.07,309.122c-14.482-12.817-37.842-14.396-53.211-2.295c-9.211,7.255-19.201,21.616-11.648,33.14
				c3.842,14.965,16.039,25.921,30.646,30.751c14.268,4.718,31.838,2.892,41.262-10.009
				C252.836,344.673,248.408,321.812,234.07,309.122z M235.545,347.495c-3.467,13.217-17.393,16.295-29.174,13.689
				c-12.346-2.73-24.715-12.367-26.893-25.367c-0.232-1.391-0.865-2.466-1.711-3.248c-2.059-6.278,6.521-14.678,10.83-17.826
				c6.877-5.027,15.723-6.131,23.896-4.469C229.906,313.815,239.988,330.556,235.545,347.495z"/>
		</g>
	</g>
	<g>
		<g>
			<path d="M380.166,316.739c-3.846-16.742-20.75-30.26-37.629-31.777c-8.652-0.777-17.535,1.869-23.275,8.624
				c-5.73,6.745-7.295,16.358-7.658,25.155c-1.555,0.873-2.549,2.532-2.096,4.924c1.67,8.807,4.355,16.927,12.18,22.082
				c7.789,5.131,17.658,6.643,26.826,6.356C367.373,351.517,384.77,336.769,380.166,316.739z M348.922,341.06
				c-6.488,0.574-13.361-0.562-19.244-3.346c-5.174-2.445-7.346-7.012-8.604-12.143c0.844-0.937,1.393-2.193,1.404-3.754
				c0.057-6.926,0.949-13.998,4.42-20.098c2.793-4.91,9.439-6.328,14.629-5.861c11.908,1.07,23.387,10.246,27.406,21.404
				C373.908,331.077,361.215,339.968,348.922,341.06z"/>
		</g>
	</g>
	<g>
		<g>
			<path d="M160.357,370.318c-15.893-4.017-29.197,8.862-28.85,24.347c0.01,0.404,0.059,0.779,0.133,1.133
				c-0.016,0.13-0.035,0.258-0.045,0.395c-1.695,25.191,39.82,24.443,47.914,5.274C185.242,387.892,173.074,373.532,160.357,370.318
				z M169.113,397.768c-2.49,5.095-10.625,6.637-16.102,6.685c-2.939,0.025-5.559-0.644-7.975-1.922
				c-1.646-0.87-2.766-2.422-2.645-4.24c0.055-0.828-0.051-1.586-0.277-2.271c0.246-0.65,0.383-1.382,0.363-2.201
				c-0.205-9.065,7.096-14.461,15.779-12.701C165.209,382.524,172.186,391.479,169.113,397.768z"/>
		</g>
	</g>
</g>
</svg>
