<?xml version="1.0" encoding="utf-8"?>
<!-- Generator: Adobe Illustrator 16.0.3, SVG Export Plug-In . SVG Version: 6.00 Build 0)  -->
<!DOCTYPE svg PUBLIC "-//W3C//DTD SVG 1.1//EN" "http://www.w3.org/Graphics/SVG/1.1/DTD/svg11.dtd">
<svg version="1.1" id="Layer_1" xmlns="http://www.w3.org/2000/svg" xmlns:xlink="http://www.w3.org/1999/xlink" x="0px" y="0px"
	 width="512px" height="512px" viewBox="0 0 512 512" style="enable-background:new 0 0 512 512;" xml:space="preserve">
<style type="text/css">
<![CDATA[
	.st0{fill:#127274;}
	.st1{fill:#14B6B9;}
	.st2{fill:#1E4384;}
	.st3{fill:#EF4754;}
	.st4{fill:#EF4823;}
	.st5{fill:#BCBCBC;}
	.st6{fill:#F6851F;}
	.st7{fill:#C56528;}
	.st8{fill:#FCBF95;}
	.st9{fill:#FEBF10;}
	.st10{fill:none;}
	.st11{fill:#010101;}
	.st12{fill:#3AB37C;}
	.st13{fill:#D6E5E5;}
	.st14{fill:#71C598;}
	.st15{fill:#74CCCF;}
]]>
</style>
<g>
	<g>
		<g>
			<path class="st9" d="M142.804,90.352c-5.425,1.325-12.573,0.957-15.479,0.981c-4.634,0.039-9.265-0.038-13.897-0.134
				c-0.772,0.97-2.005,1.587-3.729,1.509c-2.788-0.126-5.142-0.738-7.154-1.734c-2.437-0.046-4.874-0.086-7.311-0.099
				c0.022,31.68,0.295,63.399,3.232,94.96c1.104,11.868,2.39,23.768,2.729,35.689c0.111,3.884,0.792,10.883-1.1,15.604h45.576
				C155.619,188.904,143.918,139.043,142.804,90.352z"/>
		</g>
	</g>
	<g>
		<g>
			<path class="st6" d="M128.243,74.718c-0.657-6.618-2.495-13.085-4.426-19.427c-1.797-5.903-3.783-11.744-5.811-17.57
				c-3.703,4.922-8.356,9.171-12.526,14.264c-3.366,4.11-5.172,8.636-4.362,14.019c0.559,3.714,1.735,7.639,3.02,11.169
				c0.438,1.205,0.883,2.376,1.569,3.276c0.718,0.017,1.437,0.033,2.154,0.05c0.04-5.846,0.293-11.769,2.009-17.362
				c1.993-6.497,12.471-4.532,10.457,2.033c-1.553,5.062-1.803,10.281-1.844,15.524c0.605,0.006,1.21,0.022,1.815,0.025
				c0.749,0.003,1.499,0.004,2.248,0.006c1.243-1.64,3.307-2.727,5.67-2.223c0.083-0.328,0.161-0.504,0.152-0.138
				C128.397,77.146,128.364,75.929,128.243,74.718z"/>
		</g>
	</g>
	<g>
		<g>
			<path class="st15" d="M288.742,244.507c-0.788,1.76-2.435,3.244-4.448,3.244h-63.917c-0.52,0-1-0.067-1.449-0.181
				c-0.647,0.121-1.301,0.131-1.914,0.002c-1.343-0.281-3.017-0.748-4.361-0.166c-0.082,0.059-0.13,0.087-0.19,0.127
				c-0.01,0.486,0.094,0.956,0.327,1.406c0.594,1.349,2.092,2.1,3.669,2.766c5.196,2.199,10.907,3.197,16.445,4.134
				c9.164,1.55,16.149,2.537,25.186,2.963c9.033,0.427,18.963,1.206,28.007-0.655c1.49-1.587,3.778-2.372,5.712-1.563
				c2.463-0.87,4.925-2.164,5.848-4.582C298.741,249.164,292.993,246.244,288.742,244.507z"/>
		</g>
	</g>
	<g>
		<g>
			<path class="st15" d="M154.822,244.507c-0.788,1.76-2.435,3.244-4.448,3.244H86.456c-0.519,0-0.999-0.067-1.449-0.181
				c-0.647,0.121-1.301,0.131-1.914,0.002c-1.343-0.281-3.017-0.748-4.361-0.166c-0.082,0.059-0.129,0.087-0.191,0.127
				c-0.01,0.486,0.094,0.956,0.327,1.406c0.594,1.349,2.093,2.1,3.669,2.766c5.196,2.199,10.907,3.197,16.445,4.134
				c9.164,1.55,16.149,2.537,25.186,2.963c9.033,0.427,18.963,1.206,28.007-0.655c1.49-1.587,3.778-2.372,5.712-1.563
				c2.463-0.87,4.925-2.164,5.848-4.582C164.821,249.164,159.073,246.244,154.822,244.507z"/>
		</g>
	</g>
	<g>
		<g>
			<path class="st9" d="M412.28,90.352c-5.425,1.325-12.574,0.957-15.479,0.981c-4.635,0.039-9.265-0.038-13.896-0.134
				c-0.773,0.97-2.006,1.587-3.729,1.509c-2.789-0.126-5.143-0.738-7.154-1.734c-2.437-0.046-4.874-0.086-7.311-0.099
				c0.021,31.68,0.295,63.399,3.231,94.96c1.104,11.868,2.39,23.768,2.729,35.689c0.111,3.884,0.792,10.883-1.099,15.604h45.576
				C425.094,188.904,413.394,139.043,412.28,90.352z"/>
		</g>
	</g>
	<g>
		<g>
			<path class="st15" d="M152.888,268.923c-10.016,1.758-20.878,0.864-30.592,0.372c-10.273-0.521-21.057-1.484-31.266-3.897
				c-0.391,7.503,1.991,14.833,8.419,18.667c7.436,4.436,16.409,5.34,25.044,4.335c8.32-0.968,16.989-3.547,23.474-8.985
				C151.55,276.412,153.48,272.89,152.888,268.923z"/>
		</g>
	</g>
	<g>
		<g>
			<path class="st6" d="M397.719,74.718c-0.657-6.618-2.495-13.085-4.425-19.427c-1.798-5.903-3.783-11.744-5.811-17.57
				c-3.703,4.922-8.356,9.171-12.526,14.264c-3.366,4.11-5.173,8.636-4.362,14.019c0.559,3.714,1.735,7.639,3.02,11.169
				c0.438,1.205,0.883,2.376,1.569,3.276c0.717,0.017,1.437,0.033,2.154,0.05c0.04-5.846,0.293-11.769,2.01-17.362
				c1.993-6.497,12.471-4.532,10.457,2.033C388.25,70.23,388,75.45,387.959,80.693c0.605,0.006,1.21,0.022,1.815,0.025
				c0.75,0.003,1.499,0.004,2.248,0.006c1.243-1.64,3.308-2.727,5.67-2.223c0.084-0.328,0.161-0.504,0.153-0.138
				C397.874,77.146,397.839,75.929,397.719,74.718z"/>
		</g>
	</g>
	<g>
		<g>
			<path class="st9" d="M276.724,90.352c-5.425,1.325-12.573,0.957-15.479,0.981c-4.634,0.039-9.265-0.038-13.896-0.134
				c-0.773,0.97-2.005,1.587-3.729,1.509c-2.789-0.126-5.143-0.738-7.154-1.734c-2.437-0.046-4.873-0.086-7.311-0.099
				c0.022,31.68,0.295,63.399,3.232,94.96c1.103,11.868,2.39,23.768,2.729,35.689c0.111,3.884,0.792,10.883-1.099,15.604h45.576
				C289.539,188.904,277.838,139.043,276.724,90.352z"/>
		</g>
	</g>
	<g>
		<g>
			<path class="st6" d="M262.163,74.718c-0.657-6.618-2.495-13.085-4.426-19.427c-1.797-5.903-3.783-11.744-5.811-17.57
				c-3.703,4.922-8.356,9.171-12.526,14.264c-3.366,4.11-5.172,8.636-4.362,14.019c0.559,3.714,1.736,7.639,3.02,11.169
				c0.438,1.205,0.883,2.376,1.569,3.276c0.718,0.017,1.437,0.033,2.154,0.05c0.041-5.846,0.294-11.769,2.01-17.362
				c1.993-6.497,12.471-4.532,10.457,2.033c-1.553,5.062-1.803,10.281-1.844,15.524c0.605,0.006,1.21,0.022,1.815,0.025
				c0.749,0.003,1.499,0.004,2.248,0.006c1.243-1.64,3.307-2.727,5.67-2.223c0.083-0.328,0.161-0.504,0.152-0.138
				C262.318,77.146,262.284,75.929,262.163,74.718z"/>
		</g>
	</g>
	<g>
		<g>
			<path class="st15" d="M424.297,244.507c-0.789,1.76-2.435,3.244-4.448,3.244h-63.917c-0.519,0-0.999-0.067-1.449-0.181
				c-0.646,0.121-1.301,0.131-1.913,0.002c-1.344-0.281-3.017-0.748-4.361-0.166c-0.082,0.059-0.129,0.087-0.191,0.127
				c-0.01,0.486,0.095,0.956,0.327,1.406c0.594,1.349,2.093,2.1,3.669,2.766c5.196,2.199,10.907,3.197,16.444,4.134
				c9.165,1.55,16.149,2.537,25.187,2.963c9.033,0.427,18.963,1.206,28.007-0.655c1.49-1.587,3.778-2.372,5.712-1.563
				c2.463-0.87,4.925-2.164,5.848-4.582C434.296,249.164,428.548,246.244,424.297,244.507z"/>
		</g>
	</g>
	<g>
		<g>
			<path class="st15" d="M422.364,268.923c-10.016,1.758-20.878,0.864-30.592,0.372c-10.273-0.521-21.057-1.484-31.266-3.897
				c-0.391,7.503,1.991,14.833,8.419,18.667c7.436,4.436,16.409,5.34,25.044,4.335c8.32-0.968,16.989-3.547,23.474-8.985
				C421.026,276.412,422.956,272.89,422.364,268.923z"/>
		</g>
	</g>
	<g>
		<g>
			<path class="st1" d="M403.473,297.403c-2.727,0.722-5.418,1.242-7.954,1.537c-6.382,0.743-13.066,0.635-19.407-0.766
				c-0.079,0.265-0.172,0.524-0.298,0.773c-16.811,33.015-50.544,53.034-87.646,51.364c-0.312-0.014-0.608-0.057-0.895-0.113
				c0.152,12.268,0.497,24.529,1.205,36.746c0.716-0.476,1.626-0.766,2.744-0.773c32.177-0.191,62.856-11.454,87.984-31.458
				c10.58-8.422,19.206-19.376,21.121-33.116c0.661-4.74,2.112-9.344,2.882-14.089c0.385-2.372,0.754-4.759,0.927-7.158
				c0.047-0.654,0.062-1.32,0.045-1.981C403.912,298.073,403.676,297.749,403.473,297.403z"/>
		</g>
	</g>
	<g>
		<g>
			<path class="st1" d="M229.777,348.215c-16.307,8.824-36.314,4.31-52.083-5.151c-18.017-10.811-34.258-26.684-43.608-45.684
				c-2.758,0.734-5.479,1.261-8.042,1.559c-6.801,0.791-13.942,0.609-20.647-1.067c1.295,14.699,8.901,28.385,17.746,39.93
				c9.813,12.808,21.806,25.171,36.853,31.588c22.399,9.553,46.833,9.223,70.672,11.053c1.333,0.102,2.321,0.583,3.006,1.284
				C232.246,370.593,230.847,359.417,229.777,348.215z"/>
		</g>
	</g>
	<g>
		<g>
			<path class="st15" d="M286.809,268.923c-10.017,1.758-20.878,0.864-30.593,0.372c-10.273-0.521-21.056-1.484-31.266-3.897
				c-0.391,7.503,1.991,14.833,8.419,18.667c7.436,4.436,16.409,5.34,25.044,4.335c8.32-0.968,16.989-3.547,23.474-8.985
				C285.47,276.412,287.4,272.89,286.809,268.923z"/>
		</g>
	</g>
	<g>
		<g>
			<path class="st1" d="M283.991,470.909c0.241-1.953,0.315-3.896,0.31-5.864c-0.012-5.958-0.402-11.913-0.902-17.849
				c-1.099-13.044-2.745-26.032-3.995-39.061c-3.61-37.663-2.79-75.941-2.772-113.743c-5.536,2.39-11.427,3.938-16.669,4.547
				c-6.985,0.812-14.333,0.603-21.194-1.203c-1.46,30.144,2.584,60.296,6.419,90.13c3.863,30.049,3.35,60.632,3.334,90.892
				c7.126-1.353,14.22-2.951,21.437-3.775c3.828-0.438,8.475-0.829,13.216-0.734c0.15-0.356,0.342-0.711,0.58-1.06
				c-0.546,0.802-0.171-0.048-0.159-0.102C283.759,472.367,283.901,471.643,283.991,470.909z"/>
		</g>
	</g>
	<g>
		<g>
			<path class="st15" d="M294.076,487.055c-9.812-3.711-21.51-2.018-31.52-0.171c-9.861,1.819-19.671,4.217-29.705,4.723
				c2.905,2.448,7.355,3.843,11.425,4.699c11.53,2.423,23.63,2.524,35.324,1.367c4.387-0.434,8.595-0.858,12.505-2.15
				C297.618,493.7,301.204,489.75,294.076,487.055z"/>
		</g>
	</g>
	<g>
		<g>
			<path class="st11" d="M426.591,234.026c8.769-49.704-3.638-100.86-3.776-150.82c-0.011-4.099-3.803-5.447-6.853-4.414
				c-1.972-0.843-4.442-0.298-6.039,1.161c-0.015,0.002-0.026,0.003-0.042,0.006c-0.504,0.083-1.012,0.149-1.521,0.206
				c1.065-6.412-1.09-13.774-2.605-19.815c-2.065-8.239-4.802-16.309-7.578-24.329c-1.046-3.021-2.116-6.033-3.154-9.057
				c-0.353-1.03-0.698-2.064-1.023-3.104c-0.089-0.286-0.168-0.574-0.249-0.861c-0.411-6.008-9.349-6.36-10.53-0.537
				c-2.656,13.101-16.654,19.028-21.583,31.007c-3.31,8.045-1.22,15.462,0.821,23.476c0.293,1.148,0.624,2.25,0.996,3.304
				c-0.198-0.001-0.396-0.007-0.594-0.007c-0.67-0.001-1.265,0.101-1.79,0.282c-3.076-0.646-6.986,1.292-6.986,5.44
				c0,31.706-0.063,63.537,2.728,95.146c0.96,10.871,2.085,21.727,2.806,32.618c0.315,4.776,0.548,9.565,0.49,14.353
				c-0.021,1.68-0.065,2.496-0.309,4.179c-0.014,0.093-0.062,0.306-0.116,0.531c-0.657,0.662-1.093,1.491-1.329,2.375
				c-3.251-0.368-6.247-0.275-8.106,1.508c-6.966,0.042-13.139,3.836-12.847,12.036c0.269,7.521,6.515,11.258,12.711,13.596
				c-1.178,11.461,1.946,22.931,11.843,29.833c0.897,0.626,1.827,1.192,2.771,1.729c-1.19,0.872-2.314,1.901-3.495,3.066
				c-2.145,2.116-1.812,4.642-0.353,6.415c-16.365,24.264-43.604,37.685-73.53,36.337c-0.057-0.002-0.108,0.002-0.162,0
				c-0.076-15.832,0.073-31.657,0.073-47.394c0-1.377-0.432-2.438-1.115-3.208c7.869-5.65,13.043-13.498,10.85-23.151
				c0.207-0.09,0.419-0.167,0.624-0.261c5.494-2.53,9.784-6.884,10.769-13.028c1.535-9.575-9.607-15.758-17.351-18.618
				c8.769-49.704-3.639-100.86-3.777-150.82c-0.011-4.099-3.803-5.447-6.853-4.414c-1.972-0.843-4.442-0.298-6.039,1.161
				c-0.015,0.002-0.026,0.003-0.042,0.006c-0.504,0.083-1.012,0.149-1.521,0.206c1.065-6.412-1.09-13.774-2.605-19.815
				c-2.066-8.239-4.802-16.309-7.579-24.329c-1.046-3.021-2.116-6.033-3.153-9.057c-0.354-1.03-0.698-2.064-1.024-3.104
				c-0.089-0.286-0.168-0.574-0.248-0.861c-0.412-6.008-9.35-6.36-10.53-0.537c-2.657,13.101-16.655,19.028-21.583,31.007
				c-3.31,8.045-1.22,15.462,0.822,23.476c0.292,1.148,0.623,2.25,0.995,3.304c-0.198-0.001-0.396-0.007-0.594-0.007
				c-0.671-0.001-1.265,0.101-1.79,0.282c-3.076-0.646-6.986,1.292-6.986,5.44c0,31.706-0.063,63.537,2.728,95.146
				c0.959,10.871,2.084,21.727,2.805,32.618c0.316,4.776,0.549,9.565,0.49,14.353c-0.021,1.68-0.065,2.496-0.309,4.179
				c-0.014,0.093-0.062,0.306-0.116,0.531c-0.657,0.662-1.093,1.491-1.329,2.375c-3.251-0.368-6.246-0.275-8.106,1.508
				c-6.966,0.042-13.139,3.836-12.846,12.036c0.269,7.521,6.515,11.258,12.711,13.596c-1.178,11.461,1.946,22.931,11.842,29.833
				c0.934,0.651,1.9,1.238,2.882,1.792c-0.602,0.824-1.001,1.844-1.068,3.056c-0.716,13.068-0.374,26.14,0.554,39.187
				c-14.695,10.889-32.641,5.562-47.39-3.287c-15.021-9.012-29.433-23.242-37.279-39.116c11.992-5.551,21.864-15.131,18.976-27.837
				c0.207-0.09,0.419-0.167,0.625-0.261c5.493-2.53,9.784-6.884,10.769-13.028c1.535-9.575-9.607-15.758-17.35-18.618
				c8.769-49.704-3.639-100.86-3.777-150.82c-0.011-4.099-3.803-5.447-6.853-4.414c-1.972-0.843-4.442-0.298-6.039,1.161
				c-0.015,0.002-0.026,0.003-0.042,0.006c-0.504,0.083-1.012,0.149-1.521,0.206c1.065-6.412-1.09-13.774-2.605-19.815
				c-2.066-8.239-4.802-16.309-7.579-24.329c-1.046-3.021-2.116-6.033-3.153-9.057c-0.354-1.03-0.699-2.064-1.024-3.104
				c-0.089-0.286-0.168-0.574-0.249-0.861c-0.411-6.008-9.349-6.36-10.53-0.537C111.088,35.563,97.09,41.49,92.162,53.469
				c-3.31,8.045-1.22,15.462,0.821,23.476c0.293,1.148,0.623,2.25,0.996,3.304c-0.198-0.001-0.396-0.007-0.594-0.007
				c-0.671-0.001-1.265,0.101-1.79,0.282c-3.076-0.646-6.986,1.292-6.986,5.44c0.001,31.706-0.063,63.537,2.728,95.146
				c0.96,10.871,2.085,21.727,2.805,32.618c0.315,4.776,0.548,9.565,0.49,14.353c-0.02,1.68-0.065,2.496-0.309,4.179
				c-0.014,0.093-0.063,0.306-0.116,0.531c-0.657,0.662-1.093,1.491-1.329,2.375c-3.251-0.368-6.247-0.275-8.106,1.508
				c-6.966,0.042-13.139,3.836-12.847,12.036c0.269,7.521,6.515,11.258,12.711,13.596c-1.178,11.461,1.946,22.931,11.842,29.833
				c0.735,0.513,1.491,0.984,2.255,1.436c-0.11,0.457-0.173,0.946-0.165,1.475c0.251,16.902,8.306,32.747,17.915,46.238
				c9.668,13.575,22.26,26.964,37.061,34.907c24.348,13.067,52.315,12.65,79.09,14.706c2.852,0.219,4.871-1.512,5.746-3.626
				c3.945,30.845,3.521,62.133,3.517,93.187c-1.678,0.2-3.361,0.363-5.052,0.468c-1.349-3.781-7.501-5.447-9.903-0.784
				c-2.784,5.406-3.311,11.589,0.355,16.726c3.645,5.106,10.002,7.476,15.791,9.118c14.082,3.994,30.102,3.679,44.519,1.958
				c6.107-0.729,11.912-1.897,17.357-4.821c8.765-4.706,10.512-14.926,3.653-21.96c-2.763-2.833-6.513-4.57-10.651-5.606
				c2.321-7.367,0.937-16.735,0.467-23.797c-0.926-13.914-2.7-27.759-4.124-41.626c-0.483-4.709-0.89-9.43-1.239-14.157
				c0.81,0.51,1.801,0.82,2.97,0.813c37.01-0.22,74.911-14.724,101.583-40.674c5.688-5.535,10.343-12.236,13.479-19.523
				c2.768-6.429,3.599-13.334,5.186-20.074c0.83-3.522,3.723-16.12,1.74-22.963c11.787-5.581,21.373-15.083,18.521-27.627
				c0.207-0.09,0.419-0.167,0.624-0.261c5.493-2.53,9.784-6.884,10.769-13.028C445.477,243.069,434.334,236.886,426.591,234.026z
				 M374.956,51.984c4.17-5.092,8.824-9.341,12.526-14.264c2.028,5.827,4.013,11.667,5.811,17.57
				c1.93,6.342,3.769,12.81,4.425,19.427c0.121,1.211,0.155,2.428,0.126,3.645c0.008-0.366-0.069-0.19-0.153,0.138
				c-2.362-0.504-4.427,0.583-5.67,2.223c-0.749-0.002-1.499-0.003-2.248-0.006c-0.605-0.003-1.21-0.019-1.815-0.025
				c0.041-5.243,0.291-10.462,1.844-15.524c2.014-6.564-8.464-8.53-10.457-2.033c-1.716,5.593-1.97,11.516-2.01,17.362
				c-0.718-0.018-1.437-0.033-2.154-0.05c-0.686-0.899-1.131-2.071-1.569-3.276c-1.285-3.53-2.461-7.455-3.02-11.169
				C369.783,60.62,371.59,56.094,374.956,51.984z M372.021,90.973c2.011,0.996,4.365,1.608,7.154,1.734
				c1.724,0.079,2.956-0.539,3.729-1.509c4.631,0.097,9.262,0.173,13.896,0.134c2.905-0.024,10.054,0.344,15.479-0.981
				c1.114,48.691,12.814,98.552,2.868,146.775h-45.576c1.891-4.72,1.21-11.719,1.099-15.604c-0.34-11.921-1.626-23.821-2.729-35.689
				c-2.937-31.562-3.21-63.281-3.231-94.96C367.147,90.887,369.584,90.926,372.021,90.973z M239.4,51.984
				c4.17-5.092,8.824-9.341,12.526-14.264c2.028,5.827,4.013,11.667,5.811,17.57c1.931,6.342,3.769,12.81,4.426,19.427
				c0.121,1.211,0.155,2.428,0.126,3.645c0.008-0.366-0.069-0.19-0.152,0.138c-2.363-0.504-4.427,0.583-5.67,2.223
				c-0.75-0.002-1.499-0.003-2.248-0.006c-0.605-0.003-1.21-0.019-1.815-0.025c0.041-5.243,0.291-10.462,1.844-15.524
				c2.014-6.564-8.464-8.53-10.457-2.033c-1.716,5.593-1.969,11.516-2.01,17.362c-0.717-0.018-1.436-0.033-2.154-0.05
				c-0.686-0.899-1.131-2.071-1.569-3.276c-1.284-3.53-2.461-7.455-3.02-11.169C234.229,60.62,236.034,56.094,239.4,51.984z
				 M236.465,90.973c2.012,0.996,4.366,1.608,7.154,1.734c1.724,0.079,2.957-0.539,3.729-1.509
				c4.631,0.097,9.262,0.173,13.896,0.134c2.906-0.024,10.054,0.344,15.479-0.981c1.114,48.691,12.814,98.552,2.868,146.775h-45.576
				c1.891-4.72,1.21-11.719,1.099-15.604c-0.34-11.921-1.626-23.821-2.729-35.689c-2.937-31.562-3.21-63.281-3.232-94.96
				C231.592,90.887,234.028,90.926,236.465,90.973z M216.458,251.707c-1.577-0.667-3.075-1.417-3.669-2.766
				c-0.232-0.451-0.337-0.92-0.327-1.406c0.061-0.041,0.109-0.068,0.19-0.127c1.344-0.582,3.018-0.116,4.361,0.166
				c0.612,0.128,1.267,0.118,1.914-0.002c0.45,0.114,0.929,0.181,1.449,0.181h63.917c2.014,0,3.66-1.484,4.448-3.244
				c4.251,1.737,9.999,4.656,8.915,7.497c-0.923,2.418-3.385,3.711-5.848,4.582c-1.935-0.809-4.222-0.023-5.712,1.563
				c-9.044,1.861-18.975,1.082-28.007,0.655c-9.037-0.426-16.022-1.413-25.186-2.963
				C227.365,254.904,221.654,253.906,216.458,251.707z M105.48,51.984c4.17-5.092,8.824-9.341,12.526-14.264
				c2.028,5.827,4.013,11.667,5.811,17.57c1.931,6.342,3.769,12.81,4.426,19.427c0.121,1.211,0.154,2.428,0.126,3.645
				c0.009-0.366-0.068-0.19-0.152,0.138c-2.363-0.504-4.427,0.583-5.67,2.223c-0.75-0.002-1.499-0.003-2.248-0.006
				c-0.605-0.003-1.21-0.019-1.815-0.025c0.041-5.243,0.291-10.462,1.844-15.524c2.014-6.564-8.464-8.53-10.457-2.033
				c-1.716,5.593-1.969,11.516-2.009,17.362c-0.718-0.018-1.437-0.033-2.154-0.05c-0.686-0.899-1.131-2.071-1.569-3.276
				c-1.285-3.53-2.461-7.455-3.02-11.169C100.308,60.62,102.114,56.094,105.48,51.984z M102.545,90.973
				c2.012,0.996,4.366,1.608,7.154,1.734c1.724,0.079,2.957-0.539,3.729-1.509c4.632,0.097,9.263,0.173,13.897,0.134
				c2.906-0.024,10.054,0.344,15.479-0.981c1.114,48.691,12.814,98.552,2.868,146.775h-45.576c1.892-4.72,1.211-11.719,1.1-15.604
				c-0.34-11.921-1.626-23.821-2.729-35.689c-2.937-31.562-3.21-63.281-3.232-94.96C97.671,90.887,100.108,90.926,102.545,90.973z
				 M82.538,251.707c-1.577-0.667-3.075-1.417-3.669-2.766c-0.233-0.451-0.337-0.92-0.327-1.406
				c0.062-0.041,0.109-0.068,0.191-0.127c1.344-0.582,3.018-0.116,4.361,0.166c0.613,0.128,1.267,0.118,1.914-0.002
				c0.45,0.114,0.93,0.181,1.449,0.181h63.917c2.014,0,3.66-1.484,4.448-3.244c4.251,1.737,9.999,4.656,8.915,7.497
				c-0.922,2.418-3.384,3.711-5.848,4.582c-1.935-0.809-4.222-0.023-5.712,1.563c-9.044,1.861-18.975,1.082-28.007,0.655
				c-9.037-0.426-16.022-1.413-25.186-2.963C93.445,254.904,87.734,253.906,82.538,251.707z M91.03,265.398
				c10.209,2.413,20.993,3.376,31.266,3.897c9.714,0.493,20.576,1.386,30.592-0.372c0.592,3.967-1.338,7.489-4.921,10.493
				c-6.485,5.438-15.154,8.017-23.474,8.985c-8.635,1.004-17.608,0.1-25.044-4.335C93.021,280.23,90.639,272.901,91.03,265.398z
				 M230.667,380.444c-23.839-1.831-48.273-1.5-70.672-11.053c-15.047-6.417-27.04-18.78-36.853-31.588
				c-8.845-11.545-16.451-25.231-17.746-39.93c6.705,1.676,13.847,1.858,20.647,1.067c2.563-0.298,5.284-0.825,8.042-1.559
				c9.351,19,25.591,34.874,43.608,45.684c15.769,9.46,35.776,13.975,52.083,5.151c1.07,11.202,2.469,22.377,3.896,33.513
				C232.988,381.027,232,380.546,230.667,380.444z M233.369,284.065c-6.428-3.835-8.81-11.164-8.419-18.667
				c10.21,2.413,20.993,3.376,31.266,3.897c9.714,0.493,20.576,1.386,30.593-0.372c0.592,3.967-1.338,7.489-4.922,10.493
				c-6.485,5.438-15.154,8.017-23.474,8.985C249.778,289.405,240.804,288.501,233.369,284.065z M283.755,473.189
				c-0.238,0.349-0.429,0.704-0.58,1.06c-4.742-0.095-9.389,0.297-13.216,0.734c-7.217,0.824-14.311,2.422-21.437,3.775
				c0.016-30.259,0.529-60.843-3.334-90.892c-3.835-29.834-7.879-59.986-6.419-90.13c6.862,1.806,14.209,2.016,21.194,1.203
				c5.242-0.609,11.133-2.158,16.669-4.547c-0.018,37.801-0.838,76.08,2.772,113.743c1.25,13.029,2.896,26.017,3.995,39.061
				c0.5,5.936,0.89,11.89,0.902,17.849c0.005,1.968-0.069,3.912-0.31,5.864c-0.09,0.734-0.232,1.458-0.395,2.178
				C283.584,473.141,283.209,473.991,283.755,473.189z M294.076,487.055c7.128,2.695,3.542,6.645-1.97,8.467
				c-3.91,1.292-8.118,1.716-12.505,2.15c-11.694,1.157-23.794,1.057-35.324-1.367c-4.07-0.855-8.52-2.25-11.425-4.699
				c10.034-0.506,19.844-2.904,29.705-4.723C272.566,485.037,284.264,483.343,294.076,487.055z M404.134,300.349
				c-0.173,2.399-0.542,4.786-0.927,7.158c-0.77,4.745-2.222,9.349-2.882,14.089c-1.915,13.74-10.541,24.694-21.121,33.116
				c-25.128,20.005-55.807,31.268-87.984,31.458c-1.118,0.007-2.028,0.297-2.744,0.773c-0.708-12.217-1.052-24.478-1.205-36.746
				c0.287,0.056,0.583,0.099,0.895,0.113c37.103,1.67,70.835-18.349,87.646-51.364c0.126-0.249,0.22-0.508,0.298-0.773
				c6.341,1.401,13.025,1.508,19.407,0.766c2.536-0.295,5.227-0.814,7.954-1.537c0.203,0.346,0.438,0.67,0.706,0.964
				C404.196,299.029,404.182,299.695,404.134,300.349z M417.442,279.416c-6.485,5.438-15.154,8.017-23.474,8.985
				c-8.635,1.004-17.608,0.1-25.044-4.335c-6.428-3.835-8.81-11.164-8.419-18.667c10.209,2.413,20.993,3.376,31.266,3.897
				c9.714,0.493,20.576,1.386,30.592-0.372C422.956,272.89,421.026,276.412,417.442,279.416z M433.212,252.004
				c-0.923,2.418-3.385,3.711-5.848,4.582c-1.935-0.809-4.223-0.023-5.712,1.563c-9.044,1.861-18.975,1.082-28.007,0.655
				c-9.037-0.426-16.022-1.413-25.187-2.963c-5.538-0.937-11.248-1.936-16.444-4.134c-1.577-0.667-3.075-1.417-3.669-2.766
				c-0.232-0.451-0.337-0.92-0.327-1.406c0.062-0.041,0.109-0.068,0.191-0.127c1.344-0.582,3.018-0.116,4.361,0.166
				c0.612,0.128,1.267,0.118,1.913-0.002c0.45,0.114,0.93,0.181,1.449,0.181h63.917c2.014,0,3.66-1.484,4.448-3.244
				C428.548,246.244,434.296,249.164,433.212,252.004z"/>
		</g>
	</g>
</g>
</svg>
