<?xml version="1.0" encoding="utf-8"?>
<!-- Generator: Adobe Illustrator 16.0.3, SVG Export Plug-In . SVG Version: 6.00 Build 0)  -->
<!DOCTYPE svg PUBLIC "-//W3C//DTD SVG 1.1//EN" "http://www.w3.org/Graphics/SVG/1.1/DTD/svg11.dtd">
<svg version="1.1" id="Layer_1" xmlns="http://www.w3.org/2000/svg" xmlns:xlink="http://www.w3.org/1999/xlink" x="0px" y="0px"
	 width="512px" height="512px" viewBox="0 0 512 512" style="enable-background:new 0 0 512 512;" xml:space="preserve">
<style type="text/css">
<![CDATA[
	.st0{fill:#127274;}
	.st1{fill:#14B6B9;}
	.st2{fill:#1E4384;}
	.st3{fill:#EF4754;}
	.st4{fill:#EF4823;}
	.st5{fill:#BCBCBC;}
	.st6{fill:#F6851F;}
	.st7{fill:#C56528;}
	.st8{fill:#FCBF95;}
	.st9{fill:#FEBF10;}
	.st10{fill:none;}
	.st11{fill:#010101;}
	.st12{fill:#3AB37C;}
	.st13{fill:#D6E5E5;}
	.st14{fill:#71C598;}
	.st15{fill:#74CCCF;}
]]>
</style>
<g>
	<g>
		<g>
			<path class="st13" d="M373.894,364.764c-12.919-1.186-25.381-5.465-37.077-10.949c-12.118-5.684-23.674-12.539-36.537-16.521
				c-6.066-1.877-12.193-3.572-18.607-3.262c-3.178,0.154-6.309,0.369-9.31,1.424c3.695,1.049,7.297,2.77,9.712,4.109
				c11.777,6.535,21.354,16.408,33.817,21.744c17.425,7.461,37.378,10.887,55.995,5.924c2.453-0.654,4.924-1.361,7.391-2.098
				C377.469,365.051,375.67,364.928,373.894,364.764z"/>
		</g>
	</g>
	<g>
		<g>
			<path class="st13" d="M210.849,114.123c-0.296-2.848-0.6-5.816-1.651-8.512c-1.744,1.051-3.488,0.932-4.904,0.15
				c-6.956,1.301-14.427,0.492-21.385,1.361c-7.379,0.922-14.934,0.924-22.354,1.822c-6.094,0.738-12.186,1.389-18.31,1.82
				c-20.711,1.459-44.421,1.408-63.246,11.494c-3.001,8.148-3.113,17.078-1.706,25.639c1.576,9.602,3.309,19.234,5.047,28.812
				c1.81,9.979,4.738,19.121,9.083,28.27c2.96,6.234,5.767,13.312,10.873,18.16c16.633,15.793,39.122,6.969,58.909,4.582
				c8.365-1.008,16.533-1.455,24.459-4.662c7.908-3.201,14.365-8.17,19.772-14.742c0.542-0.66,1.139-1.129,1.76-1.447
				c1.095-4.646,1.132-9.678,1.3-14.307c0.249-6.824,0.959-13.492,1.588-20.283c1.107-11.961,0.733-23.922,1.137-35.906
				C211.469,128.975,211.616,121.498,210.849,114.123z"/>
		</g>
	</g>
	<g>
		<g>
			<path class="st6" d="M77.803,403.893c-1.731-10.848-4.732-21.387-6.779-32.166c-2.031-10.697-3.559-21.475-4.989-32.268
				c-3.003-22.656-5.388-45.258-6.841-68.07c-1.409-22.123-2.479-44.27-4.391-66.357c-0.088-1.016,0.068-1.898,0.393-2.652
				c-2.293-9.791-3.842-19.75-5.736-29.637c-0.884-4.607-1.392-10.561-5.199-13.879c-1.744-1.521-3.725-2.502-5.826-3.197
				c0.153,2.473,0.824,5.092,1.055,7.16c0.609,5.447,1.208,10.914,1.682,16.381c1.084,12.492,2.03,25.014,2.822,37.529
				c1.58,24.939,2.995,49.912,5.295,74.801c2.367,25.639,5.375,51.016,6.318,76.764c0.463,12.623,1.799,24.771,3.559,37.25
				c0.764,5.42,1.235,10.854,1.767,16.299c0.412,4.227,0.837,8.51,3.269,12.113c0.639,0.947,0.936,1.9,0.973,2.811
				c4.16,3.533,11.299,1.004,13.322-4.879C81.379,423.506,79.16,412.387,77.803,403.893z"/>
		</g>
	</g>
	<g>
		<g>
			<path class="st7" d="M384.569,374.893c-17.004,5.152-33.823,7.387-51.417,3.498c-9.081-2.01-18.556-4.887-26.771-9.338
				c-7.355-3.986-13.81-9.223-20.573-14.096c-3.405-2.453-6.075-4.27-10.372-6.441c-2.088-1.057-4.275-2.25-6.57-2.793
				c-0.206-0.049-0.406-0.104-0.604-0.154c-0.184,0.385-0.404,0.729-0.66,1.027c0.694,1.027,0.965,2.373,0.484,4.004
				c-0.027,0.092-0.059,0.18-0.088,0.27c3.176,13.498,13.6,24.168,25.783,30.363c14.092,7.168,29.266,8.631,44.881,7.912
				c17.244-0.795,34.911-3.721,50.604-11.229c5.184-2.479,9.515-5.689,13.276-9.398
				C396.751,371.311,390.327,373.148,384.569,374.893z"/>
		</g>
	</g>
	<g>
		<g>
			<path class="st7" d="M246.76,310.031c-4.787-6.828-12.365-10.188-20.509-11.188c-19.44-2.389-39.35,6.359-52.941,20.094
				c-9.931,10.037-19.602,23.199-33.492,26.99c1.753,0.475,3.516,0.9,5.284,1.229c0.48,0.088,2.602,0.1,0.932,0.236
				c1.605-0.131,3.242-0.236,4.799-0.689c3.414-0.992,6.597-2.357,9.617-4.246c5.813-3.637,11.25-7.818,17.11-11.387
				c13.054-7.953,27.984-16.814,43.565-18.188c7.357-0.646,15.098,0.365,21.659,3.957c4.614,2.525,7.636,7.266,11.893,10.133
				C253.432,320.881,250.105,314.801,246.76,310.031z"/>
		</g>
	</g>
	<g>
		<g>
			<path class="st7" d="M233.198,324.77c-8.404-2.152-16.531-0.414-24.51,2.621c-8.785,3.346-16.973,7.9-24.965,12.814
				c-6.662,4.098-12.773,9.262-19.708,12.889c-5.862,3.068-13.056,6.189-19.851,5.082c-1.135-0.186-2.268-0.412-3.396-0.666
				c4.603,3.6,9.406,6.826,15.05,8.408c12.995,3.643,26.36,2.377,39.009-2.082c12.355-4.357,23.272-10.988,34.442-17.697
				c6.19-3.721,12.737-7.455,19.663-9.775C243.545,332.615,240.008,326.514,233.198,324.77z"/>
		</g>
	</g>
	<g>
		<g>
			<path class="st7" d="M257.308,345.58c-10.35,1.895-19.575,8.357-28.474,13.729c-11.58,6.99-23.779,13.586-36.977,16.943
				c-13.195,3.355-26.685,4.092-39.805-0.039c-9.276-2.92-16.049-9.125-23.383-14.797c9.646,12.361,23.083,21.578,38.867,24.547
				c18.449,3.471,36.976-1.258,53.66-9.232c12.002-5.734,30.246-12.979,35.49-26.555c-0.053-0.293-0.123-0.576-0.172-0.871
				C256.255,347.744,256.606,346.504,257.308,345.58z"/>
		</g>
	</g>
	<g>
		<g>
			<path class="st7" d="M374.582,353.523c-12.188-4.217-19.925-12.51-28.045-22.111c-8.032-9.496-17.76-18.494-29.919-22.178
				c-10.801-3.271-24.236-5.473-34.889-0.469c-5.525,2.598-10.025,7.51-12.836,12.867c-0.724,1.379-1.406,2.785-2.033,4.211
				c1.786-0.656,3.532-1.486,5.412-1.83c2.823-0.512,5.678-0.928,8.553-0.973c6.248-0.102,12.201,0.662,18.201,2.424
				c11.57,3.393,22.398,8.25,33.095,13.748c11.649,5.988,23.853,11.701,36.884,13.836c2.213,0.363,4.548,0.682,6.951,0.92
				C375.496,353.822,375.032,353.678,374.582,353.523z"/>
		</g>
	</g>
	<g>
		<g>
			<path class="st1" d="M457.696,108.68c-1.656-8.727-4.943-17.307-9.725-24.854c-7.75,3.725-15.721,5.57-24.414,4.795
				c-8.838-0.787-17.387-3.459-25.811-6.115c-9.383-2.959-18.859-6.086-28.619-7.551c-9.416-1.416-18.969-1.316-28.467-1.133
				c-8.902,0.174-17.826,0.592-26.726,0.219c-6.415-0.27-12.92-0.689-19.322,0c-4.833,0.52-11.591,1.459-13.945,6.088
				c-1.206,2.369-2.313,4.844-2.989,7.424c-0.1,0.379-0.197,0.764-0.293,1.148c-2.836,5.414-4.349,11.645-6.546,17.379
				c-2.053,0.43-4.229-0.375-5.717-2.252c-6.732-8.49-21.569-1.166-28.418,3.49c-1.794,1.219-3.614,1.215-5.108,0.51
				c-0.373-5.641-1.352-13.197-3.91-16.922c-0.195-1.094-0.366-2.189-0.465-3.299c-0.42-0.191-0.837-0.436-1.244-0.756
				c-4.084-3.207-10.576-3.686-15.551-4.131c-5.777-0.52-11.562-0.514-17.358-0.527c-17.656-0.041-35.427-0.531-53.015,1.334
				c-17.42,1.848-33.933,6.934-50.865,11.123c-8.097,2.004-16.3,3.877-24.601,4.795c-4.88,0.537-10.212,1.512-14.988,0.254
				c-9.136,12.422-12.655,28.912-12.849,44.098c0.107,0.053,0.213,0.111,0.318,0.174c8.316,1.818,15.75,5.65,19.648,13.764
				c2.381,4.959,3.072,10.525,4.057,15.889c1.273,6.941,2.402,13.916,3.843,20.826c4.761,22.83,13.729,44.754,36.649,54.002
				c18.317,7.389,39.44,7.172,58.579,3.449c10.43-2.029,21.001-4.633,31.235-7.479c11.365-3.16,21.877-7.607,29.385-17.068
				c0.548-0.691,1.155-1.182,1.791-1.504c0.271-1.23,0.926-2.205,1.793-2.9c0.088-0.182,0.175-0.367,0.255-0.555
				c0.603-1.396,0.7-3.303,1.029-4.785c0.767-3.465,1.488-6.938,2.253-10.4c1.525-6.896,3.043-13.818,3.972-20.826
				c2.11-15.91,0.62-32.148,0.577-48.143c-0.002-0.574,0.076-1.104,0.207-1.596c-0.033-0.725,0.069-1.492,0.352-2.283
				c5.475-15.391,34.262-15.314,42.401-1.881c0.134-0.002,0.267,0.004,0.397,0.012c1.803,3.129,3.521,6.369,4.85,9.711
				c1.303,25.74,10.938,49.961,16.592,74.943c0.148,0.658,0.186,1.285,0.133,1.879c0.113,0.459,0.175,0.963,0.16,1.521
				c-0.117,4.383,6.43,7.266,10.377,8.938c17.898,7.576,39.082,9.719,58.283,10.287c14.923,0.443,30.082-0.045,44.899-1.986
				c5.727-0.752,12.92-1.836,17.134-6.252c4.277-4.482,6.814-10.139,8.252-16.123c3.279-13.662,4.797-27.596,4.469-41.619
				c-0.164-7.033-0.412-14.012,2.004-20.729c1.881-5.229,5.014-9.797,8.387-14.176c3.492-4.535,6.357-8.566,7.199-14.373
				C458.993,119.258,458.684,113.891,457.696,108.68z M222.309,132.262c-0.332,12.797-0.025,25.625-1.08,38.393
				c-0.707,8.561-1.443,17.018-1.938,25.594c-0.018,0.33-0.037,0.66-0.057,0.988c-1.855,7.836-5.061,15.332-9.076,22.328
				c-5.544,5.715-12.115,10.361-19.549,13.371c-9.337,3.779-18.722,4.426-28.558,5.779c-22.079,3.039-47.605,11.15-66.112-6.422
				c-6.301-5.982-10.072-13.426-13.741-21.182c-4.892-10.346-8.481-20.492-10.532-31.795c-1.066-5.885-1.907-11.805-2.903-17.699
				c-0.901-5.348-2.331-10.615-2.882-16.018c-0.809-7.941-0.488-15.895,1.621-23.482c-0.203-0.367-0.362-0.756-0.482-1.154
				c2.258-3.668,5.196-6.812,8.502-9.605c0.188,0.021,0.378,0.037,0.563,0.076c18.257-8.811,39.845-9.918,59.702-11.271
				c13.813-0.941,27.596-3.418,41.424-3.83c5.365-0.162,10.729-0.527,16.1-0.744c2.894-0.117,6.822,0.137,9.98-0.637
				c4.916,0.305,9.509,1.504,13.322,5.607c1.479,1.592,2.857,3.455,4.069,5.471C222.471,114.631,222.536,123.508,222.309,132.262z
				 M429.486,173.129c-0.565,17.906,2.755,43.717-16.474,53.932c-10.507,5.58-22.013,4.996-33.467,3.197
				c-7.939-1.248-15.844-2.963-23.855-3.703c-6.867-0.631-13.831-0.766-20.639-1.932c-11.99-2.055-24.323-7.162-31.621-17.367
				c-6.182-8.645-8.63-19.082-10.133-29.441c-1.766-12.178-3.451-24.295-5.635-36.412c-2.641-14.648-4.448-29.344-0.799-43.92
				c-0.643-1.133-0.979-2.496-0.583-3.674c0.015-0.043,0.028-0.084,0.043-0.125c1.251-3.727,5.217-4.725,8.058-3.693
				c-0.126-0.08-0.23-0.141-0.322-0.186c-0.462-0.117-0.421-0.211,0,0c0.176,0.043,0.402,0.088,0.733,0.117
				c0.698,0.061,1.373,0.111,2.076,0.139c1.81,0.066,3.619,0.115,5.431,0.139c4.291,0.055,8.588,0.086,12.877-0.041
				c14.365-0.426,28.63-1.238,43.008-0.559c14.352,0.678,28.659,1.992,42.896,3.918c10.584,1.43,22.091,2.521,31.364,8.303
				c2.981,1.859,3.267,5.268,2.053,7.74C436.014,131.006,430.161,151.811,429.486,173.129z"/>
		</g>
	</g>
	<g>
		<g>
			<path class="st13" d="M420.018,155.875c1.883-15.191,4.6-30.326,3.479-45.688c-0.018-0.225-0.021-0.445-0.016-0.656
				c-9.865-4.477-21.974-4.969-32.392-6.197c-14.57-1.717-29.214-2.951-43.892-3.082c-13.04-0.113-26.041,1.021-39.078,0.977
				c-3.602-0.012-7.212-0.018-10.811-0.197c-1.07,4.533-1.713,9.154-1.651,13.836c0.198,14.945,3.948,29.541,6.217,44.246
				c1.604,10.398,1.981,21.281,5.376,31.312c3.771,11.148,11.633,18.986,23.254,21.969c7.213,1.85,14.564,2.352,21.963,2.902
				c7.367,0.551,14.604,1.672,21.877,2.93c10.454,1.805,24.645,5.422,34.189-1.342c6.869-4.865,9.018-13.469,9.742-21.441
				c0.539-5.924,0.027-11.807,0.129-17.738C418.531,170.402,419.119,163.121,420.018,155.875z"/>
		</g>
	</g>
	<g>
		<g>
			<path class="st11" d="M467.042,134.004c5.773-14.844,2.201-33.277-5.24-48.244c-0.381-0.164-0.724-0.465-0.982-0.934
				c-2.824-5.121-7.468-11.572-14.167-10.361c-2.333,0.424-5.163,1.432-7.647,1.334c-17.798,6.203-37.957-4.217-55.071-8.883
				c-21.491-5.859-43.575-3.787-65.575-3.725c-13.893,0.037-29.866-2.973-42.074,5.506c-4.429,3.078-10.587,14.1-10.72,22.32
				c-8.069-3.338-17.78-1.545-26.264,2.27c-0.116-0.588-0.235-1.174-0.351-1.76c-0.329-0.35-0.539-0.834-0.518-1.467
				c0.021-0.613,0-1.211-0.043-1.801c-0.069-0.494-0.126-0.986-0.17-1.482c-0.271-1.713-0.789-3.348-1.464-4.93
				c-0.517-0.521-1.145-0.906-1.835-1.15c-0.312-0.756-0.849-1.482-1.668-2.127c-9.189-7.213-22.762-7.148-33.886-7.338
				c-16.899-0.285-33.909-0.424-50.785,0.551c-17.345,1.002-33.981,4.742-50.71,9.229c-8.327,2.232-16.651,4.475-25.126,6.074
				c-4.187,0.789-8.411,1.338-12.651,1.74c-2.451,0.234-4.913,0.328-7.375,0.396c0.929,0.533,0.932,0.557,0.01,0.074
				c-0.334-0.166-0.667-0.334-1.002-0.502c-1.275-0.637-2.488-0.744-3.568-0.492c-1.693-0.41-3.557,0.02-5.027,1.793
				c-12.611,15.197-17.25,35.777-17.385,55.158c-0.014,2.02,0.866,3.391,2.132,4.16c0.007,0.154,0.034,0.309,0.052,0.461
				c-1.634,7.109,0.742,16.008,1.509,22.717c1.489,13.018,2.278,26.162,3.185,39.232c1.859,26.857,3.244,53.746,5.672,80.561
				c1.178,13.016,2.613,26.006,4.053,38.992c1.462,13.191,1.852,26.416,2.336,39.67c0.234,6.387,0.566,12.768,1.08,19.139
				c0.538,6.66,2.031,13.238,2.908,19.867c1.043,7.867,0.776,16.564,3.468,24.164c-0.119,0.807-0.049,1.693,0.286,2.646
				c3.07,8.75,11.073,13.787,20.319,12.357c9.348-1.445,15.126-8.547,17.102-17.406c2.431-10.896-0.071-23.643-2.013-34.42
				c-2.287-12.699-5.737-25.113-7.812-37.863c-4.16-25.568-7.156-51.369-9.038-77.201c-1.152-15.799-1.99-31.621-2.973-47.432
				c2.596,4,5.584,7.738,9.022,11.08c7.382,7.178,16.79,11.736,26.465,14.91c19.833,6.51,41.953,5.275,62.091,0.994
				c11.113-2.361,22.431-4.975,33.303-8.268c10.414-3.154,20.16-8.309,27.535-16.299c4.814-14.025,11.66-27.35,14.789-41.775
				c0.209-1.152,0.428-2.305,0.62-3.461c0.294-1.762,0.53-3.527,0.741-5.297c0.068-0.736,0.149-1.469,0.195-2.211
				c0.013-0.203,0.051-0.385,0.103-0.557c1.473-15.221,0.331-30.646,0.255-45.908c4.037-6.678,19.881-5.832,22.975,1.357
				c1.994,1.324,3.574,3.273,4.512,6.111c2.561,7.756,3.027,16,2.566,24.133c3.742,16.939,9.334,33.557,13.205,50.469
				c-0.087,0.383-0.141,0.789-0.152,1.219c-0.441,16.545,26.553,22.072,38.444,24.672c24.087,5.268,49.407,5.713,73.896,3.926
				c12.051-0.879,25.689-1.377,35.519-9.293c10.001-8.057,13.031-21.783,14.955-33.803c1.045-6.535,2.243-13.082,2.558-19.701
				c0.369-7.844-0.53-15.732-0.043-23.557C452.328,151.438,462.881,144.697,467.042,134.004z M71.024,371.727
				c2.047,10.779,5.048,21.318,6.779,32.166c1.356,8.494,3.576,19.613,0.691,28.002c-2.023,5.883-9.162,8.412-13.322,4.879
				c-0.037-0.91-0.334-1.863-0.973-2.811c-2.432-3.604-2.856-7.887-3.269-12.113c-0.531-5.445-1.003-10.879-1.767-16.299
				c-1.76-12.479-3.096-24.627-3.559-37.25c-0.943-25.748-3.951-51.125-6.318-76.764c-2.3-24.889-3.715-49.861-5.295-74.801
				c-0.792-12.516-1.738-25.037-2.822-37.529c-0.474-5.467-1.072-10.934-1.682-16.381c-0.23-2.068-0.901-4.688-1.055-7.16
				c2.102,0.695,4.082,1.676,5.826,3.197c3.808,3.318,4.315,9.271,5.199,13.879c1.895,9.887,3.443,19.846,5.736,29.637
				c-0.324,0.754-0.48,1.637-0.393,2.652c1.912,22.088,2.981,44.234,4.391,66.357c1.453,22.812,3.838,45.414,6.841,68.07
				C67.465,350.252,68.993,361.029,71.024,371.727z M451.032,138.887c-3.373,4.379-6.506,8.947-8.387,14.176
				c-2.416,6.717-2.168,13.695-2.004,20.729c0.328,14.023-1.189,27.957-4.469,41.619c-1.438,5.984-3.975,11.641-8.252,16.123
				c-4.214,4.416-11.407,5.5-17.134,6.252c-14.817,1.941-29.977,2.43-44.899,1.986c-19.201-0.568-40.385-2.711-58.283-10.287
				c-3.947-1.672-10.494-4.555-10.377-8.938c0.015-0.559-0.047-1.062-0.16-1.521c0.053-0.594,0.016-1.221-0.133-1.879
				c-5.654-24.982-15.289-49.203-16.592-74.943c-1.328-3.342-3.047-6.582-4.85-9.711c-0.131-0.008-0.264-0.014-0.397-0.012
				c-8.14-13.434-36.927-13.51-42.401,1.881c-0.282,0.791-0.385,1.559-0.352,2.283c-0.131,0.492-0.209,1.021-0.207,1.596
				c0.043,15.994,1.533,32.232-0.577,48.143c-0.929,7.008-2.446,13.93-3.972,20.826c-0.765,3.463-1.486,6.936-2.253,10.4
				c-0.329,1.482-0.427,3.389-1.029,4.785c-0.08,0.188-0.167,0.373-0.255,0.555c-0.867,0.695-1.521,1.67-1.793,2.9
				c-0.636,0.322-1.243,0.812-1.791,1.504c-7.508,9.461-18.02,13.908-29.385,17.068c-10.234,2.846-20.806,5.449-31.235,7.479
				c-19.139,3.723-40.262,3.939-58.579-3.449c-22.92-9.248-31.889-31.172-36.649-54.002c-1.44-6.91-2.569-13.885-3.843-20.826
				c-0.984-5.363-1.676-10.93-4.057-15.889c-3.898-8.113-11.332-11.945-19.648-13.764c-0.105-0.062-0.211-0.121-0.318-0.174
				c0.193-15.186,3.713-31.676,12.849-44.098c4.776,1.258,10.108,0.283,14.988-0.254c8.301-0.918,16.504-2.791,24.601-4.795
				c16.933-4.189,33.445-9.275,50.865-11.123c17.588-1.865,35.358-1.375,53.015-1.334c5.796,0.014,11.581,0.008,17.358,0.527
				c4.975,0.445,11.467,0.924,15.551,4.131c0.407,0.32,0.824,0.564,1.244,0.756c0.099,1.109,0.27,2.205,0.465,3.299
				c2.559,3.725,3.537,11.281,3.91,16.922c1.494,0.705,3.314,0.709,5.108-0.51c6.849-4.656,21.686-11.98,28.418-3.49
				c1.488,1.877,3.664,2.682,5.717,2.252c2.197-5.734,3.71-11.965,6.546-17.379c0.096-0.385,0.193-0.77,0.293-1.148
				c0.676-2.58,1.783-5.055,2.989-7.424c2.354-4.629,9.112-5.568,13.945-6.088c6.402-0.689,12.907-0.27,19.322,0
				c8.899,0.373,17.823-0.045,26.726-0.219c9.498-0.184,19.051-0.283,28.467,1.133c9.76,1.465,19.236,4.592,28.619,7.551
				c8.424,2.656,16.973,5.328,25.811,6.115c8.693,0.775,16.664-1.07,24.414-4.795c4.781,7.547,8.068,16.127,9.725,24.854
				c0.988,5.211,1.297,10.578,0.535,15.834C457.389,130.32,454.524,134.352,451.032,138.887z"/>
		</g>
	</g>
	<g>
		<g>
			<path class="st11" d="M220.683,106.029c-1.212-2.016-2.59-3.879-4.069-5.471c-3.813-4.104-8.406-5.303-13.322-5.607
				c-3.158,0.773-7.087,0.52-9.98,0.637c-5.37,0.217-10.734,0.582-16.1,0.744c-13.828,0.412-27.61,2.889-41.424,3.83
				c-19.857,1.354-41.445,2.461-59.702,11.271c-0.186-0.039-0.376-0.055-0.563-0.076c-3.306,2.793-6.244,5.938-8.502,9.605
				c0.12,0.398,0.279,0.787,0.482,1.154c-2.109,7.588-2.43,15.541-1.621,23.482c0.551,5.402,1.98,10.67,2.882,16.018
				c0.996,5.895,1.837,11.814,2.903,17.699c2.051,11.303,5.641,21.449,10.532,31.795c3.669,7.756,7.44,15.199,13.741,21.182
				c18.507,17.572,44.033,9.461,66.112,6.422c9.836-1.354,19.221-2,28.558-5.779c7.434-3.01,14.005-7.656,19.549-13.371
				c4.016-6.996,7.221-14.492,9.076-22.328c0.02-0.328,0.039-0.658,0.057-0.988c0.494-8.576,1.23-17.033,1.938-25.594
				c1.055-12.768,0.748-25.596,1.08-38.393C222.536,123.508,222.471,114.631,220.683,106.029z M211.221,136.375
				c-0.403,11.984-0.029,23.945-1.137,35.906c-0.629,6.791-1.339,13.459-1.588,20.283c-0.168,4.629-0.205,9.66-1.3,14.307
				c-0.621,0.318-1.218,0.787-1.76,1.447c-5.407,6.572-11.864,11.541-19.772,14.742c-7.926,3.207-16.094,3.654-24.459,4.662
				c-19.787,2.387-42.276,11.211-58.909-4.582c-5.106-4.848-7.913-11.926-10.873-18.16c-4.345-9.148-7.273-18.291-9.083-28.27
				c-1.738-9.578-3.471-19.211-5.047-28.812c-1.407-8.561-1.295-17.49,1.706-25.639c18.825-10.086,42.535-10.035,63.246-11.494
				c6.124-0.432,12.216-1.082,18.31-1.82c7.42-0.898,14.975-0.9,22.354-1.822c6.958-0.869,14.429-0.061,21.385-1.361
				c1.416,0.781,3.16,0.9,4.904-0.15c1.052,2.695,1.355,5.664,1.651,8.512C211.616,121.498,211.469,128.975,211.221,136.375z"/>
		</g>
	</g>
	<g>
		<g>
			<path class="st11" d="M432.445,101.82c-9.273-5.781-20.78-6.873-31.364-8.303c-14.237-1.926-28.545-3.24-42.896-3.918
				c-14.378-0.68-28.643,0.133-43.008,0.559c-4.289,0.127-8.586,0.096-12.877,0.041c-1.812-0.023-3.621-0.072-5.431-0.139
				c-0.703-0.027-1.378-0.078-2.076-0.139c-0.331-0.029-0.558-0.074-0.733-0.117c0.092,0.045,0.196,0.105,0.322,0.186
				c-2.841-1.031-6.807-0.033-8.058,3.693c-0.015,0.041-0.028,0.082-0.043,0.125c-0.396,1.178-0.06,2.541,0.583,3.674
				c-3.649,14.576-1.842,29.271,0.799,43.92c2.184,12.117,3.869,24.234,5.635,36.412c1.503,10.359,3.951,20.797,10.133,29.441
				c7.298,10.205,19.631,15.312,31.621,17.367c6.808,1.166,13.771,1.301,20.639,1.932c8.012,0.74,15.916,2.455,23.855,3.703
				c11.454,1.799,22.96,2.383,33.467-3.197c19.229-10.215,15.908-36.025,16.474-53.932c0.675-21.318,6.528-42.123,5.012-63.568
				C435.711,107.088,435.426,103.68,432.445,101.82z M420.018,155.875c-0.899,7.246-1.487,14.527-1.613,21.83
				c-0.102,5.932,0.41,11.814-0.129,17.738c-0.725,7.973-2.873,16.576-9.742,21.441c-9.545,6.764-23.735,3.146-34.189,1.342
				c-7.273-1.258-14.51-2.379-21.877-2.93c-7.398-0.551-14.75-1.053-21.963-2.902c-11.621-2.982-19.482-10.82-23.254-21.969
				c-3.395-10.031-3.771-20.914-5.376-31.312c-2.269-14.705-6.019-29.301-6.217-44.246c-0.062-4.682,0.581-9.303,1.651-13.836
				c3.599,0.18,7.209,0.186,10.811,0.197c13.037,0.045,26.038-1.09,39.078-0.977c14.678,0.131,29.321,1.365,43.892,3.082
				c10.418,1.229,22.526,1.721,32.392,6.197c-0.006,0.211-0.002,0.432,0.016,0.656C424.618,125.549,421.901,140.684,420.018,155.875
				z"/>
		</g>
	</g>
	<g>
		<g>
			<path class="st11" d="M294.059,89.805C293.638,89.594,293.597,89.688,294.059,89.805L294.059,89.805z"/>
		</g>
	</g>
	<g>
		<g>
			<path class="st11" d="M425.432,291.844c-6.427-3.047-11.322,6.83-4.904,9.875c7.782,3.689,10.264,12.416,9.411,20.496
				c-0.996,9.451-6.421,16.27-15.015,20.068c-10.234,4.525-22.158,4.559-32.891,2.035c-12.776-3.008-20.131-11.881-28.325-21.367
				c-8.164-9.451-17.753-17.947-29.479-22.627c-11.471-4.578-24.574-6.564-36.815-4.602c-11.35,1.822-19.954,8.305-26.231,17.518
				c-0.617-1.264-1.251-2.504-1.881-3.709c-3.991-7.656-9.461-13.613-17.238-17.504c-16.492-8.25-37.381-4.875-53.314,2.814
				c-8.828,4.262-16.691,10.008-23.718,16.818c-6.618,6.416-12.067,13.9-19.553,19.404c-6.142,4.518-14.988,7.225-21.74,2.398
				c-4.844-3.465-7.622-9.314-9.02-15.156c0.761-1.52,0.804-3.391-0.427-5.236c-0.445-0.668-0.892-1.336-1.336-2.004
				c-0.453-0.68-1.027-1.182-1.656-1.557c-2.842-2.844-9.555-1.086-9.744,4.393c-1.319,38.277,26.324,74.807,63.879,82.879
				c21.309,4.582,43.502-1.801,62.574-11.182c11.646-5.729,24.732-11.916,33.074-22.008c5.165,10.611,13.744,19.139,24.247,25.537
				c15.475,9.43,33.311,11.438,51.063,11.107c19.68-0.367,40.035-4.031,57.872-12.564c18.271-8.742,27.965-24.953,36.435-42.537
				c1.477-1.449,2.829-3.041,4.026-4.791C445.027,325.301,443.374,300.354,425.432,291.844z M173.31,318.938
				c13.592-13.734,33.501-22.482,52.941-20.094c8.144,1,15.722,4.359,20.509,11.188c3.345,4.77,6.672,10.85,7.917,16.941
				c-4.257-2.867-7.278-7.607-11.893-10.133c-6.562-3.592-14.302-4.604-21.659-3.957c-15.581,1.373-30.512,10.234-43.565,18.188
				c-5.86,3.568-11.297,7.75-17.11,11.387c-3.021,1.889-6.203,3.254-9.617,4.246c-1.557,0.453-3.193,0.559-4.799,0.689
				c1.67-0.137-0.451-0.148-0.932-0.236c-1.769-0.328-3.531-0.754-5.284-1.229C153.708,342.137,163.379,328.975,173.31,318.938z
				 M248.932,336.363c-6.926,2.32-13.473,6.055-19.663,9.775c-11.17,6.709-22.087,13.34-34.442,17.697
				c-12.648,4.459-26.014,5.725-39.009,2.082c-5.644-1.582-10.447-4.809-15.05-8.408c1.129,0.254,2.262,0.48,3.396,0.666
				c6.795,1.107,13.988-2.014,19.851-5.082c6.935-3.627,13.046-8.791,19.708-12.889c7.992-4.914,16.18-9.469,24.965-12.814
				c7.979-3.035,16.105-4.773,24.51-2.621C240.008,326.514,243.545,332.615,248.932,336.363z M256.516,349.305
				c0.049,0.295,0.119,0.578,0.172,0.871c-5.244,13.576-23.488,20.82-35.49,26.555c-16.685,7.975-35.211,12.703-53.66,9.232
				c-15.784-2.969-29.221-12.186-38.867-24.547c7.334,5.672,14.106,11.877,23.383,14.797c13.12,4.131,26.609,3.395,39.805,0.039
				c13.197-3.357,25.396-9.953,36.977-16.943c8.898-5.371,18.124-11.834,28.474-13.729
				C256.606,346.504,256.255,347.744,256.516,349.305z M268.893,321.633c2.811-5.357,7.311-10.27,12.836-12.867
				c10.652-5.004,24.088-2.803,34.889,0.469c12.159,3.684,21.887,12.682,29.919,22.178c8.12,9.602,15.856,17.895,28.045,22.111
				c0.45,0.154,0.914,0.299,1.374,0.445c-2.403-0.238-4.738-0.557-6.951-0.92c-13.031-2.135-25.234-7.848-36.884-13.836
				c-10.696-5.498-21.524-10.355-33.095-13.748c-6-1.762-11.953-2.525-18.201-2.424c-2.875,0.045-5.729,0.461-8.553,0.973
				c-1.88,0.344-3.626,1.174-5.412,1.83C267.487,324.418,268.169,323.012,268.893,321.633z M379.278,365.135
				c-2.467,0.736-4.938,1.443-7.391,2.098c-18.617,4.963-38.57,1.537-55.995-5.924c-12.464-5.336-22.04-15.209-33.817-21.744
				c-2.415-1.34-6.017-3.061-9.712-4.109c3.001-1.055,6.132-1.27,9.31-1.424c6.414-0.311,12.541,1.385,18.607,3.262
				c12.863,3.982,24.419,10.838,36.537,16.521c11.696,5.484,24.158,9.764,37.077,10.949
				C375.67,364.928,377.469,365.051,379.278,365.135z M389.266,377.916c-15.692,7.508-33.359,10.434-50.604,11.229
				c-15.615,0.719-30.789-0.744-44.881-7.912c-12.184-6.195-22.607-16.865-25.783-30.363c0.029-0.09,0.061-0.178,0.088-0.27
				c0.48-1.631,0.21-2.977-0.484-4.004c0.256-0.299,0.477-0.643,0.66-1.027c0.197,0.051,0.397,0.105,0.604,0.154
				c2.295,0.543,4.482,1.736,6.57,2.793c4.297,2.172,6.967,3.988,10.372,6.441c6.764,4.873,13.218,10.109,20.573,14.096
				c8.215,4.451,17.689,7.328,26.771,9.338c17.594,3.889,34.413,1.654,51.417-3.498c5.758-1.744,12.183-3.582,17.974-6.375
				C398.781,372.227,394.45,375.438,389.266,377.916z"/>
		</g>
	</g>
</g>
</svg>
