<?xml version="1.0" encoding="utf-8"?>
<!-- Generator: Adobe Illustrator 16.0.3, SVG Export Plug-In . SVG Version: 6.00 Build 0)  -->
<!DOCTYPE svg PUBLIC "-//W3C//DTD SVG 1.1//EN" "http://www.w3.org/Graphics/SVG/1.1/DTD/svg11.dtd">
<svg version="1.1" id="Layer_1" xmlns="http://www.w3.org/2000/svg" xmlns:xlink="http://www.w3.org/1999/xlink" x="0px" y="0px"
	 width="512px" height="512px" viewBox="0 0 512 512" style="enable-background:new 0 0 512 512;" xml:space="preserve">
<style type="text/css">
<![CDATA[
	.st0{fill:#127274;}
	.st1{fill:#14B6B9;}
	.st2{fill:#1E4384;}
	.st3{fill:#EF4754;}
	.st4{fill:#EF4823;}
	.st5{fill:#BCBCBC;}
	.st6{fill:#F6851F;}
	.st7{fill:#C56528;}
	.st8{fill:#FCBF95;}
	.st9{fill:#FEBF10;}
	.st10{fill:none;}
	.st11{fill:#010101;}
	.st12{fill:#3AB37C;}
	.st13{fill:#D6E5E5;}
	.st14{fill:#71C598;}
	.st15{fill:#74CCCF;}
]]>
</style>
<g>
	<g>
		<g>
			<path class="st9" d="M476.107,212.127c-11.489-51.982-39.041-102.972-81.548-136.022c-21.005-16.333-45.376-27.982-70.931-35.241
				c-10.685-3.036-21.532-5.474-32.476-7.369c7.256,4.48,13.969,9.816,19.828,16.36c16.178,18.067,26.839,40.001,40.901,59.625
				c7.324,10.222,14.66,20.702,19.346,32.454c4.977,12.482,8.65,25.979,11.564,39.086c4.821,21.687,10.915,48.639-1.865,68.76
				c-3.758,5.917-13.662,1.101-9.854-4.895c0.188-0.297,0.357-0.6,0.536-0.899c-0.042-0.145-0.081-0.29-0.113-0.436
				c-5.675-5.824-13.201-8.804-20.188-12.89c-6.382-3.732-14.903-9.314-14.596-17.794c0.146-4.038,2.409-9.906,0.703-13.667
				c-1.54-3.394-4.743-5.711-6.975-8.611c-0.732-0.952-1.366-1.966-1.931-3.022c-0.271,0.988-0.596,1.963-1.002,2.918
				c-1.115,2.626-5.655,7.222-5.287,10.118c0.293,2.303,1.798,4.047,2.885,6.085c2.952,1.505,4.693,5.278,1.693,8.276
				c-5.355,5.352-11.045,11.854-17.723,15.595c-6.896,3.864-14.478,6.884-20.837,11.638c-5.582,4.172-10.35,9.609-11.256,16.759
				c-0.273,2.152-1.542,13.938,0.798,15.45c5.88,3.801,1.067,13.708-4.895,9.854c-0.667-0.431-1.255-0.901-1.801-1.39
				c-8.481,0.356-7.236-15.156-7.237-20.447c0-0.513,0.064-0.99,0.171-1.437c-0.139-0.623-0.179-1.301-0.085-2.036
				c1.179-9.182-3.048-18.49-3.525-27.644c-0.535-10.288-0.561-20.585-0.562-30.883c0-0.594,0.083-1.141,0.226-1.646
				c-1.339-2.68-0.811-6.487,2.774-7.968c0.715-0.295,1.171-0.472,1.663-0.84c0.016-0.043,0.035-0.094,0.053-0.148
				c-0.001-0.002-0.003-0.008-0.004-0.011c-0.084,0.135-0.11-0.212,0,0c0.001-0.002,0.003-0.009,0.005-0.012
				c-0.209-0.596-0.007-0.198-0.564-0.881c-0.624-0.763-1.579-1.527-2.42-2.153c-0.165-0.123-1.207-0.824-0.754-0.543
				c-2.517-1.57-3.83-4.494-2.42-7.335c0.576-1.161,1.653-2.108,2.895-2.642c4.734-5.567-5.57-12.194-9.614-15.272
				c-3.389-2.579-7.409-5.086-10.996-7.973c-2.393,5.039-6.075,9.415-10.138,13.902c-2.715,3-6.355,6.523-7.355,10.606
				c-0.416,1.698-0.58,2.923-0.013,4.61c0.29,0.861,0.535,1.814,1.048,2.579c0.031,0.046,0.054,0.077,0.082,0.119
				c2.835-0.866,5.483,0.816,6.639,3.128c0.393,0.481,0.708,1.012,0.905,1.571c1.074,3.055-0.67,5.728-3.373,7.01
				c-0.992,0.471-5.836,4.625-4.451,6.394c0.045,0.058,0.066,0.101,0.073,0.132c0.103-0.002,0.253,0.004,0.521,0.042
				c0.938,0.131,1.835,0.2,2.782,0.196c1.834-0.008,3.667-0.088,5.5-0.106c2.884-0.029,4.735,1.781,5.435,3.939
				c1.132,1.103,1.859,2.664,1.72,4.595c-0.524,7.304,0.337,15.581,2.134,22.682c1.721,6.799,4.36,13.432,4.62,20.512
				c0.11,3.017-1.818,4.898-4.087,5.522c-1.217,2.471-4.016,4.13-7.179,2.495c-4.293-2.219-8.312-4.903-12.562-7.196
				c-4.141-2.234-8.451-3.71-12.803-5.444c-5.609-2.234-10.494-5.129-14.658-9.099c-4.457,5.938-8.345,12.319-13.397,17.776
				c-6.39,6.903-13.24,13.503-20.779,19.154c-5.275,3.954-14.446,9.224-15.714,16.387c-1.331,7.517,3.407,11.469,9.475,14.567
				c3.486,1.78,3.553,5.59,1.849,8.097c-0.08,1.052-0.534,2.13-1.497,3.129c-1.377,1.428-4.151,3.788-3.688,6.074
				c0.339,1.675,3.289,3.308,4.519,4.162c0.321,0.223,0.596,0.486,0.83,0.778c1.374,0.743,2.357,2.145,2.357,4.264v16
				c0,3.682-2.984,5.678-5.84,5.742c-4.629,4.619-12.463,2.913-18.555,2.833c-2.995-0.039-5.665-1.875-5.909-5.062
				c-0.013-0.17-0.016-0.342-0.011-0.515c-2.163-0.361-3.989-1.926-3.989-4.819c0-17.372-1.924-34.699-4.052-51.947
				c-2.099-17.01-5.475-33.621-3.861-50.859c0.148-1.577,0.802-2.691,1.72-3.396c0.227-0.403,0.512-0.8,0.88-1.186
				c1.837-1.924,3.849-3.335,6.154-4.631c1.431-0.805,2.743-1.097,2.493-2.647c-0.638-3.95-7.219-6.297-10.146-8.291
				c-2.102-1.432-2.497-3.411-1.88-5.178c-0.012-0.424,0.02-0.868,0.112-1.337c0.385-1.952,1.239-4.005,3.016-5.12
				c0.673-0.423,1.371-0.774,2.085-1.103c0.009-0.047,0.013-0.082,0.023-0.132c-0.337-4.216-1.936-6.894-5.179-9.568
				c-4.294-3.542-9.015-6.43-13.244-9.916c-3.273,5.274-8.209,9.408-13.189,13.498c-3.018,2.479-7.17,5.43-8.532,9.263
				c-1.726,4.856,3.049,7.68,6.867,9.2c2.684,1.069,3.455,3.337,2.983,5.473c2.075,2.694,1.895,7.235-2.278,8.646
				c-1.19,0.402-7.843,4.059-4.305,5.86c2.551,1.299,5.438,1.574,8.202,2.216c2.162,0.502,4.556,2.513,4.436,4.976
				c-0.415,8.535,2.812,16.341,4,24.667c1.24,8.683,2.525,17.383,3.191,26.133c1.27,16.678,2.783,33.105,2.809,49.867
				c0.003,2.059-0.931,3.588-2.251,4.551c0.486,2.916-1.025,6.038-4.811,6.024c-17.554-0.063-34.751-2.018-51.432-6.882
				c33.62,38.004,71.707,73.933,118.851,94.264c51.211,22.085,108.261,23.454,160.538,3.977
				c49.093-18.291,94.663-52.52,122.914-97.038c13.354-21.045,23.201-44.311,27.445-68.948
				C483.183,264.396,481.748,237.644,476.107,212.127z"/>
		</g>
	</g>
	<g>
		<g>
			<path class="st9" d="M264.564,189.797c0.001,0.003,0.003,0.007,0.004,0.01c0.011-0.031,0.018-0.049,0.029-0.083
				C264.586,189.76,264.575,189.778,264.564,189.797z"/>
		</g>
	</g>
	<g>
		<g>
			<path class="st9" d="M264.568,189.807c-0.002,0.005-0.004,0.008-0.005,0.013c0.01,0.021,0.023,0.054,0.036,0.085
				c0.001-0.001,0.002-0.001,0.003-0.002C264.589,189.867,264.579,189.838,264.568,189.807z"/>
		</g>
	</g>
	<g>
		<g>
			<path class="st11" d="M264.559,189.81C264.449,189.598,264.475,189.945,264.559,189.81L264.559,189.81z"/>
		</g>
	</g>
	<g>
		<g>
			<polygon class="st11" points="264.564,189.797 264.559,189.81 264.563,189.82 264.568,189.807 			"/>
		</g>
	</g>
	<g>
		<g>
			<path class="st11" d="M492.22,252.487c-1.847-53.269-21.756-106.277-54.482-148.221c-16.489-21.133-36.501-38.955-59.669-52.46
				c-22.806-13.294-48.291-21.674-74.036-27.065c-15.492-3.244-31.028-4.786-46.666-6.279c-4.094-1.362-8.212-2.637-12.318-3.861
				c-4.332-1.292-6.657,2.565-6.152,6.111c-0.021-0.031-0.041-0.061-0.062-0.091c0.014,0.271,0.044,0.532,0.085,0.788
				c-0.923,2.885,0.179,6.27,4.029,6.657c3.969,0.4,7.933,0.753,11.894,1.104c18.26,6.202,35.473,14.398,48.874,28.95
				c15.338,16.653,24.949,37.872,38.085,56.175c6.47,9.016,12.996,18.083,17.701,28.179c5.35,11.479,8.513,24.547,11.619,36.791
				c2.821,11.119,4.835,22.618,5.913,34.043c0.625,6.633,0.517,13.274-0.98,19.589c-4.145-3.54-8.824-6.445-13.75-8.886
				c-3.358-1.664-6.734-3.368-9.802-5.533c-4.49-3.167-5.084-5.715-4.192-10.983c1.515-8.944-1.179-14.896-7.192-21.332
				c-5.926-6.343-6.126-16.458-7.93-24.648c-1.086-4.938-8.117-4.436-10.118-0.628c-4.523,8.606-2.226,18.886-6.666,27.333
				c-2.116,4.024-5.015,7.118-5.126,11.93c-0.055,2.39,0.447,4.641,1.34,6.854c0.345,0.854,2.739,4.472,2.561,3.419
				c0.025,0.153,0.062,0.298,0.098,0.444c-6.126,5.813-12.325,10.711-20.089,14.683c-8.287,4.239-16.303,8.793-22.195,16.086
				c-0.517-2.631-1.025-5.268-1.369-7.931c-1.445-11.176-0.806-22.882-0.807-34.129c0-0.287-0.024-0.556-0.059-0.817
				c3.561-2.74,5.569-6.728,4.383-11.844c-0.538-2.318-1.897-4.343-3.606-6.087c4.763-7.967,0.468-16.338-6.157-22.744
				c-4.057-3.921-8.786-7.145-13.309-10.493c-3.322-2.46-7.393-5.015-9.512-8.667c-3.052-5.259-9.889-1.456-10.044,3.499
				c-0.198,6.271-4.649,11.081-8.63,15.468c-4.15,4.573-8.459,9.19-10.683,15.059c-2.168,5.724-1.577,11.661,1.411,17.003
				c0.58,1.036,1.248,1.968,1.989,2.775c-2.912,3.692-4.541,8.263-3.255,12.903c2.137,7.712,9.042,8.573,15.751,8.579
				c-0.05,5.983,0.591,11.893,1.555,17.848c0.991,6.124,3.347,12.054,4.521,18.141c-5.687-3.206-11.218-6.518-17.468-8.781
				c-7.076-2.562-13.299-5.599-17.813-11.828c-2.074-2.862-6.286-3.281-8.692-0.556c-7.524,8.526-13.129,18.383-21.056,26.608
				c-7.597,7.883-16.506,13.872-24.69,21.036c-7.014,6.14-11.749,13.435-10.94,23.077c0.594,7.084,4.91,12.2,10.335,15.978
				c-2.414,3.11-3.988,6.525-4.107,10.724c-0.142,5.005,3.984,9.228,7.772,11.969v9.656c-0.749,0.25-1.446,0.668-2.068,1.216
				c-0.036,0.014-0.071,0.027-0.1,0.039c-0.077-0.009-0.248-0.002-0.597,0.041c-1.381,0.168-2.791,0.144-4.179,0.124
				c-1.814-0.025-3.624-0.172-5.435-0.259c0.006-0.111,0.017-0.219,0.017-0.334c0-16.834-2.066-33.416-3.848-50.152
				c-1.739-16.336-5.688-32.478-4.29-49.015c0.039-0.039,0.08-0.072,0.118-0.112c1.999-2.095,4.913-2.979,7.127-4.827
				c3.296-2.753,4.361-6.369,4.226-10.561c-0.2-6.214-4.586-9.693-9.232-12.723c1.786-1.966,2.383-4.443,2.422-7.078
				c0.072-4.867-1.299-9.712-4.26-13.593c-6.102-8.001-16.563-11.202-22.522-19.258c-2.783-3.763-9.052-2.859-9.958,2.026
				c-1.968,10.602-14.26,15.822-20.802,23.385c-8.015,9.267-5.124,20.669,3.774,26.781c-4.397,3.644-6.773,9.053-5.096,15.282
				c1.61,5.977,7.275,8.013,12.744,9.333c0.4,6.432,2.33,12.642,3.646,18.967c1.765,8.485,2.543,17.369,3.347,25.991
				c1.57,16.845,2.865,33.529,2.954,50.454c-18.937-0.329-37.666-3.117-55.388-10.071c-3.266-1.281-6.125,0.512-7.362,2.955
				c-3.023,1.227-5,4.589-2.311,7.714c33.812,39.303,70.893,76.787,117.367,100.928c48.862,25.383,104.596,31.969,158.024,18.966
				C406.392,450.072,495.914,359.071,492.22,252.487z M478.739,290.191c-4.244,24.637-14.091,47.903-27.445,68.948
				c-28.251,44.518-73.821,78.747-122.914,97.038c-52.277,19.478-109.327,18.108-160.538-3.977
				c-47.144-20.331-85.23-56.26-118.851-94.264c16.681,4.865,33.878,6.819,51.432,6.882c3.785,0.014,5.297-3.108,4.811-6.024
				c1.32-0.963,2.254-2.492,2.251-4.551c-0.026-16.762-1.539-33.189-2.809-49.867c-0.666-8.75-1.952-17.45-3.191-26.133
				c-1.188-8.326-4.415-16.132-4-24.667c0.12-2.462-2.273-4.474-4.436-4.976c-2.764-0.642-5.651-0.917-8.202-2.216
				c-3.538-1.802,3.115-5.458,4.305-5.86c4.173-1.41,4.353-5.952,2.278-8.646c0.472-2.136-0.299-4.404-2.983-5.473
				c-3.818-1.52-8.593-4.344-6.867-9.2c1.362-3.833,5.514-6.784,8.532-9.263c4.98-4.09,9.916-8.224,13.189-13.498
				c4.229,3.485,8.95,6.374,13.244,9.916c3.243,2.674,4.841,5.353,5.179,9.568c-0.01,0.05-0.014,0.084-0.023,0.132
				c-0.714,0.329-1.412,0.68-2.085,1.103c-1.776,1.114-2.631,3.167-3.016,5.12c-0.093,0.469-0.124,0.914-0.112,1.337
				c-0.617,1.767-0.222,3.746,1.88,5.178c2.927,1.994,9.508,4.341,10.146,8.291c0.25,1.55-1.062,1.842-2.493,2.647
				c-2.305,1.296-4.317,2.708-6.154,4.631c-0.368,0.385-0.653,0.783-0.88,1.186c-0.918,0.705-1.572,1.819-1.72,3.396
				c-1.614,17.238,1.762,33.849,3.861,50.859c2.128,17.248,4.052,34.576,4.052,51.947c0,2.893,1.827,4.458,3.989,4.819
				c-0.005,0.173-0.002,0.344,0.011,0.515c0.244,3.187,2.914,5.022,5.909,5.062c6.092,0.08,13.926,1.786,18.555-2.833
				c2.855-0.064,5.84-2.061,5.84-5.742v-16c0-2.119-0.983-3.521-2.357-4.264c-0.234-0.292-0.509-0.555-0.83-0.778
				c-1.23-0.854-4.18-2.487-4.519-4.162c-0.463-2.286,2.31-4.646,3.688-6.074c0.963-0.999,1.417-2.077,1.497-3.129
				c1.704-2.507,1.637-6.316-1.849-8.097c-6.068-3.098-10.806-7.05-9.475-14.567c1.268-7.163,10.439-12.433,15.714-16.387
				c7.539-5.651,14.389-12.251,20.779-19.154c5.052-5.458,8.94-11.838,13.397-17.776c4.164,3.97,9.049,6.865,14.658,9.099
				c4.352,1.733,8.662,3.209,12.803,5.444c4.25,2.293,8.269,4.977,12.562,7.196c3.163,1.635,5.961-0.024,7.179-2.495
				c2.269-0.624,4.198-2.505,4.087-5.522c-0.26-7.081-2.899-13.713-4.62-20.512c-1.797-7.101-2.658-15.378-2.134-22.682
				c0.139-1.931-0.588-3.493-1.72-4.595c-0.7-2.158-2.551-3.968-5.435-3.939c-1.834,0.018-3.667,0.098-5.5,0.106
				c-0.947,0.004-1.844-0.065-2.782-0.196c-0.267-0.037-0.418-0.044-0.521-0.042c-0.006-0.031-0.027-0.074-0.073-0.132
				c-1.385-1.769,3.459-5.923,4.451-6.394c2.703-1.283,4.446-3.955,3.373-7.01c-0.196-0.559-0.512-1.089-0.905-1.571
				c-1.156-2.312-3.804-3.994-6.639-3.128c-0.028-0.042-0.051-0.073-0.082-0.119c-0.513-0.765-0.759-1.718-1.048-2.579
				c-0.566-1.687-0.403-2.912,0.013-4.61c1-4.083,4.64-7.606,7.355-10.606c4.063-4.488,7.746-8.864,10.138-13.902
				c3.587,2.887,7.607,5.394,10.996,7.973c4.044,3.079,14.348,9.705,9.614,15.272c-1.242,0.533-2.318,1.48-2.895,2.642
				c-1.409,2.841-0.096,5.765,2.42,7.335c-0.453-0.281,0.589,0.42,0.754,0.543c0.841,0.626,1.796,1.39,2.42,2.153
				c0.558,0.683,0.355,0.285,0.564,0.881c0.011-0.019,0.021-0.038,0.033-0.074c-0.011,0.034-0.019,0.053-0.029,0.083
				c0.011,0.031,0.021,0.06,0.034,0.096c-0.001,0.001-0.002,0.001-0.003,0.002c-0.013-0.031-0.026-0.064-0.036-0.085
				c-0.019,0.054-0.037,0.105-0.053,0.148c-0.492,0.368-0.948,0.544-1.663,0.84c-3.584,1.481-4.113,5.288-2.774,7.968
				c-0.142,0.506-0.226,1.052-0.226,1.646c0.001,10.298,0.026,20.596,0.562,30.883c0.477,9.154,4.704,18.462,3.525,27.644
				c-0.094,0.735-0.054,1.413,0.085,2.036c-0.107,0.447-0.171,0.924-0.171,1.437c0.001,5.291-1.244,20.804,7.237,20.447
				c0.546,0.489,1.134,0.959,1.801,1.39c5.962,3.854,10.774-6.054,4.895-9.854c-2.34-1.512-1.071-13.298-0.798-15.45
				c0.907-7.15,5.674-12.586,11.256-16.759c6.359-4.754,13.94-7.774,20.837-11.638c6.678-3.742,12.367-10.243,17.723-15.595
				c3-2.998,1.259-6.771-1.693-8.276c-1.087-2.038-2.592-3.782-2.885-6.085c-0.368-2.896,4.172-7.492,5.287-10.118
				c0.406-0.955,0.731-1.93,1.002-2.918c0.564,1.056,1.198,2.071,1.931,3.022c2.232,2.9,5.436,5.217,6.975,8.611
				c1.706,3.761-0.556,9.629-0.703,13.667c-0.308,8.479,8.214,14.062,14.596,17.794c6.987,4.085,14.513,7.065,20.188,12.89
				c0.032,0.146,0.07,0.292,0.113,0.436c-0.179,0.299-0.348,0.602-0.536,0.899c-3.808,5.996,6.096,10.812,9.854,4.895
				c12.779-20.121,6.686-47.073,1.865-68.76c-2.914-13.106-6.587-26.604-11.564-39.086c-4.686-11.752-12.021-22.232-19.346-32.454
				c-14.062-19.624-24.724-41.559-40.901-59.625c-5.859-6.543-12.572-11.88-19.828-16.36c10.944,1.895,21.791,4.333,32.476,7.369
				c25.555,7.259,49.926,18.908,70.931,35.241c42.507,33.051,70.059,84.04,81.548,136.022
				C481.748,237.644,483.183,264.396,478.739,290.191z"/>
		</g>
	</g>
</g>
</svg>
