<?xml version="1.0" encoding="utf-8"?>
<!-- Generator: Adobe Illustrator 16.0.3, SVG Export Plug-In . SVG Version: 6.00 Build 0)  -->
<!DOCTYPE svg PUBLIC "-//W3C//DTD SVG 1.1//EN" "http://www.w3.org/Graphics/SVG/1.1/DTD/svg11.dtd">
<svg version="1.1" id="Layer_1" xmlns="http://www.w3.org/2000/svg" xmlns:xlink="http://www.w3.org/1999/xlink" x="0px" y="0px"
	 width="512px" height="512px" viewBox="0 0 512 512" style="enable-background:new 0 0 512 512;" xml:space="preserve">
<style type="text/css">
<![CDATA[
	.st0{fill:#127274;}
	.st1{fill:#14B6B9;}
	.st2{fill:#1E4384;}
	.st3{fill:#EF4754;}
	.st4{fill:#EF4823;}
	.st5{fill:#BCBCBC;}
	.st6{fill:#F6851F;}
	.st7{fill:#C56528;}
	.st8{fill:#FCBF95;}
	.st9{fill:#FEBF10;}
	.st10{fill:none;}
	.st11{fill:#010101;}
	.st12{fill:#3AB37C;}
	.st13{fill:#D6E5E5;}
	.st14{fill:#71C598;}
	.st15{fill:#74CCCF;}
]]>
</style>
<g>
	<g>
		<g>
			<path class="st7" d="M317.801,458.74c-3.95-1.001-4.996-4.946-3.876-7.92c-0.031-0.267-0.08-0.605-0.158-1.028
				c-0.163-0.798-0.294-1.601-0.395-2.41c-0.146-2.355-0.813-4.658-1.189-6.986c-0.951-5.898-1.292-11.93-1.413-17.902
				c-0.124-6.082,0.037-12.169-0.155-18.248c-0.197-6.254-1.255-12.142-2.304-18.294c-3.938-23.105-6.316-46.419-6.476-69.865
				c-11.216,0.581-22.433,1.128-33.651,1.605c-12.525,0.532-25.055,0.939-37.582,1.316c-0.412,12.185,2.814,24.329,4.816,36.25
				c2.172,12.939,3.402,26.009,4.424,39.082c0.986,12.591,4.293,25.112,4.469,37.743c0.16,11.469,0.065,22.911,0.726,34.355
				c0.68,0.769,1.182,1.754,1.389,2.972c0.058,0.341,0.093,0.668,0.117,0.989c19.022,0.075,38.773,0.499,57.425-3.143
				c4.885-0.954,9.918-1.599,14.608-3.34C317.468,462.401,317.049,460.44,317.801,458.74z"/>
		</g>
	</g>
	<g>
		<g>
			<path class="st5" d="M306.49,109.509c-1.212-8.275-11.022-6.297-16.438-3.518c-0.96,0.493-1.918,0.701-2.835,0.697
				c0.155,1.658,0.345,3.314,0.603,4.961c0.477,3.048,1.042,6.079,1.641,9.104c0.65,0.017,1.328,0.139,2.024,0.397
				c3.32,1.233,8.349-0.256,11.167-2.107C306.2,116.714,307.117,113.794,306.49,109.509z"/>
		</g>
	</g>
	<g>
		<g>
			<path class="st12" d="M465.598,418.272c-0.363-0.74-1.391-1.543-2.911-2.179c-1.626-0.68-4.167-1.139-6.307-1.294
				c-5.351-0.388-10.915,0.407-16.163,1.381c-7.933,1.472-15.881,3.639-23.479,6.481c-1.294,0.535-2.603,1.044-3.919,1.531
				c-6.704,2.48-10.145-7.701-3.637-10.383c1.7-0.701,3.431-1.359,5.174-1.998c5.814-2.399,11.971-5.682,14.946-10.851
				c3.655-6.351,3.747-15.014-3.757-18.435c-8.747-3.988-20.552-2.497-29.797-1.237c-10.645,1.449-21.095,4.329-30.673,9.271
				c-4.229,2.183-11.371-1.811-8.002-7.007c4.49-6.926,7.484-15.098,8.153-23.352c0.533-6.583-0.752-15.62-7.778-18.472
				c-6.69-2.716-15.773-0.166-22.171,2.256c-5.798,2.195-13.578,5.44-16.351,11.462c-0.704,1.53-1.799,2.414-3.017,2.796
				c0.723,6.241,1.542,12.47,2.522,18.677c1.059,6.713,2.94,13.584,3.358,20.358c0.824,13.35-0.605,27.023,1.534,40.274
				c0.372,2.305,1.717,7.317,2.039,11.923c2.787-1.376,6.812-0.847,8.491,2.809c1.456,3.172,1.973,5.967,1.774,8.433
				c7.424,10.997,24.278,9.398,36.2,8.615c9.92-0.652,27.012-2.686,26.685-15.91c-0.069-2.813,1.953-5.908,5.062-5.909
				c14.309-0.001,29.549,0.245,43.223-4.558c6.142-2.157,12.143-5.298,15.932-10.794
				C465.228,428.541,467.62,422.386,465.598,418.272z"/>
		</g>
	</g>
	<g>
		<g>
			<path class="st5" d="M212.206,137.968c-1.956-5.277-3.943-10.689-6.86-15.52c-1.447-2.396-3.933-6.876-7.047-8.103
				c-0.047,0.148-0.097,0.319-0.148,0.534c-0.439,1.809-0.729,3.644-0.861,5.501c-0.295,4.156-0.066,8.355,0.1,12.512
				c0.095,2.352,0.03,4.692-0.083,7.031C202.278,139.263,207.229,138.505,212.206,137.968z"/>
		</g>
	</g>
	<g>
		<g>
			<path class="st5" d="M262.162,118.521c-0.696-4.781-2.3-10.83-8.133-10.501c-2.077,0.117-4.204,0.298-6.195,0.942
				c-0.921,0.299-2.005,0.542-2.818,1.1c-0.197,0.136-0.354,0.244-0.488,0.339c0.063,1.799-0.587,3.198-1.611,4.169
				c0.378,4.417,0.948,8.819,1.637,13.207c0.212,1.351,0.467,2.719,0.734,4.092C253.417,131.169,263.578,128.239,262.162,118.521z"
				/>
		</g>
	</g>
	<g>
		<g>
			<path class="st7" d="M232.779,431.152c-0.852-13.362-3.605-26.559-4.715-39.921c-1.124-13.531-2.572-27.017-5.055-40.373
				c-1.952-10.499-3.86-20.87-3.76-31.514c-5.865,0.173-11.732,0.345-17.597,0.525c2.544,16.619,7.204,32.831,9.705,49.454
				c2.397,15.931,3.32,32.522,2.631,48.625c-0.299,7-1.158,13.982-1.298,20.988c-0.116,5.792-0.889,13.694,4.365,17.553
				c4.462,3.277,9.697,5.242,13.957,8.882c0.887,0.758,1.75,1.542,2.613,2.327C233.006,455.514,233.553,443.312,232.779,431.152z"/>
		</g>
	</g>
	<g>
		<g>
			<path class="st7" d="M200.994,66.21c-3.035-6.867-2.957-16.227-2.74-23.907c-5.768,0.708-13.807,3.271-16.994,7.561
				c-3.365,4.531-1.728,12.191-1.683,17.416c0,0.015-0.003,0.029-0.003,0.044C186.715,66.951,193.854,66.567,200.994,66.21z"/>
		</g>
	</g>
	<g>
		<g>
			<path class="st7" d="M280.562,53.806c-1.017-3.714-1.532-7.669-2.741-11.307c-1.424-4.284-4.717-3.514-9.217-3.516
				c-19.606-0.01-39.198,0.862-58.777,1.829c-0.022,3.434-0.007,6.869,0.238,10.295c0.196,2.746,0.252,11.136,2.896,12.512
				c0.969,0.503,1.678,1.161,2.171,1.899c22.419-1.076,44.843-2.038,67.273-2.806C281.987,59.723,281.37,56.763,280.562,53.806z"/>
		</g>
	</g>
	<g>
		<g>
			<path class="st12" d="M202.547,454.802c-1.665-7.687-1.438-15.331-0.89-23.139c1.258-17.897,1.323-35.857-0.727-53.714
				c-1.061-9.228-2.894-18.314-4.837-27.382c-0.243-0.127-0.485-0.266-0.725-0.435c-13.885-9.768-36.276-13.131-49.574-0.305
				c-4.072,3.928-7.543,9.084-6.869,15.023c0.811,7.152,6.063,12.119,11.705,16.018c5.301,3.663-0.632,11.565-6.078,9.06
				c-13.42-6.174-33.413-13.621-47.478-5.368c-5.651,3.317-11.91,7.759-15.118,13.661c-3.235,5.951-1.438,9.693,4.49,12.852
				c3.883,2.068,4.238,8.879-0.629,10.119c-7.998,2.036-16.515,4.568-23.088,9.771c-3.819,3.023-9.889,10.308-5.035,15.125
				c8.904,8.837,26.876,8.158,38.346,7.115c5.826-0.53,11.688-1.593,17.217-3.538c4.232-1.488,9.732-4.34,14.318-4.15
				c4.965,0.207,9.297,1.318,13.566,3.915c3.648,2.219,6.601,5.507,10.407,7.44c9.028,4.582,19.222,5.129,29.188,5.316
				c8.211,0.154,15.742-0.91,23.28-3.438C203.364,457.534,202.855,456.227,202.547,454.802z"/>
		</g>
	</g>
	<g>
		<g>
			<path class="st5" d="M197.628,221.254c-5.261,6.466-6.341,16.693-6.845,24.44c-0.055,0.845-0.085,1.691-0.124,2.536
				c4.198-2.383,9.963-2.629,15.443-2.375C204.233,237.282,201.794,228.923,197.628,221.254z"/>
		</g>
	</g>
	<g>
		<g>
			<path class="st5" d="M404.593,203.333c-4.392-6.864-15.024-11.547-23.536-9.844c2.908,10.907,4.163,21.958,5.875,33.076
				c0.217,0.014,0.438,0.039,0.663,0.074C398.29,228.334,411.035,213.401,404.593,203.333z"/>
		</g>
	</g>
	<g>
		<g>
			<path class="st5" d="M470.555,155.249c-0.293-10.291-0.66-20.593-0.574-30.889c0.064-7.516,0.407-15.075-0.245-22.576
				c-1.349-15.496-7.759-28.726-24.289-31.858c-12.774-2.42-26.088-0.792-38.946,0.102c-16.817,1.17-33.554,2.222-50.414,2.424
				c-21.193,0.253-42.385,0.747-63.568,1.423c-2.195,1.869-5.716,2.029-7.802,0.261c-10.664,0.362-21.326,0.764-31.987,1.208
				c-67.39,2.811-134.709,6.977-202.068,10.392c-0.239,1.121-0.793,2.186-1.717,3.032c-0.215,0.521-0.228,0.554-0.027,0.067
				c-0.282,1.171-0.494,2.354-0.612,3.554c-0.263,2.673-0.271,5.364-0.208,8.047c0.155,6.693,0.672,13.375,1.363,20.033
				c1.813,17.452,3.229,34.894,4.549,52.4c1.871,24.783,3.177,49.668,6.27,74.336c2.746,21.907,6.104,43.755,7.271,65.814
				c0.17,0.536,0.268,1.135,0.268,1.806v3.493c66.123-9.938,132.84-9.219,199.482-12.085c34.173-1.47,68.328-3.37,102.446-5.78
				c31.969-2.257,63.897-6.151,95.961-6.542c0.716-3.856,1.419-7.713,2.169-11.562c-0.497-21.103,1.205-42.127,2.353-63.183
				C471.39,197.853,471.163,176.576,470.555,155.249z M330.172,97.652c0.278,6.846,5.047,12.855,9.11,18.035
				c3.856,4.915,8.078,9.609,11.589,14.788c1.771-9.367,0.282-19.386,0.221-28.805c-0.048-7.378,11.411-8.29,11.459-0.884
				c0.094,14.496,1.883,28.483-3.583,42.232c-3.295,8.291-8.971,22.581-19.46,23.476c-7.398,0.631-8.254-10.83-0.885-11.459
				c1.243-0.105,4.357-5.194,5.365-7.051c1.152-2.122,2.223-4.293,3.204-6.504c-1.673,0.058-3.355-0.679-4.534-2.571
				c-8.006-12.856-23.281-24.082-23.945-40.372C318.412,91.139,329.87,90.251,330.172,97.652z M279.45,93.332
				c3.004-2.063,6.079-0.813,7.706,1.489c6.267-2.636,13.139-3.89,19.722-1.363c6.685,2.565,11.058,9.246,11.167,16.392
				c0.121,8.065-2.338,15.414-9.959,19.292c-5.286,2.689-10.889,4.22-16.565,3.541c1.203,11.557,0.186,23.538,3.876,34.538
				c2.36,7.034-8.488,10.822-10.845,3.799c-3.072-9.155-3.016-18.602-3.475-28.133c-0.312-6.505-1.345-12.668-2.635-19.018
				C276.887,116.199,271.219,98.987,279.45,93.332z M239.275,100.209c3.527-2.091,7.992-3.152,11.875-3.501
				c10.114-0.906,17.83,3.868,20.835,13.734c2.846,9.341,2.288,19.071-5.616,25.73c-5.283,4.45-12.193,6.424-19.048,7.08
				c0.164,1.333,0.294,2.661,0.343,3.979c0.139,3.77,0.55,7.549,1.063,11.284c0.265,1.919,0.471,3.893,0.917,5.781
				c0.104,0.439,0.21,0.884,0.326,1.325c2.905,2.814,1.977,9.398-3.423,10.275c-9.528,1.544-9.648-18.442-10.101-23.985
				c-1.258-15.438-5.312-30.482-5.472-46.061C230.926,100.993,235.866,98.939,239.275,100.209z M185.738,127.997
				c-0.132-8.474-0.527-24.536,11.245-25.378c12.933-0.926,20.552,17.384,24.271,26.847c1.044,2.659,2.095,5.333,3.127,8.022
				c4.082,1.081,5.378,6.207,3.389,9.154c3.264,9.241,6.021,18.667,7.354,28.304c1.017,7.36-10.45,8.18-11.459,0.884
				c-1.268-9.172-4.14-18.013-7.313-26.723c-6.546,0.555-13.03,1.615-19.557,2.454c-0.111,7.458,0.091,14.904,0.728,22.34
				c0.633,7.397-10.828,8.253-11.459,0.884C184.725,159.168,185.983,143.613,185.738,127.997z M169.859,286.638
				c-7.556-0.298-15.139,1.411-22.637,2.098c-4.408,0.404-9.686,0.989-14.307-0.089c-0.81,1.101-1.99,1.945-3.729,2.557
				c-2.214,0.779-5.531-0.381-6.518-2.606c-4.915-11.077-2.005-22.893-4.48-34.418c-2.683-12.489-6.268-25.146-5.723-38.034
				c0.188-4.435,4.408-6.278,7.682-5.442c0.882-0.648,1.975-1.055,3.243-1.129c11.747-0.686,26.604-4.501,37.427,1.794
				c6.394,3.72,0.694,13.699-5.723,9.966c-4.399-2.559-10.707-1.862-15.57-1.554c-3.92,0.249-7.83,0.659-11.745,0.981
				c-0.949,1.134-2.302,1.829-3.714,2.073c0.426,6.183,1.658,12.271,3.003,18.342c11.396,0.535,22.785-0.592,34.181-0.022
				c7.373,0.369,7.59,11.86,0.194,11.491c-10.631-0.532-21.257,0.401-31.888,0.097c0.897,4.792,1.353,9.364,1.303,14.322
				c-0.028,2.806-0.143,5.783,0.101,8.693c0.921,0.012,1.902,0.3,2.897,0.952c4.01,2.627,12.515,0.655,17.162,0.104
				c6.152-0.729,12.43-1.913,18.645-1.668C177.049,275.438,177.261,286.93,169.859,286.638z M168.613,180.421
				c-3.679-10.571-3.452-21.849-5.517-32.75c-2.754,0.597-5.663,0.728-8.408,0.699c-4.147-0.042-9.157-0.836-13.54-0.096
				c0.265,1.355,0.516,2.712,0.736,4.073c1.033,6.365,3.159,13.022,3.411,19.464c0.044,1.108,0.158,2.216,0.278,3.319
				c0.494,0.77,0.783,1.748,0.767,2.948c-0.015,0.974,0.085,2.051-0.187,2.989c-1.46,5.03-7.085,6.066-10.402,2.116
				c-1.84-2.192-1.684-6.991-1.869-9.704c-0.426-6.214-2.183-12.397-3.179-18.54c-2.258-13.923-7.073-27.58-7.312-41.779
				c-0.123-7.387,11.334-8.291,11.459-0.885c0.142,8.419,1.957,16.601,3.838,24.773c3.73-0.583,7.701-0.301,11.33-0.208
				c2.578,0.066,7.176,0.724,10.474-0.131c-2.185-8.761-4.179-17.647-3.677-26.683c0.404-7.299,11.867-8.254,11.459-0.884
				c-0.496,8.934,1.573,17.498,3.686,26.069c1.219,1.417,1.842,3.346,1.278,5.274c0.265,1.119,0.522,2.239,0.765,3.362
				c2.328,10.814,1.804,22.287,5.453,32.773C181.897,183.633,171.045,187.413,168.613,180.421z M213.488,281.247
				c-2.232-7.623-3.631-15.611-5.083-23.597c-1.646-0.05-3.292-0.076-4.937-0.034c-2.553,0.064-6.212-0.17-8.238,1.33
				c-1.685,1.249-3.354,1.347-4.751,0.75c0.03,6.287,0.148,12.573-0.188,18.852c-0.394,7.369-11.888,7.589-11.491,0.193
				c0.678-12.654-0.407-25.296,0.953-37.936c1.346-12.502,4.814-26.281,16.322-33.206c2.841-1.71,6.078-0.514,7.865,2.027
				c7.969,11.317,11.375,24.34,14.019,37.634c3.282,1.85,3.899,6.619,1.739,9.138c1.371,7.333,2.775,14.648,4.843,21.707
				C226.63,285.235,215.569,288.347,213.488,281.247z M269.477,264.034c-5.093,12.324-18.343,13.781-30.053,14.242
				c-7.422,0.292-7.576-11.201-0.193-11.492c5.562-0.218,13.919,0.244,17.979-4.404c3.477-3.979,4.396-11.54-0.92-14.278
				c-11.419-5.885-28.641-2.378-34.2-16.875c-5.202-13.563,0.598-31.222,16.041-33.557c10.627-1.606,26.868,0.014,28.438,13.275
				c0.873,7.369-10.628,7.469-11.491,0.193c-0.285-2.414-9.35-2.562-10.918-2.516c-5.491,0.163-9.924,0.861-11.573,6.916
				c-1.482,5.445-1.645,13.714,4.939,15.721c5.916,1.804,12.172,2.335,18.058,4.25c5.122,1.667,10.89,4.261,13.511,9.327
				C272.207,250.86,272.043,257.822,269.477,264.034z M309.446,210.296l-10.341-0.623c0.965,4.928,2.005,9.858,2.596,14.817
				c1.659,13.927,2.755,27.938,5.175,41.758c0.771,0.889,1.226,2.119,1.13,3.701l-0.125,2.085c-0.37,6.127-9.938,8.429-11.272,1.667
				c-2.934-14.862-4.188-29.944-5.923-44.973c-0.766-6.633-2.197-13.185-3.362-19.767l-11.241-0.678
				c-7.36-0.443-7.584-11.937-0.194-11.491l33.363,2.011C316.611,199.248,316.836,210.742,309.446,210.296z M372.103,271.317
				c-11.06,3.473-22.597,4.111-34.107,3.483c-2.581-0.141-4.28-1.644-5.089-3.519c-1.732-1.216-2.923-3.262-2.53-5.872
				c1.612-10.704-1.983-21.968-4.829-32.163c-2.509-8.99-5.104-17.963-6.492-27.189c-3.397-2.378-3.735-8.84,1.487-10.451
				c6.034-1.861,12.887-2.541,19.176-2.575c5.408-0.03,13.883,0.084,16.596,5.9c3.06,6.554-6.451,12.367-9.739,6.134
				c-0.053-0.01-0.101-0.017-0.163-0.031c-0.704-0.162-1.41-0.342-2.133-0.39c-2.62-0.173-5.247-0.167-7.865,0.021
				c-1.974,0.142-3.968,0.312-5.947,0.577c0.935,6.089,2.523,12.11,4.23,18.117l23.217,1.399c7.36,0.444,7.585,11.937,0.194,11.491
				l-20.089-1.211c2.552,9.36,4.542,18.771,3.974,28.441c9.14,0.242,18.147-0.447,26.971-3.217
				C376.053,258.037,379.154,269.104,372.103,271.317z M414.12,268.619c-5.052,1.892-8.047-3.433-6.675-7.479
				c-0.002-0.003-0.002-0.004-0.004-0.006c-0.773-1.401-1.635-2.752-2.581-4.045c-2.125-2.902-4.509-5.627-6.991-8.227
				c-2.609-2.733-5.302-5.416-8.219-7.824c-0.282-0.233-0.564-0.464-0.851-0.692c0.302,2.909,0.559,5.825,0.794,8.747
				c0.374,4.642-0.582,9.412-0.609,14.078c0.598,0.851,0.931,1.963,0.848,3.34l-0.188,3.128c-0.37,6.143-9.877,8.412-11.273,1.667
				c-1.427-6.9,0.427-13.41-0.129-20.303c-0.49-6.066-0.778-12.233-1.884-18.227c-2.323-12.591-3.256-25.169-6.719-37.555
				c-2.646-2.283-3.438-7.062,0.414-9.57c14.289-9.303,41.59-1.099,46.395,16.129c3.832,13.736-3.93,27.764-15.836,33.552
				C413.045,246.233,426.687,263.912,414.12,268.619z"/>
		</g>
	</g>
	<g>
		<g>
			<path class="st11" d="M482.534,182.111c-0.328-16.459-0.79-32.924-1.04-49.385c-0.191-12.543,0.805-25.212-0.965-37.677
				c-1.685-11.862-6.782-23.066-16.929-29.957c-10.218-6.938-22.946-8.007-34.962-7.832c-15.026,0.218-30.073,1.892-45.066,2.836
				c-16.999,1.071-34.044,0.922-51.068,1.251c-12.852,0.248-25.699,0.585-38.546,0.985c-0.967-7.997-3.136-16.014-5.293-23.635
				c-1.876-6.626-7.023-10.315-13.707-10.936c-10.423-0.967-21.194-0.16-31.636,0.146c-13.215,0.389-26.422,1.044-39.627,1.704
				c-1.17,0.058-2.169,0.469-2.976,1.105c-0.381-0.055-0.779-0.08-1.202-0.061c-9.198,0.396-20.607,4.729-26.891,11.621
				c-6.179,6.779-4.614,17.266-4.514,25.642c-41.062,2.186-82.117,4.548-123.182,6.606c-4.186,0.21-5.719,3.972-4.92,7.13
				c-2.043,2.509-2.73,5.953-3.066,9.368c-0.703,7.137-0.262,14.386,0.263,21.518c1.207,16.37,3.192,32.666,4.425,49.047
				c1.971,26.19,3.318,52.517,6.245,78.62c2.978,26.559,7.574,52.921,8.479,79.678c0.072,2.126,1.036,3.562,2.375,4.361
				c-0.38,3.315,1.675,6.811,5.886,6.149c41.639-6.542,83.528-8.748,125.489-10.158c0.81,5.394,1.837,10.746,2.941,16.084
				c-17.734-8.287-39.272-8.312-54.629,5.444c-6.654,5.962-10.608,13.902-10.527,22.895c0.025,2.835,0.626,5.547,1.629,8.112
				c-14.129-3.654-28.85-3.756-41.688,4.576c-7.59,4.926-15.454,12.359-17.974,21.327c-1.642,5.845-0.261,10.906,2.86,15.013
				c-14.188,5.09-29.914,14.588-27.386,30.803c2.543,16.306,23.54,19.298,36.822,19.922c11.138,0.523,22.449-0.504,33.123-3.824
				c5.543-1.725,11.541-5.439,17.384-3.22c4.73,1.797,8.186,5.928,12.463,8.503c10.096,6.077,21.948,6.639,33.389,7.174
				c11.933,0.558,23.104-1.127,34.132-5.788c1.244,0.796,2.518,1.533,3.773,2.219c5.094,2.782,8.938,6.401,13.319,10.124
				c3.67,3.119,8.836,5.478,12.422,2.154c0.338,0.056,0.691,0.09,1.064,0.09c22.527-0.001,45.146-0.061,67.365-4.204
				c6.266-1.168,13.805-3.286,18.973-7.095c4.034,4.368,9.203,7.293,15.683,8.778c9.032,2.07,19.333,1.507,28.529,0.903
				c14.889-0.978,32.05-6.47,35.197-21.755c15.39-0.066,31.336-0.697,45.623-6.741c13.399-5.668,27.023-20.889,21.623-36.526
				c-4.382-12.688-21.559-12.132-32.233-10.736c-1.463,0.191-2.93,0.41-4.397,0.653c5.38-8.916,3.892-21.035-3.208-28.383
				c-8.517-8.813-23.422-7.799-34.492-7.113c-9.834,0.61-19.491,2.542-28.738,5.733c5.418-15.916,5.334-35.716-10.808-43.489
				c-8.944-4.308-20.663-1.666-29.562,1.32c-6.169,2.07-13.21,5.319-18.32,10.109c-0.717-9.257-1.107-18.54-1.172-27.825
				c19.121-1.048,38.236-2.229,57.342-3.567c33.41-2.34,66.771-6.516,100.296-6.583c2.531-0.005,4.731-2.269,5.196-4.634
				c1.092-5.562,2.041-11.15,3.133-16.712c0.135-0.683,0.156-1.321,0.085-1.911C478.486,248.698,483.201,215.485,482.534,182.111z
				 M209.826,40.812c19.579-0.967,39.171-1.839,58.777-1.829c4.5,0.002,7.793-0.769,9.217,3.516
				c1.209,3.638,1.725,7.593,2.741,11.307c0.809,2.957,1.426,5.917,1.844,8.907c-22.431,0.769-44.854,1.73-67.273,2.806
				c-0.493-0.738-1.202-1.396-2.171-1.899c-2.645-1.376-2.7-9.767-2.896-12.512C209.819,47.682,209.804,44.247,209.826,40.812z
				 M181.26,49.864c3.188-4.29,11.227-6.853,16.994-7.561c-0.217,7.68-0.295,17.041,2.74,23.907
				c-7.141,0.357-14.279,0.741-21.42,1.114c0-0.016,0.003-0.029,0.003-0.044C179.532,62.055,177.895,54.395,181.26,49.864z
				 M180.737,462.186c-9.966-0.187-20.159-0.734-29.188-5.316c-3.807-1.933-6.759-5.221-10.407-7.44
				c-4.27-2.597-8.602-3.708-13.566-3.915c-4.586-0.19-10.086,2.662-14.318,4.15c-5.529,1.945-11.391,3.008-17.217,3.538
				c-11.47,1.042-29.441,1.722-38.346-7.115c-4.854-4.817,1.216-12.102,5.035-15.125c6.573-5.203,15.09-7.735,23.088-9.771
				c4.867-1.239,4.512-8.05,0.629-10.119c-5.929-3.159-7.726-6.901-4.49-12.852c3.208-5.902,9.467-10.344,15.118-13.661
				c14.064-8.253,34.058-0.807,47.478,5.368c5.446,2.505,11.379-5.396,6.078-9.06c-5.642-3.899-10.895-8.865-11.705-16.018
				c-0.674-5.939,2.797-11.095,6.869-15.023c13.298-12.826,35.689-9.462,49.574,0.305c0.239,0.168,0.481,0.308,0.725,0.435
				c1.943,9.068,3.776,18.155,4.837,27.382c2.05,17.856,1.984,35.816,0.727,53.714c-0.548,7.808-0.775,15.452,0.89,23.139
				c0.309,1.425,0.817,2.732,1.471,3.945C196.479,461.275,188.948,462.34,180.737,462.186z M231.014,465.371
				c-4.26-3.64-9.495-5.604-13.957-8.882c-5.254-3.859-4.481-11.762-4.365-17.553c0.14-7.005,0.999-13.987,1.298-20.988
				c0.689-16.104-0.233-32.695-2.631-48.625c-2.501-16.623-7.161-32.834-9.705-49.454c5.864-0.18,11.731-0.353,17.597-0.525
				c-0.101,10.644,1.808,21.015,3.76,31.514c2.482,13.356,3.931,26.842,5.055,40.373c1.109,13.362,3.863,26.56,4.715,39.921
				c0.773,12.161,0.227,24.362,0.848,36.546C232.764,466.913,231.9,466.129,231.014,465.371z M318.927,355.447
				c2.772-6.022,10.553-9.268,16.351-11.462c6.397-2.422,15.48-4.972,22.171-2.256c7.026,2.853,8.312,11.889,7.778,18.472
				c-0.669,8.254-3.663,16.426-8.153,23.352c-3.369,5.196,3.772,9.19,8.002,7.007c9.578-4.942,20.028-7.822,30.673-9.271
				c9.245-1.259,21.05-2.751,29.797,1.237c7.504,3.421,7.412,12.084,3.757,18.435c-2.976,5.169-9.132,8.451-14.946,10.851
				c-1.743,0.639-3.474,1.297-5.174,1.998c-6.508,2.682-3.067,12.863,3.637,10.383c1.316-0.487,2.625-0.996,3.919-1.531
				c7.599-2.842,15.547-5.009,23.479-6.481c5.248-0.974,10.812-1.769,16.163-1.381c2.14,0.155,4.681,0.614,6.307,1.294
				c1.521,0.636,2.548,1.439,2.911,2.179c2.022,4.114-0.37,10.269-2.867,13.891c-3.789,5.496-9.79,8.637-15.932,10.794
				c-13.674,4.803-28.914,4.557-43.223,4.558c-3.108,0-5.131,3.096-5.062,5.909c0.327,13.224-16.765,15.258-26.685,15.91
				c-11.922,0.783-28.776,2.382-36.2-8.615c0.198-2.466-0.318-5.261-1.774-8.433c-1.679-3.656-5.704-4.185-8.491-2.809
				c-0.322-4.606-1.667-9.619-2.039-11.923c-2.14-13.251-0.71-26.924-1.534-40.274c-0.418-6.774-2.3-13.645-3.358-20.358
				c-0.98-6.207-1.8-12.436-2.522-18.677C317.128,357.861,318.223,356.978,318.927,355.447z M313.372,447.381
				c0.101,0.809,0.231,1.612,0.395,2.41c0.078,0.423,0.127,0.761,0.158,1.028c-1.12,2.974-0.074,6.919,3.876,7.92
				c-0.752,1.7-0.333,3.661,0.774,5.176c-4.69,1.741-9.724,2.387-14.608,3.34c-18.651,3.641-38.402,3.217-57.425,3.143
				c-0.024-0.32-0.06-0.648-0.117-0.989c-0.207-1.218-0.709-2.203-1.389-2.972c-0.66-11.445-0.565-22.886-0.726-34.355
				c-0.176-12.631-3.482-25.152-4.469-37.743c-1.021-13.073-2.252-26.143-4.424-39.082c-2.002-11.921-5.229-24.066-4.816-36.25
				c12.527-0.377,25.057-0.784,37.582-1.316c11.219-0.477,22.436-1.024,33.651-1.605c0.159,23.446,2.538,46.76,6.476,69.865
				c1.049,6.152,2.106,12.04,2.304,18.294c0.192,6.079,0.031,12.167,0.155,18.248c0.121,5.972,0.462,12.004,1.413,17.902
				C312.559,442.724,313.227,445.026,313.372,447.381z M470.228,219.166c-1.147,21.056-2.85,42.08-2.353,63.183
				c-0.75,3.849-1.453,7.707-2.169,11.562c-32.063,0.391-63.992,4.285-95.961,6.542c-34.118,2.41-68.273,4.31-102.446,5.78
				c-66.643,2.866-133.359,2.147-199.482,12.085v-3.493c0-0.67-0.098-1.27-0.268-1.806c-1.168-22.059-4.525-43.907-7.271-65.814
				c-3.093-24.668-4.398-49.553-6.27-74.336c-1.32-17.506-2.735-34.948-4.549-52.4c-0.691-6.658-1.208-13.34-1.363-20.033
				c-0.062-2.683-0.055-5.375,0.208-8.047c0.118-1.199,0.33-2.383,0.612-3.554c-0.2,0.487-0.188,0.454,0.027-0.067
				c0.924-0.846,1.478-1.911,1.717-3.032c67.359-3.415,134.679-7.581,202.068-10.392c10.661-0.445,21.323-0.846,31.987-1.208
				c2.086,1.768,5.606,1.607,7.802-0.261c21.184-0.676,42.375-1.17,63.568-1.423c16.86-0.202,33.597-1.254,50.414-2.424
				c12.858-0.894,26.172-2.521,38.946-0.102c16.53,3.132,22.94,16.362,24.289,31.858c0.652,7.5,0.31,15.06,0.245,22.576
				c-0.086,10.296,0.281,20.599,0.574,30.889C471.163,176.576,471.39,197.853,470.228,219.166z"/>
		</g>
	</g>
	<g>
		<g>
			<path class="st11" d="M179.457,176.621c-3.649-10.487-3.125-21.959-5.453-32.773c-0.242-1.123-0.5-2.243-0.765-3.362
				c0.563-1.929-0.06-3.857-1.278-5.274c-2.112-8.571-4.182-17.135-3.686-26.069c0.408-7.37-11.055-6.415-11.459,0.884
				c-0.502,9.036,1.492,17.922,3.677,26.683c-3.298,0.855-7.896,0.197-10.474,0.131c-3.629-0.093-7.6-0.375-11.33,0.208
				c-1.881-8.173-3.696-16.354-3.838-24.773c-0.125-7.406-11.582-6.502-11.459,0.885c0.238,14.199,5.054,27.856,7.312,41.779
				c0.996,6.143,2.753,12.326,3.179,18.54c0.186,2.713,0.029,7.512,1.869,9.704c3.317,3.95,8.942,2.914,10.402-2.116
				c0.271-0.938,0.172-2.015,0.187-2.989c0.017-1.201-0.272-2.178-0.767-2.948c-0.12-1.103-0.234-2.211-0.278-3.319
				c-0.252-6.442-2.378-13.1-3.411-19.464c-0.221-1.361-0.472-2.718-0.736-4.073c4.383-0.741,9.393,0.053,13.54,0.096
				c2.745,0.028,5.654-0.103,8.408-0.699c2.064,10.901,1.838,22.179,5.517,32.75C171.045,187.413,181.897,183.633,179.457,176.621z"
				/>
		</g>
	</g>
	<g>
		<g>
			<path class="st11" d="M235.123,174.945c-1.332-9.637-4.09-19.062-7.354-28.304c1.989-2.947,0.693-8.073-3.389-9.154
				c-1.032-2.689-2.083-5.363-3.127-8.022c-3.719-9.463-11.338-27.772-24.271-26.847c-11.772,0.842-11.377,16.904-11.245,25.378
				c0.245,15.616-1.014,31.171,0.324,46.788c0.631,7.369,12.092,6.513,11.459-0.884c-0.637-7.437-0.839-14.882-0.728-22.34
				c6.526-0.839,13.011-1.899,19.557-2.454c3.174,8.71,6.046,17.551,7.313,26.723C224.673,183.125,236.14,182.305,235.123,174.945z
				 M197.306,139.923c0.113-2.339,0.178-4.68,0.083-7.031c-0.166-4.157-0.395-8.356-0.1-12.512c0.132-1.858,0.422-3.693,0.861-5.501
				c0.052-0.215,0.102-0.386,0.148-0.534c3.114,1.227,5.6,5.707,7.047,8.103c2.917,4.831,4.904,10.243,6.86,15.52
				C207.229,138.505,202.278,139.263,197.306,139.923z"/>
		</g>
	</g>
	<g>
		<g>
			<path class="st11" d="M271.985,110.442c-3.005-9.866-10.721-14.64-20.835-13.734c-3.883,0.349-8.348,1.41-11.875,3.501
				c-3.409-1.27-8.35,0.784-8.3,5.64c0.16,15.579,4.214,30.624,5.472,46.061c0.452,5.542,0.572,25.529,10.101,23.985
				c5.399-0.876,6.328-7.461,3.423-10.275c-0.116-0.441-0.222-0.885-0.326-1.325c-0.446-1.888-0.652-3.861-0.917-5.781
				c-0.514-3.735-0.925-7.514-1.063-11.284c-0.049-1.317-0.179-2.646-0.343-3.979c6.854-0.656,13.765-2.63,19.048-7.08
				C274.273,129.513,274.831,119.783,271.985,110.442z M245.287,131.869c-0.268-1.374-0.522-2.741-0.734-4.092
				c-0.688-4.388-1.259-8.789-1.637-13.207c1.024-0.971,1.675-2.37,1.611-4.169c0.135-0.095,0.291-0.203,0.488-0.339
				c0.813-0.558,1.897-0.801,2.818-1.1c1.991-0.645,4.118-0.825,6.195-0.942c5.833-0.329,7.437,5.72,8.133,10.501
				C263.578,128.239,253.417,131.169,245.287,131.869z"/>
		</g>
	</g>
	<g>
		<g>
			<path class="st11" d="M306.878,93.458c-6.583-2.527-13.455-1.272-19.722,1.363c-1.627-2.303-4.702-3.553-7.706-1.489
				c-8.231,5.655-2.563,22.867-1.008,30.537c1.29,6.35,2.323,12.513,2.635,19.018c0.459,9.531,0.402,18.979,3.475,28.133
				c2.356,7.022,13.205,3.235,10.845-3.799c-3.69-11-2.673-22.981-3.876-34.538c5.677,0.679,11.279-0.852,16.565-3.541
				c7.621-3.878,10.08-11.226,9.959-19.292C317.936,102.704,313.562,96.023,306.878,93.458z M302.652,119.042
				c-2.818,1.851-7.847,3.34-11.167,2.107c-0.696-0.258-1.374-0.38-2.024-0.397c-0.599-3.025-1.164-6.056-1.641-9.104
				c-0.258-1.647-0.447-3.303-0.603-4.961c0.917,0.004,1.875-0.204,2.835-0.697c5.415-2.779,15.226-4.757,16.438,3.518
				C307.117,113.794,306.2,116.714,302.652,119.042z"/>
		</g>
	</g>
	<g>
		<g>
			<path class="st11" d="M362.551,100.786c-0.048-7.406-11.507-6.494-11.459,0.884c0.062,9.419,1.551,19.438-0.221,28.805
				c-3.511-5.179-7.732-9.873-11.589-14.788c-4.063-5.18-8.832-11.189-9.11-18.035c-0.302-7.401-11.76-6.514-11.459,0.885
				c0.664,16.291,15.939,27.516,23.945,40.372c1.179,1.893,2.861,2.629,4.534,2.571c-0.981,2.21-2.052,4.382-3.204,6.504
				c-1.008,1.856-4.122,6.945-5.365,7.051c-7.369,0.629-6.514,12.09,0.885,11.459c10.489-0.896,16.165-15.185,19.46-23.476
				C364.434,129.27,362.645,115.282,362.551,100.786z"/>
		</g>
	</g>
	<g>
		<g>
			<path class="st11" d="M169.664,275.147c-6.215-0.245-12.492,0.94-18.645,1.668c-4.647,0.551-13.152,2.523-17.162-0.104
				c-0.995-0.652-1.977-0.94-2.897-0.952c-0.243-2.91-0.129-5.887-0.101-8.693c0.05-4.958-0.405-9.53-1.303-14.322
				c10.631,0.304,21.257-0.629,31.888-0.097c7.396,0.369,7.179-11.123-0.194-11.491c-11.396-0.569-22.785,0.558-34.181,0.022
				c-1.345-6.071-2.577-12.159-3.003-18.342c1.412-0.245,2.765-0.939,3.714-2.073c3.915-0.323,7.825-0.732,11.745-0.981
				c4.863-0.308,11.171-1.005,15.57,1.554c6.417,3.733,12.116-6.247,5.723-9.966c-10.823-6.296-25.68-2.48-37.427-1.794
				c-1.269,0.074-2.361,0.48-3.243,1.129c-3.273-0.836-7.494,1.007-7.682,5.442c-0.545,12.888,3.04,25.545,5.723,38.034
				c2.476,11.526-0.435,23.342,4.48,34.418c0.986,2.225,4.304,3.386,6.518,2.606c1.738-0.611,2.919-1.456,3.729-2.557
				c4.621,1.078,9.898,0.493,14.307,0.089c7.498-0.687,15.081-2.396,22.637-2.098C177.261,286.93,177.049,275.438,169.664,275.147z"
				/>
		</g>
	</g>
	<g>
		<g>
			<path class="st11" d="M224.542,278.106c-2.067-7.059-3.472-14.374-4.843-21.707c2.16-2.52,1.543-7.288-1.739-9.138
				c-2.644-13.294-6.05-26.317-14.019-37.634c-1.787-2.541-5.024-3.737-7.865-2.027c-11.508,6.925-14.977,20.703-16.322,33.206
				c-1.36,12.64-0.275,25.282-0.953,37.936c-0.396,7.396,11.098,7.175,11.491-0.193c0.336-6.279,0.218-12.565,0.188-18.852
				c1.396,0.598,3.066,0.499,4.751-0.75c2.026-1.5,5.686-1.266,8.238-1.33c1.645-0.042,3.291-0.016,4.937,0.034
				c1.452,7.986,2.851,15.974,5.083,23.597C215.569,288.347,226.63,285.235,224.542,278.106z M190.659,248.23
				c0.039-0.845,0.069-1.691,0.124-2.536c0.504-7.747,1.584-17.975,6.845-24.44c4.166,7.669,6.605,16.028,8.475,24.602
				C200.622,245.601,194.857,245.848,190.659,248.23z"/>
		</g>
	</g>
	<g>
		<g>
			<path class="st11" d="M269.094,244.838c-2.621-5.066-8.389-7.661-13.511-9.327c-5.886-1.915-12.142-2.446-18.058-4.25
				c-6.584-2.007-6.422-10.276-4.939-15.721c1.649-6.055,6.082-6.753,11.573-6.916c1.568-0.046,10.633,0.102,10.918,2.516
				c0.863,7.275,12.364,7.176,11.491-0.193c-1.569-13.262-17.811-14.882-28.438-13.275c-15.443,2.335-21.243,19.993-16.041,33.557
				c5.56,14.497,22.781,10.99,34.2,16.875c5.315,2.739,4.396,10.299,0.92,14.278c-4.061,4.648-12.417,4.186-17.979,4.404
				c-7.383,0.291-7.229,11.783,0.193,11.492c11.71-0.461,24.96-1.918,30.053-14.242C272.043,257.822,272.207,250.86,269.094,244.838
				z"/>
		</g>
	</g>
	<g>
		<g>
			<path class="st11" d="M309.251,198.804l-33.363-2.011c-7.39-0.446-7.166,11.047,0.194,11.491l11.241,0.678
				c1.165,6.582,2.597,13.133,3.362,19.767c1.735,15.028,2.989,30.111,5.923,44.973c1.334,6.762,10.902,4.46,11.272-1.667
				l0.125-2.085c0.096-1.582-0.358-2.812-1.13-3.701c-2.42-13.821-3.516-27.832-5.175-41.758c-0.591-4.959-1.631-9.89-2.596-14.817
				l10.341,0.623C316.836,210.742,316.611,199.248,309.251,198.804z"/>
		</g>
	</g>
	<g>
		<g>
			<path class="st11" d="M368.963,260.263c-8.823,2.771-17.831,3.459-26.971,3.217c0.568-9.67-1.422-19.081-3.974-28.441
				l20.089,1.211c7.391,0.446,7.166-11.047-0.194-11.491l-23.217-1.399c-1.707-6.007-3.296-12.027-4.23-18.117
				c1.979-0.264,3.974-0.435,5.947-0.577c2.618-0.188,5.245-0.194,7.865-0.021c0.723,0.048,1.429,0.228,2.133,0.39
				c0.062,0.015,0.11,0.021,0.163,0.031c3.288,6.233,12.799,0.42,9.739-6.134c-2.713-5.815-11.188-5.93-16.596-5.9
				c-6.289,0.034-13.142,0.714-19.176,2.575c-5.223,1.611-4.885,8.073-1.487,10.451c1.389,9.227,3.983,18.199,6.492,27.189
				c2.846,10.195,6.441,21.459,4.829,32.163c-0.393,2.61,0.798,4.656,2.53,5.872c0.809,1.875,2.508,3.377,5.089,3.519
				c11.511,0.627,23.048-0.011,34.107-3.483C379.154,269.104,376.053,258.037,368.963,260.263z"/>
		</g>
	</g>
	<g>
		<g>
			<path class="st11" d="M400.611,235.331c11.906-5.788,19.668-19.816,15.836-33.552c-4.805-17.228-32.105-25.432-46.395-16.129
				c-3.852,2.508-3.06,7.287-0.414,9.57c3.463,12.386,4.396,24.964,6.719,37.555c1.105,5.993,1.394,12.16,1.884,18.227
				c0.556,6.894-1.298,13.403,0.129,20.303c1.396,6.745,10.903,4.476,11.273-1.667l0.188-3.128c0.083-1.377-0.25-2.489-0.848-3.34
				c0.027-4.666,0.983-9.436,0.609-14.078c-0.235-2.922-0.492-5.838-0.794-8.747c0.286,0.228,0.568,0.459,0.851,0.692
				c2.917,2.408,5.609,5.09,8.219,7.824c2.482,2.6,4.866,5.325,6.991,8.227c0.946,1.293,1.808,2.644,2.581,4.045
				c0.002,0.002,0.002,0.003,0.004,0.006c-1.372,4.046,1.623,9.371,6.675,7.479C426.687,263.912,413.045,246.233,400.611,235.331z
				 M387.595,226.639c-0.226-0.035-0.446-0.06-0.663-0.074c-1.712-11.117-2.967-22.169-5.875-33.076
				c8.512-1.704,19.145,2.979,23.536,9.844C411.035,213.401,398.29,228.334,387.595,226.639z"/>
		</g>
	</g>
</g>
</svg>
