<?xml version="1.0" encoding="utf-8"?>
<!-- Generator: Adobe Illustrator 16.0.3, SVG Export Plug-In . SVG Version: 6.00 Build 0)  -->
<!DOCTYPE svg PUBLIC "-//W3C//DTD SVG 1.1//EN" "http://www.w3.org/Graphics/SVG/1.1/DTD/svg11.dtd">
<svg version="1.1" id="Layer_1" xmlns="http://www.w3.org/2000/svg" xmlns:xlink="http://www.w3.org/1999/xlink" x="0px" y="0px"
	 width="512px" height="512px" viewBox="0 0 512 512" style="enable-background:new 0 0 512 512;" xml:space="preserve">
<style type="text/css">
<![CDATA[
	.st0{fill:#127274;}
	.st1{fill:#14B6B9;}
	.st2{fill:#1E4384;}
	.st3{fill:#EF4754;}
	.st4{fill:#EF4823;}
	.st5{fill:#BCBCBC;}
	.st6{fill:#F6851F;}
	.st7{fill:#C56528;}
	.st8{fill:#FCBF95;}
	.st9{fill:#FEBF10;}
	.st10{fill:none;}
	.st11{fill:#010101;}
	.st12{fill:#3AB37C;}
	.st13{fill:#D6E5E5;}
	.st14{fill:#71C598;}
	.st15{fill:#74CCCF;}
]]>
</style>
<g>
	<g>
		<g>
			<path class="st9" d="M386.766,291.015c-0.129-7.73-2.82-15.971-2.248-23.766c-3.47,0.828-7.246,0.539-10.963-1.23
				c-10.191-4.852-15.578-16.021-25.752-20.5c-6.491-2.859-1.588-12.709,4.895-9.855c7.939,3.496,12.818,10.545,19.188,16.072
				c4.604,3.994,11.677,8.006,14.938,0.533c3.855-8.832,2.172-20.289-0.616-29.139c-3.769-11.967-10.562-22.402-18.734-31.838
				c-7.935-9.162-18.605-17.209-22.639-29.08c-4.074-11.994-1.036-24.744-3.192-37.072c-2.271-12.973-9.291-26.709-17.328-37.113
				c-7.625-9.871-19.735-14.688-27.169-24.672c-5.85-7.855-8.071-21.357-17.165-26.48c-6.385-3.598-12.902-3.807-18.977-1.877
				c0.691,0.52,1.367,1.086,2.008,1.748c6.14,6.346,5.84,16.217,1.168,23.293c-4.609,6.98-11.846,9.936-19.725,11.902
				c-8.059,2.014-15.344,3.59-22.165,8.57c-10.164,7.422-19.019,17.031-24.433,28.488c-2.786,5.898-4.85,12.086-5.667,18.582
				c-0.782,6.205-0.308,12.473-0.834,18.705c-2.413,28.561-29.024,45.965-44.229,68.055c-7.195,10.451-14.607,23.547-13.879,36.697
				c0.292,5.281,3.305,21.578,10.74,20.242c6.379-1.145,12.108-9.094,15.91-13.738c4.754-5.809,8.967-12.207,14.221-17.582
				c4.936-5.049,13.239,2.174,8.266,7.262c-8.922,9.129-15.112,20.531-25.018,28.799c-4.234,3.533-9.346,6.508-14.984,6.305
				c-0.029,0.098-0.069,0.221-0.125,0.381c0.409-1.18-0.16,0.775-0.168,0.812c-0.392,1.76-0.688,3.537-0.895,5.328
				c-0.477,4.088-0.707,8.189-0.707,12.305c0,4.17,0.09,8.383,0.663,12.52c0.185,1.336,0.374,2.672,0.807,3.951
				c4.242,1.852,3.155,8.59-1.212,10.1c2.168,1.314,4.521,2.254,7.094,2.502c6.871,0.664,13.445-4.295,17.979-8.908
				c4.699-4.783,7.564-11.064,12.544-15.596c5.668-5.16,12.671-5.838,19.337-2.057c15.766,8.947,24.223,27.271,40.672,35.35
				c7.984,3.92,13.281-7.945,16.576-13.432c5.021-8.365,12.18-19.791,23.363-19.586c12.043,0.221,20.922,9.348,30.424,15.607
				c6.113,4.025,22.008,17.727,27.879,7.117c3.055-5.52,5.746-11.533,8.086-17.393c1.801-4.508,2.654-9.35,4.5-13.844
				c3.709-9.021,13.375-9.031,21.167-5.666c4.368,1.885,17.171,11.248,21.72,6.525c0.878-0.912,1.624-1.895,2.27-2.934
				C391.157,296.772,386.839,295.448,386.766,291.015z M215.766,113.015c-1.442-6.943,9.549-7.684,10.969-0.848
				c2.873,13.832,21.211-0.084,24.588-7.023c3.102-6.371,12.963-1.492,9.855,4.895c-4.082,8.387-13.652,16.006-22.738,18.15
				C226.422,131.022,218.225,124.86,215.766,113.015z M286.178,159.038c-7.174,10.986-16.841,20.033-24,31
				c-2.342,3.588-6.707,4.074-9.487,0.629c-7.272-9.014-8.774-21.043-13.632-31.258c-1.34-2.816-0.081-5.08,2.006-6.199
				c0.48-1.283,1.553-2.348,3.367-2.811c3.7-0.943,6.825-3.24,10.477-4.25c3.335-0.922,6.488-1.188,9.935-0.85
				c7.202,0.705,14.175,2.846,20.038,7.158C286.68,153.782,287.423,157.13,286.178,159.038z M317.467,121.146
				c-4.959,6.939-12.437,12.498-21.248,11.412c-10.788-1.33-20.951-10.041-20.453-21.543c0.301-7.008,11.275-7.914,10.969-0.848
				c-0.309,7.156,6.676,12.646,13.739,11.439c2.158-0.369,5.271-3.436,7.383-5.986c0.271-0.57,0.679-1.131,1.261-1.66
				c0.029-0.025,0.058-0.051,0.086-0.078C314.443,109.118,321.631,115.319,317.467,121.146z"/>
		</g>
	</g>
	<g>
		<g>
			<path class="st13" d="M416.77,288.97c-3.107,0.002-6.439-2.41-5.918-6.428c-0.186,1.422-0.681,0.541-1.246-0.234
				c-1.414,5.797-1.977,11.896-4.881,17.199c-4.021,7.342-10.818,12.439-19.512,10.553c-7.473-1.623-13.592-6.152-20.662-8.76
				c-0.914-0.336-2.177-0.834-3.166-0.783c-0.713,0.035-1.811,0.643-1.582,0.164c-1.673,3.506-2.43,7.367-3.654,11.037
				c-3.002,9.008-7.061,18.883-12.766,26.504c-5.482,7.324-17.232,5.924-24.338,2.58c-8.661-4.074-16.846-10.094-24.529-15.768
				c-3.781-2.791-7.701-5.979-12.213-7.516c-4.863-1.656-8.828,1.086-11.92,4.703c-5.867,6.865-8.869,15.914-15.334,22.332
				c-7.682,7.625-16.391,7.998-25.396,2.127c-10.426-6.799-18.168-16.137-27.012-24.729c-2.414-2.346-4.876-4.676-7.557-6.719
				c-1.377-1.051-3.686-3.275-5.605-3.166c-3.466,0.195-5.767,3.801-7.621,6.369c-5.934,8.219-12.129,15.959-21.658,20.258
				c-7.9,3.564-17.025,3.361-24.507-1.227c-10.063-6.172-16.87-15.543-23.524-25.055c6.682,23.527,14.973,46.879,26.01,68.709
				c1.539,1.107,2.473,2.996,2.513,4.838c5.875,11.078,12.485,21.734,20.009,31.775c13.453,17.953,30.009,34.168,50.133,44.455
				c17.91,9.156,37.489,14.689,57.591,15.938c41.403,2.574,83.905-13.076,112.705-43.168c5.818-6.078,11.118-12.65,15.794-19.625
				c0.023-2.043,1.036-4.041,3.127-4.855c7.014-11.469,12.322-23.947,15.383-37.139C421.898,345.47,420.179,317.099,416.77,288.97z"
				/>
		</g>
	</g>
	<g>
		<g>
			<path class="st6" d="M262.744,156.097c-4.249-0.26-7.832,2.027-11.629,3.627c2.277,5.945,3.816,12.312,6.541,18.045
				c5.127-6.549,10.789-12.678,15.709-19.375C269.993,157.003,266.211,156.31,262.744,156.097z"/>
		</g>
	</g>
	<g>
		<g>
			<path class="st14" d="M147.68,195.546c-4.543-9.389-20.369-9.662-28.697-6.75c-11.611,4.061-21.304,13.098-22.334,25.844
				c-0.184,2.271-2.748,4.438-4.975,4.438c-5.449,0-7.834-5.109-12.922-6.443c-5-1.312-9.967-0.932-14.803,0.902
				c-9.573,3.633-18.1,10.541-24.172,18.754c-5.474,7.402-11.994,22.463-6.352,31.357c5.641,8.895,16.785,12.506,25.271,18.016
				c3.663,2.379,3.981,6.645,0.629,9.488c-14.221,12.055-18.779,33.1-12.545,50.42c6.469,17.969,22.842,27.596,41.65,22.828
				c3.129-0.793,7.379,0.939,7.303,4.768c-0.295,14.885,17.959,15.15,30.713,12.865c-13.559-27.826-23.025-57.82-30.389-87.623
				c-0.836-3.381,1.28-5.988,3.837-6.93c1.817-1.951,4.694-2.605,6.985-0.021c8.646,9.754,15.002,21.467,23.686,31.162
				c-1.25-5.564-1.051-12.17-1.051-15.59c0-5.705,0.199-11.48,0.988-17.137c0.369-2.641,0.781-5.596,1.903-8.139
				c-2.146-2.127-3.866-4.771-5.208-7.459c-12.416-24.865,1.67-50.965,17.217-70.727
				C145.484,198.212,146.576,196.874,147.68,195.546z"/>
		</g>
	</g>
	<g>
		<g>
			<path class="st14" d="M467.803,279.519c-4.229-2.035-3.916-8.662,0.629-10.119c8.485-2.719,18.02-8.357,18.182-18.484
				c0.128-8.105-2.802-18.746-9.701-23.711c-12.333-8.873-34.988-7.582-46.586,1.947c-3.832,3.148-9.352-1.217-8.475-5.609
				c3.578-17.939,0.393-36.982-13.232-49.818c-9.35-8.809-26.863-3.139-27.971,9.916c-0.162,1.906-1.067,3.135-2.289,3.783
				c1.996,2.297,3.91,4.664,5.664,7.172c7.105,10.156,12.503,21.43,14.675,33.699c1.642,9.277,2.306,20.145-2.021,28.869
				c-0.794,1.602-1.771,3.059-2.893,4.35c1.409,1.092,2.283,2.848,1.863,5.127c-0.592,3.217,0.378,7.014,0.802,10.211
				c0.454,3.426,0.923,6.855,1.149,10.303c1.447-5.729,2.082-11.9,4.723-17.01c1.574-3.047,5.942-4.191,8.559-1.686
				c2.416,2.314,5.48,4.623,7.74,7.332c3.07-1.316,7.544,0.02,8.113,4.377c1.051,8.041,2.054,16.092,2.779,24.17
				c2.701,30.051,2.476,62.379-9.336,90.701c-2.219,5.322-4.74,10.531-7.536,15.594c1.024,0.139,2.048,0.295,3.073,0.471
				c4.302,0.73,9.086,1.764,13.39,0.441c7.796-2.395,15.435-6.609,21.591-11.971c6.178-5.383,11.818-13.154,12.616-21.553
				c0.681-7.182-1.944-14.377-0.736-21.553c1.493-8.867,7.858-12.322,15.497-15.646c8.408-3.66,13.12-8.824,14.298-18.242
				C494.716,303.817,484.57,287.589,467.803,279.519z"/>
		</g>
	</g>
	<g>
		<g>
			<path d="M482.086,275.325c7.203-4.303,12.75-10.609,14.869-19.4c2.771-11.496-2.246-25.736-9.857-34.365
				c-7.488-8.486-20.604-10.668-31.277-10.906c-7.094-0.156-14.861,0.939-21.77,3.688c1.021-19.445-4.941-40.568-21.621-51.576
				c-14.895-9.83-38.392-1.713-42.139,15.91c-4.015-4.242-7.988-8.508-11.398-13.236c-7.465-10.35-4.676-22.697-5.508-34.611
				c-0.981-14.039-6.619-26.145-13.22-38.338c-2.979-5.5-6.466-10.727-10.673-15.369c-4.515-4.979-9.934-8.604-15.281-12.607
				c-7.309-5.471-10.76-11.854-14.804-19.832c-3.337-6.584-7.171-12.959-13.534-17.021c-16.336-10.43-35.133-3.031-47.756,9.301
				c-4.525,4.422,2.178,11.746,7.209,8.191c3.875-2.74,9.023-3.877,11.097,1.479c1.81,4.672-2.403,9.918-6.356,11.861
				c-9.186,4.521-19.865,4.447-28.893,9.541c-21.448,12.104-37.643,35.988-40.126,60.463c-1.366,13.455,0.608,25.777-8.061,37.334
				c-5.545,7.393-11.766,14.205-17.878,21.107c-8.246-10.461-24.793-12.268-37.118-9.305c-13.521,3.252-26.059,13.766-30.52,27.078
				c-20.295-11.371-46.486,5.348-58.148,23.434c-7.23,11.213-11.565,26.426-6.265,39.266c4.129,10.004,14.858,15.174,24.301,20.34
				c-13.89,15.77-17.89,38.215-10.637,58.359c3.768,10.467,10.863,19.361,20.371,25.121c8.543,5.174,18.578,6.229,28.258,4.875
				c4.086,18.436,29.152,19.604,46.257,16.049c6.356,11.877,13.538,23.287,21.71,34.035c14.195,18.67,31.75,34.957,52.619,45.857
				c19.016,9.932,40.262,15.631,61.643,16.959c42.309,2.629,84.084-12.109,115.443-40.58c8.891-8.07,16.689-17.324,23.311-27.357
				c8.313,0.387,16.434,3.219,24.813,1.236c9.273-2.191,18.408-7.58,25.698-13.611c7.348-6.078,13.264-13.99,16.012-23.195
				c2.637-8.832,0.406-17.162,0.43-26.107c0.013-4.566,3.38-5.959,7.077-7.6c4.169-1.852,8.368-3.574,12.009-6.373
				c8.309-6.393,10.788-17.047,11.301-26.99C504.573,300.993,495.648,285.331,482.086,275.325z M191.354,146.286
				c0.526-6.232,0.052-12.5,0.834-18.705c0.817-6.496,2.881-12.684,5.667-18.582c5.414-11.457,14.269-21.066,24.433-28.488
				c6.821-4.98,14.106-6.557,22.165-8.57c7.879-1.967,15.115-4.922,19.725-11.902c4.672-7.076,4.972-16.947-1.168-23.293
				c-0.641-0.662-1.316-1.229-2.008-1.748c6.074-1.93,12.592-1.721,18.977,1.877c9.094,5.123,11.315,18.625,17.165,26.48
				c7.434,9.984,19.544,14.801,27.169,24.672c8.037,10.404,15.057,24.141,17.328,37.113c2.156,12.328-0.882,25.078,3.192,37.072
				c4.033,11.871,14.704,19.918,22.639,29.08c8.172,9.436,14.966,19.871,18.734,31.838c2.788,8.85,4.472,20.307,0.616,29.139
				c-3.261,7.473-10.333,3.461-14.938-0.533c-6.369-5.527-11.248-12.576-19.188-16.072c-6.482-2.854-11.386,6.996-4.895,9.855
				c10.174,4.479,15.561,15.648,25.752,20.5c3.717,1.77,7.493,2.059,10.963,1.23c-0.572,7.795,2.119,16.035,2.248,23.766
				c0.073,4.434,4.392,5.758,7.588,4.395c-0.646,1.039-1.392,2.021-2.27,2.934c-4.549,4.723-17.352-4.641-21.72-6.525
				c-7.792-3.365-17.458-3.355-21.167,5.666c-1.846,4.494-2.699,9.336-4.5,13.844c-2.34,5.859-5.031,11.873-8.086,17.393
				c-5.871,10.609-21.766-3.092-27.879-7.117c-9.502-6.26-18.381-15.387-30.424-15.607c-11.184-0.205-18.342,11.221-23.363,19.586
				c-3.295,5.486-8.592,17.352-16.576,13.432c-16.449-8.078-24.906-26.402-40.672-35.35c-6.666-3.781-13.669-3.104-19.337,2.057
				c-4.979,4.531-7.845,10.812-12.544,15.596c-4.533,4.613-11.107,9.572-17.979,8.908c-2.572-0.248-4.926-1.188-7.094-2.502
				c4.367-1.51,5.454-8.248,1.212-10.1c-0.433-1.279-0.622-2.615-0.807-3.951c-0.573-4.137-0.663-8.35-0.663-12.52
				c0-4.115,0.23-8.217,0.707-12.305c0.207-1.791,0.503-3.568,0.895-5.328c0.008-0.037,0.577-1.992,0.168-0.812
				c0.056-0.16,0.096-0.283,0.125-0.381c5.639,0.203,10.75-2.771,14.984-6.305c9.905-8.268,16.096-19.67,25.018-28.799
				c4.974-5.088-3.33-12.311-8.266-7.262c-5.254,5.375-9.467,11.773-14.221,17.582c-3.802,4.645-9.531,12.594-15.91,13.738
				c-7.436,1.336-10.448-14.961-10.74-20.242c-0.729-13.15,6.684-26.246,13.879-36.697
				C162.33,192.251,188.941,174.847,191.354,146.286z M95.734,369.167c0.076-3.828-4.174-5.561-7.303-4.768
				c-18.809,4.768-35.182-4.859-41.65-22.828c-6.234-17.32-1.676-38.365,12.545-50.42c3.353-2.844,3.034-7.109-0.629-9.488
				c-8.486-5.51-19.631-9.121-25.271-18.016c-5.643-8.895,0.878-23.955,6.352-31.357c6.072-8.213,14.599-15.121,24.172-18.754
				c4.836-1.834,9.803-2.215,14.803-0.902c5.088,1.334,7.473,6.443,12.922,6.443c2.227,0,4.791-2.166,4.975-4.438
				c1.03-12.746,10.723-21.783,22.334-25.844c8.328-2.912,24.154-2.639,28.697,6.75c-1.104,1.328-2.195,2.666-3.264,4.023
				c-15.547,19.762-29.633,45.861-17.217,70.727c1.342,2.688,3.062,5.332,5.208,7.459c-1.122,2.543-1.534,5.498-1.903,8.139
				c-0.789,5.656-0.988,11.432-0.988,17.137c0,3.42-0.199,10.025,1.051,15.59c-8.684-9.695-15.039-21.408-23.686-31.162
				c-2.291-2.584-5.168-1.93-6.985,0.021c-2.557,0.941-4.673,3.549-3.837,6.93c7.363,29.803,16.83,59.797,30.389,87.623
				C113.693,384.317,95.439,384.052,95.734,369.167z M400.049,410.479c-2.091,0.814-3.104,2.812-3.127,4.855
				c-4.676,6.975-9.976,13.547-15.794,19.625c-28.8,30.092-71.302,45.742-112.705,43.168c-20.102-1.248-39.681-6.781-57.591-15.938
				c-20.124-10.287-36.68-26.502-50.133-44.455c-7.523-10.041-14.134-20.697-20.009-31.775c-0.04-1.842-0.974-3.73-2.513-4.838
				c-11.037-21.83-19.328-45.182-26.01-68.709c6.654,9.512,13.461,18.883,23.524,25.055c7.481,4.588,16.606,4.791,24.507,1.227
				c9.529-4.299,15.725-12.039,21.658-20.258c1.854-2.568,4.155-6.174,7.621-6.369c1.92-0.109,4.229,2.115,5.605,3.166
				c2.681,2.043,5.143,4.373,7.557,6.719c8.844,8.592,16.586,17.93,27.012,24.729c9.006,5.871,17.715,5.498,25.396-2.127
				c6.465-6.418,9.467-15.467,15.334-22.332c3.092-3.617,7.057-6.359,11.92-4.703c4.512,1.537,8.432,4.725,12.213,7.516
				c7.684,5.674,15.868,11.693,24.529,15.768c7.105,3.344,18.855,4.744,24.338-2.58c5.705-7.621,9.764-17.496,12.766-26.504
				c1.225-3.67,1.981-7.531,3.654-11.037c-0.229,0.479,0.869-0.129,1.582-0.164c0.989-0.051,2.252,0.447,3.166,0.783
				c7.07,2.607,13.189,7.137,20.662,8.76c8.693,1.887,15.49-3.211,19.512-10.553c2.904-5.303,3.467-11.402,4.881-17.199
				c0.565,0.775,1.061,1.656,1.246,0.234c-0.521,4.018,2.811,6.43,5.918,6.428c3.409,28.129,5.129,56.5-1.338,84.371
				C412.371,386.532,407.062,399.011,400.049,410.479z M492.37,322.579c-1.178,9.418-5.89,14.582-14.298,18.242
				c-7.639,3.324-14.004,6.779-15.497,15.646c-1.208,7.176,1.417,14.371,0.736,21.553c-0.798,8.398-6.438,16.17-12.616,21.553
				c-6.156,5.361-13.795,9.576-21.591,11.971c-4.304,1.322-9.088,0.289-13.39-0.441c-1.025-0.176-2.049-0.332-3.073-0.471
				c2.796-5.062,5.317-10.271,7.536-15.594c11.812-28.322,12.037-60.65,9.336-90.701c-0.726-8.078-1.729-16.129-2.779-24.17
				c-0.569-4.357-5.043-5.693-8.113-4.377c-2.26-2.709-5.324-5.018-7.74-7.332c-2.616-2.506-6.984-1.361-8.559,1.686
				c-2.641,5.109-3.275,11.281-4.723,17.01c-0.227-3.447-0.695-6.877-1.149-10.303c-0.424-3.197-1.394-6.994-0.802-10.211
				c0.42-2.279-0.454-4.035-1.863-5.127c1.121-1.291,2.099-2.748,2.893-4.35c4.326-8.725,3.662-19.592,2.021-28.869
				c-2.172-12.27-7.569-23.543-14.675-33.699c-1.754-2.508-3.668-4.875-5.664-7.172c1.222-0.648,2.127-1.877,2.289-3.783
				c1.107-13.055,18.621-18.725,27.971-9.916c13.625,12.836,16.811,31.879,13.232,49.818c-0.877,4.393,4.643,8.758,8.475,5.609
				c11.598-9.529,34.253-10.82,46.586-1.947c6.899,4.965,9.829,15.605,9.701,23.711c-0.162,10.127-9.696,15.766-18.182,18.484
				c-4.545,1.457-4.858,8.084-0.629,10.119C484.57,287.589,494.716,303.817,492.37,322.579z"/>
		</g>
	</g>
	<g>
		<g>
			<path d="M251.322,105.144c-3.377,6.939-21.715,20.855-24.588,7.023c-1.42-6.836-12.411-6.096-10.969,0.848
				c2.459,11.846,10.656,18.008,22.674,15.174c9.086-2.145,18.656-9.764,22.738-18.15
				C264.285,103.651,254.424,98.772,251.322,105.144z"/>
		</g>
	</g>
	<g>
		<g>
			<path d="M309.203,113.882c-0.028,0.027-0.057,0.053-0.086,0.078c-0.582,0.529-0.989,1.09-1.261,1.66
				c-2.112,2.551-5.225,5.617-7.383,5.986c-7.063,1.207-14.048-4.283-13.739-11.439c0.307-7.066-10.668-6.16-10.969,0.848
				c-0.498,11.502,9.665,20.213,20.453,21.543c8.812,1.086,16.289-4.473,21.248-11.412
				C321.631,115.319,314.443,109.118,309.203,113.882z"/>
		</g>
	</g>
	<g>
		<g>
			<path d="M284.881,152.458c-5.863-4.312-12.836-6.453-20.038-7.158c-3.446-0.338-6.6-0.072-9.935,0.85
				c-3.651,1.01-6.776,3.307-10.477,4.25c-1.814,0.463-2.887,1.527-3.367,2.811c-2.087,1.119-3.346,3.383-2.006,6.199
				c4.857,10.215,6.359,22.244,13.632,31.258c2.78,3.445,7.146,2.959,9.487-0.629c7.159-10.967,16.826-20.014,24-31
				C287.423,157.13,286.68,153.782,284.881,152.458z M257.656,177.769c-2.725-5.732-4.264-12.1-6.541-18.045
				c3.797-1.6,7.38-3.887,11.629-3.627c3.467,0.213,7.249,0.906,10.621,2.297C268.445,165.091,262.783,171.22,257.656,177.769z"/>
		</g>
	</g>
</g>
</svg>
