<?xml version="1.0" encoding="utf-8"?>
<!-- Generator: Adobe Illustrator 16.0.3, SVG Export Plug-In . SVG Version: 6.00 Build 0)  -->
<!DOCTYPE svg PUBLIC "-//W3C//DTD SVG 1.1//EN" "http://www.w3.org/Graphics/SVG/1.1/DTD/svg11.dtd">
<svg version="1.1" id="Layer_1" xmlns="http://www.w3.org/2000/svg" xmlns:xlink="http://www.w3.org/1999/xlink" x="0px" y="0px"
	 width="512px" height="512px" viewBox="0 0 512 512" style="enable-background:new 0 0 512 512;" xml:space="preserve">
<style type="text/css">
<![CDATA[
	.st0{fill:#127274;}
	.st1{fill:#14B6B9;}
	.st2{fill:#1E4384;}
	.st3{fill:#EF4754;}
	.st4{fill:#EF4823;}
	.st5{fill:#BCBCBC;}
	.st6{fill:#F6851F;}
	.st7{fill:#C56528;}
	.st8{fill:#FCBF95;}
	.st9{fill:#FEBF10;}
	.st10{fill:none;}
	.st11{fill:#010101;}
	.st12{fill:#3AB37C;}
	.st13{fill:#D6E5E5;}
	.st14{fill:#71C598;}
	.st15{fill:#74CCCF;}
]]>
</style>
<g>
	<g>
		<g>
			<path class="st13" d="M368.927,181.456c-0.556-0.527-1.128-1.035-1.733-1.504c-2.041-1.584-4.186-2.998-6.386-4.348
				c-6.421-3.936-13.04-7.545-19.692-11.074c-7.623-4.049-15.729-7.689-23.367-11.951c-0.882,13.477-3.074,26.932-5.191,40.213
				c-1.768,11.078-3.694,22.406-7.688,32.953c4.144-1.68,8.254-3.436,12.316-5.293c12.166-5.559,24.004-11.893,35.131-19.334
				c6.971-4.664,15.332-9.227,17.957-16.939C369.566,183.47,369.076,182.554,368.927,181.456z"/>
		</g>
	</g>
	<g>
		<g>
			<path class="st1" d="M391.805,215.663c-0.314-1.031-0.625-2.066-0.945-3.096c-0.155-0.504-0.322-1.008-0.48-1.51
				c-1.611,4.316-5.621,8.211-9.008,10.988c-13.318,10.916-29.743,18.232-44.69,26.609c-23.897,13.393-48.74,25.836-76.104,30.035
				c-29.03,4.459-58.937,0.105-87.902-2.92c-14.129-1.475-33.547-3.195-42.729-15.135c-0.489,4.311-0.903,8.629-1.259,12.953
				c2.642-0.006,5.32,1.588,5.697,4.951c0.827,7.369,11.498,11.094,17.385,13.119c8.536,2.936,17.309,4.318,26.254,5.252
				c28.163,2.934,56.52,3.295,84.15-3.734c26.057-6.627,50.739-17.674,74.223-30.637c10.836-5.982,22.653-11.732,32.453-19.338
				c4.117-3.193,7.816-6.822,11.203-10.785c1.927-2.252,3.801-4.549,5.625-6.887c0.32-0.408,2.242-2.619,2.986-3.469
				C387.93,219.345,388.9,216.325,391.805,215.663z"/>
		</g>
	</g>
	<g>
		<g>
			<path class="st2" d="M306.693,147.536c-19.084,9.736-41.246,16.141-62.891,18.529c10.119,11.195,19.922,22.67,29.586,34.26
				c6.199,7.434,12.201,17.23,20.415,23.039c4.44-10.871,6.238-22.756,8.041-34.293c2.146-13.738,4.528-27.703,5.058-41.643
				C306.832,147.464,306.762,147.501,306.693,147.536z"/>
		</g>
	</g>
	<g>
		<g>
			<path class="st2" d="M156.133,151.011c-6.293,14.885-11.033,30.379-14.594,45.336c-1.132,4.758-2.211,9.531-3.242,14.318
				c0.061,0.012,0.117,0.031,0.177,0.045c11.872-15.146,22.642-31.133,32.04-47.932c0.317-0.568,0.748-1.053,1.242-1.471
				C165.619,159.079,159.959,155.858,156.133,151.011z"/>
		</g>
	</g>
	<g>
		<g>
			<path class="st14" d="M381.617,185.897c-0.025,0.088-0.045,0.178-0.073,0.266c-3.948,12.215-14.155,18.516-24.409,25.15
				c-12.041,7.795-24.741,14.59-37.856,20.4c-13.442,5.953-27.267,11.047-41.362,15.23c-13.709,4.07-27.898,8.09-42.068,10.184
				c-33.463,4.943-82.545,1.824-100.629-31.248c-1.133,6.018-2.152,12.061-3.068,18.117c1.797,0.188,3.396,1.307,3.965,3.686
				c0.262,1.082,0.52,2.18,0.963,3.209c3.531,8.178,14.067,10.609,21.977,11.951c10.485,1.773,21.205,2.627,31.781,3.689
				c30.159,3.027,60.717,5.463,89.996-4.117c13.091-4.283,25.619-10.02,37.752-16.512c6.5-3.48,12.93-7.09,19.334-10.744
				c3.776-2.154,6.99-3.906,9.709-5.311c7.174-3.707,14.301-7.625,20.965-12.197c3.271-2.244,6.672-4.564,9.33-7.545
				c0.781-0.877,1.414-1.559,1.871-2.512c-2.8-4.725,2.572-9.467,6.834-7.973C385.047,195.036,383.383,190.456,381.617,185.897z"/>
		</g>
	</g>
	<g>
		<g>
			<path class="st2" d="M329.268,112.546c-2.395-2.893-1.016-5.953,1.497-7.449c-3.261-3.07-6.651-6.018-10.21-8.797
				c-18.072-14.109-40.311-24.494-63.399-26.166c-20.124-1.459-39.599,4.975-55.435,17.34c-16.99,13.266-29.917,31.201-39.76,50.885
				c0.389,0.602,0.687,1.301,0.85,2.107c2.143,10.664,21.146,13.045,29.468,14.164c13.151,1.768,26.505,1.865,39.743,1.172
				c20.492-1.076,41.799-5.996,60.676-14.021c9.094-3.865,19.775-8.623,26.951-15.551c2.566-2.48,5.018-5.156,7.057-8.092
				c0.95-1.369,1.863-2.873,2.454-4.439C329.814,111.96,329.713,113.085,329.268,112.546z"/>
		</g>
	</g>
	<g>
		<g>
			<path class="st2" d="M186.887,165.099c-1.941-0.33-3.945-0.715-5.97-1.166c3.897,15.875,10.197,30.963,14.998,46.562
				c2.798,9.094,4.464,19.021,8.153,27.941c8.626-23.973,14.125-49.307,27.051-71.412
				C216.414,167.72,201.394,167.567,186.887,165.099z"/>
		</g>
	</g>
	<g>
		<g>
			<path class="st2" d="M408.477,290.966c-1.472-12.428-3.705-24.836-6.471-37.141c-3.002,8.449-8.352,16.256-14.088,22.834
				c-2.089,2.393-4.26,4.611-6.521,6.686c0.151,0.275,0.294,0.566,0.41,0.887c2.854,7.791,10.378,15.689,18.626,17.771
				c3.055,0.771,6.141,1.396,9.225,2.037C409.387,299.653,408.988,295.288,408.477,290.966z"/>
		</g>
	</g>
	<g>
		<g>
			<path class="st13" d="M185.939,216.026c-3.785-12.299-8.461-24.311-12.264-36.594c-8.666,14.252-18.277,27.945-28.664,40.988
				c7.74,13.836,23.022,21.238,38.457,24.51c4.027,0.854,8.109,1.508,12.223,1.986C190.998,237.222,189.104,226.313,185.939,216.026
				z"/>
		</g>
	</g>
	<g>
		<g>
			<path class="st13" d="M266.135,208.942c-9.232-10.73-18.244-21.627-27.647-32.203c-11.819,22.336-17.086,47.533-26.061,71.105
				c9.299-0.043,18.594-0.998,27.618-2.85c15.9-3.262,31.697-7.428,47.113-12.668C278.79,226.136,272.812,216.704,266.135,208.942z"
				/>
		</g>
	</g>
	<g>
		<g>
			<path class="st2" d="M340.416,115.022c-1.098,5.285-5.166,10.66-8.172,14.121c-3.82,4.4-8.273,8.041-13.064,11.225
				c0.699,0.387,1.396,0.777,2.102,1.156c2.998,1.607,6.014,3.18,9.031,4.748c7.514,3.904,15.041,7.787,22.467,11.859
				c6.689,3.666,13.419,7.391,19.635,11.83c0.615,0.439,1.271,0.92,1.934,1.43c0.366-0.123,0.745-0.219,1.133-0.273
				C366.426,150.796,355.064,131.458,340.416,115.022z"/>
		</g>
	</g>
	<g>
		<g>
			<path class="st13" d="M405.25,314.538c-3.816-0.799-8.406-1.332-11.908-3.152c-9.006-4.684-16.737-11.566-20.965-20.801
				c-4.237,2.982-8.74,5.646-13.529,8.131c-6.898,3.578-13.96,6.75-21.143,9.6c8.875,11.506-2.143,33.201-11.438,41.65
				c-17.75,16.137-46.313-3.58-45.656-24.879c0.004-0.162,0.021-0.318,0.037-0.475c-16.281,3.268-32.514,5.674-48.883,7.104
				c-0.004,0.033-0.002,0.064-0.006,0.1c-1.734,16.541-14.164,30.467-31.628,28.668c-14.738-1.518-28.421-11.703-29.146-27.049
				c-15.064-0.346-29.887-2.262-42.895-9.896c0.279,4.613,0.662,9.219,1.125,13.814c14.591-0.109,23.367,11.707,22.119,25.951
				c-0.502,5.711-2.005,11.955-5.732,16.428c14.426,11.307,32.886,15.807,51.295,16.939c5.575,0.344,11.182,0.428,16.797,0.303
				c1.145-18.664,12.926-32.762,31.682-36.725c9.153-1.934,19.195-0.738,27.17,4.332c7.752,4.928,12.588,12.771,15.857,21.176
				c0.102,0.264,0.178,0.52,0.242,0.773c18.688-4.037,37.184-9.07,54.891-16.232c-3.972-11.59,3.664-24.135,13.449-30.352
				c11.203-7.117,25.422-7.586,35.42,1.836c0.504,0.475,0.889,0.982,1.172,1.508c6.252-4.318,12.287-9.666,14.027-16.652
				c0.39-1.566,1.25-2.67,2.324-3.367c0.1-2.574,0.137-5.152,0.125-7.732C408.454,315.2,406.852,314.872,405.25,314.538z"/>
		</g>
	</g>
	<g>
		<g>
			<path class="st14" d="M396.148,230.544c-1.57,2.078-3.365,4.023-4.908,5.902c-3.621,4.408-7.428,8.592-11.719,12.359
				c-10.338,9.078-23.305,15.5-35.296,22.117c-26.329,14.533-54.104,27.598-83.636,34.045c-15.286,3.336-30.76,5.258-46.422,5.197
				c-15.713-0.061-32.352-0.52-47.838-3.377c-11.933-2.201-30.191-6.131-38.641-16.74c-0.001,0.045-0.005,0.09-0.006,0.133
				c-0.236,6.523-0.283,13.031-0.154,19.521c0.309,0.17,0.611,0.367,0.91,0.607c10.162,8.186,22.697,11.258,35.553,11.744
				c12.959,0.49,26.014,0.176,38.98,0.027c26.33-0.297,52.131-3.486,77.906-8.812c24.02-4.965,48.397-11.713,70.266-23.055
				c10.233-5.307,19.728-11.006,27.367-19.766c6.041-6.926,11.684-14.83,13.953-23.809c-1.939-2.908-1.203-7.572,2.633-8.58
				c0.79-0.785,1.748-1.18,2.744-1.262C397.291,234.708,396.725,232.624,396.148,230.544z"/>
		</g>
	</g>
	<g>
		<g>
			<path class="st2" d="M247.707,371.079c-13.08,3.17-21.904,11.982-22.863,25.377c13.412-0.916,26.803-2.857,39.885-5.223
				c4.289-0.775,8.582-1.584,12.873-2.428C272.551,376.452,261.852,367.649,247.707,371.079z"/>
		</g>
	</g>
	<g>
		<g>
			<path class="st2" d="M363.232,349.204c-5.254,3.68-10.797,9.895-9.334,16.6c10.391-4.816,20.432-10.443,30.177-16.455
				C378.017,344.429,369.736,344.649,363.232,349.204z"/>
		</g>
	</g>
	<g>
		<g>
			<path class="st1" d="M383.779,362.442c-12.305,7.082-24.686,13.752-37.938,18.928c-27.729,10.834-57.443,17.682-86.846,22.141
				c-29.413,4.461-65.417,8.688-95.179-1.311c7.765,5.586,15.927,10.604,24.574,14.809c22.378,10.881,47.271,16.998,72.067,18.654
				c50.689,3.387,110.896-11.5,136.482-59.84c4.937-9.328,8.244-19.252,10.309-29.471
				C400.273,352.788,391.975,357.726,383.779,362.442z"/>
		</g>
	</g>
	<g>
		<g>
			<path class="st2" d="M197.951,333.259c-5.174,0.016-10.432,0.145-15.709,0.207c1.268,9.715,10.101,15.441,20.02,16.055
				c10.423,0.645,16.297-7.83,18.103-16.967C212.936,332.993,205.469,333.235,197.951,333.259z"/>
		</g>
	</g>
	<g>
		<g>
			<path class="st2" d="M326.336,313.417c-0.365-0.166-0.688-0.354-0.984-0.559c-11.086,3.771-22.412,6.854-33.863,9.447
				c0.184,0.561,0.281,1.199,0.26,1.922c-0.236,7.713,3.928,14.932,11.082,18.195c5.4,2.463,12.627,3.104,16.93-1.67
				C324.027,336.019,336.135,317.812,326.336,313.417z"/>
		</g>
	</g>
	<g>
		<g>
			<path class="st2" d="M130.53,348.515c0.989,7.363,2.212,14.703,3.687,22.014c1.109,0.029,2.252,0.52,3.283,1.635
				c2.059-2.504,2.854-7.902,2.836-10.75C140.294,354.548,137.596,348.864,130.53,348.515z"/>
		</g>
	</g>
	<g>
		<g>
			<path d="M421.04,309.673c-0.107-3.445-0.288-6.877-0.536-10.277c-1.994-27.514-8.846-54.812-16.36-81.285
				c-12.481-43.967-31.755-88.131-65.015-120.422c-31.292-30.383-79.879-49.717-122.227-32.039
				c-38.843,16.217-62.168,56.924-76.057,94.611c-12.312,33.406-18.922,69.324-22.5,104.652c-3.752,37.016-2,73.705,5.453,109.967
				c-1.689,2.113-2.137,5.342,0.314,7.781l0.234,0.229c0.232,1.309,0.869,2.521,1.956,3.291c0.095,0.414,0.187,0.826,0.286,1.238
				c0.805,3.318,3.6,4.217,6.133,3.506c16.896,15.65,35.505,29.363,56.629,38.863c26.48,11.906,55.926,17.242,84.842,17.459
				c51.281,0.387,105.697-18.553,132.064-65.197c11.787-20.854,15.249-45.271,14.859-69.088
				C421.365,311.896,421.361,310.753,421.04,309.673z M408.477,290.966c0.512,4.322,0.91,8.688,1.182,13.074
				c-3.084-0.641-6.17-1.266-9.225-2.037c-8.248-2.082-15.771-9.98-18.626-17.771c-0.116-0.32-0.259-0.611-0.41-0.887
				c2.261-2.074,4.432-4.293,6.521-6.686c5.736-6.578,11.086-14.385,14.088-22.834C404.771,266.13,407.005,278.538,408.477,290.966z
				 M340.416,115.022c14.648,16.436,26.01,35.773,35.064,56.096c-0.388,0.055-0.767,0.15-1.133,0.273
				c-0.662-0.51-1.318-0.99-1.934-1.43c-6.216-4.439-12.945-8.164-19.635-11.83c-7.426-4.072-14.953-7.955-22.467-11.859
				c-3.018-1.568-6.033-3.141-9.031-4.748c-0.705-0.379-1.402-0.77-2.102-1.156c4.791-3.184,9.244-6.824,13.064-11.225
				C335.25,125.683,339.318,120.308,340.416,115.022z M180.917,163.933c2.024,0.451,4.028,0.836,5.97,1.166
				c14.507,2.469,29.527,2.621,44.232,1.926c-12.926,22.105-18.425,47.439-27.051,71.412c-3.689-8.92-5.355-18.848-8.153-27.941
				C191.114,194.896,184.814,179.808,180.917,163.933z M195.691,246.917c-4.113-0.479-8.195-1.133-12.223-1.986
				c-15.435-3.271-30.717-10.674-38.457-24.51c10.387-13.043,19.998-26.736,28.664-40.988c3.803,12.283,8.479,24.295,12.264,36.594
				C189.104,226.313,190.998,237.222,195.691,246.917z M238.487,176.739c9.403,10.576,18.415,21.473,27.647,32.203
				c6.678,7.762,12.655,17.193,21.023,23.385c-15.416,5.24-31.213,9.406-47.113,12.668c-9.024,1.852-18.319,2.807-27.618,2.85
				C221.401,224.272,226.668,199.075,238.487,176.739z M273.389,200.325c-9.664-11.59-19.467-23.064-29.586-34.26
				c21.645-2.389,43.807-8.793,62.891-18.529c0.068-0.035,0.139-0.072,0.209-0.107c-0.529,13.939-2.912,27.904-5.058,41.643
				c-1.803,11.537-3.601,23.422-8.041,34.293C285.59,217.556,279.588,207.759,273.389,200.325z M312.557,192.792
				c2.117-13.281,4.31-26.736,5.191-40.213c7.639,4.262,15.744,7.902,23.367,11.951c6.652,3.529,13.271,7.139,19.692,11.074
				c2.2,1.35,4.345,2.764,6.386,4.348c0.605,0.469,1.178,0.977,1.733,1.504c0.149,1.098,0.64,2.014,1.347,2.723
				c-2.625,7.713-10.986,12.275-17.957,16.939c-11.127,7.441-22.965,13.775-35.131,19.334c-4.062,1.857-8.173,3.613-12.316,5.293
				C308.862,215.198,310.789,203.87,312.557,192.792z M201.721,87.474c15.836-12.365,35.311-18.799,55.435-17.34
				c23.089,1.672,45.327,12.057,63.399,26.166c3.559,2.779,6.949,5.727,10.21,8.797c-2.513,1.496-3.892,4.557-1.497,7.449
				c0.445,0.539,0.547-0.586-0.108,1.152c-0.591,1.566-1.504,3.07-2.454,4.439c-2.039,2.936-4.49,5.611-7.057,8.092
				c-7.176,6.928-17.857,11.686-26.951,15.551c-18.877,8.025-40.184,12.945-60.676,14.021c-13.238,0.693-26.592,0.596-39.743-1.172
				c-8.322-1.119-27.325-3.5-29.468-14.164c-0.163-0.807-0.461-1.506-0.85-2.107C171.804,118.675,184.73,100.739,201.721,87.474z
				 M141.539,196.347c3.561-14.957,8.301-30.451,14.594-45.336c3.826,4.848,9.486,8.068,15.623,10.297
				c-0.494,0.418-0.925,0.902-1.242,1.471c-9.398,16.799-20.168,32.785-32.04,47.932c-0.06-0.014-0.116-0.033-0.177-0.045
				C139.328,205.878,140.407,201.104,141.539,196.347z M135.219,225.88c18.084,33.072,67.166,36.191,100.629,31.248
				c14.17-2.094,28.359-6.113,42.068-10.184c14.096-4.184,27.92-9.277,41.362-15.23c13.115-5.811,25.815-12.605,37.856-20.4
				c10.254-6.635,20.461-12.936,24.409-25.15c0.028-0.088,0.048-0.178,0.073-0.266c1.766,4.559,3.43,9.139,5.01,13.725
				c-4.262-1.494-9.634,3.248-6.834,7.973c-0.457,0.953-1.09,1.635-1.871,2.512c-2.658,2.98-6.059,5.301-9.33,7.545
				c-6.664,4.572-13.791,8.49-20.965,12.197c-2.719,1.404-5.933,3.156-9.709,5.311c-6.404,3.654-12.834,7.264-19.334,10.744
				c-12.133,6.492-24.661,12.229-37.752,16.512c-29.279,9.58-59.837,7.145-89.996,4.117c-10.576-1.062-21.296-1.916-31.781-3.689
				c-7.909-1.342-18.445-3.773-21.977-11.951c-0.443-1.029-0.701-2.127-0.963-3.209c-0.569-2.379-2.168-3.498-3.965-3.686
				C133.066,237.94,134.086,231.897,135.219,225.88z M129.944,260.636c9.183,11.939,28.601,13.66,42.729,15.135
				c28.966,3.025,58.872,7.379,87.902,2.92c27.364-4.199,52.207-16.643,76.104-30.035c14.947-8.377,31.372-15.693,44.69-26.609
				c3.387-2.777,7.396-6.672,9.008-10.988c0.158,0.502,0.325,1.006,0.48,1.51c0.32,1.029,0.631,2.064,0.945,3.096
				c-2.904,0.662-3.875,3.682-3.143,6.398c-0.744,0.85-2.666,3.061-2.986,3.469c-1.824,2.338-3.698,4.635-5.625,6.887
				c-3.387,3.963-7.086,7.592-11.203,10.785c-9.8,7.605-21.617,13.355-32.453,19.338c-23.483,12.963-48.166,24.01-74.223,30.637
				c-27.631,7.029-55.987,6.668-84.15,3.734c-8.945-0.934-17.718-2.316-26.254-5.252c-5.887-2.025-16.558-5.75-17.385-13.119
				c-0.377-3.363-3.056-4.957-5.697-4.951C129.041,269.265,129.455,264.946,129.944,260.636z M127.684,290.181
				c0.001-0.043,0.005-0.088,0.006-0.133c8.449,10.609,26.708,14.539,38.641,16.74c15.486,2.857,32.125,3.316,47.838,3.377
				c15.662,0.061,31.136-1.861,46.422-5.197c29.531-6.447,57.307-19.512,83.636-34.045c11.991-6.617,24.958-13.039,35.296-22.117
				c4.291-3.768,8.098-7.951,11.719-12.359c1.543-1.879,3.338-3.824,4.908-5.902c0.576,2.08,1.143,4.164,1.693,6.254
				c-0.996,0.082-1.954,0.477-2.744,1.262c-3.836,1.008-4.572,5.672-2.633,8.58c-2.27,8.979-7.912,16.883-13.953,23.809
				c-7.64,8.76-17.134,14.459-27.367,19.766c-21.868,11.342-46.246,18.09-70.266,23.055c-25.775,5.326-51.576,8.516-77.906,8.812
				c-12.967,0.148-26.021,0.463-38.98-0.027c-12.855-0.486-25.391-3.559-35.553-11.744c-0.299-0.24-0.602-0.438-0.91-0.607
				C127.4,303.212,127.447,296.704,127.684,290.181z M319.76,340.753c-4.303,4.773-11.529,4.133-16.93,1.67
				c-7.154-3.264-11.318-10.482-11.082-18.195c0.021-0.723-0.076-1.361-0.26-1.922c11.451-2.594,22.777-5.676,33.863-9.447
				c0.296,0.205,0.619,0.393,0.984,0.559C336.135,317.812,324.027,336.019,319.76,340.753z M220.364,332.554
				c-1.806,9.137-7.68,17.611-18.103,16.967c-9.919-0.613-18.752-6.34-20.02-16.055c5.277-0.062,10.535-0.191,15.709-0.207
				C205.469,333.235,212.936,332.993,220.364,332.554z M137.5,372.163c-1.031-1.115-2.174-1.605-3.283-1.635
				c-1.475-7.311-2.697-14.65-3.687-22.014c7.065,0.35,9.764,6.033,9.806,12.898C140.354,364.261,139.559,369.659,137.5,372.163z
				 M396.941,375.823c-25.586,48.34-85.793,63.227-136.482,59.84c-24.797-1.656-49.689-7.773-72.067-18.654
				c-8.647-4.205-16.81-9.223-24.574-14.809c29.762,9.998,65.766,5.771,95.179,1.311c29.402-4.459,59.116-11.307,86.846-22.141
				c13.252-5.176,25.633-11.846,37.938-18.928c8.195-4.717,16.494-9.654,23.471-16.09
				C405.186,356.571,401.878,366.495,396.941,375.823z M224.844,396.456c0.959-13.395,9.783-22.207,22.863-25.377
				c14.145-3.43,24.844,5.373,29.895,17.727c-4.291,0.844-8.584,1.652-12.873,2.428C251.646,393.599,238.256,395.54,224.844,396.456
				z M363.232,349.204c6.504-4.555,14.784-4.775,20.843,0.145c-9.745,6.012-19.786,11.639-30.177,16.455
				C352.436,359.099,357.979,352.884,363.232,349.204z M409.93,323.271c-1.074,0.697-1.935,1.801-2.324,3.367
				c-1.74,6.986-7.775,12.334-14.027,16.652c-0.283-0.525-0.668-1.033-1.172-1.508c-9.998-9.422-24.217-8.953-35.42-1.836
				c-9.785,6.217-17.421,18.762-13.449,30.352c-17.707,7.162-36.203,12.195-54.891,16.232c-0.064-0.254-0.141-0.51-0.242-0.773
				c-3.27-8.404-8.105-16.248-15.857-21.176c-7.975-5.07-18.017-6.266-27.17-4.332c-18.756,3.963-30.537,18.061-31.682,36.725
				c-5.615,0.125-11.222,0.041-16.797-0.303c-18.409-1.133-36.869-5.633-51.295-16.939c3.728-4.473,5.23-10.717,5.732-16.428
				c1.248-14.244-7.528-26.061-22.119-25.951c-0.463-4.596-0.846-9.201-1.125-13.814c13.008,7.635,27.83,9.551,42.895,9.896
				c0.725,15.346,14.407,25.531,29.146,27.049c17.464,1.799,29.894-12.127,31.628-28.668c0.004-0.035,0.002-0.066,0.006-0.1
				c16.369-1.43,32.602-3.836,48.883-7.104c-0.016,0.156-0.033,0.312-0.037,0.475c-0.657,21.299,27.906,41.016,45.656,24.879
				c9.295-8.449,20.312-30.145,11.438-41.65c7.183-2.85,14.244-6.021,21.143-9.6c4.789-2.484,9.292-5.148,13.529-8.131
				c4.228,9.234,11.959,16.117,20.965,20.801c3.502,1.82,8.092,2.354,11.908,3.152c1.602,0.334,3.204,0.662,4.805,1
				C410.066,318.118,410.029,320.696,409.93,323.271z"/>
		</g>
	</g>
</g>
</svg>
