<?xml version="1.0" encoding="utf-8"?>
<!-- Generator: Adobe Illustrator 16.0.3, SVG Export Plug-In . SVG Version: 6.00 Build 0)  -->
<!DOCTYPE svg PUBLIC "-//W3C//DTD SVG 1.1//EN" "http://www.w3.org/Graphics/SVG/1.1/DTD/svg11.dtd">
<svg version="1.1" id="Layer_1" xmlns="http://www.w3.org/2000/svg" xmlns:xlink="http://www.w3.org/1999/xlink" x="0px" y="0px"
	 width="512px" height="512px" viewBox="0 0 512 512" style="enable-background:new 0 0 512 512;" xml:space="preserve">
<style type="text/css">
<![CDATA[
	.st0{fill:#127274;}
	.st1{fill:#14B6B9;}
	.st2{fill:#1E4384;}
	.st3{fill:#EF4754;}
	.st4{fill:#EF4823;}
	.st5{fill:#BCBCBC;}
	.st6{fill:#F6851F;}
	.st7{fill:#C56528;}
	.st8{fill:#FCBF95;}
	.st9{fill:#FEBF10;}
	.st10{fill:none;}
	.st11{fill:#010101;}
	.st12{fill:#3AB37C;}
	.st13{fill:#D6E5E5;}
	.st14{fill:#71C598;}
	.st15{fill:#74CCCF;}
]]>
</style>
<g>
	<g>
		<g>
			<path class="st9" d="M269.587,151.341c-1.306-0.702-10.591-2.276-10.445-0.297c0.165,2.239-0.914,3.801-2.422,4.627
				c0.368,6.886,0.995,13.786,1.74,20.64c0.549-0.159,1.109-0.306,1.69-0.375c0.317-0.037,0.615-0.042,0.905-0.03
				c6.526-1.489,13.531-4.025,14.001-11.172C275.347,160.317,273.899,153.659,269.587,151.341z"/>
		</g>
	</g>
	<g>
		<g>
			<path class="st9" d="M356.921,278.583c-1.418-11.985-10.221-21.08-20.961-25.558c1.665,11.446,3.548,22.938,4.538,34.418
				c0.524,6.084,0.553,12.488,1.323,18.708C350.229,298.805,358.281,290.074,356.921,278.583z"/>
		</g>
	</g>
	<g>
		<g>
			<path class="st9" d="M124.452,279.054c-0.739-4.614-3.52-11.49-8.733-12.56c-4.666-0.958-9.4,0.652-13.61,2.71
				c0.045,7.935,0.188,15.869,0.351,23.803c4.18-0.55,8.951-0.482,13.58,0.317C121.368,290.271,125.381,284.849,124.452,279.054z"/>
		</g>
	</g>
	<g>
		<g>
			<path class="st9" d="M117.734,303.896c-4.741,2.206-9.973,3.068-15.012,1.978c0.114,5.875,0.212,11.751,0.257,17.628
				c10.181,0.175,23.589-0.357,23.527-9.642C126.471,308.562,122.641,305.456,117.734,303.896z"/>
		</g>
	</g>
	<g>
		<g>
			<path class="st9" d="M205.545,260.918c-1.88-1.007-3.734-1.743-5.894-1.564c-1.127,0.094-2.237,0.186-3.284,0.658
				c-0.008,0.004-0.01,0.005-0.018,0.008c0.023,1.067-0.238,1.973-0.697,2.707c0.346,7.096,0.983,14.177,1.345,21.27
				c2.027,0.32,4.066,0.981,5.893,1.876c5.204-1.492,9.595-4.431,10.1-10.205C213.478,270.085,210.661,263.657,205.545,260.918z"/>
		</g>
	</g>
	<g>
		<g>
			<path class="st9" d="M313.873,146.148c-5.019-1.816-12.138-1.187-16.042,2.7c0.215,6.958,1.945,13.828,3.003,20.748
				c3.535-0.472,8.379-2.07,11.041-3.002c3.644-1.277,8.682-1.663,9.109-6.178C321.532,154.618,319.862,148.314,313.873,146.148z"/>
		</g>
	</g>
	<g>
		<g>
			<path class="st9" d="M482.773,253.373c3.971-3.815,14.347-10.793,11.375-17.358c-2.69-5.946-9.891-10.089-15.076-13.572
				c-13.156-8.835-28.752-20.009-24.453-38.124c1.405-5.92,3.958-11.461,5.511-17.332c1.86-7.033,3.895-14.017,6.088-20.953
				c3.426-10.836,7.433-21.542,10.04-32.622c1.287-5.472,5.013-18.777-2.46-21.592c-5.584-2.104-11.831-0.712-17.522,0.304
				c-6.458,1.153-12.908,0.823-19.455,0.917c-11.953,0.173-23.729,1.046-35.594,2.376c-9.496,1.065-19.542,1.975-28.836-0.803
				c-10.56-3.156-16.212-11.085-19.104-21.388c-3.025-10.777-4.186-21.855-5.002-32.97c-12.622,4.394-24.986,9.514-37.109,15.137
				c-13.315,6.176-26.963,12.449-39.48,20.148c-10.335,6.357-21.593,13.203-33.502,6.509c-9.467-5.321-14.63-14.561-21.86-22.144
				c-11.488,5.985-20.216,16.183-30.074,24.356c-4.431,3.673-9.543,6.424-15.425,4.606c-6.756-2.086-13.539-3.965-20.348-5.89
				c-15.761-4.457-32.113-7.449-48.288-10.007c-14.512-2.295-29.087-3.883-43.76-4.297c0.728,1.598,1.588,3.151,2.387,4.714
				c1.708,3.343,3.06,6.817,4.149,10.41c2.095,6.911,3.336,13.879,4.505,20.986c1.613,9.819-1.394,24.278,6.978,31.532
				c3.282,2.843,1.719,7.082-1.196,8.725c-0.116,0.925-0.501,1.868-1.244,2.761c-3.297,3.964-9.752,3.735-15.216,3.973
				c1.797,4.762,5.56,8.782,8.533,12.883c3.915,5.401,7.259,11.374,7.027,18.245c-0.084,2.493-1.132,4.558-3.58,5.482
				c-14.455,5.459-29.993,3.793-45.146,4.667c1.827,5.102,5.614,9.602,8.754,13.878c3.488,4.749,6.83,9.116,10.939,13.363
				c7.051,7.287,18.178,16.704,17.696,27.917c-0.694,16.143-21.426,18.187-32.121,25.106c-2.089,1.352-4.197,2.971-4.407,5.063
				c-0.343,3.419,3.677,8.891,5.332,11.683c6.193,10.448,12.648,20.862,21.448,29.353c7.672,7.403,17.783,15.404,14.563,27.479
				c-2.945,11.045-12.06,19.338-19.909,27.167c-6.672,6.653-13.314,13.447-18.947,21.023c-3.299,4.436-8.082,10.819-9.021,17.043
				c18.755-6.993,37.806-13.238,57.175-18.297c11.148-2.911,22.386-5.514,33.714-7.628c10.048-1.876,20.558-4.202,30.809-4.313
				c5.441-0.059,11.658,0.169,15.682,4.384c3.914,4.101,4.722,10.102,5.414,15.494c2.486,19.387,4.052,38.876,6.257,58.288
				c0.436,3.835,0.735,8.731,2.885,12.078c1.884,2.932,4.577,1.599,7.455,0.26c5.331-2.479,10.066-6.112,14.847-9.488
				c5.221-3.688,10.951-6.621,16.23-10.251c24.638-16.945,46.625-37.259,71.01-54.475c7.486-5.284,13.358-13.453,22.097-16.824
				c5.404-2.085,10.965,2.328,14.232,6.077c4.068,4.668,8.073,9.308,12.356,13.797c17.902,18.756,36.633,36.691,54.872,55.114
				c-3.583-24.562-9.241-49.473-5.684-74.13c0.76-5.265,2.111-11.648,6.061-15.546c6.153-6.07,13.755-4.074,21.015-0.847
				c5.929,2.635,11.703,5.472,18.016,7.105c6.811,1.762,13.743,1.995,20.592,3.344c12.769,2.514,25.666,4.301,38.472,6.604
				c-0.179-11.54-0.783-23.085-2.217-34.539c-1.653-13.205-5.215-25.37-8.903-38.099c-3.18-10.976-6.494-23.662-3.547-35.067
				C471.096,266.323,476.279,259.612,482.773,253.373z M342.308,142.728c0.244,6.289,5.44,12.543,9.22,17.189
				c2.977,3.66,6.305,7.619,10.076,10.719c2.53-8.131,3.793-16.377,3.833-25.278c0.03-6.519,10.167-7.333,10.138-0.783
				c-0.046,10.044-0.976,19.763-4.139,29.341c-1.559,4.72-3.581,9.314-5.64,13.833c-3.005,6.594-9.451,24.464-19.361,22.271
				c-6.005-1.329-4.667-10.223,0.833-10.112c0.171-0.213,0.964-1.146,1.172-1.421c1.304-1.726,2.401-3.588,3.432-5.488
				c2.211-4.082,4.193-8.283,6.045-12.539c-5.97-4.328-11.087-10.006-15.557-15.793c-4.613-5.972-9.884-13.314-10.189-21.157
				C331.917,136.965,342.053,136.179,342.308,142.728z M287.895,143.073c0.2-3.341,2.91-4.438,5.457-3.853
				c6.701-4.67,16.707-5.193,24.018-2.549c8.653,3.13,13.987,11.721,13.849,20.841c-0.063,4.152-0.276,9.227-3.436,12.388
				c-2.767,2.768-6.233,4.13-9.891,5.353c-3.959,1.323-7.881,2.517-11.973,3.385c-1.283,0.272-2.755,0.648-4.261,0.92
				c0.075,10.201,0.816,20.436,3.04,30.406c0.395,0.897,0.604,1.907,0.646,2.992c0.212,5.523-8.464,7.885-9.866,2.072
				c-0.003-0.013-0.005-0.025-0.009-0.038c-1.246-1.232-1.476-2.948-0.994-4.516c-2.049-10.207-2.781-20.471-2.965-30.926
				C291.294,167.235,287.153,155.447,287.895,143.073z M255.418,141.659c3.201-1.406,7.113-1.86,10.579-1.706
				c8.613,0.383,15.907,7.133,18.026,15.384c2.064,8.041,1.67,17.081-4.794,23.043c-5.343,4.928-12.665,6.616-19.595,8.108
				c0.369,3.069,0.73,6.138,1.092,9.208c0.338,2.861,0.26,6.25,1.09,9.007c0.426,1.413,0.714,2.872,0.978,4.326
				c0.612,0.729,0.988,1.724,0.969,3.003c-0.013,0.854,0.095,1.824-0.171,2.639c-1.431,4.385-6.166,5.416-9.202,1.872
				c-1.854-2.164-1.137-5.931-2.168-8.479c-1.184-2.929-1.066-6.786-1.434-9.907c-0.396-3.351-0.784-6.702-1.188-10.051
				c-1.702-14.113-3.276-28.523-3.367-42.748C246.198,140.052,252.89,138.526,255.418,141.659z M197.788,184.509
				c0.84-5.314,1.638-10.644,2.779-15.888c2.535-11.646,7.141-25.093,19.483-29.376c2.464-0.854,5.764,0.434,6.478,3.117
				c3.543,13.307,6.272,26.792,8.942,40.29c4.589,0.214,7.862,6.532,2.964,9.036c-0.355,0.181-0.713,0.352-1.074,0.514
				c1.539,7.739,3.117,15.47,4.877,23.162l-0.001,0c0.109,0.404,0.206,0.825,0.273,1.289c0.82,5.667-8.581,7.692-9.866,2.072
				c-0.085-0.375-0.167-0.75-0.252-1.125c0.141,1.292-0.788-1.046-1.012-1.409c-1.033-1.671-0.993-3.353-0.344-4.739
				c-1.207-5.61-2.341-11.236-3.46-16.866c-6.944,0.607-14.338-0.472-21.224-0.93c-1.418,8.253-2.566,16.553-2.653,24.845
				c-0.068,6.514-10.206,7.331-10.138,0.782c0.1-9.563,1.5-18.984,3.168-28.383c0.052-0.295,0.101-0.59,0.151-0.885
				C196.155,188.104,196.422,185.852,197.788,184.509z M142.625,184.577c0.383-13.059,0.111-26.155,0.111-39.219
				c0-6.523,10.138-7.333,10.138-0.783c0,10.523,0.207,21.076,0.058,31.605c7.736,0.522,16.041,1.542,23.368-0.273
				c0.086-10.21,0.602-20.445,0.627-30.549c0.018-6.521,10.154-7.333,10.138-0.783c-0.056,21.718-2.812,44.53,2.364,65.884
				c0.479,0.53,0.853,1.23,1.061,2.131c0.103,0.534,0.24,1.059,0.411,1.575c0.658,2.193,0.008,4.585-1.955,5.895
				c-0.137,0.091-0.274,0.182-0.411,0.273c-2.618,1.745-6.706,0.65-7.639-2.533c-3.028-10.323-4.172-20.907-4.499-31.574
				c-7.705,1.3-15.907,0.38-23.736-0.007c-0.344,8.104-0.838,16.467,0.81,24.393c0.763,0.747,1.252,1.83,1.252,3.269v1.848
				c0,5.513-8.073,7.863-9.866,2.072C141.509,206.993,142.298,195.724,142.625,184.577z M136.644,313.078
				c-1.148,19.791-20.239,19.72-35.78,20.198c-1.821,1.287-4.399,1.425-6.131,0.281c-0.031,0.002-0.063,0.003-0.094,0.006
				c-3.502,0.254-5.739-2.787-5.38-6.039c0.288-2.611,1.599-4.576,3.565-6.046c-0.189-18.478-0.851-36.949-0.873-55.43
				c-0.004-2.919,2.026-4.691,4.269-5.174c7.459-3.751,16.274-6.795,24.418-3.406c7.94,3.305,13.955,13.258,14.035,21.801
				c0.062,6.547-2.924,12.889-7.53,17.789C133.024,300.325,137.082,305.526,136.644,313.078z M186.587,328.907
				c-2.741,6.208-12.633,7.12-18.387,7.863c-7.22,0.933-14.533,1.39-21.814,1.412c-6.525,0.019-7.334-10.118-0.782-10.138
				c2.758-0.008,5.522-0.084,8.284-0.22c0.261-20.452,2.414-41.585-2.747-61.556c-2.961,0.345-5.852,0.724-8.451,0.76
				c-6.533,0.092-7.335-10.045-0.782-10.138c9.861-0.138,21.113-3.233,30.375,1.44c5.843,2.949,1.341,12.065-4.523,9.106
				c-1.92-0.969-4.061-1.447-6.31-1.638c4.59,20.043,2.801,40.786,2.574,61.238c3.219-0.333,6.501-0.68,9.627-1.512
				c1.226-0.326,2.48-0.654,3.639-1.184c0.115-0.053,0.195-0.08,0.261-0.095C180.277,318.468,189.208,322.967,186.587,328.907z
				 M223.034,326.768c-3.646-2.692-6.898-5.754-9.868-9.177c-2.89-3.331-6.585-7.283-8.208-11.442
				c-1.126-2.889-2.065-6.959-4.209-9.457c-1.169,0.202-2.347,0.364-3.529,0.487c-0.152,9.654-0.579,19.501,2.547,28.71
				c2.11,6.218-7.488,9.565-9.595,3.361c-3.639-10.72-3.04-21.818-3.041-32.943c-1.29-1.091-1.959-2.821-1.771-4.821
				c0.174-1.853,0.726-3.318,1.546-4.456c-0.473-10.386-1.561-20.742-1.626-31.146c-0.025-4.127,4.017-5.964,7.004-5.103
				c3.423-1.644,7.712-2.075,11.307-1.338c9.245,1.898,16.54,9.667,18.895,18.672c2.245,8.58-0.555,18.446-8.136,23.462
				c-1.212,0.802-2.475,1.498-3.772,2.109c1.787,3.52,2.882,7.374,5.166,10.667c3.939,5.682,8.424,10.661,13.999,14.778
				C235.015,323.023,228.277,330.641,223.034,326.768z M266.515,262.409c-5.189,0.793-10.377,0.375-15.563-0.468
				c0.654,22.754,4.763,45.271,5.378,68.028c0.046,0.286,0.078,0.584,0.078,0.906v3.696c0,6.517-10.105,7.342-10.138,0.783
				c-0.124-25.25-5.105-50.168-5.507-75.4c-5.282-1.087-10.559-2.085-15.831-2.165c-6.509-0.099-7.329-10.236-0.783-10.138
				c7.365,0.111,14.562,1.479,21.781,2.821c6.457,1.199,13.219,2.806,19.803,1.799C272.229,251.279,272.945,261.426,266.515,262.409
				z M308.454,327.402c-3.211-11.188-2.122-22.44-2.526-33.762c-3.116-0.122-6.232-0.259-9.352-0.271
				c-3.203-0.013-7.824-0.438-11.5,0.312c2.149,10.212,4.48,20.434,4.599,30.724c0.075,6.531-10.062,7.335-10.138,0.782
				c-0.124-10.793-2.501-21.416-4.663-32.025c-0.848-1.223-1.215-2.734-0.821-4.12c-2.459-12.644-4.157-25.295-0.905-38.217
				c1.593-6.33,11.58-4.424,9.978,1.939c-2.628,10.442-1.784,20.81,0.031,31.167c3.392-0.628,6.95-0.686,10.274-0.699
				c3.902-0.017,7.797,0.149,11.694,0.288c-0.711-7.941-0.637-15.985-0.638-23.941c0-6.523,10.137-7.333,10.138-0.782
				c0.001,8.6-0.166,17.354,0.821,25.91c0.014,0.116,0.021,0.231,0.034,0.348c2.134,2,2.385,5.692,0.46,7.585
				c0.222,10.522-0.834,21.144,2.11,31.4C319.853,330.327,310.263,333.704,308.454,327.402z M344.347,317.19
				c0.162,0.437,0.321,0.875,0.5,1.306c2.387,5.752-6.105,9.021-9.136,4.236c-3.306-0.572-5.604-5.551-2.878-8.843
				c-1.687-7.959-1.672-16.374-2.361-24.375c-1.132-13.149-3.349-26.296-5.175-39.389c-5.452-1.64-3.379-10.66,2.785-9.787
				c18.35,2.599,36.537,16.851,38.813,36.086C369.037,294.521,356.82,306.398,344.347,317.19z M408.879,320.71
				c0,4.648-6.555,8.027-9.282,3.233c-4.86-8.543-7.597-17.284-9.737-26.419h-13.378c-2.559,6.918-5.204,13.806-7.417,20.851
				c-1.942,6.18-11.941,4.309-9.978-1.939c4.054-12.903,10.08-25.281,13.354-38.417c3.059-12.269,1.628-25.172,5.126-37.356
				c1.623-5.652,9.026-5.114,10.058,0.579c2.46,13.584,6.362,26.841,9.177,40.35c0.557,2.675,1.086,5.327,1.632,7.957
				c0.905,1.288,1.239,2.951,0.952,4.428c1.589,7.101,3.516,14.012,6.758,20.688c1.555,0.587,2.735,1.964,2.735,4.199V320.71z
				 M420.566,317.988c-4.01,5.187-11.635-1.54-7.637-6.71c7.351-9.507,12.28-20.722,15.291-32.473
				c-3.934-2.942-6.914-8.138-10.232-11.171c-7.077-6.469-15.743-11.345-21.163-19.464c-3.642-5.455,4.784-11.142,8.427-5.684
				c4.654,6.972,12.375,11.046,18.455,16.604c2.349,2.146,4.4,4.52,6.495,6.909c0.152,0.174,0.309,0.347,0.461,0.521
				c0.872-6.023,1.311-12.081,1.345-18.028c0.039-6.518,10.176-7.332,10.138-0.782C442.001,272.465,435.923,298.125,420.566,317.988
				z"/>
		</g>
	</g>
	<g>
		<g>
			<path class="st9" d="M387.337,285.659c-0.963-4.805-2.074-9.576-3.22-14.338c-0.368,2.912-0.884,5.798-1.699,8.637
				c-0.717,2.499-1.514,4.969-2.34,7.429h7.606C387.569,286.812,387.454,286.237,387.337,285.659z"/>
		</g>
	</g>
	<g>
		<g>
			<path class="st9" d="M218.507,151.877c-5.818,5.558-7.609,16.006-8.825,23.202c-0.48,2.841-1,5.693-1.524,8.553
				c3.343,0.215,6.684,0.484,10.031,0.599c2.118,0.073,4.776,0.334,7.396,0.325C223.415,173.621,221.189,162.698,218.507,151.877z"
				/>
		</g>
	</g>
	<g>
		<g>
			<path class="st11" d="M190.9,214.166c-0.17-0.516-0.308-1.041-0.411-1.575c-0.208-0.901-0.583-1.602-1.061-2.131
				c-5.175-21.354-2.419-44.167-2.364-65.884c0.017-6.55-10.12-5.738-10.138,0.783c-0.025,10.104-0.541,20.338-0.627,30.549
				c-7.327,1.816-15.631,0.796-23.368,0.273c0.148-10.529-0.058-21.082-0.058-31.605c0-6.551-10.138-5.74-10.138,0.783
				c0,13.064,0.271,26.161-0.111,39.219c-0.327,11.146-1.116,22.416,2.231,33.224c1.793,5.791,9.866,3.441,9.866-2.072v-1.848
				c0-1.439-0.49-2.522-1.252-3.269c-1.648-7.926-1.154-16.289-0.81-24.393c7.83,0.387,16.031,1.307,23.736,0.007
				c0.327,10.667,1.471,21.251,4.499,31.574c0.933,3.183,5.021,4.278,7.639,2.533c0.137-0.091,0.274-0.182,0.411-0.273
				C190.908,218.751,191.558,216.358,190.9,214.166z"/>
		</g>
	</g>
	<g>
		<g>
			<path class="st11" d="M242.509,216.653c-0.067-0.464-0.164-0.885-0.273-1.289l0.001,0c-1.76-7.692-3.338-15.423-4.877-23.162
				c0.361-0.162,0.719-0.333,1.074-0.514c4.898-2.504,1.625-8.822-2.964-9.036c-2.67-13.498-5.399-26.982-8.942-40.29
				c-0.714-2.683-4.014-3.971-6.478-3.117c-12.342,4.284-16.948,17.731-19.483,29.376c-1.142,5.244-1.939,10.574-2.779,15.888
				c-1.366,1.342-1.632,3.594-0.908,5.506c-0.051,0.295-0.099,0.59-0.151,0.885c-1.669,9.399-3.068,18.819-3.168,28.383
				c-0.068,6.549,10.07,5.731,10.138-0.782c0.087-8.292,1.235-16.592,2.653-24.845c6.885,0.458,14.279,1.537,21.224,0.93
				c1.119,5.629,2.253,11.255,3.46,16.866c-0.649,1.386-0.689,3.068,0.344,4.739c0.225,0.363,1.153,2.701,1.012,1.409
				c0.084,0.375,0.167,0.75,0.252,1.125C233.928,224.345,243.329,222.319,242.509,216.653z M218.189,184.231
				c-3.347-0.115-6.688-0.383-10.031-0.599c0.525-2.86,1.044-5.712,1.524-8.553c1.216-7.196,3.007-17.644,8.825-23.202
				c2.682,10.821,4.908,21.743,7.078,32.678C222.965,184.565,220.307,184.304,218.189,184.231z"/>
		</g>
	</g>
	<g>
		<g>
			<path class="st11" d="M284.023,155.337c-2.119-8.25-9.413-15-18.026-15.384c-3.466-0.154-7.378,0.3-10.579,1.706
				c-2.528-3.133-9.22-1.607-9.186,3.699c0.091,14.225,1.665,28.635,3.367,42.748c0.404,3.349,0.792,6.7,1.188,10.051
				c0.368,3.121,0.25,6.978,1.434,9.907c1.031,2.549,0.314,6.316,2.168,8.479c3.037,3.544,7.771,2.513,9.202-1.872
				c0.266-0.815,0.158-1.785,0.171-2.639c0.019-1.28-0.356-2.274-0.969-3.003c-0.263-1.455-0.552-2.913-0.978-4.326
				c-0.831-2.756-0.752-6.146-1.09-9.007c-0.362-3.069-0.724-6.139-1.092-9.208c6.931-1.492,14.252-3.181,19.595-8.108
				C285.693,172.417,286.087,163.378,284.023,155.337z M275.056,164.734c-0.47,7.147-7.475,9.684-14.001,11.172
				c-0.29-0.012-0.588-0.007-0.905,0.03c-0.582,0.068-1.141,0.215-1.69,0.375c-0.745-6.854-1.372-13.754-1.74-20.64
				c1.509-0.826,2.587-2.388,2.422-4.627c-0.146-1.979,9.139-0.405,10.445,0.297C273.899,153.659,275.347,160.317,275.056,164.734z"
				/>
		</g>
	</g>
	<g>
		<g>
			<path class="st11" d="M317.37,136.671c-7.312-2.645-17.317-2.121-24.018,2.549c-2.547-0.585-5.257,0.512-5.457,3.853
				c-0.742,12.374,3.399,24.162,3.617,36.475c0.185,10.455,0.917,20.719,2.965,30.926c-0.482,1.568-0.252,3.284,0.994,4.516
				c0.003,0.013,0.005,0.025,0.009,0.038c1.402,5.813,10.078,3.452,9.866-2.072c-0.042-1.085-0.252-2.095-0.646-2.992
				c-2.224-9.97-2.965-20.205-3.04-30.406c1.506-0.271,2.979-0.647,4.261-0.92c4.092-0.868,8.014-2.062,11.973-3.385
				c3.658-1.223,7.124-2.585,9.891-5.353c3.16-3.161,3.373-8.236,3.436-12.388C331.357,148.392,326.023,139.801,317.37,136.671z
				 M320.984,160.415c-0.427,4.515-5.465,4.901-9.109,6.178c-2.662,0.933-7.506,2.53-11.041,3.002
				c-1.058-6.919-2.788-13.79-3.003-20.748c3.903-3.887,11.023-4.516,16.042-2.7C319.862,148.314,321.532,154.618,320.984,160.415z"
				/>
		</g>
	</g>
	<g>
		<g>
			<path class="st11" d="M365.437,145.358c-0.041,8.901-1.303,17.147-3.833,25.278c-3.771-3.1-7.099-7.059-10.076-10.719
				c-3.779-4.646-8.976-10.9-9.22-17.189c-0.255-6.549-10.392-5.763-10.138,0.782c0.305,7.842,5.576,15.185,10.189,21.157
				c4.47,5.787,9.587,11.465,15.557,15.793c-1.852,4.256-3.834,8.457-6.045,12.539c-1.03,1.9-2.128,3.762-3.432,5.488
				c-0.208,0.275-1.001,1.208-1.172,1.421c-5.5-0.11-6.838,8.783-0.833,10.112c9.91,2.194,16.356-15.676,19.361-22.271
				c2.059-4.519,4.081-9.113,5.64-13.833c3.163-9.578,4.093-19.297,4.139-29.341C375.604,138.025,365.467,138.839,365.437,145.358z"
				/>
		</g>
	</g>
	<g>
		<g>
			<path class="st11" d="M127.143,297.058c4.606-4.9,7.591-11.242,7.53-17.789c-0.08-8.543-6.095-18.496-14.035-21.801
				c-8.144-3.389-16.958-0.345-24.418,3.406c-2.243,0.483-4.273,2.254-4.269,5.174c0.022,18.48,0.684,36.952,0.873,55.43
				c-1.967,1.471-3.278,3.436-3.565,6.046c-0.359,3.252,1.877,6.292,5.38,6.039c0.031-0.002,0.063-0.004,0.094-0.006
				c1.732,1.144,4.311,1.006,6.131-0.281c15.542-0.479,34.632-0.408,35.78-20.198C137.082,305.526,133.024,300.325,127.143,297.058z
				 M102.109,269.204c4.21-2.058,8.944-3.668,13.61-2.71c5.213,1.07,7.994,7.946,8.733,12.56c0.929,5.794-3.084,11.216-8.412,14.27
				c-4.629-0.799-9.4-0.867-13.58-0.317C102.297,285.073,102.155,277.139,102.109,269.204z M102.979,323.502
				c-0.044-5.877-0.143-11.753-0.257-17.628c5.039,1.09,10.271,0.228,15.012-1.978c4.907,1.56,8.736,4.667,8.772,9.964
				C126.568,323.145,113.16,323.678,102.979,323.502z"/>
		</g>
	</g>
	<g>
		<g>
			<path class="st11" d="M177.55,324.247c-0.065,0.015-0.146,0.042-0.261,0.095c-1.158,0.53-2.413,0.858-3.639,1.184
				c-3.126,0.832-6.408,1.179-9.627,1.512c0.227-20.452,2.016-41.195-2.574-61.238c2.249,0.191,4.39,0.669,6.31,1.638
				c5.864,2.959,10.366-6.158,4.523-9.106c-9.262-4.673-20.513-1.578-30.375-1.44c-6.553,0.092-5.751,10.229,0.782,10.138
				c2.6-0.036,5.49-0.415,8.451-0.76c5.16,19.971,3.008,41.104,2.747,61.556c-2.762,0.135-5.526,0.212-8.284,0.22
				c-6.552,0.02-5.743,10.157,0.782,10.138c7.281-0.022,14.594-0.479,21.814-1.412c5.753-0.744,15.646-1.655,18.387-7.863
				C189.208,322.967,180.277,318.468,177.55,324.247z"/>
		</g>
	</g>
	<g>
		<g>
			<path class="st11" d="M229.744,319.131c-5.575-4.117-10.06-9.097-13.999-14.778c-2.284-3.293-3.379-7.147-5.166-10.667
				c1.297-0.611,2.56-1.308,3.772-2.109c7.581-5.016,10.38-14.882,8.136-23.462c-2.354-9.005-9.649-16.774-18.895-18.672
				c-3.595-0.737-7.884-0.306-11.307,1.338c-2.987-0.861-7.029,0.976-7.004,5.103c0.066,10.405,1.153,20.76,1.626,31.146
				c-0.82,1.137-1.372,2.603-1.546,4.456c-0.188,2,0.481,3.73,1.771,4.821c0.001,11.125-0.599,22.224,3.041,32.943
				c2.106,6.204,11.705,2.856,9.595-3.361c-3.126-9.209-2.7-19.057-2.547-28.71c1.182-0.123,2.36-0.285,3.529-0.487
				c2.144,2.498,3.083,6.568,4.209,9.457c1.623,4.159,5.318,8.111,8.208,11.442c2.97,3.423,6.222,6.485,9.868,9.177
				C228.277,330.641,235.015,323.023,229.744,319.131z M202.891,285.873c-1.827-0.896-3.866-1.557-5.893-1.876
				c-0.361-7.093-0.999-14.174-1.345-21.27c0.459-0.733,0.72-1.64,0.697-2.707c0.007-0.003,0.01-0.004,0.018-0.008
				c1.046-0.473,2.156-0.564,3.284-0.658c2.159-0.179,4.014,0.558,5.894,1.564c5.116,2.739,7.933,9.167,7.445,14.75
				C212.486,281.442,208.094,284.381,202.891,285.873z"/>
		</g>
	</g>
	<g>
		<g>
			<path class="st11" d="M265.733,252.271c-6.583,1.007-13.346-0.6-19.803-1.799c-7.218-1.341-14.416-2.71-21.781-2.821
				c-6.546-0.099-5.727,10.039,0.783,10.138c5.272,0.079,10.549,1.077,15.831,2.165c0.402,25.231,5.383,50.149,5.507,75.4
				c0.033,6.56,10.138,5.734,10.138-0.783v-3.696c0-0.321-0.031-0.62-0.078-0.906c-0.615-22.757-4.724-45.273-5.378-68.028
				c5.186,0.844,10.374,1.261,15.563,0.468C272.945,261.426,272.229,251.279,265.733,252.271z"/>
		</g>
	</g>
	<g>
		<g>
			<path class="st11" d="M318.049,324.041c-2.944-10.256-1.888-20.877-2.11-31.4c1.925-1.893,1.674-5.586-0.46-7.585
				c-0.013-0.117-0.02-0.232-0.034-0.348c-0.987-8.555-0.82-17.31-0.821-25.91c-0.001-6.551-10.138-5.741-10.138,0.782
				c0.001,7.956-0.073,16,0.638,23.941c-3.896-0.138-7.792-0.304-11.694-0.288c-3.324,0.014-6.882,0.071-10.274,0.699
				c-1.814-10.357-2.659-20.725-0.031-31.167c1.602-6.364-8.385-8.27-9.978-1.939c-3.252,12.922-1.555,25.573,0.905,38.217
				c-0.394,1.386-0.026,2.897,0.821,4.12c2.161,10.609,4.539,21.232,4.663,32.025c0.075,6.553,10.212,5.749,10.138-0.782
				c-0.118-10.29-2.45-20.512-4.599-30.724c3.676-0.75,8.298-0.325,11.5-0.312c3.119,0.012,6.235,0.148,9.352,0.271
				c0.405,11.321-0.685,22.574,2.526,33.762C310.263,333.704,319.853,330.327,318.049,324.041z"/>
		</g>
	</g>
	<g>
		<g>
			<path class="st11" d="M366.896,276.425c-2.276-19.235-20.464-33.488-38.813-36.086c-6.164-0.873-8.237,8.147-2.785,9.787
				c1.826,13.093,4.042,26.24,5.175,39.389c0.689,8.001,0.675,16.416,2.361,24.375c-2.726,3.292-0.428,8.271,2.878,8.843
				c3.03,4.784,11.523,1.516,9.136-4.236c-0.179-0.431-0.338-0.869-0.5-1.306C356.82,306.398,369.037,294.521,366.896,276.425z
				 M341.821,306.152c-0.771-6.22-0.799-12.624-1.323-18.708c-0.989-11.481-2.873-22.972-4.538-34.418
				c10.74,4.478,19.543,13.573,20.961,25.558C358.281,290.074,350.229,298.805,341.821,306.152z"/>
		</g>
	</g>
	<g>
		<g>
			<path class="st11" d="M406.144,314.663c-3.242-6.677-5.168-13.588-6.758-20.688c0.287-1.478-0.046-3.141-0.952-4.428
				c-0.546-2.629-1.075-5.281-1.632-7.957c-2.815-13.508-6.717-26.766-9.177-40.35c-1.032-5.692-8.435-6.231-10.058-0.579
				c-3.499,12.184-2.068,25.087-5.126,37.356c-3.275,13.137-9.301,25.514-13.354,38.417c-1.963,6.248,8.036,8.12,9.978,1.939
				c2.213-7.045,4.858-13.932,7.417-20.851h13.378c2.14,9.136,4.877,17.876,9.737,26.419c2.728,4.794,9.282,1.415,9.282-3.233
				v-1.848C408.879,316.627,407.699,315.25,406.144,314.663z M380.079,287.386c0.826-2.46,1.623-4.93,2.34-7.429
				c0.815-2.838,1.331-5.725,1.699-8.637c1.146,4.763,2.256,9.533,3.22,14.338c0.116,0.578,0.232,1.152,0.348,1.727H380.079z"/>
		</g>
	</g>
	<g>
		<g>
			<path class="st11" d="M432.008,248.491c-0.035,5.947-0.474,12.005-1.345,18.028c-0.153-0.174-0.309-0.347-0.461-0.521
				c-2.095-2.389-4.146-4.763-6.495-6.909c-6.08-5.558-13.801-9.632-18.455-16.604c-3.643-5.458-12.068,0.229-8.427,5.684
				c5.42,8.119,14.086,12.995,21.163,19.464c3.318,3.033,6.298,8.229,10.232,11.171c-3.011,11.751-7.94,22.966-15.291,32.473
				c-3.998,5.171,3.627,11.897,7.637,6.71c15.357-19.863,21.435-45.523,21.58-70.279
				C442.184,241.159,432.046,241.973,432.008,248.491z"/>
		</g>
	</g>
	<g>
		<g>
			<path class="st11" d="M474.692,206.288c-3.72-3.05-7.515-6.604-9.333-11.146c-1.733-4.328-0.234-9.179,1.091-13.394
				c1.902-6.044,3.976-11.909,5.662-18.035c2.076-7.545,4.427-15.013,6.837-22.457c4.756-14.685,13.749-33.979,8.396-49.581
				c-2.732-7.964-11.059-11.562-18.965-11.637c-5.267-0.05-10.4,0.933-15.566,1.842c-6.021,1.059-12.538,0.388-18.647,0.476
				c-10.149,0.147-20.256,0.746-30.334,1.947c-8.33,0.993-16.868,2.142-25.217,0.784c-9.788-1.592-13.109-8.006-15.621-16.955
				c-3.227-11.5-3.687-23.753-4.473-35.606c-0.234-3.527-3.869-5.716-7.132-4.656c-26.94,8.75-52.585,21.011-77.58,34.237
				c-4.877,2.581-9.521,5.479-14.28,8.26c-4.628,2.706-10.142,5.412-15.294,2.679c-10.038-5.323-15.089-16.107-23.256-23.636
				c-1.321-1.219-3.63-1.777-5.321-1.034c-12.347,5.417-22.273,14.907-32.083,23.917c-2.229,2.047-4.407,4.102-6.923,5.799
				c-1.929,1.302-4.168,0.137-6.118-0.582c-7.344-2.707-15.222-4.279-22.757-6.427c-15.269-4.354-31.495-6.811-47.171-9.224
				c-16.406-2.526-32.985-3.947-49.588-4.006c-2.95-0.011-5.125,3.03-4.943,5.77c0.528,7.949,5.71,14.715,8.242,22.112
				c2.567,7.498,4.054,15.395,4.91,23.261c1.156,10.636,0.118,22.416,6.391,31.259c-0.152,0.04-0.315,0.077-0.499,0.106
				c-1.831,0.283-3.688,0.417-5.531,0.581c-3.023,0.266-5.985,0.539-8.956,1.177c-2.377,0.511-3.659,3.3-3.58,5.483
				c0.252,6.946,3.715,12.797,7.745,18.245c3.201,4.328,7.058,8.543,8.383,13.704c-14.277,3.987-29.776,1.619-44.385,3.294
				c-2.978,0.341-5.077,2.761-4.943,5.77c0.512,11.508,9.393,21.975,16.148,30.703c6.508,8.408,15.326,14.864,20.925,24.003
				c3.664,5.979-0.865,9.062-6.043,11.801c-6.509,3.441-13.659,5.435-19.98,9.294c-6.651,4.06-10.18,10.35-8.406,18.09
				c1.095,4.777,3.998,9.377,6.433,13.567c2.805,4.826,5.76,9.614,8.887,14.236c3.578,5.29,7.694,10.195,12.066,14.842
				c4.213,4.477,9.431,8.204,12.828,13.389c5.72,8.732-10.458,22.059-15.7,27.292c-7.944,7.933-15.792,15.983-22.279,25.184
				c-6.066,8.603-12.109,19.622-8.497,30.388c0.911,2.714,4.138,4.331,6.845,3.293c28.423-10.89,57.566-20.13,87.385-26.352
				c7.185-1.499,14.416-2.774,21.669-3.892c6.222-0.958,12.712-2.226,19.039-1.846c2.8,0.168,4.186,0.458,5.246,2.254
				c1.779,3.014,1.692,8.113,2.096,11.509c1.802,15.152,3.716,30.376,5.031,45.576c0.73,8.445,0.796,17.837,5.03,25.434
				c5.062,9.083,14.565,8.128,22.762,3.981c4.92-2.49,9.413-5.653,13.893-8.848c5.536-3.948,11.577-7.132,17.214-10.952
				c17.471-11.837,33.78-25.136,50.19-38.372c7.282-5.873,14.745-11.471,22.198-17.112c5.659-4.282,10.427-9.624,16.347-13.586
				c2.323-1.555,3.913,1.162,5.38,2.943c2.792,3.388,5.666,6.625,8.667,9.833c7.592,8.112,15.398,16.023,23.252,23.881
				c15.409,15.415,31.077,30.571,46.202,46.269c3.404,3.533,9.203-0.048,8.902-4.448c-0.794-11.598-3.302-23.167-4.885-34.675
				c-2.131-15.491-4.076-31.282-3.34-46.945c0.235-5.001,0.973-10.341,3.108-14.316c0.572-1.065,1.143-1.484,1.902-1.76
				c-0.503,0.198,0.657,0.034,1.037,0.087c1.226,0.169,2.428,0.579,3.583,1.002c2.743,1.004,5.38,2.325,8.028,3.551
				c5.457,2.527,11.169,4.48,16.99,5.985c6.81,1.763,13.848,1.914,20.711,3.266c14.327,2.821,28.829,4.644,43.156,7.465
				c3.62,0.713,6.388-2.239,6.381-5.685c-0.032-15.754-0.849-31.469-3.03-47.081c-2.01-14.379-6.943-27.756-10.53-41.749
				c-3.13-12.211-3.52-24.452,5.038-34.399c6.254-7.27,16.688-13.372,19.207-23.163
				C509.519,224.743,485.486,215.137,474.692,206.288z M482.773,253.373c-6.494,6.239-11.677,12.951-13.964,21.8
				c-2.947,11.405,0.367,24.092,3.547,35.067c3.688,12.729,7.25,24.894,8.903,38.099c1.434,11.453,2.038,22.999,2.217,34.539
				c-12.807-2.304-25.703-4.091-38.472-6.604c-6.849-1.349-13.781-1.582-20.592-3.344c-6.313-1.633-12.087-4.471-18.016-7.105
				c-7.26-3.227-14.862-5.224-21.015,0.847c-3.95,3.897-5.301,10.281-6.061,15.546c-3.557,24.657,2.101,49.568,5.684,74.13
				c-18.239-18.423-36.97-36.358-54.872-55.114c-4.284-4.489-8.288-9.129-12.356-13.797c-3.268-3.749-8.828-8.163-14.232-6.077
				c-8.739,3.371-14.611,11.54-22.097,16.824c-24.385,17.215-46.372,37.53-71.01,54.475c-5.28,3.631-11.01,6.564-16.23,10.251
				c-4.781,3.376-9.516,7.009-14.847,9.488c-2.878,1.338-5.571,2.671-7.455-0.26c-2.15-3.347-2.449-8.243-2.885-12.078
				c-2.205-19.412-3.771-38.901-6.257-58.288c-0.692-5.392-1.5-11.393-5.414-15.494c-4.024-4.215-10.241-4.443-15.682-4.384
				c-10.25,0.111-20.761,2.437-30.809,4.313c-11.328,2.115-22.566,4.717-33.714,7.628c-19.369,5.059-38.42,11.304-57.175,18.297
				c0.939-6.224,5.722-12.607,9.021-17.043c5.633-7.576,12.275-14.37,18.947-21.023c7.849-7.829,16.963-16.122,19.909-27.167
				c3.22-12.076-6.891-20.077-14.563-27.479c-8.8-8.491-15.255-18.905-21.448-29.353c-1.655-2.792-5.675-8.264-5.332-11.683
				c0.21-2.093,2.318-3.712,4.407-5.063c10.695-6.919,31.427-8.963,32.121-25.106c0.482-11.213-10.645-20.63-17.696-27.917
				c-4.109-4.247-7.451-8.615-10.939-13.363c-3.141-4.277-6.928-8.776-8.754-13.878c15.152-0.875,30.69,0.792,45.146-4.667
				c2.448-0.924,3.496-2.989,3.58-5.482c0.231-6.871-3.112-12.844-7.027-18.245c-2.974-4.102-6.736-8.122-8.533-12.883
				c5.464-0.237,11.919-0.009,15.216-3.973c0.743-0.894,1.128-1.836,1.244-2.761c2.915-1.644,4.478-5.882,1.196-8.725
				c-8.372-7.254-5.364-21.713-6.978-31.532c-1.169-7.107-2.411-14.075-4.505-20.986c-1.089-3.593-2.442-7.066-4.149-10.41
				c-0.799-1.563-1.659-3.117-2.387-4.714c14.673,0.414,29.248,2.002,43.76,4.297c16.174,2.559,32.527,5.551,48.288,10.007
				c6.809,1.925,13.592,3.804,20.348,5.89c5.882,1.817,10.995-0.934,15.425-4.606c9.858-8.173,18.586-18.371,30.074-24.356
				c7.23,7.583,12.393,16.822,21.86,22.144c11.909,6.693,23.167-0.152,33.502-6.509c12.517-7.699,26.165-13.973,39.48-20.148
				c12.123-5.623,24.487-10.743,37.109-15.137c0.816,11.115,1.977,22.192,5.002,32.97c2.892,10.303,8.544,18.232,19.104,21.388
				c9.295,2.778,19.34,1.868,28.836,0.803c11.865-1.331,23.642-2.203,35.594-2.376c6.547-0.094,12.997,0.236,19.455-0.917
				c5.691-1.016,11.938-2.408,17.522-0.304c7.473,2.815,3.747,16.121,2.46,21.592c-2.607,11.079-6.614,21.785-10.04,32.622
				c-2.193,6.936-4.229,13.92-6.088,20.953c-1.553,5.87-4.106,11.412-5.511,17.332c-4.3,18.115,11.297,29.289,24.453,38.124
				c5.185,3.482,12.386,7.625,15.076,13.572C497.12,242.58,486.744,249.557,482.773,253.373z"/>
		</g>
	</g>
</g>
</svg>
