<?xml version="1.0" encoding="utf-8"?>
<!-- Generator: Adobe Illustrator 16.0.3, SVG Export Plug-In . SVG Version: 6.00 Build 0)  -->
<!DOCTYPE svg PUBLIC "-//W3C//DTD SVG 1.1//EN" "http://www.w3.org/Graphics/SVG/1.1/DTD/svg11.dtd">
<svg version="1.1" id="Layer_1" xmlns="http://www.w3.org/2000/svg" xmlns:xlink="http://www.w3.org/1999/xlink" x="0px" y="0px"
	 width="512px" height="512px" viewBox="0 0 512 512" style="enable-background:new 0 0 512 512;" xml:space="preserve">
<style type="text/css">
<![CDATA[
	.st0{fill:#127274;}
	.st1{fill:#14B6B9;}
	.st2{fill:#1E4384;}
	.st3{fill:#EF4754;}
	.st4{fill:#EF4823;}
	.st5{fill:#BCBCBC;}
	.st6{fill:#F6851F;}
	.st7{fill:#C56528;}
	.st8{fill:#FCBF95;}
	.st9{fill:#FEBF10;}
	.st10{fill:none;}
	.st11{fill:#010101;}
	.st12{fill:#3AB37C;}
	.st13{fill:#D6E5E5;}
	.st14{fill:#71C598;}
	.st15{fill:#74CCCF;}
]]>
</style>
<g>
	<g>
		<g>
			<path class="st9" d="M216.537,214.947c-14.834-22.847-34.678-45.253-59.938-56.706c-17.035-7.724-40.51-10.704-57.928-2.48
				c-15.015,7.089-23.793,29.213-8.06,40.216c13.752,9.617,31.264,8.89,46.857,12.858c23.163,5.894,47.991,16.666,64.529,34.455
				c0.918,0.988,1.346,2.105,1.413,3.208c13.85,2.047,28.715,7.301,32.7,21.742c1.766,0.47,3.205,1.869,3.271,4.283
				c0.111,4.083,1.36,8.43,3.485,12.299C240.832,259.924,229.95,235.607,216.537,214.947z"/>
		</g>
	</g>
	<g>
		<g>
			<path class="st12" d="M145.318,221.463c-7.163-2.296-14.484-3.545-21.809-4.801c-0.34,0.233-0.721,0.44-1.156,0.605
				c-4.912,1.869-10.154,2.988-15.155,4.648c2.811,1.202,5.461,2.74,7.803,4.875c1.899,1.731,2.429,5.123,0.456,7.058
				c-2.591,2.541-5.233,4.935-7.57,7.572c10.11,0.611,20.197,1.762,30.014,2.627c10.277,0.907,20.5,1.523,30.816,1.249
				c6.996-0.187,13.993-0.306,20.983-0.015C177.139,234.198,160.982,226.485,145.318,221.463z"/>
		</g>
	</g>
	<g>
		<g>
			<path class="st1" d="M240.208,82.439c-0.955-16.741,7.153-32.011,9.768-48.142c-7.077,7.856-13.013,16.825-21.484,23.404
				c-2.067,1.606-5.613,0.881-6.941-1.349c-3.549-5.959-17.075-32.373-26.36-21.319c-3.635,4.328-4.4,10.35-6.765,15.354
				c-2.678,5.668-7.123,10.151-13.58,11.009c-7.825,1.039-15.245-1.89-22.643-3.946c-5.082-1.413-18.027-5.521-20.663,1.929
				c-1.892,5.348,5.125,13.246,8.068,16.948c3.992,5.021,8.594,9.643,12.236,14.932c1.541,2.237,0.899,5.438-1.349,6.941
				c-11.16,7.463-25.903,7.655-38.146,12.506c7.665-0.299,15.273,0.002,22.575,2.869c1.873,0.735,3.312,3.477,2.684,5.433
				c-1.514,4.714-4.178,8.844-6.507,12.637c2.126,1.697,4.481,3.051,6.823,4.429c2.563,1.509,3.343,4.379,2.168,6.71
				c20.666,3.718,38.866,15.181,53.999,29.44c14.098,13.283,26.119,28.721,35.825,45.479c-0.404-9.98-1.874-19.938-2.64-29.88
				c-1.146-14.871,0.434-29.803,2.559-44.537c2.086-14.468,4.838-28.928,9.564-42.775c1.566-4.589,3.123-9.167,4.766-13.678
				C242.146,86.52,240.359,85.093,240.208,82.439z"/>
		</g>
	</g>
	<g>
		<g>
			<path class="st9" d="M322.466,37.037c-10.52-5.746-23.031-1.586-32.702,4.107c-10.083,5.935-18.901,13.38-24.964,23.52
				c-6.932,11.594-11.052,24.391-15.361,37.115c-4.579,13.52-7.498,27.537-9.535,41.663c-2.173,15.074-3.876,30.19-2.503,45.407
				c1.283,14.229,3.242,28.339,2.203,42.653c-0.085,1.176-0.486,2.067-1.077,2.704c4.017,8.581,7.505,17.528,10.07,26.708
				c-0.267-12.973-0.481-25.946-0.285-38.92c0.446-29.495,2.063-60.336,12.323-88.28c4.207-11.458,9.769-22.638,17.469-32.178
				c7.119-8.819,16.76-17.962,27.932-21.169c2.285-0.656,4.629-1.136,6.985-1.42C322.365,66.15,337.663,45.336,322.466,37.037z"/>
		</g>
	</g>
	<g>
		<g>
			<path class="st3" d="M381.8,202.928c-3.643-7.962-8.937-12.894-18.042-11.229c-8.357,1.528-16.15,5.8-23.916,9.069
				c-4.796,2.019-8.51-4.374-5.41-8.021c6.089-7.163,13.385-13.284,19.655-20.303c3.647-4.083,7.371-8.319,10.108-13.088
				c1.522-2.652,4.065-6.987,2.918-9.821c-1.332-3.289-7.687-4.343-10.925-4.125c-6.705,0.453-12.903,3.438-18.409,7.156
				c-11.265,7.604-20.992,17.708-28.833,28.784c-3.278,4.631-11.057-0.651-8.236-5.526c3.142-5.427,6.58-10.666,10.092-15.859
				c7.642-11.3,15.892-22.554,21.214-35.198c3.952-9.388,8.07-23.11-0.903-31.168c-3.655-3.282-8.2-4.817-12.879-5.007
				c-0.368,0.569-0.727,1.132-1.065,1.686c-2.339,3.831-7.469,2.803-9.15-0.058c-1.855,0.67-3.641,1.524-5.299,2.546
				c-10.44,6.433-18.604,15.83-24.541,26.504c-13.955,25.092-17.894,54.324-19.29,82.623c-1.561,31.652,0.163,63.323,0.28,94.986
				c15.006,1.352,13.879-27.185,18.302-37.049c4.171-9.303,13.413-14.624,22.688-17.961c11.137-4.007,23.041-5.729,34.818-6.42
				c9.509-0.558,19.025-0.459,28.542-0.569c0.758-0.292,1.637-0.397,2.622-0.241c6.352,1.003,11.014-6.854,13.18-11.701
				C381.843,217.3,384.565,208.973,381.8,202.928z"/>
		</g>
	</g>
	<g>
		<g>
			<path class="st2" d="M475.076,239.042c-0.507,0.02-1.057-0.048-1.646-0.224c-4.605-1.373-9.814-0.776-14.523-0.421
				c-7.024,0.529-14.019,1.356-21.022,2.102c-26.775,2.853-54.026,4.359-80.947,4.397c-21.299,0.03-48.689-0.806-66.251,13.354
				c-6.484,5.227-6.652,15.628-7.98,23.151c-1.402,7.938-3.738,17.344-11.195,21.823c-19.567,11.753-40.551-9.033-42.018-28.549
				c-1.265-0.396-2.34-1.385-2.816-3.115c-3.809-13.836-22.958-15.661-34.871-16.25c-15.511-0.769-30.958,0.484-46.474-0.678
				c-14.56-1.091-29.384-3.136-44.14-3.562c-1.774,1.232-4.389,1.13-6.138-0.077c-6.014,0.031-12.01,0.385-17.963,1.256
				c-17.229,2.521-34.335,10.856-35.94,30.057c-1.549,18.539,7.723,37.668,16.394,53.476c11.681,21.295,23.766,43.207,41.47,60.189
				c8.865,8.504,18.805,15.794,30.006,20.93c10.469,4.8,22.038,7.587,33.294,9.895c22.513,4.616,49.373,7.418,69.285-6.541
				c0.318-0.223,0.637-0.4,0.955-0.54c0.248-8.012,0.866-16.037,2.191-23.923c1.515-9.015,3.447-18.384,8.916-25.923
				c9.439-13.012,26.372-14.763,36.521-1.401c7.528,9.911,8.165,22.239,10.923,33.959c2.245,9.539,5.681,23.432,17.901,22.986
				c0.428-0.016,0.829,0.017,1.206,0.085c0.506-0.082,1.051-0.09,1.633-0.007c11.802,1.685,23.759,3.544,35.719,3.079
				c27.423-1.068,51.74-15.705,72.157-33.134c20.209-17.252,37.971-38.356,50.565-61.808c8.919-16.608,15.3-34.463,17.171-53.302
				C488.884,265.975,488.23,247.215,475.076,239.042z M216.883,362.519c-0.022,2.244-1.26,3.798-2.856,4.597
				c-4.541,8.827-16.954,10.942-25.942,11.253c-10.193,0.352-20.766-0.563-30.617-3.311c-10.136-2.828-19.701-7.41-28.467-13.206
				c-8.607-5.69-17.208-12.967-21.565-22.558c-3.685-8.113-3.602-18.69,1.961-25.997c4.945-6.496,13.249-8.973,21.104-9.433
				c8.426-0.493,16.794,0.641,25.16,1.471c10.087,1.001,20.333,1.67,30.18,4.23c9.589,2.492,21.329,6.728,26.586,15.873
				C219.137,337.11,217.007,349.688,216.883,362.519z M417.795,318.86c-2.125,22.547-24.609,36.171-43.154,44.795
				c-10.29,4.785-20.807,9.96-32.467,9.453c-10.796-0.47-19.265-6.318-26.064-14.169c-0.85-0.131-1.712-0.528-2.52-1.278
				c-0.424-0.394-0.816-0.801-1.187-1.217c-0.104-0.096-0.208-0.18-0.313-0.283c-0.509-0.496-0.874-1.03-1.127-1.58
				c-7.915-11.769,1.276-30.119,10-39.087c8.214-8.443,19-13.247,30.195-16.422c9.938-2.817,20.232-5.815,30.536-6.86
				c8.167-0.828,18.102-1.144,25.408,3.297C415.429,300.572,418.694,309.318,417.795,318.86z"/>
		</g>
	</g>
	<g>
		<g>
			<path class="st11" d="M497.412,260.945c-1.59-14.091-8.325-27.833-22.303-33.014c-1.521-0.564-2.945-0.406-4.125,0.177
				c-7.115-0.914-15.031,0.437-21.819,1.122c-10.186,1.028-20.409,2.613-30.663,2.693c-7.434,0.058-14.987,1.128-22.411,1.608
				c-3.774,0.244-7.551,0.459-11.328,0.648c6.67-9.615,9.368-23.708,7.02-32.99c-2.7-10.668-12.34-19.624-23.463-19.829
				c-3.521-0.065-6.969,0.475-10.354,1.376c2.661-2.709,5.268-5.472,7.698-8.402c6.601-7.958,15.838-20.312,9.506-30.87
				c-3.133-5.224-10.597-7.562-16.27-7.951c-8.002-0.549-15.452,2.329-22.362,6.101c-0.964,0.526-1.916,1.082-2.862,1.655
				c6.069-9.996,11.839-21.447,12.684-33.077c0.731-10.059-2.869-20.083-11.168-26.153c-3.238-2.368-6.817-3.868-10.55-4.669
				c8.863-12.471,18.648-27.087,12.165-41.018c-4.66-10.013-16.012-14.207-26.413-14.113c-11.547,0.104-22.921,6.084-32.222,12.421
				c-12.889,8.782-21.028,20.543-27.215,33.619c1.089-6.193,3.059-12.268,4.869-18.277c2.988-9.918,5.409-19.894,4.855-30.329
				c-0.191-3.598-4.804-6.074-7.782-3.76c-10.177,7.904-16.689,19.264-25.926,27.991c-7.116-11.958-17.368-27.323-32.319-22.264
				c-7.032,2.379-10.419,9.277-12.719,15.771c-2.13,6.017-3.562,12.173-10.96,12.217c-9.14,0.055-18.006-5.053-27.072-6.161
				c-8.29-1.013-18.504,1.501-21.599,10.25c-4.864,13.749,9.145,26.333,17.904,36.801c-6.968,3.209-14.875,4.356-22.275,6.128
				c-10.127,2.425-19.588,6.556-26.486,14.605c-2.991,3.491-0.167,8.33,4.141,8.288c9.669-0.095,20.502-2.412,30.214-0.375
				c-1.975,3.171-4.497,6.137-5.149,9.669c-0.78,4.227,2.213,7.451,5.776,9.966c-0.024,0.144-0.043,0.289-0.055,0.435
				c-15.667-0.687-31.906,2.5-43.386,13.456c-9.768,9.322-14.271,26.557-7.833,38.825c5.641,10.75,17.756,15.831,28.871,19.029
				c-4.626,1.505-9.107,3.344-13.12,6.359c-3.551,2.667-2.47,7.989,1.842,9.053c3.72,0.918,7.601,1.705,11.059,3.335
				c-2.043,2.032-4,4.099-5.743,6.348c-0.757,0.27-1.484,0.785-2.118,1.607c-0.459,0.596-0.839,1.174-1.166,1.752
				c-11.449,0.014-22.793,1.186-33.672,4.732c-9.874,3.219-18.363,9.147-24.153,17.777c-5.011,7.468-6.234,16.998-5.819,25.779
				c0.901,19.081,10.048,37.51,19.124,53.915c11.94,21.583,24.4,42.878,42.153,60.284c8.643,8.475,18.653,15.559,29.429,21.054
				c10.32,5.263,21.718,8.165,32.94,10.828c22.734,5.395,48.408,8.427,70.68-0.407c2.728-1.082,5.356-2.43,7.881-3.941
				c0.93,0.729,1.97,0.993,3.099,1.29c3.36,0.884,5.93-2.254,5.94-5.293c0.036-9.826,0.668-19.601,2.18-29.315
				c1.338-8.602,3.154-17.562,9.042-24.278c10.298-11.748,21.097,1.87,23.847,12.307c4.888,18.552,5.89,50.622,32.326,49.657
				c0.153-0.006,0.299-0.021,0.444-0.038c15.085,2.151,30.273,4.163,45.524,2.698c13.479-1.294,26.007-6.298,37.895-12.533
				c23.092-12.113,43.149-30.302,59.925-50.082C479.617,344.711,502.119,302.656,497.412,260.945z M331.114,93.6
				c8.974,8.058,4.855,21.78,0.903,31.168c-5.322,12.645-13.572,23.898-21.214,35.198c-3.512,5.193-6.95,10.432-10.092,15.859
				c-2.821,4.875,4.958,10.157,8.236,5.526c7.84-11.076,17.568-21.18,28.833-28.784c5.506-3.717,11.704-6.703,18.409-7.156
				c3.238-0.219,9.593,0.836,10.925,4.125c1.147,2.834-1.396,7.169-2.918,9.821c-2.737,4.769-6.46,9.005-10.108,13.088
				c-6.27,7.019-13.566,13.14-19.655,20.303c-3.101,3.647,0.614,10.04,5.41,8.021c7.765-3.269,15.558-7.541,23.916-9.069
				c9.104-1.665,14.398,3.266,18.042,11.229c2.765,6.045,0.042,14.372-2.478,20.01c-2.166,4.847-6.829,12.704-13.18,11.701
				c-0.985-0.156-1.864-0.05-2.622,0.241c-9.517,0.109-19.034,0.011-28.542,0.569c-11.777,0.691-23.681,2.413-34.818,6.42
				c-9.275,3.337-18.517,8.658-22.688,17.961c-4.423,9.864-3.296,38.401-18.302,37.049c-0.117-31.663-1.841-63.333-0.28-94.986
				c1.396-28.298,5.335-57.531,19.29-82.623c5.937-10.674,14.101-20.071,24.541-26.504c1.659-1.022,3.444-1.876,5.299-2.546
				c1.682,2.861,6.812,3.889,9.15,0.058c0.338-0.554,0.697-1.117,1.065-1.686C322.914,88.783,327.459,90.318,331.114,93.6z
				 M264.8,64.664c6.063-10.14,14.881-17.585,24.964-23.52c9.67-5.693,22.182-9.853,32.702-4.107
				c15.197,8.3-0.101,29.113-9.445,41.908c-2.356,0.285-4.7,0.765-6.985,1.42c-11.172,3.208-20.813,12.35-27.932,21.169
				c-7.7,9.541-13.262,20.72-17.469,32.178c-10.26,27.944-11.877,58.786-12.323,88.28c-0.196,12.974,0.018,25.947,0.285,38.92
				c-2.564-9.18-6.053-18.127-10.07-26.708c0.591-0.637,0.992-1.528,1.077-2.704c1.039-14.314-0.919-28.424-2.203-42.653
				c-1.373-15.216,0.33-30.333,2.503-45.407c2.037-14.125,4.956-28.143,9.535-41.663C253.748,89.055,257.868,76.258,264.8,64.664z
				 M112.35,110.705c12.243-4.851,26.986-5.043,38.146-12.506c2.249-1.503,2.89-4.704,1.349-6.941
				c-3.642-5.289-8.244-9.91-12.236-14.932c-2.943-3.702-9.96-11.6-8.068-16.948c2.636-7.45,15.581-3.342,20.663-1.929
				c7.398,2.057,14.818,4.985,22.643,3.946c6.457-0.857,10.902-5.34,13.58-11.009c2.364-5.005,3.129-11.027,6.765-15.354
				c9.285-11.054,22.811,15.36,26.36,21.319c1.328,2.23,4.874,2.955,6.941,1.349c8.471-6.579,14.407-15.547,21.484-23.404
				c-2.614,16.131-10.723,31.401-9.768,48.142c0.151,2.654,1.938,4.081,3.957,4.393c-1.643,4.51-3.2,9.089-4.766,13.678
				c-4.726,13.847-7.478,28.308-9.564,42.775c-2.125,14.734-3.704,29.666-2.559,44.537c0.766,9.942,2.235,19.9,2.64,29.88
				c-9.706-16.758-21.727-32.196-35.825-45.479c-15.132-14.259-33.333-25.722-53.999-29.44c1.175-2.332,0.395-5.202-2.168-6.71
				c-2.341-1.378-4.697-2.732-6.823-4.429c2.329-3.793,4.993-7.923,6.507-12.637c0.628-1.956-0.811-4.698-2.684-5.433
				C127.623,110.707,120.014,110.406,112.35,110.705z M90.612,195.978c-15.734-11.002-6.956-33.127,8.06-40.216
				c17.418-8.224,40.893-5.244,57.928,2.48c25.259,11.452,45.103,33.859,59.938,56.706c13.414,20.66,24.295,44.977,26.331,69.875
				c-2.125-3.869-3.374-8.215-3.485-12.299c-0.066-2.414-1.505-3.813-3.271-4.283c-3.985-14.441-18.85-19.695-32.7-21.742
				c-0.067-1.104-0.495-2.221-1.413-3.208c-16.538-17.789-41.366-28.561-64.529-34.455
				C121.875,204.867,104.364,205.594,90.612,195.978z M115.002,226.791c-2.342-2.135-4.992-3.673-7.803-4.875
				c5-1.66,10.243-2.779,15.155-4.648c0.435-0.166,0.816-0.372,1.156-0.605c7.324,1.255,14.646,2.504,21.809,4.801
				c15.664,5.022,31.82,12.735,44.382,23.819c-6.99-0.291-13.987-0.172-20.983,0.015c-10.316,0.275-20.539-0.342-30.816-1.249
				c-9.817-0.866-19.904-2.016-30.014-2.627c2.337-2.638,4.979-5.031,7.57-7.572C117.431,231.913,116.901,228.522,115.002,226.791z
				 M487.458,280.328c-1.872,18.839-8.252,36.694-17.171,53.302c-12.594,23.451-30.355,44.556-50.565,61.808
				c-20.417,17.429-44.734,32.065-72.157,33.134c-11.959,0.465-23.917-1.395-35.719-3.079c-0.583-0.083-1.127-0.075-1.633,0.007
				c-0.377-0.068-0.778-0.101-1.206-0.085c-12.22,0.446-15.656-13.447-17.901-22.986c-2.758-11.721-3.396-24.048-10.923-33.959
				c-10.149-13.362-27.082-11.61-36.521,1.401c-5.468,7.539-7.401,16.908-8.916,25.923c-1.325,7.886-1.943,15.911-2.191,23.923
				c-0.317,0.14-0.637,0.317-0.955,0.54c-19.913,13.959-46.772,11.157-69.285,6.541c-11.256-2.308-22.825-5.095-33.294-9.895
				c-11.201-5.136-21.141-12.426-30.006-20.93c-17.705-16.982-29.79-38.895-41.47-60.189c-8.671-15.808-17.943-34.937-16.394-53.476
				c1.604-19.201,18.711-27.536,35.94-30.057c5.953-0.871,11.949-1.225,17.963-1.256c1.75,1.208,4.364,1.309,6.138,0.077
				c14.756,0.426,29.58,2.47,44.14,3.562c15.516,1.163,30.963-0.09,46.474,0.678c11.912,0.59,31.062,2.415,34.871,16.25
				c0.476,1.73,1.551,2.719,2.816,3.115c1.467,19.516,22.451,40.302,42.018,28.549c7.458-4.479,9.793-13.885,11.195-21.823
				c1.329-7.523,1.497-17.924,7.98-23.151c17.562-14.159,44.953-13.323,66.251-13.354c26.921-0.039,54.172-1.545,80.947-4.397
				c7.003-0.746,13.998-1.573,21.022-2.102c4.709-0.355,9.918-0.952,14.523,0.421c0.589,0.176,1.139,0.244,1.646,0.224
				C488.23,247.215,488.884,265.975,487.458,280.328z"/>
		</g>
	</g>
	<g>
		<g>
			<path class="st11" d="M407.102,295.509c-7.306-4.441-17.24-4.125-25.408-3.297c-10.303,1.044-20.597,4.042-30.536,6.86
				c-11.195,3.175-21.981,7.979-30.195,16.422c-8.724,8.968-17.915,27.318-10,39.087c0.253,0.55,0.618,1.084,1.127,1.58
				c0.105,0.103,0.208,0.187,0.313,0.283c0.371,0.416,0.763,0.823,1.187,1.217c0.808,0.75,1.67,1.147,2.52,1.278
				c6.799,7.851,15.268,13.699,26.064,14.169c11.66,0.507,22.177-4.667,32.467-9.453c18.544-8.624,41.029-22.248,43.154-44.795
				C418.694,309.318,415.429,300.572,407.102,295.509z M402.048,332.14c-6.617,8.893-16.677,14.922-26.351,19.95
				c-9.829,5.107-20.604,10.708-31.875,11.101c-4.873,0.17-9.656-1.603-13.583-4.4c-2.496-1.778-4.688-4.023-6.654-6.358
				c-0.925-1.1-1.634-2.345-2.969-3.008c-0.463-0.226-0.943-0.371-1.435-0.449c-4.219-6.147,2.163-17.98,5.771-22.816
				c6.956-9.322,17.322-13.943,28.148-17.247c9.497-2.897,19.486-5.608,29.364-6.727c7.449-0.845,16.891-1.345,22.667,4.309
				C411.852,313.071,406.575,326.054,402.048,332.14z"/>
		</g>
	</g>
	<g>
		<g>
			<path class="st11" d="M212.426,325.437c-5.257-9.145-16.997-13.38-26.586-15.873c-9.847-2.56-20.092-3.229-30.18-4.23
				c-8.366-0.83-16.734-1.964-25.16-1.471c-7.854,0.46-16.159,2.938-21.104,9.433c-5.562,7.307-5.646,17.884-1.961,25.997
				c4.357,9.591,12.958,16.868,21.565,22.558c8.767,5.796,18.332,10.377,28.467,13.206c9.851,2.748,20.424,3.663,30.617,3.311
				c8.988-0.311,21.401-2.426,25.942-11.253c1.596-0.799,2.834-2.354,2.856-4.597C217.007,349.688,219.137,337.11,212.426,325.437z
				 M207.105,358.771c-0.492,0.458-0.904,1.083-1.188,1.908c-2.407,7.024-12.402,7.413-18.602,7.717
				c-8.171,0.401-16.514-0.513-24.493-2.276c-9.216-2.036-17.888-6.173-25.934-11.021c-8.543-5.149-17.808-12.429-21.238-22.145
				c-2.72-7.703,0.818-15.366,8.382-17.9c7.556-2.532,16.447-1.311,24.196-0.493c9.284,0.979,18.617,1.662,27.833,3.185
				c9.84,1.626,22.172,4.419,28.073,13.284C209.227,338.679,207.709,349.522,207.105,358.771z"/>
		</g>
	</g>
</g>
</svg>
