<?xml version="1.0" encoding="utf-8"?>
<!-- Generator: Adobe Illustrator 16.0.3, SVG Export Plug-In . SVG Version: 6.00 Build 0)  -->
<!DOCTYPE svg PUBLIC "-//W3C//DTD SVG 1.1//EN" "http://www.w3.org/Graphics/SVG/1.1/DTD/svg11.dtd">
<svg version="1.1" id="Layer_1" xmlns="http://www.w3.org/2000/svg" xmlns:xlink="http://www.w3.org/1999/xlink" x="0px" y="0px"
	 width="512px" height="512px" viewBox="0 0 512 512" style="enable-background:new 0 0 512 512;" xml:space="preserve">
<style type="text/css">
<![CDATA[
	.st0{fill:#127274;}
	.st1{fill:#14B6B9;}
	.st2{fill:#1E4384;}
	.st3{fill:#EF4754;}
	.st4{fill:#EF4823;}
	.st5{fill:#BCBCBC;}
	.st6{fill:#F6851F;}
	.st7{fill:#C56528;}
	.st8{fill:#FCBF95;}
	.st9{fill:#FEBF10;}
	.st10{fill:none;}
	.st11{fill:#010101;}
	.st12{fill:#3AB37C;}
	.st13{fill:#D6E5E5;}
	.st14{fill:#71C598;}
	.st15{fill:#74CCCF;}
]]>
</style>
<g>
	<g>
		<g>
			<path class="st6" d="M297.896,32.131C287.327,19.602,267.25,12.454,252.267,21.6c-8.417,5.137-14.456,13.558-18.861,22.243
				c-4.254,8.387-9.86,21.043-4.684,30.215c0.933,1.653,0.868,3.328,0.239,4.721c1.979,1.685,4.067,3.236,6.219,4.693
				c3.602,2.44,7.314,4.71,11.077,6.893c2.294,1.33,4.97,3.461,7.557,4.165c13.264,3.606,26.52-0.236,36.328-9.877
				c7.945-7.81,15.216-17.779,15.923-29.277C306.587,46.901,303.318,38.56,297.896,32.131z"/>
		</g>
	</g>
	<g>
		<g>
			<path class="st15" d="M244.276,100.727c-2.673-1.53-12.831-6.906-20.086-12.931c-5.906,16.208-11.681,32.464-17.571,48.678
				c20.058-1.482,35.322-16.059,47.013-31.857C250.488,103.761,247.357,102.491,244.276,100.727z"/>
		</g>
	</g>
	<g>
		<g>
			<path class="st15" d="M420.726,358.022c-0.038-0.162-0.07-0.324-0.109-0.485c-1.86-7.802-3.657-15.892-6.121-23.499
				c-2.087-6.443-4.719-12.634-7.597-18.715c-2.975,9.137-11.501,19.81-14.49,23.79c-13.375,17.818-31.186,33.345-49.329,46.121
				c-21.102,14.859-44.333,24.9-68.11,34.604c-13.842,5.649-28.443,11.354-43.39,14.338c20.017,3.548,40.314,4.393,60.722,0.936
				c29.416-4.983,58.293-15.827,85.255-28.42c14.736-6.883,40.444-18.692,39.617-38.265c-0.084-1.978,0.8-3.418,2.071-4.281
				c-0.84-1.746-0.814-3.732,0.658-5.405C420.139,358.475,420.419,358.235,420.726,358.022z"/>
		</g>
	</g>
	<g>
		<g>
			<path class="st9" d="M307.063,86.25c-0.528-1.321-1.046-2.646-1.577-3.966c-0.417,0.561-0.842,1.119-1.281,1.67
				c-9.899,12.43-24.417,21.583-39.563,21.986c-0.16,0.478-0.394,0.954-0.718,1.418c-14.198,20.321-34.573,39.866-60.981,39.199
				c-5.433,14.778-10.989,29.516-16.938,44.095c-2.433,5.961-4.995,11.868-7.572,17.768c17.661-0.983,34.559-7.086,49.731-16.15
				c15.91-9.505,31.185-21.305,43.551-35.16c6.786-7.602,13.075-15.676,18.679-24.192c3.424-5.204,7.086-10.411,9.565-16.153
				c2.09-4.841,3.976-9.806,5.402-14.886c0.628-2.237,1.255-4.506,1.578-6.812c0.019-0.136,0.036-0.253,0.054-0.373
				C304.306,92.761,303.687,88.102,307.063,86.25z"/>
		</g>
	</g>
	<g>
		<g>
			<path class="st9" d="M400.042,301.652c-1.159-2.228-2.322-4.454-3.481-6.684c-4.603-8.856-9.155-17.753-13.635-26.683
				c-7.075,20.741-22.115,40.259-39.057,53.361c-19.752,15.275-41.961,27.236-64.684,37.458
				c-23.496,10.569-47.518,20.386-73.231,23.753c-25.187,3.298-50.551,1.979-75.845,0.919c16.646,22.335,45.928,35.576,71.93,43.322
				c0.941-0.701,2.15-1.1,3.586-0.966c22.02,2.052,44.596-6.981,64.583-15.138c20.744-8.467,41.518-16.842,60.28-29.269
				c18.584-12.308,36.249-27.138,50.556-44.31c4.092-4.911,7.857-10.172,11.138-15.657c1.791-2.994,3.587-6.07,4.831-9.342
				c0.277-0.729,0.522-1.481,0.667-2.252C394.789,307.493,396.617,302.546,400.042,301.652z"/>
		</g>
	</g>
	<g>
		<g>
			<path class="st15" d="M375.276,255.062h1.092c-0.235-0.48-0.476-0.959-0.71-1.439c-6.027-12.351-11.687-24.848-17.12-37.438
				c-5.69,17.788-19.688,33.446-32.38,46.173c-16.972,17.02-36.768,30.732-57.772,42.303c-21.53,11.861-43.94,23.144-67.173,31.27
				c-24.165,8.451-50.021,13.57-75.493,8.521c-0.632-0.125-1.179-0.339-1.65-0.616c-2.525,4.86-5.16,9.669-7.916,14.432
				c-1.209,2.089-2.426,4.235-3.594,6.428c0.81,0.123,1.631,0.467,2.415,1.09c2.88,2.29,5.32,4.963,7.582,7.792
				c0.234-0.021,0.475-0.033,0.732-0.023c26.039,1.018,52.346,2.951,78.313-0.219c24.515-2.993,47.154-11.681,69.618-21.598
				c22.091-9.753,43.863-20.972,63.247-35.486c16.893-12.648,32.511-31.229,39.229-51.752
				C369.552,262.44,369.731,255.062,375.276,255.062z"/>
		</g>
	</g>
	<g>
		<g>
			<path class="st6" d="M425.254,383.296c-0.111-0.964-0.232-1.928-0.359-2.89c-3.125,7.752-9.139,14.288-15.945,19.523
				c-18.794,14.458-42.741,23.227-64.784,31.222c-28.597,10.372-58.604,17.763-89.225,16.126
				c-28.722-1.534-58.865-9.417-84.835-21.743c-12.747-6.05-25.131-13.228-35.597-22.787c-4.971-4.54-9.866-9.384-13.782-14.879
				c-3.71-5.205-7.252-10.489-12.289-14.516c-3.001,7.289-4.792,14.979-3.558,22.875c2.164,13.832,12.006,24.348,22.53,32.842
				c10.176,8.214,21.474,14.862,33.192,20.626c11.881,5.844,24.036,11.821,36.649,15.911c13.464,4.367,27.359,7.375,41.423,8.993
				c26.88,3.091,54.832,2.192,81.387-3.179c20.538-4.155,41.108-11.444,59.262-21.962c17.116-9.917,34.854-23.671,40.93-43.371
				c0.373-1.21,1.063-2.103,1.91-2.716c0.444-1.036,1.292-1.927,2.617-2.457c0.051-0.189,0.417-0.913,0.423-0.929
				c0.232-0.659,0.538-2.813,0.627-4.014C426.139,391.778,425.734,387.461,425.254,383.296z"/>
		</g>
	</g>
	<g>
		<g>
			<path class="st15" d="M329.334,143.525c-4.892-12.714-9.769-25.438-14.718-38.133c-0.775,2.777-1.571,5.108-2.01,6.347
				c-5.529,15.631-14.973,29.433-25.268,42.352c-14.034,17.61-31.476,32.978-50.71,44.733
				c-18.677,11.415-39.447,19.502-61.572,19.714c-0.35,0.003-0.68-0.028-0.997-0.081c-2.203,5.089-4.371,10.193-6.428,15.343
				c-6.157,15.419-11.567,31.124-17.146,46.762h1.303c0.135,0,0.264,0.011,0.394,0.02c22.39-0.263,43.577-9.045,62.712-20.244
				c19.435-11.375,38.296-24.489,55.703-38.779c15.665-12.86,30.209-27.042,42.394-43.279c4.095-5.457,7.958-11.142,11.239-17.13
				c1.448-2.642,2.897-5.346,3.894-8.198c0.204-0.581,0.373-1.214,0.484-1.843C326.338,148.919,327.128,145.281,329.334,143.525z"/>
		</g>
	</g>
	<g>
		<g>
			<path class="st9" d="M336.047,160.873c-3.428,7.406-9.038,14.849-11.282,18.087c-11.407,16.463-25.366,31.033-40.506,44.097
				c-19.666,16.97-41.259,32.585-63.773,45.57c-21.627,12.473-45.512,22.6-70.928,21.907c-0.932-0.025-1.743-0.263-2.436-0.642
				c-3.391,9.304-6.904,18.562-10.741,27.695c-2.449,5.831-5.05,11.565-7.791,17.227c23.951,4.486,48.406-0.666,70.995-8.923
				c21.284-7.78,41.931-17.797,61.769-28.726c19.68-10.842,38.861-23.233,54.934-39.065c7.829-7.712,15.334-16.077,21.816-24.963
				c6.619-9.074,12.805-19.665,13.073-31.2c0.018-0.774,0.182-1.464,0.453-2.072C346.272,186.934,341.123,173.918,336.047,160.873z"
				/>
		</g>
	</g>
	<g>
		<g>
			<path class="st11" d="M433.288,369.619c-3.316-18.419-7.834-37.597-15.501-54.655c-5.902-13.132-13.271-25.549-19.407-38.569
				c-6.89-14.622-14.747-28.784-21.557-43.464c-13.44-28.972-25.262-58.709-36.676-88.527
				c-9.007-23.531-17.773-47.156-27.262-70.499c-0.327-0.804-0.785-1.435-1.323-1.918c6.133-13.613,5.861-28.773-3.032-42.324
				C298.85,14.91,280.432,6.041,262.909,7.847c-15.411,1.588-26.708,12.278-34.594,24.86c-7.251,11.569-14.093,26.996-10.37,40.721
				c-1.506,1.647-1.73,3.515-1.077,5.483c-0.062,0.136-0.124,0.273-0.178,0.421c-11.079,30.25-21.6,60.707-33.241,90.749
				c-11.192,28.883-24.362,56.877-34.852,86.04c-10.128,28.157-19.612,56.593-33.349,83.262
				c-6.478,12.574-14.521,24.144-18.674,37.797c-4.041,13.289-1.62,26.672,4.954,38.656c5.834,10.633,17.031,19.462,26.696,26.379
				c10.442,7.473,21.79,13.583,33.377,19.068c12.072,5.714,24.182,11.149,36.942,15.162c13.526,4.253,27.549,6.831,41.629,8.35
				c47.697,5.144,97.449-1.958,140.092-24.476c21.021-11.101,41.35-27.435,49.225-50.565c5.271-2.685,6.046-9.422,6.336-14.822
				C436.277,386.504,434.775,377.88,433.288,369.619z M414.495,334.039c2.464,7.607,4.261,15.696,6.121,23.499
				c0.039,0.161,0.071,0.324,0.109,0.485c-0.307,0.213-0.587,0.452-0.823,0.72c-1.473,1.673-1.498,3.659-0.658,5.405
				c-1.271,0.863-2.155,2.303-2.071,4.281c0.827,19.573-24.881,31.382-39.617,38.265c-26.962,12.593-55.839,23.437-85.255,28.42
				c-20.408,3.457-40.705,2.613-60.722-0.936c14.946-2.984,29.548-8.689,43.39-14.338c23.777-9.705,47.009-19.746,68.11-34.604
				c18.144-12.776,35.954-28.302,49.329-46.121c2.988-3.98,11.515-14.653,14.49-23.79
				C409.776,321.405,412.408,327.596,414.495,334.039z M382.926,268.285c4.479,8.93,9.032,17.827,13.635,26.683
				c1.159,2.23,2.322,4.457,3.481,6.684c-3.425,0.894-5.253,5.841-2.363,8.513c-0.145,0.771-0.39,1.523-0.667,2.252
				c-1.243,3.271-3.04,6.348-4.831,9.342c-3.281,5.485-7.046,10.747-11.138,15.657c-14.307,17.172-31.972,32.001-50.556,44.31
				c-18.762,12.427-39.536,20.802-60.28,29.269c-19.987,8.157-42.563,17.19-64.583,15.138c-1.436-0.134-2.645,0.266-3.586,0.966
				c-26.002-7.746-55.283-20.987-71.93-43.322c25.294,1.061,50.658,2.379,75.845-0.919c25.713-3.367,49.735-13.185,73.231-23.753
				c22.723-10.221,44.932-22.182,64.684-37.458C360.811,308.544,375.851,289.026,382.926,268.285z M233.406,43.843
				c4.405-8.685,10.444-17.106,18.861-22.243c14.983-9.146,35.06-1.998,45.629,10.531c5.422,6.428,8.69,14.77,8.168,23.243
				c-0.707,11.498-7.978,21.468-15.923,29.277c-9.809,9.642-23.064,13.484-36.328,9.877c-2.586-0.703-5.263-2.834-7.557-4.165
				c-3.763-2.183-7.475-4.453-11.077-6.893c-2.152-1.457-4.241-3.008-6.219-4.693c0.629-1.394,0.694-3.068-0.239-4.721
				C223.546,64.886,229.152,52.23,233.406,43.843z M224.19,87.796c7.255,6.024,17.413,11.4,20.086,12.931
				c3.081,1.764,6.212,3.034,9.356,3.89c-11.691,15.798-26.955,30.375-47.013,31.857C212.51,120.26,218.284,104.004,224.19,87.796z
				 M186.004,190.652c5.949-14.579,11.506-29.316,16.938-44.095c26.408,0.667,46.783-18.878,60.981-39.199
				c0.324-0.465,0.558-0.941,0.718-1.418c15.146-0.403,29.664-9.556,39.563-21.986c0.439-0.552,0.865-1.109,1.281-1.67
				c0.531,1.32,1.049,2.645,1.577,3.966c-3.377,1.853-2.758,6.512-0.072,8.445c-0.018,0.12-0.035,0.237-0.054,0.373
				c-0.322,2.306-0.949,4.575-1.578,6.812c-1.426,5.08-3.312,10.045-5.402,14.886c-2.479,5.742-6.141,10.95-9.565,16.153
				c-5.604,8.516-11.893,16.59-18.679,24.192c-12.367,13.855-27.641,25.654-43.551,35.16c-15.172,9.064-32.07,15.167-49.731,16.15
				C181.009,202.52,183.571,196.613,186.004,190.652z M167.632,233.799c2.057-5.15,4.225-10.253,6.428-15.343
				c0.316,0.053,0.646,0.084,0.997,0.081c22.125-0.212,42.895-8.299,61.572-19.714c19.234-11.755,36.676-27.123,50.71-44.733
				c10.295-12.919,19.739-26.721,25.268-42.352c0.439-1.239,1.234-3.57,2.01-6.347c4.949,12.696,9.826,25.419,14.718,38.133
				c-2.206,1.756-2.996,5.395-0.726,7.583c-0.111,0.629-0.28,1.262-0.484,1.843c-0.997,2.852-2.446,5.556-3.894,8.198
				c-3.282,5.988-7.144,11.673-11.239,17.13c-12.185,16.237-26.729,30.419-42.394,43.279c-17.407,14.29-36.268,27.403-55.703,38.779
				c-19.135,11.199-40.322,19.981-62.712,20.244c-0.13-0.009-0.259-0.02-0.394-0.02h-1.303
				C156.064,264.922,161.475,249.218,167.632,233.799z M136.381,317.587c3.837-9.134,7.351-18.391,10.741-27.695
				c0.692,0.379,1.503,0.616,2.436,0.642c25.416,0.692,49.3-9.435,70.928-21.907c22.515-12.984,44.107-28.6,63.773-45.57
				c15.141-13.064,29.1-27.633,40.506-44.097c2.244-3.239,7.854-10.681,11.282-18.087c5.076,13.046,10.226,26.062,15.582,38.992
				c-0.271,0.607-0.435,1.298-0.453,2.072c-0.268,11.536-6.454,22.126-13.073,31.2c-6.482,8.886-13.987,17.251-21.816,24.963
				c-16.072,15.832-35.254,28.224-54.934,39.065c-19.838,10.929-40.484,20.946-61.769,28.726
				c-22.589,8.258-47.044,13.409-70.995,8.923C131.331,329.153,133.932,323.418,136.381,317.587z M116.154,358.269
				c2.756-4.763,5.391-9.572,7.916-14.432c0.471,0.277,1.018,0.491,1.65,0.616c25.473,5.049,51.328-0.07,75.493-8.521
				c23.233-8.125,45.644-19.408,67.173-31.27c21.004-11.571,40.8-25.283,57.772-42.303c12.691-12.727,26.689-28.385,32.38-46.173
				c5.434,12.59,11.093,25.087,17.12,37.438c0.234,0.48,0.475,0.959,0.71,1.439h-1.092c-5.545,0-5.724,7.378-1.579,9.439
				c-6.719,20.523-22.337,39.104-39.229,51.752c-19.384,14.514-41.156,25.733-63.247,35.486
				c-22.464,9.917-45.104,18.604-69.618,21.598c-25.967,3.17-52.274,1.237-78.313,0.219c-0.257-0.01-0.498,0.002-0.732,0.023
				c-2.262-2.83-4.702-5.502-7.582-7.792c-0.784-0.623-1.605-0.968-2.415-1.09C113.729,362.503,114.945,360.358,116.154,358.269z
				 M425.828,395.972c-0.089,1.201-0.395,3.354-0.627,4.014c-0.006,0.016-0.372,0.74-0.423,0.929
				c-1.325,0.53-2.173,1.421-2.617,2.457c-0.847,0.613-1.537,1.505-1.91,2.716c-6.075,19.7-23.813,33.454-40.93,43.371
				c-18.154,10.519-38.724,17.808-59.262,21.962c-26.555,5.371-54.507,6.27-81.387,3.179c-14.063-1.617-27.959-4.626-41.423-8.993
				c-12.613-4.09-24.768-10.067-36.649-15.911c-11.718-5.764-23.016-12.412-33.192-20.626c-10.523-8.494-20.366-19.01-22.53-32.842
				c-1.235-7.896,0.557-15.586,3.558-22.875c5.037,4.027,8.579,9.311,12.289,14.516c3.916,5.495,8.812,10.339,13.782,14.879
				c10.466,9.559,22.85,16.736,35.597,22.787c25.97,12.326,56.113,20.208,84.835,21.743c30.622,1.636,60.628-5.754,89.225-16.126
				c22.043-7.995,45.99-16.764,64.784-31.222c6.806-5.235,12.82-11.771,15.945-19.523c0.127,0.962,0.248,1.926,0.359,2.89
				C425.734,387.461,426.139,391.778,425.828,395.972z"/>
		</g>
	</g>
</g>
</svg>
