<?xml version="1.0" encoding="utf-8"?>
<!-- Generator: Adobe Illustrator 16.0.3, SVG Export Plug-In . SVG Version: 6.00 Build 0)  -->
<!DOCTYPE svg PUBLIC "-//W3C//DTD SVG 1.1//EN" "http://www.w3.org/Graphics/SVG/1.1/DTD/svg11.dtd">
<svg version="1.1" id="Layer_1" xmlns="http://www.w3.org/2000/svg" xmlns:xlink="http://www.w3.org/1999/xlink" x="0px" y="0px"
	 width="512px" height="512px" viewBox="0 0 512 512" style="enable-background:new 0 0 512 512;" xml:space="preserve">
<style type="text/css">
<![CDATA[
	.st0{fill:#127274;}
	.st1{fill:#14B6B9;}
	.st2{fill:#1E4384;}
	.st3{fill:#EF4754;}
	.st4{fill:#EF4823;}
	.st5{fill:#BCBCBC;}
	.st6{fill:#F6851F;}
	.st7{fill:#C56528;}
	.st8{fill:#FCBF95;}
	.st9{fill:#FEBF10;}
	.st10{fill:none;}
	.st11{fill:#010101;}
	.st12{fill:#3AB37C;}
	.st13{fill:#D6E5E5;}
	.st14{fill:#71C598;}
	.st15{fill:#74CCCF;}
]]>
</style>
<g>
	<g>
		<g>
			<path class="st4" d="M313.127,234.926c-2.646-2.103-5.39-4.065-8.138-6.03c-5.12-3.656-10.095-7.425-14.75-11.665
				c-11.613-10.576-21.585-23.015-29.197-36.77c-8.027-14.508-14.783-30.56-18.798-46.664c-2.206-8.845-3.953-17.785-6.727-26.479
				c-0.994-3.116-2.211-5.967-3.24-8.814c-1.774,5.354-3.413,10.753-5.003,16.164c-3.603,12.263-7.007,24.585-10.337,36.925
				c-4.536,16.796-11.09,32.796-20.033,47.772c-5.858,9.811-12.111,18.752-20.355,26.695c-5.926,5.71-12.834,11.257-17.598,18.106
				c13.119,0.787,26.24,1.249,39.237,1.529c32.656,0.706,65.035-2.329,97.528-5.139c7.215-0.625,14.405-1.316,21.575-2.092
				C316.311,237.364,314.132,235.726,313.127,234.926z"/>
		</g>
	</g>
	<g>
		<g>
			<path class="st4" d="M211.021,124.04c-13.215,16.101-29.638,29.152-46.094,41.77c-16.807,12.888-34.304,24.957-53.057,34.859
				c-9.422,4.975-19.097,9.292-28.875,13.507c-6.153,2.652-12.373,4.995-18.865,6.146c-0.369,0.563-0.867,1.035-1.482,1.38
				c-0.096,0.264-0.218,0.518-0.359,0.766c0.932,0.933,1.896,1.832,2.94,2.642c1.943,1.509,4.098,3.009,6.378,3.963
				c8.018,3.354,19.128,7.205,29.21,8.87c15.203,2.512,30.669,4.224,46.188,5.412c0.093-0.671,0.326-1.368,0.743-2.078
				c5.26-8.937,13.526-15.688,20.867-22.837c8.837-8.608,15.493-18.43,21.432-29.232c7.893-14.354,13.176-29.12,17.448-44.81
				c2.23-8.194,4.486-16.384,6.827-24.549C213.246,121.267,212.148,122.667,211.021,124.04z"/>
		</g>
	</g>
	<g>
		<g>
			<path class="st1" d="M388.189,59.088c-7.986,3.022-16.353,5.617-24.783,7.014c-18.453,3.057-36.455-1.561-52.947-9.846
				c-13.966-7.015-26.778-16.398-41.499-21.879c-10.625-3.955-27.751-9.825-37.449-0.886c0.091,12.841,4.895,25.256,6.512,38.005
				c14.401-4.781,30.133-5.142,44.768-0.905c8.583,2.485,16.402,6.27,24.326,10.322c7.313,3.74,14.921,7.593,23.146,8.791
				c15.468,2.251,32.904-5.197,44.867-14.668c5.256-4.161,10.557-8.151,14.34-13.811c0.776-1.159,1.502-2.344,2.202-3.543
				C390.518,58.178,389.354,58.648,388.189,59.088z"/>
		</g>
	</g>
	<g>
		<g>
			<path class="st4" d="M429.337,200.587c-5.845-0.39-11.702-0.861-17.504-1.68c-12.815-1.811-24.78-5.654-36.929-10
				c-11.992-4.289-24.558-7.876-36.119-13.231c-10.372-4.805-19.983-10.899-29.169-17.679
				c-19.835-14.641-37.678-31.031-54.305-49.201c-3.958-4.327-7.692-8.852-11.618-13.207c-0.642-0.711-1.291-1.415-1.937-2.124
				c0.759,2.227,1.878,4.388,2.729,6.442c1.498,3.626,2.647,7.404,3.631,11.201c2.292,8.833,3.837,17.9,6.647,26.594
				c4.884,15.105,10.988,30.086,19.518,43.525c8.05,12.684,18.01,23.966,29.746,33.372c7.88,6.316,20.036,11.63,24.246,21.321
				c0.187,0.428,0.311,0.839,0.387,1.236c19.776-2.421,39.41-5.604,58.974-10.059c9.911-2.258,19.94-4.584,29.355-8.499
				c7.964-3.312,17.464-8.307,20.323-17.096c0.005-0.012,0.009-0.021,0.013-0.034C434.42,201.209,431.545,200.735,429.337,200.587z"
				/>
		</g>
	</g>
	<g>
		<g>
			<path class="st9" d="M470.717,416.819c-1.979-16.318-3.959-32.639-5.939-48.958c-1.896-15.633-4.1-31.145-6.648-46.684
				c-2.518-15.354-4.719-30.794-4.146-46.394c0.021-0.598,0.126-1.145,0.289-1.647c-0.337-0.071-0.674-0.135-1.011-0.214
				c-8.024-1.898-15.679-5.125-22.024-10.231c-6.001,12.101-14.813,21.745-27.932,27.347c-15.812,6.751-30.907-0.969-43.375-10.825
				c-5.464,11.656-14.593,20.055-28.664,21.594c-10.187,1.113-19.378-1.241-27.697-5.628c-3.996,17.753-5.406,36.017-9.923,53.658
				c-0.549,2.142-1.149,4.271-1.797,6.385c0.025,0.066,0.056,0.127,0.08,0.195c9.868,27.972,25.521,59.874,51.231,75.827
				c17.536,10.881,37.469,18.414,57.513,23.118c14.361,3.37,29.599,5.682,44.321,3.415c10.462-1.611,21.451-6.695,24.913-17.118
				C472.533,432.756,471.703,424.95,470.717,416.819z"/>
		</g>
	</g>
	<g>
		<g>
			<path class="st9" d="M284.843,281.101c-9.455,14.608-28.67,22.824-45.005,25.626c-18.716,3.211-35.59-4.836-45.638-20.093
				c-5.27,3.767-9.966,8.255-15.463,11.74c-7.089,4.494-14.929,6.323-23.284,5.276c-17.062-2.136-31.891-12.321-42.291-25.67
				c-7.229,5.158-15.143,9.478-23.315,12.821c-4.971,2.035-10.99,4.093-16.853,4.483c0.956,32.94,6.764,65.457,9.115,98.296
				c0.707,9.86-0.363,19.771-0.371,29.642c-0.008,9.035,0.042,19.466,4.479,27.636c4.934,9.086,13.773,12.366,23.543,14.216
				c12.837,2.43,26.327,2.021,39.164-0.289c25.733-4.63,50.141-15.084,71.255-30.522c21.247-15.532,39.555-35.731,51.633-59.21
				c6.698-13.021,11.079-26.415,13.738-40.811c2.648-14.338,4.326-28.85,7.645-43.061c0.191-0.821,0.514-1.503,0.925-2.064
				C290.883,286.673,287.792,283.967,284.843,281.101z"/>
		</g>
	</g>
	<g>
		<g>
			<path class="st4" d="M460.741,250.589c-3.957-7.54-8.444-15.648-11.342-23.657c-1.75-4.84-3.89-9.528-5.733-14.333
				c-5.843,8.152-15.22,13.357-24.684,17.005c-13.913,5.364-28.767,8.355-43.356,11.238c-31.496,6.224-63.006,9.247-94.938,12.073
				c-32.682,2.893-65.149,4.706-97.961,3.254c-16.481-0.729-32.938-1.899-49.36-3.457c-15.168-1.438-30.683-2.466-45.502-6.198
				c-9.816-2.471-19.927-5.906-28.197-11.915c0.626,5.182,1.213,10.352,1.605,15.569c0.687,9.13,1.058,18.333,2.198,27.422
				c0.282,2.24,1.17,5.375,3.604,6.103c7.504,2.243,16.589-1.82,23.232-5.062c6.784-3.312,14.91-7.978,20.085-12.174
				c2.788-2.262,6.519-2.278,8.658,0.94c8.633,12.985,24.025,25.657,40.5,25.596c13.848-0.052,22.376-12.481,33.63-18.78
				c2.468-1.382,6.147-0.917,7.562,1.821c8.029,15.55,22.668,23.376,40.037,19.36c14.885-3.443,31.945-11.101,37.855-26.277
				c1.264-3.248,6.426-3.684,8.623-1.303c10.658,11.547,24.066,23.575,40.905,22.252c13.251-1.041,20.324-9.05,24.082-21.281
				c1.239-4.034,5.922-5.551,9.157-2.679c10.267,9.117,24.492,20.331,38.787,13.361c11.884-5.793,19.311-15.219,23.869-27.507
				c1.277-3.446,6.14-6.227,9.157-2.678c5.881,6.915,13.782,11.083,22.625,12.945c4.483,0.944,8.886,1.114,13.446,1.316
				C465.915,259.634,463.145,255.17,460.741,250.589z"/>
		</g>
	</g>
	<g>
		<g>
			<path d="M464.98,274.329c1.055,0.053,2.113,0.099,3.176,0.146c2.262,0.101,4.397,0.279,6.634-0.1
				c0.518-0.087,1.002-0.293,1.481-0.525c0.769-0.076,1.568-0.336,2.375-0.837c0.346-0.182,0.671-0.395,0.976-0.637
				c0.178-0.135,0.323-0.286,0.48-0.431c0.301,0.039,0.61,0.073,0.938,0.1c5.866,0.479,6.632-7.687,2.484-10.312
				c-11.863-7.505-16.85-24.167-22.623-36.187c-2.21-4.604-4.075-9.388-5.948-14.144c-1.08-2.742-2.081-5.513-2.965-8.325
				c-0.378-1.2-0.688-2.417-0.967-3.643c-0.205-0.897-0.144-1.264-0.158-1.243c1.553-3.811-1.734-7.963-5.21-7.955
				c-0.721-0.351-1.479-0.632-2.352-0.828c-1.674-0.376-3.09-0.032-4.184,0.723c-1.556-0.072-3.111-0.147-4.668-0.226
				c-3.028-0.153-6.055-0.347-9.079-0.566c-6.633-0.48-13.212-1.333-19.743-2.58c-12.736-2.432-24.909-7.375-37.067-11.749
				c-12.048-4.333-24.005-8.179-35.21-14.484c-10.566-5.946-20.231-13.342-29.613-20.98c-16.455-13.397-31.523-27.841-45.41-43.904
				c-4.324-5.001-8.668-10.006-13.318-14.709c14.576-3.796,29.667-2.449,43.941,3.325c16.899,6.834,31.558,18.179,50.766,16.664
				c16.714-1.317,31.681-9.427,44.84-19.265c12.232-9.145,19.009-21.479,24.425-35.457c0.175-0.453,0.283-0.884,0.34-1.297
				c3.051-5.362-4.274-11.966-8.521-6.753c-5.07,6.224-12.521,9.334-19.927,11.906c-8.453,2.936-17.151,5.4-26.105,5.996
				c-18.973,1.26-36.32-7.448-52.286-16.645c-12.836-7.393-25.327-14.469-39.67-18.614c-12.029-3.476-26.394-4.694-36.796,3.018
				c-2.547,0.337-5.047,2.159-5.336,5.383c-1.485,16.5,6.231,32.023,6.857,48.349c0.009,0.23,0.03,0.452,0.062,0.667
				c-3.812,3.57-6.402,8.884-8.723,13.219c-3.63,6.778-7.216,13.295-11.656,19.598c-12.081,17.15-28.955,30.547-45.351,43.327
				c-15.822,12.333-32.295,23.816-49.78,33.679c-9.025,5.09-18.327,9.595-27.843,13.682c-9.599,4.123-19.016,8.584-29.694,8.356
				c-3.735-0.079-5.8,3.775-5.105,6.932c-2.874,6.75-0.745,16.916-0.03,23.727c1.163,11.074,1.638,22.211,2.659,33.299
				c0.587,6.384,1.414,12.992,6.7,17.32c1,0.82,2.06,1.488,3.16,2.035c0.697,31.746,5.965,63.123,8.711,94.713
				c1.713,19.715-2.414,40.024,2.615,59.408c2.327,8.965,7.513,16.543,15.23,21.661c9.469,6.281,22.675,7.762,33.716,8.376
				c25.853,1.438,52.477-6.026,75.599-17.143c29.786-14.32,55.354-36.642,73.992-63.883c5.531-8.088,10.335-16.7,14.259-25.688
				c8.648,21.165,20.198,41.2,36.184,57.696c9.431,9.731,21.576,16.379,33.779,21.993c27.468,12.636,61.046,22.974,91.524,17.903
				c9.799-1.63,19.459-5.551,26.194-13.092c7.549-8.452,9.6-20.027,8.863-31.018c-0.834-12.417-2.956-24.869-4.455-37.223
				c-1.577-12.993-3.112-25.992-4.734-38.979c-3.067-24.56-9.35-48.761-8.435-73.683
				C464.982,274.393,464.979,274.362,464.98,274.329z M255.312,108.796c16.627,18.17,34.47,34.561,54.305,49.201
				c9.186,6.78,18.797,12.874,29.169,17.679c11.561,5.355,24.127,8.943,36.119,13.231c12.148,4.346,24.113,8.189,36.929,10
				c5.802,0.819,11.659,1.29,17.504,1.68c2.208,0.147,5.083,0.622,7.988,0.881c-0.004,0.013-0.008,0.022-0.013,0.034
				c-2.859,8.789-12.359,13.784-20.323,17.096c-9.415,3.914-19.444,6.24-29.355,8.499c-19.563,4.456-39.197,7.638-58.974,10.059
				c-0.076-0.396-0.2-0.808-0.387-1.236c-4.21-9.691-16.365-15.005-24.246-21.321c-11.736-9.406-21.696-20.688-29.746-33.372
				c-8.529-13.439-14.634-28.42-19.518-43.525c-2.81-8.694-4.354-17.761-6.647-26.594c-0.984-3.796-2.133-7.574-3.631-11.201
				c-0.851-2.054-1.97-4.215-2.729-6.442c0.646,0.709,1.295,1.413,1.937,2.124C247.62,99.944,251.354,104.469,255.312,108.796z
				 M268.961,34.378c14.721,5.48,27.532,14.864,41.499,21.879c16.492,8.285,34.494,12.903,52.947,9.846
				c8.431-1.397,16.797-3.992,24.783-7.014c1.164-0.44,2.328-0.91,3.483-1.406c-0.699,1.199-1.426,2.385-2.202,3.543
				c-3.784,5.66-9.084,9.65-14.34,13.811c-11.963,9.471-29.399,16.919-44.867,14.668c-8.226-1.198-15.833-5.05-23.146-8.791
				c-7.924-4.053-15.744-7.837-24.326-10.322c-14.635-4.236-30.366-3.875-44.768,0.905c-1.617-12.749-6.42-25.165-6.512-38.005
				C241.21,24.553,258.336,30.423,268.961,34.378z M227.274,114.669c1.59-5.411,3.229-10.81,5.003-16.164
				c1.029,2.847,2.246,5.698,3.24,8.814c2.773,8.694,4.521,17.634,6.727,26.479c4.015,16.104,10.771,32.156,18.798,46.664
				c7.612,13.755,17.584,26.193,29.197,36.77c4.655,4.24,9.63,8.009,14.75,11.665c2.748,1.964,5.491,3.927,8.138,6.03
				c1.005,0.799,3.184,2.438,4.165,3.54c-7.169,0.776-14.36,1.467-21.575,2.092c-32.494,2.811-64.872,5.845-97.528,5.139
				c-12.997-0.281-26.118-0.742-39.237-1.529c4.764-6.849,11.672-12.396,17.598-18.106c8.244-7.943,14.497-16.884,20.355-26.695
				c8.942-14.976,15.497-30.976,20.033-47.772C220.268,139.255,223.672,126.933,227.274,114.669z M62.648,221.702
				c0.616-0.345,1.113-0.817,1.482-1.38c6.492-1.151,12.712-3.494,18.865-6.146c9.778-4.215,19.453-8.532,28.875-13.507
				c18.753-9.902,36.25-21.972,53.057-34.859c16.456-12.618,32.879-25.669,46.094-41.77c1.127-1.372,2.225-2.773,3.302-4.19
				c-2.341,8.166-4.596,16.355-6.827,24.549c-4.271,15.69-9.555,30.455-17.448,44.81c-5.939,10.802-12.595,20.624-21.432,29.232
				c-7.341,7.149-15.607,13.9-20.867,22.837c-0.417,0.71-0.65,1.407-0.743,2.078c-15.52-1.188-30.986-2.9-46.188-5.412
				c-10.082-1.665-21.192-5.516-29.21-8.87c-2.28-0.955-4.436-2.455-6.378-3.963c-1.044-0.81-2.009-1.708-2.94-2.642
				C62.431,222.22,62.552,221.966,62.648,221.702z M285.55,334.243c-2.659,14.396-7.04,27.79-13.738,40.811
				c-12.078,23.479-30.386,43.678-51.633,59.21c-21.114,15.438-45.521,25.892-71.255,30.522
				c-12.836,2.311-26.326,2.719-39.164,0.289c-9.77-1.851-18.61-5.13-23.543-14.216c-4.438-8.17-4.487-18.601-4.479-27.636
				c0.008-9.87,1.078-19.782,0.371-29.642c-2.351-32.839-8.159-65.356-9.115-98.296c5.863-0.39,11.882-2.449,16.853-4.483
				c8.173-3.343,16.086-7.664,23.315-12.821c10.4,13.349,25.229,23.535,42.291,25.67c8.354,1.046,16.194-0.783,23.284-5.276
				c5.498-3.484,10.194-7.973,15.463-11.74c10.048,15.256,26.922,23.304,45.638,20.093c16.334-2.802,35.55-11.018,45.005-25.626
				c2.949,2.866,6.04,5.572,9.277,8.018c-0.411,0.561-0.734,1.244-0.925,2.064C289.875,305.393,288.198,319.905,285.55,334.243z
				 M470.717,416.819c0.986,8.13,1.816,15.937-0.809,23.839c-3.462,10.423-14.45,15.507-24.913,17.118
				c-14.722,2.267-29.96-0.045-44.321-3.415c-20.044-4.704-39.977-12.237-57.513-23.118c-25.711-15.954-41.363-47.855-51.231-75.827
				c-0.024-0.068-0.055-0.129-0.08-0.195c0.647-2.114,1.248-4.244,1.797-6.385c4.517-17.641,5.927-35.905,9.923-53.658
				c8.318,4.387,17.51,6.741,27.697,5.628c14.071-1.539,23.2-9.938,28.664-21.594c12.468,9.856,27.564,17.577,43.375,10.825
				c13.118-5.602,21.931-15.246,27.932-27.347c6.346,5.105,14,8.333,22.024,10.231c0.337,0.079,0.674,0.144,1.011,0.214
				c-0.163,0.502-0.268,1.049-0.289,1.647c-0.573,15.6,1.628,31.04,4.146,46.394c2.548,15.54,4.752,31.051,6.648,46.684
				C466.758,384.181,468.738,400.501,470.717,416.819z M455.839,262.228c-8.842-1.862-16.743-6.031-22.625-12.945
				c-3.017-3.549-7.879-0.768-9.157,2.678c-4.559,12.289-11.985,21.714-23.869,27.507c-14.295,6.97-28.521-4.244-38.787-13.361
				c-3.235-2.872-7.918-1.355-9.157,2.679c-3.758,12.231-10.831,20.24-24.082,21.281c-16.839,1.323-30.247-10.706-40.905-22.252
				c-2.197-2.381-7.359-1.945-8.623,1.303c-5.91,15.177-22.971,22.834-37.855,26.277c-17.369,4.017-32.008-3.81-40.037-19.36
				c-1.414-2.738-5.094-3.203-7.562-1.821c-11.254,6.298-19.782,18.728-33.63,18.78c-16.475,0.062-31.867-12.61-40.5-25.596
				c-2.14-3.219-5.87-3.202-8.658-0.94c-5.175,4.196-13.301,8.862-20.085,12.174c-6.643,3.242-15.728,7.305-23.232,5.062
				c-2.434-0.728-3.322-3.862-3.604-6.103c-1.141-9.088-1.512-18.292-2.198-27.422c-0.393-5.217-0.979-10.387-1.605-15.569
				c8.271,6.008,18.381,9.444,28.197,11.915c14.819,3.731,30.334,4.76,45.502,6.198c16.422,1.558,32.879,2.729,49.36,3.457
				c32.812,1.452,65.28-0.361,97.961-3.254c31.932-2.826,63.442-5.849,94.938-12.073c14.589-2.883,29.443-5.874,43.356-11.238
				c9.464-3.648,18.841-8.854,24.684-17.005c1.844,4.806,3.983,9.494,5.733,14.333c2.897,8.009,7.385,16.118,11.342,23.657
				c2.404,4.582,5.173,9.045,8.544,12.955C464.725,263.342,460.322,263.172,455.839,262.228z"/>
		</g>
	</g>
</g>
</svg>
