<?xml version="1.0" encoding="utf-8"?>
<!-- Generator: Adobe Illustrator 16.0.3, SVG Export Plug-In . SVG Version: 6.00 Build 0)  -->
<!DOCTYPE svg PUBLIC "-//W3C//DTD SVG 1.1//EN" "http://www.w3.org/Graphics/SVG/1.1/DTD/svg11.dtd">
<svg version="1.1" id="Layer_1" xmlns="http://www.w3.org/2000/svg" xmlns:xlink="http://www.w3.org/1999/xlink" x="0px" y="0px"
	 width="512px" height="512px" viewBox="0 0 512 512" style="enable-background:new 0 0 512 512;" xml:space="preserve">
<style type="text/css">
<![CDATA[
	.st0{fill:#127274;}
	.st1{fill:#14B6B9;}
	.st2{fill:#1E4384;}
	.st3{fill:#EF4754;}
	.st4{fill:#EF4823;}
	.st5{fill:#BCBCBC;}
	.st6{fill:#F6851F;}
	.st7{fill:#C56528;}
	.st8{fill:#FCBF95;}
	.st9{fill:#FEBF10;}
	.st10{fill:none;}
	.st11{fill:#010101;}
	.st12{fill:#3AB37C;}
	.st13{fill:#D6E5E5;}
	.st14{fill:#71C598;}
	.st15{fill:#74CCCF;}
]]>
</style>
<g>
	<g>
		<g>
			<path class="st12" d="M227.705,396.798c-2.294-0.428-4.625-0.896-6.971-1.407c5.525,22.683,6.205,46.845,13.99,68.887
				c6.396-12.715,9.791-27.044,13.809-40.56c2.15-7.232,5.568-18.778,12.543-23.822
				C249.971,399.243,238.661,398.839,227.705,396.798z"/>
		</g>
	</g>
	<g>
		<g>
			<path class="st12" d="M307.803,399.942c-9.898,0.722-19.805,0.88-29.71,0.662c8.981,6.327,14.044,20.537,17.825,29.276
				c3.095,7.155,6.006,13.937,10.33,20.452c3.969,5.982,8.133,11.815,12.468,17.524c1.2-5.502,1.761-11.17,2.294-16.745
				c0.719-7.501,2.126-14.977,2.709-22.467c0.776-9.959,0.539-21.96,5.195-31.278C321.911,398.498,314.883,399.426,307.803,399.942z
				"/>
		</g>
	</g>
	<g>
		<g>
			<path class="st3" d="M287.973,439.184c-2.811-6.537-5.477-13.221-8.973-19.432c-1.916-3.405-5.284-10.711-9.809-11.32
				c-3.334-0.449-5.915,6.442-6.863,8.742c-2.127,5.167-3.521,10.55-5.039,15.917c-4.149,14.675-8.751,29.605-16.593,42.748
				c4.647,0.625,9.31,1.184,14.001,1.611c15.924,1.453,31.907,2.171,47.898,2.075c3.699-0.022,7.403-0.078,11.109-0.167
				C303.725,466.903,294.291,453.879,287.973,439.184z"/>
		</g>
	</g>
	<g>
		<g>
			<path class="st3" d="M211.879,405.902c-5.518,6.979-10.118,14.785-15.98,21.457c-7.572,8.618-15.039,17.349-24.182,24.333
				c0.896,2.019,2.123,3.925,3.771,5.671c8.581,9.085,21.133,11.661,33.019,13.515c6.048,0.943,12.069,1.938,18.096,2.887
				C217.531,452.332,216.498,428.598,211.879,405.902z"/>
		</g>
	</g>
	<g>
		<g>
			<path class="st12" d="M183.344,379.963c-0.957-0.742-1.896-1.543-2.802-2.394c-0.522,5.14-0.845,10.329-1.769,15.238
				c-1.842,9.779-4.266,19.428-6.352,29.155c-1.161,5.419-2.537,11.438-2.746,17.284c7.418-6.442,13.936-14.137,20.129-21.627
				c6.726-8.137,11.81-17.724,19.302-25.206C199.807,389.617,190.793,385.739,183.344,379.963z"/>
		</g>
	</g>
	<g>
		<g>
			<path class="st4" d="M306.408,49.819c-3.234-10.143-11.441-17.656-20.867-22.2c-9.569-4.612-21.188-7.549-31.678-4.433
				c-11.56,3.433-21.664,11.487-27.941,21.797c-6.191,10.168-9.211,20.931-4.568,32.412c3.366,8.321,9.201,15.105,16.676,19.651
				c1.482-1.555,3.758-2.415,6.275-1.478c0.695,0.282,1.404,0.527,2.125,0.736c19.324,5.527,41.682-1.401,53.541-17.975
				C305.511,70.587,309.421,59.265,306.408,49.819z"/>
		</g>
	</g>
	<g>
		<g>
			<path class="st0" d="M389.711,264.347c-0.565,7.347,0.232,14.885-0.455,22.198c-0.367,3.917-3.852,4.992-6.77,3.981
				c-5.221,1.828-10.914,2.641-16.395,2.67c-19.08,0.104-40.451-6.628-44.595-27.553c-2.774-14.014,1.108-28.14,6.142-41.184
				c2.568-6.654,5.778-13.109,7.543-20.036c1.652-6.49,2.973-13.085,3.684-19.75c1.365-12.801,1.73-27.19-5.238-38.557
				c-6.555-10.692-16.275-19.452-27.143-25.649c-8.463-4.827-16.839-7.51-26.494-8.766c-4.855-0.632-14.842-2.398-20.377,0.349
				c7.016,17.062,13.436,35.346,12.496,54.049c-0.932,18.579-7.732,35.543-15.845,52.074
				c-13.182,26.861-29.839,55.466-19.134,86.092c11.907,34.062,49.248,55.517,84.643,52.806c19.855-1.521,38.916-10.48,51.9-25.799
				c15.317-18.074,21.174-41.437,26.449-64.082C396.342,266.642,392.898,265.868,389.711,264.347z M275.459,126.446
				c0.312-2.987,3.699-4.884,6.447-4.35c3.139,0.61,4.662,3.468,4.35,6.448c0.043-0.402,0.149,0.068,0.146,0.277
				c0.016,0.007,0.025,0.012,0.041,0.02c0.054,0.026,1.162,0.446,0.966,0.428c2.286,0.604,4.104,0.73,6.024,0.74
				c2.996,0.017,5.666,1.892,5.908,5.062c0.215,2.8-2.061,5.925-5.061,5.909c-4.148-0.023-9.02-0.158-12.732-2.285
				C276.84,135.997,274.898,131.784,275.459,126.446z M313.837,288.208c-0.965,10.012-4.991,26.124-18.067,25.594
				c-33.49-1.357-23.748-51.585-19.311-72.356c1.479-6.93,12.28-4.843,10.797,2.099c-2.491,11.666-4.691,23.699-4.398,35.672
				c0.188,7.677,1.484,24.531,12.734,23.602c1.376-0.113,2.119-0.364,3.14-1.614c1.044-1.278,1.813-2.9,2.441-4.726
				c1.5-4.363,1.95-9.337,2.087-13.925c0.197-6.534-0.041-13.147-0.887-19.635c-0.921-7.054,10.057-7.844,10.969-0.847
				C314.465,270.677,314.669,279.574,313.837,288.208z"/>
		</g>
	</g>
	<g>
		<g>
			<path class="st3" d="M391.227,471.627c-11.417-10.458-20.137-23.119-30.23-34.747c-8.217-9.464-16.928-18.642-24.203-28.864
				c-0.555,2.772-0.801,5.635-1.068,8.093c-0.625,5.726-0.395,11.781-1.469,17.435c-2.867,15.106-2.27,30.733-7.324,45.339
				c21.592-1.012,43.18-3.275,64.384-7.188C391.287,471.672,391.254,471.653,391.227,471.627z"/>
		</g>
	</g>
	<g>
		<g>
			<path class="st3" d="M446.543,448.252c-12.32-14.091-29.856-24.423-41.409-39.037c-0.896,19.812-3.328,39.571-4.878,59.33
				c-0.041,0.528-0.169,1.012-0.365,1.451c16.662-3.606,33.832-9.244,46.933-20.098C446.658,449.36,446.564,448.805,446.543,448.252
				z"/>
		</g>
	</g>
	<g>
		<g>
			<path class="st12" d="M450.033,435.945c-2.814-7.026-4.656-14.415-7.457-21.455c-4.02-10.101-8.766-19.91-12.52-30.116
				c-1.451-3.946-2.87-7.927-4.184-11.943c-6.234,5.875-13.421,9.296-21.073,11.52c0.09,0.234,0.186,0.46,0.249,0.726
				c3.246,13.573,12.986,23.428,23.233,32.289c7.321,6.332,14.962,12.355,21.823,19.167
				C450.081,436.071,450.057,436.005,450.033,435.945z"/>
		</g>
	</g>
	<g>
		<g>
			<path class="st9" d="M420.324,346.991c-5.359-9.859-19.711-17.643-29.043-17.011c-1.104,0.075-2.055-0.129-2.849-0.526
				c-6.987,10.738-16.011,20.073-28.118,27.005c-24.859,14.233-55.046,15.203-81.401,4.378
				c-13.565-5.572-25.675-14.146-35.161-24.808c-9.536,0.938-19.15,1.188-28.629,2.661c-8.872,1.379-19.609,3.636-25.883,10.669
				c-2.24,2.512-4.428,5.504-5.314,8.706c0.39,1.155,0.408,2.478-0.141,3.877c-0.056,0.142-0.102,0.288-0.155,0.431
				c0.142,0.93,0.413,1.866,0.872,2.804c2.516,5.135,8.628,8.551,13.533,10.948c13.846,6.766,29.338,10.187,44.627,11.47
				c31.93,2.68,63.099,3.013,94.688-2.944c15.52-2.927,31.022-5.594,46.648-7.875c12.088-1.766,27.203-2.94,35.316-13.473
				c1.256-1.63,2.08-3.292,2.572-4.96C421.196,355.345,419.979,350.824,420.324,346.991z"/>
		</g>
	</g>
	<g>
		<g>
			<path class="st12" d="M394.373,386.918c-0.008-0.211,0.023-0.409,0.039-0.611c-6.794,1.202-13.771,1.938-20.627,2.985
				c-10.807,1.65-21.549,3.856-32.316,5.867c7.672,12.523,17.886,23.176,27.479,34.225c7.354,8.472,13.968,17.522,21.479,25.812
				C392.504,432.478,395.15,409.758,394.373,386.918z"/>
		</g>
	</g>
	<g>
		<g>
			<path d="M464.215,441.521c0.055-0.462,0.098-0.935,0.127-1.449c0.141-2.477-1.122-3.968-2.836-4.562
				c-1.02-2.485-2.035-5.639-2.707-7.671c-2.076-6.291-4.092-12.591-6.542-18.75c-3.468-8.716-7.552-17.182-10.912-25.941
				c-2.628-6.851-4.968-13.823-7.049-20.858c-0.468-1.585-0.927-3.18-1.349-4.784c0.222-3.203-0.182-6.471-1.097-9.646
				c1.163-2.792-0.338-6.516-3.249-7.58c-0.764-1.321-1.609-2.597-2.533-3.808c-7.375-9.665-19.329-16.835-31.638-17.466
				c8.629-17.123,13.448-36.684,17.825-55.458c0.642-2.75-1.444-6.121-4.35-6.448c-6.385-0.72-13.066-0.215-17.489-5.677
				c-3.153-3.895-8.537-2.69-9.958,2.026c-2.626,8.712-1.492,17.775-1.752,26.724c-7.523,2.524-15.805,2.505-23.57,1.242
				c-7.59-1.234-17.494-4.431-21.106-11.953c-5.95-12.393-1.042-28.12,3.463-40.105c2.3-6.119,5.3-12.025,7.212-18.277
				c2.088-6.826,3.506-13.85,4.529-20.908c1.885-12.996,2.455-27.259-1.623-39.898c-3.762-11.654-12.383-21.54-21.523-29.37
				c-11.158-9.557-23.809-15.769-37.518-18.785c3.301-1.728,6.469-3.758,9.449-6.093c16.168-12.662,26.124-36.082,16.444-55.581
				c-9.567-19.272-33.468-30.378-54.395-29.384c-23.987,1.139-44.806,22.466-50.974,44.695
				c-6.254,22.537,10.547,46.991,31.314,54.668c3.084,1.14,5.807-0.406,7.152-2.625c0.18,0.039,0.361,0.076,0.543,0.114
				c-0.844,1.766-0.636,3.6,0.184,5.092c0.069,0.422,0.189,0.858,0.377,1.312c5.649,13.632,10.788,27.513,12.219,42.299
				c1.449,14.974-2.428,29.236-8.151,42.934c-10.214,24.441-26.6,47.439-29.618,74.345c-2.127,18.954,2.898,36.795,12.674,51.748
				c-18.427,1.289-39.334,1.797-53.129,14.8c-5.735,5.406-10.238,12.933-10.177,20.977c-1.495,5.322-2.083,10.743-2.62,16.339
				c-0.773,8.047-2.4,15.988-4.127,23.876c-2.965,13.55-6.947,27.083-6.994,41.06c-0.041,12.451,6.805,22.775,17.201,29.252
				c10.783,6.718,23.309,8.362,35.547,10.643c60.035,11.188,123.508,10.851,183.51-0.445c25.139-4.733,52.467-13.184,68.99-34.017
				C465.768,445.886,465.479,443.365,464.215,441.521z M246.43,96.304c-0.721-0.209-1.43-0.454-2.125-0.736
				c-2.518-0.937-4.793-0.077-6.275,1.478c-7.475-4.546-13.31-11.33-16.676-19.651c-4.643-11.481-1.623-22.243,4.568-32.412
				c6.277-10.31,16.382-18.364,27.941-21.797c10.49-3.116,22.108-0.179,31.678,4.433c9.426,4.543,17.633,12.057,20.867,22.2
				c3.013,9.446-0.897,20.768-6.438,28.51C288.111,94.903,265.754,101.831,246.43,96.304z M256.265,218.174
				c8.112-16.531,14.913-33.495,15.845-52.074c0.939-18.703-5.48-36.987-12.496-54.049c5.535-2.748,15.521-0.981,20.377-0.349
				c9.655,1.256,18.031,3.938,26.494,8.766c10.867,6.197,20.588,14.957,27.143,25.649c6.969,11.367,6.604,25.756,5.238,38.557
				c-0.711,6.665-2.031,13.26-3.684,19.75c-1.765,6.927-4.975,13.382-7.543,20.036c-5.033,13.044-8.916,27.17-6.142,41.184
				c4.144,20.925,25.515,27.657,44.595,27.553c5.48-0.03,11.174-0.843,16.395-2.67c2.918,1.011,6.402-0.063,6.77-3.981
				c0.688-7.313-0.11-14.851,0.455-22.198c3.188,1.521,6.631,2.295,10.412,2.845c-5.275,22.645-11.132,46.008-26.449,64.082
				c-12.984,15.319-32.045,24.278-51.9,25.799c-35.395,2.711-72.735-18.744-84.643-52.806
				C226.426,273.64,243.083,245.035,256.265,218.174z M172.422,421.962c2.086-9.727,4.51-19.375,6.352-29.155
				c0.924-4.91,1.246-10.098,1.769-15.238c0.905,0.851,1.845,1.652,2.802,2.394c7.449,5.776,16.463,9.654,25.763,12.45
				c-7.492,7.482-12.576,17.069-19.302,25.206c-6.193,7.49-12.711,15.185-20.129,21.627
				C169.885,433.4,171.261,427.382,172.422,421.962z M208.507,470.878c-11.886-1.854-24.438-4.43-33.019-13.515
				c-1.648-1.746-2.875-3.652-3.771-5.671c9.143-6.984,16.609-15.714,24.182-24.333c5.862-6.672,10.463-14.478,15.98-21.457
				c4.619,22.696,5.652,46.43,14.724,67.862C220.576,472.816,214.555,471.821,208.507,470.878z M220.734,395.391
				c2.346,0.511,4.677,0.979,6.971,1.407c10.956,2.042,22.266,2.445,33.371,3.098c-6.975,5.044-10.393,16.59-12.543,23.822
				c-4.018,13.516-7.412,27.845-13.809,40.56C226.939,442.235,226.26,418.073,220.734,395.391z M302.596,479.524
				c-15.991,0.097-31.975-0.622-47.898-2.075c-4.691-0.428-9.354-0.986-14.001-1.611c7.842-13.143,12.443-28.073,16.593-42.748
				c1.518-5.367,2.912-10.749,5.039-15.917c0.948-2.3,3.529-9.191,6.863-8.742c4.524,0.609,7.893,7.915,9.809,11.32
				c3.496,6.211,6.162,12.895,8.973,19.432c6.318,14.695,15.752,27.72,25.732,40.173
				C309.999,479.446,306.295,479.501,302.596,479.524z M321.01,451.111c-0.533,5.575-1.094,11.243-2.294,16.745
				c-4.335-5.709-8.499-11.542-12.468-17.524c-4.324-6.515-7.235-13.296-10.33-20.452c-3.781-8.74-8.844-22.949-17.825-29.276
				c9.905,0.218,19.812,0.06,29.71-0.662c7.08-0.517,14.108-1.445,21.111-2.576c-4.656,9.317-4.419,21.318-5.195,31.278
				C323.136,436.134,321.729,443.61,321.01,451.111z M326.932,478.884c5.055-14.606,4.457-30.233,7.324-45.339
				c1.074-5.654,0.844-11.709,1.469-17.435c0.268-2.458,0.514-5.32,1.068-8.093c7.275,10.223,15.986,19.4,24.203,28.864
				c10.094,11.628,18.813,24.289,30.23,34.747c0.027,0.025,0.061,0.044,0.089,0.069
				C370.111,475.609,348.523,477.872,326.932,478.884z M390.426,455.196c-7.511-8.291-14.124-17.341-21.479-25.812
				c-9.593-11.049-19.807-21.701-27.479-34.225c10.768-2.011,21.51-4.217,32.316-5.867c6.856-1.047,13.833-1.783,20.627-2.985
				c-0.016,0.203-0.047,0.4-0.039,0.611C395.15,409.758,392.504,432.478,390.426,455.196z M383.998,376.775
				c-15.626,2.282-31.129,4.948-46.648,7.875c-31.589,5.957-62.758,5.625-94.688,2.944c-15.289-1.283-30.781-4.704-44.627-11.47
				c-4.905-2.397-11.018-5.813-13.533-10.948c-0.459-0.938-0.73-1.875-0.872-2.804c0.054-0.143,0.1-0.289,0.155-0.431
				c0.549-1.399,0.53-2.723,0.141-3.877c0.887-3.202,3.074-6.193,5.314-8.706c6.273-7.033,17.011-9.29,25.883-10.669
				c9.479-1.474,19.093-1.723,28.629-2.661c9.486,10.663,21.596,19.236,35.161,24.808c26.355,10.825,56.542,9.855,81.401-4.378
				c12.107-6.933,21.131-16.267,28.118-27.005c0.794,0.397,1.745,0.601,2.849,0.526c9.332-0.632,23.684,7.151,29.043,17.011
				c-0.345,3.833,0.872,8.354,1.562,11.35c-0.492,1.668-1.316,3.33-2.572,4.96C411.201,373.834,396.086,375.009,383.998,376.775z
				 M399.891,469.995c0.196-0.438,0.324-0.923,0.365-1.451c1.55-19.758,3.982-39.517,4.878-59.33
				c11.553,14.614,29.089,24.946,41.409,39.037c0.021,0.553,0.115,1.108,0.28,1.646
				C433.723,460.751,416.553,466.389,399.891,469.995z M428.282,416.965c-10.247-8.861-19.987-18.716-23.233-32.289
				c-0.063-0.265-0.159-0.492-0.249-0.726c7.652-2.223,14.839-5.644,21.073-11.52c1.313,4.016,2.732,7.997,4.184,11.943
				c3.754,10.207,8.5,20.016,12.52,30.116c2.801,7.04,4.643,14.429,7.457,21.455c0.023,0.06,0.048,0.126,0.072,0.188
				C443.244,429.321,435.604,423.297,428.282,416.965z"/>
		</g>
	</g>
	<g>
		<g>
			<path d="M313.342,262.072c-0.912-6.998-11.89-6.208-10.969,0.847c0.846,6.488,1.084,13.101,0.887,19.635
				c-0.137,4.588-0.587,9.562-2.087,13.925c-0.628,1.826-1.397,3.448-2.441,4.726c-1.021,1.25-1.764,1.501-3.14,1.614
				c-11.25,0.929-12.547-15.925-12.734-23.602c-0.293-11.973,1.907-24.006,4.398-35.672c1.483-6.942-9.317-9.028-10.797-2.099
				c-4.438,20.771-14.18,70.999,19.311,72.356c13.076,0.53,17.103-15.582,18.067-25.594
				C314.669,279.574,314.465,270.677,313.342,262.072z"/>
		</g>
	</g>
	<g>
		<g>
			<path d="M299.342,135.072c-0.242-3.17-2.912-5.045-5.908-5.062c-1.921-0.01-3.738-0.136-6.024-0.74
				c0.196,0.018-0.912-0.402-0.966-0.428c-0.016-0.008-0.025-0.012-0.041-0.02c0.003-0.209-0.104-0.679-0.146-0.277
				c0.312-2.98-1.211-5.838-4.35-6.448c-2.748-0.534-6.135,1.363-6.447,4.35c-0.561,5.338,1.381,9.551,6.09,12.25
				c3.713,2.127,8.584,2.262,12.732,2.285C297.281,140.997,299.557,137.872,299.342,135.072z"/>
		</g>
	</g>
</g>
</svg>
