<?xml version="1.0" encoding="utf-8"?>
<!-- Generator: Adobe Illustrator 16.0.3, SVG Export Plug-In . SVG Version: 6.00 Build 0)  -->
<!DOCTYPE svg PUBLIC "-//W3C//DTD SVG 1.1//EN" "http://www.w3.org/Graphics/SVG/1.1/DTD/svg11.dtd">
<svg version="1.1" id="Layer_1" xmlns="http://www.w3.org/2000/svg" xmlns:xlink="http://www.w3.org/1999/xlink" x="0px" y="0px"
	 width="512px" height="512px" viewBox="0 0 512 512" style="enable-background:new 0 0 512 512;" xml:space="preserve">
<style type="text/css">
<![CDATA[
	.st0{fill:#127274;}
	.st1{fill:#14B6B9;}
	.st2{fill:#1E4384;}
	.st3{fill:#EF4754;}
	.st4{fill:#EF4823;}
	.st5{fill:#BCBCBC;}
	.st6{fill:#F6851F;}
	.st7{fill:#C56528;}
	.st8{fill:#FCBF95;}
	.st9{fill:#FEBF10;}
	.st10{fill:none;}
	.st11{fill:#010101;}
	.st12{fill:#3AB37C;}
	.st13{fill:#D6E5E5;}
	.st14{fill:#71C598;}
	.st15{fill:#74CCCF;}
]]>
</style>
<g>
	<g>
		<g>
			<path class="st13" d="M259.086,186.459c-0.651-3.704-1.093-7.274-1.115-10.914c-0.026-0.232-0.04-0.469-0.03-0.711
				c0.82-20.36-2.564-40.473-5.496-60.544c-3.93-26.903-8.617-56.58-27.66-77.614c-6.281-6.938-15.044-13.667-24.914-13.462
				c-11.131,0.231-18.762,8.197-23.823,17.463c-13.156,24.082-7.26,53.741,0.56,78.579c8.521,27.075,24.101,52.784,42.531,74.22
				c1.036,1.205,1.445,2.546,1.411,3.837c3.177,0.358,6.349,0.743,9.505,1.265c2.231,0.369,4.473,0.686,6.719,0.969
				c-1.047-1.524-2.027-3.09-3.008-4.593c-1.406-2.159-4.303-7.061-6.013-7.548c-2.71-0.773-3.926-2.936-3.983-5.133
				c-3.03-3.876-5.562-8.246-7.787-12.487c-4.029-7.683-7.615-15.814-9.752-24.246c-2.881-11.374-4.5-33.745,12.312-35.246
				c13.049-1.165,20.786,16.711,24.851,26.304c4.574,10.793,9.957,24.187,9.611,36.156c-0.037,1.322-0.454,2.409-1.102,3.256
				c0.463,8.349,3.868,16.645,4.644,24.965c1.698,0.038,3.396,0.056,5.092,0.046C261.484,196.1,259.936,191.285,259.086,186.459z"/>
		</g>
	</g>
	<g>
		<g>
			<path class="st8" d="M293.317,132.759c-4.256-0.262-8.668,1.027-12.775,2.07c-4.51,1.146-9.111,2.292-13.771,2.386
				c1.426,11.17,2.433,22.384,2.246,33.653c0.759,1.093,1.129,2.499,0.812,4.152c-0.173,0.906-0.534,1.685-1.024,2.355
				c0.379,7.832,3.642,15.458,3.839,23.308c3.85-0.213,7.69-0.509,11.521-0.896c-1.05-6.505-0.747-13.163-0.441-19.734
				c0.048-1.014,0.32-1.886,0.744-2.621c-3.09-12.874,2.961-27.125,7.026-39.068C292.127,136.503,292.731,134.633,293.317,132.759z"
				/>
		</g>
	</g>
	<g>
		<g>
			<path class="st8" d="M339.771,113.156c-10.962,5.82-17.699,18.2-22.641,29.13c-5.039,11.149-9.25,23.761-8.432,36.164
				c0.037,0.296,0.062,0.603,0.056,0.93c0.029,0.344,0.024,0.667,0.002,0.98c0.082,5.257,1.648,10.293,2.639,15.437
				c0.22-0.041,0.438-0.087,0.658-0.128c0.154-1.223,0.567-2.317,1.477-3.257c0.287-0.296,0.612-0.546,0.955-0.77
				c-0.989-1.14-1.469-2.729-0.967-4.655c4.04-15.504,17.222-25.937,24.161-39.985c4.039-8.174,7.699-17.264,8.021-26.505
				C345.873,115.534,345.798,109.956,339.771,113.156z"/>
		</g>
	</g>
	<g>
		<g>
			<path class="st13" d="M378.471,41.299c-7.821-6.534-18.488-2.063-25.942,2.821c-21.588,14.145-32.671,37.931-40.047,61.865
				c-2.111,6.849-4.001,13.759-5.973,20.644c1.423,2.462,0.222,5.779-2.148,7.343c-0.975,3.226-1.99,6.439-3.083,9.631
				c-3.317,9.695-9.032,22.428-5.69,32.76c0.666,2.058,0.15,3.774-0.946,4.982c-0.29,5.664-0.633,11.546,0.417,17.127
				c1.872-0.261,3.739-0.56,5.608-0.853c-0.998-6.009-3.041-11.702-2.911-17.909c-1.375-15.896,4.51-32.717,11.637-46.676
				c5.992-11.733,15.748-28.661,30.062-31.395c21.844-4.172,17.956,25.093,13.413,37.621c-3.518,9.699-7.996,19.181-14.428,27.292
				c-5.589,7.05-11.914,14.136-14.234,23.037c-0.409,1.57-1.287,2.639-2.373,3.281c0.18,0.233,0.348,0.48,0.495,0.745
				c1.974-0.415,3.948-0.826,5.919-1.261c0.319-1.828,1.408-3.126,2.783-3.883c9.25-15.584,19.139-30.788,28.142-46.52
				c12.106-21.154,24.87-45.062,27.622-69.687C387.937,62.032,387.03,48.451,378.471,41.299z"/>
		</g>
	</g>
	<g>
		<g>
			<path class="st8" d="M356.456,175.44c-1.663-0.201-2.776-0.955-3.425-1.971c-3.344,5.42-6.688,10.842-9.97,16.294
				c3.273-0.596,6.489-1.35,9.492-2.548c3.049-1.216,5.508-2.909,6.035-6.312C358.966,178.468,359.237,175.775,356.456,175.44z"/>
		</g>
	</g>
	<g>
		<g>
			<path class="st8" d="M241.304,168.574c0.058-0.542,0.18-1.02,0.346-1.449c-1.086-8.001-4.404-16.424-7.236-23.566
				c-2.209-5.574-4.729-11.145-8.145-16.098c-1.203-1.744-2.486-3.429-4.107-4.812c-0.51-0.435-0.996-0.82-1.799-1.202
				c0.467,0.271-1.311-0.12-0.673-0.194c-0.741,0.058-1.55,0.414-2.752,1.956c-1.051,1.348-1.63,3.47-1.742,5.137
				c-0.426,6.323,0.922,12.541,2.884,18.525c3.631,11.086,9.013,24.244,17.746,32.375c0.535,0.498,0.927,1.03,1.207,1.576
				c2.648,2.703,4.61,6.212,6.72,9.555C242.223,183.224,240.497,176.178,241.304,168.574z"/>
		</g>
	</g>
	<g>
		<g>
			<path class="st0" d="M419.681,436.433c-2.714-2.715-1.714-6.288,0.569-8.191c-0.067-0.563-0.127-1.126-0.193-1.681
				c-0.548-4.559-1.499-8.667-2.489-13.179c-3.037-13.846-5.912-27.768-8.75-41.666c-5.158-25.257-10.107-50.497-16.869-75.387
				c-3.668-13.505-7.652-26.924-11.323-40.431c-1.75-6.44-3.526-12.89-4.968-19.409c-0.354-1.6-1.013-3.835-1.244-6.026
				c-1.035,0.192-2.071,0.386-3.106,0.577c-31.431,5.795-62.894,9.361-94.784,11.278c-32.029,1.926-64.166,3.088-96.246,1.825
				c-0.063-0.003-0.127-0.006-0.189-0.009c-0.03,0.046-0.053,0.093-0.083,0.14c-3.964,6.003-3.156,14.111-3.432,20.992
				c-0.383,9.522-2.618,19.062-3.277,28.6c-1.332,19.308-2.561,38.646-3.717,57.967c-1.916,32.029-3.125,64.112-4.61,96.166
				c1.661,1.068,2.597,2.983,1.662,5.48c-0.222,0.593-0.506,2.902-0.503,1.528c-0.003,1.28-0.417-0.256,0.229,1.346
				c-0.642-1.588,1.336,1.582,0.326,0.481c0.539,0.587,1.105,1.149,1.732,1.645c2.313,1.825,7.491,3.925,11.343,5.07
				c12.735,3.784,26.123,5.485,39.319,6.702c33.639,3.1,67.819,4.116,101.389,0.219c14.475-1.681,29.204-1.566,43.533-4.453
				c9.263-1.867,18.641-5.143,26.717-8.876c7.257-3.354,14.537-6.947,21.12-11.513c2.563-1.776,5.763-3.865,7.468-6.554
				c0.315-0.497,0.633-1.004,0.877-1.543c-0.18,0.247,0.05-1.103,0.082-0.159c0-0.001,0-0.002,0.001-0.004
				C420.259,436.875,420.591,437.342,419.681,436.433z"/>
		</g>
	</g>
	<g>
		<g>
			<path class="st0" d="M450.696,164.259c-21.104-20.604-53.477-12.648-79.798-19.173c-0.26-0.064-0.5-0.146-0.733-0.234
				c-3.785,6.691-7.732,13.292-11.746,19.856c0.209,0.004,0.424,0.019,0.643,0.045c10.512,1.268,12.209,13.669,9.329,21.911
				c-3.519,10.072-15.902,12.468-25.079,13.881c-13.232,2.037-26.227,5.543-39.456,7.712c-13.335,2.187-26.833,3.696-40.359,3.757
				c-13.983,0.063-27.501-1.846-41.337-3.472c-10.891-1.279-21.98-2.002-32.3-6.009c-10.097-3.919-18.65-11.005-20.411-22.171
				c-1.482-9.4,2.695-19.114,11.6-23.119c-2.397-4.467-4.626-9.02-6.71-13.633c-0.808,0.662-1.862,1.101-3.172,1.174
				c-7.057,0.393-13.726,2.408-20.448,4.458c-13.754,4.194-27.736,6.479-41.905,8.738c-13.456,2.146-28.066,4.815-39.674,12.41
				c-9.025,5.906-19.704,17.166-15.017,28.96c4.07,10.243,15.662,16.876,25.527,20.452c10.895,3.95,22.327,6.143,33.805,7.56
				c13.156,1.624,26.402,3.105,39.613,4.176c32.033,2.598,64.217,2.554,96.308,1.174c31.944-1.374,63.858-3.357,95.479-8.249
				c15.555-2.406,30.895-5.853,46.397-8.478c11.086-1.876,22.332-3.365,33.141-6.559c10.311-3.047,20.909-7.549,27.538-16.438
				C459.056,183.436,459.568,172.92,450.696,164.259z"/>
		</g>
	</g>
	<g>
		<g>
			<path class="st8" d="M186.467,166.795c-6.524,3.16-8.302,11.019-4.287,17.2c4.437,6.832,13.661,9.559,21.226,11.02
				c1.08,0.209,2.164,0.396,3.248,0.571C199.304,186.515,192.511,176.883,186.467,166.795z"/>
		</g>
	</g>
	<g>
		<g>
			<path d="M461.799,160.322c-8.118-10.455-21.28-17.603-34.209-19.885c-17.215-3.038-34.878-1.767-51.975-5.559
				c2.537-4.814,4.972-9.685,7.236-14.648c9.438-20.694,18.688-44.21,13.97-67.288c-2.121-10.366-8.784-20.98-19.144-24.567
				c-9.8-3.394-20.04,0.09-28.657,4.994c-21.534,12.253-34.368,34.562-42.836,57.04c-3.919,10.402-6.733,21.14-9.756,31.813
				c-10.434-1.268-20.368,4.283-31.152,4.012c-1.908-13.632-3.491-27.409-6.359-40.866c-5.152-24.176-16.3-51.341-37.217-65.977
				c-7.984-5.586-18.272-8.388-27.921-6.59c-10.856,2.022-18.958,9.486-24.87,18.45c-15.145,22.957-12.893,51.847-6.715,77.359
				c2.075,8.57,4.773,16.993,8.004,25.227c-14.066,0.934-27.457,6.694-41.163,9.66c-13.988,3.027-28.308,4.136-42.184,7.757
				c-21.815,5.693-50.512,23.172-43.72,49.867c2.801,11.005,13.213,19.212,22.676,24.425c10.084,5.555,21.573,8.545,32.812,10.644
				c11.33,2.116,22.828,2.87,34.25,4.266c11.699,1.43,23.448,2.425,35.214,3.098c-1.954,5.317-2.169,11.305-2.35,16.882
				c-0.288,8.895-1.905,17.736-2.813,26.592c-2.021,19.727-2.68,39.703-3.984,59.495c-2.314,35.112-3.481,70.322-5.135,105.472
				c-0.075,1.596,0.428,2.81,1.252,3.658c0.084,8.574,9.744,14.03,17.222,16.931c13.898,5.394,29.462,6.885,44.173,8.377
				c32.438,3.29,66.113,4.622,98.525,1.159c17.373-1.857,34.97-2.327,52.171-5.562c11.1-2.087,21.369-6.285,31.524-11.064
				c9.458-4.451,36.964-17.552,32.265-31.477c0.118-0.168,0.228-0.342,0.322-0.525c0.692-1.344,0.776-2.552,0.883-4.037
				c0.117-1.641-0.39-2.875-1.238-3.723c-0.094-1.028-0.132-2.061-0.218-3.012c-0.442-4.873-1.915-9.49-2.966-14.278
				c-2.904-13.24-5.629-26.578-8.356-39.873c-5.104-24.86-10.162-49.612-16.547-74.181c-3.1-11.929-6.699-23.737-9.991-35.616
				c-1.884-6.799-3.739-13.61-5.443-20.458c-0.602-2.421-1.177-4.85-1.674-7.294c-0.064-0.321-0.125-0.643-0.185-0.964
				c0.236-0.567,0.337-1.146,0.314-1.717c8.066-1.503,16.131-3.003,24.215-4.439c11.253-2,22.288-4.756,32.619-9.744
				C462.733,204.471,477.284,180.261,461.799,160.322z M295.587,176.363c-3.342-10.333,2.373-23.065,5.69-32.76
				c1.093-3.191,2.108-6.405,3.083-9.631c2.37-1.564,3.571-4.88,2.148-7.343c1.972-6.885,3.861-13.794,5.973-20.644
				c7.376-23.935,18.459-47.72,40.047-61.865c7.454-4.884,18.121-9.355,25.942-2.821c8.56,7.152,9.466,20.733,8.321,30.967
				c-2.752,24.625-15.516,48.532-27.622,69.687c-9.003,15.731-18.892,30.935-28.142,46.52c-1.375,0.757-2.464,2.055-2.783,3.883
				c-1.971,0.435-3.945,0.846-5.919,1.261c-0.147-0.265-0.315-0.512-0.495-0.745c1.086-0.642,1.964-1.711,2.373-3.281
				c2.32-8.901,8.646-15.987,14.234-23.037c6.432-8.112,10.91-17.594,14.428-27.292c4.543-12.528,8.431-41.793-13.413-37.621
				c-14.313,2.734-24.069,19.661-30.062,31.395c-7.127,13.959-13.012,30.78-11.637,46.676c-0.13,6.207,1.913,11.899,2.911,17.909
				c-1.869,0.293-3.736,0.592-5.608,0.853c-1.05-5.582-0.707-11.464-0.417-17.127C295.737,180.138,296.253,178.421,295.587,176.363z
				 M358.589,180.904c-0.527,3.403-2.986,5.096-6.035,6.312c-3.003,1.198-6.219,1.952-9.492,2.548
				c3.282-5.453,6.626-10.874,9.97-16.294c0.648,1.017,1.762,1.771,3.425,1.971C359.237,175.775,358.966,178.468,358.589,180.904z
				 M314.484,191.642c-0.343,0.224-0.668,0.474-0.955,0.77c-0.909,0.94-1.322,2.035-1.477,3.257
				c-0.22,0.041-0.438,0.088-0.658,0.128c-0.99-5.144-2.557-10.18-2.639-15.437c0.022-0.312,0.027-0.636-0.002-0.98
				c0.007-0.328-0.019-0.634-0.056-0.93c-0.818-12.403,3.393-25.015,8.432-36.164c4.941-10.93,11.679-23.311,22.641-29.13
				c6.027-3.201,6.103,2.378,5.929,7.341c-0.321,9.241-3.981,18.331-8.021,26.505c-6.939,14.048-20.121,24.48-24.161,39.985
				C313.016,188.914,313.495,190.502,314.484,191.642z M280.542,134.829c4.107-1.043,8.52-2.332,12.775-2.07
				c-0.586,1.875-1.19,3.744-1.823,5.604c-4.065,11.944-10.116,26.194-7.026,39.068c-0.424,0.735-0.696,1.607-0.744,2.621
				c-0.306,6.571-0.608,13.229,0.441,19.734c-3.831,0.387-7.672,0.683-11.521,0.896c-0.197-7.85-3.46-15.476-3.839-23.308
				c0.49-0.67,0.852-1.449,1.024-2.355c0.316-1.653-0.054-3.059-0.812-4.152c0.187-11.269-0.82-22.482-2.246-33.653
				C271.431,137.121,276.032,135.974,280.542,134.829z M176.047,40.678c5.062-9.266,12.692-17.232,23.823-17.463
				c9.87-0.205,18.633,6.523,24.914,13.462c19.043,21.035,23.73,50.711,27.66,77.614c2.932,20.071,6.316,40.184,5.496,60.544
				c-0.01,0.242,0.004,0.479,0.03,0.711c0.022,3.639,0.464,7.21,1.115,10.914c0.85,4.826,2.398,9.64,2.551,14.562
				c-1.696,0.009-3.394-0.009-5.092-0.046c-0.775-8.321-4.181-16.617-4.644-24.965c0.647-0.847,1.064-1.934,1.102-3.256
				c0.346-11.969-5.037-25.363-9.611-36.156c-4.064-9.593-11.802-27.469-24.851-26.304c-16.812,1.501-15.192,23.872-12.312,35.246
				c2.137,8.432,5.723,16.563,9.752,24.246c2.226,4.242,4.757,8.611,7.787,12.487c0.058,2.198,1.273,4.36,3.983,5.133
				c1.71,0.487,4.606,5.39,6.013,7.548c0.98,1.503,1.961,3.069,3.008,4.593c-2.246-0.283-4.487-0.6-6.719-0.969
				c-3.156-0.522-6.328-0.907-9.505-1.265c0.034-1.291-0.375-2.632-1.411-3.837c-18.431-21.436-34.01-47.146-42.531-74.22
				C168.787,94.419,162.891,64.759,176.047,40.678z M220.362,121.447c0.803,0.381,1.289,0.767,1.799,1.202
				c1.621,1.383,2.904,3.068,4.107,4.812c3.415,4.953,5.936,10.524,8.145,16.098c2.832,7.142,6.15,15.565,7.236,23.566
				c-0.166,0.43-0.288,0.907-0.346,1.449c-0.807,7.604,0.919,14.65,2.448,21.802c-2.109-3.343-4.071-6.852-6.72-9.555
				c-0.28-0.546-0.672-1.078-1.207-1.576c-8.733-8.131-14.115-21.288-17.746-32.375c-1.962-5.984-3.31-12.202-2.884-18.525
				c0.112-1.667,0.691-3.79,1.742-5.137c1.202-1.542,2.011-1.897,2.752-1.956C219.052,121.327,220.829,121.718,220.362,121.447z
				 M206.653,195.585c-1.084-0.174-2.168-0.362-3.248-0.571c-7.564-1.461-16.789-4.188-21.226-11.02
				c-4.015-6.181-2.237-14.04,4.287-17.2C192.511,176.883,199.304,186.515,206.653,195.585z M391.948,296.328
				c6.762,24.89,11.711,50.13,16.869,75.387c2.838,13.898,5.713,27.82,8.75,41.666c0.99,4.511,1.941,8.62,2.489,13.179
				c0.066,0.555,0.126,1.118,0.193,1.681c-2.283,1.904-3.283,5.476-0.569,8.191c0.91,0.91,0.578,0.443,0.583,0.934
				c-0.001,0.001-0.001,0.002-0.001,0.004c-0.032-0.943-0.262,0.406-0.082,0.159c-0.244,0.539-0.562,1.046-0.877,1.543
				c-1.705,2.688-4.904,4.777-7.468,6.554c-6.583,4.565-13.863,8.159-21.12,11.513c-8.076,3.733-17.454,7.01-26.717,8.876
				c-14.329,2.886-29.059,2.772-43.533,4.453c-33.569,3.897-67.75,2.881-101.389-0.219c-13.196-1.216-26.584-2.917-39.319-6.702
				c-3.852-1.145-9.029-3.245-11.343-5.07c-0.627-0.495-1.193-1.058-1.732-1.645c1.01,1.101-0.968-2.069-0.326-0.481
				c-0.646-1.603-0.232-0.066-0.229-1.346c-0.003,1.374,0.281-0.936,0.503-1.528c0.935-2.498-0.001-4.412-1.662-5.48
				c1.485-32.054,2.694-64.137,4.61-96.166c1.156-19.321,2.385-38.659,3.717-57.967c0.659-9.538,2.895-19.078,3.277-28.6
				c0.275-6.881-0.532-14.989,3.432-20.992c0.03-0.046,0.053-0.093,0.083-0.14c0.062,0.003,0.126,0.006,0.189,0.009
				c32.08,1.263,64.217,0.101,96.246-1.825c31.891-1.917,63.354-5.483,94.784-11.278c1.035-0.191,2.071-0.385,3.106-0.577
				c0.231,2.191,0.89,4.426,1.244,6.026c1.441,6.519,3.218,12.968,4.968,19.409C384.296,269.404,388.28,282.823,391.948,296.328z
				 M451.93,192.991c-6.629,8.889-17.228,13.39-27.538,16.438c-10.809,3.194-22.055,4.683-33.141,6.559
				c-15.503,2.625-30.843,6.072-46.397,8.478c-31.62,4.892-63.534,6.875-95.479,8.249c-32.091,1.38-64.274,1.424-96.308-1.174
				c-13.211-1.071-26.457-2.552-39.613-4.176c-11.478-1.417-22.91-3.61-33.805-7.56c-9.865-3.576-21.457-10.209-25.527-20.452
				c-4.688-11.795,5.991-23.054,15.017-28.96c11.607-7.595,26.218-10.265,39.674-12.41c14.169-2.259,28.151-4.544,41.905-8.738
				c6.723-2.049,13.392-4.064,20.448-4.458c1.31-0.073,2.364-0.513,3.172-1.174c2.084,4.613,4.312,9.166,6.71,13.633
				c-8.904,4.004-13.082,13.719-11.6,23.119c1.761,11.166,10.314,18.252,20.411,22.171c10.319,4.007,21.409,4.729,32.3,6.009
				c13.836,1.625,27.354,3.535,41.337,3.472c13.526-0.061,27.024-1.57,40.359-3.757c13.229-2.169,26.224-5.676,39.456-7.712
				c9.177-1.413,21.561-3.81,25.079-13.881c2.88-8.242,1.183-20.644-9.329-21.911c-0.219-0.026-0.434-0.042-0.643-0.045
				c4.014-6.564,7.961-13.165,11.746-19.856c0.233,0.088,0.474,0.169,0.733,0.234c26.321,6.525,58.694-1.43,79.798,19.173
				C459.568,172.92,459.056,183.436,451.93,192.991z"/>
		</g>
	</g>
</g>
</svg>
