<?xml version="1.0" encoding="utf-8"?>
<!-- Generator: Adobe Illustrator 16.0.3, SVG Export Plug-In . SVG Version: 6.00 Build 0)  -->
<!DOCTYPE svg PUBLIC "-//W3C//DTD SVG 1.1//EN" "http://www.w3.org/Graphics/SVG/1.1/DTD/svg11.dtd">
<svg version="1.1" id="Layer_1" xmlns="http://www.w3.org/2000/svg" xmlns:xlink="http://www.w3.org/1999/xlink" x="0px" y="0px"
	 width="512px" height="512px" viewBox="0 0 512 512" style="enable-background:new 0 0 512 512;" xml:space="preserve">
<style type="text/css">
<![CDATA[
	.st0{fill:#127274;}
	.st1{fill:#14B6B9;}
	.st2{fill:#1E4384;}
	.st3{fill:#EF4754;}
	.st4{fill:#EF4823;}
	.st5{fill:#BCBCBC;}
	.st6{fill:#F6851F;}
	.st7{fill:#C56528;}
	.st8{fill:#FCBF95;}
	.st9{fill:#FEBF10;}
	.st10{fill:none;}
	.st11{fill:#010101;}
	.st12{fill:#3AB37C;}
	.st13{fill:#D6E5E5;}
	.st14{fill:#71C598;}
	.st15{fill:#74CCCF;}
]]>
</style>
<g>
	<g>
		<g>
			<path class="st4" d="M229.876,57.419c-11.009,15.053-22.518,29.746-33.619,44.733c-11.188,15.103-21.937,30.72-33.783,45.312
				c-3.152,3.883-6.529,7.58-9.55,11.57c-1.469,1.94-2.947,3.904-4.101,6.054c8.589-0.408,17.18-0.683,25.822-0.812
				c12.294-0.184,24.588-0.627,36.883-0.772c0.122-0.228,0.262-0.443,0.412-0.646c0.652-1.779,1.476-3.521,2.123-5.282
				c1.522-4.144,2.971-8.312,4.285-12.527c2.392-7.67,4.563-15.406,6.56-23.188c4.157-16.211,7.919-32.516,12.122-48.714
				c3.287-12.669,6.558-25.479,8.298-38.464C240.421,42.422,235.285,50.022,229.876,57.419z"/>
		</g>
	</g>
	<g>
		<g>
			<path class="st4" d="M283.149,164.652c-0.107-0.401-0.17-0.79-0.198-1.168c-8.827-23.697-12.741-48.846-16.562-73.75
				c-2.078-13.546-4.033-27.118-5.988-40.683c-0.793-5.498-2.218-10.826-3.771-16.122c-0.174,1.616-0.344,3.231-0.52,4.848
				c-1.568,14.42-5.894,29.258-9.831,43.197c-4.178,14.785-7.139,29.921-11.04,44.784c-2.038,7.765-4.176,15.511-6.652,23.15
				c-1.098,3.385-2.213,6.768-3.416,10.117c-0.536,1.489-1.076,2.977-1.635,4.457c15.09,0.15,30.145,1.238,45.236,1.441
				c4.829,0.065,9.66,0.087,14.49,0.092C283.226,164.894,283.182,164.776,283.149,164.652z"/>
		</g>
	</g>
	<g>
		<g>
			<path class="st4" d="M448.107,165.508c-2.101-2.21-4.228-4.399-6.397-6.542c-8.682-8.571-18.268-16.15-27.4-24.222
				c-9.152-8.088-17.837-16.682-26.112-25.664c-7.985-8.668-15.313-18.054-24.208-25.83c-8.454-7.391-17.623-13.859-26.419-20.823
				c-9.276-7.344-18.39-14.596-28.427-20.917c-9.787-6.164-19.732-12.056-30.152-17.075c-1.129-0.543-2.246-1.103-3.356-1.672
				c6.732,8.367,12.767,17.28,18.63,26.317c9.014,13.89,18.526,27.096,29.05,39.893c10.804,13.137,21.981,25.959,32.849,39.044
				c9.541,11.489,18.456,23.17,27.049,35.349c10.295-0.162,20.597-0.182,30.859,0.365c11.935,0.634,23.791,1.876,35.62,3.473
				C449.17,166.633,448.64,166.069,448.107,165.508z"/>
		</g>
	</g>
	<g>
		<g>
			<path class="st1" d="M289.531,271.008c-1.128-10.486-1.766-21.016-2.841-31.496c-1.047-10.19-2.699-20.312-3.669-30.511
				c-0.909-9.567-0.132-19.2-1.165-28.745c-0.203-1.866,0.417-3.291,1.446-4.255c-5.886-0.016-11.771-0.059-17.657-0.174
				c-7.6-0.148-15.188-0.492-22.778-0.801c0.379,11.57,3.394,22.55,4.54,34.015c0.879,8.776-0.598,18.761,3.124,26.974
				c0.237,0.521,0.378,1.02,0.451,1.5c4.413,3.659,7.521,9.954,9.805,14.612c3.988,8.13,8.423,18.231,7.039,27.597
				c-1.42,9.615-8.743,14.683-17.002,15.476c-0.004,5.862,0.015,11.743,0.543,17.579c0.437,4.809,1.455,9.526,1.854,14.33
				c0.372,4.485,0.606,8.993,1.203,13.457c0.019,0.135,0.035,0.277,0.054,0.415c0.351-0.701,0.702-1.394,1.051-2.068
				c3.058-5.919,7.503-14.5,14.403-16.928c0.661-9.63,5.505-25.523,17.102-25.492c1.716,0.005,3.257,0.384,4.637,1.048
				C291.312,288.673,290.479,279.838,289.531,271.008z"/>
		</g>
	</g>
	<g>
		<g>
			<path class="st4" d="M347.044,134.169c-10.89-13.065-22.074-25.884-32.849-39.045c-10.499-12.824-20.021-26.006-29.05-39.893
				c-5.806-8.928-11.719-17.819-18.413-26.087c1.872,6.256,3.692,12.528,4.64,19.06c1.881,12.983,3.732,25.975,5.721,38.941
				c3.938,25.693,7.866,51.55,17.438,75.868c0.276,0.699,0.411,1.354,0.439,1.964c23.566-0.17,47.129-0.849,70.694-1.278
				c1.403-0.026,2.811-0.054,4.216-0.083C362.593,153.545,355.051,143.777,347.044,134.169z"/>
		</g>
	</g>
	<g>
		<g>
			<path class="st1" d="M297.171,397.476c-0.224-9.196-2.22-18.335-3.57-27.47c-5.885,5.962-12.812,10.711-21.459,11.847
				c-5.354,0.704-10.781-0.136-15.148-2.557c0.881,12.387,3.693,24.656,3.832,37.114c0.008,0.637-0.078,1.221-0.234,1.756
				c5.745,1.746,13.25,0.666,18.586,1.068c6.57,0.495,15.56,2.302,19.177-4.748C296.381,409.332,297.282,402.057,297.171,397.476z"
				/>
		</g>
	</g>
	<g>
		<g>
			<path class="st9" d="M252.422,259.144c-1.495-3.357-6-13.38-8.959-13.61c-3.219-0.251-4.709-2.909-4.648-5.548
				c-1.166-0.966-1.998-2.431-2.056-4.361c-0.103-3.334-1.013-6.611-2.276-9.645c-0.549-1.321-1.281-2.434-2.095-3.583
				c-0.522-0.739-1.862-1.282-1.315-1.707c-3.199,1.674-3.768,9.781-3.838,12.782c-0.053,2.279-2.016,4.725-4.212,4.976
				c-16.638,1.896-27.146,12.666-36.894,25.918c-3.388,4.605-7.283,9.732-12.633,11.837c-3.146,1.238-6.525,1.502-9.85,1.782
				c-10.28,0.863-20.665,0.882-30.963,0.419c-5.216-0.234-18.168,0.582-20.734-5.909c-0.1-0.255-0.178-0.506-0.243-0.755
				c-0.265-0.358-0.505-0.767-0.706-1.245c-4.381-10.419-15.426-14.711-24.789-10.67c-4.465,1.927-8.77,4.321-12.91,6.922
				c-1.966,1.234-3.822,2.605-5.579,4.15c-0.271,0.238-0.734,0.705-1.075,1.064c0.07,0.396,0.076,0.786,0.055,1.172
				c4.096,5.639,8.731,10.983,12.021,17.134c0.541-1.576,1.143-3.135,1.91-4.643c2.332-4.576,7.035-7.171,11.795-7.695
				c8.749-0.964,18.301,5.35,14.723,14.504c0.492,1.41,0.461,3.051-0.436,4.689c-2.533,4.631-4.101,12.846-4.932,19.004
				c-0.986,7.328-1.695,16,1.101,23.001c0.707,1.769,1.966,3.904,3.903,4.326c3.158,0.688,4.498-2.602,5.562-5.19
				c3.182-7.734,4.119-16.875,11.326-21.882c8.505-5.909,20.764-3.013,30.357-2.77c9.727,0.247,16.376,4.812,18.745,15.003
				c1.519,6.532-1.224,19.584,7.871,19.948c4.109,0.164,6.774-2.75,8.744-7.266c5.803-13.304,5.856-29.295,8.337-43.503
				c2.297-13.155,6.076-29.942,19.123-35.673c3.219-1.414,6.019,0.565,7.102,3.174c0.031,0.042,0.064,0.078,0.096,0.122
				c5.242,7.339,10.719,14.768,19.191,17.994c6.324,2.408,13.818,0.951,14.448-7.029
				C258.135,270.754,254.602,264.037,252.422,259.144z"/>
		</g>
	</g>
	<g>
		<g>
			<path class="st9" d="M459.986,358.748c-0.358-0.359-0.847-0.826-1.132-1.064c-1.85-1.545-3.806-2.916-5.875-4.15
				c-4.361-2.602-8.894-4.995-13.599-6.922c-9.859-4.041-21.491,0.251-26.104,10.67c-0.212,0.478-0.465,0.887-0.745,1.245
				c-0.068,0.249-0.15,0.5-0.255,0.755c-2.703,6.491-16.344,5.674-21.836,5.909c-10.846,0.462-21.782,0.444-32.609-0.419
				c-3.5-0.279-7.059-0.543-10.373-1.782c-5.634-2.105-9.736-7.232-13.304-11.837c-10.267-13.252-21.333-24.023-38.854-25.918
				c-2.313-0.25-4.382-2.697-4.436-4.976c-0.074-3-0.674-11.108-4.043-12.782c0.577,0.425-0.834,0.967-1.385,1.706
				c-0.856,1.15-1.629,2.263-2.207,3.584c-1.331,3.034-2.289,6.311-2.396,9.645c-0.061,1.93-0.937,3.395-2.166,4.361
				c0.063,2.638-1.504,5.296-4.895,5.547c-3.116,0.23-7.86,10.253-9.436,13.61c-2.295,4.893-6.017,11.61-5.548,17.238
				c0.664,7.98,8.556,9.437,15.216,7.029c8.924-3.226,14.691-10.654,20.211-17.994c0.033-0.044,0.067-0.08,0.102-0.122
				c1.141-2.609,4.09-4.587,7.479-3.174c12.521,5.223,16.937,19.625,19.451,32.096c0.883,0.851,1.47,2.005,1.578,3.408
				c0.067,0.876-0.108,1.78-0.471,2.609c2.217,13.578,2.597,28.515,8.361,41.063c2.074,4.515,4.881,7.43,9.209,7.265
				c9.578-0.363,6.689-13.415,8.289-19.947c2.495-10.192,9.498-14.757,19.742-15.003c10.104-0.243,23.014-3.139,31.971,2.77
				c7.59,5.007,8.576,14.147,11.927,21.882c1.122,2.589,2.533,5.878,5.858,5.19c2.041-0.422,3.367-2.557,4.111-4.326
				c2.945-7.001,2.198-15.673,1.158-23.001c-0.874-6.158-2.524-14.373-5.192-19.004c-0.944-1.637-0.977-3.279-0.459-4.689
				c-3.769-9.154,6.291-15.468,15.506-14.504c5.012,0.524,9.965,3.12,12.421,7.695c0.809,1.508,1.441,3.067,2.012,4.643
				c3.465-6.151,8.347-11.496,12.66-17.134C459.907,359.534,459.913,359.143,459.986,358.748z"/>
		</g>
	</g>
	<g>
		<g>
			<path class="st15" d="M424.161,439.143c-2.14,1.287-4.504,2.114-6.927,2.267c-0.203,0.357-0.452,0.71-0.761,1.055
				c-16.57,18.537-42.602,18.54-65.576,18.442c-13.705-0.058-27.375,0.771-41.083,0.683c-16.01-0.102-32.009-0.704-48.017-1.039
				c-27.088-0.566-54.555,1.352-81.49-2.262c-12.564-1.686-25.377-4.5-36.796-10.191c-6.374-3.177-12.972-7.23-18.058-12.54
				c0,0.011,0,0.021,0.001,0.032c0.411,8.951,1.38,19.046,7.078,26.39c6.217,8.012,16.741,11.408,26.345,13.172
				c11.18,2.054,22.529,2.454,33.871,2.397c28.366-0.138,56.722,0.597,85.092,0.614c32.432,0.02,64.913-0.663,97.236-3.476
				c12.106-1.053,27.414-1.275,37.418-9.096C420.25,459.529,425.554,448.982,424.161,439.143z"/>
		</g>
	</g>
	<g>
		<g>
			<path class="st4" d="M303.954,364.456c0.59,5.066,1.52,10.13,2.354,15.201c0.503-0.198,1.041-0.309,1.608-0.309h2.064
				C308.77,373.904,306.974,368.521,303.954,364.456z"/>
		</g>
	</g>
	<g>
		<g>
			<path class="st4" d="M216.522,50.302c-16.589,14.469-32.445,29.757-48.077,45.247c-15.735,15.593-31.282,31.342-47.849,46.066
				c-6.64,5.901-13.363,11.062-20.551,16.223c-3.373,2.423-8.404,5.581-11.252,9.497c13.117,0.835,26.272,0.026,39.391-0.981
				c2.844-0.219,5.68-0.399,8.517-0.583c0.638-2.931,2.272-5.813,3.774-8.069c3.414-5.126,7.27-9.858,11.258-14.544
				c11.736-13.792,22.017-29.027,32.788-43.579c12.251-16.55,25.009-32.752,37.091-49.421c2.437-3.362,4.82-6.764,7.162-10.193
				C224.64,43.392,220.522,46.813,216.522,50.302z"/>
		</g>
	</g>
	<g>
		<g>
			<path class="st12" d="M396.14,414.645c-2.941-4.382-8.661-4.148-13.405-3.844c-5.024,0.321-10.058,0.296-15.074,0.614
				c-3.69,0.234-7.315,0.641-8.337,4.812c-1.043,4.259-0.85,8.657-1.553,12.971c-1.545,9.476-7.225,17.444-17.715,17.13
				c-6.662-0.2-12.4-2.926-16.311-8.448c-8.604-12.154-9.13-29.378-11.305-43.594c-0.189-1.236-0.377-2.573-0.576-3.966h-3.1
				c-0.344,0-0.682-0.028-1.014-0.077c0.144,1.488,0.263,2.977,0.326,4.467c0.14,3.274,0.01,6.552,0.122,9.826
				c0.063,1.786,0.097,3.618,0.434,5.378c0.065,0.336,0.094,0.558,0.102,0.7c0.049-0.007,0.122,0.011,0.237,0.089
				c3.532,2.378,2.283,6.303-0.536,8.199c-0.055,0.126-0.104,0.252-0.167,0.38c-5.668,11.358-17.705,12.149-28.977,10.952
				c-10.264-1.091-22.186,1.229-30.582-6.268c-3.245-2.896-1.766-7.132,1.086-8.878c-0.273-7.771-1.484-15.477-2.511-23.19
				c-0.858,0.36-1.861,0.504-2.993,0.335c-11.787-1.761-22.884,0.686-34.527,2.086c-11.143,1.34-22.348,1.829-33.563,1.941
				c-13.194,0.133-35.112-3.066-44.808,8.737c-8.643,10.524-0.929,21.906,8.545,28.47c10.143,7.028,22.604,10.736,34.64,12.823
				c26.626,4.617,53.763,2.703,80.642,3.179c16,0.284,31.995,0.919,47.997,1.099c13.783,0.154,27.518-0.65,41.288-0.647
				c20.376,0.004,46.274,2.486,62.033-12.979C400.647,430.845,400.834,421.639,396.14,414.645z"/>
		</g>
	</g>
	<g>
		<g>
			<path d="M445.918,337.462c-16.104-7.224-35.101-1.773-42.497,14.924c-0.076,0.171-0.138,0.34-0.195,0.508
				c-0.075,0.02-0.146,0.039-0.229,0.06c0.693-0.185-0.993,0.183-1.005,0.186c-0.913,0.154-1.833,0.262-2.751,0.371
				c-4.533,0.538-9.115,0.716-13.675,0.855c-1.675,0.051-3.354,0.089-5.037,0.118c0.655-1.605,0.55-3.461-0.784-5.021
				c-0.025-0.075-0.051-0.154-0.077-0.244c-0.19-0.652-0.309-1.709-0.425-2.506c-0.41-2.838-0.629-5.708-0.845-8.566
				c-0.363-4.874-0.348-9.771-0.718-14.639c-1.475-19.425-2.338-38.892-3.108-58.354c-0.778-19.659-2.093-39.304-2.599-58.973
				c-0.152-5.9-0.146-11.801-0.303-17.702c-0.069-2.58-0.105-5.162-0.088-7.743c0.006-0.863,0.013-1.737,0.074-2.595
				c0.98-0.973,1.568-2.242,1.461-3.606c12.061-0.238,24.135-0.408,36.183-0.062c15.751,0.452,31.421,2.445,46.991,4.762
				c4.671,0.695,7.167-3.886,6.221-7.319c3.016-4.23-4.539-11.899-7.143-14.67c-7.047-7.499-14.667-14.344-22.501-21.007
				c-10.326-8.784-20.396-17.778-29.878-27.476c-9.242-9.451-17.453-19.895-26.818-29.205c-8.742-8.691-18.93-15.819-28.674-23.315
				c-10.088-7.761-19.79-15.697-30.475-22.67c-10.647-6.949-21.662-13.516-33.14-18.989c-4.988-2.378-9.878-4.86-14.119-8.448
				c-1.882-1.594-2.985-3.84-4.794-5.432c-1.703-1.5-3.778-1.353-5.883-1.353c-0.058,0-0.108,0.007-0.164,0.008
				c-1.606-0.287-3.334,0.189-4.717,1.846c-13.721,16.435-31.73,29.279-47.721,43.382c-16.853,14.863-32.994,30.49-48.939,46.312
				c-16.344,16.218-32.594,32.458-49.939,47.621c-9.435,8.249-26.462,15.35-30.867,28.172c-4.767,1.679-5.502,9.753,0.551,10.542
				c19.209,2.504,38.549,1.292,57.878-0.072c-4.382,13.321-1.121,28.083,1.036,41.545c1.148,7.164,1.725,14.347,2.57,21.546
				c1.068,9.079,2.533,18.256,2.241,27.428c-1.237-0.027-2.474-0.06-3.707-0.1c-4.329-0.139-8.68-0.317-12.984-0.855
				c-0.871-0.109-1.745-0.217-2.611-0.371c-0.012-0.002-1.613-0.371-0.955-0.186c-0.078-0.021-0.146-0.041-0.217-0.06
				c-0.055-0.168-0.113-0.336-0.186-0.508c-7.023-16.697-25.062-22.148-40.354-14.924c-6.511,3.077-28.988,13.476-23.443,24.316
				c-0.07,1.208,0.234,2.482,1.07,3.686c4.664,6.716,11.729,13.232,13.99,21.419c0.688,2.482,2.508,3.773,4.444,4.079
				c2.173,2.768,7.492,3.109,9.409-1.31c1.668-3.843,2.066-11.922,6.319-13.643c1.372-0.555,3.403-0.699,4.808-0.229
				c0.08,0.027,0.232,0.084,0.403,0.152c-1.017,1.69-1.022,3.39-0.423,4.813c-3.078,6.918-4.501,14.921-5.343,22.354
				c-1.029,9.081-1.567,20.049,2.609,28.429c3.855,7.736,13.214,13.156,20.968,7.688c8.311-5.861,7.4-16.64,12.455-24.572
				c2.793-4.382,8.225-4.148,12.728-3.844c4.772,0.321,9.552,0.296,14.314,0.614c3.505,0.234,6.946,0.641,7.917,4.812
				c0.99,4.259,0.807,8.657,1.474,12.971c1.468,9.476,6.86,17.444,16.821,17.13c6.326-0.2,11.774-2.926,15.487-8.448
				c8.169-12.154,8.669-29.378,10.733-43.594c1.436-9.875,2.723-25.7,10.805-32.958c5.961,8.125,12.998,16.048,22.308,19.268
				c0.002,6.612,0.043,13.217,0.539,19.814c0.417,5.553,1.594,10.987,2.031,16.539c0.646,8.204,0.381,18.735,5.353,25.745
				c0.229,0.323,0.476,0.603,0.732,0.854c-0.567,2.768-0.812,5.55-0.571,8.283c-1.161,0.963-1.991,2.376-2.086,4.212
				c-0.211,4.066-0.068,8.11,0.258,12.143c-15.747-2.282-30.816,1.562-46.435,2.895c-14.744,1.258-29.498,0.616-44.257,1.143
				c-10.012,0.358-20.678,2.465-28.674,8.852c-2.924,2.336-5.26,5.177-6.958,8.313c-2.54,0.429-4.921,2.373-4.935,5.654
				c-0.091,21.443-4.036,46.666,11.94,63.816c14.646,15.721,41.665,16.196,61.46,16.433c27.529,0.328,55.09,0.46,82.626,0.605
				c32.467,0.17,64.956-0.413,97.342-2.831c17.1-1.277,37.54-1.498,51.653-12.532c12.572-9.829,20.133-29.794,12.653-44.733
				c-0.011-0.023-0.024-0.042-0.036-0.065c3.111-7.97,2.568-17.673,1.592-25.851c-0.888-7.432-2.386-15.435-5.627-22.353
				c0.631-1.423,0.626-3.124-0.446-4.813c0.182-0.068,0.341-0.125,0.425-0.152c1.479-0.47,3.619-0.326,5.064,0.229
				c4.479,1.72,4.898,9.799,6.654,13.643c2.02,4.419,7.621,4.078,9.909,1.31c2.04-0.306,3.958-1.597,4.681-4.079
				c2.382-8.187,9.821-14.703,14.734-21.419c0.88-1.203,1.2-2.477,1.127-3.686C476.447,350.938,452.776,340.54,445.918,337.462z
				 M278.991,24.436c10.42,5.019,20.365,10.911,30.152,17.075c10.037,6.321,19.15,13.572,28.427,20.917
				c8.796,6.964,17.965,13.432,26.419,20.823c8.895,7.776,16.223,17.162,24.208,25.83c8.275,8.982,16.96,17.576,26.112,25.664
				c9.133,8.071,18.719,15.651,27.4,24.222c2.17,2.143,4.297,4.332,6.397,6.542c0.532,0.561,1.062,1.125,1.584,1.697
				c-11.829-1.597-23.686-2.839-35.62-3.473c-10.263-0.546-20.564-0.526-30.859-0.365c-8.593-12.178-17.508-23.859-27.049-35.349
				c-10.867-13.085-22.045-25.907-32.849-39.044c-10.523-12.797-20.036-26.002-29.05-39.893c-5.863-9.037-11.897-17.95-18.63-26.317
				C276.745,23.333,277.862,23.893,278.991,24.436z M285.146,55.232c9.029,13.887,18.551,27.069,29.05,39.893
				c10.774,13.161,21.959,25.979,32.849,39.045c8.007,9.608,15.549,19.375,22.837,29.449c-1.405,0.029-2.812,0.057-4.216,0.083
				c-23.565,0.429-47.128,1.108-70.694,1.278c-0.028-0.611-0.163-1.266-0.439-1.964c-9.572-24.318-13.5-50.175-17.438-75.868
				c-1.988-12.966-3.84-25.958-5.721-38.941c-0.947-6.532-2.768-12.804-4.64-19.06C273.427,37.413,279.34,46.304,285.146,55.232z
				 M297.825,240.41c-0.526-10.186-2.544-20.359-3.652-30.496c-1.111-10.155-0.248-20.37-1.348-30.504
				c-0.16-1.478-0.776-2.605-1.634-3.405c23.286-0.084,46.57-0.752,69.849-1.226c-0.039,0.196-0.089,0.386-0.115,0.59
				c-0.733,5.414-0.311,11.085-0.152,16.525c0.604,20.771,1.602,41.5,2.377,62.264c0.873,23.413,1.833,46.827,3.562,70.194
				c0.444,5.999,0.473,12.02,0.99,18.022c0.294,3.388,0.312,8.547,2.095,12.091c-4.338-0.104-8.67-0.335-12.968-0.772
				c-1.426-0.145-2.846-0.341-4.253-0.612c-0.199-0.039-0.736-0.206-1.037-0.293c-0.774-0.336-1.504-0.733-2.188-1.247
				c-5.302-3.993-8.845-10.398-13.038-15.45c-8.91-10.732-21.171-18.49-34.864-21.042c-0.276-1.876-0.707-3.852-1.31-5.787
				c1.553-0.929,2.699-2.563,2.688-4.852C302.713,282.96,298.933,261.797,297.825,240.41z M298.354,414.487
				c-3.617,7.049-12.606,5.242-19.177,4.748c-5.336-0.402-12.841,0.677-18.586-1.068c0.156-0.535,0.242-1.12,0.234-1.756
				c-0.139-12.458-2.951-24.727-3.832-37.114c4.367,2.421,9.795,3.261,15.148,2.557c8.646-1.136,15.574-5.885,21.459-11.847
				c1.351,9.135,3.347,18.273,3.57,27.47C297.282,402.057,296.381,409.332,298.354,414.487z M260.787,252.126
				c-2.284-4.658-5.392-10.953-9.805-14.612c-0.073-0.479-0.214-0.979-0.451-1.5c-3.722-8.212-2.245-18.198-3.124-26.974
				c-1.146-11.464-4.161-22.444-4.54-34.015c7.59,0.31,15.179,0.653,22.778,0.801c5.886,0.115,11.771,0.158,17.657,0.174
				c-1.029,0.964-1.649,2.389-1.446,4.255c1.033,9.544,0.256,19.177,1.165,28.745c0.97,10.198,2.622,20.32,3.669,30.511
				c1.075,10.48,1.713,21.01,2.841,31.496c0.948,8.83,1.781,17.665,2.139,26.531c-1.38-0.665-2.921-1.043-4.637-1.048
				c-11.597-0.032-16.44,15.861-17.102,25.492c-6.9,2.428-11.346,11.009-14.403,16.928c-0.349,0.674-0.7,1.367-1.051,2.068
				c-0.019-0.138-0.035-0.28-0.054-0.415c-0.597-4.463-0.831-8.972-1.203-13.457c-0.398-4.804-1.417-9.521-1.854-14.33
				c-0.528-5.836-0.547-11.717-0.543-17.579c8.259-0.793,15.582-5.861,17.002-15.476
				C269.21,270.357,264.775,260.256,260.787,252.126z M246.279,80.974c3.938-13.938,8.263-28.777,9.831-43.197
				c0.176-1.616,0.346-3.232,0.52-4.848c1.554,5.296,2.979,10.625,3.771,16.122c1.955,13.565,3.91,27.137,5.988,40.683
				c3.82,24.903,7.734,50.053,16.562,73.75c0.028,0.378,0.091,0.767,0.198,1.168c0.032,0.124,0.076,0.241,0.113,0.363
				c-4.83-0.005-9.661-0.027-14.49-0.092c-15.092-0.203-30.146-1.291-45.236-1.441c0.559-1.48,1.099-2.968,1.635-4.457
				c1.203-3.349,2.318-6.732,3.416-10.117c2.477-7.639,4.614-15.385,6.652-23.15C239.141,110.895,242.102,95.759,246.279,80.974z
				 M150.422,244.893c-0.936-7.642-1.492-15.334-2.61-22.951c-1.057-7.202-2.364-14.359-3.175-21.597
				c-0.681-6.08-1.455-13.157,0.632-19.064c0.63-1.788,0.366-3.453-0.393-4.801c8.924-0.607,17.84-1.121,26.734-1.188
				c15.323-0.117,30.639-0.748,45.963-0.853c4.769-0.033,9.531,0.056,14.293,0.196c0.193,12.45,3.472,24.262,4.702,36.562
				c0.005,0.046,0.009,0.093,0.013,0.139c-1.674-1.035-3.569-1.636-5.71-1.63c-8.541,0.025-12.525,10.273-13.688,18.558
				c-13.002,2.552-24.643,10.31-33.104,21.042c-3.982,5.051-7.346,11.457-12.381,15.45c-0.648,0.514-1.342,0.91-2.077,1.247
				c-0.286,0.087-0.796,0.254-0.985,0.293c-1.336,0.271-2.684,0.467-4.037,0.612c-4.209,0.451-8.451,0.685-12.698,0.783
				C152.052,260.053,151.354,252.516,150.422,244.893z M245.328,34.684c-1.74,12.985-5.011,25.795-8.298,38.464
				c-4.203,16.198-7.965,32.503-12.122,48.714c-1.996,7.782-4.168,15.518-6.56,23.188c-1.314,4.215-2.763,8.383-4.285,12.527
				c-0.647,1.761-1.471,3.503-2.123,5.282c-0.15,0.203-0.29,0.417-0.412,0.646c-12.295,0.145-24.589,0.589-36.883,0.772
				c-8.643,0.129-17.233,0.403-25.822,0.812c1.153-2.15,2.632-4.114,4.101-6.054c3.021-3.99,6.397-7.688,9.55-11.57
				c11.847-14.592,22.596-30.21,33.783-45.312c11.102-14.987,22.61-29.68,33.619-44.733
				C235.285,50.022,240.421,42.422,245.328,34.684z M140.476,157.701c-1.502,2.256-3.137,5.139-3.774,8.069
				c-2.837,0.184-5.673,0.364-8.517,0.583c-13.118,1.008-26.273,1.817-39.391,0.981c2.848-3.916,7.879-7.074,11.252-9.497
				c7.188-5.161,13.911-10.322,20.551-16.223c16.566-14.724,32.113-30.473,47.849-46.066c15.632-15.489,31.488-30.777,48.077-45.247
				c4-3.488,8.117-6.91,12.252-10.338c-2.342,3.43-4.726,6.831-7.162,10.193c-12.082,16.668-24.84,32.871-37.091,49.421
				c-10.771,14.551-21.052,29.787-32.788,43.579C147.745,147.842,143.89,152.575,140.476,157.701z M243.242,283.411
				c-8.473-3.226-13.949-10.654-19.191-17.994c-0.031-0.044-0.064-0.08-0.096-0.122c-1.083-2.609-3.883-4.587-7.102-3.174
				c-13.047,5.731-16.826,22.518-19.123,35.673c-2.48,14.208-2.534,30.199-8.337,43.503c-1.97,4.516-4.635,7.43-8.744,7.266
				c-9.095-0.364-6.353-13.416-7.871-19.948c-2.369-10.192-9.019-14.757-18.745-15.003c-9.594-0.243-21.853-3.139-30.357,2.77
				c-7.207,5.007-8.145,14.147-11.326,21.882c-1.064,2.589-2.404,5.878-5.562,5.19c-1.938-0.422-3.196-2.557-3.903-4.326
				c-2.796-7.001-2.087-15.673-1.101-23.001c0.831-6.158,2.398-14.373,4.932-19.004c0.896-1.638,0.928-3.279,0.436-4.689
				c3.578-9.154-5.974-15.468-14.723-14.504c-4.76,0.524-9.463,3.12-11.795,7.695c-0.768,1.508-1.369,3.067-1.91,4.643
				c-3.29-6.151-7.926-11.496-12.021-17.134c0.021-0.386,0.016-0.777-0.055-1.172c0.341-0.359,0.805-0.826,1.075-1.064
				c1.757-1.545,3.613-2.916,5.579-4.15c4.141-2.601,8.445-4.995,12.91-6.922c9.363-4.041,20.408,0.251,24.789,10.67
				c0.201,0.478,0.441,0.887,0.706,1.245c0.065,0.249,0.144,0.5,0.243,0.755c2.566,6.49,15.519,5.674,20.734,5.909
				c10.298,0.462,20.683,0.444,30.963-0.419c3.324-0.279,6.703-0.543,9.85-1.782c5.35-2.105,9.245-7.232,12.633-11.837
				c9.748-13.252,20.256-24.023,36.894-25.918c2.196-0.25,4.159-2.697,4.212-4.976c0.07-3,0.639-11.108,3.838-12.782
				c-0.547,0.425,0.793,0.967,1.315,1.707c0.813,1.15,1.546,2.262,2.095,3.583c1.264,3.034,2.174,6.311,2.276,9.645
				c0.058,1.93,0.89,3.395,2.056,4.361c-0.061,2.639,1.43,5.297,4.648,5.548c2.959,0.23,7.464,10.253,8.959,13.61
				c2.18,4.893,5.713,11.61,5.269,17.238C257.061,284.362,249.566,285.819,243.242,283.411z M131.394,404.997
				c9.695-11.803,31.613-8.604,44.808-8.737c11.216-0.113,22.421-0.602,33.563-1.941c11.644-1.4,22.74-3.848,34.527-2.086
				c1.132,0.169,2.135,0.025,2.993-0.335c1.026,7.713,2.237,15.418,2.511,23.19c-2.852,1.746-4.331,5.981-1.086,8.878
				c8.396,7.496,20.318,5.177,30.582,6.268c11.271,1.197,23.309,0.406,28.977-10.952c0.063-0.128,0.112-0.254,0.167-0.38
				c2.819-1.896,4.068-5.821,0.536-8.199c-0.115-0.078-0.188-0.096-0.237-0.089c-0.008-0.142-0.036-0.364-0.102-0.7
				c-0.337-1.76-0.37-3.592-0.434-5.378c-0.112-3.274,0.018-6.552-0.122-9.826c-0.063-1.49-0.183-2.979-0.326-4.467
				c0.332,0.049,0.67,0.077,1.014,0.077h3.1c0.199,1.394,0.387,2.73,0.576,3.966c2.175,14.216,2.701,31.44,11.305,43.594
				c3.91,5.522,9.648,8.249,16.311,8.448c10.49,0.314,16.17-7.654,17.715-17.13c0.703-4.313,0.51-8.712,1.553-12.971
				c1.021-4.172,4.646-4.579,8.337-4.812c5.017-0.318,10.05-0.293,15.074-0.614c4.744-0.304,10.464-0.538,13.405,3.844
				c4.694,6.995,4.508,16.201,10.398,22.298c-15.759,15.465-41.657,12.983-62.033,12.979c-13.771-0.003-27.505,0.801-41.288,0.647
				c-16.002-0.18-31.997-0.815-47.997-1.099c-26.879-0.477-54.016,1.438-80.642-3.179c-12.035-2.087-24.497-5.795-34.64-12.823
				C130.465,426.903,122.751,415.521,131.394,404.997z M303.954,364.456c3.02,4.065,4.815,9.448,6.027,14.893h-2.064
				c-0.567,0-1.105,0.111-1.608,0.309C305.474,374.585,304.544,369.521,303.954,364.456z M412.495,465.591
				c-10.004,7.821-25.312,8.043-37.418,9.096c-32.323,2.813-64.805,3.496-97.236,3.476c-28.37-0.017-56.726-0.752-85.092-0.614
				c-11.342,0.056-22.691-0.343-33.871-2.397c-9.604-1.765-20.128-5.161-26.345-13.172c-5.698-7.344-6.667-17.439-7.078-26.39
				c-0.001-0.011-0.001-0.021-0.001-0.032c5.086,5.31,11.684,9.363,18.058,12.54c11.419,5.692,24.231,8.506,36.796,10.191
				c26.936,3.614,54.402,1.696,81.49,2.262c16.008,0.334,32.007,0.937,48.017,1.039c13.708,0.088,27.378-0.741,41.083-0.683
				c22.975,0.098,49.006,0.095,65.576-18.442c0.309-0.345,0.558-0.697,0.761-1.055c2.423-0.153,4.787-0.979,6.927-2.267
				C425.554,448.982,420.25,459.529,412.495,465.591z M459.929,359.92c-4.313,5.639-9.195,10.983-12.66,17.134
				c-0.57-1.576-1.203-3.135-2.012-4.643c-2.456-4.576-7.409-7.171-12.421-7.695c-9.215-0.964-19.274,5.35-15.506,14.504
				c-0.518,1.41-0.485,3.052,0.459,4.689c2.668,4.631,4.318,12.846,5.192,19.004c1.04,7.328,1.787,16-1.158,23.001
				c-0.744,1.769-2.07,3.904-4.111,4.326c-3.325,0.688-4.736-2.602-5.858-5.19c-3.351-7.734-4.337-16.875-11.927-21.882
				c-8.957-5.909-21.867-3.013-31.971-2.77c-10.244,0.246-17.247,4.812-19.742,15.003c-1.6,6.532,1.289,19.584-8.289,19.947
				c-4.328,0.165-7.135-2.75-9.209-7.265c-5.765-12.548-6.145-27.486-8.361-41.063c0.362-0.829,0.538-1.733,0.471-2.609
				c-0.108-1.403-0.695-2.557-1.578-3.408c-2.515-12.47-6.93-26.873-19.451-32.096c-3.389-1.414-6.338,0.565-7.479,3.174
				c-0.034,0.042-0.068,0.078-0.102,0.122c-5.52,7.339-11.287,14.768-20.211,17.994c-6.66,2.408-14.552,0.951-15.216-7.029
				c-0.469-5.628,3.253-12.346,5.548-17.238c1.575-3.357,6.319-13.38,9.436-13.61c3.391-0.251,4.958-2.909,4.895-5.547
				c1.229-0.967,2.105-2.431,2.166-4.361c0.107-3.334,1.065-6.611,2.396-9.645c0.578-1.321,1.351-2.434,2.207-3.584
				c0.551-0.739,1.962-1.281,1.385-1.706c3.369,1.674,3.969,9.781,4.043,12.782c0.054,2.279,2.122,4.725,4.436,4.976
				c17.521,1.896,28.588,12.666,38.854,25.918c3.567,4.605,7.67,9.732,13.304,11.837c3.314,1.238,6.873,1.502,10.373,1.782
				c10.827,0.863,21.764,0.882,32.609,0.419c5.492-0.234,19.133,0.582,21.836-5.909c0.104-0.255,0.187-0.506,0.255-0.755
				c0.28-0.358,0.533-0.767,0.745-1.245c4.613-10.419,16.245-14.711,26.104-10.67c4.705,1.927,9.237,4.32,13.599,6.922
				c2.069,1.234,4.025,2.605,5.875,4.15c0.285,0.238,0.773,0.705,1.132,1.064C459.913,359.143,459.907,359.534,459.929,359.92z"/>
		</g>
	</g>
</g>
</svg>
