<?xml version="1.0" encoding="utf-8"?>
<!-- Generator: Adobe Illustrator 16.0.3, SVG Export Plug-In . SVG Version: 6.00 Build 0)  -->
<!DOCTYPE svg PUBLIC "-//W3C//DTD SVG 1.1//EN" "http://www.w3.org/Graphics/SVG/1.1/DTD/svg11.dtd">
<svg version="1.1" id="Layer_1" xmlns="http://www.w3.org/2000/svg" xmlns:xlink="http://www.w3.org/1999/xlink" x="0px" y="0px"
	 width="512px" height="512px" viewBox="0 0 512 512" style="enable-background:new 0 0 512 512;" xml:space="preserve">
<style type="text/css">
<![CDATA[
	.st0{fill:#127274;}
	.st1{fill:#14B6B9;}
	.st2{fill:#1E4384;}
	.st3{fill:#EF4754;}
	.st4{fill:#EF4823;}
	.st5{fill:#BCBCBC;}
	.st6{fill:#F6851F;}
	.st7{fill:#C56528;}
	.st8{fill:#FCBF95;}
	.st9{fill:#FEBF10;}
	.st10{fill:none;}
	.st11{fill:#010101;}
	.st12{fill:#3AB37C;}
	.st13{fill:#D6E5E5;}
	.st14{fill:#71C598;}
	.st15{fill:#74CCCF;}
]]>
</style>
<g>
	<g>
		<g>
			<path class="st12" d="M296.973,448.514c-3.387-6.502-6.627-13.651-8.801-20.659c-5.127-16.53-9.445-33.43-11.548-50.636
				c-1.083-8.858-1.089-18.032-0.876-26.945c0.192-7.961,1.77-16.122,1.674-24.03c-0.063-5.326-0.375-11.478,0.616-17.135
				c-4.45,1.371-8.166,4.891-11.183,8.359c-5.08,5.842-9.206,12.394-12.729,19.276c-7.059,13.788-11.191,28.022-12.186,43.56
				c-1.137,17.75,2.235,36.454,13.252,50.843c11.754,15.355,28.076,19.964,45.832,23.626
				C299.527,452.784,298.127,450.73,296.973,448.514z"/>
		</g>
	</g>
	<g>
		<g>
			<path class="st4" d="M270.565,458.052c-10.404-4.889-19.206-12.258-25.788-21.712c-11.869-17.048-15.684-37.768-14.107-58.227
				c1.369-17.759,6.305-34.382,15.012-49.916c2.738-4.886,6.076-10.505,10.074-15.616c-0.557,0.232-1.111,0.467-1.662,0.712
				c-1.893,1.021-3.824,1.968-5.789,2.848c-5.707,3.083-11.079,6.814-15.986,10.971c-17.002,14.406-34.65,36.742-29.363,60.527
				c5.602,25.189,21.174,47.939,40.607,64.889c1.545-1.052,3.572-1.229,5.621,0.271c8.545,6.253,19.007,8.447,29.514,8.451
				C275.928,460.341,273.209,459.295,270.565,458.052z"/>
		</g>
	</g>
	<g>
		<g>
			<path class="st8" d="M235.506,296.6c-5.764,1.325-11.434,4.123-14.151,9.175c1.068,1.944,2.154,3.877,3.284,5.787
				c0.131-0.034,0.26-0.071,0.396-0.099c5.547-1.086,11.019-2.68,16.252-4.809c3.141-1.786,6.369-3.38,9.667-4.747
				c0.192-0.112,0.378-0.231,0.569-0.346C246.844,297.88,241.279,295.273,235.506,296.6z"/>
		</g>
	</g>
	<g>
		<g>
			<path class="st8" d="M362.617,325.945c-0.979-3.48-2.018-7.151-3.859-10.297c-4.699-8.025-11.283-6.749-19.427-5.243
				c-0.192,0.035-0.378,0.058-0.563,0.077c-0.393,1.323-0.782,2.646-1.16,3.972c1.525,0.966,3.03,1.958,4.508,2.981
				c7.566,5.236,14.955,11.286,21.408,18.14c0.016-0.021,0.028-0.041,0.043-0.062C365.074,333.474,363.259,328.227,362.617,325.945z
				"/>
		</g>
	</g>
	<g>
		<g>
			<path class="st5" d="M436.888,137.541c1.173-24.161-18.903-46.187-36.802-59.741c-19.395-14.686-41.283-25.408-64.879-31.401
				c-26.363-6.697-54.547-9.225-81.564-5.462c-15.915,2.217-30.961,6.512-45.832,12.537c-6.541,2.65-13.051,5.648-19.035,9.407
				c-2.9,1.821-5.529,4.326-8.476,5.999c-0.669,0.381-1.866,0.875-2.782,1.466c-0.191,0.712-0.51,1.396-0.93,2.006
				c2.848,2.027,5.506,4.291,7.893,6.734c17.26,17.669,26.137,41.689,33.082,64.927c3.984,13.333,7.387,27.451,7.105,41.465
				c-0.207,10.444-1.375,22.489-10.031,29.586c-14.967,12.272-38.115,2.135-53.168-4.747c-4.47-2.043-3.21-9.615,1.461-10.481
				l3.079-0.571c3.168-0.587,5.521,1.203,6.558,3.518c7.075,3.051,14.645,5.756,22.191,6.211
				c8.724,0.527,15.408-2.396,17.303-11.599c2.736-13.286,0.508-27.437-2.811-40.398c-5.984-23.378-14.137-49.889-31.062-67.885
				c-7.431-7.902-17.069-14.774-28.326-15.126c-9.632-0.301-16.965,3.686-22.961,11.205c-11.67,14.633-17.716,37.734-15.234,56.277
				c0.971,7.248-10.118,10.271-11.098,2.957c-0.82-6.138-0.888-12.398-0.329-18.615c-6.827,5.487-12.219,13.8-16.634,20.921
				c-7.357,11.861-13.77,25.971-12.081,40.294c1.604,13.612,11.327,22.753,20.203,32.234c8.405,8.977,15.331,18.467,18.54,30.513
				c2.43,9.12,3.824,20.048-0.812,28.746c-4.882,9.161-15.332,12.621-25.241,11.32c-19.666-2.582-36.082-26.292-28.935-45.478
				c-5.427-0.809-10.245,2.232-10.433,8.36c-0.175,5.719,1.075,11.225,2.32,16.772c2.844,12.673,8.633,23.257,20.679,29.308
				c11.882,5.968,26.251,6.401,38.608,1.56c14.375-5.633,24.447-20.495,24.974-35.83c0.213-6.221,10.343-8.052,11.288-1.429
				c0.157,1.088,0.869,7.674,3.252,7.024c3.58-0.975,5.135-4.557,6.865-7.507c3.867-6.595,8.789-12.823,12.013-19.767
				c0.028-0.062,0.062-0.115,0.092-0.175c0.06-0.672,0.232-1.365,0.555-2.068c0.108-0.237,0.216-0.473,0.325-0.709
				c0.839-1.825,3.111-2.754,4.982-2.801c3.754-0.093,4.885,2.877,7.369,4.933c3.141,2.602,6.123,5.382,8.885,8.39
				c5.916,6.448,11.518,13.311,16.005,20.841c4.497,7.552,8.403,15.428,12.39,23.258c4.878-4.961,11.699-8.303,18.289-9.241
				c10.389-1.478,19.729,2.716,27.316,9.333c1.351-1.192,2.66-2.44,3.906-3.762c-1.342-13.208-8.703-25.478-8.472-38.901
				c0.198-11.642,3.602-23.38,9.251-33.545c5.264-9.471,12.543-18.722,22.68-23.2c9.273-4.097,20.043-4.734,29.918-2.73
				c9.84,1.997,19.319,6.612,25.794,14.452c7.351,8.901,9.507,21.519,9.8,32.743c0.53,20.27-5.455,39.528-11.445,58.71
				c10.632-1.182,20.363,0.452,26.236,11.558c2.732,5.169,4.82,11.041,5.873,16.793c0.7,3.806,1.505,8.51,0.078,12.336
				c1.232-1.527,2.125-3.43,2.972-5.149c1.774-3.604,4.058-6.915,6.218-10.3c5.051-7.91,10.139-15.824,14.617-24.076
				c8.467-15.601,15.142-32.46,21.01-49.199c5.924-16.892,10.783-34.407,12.084-52.329c0.109-1.507,0.206-3.012,0.3-4.518
				c1.976-11.936,3.785-23.889,4.741-35.971C436.852,154.556,437.728,145.433,436.888,137.541z M132.478,226.825
				c-2.913,7.974-10.819,9.991-18.504,10.038c-7.064,0.043-7.938-10.927-0.847-10.971c2.439-0.015,5.13,0.029,7.19-0.84
				c0.714-0.301,0.674-0.207,1.156-0.795c0.478-0.584,0.781-1.322,1.148-2.327c1.031-2.82,4.916-3.699,7.375-2.48
				C132.901,220.891,133.505,224.011,132.478,226.825z"/>
		</g>
	</g>
	<g>
		<g>
			<path class="st12" d="M364.421,355.052c-8.13-12.6-20.083-23.452-33.524-31.579c-2.092-0.054-4.207-1.16-5.256-3.002
				c-5.023-2.7-10.205-5.02-15.432-6.913c11.969,14.708,18.568,35.024,23.949,52.016c7.867,24.844,12.373,56.383,0.654,80.898
				c1.627-0.845,3.239-1.721,4.82-2.64C369.977,426.239,384.223,385.744,364.421,355.052z"/>
		</g>
	</g>
	<g>
		<g>
			<path class="st4" d="M323.321,369.371c-3.574-11.213-7.447-22.429-12.71-32.979c-4.947-9.922-11.428-20.566-21.34-26.182
				c-0.52,2.784-0.433,5.974-0.447,7.943c-0.047,5.868-0.379,11.47-0.883,17.326c-1.32,15.402-1.463,31.413,0.955,46.711
				c2.393,15.137,5.695,30.981,11.343,45.279c2.479,6.276,4.876,13.222,8.778,18.768c1.529,2.173,3.195,4.238,4.873,6.295
				c0.777,0.245,1.553,0.714,2.279,1.471c0.077,0.081,0.143,0.159,0.218,0.239c1.897-0.639,3.782-1.309,5.647-2.029
				c-0.324-0.509-0.55-1.112-0.669-1.799c0.156-0.161,0.302-0.347,0.416-0.591c0.846-1.798,1.554-3.639,2.151-5.51
				c1.08-2.157,1.743-4.437,2.157-6.791C334.115,416.267,329.94,390.136,323.321,369.371z"/>
		</g>
	</g>
	<g>
		<g>
			<path d="M469.998,156.216c-7.195-1.69-10.353,9.353-3.146,11.045c7.447,1.749-1.617,15.525-6.934,15.675
				c-3.296,0.092-11.596-4.019-15.355-8.565c0.02-0.21,0.035-0.421,0.056-0.631c0.85-8.504,1.8-16.974,1.827-25.508
				c0.436-0.602,0.76-1.356,0.928-2.284c4.818-26.972-11.756-52.857-31.357-69.882c-19.686-17.096-42.585-29.829-67.397-37.774
				c-26.31-8.424-54.868-11.639-82.392-10.021c-16.441,0.967-32.768,3.977-48.413,9.125c-14.057,4.627-28.495,10.71-40.528,19.413
				c-2.758,1.994-8.881,5.726-11.023,9.688c-12.629-5.494-27.053-6.042-38.918,2.505c-11.511,8.292-18.24,21.738-22.551,34.908
				c-0.8,2.441-1.51,4.926-2.128,7.44c-9.233,2.799-15.907,11.515-21.478,18.867c-6.689,8.831-12.334,18.206-16.507,28.488
				c-4.899,12.065-6.396,25.58-2.743,38.17c3.402,11.727,12.389,20.735,20.564,29.334c7.875,8.28,14.006,16.528,16.984,27.702
				c1.742,6.543,3.65,17.892-2.953,22.545c-7.65,5.392-17.855,0.807-23.629-4.976c-6.54-6.549-9.859-16.499-6.092-25.227
				c0.689-1.597,0.598-2.982,0.027-4.087c1.212-2.395,0.85-5.321-2.345-6.714c-9.026-3.937-20.54-3.679-27.062,4.661
				c-4.911,6.283-4.389,14.713-3.38,22.154c2.379,17.562,8.464,33.427,23.532,43.807c14.486,9.98,34.189,11.327,50.569,5.837
				c14.95-5.009,26.56-17.223,31.774-31.83c0.086,0.047,0.168,0.101,0.256,0.145c5.266,2.692,11.512,1.016,15.794-2.737
				c4.416-3.871,6.876-9.379,9.938-14.288c2.203-3.527,4.686-7,6.783-10.639c2.908,2.777,5.854,5.524,8.549,8.543
				c5.273,5.915,9.766,12.239,13.738,19.089c5.023,8.658,9.289,17.714,13.9,26.578c-0.017,0.104-0.047,0.203-0.063,0.306
				c-0.493,3.235,1.445,5.662,3.837,6.707c1.902,3.404,3.902,6.757,6.068,10.02c-3.605,3.507-6.949,7.174-9.975,10.892
				c-7.185,8.828-12.965,18.759-16.173,29.723c-3.558,12.153-1.851,24.144,1.94,36.011c7.31,22.868,22.13,43.158,39.985,59.229
				c5.521,1.644,10.646,4.826,15.659,8.213c0.259-0.211,0.502-0.446,0.725-0.706c16.772,7.971,37.426,6.092,55.002,2.006
				c2.08-0.484,4.163-1.022,6.246-1.591c2.678,1.098,6.031,0.185,7.432-2.231c16.369-5.365,32.133-13.646,43.982-25.976
				c16.328-16.987,23.986-40.471,20.725-63.743c-1.19-8.498-4.143-16.346-8.301-23.547c6.301-2.626,9.666-8.48,12.658-14.576
				c4.352-8.87,10.939-17.03,15.988-25.552c9.953-16.797,17.27-35.159,24.082-53.417c6.647-17.814,11.617-36.123,13.836-55.031
				c0.585-4.989,0.855-10.003,1.109-15.019c6.245,4.098,13.672,6.411,19.432,5.579C479.326,191.721,489.988,160.913,469.998,156.216
				z M249.184,452.799c-2.049-1.499-4.076-1.323-5.621-0.271c-19.434-16.949-35.006-39.699-40.607-64.889
				c-5.287-23.785,12.361-46.121,29.363-60.527c4.907-4.157,10.279-7.888,15.986-10.971c1.965-0.88,3.896-1.827,5.789-2.848
				c0.551-0.245,1.105-0.479,1.662-0.712c-3.998,5.111-7.336,10.729-10.074,15.616c-8.707,15.534-13.643,32.157-15.012,49.916
				c-1.576,20.459,2.238,41.179,14.107,58.227c6.582,9.454,15.384,16.823,25.788,21.712c2.644,1.243,5.362,2.289,8.132,3.198
				C268.19,461.247,257.729,459.052,249.184,452.799z M221.354,305.775c2.718-5.052,8.388-7.85,14.151-9.175
				c5.773-1.327,11.338,1.28,16.018,4.961c-0.191,0.115-0.377,0.234-0.569,0.346c-3.298,1.367-6.526,2.961-9.667,4.747
				c-5.233,2.129-10.705,3.723-16.252,4.809c-0.137,0.027-0.266,0.064-0.396,0.099C223.509,309.653,222.423,307.719,221.354,305.775
				z M255.193,431.147c-11.017-14.39-14.389-33.093-13.252-50.843c0.994-15.538,5.127-29.771,12.186-43.56
				c3.522-6.882,7.648-13.435,12.729-19.276c3.017-3.468,6.732-6.988,11.183-8.359c-0.991,5.657-0.68,11.809-0.616,17.135
				c0.096,7.909-1.481,16.069-1.674,24.03c-0.213,8.913-0.207,18.087,0.876,26.945c2.103,17.206,6.421,34.106,11.548,50.636
				c2.174,7.008,5.414,14.157,8.801,20.659c1.154,2.216,2.555,4.27,4.053,6.26C283.27,451.112,266.947,446.502,255.193,431.147z
				 M327.378,308.609c-10.87-5.556-22.589-9.533-34.597-11.263c-1.592-2.412-4.671-3.694-7.62-1.405
				c-0.238,0.186-0.444,0.393-0.669,0.587c-2.971-0.162-5.951-0.192-8.934-0.055c0.697-1.193,1.113-2.395,1.051-3.562
				c-0.388-7.256-2.162-14.144-4.245-21.074c-2.063-6.873-4.495-13.916-4.37-21.176c0.104-6.026,1.701-11.944,3.668-17.599
				c3.715-10.676,11.218-23.386,22.223-27.778c9.66-3.855,20.705-2.86,30.223,0.839c11.152,4.334,15.771,14.169,17.645,25.324
				C346.137,257.535,334.904,283.717,327.378,308.609z M339.331,310.405c8.144-1.506,14.728-2.782,19.427,5.243
				c1.842,3.146,2.881,6.816,3.859,10.297c0.642,2.282,2.457,7.529,0.949,9.566c-0.015,0.021-0.027,0.042-0.043,0.062
				c-6.453-6.854-13.842-12.903-21.408-18.14c-1.478-1.023-2.982-2.015-4.508-2.981c0.378-1.325,0.768-2.649,1.16-3.972
				C338.953,310.462,339.139,310.44,339.331,310.405z M326.091,437.521c-0.414,2.354-1.077,4.634-2.157,6.791
				c-0.598,1.871-1.306,3.712-2.151,5.51c-0.114,0.245-0.26,0.43-0.416,0.591c0.119,0.687,0.345,1.29,0.669,1.799
				c-1.865,0.72-3.75,1.391-5.647,2.029c-0.075-0.08-0.141-0.159-0.218-0.239c-0.727-0.757-1.502-1.226-2.279-1.471
				c-1.678-2.057-3.344-4.122-4.873-6.295c-3.902-5.546-6.299-12.492-8.778-18.768c-5.647-14.298-8.95-30.142-11.343-45.279
				c-2.418-15.298-2.275-31.309-0.955-46.711c0.504-5.855,0.836-11.458,0.883-17.326c0.015-1.969-0.072-5.159,0.447-7.943
				c9.912,5.615,16.393,16.26,21.34,26.182c5.263,10.551,9.136,21.766,12.71,32.979C329.94,390.136,334.115,416.267,326.091,437.521
				z M339.633,443.833c-1.581,0.918-3.193,1.795-4.82,2.64c11.719-24.516,7.213-56.055-0.654-80.898
				c-5.381-16.991-11.98-37.308-23.949-52.016c5.227,1.894,10.408,4.213,15.432,6.913c1.049,1.842,3.164,2.948,5.256,3.002
				c13.441,8.127,25.395,18.979,33.524,31.579C384.223,385.744,369.977,426.239,339.633,443.833z M436.615,157.525
				c-0.956,12.082-2.766,24.035-4.741,35.971c-0.094,1.506-0.19,3.011-0.3,4.518c-1.301,17.922-6.16,35.437-12.084,52.329
				c-5.868,16.739-12.543,33.598-21.01,49.199c-4.479,8.252-9.566,16.167-14.617,24.076c-2.16,3.385-4.443,6.696-6.218,10.3
				c-0.847,1.72-1.739,3.623-2.972,5.149c1.427-3.826,0.622-8.53-0.078-12.336c-1.053-5.752-3.141-11.624-5.873-16.793
				c-5.873-11.106-15.604-12.74-26.236-11.558c5.99-19.182,11.976-38.44,11.445-58.71c-0.293-11.225-2.449-23.842-9.8-32.743
				c-6.475-7.84-15.954-12.455-25.794-14.452c-9.875-2.004-20.645-1.366-29.918,2.73c-10.137,4.479-17.416,13.729-22.68,23.2
				c-5.649,10.165-9.053,21.904-9.251,33.545c-0.231,13.423,7.13,25.693,8.472,38.901c-1.246,1.321-2.556,2.569-3.906,3.762
				c-7.587-6.617-16.928-10.811-27.316-9.333c-6.59,0.938-13.411,4.279-18.289,9.241c-3.986-7.83-7.893-15.707-12.39-23.258
				c-4.487-7.531-10.089-14.393-16.005-20.841c-2.762-3.007-5.744-5.788-8.885-8.39c-2.484-2.056-3.615-5.026-7.369-4.933
				c-1.871,0.046-4.144,0.976-4.982,2.801c-0.109,0.236-0.217,0.472-0.325,0.709c-0.322,0.703-0.495,1.396-0.555,2.068
				c-0.03,0.06-0.063,0.113-0.092,0.175c-3.224,6.944-8.146,13.171-12.013,19.767c-1.73,2.95-3.285,6.532-6.865,7.507
				c-2.383,0.649-3.095-5.936-3.252-7.024c-0.945-6.624-11.075-4.792-11.288,1.429c-0.526,15.335-10.599,30.197-24.974,35.83
				c-12.357,4.842-26.727,4.408-38.608-1.56c-12.046-6.051-17.835-16.635-20.679-29.308c-1.245-5.547-2.495-11.053-2.32-16.772
				c0.188-6.128,5.006-9.169,10.433-8.36c-7.147,19.186,9.269,42.896,28.935,45.478c9.909,1.3,20.359-2.16,25.241-11.32
				c4.636-8.698,3.241-19.625,0.812-28.746c-3.209-12.046-10.135-21.537-18.54-30.513c-8.876-9.481-18.6-18.623-20.203-32.234
				c-1.688-14.323,4.724-28.433,12.081-40.294c4.415-7.121,9.807-15.434,16.634-20.921c-0.559,6.217-0.491,12.478,0.329,18.615
				c0.979,7.315,12.068,4.291,11.098-2.957c-2.481-18.543,3.564-41.645,15.234-56.277c5.996-7.519,13.329-11.506,22.961-11.205
				c11.257,0.352,20.896,7.224,28.326,15.126c16.926,17.996,25.078,44.507,31.062,67.885c3.318,12.962,5.547,27.113,2.811,40.398
				c-1.895,9.203-8.579,12.125-17.303,11.599c-7.547-0.455-15.116-3.16-22.191-6.211c-1.037-2.314-3.39-4.105-6.558-3.518
				l-3.079,0.571c-4.671,0.866-5.931,8.438-1.461,10.481c15.053,6.882,38.201,17.019,53.168,4.747
				c8.656-7.097,9.824-19.143,10.031-29.586c0.281-14.014-3.121-28.132-7.105-41.465c-6.945-23.238-15.822-47.258-33.082-64.927
				c-2.387-2.443-5.045-4.707-7.893-6.734c0.42-0.611,0.738-1.294,0.93-2.006c0.916-0.59,2.113-1.085,2.782-1.466
				c2.946-1.673,5.575-4.178,8.476-5.999c5.984-3.759,12.494-6.757,19.035-9.407c14.871-6.025,29.917-10.32,45.832-12.537
				c27.018-3.763,55.201-1.235,81.564,5.462c23.596,5.994,45.484,16.715,64.879,31.401c17.898,13.555,37.975,35.581,36.802,59.741
				C437.728,145.433,436.852,154.556,436.615,157.525z"/>
		</g>
	</g>
	<g>
		<g>
			<path d="M129.997,219.45c-2.459-1.219-6.344-0.34-7.375,2.48c-0.367,1.005-0.671,1.743-1.148,2.327
				c-0.482,0.588-0.442,0.494-1.156,0.795c-2.061,0.869-4.751,0.825-7.19,0.84c-7.092,0.043-6.218,11.014,0.847,10.971
				c7.685-0.047,15.591-2.064,18.504-10.038C133.505,224.011,132.901,220.891,129.997,219.45z"/>
		</g>
	</g>
</g>
</svg>
