<?xml version="1.0" encoding="utf-8"?>
<!-- Generator: Adobe Illustrator 16.0.3, SVG Export Plug-In . SVG Version: 6.00 Build 0)  -->
<!DOCTYPE svg PUBLIC "-//W3C//DTD SVG 1.1//EN" "http://www.w3.org/Graphics/SVG/1.1/DTD/svg11.dtd">
<svg version="1.1" id="Layer_1" xmlns="http://www.w3.org/2000/svg" xmlns:xlink="http://www.w3.org/1999/xlink" x="0px" y="0px"
	 width="512px" height="512px" viewBox="0 0 512 512" style="enable-background:new 0 0 512 512;" xml:space="preserve">
<style type="text/css">
<![CDATA[
	.st0{fill:#127274;}
	.st1{fill:#14B6B9;}
	.st2{fill:#1E4384;}
	.st3{fill:#EF4754;}
	.st4{fill:#EF4823;}
	.st5{fill:#BCBCBC;}
	.st6{fill:#F6851F;}
	.st7{fill:#C56528;}
	.st8{fill:#FCBF95;}
	.st9{fill:#FEBF10;}
	.st10{fill:none;}
	.st11{fill:#010101;}
	.st12{fill:#3AB37C;}
	.st13{fill:#D6E5E5;}
	.st14{fill:#71C598;}
	.st15{fill:#74CCCF;}
]]>
</style>
<g>
	<g>
		<g>
			<path class="st4" d="M322.012,421.692c-0.102,0.02-0.203,0.04-0.305,0.059c0.087,1.23-0.242,2.531-1.159,3.756
				c1.322-1.766-0.357,1.195-0.618,1.834c-0.715,1.748-1.41,3.506-2.106,5.262c-1.616,4.076-3.192,8.188-5.043,12.165
				c-3.951,8.495-11.575,14.561-16.312,22.417c5.14-0.648,10.265-1.438,15.364-2.42c6.515-1.256,12.97-2.708,19.45-4.068
				c-0.289-1.424-0.05-2.988,1-4.451c5.856-8.155,14.046-14.973,18.747-23.91c2.424-4.609,4.353-8.832,5.236-14.008
				c0.208-1.219,0.419-2.427,0.643-3.626C345.448,417.799,333.48,419.548,322.012,421.692z"/>
		</g>
	</g>
	<g>
		<g>
			<path class="st9" d="M278.42,430.954c-3.125,15.076-13.934,26.622-23.088,38.535c9.58,0.035,19.16-0.26,28.699-1.021
				c0.025-0.653,0.165-1.337,0.458-2.04c4.425-10.623,14.547-17.702,18.844-27.453c1.979-4.492,3.417-9.837,5.513-14.617
				C298.698,426.532,288.589,428.897,278.42,430.954z"/>
		</g>
	</g>
	<g>
		<g>
			<path class="st9" d="M207.269,435.721c-3.641-0.222-7.279-0.479-10.917-0.744c-2.439,5.849-6.145,10.837-10.825,15.34
				c-5.268,5.068-11.193,9.794-15.183,16.007c-0.052,0.081-0.11,0.152-0.164,0.23c2.92-0.156,5.838-0.352,8.767-0.368
				c5.532-0.031,11.012,0.838,16.539,1.019c2.91,0.096,5.815,0.211,8.719,0.331c-0.652-1.638-0.49-3.569,1.079-5.29
				c4.385-4.808,9.484-8.883,14.046-13.513c3.332-3.382,7.575-7.563,9.06-12.395C221.381,436.373,214.35,436.15,207.269,435.721z"/>
		</g>
	</g>
	<g>
		<g>
			<path class="st4" d="M266.384,433.21c-0.07,0.012-0.14,0.025-0.209,0.037c-8.907,1.495-17.778,2.385-26.664,2.805
				c-2.416,13.828-15.167,22.235-24.558,31.965c6.533,0.312,13.065,0.645,19.614,0.942c3.744,0.17,7.494,0.301,11.245,0.394
				c-0.972-1.785-1.083-4.055,0.472-6.107C253.479,453.754,262.428,444.577,266.384,433.21z"/>
		</g>
	</g>
	<g>
		<g>
			<path class="st4" d="M149.838,432.376c-0.191,1.501-1.052,2.83-2.23,3.744c-0.894,5.625,0.932,13.037,2.563,17.984
				c2.016,6.118,4.141,11.154,10.18,12.349c-0.912-1.356-1.079-3.132,0.137-5.024c4.095-6.376,9.335-11.33,14.805-16.499
				c3.487-3.294,6.97-6.722,9.391-10.819C173.084,433.245,161.48,432.459,149.838,432.376z"/>
		</g>
	</g>
	<g>
		<g>
			<path class="st9" d="M375.482,435.483c-0.346-3.182-0.897-6.345-1.604-9.463c-1.187-5.238-2.678-10.387-4.106-15.555
				c-0.289,0.116-0.583,0.222-0.874,0.335c-1.322,4.708-1.494,9.69-2.848,14.393c-1.496,5.196-3.806,10.254-6.794,14.775
				c-4.298,6.502-9.624,12.146-14.532,18.146c8.388-1.438,17.564-2.935,24.617-7.798c0.467-0.322,0.935-0.558,1.399-0.722
				C370.488,444.615,372.693,439.796,375.482,435.483z"/>
		</g>
	</g>
	<g>
		<g>
			<path class="st9" d="M382.635,139.511c-2.784-19.82-9.125-38.492-21.638-54.326c-9.917-12.549-22.835-22.56-37.229-29.482
				c-29.419-14.15-64.418-16.786-95.915-8.5c-31.623,8.319-61.022,27.398-76.512,56.901c-11.573,22.042-14.993,47.696-14.807,72.329
				c0.219,28.977,4.834,57.645,10.366,86.02c0.976,5.005-4.42,6.801-8.034,4.869c-1.992-0.02-3.894-1.102-4.643-3.627
				c-3.261-10.992-6.169-22.734-14.48-31.207c-5.088-5.186-12.721-10.145-20.279-7.283c-9.544,3.615-14.023,15.285-15.584,24.579
				c-2.052,12.219-0.276,24.661,3.382,36.416c4.021,12.921,10.014,24.958,15.758,37.173c5.691,12.105,11.388,24.214,16.676,36.502
				c8.839,20.54,14.585,42.702,25.407,62.341c0.749-0.511,1.701-0.827,2.889-0.823c38.653,0.137,76.922,7.668,115.45,1.201
				c18.773-3.15,37.188-8.031,55.892-11.527c17.5-3.273,36.099-5.556,52.262-13.381c0.31-0.15,0.638-0.252,0.977-0.312
				c-5.466-43.561-3.023-87.102,2.443-130.545C380.299,224.849,388.586,181.876,382.635,139.511z M288.723,240.312
				c-11.552,13.816-25.731,24.532-30.908,42.613c-0.472,1.648-1.619,2.832-2.993,3.529c-0.007,0.158,0.003,0.312-0.007,0.471
				c-0.459,7.066-11.251,4.88-10.798-2.098c0.372-5.715-6.296-12.773-9.334-17.096c-4.716-6.712-9.271-13.645-13.523-20.66
				c-7.392-12.197-14.923-25.896-12.621-40.643c0.864-5.533,2.928-11.455,7.574-14.949c4.529-3.408,11.386-4.288,16.41-1.322
				c5.726,3.379,9.609,8.908,12.359,15.046c4.376-9.091,10.532-17.317,19.502-21.919c13.789-7.074,27.846,0.045,33.141,14.035
				C303.26,212.475,298.903,228.136,288.723,240.312z"/>
		</g>
	</g>
	<g>
		<g>
			<path class="st4" d="M439.489,423.429c0.742-1.509,0.771-1.137-0.983-1.809c-2.133-0.817-4.662-1.116-6.94-1.088
				c-4.915,0.061-8.784,1.451-13.209,3.973c-6.34,3.612-12.546,7.857-17.815,12.93c-3.735,3.596-8.303,7.928-9.499,13.207
				c15.937,1.859,33.369-3.836,44.666-14.775c1.87-1.812,3.535-3.892,5.022-6.109C439.071,428.31,438.229,425.991,439.489,423.429z"
				/>
		</g>
	</g>
	<g>
		<g>
			<path class="st4" d="M445.367,405.274c-0.091-0.031-0.175-0.068-0.263-0.103c-1.476,0.259-3.02-0.009-4.211-0.976
				c-0.144-0.016-0.302-0.031-0.486-0.045c-0.506-0.025-1.012-0.039-1.519-0.038c-1.499-0.001-2.997,0.022-4.495,0.075
				c-3.667,0.127-6.852,0.215-10.327,1.633c-8.621,3.518-15.347,9.954-21.964,15.942c-0.301,0.272-0.591,0.56-0.89,0.834
				c5.458-4.191,11.369-7.911,17.648-10.556c7.388-3.111,22.199-3.103,28.867,2.55C448.724,410.789,448.984,406.485,445.367,405.274
				z"/>
		</g>
	</g>
	<g>
		<g>
			<path class="st4" d="M289.138,209.237c-1.012-9.668-8.16-22.908-19.71-16.267c-10.706,6.157-16.279,18.556-19.613,29.954
				c-1.355,4.635-9.245,6.664-10.59,0.77c-1.139-4.988-2.606-9.995-4.782-14.639c-1.462-3.123-4.197-8.957-8.131-9.578
				c-8.12-1.281-7.672,13.592-6.739,18.416c2.774,14.355,13.635,27.752,21.488,39.678c2.959,4.496,6.618,9.029,9.425,13.877
				c5.014-11.034,12.616-20.088,21.365-29.053C280.635,233.394,290.565,222.878,289.138,209.237z"/>
		</g>
	</g>
	<g>
		<g>
			<path d="M447.465,394.478c-0.487-0.163-0.946-0.25-1.382-0.283c-4.885-2.359-13.099-0.922-17.396-0.811
				c-12.222,0.313-23.982,10.766-32.248,18.719c-4.051,3.898-8.074,7.729-11.844,11.835c-1.4-6.353-3.228-12.585-4.927-18.862
				c2.518-0.41,4.671-2.334,4.231-5.623c-4.278-32.001-4.509-64.367-1.894-96.52c2.501-30.741,7.917-61.165,11.115-91.833
				c4.846-46.474,5.688-99.3-26.783-136.622c-44.833-51.53-128.859-55-184.232-19.211c-24.61,15.906-41.986,39.902-50.057,67.971
				c-9.628,33.486-7.727,69.226-2.516,103.88c-0.235-0.286-0.459-0.575-0.702-0.858c-6.685-7.808-15.914-13.09-26.379-12.767
				c-10.413,0.321-18.366,8.063-23.247,16.567c-7.075,12.329-8.212,27.501-6.461,41.318c1.776,14.008,6.738,27.445,12.647,40.175
				c6.684,14.397,13.562,28.702,20.061,43.186c6.048,13.48,11.251,27.154,16.261,41.043c4.396,12.187,9.29,24.232,15.862,35.407
				c-1.799,6.755-0.792,14.211,0.714,20.902c1.739,7.729,4.759,17.184,11.549,21.997c8.31,5.89,20.49,3.315,29.953,3.067
				c6.716-0.175,13.551,0.96,20.288,1.127c7.563,0.188,15.047,0.446,22.601,0.935c28.824,1.862,57.741,2.032,86.299-2.812
				c12.12-2.056,24.028-5.12,36.145-7.247c10.33-1.812,21.554-3.645,30.367-9.722c0.457-0.315,0.833-0.663,1.146-1.032
				c23.144,8.037,52.005,1.582,68.72-16.71C455.941,430.112,469.104,401.714,447.465,394.478z M160.489,461.429
				c-1.216,1.893-1.049,3.668-0.137,5.024c-6.04-1.194-8.164-6.23-10.18-12.349c-1.631-4.947-3.457-12.359-2.563-17.984
				c1.178-0.914,2.039-2.243,2.23-3.744c11.642,0.083,23.246,0.869,34.847,1.734c-2.421,4.098-5.904,7.525-9.391,10.819
				C169.824,450.099,164.584,455.053,160.489,461.429z M205.284,462.245c-1.569,1.721-1.731,3.652-1.079,5.29
				c-2.904-0.12-5.81-0.235-8.719-0.331c-5.527-0.181-11.007-1.05-16.539-1.019c-2.929,0.017-5.847,0.212-8.767,0.368
				c0.054-0.078,0.112-0.149,0.164-0.23c3.99-6.213,9.915-10.938,15.183-16.007c4.68-4.503,8.386-9.491,10.825-15.34
				c3.638,0.266,7.276,0.522,10.917,0.744c7.082,0.43,14.113,0.652,21.121,0.617c-1.485,4.831-5.729,9.013-9.06,12.395
				C214.768,453.362,209.669,457.438,205.284,462.245z M246.284,463.245c-1.556,2.053-1.444,4.322-0.472,6.107
				c-3.751-0.093-7.5-0.224-11.245-0.394c-6.549-0.298-13.082-0.631-19.614-0.942c9.391-9.729,22.142-18.137,24.558-31.965
				c8.886-0.42,17.757-1.31,26.664-2.805c0.07-0.012,0.14-0.025,0.209-0.037C262.428,444.577,253.479,453.754,246.284,463.245z
				 M284.031,468.469c-9.54,0.761-19.12,1.056-28.699,1.021c9.154-11.913,19.963-23.459,23.088-38.535
				c10.169-2.057,20.278-4.422,30.425-6.596c-2.096,4.78-3.533,10.125-5.513,14.617c-4.296,9.751-14.419,16.83-18.844,27.453
				C284.196,467.132,284.056,467.815,284.031,468.469z M331.283,460.696c-6.48,1.36-12.935,2.812-19.45,4.068
				c-5.099,0.982-10.224,1.771-15.364,2.42c4.737-7.856,12.361-13.922,16.312-22.417c1.851-3.978,3.427-8.089,5.043-12.165
				c0.696-1.756,1.391-3.514,2.106-5.262c0.261-0.639,1.94-3.6,0.618-1.834c0.917-1.225,1.246-2.525,1.159-3.756
				c0.102-0.019,0.203-0.039,0.305-0.059c11.469-2.145,23.437-3.894,34.898-6.991c-0.224,1.199-0.435,2.407-0.643,3.626
				c-0.884,5.176-2.812,9.398-5.236,14.008c-4.701,8.938-12.891,15.755-18.747,23.91
				C331.233,457.708,330.994,459.272,331.283,460.696z M370.74,449.595c-0.464,0.164-0.933,0.399-1.399,0.722
				c-7.053,4.863-16.229,6.36-24.617,7.798c4.908-6,10.234-11.644,14.532-18.146c2.989-4.521,5.298-9.579,6.794-14.775
				c1.354-4.702,1.526-9.685,2.848-14.393c0.291-0.113,0.584-0.219,0.874-0.335c1.428,5.168,2.919,10.316,4.106,15.555
				c0.707,3.118,1.258,6.281,1.604,9.463C372.693,439.796,370.488,444.615,370.74,449.595z M375.017,266.827
				c-5.466,43.443-7.91,86.984-2.443,130.545c-0.338,0.061-0.667,0.162-0.977,0.312c-16.163,7.825-34.762,10.107-52.262,13.381
				c-18.704,3.496-37.119,8.377-55.892,11.527c-38.528,6.467-76.797-1.064-115.45-1.201c-1.188-0.004-2.14,0.312-2.889,0.823
				c-10.822-19.639-16.568-41.801-25.407-62.341c-5.288-12.288-10.985-24.396-16.676-36.502
				c-5.744-12.215-11.737-24.252-15.758-37.173c-3.659-11.755-5.435-24.197-3.382-36.416c1.561-9.294,6.041-20.964,15.584-24.579
				c7.559-2.861,15.191,2.098,20.279,7.283c8.312,8.473,11.22,20.215,14.48,31.207c0.749,2.525,2.65,3.607,4.643,3.627
				c3.613,1.932,9.01,0.136,8.034-4.869c-5.532-28.375-10.147-57.043-10.366-86.02c-0.186-24.633,3.233-50.287,14.807-72.329
				c15.49-29.503,44.89-48.582,76.512-56.901c31.497-8.286,66.496-5.65,95.915,8.5c14.394,6.923,27.311,16.934,37.229,29.482
				c12.514,15.834,18.854,34.506,21.638,54.326C388.586,181.876,380.299,224.849,375.017,266.827z M435.707,435.866
				c-11.296,10.939-28.729,16.635-44.666,14.775c1.195-5.279,5.763-9.611,9.499-13.207c5.27-5.072,11.476-9.317,17.815-12.93
				c4.426-2.521,8.294-3.912,13.209-3.973c2.279-0.028,4.808,0.271,6.94,1.088c1.754,0.672,1.725,0.3,0.983,1.809
				c-1.26,2.562-0.418,4.881,1.24,6.328C439.242,431.975,437.577,434.055,435.707,435.866z M447.727,414.592
				c-6.668-5.652-21.479-5.661-28.867-2.55c-6.279,2.645-12.19,6.364-17.648,10.556c0.299-0.274,0.589-0.562,0.89-0.834
				c6.618-5.988,13.344-12.425,21.964-15.942c3.475-1.418,6.661-1.506,10.327-1.633c1.499-0.053,2.996-0.076,4.495-0.075
				c0.507-0.001,1.013,0.013,1.519,0.038c0.185,0.014,0.343,0.029,0.486,0.045c1.191,0.967,2.735,1.234,4.211,0.976
				c0.088,0.034,0.172,0.071,0.263,0.103C448.984,406.485,448.724,410.789,447.727,414.592z"/>
		</g>
	</g>
	<g>
		<g>
			<path d="M297.525,197.319c-5.295-13.99-19.352-21.109-33.141-14.035c-8.971,4.602-15.126,12.828-19.502,21.919
				c-2.75-6.138-6.633-11.667-12.359-15.046c-5.024-2.966-11.881-2.086-16.41,1.322c-4.646,3.494-6.71,9.416-7.574,14.949
				c-2.302,14.746,5.229,28.445,12.621,40.643c4.251,7.016,8.807,13.948,13.523,20.66c3.038,4.322,9.706,11.381,9.334,17.096
				c-0.454,6.978,10.338,9.164,10.798,2.098c0.01-0.158,0-0.312,0.007-0.471c1.374-0.697,2.521-1.881,2.993-3.529
				c5.177-18.081,19.356-28.797,30.908-42.613C298.903,228.136,303.26,212.475,297.525,197.319z M271.851,242.396
				c-8.749,8.965-16.352,18.019-21.365,29.053c-2.807-4.848-6.465-9.381-9.425-13.877c-7.853-11.926-18.714-25.322-21.488-39.678
				c-0.933-4.824-1.38-19.697,6.739-18.416c3.935,0.621,6.669,6.455,8.131,9.578c2.175,4.644,3.643,9.65,4.782,14.639
				c1.346,5.895,9.235,3.865,10.59-0.77c3.334-11.398,8.907-23.797,19.613-29.954c11.55-6.642,18.698,6.599,19.71,16.267
				C290.565,222.878,280.635,233.394,271.851,242.396z"/>
		</g>
	</g>
</g>
</svg>
