<?xml version="1.0" encoding="utf-8"?>
<!-- Generator: Adobe Illustrator 16.0.3, SVG Export Plug-In . SVG Version: 6.00 Build 0)  -->
<!DOCTYPE svg PUBLIC "-//W3C//DTD SVG 1.1//EN" "http://www.w3.org/Graphics/SVG/1.1/DTD/svg11.dtd">
<svg version="1.1" id="Layer_1" xmlns="http://www.w3.org/2000/svg" xmlns:xlink="http://www.w3.org/1999/xlink" x="0px" y="0px"
	 width="512px" height="512px" viewBox="0 0 512 512" style="enable-background:new 0 0 512 512;" xml:space="preserve">
<style type="text/css">
<![CDATA[
	.st0{fill:#127274;}
	.st1{fill:#14B6B9;}
	.st2{fill:#1E4384;}
	.st3{fill:#EF4754;}
	.st4{fill:#EF4823;}
	.st5{fill:#BCBCBC;}
	.st6{fill:#F6851F;}
	.st7{fill:#C56528;}
	.st8{fill:#FCBF95;}
	.st9{fill:#FEBF10;}
	.st10{fill:none;}
	.st11{fill:#010101;}
	.st12{fill:#3AB37C;}
	.st13{fill:#D6E5E5;}
	.st14{fill:#71C598;}
	.st15{fill:#74CCCF;}
]]>
</style>
<g>
	<g>
		<g>
			<path class="st0" d="M299.906,456.258c-4.634-16.231-25.695-16.139-38.676-11.791c-3.204,1.074-5.667-0.871-6.519-3.345
				c-4.259,2.601-8.574,7.66-10.119,10.171c-3.431,5.566-6.268,12.811-4.142,19.401c4.628,14.331,22.896,16.744,35.644,13.418
				c6.818-1.779,13.749-4.574,18.328-10.172C298.192,469.33,301.664,462.411,299.906,456.258z"/>
		</g>
	</g>
	<g>
		<g>
			<path class="st0" d="M307.416,423.097c-5.164-1.546-10.122-3.46-15.37-4.755c-4.613-1.139-9.906-2.394-13.553-5.659
				c-1.525-1.366-2.659-2.789-3.5-4.25c-0.668,0.246-1.399,0.348-2.179,0.253c0.392,0.067,0.224,0.181-0.497-0.031
				c-0.149,0-0.312,0.003-0.512,0.022c-0.653,0.062-1.304,0.128-1.957,0.208c-1.663,0.203-3.32,0.426-4.981,0.649
				c-2.671,0.359-5.365,0.779-8.067,0.965c-4.72,10.838-19.871,15.929-32.355,15.957c-8.865,0.021-18.401-3.699-20.763-12.623
				c-12.848,0.337-25.593,1.979-38.484,1.76c-12.72-0.215-25.482-0.592-38.05,1.61c0.123,1.764,0.146,3.533,0.163,5.31
				c0.035,3.517-0.768,10.89,3.419,12.455c4.001,1.497,9.005,0.786,13.122,0.274c4.848-0.602,9.658-1.654,14.521-2.092
				c6.883-0.621,13.883-0.575,20.787-0.657c15.199-0.179,30.42,0.028,45.605-0.751c15.114-0.776,30.204-2.515,45.267-3.987
				c13.16-1.286,26.318-2.64,39.46-4.134C308.794,423.473,308.1,423.302,307.416,423.097z"/>
		</g>
	</g>
	<g>
		<g>
			<path class="st9" d="M211.305,387.648c-2.12-3.893-4.659-7.504-6.986-11.271c-4.566-7.396-8.766-15.032-12.042-23.096
				c-2.617-6.441-4.995-13.369-6.415-20.432c-7.152,1.243-11.218,12.478-11.655,18.534c-0.883,12.229,5.471,23.606,9.921,34.585
				c1.534,3.786-2.194,7.481-5.92,6.846c-7.376-1.259-17.067-5.651-24.394-2.281c-3,1.38-5.125,3.958-6.314,7.006
				c-0.528,1.357-0.901,2.745-1.103,4.191c-0.104,0.746,0.222,2.147-0.425,1.645c0.663,0.515,1.137,1.088,1.446,1.688
				c6.223-0.084,12.461,0.077,18.694,0.152c12.726,0.153,25.317-1.56,38.012-1.814c1.739-4.735,5.609-7.847,10.462-9.651
				C213.474,391.733,212.413,389.684,211.305,387.648z"/>
		</g>
	</g>
	<g>
		<g>
			<path class="st9" d="M327.749,99.463c-4.826-4.374-16.959,9.193-16.884,13.408c0.013,0.706-0.097,1.343-0.292,1.917
				c3.883,3.457,7.434,7.259,10.598,11.36c2.78-3.016,4.599-7.125,5.863-10.833C328.144,112.056,331.027,102.435,327.749,99.463z"/>
		</g>
	</g>
	<g>
		<g>
			<path class="st9" d="M181.869,106.48c-3.158-1.384-8.89,0.803-9.53,4.617c-0.856,5.106,4.542,10.373,8.721,14.396
				c2.587-3.033,5.396-5.672,8.388-7.991C188.41,113.352,186.053,108.313,181.869,106.48z"/>
		</g>
	</g>
	<g>
		<g>
			<path class="st9" d="M317.562,139.193c-6.204-9.929-14.486-18.993-24.855-24.671c-11.828-6.479-24.671-8.069-38.01-6.832
				c-13.694,1.27-27.935,3.982-40.978,8.427c-9.949,3.39-18.286,8.604-24.96,16.447c-0.004,0.013-0.007,0.027-0.01,0.041
				c-5.077,18.705-5.899,38.148-3.913,57.376c1.753,16.99,4.4,35.022,11.082,50.868c6.425,15.229,17.295,26.391,33.054,31.83
				c14.041,4.846,30.553,5.904,44.939,1.901c10.858-3.022,20.97-8.531,28.135-17.423c8.41-10.442,12.545-23.965,16.069-36.701
				c3.703-13.371,8.318-26.978,9.139-40.914C328.079,165.513,325.053,151.18,317.562,139.193z M209.152,171.933
				c6.073-0.491,12.411,5.297,18.278,2.808c6.212-2.637,9.604,7.235,3.449,9.848c-3.947,1.675-8.425,1.358-12.471,0.173
				c-2.496-0.731-6.167-2.609-8.455-2.424C203.234,182.882,202.456,172.475,209.152,171.933z M269.031,252.549
				c-6.798-0.701-11.749-3.868-15.136-8.381c-3.281,6.438-8.934,10.901-18.018,10.018c-6.389-0.62-12.858-3.28-15.861-9.244
				c-2.359-4.687-5.649-10.9-4.203-16.32c1.727-6.463,11.979-4.516,10.242,1.99c-0.648,2.429,1.484,6.396,2.61,8.495
				c1.693,3.16,4.327,4.364,7.949,4.716c9.401,0.913,10.67-9.873,10.733-16.966c0.001-0.328,0.036-0.637,0.085-0.937
				c-1.343-0.759-2.225-2.082-2.511-3.537c-1.858-2.887-1.505-6.739,0.565-9.594c1.771-2.44,5.389-3.979,8.381-3.25
				c4.94,1.204,7.9,6.448,7.009,11.372c-0.318,1.754-1.177,3.337-2.438,4.515c0.276,6.402,1.799,14.469,8.889,16.21
				c5.514,1.354,16.745-1.251,13.811-9.031c-2.383-6.313,7.478-9.73,9.847-3.45C296.118,242.756,281.8,253.867,269.031,252.549z
				 M292.075,185.5c-4.79-0.037-17.037,0.123-16.904-7.33c0.095-5.492,7.147-7.034,9.584-3.671c0.54,0.112,1.083,0.213,1.632,0.283
				c1.627,0.206,3.243,0.326,4.886,0.313c2.07-0.017,4.172-0.073,6.214-0.431c0.075-0.013,0.132-0.024,0.195-0.035
				c1.9-3.786,9.173-3.352,10.023,2.105C308.946,184.699,297.299,185.541,292.075,185.5z"/>
		</g>
	</g>
	<g>
		<g>
			<path class="st6" d="M400.548,155.474c-1.834-9.886-6.141-24.02-15.005-29.94c-2.377-1.587-2.875-4.239-2.231-6.443
				c0.168-8.167,1.599-17.654-2.036-25.182c-2.675-5.543-6.015-10.852-9.703-15.774c-6.188-8.258-15.304-18.99-26.275-20.775
				c-1.814,4.093-9.374,3.771-10.059-1.857c-0.292-2.401-4.481-5.335-6.265-6.679c-2.841-2.144-5.926-3.91-9.19-5.332
				c-6.971-3.035-14.323-5.365-21.753-6.979c-14.188-3.083-27.965-3.083-41.625,1.438c-0.211,1.309-0.856,2.341-1.724,3.087
				c0.847,0.689,1.739,1.309,2.719,1.801c6.001,3.018,1.382,12.375-4.642,9.347c-6.911-3.474-10.472-10.532-17.752-13.527
				c-7.48-3.078-15.573-4.359-23.566-5.296c-9.071-1.063-18.007,0.911-26.529,3.947c-2.534,0.902-5.08,1.812-7.49,3.02
				c-1.048,0.526-2.115,1.151-3.047,1.865c-0.096,0.074-0.171,0.135-0.251,0.198c0.083,0.158,0.153,0.317,0.218,0.477
				c0.684,0.41,1.349,0.857,1.982,1.355c3.855,3.028,6.176,7.975,10.259,10.627c5.565,3.618,1.002,13.015-4.643,9.347
				c-7.898-5.134-11.55-15.786-22.718-14.262c-7.403,1.011-14.187,5.088-20.153,9.407c-9.042,6.546-24.478,19.093-19.437,31.969
				c0.266,0.679,0.38,1.322,0.382,1.924c1.831-0.295,3.717-0.425,5.675-0.343c6.647,0.278,7.506,10.685,0.802,10.404
				c-14.857-0.622-24.791,13.961-30.771,25.778c-3.916,7.739-6.525,15.86-7.186,24.554c-0.381,4.991-0.332,9.614,1.224,14.411
				c0.885,2.726,1.721,5.427,2.324,8.198c3.569,0.36,6.751,4.978,3.782,8.766c-6.731,8.591-3.92,23.909-1.17,33.488
				c1.928,6.714,4.665,13.449,9.547,18.585c1.3,1.368,2.473,2.768,3.895,4.033c0.263,0.233,0.53,0.464,0.794,0.697
				c3.461-0.787,7.12,2.262,6.746,5.51c0.664,2.174,0.032,4.835-1.993,6.216c0.549,2.819,2.478,6.309,3.558,7.643
				c2.941,3.634,6.736,6.542,10.397,9.413c9.031,7.085,19.36,12.217,30.43,15.239c0.413,0.112,0.792,0.262,1.138,0.438
				c1.686-1.186,3.908-1.295,5.737,0.763c9.309,10.473,27.216,14.411,40.11,8.687c3.271-1.452,6.098-3.748,9.683-4.422
				c3.467-0.65,7.95-0.025,11.393,0.573c3.737,0.65,7.451,1.8,11.077,2.924c1.331,0.413,5.186,2.091,7.175,2.096
				c0.822-2.807,3.833-5.163,7.331-3.657c5.989,2.58,17.836,9.194,22.091,1.087c0.573-1.092,1.359-1.825,2.238-2.261
				c0.952-1.737,2.8-2.934,5.327-2.436c5.973,1.175,13.99,6.175,20.044,3.358c5.171-2.406,6.959-8.005,9.698-12.573
				c0.926-1.544,2.285-2.333,3.708-2.556c2.544-1.366,6.299-0.923,7.785,2.52c0.848,1.966,6.171,1.26,7.668,1.085
				c3.544-0.414,7.031-1.219,10.36-2.521c7.533-2.949,16.907-11.626,16.739-20.465c-0.022-1.176,0.283-2.167,0.797-2.972
				c0.17-2.284,1.668-4.393,4.637-4.529c21.424-0.982,39.735-36.103,23.666-52.673c-2.626-1.437-4.296-5.073-1.892-8.167
				c4.186-5.387,11.612-8.629,14.526-14.928C401.897,169.164,401.745,161.922,400.548,155.474z M335.86,157.102
				c5.365,23.731-2.111,47.469-8.867,70.113c-3.703,12.413-7.998,25.52-16.238,35.751c-7.042,8.742-16.414,15.523-26.972,19.397
				c-21.531,7.901-48.426,6.75-68.69-4.402c-23.188-12.762-31.712-36.625-36.666-61.219c-5.325-26.429-7.267-54.024-1.294-80.471
				c-0.036-0.038-0.072-0.069-0.109-0.108c-7.646-8.226-23.159-22.961-10.93-34.337c5.495-5.112,13.15-8.721,20.419-4.69
				c5.691,3.156,9.926,8.407,12.059,14.509c10.48-5.572,22.418-8.558,34.589-11.109c22.187-4.65,46.592-6.641,66.608,6.073
				c0.58,0.368,1.141,0.762,1.711,1.144c1.961-5.521,6.465-10.353,10.908-13.765c5.752-4.416,15.284-8.673,21.679-2.876
				c6.788,6.151,5.997,17.235,3.508,25.229c-2.019,6.485-5.114,13.941-10.417,18.688
				C331.122,141.859,334.093,149.284,335.86,157.102z"/>
		</g>
	</g>
	<g>
		<g>
			<path class="st6" d="M271.095,408.176c0.518,0.247,0.912,0.389,1.223,0.48c0.168,0,0.304,0.007,0.411,0.021
				C272.199,408.603,271.654,408.442,271.095,408.176z"/>
		</g>
	</g>
	<g>
		<g>
			<path class="st6" d="M460.216,179.685c-2.211-3.073-4.789-5.776-7.621-8.185c1.038,7.24-0.35,14.868-3.74,22.169
				c-2.974,6.405-7.728,13.383-7.81,20.688c-0.072,6.558,1.209,12.616,4.158,18.21c2.424-0.549,5.21-0.551,7.34-1.559
				c2.663-1.262,5.171-3.484,6.709-6.01c3.878-6.366,5.41-13.717,5.989-21.079C465.922,195.278,465.453,186.968,460.216,179.685z"/>
		</g>
	</g>
	<g>
		<g>
			<path class="st9" d="M290.243,344.834c-2.547-9.839-12.409-16.657-22.753-13.345c-11.904,3.814-18.875,15.459-20.952,27.312
				c-1.308,7.46-0.342,14.328,2.93,21.16c2.667,5.564,6.189,10.984,7.882,16.962c0.294,1.035,0.497,2.034,0.652,3.012
				c2.617-0.271,5.229-0.698,7.823-1.042c2.29-0.304,5.119-0.976,7.621-0.688c1.692-9.428,10.089-19.383,13.372-27.372
				C289.999,363.096,292.397,353.16,290.243,344.834z"/>
		</g>
	</g>
	<g>
		<g>
			<path class="st9" d="M322.959,356.896c2.293-6.422,2.688-13.186,3.607-19.885c1.071-7.804,2.301-15.686,2.372-23.579
				c0.061-6.586-0.992-13.005-1.288-19.55c-0.029-0.659,0.046-1.26,0.204-1.804c-3.682,0.028-7.217-0.6-10.078-2.358
				c-2.888,5.074-5.903,9.848-11.635,12.514c-8.36,3.89-15.839,0.369-23.9-1.709c-6.959,11.029-19.379,8.303-30.114,4.139
				c-0.309,0.266-0.665,0.513-1.084,0.729c-7.779,4.002-16.079-0.877-23.837-2.663c-3.206-0.738-9.045-2.341-12.126-0.619
				c-3.552,1.985-7.043,3.99-11.042,4.949c-2.34,0.561-4.762,0.939-7.218,1.171c-4.688,14.702,0.442,30.641,6.421,44.237
				c3.46,7.873,7.825,15.294,12.537,22.48c4.103,6.261,7.02,13.225,11.378,19.313c2.354,3.288-0.137,7.717-3.923,8.119
				c-2.809,0.299-6.933,0.697-8.8,3.16c-1.902,2.506-0.882,6.805,1.521,8.65c4.25,3.26,12.168,1.999,17.028,0.824
				c4.632-1.119,11.808-2.957,14.219-7.651c3.359-6.539-3.363-15.439-6.199-21.128c-4.358-8.741-6.709-17.987-4.993-27.785
				c1.52-8.667,4.772-17.835,10.493-24.664c10.777-12.867,29.06-18.165,43.515-7.735c15.276,11.021,13.319,35.82,5.49,50.811
				c-3.851,7.375-10.545,14.846-11.75,23.289c-0.666,4.674,3.645,6.232,7.602,7.269c5.568,1.457,11.016,2.909,16.438,4.86
				c4.744,1.707,13.698,3.229,16.688-2.633c2.457-4.822-2.616-7.963-5.983-10.478c-4.06-3.034-8.172-6.863-8.869-12.181
				c-0.67-5.12,1.414-10.028,4.19-14.23C317.217,367.62,320.859,362.766,322.959,356.896z"/>
		</g>
	</g>
	<g>
		<g>
			<path class="st9" d="M388.352,385.567c0.129-0.668,0.01-1.281-0.354-1.837c-0.612-1.515-0.495-2.86,0.065-3.945
				c-1.361-4.65-5.592-8.885-10.547-8.386c-8.121,0.817-14.876,5.231-20.881,10.503c-3.869,3.399-10.342-2.356-7.59-6.646
				c7.002-10.914,14.562-24.88,11.96-38.333c-1.212-6.266-4.888-11.993-10.104-15.699c-2.053-1.458-4.486-3.007-7.045-2.916
				c-0.929,0.033-1.866,0.052-2.789,0.163c-0.011,0.001-0.018,0.002-0.027,0.004c-0.58,0.555-1.291,0.981-2.057,1.255
				c-0.281,4.045-0.686,8.079-1.211,12.103c-1.582,12.106-2.131,24.903-8.246,35.799c-2.541,4.528-6.139,8.519-8.362,13.209
				c-2.183,4.603-0.573,6.903,3.284,9.785c0.824,0.616,1.661,1.273,2.488,1.967c20.658-0.208,41.021-3.98,61.52-6.119
				C388.396,386.186,388.358,385.886,388.352,385.567z"/>
		</g>
	</g>
	<g>
		<g>
			<path class="st0" d="M409.496,405.458c-0.575-3.362-1.638-6.598-2.543-9.877c-24.113,0.898-47.874,6.058-71.968,7.197
				c1.214,3.196,1.296,6.704-0.608,10.439c-1.966,3.853-4.979,6.648-8.515,8.463c11.766-1.465,23.515-3.076,35.229-4.906
				c7.679-1.2,15.223-2.721,22.836-4.238c6.035-1.204,12.535-2.574,18.713-2.304c1.686,0.073,3.396,0.364,5.084,0.316
				c1.013-0.028,2.064-0.565,1.758,0.152C410.146,409.145,409.769,407.062,409.496,405.458z"/>
		</g>
	</g>
	<g>
		<g>
			<path d="M327.157,135.026c5.303-4.746,8.398-12.202,10.417-18.688c2.489-7.995,3.28-19.078-3.508-25.229
				c-6.395-5.797-15.927-1.539-21.679,2.876c-4.443,3.412-8.947,8.245-10.908,13.765c-0.57-0.382-1.131-0.776-1.711-1.144
				c-20.017-12.713-44.422-10.723-66.608-6.073c-12.171,2.551-24.108,5.537-34.589,11.109c-2.133-6.102-6.367-11.353-12.059-14.509
				c-7.269-4.031-14.924-0.421-20.419,4.69c-12.229,11.376,3.283,26.112,10.93,34.337c0.037,0.039,0.073,0.071,0.109,0.108
				c-5.973,26.446-4.031,54.042,1.294,80.471c4.954,24.595,13.479,48.458,36.666,61.219c20.265,11.152,47.159,12.304,68.69,4.402
				c10.558-3.874,19.93-10.655,26.972-19.397c8.24-10.231,12.535-23.338,16.238-35.751c6.756-22.644,14.232-46.382,8.867-70.113
				C334.093,149.284,331.122,141.859,327.157,135.026z M310.865,112.872c-0.075-4.215,12.058-17.782,16.884-13.408
				c3.278,2.971,0.395,12.593-0.715,15.853c-1.265,3.708-3.083,7.816-5.863,10.833c-3.164-4.101-6.715-7.904-10.598-11.36
				C310.769,114.214,310.878,113.578,310.865,112.872z M172.339,111.097c0.641-3.814,6.372-6.001,9.53-4.617
				c4.184,1.833,6.541,6.872,7.578,11.022c-2.991,2.318-5.801,4.958-8.388,7.991C176.881,121.47,171.482,116.203,172.339,111.097z
				 M327.254,179.542c-0.82,13.936-5.436,27.543-9.139,40.914c-3.524,12.736-7.659,26.259-16.069,36.701
				c-7.165,8.893-17.276,14.401-28.135,17.423c-14.387,4.003-30.898,2.945-44.939-1.901c-15.759-5.439-26.629-16.602-33.054-31.83
				c-6.682-15.846-9.329-33.878-11.082-50.868c-1.986-19.228-1.164-38.671,3.913-57.376c0.003-0.014,0.006-0.028,0.01-0.041
				c6.674-7.842,15.011-13.057,24.96-16.447c13.043-4.444,27.283-7.157,40.978-8.427c13.339-1.237,26.182,0.353,38.01,6.832
				c10.369,5.678,18.651,14.742,24.855,24.671C325.053,151.18,328.079,165.513,327.254,179.542z"/>
		</g>
	</g>
	<g>
		<g>
			<path d="M468.865,173.851c-6.281-9.366-16.226-16.104-26.199-20.988c-5.582-2.734-9.698,4.448-5.765,8.592
				c11.55,12.171,2.789,26.219-2.722,38.758c-5.767,13.125-4.106,28.081,3.413,40.07c-1.175,6.905-3.591,13.491-5.175,20.304
				c-1.407,6.038-1.278,12.369-1.287,18.533c-0.017,11.708,0.497,23.491-2.534,34.917c-3.106,11.706-11.871,19.467-22.469,24.559
				c-10.553,5.071-22.819,8.175-34.663,8.055c0.747-7.561-0.326-15.18-4.2-22.464c-3.88-7.293-13.325-16.322-22.168-16.308
				c-1.621,0.002-3.747,0.082-5.816,0.434c-0.24-5.095-0.993-10.128-1.225-15.234c-0.042-0.898-0.266-1.657-0.617-2.291
				c2.081-0.502,4.061-1.099,5.82-1.703c11.686-4.012,22.859-15.533,24.343-28.154c27.579-4.807,45.5-45.144,28.206-67.659
				c4.783-4.678,10.268-8.294,13.288-14.825c3.465-7.492,3.127-16.942,1.654-24.876c-2.285-12.305-7.354-26.13-17.049-34.649
				c0.102-9.785,1.396-20.237-3.003-29.345c-3.317-6.872-7.416-13.324-12.065-19.369c-8.752-11.387-21.396-23.544-36.643-23.533
				c-2.979-3.684-7.24-6.626-10.946-9.034c-7.217-4.688-16.001-7.316-24.213-9.652c-19.03-5.413-38.656-5.885-57.271,1.32
				c-1.711,0.662-2.785,1.93-3.234,3.523c-3.816-2.975-9.144-4.579-13.602-6.005c-10.479-3.351-22.589-5.015-33.524-3.769
				c-6.584,0.75-32.021,6.609-35.808,16.511c-1.142-0.103-2.283-0.15-3.411-0.148c-9.613,0.02-19.122,5.895-26.746,11.273
				c-13.224,9.332-30.449,26.194-23.451,44.068c0.252,0.647,0.589,1.185,0.979,1.631c-10.174,5.398-17.865,16.118-23.264,25.91
				c-4.51,8.179-7.581,17.009-8.88,26.267c-0.712,5.085-1.079,10.55-0.486,15.655c0.661,5.667,3.474,10.818,4.184,16.472
				c0.206,1.644,0.998,2.833,2.062,3.593c-4.975,11.54-2.573,26.057,0.466,37.652c2.273,8.663,6.577,16.064,12.315,22.831
				c1.513,1.784,3.729,4.349,6.224,6.392c-0.094,2.59,0.338,5.246,0.977,7.447c1.969,6.792,6.795,11.859,12.068,16.33
				c11.689,9.911,24.844,17.088,39.648,21.128c1.173,0.32,2.195,0.244,3.048-0.1c6.993,7.201,16.806,11.144,26.884,12.215
				c-1.275,4.771-1.668,9.668-1.437,14.578c-10.206,1.786-16.344,11.149-19.453,21.154c-3.89,12.521,0.593,24.987,5.485,36.717
				c-8.865-1.792-17.81-2.859-25.613,3.176c-4.934,3.814-10.746,14.263-9.267,21.792c-3.78,0.321-7.548,0.808-11.302,1.547
				c-1.832,0.361-3.092,1.446-3.81,2.79c-2.483,0.304-4.645,2.134-4.152,5.344c1.368,8.967-1.672,21.168,6.891,27.43
				c7.877,5.76,19.768,3.278,28.636,1.878c12.844-2.026,25.951-1.709,38.926-1.787c15.155-0.091,30.396,0.019,45.505-1.391
				c0.948-0.089,1.896-0.178,2.848-0.267c-6.502,7.221-10.177,17.02-9.803,26.706c0.895,23.102,27.384,30.39,46.214,26.947
				c18.67-3.413,37.963-18.416,34.612-39.509c-1.55-9.76-7.425-16.028-15.104-19.616c10.735-1.14,21.462-2.352,32.175-3.686
				c15.168-1.889,30.301-4.056,45.38-6.56c6.895-1.145,13.625-2.964,20.554-3.95c2.956-0.421,5.999-0.846,8.984-0.896
				c2.907-0.048,5.727,0.541,8.648,0.196c13.734-1.62,8.73-18.266,6.047-28.013c1.803-3.614-0.417-7.773-4.852-7.748
				c-4.475,0.024-8.937,0.233-13.388,0.546c1.247-10.374-5.263-20.986-15.575-23.841c-5.265-1.457-10.703-0.72-15.856,1.204
				c0.792-1.98,1.487-3.989,2.092-6.013c25.178,0.642,56.171-9.42,66.954-33.7c5.103-11.492,5.229-24.562,5.217-36.904
				c-0.006-6.784-0.418-13.714,0.478-20.454c1.039-7.835,4.252-15.208,5.693-22.977c19.51-2.17,26.723-21.446,27.898-39.083
				C476.366,192.877,475.09,183.132,468.865,173.851z M164.941,287.032c-1.829-2.058-4.052-1.948-5.737-0.763
				c-0.346-0.177-0.725-0.326-1.138-0.438c-11.069-3.021-21.398-8.154-30.43-15.239c-3.661-2.872-7.456-5.779-10.397-9.413
				c-1.08-1.334-3.009-4.823-3.558-7.643c2.025-1.381,2.657-4.042,1.993-6.216c0.374-3.248-3.285-6.297-6.746-5.51
				c-0.264-0.233-0.531-0.464-0.794-0.697c-1.422-1.266-2.595-2.665-3.895-4.033c-4.882-5.136-7.619-11.871-9.547-18.585
				c-2.75-9.58-5.562-24.897,1.17-33.488c2.969-3.789-0.213-8.406-3.782-8.766c-0.604-2.771-1.439-5.472-2.324-8.198
				c-1.556-4.796-1.604-9.42-1.224-14.411c0.66-8.693,3.27-16.815,7.186-24.554c5.98-11.817,15.914-26.4,30.771-25.778
				c6.704,0.281,5.846-10.126-0.802-10.404c-1.958-0.082-3.844,0.048-5.675,0.343c-0.002-0.603-0.116-1.246-0.382-1.924
				c-5.041-12.876,10.395-25.422,19.437-31.969c5.967-4.319,12.75-8.396,20.153-9.407c11.168-1.524,14.819,9.127,22.718,14.262
				c5.645,3.668,10.208-5.729,4.643-9.347c-4.083-2.653-6.403-7.599-10.259-10.627c-0.634-0.498-1.299-0.946-1.982-1.355
				c-0.064-0.16-0.135-0.319-0.218-0.477c0.08-0.063,0.155-0.125,0.251-0.198c0.932-0.714,1.999-1.339,3.047-1.865
				c2.41-1.208,4.956-2.117,7.49-3.02c8.522-3.036,17.458-5.011,26.529-3.947c7.993,0.937,16.086,2.218,23.566,5.296
				c7.28,2.995,10.841,10.053,17.752,13.527c6.023,3.028,10.643-6.329,4.642-9.347c-0.979-0.492-1.872-1.112-2.719-1.801
				c0.867-0.746,1.513-1.778,1.724-3.087c13.66-4.521,27.438-4.521,41.625-1.438c7.43,1.614,14.782,3.944,21.753,6.979
				c3.265,1.421,6.35,3.188,9.19,5.332c1.783,1.344,5.973,4.277,6.265,6.679c0.685,5.628,8.244,5.951,10.059,1.857
				c10.972,1.785,20.088,12.517,26.275,20.775c3.688,4.922,7.028,10.231,9.703,15.774c3.635,7.528,2.204,17.016,2.036,25.182
				c-0.644,2.204-0.146,4.855,2.231,6.443c8.864,5.92,13.171,20.055,15.005,29.94c1.197,6.448,1.35,13.69-1.444,19.729
				c-2.914,6.299-10.341,9.541-14.526,14.928c-2.404,3.094-0.734,6.731,1.892,8.167c16.069,16.57-2.242,51.69-23.666,52.673
				c-2.969,0.136-4.467,2.245-4.637,4.529c-0.514,0.805-0.819,1.796-0.797,2.972c0.168,8.839-9.206,17.517-16.739,20.465
				c-3.329,1.302-6.816,2.106-10.36,2.521c-1.497,0.175-6.82,0.88-7.668-1.085c-1.486-3.442-5.241-3.886-7.785-2.52
				c-1.423,0.223-2.782,1.012-3.708,2.556c-2.739,4.568-4.527,10.167-9.698,12.573c-6.054,2.816-14.071-2.183-20.044-3.358
				c-2.527-0.498-4.375,0.699-5.327,2.436c-0.879,0.436-1.665,1.168-2.238,2.261c-4.255,8.106-16.102,1.493-22.091-1.087
				c-3.498-1.506-6.509,0.85-7.331,3.657c-1.989-0.005-5.844-1.683-7.175-2.096c-3.626-1.124-7.34-2.274-11.077-2.924
				c-3.442-0.598-7.926-1.223-11.393-0.573c-3.585,0.674-6.412,2.97-9.683,4.422C192.157,301.442,174.25,297.504,164.941,287.032z
				 M146.396,401.732c0.201-1.447,0.574-2.834,1.103-4.191c1.189-3.049,3.314-5.626,6.314-7.006
				c7.326-3.371,17.018,1.022,24.394,2.281c3.726,0.636,7.454-3.06,5.92-6.846c-4.45-10.979-10.804-22.356-9.921-34.585
				c0.438-6.056,4.503-17.292,11.655-18.534c1.42,7.063,3.798,13.991,6.415,20.432c3.276,8.063,7.476,15.7,12.042,23.096
				c2.327,3.767,4.866,7.378,6.986,11.271c1.108,2.036,2.169,4.085,3.281,6.103c-4.853,1.805-8.723,4.917-10.462,9.651
				c-12.694,0.255-25.286,1.967-38.012,1.814c-6.233-0.075-12.472-0.236-18.694-0.152c-0.31-0.6-0.783-1.172-1.446-1.688
				C146.618,403.879,146.293,402.478,146.396,401.732z M299.906,456.258c1.758,6.153-1.714,13.072-5.483,17.682
				c-4.579,5.599-11.51,8.393-18.328,10.172c-12.748,3.326-31.016,0.912-35.644-13.418c-2.126-6.59,0.711-13.834,4.142-19.401
				c1.545-2.511,5.86-7.57,10.119-10.171c0.852,2.474,3.314,4.419,6.519,3.345C274.211,440.119,295.272,440.027,299.906,456.258z
				 M270.031,427.756c-15.062,1.472-30.152,3.211-45.267,3.987c-15.186,0.779-30.406,0.573-45.605,0.751
				c-6.904,0.082-13.904,0.036-20.787,0.657c-4.862,0.438-9.673,1.49-14.521,2.092c-4.117,0.512-9.121,1.223-13.122-0.274
				c-4.187-1.565-3.384-8.938-3.419-12.455c-0.018-1.777-0.04-3.545-0.163-5.31c12.567-2.202,25.33-1.825,38.05-1.61
				c12.892,0.219,25.637-1.422,38.484-1.76c2.361,8.923,11.897,12.643,20.763,12.623c12.484-0.028,27.636-5.119,32.355-15.957
				c2.702-0.186,5.396-0.605,8.067-0.965c1.661-0.224,3.318-0.447,4.981-0.649c0.653-0.08,1.304-0.146,1.957-0.208
				c0.199-0.019,0.362-0.022,0.512-0.022c-0.311-0.091-0.705-0.233-1.223-0.48c0.56,0.266,1.104,0.427,1.634,0.501
				c-0.107-0.014-0.243-0.021-0.411-0.021c0.721,0.212,0.889,0.099,0.497,0.031c0.779,0.095,1.511-0.007,2.179-0.253
				c0.841,1.461,1.975,2.883,3.5,4.25c3.646,3.265,8.939,4.52,13.553,5.659c5.248,1.295,10.206,3.209,15.37,4.755
				c0.684,0.205,1.378,0.376,2.075,0.525C296.35,425.117,283.191,426.471,270.031,427.756z M249.468,379.962
				c-3.271-6.833-4.237-13.7-2.93-21.16c2.077-11.854,9.048-23.499,20.952-27.312c10.344-3.312,20.206,3.505,22.753,13.345
				c2.154,8.325-0.244,18.262-3.425,26c-3.283,7.989-11.68,17.944-13.372,27.372c-2.502-0.288-5.331,0.384-7.621,0.688
				c-2.595,0.345-5.206,0.771-7.823,1.042c-0.155-0.978-0.358-1.977-0.652-3.012C255.657,390.947,252.135,385.527,249.468,379.962z
				 M324.485,409.646c-2.99,5.862-11.944,4.34-16.688,2.633c-5.423-1.951-10.87-3.403-16.438-4.86
				c-3.957-1.037-8.268-2.595-7.602-7.269c1.205-8.443,7.899-15.915,11.75-23.289c7.829-14.991,9.786-39.789-5.49-50.811
				c-14.455-10.43-32.737-5.132-43.515,7.735c-5.721,6.829-8.974,15.997-10.493,24.664c-1.716,9.798,0.635,19.044,4.993,27.785
				c2.836,5.689,9.559,14.589,6.199,21.128c-2.411,4.694-9.587,6.532-14.219,7.651c-4.86,1.174-12.778,2.436-17.028-0.824
				c-2.402-1.845-3.423-6.144-1.521-8.65c1.867-2.462,5.991-2.861,8.8-3.16c3.786-0.402,6.277-4.831,3.923-8.119
				c-4.358-6.088-7.275-13.053-11.378-19.313c-4.712-7.187-9.077-14.607-12.537-22.48c-5.979-13.596-11.108-29.535-6.421-44.237
				c2.456-0.232,4.878-0.611,7.218-1.171c3.999-0.958,7.49-2.963,11.042-4.949c3.081-1.722,8.92-0.119,12.126,0.619
				c7.758,1.785,16.058,6.665,23.837,2.663c0.419-0.217,0.775-0.463,1.084-0.729c10.735,4.164,23.155,6.89,30.114-4.139
				c8.062,2.078,15.54,5.6,23.9,1.709c5.731-2.667,8.747-7.44,11.635-12.514c2.861,1.759,6.396,2.387,10.078,2.358
				c-0.158,0.544-0.233,1.145-0.204,1.804c0.296,6.545,1.349,12.964,1.288,19.55c-0.071,7.893-1.301,15.775-2.372,23.579
				c-0.919,6.7-1.314,13.463-3.607,19.885c-2.1,5.87-5.742,10.723-9.136,15.861c-2.776,4.203-4.86,9.11-4.19,14.23
				c0.697,5.318,4.81,9.147,8.869,12.181C321.869,401.683,326.942,404.825,324.485,409.646z M406.953,395.582
				c0.905,3.279,1.968,6.515,2.543,9.877c0.272,1.604,0.649,3.686-0.015,5.243c0.307-0.718-0.745-0.18-1.758-0.152
				c-1.688,0.048-3.398-0.243-5.084-0.316c-6.178-0.271-12.678,1.1-18.713,2.304c-7.613,1.518-15.157,3.038-22.836,4.238
				c-11.714,1.831-23.463,3.441-35.229,4.906c3.535-1.814,6.549-4.61,8.515-8.463c1.904-3.735,1.822-7.243,0.608-10.439
				C359.079,401.639,382.84,396.479,406.953,395.582z M377.517,371.399c4.955-0.499,9.185,3.735,10.547,8.386
				c-0.562,1.085-0.679,2.43-0.065,3.945c0.364,0.556,0.483,1.169,0.354,1.837c0.008,0.319,0.046,0.619,0.104,0.907
				c-20.499,2.139-40.861,5.912-61.519,6.119c-0.828-0.694-1.665-1.351-2.49-1.967c-3.856-2.882-5.466-5.182-3.283-9.785
				c2.224-4.69,5.821-8.681,8.362-13.209c6.115-10.896,6.664-23.692,8.246-35.799c0.525-4.024,0.929-8.058,1.21-12.103
				c0.767-0.273,1.478-0.7,2.058-1.255c0.009-0.001,0.017-0.003,0.026-0.004c0.924-0.111,1.861-0.13,2.79-0.163
				c2.559-0.091,4.992,1.458,7.045,2.916c5.217,3.706,8.893,9.434,10.104,15.699c2.603,13.453-4.958,27.419-11.96,38.333
				c-2.752,4.29,3.72,10.045,7.589,6.646C362.641,376.63,369.396,372.216,377.517,371.399z M465.241,203.92
				c-0.579,7.362-2.111,14.713-5.989,21.079c-1.538,2.525-4.046,4.748-6.709,6.01c-2.13,1.008-4.916,1.01-7.34,1.559
				c-2.949-5.594-4.23-11.652-4.158-18.21c0.082-7.305,4.836-14.283,7.81-20.688c3.391-7.301,4.778-14.929,3.74-22.169
				c2.832,2.408,5.41,5.111,7.621,8.185C465.453,186.968,465.922,195.278,465.241,203.92z"/>
		</g>
	</g>
	<g>
		<g>
			<path d="M227.431,174.741c-5.867,2.489-12.205-3.299-18.278-2.808c-6.696,0.542-5.918,10.949,0.802,10.405
				c2.288-0.185,5.959,1.693,8.455,2.424c4.046,1.185,8.523,1.502,12.471-0.173C237.035,181.977,233.643,172.104,227.431,174.741z"
				/>
		</g>
	</g>
	<g>
		<g>
			<path d="M307.705,176.734c-0.851-5.457-8.123-5.891-10.023-2.105c-0.063,0.011-0.12,0.022-0.195,0.035
				c-2.042,0.358-4.144,0.414-6.214,0.431c-1.643,0.013-3.259-0.107-4.886-0.313c-0.549-0.07-1.092-0.171-1.632-0.283
				c-2.437-3.363-9.489-1.821-9.584,3.671c-0.133,7.453,12.114,7.293,16.904,7.33C297.299,185.541,308.946,184.699,307.705,176.734z
				"/>
		</g>
	</g>
	<g>
		<g>
			<path d="M290.986,229.157c-2.369-6.28-12.229-2.863-9.847,3.45c2.935,7.779-8.297,10.384-13.811,9.031
				c-7.09-1.741-8.612-9.808-8.889-16.21c1.261-1.178,2.119-2.761,2.438-4.515c0.892-4.924-2.068-10.168-7.009-11.372
				c-2.992-0.729-6.61,0.81-8.381,3.25c-2.07,2.854-2.424,6.707-0.565,9.594c0.286,1.455,1.168,2.777,2.511,3.537
				c-0.049,0.3-0.084,0.609-0.085,0.937c-0.063,7.093-1.332,17.879-10.733,16.966c-3.622-0.352-6.256-1.556-7.949-4.716
				c-1.126-2.099-3.259-6.066-2.61-8.495c1.737-6.506-8.516-8.454-10.242-1.99c-1.446,5.42,1.844,11.633,4.203,16.32
				c3.003,5.963,9.473,8.624,15.861,9.244c9.084,0.883,14.736-3.581,18.018-10.018c3.387,4.513,8.338,7.68,15.136,8.381
				C281.8,253.867,296.118,242.756,290.986,229.157z"/>
		</g>
	</g>
</g>
</svg>
