<?xml version="1.0" encoding="utf-8"?>
<!-- Generator: Adobe Illustrator 16.0.3, SVG Export Plug-In . SVG Version: 6.00 Build 0)  -->
<!DOCTYPE svg PUBLIC "-//W3C//DTD SVG 1.1//EN" "http://www.w3.org/Graphics/SVG/1.1/DTD/svg11.dtd">
<svg version="1.1" id="Layer_1" xmlns="http://www.w3.org/2000/svg" xmlns:xlink="http://www.w3.org/1999/xlink" x="0px" y="0px"
	 width="512px" height="512px" viewBox="0 0 512 512" style="enable-background:new 0 0 512 512;" xml:space="preserve">
<style type="text/css">
<![CDATA[
	.st0{fill:#127274;}
	.st1{fill:#14B6B9;}
	.st2{fill:#1E4384;}
	.st3{fill:#EF4754;}
	.st4{fill:#EF4823;}
	.st5{fill:#BCBCBC;}
	.st6{fill:#F6851F;}
	.st7{fill:#C56528;}
	.st8{fill:#FCBF95;}
	.st9{fill:#FEBF10;}
	.st10{fill:none;}
	.st11{fill:#010101;}
	.st12{fill:#3AB37C;}
	.st13{fill:#D6E5E5;}
	.st14{fill:#71C598;}
	.st15{fill:#74CCCF;}
]]>
</style>
<g>
	<g>
		<g>
			<path class="st4" d="M267.154,328.609c-4.236,11.468-11.375,22.01-19.085,31.238c-11.095,13.277-24.028,25.043-37.931,35.323
				c2.824,15.096,6.107,30.094,10.041,44.929c13.101-4.579,23.395-16.138,31.437-26.941c8.66-11.633,16.144-24.587,20.834-38.355
				c0.545-1.601,1.524-2.527,2.665-2.932C273.161,357.324,270.287,342.946,267.154,328.609z"/>
		</g>
	</g>
	<g>
		<g>
			<path class="st13" d="M258.969,291.924c-0.644-2.978-1.266-5.964-1.874-8.953c-6.167,7.669-13.382,14.514-20.753,20.987
				c-6.766,5.942-12.948,10.809-21.393,14.064c-5.212,2.009-10.503,4.026-15.914,5.446c2.437,17.955,5.035,35.892,7.953,53.739
				c0.318,1.944,0.65,3.887,0.981,5.829c11.229-8.666,21.749-18.38,30.841-29.262c10.122-12.113,19.335-26.038,21.168-42.072
				c0.225-1.963,1.224-3.211,2.53-3.842C261.31,302.553,260.119,297.243,258.969,291.924z"/>
		</g>
	</g>
	<g>
		<g>
			<path class="st4" d="M234.538,150.981c-13.851-2.661-32.596-7.745-39.713-21.286c-4.656,18.151-6.312,36.957-6.9,55.72
				c-0.073,2.313-0.106,4.628-0.142,6.941c10.375-3.153,21.157-4.603,31.505-7.859c7.376-2.321,12.949-5.017,19.221-9.081
				c9.14-5.922,18.024-12.259,26.793-18.715c1.044-0.77,2.102-1.09,3.099-1.081c0.326-0.386,0.669-0.753,1.004-1.13
				C257.702,154.109,246.008,153.185,234.538,150.981z"/>
		</g>
	</g>
	<g>
		<g>
			<path class="st4" d="M250.395,236.318c-0.27-4.284-0.458-8.644-0.518-13.037c-3.605,6.138-7.247,11.34-8.303,12.955
				c-1.975,3.023-3.947,6.062-6.073,8.983c-2.913,4.002-8.546,6.913-12.736,9.372c-9.812,5.756-22.699,10.477-29.751,19.794
				c-0.088,0.116-0.18,0.218-0.271,0.323c0.296,2.488,0.599,4.976,0.912,7.461c1.273,10.088,2.568,20.187,3.903,30.284
				c1.76-0.538,3.513-1.103,5.253-1.705c4.398-1.524,8.796-3.108,13.067-4.964c4.572-1.987,10.314-7.347,14.786-11.381
				c6.992-6.309,13.876-12.969,19.595-20.479c1.432-1.88,2.84-3.833,4.021-5.904C252.475,257.518,251.065,246.949,250.395,236.318z"
				/>
		</g>
	</g>
	<g>
		<g>
			<path class="st13" d="M243.022,185.58c-6.761,4.237-14.004,7.642-21.716,9.777c-11.152,3.088-22.623,4.73-33.57,8.58
				c0.187,18.945,1.493,37.865,3.442,56.717c5.419-4.328,11.892-7.573,17.787-10.843c7.28-4.036,15.556-7.765,20.323-14.797
				c4.1-6.048,8.001-12.263,11.623-18.609c1.845-3.234,3.691-6.502,5.197-9.913c0.297-0.673,0.594-1.375,0.813-1.941
				c-1.355-3.039,0.578-7.673,4.637-8.175c1.05-6.786,2.667-13.443,5.02-19.823C252.125,179.666,247.617,182.701,243.022,185.58z"/>
		</g>
	</g>
	<g>
		<g>
			<path class="st13" d="M277.187,392.287c-5.103,10.854-11.725,21.147-19.057,30.414c-9.1,11.503-20.634,23.452-35.012,28.029
				c1.353,4.693,2.767,9.371,4.264,14.025c10.193-0.031,21.399-0.45,30.234-6.081c6.103-3.89,10.546-9.46,13.502-16.038
				C278.075,427.156,278.305,409.05,277.187,392.287z"/>
		</g>
	</g>
	<g>
		<g>
			<path class="st13" d="M270.023,121.506c-8.351-8.682-16.141-17.801-21.098-28.843c-3.41-7.597-8.352-20.878-7.848-31.552
				c-19.486,12.749-32.936,30.434-41.177,52.354c-0.413,1.098-0.799,2.202-1.184,3.307c1.939,0.041,3.735,1.14,4.355,3.672
				c3.582,14.62,24.463,18.314,36.906,20.33c14.208,2.301,28.559,2.891,42.922,2.982c2.905-1.531,5.982-2.729,9.218-3.548
				C284.093,134.785,276.674,128.419,270.023,121.506z"/>
		</g>
	</g>
	<g>
		<g>
			<path class="st4" d="M427.01,116.271c-4.938-18.816-16.262-34.621-32.159-45.436c-10.22,0.467-21.029,3.16-25.416,13.457
				c-4.555,10.692-3.062,23.135,0.816,33.765c4.527,12.408,11.208,24.371,19.947,34.321c5.867,6.68,13.74,13.643,22.833,14.219
				c0.559-0.205,1.194-0.322,1.916-0.322h3c1.858,0,3.263,0.641,4.22,1.608C431.477,153.42,431.094,131.833,427.01,116.271z"/>
		</g>
	</g>
	<g>
		<g>
			<path class="st4" d="M320.157,132.681c-3.903-6.108-5.597-14.4-7.41-21.353c-2.109-8.084-3.971-16.322-4.858-24.641
				c-1.149-10.784-1.472-23.275,3.382-33.28c1.293-2.665,2.956-5.126,5.001-7.195c-18.128-1.692-37.259-0.821-54.662,4.979
				c-0.349,2.238-1.914,4.268-4.81,4.56c-12.545,1.262,0.946,30.231,3.851,36.134c4.742,9.633,13.548,18.756,21.515,26.154
				c10.16,9.437,21.385,17.453,34.176,22.877c4.256,1.074,8.4,2.511,12.465,4.182C325.919,140.963,322.871,136.928,320.157,132.681z
				"/>
		</g>
	</g>
	<g>
		<g>
			<path class="st13" d="M382.802,160.492c-10.473-11.585-18.805-25.982-23.642-40.845c-4.266-13.106-5.671-29.526,1.293-42.035
				c4.432-7.96,11.294-12.682,19.176-15.251c-10.95-5.105-22.74-8.893-34.689-11.596c-0.762,1.238-2.126,2.071-4.143,1.985
				c-4.697-0.2-11.09-3.045-15.214-0.106c-3.75,2.672-5.46,7.207-6.3,11.59c-2.202,11.478-0.736,23.695,1.796,34.996
				c1.732,7.734,3.819,15.406,6.435,22.891c1.752,5.014,4.87,8.914,7.921,13.231c3.588,5.077,9.303,11.823,11.296,18.67
				c7.233,4.116,14.278,8.575,21.272,12.724c11.653,6.912,30.062,17.404,43.811,10.91
				C400.437,176.805,390.249,168.729,382.802,160.492z"/>
		</g>
	</g>
	<g>
		<g>
			<path d="M427.225,88.674c-6.44-10.642-15.354-19.394-25.53-26.398c-0.78-1.206-2.01-2.129-3.654-2.405
				c-6.479-4.083-13.382-7.511-20.442-10.288c-46.926-18.451-105.006-24.034-148.286,6.004
				c-40.744,28.277-50.088,80.781-52.21,126.84c-2.296,49.832,5.067,99.592,12.293,148.75c3.48,23.673,6.354,47.354,10.875,70.871
				c4.551,23.679,10.338,47.119,17.917,70.017c1.075,3.249,4.048,4.08,6.588,3.318c0.606,0.22,1.28,0.349,2.027,0.348
				c17.619-0.01,35.339-2.75,47.202-16.971c9.481-11.365,12.871-26.754,14.035-41.149c2.839-35.089-5.262-70.643-13.041-104.631
				c-3.262-14.252-6.669-28.67-9.328-43.207c2.26-5.133,3.099-10.709-0.235-15.592c-0.722-1.058-1.612-1.719-2.56-2.066
				c-2.058-15.773-2.826-31.663-1.178-47.613c1.705-16.5,7.072-37.433,21.029-48.131c0.34-0.01,0.695-0.045,1.072-0.123
				c1.562-0.326,3.026-1.193,4.5-1.5c2.347-0.489,3.817-1.944,4.468-3.636c4.637-1.469,9.449-1.742,14.302-1.194
				c0.821,1.897,2.593,3.387,5.229,3.33c1.856-0.04,3.378-0.439,4.622-1.197c6.744,2.1,13.391,5.34,19.581,8.762
				c0.661,3.266,4.281,4.884,7.168,4.124c2.158,1.277,4.236,2.528,6.207,3.7c17.087,10.156,35.514,23.859,56.532,21.553
				c19.176-2.105,29.226-19.595,32.543-36.897C443.167,131.295,438.789,107.782,427.225,88.674z M187.736,203.938
				c10.947-3.85,22.418-5.492,33.57-8.58c7.711-2.136,14.955-5.54,21.716-9.777c4.595-2.879,9.103-5.914,13.556-9.027
				c-2.353,6.38-3.97,13.037-5.02,19.823c-4.059,0.502-5.993,5.136-4.637,8.175c-0.219,0.566-0.516,1.269-0.813,1.941
				c-1.506,3.411-3.352,6.679-5.197,9.913c-3.621,6.347-7.523,12.562-11.623,18.609c-4.767,7.032-13.043,10.761-20.323,14.797
				c-5.895,3.27-12.368,6.515-17.787,10.843C189.229,241.803,187.923,222.883,187.736,203.938z M193.655,282.17
				c-0.313-2.485-0.616-4.973-0.912-7.461c0.091-0.105,0.183-0.207,0.271-0.323c7.052-9.317,19.938-14.038,29.751-19.794
				c4.19-2.459,9.824-5.37,12.736-9.372c2.126-2.921,4.099-5.96,6.073-8.983c1.056-1.615,4.697-6.817,8.303-12.955
				c0.061,4.394,0.248,8.753,0.518,13.037c0.67,10.631,2.08,21.199,3.885,31.703c-1.181,2.071-2.589,4.024-4.021,5.904
				c-5.718,7.51-12.603,14.17-19.595,20.479c-4.471,4.034-10.213,9.394-14.786,11.381c-4.271,1.855-8.669,3.439-13.067,4.964
				c-1.74,0.603-3.493,1.167-5.253,1.705C196.224,302.356,194.928,292.258,193.655,282.17z M271.119,442.637
				c-2.957,6.578-7.4,12.148-13.502,16.038c-8.835,5.631-20.041,6.05-30.234,6.081c-1.497-4.654-2.912-9.332-4.264-14.025
				c14.377-4.577,25.912-16.526,35.012-28.029c7.332-9.267,13.954-19.56,19.057-30.414
				C278.305,409.05,278.075,427.156,271.119,442.637z M267.154,328.609c3.133,14.337,6.007,28.715,7.96,43.262
				c-1.141,0.404-2.12,1.331-2.665,2.932c-4.69,13.769-12.174,26.723-20.834,38.355c-8.042,10.804-18.336,22.362-31.437,26.941
				c-3.933-14.835-7.217-29.833-10.041-44.929c13.903-10.28,26.836-22.046,37.931-35.323
				C255.779,350.619,262.918,340.077,267.154,328.609z M262.509,307.861c-1.307,0.631-2.306,1.879-2.53,3.842
				c-1.833,16.034-11.047,29.959-21.168,42.072c-9.093,10.882-19.613,20.596-30.841,29.262c-0.332-1.942-0.664-3.885-0.981-5.829
				c-2.918-17.848-5.516-35.784-7.953-53.739c5.41-1.42,10.702-3.438,15.914-5.446c8.445-3.256,14.627-8.122,21.393-14.064
				c7.372-6.474,14.587-13.318,20.753-20.987c0.608,2.989,1.23,5.976,1.874,8.953C260.119,297.243,261.31,302.553,262.509,307.861z
				 M268.4,155.62c-0.997-0.009-2.055,0.312-3.099,1.081c-8.769,6.456-17.653,12.793-26.793,18.715
				c-6.271,4.064-11.844,6.76-19.221,9.081c-10.348,3.257-21.13,4.706-31.505,7.859c0.036-2.313,0.069-4.628,0.142-6.941
				c0.588-18.763,2.245-37.568,6.9-55.72c7.118,13.541,25.862,18.625,39.713,21.286c11.47,2.203,23.164,3.128,34.866,3.509
				C269.069,154.867,268.727,155.234,268.4,155.62z M282.901,143.756c-14.364-0.092-28.714-0.682-42.922-2.982
				c-12.443-2.016-33.325-5.71-36.906-20.33c-0.62-2.532-2.416-3.631-4.355-3.672c0.385-1.104,0.771-2.209,1.184-3.307
				c8.241-21.92,21.69-39.604,41.177-52.354c-0.504,10.674,4.438,23.955,7.848,31.552c4.957,11.042,12.747,20.161,21.098,28.843
				c6.651,6.913,14.069,13.279,22.096,18.702C288.883,141.027,285.806,142.225,282.901,143.756z M316.343,140.916
				c-12.791-5.424-24.016-13.44-34.176-22.877c-7.967-7.398-16.773-16.521-21.515-26.154c-2.905-5.902-16.396-34.872-3.851-36.134
				c2.896-0.292,4.461-2.321,4.81-4.56c17.403-5.801,36.534-6.672,54.662-4.979c-2.045,2.069-3.708,4.53-5.001,7.195
				c-4.854,10.005-4.531,22.496-3.382,33.28c0.887,8.318,2.749,16.557,4.858,24.641c1.813,6.952,3.506,15.244,7.41,21.353
				c2.714,4.247,5.762,8.282,8.65,12.417C324.743,143.427,320.599,141.99,316.343,140.916z M368.001,166.746
				c-6.994-4.148-14.039-8.607-21.272-12.724c-1.993-6.847-7.708-13.593-11.296-18.67c-3.051-4.317-6.168-8.218-7.921-13.231
				c-2.616-7.484-4.702-15.156-6.435-22.891c-2.532-11.301-3.998-23.519-1.796-34.996c0.84-4.383,2.551-8.918,6.3-11.59
				c4.125-2.938,10.517-0.094,15.214,0.106c2.016,0.086,3.381-0.747,4.143-1.985c11.949,2.703,23.739,6.49,34.689,11.596
				c-7.882,2.569-14.744,7.291-19.176,15.251c-6.964,12.509-5.559,28.929-1.293,42.035c4.837,14.862,13.168,29.26,23.642,40.845
				c7.447,8.236,17.635,16.312,29.01,17.164C398.063,184.15,379.654,173.658,368.001,166.746z M422.166,167.884
				c-0.957-0.968-2.361-1.608-4.22-1.608h-3c-0.722,0-1.357,0.117-1.916,0.322c-9.094-0.576-16.966-7.539-22.833-14.219
				c-8.739-9.95-15.419-21.913-19.947-34.321c-3.878-10.63-5.371-23.072-0.816-33.765c4.387-10.297,15.196-12.99,25.416-13.457
				c15.897,10.814,27.221,26.619,32.159,45.436C431.094,131.833,431.477,153.42,422.166,167.884z"/>
		</g>
	</g>
</g>
</svg>
