<?xml version="1.0" encoding="utf-8"?>
<!-- Generator: Adobe Illustrator 16.0.3, SVG Export Plug-In . SVG Version: 6.00 Build 0)  -->
<!DOCTYPE svg PUBLIC "-//W3C//DTD SVG 1.1//EN" "http://www.w3.org/Graphics/SVG/1.1/DTD/svg11.dtd">
<svg version="1.1" id="Layer_1" xmlns="http://www.w3.org/2000/svg" xmlns:xlink="http://www.w3.org/1999/xlink" x="0px" y="0px"
	 width="512px" height="512px" viewBox="0 0 512 512" style="enable-background:new 0 0 512 512;" xml:space="preserve">
<style type="text/css">
<![CDATA[
	.st0{fill:#127274;}
	.st1{fill:#14B6B9;}
	.st2{fill:#1E4384;}
	.st3{fill:#EF4754;}
	.st4{fill:#EF4823;}
	.st5{fill:#BCBCBC;}
	.st6{fill:#F6851F;}
	.st7{fill:#C56528;}
	.st8{fill:#FCBF95;}
	.st9{fill:#FEBF10;}
	.st10{fill:none;}
	.st11{fill:#010101;}
	.st12{fill:#3AB37C;}
	.st13{fill:#D6E5E5;}
	.st14{fill:#71C598;}
	.st15{fill:#74CCCF;}
]]>
</style>
<g>
	<g>
		<g>
			<path class="st4" d="M256.675,309.955c-0.672,1.936-0.796,3.829-0.614,5.757c1.799,1.029,3.074,2.968,2.686,5.59
				c-0.688,4.651,4.195,4.477,7.898,3.714c5.185-1.069,9.728-4.318,10.191-9.81C277.878,302.885,263.947,304.648,256.675,309.955z"
				/>
		</g>
	</g>
	<g>
		<g>
			<path class="st8" d="M138.67,215.32c0.193-5.299,1.238-13.289-1.391-18.597c-1.131-0.318-2.12-0.996-2.734-2.049
				c-9.149,0.729-18.058,2.789-24.929,8.155c-4.845,3.785-9.436,10.764-9.101,16.793c0.236,4.23,2.571,7.48,6.647,9.999
				c8.875,5.487,19.282,8.215,29.577,10.619C139.646,232.424,138.37,223.521,138.67,215.32z"/>
		</g>
	</g>
	<g>
		<g>
			<path class="st4" d="M277.633,255.154c-2.582-3.74-7.852-5.866-12.222-4.447c-4.614,1.498-4.623,4.463-2.372,9.229
				c0.834,1.768,0.647,3.315-0.12,4.502c2.222,3.648,7.262,5.213,11.486,3.727C279.877,266.24,280.82,259.77,277.633,255.154z"/>
		</g>
	</g>
	<g>
		<g>
			<path class="st1" d="M309.36,74.688c-0.635-5.055-7.34-5.673-11.357-4.5c-6.206,1.812-9.94,6.002-9.171,12.652
				c0.025,0.218,0.039,0.428,0.042,0.633C295.856,88.432,310.578,84.385,309.36,74.688z"/>
		</g>
	</g>
	<g>
		<g>
			<path class="st1" d="M247.299,77.366c-0.381-0.757-1.863-1.661-4.193-1.884c-4.81-0.461-11.436,2.062-15.759,5.412
				c-0.979,0.759-1.558,1.229-2.466,2.395c-0.494,0.633-0.111-0.139-0.631,1.006c-0.054,0.118-0.094,0.199-0.129,0.267
				c-0.005,0.034-0.008,0.06-0.015,0.1c-0.001,0.009-0.004,0.011-0.006,0.019c0.023,0.024,0.044,0.043,0.075,0.083
				c-0.221-0.282,0.888,0.687,1.623,1.073c1.908,1.008,2.777,2.626,2.892,4.294c5.213,3.521,15.257,1.595,18.253-3.713
				C248.415,83.809,248.666,80.088,247.299,77.366z"/>
		</g>
	</g>
	<g>
		<g>
			<path class="st4" d="M276.265,201.416c-2.276-7.885-8.96-10.401-16.325-7.094c-3.64,1.635-4.33,5.545-4.338,9.494
				c0.587,0.534,1.086,1.232,1.438,2.123c1.954,4.935,6.273,8.866,11.901,7.809C274.206,212.76,277.737,206.518,276.265,201.416z"/>
		</g>
	</g>
	<g>
		<g>
			<path class="st8" d="M340.539,355.107c-9.265-17.899-14.192-38.45-11.084-58.594c3.422-22.18,15.913-42.302,34.544-54.928
				c6.811-4.615,14.242-8.311,21.879-11.457c-4.388-9.473-12.142-17.6-12.664-28.522c-0.138-2.878-0.078-6.173,0.536-9.277
				c-1.003,0.198-2.006,0.386-3.01,0.551c-0.146-0.486-0.469-0.916-0.989-1.191c-11.484-0.265-22.694-1.339-33.706-5.337
				c-0.202-0.072-0.4-0.153-0.601-0.229c-7.214-1.679-13.993-4.623-19.852-10.729c-0.076-0.08-0.157-0.142-0.237-0.206
				c-0.591-1.032-1.142-2.098-1.646-3.201c-10.206,7.271-23.001,11.768-35.462,13.722c4.262,2.983,7.454,7.59,8.669,13.348
				c2.414,11.436-4.465,23.283-16.213,25.49c-8.311,1.561-15.642-2.259-20.384-8.48c-2.724,0.19-5.438-1.365-5.457-4.886
				c-0.03-5.888-0.688-12.32,1.622-17.896c1.394-3.364,3.614-5.694,6.356-7.419c-10.53-1.871-20.161-6.572-26.28-15.381
				c-9.188,9.546-18.515,18.904-31.96,21.912c-11.94,2.671-24.319,2.222-36.472,2.102c-3.259-0.033-6.732-0.131-10.306-0.17
				c2.202,6.271,2.062,13.289,1.817,20.146c-0.337,9.468,0.7,19.239-2.16,28.292c0.368,0.092,0.738,0.18,1.104,0.272
				c13.193,3.335,29.74,6.811,39.547,17.078c14.251,14.919,10.957,40.65,5.056,58.474c-7.759,23.437-21.12,44.095-30.92,66.609
				c-4.147,9.528-7.557,19.648-8.9,29.988c-1.189,9.152-1.245,24.993,9.366,29.227c9.674,3.859,17.142-13.69,20.379-19.883
				c3.381-6.468,6.086-13.271,8.863-20.012c10.484-25.448,28.563-70.006,64.209-54.46c14.756,6.435,23.938,18.92,32.931,31.711
				c10.45,14.865,20.214,30.63,32.721,43.9c8.567,9.091,21.609,21.349,35.247,15.785c16.376-6.681,14.104-24.044,8.863-37.763
				C359.383,386.516,348.951,371.357,340.539,355.107z M359.554,193.945c-1.137,0.017-2.273-0.011-3.407-0.061
				c-0.436-0.2-0.881-0.378-1.331-0.543C356.399,193.516,357.979,193.711,359.554,193.945z M287.246,319.802
				c-2.554,9.712-12.521,16.095-22.326,16.507c-5.942,0.25-11.092-1.691-14.166-5.412c-1.451-0.407-2.696-1.5-3.242-3.461
				c-1.65-5.928-3.112-11.665-2.282-17.28c-0.771-1.688-0.668-3.729,0.986-5.534c0.442-0.482,0.91-0.951,1.393-1.41
				c0.258-0.459,0.531-0.918,0.834-1.375c1.221-1.837,3.047-3.1,5.1-3.058c6.059-3.52,13.396-5.191,20.042-3.44
				C284.516,298.217,290.132,308.828,287.246,319.802z M276.401,278.977c-11.982,2.794-23.973-4.299-25.538-16.799
				c-0.138-1.101,0.013-2.049,0.369-2.839c-1.825-8.307,1.871-17.104,11.208-19.196c10.241-2.295,21.143,1.717,25.776,11.562
				C293.388,262.697,288.762,276.096,276.401,278.977z"/>
		</g>
	</g>
	<g>
		<g>
			<path class="st8" d="M436.318,186.77c-10.003-5.812-21.946-4.672-32.776-2.046c-4.957,1.202-9.983,2.638-15.042,4.02
				c-0.423,1.448-1.474,2.727-3.311,3.397c0.797-0.291-0.193,0.28-0.414,1.248c-0.301,1.319-0.619,2.696-0.642,4.057
				c-0.043,2.618-0.031,5.348,0.855,7.845c2.655,7.474,7.786,13.772,11.154,20.938c0.175-0.061,0.35-0.127,0.524-0.188
				c11.601-4.035,24.096-7.537,34.022-15.069C437.227,206.012,447.152,193.066,436.318,186.77z"/>
		</g>
	</g>
	<g>
		<g>
			<path class="st7" d="M449.438,159.776c-15.645-2.122-30.892,2.506-46.161,5.368c-26.187,4.908-77.246,13.934-81.918-24.46
				c-0.298-2.452,0.832-4.147,2.468-5.023c6.993-10.984,11.108-23.537,12.327-36.504c2.345-24.951-5.154-49.832-25.453-65.532
				c-18.85-14.578-44.354-20.113-65.669-7.268c-10.59,6.382-18.125,15.127-26.185,24.288c-8.517,9.682-15.585,21.136-17.002,34.214
				c-1.315,12.135,2.247,24.015,7.903,34.658c4.321,8.131,11.231,17.888,10.019,27.574c4.116,21.509-25.033,24.833-40.352,25.539
				c-8.165,0.375-16.396,0.38-24.563,0.038c-16.155-0.675-32.639,1.071-48.223,5.435c-19.288,5.4-48.006,16.479-43.177,41.773
				c3.457,18.108,20.635,25.46,36.396,29.969c16.577,4.743,33.909,8.947,49.179,17.189c12.055,6.508,23.187,16.352,23.093,30.43
				c1.247,1.448,1.751,3.498,0.658,5.735c-8.095,16.562-12.59,34.911-18.597,52.295c-6.633,19.197-13.073,39.03-14.529,59.418
				c-1.081,15.147,0.701,31.386,7.923,45.008c5.889,11.107,14.81,20.872,28.246,19.882c10.135-11.359,17.427-25.716,23.77-39.42
				c8.426-18.204,13.472-41.289,27.952-55.972c6.589-6.681,14.974-10.998,24.572-9.882c10.671,1.242,19.32,9.317,25.856,17.254
				c7.052,8.562,12.474,18.229,19.084,27.103c9.057,12.159,20.107,23.166,30.971,33.703c8.174,7.928,16.197,17.027,27.203,20.931
				c7.684,2.725,16.743,3.357,24.618,1.048c7.449-2.186,14.557-6.474,18.094-13.666c4.715-9.588,3.266-21.698,1.163-31.81
				c-5.368-25.819-21.523-47.703-32.955-71.001c-7.703-15.699-12.515-33.036-11.856-50.692c0.634-16.987,7.142-33.801,26.019-36.113
				c22.787-9.426,44.931-20.567,66.229-32.976c15.416-8.981,34.988-22.499,37.939-41.614
				C487.876,174.709,468.8,162.401,449.438,159.776z M278.427,75.449c2.191-8.223,9.2-14.269,18.149-16.143
				c10.009-2.095,22.228,2.376,23.651,13.713c3.115,24.808-39.796,33.349-45.071,9.063C274.489,79.016,276.2,76.584,278.427,75.449z
				 M269.267,129.141c4.742-0.641,9.017-2.596,12.833-5.461c2.05-1.538,4.054-3.156,5.73-5.11c1.418-1.653,2.156-2.76,2.032-3.384
				c-1.392-6.957,9.599-7.703,10.97-0.847c1.277,6.39-5.154,12.384-9.505,16.022c-5.443,4.553-11.685,8.111-18.74,9.363
				c-14.659,2.603-30.215-4.061-37.297-17.387c-3.296-6.203,5.79-12.418,9.119-6.151C249.23,125.26,258.94,130.535,269.267,129.141z
				 M217.291,93.84c-0.21-0.379-0.373-0.758-0.493-1.135c-5.775-5.869-3.619-14.4,3.395-20.131
				c7.163-5.854,18.731-10.201,27.925-7.24c11.76,3.787,14.948,20.666,6.216,29.311C244.952,103.932,224.811,107.361,217.291,93.84z
				 M444.425,213.26c-16.023,18.976-44.85,21.001-65.698,32.25c-19.923,10.75-34.768,29.083-38.272,51.797
				c-3.001,19.447,2.047,38.826,11.457,55.841c9.002,16.277,19.617,32.202,25.513,49.972c5.144,15.506,6.057,34.057-8.905,44.498
				c-13.504,9.423-28.843,6.819-41.577-2.513c-14.324-10.497-25.028-25.745-35.1-40.136c-8.812-12.592-16.947-27.521-28.647-37.73
				c-10.633-9.276-25.444-13.39-36.441-2.606c-11.542,11.318-17.733,27.37-23.791,42.035c-2.871,6.951-5.592,14.011-8.964,20.741
				c-4.507,8.996-9.337,19.589-18.293,25.058c-10.334,6.311-21.882,2.632-28.185-7.608c-5.865-9.529-6.555-20.912-4.951-31.769
				c3.307-22.392,14.239-42.112,24.411-61.968c10.597-20.683,23.643-45.232,19.345-69.3c-1.335-7.479-3.53-12.815-9.793-17.04
				c-5.391-3.636-11.932-5.863-18.117-7.705c-15.122-4.502-30.868-7.029-45.662-12.613c-10.817-4.082-23.983-11.901-23.204-25.306
				c0.985-16.937,14.446-29.11,30.31-32.853c17.664-4.167,35.805-2.316,53.765-2.758c7.752-0.191,15.94-0.465,23.288-3.209
				c11.049-4.125,18.766-14.584,26.807-22.709c2.921-2.951,7.792-2.189,9.324,1.812c5.821,15.205,23.738,17.605,38.022,16.057
				c14.091-1.527,30.712-6.184,41.149-16.369c2.128-2.076,6.166-2.45,8.221-0.27c0.482,0.087,0.949,0.248,1.384,0.496
				c1.574,0.899,2.946,1.915,3.411,3.775c0.211,0.846,0.237,1.642,0.118,2.377c2.516,6.545,11.531,9.802,17.552,11.626
				c11.154,3.379,22.409,3.66,33.991,3.664c12.728-3.083,25.535-8.158,37.824-9.026c11.463-0.809,25.907,1.149,33.324,11.054
				C455.234,192.436,451.61,204.75,444.425,213.26z"/>
		</g>
	</g>
	<g>
		<g>
			<path d="M459.565,150.594c-16.406-4.465-31.858-1.428-48.059,1.81c-16.543,3.307-33.39,6.61-50.336,6.237
				c-12.185-0.268-25.629-3.797-28.473-16.689c0.202-0.229,0.396-0.471,0.573-0.742c14.532-22.332,17.097-50.354,11.158-75.885
				c-5.314-22.847-23.432-41.256-44.301-50.822c-22.42-10.277-46.992-7.741-67.017,6.526c-10.024,7.143-18,16.713-25.756,26.149
				c-8.091,9.845-14.024,21.488-16.107,34.113c-2.059,12.479,0.618,25.104,5.515,36.599c2.186,5.13,5.073,9.978,7.656,14.911
				c1.719,3.283,5.069,8.521,4.533,12.41c-0.107,0.78-0.062,1.495,0.092,2.148c-0.097,0.691-0.073,1.434,0.115,2.221
				c1.145,4.773-3.54,7.061-8.305,8.715c-7.389,2.564-15.515,3.054-23.266,3.41c-18.177,0.838-36.128-0.936-54.25,1.723
				c-23.237,3.407-51.875,10.795-65.6,31.502c-11.851,17.878-4.041,40.762,11.636,53.251c7.644,6.09,16.548,9.005,25.768,11.709
				c9.602,2.815,19.296,5.338,28.778,8.55c12.936,4.381,40.002,13.073,37.036,31.264c-0.154,0.944-0.084,1.795,0.144,2.551
				c-3.388,7.654-6.006,15.631-8.567,23.595c-3.416,10.62-7.014,21.158-10.587,31.726c-7.21,21.324-13.313,43.076-13.546,65.744
				c-0.275,26.66,13.257,67.674,45.221,67.588c2.078,1.471,5.073,1.763,7.366-0.531c4.227-4.228,7.543-8.251,10.793-13.303
				c4.097-6.369,7.935-12.9,11.535-19.562c6.085-11.258,10.881-23.052,15.635-34.91c5.471-13.648,14.279-40.079,33.352-36.951
				c9.999,1.639,17.906,13.553,23.222,21.1c6.867,9.75,13.082,19.527,20.95,28.545c10.136,11.617,20.978,22.594,32.235,33.123
				c7.93,7.419,15.592,13.24,26.083,16.436c16.592,5.055,36.676,1.119,48.371-12.141c14.925-16.921,8.533-44.727,1.391-63.584
				c-4.569-12.061-10.982-23.395-17.239-34.638c-6.071-10.906-12.932-22.035-16.922-33.919c-4.786-14.253-7.458-31.481-3.185-46.138
				c1.462-5.013,4.598-8.802,8.959-10.784c1.013,0.332,2.195,0.321,3.497-0.203c26.64-10.725,52.999-23.595,77.464-38.672
				c18.95-11.679,37.828-29.049,38.75-52.729C496.728,170.148,478.919,155.861,459.565,150.594z M484.482,196.695
				c-2.951,19.115-22.523,32.633-37.939,41.614c-21.298,12.408-43.442,23.55-66.229,32.976
				c-18.877,2.312-25.385,19.126-26.019,36.113c-0.659,17.656,4.153,34.993,11.856,50.692
				c11.432,23.298,27.587,45.182,32.955,71.001c2.103,10.111,3.552,22.222-1.163,31.81c-3.537,7.192-10.645,11.48-18.094,13.666
				c-7.875,2.31-16.935,1.677-24.618-1.048c-11.006-3.903-19.029-13.003-27.203-20.931c-10.863-10.537-21.914-21.544-30.971-33.703
				c-6.61-8.874-12.032-18.541-19.084-27.103c-6.536-7.937-15.186-16.012-25.856-17.254c-9.599-1.116-17.983,3.201-24.572,9.882
				c-14.48,14.683-19.526,37.768-27.952,55.972c-6.342,13.704-13.635,28.061-23.77,39.42c-13.437,0.99-22.357-8.774-28.246-19.882
				c-7.222-13.622-9.004-29.86-7.923-45.008c1.456-20.388,7.896-40.221,14.529-59.418c6.007-17.384,10.501-35.732,18.597-52.295
				c1.093-2.237,0.589-4.287-0.658-5.735c0.094-14.078-11.038-23.922-23.093-30.43c-15.271-8.242-32.603-12.446-49.179-17.189
				c-15.761-4.509-32.939-11.86-36.396-29.969c-4.829-25.295,23.889-36.373,43.177-41.773c15.583-4.363,32.068-6.109,48.223-5.435
				c8.167,0.342,16.399,0.337,24.563-0.038c15.319-0.706,44.468-4.03,40.352-25.539c1.212-9.687-5.698-19.443-10.019-27.574
				c-5.656-10.644-9.219-22.523-7.903-34.658c1.417-13.078,8.485-24.532,17.002-34.214c8.06-9.161,15.595-17.906,26.185-24.288
				c21.316-12.846,46.82-7.311,65.669,7.268c20.299,15.7,27.798,40.581,25.453,65.532c-1.219,12.967-5.334,25.52-12.327,36.504
				c-1.636,0.876-2.767,2.571-2.468,5.023c4.672,38.394,55.731,29.368,81.918,24.46c15.269-2.862,30.516-7.49,46.161-5.368
				C468.8,162.401,487.876,174.709,484.482,196.695z"/>
		</g>
	</g>
	<g>
		<g>
			<path d="M248.118,65.334c-9.194-2.961-20.762,1.387-27.925,7.24c-7.014,5.73-9.17,14.262-3.395,20.131
				c0.12,0.377,0.283,0.756,0.493,1.135c7.52,13.521,27.662,10.092,37.043,0.805C263.066,86,259.878,69.121,248.118,65.334z
				 M246.942,86.417c-2.996,5.308-13.04,7.233-18.253,3.713c-0.115-1.668-0.984-3.286-2.892-4.294
				c-0.735-0.387-1.843-1.355-1.623-1.073c-0.031-0.04-0.052-0.059-0.075-0.083c0.002-0.008,0.004-0.01,0.006-0.019
				c0.007-0.04,0.01-0.065,0.015-0.1c0.036-0.067,0.076-0.148,0.129-0.267c0.52-1.145,0.137-0.373,0.631-1.006
				c0.908-1.165,1.487-1.636,2.466-2.395c4.323-3.35,10.949-5.873,15.759-5.412c2.33,0.223,3.812,1.127,4.193,1.884
				C248.666,80.088,248.415,83.809,246.942,86.417z"/>
		</g>
	</g>
	<g>
		<g>
			<path d="M320.227,73.02c-1.423-11.337-13.642-15.808-23.651-13.713c-8.95,1.874-15.958,7.92-18.149,16.143
				c-2.227,1.135-3.938,3.566-3.271,6.634C280.431,106.368,323.342,97.827,320.227,73.02z M288.874,83.473
				c-0.003-0.205-0.017-0.415-0.042-0.633c-0.769-6.65,2.966-10.84,9.171-12.652c4.017-1.173,10.722-0.555,11.357,4.5
				C310.578,84.385,295.856,88.432,288.874,83.473z"/>
		</g>
	</g>
	<g>
		<g>
			<path d="M300.831,114.339c-1.371-6.856-12.361-6.11-10.97,0.847c0.125,0.624-0.613,1.73-2.032,3.384
				c-1.676,1.954-3.68,3.572-5.73,5.11c-3.816,2.865-8.09,4.82-12.833,5.461c-10.327,1.395-20.037-3.881-24.858-12.954
				c-3.33-6.267-12.416-0.052-9.119,6.151c7.082,13.326,22.638,19.989,37.297,17.387c7.055-1.252,13.297-4.811,18.74-9.363
				C295.677,126.723,302.108,120.729,300.831,114.339z"/>
		</g>
	</g>
	<g>
		<g>
			<path d="M354.816,193.342c0.45,0.165,0.896,0.343,1.331,0.543c1.134,0.05,2.27,0.077,3.407,0.061
				C357.979,193.711,356.399,193.516,354.816,193.342z"/>
		</g>
	</g>
	<g>
		<g>
			<path d="M448.039,182.825c-7.417-9.904-21.86-11.862-33.324-11.054c-12.289,0.868-25.096,5.943-37.824,9.026
				c-11.582-0.004-22.837-0.285-33.991-3.664c-6.021-1.824-15.036-5.081-17.552-11.626c0.119-0.735,0.093-1.531-0.118-2.377
				c-0.465-1.86-1.837-2.876-3.411-3.775c-0.435-0.248-0.902-0.409-1.384-0.496c-2.055-2.181-6.093-1.807-8.221,0.27
				c-10.437,10.186-27.058,14.842-41.149,16.369c-14.285,1.549-32.201-0.852-38.022-16.057c-1.532-4.002-6.403-4.764-9.324-1.812
				c-8.041,8.125-15.757,18.584-26.807,22.709c-7.347,2.744-15.536,3.018-23.288,3.209c-17.96,0.441-36.102-1.409-53.765,2.758
				c-15.864,3.742-29.325,15.916-30.31,32.853c-0.779,13.404,12.387,21.224,23.204,25.306c14.794,5.584,30.54,8.111,45.662,12.613
				c6.185,1.842,12.726,4.069,18.117,7.705c6.263,4.225,8.458,9.562,9.793,17.04c4.298,24.067-8.748,48.617-19.345,69.3
				c-10.172,19.855-21.104,39.576-24.411,61.968c-1.604,10.856-0.914,22.239,4.951,31.769c6.303,10.24,17.851,13.919,28.185,7.608
				c8.956-5.469,13.786-16.062,18.293-25.058c3.372-6.73,6.093-13.79,8.964-20.741c6.058-14.665,12.249-30.717,23.791-42.035
				c10.997-10.783,25.808-6.67,36.441,2.606c11.701,10.209,19.835,25.139,28.647,37.73c10.072,14.391,20.775,29.639,35.1,40.136
				c12.734,9.332,28.073,11.936,41.577,2.513c14.962-10.441,14.049-28.992,8.905-44.498c-5.896-17.77-16.511-33.694-25.513-49.972
				c-9.41-17.015-14.458-36.394-11.457-55.841c3.505-22.714,18.35-41.047,38.272-51.797c20.848-11.249,49.675-13.274,65.698-32.25
				C451.61,204.75,455.234,192.436,448.039,182.825z M259.939,194.322c7.365-3.308,14.049-0.791,16.325,7.094
				c1.473,5.102-2.059,11.344-7.323,12.332c-5.628,1.058-9.947-2.874-11.901-7.809c-0.353-0.891-0.852-1.589-1.438-2.123
				C255.61,199.867,256.3,195.957,259.939,194.322z M136.739,240.241c-10.295-2.404-20.702-5.132-29.577-10.619
				c-4.076-2.519-6.411-5.769-6.647-9.999c-0.335-6.029,4.255-13.008,9.101-16.793c6.872-5.366,15.78-7.426,24.929-8.155
				c0.614,1.053,1.603,1.73,2.734,2.049c2.629,5.308,1.584,13.298,1.391,18.597C138.37,223.521,139.646,232.424,136.739,240.241z
				 M363.999,241.586c-18.632,12.626-31.122,32.748-34.544,54.928c-3.108,20.144,1.82,40.694,11.084,58.594
				c8.412,16.25,18.844,31.408,25.406,48.586c5.241,13.719,7.513,31.082-8.863,37.763c-13.638,5.563-26.68-6.694-35.247-15.785
				c-12.507-13.271-22.271-29.035-32.721-43.9c-8.993-12.791-18.175-25.276-32.931-31.711
				c-35.646-15.546-53.725,29.012-64.209,54.46c-2.777,6.74-5.482,13.544-8.863,20.012c-3.237,6.192-10.705,23.742-20.379,19.883
				c-10.611-4.233-10.555-20.074-9.366-29.227c1.343-10.34,4.753-20.46,8.9-29.988c9.8-22.515,23.161-43.173,30.92-66.609
				c5.901-17.823,9.195-43.555-5.056-58.474c-9.807-10.268-26.354-13.743-39.547-17.078c-0.366-0.093-0.736-0.181-1.104-0.272
				c2.86-9.053,1.823-18.824,2.16-28.292c0.245-6.856,0.385-13.874-1.817-20.146c3.573,0.039,7.047,0.137,10.306,0.17
				c12.153,0.12,24.532,0.569,36.472-2.102c13.446-3.008,22.773-12.366,31.96-21.912c6.12,8.809,15.75,13.51,26.28,15.381
				c-2.742,1.725-4.962,4.055-6.356,7.419c-2.31,5.576-1.652,12.009-1.622,17.896c0.019,3.521,2.733,5.076,5.457,4.886
				c4.742,6.222,12.073,10.041,20.384,8.48c11.748-2.207,18.627-14.055,16.213-25.49c-1.216-5.758-4.407-10.364-8.669-13.348
				c12.461-1.954,25.256-6.45,35.462-13.722c0.505,1.104,1.056,2.169,1.646,3.201c0.08,0.064,0.161,0.126,0.237,0.206
				c5.859,6.105,12.637,9.05,19.852,10.729c0.201,0.075,0.399,0.156,0.601,0.229c11.012,3.998,22.222,5.072,33.706,5.337
				c0.52,0.275,0.843,0.705,0.989,1.191c1.003-0.165,2.007-0.353,3.01-0.551c-0.614,3.104-0.674,6.399-0.536,9.277
				c0.522,10.923,8.276,19.05,12.664,28.522C378.241,233.275,370.81,236.971,363.999,241.586z M430.69,210.972
				c-9.926,7.532-22.421,11.034-34.022,15.069c-0.175,0.061-0.35,0.127-0.524,0.188c-3.368-7.166-8.499-13.465-11.154-20.938
				c-0.887-2.497-0.898-5.227-0.855-7.845c0.022-1.36,0.341-2.737,0.642-4.057c0.221-0.968,1.211-1.539,0.414-1.248
				c1.836-0.671,2.887-1.949,3.311-3.397c5.059-1.382,10.085-2.817,15.042-4.02c10.83-2.626,22.772-3.767,32.776,2.046
				C447.152,193.066,437.227,206.012,430.69,210.972z"/>
		</g>
	</g>
	<g>
		<g>
			<path d="M288.216,251.705c-4.633-9.846-15.536-13.857-25.776-11.562c-9.336,2.092-13.032,10.89-11.208,19.196
				c-0.356,0.79-0.506,1.738-0.369,2.839c1.565,12.5,13.556,19.593,25.538,16.799C288.762,276.096,293.388,262.697,288.216,251.705z
				 M274.406,268.164c-4.225,1.486-9.265-0.078-11.486-3.727c0.767-1.187,0.954-2.734,0.12-4.502
				c-2.251-4.766-2.242-7.73,2.372-9.229c4.37-1.419,9.64,0.707,12.222,4.447C280.82,259.77,279.877,266.24,274.406,268.164z"/>
		</g>
	</g>
	<g>
		<g>
			<path d="M273.585,295.338c-6.646-1.751-13.984-0.079-20.042,3.44c-2.052-0.042-3.879,1.221-5.1,3.058
				c-0.304,0.457-0.576,0.916-0.834,1.375c-0.483,0.459-0.95,0.928-1.393,1.41c-1.654,1.805-1.757,3.846-0.986,5.534
				c-0.83,5.615,0.632,11.353,2.282,17.28c0.546,1.961,1.791,3.054,3.242,3.461c3.074,3.721,8.224,5.662,14.166,5.412
				c9.805-0.412,19.771-6.795,22.326-16.507C290.132,308.828,284.516,298.217,273.585,295.338z M276.837,315.206
				c-0.464,5.491-5.007,8.74-10.191,9.81c-3.703,0.763-8.586,0.938-7.898-3.714c0.388-2.622-0.887-4.561-2.686-5.59
				c-0.183-1.928-0.059-3.821,0.614-5.757C263.947,304.648,277.878,302.885,276.837,315.206z"/>
		</g>
	</g>
</g>
</svg>
