<?xml version="1.0" encoding="utf-8"?>
<!-- Generator: Adobe Illustrator 16.0.3, SVG Export Plug-In . SVG Version: 6.00 Build 0)  -->
<!DOCTYPE svg PUBLIC "-//W3C//DTD SVG 1.1//EN" "http://www.w3.org/Graphics/SVG/1.1/DTD/svg11.dtd">
<svg version="1.1" id="Layer_1" xmlns="http://www.w3.org/2000/svg" xmlns:xlink="http://www.w3.org/1999/xlink" x="0px" y="0px"
	 width="512px" height="512px" viewBox="0 0 512 512" style="enable-background:new 0 0 512 512;" xml:space="preserve">
<style type="text/css">
<![CDATA[
	.st0{fill:#127274;}
	.st1{fill:#14B6B9;}
	.st2{fill:#1E4384;}
	.st3{fill:#EF4754;}
	.st4{fill:#EF4823;}
	.st5{fill:#BCBCBC;}
	.st6{fill:#F6851F;}
	.st7{fill:#C56528;}
	.st8{fill:#FCBF95;}
	.st9{fill:#FEBF10;}
	.st10{fill:none;}
	.st11{fill:#010101;}
	.st12{fill:#3AB37C;}
	.st13{fill:#D6E5E5;}
	.st14{fill:#71C598;}
	.st15{fill:#74CCCF;}
]]>
</style>
<g>
	<g>
		<g>
			<path class="st13" d="M459.13,161.682c0.021-0.024,0.043-0.049,0.064-0.074c0.061-0.15,0.122-0.312,0.186-0.498
				C459.311,161.312,459.223,161.5,459.13,161.682z"/>
		</g>
	</g>
	<g>
		<g>
			<path class="st13" d="M458.576,162.504c0.212-0.248,0.399-0.52,0.554-0.822C458.819,162.045,458.646,162.332,458.576,162.504z"/>
		</g>
	</g>
	<g>
		<g>
			<path class="st13" d="M436.852,373.691c-0.503-4.594-2.117-8.35-4.181-12.426c-2.759-5.447-5.147-10.818-5.979-16.926
				c-0.647-4.756-0.114-11.49-3.123-15.514c-3.691-4.934-11.156-5.516-16.821-5.389c-18.673,0.416-36.72,6.627-54.692,11.059
				c-7.432,1.834-14.74,3.615-22.419,3.115c-14.388-0.936-28.28,2.754-42.35,5.066c-15.587,2.562-31.163,2.094-46.886,1.535
				c-7.525-0.268-15.1-0.65-22.617-0.035c-6.343,0.52-12.653,1.369-18.997,1.869c-12.797,1.01-26.592,1.266-37.235-6.921
				c-5.085-3.911-10.573-10.913-17.138-12.01c-6.601-1.103-13.24-1.251-19.919-1.253c-6.232-0.002-12.211-2.719-17.976-4.848
				c-7.03-2.595-14.051-5.29-21.296-7.236c-5.397-1.451-12.984-3.621-18.114-1.971c-1.935,0.621-2.976,1.314-3.306,2.533
				c-0.869,3.215-0.406,6.385,0.231,9.612c0.659,3.337-1.523,5.241-4.122,5.569c0.008,0.836-0.143,1.698-0.479,2.51
				c1.662,7.098,1.456,14.383,1.228,21.765c-0.151,4.853-0.335,9.799,0.354,14.62c0.655,4.588,2.868,8,4.785,12.127
				c3.261,7.021,5.106,14.779,3.833,22.532c-0.885,5.382-5.4,17.085,0.346,21.17c2.643,1.878,6.77,1.442,9.828,1.915
				c3.917,0.605,7.895,1.685,11.582,3.148c8.072,3.205,15.195,8.191,22.961,12.008c14.699,7.223,30.064,2.475,45.554,5.346
				c6.608,1.225,12.869,2.572,19.189,4.953c5.695,2.145,11.284,4.729,17.116,6.488c13.968,4.213,28.961,2.82,43.39,4.123
				c8.038,0.727,16.057,1.641,24.079,2.535c6.992,0.78,14.029,0.848,21.029,1.773c14.155,1.873,29,4.441,43.228,1.647
				c12.641-2.483,23.449-10.171,35.487-14.366c10.865-3.787,22.26-4.98,33.59-6.514c8.538-1.154,15.688-3.756,21.669-10.238
				c4.173-4.521,8.066-9.379,12.068-14.059c1.251-1.463,2.706-3.088,4.051-4.83c-1.776-1.861-2.431-4.852-0.698-7.094
				c-1.508-2.596-1.068-6.252,1.599-7.628c0.463-5.812,0.182-11.757,0.491-17.503C436.412,381.881,437.296,377.751,436.852,373.691z
				"/>
		</g>
	</g>
	<g>
		<g>
			<path class="st4" d="M395.5,311.776c-4.19-0.312-5.128-4.233-3.741-7.267c-11.512-11.133-20.964-24.629-28.273-38.711
				c-8.684-16.73-15.467-34.799-16.789-53.742c-1.72-24.649-2.855-60.535,18.117-77.793c-0.683-1.035-1.378-2.076-2.065-3.15
				c-2.753-4.302-4.973-8.881-4.565-14.113c0.351-4.49,2.613-8.281,5.533-11.531c-2.091-4.363-3.232-9.418-1.783-13.865
				c-14.703-3.107-30.807-0.256-45.207,2.445c-16.371,3.07-32.806,5.957-48.65,11.211c-33.801,11.209-65.278,29.381-92.359,52.479
				c-12.623,10.766-23.964,22.361-33.737,35.715c-9.081,12.408-17.865,25.048-26.288,37.912
				c-9.196,14.045-18.261,28.327-25.785,43.354c-2.605,5.203-5.416,11.002-6.771,16.057c-0.315,1.174-0.612,2.359-0.781,3.564
				c-0.042,0.299-0.072,0.6-0.104,0.9c-0.004,0.203-0.01,0.484-0.002,0.602c0.013,0.206,0.018,0.358,0.019,0.477
				c1.993,1.599,2.281,3.703,1.579,5.517c8.15,1.848,16.19,5.128,23.494,7.821c5.264,1.941,10.359,4.388,15.849,5.258
				c6.515,1.031,13.482-0.023,20.1,0.908c6.763,0.951,11.554,3.432,16.793,7.801c5.3,4.422,10.184,9.666,17.222,10.969
				c6.299,1.168,12.642,1.115,19.011,0.613c13.913-1.098,27.316-2.529,41.313-2.031c15.738,0.561,31.553,1.372,47.168-1.195
				c13.838-2.275,27.668-6.049,41.809-5.447c17.262,0.732,33.673-5.873,50.345-9.693c6.492-1.488,14.169-3.381,21.916-4.273
				C397.777,312.196,396.682,311.863,395.5,311.776z"/>
		</g>
	</g>
	<g>
		<g>
			<path class="st13" d="M454.541,97.809C448.935,90.914,440.268,87.51,433,82.762c-7.079-4.625-12.87-10.001-16.952-17.062
				c-10.438,5.639-18.98,13.928-27.366,22.309c-0.89,0.891-1.886,1.385-2.894,1.58c-0.909,2.916-4.049,5.314-7.686,3.717
				c-0.642-0.282-1.371-0.439-2.096-0.439c-0.248,0.558-0.567,1.073-0.955,1.514c-0.651,0.74-1.759,1.525-2.694,1.846
				c-0.027,0.01-0.044,0.016-0.069,0.023c-0.031,0.029-0.062,0.059-0.093,0.086c-0.134,2.441,1.747,5.225,2.914,6.969
				c1.267,1.891,1.372,5.051-0.428,6.705c-3.511,3.232-7.335,7.096-4.575,12.025c1.289,2.305,2.846,4.443,4.333,6.623
				c4.072-0.53,6.415,4.645,4.613,8.291c1.658,3.883,2.787,7.98,3.286,12.197c0.398,3.36-0.089,7.414,1.035,10.625
				c1.394,3.981,6.753,7.065,10.424,8.604c5.273,2.211,11.168,2.424,16.773,1.557c6.016-0.932,11.369-2.725,16.104-6.624
				c3.778-3.112,8.082-7.369,12.994-8.628c3.856-0.988,7.664-0.467,11.54-0.814c0.96-1.047,0.485-0.379,0.222-0.021
				c0.004,0,0.008,0,0.013-0.001c0.069-0.087,0.157-0.2,0.294-0.374c0.845-1.072,1.447-2.331,1.973-3.588
				c3.621-8.645,4.893-18.58,5.58-27.863C459.917,113.527,460.217,104.789,454.541,97.809z"/>
		</g>
	</g>
	<g>
		<g>
			<path class="st11" d="M446.698,403.422c0.035-1.988,0.015-3.859,0.068-5.41c0.15-4.302,0.197-8.605,0.396-12.906
				c0.195-4.21,0.978-7.973,0.658-12.26c-0.803-10.814-8.463-18.885-10.158-29.352c-1.643-10.139-1.385-20.022-10.755-26.302
				c-5.405-3.622-11.903-4.993-18.702-5.122c-1.252,1.127-2.951,1.836-4.706,1.706c-1.661-0.123-3.14-0.702-4.637-1.212
				c-7.747,0.893-15.424,2.785-21.916,4.273c-16.672,3.82-33.083,10.426-50.345,9.693c-14.141-0.602-27.971,3.172-41.809,5.447
				c-15.615,2.567-31.43,1.756-47.168,1.195c-13.997-0.498-27.4,0.934-41.313,2.031c-6.369,0.502-12.712,0.555-19.011-0.613
				c-7.038-1.303-11.922-6.547-17.222-10.969c-5.239-4.369-10.03-6.85-16.793-7.801c-6.617-0.932-13.585,0.123-20.1-0.908
				c-5.489-0.87-10.585-3.316-15.849-5.258c-7.304-2.693-15.344-5.974-23.494-7.821c-1.215,3.137-5.402,5.404-8.926,2.675
				c-1.469-1.139-2.422-2.549-2.998-4.117c-2.644,0.01-5.267,0.273-7.848,0.867c-10.193,2.35-12.57,12.701-11.315,21.711
				c-3.159,0.092-6.288,3.055-5.399,7.226c0.116,0.546,0.322,1.071,0.57,1.577c4.577,13.615-0.156,28.602,3.012,42.576
				c1.3,5.736,5.303,10.809,7.099,16.49c1.969,6.225,0.406,12.178-0.777,18.348c-2.264,11.797,0.636,24.223,13.843,26.982
				c5.789,1.209,11.299,1.369,16.911,3.599c6.335,2.515,12.04,6.435,18.087,9.536c5.989,3.072,11.687,5.693,18.381,6.854
				c5.944,1.029,12.098,0.711,18.095,0.533c13.077-0.392,25.14,2.158,37.251,6.963c5.684,2.256,11.368,4.467,17.263,6.115
				c7.114,1.991,14.283,2.018,21.603,2.16c7.502,0.145,14.983,0.73,22.45,1.433c7.861,0.739,15.938,2.421,23.829,2.501
				c21.428,0.217,42.282,6.798,63.809,3.291c9.021-1.469,17.254-5.484,25.421-9.389c9.113-4.357,18.146-7.605,28.112-9.381
				c13.205-2.352,27.015-1.896,38.254-10.264c6.85-5.098,11.847-12.359,17.446-18.705c6.026-6.83,11.56-14.064,12.02-23.462
				C450.142,405.776,448.568,404.193,446.698,403.422z M436.192,385.953c-0.31,5.746-0.028,11.691-0.491,17.503
				c-2.667,1.376-3.106,5.032-1.599,7.628c-1.732,2.242-1.078,5.232,0.698,7.094c-1.345,1.742-2.8,3.367-4.051,4.83
				c-4.002,4.68-7.896,9.537-12.068,14.059c-5.981,6.482-13.131,9.084-21.669,10.238c-11.33,1.533-22.725,2.727-33.59,6.514
				c-12.038,4.195-22.847,11.883-35.487,14.366c-14.228,2.794-29.072,0.226-43.228-1.647c-7-0.926-14.037-0.993-21.029-1.773
				c-8.022-0.895-16.041-1.809-24.079-2.535c-14.429-1.303-29.422,0.09-43.39-4.123c-5.832-1.76-11.421-4.344-17.116-6.488
				c-6.32-2.381-12.581-3.729-19.189-4.953c-15.489-2.871-30.854,1.877-45.554-5.346c-7.766-3.816-14.889-8.803-22.961-12.008
				c-3.688-1.464-7.665-2.543-11.582-3.148c-3.059-0.473-7.186-0.037-9.828-1.915c-5.746-4.085-1.23-15.788-0.346-21.17
				c1.273-7.753-0.572-15.511-3.833-22.532c-1.917-4.127-4.13-7.539-4.785-12.127c-0.688-4.821-0.505-9.768-0.354-14.62
				c0.229-7.382,0.435-14.667-1.228-21.765c0.336-0.812,0.486-1.674,0.479-2.51c2.599-0.328,4.781-2.232,4.122-5.569
				c-0.638-3.228-1.101-6.397-0.231-9.612c0.33-1.219,1.371-1.912,3.306-2.533c5.13-1.65,12.717,0.52,18.114,1.971
				c7.245,1.946,14.266,4.642,21.296,7.236c5.765,2.129,11.743,4.846,17.976,4.848c6.679,0.002,13.318,0.15,19.919,1.253
				c6.564,1.097,12.053,8.099,17.138,12.01c10.644,8.187,24.438,7.931,37.235,6.921c6.344-0.5,12.654-1.35,18.997-1.869
				c7.518-0.615,15.092-0.232,22.617,0.035c15.723,0.559,31.299,1.027,46.886-1.535c14.069-2.312,27.962-6.002,42.35-5.066
				c7.679,0.5,14.987-1.281,22.419-3.115c17.973-4.432,36.02-10.643,54.692-11.059c5.665-0.127,13.13,0.455,16.821,5.389
				c3.009,4.023,2.476,10.758,3.123,15.514c0.831,6.107,3.22,11.479,5.979,16.926c2.063,4.076,3.678,7.832,4.181,12.426
				C437.296,377.751,436.412,381.881,436.192,385.953z"/>
		</g>
	</g>
	<g>
		<g>
			<path class="st11" d="M467.767,98.648c-8.699-20.316-35.742-21.638-44.025-42.09c-1.054-2.602-4.174-4.633-7.01-3.373
				c-14.287,6.348-25.385,16.636-36.313,27.561c-0.495,0.494-0.856,1.01-1.108,1.533c-2.756-0.551-5.521-0.387-8.096,0.477
				c-3.472-1.642-7.9-2.068-11.465-2.57c-13.489-1.902-27.329-0.02-40.635,2.305c-26.861,4.693-53.086,10.447-78.172,21.416
				c-25.812,11.287-49.855,26.57-71.377,44.713c-13.002,10.959-24.951,22.775-35.027,36.451
				c-15.781,21.418-30.814,43.54-44.373,66.434c-6.006,10.141-11.961,20.582-16.036,31.676c-1.753,4.771-4.153,11.911-2.208,17.213
				c3.953-0.016,7.951,0.542,11.924,1.442c0.702-1.813,0.414-3.918-1.579-5.517c-0.001-0.118-0.006-0.271-0.019-0.477
				c-0.008-0.117-0.002-0.398,0.002-0.602c0.032-0.301,0.062-0.602,0.104-0.9c0.169-1.205,0.466-2.391,0.781-3.564
				c1.354-5.055,4.165-10.854,6.771-16.057c7.524-15.026,16.589-29.309,25.785-43.354c8.423-12.864,17.207-25.504,26.288-37.912
				c9.773-13.354,21.114-24.949,33.737-35.715c27.081-23.098,58.559-41.27,92.359-52.479c15.845-5.254,32.279-8.141,48.65-11.211
				c14.4-2.701,30.504-5.553,45.207-2.445c-1.449,4.447-0.308,9.502,1.783,13.865c-2.92,3.25-5.183,7.041-5.533,11.531
				c-0.407,5.232,1.812,9.812,4.565,14.113c0.688,1.074,1.383,2.115,2.065,3.15c-20.973,17.258-19.837,53.144-18.117,77.793
				c1.322,18.943,8.105,37.012,16.789,53.742c7.31,14.082,16.762,27.578,28.273,38.711c-1.387,3.033-0.449,6.955,3.741,7.267
				c1.182,0.087,2.277,0.42,3.363,0.788c3.128-0.359,6.265-0.552,9.343-0.494c2.256-2.027,3.045-5.426-0.025-7.824
				c-14.342-11.209-25.309-25.996-34.086-41.822c-8.281-14.934-14.948-32.119-16.283-49.26c-1.069-13.721-1.416-27.591,0.637-41.236
				c1.436-9.539,4.444-20.734,11.574-27.809c1.497,4.494,1.607,9.142,1.959,13.826c0.758,10.084,8.325,16.085,16.922,20.283
				c10.47,5.111,23.719,3.521,34.33-0.224c5.629-1.987,9.805-5.856,14.392-9.513c4.339-3.457,6.265-3.629,11.608-3.63
				c2.717-0.001,7.279,0.052,9.343-2.358c0.069-0.172,0.243-0.459,0.554-0.822c0.093-0.182,0.181-0.369,0.25-0.572
				c-0.063,0.186-0.125,0.348-0.186,0.498c0.111-0.125,0.232-0.256,0.376-0.395c0.489-0.475,0.878-1.055,1.268-1.607
				c1.26-1.793,2.24-3.67,3.085-5.688c3.754-8.965,5.188-19.002,6.066-28.611C470.807,116.365,471.374,107.074,467.767,98.648z
				 M459.29,122.016c-0.688,9.283-1.959,19.219-5.58,27.863c-0.525,1.257-1.128,2.516-1.973,3.588
				c-0.137,0.174-0.225,0.287-0.294,0.374c-0.005,0.001-0.009,0.001-0.013,0.001c0.264-0.357,0.738-1.025-0.222,0.021
				c-3.876,0.348-7.684-0.174-11.54,0.814c-4.912,1.259-9.216,5.516-12.994,8.628c-4.734,3.899-10.088,5.692-16.104,6.624
				c-5.605,0.867-11.5,0.654-16.773-1.557c-3.671-1.538-9.03-4.622-10.424-8.604c-1.124-3.211-0.637-7.265-1.035-10.625
				c-0.499-4.217-1.628-8.314-3.286-12.197c1.802-3.646-0.541-8.821-4.613-8.291c-1.487-2.18-3.044-4.318-4.333-6.623
				c-2.76-4.93,1.064-8.793,4.575-12.025c1.8-1.654,1.694-4.814,0.428-6.705c-1.167-1.744-3.048-4.527-2.914-6.969
				c0.031-0.027,0.062-0.057,0.093-0.086c0.025-0.008,0.042-0.014,0.069-0.023c0.936-0.32,2.043-1.105,2.694-1.846
				c0.388-0.44,0.707-0.956,0.955-1.514c0.725,0,1.454,0.157,2.096,0.439c3.637,1.598,6.776-0.801,7.686-3.717
				c1.008-0.195,2.004-0.689,2.894-1.58c8.386-8.381,16.929-16.67,27.366-22.309c4.082,7.062,9.873,12.438,16.952,17.062
				c7.268,4.748,15.935,8.152,21.541,15.047C460.217,104.789,459.917,113.527,459.29,122.016z"/>
		</g>
	</g>
	<g>
		<g>
			<path class="st11" d="M71.921,300.393c0.576,1.568,1.529,2.979,2.998,4.117c3.523,2.729,7.711,0.462,8.926-2.675
				C79.872,300.935,75.874,300.377,71.921,300.393z"/>
		</g>
	</g>
	<g>
		<g>
			<path class="st11" d="M398.863,312.564c1.497,0.51,2.976,1.089,4.637,1.212c1.755,0.13,3.454-0.579,4.706-1.706
				C405.128,312.013,401.991,312.205,398.863,312.564z"/>
		</g>
	</g>
	<g>
		<g>
			<path class="st11" d="M459.13,161.682c-0.154,0.303-0.342,0.574-0.554,0.822c-0.149,0.373,0.178,0.207,0.618-0.896
				C459.173,161.633,459.15,161.657,459.13,161.682z"/>
		</g>
	</g>
</g>
</svg>
