<?xml version="1.0" encoding="utf-8"?>
<!-- Generator: Adobe Illustrator 16.0.3, SVG Export Plug-In . SVG Version: 6.00 Build 0)  -->
<!DOCTYPE svg PUBLIC "-//W3C//DTD SVG 1.1//EN" "http://www.w3.org/Graphics/SVG/1.1/DTD/svg11.dtd">
<svg version="1.1" id="Layer_1" xmlns="http://www.w3.org/2000/svg" xmlns:xlink="http://www.w3.org/1999/xlink" x="0px" y="0px"
	 width="512px" height="512px" viewBox="0 0 512 512" style="enable-background:new 0 0 512 512;" xml:space="preserve">
<style type="text/css">
<![CDATA[
	.st0{fill:#127274;}
	.st1{fill:#14B6B9;}
	.st2{fill:#1E4384;}
	.st3{fill:#EF4754;}
	.st4{fill:#EF4823;}
	.st5{fill:#BCBCBC;}
	.st6{fill:#F6851F;}
	.st7{fill:#C56528;}
	.st8{fill:#FCBF95;}
	.st9{fill:#FEBF10;}
	.st10{fill:none;}
	.st11{fill:#010101;}
	.st12{fill:#3AB37C;}
	.st13{fill:#D6E5E5;}
	.st14{fill:#71C598;}
	.st15{fill:#74CCCF;}
]]>
</style>
<g>
	<g>
		<g>
			<path class="st4" d="M213.079,234.582c-0.111-13.611,1.09-27.195,1.676-40.79c-4.088,3.411-8.214,6.776-12.361,10.114
				c-9.433,7.59-21.457,15.549-27.94,26.082c-5.118,8.316-2.782,15.795,2.604,23.473c2.669,3.805,5.468,7.562,8.337,11.277
				c2.41,0.48,4.293,2.977,4.399,5.604c4.229,5.291,8.571,10.496,12.888,15.613c2.109,2.502,4.257,4.988,6.456,7.43
				c1.312,0.461,2.364,1.445,2.745,2.988c6.182,6.605,12.822,12.777,20.299,17.873c0.181,0.123,0.35,0.25,0.505,0.381
				c1.173-0.016,2.393,0.458,3.495,1.619c0.543,0.57,1.019,1.014,1.475,1.369C227.345,290.502,213.324,264.322,213.079,234.582z"/>
		</g>
	</g>
	<g>
		<g>
			<path class="st9" d="M311.358,248.196c-10.797-41.179-24.57-81.476-26.14-124.253c-5.451,5.729-11.004,11.365-16.526,17.028
				c-2.333,2.393-4.629,4.824-6.912,7.269c0.161,0.509,0.254,1.078,0.255,1.714c0.094,45.062,7.762,89.397,26.712,130.335
				c8.385-9.597,16.342-19.609,25.047-28.905C312.687,250.84,311.782,249.814,311.358,248.196z"/>
		</g>
	</g>
	<g>
		<g>
			<path class="st9" d="M277.61,282.303c-17.553-38.576-25.403-80.379-26.429-122.656c-4.608,4.935-9.274,9.811-14.164,14.457
				c-3.604,3.426-7.286,6.766-11.017,10.053c-0.295,16.521-2.357,33.051-1.951,49.58c0.731,29.768,14.804,55.418,24.902,82.674
				c0.184-0.094,0.367-0.186,0.548-0.285c11.802-6.484,21.695-16.445,30.838-26.452c0.003-0.003,0.006-0.007,0.009-0.01
				c0.061-0.065,0.12-0.132,0.18-0.196C277.485,288.23,276.689,284.912,277.61,282.303z"/>
		</g>
	</g>
	<g>
		<g>
			<path class="st9" d="M195.797,294.744c-4.396-5.158-8.771-10.401-13.052-15.721c-9.564,8.392-17.926,18.135-26.1,27.85
				c-10.209,12.133-20.364,23.771-31.964,34.617c-11.38,10.641-22.371,21.861-34.083,32.123
				c-8.244,7.225-18.419,14.15-24.785,23.389c9.161,7.478,16.2,17.383,25.852,24.252c11.662-12.49,23.777-24.549,35.483-36.998
				c6.612-7.033,13.133-14.162,19.303-21.587c4.217-5.075,8.152-10.335,12.697-15.124c8.562-9.021,17.517-17.668,25.903-26.855
				c4.09-4.48,8.176-9.039,11.699-13.988c1.24-1.742,2.432-3.551,3.343-5.492c0.071-0.154,0.259-0.627,0.429-1.048
				C198.927,298.368,197.347,296.562,195.797,294.744z"/>
		</g>
	</g>
	<g>
		<g>
			<path class="st9" d="M330.974,421.863c-3.108-0.002-5.52-1.914-5.909-5.062c-1.229-9.941,0.099-19.672,2.321-29.27
				c-6.187,5.5-11.52,12.011-16.704,18.477c-2.87,3.58-9.617,1.549-9.617-3.207v-4c0-0.271,0.021-0.529,0.053-0.783
				c-8.722-3.038-16.54-8.264-24.927-12.184c-2.015,12.031,2.477,24.795-6.867,35.078c-7.139,7.857-16.449,12.646-25.659,17.568
				c9.808,3.277,21.777,1.848,26.077,14.078c3.395,9.656,0.079,19.104-2.117,28.611c3.522-2.389,7.047-4.775,10.697-6.967
				c6.586-3.953,14.071-8.447,21.898-9.188c11.929-1.129,22.707,6.926,33.165,13.314c-3.11-12.361-8.657-25.366,0.246-36
				c4.949-5.91,11.894-9.359,18.695-12.678c3.287-1.604,6.801-3.17,9.928-5.214C352.184,421.689,341.306,421.865,330.974,421.863z"
				/>
		</g>
	</g>
	<g>
		<g>
			<path class="st4" d="M426.397,122.902c-0.473-14.449-1.895-30.619-8.947-43.568c-2.818-5.174-6.482-10.363-11.816-13.195
				c-8.037-4.268-18.466-4.559-27.367-4.822c-18.289-0.541-36.509,1.197-54.758,2.074c10.828,7.85,21.05,16.5,30.832,25.631
				c10.279,9.596,19.883,19.917,30.25,29.406c8.059,7.377,16.383,14.481,24.125,22.195c5.039,5.02,12.031,11.176,14.522,18.27h0.765
				C426.109,147.055,426.79,134.887,426.397,122.902z"/>
		</g>
	</g>
	<g>
		<g>
			<path class="st9" d="M397.846,145.389c-7.077-6.711-14.5-13.043-21.611-19.715c0.981,11.932,5.537,23.418,10.868,34.055
				c1.06,2.114,2.215,4.799,2.936,7.516c0.01-0.013,0.02-0.025,0.029-0.039c3.884-5.205,8.625-11.795,14.599-15.498
				C402.274,149.389,399.813,147.254,397.846,145.389z"/>
		</g>
	</g>
	<g>
		<g>
			<path class="st9" d="M349.623,199.93c0.796-1.443-1.567-6.037-2.566-7.936c-1.937-3.682-4.103-7.227-6.173-10.832
				c-5.357-9.333-8.386-19.773-10.512-30.274c-1.471-7.264-2.005-14.804-3.782-21.985c-1.547-6.251-3.346-12.434-4.965-18.666
				c-2.202-8.473-4.083-16.953-4.618-25.584c-6.014,7.309-10.727,15.678-16.889,22.889c-1.604,1.879-3.238,3.729-4.883,5.568
				c0.494,0.742,0.795,1.685,0.8,2.845c0.171,44.138,14.28,85.269,25.401,127.451c11.824-12.165,23.936-24.044,35.702-36.271
				C352.958,209.227,346.802,205.046,349.623,199.93z"/>
		</g>
	</g>
	<g>
		<g>
			<path class="st4" d="M379.592,169.686c-0.036-0.094-0.062-0.169-0.104-0.273c-0.673-1.711-1.432-3.379-2.256-5.021
				c-1.619-3.23-3.172-6.416-4.505-9.773c-4.081-10.281-7.469-20.652-7.663-31.816c-0.042-2.422,1.218-4.114,2.896-5.01
				c-13.201-12.711-26.154-25.516-40.242-37.121c0.029,11.711,3.561,23.312,6.608,34.502c1.833,6.729,3.469,13.363,4.5,20.26
				c1.029,6.885,2.104,13.795,3.938,20.518c1.508,5.529,3.08,11.533,5.851,16.589c1.891,3.45,3.987,6.782,5.896,10.224
				c3.34,6.021,8.708,14.82,5.079,21.82c3.887-4.074,7.734-8.189,11.512-12.375c3.597-3.986,6.818-8.215,9.946-12.516
				C376.632,178.509,375.91,171.992,379.592,169.686z"/>
		</g>
	</g>
	<g>
		<g>
			<path class="st11" d="M437.331,120.926c-0.535-16.33-3.143-33.127-10.762-47.742c-3.234-6.205-7.949-11.686-13.806-15.528
				c-7.97-5.229-17.875-6.137-27.146-6.868c-26.502-2.088-52.992,2.012-79.491,2.105c-7.09,0.025-6.215,10.995,0.848,10.971
				c0.097-0.001,0.193-0.004,0.289-0.004c0.265,0.898,0.793,1.801,1.656,2.65c1.266,1.246,2.447,2.076,3.762,2.602
				c0.761,0.536,1.506,1.088,2.259,1.631c-5.147,4.031-9.146,10.404-12.432,15.193c-7.54,10.99-16.126,20.841-25.303,30.512
				c-10.677,11.25-21.757,22.108-32.264,33.521c-10.388,11.283-21.175,21.869-32.874,31.805
				c-11.415,9.691-23.424,18.666-34.532,28.715c-7.297,6.6-14.679,14.24-16.827,24.17c-2.157,9.97,3.375,19.73,9.022,27.458
				c2.038,2.789,4.122,5.56,6.241,8.312c-9.639,8.446-18.165,18.056-26.453,27.835c-4.895,5.774-9.71,11.615-14.635,17.365
				c-5.699,6.654-12.081,12.609-18.466,18.6c-11.752,11.025-23.115,22.701-35.342,33.186c-9.905,8.494-21.219,16.748-27.453,28.516
				c-1.05,1.98-0.664,5.227,1.296,6.58c12.963,8.949,21.478,22.656,35.184,30.795c2.134,1.267,5.002,0.42,6.579-1.297
				c13.053-14.193,26.763-27.76,39.97-41.808c11.426-12.151,21.354-25.608,32.885-37.616c9.041-9.414,18.398-18.521,27.07-28.285
				c2.703-3.044,5.807-6.426,8.526-10.08c0.128,13.774,0.554,27.541,5.218,40.582c4.617,12.91,11.886,25.078,20.107,35.994
				c5.862,7.781,12.713,15.467,20.773,21.242c0.07,2.818,2.023,5.752,5.619,5.82c-7.922,6.787-18.615,10.797-27.376,15.961
				c-3.155,1.858-3.013,6.393-0.556,8.691c4.923,4.605,10.697,7.012,17.302,8.051c4.977,0.783,10.657,0.401,13.138,5.636
				c2.395,5.054,0.102,12.431-1.014,17.53c-1.385,6.337-3.115,12.553-3.28,19.074c-0.11,4.396,5.358,6.088,8.561,4.137
				c5.892-3.592,11.485-7.66,17.286-11.393c6.039-3.887,12.905-8.473,20.155-9.56c5.922-0.889,12.559,3.735,17.437,6.478
				c6.487,3.648,12.713,7.959,19.6,10.842c3.95,1.652,8.042-1.012,7.933-5.351c-0.196-7.741-2.854-15.376-4.726-22.827
				c-1.604-6.391-2.838-11.904,1.947-17.082c9.194-9.949,25.266-10.566,33.425-22.037c2-2.811,1.776-6.913-1.685-8.557
				c-12.263-5.826-25.947-6.475-39.35-6.549c-0.393-12.102,2.98-23.84,6.301-35.475c1.469-5.143-4.717-7.572-8.474-5.609
				c-9.014,4.707-16.411,11.744-23.104,19.365c-0.244-0.08-0.498-0.152-0.771-0.205c-12.517-2.426-22.698-11.32-34.603-15.527
				c-2.556-0.904-6.272-0.576-7.374,2.479c-2.331,6.468-2.543,13.055-2.558,19.869c-0.009,3.959,0.124,7.761-0.746,11.311
				c-10.488-5.182-18.676-14.413-25.606-23.613c-7.659-10.17-14.092-21.463-18.384-33.463c-3.809-10.652-4.184-22.451-4.245-34.332
				c2.822,2.422,5.756,4.711,8.835,6.809c1.063,0.725,2.178,1.035,3.252,1.041c0.208,0.329,0.455,0.65,0.748,0.959
				c9.494,9.993,23.637,3.336,32.957-3.168c14.012-9.775,25.73-23.043,36.939-35.803c8.932-10.167,17.126-21.383,26.957-30.713
				c1.382-1.311-2.398,2.49,0.909-0.818c1.317-1.316,2.635-2.634,3.952-3.951c2.637-2.639,5.271-5.279,7.902-7.923
				c5.741-5.769,11.453-11.567,17.121-17.409c9.854-10.154,20.209-20.264,29.037-31.334c5.124-6.425,9.525-13.412,14.438-19.996
				c3.271-4.384,7.357-10.506,12.698-12.967c0.687,1.238,1.221,2.498,1.528,3.769c0.706,2.915,2.972,3.932,5.225,3.62
				c0.969,1.209,2.443,2.047,4.391,2.047h6c2.447,0,4.5-2.179,4.975-4.436C437.007,150.893,437.816,135.742,437.331,120.926z
				 M269.323,420.912c9.344-10.283,4.853-23.047,6.867-35.078c8.387,3.92,16.205,9.146,24.927,12.184
				c-0.031,0.254-0.053,0.512-0.053,0.783v4c0,4.756,6.747,6.787,9.617,3.207c5.185-6.466,10.518-12.977,16.704-18.477
				c-2.223,9.598-3.551,19.328-2.321,29.27c0.39,3.148,2.801,5.061,5.909,5.062c10.332,0.002,21.21-0.174,31.28,2.575
				c-3.127,2.044-6.641,3.61-9.928,5.214c-6.802,3.318-13.746,6.768-18.695,12.678c-8.903,10.634-3.356,23.639-0.246,36
				c-10.458-6.389-21.236-14.443-33.165-13.314c-7.827,0.74-15.312,5.234-21.898,9.188c-3.65,2.191-7.175,4.578-10.697,6.967
				c2.196-9.508,5.512-18.955,2.117-28.611c-4.3-12.23-16.27-10.801-26.077-14.078C252.874,433.559,262.185,428.77,269.323,420.912z
				 M200.094,301.209c-0.911,1.941-2.103,3.75-3.343,5.492c-3.523,4.949-7.609,9.508-11.699,13.988
				c-8.387,9.188-17.342,17.834-25.903,26.855c-4.545,4.789-8.48,10.049-12.697,15.124c-6.17,7.425-12.69,14.554-19.303,21.587
				c-11.706,12.449-23.821,24.508-35.483,36.998c-9.651-6.869-16.69-16.774-25.852-24.252c6.366-9.238,16.541-16.164,24.785-23.389
				c11.712-10.262,22.703-21.482,34.083-32.123c11.6-10.846,21.755-22.484,31.964-34.617c8.174-9.715,16.535-19.458,26.1-27.85
				c4.281,5.319,8.656,10.562,13.052,15.721c1.55,1.818,3.13,3.624,4.726,5.417C200.353,300.582,200.165,301.055,200.094,301.209z
				 M236.181,316.246c-1.103-1.161-2.322-1.635-3.495-1.619c-0.155-0.131-0.324-0.258-0.505-0.381
				c-7.477-5.096-14.117-11.268-20.299-17.873c-0.381-1.543-1.433-2.527-2.745-2.988c-2.199-2.441-4.347-4.928-6.456-7.43
				c-4.316-5.117-8.658-10.322-12.888-15.613c-0.106-2.627-1.989-5.123-4.399-5.604c-2.869-3.716-5.668-7.473-8.337-11.277
				c-5.386-7.678-7.722-15.156-2.604-23.473c6.483-10.533,18.508-18.492,27.94-26.082c4.147-3.338,8.273-6.703,12.361-10.114
				c-0.586,13.595-1.787,27.179-1.676,40.79c0.245,29.74,14.266,55.92,24.576,83.033
				C237.199,317.26,236.724,316.816,236.181,316.246z M280.347,289.663c-0.003,0.003-0.006,0.007-0.009,0.01
				c-9.143,10.007-19.036,19.968-30.838,26.452c-0.181,0.1-0.364,0.191-0.548,0.285c-10.099-27.256-24.171-52.906-24.902-82.674
				c-0.406-16.529,1.656-33.059,1.951-49.58c3.73-3.287,7.412-6.627,11.017-10.053c4.89-4.646,9.556-9.522,14.164-14.457
				c1.025,42.277,8.876,84.08,26.429,122.656c-0.921,2.609-0.125,5.928,2.916,7.164
				C280.467,289.531,280.407,289.598,280.347,289.663z M288.747,280.289c-18.95-40.938-26.618-85.273-26.712-130.335
				c-0.001-0.636-0.094-1.205-0.255-1.714c2.283-2.444,4.579-4.876,6.912-7.269c5.522-5.663,11.075-11.299,16.526-17.028
				c1.569,42.777,15.343,83.074,26.14,124.253c0.424,1.618,1.328,2.644,2.436,3.188C305.089,260.68,297.132,270.692,288.747,280.289
				z M321.437,243.405c-11.121-42.183-25.23-83.313-25.401-127.451c-0.005-1.16-0.306-2.103-0.8-2.845
				c1.645-1.84,3.278-3.689,4.883-5.568c6.162-7.211,10.875-15.58,16.889-22.889c0.535,8.631,2.416,17.111,4.618,25.584
				c1.619,6.232,3.418,12.415,4.965,18.666c1.777,7.182,2.312,14.722,3.782,21.985c2.126,10.501,5.154,20.941,10.512,30.274
				c2.07,3.605,4.236,7.15,6.173,10.832c0.999,1.898,3.362,6.492,2.566,7.936c-2.821,5.116,3.335,9.297,7.516,7.204
				C345.372,219.361,333.261,231.24,321.437,243.405z M371.101,192.207c-3.777,4.186-7.625,8.301-11.512,12.375
				c3.629-7-1.739-15.8-5.079-21.82c-1.908-3.441-4.005-6.773-5.896-10.224c-2.771-5.056-4.343-11.06-5.851-16.589
				c-1.833-6.723-2.908-13.633-3.938-20.518c-1.031-6.896-2.667-13.531-4.5-20.26c-3.048-11.189-6.579-22.791-6.608-34.502
				c14.088,11.605,27.041,24.41,40.242,37.121c-1.678,0.896-2.938,2.588-2.896,5.01c0.194,11.164,3.582,21.535,7.663,31.816
				c1.333,3.357,2.886,6.543,4.505,9.773c0.824,1.643,1.583,3.311,2.256,5.021c0.041,0.104,0.067,0.18,0.104,0.273
				c-3.682,2.307-2.96,8.823,1.455,10.006C377.919,183.992,374.697,188.221,371.101,192.207z M390.067,167.205
				c-0.01,0.014-0.02,0.026-0.029,0.039c-0.721-2.717-1.876-5.401-2.936-7.516c-5.331-10.637-9.887-22.123-10.868-34.055
				c7.111,6.672,14.534,13.004,21.611,19.715c1.968,1.865,4.429,4,6.82,6.318C398.692,155.41,393.951,162,390.067,167.205z
				 M424.003,158.893h-0.765c-2.491-7.094-9.483-13.25-14.522-18.27c-7.742-7.714-16.066-14.818-24.125-22.195
				c-10.367-9.489-19.971-19.811-30.25-29.406c-9.782-9.131-20.004-17.781-30.832-25.631c18.249-0.877,36.469-2.615,54.758-2.074
				c8.901,0.264,19.33,0.555,27.367,4.822c5.334,2.832,8.998,8.021,11.816,13.195c7.053,12.949,8.475,29.119,8.947,43.568
				C426.79,134.887,426.109,147.055,424.003,158.893z"/>
		</g>
	</g>
</g>
</svg>
