<?xml version="1.0" encoding="utf-8"?>
<!-- Generator: Adobe Illustrator 16.0.3, SVG Export Plug-In . SVG Version: 6.00 Build 0)  -->
<!DOCTYPE svg PUBLIC "-//W3C//DTD SVG 1.1//EN" "http://www.w3.org/Graphics/SVG/1.1/DTD/svg11.dtd">
<svg version="1.1" id="Layer_1" xmlns="http://www.w3.org/2000/svg" xmlns:xlink="http://www.w3.org/1999/xlink" x="0px" y="0px"
	 width="512px" height="512px" viewBox="0 0 512 512" style="enable-background:new 0 0 512 512;" xml:space="preserve">
<style type="text/css">
<![CDATA[
	.st0{fill:#127274;}
	.st1{fill:#14B6B9;}
	.st2{fill:#1E4384;}
	.st3{fill:#EF4754;}
	.st4{fill:#EF4823;}
	.st5{fill:#BCBCBC;}
	.st6{fill:#F6851F;}
	.st7{fill:#C56528;}
	.st8{fill:#FCBF95;}
	.st9{fill:#FEBF10;}
	.st10{fill:none;}
	.st11{fill:#010101;}
	.st12{fill:#3AB37C;}
	.st13{fill:#D6E5E5;}
	.st14{fill:#71C598;}
	.st15{fill:#74CCCF;}
]]>
</style>
<g>
	<g>
		<g>
			<path class="st12" d="M238.076,164.646c-0.408-11.43,3.867-21.812,10.943-29.933c-14.416,4.671-28.475,10.489-41.35,18.548
				c-17.779,11.129-33.096,25.639-45.783,42.32c-7.181,9.441-13.656,19.373-19.707,29.571c-5.475,9.229-11.295,18.564-15.752,28.34
				c-6.679,14.651-10.312,33.806-23.068,44.653c-5.404,4.595-11.498-4.574-6.152-9.119c5.818-4.947,8.708-14.121,11.434-20.965
				c3.346-8.4,6.369-16.971,10.715-24.924c11.113-20.336,22.74-40.803,37.418-58.826c13.308-16.34,29.041-30.977,47.264-41.699
				c13.438-7.906,27.746-13.857,42.51-18.629c-9.229-4.805-16.09-13.006-17.693-25.604c-22.893,6.508-47.264,6.943-68.154-4.844
				c-7.218,14.951-17.465,28.693-31.83,37.414c-14.232,8.643-30.399,12.375-46.813,13.746c0.053,0.537,0.11,1.074,0.184,1.609
				c1.891,13.973,6.84,27.922,1.182,41.695c-4.291,10.443-12.589,16.564-20.356,24.236c-3.441,3.397-8.639,7.973-9.395,13.037
				c-0.537,3.605,1.463,7.215,2.896,10.402c5.897,13.109,9.085,26.694,13.148,40.414c6.464,21.82,9.936,44.877,10.985,67.604
				c0.584,12.605,0.617,25.842-1.292,38.65c13.192-16.645,26.601-33.072,42.743-47.096c21.033-18.27,47.553-31.609,74.801-23.486
				c-0.398-7.652-2.176-15.158-2.566-22.855c-0.504-9.877,1.721-19.15,7.072-27.541c9.029-14.154,23.324-23.337,39.859-24.983
				c0.864-7.915,2.168-16.021,6.518-22.778c2.34-3.635,5.416-6.807,9.016-9.219c1.124-0.754,2.419-1.628,3.804-2.48
				C247.301,194.326,238.629,180.107,238.076,164.646z"/>
		</g>
	</g>
	<g>
		<g>
			<path class="st4" d="M316.137,115.836c-3.32,2.244-6.855,4.221-10.496,5.928c0.668,0.316,1.334,0.631,1.999,0.934
				c2.954,1.348,5.99,2.777,8.901,4.412C316.092,123.393,315.947,119.617,316.137,115.836z"/>
		</g>
	</g>
	<g>
		<g>
			<path class="st4" d="M288.322,37.701c-15.961-0.227-32.68,6.307-43.521,18.229c-8.922,9.811-12.106,21.725-7.783,33.252
				c0.174,0.344,0.314,0.702,0.422,1.07c0.879,2.107,2.006,4.199,3.403,6.26c1.414,2.084,1.174,4.201,0.103,5.806
				c1.879,5.401,5.566,9.286,10.229,11.924c0.965,0.21,1.78,0.646,2.437,1.229c5.979,2.674,13.172,3.598,20.146,3.215
				c0.84-0.047,1.686-0.119,2.532-0.194c0.216-0.05,0.431-0.106,0.647-0.153c2.569-0.553,5.192-0.916,7.828-1.08
				c13.924-2.807,27.677-9.529,36.367-20.566C339.639,73.191,316.146,38.094,288.322,37.701z"/>
		</g>
	</g>
	<g>
		<g>
			<path class="st4" d="M409.504,112.777c-5.558-13.746-17.775-24.402-32.508-27.038c-9.951-1.78-20.762-1.13-29.243,4.858
				c-9.985,7.051-16.63,17.881-18.071,30.039c-0.223,1.885-1.162,3.107-2.398,3.76c0.338,3.453,1.027,6.848,2.044,10.115
				c1.683,0.305,3.26,1.32,4.147,3.256c1.748,3.81,3.166,7.847,4.145,11.98c3.572,4.139,8.066,7.562,13.516,9.928
				c16.297,7.07,40.566,4.562,52.969-9.207C413.426,140.117,414.619,125.428,409.504,112.777z"/>
		</g>
	</g>
	<g>
		<g>
			<path class="st4" d="M327.328,154.451c-1.633-2.135-3.094-4.373-4.361-6.711c-0.76-0.545-1.414-1.311-1.875-2.335
				c-2.162-4.803-8.057-7.823-12.51-10.064c-4.576-2.304-9.342-4.185-13.941-6.435c-1.809-0.884-4.257-1.164-6.812-1.105
				c-0.056,0.012-0.111,0.027-0.166,0.039c-3.045,0.654-6.203,1.129-9.405,1.406c-0.095,0.025-0.198,0.051-0.29,0.076
				c-5.543,1.535-10.769,3.872-15.322,7.434c-14.856,11.622-18.098,32.783-6.091,47.744c7.69,9.58,20.632,13.299,32.536,12.414
				c12.299-0.914,24.919-6.02,32.613-16.008C327.848,172.93,329.018,163.613,327.328,154.451z"/>
		</g>
	</g>
	<g>
		<g>
			<path class="st12" d="M438.31,400.746c-1.966-3.372-4.079-6.652-6.145-9.963c-5.271-8.443-7.296-17.418-7.355-27.346
				c-0.06-10.01,1.304-19.58,6.923-28.114c4.545-6.901,10.09-13.005,15.283-19.402c-11.296-12.132-20.588-25.905-23.838-42.487
				c-3.271-16.688-1.289-35.287,2.244-51.793c0.306-1.426,0.685-2.842,0.975-4.27c-2.855-2.92-5.832-5.764-8.895-8.453
				c-6.566-5.76-13.248-11.378-19.781-17.152c-2.158-1.908-13.092-10.904-17.329-18.201c-12.404,1.975-25.46,0.51-36.524-5.193
				c0.637,5.613,3.686,10.451,6.4,15.34c2.66,4.793,5.451,9.535,7.953,14.416c4.892,9.543,9.215,19.393,12.204,29.711
				c6.071,20.963,7.99,43.509,9.593,65.207c1.688,22.883,2.248,45.82,3.295,68.736c0.5,10.945,1.696,21.831,2.064,32.787
				c0.365,10.861,0.391,21.729,0.391,32.595c0.001,7.06-10.969,7.937-10.969,0.847c-0.001-11.477,0.018-22.961-0.461-34.43
				c-0.459-10.967-1.604-21.873-2.08-32.838c-0.994-22.924-1.533-45.885-3.357-68.764c-1.738-21.795-3.356-44.82-10.477-65.623
				c-3.583-10.467-8.113-20.59-13.762-30.11c-3.131-5.28-6.756-10.981-9.174-16.972c-0.619,1.338-1.314,2.652-2.109,3.936
				c-6.244,10.068-16.053,17.503-27.197,21.359c3.459,15.107,0.6,29.717-8.867,42.377c-7.042,9.42-16.057,17.072-25.204,24.477
				c31.489,9.525,23.91,63.224,4.655,87.105c10.505,7.08,20.594,15.977,26.451,27.086c6.279,11.906,6.797,23.912,1.149,35.164
				c7.19,2.484,14.612,4.311,21.835,6.697c9.617,3.18,18.883,7.444,27.148,13.361c10.523,7.532,17.145,17.787,22.967,28.789
				c8.061-14.832,17.449-28.812,30.205-40.155c5.832-5.187,12.49-9.153,19.115-13.226c4.24-2.607,12.787-6.561,15.027-10.854
				c-0.066-0.13-0.136-0.277-0.217-0.468C439.831,403.475,439.102,402.105,438.31,400.746z"/>
		</g>
	</g>
	<g>
		<g>
			<path class="st11" d="M458.416,319.217c1.914-2.516,1.721-5.518-0.502-7.762c-11.418-11.535-21.294-24.877-24.199-41.184
				c-2.756-15.457-0.496-32.516,2.76-47.723c1.162-5.428,1.574-8.912-2.538-13.171c-6.744-6.981-14.378-12.979-21.524-19.524
				c-4.514-4.13-9.303-7.926-13.732-12.182c-2.278-2.189-4.5-4.439-6.668-6.739c-0.072-0.077-0.14-0.157-0.211-0.233
				c1.42-0.492,2.826-1.014,4.197-1.598c14.701-6.266,25.262-19.272,27.195-35.263c1.848-15.276-3.905-30.788-14.13-42.079
				c-11.278-12.456-27.442-18.43-44.088-17.727c-9.858,0.416-18.967,4.099-26.462,9.926c0.416-2.561,0.6-5.217,0.504-7.971
				c-0.514-14.893-10.287-30.57-21.86-39.473c-13.687-10.527-31.658-11.611-47.869-7.39c-15.877,4.136-30.437,14.267-39.229,28.142
				c-6.046,9.541-7.418,20.451-4.897,30.735c-21.126,5.936-44.608,6.624-63.247-6.548c-2.721-1.924-7.043-1.861-8.559,1.684
				c-6.506,15.221-15.617,28.912-29.661,38.078c-14.099,9.203-31.331,11.996-47.835,12.885c-3.12,0.168-5.115,2.967-5.061,5.908
				c0.254,14.045,7.795,29.342,2.768,43.098c-3.744,10.244-13.33,16.27-20.646,23.758c-7.252,7.42-12.303,15.951-9.184,26.418
				c1.389,4.66,3.869,9.039,5.686,13.542c2.854,7.071,4.983,14.37,6.906,21.739c3.07,11.764,6.5,23.246,8.668,35.223
				c2.09,11.539,3.537,23.195,4.385,34.891c1.58,21.793,1.77,46.37-8.025,66.461c-2.703,5.545,5.043,10.972,9.061,6.078
				c17.948-21.865,34.3-44.979,55.113-64.331c19.873-18.478,47.041-34.687,74.307-22.372c2.963,1.338,7.535-0.158,7.846-3.877
				c0.719-8.595-0.299-16.809-1.525-25.299c-1.3-8.996-1.273-17.088,3.055-25.305c7.537-14.311,21.334-22.719,37.496-22.961
				c2.265-0.035,4.742-2.141,4.975-4.436c0.707-6.971,1.201-14.365,4.131-20.824c1.234-2.723,3.131-5.1,5.43-7
				c2.281-1.887,7.213-5.74,10.277-5.74c1.896,0,3.215-0.789,4.006-1.938c5.072,0.887,10.295,1.033,15.443,0.58
				c0.936,0.826,2.188,1.357,3.738,1.357h1.226c5.347,28.23-21.274,45.807-40.726,61.955c-4.035,3.35-2.383,10.486,3.5,10.045
				c39.209-2.943,22.721,58.953,5.443,74.883c-2.817,2.598-1.057,6.891,1.686,8.559c17.879,10.869,42.574,33.399,26.314,55.441
				c-1.969,2.67-1.83,7.096,1.686,8.559c7.73,3.215,15.839,5.35,23.85,7.73c9.102,2.707,17.357,6.385,25.584,11.089
				c13.979,7.992,20.926,22.237,27.822,36.072c2.021,4.056,7.783,5.281,10.119,0.628c8.795-17.525,18.805-34.822,33.98-47.639
				c5.986-5.057,13.086-8.837,19.716-12.959c5.435-3.381,12.093-7.135,15.421-12.834c3.232-5.535-0.104-11.082-2.898-16.006
				c-4.068-7.164-9.383-13.412-10.916-21.719c-1.869-10.131-1.281-21.238,3.688-30.363
				C444.875,333.932,452.531,326.957,458.416,319.217z M329.682,120.637c1.441-12.158,8.086-22.988,18.071-30.039
				c8.481-5.988,19.292-6.639,29.243-4.858c14.732,2.636,26.95,13.292,32.508,27.038c5.115,12.65,3.922,27.34-5.4,37.691
				c-12.402,13.77-36.672,16.277-52.969,9.207c-5.449-2.365-9.943-5.789-13.516-9.928c-0.979-4.134-2.396-8.171-4.145-11.98
				c-0.888-1.936-2.465-2.951-4.147-3.256c-1.017-3.268-1.706-6.662-2.044-10.115C328.52,123.744,329.459,122.521,329.682,120.637z
				 M244.801,55.93c10.842-11.922,27.561-18.455,43.521-18.229c27.824,0.393,51.316,35.49,32.811,58.99
				c-8.69,11.037-22.443,17.76-36.367,20.566c-2.636,0.164-5.259,0.527-7.828,1.08c-0.217,0.047-0.432,0.104-0.647,0.153
				c-0.847,0.075-1.692,0.147-2.532,0.194c-6.975,0.383-14.168-0.541-20.146-3.215c-0.656-0.584-1.472-1.02-2.437-1.229
				c-4.663-2.638-8.351-6.522-10.229-11.924c1.071-1.604,1.312-3.722-0.103-5.806c-1.397-2.061-2.524-4.152-3.403-6.26
				c-0.107-0.368-0.248-0.727-0.422-1.07C232.694,77.654,235.879,65.74,244.801,55.93z M316.541,127.109
				c-2.911-1.635-5.947-3.064-8.901-4.412c-0.665-0.303-1.331-0.617-1.999-0.934c3.641-1.707,7.176-3.684,10.496-5.928
				C315.947,119.617,316.092,123.393,316.541,127.109z M256.85,204.387c-3.6,2.412-6.676,5.584-9.016,9.219
				c-4.35,6.758-5.653,14.863-6.518,22.778c-16.535,1.646-30.83,10.829-39.859,24.983c-5.352,8.391-7.576,17.664-7.072,27.541
				c0.391,7.697,2.168,15.203,2.566,22.855c-27.248-8.123-53.768,5.217-74.801,23.486c-16.143,14.023-29.551,30.451-42.743,47.096
				c1.909-12.809,1.876-26.045,1.292-38.65c-1.05-22.727-4.521-45.783-10.985-67.604c-4.063-13.72-7.251-27.305-13.148-40.414
				c-1.433-3.188-3.433-6.797-2.896-10.402c0.756-5.064,5.953-9.64,9.395-13.037c7.768-7.672,16.065-13.793,20.356-24.236
				c5.658-13.773,0.709-27.723-1.182-41.695c-0.073-0.535-0.131-1.072-0.184-1.609c16.414-1.371,32.581-5.104,46.813-13.746
				c14.365-8.721,24.612-22.463,31.83-37.414c20.891,11.787,45.262,11.352,68.154,4.844c1.604,12.598,8.464,20.799,17.693,25.604
				c-14.764,4.771-29.072,10.723-42.51,18.629c-18.223,10.723-33.956,25.359-47.264,41.699
				c-14.678,18.023-26.305,38.49-37.418,58.826c-4.346,7.953-7.369,16.523-10.715,24.924c-2.726,6.844-5.615,16.018-11.434,20.965
				c-5.346,4.545,0.748,13.714,6.152,9.119c12.756-10.848,16.39-30.002,23.068-44.653c4.457-9.775,10.277-19.111,15.752-28.34
				c6.051-10.198,12.526-20.13,19.707-29.571c12.688-16.682,28.004-31.191,45.783-42.32c12.875-8.059,26.934-13.877,41.35-18.548
				c-7.076,8.12-11.352,18.503-10.943,29.933c0.553,15.461,9.225,29.68,22.577,37.26
				C259.269,202.759,257.974,203.633,256.85,204.387z M289.09,196.914c-11.904,0.885-24.846-2.834-32.536-12.414
				c-12.007-14.961-8.766-36.122,6.091-47.744c4.554-3.562,9.779-5.898,15.322-7.434c0.092-0.025,0.195-0.051,0.29-0.076
				c3.202-0.277,6.36-0.752,9.405-1.406c0.055-0.012,0.11-0.027,0.166-0.039c2.556-0.059,5.004,0.222,6.812,1.105
				c4.6,2.25,9.365,4.131,13.941,6.435c4.453,2.241,10.348,5.262,12.51,10.064c0.461,1.024,1.115,1.79,1.875,2.335
				c1.268,2.338,2.729,4.576,4.361,6.711c1.689,9.162,0.52,18.479-5.625,26.455C314.009,190.895,301.389,196,289.09,196.914z
				 M432.165,390.783c2.065,3.311,4.179,6.591,6.145,9.963c0.792,1.359,1.521,2.729,2.138,4.176c0.081,0.19,0.15,0.338,0.217,0.468
				c-2.24,4.294-10.787,8.247-15.027,10.854c-6.625,4.072-13.283,8.039-19.115,13.226c-12.756,11.344-22.145,25.323-30.205,40.155
				c-5.822-11.002-12.443-21.257-22.967-28.789c-8.266-5.917-17.531-10.182-27.148-13.361c-7.223-2.387-14.645-4.213-21.835-6.697
				c5.647-11.252,5.13-23.258-1.149-35.164c-5.857-11.109-15.946-20.006-26.451-27.086c19.255-23.882,26.834-77.58-4.655-87.105
				c9.147-7.404,18.162-15.057,25.204-24.477c9.467-12.66,12.326-27.27,8.867-42.377c11.145-3.856,20.953-11.291,27.197-21.359
				c0.795-1.283,1.49-2.598,2.109-3.936c2.418,5.99,6.043,11.691,9.174,16.972c5.648,9.521,10.179,19.644,13.762,30.11
				c7.12,20.803,8.738,43.828,10.477,65.623c1.824,22.879,2.363,45.84,3.357,68.764c0.477,10.965,1.621,21.871,2.08,32.838
				c0.479,11.469,0.46,22.953,0.461,34.43c0,7.09,10.97,6.213,10.969-0.847c0-10.866-0.025-21.733-0.391-32.595
				c-0.368-10.956-1.564-21.842-2.064-32.787c-1.047-22.916-1.606-45.854-3.295-68.736c-1.603-21.698-3.521-44.244-9.593-65.207
				c-2.989-10.318-7.312-20.168-12.204-29.711c-2.502-4.881-5.293-9.623-7.953-14.416c-2.715-4.889-5.764-9.727-6.4-15.34
				c11.064,5.703,24.12,7.168,36.524,5.193c4.237,7.297,15.171,16.293,17.329,18.201c6.533,5.774,13.215,11.393,19.781,17.152
				c3.062,2.689,6.039,5.533,8.895,8.453c-0.29,1.428-0.669,2.844-0.975,4.27c-3.533,16.506-5.516,35.105-2.244,51.793
				c3.25,16.582,12.542,30.355,23.838,42.487c-5.193,6.397-10.738,12.501-15.283,19.402c-5.619,8.534-6.982,18.104-6.923,28.114
				C424.869,373.365,426.895,382.34,432.165,390.783z"/>
		</g>
	</g>
</g>
</svg>
