<?xml version="1.0" encoding="utf-8"?>
<!-- Generator: Adobe Illustrator 16.0.3, SVG Export Plug-In . SVG Version: 6.00 Build 0)  -->
<!DOCTYPE svg PUBLIC "-//W3C//DTD SVG 1.1//EN" "http://www.w3.org/Graphics/SVG/1.1/DTD/svg11.dtd">
<svg version="1.1" id="Layer_1" xmlns="http://www.w3.org/2000/svg" xmlns:xlink="http://www.w3.org/1999/xlink" x="0px" y="0px"
	 width="512px" height="512px" viewBox="0 0 512 512" style="enable-background:new 0 0 512 512;" xml:space="preserve">
<style type="text/css">
<![CDATA[
	.st0{fill:#127274;}
	.st1{fill:#14B6B9;}
	.st2{fill:#1E4384;}
	.st3{fill:#EF4754;}
	.st4{fill:#EF4823;}
	.st5{fill:#BCBCBC;}
	.st6{fill:#F6851F;}
	.st7{fill:#C56528;}
	.st8{fill:#FCBF95;}
	.st9{fill:#FEBF10;}
	.st10{fill:none;}
	.st11{fill:#010101;}
	.st12{fill:#3AB37C;}
	.st13{fill:#D6E5E5;}
	.st14{fill:#71C598;}
	.st15{fill:#74CCCF;}
]]>
</style>
<g>
	<g>
		<g>
			<path class="st5" d="M308.221,39.316c-0.007-0.043-0.011-0.074-0.015-0.109c-0.015-0.039-0.029-0.078-0.047-0.129
				c-0.299-0.865,0.219-0.215-0.845-1.438c1.05,1.207-1.708-1.105-0.448-0.346c-2.015-1.215-2.471-1.344-4.41-1.779
				c-5.179-1.162-10.307-1.146-15.62-0.826c-30.567,1.842-61.161,11.121-90.105,20.613c-8.863,2.906-18.145,5.631-26.527,9.795
				c-9.459,4.697-19.172,8.912-28.263,14.322c-7.825,4.658-16.124,10.066-21.092,17.891c9.207-1.084,18.417-2.16,27.607-3.381
				c15.749-2.093,31.516-4.447,47.009-8.01c10.792-2.48,21.347-5.716,32.154-8.086c18.313-4.016,36.775-8.738,54.06-16.105
				c7.452-3.176,15.688-6.85,21.533-12.635c1.874-1.853,4.173-4.396,4.717-6.678c0.119-0.498,0.347-2.89,0.363-1.869
				C308.285,40.137,308.28,39.725,308.221,39.316z"/>
		</g>
	</g>
	<g>
		<g>
			<path class="st4" d="M413.228,283.66c-6.523-11.826-13.523-23.406-19.409-35.572c-6.504-13.445-12.154-27.278-17.258-41.311
				c-9.302-25.576-17.104-51.664-26.109-77.34c-4.864,4.893-10.478,9.137-16.556,12.793c-6.924,4.166-14.174,7.76-21.511,11.137
				c-8.2,3.777-16.106,8.104-24.274,11.947c-25.856,12.166-53.316,21.223-81.488,26.152c-13.771,2.408-27.697,3.887-41.688,3.896
				c-0.875,0.002-1.753,0.008-2.633,0.014c5.358,13.25,13.21,25.283,20.124,37.753c3.822,6.892,7.57,13.909,10.488,21.24
				c2.205,5.542,3.732,11.286,5.687,16.916c4.306,12.405,9.241,24.622,12.843,37.262c2.719,9.542,5.093,19.558,4.566,29.534
				c2.979-1.482,5.944-2.954,8.888-4.424c5.771-2.883,8.99,6.6,3.307,9.439c-31.456,15.713-66.697,31.75-89.563,59.455
				c-10.455,12.668-17.716,28.91-13.438,45.559c4.285,16.676,15.325,30.697,31.644,36.82c16.865,6.328,36.035,4.801,53.326,1.189
				c18.033-3.766,35.623-10.264,52.214-18.211c9.09-4.354,17.989-8.893,27.425-12.494c11.108-4.242,22.436-7.867,33.769-11.459
				c22.621-7.172,45.981-14.127,66.407-26.527c21.479-13.042,41.658-33.346,44.945-59.381
				C438.266,331.631,425.618,306.119,413.228,283.66z"/>
		</g>
	</g>
	<g>
		<g>
			<path class="st13" d="M357.563,98.762c-1.284-13.047-4.424-25.789-8.753-38.151c-3.629-10.36-7.405-21.029-13.546-30.203
				c-3.999-5.972-8.791-11.845-15.506-14.853c-5.49-2.459-11.52-2.973-17.476-2.738c-10.821,0.426-21.628,2.002-32.298,3.752
				c-14.761,2.418-29.621,4.271-44.309,7.125c-18.86,3.668-37.462,8.736-55.45,15.508c-18.662,7.026-37.21,15.497-53.313,27.402
				c-12.672,9.369-26.436,22.578-27.378,39.389c-0.028,0.525-0.129,1.01-0.278,1.459c-0.545,9.17,3.321,19.391,6.349,27.673
				c3.644,9.97,8.145,19.94,13.187,29.278c3.87,7.17,8.76,14.066,16.463,17.414c7.331,3.188,15.651,3.482,23.53,3.568
				c26.983,0.294,53.315-1.893,79.479-8.865c13.959-3.721,27.707-8.277,41.059-13.805c12.389-5.129,24.033-11.61,36.202-17.158
				c19.627-8.949,42.938-19.971,50.116-42.133c0.451-1.395,1.323-2.365,2.37-2.967C357.783,99.961,357.627,99.398,357.563,98.762z
				 M312.949,53.314c-11.433,13.339-30.965,19.738-47.171,24.82c-17.291,5.424-35.072,8.83-52.514,13.59
				c-30.201,8.244-61.311,11.989-92.331,15.639c-3.077,0.363-4.843-1.74-5.148-4.111c-3.497,0.668-7.717-2.843-5.714-7.1
				c8.623-18.34,30.391-27.834,47.639-36.062c23.111-11.027,47.596-18.564,72.356-25.021c15.469-4.033,31.192-7.709,47.091-9.553
				c10.297-1.193,23.902-2.93,33.426,2.396C320.554,33.486,319.79,45.332,312.949,53.314z"/>
		</g>
	</g>
	<g>
		<g>
			<path class="st11" d="M310.583,27.912c-9.523-5.326-23.129-3.59-33.426-2.396c-15.898,1.844-31.622,5.52-47.091,9.553
				c-24.761,6.457-49.245,13.994-72.356,25.021c-17.248,8.229-39.016,17.723-47.639,36.062c-2.003,4.257,2.217,7.768,5.714,7.1
				c0.306,2.371,2.071,4.475,5.148,4.111c31.021-3.649,62.13-7.395,92.331-15.639c17.441-4.76,35.223-8.166,52.514-13.59
				c16.206-5.082,35.738-11.481,47.171-24.82C319.79,45.332,320.554,33.486,310.583,27.912z M307.929,42.416
				c-0.544,2.281-2.843,4.825-4.717,6.678c-5.846,5.785-14.081,9.459-21.533,12.635c-17.284,7.367-35.746,12.09-54.06,16.105
				c-10.808,2.37-21.362,5.605-32.154,8.086c-15.493,3.562-31.26,5.917-47.009,8.01c-9.19,1.221-18.4,2.297-27.607,3.381
				c4.968-7.824,13.267-13.232,21.092-17.891c9.091-5.41,18.804-9.625,28.263-14.322c8.383-4.164,17.664-6.889,26.527-9.795
				c28.944-9.492,59.538-18.771,90.105-20.613c5.313-0.32,10.441-0.336,15.62,0.826c1.939,0.436,2.396,0.564,4.41,1.779
				c-1.26-0.76,1.498,1.553,0.448,0.346c1.063,1.223,0.546,0.572,0.845,1.438c0.018,0.051,0.032,0.09,0.047,0.129
				c0.004,0.035,0.008,0.066,0.015,0.109c0.06,0.408,0.064,0.82,0.071,1.23C308.275,39.526,308.048,41.918,307.929,42.416z"/>
		</g>
	</g>
	<g>
		<g>
			<path class="st11" d="M440.597,319.998c-7.84-25.665-23.408-47.91-35.533-71.578c-13.718-26.776-23.096-55.646-32.423-84.164
				c-4.782-14.625-9.539-29.26-14.739-43.742c3.176-4.59,5.759-9.629,7.557-15.182c0.365-1.129,0.327-2.109,0.014-2.924
				c1.352-0.838,2.27-2.324,2.063-4.416c-1.486-15.113-5.373-29.816-10.487-44.083c-4.326-12.063-9.234-23.997-17.156-34.183
				c-5.281-6.791-12-12.237-20.259-14.873c-7.925-2.531-16.42-2.285-24.615-1.599c-12.185,1.022-24.184,3.146-36.257,4.987
				c-14.843,2.266-29.672,4.445-44.35,7.646c-17.686,3.857-35.02,8.996-51.894,15.559c-19.651,7.643-39.164,17.15-55.727,30.34
				c-12.975,10.334-24.047,23.599-26.696,40.1c-0.215,0.445-0.371,0.955-0.453,1.537c-1.387,9.869,1.703,20.227,4.657,29.541
				c3.444,10.865,8.634,20.736,13.268,31.078c3.783,8.437,8.731,16.688,16.126,22.437c6.249,4.858,13.879,7.144,21.637,8.104
				c5.396,0.668,10.854,0.833,16.314,0.851c0.051,0.196,0.111,0.394,0.187,0.597c5.026,13.453,12.619,25.742,19.736,38.152
				c7.045,12.279,12.314,24.54,16.752,37.932c3.94,11.896,8.632,23.523,12.402,35.479c3.362,10.665,6.767,22.566,4.921,33.83
				c-0.11,0.664-0.094,1.277,0.014,1.842c-27.341,13.83-54.752,29.268-74.528,52.686c-11.517,13.637-18.921,30.725-16.662,48.811
				c2.324,18.586,13.728,35.67,29.727,45.205c15.41,9.184,34.627,10.249,52.043,8.451c18.944-1.955,37.526-7.627,55.122-14.742
				c7.898-3.195,15.612-6.822,23.182-10.732c10.163-5.25,21.054-9.176,31.855-12.881c22.693-7.783,45.952-13.951,67.999-23.531
				c22.052-9.582,42.293-23.082,56.48-42.801C446.763,371.645,448.369,345.445,440.597,319.998z M148.785,185.385
				c-7.879-0.086-16.199-0.381-23.53-3.568c-7.703-3.348-12.593-10.244-16.463-17.414c-5.042-9.338-9.543-19.309-13.187-29.278
				c-3.027-8.282-6.894-18.503-6.349-27.673c0.149-0.449,0.25-0.934,0.278-1.459c0.942-16.811,14.706-30.02,27.378-39.389
				c16.104-11.905,34.651-20.376,53.313-27.402c17.988-6.771,36.59-11.84,55.45-15.508c14.688-2.854,29.548-4.707,44.309-7.125
				c10.67-1.75,21.477-3.326,32.298-3.752c5.956-0.234,11.985,0.279,17.476,2.738c6.715,3.008,11.507,8.881,15.506,14.853
				c6.141,9.174,9.917,19.843,13.546,30.203c4.329,12.362,7.469,25.104,8.753,38.151c0.063,0.637,0.22,1.199,0.448,1.695
				c-1.047,0.602-1.919,1.572-2.37,2.967c-7.178,22.162-30.489,33.184-50.116,42.133c-12.169,5.548-23.813,12.029-36.202,17.158
				c-13.352,5.527-27.1,10.084-41.059,13.805C202.101,183.492,175.769,185.679,148.785,185.385z M434.931,358.049
				c-3.287,26.035-23.466,46.339-44.945,59.381c-20.426,12.4-43.786,19.355-66.407,26.527c-11.333,3.592-22.66,7.217-33.769,11.459
				c-9.436,3.602-18.335,8.141-27.425,12.494c-16.591,7.947-34.181,14.445-52.214,18.211c-17.291,3.611-36.461,5.139-53.326-1.189
				c-16.318-6.123-27.358-20.145-31.644-36.82c-4.277-16.648,2.983-32.891,13.438-45.559c22.866-27.705,58.107-43.742,89.563-59.455
				c5.684-2.84,2.464-12.322-3.307-9.439c-2.943,1.47-5.909,2.941-8.888,4.424c0.526-9.977-1.848-19.992-4.566-29.534
				c-3.602-12.64-8.537-24.856-12.843-37.262c-1.954-5.63-3.481-11.374-5.687-16.916c-2.918-7.331-6.666-14.349-10.488-21.24
				c-6.914-12.47-14.766-24.503-20.124-37.753c0.88-0.006,1.758-0.012,2.633-0.014c13.991-0.01,27.918-1.488,41.688-3.896
				c28.172-4.93,55.632-13.986,81.488-26.152c8.168-3.843,16.074-8.17,24.274-11.947c7.337-3.377,14.587-6.971,21.511-11.137
				c6.078-3.656,11.691-7.9,16.556-12.793c9.006,25.676,16.808,51.764,26.109,77.34c5.104,14.032,10.754,27.865,17.258,41.311
				c5.886,12.166,12.886,23.746,19.409,35.572C425.618,306.119,438.266,331.631,434.931,358.049z"/>
		</g>
	</g>
</g>
</svg>
