<?xml version="1.0" encoding="utf-8"?>
<!-- Generator: Adobe Illustrator 16.0.3, SVG Export Plug-In . SVG Version: 6.00 Build 0)  -->
<!DOCTYPE svg PUBLIC "-//W3C//DTD SVG 1.1//EN" "http://www.w3.org/Graphics/SVG/1.1/DTD/svg11.dtd">
<svg version="1.1" id="Layer_1" xmlns="http://www.w3.org/2000/svg" xmlns:xlink="http://www.w3.org/1999/xlink" x="0px" y="0px"
	 width="512px" height="512px" viewBox="0 0 512 512" style="enable-background:new 0 0 512 512;" xml:space="preserve">
<style type="text/css">
<![CDATA[
	.st0{fill:#127274;}
	.st1{fill:#14B6B9;}
	.st2{fill:#1E4384;}
	.st3{fill:#EF4754;}
	.st4{fill:#EF4823;}
	.st5{fill:#BCBCBC;}
	.st6{fill:#F6851F;}
	.st7{fill:#C56528;}
	.st8{fill:#FCBF95;}
	.st9{fill:#FEBF10;}
	.st10{fill:none;}
	.st11{fill:#010101;}
	.st12{fill:#3AB37C;}
	.st13{fill:#D6E5E5;}
	.st14{fill:#71C598;}
	.st15{fill:#74CCCF;}
]]>
</style>
<g>
	<g>
		<g>
			<path class="st9" d="M260.492,250.523c-1.459-3.701-4.895-5.849-8.798-4.219c-4.554,1.9-6.108,6.648-6.213,11.219
				c0.005,0.025,0.012,0.049,0.016,0.074C246.665,265.158,264.152,259.812,260.492,250.523z"/>
		</g>
	</g>
	<g>
		<g>
			<path class="st9" d="M288.652,234.971c-4.4-5.725-16.587-0.904-16.157,6.129c0.024,0.419,0.007,0.812-0.052,1.184
				c0.253,0.26,0.49,0.56,0.709,0.904C278.075,250.945,294.531,242.615,288.652,234.971z"/>
		</g>
	</g>
	<g>
		<g>
			<path class="st9" d="M257.927,280.263c-0.631-3.481-3.662-5.423-6.993-4.899c-1.438,0.227-2.587-0.107-3.434-0.77
				c-0.311,0.379-0.694,0.697-1.154,0.93c-0.085,0.043-0.286,0.198-0.462,0.329c-0.062,0.332-0.203,0.73-0.225,0.226
				c0.06,1.4,0.216,2.443,0.959,3.779c1.525,2.742,3.906,5.717,6.782,6.025C255.624,286.121,258.461,283.211,257.927,280.263z"/>
		</g>
	</g>
	<g>
		<g>
			<path class="st9" d="M266.156,218.891c-2.844-3.817-9.741-2.812-13.683-1.184c-1.943,0.803-4.181,2.174-4.847,3.633
				c-0.396,0.867-0.136,1.896,1.528,3.849c1.415,1.661,1.394,3.394,0.59,4.771c0.091,0.031,0.178,0.067,0.268,0.094
				c3.182,0.951,6.535,1.611,9.865,1.219C265.398,230.621,270.102,224.186,266.156,218.891z"/>
		</g>
	</g>
	<g>
		<g>
			<path class="st9" d="M290.411,264.676c-1.87-6.025-7.42-8.709-13.478-8.312c-1.212,0.08-2.224-0.21-3.023-0.734
				c-0.982-0.286-1.941-0.652-2.861-1.125c-0.142,2.55-0.932,4.86-2.172,6.895c0.441,0.827,0.676,1.811,0.582,2.934
				c-0.616,7.318,9.19,12.089,15.418,10.039C288.836,273.068,291.769,269.045,290.411,264.676z"/>
		</g>
	</g>
	<g>
		<g>
			<path class="st9" d="M318.084,147.881c0,0.014,0,0.027-0.003,0.039c0.467-0.507,1.066-0.941,1.815-1.262
				C318.913,147.079,318.367,147.525,318.084,147.881z"/>
		</g>
	</g>
	<g>
		<g>
			<path class="st9" d="M317.934,148.094c-0.345,0.592,0.095,0.777,0.147-0.174C318.029,147.977,317.982,148.035,317.934,148.094z"
				/>
		</g>
	</g>
	<g>
		<g>
			<path class="st9" d="M231.902,260.246c-0.159-0.064-0.268-0.111-0.342-0.148c-0.061-0.012-0.13-0.027-0.214-0.047
				c-0.371-0.084-0.746-0.162-1.124-0.213c0.538,0.131-1.775,0.381-0.627-0.004c-0.19,0.064-0.315,0.113-0.414,0.154
				c-0.042,0.047-0.078,0.084-0.107,0.111c-0.021,0.053-0.046,0.113-0.077,0.186c-0.052,0.121-0.09,0.209-0.12,0.281
				c-0.255,0.822-0.654,1.494-1.152,2.029c-0.057,0.672-0.282,1.381-0.733,2.111c-1.647,2.667-1.601,7.803,1.787,8.475
				c3.657,0.725,7.909-4.539,7.834-6.857C236.52,263.471,234.88,261.465,231.902,260.246z"/>
		</g>
	</g>
	<g>
		<g>
			<path class="st4" d="M317.974,144.93c-0.212-2.201-0.52-4.39-0.914-6.566c-0.726-4-1.68-7.957-2.383-11.959
				c-0.485-2.758-2.509-6.029-3.748-8.535c-1.626-3.288-3.402-6.514-5.345-9.625c-3.699-5.924-7.763-11.697-12.318-17.002
				c-8.97-10.445-20.859-18.834-28.86-30.068c-5.66-7.947-10.057-16.596-14.309-25.329c-7.917,18.017-20.086,33.878-32.625,49.022
				c-7.625,9.207-16.371,17.734-22.125,28.334c-2.799,5.154-5.114,10.371-5.22,16.33c-0.096,5.335,0.228,10.658,0.354,15.988
				c13.619,3.764,25.516,11.367,34.011,23.393c9.485,13.428,14.344,29.52,15.844,45.781c1.765-2.117,4.198-3.926,6.965-5.334
				c-0.454-0.676-0.732-1.536-0.737-2.598c-0.039-8.164-0.555-16.35-1.451-24.463c-1.02-9.225-2.776-18.188-2.967-27.496
				c-0.097-4.688,0.088-9.605-0.745-14.236c-0.666-3.697-1.912-7.262-2.881-10.885c-1.936-7.257-3.224-14.325-0.448-21.529
				c2.313-6.01,11.26-1.525,8.957,4.449c-2.499,6.488,1.265,14.492,2.913,20.768c2.111,8.045,1.939,16.068,2.274,24.32
				c0.346,8.594,2.214,16.982,3.045,25.535c0.734,7.568,1.241,15.162,1.274,22.768c0.002,0.165-0.009,0.324-0.021,0.48
				c4.626-0.639,9.301-0.125,13.029,1.955c1.038-14.445,7.771-28.174,17.971-38.557c8.548-8.699,18.367-14.887,29.286-18.83
				c0.059-1.055,0.419-2.092,1.134-2.947c0.04-0.066,0.089-0.137,0.15-0.213c0.002-0.057,0.007-0.105,0.006-0.17
				C318.084,146.781,318.063,145.855,317.974,144.93z"/>
		</g>
	</g>
	<g>
		<g>
			<path class="st4" d="M361.563,336.762c-0.9-8.486-2.448-17.702-6.635-25.35c-3.819,1.072-8.256-4.123-5.135-8.336
				c0.056-0.076,0.104-0.16,0.159-0.238c-2.706-0.197-5.374-0.513-7.962-0.986c-15.434-2.828-37.475-8.336-45.64-23.467
				c-1.521,1.834-3.471,3.391-5.897,4.525c-2.672,1.25-5.47,1.854-8.245,1.926c0.424,1.502,0.086,3.158-0.758,4.445
				c0.035,0.771,0.157,1.563,0.306,2.281c0.659,3.166,1.973,6.273,3.309,9.204c2.482,5.44,5.466,10.622,7.314,16.323
				c4.963,15.316,9.169,30.895,11.155,46.902c0.799,6.42-9.176,7.139-9.972,0.77c-0.053,0.139-0.104,0.275-0.158,0.412
				c-1.237-1.691-1.193-3.418-0.449-4.805c-1.125-7.531-2.717-14.975-4.723-22.328c-1.968-7.217-3.665-15.157-6.822-21.957
				c-4.381-9.438-10.624-19.336-10.064-29.979c0.062-1.174,0.468-2.315,1.113-3.252c-1.604-0.717-3.129-1.604-4.524-2.654
				c0.141,2.537-0.491,5.17-1.681,7.545c0.773,0.734,1.276,1.811,1.28,3.248c0.066,19.996,2.688,41.143-4.66,60.268
				c-4.245,11.049-11.582,20.635-20.373,28.615c0.663,0.923,1.047,2.088,0.957,3.457c-0.666,9.885,9.954,16.818,17.535,20.807
				c8.448,4.447,17.513,7.918,26.651,10.674c17.444,5.258,38.341,11.488,51.987,24.758c0.155-8.184,0.63-16.365,2.06-24.398
				c2.354-13.221,7.86-24.643,12.755-37.002C359.661,365,363.073,351.004,361.563,336.762z"/>
		</g>
	</g>
	<g>
		<g>
			<path class="st12" d="M449.571,334.681c-5.51-11.909-13.431-22.501-22.153-32.242c-2.28-2.546-4.701-4.989-7.14-7.382
				c-1.453-1.426-2.911-2.867-4.476-4.172c-0.198-0.168-0.441-0.396-0.69-0.618c-1.557,0.024-3.184-0.622-4.266-1.815
				c-0.463,0.398-0.929,0.797-1.404,1.183c-9.279,7.521-21.045,10.866-32.759,12.198c-0.792,0.09-1.6,0.173-2.403,0.258
				c4.071,2.748,8.014,5.671,11.856,8.72c0.187-0.249,0.4-0.495,0.657-0.733c8.363-7.771,20.344-10.373,31.371-11.686
				c6.421-0.764,7.146,9.215,0.769,9.973c-8.071,0.961-18.422,2.549-24.628,8.314c-0.179,0.166-0.363,0.312-0.549,0.447
				c1.871,1.62,3.711,3.277,5.537,4.949c0.537-0.321,1.156-0.562,1.871-0.684c7.194-1.221,13.557-4.771,21-5
				c6.436-0.196,7.215,9.775,0.769,9.973c-5.329,0.164-10.259,2.104-15.312,3.613c3.697,3.629,7.306,7.345,10.881,11.085
				c4.666-1.804,8.948-4.249,13.252-6.829c5.512-3.306,11.134,4.967,5.592,8.291c-4.248,2.547-8.54,5.011-13.073,6.976
				c-0.188,2.738-2.514,5.206-5.033,5.116c-1.23,8.715-0.739,17.539-0.704,26.377c0.028,6.421-9.944,7.216-9.972,0.77
				c-0.05-11.605-0.812-23.32,1.929-34.697c-2.015-2.104-4.048-4.197-6.101-6.273c-0.267,9.068-0.816,18.127-0.856,27.201
				c-0.026,6.414-10,7.215-9.972,0.77c0.049-11.675,0.95-23.324,1-35c0.003-0.804,0.164-1.52,0.44-2.145
				c-2.127-1.999-4.278-3.973-6.469-5.898v30.273c0,6.418-9.972,7.215-9.972,0.77v-38c0-0.43,0.048-0.833,0.132-1.213
				c-4.679-3.644-9.519-7.066-14.565-10.186c4.188,7.99,6.1,17.445,7.127,26.139c1.624,13.746-0.31,27.148-4.609,40.224
				c7.094,2.017,13.816,5.157,20.377,8.537c7.794,4.015,15.902,9.067,24.479,11.206c15.858,3.956,32.464,8.123,48.905,6.41
				C464.54,378.293,458.604,354.203,449.571,334.681z"/>
		</g>
	</g>
	<g>
		<g>
			<path class="st4" d="M413.496,153.539c-21.573,1.949-43.25,0.156-64.833,1.73c-18.531,1.351-36.497,5.002-50.488,18.129
				c-11.893,11.158-20.037,25.908-18.64,42.594c0.193,2.293-0.949,3.859-2.522,4.643c0.111,0.962,0.168,1.915,0.148,2.851
				c8-1.655,17.68-0.031,21.162,8.434c1.229,2.989,1.534,5.861,1.142,8.522c12.136-6.701,24.209-13.518,36.207-20.465
				c9.457-5.475,18.712-11.363,28.372-16.475c8.317-4.402,16.73-8.631,24.918-13.273c3.808-2.158,7.643-4.342,11.206-6.893
				c1.093-0.783,2.37-1.686,3.097-2.457c0.169-0.18,0.281-0.301,0.367-0.396c0.896-5.23,9.529-5.466,9.903,0.51
				c0.43,6.848-8.814,11.527-13.701,14.455c-8.771,5.256-17.898,9.889-26.949,14.635c-9.646,5.057-18.879,10.796-28.299,16.26
				c-15.967,9.262-32.04,18.334-48.24,27.182c-0.166,0.09-0.333,0.17-0.499,0.24c1.928,2.104,3.363,4.633,4.003,7.605
				c0.521,2.412,0.664,4.84,0.438,7.18c1.663,0.17,3.231,1.144,3.981,3.176c2.94,7.967,12.449,12.203,19.835,14.984
				c7.884,2.967,16.67,5.551,25.132,5.873c21.603,0.824,45.993,0.406,60.858-17.652c16.096-19.553,21.798-44.18,25.627-68.604
				c2.184-13.934,4.873-27.32,10.056-40.492c3.141-7.983,6.705-15.781,10.298-23.568
				C442.615,148.316,428.668,152.17,413.496,153.539z"/>
		</g>
	</g>
	<g>
		<g>
			<path class="st4" d="M257.604,295.383c-1.145,0.337-2.344,0.521-3.596,0.479c-7.58-0.266-13.42-5.451-16.547-12.124
				c-0.344-0.734-0.644-1.521-0.896-2.335c-2.56,1.354-5.405,2.026-8.286,1.742c-0.312,0.885-0.934,1.713-1.935,2.379
				c-5.997,3.98-10.51,9.945-14.769,15.658c-4.358,5.846-9.205,11.34-13.415,17.277c-8.946,12.619-15.252,26.906-21.134,41.143
				c-2.462,5.959-11.41,1.488-8.957-4.449c6.205-15.023,12.928-30.113,22.578-43.295c4.615-6.305,9.625-12.359,14.386-18.566
				c4.202-5.477,8.668-10.922,14.27-15.02c-1.5-1.857-2.532-4.089-3.053-6.445c-5.318,12.443-25.308,15.991-37.019,16.478
				c-13.379,0.556-26.789,0.853-39.757-1.679c0.05,1.884-0.915,3.729-3.273,4.473c-7.06,2.223-11.538,14.889-12.619,21.475
				c-2.416,14.693-0.119,30.805,1.978,45.408c2.106,14.691,5.6,30.555,3.209,45.41c-0.98,6.088-2.54,11.793-4.333,17.691
				c-0.741,2.434-1.502,4.902-2.068,7.4c15.108-8.196,30.496-15.713,46.646-21.75c16.004-5.984,32.325-11.791,47.173-20.366
				c15.305-8.839,30.617-21.05,37.156-38.069C259.794,331.515,257.922,313.051,257.604,295.383z"/>
		</g>
	</g>
	<g>
		<g>
			<path class="st12" d="M113.563,302.762v-12.467c-2.687,0.953-5.322,2.061-7.619,2.84c-0.477,0.16-0.951,0.322-1.427,0.484
				c0.008,0.123,0.018,0.244,0.018,0.373v37c0,6.418-9.972,7.215-9.972,0.77V296.83c-1.712,0.491-3.437,0.945-5.187,1.328
				c-0.944,0.205-1.892,0.395-2.842,0.578v27.256c0,6.418-9.972,7.215-9.972,0.77v-26.291c-5.924,1.027-11.798,2.236-17.36,4.627
				c-5.942,2.553-9.192-6.91-3.307-9.439c5.86-2.519,12.026-3.713,18.235-4.762c-1.364-1.484-2.63-3.08-3.837-4.768
				c-2.893-4.045-5.601-8.652-9.97-11.271c-5.485-3.29-1.095-12.283,4.449-8.959c4.544,2.725,7.965,6.439,11.03,10.729
				c2.892,4.043,5.601,8.65,9.97,11.271c0.354,0.212,0.666,0.449,0.939,0.703c0.854-0.191,1.707-0.393,2.556-0.613
				c1.792-0.467,3.564-1.002,5.325-1.568c-0.063-0.082-0.13-0.158-0.189-0.246c-2.732-3.942-4.875-8.25-7.508-12.256
				c-2.239-3.404-4.944-7.91-9.302-8.633c-6.368-1.055-4.443-10.867,1.908-9.816c12.187,2.02,17.017,16.201,23.19,25.113
				c0.652,0.941,0.921,1.891,0.914,2.787c0.81-0.275,1.622-0.547,2.438-0.81c3.456-1.118,7.535-2.843,11.433-3.68
				c-7.51-4.007-14.438-9.224-20.069-15.604c-6.363-7.211-10.947-15.307-15.679-23.504c-14.602,6.703-28.646,15.369-39.291,27.573
				c-5.347,6.13-9.92,12.833-13.484,20.155c-2.683,5.512-7.048,13.039-6.17,19.457c0.934,6.805,8.834,11.113,13.88,14.662
				c8.271,5.82,16.729,11.467,25.739,16.094c7.766,3.988,16.06,7.705,24.398,10.348c6.474,2.051,15.603,4.988,21.951,1.172
				c2.061-1.239,4.138-0.856,5.64,0.281c-0.081-0.703-0.163-1.404-0.236-2.108c-1.379-13.24-3.14-28.489,0.889-41.464
				C114.159,305.121,113.563,304.014,113.563,302.762z"/>
		</g>
	</g>
	<g>
		<g>
			<path class="st9" d="M128.637,283.756c-0.632-0.217-1.263-0.441-1.892-0.676c0.102,0.781,0.045,1.57-0.175,2.295
				C127.23,284.791,127.915,284.241,128.637,283.756z"/>
		</g>
	</g>
	<g>
		<g>
			<path class="st9" d="M236.866,228.941c-5.159-3.668-16.506,2.975-11.054,8.785c1.973,2.104,1.715,4.799,0.435,6.691
				c4.648,1.076,12.335-2.908,12.913-8.355c0.019-0.175,0.019-0.33,0.03-0.5C237.17,233.832,236.11,231.65,236.866,228.941z"/>
		</g>
	</g>
	<g>
		<g>
			<path class="st4" d="M114.85,193.621c15.077,10.369,33.502,14.178,50.44,20.372c16.471,6.023,32.271,13.6,48.415,20.394
				c0.222-0.385,0.48-0.726,0.78-1.009c0.286-5.97,4.305-11.512,11.225-14.179c1.626-0.626,3.266-1.018,4.883-1.199
				c-0.009-0.08-0.024-0.156-0.029-0.238c-1.168-16.029-5.708-32.586-15.913-45.318c-11.177-13.947-28.107-20.131-45.758-19.677
				c-20.941,0.538-40.548,8.333-60.915,12.288c-18.706,3.633-38.097,4.61-57.138,3.137c9.647,19.301,21.854,37.188,33.037,55.621
				c10.483,17.279,18.771,35.865,37.457,45.827c15.918,8.487,34.159,10.235,51.923,8.97c6.87-0.488,13.657-0.736,20.316-2.727
				c5.307-1.584,13.287-4.014,14.068-10.459c0.597-4.919,6.511-4.908,8.882-1.76c0.36-1.188,0.849-2.338,1.508-3.406
				c0.277-0.448,0.596-0.822,0.938-1.143c0.033-0.191,0.078-0.387,0.135-0.586c0.603-2.125,1.515-3.803,2.641-5.096
				c-3.866-1.492-6.707-4.418-8.076-8.256c-18.684-7.65-36.774-16.762-55.902-23.312c-17.036-5.833-34.5-10.403-49.517-20.731
				C102.947,197.487,109.594,190.005,114.85,193.621z"/>
		</g>
	</g>
	<g>
		<g>
			<path class="st11" d="M317.934,148.094c0.049-0.059,0.096-0.117,0.147-0.174c0.003-0.012,0.003-0.025,0.003-0.039
				C318.022,147.957,317.974,148.027,317.934,148.094z"/>
		</g>
	</g>
	<g>
		<g>
			<path class="st11" d="M455.086,323.495c-6.518-12.237-15.706-23.165-25.338-33.06c-3.23-3.316-6.489-6.741-10.359-9.318
				c-0.264-0.176-0.542-0.328-0.825-0.471c13.972-16.506,21.176-39.447,24.928-59.941c2.785-15.225,4.193-30.631,9.341-45.316
				c5.028-14.344,12.006-27.932,18.196-41.787c2.121-4.746-2.953-8.815-7.274-6.369c-8.768,4.963-17.808,9.199-27.451,12.166
				c-10.626,3.271-22.008,4.252-33.062,4.846c-22.892,1.23-45.85-0.729-68.638,2.439c-2.168,0.302-4.299,0.678-6.398,1.119
				c0.348-5.025-1.287-10.975-2.04-14.736c-0.959-4.785-1.813-9.369-3.694-13.891c-3.069-7.375-7.09-14.379-11.494-21.027
				c-8.641-13.041-19.915-23.507-30.865-34.527c-11.952-12.029-18.402-26.914-25.842-41.896c-2.271-4.573-8.075-4.229-9.628,0.699
				c-7.156,22.718-23.104,43.387-38.927,60.842c-7.903,8.719-15.506,17.9-20.879,28.434c-5.234,10.262-4.704,20.809-4.385,31.775
				c-0.28-0.039-0.558-0.088-0.839-0.123c-21.728-2.729-42.914,4.561-63.694,9.746c-23.425,5.848-48.467,7.246-72.414,4.371
				c-3.413-0.408-7.366,2.831-5.674,6.562c10.718,23.625,25.414,44.998,38.808,67.125c-16.025,7.537-30.874,17.16-42.617,30.626
				c-6.249,7.163-11.291,15.398-15.322,23.983c-3.341,7.115-7.229,15.727-5.575,23.77c1.754,8.539,8.819,13.818,15.529,18.599
				c9.905,7.058,20.056,13.788,30.886,19.351c8.85,4.545,18.488,8.375,28.033,11.215c8.696,2.587,18.688,3.684,26.774-1.176
				c0.378-0.228,0.698-0.479,0.976-0.746c1.866,13.361,4.343,26.701,4.056,40.221c-0.3,14.025-8.731,26.691-7.813,40.764
				c0.261,3.998,4.611,5.541,7.782,3.762c18.423-10.346,37.104-19.422,56.903-26.82c17.379-6.492,34.768-13.264,50.592-23.074
				c2.371-1.47,4.703-3.049,6.987-4.711c2.634,19.639,26.845,29.131,43.559,34.938c21.86,7.594,51.248,12.822,63.019,35.318
				c2.539,4.854,9.13,1.289,9.13-3.182c0.003-13.422-0.001-26.824,2.558-40.053c2.105-10.893,6.916-20.703,11.058-30.836
				c16.322,4.266,30.294,15.197,46.445,20.182c17.181,5.303,37.444,8.965,55.338,6.078c2.313-0.373,3.951-1.713,4.525-4.031
				C476.108,378.424,467.818,347.406,455.086,323.495z M190.127,129.531c0.105-5.959,2.421-11.176,5.22-16.33
				c5.754-10.6,14.5-19.127,22.125-28.334c12.539-15.145,24.708-31.006,32.625-49.022c4.252,8.733,8.648,17.382,14.309,25.329
				c8.001,11.234,19.891,19.623,28.86,30.068c4.556,5.305,8.619,11.078,12.318,17.002c1.942,3.111,3.719,6.337,5.345,9.625
				c1.239,2.506,3.263,5.777,3.748,8.535c0.703,4.002,1.657,7.959,2.383,11.959c0.395,2.177,0.702,4.365,0.914,6.566
				c0.09,0.926,0.11,1.852,0.116,2.781c0.001,0.064-0.004,0.113-0.006,0.17c0.283-0.355,0.829-0.802,1.812-1.223
				c-0.749,0.32-1.349,0.755-1.815,1.262c-0.053,0.951-0.492,0.766-0.147,0.174c-0.715,0.855-1.075,1.893-1.134,2.947
				c-10.919,3.943-20.738,10.131-29.286,18.83c-10.199,10.383-16.933,24.111-17.971,38.557c-3.729-2.08-8.403-2.594-13.029-1.955
				c0.013-0.156,0.023-0.315,0.021-0.48c-0.033-7.605-0.54-15.199-1.274-22.768c-0.831-8.553-2.699-16.941-3.045-25.535
				c-0.335-8.252-0.163-16.275-2.274-24.32c-1.648-6.275-5.412-14.279-2.913-20.768c2.303-5.975-6.644-10.459-8.957-4.449
				c-2.775,7.204-1.487,14.272,0.448,21.529c0.969,3.623,2.215,7.188,2.881,10.885c0.833,4.631,0.648,9.549,0.745,14.236
				c0.19,9.309,1.947,18.271,2.967,27.496c0.896,8.113,1.412,16.299,1.451,24.463c0.005,1.062,0.283,1.922,0.737,2.598
				c-2.767,1.408-5.2,3.217-6.965,5.334c-1.5-16.262-6.358-32.354-15.844-45.781c-8.495-12.025-20.392-19.629-34.011-23.393
				C190.354,140.189,190.031,134.866,190.127,129.531z M268.877,261.398c1.24-2.034,2.03-4.345,2.172-6.895
				c0.92,0.473,1.879,0.839,2.861,1.125c0.8,0.524,1.812,0.814,3.023,0.734c6.058-0.396,11.607,2.287,13.478,8.312
				c1.357,4.369-1.575,8.393-5.534,9.695c-6.228,2.05-16.034-2.721-15.418-10.039C269.553,263.209,269.318,262.226,268.877,261.398z
				 M273.152,243.188c-0.219-0.345-0.456-0.645-0.709-0.904c0.059-0.371,0.076-0.765,0.052-1.184
				c-0.43-7.033,11.757-11.854,16.157-6.129C294.531,242.615,278.075,250.945,273.152,243.188z M245.497,257.598
				c-0.004-0.025-0.011-0.049-0.016-0.074c0.104-4.57,1.659-9.318,6.213-11.219c3.903-1.63,7.339,0.518,8.798,4.219
				C264.152,259.812,246.665,265.158,245.497,257.598z M253.4,285.883c-2.876-0.309-5.257-3.283-6.782-6.025
				c-0.743-1.336-0.899-2.379-0.959-3.779c0.021,0.505,0.162,0.106,0.225-0.226c0.176-0.131,0.377-0.286,0.462-0.329
				c0.46-0.232,0.844-0.551,1.154-0.93c0.847,0.662,1.995,0.996,3.434,0.77c3.331-0.523,6.362,1.418,6.993,4.899
				C258.461,283.211,255.624,286.121,253.4,285.883z M259.878,231.271c-3.33,0.393-6.684-0.268-9.865-1.219
				c-0.09-0.026-0.177-0.062-0.268-0.094c0.804-1.377,0.825-3.109-0.59-4.771c-1.664-1.952-1.925-2.981-1.528-3.849
				c0.666-1.459,2.903-2.83,4.847-3.633c3.941-1.629,10.839-2.634,13.683,1.184C270.102,224.186,265.398,230.621,259.878,231.271z
				 M230.223,259.838c0.378,0.051,0.753,0.129,1.124,0.213c0.084,0.02,0.153,0.035,0.214,0.047c0.074,0.037,0.183,0.084,0.342,0.148
				c2.978,1.219,4.617,3.225,4.71,6.078c0.075,2.318-4.177,7.582-7.834,6.857c-3.388-0.672-3.435-5.808-1.787-8.475
				c0.451-0.73,0.677-1.439,0.733-2.111c0.498-0.535,0.897-1.207,1.152-2.029c0.03-0.072,0.068-0.16,0.12-0.281
				c0.031-0.072,0.056-0.133,0.077-0.186c0.029-0.027,0.065-0.064,0.107-0.111c0.099-0.041,0.224-0.09,0.414-0.154
				C228.447,260.219,230.761,259.969,230.223,259.838z M226.247,244.418c1.28-1.893,1.538-4.588-0.435-6.691
				c-5.452-5.811,5.895-12.453,11.054-8.785c-0.756,2.709,0.304,4.891,2.324,6.621c-0.012,0.17-0.012,0.325-0.03,0.5
				C238.582,241.51,230.896,245.494,226.247,244.418z M106.046,282.56c-0.815,0.263-1.628,0.534-2.438,0.81
				c0.007-0.896-0.262-1.846-0.914-2.787c-6.174-8.912-11.004-23.094-23.19-25.113c-6.352-1.051-8.276,8.762-1.908,9.816
				c4.357,0.723,7.062,5.229,9.302,8.633c2.633,4.006,4.775,8.313,7.508,12.256c0.06,0.088,0.126,0.164,0.189,0.246
				c-1.761,0.566-3.533,1.102-5.325,1.568c-0.849,0.221-1.701,0.422-2.556,0.613c-0.273-0.254-0.586-0.491-0.939-0.703
				c-4.369-2.621-7.078-7.229-9.97-11.271c-3.065-4.289-6.486-8.004-11.03-10.729c-5.544-3.324-9.935,5.669-4.449,8.959
				c4.369,2.619,7.077,7.227,9.97,11.271c1.207,1.688,2.473,3.283,3.837,4.768c-6.209,1.049-12.375,2.243-18.235,4.762
				c-5.886,2.529-2.636,11.992,3.307,9.439c5.562-2.391,11.437-3.6,17.36-4.627v26.291c0,6.445,9.972,5.648,9.972-0.77v-27.256
				c0.95-0.184,1.897-0.373,2.842-0.578c1.75-0.383,3.475-0.837,5.187-1.328v34.932c0,6.445,9.972,5.648,9.972-0.77v-37
				c0-0.129-0.01-0.25-0.018-0.373c0.476-0.162,0.95-0.324,1.427-0.484c2.297-0.779,4.933-1.887,7.619-2.84v12.467
				c0,1.252,0.596,2.359,1.482,3.18c-4.028,12.975-2.268,28.224-0.889,41.464c0.073,0.704,0.155,1.405,0.236,2.108
				c-1.502-1.138-3.579-1.521-5.64-0.281c-6.349,3.816-15.478,0.879-21.951-1.172c-8.339-2.643-16.633-6.359-24.398-10.348
				c-9.011-4.627-17.469-10.273-25.739-16.094c-5.046-3.549-12.946-7.857-13.88-14.662c-0.878-6.418,3.487-13.945,6.17-19.457
				c3.564-7.322,8.138-14.025,13.484-20.155c10.645-12.204,24.689-20.87,39.291-27.573c4.731,8.197,9.315,16.293,15.679,23.504
				c5.631,6.381,12.56,11.598,20.069,15.604C113.581,279.717,109.502,281.441,106.046,282.56z M83.877,223.812
				c-11.184-18.434-23.39-36.32-33.037-55.621c19.041,1.474,38.432,0.496,57.138-3.137c20.367-3.955,39.974-11.75,60.915-12.288
				c17.65-0.454,34.581,5.729,45.758,19.677c10.205,12.732,14.745,29.289,15.913,45.318c0.005,0.082,0.021,0.158,0.029,0.238
				c-1.617,0.182-3.257,0.573-4.883,1.199c-6.92,2.667-10.938,8.209-11.225,14.179c-0.3,0.283-0.559,0.624-0.78,1.009
				c-16.144-6.794-31.944-14.37-48.415-20.394c-16.938-6.194-35.363-10.003-50.44-20.372c-5.256-3.616-11.902,3.866-6.601,7.514
				c15.017,10.328,32.48,14.898,49.517,20.731c19.128,6.55,37.219,15.661,55.902,23.312c1.369,3.838,4.21,6.764,8.076,8.256
				c-1.126,1.293-2.038,2.971-2.641,5.096c-0.057,0.199-0.102,0.395-0.135,0.586c-0.342,0.32-0.66,0.694-0.938,1.143
				c-0.659,1.068-1.147,2.218-1.508,3.406c-2.371-3.148-8.285-3.159-8.882,1.76c-0.781,6.445-8.762,8.875-14.068,10.459
				c-6.659,1.99-13.446,2.238-20.316,2.727c-17.764,1.266-36.005-0.482-51.923-8.97C102.647,259.678,94.36,241.092,83.877,223.812z
				 M126.745,283.08c0.629,0.234,1.26,0.459,1.892,0.676c-0.722,0.485-1.406,1.035-2.066,1.619
				C126.79,284.65,126.847,283.861,126.745,283.08z M216.188,386.366c-14.848,8.575-31.169,14.382-47.173,20.366
				c-16.15,6.037-31.538,13.554-46.646,21.75c0.566-2.498,1.327-4.967,2.068-7.4c1.793-5.898,3.353-11.604,4.333-17.691
				c2.391-14.855-1.103-30.719-3.209-45.41c-2.097-14.604-4.394-30.715-1.978-45.408c1.081-6.586,5.56-19.252,12.619-21.475
				c2.358-0.743,3.323-2.589,3.273-4.473c12.968,2.531,26.378,2.234,39.757,1.679c11.711-0.486,31.7-4.034,37.019-16.478
				c0.521,2.356,1.553,4.588,3.053,6.445c-5.602,4.098-10.067,9.543-14.27,15.02c-4.761,6.207-9.771,12.262-14.386,18.566
				c-9.65,13.182-16.373,28.271-22.578,43.295c-2.453,5.938,6.495,10.408,8.957,4.449c5.882-14.236,12.188-28.523,21.134-41.143
				c4.21-5.938,9.057-11.432,13.415-17.277c4.259-5.713,8.771-11.678,14.769-15.658c1.001-0.666,1.622-1.494,1.935-2.379
				c2.881,0.284,5.727-0.389,8.286-1.742c0.252,0.814,0.552,1.601,0.896,2.335c3.127,6.673,8.967,11.858,16.547,12.124
				c1.252,0.043,2.451-0.142,3.596-0.479c0.317,17.668,2.189,36.132-4.26,52.914C246.806,365.316,231.493,377.527,216.188,386.366z
				 M354.447,378.17c-4.895,12.359-10.401,23.781-12.755,37.002c-1.43,8.033-1.904,16.215-2.06,24.398
				c-13.646-13.27-34.543-19.5-51.987-24.758c-9.139-2.756-18.203-6.227-26.651-10.674c-7.581-3.988-18.201-10.922-17.535-20.807
				c0.09-1.369-0.294-2.534-0.957-3.457c8.791-7.98,16.128-17.566,20.373-28.615c7.349-19.125,4.727-40.271,4.66-60.268
				c-0.004-1.438-0.507-2.514-1.28-3.248c1.189-2.375,1.821-5.008,1.681-7.545c1.396,1.051,2.92,1.938,4.524,2.654
				c-0.646,0.937-1.051,2.078-1.113,3.252c-0.56,10.643,5.684,20.541,10.064,29.979c3.157,6.8,4.854,14.74,6.822,21.957
				c2.006,7.354,3.598,14.797,4.723,22.328c-0.744,1.387-0.788,3.113,0.449,4.805c0.054-0.137,0.105-0.273,0.158-0.412
				c0.796,6.369,10.771,5.65,9.972-0.77c-1.986-16.008-6.192-31.586-11.155-46.902c-1.849-5.701-4.832-10.883-7.314-16.323
				c-1.336-2.931-2.649-6.038-3.309-9.204c-0.148-0.718-0.271-1.51-0.306-2.281c0.844-1.287,1.182-2.943,0.758-4.445
				c2.775-0.072,5.573-0.676,8.245-1.926c2.427-1.135,4.377-2.691,5.897-4.525c8.165,15.131,30.206,20.639,45.64,23.467
				c2.588,0.474,5.256,0.789,7.962,0.986c-0.055,0.078-0.104,0.162-0.159,0.238c-3.121,4.213,1.315,9.408,5.135,8.336
				c4.187,7.647,5.734,16.863,6.635,25.35C363.073,351.004,359.661,365,354.447,378.17z M349.236,292.582
				c-8.462-0.322-17.248-2.906-25.132-5.873c-7.386-2.781-16.895-7.018-19.835-14.984c-0.75-2.032-2.318-3.006-3.981-3.176
				c0.226-2.34,0.083-4.768-0.438-7.18c-0.64-2.973-2.075-5.502-4.003-7.605c0.166-0.07,0.333-0.15,0.499-0.24
				c16.2-8.848,32.273-17.92,48.24-27.182c9.42-5.464,18.653-11.203,28.299-16.26c9.051-4.746,18.178-9.379,26.949-14.635
				c4.887-2.928,14.131-7.607,13.701-14.455c-0.374-5.976-9.007-5.74-9.903-0.51c-0.086,0.096-0.198,0.217-0.367,0.396
				c-0.727,0.771-2.004,1.674-3.097,2.457c-3.563,2.551-7.398,4.734-11.206,6.893c-8.188,4.643-16.601,8.871-24.918,13.273
				c-9.66,5.111-18.915,11-28.372,16.475c-11.998,6.947-24.071,13.764-36.207,20.465c0.393-2.661,0.088-5.533-1.142-8.522
				c-3.482-8.465-13.162-10.089-21.162-8.434c0.02-0.936-0.037-1.889-0.148-2.851c1.573-0.783,2.716-2.35,2.522-4.643
				c-1.397-16.686,6.747-31.436,18.64-42.594c13.991-13.127,31.957-16.778,50.488-18.129c21.583-1.574,43.26,0.219,64.833-1.73
				c15.172-1.369,29.119-5.223,42.579-11.273c-3.593,7.787-7.157,15.585-10.298,23.568c-5.183,13.172-7.872,26.559-10.056,40.492
				c-3.829,24.424-9.531,49.051-25.627,68.604C395.229,292.988,370.839,293.406,349.236,292.582z M460.409,399.879
				c-16.441,1.713-33.047-2.454-48.905-6.41c-8.577-2.139-16.686-7.191-24.479-11.206c-6.561-3.38-13.283-6.521-20.377-8.537
				c4.3-13.075,6.233-26.478,4.609-40.224c-1.027-8.693-2.938-18.148-7.127-26.139c5.047,3.119,9.887,6.542,14.565,10.186
				c-0.084,0.38-0.132,0.783-0.132,1.213v38c0,6.445,9.972,5.648,9.972-0.77v-30.273c2.19,1.926,4.342,3.899,6.469,5.898
				c-0.276,0.625-0.438,1.341-0.44,2.145c-0.05,11.676-0.951,23.325-1,35c-0.028,6.445,9.945,5.645,9.972-0.77
				c0.04-9.074,0.59-18.133,0.856-27.201c2.053,2.076,4.086,4.17,6.101,6.273c-2.74,11.377-1.979,23.092-1.929,34.697
				c0.027,6.446,10,5.651,9.972-0.77c-0.035-8.838-0.526-17.662,0.704-26.377c2.52,0.09,4.845-2.378,5.033-5.116
				c4.533-1.965,8.825-4.429,13.073-6.976c5.542-3.324-0.08-11.597-5.592-8.291c-4.304,2.58-8.586,5.025-13.252,6.829
				c-3.575-3.74-7.184-7.456-10.881-11.085c5.054-1.51,9.983-3.449,15.312-3.613c6.446-0.197,5.667-10.169-0.769-9.973
				c-7.443,0.229-13.806,3.779-21,5c-0.715,0.121-1.334,0.362-1.871,0.684c-1.826-1.672-3.666-3.329-5.537-4.949
				c0.186-0.136,0.37-0.281,0.549-0.447c6.206-5.766,16.557-7.354,24.628-8.314c6.378-0.758,5.652-10.736-0.769-9.973
				c-11.027,1.312-23.008,3.914-31.371,11.686c-0.257,0.238-0.471,0.484-0.657,0.733c-3.843-3.049-7.785-5.972-11.856-8.72
				c0.804-0.085,1.611-0.168,2.403-0.258c11.714-1.332,23.479-4.678,32.759-12.198c0.476-0.386,0.941-0.784,1.404-1.183
				c1.082,1.193,2.709,1.84,4.266,1.815c0.249,0.222,0.492,0.45,0.69,0.618c1.564,1.305,3.022,2.746,4.476,4.172
				c2.438,2.393,4.859,4.836,7.14,7.382c8.723,9.741,16.644,20.333,22.153,32.242C458.604,354.203,464.54,378.293,460.409,399.879z"
				/>
		</g>
	</g>
</g>
</svg>
