<?xml version="1.0" encoding="utf-8"?>
<!-- Generator: Adobe Illustrator 16.0.3, SVG Export Plug-In . SVG Version: 6.00 Build 0)  -->
<!DOCTYPE svg PUBLIC "-//W3C//DTD SVG 1.1//EN" "http://www.w3.org/Graphics/SVG/1.1/DTD/svg11.dtd">
<svg version="1.1" id="Layer_1" xmlns="http://www.w3.org/2000/svg" xmlns:xlink="http://www.w3.org/1999/xlink" x="0px" y="0px"
	 width="512px" height="512px" viewBox="0 0 512 512" style="enable-background:new 0 0 512 512;" xml:space="preserve">
<style type="text/css">
<![CDATA[
	.st0{fill:#127274;}
	.st1{fill:#14B6B9;}
	.st2{fill:#1E4384;}
	.st3{fill:#EF4754;}
	.st4{fill:#EF4823;}
	.st5{fill:#BCBCBC;}
	.st6{fill:#F6851F;}
	.st7{fill:#C56528;}
	.st8{fill:#FCBF95;}
	.st9{fill:#FEBF10;}
	.st10{fill:none;}
	.st11{fill:#010101;}
	.st12{fill:#3AB37C;}
	.st13{fill:#D6E5E5;}
	.st14{fill:#71C598;}
	.st15{fill:#74CCCF;}
]]>
</style>
<g>
	<g>
		<g>
			<path class="st4" d="M169.745,291.469c-5.87,4.818-13.251,12.473-14.871,20.162c-0.531,2.521-1.237,5.211-1.236,7.801
				c0,0.811-0.085,1.834,0.122,2.664c2.418-0.016,4.07,1.314,4.882,3.057c11.437,3.953,24.998,2.447,32.551-6.693
				c11.28-13.654,13.246-32.652,24.535-46.461c0.068-0.289,0.142-0.578,0.243-0.865c0.541-1.533,1.269-3.02,2.127-4.432
				C200.413,271.488,183.967,279.791,169.745,291.469z"/>
		</g>
	</g>
	<g>
		<g>
			<path class="st4" d="M214.163,242.938c-10.705-7.434-16.201-19.896-20.364-32.086c-4.331-12.684-7.749-32.094-21.495-38.072
				c-5.338-2.32-13.483-3.881-18.701-0.357c-4.115,2.779-6.573,6.98-7.682,11.793c-2.907,12.604-1.454,26.186-1.019,38.979
				c0.542,15.941,1.132,31.979-0.437,47.883c-0.715,7.246-1.937,14.26-3.475,21.365c-1.303,6.018-2.768,12.518,0.098,18.32
				c0.604,1.223,1.326,2.381,2.13,3.484c1.37-8.443,5.037-15.701,10.687-22.428c7.67-9.131,18.287-16.506,28.59-22.391
				c10.291-5.879,21.187-10.25,32.61-13.268C213.522,252.148,213.054,247.734,214.163,242.938z"/>
		</g>
	</g>
	<g>
		<g>
			<path class="st9" d="M232.102,451.633c-8.424,0.117-16.831,0.713-25.079,2.213c-7.995,1.453-15.842,3.504-23.655,5.723
				c-5.691,1.617-11.951,1.518-17.607,3.264l-0.362,0.158c-0.256,0.111-0.521,0.189-0.79,0.248
				c-3.266,3.705-0.073,7.789,5.358,9.764c5.529,2.012,11.73,2.768,17.579,2.934c9.325,0.264,18.667,1.201,28,0.918
				c4.908-0.148,9.859-0.441,14.705,0.125c0.681-0.906,1.611-1.611,2.69-1.916C229.476,467.854,228.711,459.594,232.102,451.633z"/>
		</g>
	</g>
	<g>
		<g>
			<path class="st9" d="M285.871,459.777c-3.363,0.053-5.663-2.92-5.787-5.773c-8.215-0.73-16.434-1.396-24.669-1.803
				c-3.662-0.18-7.345-0.34-11.038-0.451c-0.174,0.424-0.399,0.846-0.695,1.258c-10.392,14.473,7.509,33.438,22.802,31.943
				C278.664,483.762,294.581,471.73,285.871,459.777z"/>
		</g>
	</g>
	<g>
		<g>
			<path class="st4" d="M279.219,247.324c-0.188-1.982-0.359-4.021-1.04-5.908c-0.008-0.021-0.015-0.041-0.022-0.062
				c-1.085,1.609-2.798,2.088-4.483,1.736c-3.384,1.449-7.004,2.811-11.35,1.916c-4.453-0.916-8.266-3.738-12.637-4.59
				c-3.778-0.738-7.643-1.061-11.491-0.85c-1.503,0.08-7.533,0.088-8.371,1.461c-1.143,1.871-2.893,2.686-4.647,2.74
				c-0.024,0.035-0.048,0.072-0.074,0.107c-0.055,0.379-0.143,0.762-0.279,1.152c-2.386,6.84,3.983,12.941,8.997,16.475
				c6.79,4.783,15.097,8.09,23.292,9.414c8.853,1.432,16.482-1.357,20.083-10.275C278.919,256.367,279.652,251.906,279.219,247.324z
				"/>
		</g>
	</g>
	<g>
		<g>
			<path class="st9" d="M272.045,27.086c-7.433-5.234-16.864-6.432-25.215-2.682c-10.391,4.668-16.83,14.75-20.949,24.967
				c-10.84,26.891-6.498,56.514-2.239,84.316c4.822,31.475,9.34,63.088,11.69,94.857c4.413-0.355,8.942,0.012,12.659,0.477
				c2.016,0.252,4.009,0.564,5.955,1.16c1.865,0.57,3.627,1.568,5.426,2.418c-0.328-21.877,2.332-43.699,7.311-64.994
				c5.015-21.451,12.123-42.322,17.846-63.582C291.167,79.369,296.494,44.303,272.045,27.086z"/>
		</g>
	</g>
	<g>
		<g>
			<path class="st4" d="M396.73,209.469c-0.816-10.264-6.359-22.879-16.192-27.514c-9.022-4.252-19.467-2-27.74,3.012
				c-12.56,7.611-24.032,17.324-35.551,26.391c-9.914,7.805-19.855,15.572-30.153,22.857c2.475,4.398,3.305,10.756,3.214,16.195
				c13.386-3.023,27.417-5.266,40.972-2.355c10.952,2.352,25.496,7.73,31.763,17.699c2.794,4.445,5.241,9.336,7.11,14.404
				c0.932-2.023,1.774-4.076,2.562-6.094c3.95-10.119,6.946-20.359,11.955-30.061C390.055,233.576,397.705,221.729,396.73,209.469z"
				/>
		</g>
	</g>
	<g>
		<g>
			<path class="st9" d="M350.103,461.305c-14.298-5.234-30.519-3.904-45.488-5.119c-2.858-0.23-5.715-0.48-8.572-0.736
				c3.722,6.314,4.569,13.49,1.632,20.344c12.012-0.25,24.1-1.025,35.968-2.568c5.421-0.703,12.397-1.582,16.928-4.889
				c1.831-1.336,3.129-4.197,3.356-6.951C352.784,461.77,351.481,461.809,350.103,461.305z"/>
		</g>
	</g>
	<g>
		<g>
			<path class="st4" d="M360.912,287.328c-1.902-5.826-4.293-12.291-8.191-17.152c-0.125-0.135-0.361-0.393-0.455-0.463
				c-1.479-1.117-2.955-2.248-4.536-3.219c-2.745-1.688-5.56-3.289-8.538-4.533c-5.032-2.102-10.329-3.486-15.771-3.977
				c-8.099-0.73-16.227,0.191-24.214,1.725c4.454,4.203,8.393,8.928,12.231,13.82c5.804,7.398,11.695,16.17,19.909,21.133
				c7.843,4.738,18.708,7.203,26.757,1.502c1.509-1.068,2.873-2.291,4.126-3.621C361.919,290.783,361.475,289.051,360.912,287.328z"
				/>
		</g>
	</g>
	<g>
		<g>
			<path class="st9" d="M342.891,424.699c-1.188,0.332-2.506,0.26-3.788-0.395c-5.26-2.686-11.284-2.973-17.092-3.047
				c-6.303-0.08-12.564-0.379-18.861-0.658c-14.87-0.662-29.759-1.283-44.647-1.137c-13.643,0.133-27.35,0.68-40.966,1.564
				c-12.924,0.84-25.898,2.17-38.167,6.541c-0.345,0.123-0.679,0.205-1.007,0.262c-0.456,7.789-1.644,15.572-4.983,22.291
				c3.293-0.51,6.586-1.021,9.75-1.893c7.599-2.094,15.272-4.035,23.048-5.354c17.23-2.922,34.897-2.434,52.286-1.428
				c17.429,1.01,34.781,2.967,52.188,4.246c11.689,0.859,23.305,0.691,34.649,3.039c0.18-0.852,0.535-1.68,1.048-2.404
				C344.066,439.316,342.879,432.158,342.891,424.699z"/>
		</g>
	</g>
	<g>
		<g>
			<path class="st9" d="M343.479,378.051c-0.486-13.977-1.213-28.225-3.778-42c-1.806-9.697-6.832-18.889-7.567-28.699
				c-2.786-1.158-5.445-2.604-7.891-4.297c-8.869-6.143-15.318-14.998-21.923-23.375c-3.461-4.389-6.959-8.816-11.119-12.576
				c-1.098-0.994-2.455-1.908-3.772-2.873c-4.527,10.742-13.687,18.785-26.322,18.127c-9.75-0.506-22.834-4.404-32.813-11.141
				c-0.113,0.146-0.229,0.291-0.338,0.441c-0.385,0.537-0.438,0.615-0.16,0.238c-0.794,1.32-1.459,2.678-1.972,4.131
				c-0.167,0.475-0.423,0.889-0.734,1.252c-0.205,0.652-0.546,1.305-1.061,1.932c-11.977,14.609-12.882,36.432-27.299,49.367
				c-3.497,3.137-7.451,5.441-11.65,7.002c-0.209,1.27-0.965,2.475-2.455,3.357c-5.879,3.479-5.778,17.322-5.918,23.879
				c-0.23,10.77,0.484,21.504,1.067,32.252c0.378,6.98,0.771,14.084,0.836,21.148c12.272-3.93,25.264-5.387,38.079-6.16
				c14.911-0.898,29.91-1.609,44.849-1.578c15.947,0.031,32.166,0.131,48.061,1.5c9.279,0.799,18.913-0.326,27.907,2.033
				c1.737-1.162,4.059-1.479,5.966-0.285C343.935,400.514,343.868,389.232,343.479,378.051z"/>
		</g>
	</g>
	<g>
		<g>
			<path d="M405.647,198.289c-3.348-10.604-9.467-20.045-19.227-25.67c-17.406-10.033-36.29,0.33-50.558,10.639
				c-21,15.176-40.506,32.309-62.042,46.764c-0.707,0.475-1.223,1.107-1.591,1.816c-0.641,0.197-1.266,0.473-1.854,0.812
				l-0.012,0.006c-0.549-30.572,5.549-60.508,14.292-89.693c8.08-26.969,19.428-56.02,15.9-84.621
				c-2.829-22.934-18.335-46.137-43.171-47.152c-24.072-0.984-38.462,22.873-44.726,42.764c-8.353,26.527-3.848,55.389,0.265,82.234
				c4.768,31.125,9.19,62.4,11.486,93.816c0.041,0.562,0.155,1.07,0.317,1.533c-1.313,0.783-2.51,1.73-3.516,2.904
				c-15.661-9.752-18.184-33.531-24.817-49.176c-4.254-10.035-10.276-18.461-20.545-22.926c-11.198-4.869-24.594-3.672-33.365,5.115
				c-7.624,7.639-8.742,19.801-9.036,29.965c-0.441,15.316,0.78,30.68,1.009,45.992c0.228,15.244-0.534,30.482-3.918,45.383
				c-2.847,12.533-3.214,24.271,5.93,34.311c8.393,9.217,20.849,14.641,33.201,14.961c-2.094,4.809-2.858,10.48-3.34,15.217
				c-1.187,11.664-0.613,23.482,0.042,35.16c0.529,9.438,0.813,18.865,1.091,28.314c0.331,11.291,0.973,27.324-8.99,35.061
				c-1.31,1.018-2.011,2.529-2.162,4.078c-4.485,4.963-6.04,11.965-2.187,18.383c3.999,6.66,11.78,9.348,18.974,10.949
				c9.128,2.031,18.545,1.754,27.833,2.227c5.591,0.285,11.182,0.498,16.779,0.328c4.519-0.137,10.02-0.979,14.392,0.521
				c2.869,0.982,5.422-0.305,6.854-2.268c0.082,0.012,0.165,0.023,0.247,0.035c0.247,0.043,0.49,0.102,0.733,0.162
				c0.049,0.02,0.102,0.043,0.165,0.07c0.62,0.279,1.27,0.434,1.918,0.492c6.578,5.682,15.189,9.277,24.201,9.186
				c8.179-0.084,16.708-3.809,23.118-9.338c0.502,0.139,1.044,0.221,1.633,0.219c18.259-0.057,37.42-0.584,55.208-4.967
				c8.634-2.127,15.794-6.811,18.339-15.656c1.875-6.516-0.834-15.109-6.351-19.492c-3.437-9.057-4.597-17.791-4.135-27.795
				c0.612-13.268,0.819-26.541,0.473-39.82c-0.35-13.424-1.308-26.883-3.223-40.18c-0.856-5.945-2.027-12.027-4-17.709
				c-1.232-3.551-2.971-7.227-3.847-11.002c3.674,0.367,7.389,0.191,11-0.656c1.645-0.387,3.201-0.914,4.683-1.555
				c0.859,0.609,1.928,1,3.2,1.035c8.092,0.215,11.1-6.391,11.218-13.131c0.662-0.881,1.302-1.785,1.92-2.707
				c5.358-7.986,8.408-17.406,11.453-26.447c3.883-11.525,10.083-21.801,15.11-32.82
				C407.236,222.531,409.498,210.484,405.647,198.289z M223.643,133.688c-4.259-27.803-8.601-57.426,2.239-84.316
				C230,39.154,236.439,29.072,246.83,24.404c8.351-3.75,17.783-2.553,25.215,2.682c24.449,17.217,19.121,52.283,12.484,76.938
				c-5.723,21.26-12.831,42.131-17.846,63.582c-4.979,21.295-7.639,43.117-7.311,64.994c-1.799-0.85-3.562-1.848-5.426-2.418
				c-1.946-0.596-3.939-0.908-5.955-1.16c-3.717-0.465-8.247-0.832-12.659-0.477C232.982,196.775,228.465,165.162,223.643,133.688z
				 M224.824,245.027c0.136-0.391,0.224-0.773,0.279-1.152c0.026-0.035,0.049-0.072,0.074-0.107c1.754-0.055,3.504-0.869,4.647-2.74
				c0.838-1.373,6.868-1.381,8.371-1.461c3.848-0.211,7.713,0.111,11.491,0.85c4.372,0.852,8.185,3.674,12.637,4.59
				c4.346,0.895,7.966-0.467,11.35-1.916c1.686,0.352,3.398-0.127,4.483-1.736c0.007,0.021,0.014,0.041,0.022,0.062
				c0.681,1.887,0.853,3.926,1.04,5.908c0.434,4.582-0.299,9.043-2.024,13.316c-3.601,8.918-11.23,11.707-20.083,10.275
				c-8.195-1.324-16.501-4.631-23.292-9.414C228.807,257.969,222.438,251.867,224.824,245.027z M141.088,310.762
				c-2.866-5.803-1.4-12.303-0.098-18.32c1.538-7.105,2.76-14.119,3.475-21.365c1.569-15.904,0.979-31.941,0.437-47.883
				c-0.436-12.793-1.888-26.375,1.019-38.979c1.109-4.812,3.567-9.014,7.682-11.793c5.218-3.523,13.363-1.963,18.701,0.357
				c13.746,5.979,17.164,25.389,21.495,38.072c4.163,12.189,9.659,24.652,20.364,32.086c-1.109,4.797-0.64,9.211,0.943,13.223
				c-11.423,3.018-22.319,7.389-32.61,13.268c-10.304,5.885-20.92,13.26-28.59,22.391c-5.65,6.727-9.317,13.984-10.687,22.428
				C142.415,313.143,141.692,311.984,141.088,310.762z M158.642,325.152c-0.812-1.742-2.464-3.072-4.882-3.057
				c-0.208-0.83-0.122-1.854-0.122-2.664c0-2.59,0.705-5.279,1.236-7.801c1.62-7.689,9.001-15.344,14.871-20.162
				c14.222-11.678,30.668-19.98,48.352-24.768c-0.858,1.412-1.586,2.898-2.127,4.432c-0.101,0.287-0.174,0.576-0.243,0.865
				c-11.289,13.809-13.254,32.807-24.535,46.461C183.64,327.6,170.079,329.105,158.642,325.152z M230.251,476.979
				c-4.845-0.566-9.796-0.273-14.705-0.125c-9.333,0.283-18.675-0.654-28-0.918c-5.849-0.166-12.049-0.922-17.579-2.934
				c-5.431-1.975-8.624-6.059-5.358-9.764c0.269-0.059,0.534-0.137,0.79-0.248l0.362-0.158c5.656-1.746,11.916-1.646,17.607-3.264
				c7.813-2.219,15.66-4.27,23.655-5.723c8.248-1.5,16.654-2.096,25.079-2.213c-3.391,7.961-2.626,16.221,0.839,23.43
				C231.862,475.367,230.932,476.072,230.251,476.979z M266.484,484.951c-15.292,1.494-33.194-17.471-22.802-31.943
				c0.296-0.412,0.521-0.834,0.695-1.258c3.693,0.111,7.376,0.271,11.038,0.451c8.235,0.406,16.454,1.072,24.669,1.803
				c0.124,2.854,2.424,5.826,5.787,5.773C294.581,471.73,278.664,483.762,266.484,484.951z M350.103,461.305
				c1.379,0.504,2.681,0.465,3.824,0.08c-0.228,2.754-1.525,5.615-3.356,6.951c-4.531,3.307-11.506,4.186-16.928,4.889
				c-11.868,1.543-23.956,2.318-35.968,2.568c2.937-6.854,2.09-14.029-1.632-20.344c2.857,0.256,5.714,0.506,8.572,0.736
				C319.584,457.4,335.804,456.07,350.103,461.305z M345.3,448.732c-11.344-2.348-22.959-2.18-34.649-3.039
				c-17.408-1.279-34.76-3.236-52.188-4.246c-17.389-1.006-35.056-1.494-52.286,1.428c-7.776,1.318-15.449,3.26-23.048,5.354
				c-3.165,0.871-6.458,1.383-9.75,1.893c3.339-6.719,4.528-14.502,4.983-22.291c0.328-0.057,0.662-0.139,1.007-0.262
				c12.27-4.371,25.244-5.701,38.167-6.541c13.616-0.885,27.323-1.432,40.966-1.564c14.888-0.146,29.777,0.475,44.647,1.137
				c6.296,0.279,12.558,0.578,18.861,0.658c5.809,0.074,11.832,0.361,17.092,3.047c1.282,0.654,2.6,0.727,3.788,0.395
				c-0.012,7.459,1.175,14.617,3.458,21.629C345.835,447.053,345.479,447.881,345.3,448.732z M343.479,378.051
				c0.389,11.182,0.456,22.463-0.006,33.676c-1.908-1.193-4.229-0.877-5.966,0.285c-8.994-2.359-18.628-1.234-27.907-2.033
				c-15.896-1.369-32.114-1.469-48.061-1.5c-14.939-0.031-29.938,0.68-44.849,1.578c-12.814,0.773-25.806,2.23-38.079,6.16
				c-0.066-7.064-0.458-14.168-0.836-21.148c-0.583-10.748-1.297-21.482-1.067-32.252c0.14-6.557,0.039-20.4,5.918-23.879
				c1.49-0.883,2.245-2.088,2.455-3.357c4.2-1.561,8.153-3.865,11.65-7.002c14.417-12.936,15.322-34.758,27.299-49.367
				c0.515-0.627,0.855-1.279,1.061-1.932c0.312-0.363,0.567-0.777,0.734-1.252c0.513-1.453,1.178-2.811,1.972-4.131
				c-0.279,0.377-0.226,0.299,0.16-0.238c0.109-0.15,0.226-0.295,0.338-0.441c9.979,6.736,23.063,10.635,32.813,11.141
				c12.635,0.658,21.795-7.385,26.322-18.127c1.317,0.965,2.674,1.879,3.772,2.873c4.16,3.76,7.658,8.188,11.119,12.576
				c6.605,8.377,13.054,17.232,21.923,23.375c2.446,1.693,5.105,3.139,7.891,4.297c0.736,9.811,5.762,19.002,7.567,28.699
				C342.266,349.826,342.993,364.074,343.479,378.051z M358.105,296.164c-8.049,5.701-18.914,3.236-26.757-1.502
				c-8.213-4.963-14.105-13.734-19.909-21.133c-3.839-4.893-7.778-9.617-12.231-13.82c7.987-1.533,16.115-2.455,24.214-1.725
				c5.442,0.49,10.739,1.875,15.771,3.977c2.978,1.244,5.793,2.846,8.538,4.533c1.581,0.971,3.057,2.102,4.536,3.219
				c0.094,0.07,0.329,0.328,0.455,0.463c3.898,4.861,6.289,11.326,8.191,17.152c0.563,1.723,1.007,3.455,1.319,5.215
				C360.978,293.873,359.614,295.096,358.105,296.164z M384.67,244.004c-5.009,9.701-8.005,19.941-11.955,30.061
				c-0.788,2.018-1.63,4.07-2.562,6.094c-1.869-5.068-4.316-9.959-7.11-14.404c-6.267-9.969-20.811-15.348-31.763-17.699
				c-13.555-2.91-27.586-0.668-40.972,2.355c0.091-5.439-0.739-11.797-3.214-16.195c10.298-7.285,20.239-15.053,30.153-22.857
				c11.519-9.066,22.991-18.779,35.551-26.391c8.273-5.012,18.717-7.264,27.74-3.012c9.833,4.635,15.376,17.25,16.192,27.514
				C397.705,221.729,390.055,233.576,384.67,244.004z"/>
		</g>
	</g>
</g>
</svg>
