<?xml version="1.0" encoding="utf-8"?>
<!-- Generator: Adobe Illustrator 16.0.3, SVG Export Plug-In . SVG Version: 6.00 Build 0)  -->
<!DOCTYPE svg PUBLIC "-//W3C//DTD SVG 1.1//EN" "http://www.w3.org/Graphics/SVG/1.1/DTD/svg11.dtd">
<svg version="1.1" id="Layer_1" xmlns="http://www.w3.org/2000/svg" xmlns:xlink="http://www.w3.org/1999/xlink" x="0px" y="0px"
	 width="512px" height="512px" viewBox="0 0 512 512" style="enable-background:new 0 0 512 512;" xml:space="preserve">
<style type="text/css">
<![CDATA[
	.st0{fill:#127274;}
	.st1{fill:#14B6B9;}
	.st2{fill:#1E4384;}
	.st3{fill:#EF4754;}
	.st4{fill:#EF4823;}
	.st5{fill:#BCBCBC;}
	.st6{fill:#F6851F;}
	.st7{fill:#C56528;}
	.st8{fill:#FCBF95;}
	.st9{fill:#FEBF10;}
	.st10{fill:none;}
	.st11{fill:#010101;}
	.st12{fill:#3AB37C;}
	.st13{fill:#D6E5E5;}
	.st14{fill:#71C598;}
	.st15{fill:#74CCCF;}
]]>
</style>
<g>
	<g>
		<g>
			<path class="st12" d="M127.598,396.54c-12.734-8.558-24.809-17.99-36.401-28.008c-0.142,0.513-0.3,1.022-0.489,1.527
				c-0.931,2.471-3.833,4.07-5.887,5.436c-2.729,1.813-2.803,5.243-3.643,8.167c-1.027,3.58-4.541,4.691-7.331,3.935
				c4.893,6.506,10.17,12.729,15.95,18.553c6.77,6.82,14.117,13.062,21.903,18.747c0.126-1.375,0.734-2.741,2.003-3.844
				c3-2.606,6.896-3.346,10.104-5.538c1.537-1.051,0.816-0.232,0.447-1.38c-0.539-1.682-0.829-3.343-0.959-5.099
				c-0.245-3.297,0.098-6.486,1.949-9.303C126.028,398.54,126.867,397.563,127.598,396.54z"/>
		</g>
	</g>
	<g>
		<g>
			<path class="st14" d="M209.615,449.668c-1.934-2.181-4.146-4.119-6.467-5.925c-2.857-2.222-2.215-6.762,0.555-8.691
				c1.623-1.131,3.15-2.37,4.639-3.653c-23.857-4.736-46.899-13.938-68.258-26.857c-1.105-0.668-2.188-1.369-3.282-2.051
				c-0.593,0.856-1.239,1.712-1.937,2.603c-1.959,2.501,0.33,5.81,0.634,8.514c1.197,10.642-9.614,11.325-15.644,16.564
				c-0.086,0.075-0.174,0.137-0.26,0.205c24.255,15.974,52.154,26.903,80.279,33.062c-0.381-0.833-0.573-1.798-0.494-2.877
				C199.883,453.698,204.681,451.825,209.615,449.668z"/>
		</g>
	</g>
	<g>
		<g>
			<path class="st14" d="M34.814,312.973c9.369,24.253,20.393,48.338,35.371,69.594c0.036-0.323,0.096-0.656,0.195-1.005
				c1.682-5.858,2.619-11.758,8.288-15.187c2.454-1.484,2.34-1.924,2.644-4.795c0.059-0.561,0.115-1.121,0.174-1.683
				C65.189,345.041,49.792,329.131,34.814,312.973z"/>
		</g>
	</g>
	<g>
		<g>
			<path class="st8" d="M443.989,186.557c-3.388-53.905-26.079-102.295-54.521-147.234c-3.518,4.624-9.474,8.488-12.971,11.479
				c-3.393,2.901-6.832,5.73-10.288,8.537c5.146,5.516,10.294,11.045,15.108,16.854c8.674,10.466,15.914,21.777,21.406,34.232
				c5.902,13.383,8.883,27.665,11.391,42.009c2.553,14.59,5.715,29.144,6.02,44.008c0.283,13.835-1.01,27.739-4.205,41.217
				c-3.262,13.758-7.996,27.178-13.83,40.054c-2.994,6.606-5.865,13.55-10.152,19.444c-3.859,5.308-8.527,9.873-12.869,14.771
				c-9.18,10.356-14.621,23.296-23.926,33.668c-9.046,10.083-19.711,18.929-31.993,24.779c-6.113,2.912-12.584,5.169-19.315,6.118
				c-6.459,0.91-12.982,0.505-19.434,1.618c-13.955,2.408-27.147,7.87-40.953,10.927c-11.987,2.654-23.971,2.024-36.145,1.513
				c-11.291-0.476-22.828-1.272-33.467-5.406c-5.118-1.989-10.233-4.739-14.211-8.591c-3.906-3.783-6.854-8.312-10.283-12.499
				c-8.375-10.228-20.456-11.724-32.193-16.192c-13.314-5.068-23.605-16.242-33.986-25.662
				c-10.926-9.913-21.447-20.213-30.952-31.513c-0.446-0.53-0.758-1.067-0.959-1.599c-2.987,2.277-6.015,4.496-9.181,6.494
				c-1.461,0.922-2.946,1.812-4.451,2.67c1.375,1.029,2.186,2.629,2.395,4.243c14.98,16.255,30.53,32.646,47.046,47.945
				c3.317-0.46,6.95,1.722,6.23,5.672c13.04,11.671,26.692,22.593,41.173,32.149c2.305-0.012,4.678,1.274,5.5,3.547
				c12.686,7.951,25.998,14.84,40.068,20.283c12.676,4.904,25.734,8.271,38.934,10.157c1.68-0.771,3.33-0.401,4.605,0.598
				c33.566,3.906,67.871-1.762,99.02-16.48c39.986-18.895,72.402-51.704,93.089-90.589
				C436.658,276.36,446.795,231.174,443.989,186.557z"/>
		</g>
	</g>
	<g>
		<g>
			<path class="st14" d="M473.969,161.131c-10.526-37.324-30.909-69.311-56.854-96.854c13.089,23.817,24.049,48.779,30.593,75.206
				c2.401,9.697,4.241,19.507,5.516,29.377c2.774-0.175,6.38-5.393,8.479-6.808c2.471-1.665,5.979-1.015,7.636,1.484
				c1.415,2.134,3.709,2.874,6.187,3.411C475.027,165.003,474.514,163.063,473.969,161.131z"/>
		</g>
	</g>
	<g>
		<g>
			<path class="st4" d="M407.98,181.708c-1.926-14.743-4.508-29.833-7.97-44.297c-3.382-14.132-8.624-27.727-16.587-39.941
				c-7.289-11.18-16.197-20.994-25.275-30.726c-0.17-0.182-0.32-0.368-0.46-0.556c-4.126,3.279-8.265,6.549-12.398,9.841
				c-10.87,8.657-22.495,16.769-34.036,24.509c-9.189,6.164-18.676,11.834-28.666,16.561c4.383,10.139,3.271,23.938-4.227,31.843
				c-4.868,5.133-11.242,8.119-17.361,7.796c-1.102,7.065-6.157,13.921-12.129,17.687c-6.529,4.116-13.459,4.992-19.26,2.702
				c-2.627,10.565-11.357,19.402-21.927,23.731c-12.083,4.949-26.764,3.345-33.356-7.527c-23.479,17.986-44.818,38.67-68.978,55.782
				c-14.587,10.333-28.866,21.131-43.281,31.703c-0.95,0.696-1.892,1.406-2.831,2.122c0.756,0.337,1.474,0.854,2.101,1.6
				c9.267,11.017,19.719,20.986,30.419,30.594c10.312,9.258,19.965,19.774,33.514,23.954c11.39,3.512,22.46,6.635,30.641,15.809
				c6.913,7.753,11.456,15.978,21.622,19.928c9.976,3.877,21.047,4.525,31.639,4.856c11.442,0.356,22.644,1.038,33.876-1.761
				c13.012-3.243,25.603-8.202,38.852-10.488c6.521-1.125,13.066-0.773,19.572-1.691c5.75-0.811,11.35-2.554,16.595-5.053
				c12.46-5.936,23.4-15.303,31.962-26.068c4.539-5.709,8.109-11.832,11.875-18.049c3.52-5.813,7.758-10.719,12.377-15.678
				c4.865-5.225,9.376-10.291,12.57-16.725c3.163-6.368,6.186-12.814,8.855-19.406c5.295-13.074,9.506-26.625,11.656-40.594
				C409.527,210.1,409.827,195.833,407.98,181.708z M150.707,309.059c-4.162,6.855-9.311,13.859-17.109,16.744
				c-3.931,1.455-8.008-2.202-7.217-6.241c1.25-6.392,5.152-11.01,8.471-16.397c1.302-2.112,3.407-3.451,5.977-2.951
				c0.571,0.111,1.136,0.33,1.662,0.633c1.416-0.139,2.878-0.031,4.338,0.367C150.003,302.08,152.689,305.792,150.707,309.059z
				 M160.178,259.662c-1.643,5.585-6.003,9.245-11.509,10.194c-0.767,1.762-2.265,3.072-4.466,3.241
				c-2.75,0.21-5.994-2.062-5.908-5.062c0.004-0.122,0.023-0.232,0.029-0.354c-0.23-1.049-0.112-2.218,0.484-3.424
				c0.964-3.819,3.275-6.744,6.895-9.206c0.961-0.653,1.965-0.938,2.936-0.937c2.159-0.921,4.558-1.308,7.189-0.902
				C158.588,253.638,161.002,256.86,160.178,259.662z M185.99,306.029c-1.301,1.525-3.115,2.399-5.26,1.981
				c-2.223-0.432-4.488-2.562-4.436-4.975c0.16-7.423,3.43-16.977,10.415-19.962c1.089-0.737,2.436-1.088,3.804-0.905
				c0.742-0.049,1.511-0.041,2.314,0.045c2.257,0.242,4.455,2.703,4.436,4.975C197.201,294.946,195.111,304.995,185.99,306.029z
				 M204.598,350.803c-3.562,1.239-6.754-1.295-7.303-4.768c-1.166-7.365,1.319-18.404,6.352-24.055
				c1.477-1.657,3.303-2.084,4.969-1.727c2.047-0.76,4.368-0.285,5.724,2.282C219.276,331.887,215.141,347.136,204.598,350.803z
				 M232.855,295.171c-1.733,1.454-5.174,1.231-6.707-0.428c-0.402-0.436-0.77-0.874-1.113-1.315
				c-1.562-0.698-2.721-2.146-2.74-4.393c-0.002-0.247-0.004-0.492-0.006-0.738c-0.719-2.214-0.99-4.595-0.994-7.262
				c-0.004-2.196,1.025-4.214,2.816-5.232c1.129-2.174,2.939-4.024,5.85-5.383c2.898-1.353,5.861,0.867,7.01,3.373
				C240.199,280.832,238.852,290.139,232.855,295.171z M273.091,329.961c-0.461,5.094-4.444,12.341-10.569,11.303
				c-8.5-1.44-8.197-15.795-8.227-22.229c-0.009-1.924,0.801-3.384,1.98-4.354c-1.175-5.005,6.377-9.2,10.063-4.146
				C270.34,316.019,273.719,323.016,273.091,329.961z M275.178,273.662c-0.98,3.269-4.449,5.72-7.846,3.877
				c-4.628-2.511-7.944-6.138-9.744-11.108c-0.463-1.278-0.455-2.443-0.127-3.446c-0.06-0.388-0.111-0.775-0.146-1.161
				c-0.504-5.5,2.539-12.055,8.979-11.719C276.83,250.653,277.486,265.97,275.178,273.662z M348.646,147.981
				c5.291-4.929,13.433-8.604,20.709-8.854c4.238-0.146,7.14,4.031,5.352,7.933c-3.027,6.604-9.781,9.234-16.109,11.744
				c-2.77,1.099-5.004-0.089-6.19-2.027C348.278,156.322,344.844,151.524,348.646,147.981z M315.646,137.981l3-3
				c0.785-0.785,1.732-1.341,2.733-1.625c2.975-1.871,6.271-3.113,9.976-3.229c3.521-0.11,6.567,2.907,5.822,6.535
				c-1.514,7.377-9.787,13.54-17.447,11.349c-1.23-0.352-2.312-1.01-3.104-1.89c-0.162-0.115-0.322-0.239-0.479-0.377
				C314.008,143.86,313.524,140.104,315.646,137.981z M293.964,231.927c0.345-4.53,3.649-7.93,8.941-8.004
				c10.802-0.152,11.037,14.247,9.272,21.738c-0.634,2.692-3.491,5.233-6.447,4.349c-6.11-1.828-11.277-6.345-13.143-12.58
				C291.904,235.147,292.629,233.222,293.964,231.927z M317.912,314.243c-1.526,1.98-4.439,2.272-6.58,1.296
				c-7.787-3.552-13.854-10.041-16.744-18.108c-0.459-1.282-0.447-2.45-0.113-3.455c-0.289-1.305-0.169-2.71,0.377-3.811
				c1.451-2.926,4.551-3.478,7.375-2.479C312.262,291.229,326.668,302.879,317.912,314.243z M315.73,197.01
				c-1.843-0.574-3.369-1.764-4.059-3.389c-4.062-1.849-4.861-8.633,0.289-10.201c1.051-0.32,2.077-0.653,3.088-0.984
				c0.495-1.233,1.433-2.327,2.912-3.016c2.303-1.072,4.696-1.928,7-3c2.875-1.339,5.703,0.566,6.832,3.138
				c1.435,0.205,2.904,0.56,4.434,1.127c2.289,0.849,3.342,3.757,2.951,5.977C337.23,197.723,324.971,199.889,315.73,197.01z
				 M360.644,267.09c-7.44,7.152-22.332-0.686-26.056-8.66c-0.508-1.087-0.483-2.275-0.111-3.371
				c-4.002-4.707,2.811-12.002,7.934-7.579c-0.772-0.668-0.113-0.126,0.315,0.124c0.246,0.053,1.317,0.382,1.238,0.364
				c1.226,0.284,2.458,0.527,3.689,0.786c2.865,0.603,6.106,1.204,8.644,2.734C360.977,254.31,365.744,262.188,360.644,267.09z
				 M360.203,212.097c-2.623-0.032-4.391-1.574-5.213-3.491c-2.226-2.579-2.189-7.449,1.971-9.186
				c7.186-3,13.545-6.049,21.266-2.735c1.561,0.669,3.137,2.737,3.037,4.503C380.599,213.148,369.129,212.208,360.203,212.097z"/>
		</g>
	</g>
	<g>
		<g>
			<path class="st12" d="M269.759,460.588c0.462-4.674,3.452-11.118,1.869-14.572c-1.847-4.029-4.519-8.1-4.675-12.246
				c-15.045,1.798-30.046,1.688-44.805-0.143c-2.297,2.011-4.491,4.114-6.77,6.127c2.716,2.614,5.16,5.532,6.96,8.782
				c1.445,2.608,1.171,5.864-1.483,7.635c-2.916,1.945-10.408,2.831-10.678,6.49c-0.081,1.105-0.414,1.985-0.915,2.654
				c20.552,3.719,41.644,4.93,62.523,3.455C270.125,466.812,269.439,463.827,269.759,460.588z"/>
		</g>
	</g>
	<g>
		<g>
			<path class="st12" d="M464.412,314.821c-0.186,0.119-0.368,0.239-0.557,0.351c-2.896,1.706-7.229,0.845-8.268-2.741
				c-1.223-4.219-1.336-8.6-1.763-12.92c-3.193,2.433-6.276,5.035-10.283,6.229c-4.225,1.26-7.415,0.153-9.714-2.16
				c-3.113,7.104-6.543,14.067-10.31,20.842c2.052,0.437,3.743,1.986,3.745,4.768c0.003,3.191-1.004,7.511,1.977,9.319
				c2.818,1.71,7.756,3.714,9.393,6.808c1.416,2.675,1.997,8.969,3.74,10.334c2.305,1.805,4.752,3.508,6.494,5.765
				c6.771-11.104,12.602-22.842,17.369-35.128c0.951-2.45,1.85-4.921,2.723-7.401C466.859,318.63,464.928,317.308,464.412,314.821z"
				/>
		</g>
	</g>
	<g>
		<g>
			<path class="st12" d="M478.439,179.659c-0.761-0.351-1.469-0.929-2.069-1.767c-0.129-0.034-0.288-0.071-0.487-0.112
				c-0.627-0.137-1.257-0.259-1.889-0.367c-1.742-0.314-3.439-0.667-5.121-1.227c-1.617-0.538-3.068-1.251-4.379-2.146
				c-1.619,1.589-3.177,3.251-5.135,4.465c-1.584,0.981-3.251,1.474-4.936,1.586c1.123,13.265,1.219,26.604,0.238,39.898
				c1.388,0.759,2.438,2.142,2.602,4.198c0.09,1.124,0.461,2.426,0.949,3.59c0.021-0.027,0.043-0.053,0.063-0.08
				c2.675-3.598,5.301-7.646,9.685-9.277c2.389-0.889,4.918,0.148,6.378,2.116c2.692,3.628,5.774,4.566,9.259,5.973
				C483.277,210.762,481.558,195.055,478.439,179.659z"/>
		</g>
	</g>
	<g>
		<g>
			<path class="st14" d="M481.238,237.105c-2.277-1.013-5.662-1.576-7.252-2.372c-1.924-0.963-3.543-2.201-5-3.625
				c-1.408,1.844-2.67,4.258-3.729,5.506c-2.097,2.471-5,5.076-8.527,4.396c-1.576-0.303-2.973-1.064-4.195-2.119
				c-0.241,1.586-0.48,3.172-0.754,4.755c-2.703,15.685-6.846,31.182-12.389,46.162c0.434,0.659,0.743,1.448,0.871,2.38
				c0.12,0.873,0.201,2.027,0.579,2.947c1.446-0.398,2.966-1.631,4.138-2.457c3.609-2.543,6.961-5.366,10.98-7.258
				c2.611-1.229,6.236,0.705,7.01,3.373c1.206,4.161,1.332,8.48,1.744,12.743c0.721-0.406,1.461-0.786,2.246-1.116
				c2.689-1.131,5.764,0.533,6.877,3.053c5.752-20.41,8.981-41.582,9.676-62.836C482.359,239.735,481.53,238.45,481.238,237.105z"/>
		</g>
	</g>
	<g>
		<g>
			<path class="st14" d="M342.334,442.485c-2.433-2.258-4.228-5.125-4.971-8.379c-1.465-6.423,2.387-9.434,5.197-14.471
				c1.348-2.414,0.114-3.194-2.064-4.687c-1.564-1.071-3.265-1.959-4.826-3.037c-16.453,8.768-34.109,15.308-52.594,19.211
				c-0.643,2.612-2.714,3.805-4.876,3.844c0.182,1.123,1.241,2.292,2.154,4.055c1.644,3.173,3.236,6.482,2.798,10.153
				c-0.312,2.611-1.057,5.155-1.613,7.721c-0.318,1.47-0.653,2.955-0.836,4.452c2.007,1.482,3.013,4.185,2.391,6.359
				c15.114-1.782,30.043-4.997,44.496-9.714c3.263-4.819,8.381-7.688,12.746-11.462c0.854-0.738,2.043-1.7,2.562-2.723
				C343.54,442.54,343.536,443.601,342.334,442.485z"/>
		</g>
	</g>
	<g>
		<g>
			<path class="st14" d="M440.588,369.43c-0.827-3.684-6.137-5.185-7.957-8.574c-1.339-2.491-1.955-5.222-2.746-7.918
				c0.043,0.144-0.451-1.08-0.521-1.481c-0.017-0.01-0.024-0.015-0.041-0.025c-3.521-2.157-8.587-4.343-10.745-8.097
				c-1.299-2.259-1.857-4.624-2.099-7.062c-6.007,9.467-12.69,18.5-20.042,26.982c-5.665,6.536-11.702,12.711-18.066,18.497
				c0.703,1.029,1.053,2.347,0.807,3.91c-0.422,2.676,0.119,2.398,2.678,3.653c2.242,1.098,4.555,2.462,6.016,4.553
				c4.078,5.832,1.747,11.309-0.25,16.99c4.191,2.145,6.294,6.116,7.151,11.109c18.203-14.194,34.139-31.025,47.212-49.957
				C441.342,371.415,440.844,370.569,440.588,369.43z"/>
		</g>
	</g>
	<g>
		<g>
			<path class="st12" d="M381.203,420.097c-3.433-0.154-6.665-2.715-5.822-6.535c0.795-3.606,4.557-8.952,3.803-12.601
				c-0.322-1.559-3.12-2.122-4.383-2.855c-3.482-2.021-5.494-4.684-6.285-7.922c-7.127,5.733-14.601,11.007-22.389,15.759
				c4.049,2.751,7.846,5.477,8.202,11.301c0.206,3.366-1.282,6.574-3.206,9.232c-0.696,0.963-3.648,3.631-3.141,5.026
				c1.281,3.516,4.86,4.998,5.883,8.831c0.69,2.59,0.336,5.136-0.703,7.458c3.846-1.829,7.646-3.764,11.383-5.834
				c6.821-3.779,13.418-7.893,19.781-12.304c-0.02-0.199-0.031-0.404-0.031-0.618C384.29,426.022,385.354,420.283,381.203,420.097z"
				/>
		</g>
	</g>
	<g>
		<g>
			<path d="M480.635,145.489c-15.693-46.459-47.297-84.772-84.379-115.987c-0.638-0.989-1.276-1.979-1.917-2.965
				c-1.456-2.241-3.674-2.785-5.657-2.23c-2.657-0.407-5.579,0.899-6.205,3.765c-0.858,0.953-1.354,2.279-1.182,3.965
				c-0.115-1.124-0.994,0.717-1.463,1.241c-1.254,1.401-2.684,2.666-4.104,3.895c-3.019,2.61-6.204,5.038-9.081,7.81
				c-9.104,8.772-20.074,16.719-30.343,24.074c-20.348,14.575-40.122,30.514-63.343,40.365c-3.043,1.291-5.066,5.321-2.741,8.267
				c5.003,6.341,4.932,15.45,1.11,22.432c-2.575,4.705-10.115,8.417-13.991,3.418c-4.522-5.228-13.547,0.439-9.119,6.15
				c4.342,5.018,0.416,11.045-4.048,14.586c-5.646,4.479-12.234,4.867-15.201-2.479c-2.643-6.545-12.643-3.134-10.383,3.637
				c6.713,20.122-31.432,40.035-36.617,17.363c-0.783-3.423-5.627-4.682-8.268-2.741c-26.196,19.259-49.449,42.194-76,61
				c-14.629,10.362-28.935,21.219-43.393,31.821c-6.634,4.865-12.943,10.157-19.91,14.555c-4.76,3.004-12.332,4.908-15.753,9.553
				c-2.308,3.133-0.832,6.752,1.66,8.414c0.062,0.336,0.149,0.68,0.28,1.035c16.821,45.519,38.604,90.428,77.02,121.635
				c42.457,34.488,99.93,51.517,154.039,52.396c52.758,0.857,105.107-16.006,147.268-47.688
				c43.092-32.382,72.486-78.269,86.543-130.079C499.276,251.753,497.53,195.505,480.635,145.489z M473.969,161.131
				c0.545,1.932,1.059,3.872,1.557,5.816c-2.478-0.537-4.771-1.277-6.187-3.411c-1.657-2.499-5.165-3.149-7.636-1.484
				c-2.1,1.415-5.705,6.633-8.479,6.808c-1.274-9.87-3.114-19.68-5.516-29.377c-6.544-26.427-17.504-51.389-30.593-75.206
				C443.06,91.821,463.442,123.807,473.969,161.131z M62.069,280.815c14.415-10.572,28.694-21.37,43.281-31.703
				C129.51,232,150.85,211.316,174.328,193.33c6.593,10.872,21.273,12.477,33.356,7.527c10.569-4.329,19.3-13.166,21.927-23.731
				c5.801,2.29,12.73,1.414,19.26-2.702c5.972-3.766,11.027-10.621,12.129-17.687c6.119,0.323,12.493-2.663,17.361-7.796
				c7.498-7.905,8.609-21.704,4.227-31.843c9.99-4.727,19.477-10.396,28.666-16.561c11.541-7.74,23.166-15.852,34.036-24.509
				c4.134-3.292,8.272-6.562,12.398-9.841c0.14,0.188,0.29,0.374,0.46,0.556c9.078,9.731,17.986,19.546,25.275,30.726
				c7.963,12.215,13.205,25.81,16.587,39.941c3.462,14.464,6.044,29.554,7.97,44.297c1.847,14.126,1.547,28.393-0.617,42.457
				c-2.15,13.969-6.361,27.52-11.656,40.594c-2.67,6.592-5.692,13.038-8.855,19.406c-3.194,6.434-7.705,11.5-12.57,16.725
				c-4.619,4.959-8.857,9.864-12.377,15.678c-3.766,6.217-7.336,12.34-11.875,18.049c-8.562,10.766-19.502,20.133-31.962,26.068
				c-5.245,2.499-10.845,4.242-16.595,5.053c-6.506,0.918-13.052,0.566-19.572,1.691c-13.249,2.286-25.84,7.245-38.852,10.488
				c-11.232,2.799-22.434,2.117-33.876,1.761c-10.592-0.331-21.663-0.979-31.639-4.856c-10.166-3.95-14.709-12.175-21.622-19.928
				c-8.181-9.174-19.251-12.297-30.641-15.809c-13.549-4.18-23.201-14.696-33.514-23.954c-10.7-9.607-21.152-19.577-30.419-30.594
				c-0.627-0.745-1.345-1.263-2.101-1.6C60.178,282.221,61.119,281.511,62.069,280.815z M42.08,295.583
				c3.166-1.998,6.193-4.217,9.181-6.494c0.201,0.531,0.513,1.068,0.959,1.599c9.505,11.3,20.026,21.6,30.952,31.513
				c10.381,9.42,20.672,20.594,33.986,25.662c11.737,4.469,23.818,5.965,32.193,16.192c3.43,4.188,6.377,8.716,10.283,12.499
				c3.978,3.852,9.093,6.602,14.211,8.591c10.639,4.134,22.176,4.931,33.467,5.406c12.174,0.512,24.157,1.142,36.145-1.513
				c13.806-3.057,26.998-8.519,40.953-10.927c6.451-1.113,12.975-0.708,19.434-1.618c6.731-0.949,13.202-3.206,19.315-6.118
				c12.282-5.851,22.947-14.696,31.993-24.779c9.305-10.372,14.746-23.312,23.926-33.668c4.342-4.898,9.01-9.464,12.869-14.771
				c4.287-5.895,7.158-12.838,10.152-19.444c5.834-12.876,10.568-26.296,13.83-40.054c3.195-13.478,4.488-27.382,4.205-41.217
				c-0.305-14.864-3.467-29.418-6.02-44.008c-2.508-14.344-5.488-28.626-11.391-42.009c-5.492-12.455-12.732-23.767-21.406-34.232
				c-4.814-5.809-9.963-11.338-15.108-16.854c3.456-2.807,6.896-5.636,10.288-8.537c3.497-2.99,9.453-6.854,12.971-11.479
				c28.441,44.939,51.133,93.329,54.521,147.234c2.806,44.617-7.331,89.803-28.301,129.221
				c-20.687,38.885-53.103,71.694-93.089,90.589c-31.148,14.719-65.453,20.387-99.02,16.48c-1.275-0.999-2.926-1.369-4.605-0.598
				c-13.199-1.886-26.258-5.253-38.934-10.157c-14.07-5.443-27.383-12.332-40.068-20.283c-0.822-2.272-3.195-3.559-5.5-3.547
				c-14.48-9.557-28.133-20.479-41.173-32.149c0.72-3.95-2.913-6.132-6.23-5.672c-16.516-15.299-32.065-31.69-47.046-47.945
				c-0.209-1.614-1.02-3.214-2.395-4.243C39.134,297.394,40.619,296.504,42.08,295.583z M70.186,382.567
				c-14.979-21.256-26.002-45.341-35.371-69.594c14.978,16.158,30.375,32.067,46.672,46.925c-0.059,0.562-0.115,1.122-0.174,1.683
				c-0.304,2.871-0.189,3.311-2.644,4.795c-5.669,3.429-6.606,9.328-8.288,15.187C70.281,381.911,70.222,382.244,70.186,382.567z
				 M111.7,424.896c-7.786-5.686-15.134-11.927-21.903-18.747c-5.78-5.824-11.058-12.047-15.95-18.553
				c2.79,0.757,6.304-0.354,7.331-3.935c0.84-2.924,0.914-6.354,3.643-8.167c2.054-1.365,4.956-2.965,5.887-5.436
				c0.189-0.505,0.348-1.015,0.489-1.527c11.593,10.018,23.667,19.45,36.401,28.008c-0.73,1.023-1.569,2-2.354,3.193
				c-1.852,2.816-2.194,6.006-1.949,9.303c0.13,1.756,0.42,3.417,0.959,5.099c0.369,1.147,1.09,0.329-0.447,1.38
				c-3.207,2.192-7.104,2.932-10.104,5.538C112.435,422.155,111.826,423.521,111.7,424.896z M199.875,463.439
				c-28.125-6.159-56.024-17.089-80.279-33.062c0.086-0.068,0.174-0.13,0.26-0.205c6.029-5.239,16.841-5.923,15.644-16.564
				c-0.304-2.704-2.593-6.013-0.634-8.514c0.697-0.891,1.344-1.746,1.937-2.603c1.095,0.682,2.177,1.383,3.282,2.051
				c21.358,12.919,44.4,22.121,68.258,26.857c-1.488,1.283-3.016,2.522-4.639,3.653c-2.77,1.93-3.412,6.47-0.555,8.691
				c2.321,1.806,4.533,3.744,6.467,5.925c-4.935,2.156-9.732,4.029-10.234,10.894C199.302,461.641,199.494,462.606,199.875,463.439z
				 M271.786,468.771c-20.88,1.475-41.972,0.264-62.523-3.455c0.501-0.669,0.834-1.549,0.915-2.654
				c0.27-3.659,7.762-4.545,10.678-6.49c2.654-1.771,2.929-5.026,1.483-7.635c-1.8-3.25-4.244-6.168-6.96-8.782
				c2.278-2.013,4.473-4.116,6.77-6.127c14.759,1.831,29.76,1.94,44.805,0.143c0.156,4.146,2.828,8.217,4.675,12.246
				c1.583,3.454-1.407,9.898-1.869,14.572C269.439,463.827,270.125,466.812,271.786,468.771z M342.897,443.808
				c-0.519,1.022-1.708,1.984-2.562,2.723c-4.365,3.773-9.483,6.643-12.746,11.462c-14.453,4.717-29.382,7.932-44.496,9.714
				c0.622-2.175-0.384-4.877-2.391-6.359c0.183-1.497,0.518-2.982,0.836-4.452c0.557-2.565,1.302-5.109,1.613-7.721
				c0.438-3.671-1.154-6.98-2.798-10.153c-0.913-1.763-1.973-2.932-2.154-4.055c2.162-0.039,4.233-1.231,4.876-3.844
				c18.484-3.903,36.141-10.443,52.594-19.211c1.562,1.078,3.262,1.966,4.826,3.037c2.179,1.492,3.412,2.272,2.064,4.687
				c-2.811,5.037-6.662,8.048-5.197,14.471c0.743,3.254,2.538,6.121,4.971,8.379C343.536,443.601,343.54,442.54,342.897,443.808z
				 M384.326,429.654c-6.363,4.411-12.96,8.524-19.781,12.304c-3.737,2.07-7.537,4.005-11.383,5.834
				c1.039-2.322,1.394-4.868,0.703-7.458c-1.022-3.833-4.602-5.315-5.883-8.831c-0.508-1.396,2.444-4.063,3.141-5.026
				c1.924-2.658,3.412-5.866,3.206-9.232c-0.356-5.824-4.153-8.55-8.202-11.301c7.788-4.752,15.262-10.025,22.389-15.759
				c0.791,3.238,2.803,5.901,6.285,7.922c1.263,0.733,4.061,1.297,4.383,2.855c0.754,3.648-3.008,8.994-3.803,12.601
				c-0.843,3.82,2.39,6.381,5.822,6.535c4.15,0.186,3.087,5.925,3.092,8.938C384.295,429.25,384.307,429.455,384.326,429.654z
				 M394.772,421.967c-0.857-4.993-2.96-8.965-7.151-11.109c1.997-5.682,4.328-11.158,0.25-16.99
				c-1.461-2.091-3.773-3.455-6.016-4.553c-2.559-1.255-3.1-0.978-2.678-3.653c0.246-1.563-0.104-2.881-0.807-3.91
				c6.364-5.786,12.401-11.961,18.066-18.497c7.352-8.482,14.035-17.516,20.042-26.982c0.241,2.438,0.8,4.804,2.099,7.062
				c2.158,3.754,7.225,5.939,10.745,8.097c0.017,0.011,0.024,0.016,0.041,0.025c0.069,0.401,0.563,1.625,0.521,1.481
				c0.791,2.696,1.407,5.427,2.746,7.918c1.82,3.39,7.13,4.891,7.957,8.574c0.256,1.139,0.754,1.984,1.396,2.58
				C428.911,390.942,412.976,407.773,394.772,421.967z M466.236,326.286c-4.768,12.286-10.598,24.024-17.369,35.128
				c-1.742-2.257-4.189-3.96-6.494-5.765c-1.743-1.365-2.324-7.659-3.74-10.334c-1.637-3.094-6.574-5.098-9.393-6.808
				c-2.98-1.809-1.974-6.128-1.977-9.319c-0.002-2.781-1.693-4.331-3.745-4.768c3.767-6.774,7.196-13.738,10.31-20.842
				c2.299,2.313,5.489,3.42,9.714,2.16c4.007-1.193,7.09-3.796,10.283-6.229c0.427,4.32,0.54,8.701,1.763,12.92
				c1.039,3.586,5.372,4.447,8.268,2.741c0.188-0.111,0.371-0.231,0.557-0.351c0.516,2.487,2.447,3.81,4.547,4.063
				C468.086,321.365,467.188,323.835,466.236,326.286z M473.838,303.473c-1.113-2.52-4.188-4.184-6.877-3.053
				c-0.785,0.33-1.525,0.71-2.246,1.116c-0.412-4.263-0.538-8.582-1.744-12.743c-0.773-2.668-4.398-4.603-7.01-3.373
				c-4.02,1.892-7.371,4.715-10.98,7.258c-1.172,0.826-2.691,2.059-4.138,2.457c-0.378-0.92-0.459-2.074-0.579-2.947
				c-0.128-0.932-0.438-1.721-0.871-2.38c5.543-14.98,9.686-30.478,12.389-46.162c0.273-1.583,0.513-3.169,0.754-4.755
				c1.223,1.055,2.619,1.816,4.195,2.119c3.527,0.68,6.431-1.926,8.527-4.396c1.059-1.248,2.32-3.662,3.729-5.506
				c1.457,1.424,3.076,2.662,5,3.625c1.59,0.796,4.975,1.359,7.252,2.372c0.292,1.345,1.121,2.63,2.275,3.532
				C482.819,261.891,479.59,283.063,473.838,303.473z M474.339,220.537c-1.46-1.968-3.989-3.005-6.378-2.116
				c-4.384,1.631-7.01,5.68-9.685,9.277c-0.021,0.027-0.043,0.053-0.063,0.08c-0.488-1.164-0.859-2.466-0.949-3.59
				c-0.164-2.057-1.214-3.439-2.602-4.198c0.98-13.294,0.885-26.634-0.238-39.898c1.685-0.112,3.352-0.604,4.936-1.586
				c1.958-1.214,3.516-2.876,5.135-4.465c1.311,0.895,2.762,1.607,4.379,2.146c1.682,0.56,3.379,0.912,5.121,1.227
				c0.632,0.108,1.262,0.23,1.889,0.367c0.199,0.041,0.358,0.078,0.487,0.112c0.601,0.838,1.309,1.416,2.069,1.767
				c3.118,15.396,4.838,31.104,5.158,46.851C480.113,225.103,477.031,224.165,474.339,220.537z"/>
		</g>
	</g>
	<g>
		<g>
			<path d="M266.339,310.537c-3.687-5.055-11.238-0.859-10.063,4.146c-1.18,0.97-1.989,2.43-1.98,4.354
				c0.029,6.434-0.273,20.788,8.227,22.229c6.125,1.038,10.108-6.209,10.569-11.303C273.719,323.016,270.34,316.019,266.339,310.537
				z"/>
		</g>
	</g>
	<g>
		<g>
			<path d="M302.227,287.685c-2.824-0.998-5.924-0.446-7.375,2.479c-0.546,1.101-0.666,2.506-0.377,3.811
				c-0.334,1.005-0.346,2.173,0.113,3.455c2.891,8.067,8.957,14.557,16.744,18.108c2.141,0.977,5.054,0.685,6.58-1.296
				C326.668,302.879,312.262,291.229,302.227,287.685z"/>
		</g>
	</g>
	<g>
		<g>
			<path d="M356.297,251.489c-2.537-1.53-5.778-2.132-8.644-2.734c-1.231-0.259-2.464-0.502-3.689-0.786
				c0.079,0.018-0.992-0.312-1.238-0.364c-0.429-0.25-1.088-0.792-0.315-0.124c-5.123-4.423-11.936,2.872-7.934,7.579
				c-0.372,1.096-0.396,2.284,0.111,3.371c3.724,7.975,18.615,15.812,26.056,8.66C365.744,262.188,360.977,254.31,356.297,251.489z"
				/>
		</g>
	</g>
	<g>
		<g>
			<path d="M378.227,196.685c-7.721-3.313-14.08-0.265-21.266,2.735c-4.16,1.736-4.196,6.606-1.971,9.186
				c0.822,1.917,2.59,3.459,5.213,3.491c8.926,0.11,20.396,1.051,21.061-10.909C381.363,199.422,379.787,197.354,378.227,196.685z"
				/>
		</g>
	</g>
	<g>
		<g>
			<path d="M214.339,322.537c-1.355-2.567-3.677-3.042-5.724-2.282c-1.666-0.357-3.492,0.069-4.969,1.727
				c-5.032,5.65-7.518,16.689-6.352,24.055c0.549,3.473,3.74,6.007,7.303,4.768C215.141,347.136,219.276,331.887,214.339,322.537z"
				/>
		</g>
	</g>
	<g>
		<g>
			<path d="M369.355,139.126c-7.276,0.251-15.418,3.926-20.709,8.854c-3.803,3.543-0.368,8.341,3.761,8.795
				c1.187,1.938,3.421,3.126,6.19,2.027c6.328-2.51,13.082-5.141,16.109-11.744C376.495,143.158,373.594,138.981,369.355,139.126z"
				/>
		</g>
	</g>
	<g>
		<g>
			<path d="M146.828,301.213c-1.46-0.398-2.922-0.506-4.338-0.367c-0.526-0.303-1.091-0.521-1.662-0.633
				c-2.569-0.5-4.675,0.839-5.977,2.951c-3.318,5.388-7.221,10.006-8.471,16.397c-0.791,4.039,3.286,7.696,7.217,6.241
				c7.799-2.885,12.947-9.889,17.109-16.744C152.689,305.792,150.003,302.08,146.828,301.213z"/>
		</g>
	</g>
	<g>
		<g>
			<path d="M192.828,282.213c-0.804-0.086-1.572-0.094-2.314-0.045c-1.368-0.183-2.715,0.168-3.804,0.905
				c-6.985,2.985-10.255,12.539-10.415,19.962c-0.053,2.412,2.213,4.543,4.436,4.975c2.145,0.418,3.959-0.456,5.26-1.981
				c9.121-1.034,11.211-11.083,11.273-18.841C197.283,284.917,195.085,282.456,192.828,282.213z"/>
		</g>
	</g>
	<g>
		<g>
			<path d="M236.971,273.793c-1.148-2.506-4.111-4.726-7.01-3.373c-2.91,1.358-4.721,3.209-5.85,5.383
				c-1.791,1.019-2.82,3.036-2.816,5.232c0.004,2.667,0.275,5.048,0.994,7.262c0.002,0.246,0.004,0.491,0.006,0.738
				c0.02,2.246,1.178,3.694,2.74,4.393c0.344,0.441,0.711,0.88,1.113,1.315c1.533,1.659,4.974,1.882,6.707,0.428
				C238.852,290.139,240.199,280.832,236.971,273.793z"/>
		</g>
	</g>
	<g>
		<g>
			<path d="M266.293,250.104c-6.439-0.336-9.482,6.219-8.979,11.719c0.035,0.386,0.087,0.773,0.146,1.161
				c-0.328,1.003-0.336,2.168,0.127,3.446c1.8,4.971,5.116,8.598,9.744,11.108c3.396,1.843,6.865-0.608,7.846-3.877
				C277.486,265.97,276.83,250.653,266.293,250.104z"/>
		</g>
	</g>
	<g>
		<g>
			<path d="M302.905,223.923c-5.292,0.074-8.597,3.474-8.941,8.004c-1.335,1.295-2.06,3.22-1.376,5.503
				c1.865,6.235,7.032,10.752,13.143,12.58c2.956,0.885,5.813-1.656,6.447-4.349C313.942,238.17,313.707,223.771,302.905,223.923z"
				/>
		</g>
	</g>
	<g>
		<g>
			<path d="M336.227,180.685c-1.529-0.567-2.999-0.922-4.434-1.127c-1.129-2.571-3.957-4.477-6.832-3.138
				c-2.304,1.072-4.697,1.928-7,3c-1.479,0.688-2.417,1.782-2.912,3.016c-1.011,0.331-2.037,0.664-3.088,0.984
				c-5.15,1.568-4.351,8.353-0.289,10.201c0.689,1.625,2.216,2.814,4.059,3.389c9.24,2.879,21.5,0.713,23.447-10.349
				C339.568,184.442,338.516,181.534,336.227,180.685z"/>
		</g>
	</g>
	<g>
		<g>
			<path d="M331.355,130.126c-3.704,0.116-7.001,1.358-9.976,3.229c-1.001,0.284-1.948,0.84-2.733,1.625l-3,3
				c-2.122,2.123-1.639,5.879,0.502,7.763c0.156,0.138,0.316,0.262,0.479,0.377c0.791,0.88,1.873,1.538,3.104,1.89
				c7.66,2.191,15.934-3.972,17.447-11.349C337.923,133.034,334.877,130.016,331.355,130.126z"/>
		</g>
	</g>
	<g>
		<g>
			<path d="M155.828,253.213c-2.632-0.405-5.03-0.019-7.189,0.902c-0.971-0.001-1.975,0.283-2.936,0.937
				c-3.619,2.462-5.931,5.387-6.895,9.206c-0.597,1.206-0.715,2.375-0.484,3.424c-0.006,0.121-0.025,0.231-0.029,0.354
				c-0.086,3,3.158,5.271,5.908,5.062c2.201-0.169,3.699-1.479,4.466-3.241c5.506-0.949,9.866-4.609,11.509-10.194
				C161.002,256.86,158.588,253.638,155.828,253.213z"/>
		</g>
	</g>
</g>
</svg>
