<?xml version="1.0" encoding="utf-8"?>
<!-- Generator: Adobe Illustrator 16.0.3, SVG Export Plug-In . SVG Version: 6.00 Build 0)  -->
<!DOCTYPE svg PUBLIC "-//W3C//DTD SVG 1.1//EN" "http://www.w3.org/Graphics/SVG/1.1/DTD/svg11.dtd">
<svg version="1.1" id="Layer_1" xmlns="http://www.w3.org/2000/svg" xmlns:xlink="http://www.w3.org/1999/xlink" x="0px" y="0px"
	 width="512px" height="512px" viewBox="0 0 512 512" style="enable-background:new 0 0 512 512;" xml:space="preserve">
<style type="text/css">
<![CDATA[
	.st0{fill:#127274;}
	.st1{fill:#14B6B9;}
	.st2{fill:#1E4384;}
	.st3{fill:#EF4754;}
	.st4{fill:#EF4823;}
	.st5{fill:#BCBCBC;}
	.st6{fill:#F6851F;}
	.st7{fill:#C56528;}
	.st8{fill:#FCBF95;}
	.st9{fill:#FEBF10;}
	.st10{fill:none;}
	.st11{fill:#010101;}
	.st12{fill:#3AB37C;}
	.st13{fill:#D6E5E5;}
	.st14{fill:#71C598;}
	.st15{fill:#74CCCF;}
]]>
</style>
<g>
	<g>
		<g>
			<path class="st4" d="M456.534,129.627c-4.035-3.338-9.924-4.693-13.722-0.143c-3.566,4.273-2.153,8.627,1.983,11.84
				c0.898,0.697,1.462,1.494,1.758,2.324c4.299,1.426,9.283,1.484,12.909-1.066C464.958,138.719,460.547,132.947,456.534,129.627z"
				/>
		</g>
	</g>
	<g>
		<g>
			<path class="st6" d="M389.081,94.535c-5.197,0.068-12.204,1.699-14.747,6.783c-0.519,1.037-0.945,2.109-1.324,3.199
				c1.058,1.096,1.718,2.617,1.558,4.49c-0.592,6.895,3.811,11.895,10.333,12.871c5.288,0.793,12.357-0.828,14.955-6.121
				C403.613,108.102,398.86,94.404,389.081,94.535z"/>
		</g>
	</g>
	<g>
		<g>
			<path class="st4" d="M380.695,359.438c-20.106-5.17-40.516,4.869-56.467,16.445c-5.102,3.703-10.078,7.721-14.834,12.018
				c10.475-4.641,23.009-7.002,29.862,3.979c7.795,12.49-2.427,21.707-13.116,26.859c1.048-0.094,2.097-0.174,3.145-0.279
				c12.546-1.26,25.198-1.078,37.729-2.498c10.65-1.207,23.985-3.18,31.303-11.967C411.673,387.955,399.123,364.174,380.695,359.438
				z"/>
		</g>
	</g>
	<g>
		<g>
			<path class="st4" d="M144.403,101.553c-0.614-7.018-6.586-11.658-13.27-7.877c-4.526,2.562-6.767,6.09-6.535,9.967
				c1.741,1.309,2.876,3.512,2.241,6.023c0.275,0.404,0.575,0.811,0.901,1.217c0.423,0.525,0.722,1.057,0.915,1.582
				c1.316,0.09,3.152,0.041,4.555-0.326C138.069,110.871,144.927,107.531,144.403,101.553z"/>
		</g>
	</g>
	<g>
		<g>
			<path class="st9" d="M229.306,69.23c-0.534-5.6-2.387-12.213-8.189-14.418c-4.118-1.564-9.396-0.287-13.105,1.807
				c-6.713,3.789-11.733,9.744-13.375,16.594c2.011,0.943,3.471,2.971,2.939,5.797c-0.529,2.814,0.504,4.867,3.434,6.436
				c3.527,1.887,7.57,2.672,11.777,2.314C223.036,86.891,230.325,79.932,229.306,69.23z"/>
		</g>
	</g>
	<g>
		<g>
			<path class="st6" d="M181.886,117.148c-4.373,1.271-9.45,3.105-12.485,6.711c-0.696,0.826-1.058,1.547-1.167,2.207
				c3.209-2,8.329-0.863,8.43,3.967c0.037,1.771,0.22,3.744,1.063,4.891c0.427,0.582,1.438,1.287,1.616,1.336
				c2.865,0.803,5.819,0.568,8.996-0.533c3.223-1.117,6.581-2.73,9.059-5.133c2.144-2.078,4.086-4.85,4.017-6.416
				C201.057,116.084,188.504,115.225,181.886,117.148z"/>
		</g>
	</g>
	<g>
		<g>
			<path class="st4" d="M263.346,432.334c-0.375,0.111-0.752,0.217-1.128,0.328c0.627,16.791-16.064,27.223-27.474,36.898
				c-10.185,8.639-22.131,18.463-24.633,31.955c12.402-2.959,24.861-6.432,37.204-3.523c1.691-8.453,6.601-15.496,13.137-21.797
				c6.545-6.311,15.172-12.807,14.736-22.832c-0.075-1.717,0.517-3.064,1.456-4.025C270.948,444.801,266.556,439.08,263.346,432.334
				z"/>
		</g>
	</g>
	<g>
		<g>
			<path class="st4" d="M331.138,400.338c-0.079-0.568-0.118-0.893-0.594-1.656c-5.911-9.471-21.716,1.328-28.509,5.877
				c-6.772,4.533-13.597,9.59-19.725,15.248c-0.168,0.227-0.345,0.438-0.531,0.629c1.223-0.006,2.445-0.01,3.668-0.018
				c8.283-4.039,18.4-5.164,27.028-8.102c5.383-1.832,11.074-3.805,15.621-7.332c1.443-1.121,2.552-2.342,3.032-3.635
				C331.009,401.67,331.169,400.564,331.138,400.338z"/>
		</g>
	</g>
	<g>
		<g>
			<path class="st9" d="M85.278,307.096c-4.037-9.783-15.854-14.266-24.917-8.764c-6.324,3.84-13.933,12.262-9.356,19.027
				c2.085-0.002,4.223,0.969,5.371,3.268C63.203,334.297,90.905,320.736,85.278,307.096z"/>
		</g>
	</g>
	<g>
		<g>
			<path class="st4" d="M252.621,415.018c-10.821-0.041-21.248-4.33-32.021-3.648c-5.018,0.318-11.063,1.689-15.232,4.705
				c-0.034,0.023-0.059,0.043-0.09,0.066c0.263,0.219,0.511,0.426,0.609,0.482c5.884,3.373,13.558,5.475,20.366,5.334
				c9.95-0.205,19.547-3.18,29.409-4.178C254.687,416.82,253.671,415.902,252.621,415.018z"/>
		</g>
	</g>
	<g>
		<g>
			<path class="st4" d="M211.691,401.654c7.54-1.73,14.776-0.811,22.003,0.361c-17.54-10.463-37.53-18.162-58.078-15.857
				c-7.687,0.861-17.187,2.713-22.916,8.416c-0.234,0.232-0.441,0.477-0.658,0.715c1.239,3.039,0.031,7.115-3.98,7.594
				c-1.085,4.627-0.376,9.689,1.403,14.494c6.283,16.973,27.565,18.553,43.054,17.619c8.369-0.506,16.782-1.512,25.164-2.914
				c-7.955-1.348-18.333-4.002-22.743-11.078C188.393,410.502,203.924,403.438,211.691,401.654z"/>
		</g>
	</g>
	<g>
		<g>
			<path class="st4" d="M111.542,211.648c-1.012-6.107-9.158-4.285-13.02-2.656c-3.241,1.365-6.746,3.174-9.295,5.65
				c-0.195,0.189-0.394,0.383-0.59,0.578c0.587,0.586,0.938,1.287,1.085,2.037c2.029,1.225,2.984,3.668,2.746,5.855
				c3.024,2.223,6.801,2.666,10.809,0.342C107.257,221.148,112.358,216.578,111.542,211.648z"/>
		</g>
	</g>
	<g>
		<g>
			<path class="st4" d="M351.519,444.541c-14.809-2.41-29.237-1.285-41.479-11.467c-0.775-0.646-1.287-1.367-1.59-2.115
				c-0.547,0.021-1.093,0.053-1.641,0.07c-8.354,0.271-16.712,0.371-25.07,0.389c-2.116,0.006-4.264,0.191-6.34,0.18
				c5.001,8.023,12.634,13.424,22.158,16.158c10.447,2.998,21.525,3.342,31.907,6.389c10.249,3.008,30.135,12.283,35.575,24.648
				c5.541-1.227,9.958-5.635,14.056-9.287c2.367-2.111,4.715-4.113,7.221-5.9C377.026,453.641,365.241,446.773,351.519,444.541z"/>
		</g>
	</g>
	<g>
		<g>
			<path class="st4" d="M295.023,87.398c-0.544-5.166-5.96-8.527-10.919-8.387c-4.721,0.135-6.971,2.053-7.178,5.791
				c1.846,1.797,2.584,4.656,0.981,6.783c0.243,0.268,0.518,0.525,0.897,0.852c1.954,1.678,4.327,3.234,6.85,3.875
				C291.775,97.867,295.719,94.006,295.023,87.398z"/>
		</g>
	</g>
	<g>
		<g>
			<path class="st6" d="M232.08,350.59c-3.789-10.727-13.432-16.871-23.812-10.154c-3.965,2.564-7.533,6.057-9.221,10.564
				c-0.23,0.613-0.403,1.227-0.507,1.83c1.078,0.803,1.888,2.021,2.123,3.691c0.09,0.639,0.231,1.244,0.41,1.822
				c1.337,1.049,2.011,2.453,2.169,3.891C211.828,372.041,237.603,366.221,232.08,350.59z"/>
		</g>
	</g>
	<g>
		<g>
			<path class="st9" d="M445.209,187.35c-5.029-10.375-19.551-11.719-29.308-8.488c-7.196,2.383-12.15,6.643-12.208,12.275
				c2.699-0.156,5.39,1.402,5.458,4.893C409.633,220.867,456.696,211.045,445.209,187.35z"/>
		</g>
	</g>
	<g>
		<g>
			<path class="st4" d="M142.942,314.492c-5.985,1.764-10.351,6.273-11.157,12.246c0.657,0.725,1.153,1.648,1.38,2.785
				c1.946,9.721,21.781,3.266,21.553-5.494C154.556,317.754,149.494,312.564,142.942,314.492z"/>
		</g>
	</g>
	<g>
		<g>
			<path class="st4" d="M446.606,261.24c-3.331-0.678-7.094-0.775-9.86,1.527c-3.193,2.658-2.658,7.66-2.096,11.258
				c0.156,0.996,0.062,1.861-0.206,2.604c3.285-0.27,6.911,2.158,6.119,6.369c-0.515,2.74-0.032,4.137,2.067,5.643
				c1.375,0.986,4.537,1.881,6.762,1.838c6.146-0.121,12.161-2.811,12.685-9.443C462.787,272.037,455.25,263,446.606,261.24z"/>
		</g>
	</g>
	<g>
		<g>
			<path class="st12" d="M497.879,237.424c-0.616-7.666-2.252-15.678-4.712-22.975c-2.113-6.266-4.714-12.379-4.99-19.072
				c-0.287-6.988,5.009-11.564,6.086-17.973c0.791-4.701,0.457-9.484-0.47-14.15c-2.316-11.662-7.548-22.869-12.973-33.371
				c-5.094-9.859-10.719-19.439-15.716-29.35c-4.391-8.707-6.96-17.754-17.082-21.35c-13.261-4.711-37.196-0.504-43.919-15.574
				c-0.171-0.178-0.337-0.365-0.496-0.574c-3.909-5.178-8.376-11.328-14.498-14.033c-6.418-2.838-12.624-3.51-19.571-3.941
				c-7.063-0.439-14.164-1.311-20.501-4.725c-4.634-2.496-8.345-5.939-12.029-9.643c-4.004-4.027-8.262-8.455-14.209-9.066
				c-6.533-0.674-13.184-0.297-19.684-1.297c-6.642-1.025-13.105-4.113-19.918-3.852c-4.626,0.178-8.881,1.316-13.059,3.314
				c-9.441,4.514-17.927,10.771-28.194,13.479c-6.38,1.682-12.323,1.805-18.782,0.371c-6.035-1.338-12.372-3.354-18.622-2.551
				c-5.453,0.701-8.938,3.992-12.825,7.586c-4.19,3.873-8.433,7.717-13.503,10.404c-9.972,5.287-21.194,4.395-32.107,4.363
				c-0.852-0.002-1.612-0.166-2.281-0.449c-0.626,0.281-1.363,0.447-2.219,0.449c-5.312,0.016-12.057-0.609-16.42,3.074
				c-5.217,4.404-7.544,11.455-12.175,16.416c-9.775,10.471-24.57,16.184-32.845,27.992c-4.619,6.592-5.347,15.203-6.123,22.992
				c-0.755,7.586-1.262,15.135-3.604,22.439c-1.352,4.215-3.141,8.303-5.451,12.082c-2.478,4.053-5.843,7.686-7.763,12.045
				c-3.722,8.447-3.26,17.367,0.653,25.646c0.642,1.357,0.677,2.584,0.314,3.619c2.839,4.814,3.053,9.902-0.93,15.32
				c-2.192,2.98-4.163,5.369-4.729,9.16c-0.691,4.637-0.578,9.598,0.645,14.152c1.256,4.678,2.523,8.086,6.461,11.061
				c2.892,2.184,6.426,4.482,8.188,7.773c4.704,8.781,1.168,16.594,0.843,25.807c-0.022,0.631-0.134,1.209-0.313,1.738
				c3.188-0.178,6.407,0.246,9.549,1.484c7.204,2.84,14.447,9.193,17.438,16.443c3.471,8.412,0.874,16.615-4.496,22.881
				c6.204,3.756,11.201,10.137,14.394,16.299c1.324,2.555,1.218,5.562-1.184,7.41c0.067,1.018,0.106,2.078,0.14,3.209
				c0.129,4.238,1.98,6.25,5.657,8.068c2.62,1.295,5.241,2.588,7.304,4.264c0.343,0.041,0.699,0.109,1.071,0.223
				c8.33,2.551,12.728,8.363,16.064,16.105c1.945,4.516,3.555,8.291,7.148,9.936c2.128-3.213,4.984-6.027,8.621-8.217
				c16.039-9.65,37.694-10.148,55.335-5.104c13.292,3.801,25.901,9.73,37.571,17.121c4.566,2.891,9.06,5.92,13.387,9.166
				c1.649,0.328,2.824,1.373,3.491,2.699c3.007,2.545,6.294,7.607,10.033,9.787c1.412-1.488,2.875-2.949,4.383-4.381
				c15.104-23.236,37.062-43.984,61.839-56.307c17.732-8.82,39.751-13.158,57.865-2.756c5.414,3.109,10.126,7.66,13.711,13.002
				c5.194-3.361,13.275-2.732,19.477-2.318c3.899,0.26,9.517,1.346,12.226-2.219c3.455-4.545,1.455-12.193,3.356-17.535
				c2.3-6.463,5.362-12.883,10.398-17.697c5.062-4.838,10.386-9.443,15.152-14.588c4.236-4.574,7.971-9.678,9.626-15.793
				c1.935-7.148,3.175-14.143,6.433-20.891C489.991,263.365,498.972,251.021,497.879,237.424z M434.548,122.223
				c7.931-8.42,20.702-8.793,29.249-0.859c8.449,7.842,14.02,20.564,3.286,29.232c-9.585,7.742-23.069,5.508-32.548-1.008
				c-2.157-1.482-2.514-3.543-1.817-5.348C428.511,137.473,428.549,128.594,434.548,122.223z M359.27,114.408
				c1.821-7.492,2.687-16.742,8.362-22.549c5.857-5.99,16.104-9.602,24.466-7.998c15.299,2.938,24.929,21.885,17.935,36.133
				c-4.95,10.084-17.165,14.898-27.938,12.553c-7.567-1.648-13.029-6.031-15.963-11.996C362.563,121.447,358.154,119,359.27,114.408
				z M286.223,68.178c11.432,1.07,21.202,10.504,19.644,22.467c-1.824,14.006-13.846,20.783-26.704,14.928
				c-5.321-2.424-15.3-10.754-13.067-17.32C264.279,75.787,273.924,67.025,286.223,68.178z M183.139,73.895
				c2.125-15.193,16.062-29.48,31.687-30.617c18.091-1.316,28.114,16.891,25.135,33.262c-2.617,14.381-15.851,22.734-29.949,22.236
				c-5.888-0.207-12.201-2.094-16.811-5.604c-2.654,1.146-6.251,0.531-7.715-2.895C183.289,85.135,182.361,79.459,183.139,73.895z
				 M158.581,120.279c3.717-6.502,10.7-10.689,17.698-12.914c12.909-4.104,33.034-2.422,35.914,14.199
				c3.64,21.004-33.979,35.246-44.057,18.65c-1.179,0.051-2.417-0.273-3.588-1.127C158.71,134.832,154.58,127.277,158.581,120.279z
				 M127.798,83.174c12.989-5.236,28.043,3.439,27.599,18.334c-0.367,12.289-11.086,20.598-22.782,21.83
				c-8.977,0.943-16.527-3.461-17.016-11.164C110.47,101.072,115.58,88.098,127.798,83.174z M109.427,232.574
				c-11.061,5.879-23.179,3.607-29.804-7.547c-0.51-0.859-0.766-1.854-0.794-2.855c-2.907-2.658-3.308-7.162-1.103-10.807
				c2.947-4.867,8.123-8.301,13.082-10.85c10.275-5.279,25.396-6.906,30.665,6.223C125.451,216.654,118.147,227.939,109.427,232.574
				z M165.658,324.059c-0.747,20.76-33.68,29.135-42.039,10.746c-1.59-0.689-2.813-2.146-2.924-4.436
				c-0.633-13.053,8.622-25.156,21.848-26.949C154.92,301.74,166.115,311.352,165.658,324.059z M385.964,283.508
				c-5.945,5.336-13.565,7.502-20.299,11.58c-9.324,5.648-13.547,14.062-19.348,22.896c-6.601,10.053-14.514,17.711-26.51,20.672
				c-14.098,3.48-27.723-1.289-41.776-1.795c-10.872-0.393-21.762,0.561-32.622-0.086c-3.191-0.189-6.305-0.623-9.336-1.309
				c2.899,3.34,5.101,7.328,6.39,11.484c9.553,30.783-38.303,41.385-50.353,18.148c-10.657-11.129-0.576-27.812,10.735-34.227
				c4.284-2.43,9.042-4.111,13.884-4.328c-8.32-6.084-15.385-13.65-23.967-19.52c-8.42-5.76-17.172-11.283-24.05-18.922
				c-7.463-8.287-10.52-17.832-10.906-28.873c-0.24-6.863,0.35-13.889-0.755-20.695c-1.09-6.719-4.105-12.354-7.199-18.305
				c-5.703-10.971-7.104-21.668,1.282-31.801c6.688-8.082,15.374-14.736,23.963-20.666c7.028-4.852,14.358-9.482,22.094-13.184
				c0.25-1.203,0.997-2.34,2.409-3.184c11.585-6.928,21.894-19.992,36.45-20.17c9.552-0.115,17.088,3.539,25.477,7.584
				c8.12,3.916,14.836,3.877,23.612,2.123c9.827-1.963,19.177-5.176,29.191-2.279c8.14,2.355,14.268,9.105,19.14,15.73
				c4.926,6.697,9.282,13.562,15.992,18.68c7.15,5.453,15.7,8.807,22.676,14.516c10.08,8.248,13.971,20.91,14.706,33.547
				c0.384,6.611,0.194,13.232,0.497,19.846c0.288,6.299,1.418,12.021,2.834,18.131C392.069,267.279,392.898,277.283,385.964,283.508
				z M400.78,207.721c-1.168-0.26-2.287-0.949-3.173-2.193c-4.536-6.369-6.818-14.115-3.897-21.656
				c5.202-13.426,22.504-18.332,35.543-17.33c16.006,1.227,29.483,13.129,28.492,29.941
				C456.089,224.555,412.04,229.662,400.78,207.721z M472.875,283.135c-3.135,24.697-48.049,24.027-43.109-2.236
				c0.083-0.445,0.207-0.852,0.363-1.225c-2.782,0.27-5.896-1.264-6.448-4.803c-1.187-7.592,0.166-15.605,6.326-20.732
				c5.038-4.193,12.436-5.221,18.698-3.697C463.079,253.939,474.82,267.816,472.875,283.135z"/>
		</g>
	</g>
	<g>
		<g>
			<path d="M121.472,206.738c-5.268-13.129-20.389-11.502-30.665-6.223c-4.958,2.549-10.134,5.982-13.082,10.85
				c-2.206,3.645-1.804,8.148,1.103,10.807c0.029,1.002,0.285,1.996,0.794,2.855c6.625,11.154,18.743,13.426,29.804,7.547
				C118.147,227.939,125.451,216.654,121.472,206.738z M103.276,223.455c-4.008,2.324-7.784,1.881-10.809-0.342
				c0.238-2.188-0.717-4.631-2.746-5.855c-0.147-0.75-0.498-1.451-1.085-2.037c0.197-0.195,0.396-0.389,0.59-0.578
				c2.549-2.477,6.055-4.285,9.295-5.65c3.862-1.629,12.008-3.451,13.02,2.656C112.358,216.578,107.257,221.148,103.276,223.455z"/>
		</g>
	</g>
	<g>
		<g>
			<path d="M127.798,83.174c-12.218,4.924-17.328,17.898-12.198,29c0.489,7.703,8.039,12.107,17.016,11.164
				c11.696-1.232,22.415-9.541,22.782-21.83C155.841,86.613,140.787,77.938,127.798,83.174z M133.209,112.139
				c-1.403,0.367-3.239,0.416-4.555,0.326c-0.193-0.525-0.492-1.057-0.915-1.582c-0.326-0.406-0.626-0.812-0.901-1.217
				c0.635-2.512-0.5-4.715-2.241-6.023c-0.232-3.877,2.009-7.404,6.535-9.967c6.684-3.781,12.656,0.859,13.27,7.877
				C144.927,107.531,138.069,110.871,133.209,112.139z"/>
		</g>
	</g>
	<g>
		<g>
			<path d="M286.223,68.178c-12.298-1.152-21.943,7.609-20.127,20.074c-2.232,6.566,7.746,14.896,13.067,17.32
				c12.857,5.855,24.88-0.922,26.704-14.928C307.424,78.682,297.654,69.248,286.223,68.178z M285.655,96.312
				c-2.523-0.641-4.896-2.197-6.85-3.875c-0.379-0.326-0.654-0.584-0.897-0.852c1.603-2.127,0.865-4.986-0.981-6.783
				c0.207-3.738,2.457-5.656,7.178-5.791c4.958-0.141,10.375,3.221,10.919,8.387C295.719,94.006,291.775,97.867,285.655,96.312z"/>
		</g>
	</g>
	<g>
		<g>
			<path d="M463.796,121.363c-8.547-7.934-21.317-7.561-29.249,0.859c-5.999,6.371-6.037,15.25-1.831,22.018
				c-0.696,1.805-0.34,3.865,1.817,5.348c9.479,6.516,22.962,8.75,32.548,1.008C477.816,141.928,472.246,129.205,463.796,121.363z
				 M459.463,142.582c-3.626,2.551-8.61,2.492-12.909,1.066c-0.296-0.83-0.86-1.627-1.758-2.324
				c-4.137-3.213-5.549-7.566-1.983-11.84c3.798-4.551,9.687-3.195,13.722,0.143C460.547,132.947,464.958,138.719,459.463,142.582z"
				/>
		</g>
	</g>
	<g>
		<g>
			<path d="M448.705,250.441c-6.263-1.523-13.66-0.496-18.698,3.697c-6.16,5.127-7.513,13.141-6.326,20.732
				c0.553,3.539,3.667,5.072,6.448,4.803c-0.156,0.373-0.279,0.779-0.363,1.225c-4.94,26.264,39.974,26.934,43.109,2.236
				C474.82,267.816,463.079,253.939,448.705,250.441z M462.077,281.035c-0.523,6.633-6.539,9.322-12.685,9.443
				c-2.225,0.043-5.386-0.852-6.762-1.838c-2.099-1.506-2.582-2.902-2.067-5.643c0.792-4.211-2.834-6.639-6.119-6.369
				c0.267-0.742,0.361-1.607,0.206-2.604c-0.562-3.598-1.098-8.6,2.096-11.258c2.766-2.303,6.529-2.205,9.86-1.527
				C455.25,263,462.787,272.037,462.077,281.035z"/>
		</g>
	</g>
	<g>
		<g>
			<path d="M142.543,303.42c-13.226,1.793-22.481,13.896-21.848,26.949c0.111,2.289,1.334,3.746,2.924,4.436
				c8.358,18.389,41.292,10.014,42.039-10.746C166.115,311.352,154.92,301.74,142.543,303.42z M133.166,329.523
				c-0.228-1.137-0.724-2.061-1.38-2.785c0.806-5.973,5.172-10.482,11.157-12.246c6.552-1.928,11.613,3.262,11.777,9.537
				C154.947,332.789,135.112,339.244,133.166,329.523z"/>
		</g>
	</g>
	<g>
		<g>
			<path d="M392.098,83.861c-8.361-1.604-18.609,2.008-24.466,7.998c-5.675,5.807-6.541,15.057-8.362,22.549
				c-1.116,4.592,3.293,7.039,6.861,6.143c2.934,5.965,8.396,10.348,15.963,11.996c10.773,2.346,22.988-2.469,27.938-12.553
				C417.026,105.746,407.396,86.799,392.098,83.861z M399.855,115.758c-2.598,5.293-9.667,6.914-14.955,6.121
				c-6.523-0.977-10.925-5.977-10.333-12.871c0.161-1.873-0.5-3.395-1.558-4.49c0.379-1.09,0.805-2.162,1.324-3.199
				c2.543-5.084,9.55-6.715,14.747-6.783C398.86,94.404,403.613,108.102,399.855,115.758z"/>
		</g>
	</g>
	<g>
		<g>
			<path d="M507.645,227.787c-1.268-6.807-2.897-13.662-5.204-20.189c-1.146-3.24-2.422-6.459-3.04-9.854
				c-0.688-3.783,0.621-6.613,2.293-9.908c5.299-10.432,4.427-20.947,1.593-32.01c-3.594-14.031-10.629-27.178-17.445-39.859
				c-3.151-5.863-6.418-11.662-9.537-17.543c-2.926-5.518-4.767-11.449-8.216-16.73c-6.777-10.379-17.277-13.719-28.935-15.365
				c-5.141-0.727-10.299-1.115-15.389-2.195c-3.268-0.691-9.419-2.078-10.114-6.096c-0.381-2.201-1.753-3.621-3.407-4.314
				c-7.582-9.326-16.184-16.414-28.671-18.586c-6.557-1.141-13.278-0.791-19.847-1.936c-6.365-1.105-11.157-4.545-15.646-8.953
				c-3.76-3.691-7.318-7.234-11.775-10.102c-5.758-3.703-12.715-3.717-19.317-3.967c-6.964-0.262-13.27-1.17-19.977-3.086
				c-5.617-1.605-11.698-2.014-17.468-1.129c-9.854,1.514-18.146,7.342-26.751,11.943c-4.775,2.553-10.149,4.762-15.502,5.693
				c-6.245,1.086-12.882-1.529-18.941-2.721c-5.98-1.176-12.041-1.23-17.953,0.266c-5.123,1.297-9.243,5-13.021,8.473
				c-4.074,3.746-8.121,7.826-13.174,10.246c-4.75,2.275-9.968,2.582-15.146,2.674c-3.931,0.07-7.867-0.053-11.798-0.064
				c-0.855-0.002-1.592,0.158-2.218,0.438c-0.669-0.279-1.429-0.439-2.281-0.438c-6.867,0.021-13.547,0.246-19.714,3.551
				c-6.626,3.551-9.697,11.086-13.937,16.822c-9.639,13.039-26.486,18.373-35.875,31.771c-10.291,14.686-5.9,33.354-11.565,49.508
				c-3.445,9.826-11.456,16.986-14.381,27c-2.534,8.672-2.125,17.885,1.176,26.238c-0.81,1.938-0.696,4.301,1.092,6.219
				c2.571,2.758,2.282,3.166,0.171,5.918c-1.988,2.594-3.979,5.236-4.939,8.4c-2.556,8.42-1.835,17.252,0.418,25.648
				c1.012,3.77,2.513,7.746,5.226,10.607c2.404,2.533,5.265,4.451,7.962,6.646c6.426,5.229,1.553,16.094,1.307,23.066
				c-0.048,1.355,0.318,2.414,0.938,3.197c-1.516,0.621-2.997,1.342-4.428,2.145c-13.673,7.674-22.557,27.391-8.156,38.865
				c1.067,0.852,2.199,1.229,3.291,1.256c7.348,8.541,19.416,9.777,30.188,4.762c0.651-0.305,1.294-0.633,1.929-0.98
				c0.513,0.307,1.073,0.555,1.671,0.73c2.658,0.779,5.204,3.611,7.125,5.652c0.242,0.256,0.463,0.541,0.697,0.809
				c-0.532,1.414-0.442,3.074,0.668,4.715c2.366,3.494,1.362,6.924,1.786,10.906c0.389,3.646,2.148,7.164,4.735,9.746
				c2.207,2.201,4.898,3.789,7.677,5.164c1.337,0.662,2.692,1.275,4.005,1.984c0.18,0.098,0.306,0.176,0.406,0.242
				c-0.119,5.086,6.129,7.268,9.22,4.643c3.872,3.346,5.368,9.633,7.575,13.906c2.461,4.766,5.959,7.955,10.245,9.711
				c-1.993,9.803,0.589,20.811,6.853,29.041c11.21,14.73,32.21,16.482,49.241,15.6c10.593-0.549,21.13-2.559,31.544-4.449
				c8.773-1.594,17.49-3.512,26.121-5.752c-1.1,6.506-6.757,11.535-11.717,15.635c-6.065,5.012-12.097,10.086-17.992,15.303
				c-12.624,11.172-23.449,24.377-22.631,42.158c0.125,2.713,3.029,5.662,5.909,5.062c14.333-2.982,30.862-10.178,45.127-3.557
				c3.887,1.805,8.094-1.125,7.932-5.352c-0.423-11.029,7.344-18.037,14.736-25.066c7.321-6.961,13.229-14.602,13.74-24.74
				c8.946,4.188,19.075,5.77,28.712,7.387c9.166,1.539,16.812,3.4,24.987,7.973c3.66,2.049,17.896,10.268,15.407,15.924
				c-2.851,6.484,6.999,11.387,9.854,4.895c0.234-0.531,0.427-1.059,0.599-1.582c5.959-1.096,10.895-3.859,15.588-7.691
				c4.928-4.023,9.341-9.268,15.203-11.98c2.974-1.375,5.124-5.262,2.741-8.266c-9.676-12.203-21.626-21.16-36.494-25.984
				c-11.507-3.732-25.107-2.031-36.48-6.07c7.167-0.576,14.331-1.195,21.523-1.533c21.937-1.033,50.495-1.451,62.937-22.984
				c5.008-8.668,5.315-18.701,2.418-27.895c0.189-0.42,0.341-0.885,0.434-1.404c0.661-3.713,16.3-1.084,19.177-1.045
				c10.193,0.139,18.233-6.389,19.181-16.848c0.232-2.57,0.127-5.15,0.408-7.717c0.306-2.785,1.77-5.584,2.927-8.104
				c2.664-5.799,7.239-9.463,11.686-13.822c7.765-7.615,15.709-14.787,19.955-25.057c2.378-5.752,2.849-11.967,4.907-17.799
				c2.193-6.213,5.647-11.936,8.672-17.762c2.998-5.777,5.24-11.844,7.215-18.035C509.926,242.809,508.959,234.846,507.645,227.787z
				 M56.376,320.627c-1.148-2.299-3.286-3.27-5.371-3.268c-4.577-6.766,3.032-15.188,9.356-19.027
				c9.062-5.502,20.88-1.02,24.917,8.764C90.905,320.736,63.203,334.297,56.376,320.627z M192.52,434.996
				c-15.488,0.934-36.771-0.646-43.054-17.619c-1.779-4.805-2.488-9.867-1.403-14.494c4.011-0.479,5.219-4.555,3.98-7.594
				c0.216-0.238,0.424-0.482,0.658-0.715c5.729-5.703,15.229-7.555,22.916-8.416c20.548-2.305,40.538,5.395,58.078,15.857
				c-7.228-1.172-14.464-2.092-22.003-0.361c-7.767,1.783-23.298,8.848-16.751,19.35c4.41,7.076,14.789,9.73,22.743,11.078
				C209.302,433.484,200.889,434.49,192.52,434.996z M226.252,421.957c-6.808,0.141-14.482-1.961-20.366-5.334
				c-0.099-0.057-0.346-0.264-0.609-0.482c0.031-0.023,0.056-0.043,0.09-0.066c4.169-3.016,10.215-4.387,15.232-4.705
				c10.773-0.682,21.201,3.607,32.021,3.648c1.05,0.885,2.066,1.803,3.04,2.762C245.8,418.777,236.202,421.752,226.252,421.957z
				 M275.188,453.363c0.436,10.025-8.19,16.521-14.736,22.832c-6.536,6.301-11.445,13.344-13.137,21.797
				c-12.342-2.908-24.801,0.564-37.204,3.523c2.501-13.492,14.448-23.316,24.633-31.955c11.409-9.676,28.101-20.107,27.474-36.898
				c0.375-0.111,0.753-0.217,1.128-0.328c3.21,6.746,7.603,12.467,13.298,17.004C275.705,450.299,275.113,451.646,275.188,453.363z
				 M351.519,444.541c13.723,2.232,25.508,9.1,34.798,19.064c-2.506,1.787-4.854,3.789-7.221,5.9
				c-4.098,3.652-8.516,8.061-14.056,9.287c-5.439-12.365-25.326-21.641-35.575-24.648c-10.382-3.047-21.46-3.391-31.907-6.389
				c-9.524-2.734-17.157-8.135-22.158-16.158c2.076,0.012,4.224-0.174,6.34-0.18c8.358-0.018,16.716-0.117,25.07-0.389
				c0.547-0.018,1.094-0.049,1.641-0.07c0.303,0.748,0.814,1.469,1.59,2.115C322.281,443.256,336.709,442.131,351.519,444.541z
				 M331.128,401.35c-0.48,1.293-1.589,2.514-3.032,3.635c-4.547,3.527-10.238,5.5-15.621,7.332
				c-8.628,2.938-18.745,4.062-27.028,8.102c-1.223,0.008-2.445,0.012-3.668,0.018c0.187-0.191,0.363-0.402,0.531-0.629
				c6.128-5.658,12.953-10.715,19.725-15.248c6.792-4.549,22.598-15.348,28.509-5.877c0.477,0.764,0.516,1.088,0.594,1.656
				C331.169,400.564,331.009,401.67,331.128,401.35z M398.317,403.994c-7.318,8.787-20.653,10.76-31.303,11.967
				c-12.532,1.42-25.184,1.238-37.729,2.498c-1.048,0.105-2.097,0.186-3.145,0.279c10.689-5.152,20.911-14.369,13.116-26.859
				c-6.854-10.98-19.388-8.619-29.862-3.979c4.756-4.297,9.732-8.314,14.834-12.018c15.951-11.576,36.36-21.615,56.467-16.445
				C399.123,364.174,411.673,387.955,398.317,403.994z M484.347,275.057c-3.258,6.748-4.498,13.742-6.433,20.891
				c-1.655,6.115-5.39,11.219-9.626,15.793c-4.766,5.145-10.09,9.75-15.152,14.588c-5.036,4.814-8.098,11.234-10.398,17.697
				c-1.901,5.342,0.099,12.99-3.356,17.535c-2.709,3.564-8.327,2.479-12.226,2.219c-6.202-0.414-14.283-1.043-19.477,2.318
				c-3.585-5.342-8.298-9.893-13.711-13.002c-18.114-10.402-40.133-6.064-57.865,2.756c-24.777,12.322-46.735,33.07-61.839,56.307
				c-1.508,1.432-2.971,2.893-4.383,4.381c-3.738-2.18-7.026-7.242-10.033-9.787c-0.667-1.326-1.841-2.371-3.491-2.699
				c-4.327-3.246-8.82-6.275-13.387-9.166c-11.67-7.391-24.279-13.32-37.571-17.121c-17.641-5.045-39.296-4.547-55.335,5.104
				c-3.637,2.189-6.493,5.004-8.621,8.217c-3.593-1.645-5.203-5.42-7.148-9.936c-3.336-7.742-7.735-13.555-16.064-16.105
				c-0.373-0.113-0.729-0.182-1.071-0.223c-2.063-1.676-4.685-2.969-7.304-4.264c-3.676-1.818-5.527-3.83-5.657-8.068
				c-0.034-1.131-0.073-2.191-0.14-3.209c2.402-1.848,2.507-4.855,1.184-7.41c-3.193-6.162-8.19-12.543-14.394-16.299
				c5.37-6.266,7.967-14.469,4.496-22.881c-2.991-7.25-10.234-13.604-17.438-16.443c-3.143-1.238-6.361-1.662-9.549-1.484
				c0.179-0.529,0.291-1.107,0.313-1.738c0.326-9.213,3.861-17.025-0.843-25.807c-1.762-3.291-5.296-5.59-8.188-7.773
				c-3.938-2.975-5.206-6.383-6.461-11.061c-1.222-4.555-1.336-9.516-0.645-14.152c0.565-3.791,2.536-6.18,4.729-9.16
				c3.983-5.418,3.769-10.506,0.93-15.32c0.363-1.035,0.327-2.262-0.314-3.619c-3.914-8.279-4.375-17.199-0.653-25.646
				c1.92-4.359,5.285-7.992,7.763-12.045c2.311-3.779,4.1-7.867,5.451-12.082c2.343-7.305,2.85-14.854,3.604-22.439
				c0.775-7.789,1.504-16.4,6.123-22.992c8.275-11.809,23.07-17.521,32.845-27.992c4.631-4.961,6.958-12.012,12.175-16.416
				c4.363-3.684,11.107-3.059,16.42-3.074c0.855-0.002,1.592-0.168,2.219-0.449c0.669,0.283,1.429,0.447,2.281,0.449
				c10.914,0.031,22.135,0.924,32.107-4.363c5.07-2.688,9.313-6.531,13.503-10.404c3.887-3.594,7.372-6.885,12.825-7.586
				c6.25-0.803,12.587,1.213,18.622,2.551c6.459,1.434,12.402,1.311,18.782-0.371c10.267-2.707,18.753-8.965,28.194-13.479
				c4.178-1.998,8.433-3.137,13.059-3.314c6.813-0.262,13.276,2.826,19.918,3.852c6.5,1,13.151,0.623,19.684,1.297
				c5.947,0.611,10.205,5.039,14.209,9.066c3.684,3.703,7.396,7.146,12.029,9.643c6.337,3.414,13.438,4.285,20.501,4.725
				c6.947,0.432,13.153,1.104,19.571,3.941c6.122,2.705,10.589,8.855,14.498,14.033c0.158,0.209,0.325,0.396,0.496,0.574
				c6.723,15.07,30.659,10.863,43.919,15.574c10.122,3.596,12.691,12.643,17.082,21.35c4.997,9.91,10.622,19.49,15.716,29.35
				c5.425,10.502,10.657,21.709,12.973,33.371c0.927,4.666,1.261,9.449,0.47,14.15c-1.077,6.408-6.374,10.984-6.086,17.973
				c0.276,6.693,2.877,12.807,4.99,19.072c2.46,7.297,4.096,15.309,4.712,22.975C498.972,251.021,489.991,263.365,484.347,275.057z"
				/>
		</g>
	</g>
	<g>
		<g>
			<path d="M390.174,259.104c-1.416-6.109-2.546-11.832-2.834-18.131c-0.302-6.613-0.112-13.234-0.497-19.846
				c-0.734-12.637-4.626-25.299-14.706-33.547c-6.976-5.709-15.526-9.062-22.676-14.516c-6.709-5.117-11.065-11.982-15.992-18.68
				c-4.872-6.625-11-13.375-19.14-15.73c-10.014-2.896-19.364,0.316-29.191,2.279c-8.776,1.754-15.492,1.793-23.612-2.123
				c-8.389-4.045-15.925-7.699-25.477-7.584c-14.556,0.178-24.865,13.242-36.45,20.17c-1.412,0.844-2.159,1.98-2.409,3.184
				c-7.736,3.701-15.066,8.332-22.094,13.184c-8.59,5.93-17.275,12.584-23.963,20.666c-8.386,10.133-6.985,20.83-1.282,31.801
				c3.094,5.951,6.109,11.586,7.199,18.305c1.104,6.807,0.515,13.832,0.755,20.695c0.386,11.041,3.443,20.586,10.906,28.873
				c6.878,7.639,15.63,13.162,24.05,18.922c8.582,5.869,15.647,13.436,23.967,19.52c-4.842,0.217-9.601,1.898-13.884,4.328
				c-11.311,6.414-21.392,23.098-10.735,34.227c12.049,23.236,59.906,12.635,50.353-18.148c-1.29-4.156-3.491-8.145-6.39-11.484
				c3.031,0.686,6.146,1.119,9.336,1.309c10.86,0.646,21.75-0.307,32.622,0.086c14.053,0.506,27.678,5.275,41.776,1.795
				c11.997-2.961,19.909-10.619,26.51-20.672c5.801-8.834,10.024-17.248,19.348-22.896c6.733-4.078,14.354-6.244,20.299-11.58
				C392.898,277.283,392.069,267.279,390.174,259.104z M203.241,362.234c-0.158-1.438-0.832-2.842-2.169-3.891
				c-0.178-0.578-0.32-1.184-0.41-1.822c-0.235-1.67-1.045-2.889-2.123-3.691c0.104-0.604,0.277-1.217,0.507-1.83
				c1.688-4.508,5.256-8,9.221-10.564c10.38-6.717,20.024-0.572,23.812,10.154C237.603,366.221,211.828,372.041,203.241,362.234z
				 M380.005,273.09c-1.146,2.887-3.997,4.463-6.58,5.883c-7.713,4.246-15.704,7.119-22.273,13.246
				c-7.874,7.344-11.788,17.764-18.496,26.045c-8.86,10.938-22.372,11.502-35.379,9.998c-6.701-0.773-13.344-2.066-20.092-2.371
				c-6.049-0.273-12.108-0.127-18.158,0.016c-9.212,0.221-18.571,0.461-27.232-3.168c-10.152-4.256-17.022-13.203-25.667-19.66
				c-8.304-6.201-17.304-11.416-25.138-18.244c-8.436-7.354-11.63-15.434-12.213-26.449c-0.65-12.291,0.168-23.557-5.017-35.113
				c-2.209-4.924-5.246-9.41-7.125-14.486c-1.935-5.23,0.038-9.799,3.392-13.852c5.9-7.129,13.699-12.777,21.223-18.049
				c7.75-5.432,15.966-10.637,24.747-14.238c2.207-0.906,3.255-2.693,3.427-4.559c6.978-4.984,13.315-11.424,21.193-14.623
				c11.535-4.682,21.878,4.109,32.188,7.84c12.768,4.621,25.135-0.439,37.845-2.555c7.165-1.191,12.869,0.479,18.17,5.361
				c4.418,4.068,7.625,9.383,11.109,14.227c7.456,10.363,17.348,16.684,28.21,23.016c5.762,3.357,10.825,7.164,13.822,13.279
				c2.874,5.865,3.627,12.414,4.001,18.848c0.745,12.809-0.138,25.311,3.452,37.807C380.437,264.852,381.436,269.49,380.005,273.09z
				"/>
		</g>
	</g>
	<g>
		<g>
			<path d="M212.193,121.564c-2.88-16.621-23.005-18.303-35.914-14.199c-6.998,2.225-13.981,6.412-17.698,12.914
				c-4.001,6.998,0.129,14.553,5.967,18.809c1.171,0.854,2.409,1.178,3.588,1.127C178.214,156.811,215.833,142.568,212.193,121.564z
				 M197.398,130.594c-2.478,2.402-5.835,4.016-9.059,5.133c-3.177,1.102-6.131,1.336-8.996,0.533
				c-0.179-0.049-1.189-0.754-1.616-1.336c-0.843-1.146-1.027-3.119-1.063-4.891c-0.101-4.83-5.22-5.967-8.43-3.967
				c0.108-0.66,0.471-1.381,1.167-2.207c3.035-3.605,8.112-5.439,12.485-6.711c6.618-1.924,19.171-1.064,19.529,7.029
				C201.484,125.744,199.542,128.516,197.398,130.594z"/>
		</g>
	</g>
	<g>
		<g>
			<path d="M429.253,166.541c-13.039-1.002-30.341,3.904-35.543,17.33c-2.921,7.541-0.639,15.287,3.897,21.656
				c0.886,1.244,2.004,1.934,3.173,2.193c11.26,21.941,55.309,16.834,56.965-11.238C458.737,179.67,445.259,167.768,429.253,166.541
				z M409.152,196.029c-0.068-3.49-2.759-5.049-5.458-4.893c0.057-5.633,5.011-9.893,12.208-12.275
				c9.757-3.23,24.278-1.887,29.308,8.488C456.696,211.045,409.633,220.867,409.152,196.029z"/>
		</g>
	</g>
	<g>
		<g>
			<path d="M214.826,43.277c-15.625,1.137-29.562,15.424-31.687,30.617c-0.778,5.564,0.15,11.24,2.347,16.383
				c1.464,3.426,5.061,4.041,7.715,2.895c4.61,3.51,10.923,5.396,16.811,5.604c14.098,0.498,27.332-7.855,29.949-22.236
				C242.94,60.168,232.917,41.961,214.826,43.277z M212.787,87.76c-4.207,0.357-8.25-0.428-11.777-2.314
				c-2.93-1.568-3.963-3.621-3.434-6.436c0.531-2.826-0.929-4.854-2.939-5.797c1.642-6.85,6.662-12.805,13.375-16.594
				c3.708-2.094,8.987-3.371,13.105-1.807c5.802,2.205,7.656,8.818,8.189,14.418C230.325,79.932,223.036,86.891,212.787,87.76z"/>
		</g>
	</g>
</g>
</svg>
