<?xml version="1.0" encoding="utf-8"?>
<!-- Generator: Adobe Illustrator 16.0.3, SVG Export Plug-In . SVG Version: 6.00 Build 0)  -->
<!DOCTYPE svg PUBLIC "-//W3C//DTD SVG 1.1//EN" "http://www.w3.org/Graphics/SVG/1.1/DTD/svg11.dtd">
<svg version="1.1" id="Layer_1" xmlns="http://www.w3.org/2000/svg" xmlns:xlink="http://www.w3.org/1999/xlink" x="0px" y="0px"
	 width="512px" height="512px" viewBox="0 0 512 512" style="enable-background:new 0 0 512 512;" xml:space="preserve">
<style type="text/css">
<![CDATA[
	.st0{fill:#127274;}
	.st1{fill:#14B6B9;}
	.st2{fill:#1E4384;}
	.st3{fill:#EF4754;}
	.st4{fill:#EF4823;}
	.st5{fill:#BCBCBC;}
	.st6{fill:#F6851F;}
	.st7{fill:#C56528;}
	.st8{fill:#FCBF95;}
	.st9{fill:#FEBF10;}
	.st10{fill:none;}
	.st11{fill:#010101;}
	.st12{fill:#3AB37C;}
	.st13{fill:#D6E5E5;}
	.st14{fill:#71C598;}
	.st15{fill:#74CCCF;}
]]>
</style>
<g>
	<g>
		<g>
			<path class="st1" d="M335.557,319.91c-2.516-3.844-6.95-3.998-11.163-3.277c-2.655,0.453-8.129,1.891-8.313,5.396
				c-0.222,4.209-4.284,6.211-7.403,5.602c-1.486,5.25,2.268,11.211,6.151,14.73c3.982,3.607,11.862,8.836,17.157,4.73
				c3.365-2.611,4.147-7.625,4.744-11.564C337.438,330.85,338.327,324.145,335.557,319.91z"/>
		</g>
	</g>
	<g>
		<g>
			<path class="st1" d="M281.015,326.061c-4.09-2.889-11.156-2.125-15.983-3.273c-4.332-1.031-8.96-2.43-13.448-2.35
				c-4.099,0.074-5.136,0.373-4.5,4.592c0.568,3.771-2.326,5.74-5.295,5.686c-0.114,3.396,0.118,6.734,1.355,9.695
				c2.036,4.871,6.452,7.072,11.383,8.127c7.531,1.611,22.778,2.982,26.456-6.047C282.438,338.914,284.911,328.811,281.015,326.061z
				"/>
		</g>
	</g>
	<g>
		<g>
			<path class="st1" d="M275.876,272.846c-3.011,3.287-6.34,6.207-10.547,8.098c-9.271,4.166-20.579,2.129-25.866-7.088
				c-0.118-0.205-0.234-0.434-0.352-0.658c-0.62,5.898-1.458,12.174,0.104,17.438c2.399,8.084,11.835,7.066,18.698,6.887
				c7.329-0.193,17.661-0.652,18.412-9.824C276.73,282.754,276.325,277.799,275.876,272.846z"/>
		</g>
	</g>
	<g>
		<g>
			<path class="st15" d="M357.557,250.166c-3.542-2.855-1.822-7.271,1.321-8.902c-1.311-6.146-2.695-12.709-7.37-16.6
				c-6.697-5.574-17.194-6.693-25.531-7.643c-16.631-1.895-33.521-1.576-50.237-2.213c-21.223-0.809-67.938-2.889-69.559,27.803
				c-0.076,1.451-0.613,2.635-1.407,3.545c-0.507,4.57,0.034,11.045,0.528,15.18c0.41,3.438,0.894,6.939,2.132,10.193
				c0.111,0.293,0.312,0.725,0.518,1.146c0.563-0.666,1.409-1.732,1.879-2.604c1.302-2.41,2.366-4.934,3.335-7.494
				c1.842-4.867,3.248-10.234,6.03-14.678c3.045-4.863,8.465-9.033,14.356-5.699c7.627,4.314,10.309,12.598,13.74,20.074
				c1.696,3.695,4.006,7.24,8.576,6.883c4.989-0.391,8.702-3.053,11.982-6.701c6.762-7.521,12.845-17.904,23.21-20.98
				c12.579-3.734,16.816,7.803,25.032,14.426c0.969,0.781,1.954,1.604,3.115,2.092c0.386-0.266,1.814-1.381,2.432-1.863
				c3.199-2.51,6.848-4.326,10.907-4.906c9.626-1.379,13.866,4.354,20.84,9.709C359.476,265.611,360.989,252.936,357.557,250.166z"
				/>
		</g>
	</g>
	<g>
		<g>
			<path class="st15" d="M455.336,440.396c-3.302-10.467-10.203-19.717-18.263-27.061c-37.932-34.557-91.184-13.203-123.847,17.82
				c-2.067,1.965-5.492,2.75-7.763,0.502c-11.225-11.117-23.841-21.145-38.328-27.672c-23.873-10.752-50.337-10.158-72.52,4.488
				c-9.436,6.23-18.85,18.186-31.09,18.512c-9.111,0.244-15.811-5.225-22.337-10.908c-14.195-12.361-38.113-25.369-56.104-12.238
				c-8.631,6.299-11.993,17.219-13.773,27.324c-1.34,7.613-2.379,16.217-0.962,24.127c0.394,0.059,0.796,0.158,1.204,0.307
				c19.611,7.072,41.961,4.283,62.301,3.1c24.258-1.412,48.626,0.43,72.886,1.285c51.371,1.809,102.483,1.24,153.835-0.744
				c15.778-0.611,31.594-1.078,47.379-0.445c6.779,0.27,13.488,0.758,20.225,1.518c4.826,0.547,9.742,1.016,14.594,0.488
				c4.429-0.48,9.075-1.549,11.388-5.723C456.712,450.469,456.915,445.408,455.336,440.396z"/>
		</g>
	</g>
	<g>
		<g>
			<path class="st1" d="M332.401,267.273c-0.252-0.621-0.387-1.217-0.424-1.777c-1.998,0.959-3.878,2.469-5.31,3.574
				c-3.538,2.729-7.794,3.781-12.013,1.852c-3.237-1.48-5.777-3.66-8.101-6.09c-0.194,3.652-0.321,7.305-0.109,10.957
				c0.351,6.039,1.257,14.072,7.671,16.744c5.991,2.498,14.607,3.135,19.868-1.414C340.801,285.227,335.012,273.725,332.401,267.273
				z"/>
		</g>
	</g>
	<g>
		<g>
			<path class="st7" d="M458.102,268.879c-0.009-4.633,4.711-6.604,7.962-5.408c-2.358-4.566-4.252-9.461-6.031-14.375
				c-2.971,9.008-7.658,17.33-16.037,15.982c-8.717-1.404-12.837-12.008-14.287-19.516c-1.043-5.396-1.396-10.941-1.975-16.434
				c-3.199,8.402-7.519,16.096-14.658,14.004c-9.564-2.803-11.471-18.688-12.235-26.703c-1.111-11.652-0.795-23.258-4.006-34.359
				c-3.626,4.73-5.913,10.66-9.578,15.312c-5.575,7.074-13.606,5.922-18.632-1.186c-8.088-11.436-11.597-25.23-13.919-38.822
				c-1.767-10.342-3.306-20.846-7.652-30.287c-1.306,6.488-0.611,13.955-4.631,19.537c-5.693,7.906-16.723,7.389-20.558-1.662
				c-4.243-10.01-3.571-21.295-3.631-31.889c-0.03-5.455,0.584-13.395-4.457-16.959c-0.955-0.676-5.386,1.422-6.998,1.672
				c-4.938,0.76-10.536-0.527-14.547-3.551c-3.137-2.367-4.854-5.703-7.348-8.623c-2.543-2.979-7.554,0.039-9.11,2.674
				c-2.141,3.625-3.931,7.984-5.176,12.004c-2.903,9.373-5.735,20.682-17.89,20.787c-4.629,0.041-7.621-1.697-11.64-3.24
				c-0.706,0.502-1.944,1.279-2.297,2.033c-0.508,1.088-0.702,1.84-0.991,3.207c-1.775,8.414-2.081,17.104-4.201,25.453
				c-1.753,6.902-4.941,15.449-13.273,16.02c-6.998,0.479-12.306-3.947-15.746-9.668c-1.408-2.342-2.576-4.814-3.945-7.178
				c-0.115,0.215-0.232,0.43-0.341,0.639c-1.196,2.293-2.316,4.648-3.246,7.064c-2.347,6.104-3.622,12.51-4.15,19.02
				c-0.957,11.793,0.886,26.275-5.829,36.699c-4.675,7.26-13.19,6.914-18.798,0.838c-3.216-3.484-5.856-7.342-8.058-11.541
				c-2.104-4.016-3.391-8.555-5.373-12.625c-1.031,4.334-1.669,8.76-2.089,13.193c-1.423,15-4.479,29.818-7.729,44.514
				c-0.623,2.822-3.478,5.07-6.448,4.35c-10.016-2.434-15.274-9.629-16.177-19.701c-0.401-4.484,0.504-11.85-1.451-16.957
				c-2.252,4.768-3.663,10.121-4.861,15.01c-1.487,6.068-2.938,12.188-2.675,18.467c0.236,5.615,0.86,11.822,0.476,17.754
				c0.381,0.164,0.773,0.355,1.188,0.602c3.407,2.016,3.37,6.025,1.597,8.504c-0.013,0.076-0.019,0.133-0.035,0.217l-0.021,1.605
				c0.029,1.053,0,2.102-0.09,3.15c-0.314,3.117-0.519,6.234-0.555,9.371c-0.073,6.338,0.144,12.666,0.352,19
				c0.33,10.09,0.249,20.061-0.438,30.131c-1.057,15.463-3.551,32.678-0.177,48.229c1.399,0.736,2.404,2.146,2.404,4.289v3.398
				c2.752,0.785,5.441,1.768,8.019,2.947c9.839,4.5,17.402,10.904,25.657,17.713c2.791,2.301,5.929,4.955,9.678,5.34
				c4.219,0.434,8.42-2.326,11.59-4.771c11.231-8.666,21.825-17.246,35.561-21.725c11.734-3.826,24.158-5.17,36.413-3.438
				c24.637,3.482,46.328,17.123,64.203,33.932c30.924-27.393,77.619-48.367,117.217-27.543c10.611,5.58,21.572,14.355,29.485,24.916
				c7.106-6.08,8.65-16.582,8.82-25.51c0.205-10.773-1.106-21.439-1.958-32.158C460.304,331.525,458.163,300.084,458.102,268.879z
				 M364.882,272.646c6.811,17.014,6.547,37.184,4.383,55.098c-1.31,10.834-3.275,22.111-9.512,31.303
				c-5.518,8.131-14.14,13.848-23.644,16.264c-11.353,2.887-22.503,1.832-34.06,2.307c-14.56,0.6-29.141,2.084-43.717,1.111
				c-22.242-1.48-44.859-10.461-50.616-34.145c-2.549-10.484-1.504-20.502-2.111-31.1c-0.487-8.498-1.749-17.609-0.222-26.131
				c-1.434-0.268-2.812-0.953-4.038-2.203c-5.489-5.602-6.62-14.74-7.23-22.207c-0.579-7.082-1.33-15.754,1.653-22.434
				c0.074-0.166,0.155-0.318,0.238-0.469c6.629-32.748,50.133-34.377,77.915-33.318c19.388,0.738,39.2,0.02,58.406,2.988
				c9.852,1.523,21.13,3.766,28.198,11.387c6.768,7.297,7.486,16.992,10.352,26.039c0.727,2.297,0.01,4.23-1.337,5.521
				C371.403,259.578,369.842,268.256,364.882,272.646z"/>
		</g>
	</g>
	<g>
		<g>
			<path class="st15" d="M485.292,229.391c-0.122-11.031-1.177-28.197-13.653-32.426c-3.063-1.039-3.681-3.662-2.817-5.986
				c-0.137-1.061-0.018-2.143,0.389-3.088c-26.461-33.729-51.957-67.816-83.635-97.006c-16.6-15.299-34.16-29.967-53.501-41.703
				c-17.591-10.672-36.56-19.715-57.692-16.707C246.081,36.5,224.839,57.193,204.12,75.09
				c-11.793,10.189-23.472,20.52-34.754,31.273c-10.571,10.076-20.152,21.119-30.603,31.273
				c-10.266,9.977-20.984,19.473-31.188,29.52c-5.974,5.881-11.935,11.828-17.396,18.197c-1.815,2.117-4.235,4.982-5.371,6.826
				c-0.45,0.73-0.903,1.479-1.254,2.268c0.046,0.441,0.03,0.861-0.026,1.266c1.221,1.098,1.918,2.76,1.477,4.875
				c-1.467,7.035-4.017,14.404-0.188,21.119c2.65,4.645,6.398,8.547,9.015,13.197c4.973,8.842,5.987,19.162,8.938,28.707
				c0.369-2.777,0.266-5.682,0.187-8.039c-0.208-6.18-1.103-12.514-0.359-18.688c1.589-13.209,5.218-28.707,13.374-39.479
				c1.352-1.787,4.647-2.551,6.579-1.297c8.063,5.229,10.031,13.391,10.387,22.525c0.196,5.051-0.161,10.979,2.833,14.594
				c2.607-12.324,4.871-24.715,6.162-37.258c0.754-7.318,1.188-19.242,7.67-24.188c8.851-6.754,14.974,7.516,17.07,13.627
				c1.633,4.762,4.27,9.492,7.326,13.498c0.989,1.299,2.021,2.572,3.347,3.551c0.118,0.088,0.212,0.143,0.303,0.195
				c2.839-2.895,3.115-10.334,3.341-13.762c0.428-6.488,0.478-13.01,1.09-19.486c1.062-11.23,4-23.893,10.977-33.072
				c4.118-5.418,10.711-5.908,14.954-0.363c3.052,3.988,4.518,9.773,8.03,13.115c1.406,1.338,3.028,2.027,3.701,1.514
				c1.507-1.148,2.519-4.877,3.04-7.09c1.977-8.389,2.272-17.068,4.201-25.453c1.815-7.893,8.721-16.795,17.8-13.441
				c3.105,1.146,6.79,4.264,10.223,1.822c3.259-2.316,3.613-7.65,4.795-11.168c2.799-8.336,6.486-21.031,16.269-23.6
				c5.064-1.33,10.17-1.738,14.601,1.533c3.027,2.236,4.607,5.584,7.031,8.352c5.653,6.453,13.925-2.09,20.587,1.59
				c11.255,6.215,11.034,19.545,10.87,30.816c-0.087,5.938,0.084,11.68,1.146,17.531c0.368,2.027,0.759,4.117,1.566,6.023
				c0.094,0.223,0.174,0.48,0.281,0.719c0.036-0.023,0.059-0.037,0.099-0.064c4.276-2.926,3.516-10.463,4.191-15.047
				c0.78-5.293,2.372-10.186,6.02-14.213c2.456-2.713,6.567-2.307,8.691,0.557c15.323,20.645,11.506,47.941,22.408,70.428
				c1.336,2.756,2.779,5.676,4.792,8.018l0.006,0.006c0.218-0.219,0.445-0.465,0.633-0.721c0.849-1.156,1.568-2.395,2.285-3.637
				c3.958-6.859,7.876-14.195,14.738-18.582c3.223-2.061,6.736-0.473,8.267,2.74c5.192,10.904,6.2,22.598,6.809,34.492
				c0.297,5.809,0.551,11.703,1.721,17.418c0.378,1.848,1.063,5.125,2.085,7.57c1.116-2.297,2.058-4.672,2.936-7.07
				c1.894-5.17,3.363-10.852,6.33-15.539c2.557-4.041,8.178-4.018,10.118,0.627c3.513,8.412,4.101,17.578,5.014,26.545
				c0.491,4.824,0.743,16.162,5.919,19.223c0.188-0.154,0.463-0.453,0.798-1.029c1.401-2.406,2.49-4.977,3.393-7.611
				c1.724-5.031,2.851-10.242,4.286-15.357c1.5-5.348,8.351-5.916,10.59-0.77c4.98,11.441,7.771,25.943,15.816,36.012
				C484.228,252.014,485.409,239.861,485.292,229.391z"/>
		</g>
	</g>
	<g>
		<g>
			<path class="st13" d="M354.496,276.273c-0.046-0.115-0.079-0.227-0.118-0.342c-2.32-0.27-4.599-1.197-6.859-2.787
				c-0.605-0.426-1.191-0.906-1.766-1.416c2.823,8.969,4.047,19.08-3.034,26.162c-3.868,3.869-8.948,6.229-14.314,7.145
				c4.267,0.133,8.42,1.355,11.763,3.842c6.93,5.15,8.452,14.207,8.021,22.318c-0.388,7.314-1.603,16.129-6.634,21.854
				c-18.7,21.287-56.79-13.848-39.592-35.727c1.54-1.959,3.556-2.33,5.335-1.75c3.104-5.342,9.101-8.906,15.549-10.102
				c-2.602-0.033-5.199-0.381-7.689-1.059c-23.451-6.385-19.306-30.773-19.058-49.838c-0.434-0.047-0.896,0.006-1.401,0.207
				c-2.721,1.086-5.555,2.902-7.63,4.998c-0.332,0.336-0.655,0.682-0.979,1.027c0.187,11.24,3.607,23.801-0.246,34.691
				c-3.908,11.045-18.507,12.986-28.447,13.012c-10.509,0.025-22.703-0.412-27.588-11.562c-4.018-9.168-1.281-19.945-1.195-29.568
				c0.031-3.52,2.78-5.502,5.519-5.723c-1.331-2.719-2.866-5.088-4.788-6.311c-0.275,0.348-0.454,0.631-0.59,0.877
				c-1.332,2.424-2.347,5.002-3.307,7.59c-2.123,5.734-3.987,11.746-7.492,16.82c0.33,1.127,0.283,2.412-0.333,3.77
				c-1.608,3.541-1.945,7.59-1.921,11.443c0.037,6.014,0.741,11.979,0.931,17.98c0.162,5.127-0.378,10.244-0.087,15.383
				c0.507,8.957,2.145,19.236,8.672,25.992c8.283,8.574,20.242,11.531,31.799,12.477c14.723,1.205,29.476-0.506,44.188-1.031
				c11.134-0.396,22.753,1.227,33.535-2.383c9.556-3.199,16.587-9.678,19.913-19.314c3.673-10.646,4.674-22.869,4.783-34.051
				C359.549,299.252,358.87,287.199,354.496,276.273z M292.024,344.074c-4.723,16.023-24.373,18.52-38.552,15.484
				c-7.257-1.553-15.331-4.803-18.951-11.832c-4.659-9.041-3.045-18.1-2.909-27.85c0.06-4.25,4.072-6.254,7.228-5.625
				c1.671-2.049,4.044-3.566,7.144-4.219c6.787-1.432,13.792,0.205,20.415,1.781c8.156,1.941,17.884,0.986,23.818,7.959
				C295.521,326.006,294.163,336.822,292.024,344.074z"/>
		</g>
	</g>
	<g>
		<g>
			<path d="M496.25,229.354c-0.138-12.4-2.87-29.1-13.528-37.061c0.37-1.369,0.13-2.879-1.076-4.408
				c-4.694-5.957-9.335-11.955-13.967-17.961c-9.131-11.834-18.26-23.672-27.732-35.236c-18.689-22.816-39.233-43.906-61.656-63.068
				c-21.502-18.377-46.158-37.266-73.537-45.662c-25.835-7.924-52.1,0.213-73.778,14.865c-11.253,7.605-21.33,17.021-31.606,25.865
				c-10.644,9.158-21.18,18.445-31.49,27.977c-15.277,14.127-28.922,29.834-44.128,43.979
				c-11.341,10.551-22.688,21.113-33.455,32.256c-4.629,4.789-9.231,9.697-13.164,15.088c-2.641,3.617-5.695,8.1-4.217,12.791
				c0.274,0.871,0.688,1.562,1.191,2.105c-1.511,7.127-3.664,14.824-1.491,22.037c1.937,6.426,6.23,11.625,10.091,16.973
				c8.638,11.967,7.627,28.352,14.84,41.139c1.356,2.406,5.156,3.174,7.418,1.631c-0.009,2.248,0.037,4.088,0.015,5.061
				c-0.309,13.514,1.044,27.004,0.425,40.521c-0.917,20.008-4.954,41.83,0.312,61.602c-14.037-0.73-27.988,4.139-36.293,16.637
				c-5.854,8.812-8.417,19.818-9.777,30.174c-1.361,10.365-1.77,22.414,2.771,32.107c2.229,4.758,8.627,3.961,10.439,0.561
				c22.883,6.268,47.426,2.816,70.812,1.801c15.315-0.666,30.778,0.537,46.089,1.1c16.469,0.607,32.939,1.211,49.415,1.627
				c32.437,0.822,64.931,0.57,97.354-0.688c30.198-1.174,60.622-3.4,90.742,0.002c9.396,1.061,20.409,1.893,28.917-3.086
				c8.997-5.264,12.232-16.223,10.754-26.082c-0.795-5.303-2.591-10.459-5.121-15.361c18.061-13.951,14.314-41.91,12.459-61.891
				c-1.414-15.232-2.036-30.559-3.033-45.824c-1.158-17.732-2.107-35.477-2.164-53.25c2.422,3.713,5.3,7.09,8.878,9.916
				c2.972,2.346,6.64,1.422,8.558-1.686C494.682,262.672,496.419,244.521,496.25,229.354z M454.16,456.998
				c-2.312,4.174-6.959,5.242-11.388,5.723c-4.852,0.527-9.768,0.059-14.594-0.488c-6.736-0.76-13.445-1.248-20.225-1.518
				c-15.785-0.633-31.601-0.166-47.379,0.445c-51.352,1.984-102.464,2.553-153.835,0.744c-24.26-0.855-48.628-2.697-72.886-1.285
				c-20.34,1.184-42.689,3.973-62.301-3.1c-0.408-0.148-0.811-0.248-1.204-0.307c-1.417-7.91-0.378-16.514,0.962-24.127
				c1.78-10.105,5.143-21.025,13.773-27.324c17.991-13.131,41.909-0.123,56.104,12.238c6.526,5.684,13.226,11.152,22.337,10.908
				c12.24-0.326,21.654-12.281,31.09-18.512c22.183-14.646,48.646-15.24,72.52-4.488c14.487,6.527,27.104,16.555,38.328,27.672
				c2.271,2.248,5.695,1.463,7.763-0.502c32.663-31.023,85.915-52.377,123.847-17.82c8.06,7.344,14.961,16.594,18.263,27.061
				C456.915,447.33,456.712,452.391,454.16,456.998z M458.102,267.879c0.062,31.205,2.202,62.646,4.673,93.748
				c0.852,10.719,2.163,21.385,1.958,32.158c-0.17,8.928-1.714,19.43-8.82,25.51c-7.913-10.561-18.874-19.336-29.485-24.916
				c-39.598-20.824-86.293,0.15-117.217,27.543c-17.875-16.809-39.566-30.449-64.203-33.932
				c-12.255-1.732-24.679-0.389-36.413,3.438c-13.735,4.479-24.329,13.059-35.561,21.725c-3.17,2.445-7.371,5.205-11.59,4.771
				c-3.749-0.385-6.887-3.039-9.678-5.34c-8.255-6.809-15.818-13.213-25.657-17.713c-2.577-1.18-5.267-2.162-8.019-2.947v-3.398
				c0-2.143-1.005-3.553-2.404-4.289c-3.374-15.551-0.88-32.766,0.177-48.229c0.687-10.07,0.768-20.041,0.438-30.131
				c-0.208-6.334-0.425-12.662-0.352-19c0.036-3.137,0.24-6.254,0.555-9.371c0.09-1.049,0.119-2.098,0.09-3.15l0.021-1.605
				c0.017-0.084,0.022-0.141,0.035-0.217c1.773-2.479,1.811-6.488-1.597-8.504c-0.414-0.246-0.807-0.438-1.188-0.602
				c0.385-5.932-0.239-12.139-0.476-17.754c-0.264-6.279,1.188-12.398,2.675-18.467c1.198-4.889,2.609-10.242,4.861-15.01
				c1.955,5.107,1.05,12.473,1.451,16.957c0.902,10.072,6.161,17.268,16.177,19.701c2.971,0.721,5.825-1.527,6.448-4.35
				c3.25-14.695,6.307-29.514,7.729-44.514c0.42-4.434,1.058-8.859,2.089-13.193c1.982,4.07,3.269,8.609,5.373,12.625
				c2.201,4.199,4.842,8.057,8.058,11.541c5.607,6.076,14.123,6.422,18.798-0.838c6.715-10.424,4.872-24.906,5.829-36.699
				c0.528-6.51,1.804-12.916,4.15-19.02c0.93-2.416,2.05-4.771,3.246-7.064c0.108-0.209,0.226-0.424,0.341-0.639
				c1.369,2.363,2.537,4.836,3.945,7.178c3.44,5.721,8.748,10.146,15.746,9.668c8.332-0.57,11.521-9.117,13.273-16.02
				c2.12-8.35,2.426-17.039,4.201-25.453c0.289-1.367,0.483-2.119,0.991-3.207c0.353-0.754,1.591-1.531,2.297-2.033
				c4.019,1.543,7.011,3.281,11.64,3.24c12.154-0.105,14.986-11.414,17.89-20.787c1.245-4.02,3.035-8.379,5.176-12.004
				c1.557-2.635,6.567-5.652,9.11-2.674c2.493,2.92,4.211,6.256,7.348,8.623c4.011,3.023,9.608,4.311,14.547,3.551
				c1.612-0.25,6.043-2.348,6.998-1.672c5.041,3.564,4.427,11.504,4.457,16.959c0.06,10.594-0.612,21.879,3.631,31.889
				c3.835,9.051,14.864,9.568,20.558,1.662c4.02-5.582,3.325-13.049,4.631-19.537c4.347,9.441,5.886,19.945,7.652,30.287
				c2.322,13.592,5.831,27.387,13.919,38.822c5.025,7.107,13.057,8.26,18.632,1.186c3.665-4.652,5.952-10.582,9.578-15.312
				c3.211,11.102,2.895,22.707,4.006,34.359c0.765,8.016,2.671,23.9,12.235,26.703c7.14,2.092,11.459-5.602,14.658-14.004
				c0.579,5.492,0.932,11.037,1.975,16.434c1.45,7.508,5.57,18.111,14.287,19.516c8.379,1.348,13.066-6.975,16.037-15.982
				c1.779,4.914,3.673,9.809,6.031,14.375C462.812,261.275,458.093,263.246,458.102,267.879z M480.095,264.15
				c-8.046-10.068-10.836-24.57-15.816-36.012c-2.239-5.146-9.09-4.578-10.59,0.77c-1.436,5.115-2.562,10.326-4.286,15.357
				c-0.902,2.635-1.991,5.205-3.393,7.611c-0.335,0.576-0.609,0.875-0.798,1.029c-5.176-3.061-5.428-14.398-5.919-19.223
				c-0.913-8.967-1.501-18.133-5.014-26.545c-1.94-4.645-7.562-4.668-10.118-0.627c-2.967,4.688-4.437,10.369-6.33,15.539
				c-0.878,2.398-1.819,4.773-2.936,7.07c-1.021-2.445-1.707-5.723-2.085-7.57c-1.17-5.715-1.424-11.609-1.721-17.418
				c-0.608-11.895-1.616-23.588-6.809-34.492c-1.53-3.213-5.044-4.801-8.267-2.74c-6.862,4.387-10.78,11.723-14.738,18.582
				c-0.717,1.242-1.437,2.48-2.285,3.637c-0.188,0.256-0.415,0.502-0.633,0.721l-0.006-0.006c-2.013-2.342-3.456-5.262-4.792-8.018
				c-10.902-22.486-7.085-49.783-22.408-70.428c-2.124-2.863-6.235-3.27-8.691-0.557c-3.647,4.027-5.239,8.92-6.02,14.213
				c-0.676,4.584,0.085,12.121-4.191,15.047c-0.04,0.027-0.062,0.041-0.099,0.064c-0.107-0.238-0.188-0.496-0.281-0.719
				c-0.808-1.906-1.198-3.996-1.566-6.023c-1.062-5.852-1.233-11.594-1.146-17.531c0.164-11.271,0.385-24.602-10.87-30.816
				c-6.662-3.68-14.934,4.863-20.587-1.59c-2.424-2.768-4.004-6.115-7.031-8.352c-4.431-3.271-9.536-2.863-14.601-1.533
				c-9.782,2.568-13.47,15.264-16.269,23.6c-1.182,3.518-1.536,8.852-4.795,11.168c-3.433,2.441-7.117-0.676-10.223-1.822
				c-9.079-3.354-15.984,5.549-17.8,13.441c-1.929,8.385-2.225,17.064-4.201,25.453c-0.521,2.213-1.533,5.941-3.04,7.09
				c-0.673,0.514-2.295-0.176-3.701-1.514c-3.513-3.342-4.979-9.127-8.03-13.115c-4.243-5.545-10.836-5.055-14.954,0.363
				c-6.977,9.18-9.915,21.842-10.977,33.072c-0.612,6.477-0.662,12.998-1.09,19.486c-0.226,3.428-0.502,10.867-3.341,13.762
				c-0.091-0.053-0.185-0.107-0.303-0.195c-1.325-0.979-2.357-2.252-3.347-3.551c-3.057-4.006-5.693-8.736-7.326-13.498
				c-2.097-6.111-8.22-20.381-17.07-13.627c-6.481,4.945-6.916,16.869-7.67,24.188c-1.291,12.543-3.555,24.934-6.162,37.258
				c-2.994-3.615-2.637-9.543-2.833-14.594c-0.355-9.135-2.323-17.297-10.387-22.525c-1.932-1.254-5.228-0.49-6.579,1.297
				c-8.156,10.771-11.785,26.27-13.374,39.479c-0.743,6.174,0.151,12.508,0.359,18.688c0.079,2.357,0.183,5.262-0.187,8.039
				c-2.951-9.545-3.966-19.865-8.938-28.707c-2.616-4.65-6.364-8.553-9.015-13.197c-3.829-6.715-1.279-14.084,0.188-21.119
				c0.441-2.115-0.256-3.777-1.477-4.875c0.057-0.404,0.072-0.824,0.026-1.266c0.351-0.789,0.804-1.537,1.254-2.268
				c1.136-1.844,3.556-4.709,5.371-6.826c5.461-6.369,11.422-12.316,17.396-18.197c10.204-10.047,20.923-19.543,31.188-29.52
				c10.45-10.154,20.031-21.197,30.603-31.273c11.282-10.754,22.961-21.084,34.754-31.273c20.719-17.896,41.961-38.59,70.262-42.615
				c21.133-3.008,40.102,6.035,57.692,16.707c19.341,11.736,36.901,26.404,53.501,41.703c31.678,29.189,57.174,63.277,83.635,97.006
				c-0.406,0.945-0.525,2.027-0.389,3.088c-0.863,2.324-0.246,4.947,2.817,5.986c12.477,4.229,13.531,21.395,13.653,32.426
				C485.409,241.783,484.228,253.936,480.095,264.15z"/>
		</g>
	</g>
	<g>
		<g>
			<path d="M369.541,252.658c1.347-1.291,2.063-3.225,1.337-5.521c-2.865-9.047-3.584-18.742-10.352-26.039
				c-7.068-7.621-18.347-9.863-28.198-11.387c-19.206-2.969-39.019-2.25-58.406-2.988c-27.782-1.059-71.286,0.57-77.915,33.318
				c-0.083,0.15-0.164,0.303-0.238,0.469c-2.983,6.68-2.232,15.352-1.653,22.434c0.61,7.467,1.741,16.605,7.23,22.207
				c1.226,1.25,2.604,1.936,4.038,2.203c-1.527,8.521-0.266,17.633,0.222,26.131c0.607,10.598-0.438,20.615,2.111,31.1
				c5.757,23.684,28.374,32.664,50.616,34.145c14.576,0.973,29.157-0.512,43.717-1.111c11.557-0.475,22.707,0.58,34.06-2.307
				c9.504-2.416,18.126-8.133,23.644-16.264c6.236-9.191,8.202-20.469,9.512-31.303c2.164-17.914,2.428-38.084-4.383-55.098
				C369.842,268.256,371.403,259.578,369.541,252.658z M209.83,272.994c-0.47,0.871-1.315,1.938-1.879,2.604
				c-0.205-0.422-0.406-0.854-0.518-1.146c-1.238-3.254-1.722-6.756-2.132-10.193c-0.494-4.135-1.035-10.609-0.528-15.18
				c0.794-0.91,1.331-2.094,1.407-3.545c1.621-30.691,48.336-28.611,69.559-27.803c16.717,0.637,33.606,0.318,50.237,2.213
				c8.337,0.949,18.834,2.068,25.531,7.643c4.675,3.891,6.06,10.453,7.37,16.6c-3.144,1.631-4.863,6.047-1.321,8.902
				c3.433,2.77,1.919,15.445-4.17,10.768c-6.974-5.355-11.214-11.088-20.84-9.709c-4.06,0.58-7.708,2.396-10.907,4.906
				c-0.617,0.482-2.046,1.598-2.432,1.863c-1.161-0.488-2.146-1.311-3.115-2.092c-8.216-6.623-12.453-18.16-25.032-14.426
				c-10.365,3.076-16.448,13.459-23.21,20.98c-3.28,3.648-6.993,6.311-11.982,6.701c-4.57,0.357-6.88-3.188-8.576-6.883
				c-3.432-7.477-6.113-15.76-13.74-20.074c-5.892-3.334-11.312,0.836-14.356,5.699c-2.782,4.443-4.188,9.811-6.03,14.678
				C212.196,268.061,211.132,270.584,209.83,272.994z M314.116,292.533c-6.414-2.672-7.32-10.705-7.671-16.744
				c-0.212-3.652-0.085-7.305,0.109-10.957c2.323,2.43,4.863,4.609,8.101,6.09c4.219,1.93,8.475,0.877,12.013-1.852
				c1.432-1.105,3.312-2.615,5.31-3.574c0.037,0.561,0.172,1.156,0.424,1.777c2.61,6.451,8.399,17.953,1.583,23.846
				C328.724,295.668,320.107,295.031,314.116,292.533z M335.557,319.91c2.771,4.234,1.882,10.939,1.173,15.617
				c-0.597,3.939-1.379,8.953-4.744,11.564c-5.295,4.105-13.175-1.123-17.157-4.73c-3.884-3.52-7.638-9.48-6.151-14.73
				c3.119,0.609,7.182-1.393,7.403-5.602c0.185-3.506,5.658-4.943,8.313-5.396C328.606,315.912,333.041,316.066,335.557,319.91z
				 M276.326,287.697c-0.751,9.172-11.083,9.631-18.412,9.824c-6.863,0.18-16.299,1.197-18.698-6.887
				c-1.562-5.264-0.725-11.539-0.104-17.438c0.117,0.225,0.233,0.453,0.352,0.658c5.287,9.217,16.595,11.254,25.866,7.088
				c4.207-1.891,7.536-4.811,10.547-8.098C276.325,277.799,276.73,282.754,276.326,287.697z M359.435,310.898
				c-0.109,11.182-1.11,23.404-4.783,34.051c-3.326,9.637-10.357,16.115-19.913,19.314c-10.782,3.609-22.401,1.986-33.535,2.383
				c-14.713,0.525-29.466,2.236-44.188,1.031c-11.557-0.945-23.516-3.902-31.799-12.477c-6.527-6.756-8.165-17.035-8.672-25.992
				c-0.291-5.139,0.249-10.256,0.087-15.383c-0.189-6.002-0.894-11.967-0.931-17.98c-0.024-3.854,0.312-7.902,1.921-11.443
				c0.616-1.357,0.663-2.643,0.333-3.77c3.505-5.074,5.369-11.086,7.492-16.82c0.96-2.588,1.975-5.166,3.307-7.59
				c0.136-0.246,0.314-0.529,0.59-0.877c1.922,1.223,3.457,3.592,4.788,6.311c-2.738,0.221-5.487,2.203-5.519,5.723
				c-0.086,9.623-2.822,20.4,1.195,29.568c4.885,11.15,17.079,11.588,27.588,11.562c9.94-0.025,24.539-1.967,28.447-13.012
				c3.854-10.891,0.433-23.451,0.246-34.691c0.324-0.346,0.647-0.691,0.979-1.027c2.075-2.096,4.909-3.912,7.63-4.998
				c0.505-0.201,0.968-0.254,1.401-0.207c-0.248,19.064-4.394,43.453,19.058,49.838c2.49,0.678,5.088,1.025,7.689,1.059
				c-6.448,1.195-12.445,4.76-15.549,10.102c-1.779-0.58-3.795-0.209-5.335,1.75c-17.198,21.879,20.892,57.014,39.592,35.727
				c5.031-5.725,6.246-14.539,6.634-21.854c0.431-8.111-1.092-17.168-8.021-22.318c-3.343-2.486-7.496-3.709-11.763-3.842
				c5.366-0.916,10.446-3.275,14.314-7.145c7.081-7.082,5.857-17.193,3.034-26.162c0.574,0.51,1.16,0.99,1.766,1.416
				c2.261,1.59,4.539,2.518,6.859,2.787c0.039,0.115,0.072,0.227,0.118,0.342C358.87,287.199,359.549,299.252,359.435,310.898z"/>
		</g>
	</g>
	<g>
		<g>
			<path d="M290.217,319.773c-5.935-6.973-15.662-6.018-23.818-7.959c-6.623-1.576-13.628-3.213-20.415-1.781
				c-3.1,0.652-5.473,2.17-7.144,4.219c-3.155-0.629-7.168,1.375-7.228,5.625c-0.136,9.75-1.75,18.809,2.909,27.85
				c3.62,7.029,11.694,10.279,18.951,11.832c14.179,3.035,33.829,0.539,38.552-15.484
				C294.163,336.822,295.521,326.006,290.217,319.773z M280.982,342.49c-3.678,9.029-18.925,7.658-26.456,6.047
				c-4.931-1.055-9.347-3.256-11.383-8.127c-1.237-2.961-1.47-6.299-1.355-9.695c2.969,0.055,5.863-1.914,5.295-5.686
				c-0.636-4.219,0.401-4.518,4.5-4.592c4.488-0.08,9.116,1.318,13.448,2.35c4.827,1.148,11.894,0.385,15.983,3.273
				C284.911,328.811,282.438,338.914,280.982,342.49z"/>
		</g>
	</g>
</g>
</svg>
