<?xml version="1.0" encoding="utf-8"?>
<!-- Generator: Adobe Illustrator 16.0.3, SVG Export Plug-In . SVG Version: 6.00 Build 0)  -->
<!DOCTYPE svg PUBLIC "-//W3C//DTD SVG 1.1//EN" "http://www.w3.org/Graphics/SVG/1.1/DTD/svg11.dtd">
<svg version="1.1" id="Layer_1" xmlns="http://www.w3.org/2000/svg" xmlns:xlink="http://www.w3.org/1999/xlink" x="0px" y="0px"
	 width="512px" height="512px" viewBox="0 0 512 512" style="enable-background:new 0 0 512 512;" xml:space="preserve">
<style type="text/css">
<![CDATA[
	.st0{fill:#127274;}
	.st1{fill:#14B6B9;}
	.st2{fill:#1E4384;}
	.st3{fill:#EF4754;}
	.st4{fill:#EF4823;}
	.st5{fill:#BCBCBC;}
	.st6{fill:#F6851F;}
	.st7{fill:#C56528;}
	.st8{fill:#FCBF95;}
	.st9{fill:#FEBF10;}
	.st10{fill:none;}
	.st11{fill:#010101;}
	.st12{fill:#3AB37C;}
	.st13{fill:#D6E5E5;}
	.st14{fill:#71C598;}
	.st15{fill:#74CCCF;}
]]>
</style>
<g>
	<g>
		<g>
			<path class="st4" d="M285.728,464.373c-1.343-8.264-4.488-16.086-6.301-24.244c-3.522-15.844-7.051-31.738-12.404-47.08
				c-3.98,1.607-8.266,2.48-12.078,2.646c-5.095,0.221-10.235-0.545-14.817-2.367c-6.932,11.605-8.135,26.217-9.889,39.328
				c-1.841,13.771-1.006,28.006-4.175,41.58c16.826,3.266,34.443-0.557,51.498-1.309c1.774-1.393,4.292-1.75,6.482,0.166
				c0.393-0.666,0.722-1.439,0.917-2.139C285.577,468.756,286.097,466.65,285.728,464.373z"/>
		</g>
	</g>
	<g>
		<g>
			<path class="st4" d="M236.938,376.215c-0.124,0.262-0.239,0.527-0.347,0.797c0.103,0.186,0.208,0.367,0.317,0.549
				c0.086-0.115,0.174-0.248,0.259-0.398C237.118,376.84,237.041,376.521,236.938,376.215z"/>
		</g>
	</g>
	<g>
		<g>
			<path class="st4" d="M269.523,372.584c-2.229-4.557-7.348-6.285-12.085-6.744c-3.901-0.379-12.074-0.498-15.107,2.549
				c-1.666,1.676-3.101,3.566-4.242,5.637c-0.143,0.26-0.286,0.52-0.43,0.781c0.173,0.822-0.129,1.725-0.491,2.355
				c0.048,0.303,0.07,0.607,0.072,0.914c2.931,4.393,7.977,6.844,13.646,7.006c6.312,0.182,14.643-1.076,18.562-6.51
				C270.529,377.074,270.785,375.162,269.523,372.584z"/>
		</g>
	</g>
	<g>
		<g>
			<path class="st4" d="M248.045,249.385c-2.167-4.219-9.844-5.297-14.038-6.137c-6.521-1.305-13.126-2.1-19.742-2.729
				c-19.94-1.895-39.768-3.289-59.473-7.15c-21.146-4.141-41.799-10.018-61.747-18.184c-16.119-6.6-32.355-14.066-49.628-16.932
				c4.601,5.783,11.178,10.434,16.702,15.545c11.846,10.961,22.613,22.928,34.628,33.727c10.688,9.605,19.603,21.018,30.251,30.668
				c4.054,3.674,8.335,7.096,12.32,10.844c2.907,2.734,6.577,5.908,7.717,9.895c0.105,0.371,0.169,0.732,0.203,1.082
				c0.438,1.174,0.382,2.559-0.46,4.023c-6.772,11.793-10.476,24.848-14.055,37.881c-3.764,13.703-7.494,27.244-10.297,41.191
				c-1.528,7.604-2.99,15.227-4.71,22.789c-1.244,5.479-3.778,11.541-2.867,17.242c0.31,1.938,1.04,3.592,2.073,4.98
				c23.938-28.91,48.562-57.248,72.484-86.172c12.455-15.059,24.752-30.256,36.605-45.793c5.969-7.826,11.91-15.559,16.7-24.184
				c3.664-6.596,7.009-13.357,10.354-20.117C249.895,251.625,248.804,250.861,248.045,249.385z"/>
		</g>
	</g>
	<g>
		<g>
			<path class="st4" d="M247.363,139.967c0.59-39.574,3.36-79.088,3.634-118.668c-1.518,1.68-2.705,3.719-3.692,5.697
				c-5.897,11.801-10.583,24.367-15.894,36.455c-6.332,14.416-12.672,28.828-18.927,43.279
				c-12.427,28.711-24.533,57.561-35.712,86.783c-1.241,3.244-4.294,3.621-6.693,2.379c-1.655,0.746-3.665,0.705-5.481-0.746
				c-0.917-0.732-6.913-0.291-8.898-0.205c-3.552,0.152-7.11,0.496-10.666,0.537c-12.644,0.152-25.3,0.031-37.944,0.008
				c-12.477-0.023-25.121,0.1-37.548-1.188c10.097,3.619,19.976,7.996,29.802,11.965c20.775,8.387,42.502,14.168,64.582,17.939
				c19.051,3.252,38.213,4.203,57.375,6.359c7.104,0.801,14.37,1.688,21.218,3.824c2.719,0.848,5.769,1.848,8.45,3.344
				c-0.173-11.803-0.835-23.451-1.8-35.279C247.473,181.668,247.053,160.811,247.363,139.967z"/>
		</g>
	</g>
	<g>
		<g>
			<path class="st4" d="M234.965,372.9c0.088,0.217,0.168,0.441,0.234,0.686c0.021,0.076,0.05,0.148,0.072,0.225
				c0.793,0.602,1.353,1.453,1.667,2.404c0.226-0.477,0.469-0.945,0.721-1.408C237.476,373.932,236.751,373.152,234.965,372.9z"/>
		</g>
	</g>
	<g>
		<g>
			<path class="st4" d="M355.833,297.717c0.317-0.516,0.732-1.002,1.267-1.441c23.413-19.223,49.201-35.525,73.708-53.299
				c16.01-11.611,32.952-22.191,47.986-35.023c-5.634,1.043-11.299,1.904-16.965,2.74c-19.467,2.871-38.475,8.557-57.513,13.426
				c-44.725,11.438-90.738,18.682-136.61,24.24c0.781,3.172,3.24,6.061,4.94,8.707c2.341,3.646,4.183,7.547,6.32,11.311
				c5.37,9.453,10.282,19.154,15.53,28.676c10.285,18.656,21.319,37.344,33.598,54.762c6.251,8.865,13.215,17.295,19.068,26.426
				c5.388,8.4,10.101,17.184,14.961,25.893c5.132,9.197,10.31,18.367,16.392,26.979c3.978,5.631,8.073,11.176,11.854,16.936
				c0.285-6.135-1.167-13.5-1.75-16.5c-2.795-14.387-7.366-28.355-11.779-42.307c-4.807-15.193-10.533-30.104-14.385-45.59
				c-3.408-13.703-8.432-27.307-8.662-41.574C353.763,300.119,354.608,298.654,355.833,297.717z"/>
		</g>
	</g>
	<g>
		<g>
			<path class="st4" d="M480.39,194.455c-5.241,0.18-10.414,0.365-15.648-0.02c-14.131-1.039-28.277-1.232-42.388-2.557
				c-14.207-1.334-28.673-1.609-42.936-1.168c-11.9,0.369-24.321,1.482-35.866-2.094c-0.636-0.195-1.2-0.502-1.695-0.879
				c-1.892-0.033-3.648-1.096-4.26-3.561c-3.97-16.02-10.964-30.967-18.285-45.686c-13.938-28.021-25.474-57-38.168-85.59
				c-4.343-9.775-7.796-21.473-14.701-29.834c-1.217-1.473-2.899-3.086-4.802-4.143c-0.219,40.734-3.216,81.389-3.667,122.115
				c-0.23,20.838,0.13,41.715,1.991,62.48c1.046,11.674,1.564,23.178,1.668,34.842c46.057-5.439,92.461-12.369,137.367-23.852
				c19.122-4.891,38.367-10.938,57.917-13.85c6.095-0.908,12.198-1.77,18.269-2.832c2.932-0.514,5.879-1.012,8.762-1.76
				c1.066-0.275,2.152-0.543,3.183-0.939c0.065-0.025,0.115-0.043,0.169-0.064c0.288-0.27,0.597-0.492,0.918-0.678
				C485.577,194.236,482.892,194.369,480.39,194.455z"/>
		</g>
	</g>
	<g>
		<g>
			<path class="st4" d="M383.062,456.404c-4.814-7.578-10.285-14.701-15.336-22.133c-5.938-8.74-11.058-18.029-16.16-27.273
				c-5.098-9.232-10.121-18.578-16.207-27.211c-6.292-8.926-13.104-17.469-19.226-26.523
				c-12.314-18.225-23.624-37.426-34.023-56.801c-2.573-4.797-5.098-9.619-7.697-14.4c-2.393-4.398-5.808-8.873-7.59-13.537
				c-1.553-4.064-4.309-7.529-6.539-11.223c-3.478,7.074-6.954,14.162-10.905,20.984c-4.799,8.287-10.451,15.859-16.251,23.465
				c-11.848,15.531-24.081,30.766-36.532,45.818c-23.848,28.834-48.37,57.102-72.257,85.9c1.631,0.303,3.306,0.416,4.937,0.33
				c12.506-0.666,21.308-9.656,30.456-17.295c11.283-9.42,23.086-17.672,35.612-25.344c9.665-5.922,19.634-10.895,29.616-16.209
				c0.212-1.826,1.362-3.268,2.835-4.104c0.396-0.922,0.824-1.752,1.24-2.422c4.44-7.16,9.393-11.086,17.846-12.654
				c13.213-2.449,33.57,2.904,34.151,18.701c4.079,3.57,8.084,7.221,12.186,10.77c10.612,9.176,21.024,18.818,32.555,26.838
				c10.76,7.484,21.896,15.695,31.01,25.166c6.382,6.631,12.316,14.145,19.657,19.812c1.266-0.637,2.796-0.814,4.437-0.203
				c0.867,0.324,1.659,0.529,2.384,0.631C383.153,457.129,383.087,456.766,383.062,456.404z"/>
		</g>
	</g>
	<g>
		<g>
			<path d="M237.659,374.807c-0.252,0.463-0.495,0.932-0.721,1.408c0.103,0.307,0.18,0.625,0.229,0.947
				C237.53,376.531,237.832,375.629,237.659,374.807z"/>
		</g>
	</g>
	<g>
		<g>
			<path d="M502.747,192.691c0.746-2.379-0.019-5.16-2.622-6.328c-9.724-4.359-21.066-2.186-31.367-2.281
				c-6.65-0.061-13.359-0.822-20.013-1.096c-7.52-0.307-15.033-0.555-22.516-1.389c-14.363-1.598-28.858-1.592-43.291-1.592
				c-11.167-0.002-22.544,1.514-33.518-0.865c-0.668-0.508-1.482-0.865-2.434-1.004c-7.496-28-23.383-53.213-34.766-79.701
				c-6.28-14.611-12.377-29.301-18.733-43.881c-4.705-10.787-8.907-22.203-14.79-32.422c-4.981-8.654-12.781-15.516-23.283-14.799
				c-9.942,0.678-15.997,10.777-19.521,18.906c-11.952,27.555-24.051,55.062-35.946,82.648
				c-10.911,25.311-21.503,50.758-31.413,76.477c-5.839-2.357-13.729-1.094-19.51-0.754c-11.846,0.695-23.803,0.242-35.667,0.242
				c-13.406,0-26.823,0.027-40.204-0.887c-12.023-0.82-23.732-3.961-35.781-4.062c-1.776-4.463-10.078-3.08-10.306,2.922
				c-0.51,13.609,8.262,23.945,18.074,32.26c12.39,10.5,23.057,22.535,34.842,33.668c11.816,11.164,23.621,22.283,34.688,34.211
				c3.425,3.691,7.401,6.863,11.201,10.154c2.334,2.02,6.614,5.117,8.398,7.893c-6.096,11.182-9.739,23.488-13.145,35.711
				c-3.78,13.572-7.615,27.021-10.454,40.836c-1.444,7.027-2.806,14.074-4.287,21.096c-1.438,6.818-3.896,13.727-4.271,20.701
				c-0.504,9.391,4.003,17.404,12.222,21.908c8.132,4.455,18.501,3.799,27.024,1.023c5.676-1.848,10.387-5.646,15.023-9.277
				c5.898-4.617,11.497-9.602,17.375-14.246c11.356-8.979,23.661-16.693,36.115-24.053c6.131-3.621,12.57-6.682,18.924-9.904
				c0.723,0.992,1.519,1.914,2.376,2.768c-7.749,12.176-9.366,27.789-11.235,41.777c-2.114,15.832-0.804,32.363-5.67,47.746
				c-0.938,2.965,1.689,5.5,4.216,6.252c20.179,6.014,41.591,0.65,62.184,0.123c4.859,2.014,9.701-0.287,12.8-5.447
				c4.461-7.43,2.925-15.928,0.911-23.791c-2.89-11.285-5.897-22.467-8.554-33.82c-2.638-11.266-5.63-22.453-9.587-33.33
				c0.475-0.49,0.93-0.994,1.346-1.527c10.799,9.383,21.381,19.016,32.502,28.037c12.371,10.039,25.482,18.828,37.386,29.512
				c10.11,9.072,17.576,20.303,29.626,27.184c2.978,1.699,5.642,0.193,6.826-2.193c3.454,0.115,6.821-0.75,9.891-3.141
				c4.739-3.688,6.905-9.832,7.343-15.635c0.579-7.672-1.249-15.783-2.845-23.248c-1.791-8.375-4.071-16.619-6.541-24.818
				c-5.121-17.004-11.245-33.68-16.359-50.682c-2.441-8.117-4.447-16.365-6.692-24.539c-1.998-7.27-3.734-14.59-4.179-22.111
				c23.033-18.709,48.298-34.594,72.23-52.104c22.69-16.602,47.185-30.998,65.956-52.311
				C504.711,197.256,504.313,194.51,502.747,192.691z M107.089,195.486c12.645,0.023,25.301,0.145,37.944-0.008
				c3.556-0.041,7.114-0.385,10.666-0.537c1.985-0.086,7.981-0.527,8.898,0.205c1.816,1.451,3.826,1.492,5.481,0.746
				c2.399,1.242,5.452,0.865,6.693-2.379c11.179-29.223,23.285-58.072,35.712-86.783c6.255-14.451,12.595-28.863,18.927-43.279
				c5.311-12.088,9.996-24.654,15.894-36.455c0.987-1.979,2.175-4.018,3.692-5.697c-0.273,39.58-3.044,79.094-3.634,118.668
				c-0.311,20.844,0.109,41.701,1.805,62.484c0.965,11.828,1.627,23.477,1.8,35.279c-2.682-1.496-5.731-2.496-8.45-3.344
				c-6.848-2.137-14.114-3.023-21.218-3.824c-19.162-2.156-38.324-3.107-57.375-6.359c-22.08-3.771-43.807-9.553-64.582-17.939
				c-9.826-3.969-19.705-8.346-29.802-11.965C81.968,195.586,94.612,195.463,107.089,195.486z M112.85,423.141
				c-0.911-5.701,1.623-11.764,2.867-17.242c1.72-7.562,3.182-15.186,4.71-22.789c2.803-13.947,6.533-27.488,10.297-41.191
				c3.579-13.033,7.282-26.088,14.055-37.881c0.842-1.465,0.898-2.85,0.46-4.023c-0.034-0.35-0.098-0.711-0.203-1.082
				c-1.14-3.986-4.81-7.16-7.717-9.895c-3.985-3.748-8.267-7.17-12.32-10.844c-10.648-9.65-19.562-21.062-30.251-30.668
				c-12.015-10.799-22.782-22.766-34.628-33.727c-5.524-5.111-12.102-9.762-16.702-15.545c17.272,2.865,33.509,10.332,49.628,16.932
				c19.948,8.166,40.601,14.043,61.747,18.184c19.705,3.861,39.532,5.256,59.473,7.15c6.616,0.629,13.221,1.424,19.742,2.729
				c4.194,0.84,11.871,1.918,14.038,6.137c0.759,1.477,1.85,2.24,3.021,2.471c-3.345,6.76-6.689,13.521-10.354,20.117
				c-4.79,8.625-10.731,16.357-16.7,24.184c-11.854,15.537-24.15,30.734-36.605,45.793c-23.923,28.924-48.547,57.262-72.484,86.172
				C113.89,426.732,113.159,425.078,112.85,423.141z M279.427,440.129c1.812,8.158,4.958,15.98,6.301,24.244
				c0.369,2.277-0.15,4.383-0.767,6.582c-0.195,0.699-0.524,1.473-0.917,2.139c-2.19-1.916-4.708-1.559-6.482-0.166
				c-17.055,0.752-34.672,4.574-51.498,1.309c3.169-13.574,2.334-27.809,4.175-41.58c1.754-13.111,2.957-27.723,9.889-39.328
				c4.582,1.822,9.723,2.588,14.817,2.367c3.812-0.166,8.098-1.039,12.078-2.646C272.376,408.391,275.904,424.285,279.427,440.129z
				 M235.271,373.811c-0.022-0.076-0.051-0.148-0.072-0.225c-0.066-0.244-0.146-0.469-0.234-0.686
				c1.786,0.252,2.511,1.031,2.694,1.906c0.144-0.262,0.287-0.521,0.43-0.781c1.142-2.07,2.576-3.961,4.242-5.637
				c3.033-3.047,11.206-2.928,15.107-2.549c4.737,0.459,9.856,2.188,12.085,6.744c1.262,2.578,1.006,4.49-0.074,5.988
				c-3.92,5.434-12.25,6.691-18.562,6.51c-5.67-0.162-10.716-2.613-13.646-7.006c-0.002-0.307-0.024-0.611-0.072-0.914
				c-0.085,0.15-0.173,0.283-0.259,0.398c-0.109-0.182-0.215-0.363-0.317-0.549c0.107-0.27,0.223-0.535,0.347-0.797
				C236.624,375.264,236.064,374.412,235.271,373.811z M380.875,456.857c-1.641-0.611-3.171-0.434-4.437,0.203
				c-7.341-5.668-13.275-13.182-19.657-19.812c-9.113-9.471-20.25-17.682-31.01-25.166c-11.53-8.02-21.942-17.662-32.555-26.838
				c-4.102-3.549-8.106-7.199-12.186-10.77c-0.581-15.797-20.938-21.15-34.151-18.701c-8.453,1.568-13.405,5.494-17.846,12.654
				c-0.416,0.67-0.844,1.5-1.24,2.422c-1.473,0.836-2.623,2.277-2.835,4.104c-9.982,5.314-19.951,10.287-29.616,16.209
				c-12.526,7.672-24.329,15.924-35.612,25.344c-9.148,7.639-17.95,16.629-30.456,17.295c-1.631,0.086-3.306-0.027-4.937-0.33
				c23.887-28.799,48.409-57.066,72.257-85.9c12.451-15.053,24.685-30.287,36.532-45.818c5.8-7.605,11.452-15.178,16.251-23.465
				c3.951-6.822,7.428-13.91,10.905-20.984c2.23,3.693,4.986,7.158,6.539,11.223c1.782,4.664,5.197,9.139,7.59,13.537
				c2.6,4.781,5.124,9.604,7.697,14.4c10.399,19.375,21.709,38.576,34.023,56.801c6.122,9.055,12.934,17.598,19.226,26.523
				c6.086,8.633,11.109,17.979,16.207,27.211c5.103,9.244,10.223,18.533,16.16,27.273c5.051,7.432,10.521,14.555,15.336,22.133
				c0.025,0.361,0.092,0.725,0.197,1.084C382.534,457.387,381.742,457.182,380.875,456.857z M430.808,242.977
				c-24.507,17.773-50.295,34.076-73.708,53.299c-0.534,0.439-0.949,0.926-1.267,1.441c-1.225,0.938-2.07,2.402-2.039,4.359
				c0.23,14.268,5.254,27.871,8.662,41.574c3.852,15.486,9.578,30.396,14.385,45.59c4.413,13.951,8.984,27.92,11.779,42.307
				c0.583,3,2.035,10.365,1.75,16.5c-3.781-5.76-7.877-11.305-11.854-16.936c-6.082-8.611-11.26-17.781-16.392-26.979
				c-4.86-8.709-9.573-17.492-14.961-25.893c-5.854-9.131-12.817-17.561-19.068-26.426c-12.278-17.418-23.312-36.105-33.598-54.762
				c-5.248-9.521-10.16-19.223-15.53-28.676c-2.138-3.764-3.979-7.664-6.32-11.311c-1.7-2.646-4.159-5.535-4.94-8.707
				c45.872-5.559,91.886-12.803,136.61-24.24c19.038-4.869,38.046-10.555,57.513-13.426c5.666-0.836,11.331-1.697,16.965-2.74
				C463.76,220.785,446.817,231.365,430.808,242.977z M487.299,195.066c-0.054,0.021-0.104,0.039-0.169,0.064
				c-1.03,0.396-2.116,0.664-3.183,0.939c-2.883,0.748-5.83,1.246-8.762,1.76c-6.07,1.062-12.174,1.924-18.269,2.832
				c-19.55,2.912-38.795,8.959-57.917,13.85c-44.906,11.482-91.311,18.412-137.367,23.852c-0.104-11.664-0.622-23.168-1.668-34.842
				c-1.861-20.766-2.222-41.643-1.991-62.48c0.451-40.727,3.448-81.381,3.667-122.115c1.902,1.057,3.585,2.67,4.802,4.143
				c6.905,8.361,10.358,20.059,14.701,29.834c12.694,28.59,24.229,57.568,38.168,85.59c7.321,14.719,14.315,29.666,18.285,45.686
				c0.611,2.465,2.368,3.527,4.26,3.561c0.495,0.377,1.06,0.684,1.695,0.879c11.545,3.576,23.966,2.463,35.866,2.094
				c14.263-0.441,28.729-0.166,42.936,1.168c14.11,1.324,28.257,1.518,42.388,2.557c5.234,0.385,10.407,0.199,15.648,0.02
				c2.502-0.086,5.188-0.219,7.827-0.066C487.896,194.574,487.587,194.797,487.299,195.066z"/>
		</g>
	</g>
</g>
</svg>
