<?xml version="1.0" encoding="utf-8"?>
<!-- Generator: Adobe Illustrator 16.0.3, SVG Export Plug-In . SVG Version: 6.00 Build 0)  -->
<!DOCTYPE svg PUBLIC "-//W3C//DTD SVG 1.1//EN" "http://www.w3.org/Graphics/SVG/1.1/DTD/svg11.dtd">
<svg version="1.1" id="Layer_1" xmlns="http://www.w3.org/2000/svg" xmlns:xlink="http://www.w3.org/1999/xlink" x="0px" y="0px"
	 width="512px" height="512px" viewBox="0 0 512 512" style="enable-background:new 0 0 512 512;" xml:space="preserve">
<style type="text/css">
<![CDATA[
	.st0{fill:#127274;}
	.st1{fill:#14B6B9;}
	.st2{fill:#1E4384;}
	.st3{fill:#EF4754;}
	.st4{fill:#EF4823;}
	.st5{fill:#BCBCBC;}
	.st6{fill:#F6851F;}
	.st7{fill:#C56528;}
	.st8{fill:#FCBF95;}
	.st9{fill:#FEBF10;}
	.st10{fill:none;}
	.st11{fill:#010101;}
	.st12{fill:#3AB37C;}
	.st13{fill:#D6E5E5;}
	.st14{fill:#71C598;}
	.st15{fill:#74CCCF;}
]]>
</style>
<g>
	<g>
		<g>
			<path class="st4" d="M215.35,285.789c-0.11-0.061-0.22-0.117-0.332-0.188c-8.637-5.434-25.35,7.344-25.066,16.65
				c0.09,2.953-1.77,4.82-3.982,5.482c4.969,3.904,9.372,8.436,12.202,13.863c5.803-5.016,13.014-8.992,18.918-8.123
				C216.573,304.24,215.979,295.01,215.35,285.789z"/>
		</g>
	</g>
	<g>
		<g>
			<path class="st4" d="M217.821,327.844c-0.735-0.42-1.398-1.1-1.915-2.094c-0.647-1.242-0.575-1.51-2.177-0.957
				c-2.436,0.84-4.595,2.158-6.629,3.736c-3.087,2.391-7.341,5.762-8.708,9.594c-4.712,13.211,9.247,20.025,20.382,17.57
				C218.579,346.41,218.249,337.127,217.821,327.844z"/>
		</g>
	</g>
	<g>
		<g>
			<path class="st12" d="M174.195,385.959c-1.271,0.521-2.735,0.512-4.178-0.357c-8.841-5.332-12.662-13.979-12.274-23.178
				c-0.912-0.553-1.593-1.369-2.027-2.309c-2.717-0.414-5.464-2.373-7.957-3.477c-6.482-2.865-13.148-5.5-19.998-7.357
				c-13.896-3.766-28.163-5.746-41.743-10.68c-6.651-2.416-1.705-12.252,4.896-9.854c15.361,5.582,31.91,6.791,47.282,12.377
				c3.762,1.365,7.535,2.668,11.218,4.248c2.665,1.145,5.695,3.236,8.448,3.953c0.933,0.244,1.876,0.514,2.794,0.838
				c2.694-6.268,6.729-11.723,11.91-16.17c5.009-4.303,10.437-5.5,16.601-5.748c-4.065-10.352-16.794-16.736-25.843-22.004
				c-8.671-5.047-17.67-10.719-27.431-13.533c0.869,2.732,1.848,5.436,2.765,8.148c1.455,4.303-3.323,9.301-7.64,6.744
				c-12.771-7.562-29.119-15.383-44.456-12.986c1.606,3.773,3.673,7.363,5.096,11.242c1.053,2.871-0.605,5.953-3.374,7.01
				c-12.054,4.598-24.604,8.424-36.046,14.471c-3.814,2.018-8.717,4.092-4.384,7.695c3.446,2.867,7.511,4.883,11.604,6.662
				c6.506,2.83,17.047,4.846,14.24,14.48c-1.492,5.125-5.351,9.223-8.893,13.043c-2.029,2.188-7.652,6.91-7.428,10.229
				c0.296,4.373,9.869,5.918,13.254,6.574c6.449,1.248,13.444,2.42,20.035,2.4c8.24-0.025,17.775-0.35,20.251,9.471
				c1.709,6.771-1.553,13.902-5.045,20.025c11.145,5.82,27.606,4.844,38.774,1.566c3.13-0.92,7.366,1.031,7.304,4.768
				c-0.072,4.281-0.562,8.377-1.46,12.443c2.918-0.721,5.966-2.385,7.955-3.512c4.368-2.473,8.527-5.301,12.47-8.408
				c4.251-3.35,8.706-6.41,12.826-9.924c0.997-0.85,1.995-1.697,2.992-2.545c-1.472-1.102-2.854-2.312-4.122-3.635
				C176.422,402.223,173.618,393.973,174.195,385.959z"/>
		</g>
	</g>
	<g>
		<g>
			<path class="st4" d="M223.738,383.055c-1.018-0.301-1.969-0.982-2.718-2.135c-0.092-0.129-0.178-0.258-0.256-0.393
				c-6.018-9.688-18.597-14.793-28.364-6.871c-8.262,6.703-10.499,18.977-2.526,26.752c1.373,1.338,2.933,2.576,4.614,3.68
				c1.102-1.34,2.821-2.172,5.027-1.811c3.203,0.521,5.193,3.062,5.111,6.123c4.262,0.904,8.672,0.723,12.696-1.057
				c4.397-1.943,7.199-5.678,8.229-10.328C226.434,393.025,227.633,385.889,223.738,383.055z"/>
		</g>
	</g>
	<g>
		<g>
			<path class="st4" d="M320.194,140.391c-3.954-6.172-14.037-7.033-20.556-7.896c-4.51-0.598-9.067-1.027-13.621-0.777
				c-2.268,0.125-6.88,0.201-8.42,1.59c-0.509,0.459-1.05,0.801-1.603,1.045c-0.021,0.633-0.038,1.266-0.044,1.9
				c-0.063,7.051-11.034,7.934-10.971,0.848c0.015-1.627,0.072-3.27,0.152-4.914c-10.192,0.947-20.562,5.99-29.604,10.018
				c-3.82,1.701-7.589,3.559-11.115,5.818c-2.245,1.439-5.768,3.438-6.972,5.75c-0.013,0.023-0.015,0.033-0.027,0.055
				c1.359,1.008,3.071,1.645,4.684,2.074c5.962,1.584,12.194,2.385,18.34,2.816c13.229,0.93,26.697,0.23,39.808-1.732
				c9.367-1.4,18.168-3.012,26.896-6.768C309.373,149.256,322.026,143.248,320.194,140.391z"/>
		</g>
	</g>
	<g>
		<g>
			<path class="st4" d="M186.668,339.449c-2.886,0.41-5.472,1.404-8.07,3.857c-3.061,2.889-5.615,6.203-7.358,10.053
				c-2.975,6.562-4.155,14.758,0.796,20.061c1.951-0.283,3.967,0.326,5.07,1.908c2.021-4.066,5.065-7.779,9.145-10.791
				c2.53-1.867,5.207-3.234,7.949-4.16C188.38,354.99,185.514,347.123,186.668,339.449z"/>
		</g>
	</g>
	<g>
		<g>
			<path class="st9" d="M309.154,70.564c-0.369-11.752-4.96-23.117-12.38-32.262c-4.654-5.734-10.399-10.98-14.827-17.02
				c-3.766,6.555-8.75,12.314-14.04,18.053c-7.405,8.035-14.559,16.295-15.276,27.707c-0.567,9.023,1,18.764,4.011,27.26
				c2.173,6.137,5.448,13.463,11.673,16.09c0.175-0.053,0.352-0.102,0.53-0.146c2.246-7.916,1.303-16.363,4.694-24.018
				c2.872-6.484,12.724-1.582,9.854,4.895c-1.598,3.607-1.749,7.682-2.12,11.562c-0.154,1.615-0.394,3.164-0.669,4.699
				c6.19-1.93,12.151-4.637,17.154-8.643C306.615,91.652,309.502,81.621,309.154,70.564z"/>
		</g>
	</g>
	<g>
		<g>
			<path class="st6" d="M319.743,322.373c1.769-12.408,6.12-23.998,12.33-34.686c-1.386-1.104-2.288-2.836-2.007-5.062
				c0.61-4.828-0.624-10.021-1.215-14.807c-0.725-5.887-0.817-11.668-0.934-17.586c-0.243-12.482-0.955-24.949-1.872-37.398
				c-1.422-19.316-3.309-38.615-4.398-57.955c-3.906,2.748-8.371,4.803-12.796,6.504c-21.272,8.176-46.372,9.826-68.887,8.246
				c-6.944-0.486-16.39-0.816-23.771-3.889c1.163,33.08,6.393,66.09,8.713,99.078c2.409,34.242,4.785,68.617,5.021,102.955
				c0.012,0.156,0.023,0.312,0.023,0.479v5c0,0.248-0.018,0.486-0.043,0.721c2.051,1.438,3.653,3.254,4.856,5.324
				c0.353-0.066,0.727-0.107,1.13-0.107c0.607,0,3.207-1.59,3.959-1.865c1.146-0.434,2.299-0.846,3.46-1.238
				c2.831-0.932,5.679-1.805,8.557-2.586c2.599-0.707,5.204-1.387,7.807-2.082c-1.858-1.982-3.974-3.777-5.841-5.611
				c-3.133-3.07-1.883-9.602,3.206-9.617c19.865-0.053,41.469-1.918,58.871,9.559c1.184,0.781,1.923,1.812,2.311,2.926
				c0.547,0.031,1.094,0.072,1.637,0.133C319.362,353.387,317.575,337.578,319.743,322.373z"/>
		</g>
	</g>
	<g>
		<g>
			<path class="st4" d="M199.836,428.807c-2.411-2.158-2.241-5.293-0.502-7.762c0.563-0.801,1.157-1.531,1.776-2.211
				c-1.327-0.293-2.64-0.648-3.929-1.082c-6.07,5.064-12.286,9.879-18.442,14.814c-1.829,1.467-3.795,3.018-5.869,4.547
				c0.008,0.199,0.007,0.402-0.006,0.611c-0.408,6.975,5.283,15.572,11.849,17.943c7.608-7.6,15.347-15.203,23.909-21.73
				C205.571,432.459,202.416,431.121,199.836,428.807z"/>
		</g>
	</g>
	<g>
		<g>
			<path class="st12" d="M492.906,255.75c-0.805-1.291-5.433-0.377-7.377-0.119c-3.402,0.453-6.683,0.842-10.113,0.443
				c-3.85-0.445-5.043-4.762-3.877-7.846c4.386-11.602,7.923-24.303,9.057-36.863c-17.062,6.963-29.583,21.662-44.055,32.869
				c-3.15,2.441-8.562-0.098-8.561-4.135c0.001-2.459,0.023-4.916,0.085-7.369c-4.159,4.193-8.072,8.646-12.07,12.992
				c-5.044,5.48-10.32,10.748-15.478,16.119c-3.544,3.693-9.62,10.676-15.5,7.76c-2.533-1.256-3.734-3.303-4.354-5.658
				c-4.412,5.084-8.925,10.086-12.938,15.451c-4.889,6.537-8.452,13.963-14.128,19.912c-2.487,2.607-6.567,2.404-8.691-0.557
				c-1.248-1.738-2.424-3.566-3.488-5.463c-5.872,10.072-9.929,21.252-11.081,32.877c-1.513,15.25,0.397,30.898,0.594,46.227
				c1.487,0.887,2.888,1.93,4.166,3.152c0.634,0.607,1.229,1.256,1.791,1.932c4.287-10.725,13.045-19.885,23.59-21.822
				c6-1.102,11.759,0.133,16.88,2.859c0.698-3.287,2.142-6.432,3.781-9.379c3.029-5.449,5.875-10.979,8.843-16.463
				c6.689-12.365,14.159-24.254,21.573-36.191c6.553-10.551,12.786-22.355,20.973-31.723c2.381-2.725,4.656-5.564,6.743-8.521
				c0.869-1.23,1.731-2.477,2.444-3.807c0.183-0.342,0.373-0.688,0.55-1.039c-0.398-3.961,3.297-8.211,7.648-5.641
				c8.061,4.764,0.002,14.65-3.668,19.512c-2.071,2.744-4.712,5.238-6.647,8.047c-4.15,6.023-8.167,12.135-12.08,18.316
				c-7.827,12.363-15.753,24.738-22.982,37.465c-3.65,6.428-6.836,13.109-10.479,19.531c-2.411,4.25-6.563,9.512-6.105,14.633
				c0.113,1.268-0.15,2.33-0.654,3.188c4.593,5.123,7.958,11.424,9.479,17.633c1.993,8.141,1.302,18.131-4.29,24.805
				c-3.922,4.68-9.412,7.604-15.238,9.211c11.178,1.756,23.75-2.342,34.546-4.543c1.595-0.326,3.768-0.648,5.354-1.459
				c-0.06-0.07-0.12-0.145-0.195-0.232c-0.584-0.684-1.217-1.33-1.786-2.029c-3.327-4.082-2.716-8.896,1.503-12.01
				c3.863-2.85,8.265-4.971,12.547-7.113c7.159-3.586,14.162-8.67,20.854-13.068c1.187-0.779,9.997-5.691,8.037-7.043
				c-3.584-2.473-9.088-2.244-13.088-3.988c-3.501-1.525-3.659-5.838-1.684-8.557c6.338-8.73,15.247-14.955,22.074-23.227
				c1.469-1.779,3.025-3.617,4.087-5.693c-3.177-0.285-6.431,0.016-9.605,0.035c-3.75,0.023-7.783-4.096-5.351-7.932
				c10.529-16.609,23.643-31.02,32.284-48.816c1.637-3.371,3.364-6.729,4.685-10.24C492.018,260.816,493.755,257.115,492.906,255.75
				z"/>
		</g>
	</g>
	<g>
		<g>
			<path class="st4" d="M442.772,395.168c-5.797,3.596-10.771,6.021-16.604,9.559c-0.181,0.111-0.399,0.232-0.63,0.359
				c1.775,2.098,3.008,4.467,3.073,7.268c0.112,4.729-2.981,7.707-6.789,9.531c0.814,1.617,1.545,3.279,2.175,4.979
				c2.31,0.039,4.078,0.607,6.394-0.049c4.695-1.332,9.067-3.137,11.895-7.34C446.196,413.66,449.132,400.449,442.772,395.168z"/>
		</g>
	</g>
	<g>
		<g>
			<path class="st4" d="M410.969,424.863c-4.535,0.914-8.967,1.723-13.614,2.629c-6.854,1.336-13.988,2.514-20.941,1.617
				c2.614,6.854,2.688,14.146,0.518,20.686c0.083,0.594,0.071,1.236-0.066,1.93c-0.056,0.283-0.121,0.395-0.174,0.434
				c0.05,0.037,0.115,0.096,0.217,0.225c0.137,0.172,1.146,0.9,1.707,1.172c2.283,1.105,4.677,1.752,7.176,2.18
				c5.631,0.965,11.541,1.305,17.212,0.434C417.913,453.877,417.066,435.229,410.969,424.863z"/>
		</g>
	</g>
	<g>
		<g>
			<path class="st4" d="M386.317,387.365c-1.971-9.459-11.291-21.912-22.155-21.107c-11.856,0.879-22.124,18.711-18.578,30.18
				c0.657,0.73,1.149,1.664,1.367,2.814c0.024,0.129,0.061,0.25,0.09,0.375c0.473,0.752,0.742,1.508,0.844,2.24
				c3.831,7.008,16.64,7.451,23.144,6.377c4.461-0.736,9.64-2.391,12.653-5.986C387.047,398.242,387.349,392.312,386.317,387.365z"
				/>
		</g>
	</g>
	<g>
		<g>
			<path class="st4" d="M328.761,384.695c-6.738-6.455-19.362-6.752-26.633-0.848c-4.923,3.996-5.376,16.764,0.785,19.9
				c2.361,1.203,3.155,3.336,2.896,5.367c1.98,0.996,4.129,1.832,6.311,2.402c0.846-0.336,1.692-0.668,2.528-1.033
				c2.625-1.15,4.77-0.145,5.977,1.646c1.801-0.277,3.497-0.861,4.988-1.844C332.759,405.574,335.327,390.984,328.761,384.695z"/>
		</g>
	</g>
	<g>
		<g>
			<path class="st12" d="M322.579,458.143c-1.867-2.217-3.466-4.682-4.709-7.369c-4.349-9.396-4.153-19.406-0.118-27.699
				c-1.434-0.004-2.878-0.111-4.319-0.295c-6.796,2.457-13.842,4.125-20.776,6.188c-8.874,2.637-17.131,6.416-25.219,10.916
				c-6.156,3.424-11.586,7.266-16.779,11.971c-2.223,2.012-4.459,4.018-6.6,6.119c-0.905,0.887-1.825,1.77-2.666,2.721
				c-0.914,1.031-0.849,1.564-0.528,0.031c-1.449,6.938-12.25,4.85-10.798-2.1c1.063-5.086,7.077-9.266,10.677-12.535
				c5.596-5.086,11.026-9.891,17.645-13.689c8.649-4.965,17.768-9.867,27.317-12.814c3.583-1.105,7.212-2.082,10.833-3.084
				c-1.709-1.125-3.295-2.359-4.702-3.695c-2.018-1.91-2.12-4.348-1.195-6.311c-1.694-2.928-2.669-6.314-2.91-9.771
				c-0.437-6.271,0.46-14.965,5.408-19.525c2.669-2.461,5.948-4.455,9.529-5.904c-10.229-4.02-21.464-4.395-32.61-4.287
				c1.375,1.789,2.609,3.699,3.6,5.85c1.21,2.627-0.692,6.223-3.374,7.01c-6.028,1.77-12.16,3.174-18.179,4.98
				c-2.896,0.869-5.795,1.762-8.613,2.859c-0.121,0.047-0.248,0.105-0.372,0.158c-0.752,1.342-2.143,2.295-4.229,2.295h-1.299
				c0.237,10.137-4.887,21.275-12.897,25.707c-2.804,1.551-5.824,2.604-8.941,3.215c0.179,2.041-0.621,4.188-2.48,5.312
				c3.062,1.486,6.233,2.826,8.825,5.148c2.604,2.336,2.446,6.736-0.556,8.691c-7.834,5.104-14.808,11.287-21.515,17.756
				c3.172,0.342,6.336,0.775,9.489,1.287c2.39,0.387,4.27,2.594,4.436,4.975c0.441,6.398-2.126,12.596-6.11,17.75
				c17.171,0.51,34.396-1.188,50.807-6.518c2.136-0.695,5.258-0.086,6.378,2.115c1.377,2.707,1.949,5.277,1.912,7.922
				c12.096-0.713,22.035-9.664,32.453-15.406c2.592-1.43,5.886-1.189,7.635,1.484c1.648,2.521,2.543,5.107,3.22,7.795
				c1.556-1.305,2.97-2.803,4.182-4.121c1.642-1.791,3.379-3.654,4.566-5.793c0.44-0.795,1.089-1.732,1.257-2.639
				c0.383-2.066,0.016-0.369,0.024-0.348C319.147,461.602,320.492,459.285,322.579,458.143z"/>
		</g>
	</g>
	<g>
		<g>
			<path class="st4" d="M365.883,432.074c-3.047-5.354-7.776-9.307-13.352-11.871c-5.188-2.389-12.522-4.9-16.934,0.104
				c-1.204,1.367-2.646,1.898-4.044,1.85c-6.454,6.158-7.952,16.512-3.456,24.664c5.558,10.078,17.871,15.865,28.838,10.533
				C365.746,453.068,370.997,441.059,365.883,432.074z"/>
		</g>
	</g>
	<g>
		<g>
			<path d="M500.608,247.76c-4.507-4.842-10.496-3.57-16.33-2.781c4.458-13.459,7.515-27.609,7.673-41.727
				c0.043-3.85-4.15-5.533-7.304-4.768c-18.4,4.469-31.591,17.395-45.433,29.346c0.137-2.369,0.341-4.736,0.649-7.105
				c0.574-4.404-4.399-8.742-8.474-5.609c-12.797,9.842-22.267,23.027-34.057,33.93c-2.421,2.238-4.437,4.863-6.743,7.211
				c-0.193-2.5-0.297-4.939-0.934-7.398c-1.007-3.889-6.927-4.977-9.323-1.812c-6.295,8.307-13.141,16.158-20,24
				c-4.013,4.586-6.841,10.012-10.264,15.021c-0.98-1.984-1.805-4.047-2.413-6.209c-0.759-2.689-3.97-4.131-6.611-3.545
				c-0.445-7.25-2.082-14.535-2.099-21.766c-0.029-12.994-0.776-25.984-1.673-38.943c-1.761-25.447-4.544-50.844-5.323-76.352
				c-0.063-2.094-1.07-3.488-2.443-4.24c-2.006-3.375-5.365-6.264-8.595-8.264c-6.875-4.258-17.266-5.025-25.085-5.699
				c-5.836-0.502-12.547-0.895-18.443,0.744c0.15-0.811,0.308-1.619,0.478-2.424c20.946-5.502,40.62-17.543,42.004-41.635
				c0.811-14.111-2.072-25.941-9.083-38.201c-3.472-6.07-8.002-11.158-12.718-16.279c-4.49-4.877-9.403-9.93-11.408-16.396
				c-1.737-5.605-9.208-4.164-10.591,0.768c-3.443,12.295-13.469,20.807-21.526,30.131c-8.093,9.363-12.746,19.713-12.925,32.146
				c-0.238,16.9,5.373,45.865,24.433,51.432c-10.835,0.807-20.831,5.088-31.027,9.162c-7.479,2.988-15.094,6.672-21.415,11.713
				c-2.767,2.205-5.499,5.279-6.739,8.621c-1.126,0.971-1.893,2.4-1.886,4.27c0.068,18.121,1.942,36.135,3.88,54.133
				c2.023,18.777,3.721,37.594,5.077,56.432c0.192,2.668,0.381,5.338,0.57,8.006c-6.877-1.281-14.492,1.777-20.243,5.252
				c-8.312,5.021-15.441,13.82-15.279,23.881c-2.724-1.75-5.477-3.367-8.123-4.883c-12.849-7.354-26.209-16.299-41.347-17.643
				c-3.193-0.285-7.247,1.982-6.535,5.822c0.34,1.828,0.759,3.623,1.224,5.404c-14.589-6.875-31.103-11.061-46.557-6.02
				c-3.113,1.014-3.985,4.133-3.373,7.01c0.916,4.307,2.978,8.137,4.856,12.059c-10.154,3.764-20.354,7.381-30.093,12.17
				c-8.98,4.418-17.888,11.533-12.253,22.221c3.985,7.557,15.354,11.955,22.883,14.611c0.846,0.299,1.913,0.559,2.87,0.926
				c-0.062,0.127-0.13,0.262-0.209,0.416c-0.698,1.35-1.733,2.496-2.699,3.652c-3.637,4.354-7.6,8.178-10.694,12.979
				c-4.059,6.297-2.968,13.812,2.728,18.598c5.68,4.773,13.979,6.305,21.082,7.434c7.382,1.176,15.009,1.922,22.478,1.787
				c4.686-0.084,5.764,0.461,4.585,5.279c-1.091,4.461-3.934,8.705-6.269,12.604c-1.197,1.998-0.526,5.168,1.297,6.578
				c12.082,9.355,30.151,10.703,45.487,7.932c-0.521,2.998-1.31,5.941-2.257,8.887c-0.668,2.08,0.865,5.264,2.951,5.977
				c7.303,2.496,14.78,0.553,21.696-3.025c2.001,9.488,8.245,18.941,17.304,22.025c1.758,0.6,3.395,0.342,4.731-0.393
				c0.936,0.582,2.021,0.939,3.141,0.951c4.887,0.053,9.74,0.506,14.572,1.17c-1.621,5.371-6.639,10.082-11.071,12.785
				c-3.868,2.359-2.796,9.539,2.025,9.959c20.913,1.822,41.981,1.18,62.257-4.266c-0.213,0.67-0.445,1.303-0.606,1.816
				c-0.87,2.783,1.626,6.039,4.35,6.449c15.954,2.402,27.77-5.912,40.469-13.557c0.588,2.285,0.881,4.678,1.39,6.977
				c0.694,3.154,4.376,3.973,7.009,3.373c6.266-1.43,11.897-7.432,15.949-12.053c3.042-3.469,6.595-8.355,7.041-13.297
				c8.979,5.357,20.272,6.609,30.23,1.768c3.271-1.592,6.1-3.66,8.464-6.072c8.118,6.826,25.882,6.975,33.882,5.924
				c9.453-1.24,17.716-8.338,20.938-17.24c1.373-3.795,1.848-7.695,1.654-11.568c0.046-0.027,0.09-0.059,0.136-0.086
				c0.188,0.014,0.373,0.041,0.562,0.045c1.932,0.16,3.67-0.311,5.541-0.744c3.433-0.799,6.571-2.088,9.708-3.664
				c5.879-2.957,10.04-8.781,12.209-14.838c3.574-9.984,3.969-21.488-2.463-29.551c4.177-2.471,8.336-5.023,11.938-8.115
				c5.128-4.4,7.516-11.551,2.938-17.344c-2.575-3.258-6.136-4.322-9.816-5.195c8.64-8.766,19.737-16.494,23.477-28.107
				c2.9-9.008-3.797-11.615-11.049-12.328c5.416-7.586,11.285-14.85,16.549-22.547c5.49-8.027,9.794-16.631,13.8-25.469
				C503.138,263.395,506.628,254.225,500.608,247.76z M256.642,94.303c-3.011-8.496-4.578-18.236-4.011-27.26
				c0.718-11.412,7.871-19.672,15.276-27.707c5.29-5.738,10.274-11.498,14.04-18.053c4.428,6.039,10.173,11.285,14.827,17.02
				c7.42,9.145,12.011,20.51,12.38,32.262c0.348,11.057-2.539,21.088-11.396,28.178c-5.003,4.006-10.964,6.713-17.154,8.643
				c0.275-1.535,0.515-3.084,0.669-4.699c0.371-3.881,0.522-7.955,2.12-11.562c2.87-6.477-6.981-11.379-9.854-4.895
				c-3.392,7.654-2.448,16.102-4.694,24.018c-0.179,0.045-0.355,0.094-0.53,0.146C262.09,107.766,258.814,100.439,256.642,94.303z
				 M217.441,153.771c1.204-2.312,4.727-4.311,6.972-5.75c3.526-2.26,7.295-4.117,11.115-5.818
				c9.043-4.027,19.412-9.07,29.604-10.018c-0.08,1.645-0.138,3.287-0.152,4.914c-0.063,7.086,10.907,6.203,10.971-0.848
				c0.006-0.635,0.022-1.268,0.044-1.9c0.553-0.244,1.094-0.586,1.603-1.045c1.54-1.389,6.152-1.465,8.42-1.59
				c4.554-0.25,9.111,0.18,13.621,0.777c6.519,0.863,16.602,1.725,20.556,7.896c1.832,2.857-10.821,8.865-13.053,9.826
				c-8.729,3.756-17.529,5.367-26.896,6.768c-13.11,1.963-26.578,2.662-39.808,1.732c-6.146-0.432-12.378-1.232-18.34-2.816
				c-1.612-0.43-3.324-1.066-4.684-2.074C217.427,153.805,217.429,153.795,217.441,153.771z M239.965,169.629
				c22.515,1.58,47.614-0.07,68.887-8.246c4.425-1.701,8.89-3.756,12.796-6.504c1.09,19.34,2.977,38.639,4.398,57.955
				c0.917,12.449,1.629,24.916,1.872,37.398c0.116,5.918,0.209,11.699,0.934,17.586c0.591,4.785,1.825,9.979,1.215,14.807
				c-0.281,2.227,0.621,3.959,2.007,5.062c-6.21,10.688-10.562,22.277-12.33,34.686c-2.168,15.205-0.381,31.014,0.117,46.434
				c-0.543-0.061-1.09-0.102-1.637-0.133c-0.388-1.113-1.127-2.145-2.311-2.926c-17.402-11.477-39.006-9.611-58.871-9.559
				c-5.089,0.016-6.339,6.547-3.206,9.617c1.867,1.834,3.982,3.629,5.841,5.611c-2.603,0.695-5.208,1.375-7.807,2.082
				c-2.878,0.781-5.726,1.654-8.557,2.586c-1.161,0.393-2.314,0.805-3.46,1.238c-0.752,0.275-3.352,1.865-3.959,1.865
				c-0.403,0-0.777,0.041-1.13,0.107c-1.203-2.07-2.806-3.887-4.856-5.324c0.025-0.234,0.043-0.473,0.043-0.721v-5
				c0-0.166-0.012-0.322-0.023-0.479c-0.235-34.338-2.611-68.713-5.021-102.955c-2.32-32.988-7.55-65.998-8.713-99.078
				C223.575,168.812,233.021,169.143,239.965,169.629z M194.199,360.377c-2.742,0.926-5.419,2.293-7.949,4.16
				c-4.079,3.012-7.123,6.725-9.145,10.791c-1.104-1.582-3.119-2.191-5.07-1.908c-4.951-5.303-3.771-13.498-0.796-20.061
				c1.743-3.85,4.298-7.164,7.358-10.053c2.599-2.453,5.185-3.447,8.07-3.857C185.514,347.123,188.38,354.99,194.199,360.377z
				 M192.4,373.656c9.768-7.922,22.347-2.816,28.364,6.871c0.078,0.135,0.164,0.264,0.256,0.393c0.749,1.152,1.7,1.834,2.718,2.135
				c3.895,2.834,2.695,9.971,1.813,13.961c-1.029,4.65-3.831,8.385-8.229,10.328c-4.024,1.779-8.435,1.961-12.696,1.057
				c0.082-3.061-1.908-5.602-5.111-6.123c-2.206-0.361-3.926,0.471-5.027,1.811c-1.682-1.104-3.241-2.342-4.614-3.68
				C181.901,392.633,184.139,380.359,192.4,373.656z M198.393,338.123c1.367-3.832,5.621-7.203,8.708-9.594
				c2.034-1.578,4.193-2.896,6.629-3.736c1.602-0.553,1.529-0.285,2.177,0.957c0.517,0.994,1.18,1.674,1.915,2.094
				c0.428,9.283,0.758,18.566,0.953,27.85C207.64,358.148,193.681,351.334,198.393,338.123z M189.951,302.252
				c-0.283-9.307,16.43-22.084,25.066-16.65c0.112,0.07,0.222,0.127,0.332,0.188c0.629,9.221,1.224,18.451,1.739,27.686
				c-5.904-0.869-13.115,3.107-18.918,8.123c-2.83-5.428-7.233-9.959-12.202-13.863
				C188.182,307.072,190.041,305.205,189.951,302.252z M170.916,424.775c-3.942,3.107-8.102,5.936-12.47,8.408
				c-1.989,1.127-5.037,2.791-7.955,3.512c0.897-4.066,1.388-8.162,1.46-12.443c0.062-3.736-4.174-5.688-7.304-4.768
				c-11.168,3.277-27.63,4.254-38.774-1.566c3.492-6.123,6.754-13.254,5.045-20.025c-2.476-9.82-12.011-9.496-20.251-9.471
				c-6.591,0.02-13.586-1.152-20.035-2.4c-3.385-0.656-12.958-2.201-13.254-6.574c-0.225-3.318,5.398-8.041,7.428-10.229
				c3.542-3.82,7.4-7.918,8.893-13.043c2.807-9.635-7.734-11.65-14.24-14.48c-4.094-1.779-8.158-3.795-11.604-6.662
				c-4.333-3.604,0.569-5.678,4.384-7.695c11.442-6.047,23.992-9.873,36.046-14.471c2.769-1.057,4.427-4.139,3.374-7.01
				c-1.423-3.879-3.489-7.469-5.096-11.242c15.337-2.396,31.686,5.424,44.456,12.986c4.316,2.557,9.095-2.441,7.64-6.744
				c-0.917-2.713-1.896-5.416-2.765-8.148c9.761,2.814,18.76,8.486,27.431,13.533c9.049,5.268,21.777,11.652,25.843,22.004
				c-6.164,0.248-11.592,1.445-16.601,5.748c-5.181,4.447-9.216,9.902-11.91,16.17c-0.918-0.324-1.861-0.594-2.794-0.838
				c-2.753-0.717-5.783-2.809-8.448-3.953c-3.683-1.58-7.456-2.883-11.218-4.248c-15.372-5.586-31.921-6.795-47.282-12.377
				c-6.601-2.398-11.547,7.438-4.896,9.854c13.58,4.934,27.847,6.914,41.743,10.68c6.85,1.857,13.516,4.492,19.998,7.357
				c2.493,1.104,5.24,3.062,7.957,3.477c0.435,0.939,1.115,1.756,2.027,2.309c-0.388,9.199,3.434,17.846,12.274,23.178
				c1.442,0.869,2.906,0.879,4.178,0.357c-0.577,8.014,2.227,16.264,8.417,22.713c1.268,1.322,2.65,2.533,4.122,3.635
				c-0.997,0.848-1.995,1.695-2.992,2.545C179.622,418.365,175.167,421.426,170.916,424.775z M184.713,455.668
				c-6.565-2.371-12.257-10.969-11.849-17.943c0.013-0.209,0.014-0.412,0.006-0.611c2.074-1.529,4.04-3.08,5.869-4.547
				c6.156-4.936,12.372-9.75,18.442-14.814c1.289,0.434,2.602,0.789,3.929,1.082c-0.619,0.68-1.213,1.41-1.776,2.211
				c-1.739,2.469-1.909,5.604,0.502,7.762c2.58,2.314,5.735,3.652,8.786,5.131C200.06,440.465,192.321,448.068,184.713,455.668z
				 M320.274,464.494c-0.009-0.021,0.358-1.719-0.024,0.348c-0.168,0.906-0.816,1.844-1.257,2.639
				c-1.188,2.139-2.925,4.002-4.566,5.793c-1.212,1.318-2.626,2.816-4.182,4.121c-0.677-2.688-1.571-5.273-3.22-7.795
				c-1.749-2.674-5.043-2.914-7.635-1.484c-10.418,5.742-20.357,14.693-32.453,15.406c0.037-2.645-0.535-5.215-1.912-7.922
				c-1.12-2.201-4.242-2.811-6.378-2.115c-16.41,5.33-33.636,7.027-50.807,6.518c3.984-5.154,6.552-11.352,6.11-17.75
				c-0.166-2.381-2.046-4.588-4.436-4.975c-3.153-0.512-6.317-0.945-9.489-1.287c6.707-6.469,13.681-12.652,21.515-17.756
				c3.002-1.955,3.16-6.355,0.556-8.691c-2.592-2.322-5.763-3.662-8.825-5.148c1.859-1.125,2.659-3.271,2.48-5.312
				c3.117-0.611,6.138-1.664,8.941-3.215c8.011-4.432,13.135-15.57,12.897-25.707h1.299c2.087,0,3.478-0.953,4.229-2.295
				c0.124-0.053,0.251-0.111,0.372-0.158c2.818-1.098,5.718-1.99,8.613-2.859c6.019-1.807,12.15-3.211,18.179-4.98
				c2.682-0.787,4.584-4.383,3.374-7.01c-0.99-2.15-2.225-4.061-3.6-5.85c11.146-0.107,22.381,0.268,32.61,4.287
				c-3.581,1.449-6.86,3.443-9.529,5.904c-4.948,4.561-5.845,13.254-5.408,19.525c0.241,3.457,1.216,6.844,2.91,9.771
				c-0.925,1.963-0.822,4.4,1.195,6.311c1.407,1.336,2.993,2.57,4.702,3.695c-3.621,1.002-7.25,1.979-10.833,3.084
				c-9.55,2.947-18.668,7.85-27.317,12.814c-6.618,3.799-12.049,8.604-17.645,13.689c-3.6,3.27-9.613,7.449-10.677,12.535
				c-1.452,6.949,9.349,9.037,10.798,2.1c-0.32,1.533-0.386,1,0.528-0.031c0.841-0.951,1.761-1.834,2.666-2.721
				c2.141-2.102,4.377-4.107,6.6-6.119c5.193-4.705,10.623-8.547,16.779-11.971c8.088-4.5,16.345-8.279,25.219-10.916
				c6.935-2.062,13.98-3.73,20.776-6.188c1.441,0.184,2.886,0.291,4.319,0.295c-4.035,8.293-4.23,18.303,0.118,27.699
				c1.243,2.688,2.842,5.152,4.709,7.369C320.492,459.285,319.147,461.602,320.274,464.494z M320.624,412.131
				c-1.207-1.791-3.352-2.797-5.977-1.646c-0.836,0.365-1.683,0.697-2.528,1.033c-2.182-0.57-4.33-1.406-6.311-2.402
				c0.26-2.031-0.534-4.164-2.896-5.367c-6.161-3.137-5.708-15.904-0.785-19.9c7.271-5.904,19.895-5.607,26.633,0.848
				c6.566,6.289,3.998,20.879-3.148,25.592C324.121,411.27,322.425,411.854,320.624,412.131z M356.936,457.354
				c-10.967,5.332-23.28-0.455-28.838-10.533c-4.496-8.152-2.998-18.506,3.456-24.664c1.397,0.049,2.84-0.482,4.044-1.85
				c4.411-5.004,11.745-2.492,16.934-0.104c5.575,2.564,10.305,6.518,13.352,11.871
				C370.997,441.059,365.746,453.068,356.936,457.354z M347.885,401.867c-0.102-0.732-0.371-1.488-0.844-2.24
				c-0.029-0.125-0.065-0.246-0.09-0.375c-0.218-1.15-0.71-2.084-1.367-2.814c-3.546-11.469,6.722-29.301,18.578-30.18
				c10.864-0.805,20.185,11.648,22.155,21.107c1.031,4.947,0.729,10.877-2.636,14.893c-3.014,3.596-8.192,5.25-12.653,5.986
				C364.524,409.318,351.716,408.875,347.885,401.867z M403.002,456.168c-5.671,0.871-11.581,0.531-17.212-0.434
				c-2.499-0.428-4.893-1.074-7.176-2.18c-0.562-0.271-1.57-1-1.707-1.172c-0.102-0.129-0.167-0.188-0.217-0.225
				c0.053-0.039,0.118-0.15,0.174-0.434c0.138-0.693,0.149-1.336,0.066-1.93c2.171-6.539,2.097-13.832-0.518-20.686
				c6.953,0.896,14.087-0.281,20.941-1.617c4.647-0.906,9.079-1.715,13.614-2.629C417.066,435.229,417.913,453.877,403.002,456.168z
				 M442.285,419.475c-2.827,4.203-7.199,6.008-11.895,7.34c-2.315,0.656-4.084,0.088-6.394,0.049
				c-0.63-1.699-1.36-3.361-2.175-4.979c3.808-1.824,6.901-4.803,6.789-9.531c-0.065-2.801-1.298-5.17-3.073-7.268
				c0.23-0.127,0.449-0.248,0.63-0.359c5.834-3.537,10.808-5.963,16.604-9.559C449.132,400.449,446.196,413.66,442.285,419.475z
				 M491.508,262.172c-1.32,3.512-3.048,6.869-4.685,10.24c-8.642,17.797-21.755,32.207-32.284,48.816
				c-2.433,3.836,1.601,7.955,5.351,7.932c3.175-0.02,6.429-0.32,9.605-0.035c-1.062,2.076-2.618,3.914-4.087,5.693
				c-6.827,8.271-15.736,14.496-22.074,23.227c-1.976,2.719-1.817,7.031,1.684,8.557c4,1.744,9.504,1.516,13.088,3.988
				c1.96,1.352-6.851,6.264-8.037,7.043c-6.691,4.398-13.694,9.482-20.854,13.068c-4.282,2.143-8.684,4.264-12.547,7.113
				c-4.219,3.113-4.83,7.928-1.503,12.01c0.569,0.699,1.202,1.346,1.786,2.029c0.075,0.088,0.136,0.162,0.195,0.232
				c-1.586,0.811-3.759,1.133-5.354,1.459c-10.796,2.201-23.368,6.299-34.546,4.543c5.826-1.607,11.316-4.531,15.238-9.211
				c5.592-6.674,6.283-16.664,4.29-24.805c-1.521-6.209-4.886-12.51-9.479-17.633c0.504-0.857,0.768-1.92,0.654-3.188
				c-0.458-5.121,3.694-10.383,6.105-14.633c3.643-6.422,6.828-13.104,10.479-19.531c7.229-12.727,15.155-25.102,22.982-37.465
				c3.913-6.182,7.93-12.293,12.08-18.316c1.936-2.809,4.576-5.303,6.647-8.047c3.67-4.861,11.729-14.748,3.668-19.512
				c-4.352-2.57-8.047,1.68-7.648,5.641c-0.177,0.352-0.367,0.697-0.55,1.039c-0.713,1.33-1.575,2.576-2.444,3.807
				c-2.087,2.957-4.362,5.797-6.743,8.521c-8.187,9.367-14.42,21.172-20.973,31.723c-7.414,11.938-14.884,23.826-21.573,36.191
				c-2.968,5.484-5.813,11.014-8.843,16.463c-1.64,2.947-3.083,6.092-3.781,9.379c-5.121-2.727-10.88-3.961-16.88-2.859
				c-10.545,1.938-19.303,11.098-23.59,21.822c-0.562-0.676-1.157-1.324-1.791-1.932c-1.278-1.223-2.679-2.266-4.166-3.152
				c-0.196-15.328-2.106-30.977-0.594-46.227c1.152-11.625,5.209-22.805,11.081-32.877c1.064,1.896,2.24,3.725,3.488,5.463
				c2.124,2.961,6.204,3.164,8.691,0.557c5.676-5.949,9.239-13.375,14.128-19.912c4.014-5.365,8.526-10.367,12.938-15.451
				c0.619,2.355,1.82,4.402,4.354,5.658c5.88,2.916,11.956-4.066,15.5-7.76c5.157-5.371,10.434-10.639,15.478-16.119
				c3.998-4.346,7.911-8.799,12.07-12.992c-0.062,2.453-0.084,4.91-0.085,7.369c-0.001,4.037,5.41,6.576,8.561,4.135
				c14.472-11.207,26.993-25.906,44.055-32.869c-1.134,12.561-4.671,25.262-9.057,36.863c-1.166,3.084,0.027,7.4,3.877,7.846
				c3.431,0.398,6.711,0.01,10.113-0.443c1.944-0.258,6.572-1.172,7.377,0.119C493.755,257.115,492.018,260.816,491.508,262.172z"/>
		</g>
	</g>
</g>
</svg>
