<?xml version="1.0" encoding="utf-8"?>
<!-- Generator: Adobe Illustrator 16.0.3, SVG Export Plug-In . SVG Version: 6.00 Build 0)  -->
<!DOCTYPE svg PUBLIC "-//W3C//DTD SVG 1.1//EN" "http://www.w3.org/Graphics/SVG/1.1/DTD/svg11.dtd">
<svg version="1.1" id="Layer_1" xmlns="http://www.w3.org/2000/svg" xmlns:xlink="http://www.w3.org/1999/xlink" x="0px" y="0px"
	 width="512px" height="512px" viewBox="0 0 512 512" style="enable-background:new 0 0 512 512;" xml:space="preserve">
<style type="text/css">
<![CDATA[
	.st0{fill:#127274;}
	.st1{fill:#14B6B9;}
	.st2{fill:#1E4384;}
	.st3{fill:#EF4754;}
	.st4{fill:#EF4823;}
	.st5{fill:#BCBCBC;}
	.st6{fill:#F6851F;}
	.st7{fill:#C56528;}
	.st8{fill:#FCBF95;}
	.st9{fill:#FEBF10;}
	.st10{fill:none;}
	.st11{fill:#010101;}
	.st12{fill:#3AB37C;}
	.st13{fill:#D6E5E5;}
	.st14{fill:#71C598;}
	.st15{fill:#74CCCF;}
]]>
</style>
<g>
	<g>
		<g>
			<path class="st4" d="M287.494,372.938c-0.049-21.814-1.689-43.564-4.012-65.246c-2.165-20.209-4.378-40.34-8.616-60.236
				c-7.558-35.475-18.979-71.881-17.372-108.518c0.016-0.355,0.065-0.689,0.133-1.014c-4.455,0.623-8.912,1.232-13.372,1.789
				c-0.29,2.266-1.859,4.244-4.853,4.287c-20.984,0.291-37.894,17.57-48.579,34.092c-10.505,16.242-19.835,36.322-20.326,56.027
				c-0.509,20.445,6.718,38.285,19.116,54.355c23.899,30.98,58.256,51.531,84.274,80.396c0.924,0.162,1.857,0.631,2.723,1.51
				c1.438,1.461,2.573,2.822,3.229,4.467c2.604-0.215,5.209-0.404,7.812-0.553C287.553,373.879,287.495,373.43,287.494,372.938z"/>
		</g>
	</g>
	<g>
		<g>
			<path class="st4" d="M207.604,323.613c-15.301-14.17-30.091-29.717-39.377-48.605c-8.637-17.568-10.95-37.359-6.611-56.469
				c4.678-20.594,14.334-40.668,27.774-56.988c5.946-7.223,12.998-14.1,20.981-19.295c-3.491,0.021-6.988-0.047-10.492-0.234
				c-26.26,8.887-52.021,20.646-74.537,36.959c-18.979,13.75-38.023,32.26-44.713,55.473c-6.448,22.373-2.211,46.229,8.72,66.535
				c11.103,20.625,27.623,39.016,47.745,51.203c12.335,7.471,24.658,13.891,38.359,18.557c7.273,2.479,14.661,4.615,22.063,6.674
				c3.409,0.947,6.822,1.883,10.235,2.822c2.642,0.729,6.702,2.785,9.341,2.785c0.354,0,0.689,0.033,1.015,0.086
				c0.146-0.031,0.293-0.064,0.448-0.086c15.539-2.236,31.378-4.895,47.284-6.77C248.453,356.779,226.689,341.289,207.604,323.613z"
				/>
		</g>
	</g>
	<g>
		<g>
			<path class="st4" d="M320.177,111.881c-0.263-1.902-0.6-3.789-1.153-5.627c-38.35,1.637-76.125,10.777-114.559,11.672v13.328
				c15.518,0.338,30.946-1.336,46.32-3.463c8.449-1.168,16.889-2.438,25.363-3.406c6.156-0.705,12.407-1.668,18.607-1.123
				c5.072,0.445,10.125,1.131,15.211,1.436c2.383,0.143,4.839,0.227,7.219-0.018c0.575-0.059,1.319-0.072,1.871-0.258
				c0.106-0.035,0.199-0.068,0.283-0.096C321.49,121.277,320.646,115.271,320.177,111.881z"/>
		</g>
	</g>
	<g>
		<g>
			<path class="st4" d="M293.411,489.615c-0.646-9.088-5.952-18.404-9.682-26.568c-0.689-1.508-1.394-3.008-2.098-4.51
				c-3.649,14.152-9.527,27.893-10.883,42.477C280.263,500.84,294.11,499.443,293.411,489.615z"/>
		</g>
	</g>
	<g>
		<g>
			<path class="st4" d="M367.273,229.531c-5.462-21.77-17.377-43.396-35.089-57.436c-7.926-6.283-16.261-12.143-23.693-19.023
				c-5.666-5.244-11.586-11.336-14.125-18.812c-2.193-0.141-4.375-0.18-6.563,0.008c-6.52,0.555-13.013,1.338-19.496,2.197
				c0.124,0.486,0.185,1.025,0.158,1.625c-1.638,37.334,10.318,74.193,17.76,110.379c4.096,19.92,6.328,40.07,8.43,60.285
				c2.188,21.055,3.764,42.158,3.811,63.336c0,0.66-0.093,1.264-0.266,1.812c10.52-0.17,21,0.361,31.371,1.947
				c0.095-0.992,0.486-2.006,1.277-2.967c16.21-19.674,27.021-43.166,32.648-67.975c2.799-12.34,4.611-24.895,5.427-37.521
				C369.733,254.863,370.352,241.811,367.273,229.531z"/>
		</g>
	</g>
	<g>
		<g>
			<path class="st4" d="M466.241,202.844c-32.62-42.049-88.508-64.629-140.839-64.844c-2.278-0.01-3.908-1.164-4.838-2.717
				c-4.332,0.842-8.924,0.584-13.35,0.197c3.445,5.34,8.78,9.738,13.46,13.607c7.98,6.6,16.573,12.484,24.33,19.354
				c8.478,7.508,14.75,17.184,20.205,27.037c6.348,11.467,11.447,23.574,13.752,36.535c2.29,12.875,1.64,26.141,0.643,39.125
				c-1.012,13.143-2.85,26.264-6.073,39.057c-6.226,24.705-16.842,47.859-32.715,67.814c3.756,0.875,7.495,1.896,11.213,3.105
				c0.361,0.117,0.723,0.27,1.08,0.439c34.135-10.43,67.233-25.875,93.324-50.734c17.196-16.385,32.215-36.889,36.894-60.629
				C488.096,245.992,481.262,222.205,466.241,202.844z"/>
		</g>
	</g>
	<g>
		<g>
			<path class="st4" d="M280.44,408.564c-0.25,3.213-2.99,6.227-6.511,5.348c-1.901-0.475-4.807-1.23-6.24-0.061
				c-0.2,0.162-0.544,1.234-0.306,2.783c0.536,3.48,3.584,7.443,7.217,8.307c5.244,1.244,12.295-0.986,12.753-7.176
				C287.69,413.207,284.35,409.979,280.44,408.564z"/>
		</g>
	</g>
	<g>
		<g>
			<path class="st4" d="M343.933,390.139c-40.037-10.932-82.223-2.316-122.53,3.568c0.08,1.02,0.144,2.008,0.241,2.859
				c0.184,1.59,0.376,3.188,0.529,4.785c18.023,0.773,35.935-2.064,53.913-3.4c1.033-0.719,2.361-1.084,3.943-0.836
				c0.716,0.111,1.426,0.264,2.128,0.447c7.07-0.365,14.152-0.416,21.261,0.174c9.47,0.785,19.226,1.996,28.701,0.664
				c5.37-0.754,10.397-2.566,12.425-7.049C344.296,390.969,344.094,390.561,343.933,390.139z"/>
		</g>
	</g>
	<g>
		<g>
			<path class="st11" d="M494.512,238.527c-4.753-25.984-21.195-47.408-40.738-64.377c-34.075-29.582-78.884-45.645-123.774-47.02
				c0.339-0.898,0.623-1.838,0.859-2.799c1.382-5.617,0.714-11.992-0.449-17.58c-0.058-0.271-0.115-0.543-0.175-0.816
				c6.171-0.857,5.093-10.934-1.679-10.906c-1.095,0.004-2.188,0.021-3.281,0.039c-0.554-0.541-1.161-1.041-1.848-1.482
				c-2.86-1.832-5.448-0.52-6.73,1.76c-16.095,0.768-32.088,2.824-48.077,5c0.077-25.648-7.951-50.574-8.154-76.256
				c-0.056-7.09-11.025-6.219-10.971,0.848c0.203,25.809,9.05,51.07,8.258,76.889c-18.033,2.449-36.084,4.719-54.28,5.133
				c-2.7-3.418-9.978-1.771-9.978,3.979v21.637c-44.781,15.475-92.457,40.205-116.532,82.607
				c-24.557,43.25-2.593,95.012,29.892,127.121c13.516,13.359,30.288,24.166,47.551,31.986c9.953,4.508,20.412,7.896,30.867,11.021
				c5.629,1.684,11.297,3.234,16.962,4.791c2.265,0.623,4.688,1.496,7.141,2.26c0.108,0.109,0.221,0.213,0.337,0.314
				c0.12,0.402,0.288,0.764,0.493,1.088c0.173,1.215,0.324,2.432,0.47,3.65c0.379,3.154,0.766,6.344,0.82,9.523
				c0.039,2.221,2.136,4.803,4.436,4.975c13.875,1.047,27.605-0.174,41.364-1.555c-0.593,1.494-0.937,3.203-0.967,5.141
				c-0.136,9.205,6.655,16.834,14.937,19.82c-0.16,0.896-0.026,1.912,0.524,3.014c0.586,1.172,1.167,2.346,1.75,3.52
				c-1.124,22.125-13.709,42.631-14.044,65.086c-0.047,3.15,3.134,5.072,5.908,5.062c14.042-0.057,33.325-0.982,38.386-16.873
				c2.822-8.861-2.561-19.176-5.87-27.055c-4.07-9.697-8.669-19.162-13.352-28.576c0.031-1.369,0.02-2.746-0.043-4.131
				c6.569-2.273,12.043-7.738,13.506-14.639c0.935-4.408,0.116-8.641-1.854-12.287c4.193,0.141,8.403,0.377,12.663,0.717
				c17.079,1.363,42.115,2.268,46.84-16.895c49.63-15.057,98.925-41.85,125.939-87.758
				C493.25,284.736,498.668,261.248,494.512,238.527z M204.465,117.926c38.434-0.895,76.209-10.035,114.559-11.672
				c0.554,1.838,0.891,3.725,1.153,5.627c0.469,3.391,1.313,9.396-0.837,12.445c-0.084,0.027-0.177,0.061-0.283,0.096
				c-0.552,0.186-1.296,0.199-1.871,0.258c-2.38,0.244-4.836,0.16-7.219,0.018c-5.086-0.305-10.139-0.99-15.211-1.436
				c-6.2-0.545-12.451,0.418-18.607,1.123c-8.475,0.969-16.914,2.238-25.363,3.406c-15.374,2.127-30.803,3.801-46.32,3.463V117.926z
				 M294.654,308.754c-2.102-20.215-4.334-40.365-8.43-60.285c-7.441-36.186-19.397-73.045-17.76-110.379
				c0.026-0.6-0.034-1.139-0.158-1.625c6.483-0.859,12.977-1.643,19.496-2.197c2.188-0.188,4.37-0.148,6.563-0.008
				c2.539,7.477,8.459,13.568,14.125,18.812c7.433,6.881,15.768,12.74,23.693,19.023c17.712,14.039,29.627,35.666,35.089,57.436
				c3.078,12.279,2.46,25.332,1.649,37.855c-0.815,12.627-2.628,25.182-5.427,37.521c-5.627,24.809-16.438,48.301-32.648,67.975
				c-0.791,0.961-1.183,1.975-1.277,2.967c-10.371-1.586-20.852-2.117-31.371-1.947c0.173-0.549,0.266-1.152,0.266-1.812
				C298.418,350.912,296.843,329.809,294.654,308.754z M274.866,247.455c4.238,19.896,6.451,40.027,8.616,60.236
				c2.322,21.682,3.963,43.432,4.012,65.246c0.001,0.492,0.059,0.941,0.158,1.357c-2.604,0.148-5.208,0.338-7.812,0.553
				c-0.656-1.645-1.792-3.006-3.229-4.467c-0.865-0.879-1.799-1.348-2.723-1.51c-26.019-28.865-60.375-49.416-84.274-80.396
				c-12.398-16.07-19.625-33.91-19.116-54.355c0.491-19.705,9.821-39.785,20.326-56.027c10.686-16.521,27.595-33.801,48.579-34.092
				c2.993-0.043,4.562-2.021,4.853-4.287c4.46-0.557,8.917-1.166,13.372-1.789c-0.067,0.324-0.117,0.658-0.133,1.014
				C255.888,175.574,267.309,211.98,274.866,247.455z M218.107,383.115c-0.325-0.053-0.66-0.086-1.015-0.086
				c-2.639,0-6.699-2.057-9.341-2.785c-3.413-0.939-6.826-1.875-10.235-2.822c-7.402-2.059-14.79-4.195-22.063-6.674
				c-13.701-4.666-26.024-11.086-38.359-18.557c-20.122-12.188-36.643-30.578-47.745-51.203
				c-10.931-20.307-15.168-44.162-8.72-66.535c6.689-23.213,25.733-41.723,44.713-55.473c22.517-16.312,48.277-28.072,74.537-36.959
				c3.504,0.188,7.001,0.256,10.492,0.234c-7.983,5.195-15.035,12.072-20.981,19.295c-13.44,16.32-23.097,36.395-27.774,56.988
				c-4.339,19.109-2.025,38.9,6.611,56.469c9.286,18.889,24.076,34.436,39.377,48.605c19.086,17.676,40.85,33.166,58.236,52.646
				c-15.906,1.875-31.745,4.533-47.284,6.77C218.4,383.051,218.254,383.084,218.107,383.115z M293.411,489.615
				c0.699,9.828-13.148,11.225-22.662,11.398c1.355-14.584,7.233-28.324,10.883-42.477c0.704,1.502,1.408,3.002,2.098,4.51
				C287.459,471.211,292.765,480.527,293.411,489.615z M287.354,417.766c-0.458,6.189-7.509,8.42-12.753,7.176
				c-3.633-0.863-6.681-4.826-7.217-8.307c-0.238-1.549,0.105-2.621,0.306-2.783c1.434-1.17,4.339-0.414,6.24,0.061
				c3.521,0.879,6.261-2.135,6.511-5.348C284.35,409.979,287.69,413.207,287.354,417.766z M332.119,398.4
				c-9.476,1.332-19.231,0.121-28.701-0.664c-7.108-0.59-14.19-0.539-21.261-0.174c-0.702-0.184-1.412-0.336-2.128-0.447
				c-1.582-0.248-2.91,0.117-3.943,0.836c-17.979,1.336-35.89,4.174-53.913,3.4c-0.153-1.598-0.346-3.195-0.529-4.785
				c-0.098-0.852-0.161-1.84-0.241-2.859c40.308-5.885,82.493-14.5,122.53-3.568c0.161,0.422,0.363,0.83,0.611,1.213
				C342.517,395.834,337.489,397.646,332.119,398.4z M483.327,270.191c-4.679,23.74-19.697,44.244-36.894,60.629
				c-26.091,24.859-59.189,40.305-93.324,50.734c-0.357-0.17-0.719-0.322-1.08-0.439c-3.718-1.209-7.457-2.23-11.213-3.105
				c15.873-19.955,26.489-43.109,32.715-67.814c3.224-12.793,5.062-25.914,6.073-39.057c0.997-12.984,1.647-26.25-0.643-39.125
				c-2.305-12.961-7.404-25.068-13.752-36.535c-5.455-9.854-11.728-19.529-20.205-27.037c-7.757-6.869-16.35-12.754-24.33-19.354
				c-4.68-3.869-10.015-8.268-13.46-13.607c4.426,0.387,9.018,0.645,13.35-0.197c0.93,1.553,2.56,2.707,4.838,2.717
				c52.331,0.215,108.219,22.795,140.839,64.844C481.262,222.205,488.096,245.992,483.327,270.191z"/>
		</g>
	</g>
</g>
</svg>
