<?xml version="1.0" encoding="utf-8"?>
<!-- Generator: Adobe Illustrator 16.0.3, SVG Export Plug-In . SVG Version: 6.00 Build 0)  -->
<!DOCTYPE svg PUBLIC "-//W3C//DTD SVG 1.1//EN" "http://www.w3.org/Graphics/SVG/1.1/DTD/svg11.dtd">
<svg version="1.1" id="Layer_1" xmlns="http://www.w3.org/2000/svg" xmlns:xlink="http://www.w3.org/1999/xlink" x="0px" y="0px"
	 width="512px" height="512px" viewBox="0 0 512 512" style="enable-background:new 0 0 512 512;" xml:space="preserve">
<style type="text/css">
<![CDATA[
	.st0{fill:#127274;}
	.st1{fill:#14B6B9;}
	.st2{fill:#1E4384;}
	.st3{fill:#EF4754;}
	.st4{fill:#EF4823;}
	.st5{fill:#BCBCBC;}
	.st6{fill:#F6851F;}
	.st7{fill:#C56528;}
	.st8{fill:#FCBF95;}
	.st9{fill:#FEBF10;}
	.st10{fill:none;}
	.st11{fill:#010101;}
	.st12{fill:#3AB37C;}
	.st13{fill:#D6E5E5;}
	.st14{fill:#71C598;}
	.st15{fill:#74CCCF;}
]]>
</style>
<g>
	<g>
		<g>
			<path class="st4" d="M148.671,299.75c-4.268-1.93-8.342-4.617-12.262-6.924c-2.205-1.299-4.408-2.604-6.623-3.891
				c2.374,9.766,10.312,18.467,14.396,27.227c0.768,1.645,1.577,3.256,2.425,4.838c-0.658-1.988-0.497-4.311,0.018-6.379
				C147.838,309.74,148.26,304.752,148.671,299.75z"/>
		</g>
	</g>
	<g>
		<g>
			<path class="st12" d="M275.237,50.16c-4.092,2.602-9.245,3.889-14.241,3.457c-6.143-0.529-11.772-3.531-14.639-9.156
				c-1.933-3.795-3.451-7.703-6.599-10.703c-1.208-1.152-2.468-2.201-3.77-3.186c-2.041,11.084-6.444,21.355-12.529,31.084
				c-3.385,5.41-7.287,10.619-9.874,16.488c-2.479,5.625-3.372,11.473-3.436,17.598c-0.027,2.568-1.502,4.314-3.36,5.158
				c-0.053,0.236-0.115,0.473-0.198,0.713c-0.2,0.582-0.51,1.576-0.512,2.279c2.135,0.447,4.255,0.316,6.425,0.074
				c4.983-0.553,10.005-1.832,15.041-1.031c0.329,0.053,0.65,0.119,0.972,0.184c0.937-9.555,3.485-18.912,3.662-28.529
				c0.13-7.041,11.101-7.93,10.971-0.848c-0.211,11.479-3.79,22.557-4,34c-0.005,0.262-0.029,0.512-0.062,0.756
				c1.899,1.777,3.52,3.92,4.843,6.387c3.266,6.084,4.031,13.451,7.537,19.332c0.794,1.33,3.383,6.045,5.659,5.184
				c2.955-1.121,6.057-5.418,5.946-8.672c-0.199-5.896-3.666-13.553-0.271-19.113c3.314-5.428,8.052-6.654,14.039-6.885
				c3.036-0.117,6.077-0.111,9.112-0.25c0.389-0.018,0.779-0.035,1.17-0.055C278.234,87.848,275.628,68.814,275.237,50.16z
				 M257.18,103.59c-0.263-3.748-2.91-6.154-3.706-9.605c-0.644-2.791-1.253-5.598-1.564-8.449
				c-0.465-4.26-0.631-8.521-0.691-12.793c-0.922-1.664-1.13-3.76,0.011-5.725c0.808-6.43,10.919-7.244,10.922-0.275
				c0.003,6.562-0.088,13.244,0.97,19.74c0.939,5.766,4.611,10.309,5.03,16.26C268.648,109.828,257.677,110.658,257.18,103.59z"/>
		</g>
	</g>
	<g>
		<g>
			<path class="st4" d="M348.069,205.826c-4.419-5.535-10.963-9.748-17.038-13.23c-4.904-2.812-10.123-5.721-15.626-7.328
				c2.373,7.885,6.143,15.389,7.745,23.475c0.892,4.498,1.151,11.676,4.074,15.348c0.825,1.037,1.177,2.094,1.177,3.09
				C338.669,225.033,356.938,216.939,348.069,205.826z"/>
		</g>
	</g>
	<g>
		<g>
			<path class="st4" d="M398.301,270.752c-0.159-1.662-0.383-3.352-0.829-4.965c-0.326-0.059-0.634-0.152-0.924-0.279
				c-1.309,1.395-2.656,2.752-4.045,4.076c-4.865,4.631-9.551,9.205-15.089,13.021c-8.379,5.771-17.288,11.303-26.906,14.832
				c1.759,3.184,3.354,6.428,3.965,10.084c0.398,2.387-0.358,5-2.688,6.16c-6.15,3.061-12.461,5.771-18.902,8.164
				c-3.405,1.266-6.883,2.346-10.159,3.926c-2,0.967-4.074,2.057-6.303,2.324c-9.386,1.121-13.759-9.271-16.732-17.432
				c-7.496,0.799-14.986,0.734-22.522,0.643c0.851,9.789,0.592,22.246-10.65,24.543c-9.024,1.846-19.19,3.264-28.372,2.014
				c-4.51-0.615-9.362-2.885-11.316-7.314c-1.759-3.988-1.767-7.914-2.054-12.182c-0.35-5.193-4.898-5.477-9.593-5.934
				c-6.184-0.604-12.39-0.719-18.42-2.016c-1.331,4.586-2.655,9.209-3.192,13.924c-0.319,2.805-2.383,5.697-5.578,5.424
				c-8.088-0.691-16.259-0.748-24.308-1.85c-4.646-0.635-9.993-0.979-14.172-3.344c-0.681-0.385-1.238-0.85-1.689-1.377
				c4.616,8.131,10.247,15.453,16.548,22.369c9.654-12.811,32.696,0.734,46.396,0.371c2.813-0.074,5.708,2.678,5.424,5.578
				c-0.3,3.066-0.945,6.221-0.865,9.309c0.046,1.734,0.569,1.895,2.444,2.398c9.119,2.461,18.37,4.566,27.877,3.268
				c6.674-0.912,13.451-0.518,20.116-1.754c2.42-0.449,7.674-0.795,8.799-3.33c1.521-3.424,0.115-7.973-0.67-11.402
				c-0.756-3.297,1.782-7.107,5.412-6.84c9.488,0.697,20.552-0.824,28.966-5.461c3.327-1.834,6.818,0.188,7.983,3.48
				c1.48,4.189,1.46,11.426,4.571,15c0.204,0.025,0.892,0.254,1.72,0.1c1.609-0.299,3.2-0.662,4.762-1.162
				c2.573-0.824,5.087-1.777,7.584-2.812c6.129-2.537,12.256-5.945,17.776-9.619c2.085-1.387,7.357-4.324,7.169-7.377
				c-0.184-2.973-2.531-6.109-3.845-8.678c-1.368-2.674-0.506-5.984,2.173-7.469c6.288-3.482,11.998-7.545,17.158-12.561
				c2.291-2.229,5.55-1.752,7.776,0.207c1.996,1.756,4.09,3.35,6.271,4.82c3.877-10.484,8.324-20.566,9.148-31.975
				C398.728,276.713,398.582,273.686,398.301,270.752z"/>
		</g>
	</g>
	<g>
		<g>
			<path class="st6" d="M483.016,206.873c-10.245-20.764-28.53-32.818-48.456-43.148c-26.069-13.514-51.297-29.578-79.944-37.16
				c-6.819-1.805-4.765-12.613,2.1-10.797c20.485,5.42,39.436,14.775,57.995,24.818c16.209,8.77,33.707,16.363,48.649,27.232
				c5.555,4.039,10.48,8.512,14.823,13.348c-1.362-1.629-1.795-3.883-0.287-5.898c-0.01-0.09-0.021-0.184-0.037-0.295
				c-0.116-0.854-0.27-1.658-0.5-2.488c-0.723-2.607-1.586-5.174-2.546-7.705c-1.961-5.17-4.151-10.244-6.387-15.301
				c-5.761-13.027-13.159-25.697-22.363-36.611c-11.475-13.607-27.31-25.281-43.859-31.91c-17.125-6.859-33.747-4.553-49.463,4.77
				c-6.078,3.605-12.264-5.494-6.15-9.119c6.838-4.057,13.927-7.07,21.182-8.84c-11.546-3.949-23.648-5.322-36.01-3.256
				c-14.875,2.486-28.826,8.697-42.265,15.346c1.664,7.072,4.118,13.908,7.728,20.232c1.094,1.918,0.956,3.84,0.141,5.391
				c0.179,0.268,0.347,0.551,0.491,0.867c3.521,7.678-7.297,9.004-12.02,9.139c-3.625,0.102-7.292,0.02-10.903,0.389
				c-2.427,0.246-2.747,0.74-2.352,3.588c1.311,9.416,2.763,17.766-4.622,25.367c-6.423,6.609-15.028,7.348-21.763,0.658
				c-6.452-6.406-7.464-15.729-11.057-23.67c-3.209-7.096-8.463-8.748-15.794-7.686c-5.684,0.826-12.868,2.377-18.264-0.406
				c-6.893-3.553-6.563-10.588-4.345-17.008c0.524-1.516,1.438-2.428,2.508-2.861c0.134-3.6,0.481-7.152,1.21-10.646
				c-1.107-0.791-1.966-1.988-2.276-3.621c0.246,1.295,0.087,0.205-0.743-0.217c-1.551-0.789-2.804-1.168-4.611-1.504
				c-4.457-0.824-8.964-0.99-13.489-0.887c-10.439,0.238-20.86,1.434-31.167,3.076c-24.4,3.887-46.154,20.707-61.632,40.053
				c0.723-0.371,1.45-0.738,2.184-1.102c10.562-5.217,23.047-10.729,34.994-7.242c6.75,1.971,4.712,12.785-2.1,10.797
				c-7.195-2.1-14.501,0.221-21.174,3.08c-6.124,2.621-12.318,5.518-17.91,9.158c-22.395,14.586-31.911,37.475-38.668,62.367
				c-7.812,28.781-11.533,58.836-8.341,88.602c3.074,28.658,11.891,57.373,27.947,81.504c13.873,20.85,32.221,37.719,52.396,52.307
				c-5-9.805-7.91-20.975-10.393-31.598c-1.6-6.846,8.771-10.533,10.383-3.637c3.949,16.898,8.713,38.729,25.381,47.477
				c17.635,9.254,39.191,10.596,58.748,10.605c22.138,0.014,44.391-3.043,64.874-11.795c9.235-3.947,17.936-8.559,24.716-16.139
				c6.148-6.875,10.817-14.678,15.163-22.777c3.343-6.229,13.218-1.373,9.854,4.895c-4.962,9.248-10.393,18.684-17.777,26.242
				c-0.239,0.244-0.483,0.479-0.726,0.719c0.769-0.166,1.646-0.127,2.626,0.193c18.304,5.99,37.66,9.393,56.923,6.965
				c16.578-2.088,32.423-8.18,47.295-15.65c27.121-13.623,52.646-33.76,67.54-60.656c12.888-23.273,19.674-49.826,21.929-76.236
				C494.423,254.523,493.729,228.586,483.016,206.873z M308.376,180.014c-0.38-3.346,2.056-7.109,6.339-6.246
				c9.077,1.828,17.926,6.654,25.609,11.662c7.378,4.809,15.97,10.482,19.532,18.918c8.432,19.969-17.85,32.816-33.768,34.305
				c-4.244,0.396-6.233-3.387-5.631-6.623c-0.854-0.342-1.662-0.92-2.353-1.787c-3.613-4.541-4.224-12.037-5.308-17.527
				c-1.753-8.863-5.998-17.016-8.324-25.73C303.554,183.539,305.745,180.9,308.376,180.014z M196.59,191.607
				c2.966-2.062,7.04-0.535,8.267,2.74c5.562,14.84,16.796,27.094,18.294,43.395c0.162,1.77-0.742,4.125-2.41,4.984
				c-7.513,3.871-16.206,2.398-24.325,2.027c-3.522-0.162-6.953-0.314-10.447-0.834c-2.009-0.299-4.021-0.629-6.045-0.818
				c-0.961-0.09-1.934-0.195-2.901-0.123c-0.857,0.156-1.099,0.139-0.74-0.049c-4.491,1.846-8.809-2.408-8.288-6.02
				C158.867,226.527,189.85,196.291,196.59,191.607z M129.738,164.719c3.897-10.848,13.898-19.766,23.037-26.271
				c9.493-6.758,20.628-12.871,32.466-13.766c7.086-0.535,7.912,10.436,0.848,10.971c-10.304,0.777-20.213,6.629-28.28,12.736
				c-7.304,5.527-15.034,12.371-18.217,21.225C137.199,176.273,127.364,171.324,129.738,164.719z M397.599,321.373
				c-1.142,3.549-4.971,4.854-8.166,3.146c-3.604-1.922-6.946-4.176-10.132-6.666c-3.499,3.016-7.229,5.734-11.148,8.182
				c1.568,3.021,2.937,6.275,2.683,9.432c-0.404,5.029-2.962,9.385-6.905,12.531c-7.338,5.855-15.987,10.785-24.678,14.336
				c-6.83,2.787-18.288,8.42-25.005,2.717c-4.384-3.725-5.656-9.355-6.938-14.842c-6.774,2.574-14.357,3.916-21.608,4.104
				c0.752,8.648-1.424,16.727-11.315,19.688c-9.444,2.828-19.323,2.553-29.029,3.537c-6.678,0.678-13.471,0.27-20.039-1.143
				c-4.746-1.02-11.443-1.77-15.491-4.742c-5.411-3.977-5.675-9.369-5.172-15.117c-6.109-0.912-12.092-3.146-18.032-4.559
				c-6.6-1.566-13.455-3.111-15.199,4.959c-0.914,4.23-6.515,5.023-9.272,2.246c-6.034-6.076-11.778-12.402-16.801-19.352
				c-4.687-6.484-7.942-13.486-11.921-20.359c-6.448-11.143-16.021-23.781-15.305-37.324c0.091-1.703,0.801-2.986,1.816-3.855
				c0.539-1.449,1.67-2.703,3.524-3.303c4.755-1.537,12.108,4.574,15.843,6.777c5.245,3.094,11.038,7.357,16.721,9.045
				c2.208,0.656,4.186,2.939,3.965,5.359c-0.531,5.803-0.525,11.98-1.857,17.66c-0.156,0.662-0.333,1.324-0.507,1.986
				c8.428,1.951,17.212,2.092,25.854,2.615c1.103-5.512,2.745-10.9,4.201-16.344c0.736-2.754,4.042-4.756,6.818-3.744
				c7.35,2.676,15.032,2.357,22.692,3.322c4.778,0.604,10.694,1.572,14.242,5.205c2.897,2.969,4.004,6.711,4.278,10.766
				c0.168,2.506-0.402,6.18,1.166,8.348c1.429,1.973,6.593,1.26,8.55,1.203c4.332-0.127,8.67-0.457,12.96-1.082
				c3.539-0.514,7.623-0.404,8.035-4.91c0.478-5.199-0.266-10.367-0.831-15.529c-0.329-3.006,2.862-5.436,5.578-5.422
				c10.292,0.049,20.607,0.768,30.816-0.906c3.241-0.531,5.53,1.012,6.673,3.996c1.462,3.816,2.654,7.955,4.854,11.432
				c0.906,1.434,2.504,1.984,1.395,2.441c1.364-0.438,2.61-1.143,3.911-1.752c7.704-3.611,15.852-6.119,23.658-9.553
				c-1.341-3.131-3.307-6.016-4.856-9.064c-1.602-3.15-0.038-7.092,3.482-7.982c11.255-2.848,21.584-9.289,31.012-15.891
				c5.146-3.605,9.67-8.205,14.125-12.637c1.664-1.652,4.663-4.426,6.662-6.656c-0.115-2.281,1.102-4.459,4.081-4.896
				c2.023-0.299,3.465-0.334,5.32,0.672c2.461,1.334,2.958,4.162,2.199,6.566c4.695,4.465,5.09,16.424,5.082,21.137
				C409.562,293.084,402.359,306.574,397.599,321.373z"/>
		</g>
	</g>
	<g>
		<g>
			<path class="st12" d="M272.335,35.762c-1.915-6.74-8.955-11.752-14.973-14.639c-4.633-2.225-12.602-5.549-16.402-0.521
				c2.975,2.072,5.773,4.369,8.15,7.174c2.012,2.375,3.578,4.668,4.912,7.494c0.905,1.918,1.854,5.188,3.906,6.23
				C261.892,43.512,274.296,42.664,272.335,35.762z"/>
		</g>
	</g>
	<g>
		<g>
			<path class="st4" d="M197.626,205.008c-3.722,3.58-7.316,7.922-10.477,11.742c-2.762,3.336-5.578,6.748-7.724,10.527
				c-0.415,0.729-1.169,2.242-1.562,3.08c0.503,0.484,0.856,1.041,1.073,1.639c4.417,0.135,8.965,1.328,13.269,1.682
				c3.716,0.303,7.512,0.408,11.241,0.555c2.248,0.088,5.391,0.484,8.09,0.184C209.274,223.883,202.569,214.686,197.626,205.008z"/>
		</g>
	</g>
	<g>
		<g>
			<path d="M503.778,247.254c-1.456-24.887-9.344-47.791-25.243-65.701c2.03,2.047,5.599,2.834,8.262,0.244
				c3.821-3.715,1.708-10.424,0.43-14.746c-1.901-6.43-4.657-12.631-7.341-18.766c-6.689-15.287-14.902-29.945-25.695-42.744
				c-13.029-15.453-31.142-28.473-50.078-35.598c-6.057-2.279-12.097-3.535-18.076-3.885c-0.221-1.516-1.12-2.938-2.924-3.82
				c-15.414-7.527-31.922-11.033-49.042-9.137c-16.388,1.814-31.869,8.365-46.571,15.564c-1.027-7.977-1.325-16.07-1.349-23.924
				c-0.008-2.578-1.466-4.098-3.313-4.654c0.541-2.213,0.603-4.639,0.037-7.242c-2.214-10.199-12.729-17.791-21.555-22.027
				c-8.809-4.229-22.246-6.619-28.786,2.717c-0.484,0.691-0.788,1.404-0.946,2.115c-2.508,0.107-5.138,1.934-5.32,4.467
				c-1.072,14.84-6.611,27.182-14.528,39.602c-2.435,3.82-4.898,7.555-6.956,11.535c-4.719-3.902-12.174-4.77-18.306-5.104
				c-12.222-0.668-24.546,0.76-36.62,2.549c-3.758,0.557-7.507,1.182-11.234,1.906c-8.675,1.689-17.062,6.342-24.552,10.865
				c-16.171,9.768-30.767,23.561-41.537,39.064c-1.849,2.662-1.091,5.648,0.657,7.525c-4.777,3.326-9.255,7.074-13.408,11.434
				c-18.113,19.012-25.159,46.451-30.585,71.391c-12.24,56.262-5.563,118.293,27.772,166.396
				c13.866,20.012,32.142,36.502,51.799,50.686c0.771,2.025,2.576,3.686,5.32,3.686h2c2.293,0,4.062-1.752,4.767-3.836
				c3.47,4.811,7.7,9.055,12.973,12.41c18.18,11.568,42.569,12.639,63.422,13.131c24.274,0.572,48.732-3.061,71.247-12.34
				c8.974-3.699,17.223-8.219,24.434-14.506c-1.059,2.842-0.068,6.824,3.685,8.053c30.303,9.918,61.203,10.504,91.172-0.854
				c24.662-9.346,47.654-23.264,66.825-41.408C493.037,355.936,506.785,298.668,503.778,247.254z M257.362,21.123
				c6.018,2.887,13.058,7.898,14.973,14.639c1.961,6.902-10.443,7.75-14.406,5.738c-2.053-1.043-3.001-4.312-3.906-6.23
				c-1.334-2.826-2.9-5.119-4.912-7.494c-2.377-2.805-5.176-5.102-8.15-7.174C244.761,15.574,252.729,18.898,257.362,21.123z
				 M206.592,101.613c0.083-0.24,0.146-0.477,0.198-0.713c1.858-0.844,3.333-2.59,3.36-5.158c0.063-6.125,0.956-11.973,3.436-17.598
				c2.587-5.869,6.489-11.078,9.874-16.488c6.085-9.729,10.488-20,12.529-31.084c1.302,0.984,2.562,2.033,3.77,3.186
				c3.147,3,4.666,6.908,6.599,10.703c2.866,5.625,8.496,8.627,14.639,9.156c4.996,0.432,10.149-0.855,14.241-3.457
				c0.391,18.654,2.997,37.688,11.887,54.266c-0.391,0.02-0.781,0.037-1.17,0.055c-3.035,0.139-6.076,0.133-9.112,0.25
				c-5.987,0.23-10.725,1.457-14.039,6.885c-3.396,5.561,0.071,13.217,0.271,19.113c0.11,3.254-2.991,7.551-5.946,8.672
				c-2.276,0.861-4.865-3.854-5.659-5.184c-3.506-5.881-4.271-13.248-7.537-19.332c-1.323-2.467-2.943-4.609-4.843-6.387
				c0.033-0.244,0.058-0.494,0.062-0.756c0.21-11.443,3.789-22.521,4-34c0.13-7.082-10.841-6.193-10.971,0.848
				c-0.177,9.617-2.726,18.975-3.662,28.529c-0.321-0.064-0.643-0.131-0.972-0.184c-5.036-0.801-10.058,0.479-15.041,1.031
				c-2.17,0.242-4.29,0.373-6.425-0.074C206.082,103.189,206.392,102.195,206.592,101.613z M492.401,278.189
				c-2.255,26.41-9.041,52.963-21.929,76.236c-14.894,26.896-40.419,47.033-67.54,60.656c-14.872,7.471-30.717,13.562-47.295,15.65
				c-19.263,2.428-38.619-0.975-56.923-6.965c-0.98-0.32-1.857-0.359-2.626-0.193c0.242-0.24,0.486-0.475,0.726-0.719
				c7.385-7.559,12.815-16.994,17.777-26.242c3.364-6.268-6.511-11.123-9.854-4.895c-4.346,8.1-9.015,15.902-15.163,22.777
				c-6.78,7.58-15.48,12.191-24.716,16.139c-20.483,8.752-42.736,11.809-64.874,11.795c-19.557-0.01-41.113-1.352-58.748-10.605
				c-16.668-8.748-21.432-30.578-25.381-47.477c-1.611-6.896-11.982-3.209-10.383,3.637c2.482,10.623,5.393,21.793,10.393,31.598
				c-20.176-14.588-38.523-31.457-52.396-52.307c-16.057-24.131-24.873-52.846-27.947-81.504
				c-3.192-29.766,0.528-59.82,8.341-88.602c6.757-24.893,16.273-47.781,38.668-62.367c5.592-3.641,11.786-6.537,17.91-9.158
				c6.673-2.859,13.979-5.18,21.174-3.08c6.812,1.988,8.85-8.826,2.1-10.797c-11.947-3.486-24.433,2.025-34.994,7.242
				c-0.733,0.363-1.461,0.73-2.184,1.102c15.478-19.346,37.231-36.166,61.632-40.053c10.307-1.643,20.728-2.838,31.167-3.076
				c4.525-0.104,9.032,0.062,13.489,0.887c1.808,0.336,3.061,0.715,4.611,1.504c0.83,0.422,0.989,1.512,0.743,0.217
				c0.311,1.633,1.169,2.83,2.276,3.621c-0.729,3.494-1.076,7.047-1.21,10.646c-1.069,0.434-1.983,1.346-2.508,2.861
				c-2.219,6.42-2.548,13.455,4.345,17.008c5.396,2.783,12.58,1.232,18.264,0.406c7.331-1.062,12.585,0.59,15.794,7.686
				c3.593,7.941,4.604,17.264,11.057,23.67c6.734,6.689,15.34,5.951,21.763-0.658c7.385-7.602,5.933-15.951,4.622-25.367
				c-0.396-2.848-0.075-3.342,2.352-3.588c3.611-0.369,7.278-0.287,10.903-0.389c4.723-0.135,15.541-1.461,12.02-9.139
				c-0.145-0.316-0.312-0.6-0.491-0.867c0.815-1.551,0.953-3.473-0.141-5.391c-3.609-6.324-6.063-13.16-7.728-20.232
				c13.438-6.648,27.39-12.859,42.265-15.346c12.361-2.066,24.464-0.693,36.01,3.256c-7.255,1.77-14.344,4.783-21.182,8.84
				c-6.113,3.625,0.072,12.725,6.15,9.119c15.716-9.322,32.338-11.629,49.463-4.77c16.55,6.629,32.385,18.303,43.859,31.91
				c9.204,10.914,16.603,23.584,22.363,36.611c2.235,5.057,4.426,10.131,6.387,15.301c0.96,2.531,1.823,5.098,2.546,7.705
				c0.23,0.83,0.384,1.635,0.5,2.488c0.016,0.111,0.027,0.205,0.037,0.295c-1.508,2.016-1.075,4.27,0.287,5.898
				c-4.343-4.836-9.269-9.309-14.823-13.348c-14.942-10.869-32.44-18.463-48.649-27.232c-18.56-10.043-37.51-19.398-57.995-24.818
				c-6.864-1.816-8.919,8.992-2.1,10.797c28.647,7.582,53.875,23.646,79.944,37.16c19.926,10.33,38.211,22.385,48.456,43.148
				C493.729,228.586,494.423,254.523,492.401,278.189z"/>
		</g>
	</g>
	<g>
		<g>
			<path d="M268.15,102.742c-0.419-5.951-4.091-10.494-5.03-16.26c-1.058-6.496-0.967-13.178-0.97-19.74
				c-0.003-6.969-10.114-6.154-10.922,0.275c-1.141,1.965-0.933,4.061-0.011,5.725c0.061,4.271,0.227,8.533,0.691,12.793
				c0.312,2.852,0.921,5.658,1.564,8.449c0.796,3.451,3.443,5.857,3.706,9.605C257.677,110.658,268.648,109.828,268.15,102.742z"/>
		</g>
	</g>
	<g>
		<g>
			<path d="M223.15,237.742c-1.498-16.301-12.732-28.555-18.294-43.395c-1.227-3.275-5.301-4.803-8.267-2.74
				c-6.74,4.684-37.723,34.92-28.597,45.303c-0.521,3.611,3.797,7.865,8.288,6.02c-0.358,0.188-0.117,0.205,0.74,0.049
				c0.968-0.072,1.94,0.033,2.901,0.123c2.023,0.189,4.036,0.52,6.045,0.818c3.494,0.52,6.925,0.672,10.447,0.834
				c8.119,0.371,16.812,1.844,24.325-2.027C222.408,241.867,223.312,239.512,223.15,237.742z M203.446,234.232
				c-3.729-0.146-7.525-0.252-11.241-0.555c-4.304-0.354-8.852-1.547-13.269-1.682c-0.217-0.598-0.57-1.154-1.073-1.639
				c0.394-0.838,1.147-2.352,1.562-3.08c2.146-3.779,4.962-7.191,7.724-10.527c3.16-3.82,6.755-8.162,10.477-11.742
				c4.943,9.678,11.648,18.875,13.91,29.408C208.837,234.717,205.694,234.32,203.446,234.232z"/>
		</g>
	</g>
	<g>
		<g>
			<path d="M359.856,204.348c-3.562-8.436-12.154-14.109-19.532-18.918c-7.684-5.008-16.532-9.834-25.609-11.662
				c-4.283-0.863-6.719,2.9-6.339,6.246c-2.631,0.887-4.822,3.525-3.902,6.971c2.326,8.715,6.571,16.867,8.324,25.73
				c1.084,5.49,1.694,12.986,5.308,17.527c0.69,0.867,1.498,1.445,2.353,1.787c-0.603,3.236,1.387,7.02,5.631,6.623
				C342.007,237.164,368.288,224.316,359.856,204.348z M328.401,227.18c0-0.996-0.352-2.053-1.177-3.09
				c-2.923-3.672-3.183-10.85-4.074-15.348c-1.603-8.086-5.372-15.59-7.745-23.475c5.503,1.607,10.722,4.516,15.626,7.328
				c6.075,3.482,12.619,7.695,17.038,13.23C356.938,216.939,338.669,225.033,328.401,227.18z"/>
		</g>
	</g>
	<g>
		<g>
			<path d="M404.506,256.014c0.759-2.404,0.262-5.232-2.199-6.566c-1.855-1.006-3.297-0.971-5.32-0.672
				c-2.979,0.438-4.196,2.615-4.081,4.896c-1.999,2.23-4.998,5.004-6.662,6.656c-4.455,4.432-8.979,9.031-14.125,12.637
				c-9.428,6.602-19.757,13.043-31.012,15.891c-3.521,0.891-5.084,4.832-3.482,7.982c1.55,3.049,3.516,5.934,4.856,9.064
				c-7.807,3.434-15.954,5.941-23.658,9.553c-1.301,0.609-2.547,1.314-3.911,1.752c1.109-0.457-0.488-1.008-1.395-2.441
				c-2.199-3.477-3.392-7.615-4.854-11.432c-1.143-2.984-3.432-4.527-6.673-3.996c-10.209,1.674-20.524,0.955-30.816,0.906
				c-2.716-0.014-5.907,2.416-5.578,5.422c0.565,5.162,1.309,10.33,0.831,15.529c-0.412,4.506-4.496,4.396-8.035,4.91
				c-4.29,0.625-8.628,0.955-12.96,1.082c-1.957,0.057-7.121,0.77-8.55-1.203c-1.568-2.168-0.998-5.842-1.166-8.348
				c-0.274-4.055-1.381-7.797-4.278-10.766c-3.548-3.633-9.464-4.602-14.242-5.205c-7.66-0.965-15.343-0.646-22.692-3.322
				c-2.776-1.012-6.082,0.99-6.818,3.744c-1.456,5.443-3.099,10.832-4.201,16.344c-8.643-0.523-17.427-0.664-25.854-2.615
				c0.174-0.662,0.351-1.324,0.507-1.986c1.332-5.68,1.326-11.857,1.857-17.66c0.221-2.42-1.757-4.703-3.965-5.359
				c-5.683-1.688-11.476-5.951-16.721-9.045c-3.734-2.203-11.088-8.314-15.843-6.777c-1.854,0.6-2.985,1.854-3.524,3.303
				c-1.016,0.869-1.726,2.152-1.816,3.855c-0.717,13.543,8.856,26.182,15.305,37.324c3.979,6.873,7.234,13.875,11.921,20.359
				c5.022,6.949,10.767,13.275,16.801,19.352c2.758,2.777,8.358,1.984,9.272-2.246c1.744-8.07,8.6-6.525,15.199-4.959
				c5.94,1.412,11.923,3.646,18.032,4.559c-0.503,5.748-0.239,11.141,5.172,15.117c4.048,2.973,10.745,3.723,15.491,4.742
				c6.568,1.412,13.361,1.82,20.039,1.143c9.706-0.984,19.585-0.709,29.029-3.537c9.892-2.961,12.067-11.039,11.315-19.688
				c7.251-0.188,14.834-1.529,21.608-4.104c1.281,5.486,2.554,11.117,6.938,14.842c6.717,5.703,18.175,0.07,25.005-2.717
				c8.69-3.551,17.34-8.48,24.678-14.336c3.943-3.146,6.501-7.502,6.905-12.531c0.254-3.156-1.114-6.41-2.683-9.432
				c3.919-2.447,7.649-5.166,11.148-8.182c3.186,2.49,6.528,4.744,10.132,6.666c3.195,1.707,7.024,0.402,8.166-3.146
				c4.761-14.799,11.963-28.289,11.989-44.223C409.596,272.438,409.201,260.479,404.506,256.014z M146.606,321
				c-0.848-1.582-1.657-3.193-2.425-4.838c-4.083-8.76-12.021-17.461-14.396-27.227c2.215,1.287,4.418,2.592,6.623,3.891
				c3.92,2.307,7.994,4.994,12.262,6.924c-0.411,5.002-0.833,9.99-2.047,14.871C146.109,316.689,145.948,319.012,146.606,321z
				 M398.515,279.656c-0.824,11.408-5.271,21.49-9.148,31.975c-2.181-1.471-4.274-3.064-6.271-4.82
				c-2.227-1.959-5.485-2.436-7.776-0.207c-5.16,5.016-10.87,9.078-17.158,12.561c-2.679,1.484-3.541,4.795-2.173,7.469
				c1.313,2.568,3.661,5.705,3.845,8.678c0.188,3.053-5.084,5.99-7.169,7.377c-5.521,3.674-11.647,7.082-17.776,9.619
				c-2.497,1.035-5.011,1.988-7.584,2.812c-1.562,0.5-3.152,0.863-4.762,1.162c-0.828,0.154-1.516-0.074-1.72-0.1
				c-3.111-3.574-3.091-10.811-4.571-15c-1.165-3.293-4.656-5.314-7.983-3.48c-8.414,4.637-19.478,6.158-28.966,5.461
				c-3.63-0.268-6.168,3.543-5.412,6.84c0.785,3.43,2.191,7.979,0.67,11.402c-1.125,2.535-6.379,2.881-8.799,3.33
				c-6.665,1.236-13.442,0.842-20.116,1.754c-9.507,1.299-18.758-0.807-27.877-3.268c-1.875-0.504-2.398-0.664-2.444-2.398
				c-0.08-3.088,0.565-6.242,0.865-9.309c0.284-2.9-2.61-5.652-5.424-5.578c-13.7,0.363-36.742-13.182-46.396-0.371
				c-6.301-6.916-11.932-14.238-16.548-22.369c0.451,0.527,1.009,0.992,1.689,1.377c4.179,2.365,9.526,2.709,14.172,3.344
				c8.049,1.102,16.22,1.158,24.308,1.85c3.195,0.273,5.259-2.619,5.578-5.424c0.537-4.715,1.861-9.338,3.192-13.924
				c6.03,1.297,12.236,1.412,18.42,2.016c4.694,0.457,9.243,0.74,9.593,5.934c0.287,4.268,0.295,8.193,2.054,12.182
				c1.954,4.43,6.807,6.699,11.316,7.314c9.182,1.25,19.348-0.168,28.372-2.014c11.242-2.297,11.501-14.754,10.65-24.543
				c7.536,0.092,15.026,0.156,22.522-0.643c2.974,8.16,7.347,18.553,16.732,17.432c2.229-0.268,4.303-1.357,6.303-2.324
				c3.276-1.58,6.754-2.66,10.159-3.926c6.441-2.393,12.752-5.104,18.902-8.164c2.33-1.16,3.087-3.773,2.688-6.16
				c-0.61-3.656-2.206-6.9-3.965-10.084c9.618-3.529,18.527-9.061,26.906-14.832c5.538-3.816,10.224-8.391,15.089-13.021
				c1.389-1.324,2.736-2.682,4.045-4.076c0.29,0.127,0.598,0.221,0.924,0.279c0.446,1.613,0.67,3.303,0.829,4.965
				C398.582,273.686,398.728,276.713,398.515,279.656z"/>
		</g>
	</g>
	<g>
		<g>
			<path d="M185.241,124.682c-11.838,0.895-22.973,7.008-32.466,13.766c-9.139,6.506-19.14,15.424-23.037,26.271
				c-2.374,6.605,7.461,11.555,9.854,4.895c3.183-8.854,10.913-15.697,18.217-21.225c8.067-6.107,17.977-11.959,28.28-12.736
				C193.153,135.117,192.327,124.146,185.241,124.682z"/>
		</g>
	</g>
</g>
</svg>
