<?xml version="1.0" encoding="utf-8"?>
<!-- Generator: Adobe Illustrator 16.0.3, SVG Export Plug-In . SVG Version: 6.00 Build 0)  -->
<!DOCTYPE svg PUBLIC "-//W3C//DTD SVG 1.1//EN" "http://www.w3.org/Graphics/SVG/1.1/DTD/svg11.dtd">
<svg version="1.1" id="Layer_1" xmlns="http://www.w3.org/2000/svg" xmlns:xlink="http://www.w3.org/1999/xlink" x="0px" y="0px"
	 width="512px" height="512px" viewBox="0 0 512 512" style="enable-background:new 0 0 512 512;" xml:space="preserve">
<style type="text/css">
<![CDATA[
	.st0{fill:#127274;}
	.st1{fill:#14B6B9;}
	.st2{fill:#1E4384;}
	.st3{fill:#EF4754;}
	.st4{fill:#EF4823;}
	.st5{fill:#BCBCBC;}
	.st6{fill:#F6851F;}
	.st7{fill:#C56528;}
	.st8{fill:#FCBF95;}
	.st9{fill:#FEBF10;}
	.st10{fill:none;}
	.st11{fill:#010101;}
	.st12{fill:#3AB37C;}
	.st13{fill:#D6E5E5;}
	.st14{fill:#71C598;}
	.st15{fill:#74CCCF;}
]]>
</style>
<g>
	<g>
		<g>
			<path class="st9" d="M270.391,295.789c-0.193-4.475-0.067-10.002-1.964-14.164c-0.086-0.189-0.194-0.355-0.298-0.525
				c-1.355-0.336-2.353-1.199-2.963-2.311c-3.143-1.145-7.503-0.562-10.21-0.42c-7.938,0.422-15.705,1.518-23.397,3.549
				c-1.666,0.439-3.143,0.15-4.325-0.559c0.856,5.988,1.667,12.078,3.455,17.873c1.379,4.467,2.837,8.961,7.959,9.918
				c5.508,1.031,11.027,0.299,16.577,0.133c4.093-0.121,9.48,0.451,12.847-2.438C270.839,304.473,270.529,298.99,270.391,295.789z
				 M257.815,296.285c-3.68,3.109-9.452,1.793-13.257,2.633c-2.928,0.646-5.929-0.297-7.01-3.373
				c-0.903-2.57,0.443-6.363,3.373-7.01c2.504-0.555,4.91-0.756,7.463-0.885c0.975-0.049,1.97-0.082,2.937-0.242
				c-0.039,0-0.018-0.014,0.099-0.053c0.055-0.045,0.133-0.107,0.245-0.189c2.293-1.938,6.095-0.799,7.635,1.484
				C261.111,291.336,260.104,294.354,257.815,296.285z"/>
		</g>
	</g>
	<g>
		<g>
			<path class="st0" d="M339.813,186.941c-10.704-16.412-21.981-32.875-30.884-50.352c-8.207-16.111-15.055-32.609-19.608-50.137
				c-4.031-15.514-7.003-33.928-17.624-46.57c-14.908-17.742-38.057-5.707-53.746,4.357c-9.07,5.816-17.627,12.436-26.821,18.055
				c-12.737,7.783-26.329,14.045-40.261,19.365c-11.481,4.385-24.287,7.797-32.714,17.416
				c-9.028,10.307-11.604,24.045-11.983,37.383c-0.401,14.109,0.699,28.094-1.723,42.092c-1.523,8.801-3.892,17.371-6.856,25.748
				c0.398-0.168,0.794-0.336,1.196-0.502c7.08-2.926,12.562-8.521,17.952-13.855c10.489-10.377,21.817-19.646,31.269-31.084
				c9.504-11.502,15.746-24.748,23.905-37.145c3.214-4.883,6.371-10.303,11.719-13.066c4.754-2.459,10.118-3.008,15.288-4.111
				c6.854-1.465,10.555,8.904,3.637,10.383c-4.277,0.912-12.247,1.01-15.441,4.48c-4.32,4.695-7.683,10.639-10.877,16.133
				c-2.28,3.922-4.533,7.795-6.852,11.598c2.476,12.768,5.164,25.496,7.462,38.299c2.315,12.906,5.423,26.715,5.375,39.875
				c-0.026,7.152-0.322,14.299-0.409,21.449c-0.051,4.156,0.179,8.314,0.314,12.465c0.215,0.025,0.435,0.061,0.659,0.109
				c5.412,1.193,10.603,3.145,15.714,5.264c4.66,1.932,10.229,5.207,15.286,5.736c2.893,0.305,8.153,1.406,10.852,3.889
				c0.508-1.215,1.55-2.223,3.28-2.68c10.979-2.9,22.047-4.236,33.395-4.295c3.678-0.018,7.328,0.879,10.415,2.66
				c19.288-2.824,36.518-11.389,52.185-22.822c8.071-5.891,16.261-11.91,22.637-19.695c1.776-2.168,3.211-4.637,4.723-7.01
				c0.645-1.014,1.292-2.025,1.931-3.043c0.558-0.887,0.891-2.355,0.479-0.156l0.023,0.012c0.151-0.701,0.438-1.406,0.899-2.09
				c0.11-0.172,0.225-0.338,0.344-0.504c0.595-0.834,1.315-1.371,2.089-1.678C351.247,204.291,345.488,195.645,339.813,186.941z"/>
		</g>
	</g>
	<g>
		<g>
			<path class="st9" d="M217.07,288.029c-0.507-0.746-0.815-1.701-0.815-2.881v-2.303c-0.264-0.244-0.5-0.512-0.708-0.801
				c-0.661-0.193-1.324-0.381-1.993-0.541c-2.849-0.686-5.635-1.467-8.4-2.469c-7.712-2.795-15.112-6.572-23.089-8.562
				c-0.255,6.33-0.563,13.029,1.084,19.012c0.341,0.072,0.688,0.172,1.039,0.314c11.062,4.473,22.737,7.113,34.676,8.361
				C218.085,294.809,217.541,291.365,217.07,288.029z"/>
		</g>
	</g>
	<g>
		<g>
			<path class="st9" d="M373.871,237.645c-0.242-0.25-0.476-0.525-0.69-0.844c-3.304-4.877-6.606-9.756-9.905-14.639
				c-0.845,1.414-1.928,2.768-2.704,3.979c-1.826,2.854-3.544,5.928-5.754,8.504c-7.173,8.363-15.876,15.1-24.751,21.553
				c-15.369,11.174-32.189,19.629-50.671,23.484c1.497,4.539,1.958,9.799,2.011,14.623c7.336-1.43,14.545-3.104,21.535-4.938
				c9.585-2.514,18.748-5.875,28.016-9.338c7.691-2.875,15.604-5.717,22.566-10.15c6.118-3.895,11.462-8.607,14.576-15.262
				c1.385-2.959,2.744-5.939,3.921-8.986c0.429-1.109,0.889-2.219,1.191-3.371c0.146-0.559,0.226-0.904,0.276-1.096
				C373.194,239.961,373.377,238.734,373.871,237.645z"/>
		</g>
	</g>
	<g>
		<g>
			<path class="st0" d="M493.255,256.148c-0.722-14.406-1.189-29.297-5.457-43.189c-3.307-10.762-8.149-23.525-19.271-28.334
				c-8.831-3.816-18.94-3.412-28.362-3.414c-5.045,0-7.436-5.113-4.556-9.115c4.725-6.568,10.359-13.285,13.021-21.066
				c-14.388-15.371-40.34-12.941-59.056-8.357c-11.31,2.771-21.697,7.873-32.822,11.086c-5.489,1.584-15.725,3.15-20.032,7.998
				c14.71,23.279,30.137,46.096,45.581,68.895c1.271,1.875,1.204,3.777,0.399,5.309c4.362,4.711-0.038,12.895-2.128,17.734
				c-3.213,7.441-6.807,13.883-12.965,19.367c-7.183,6.396-15.969,10.682-24.845,14.217c-9.584,3.816-19.261,7.684-29.178,10.545
				c-10.66,3.076-21.758,5.785-33.064,7.863c-0.752,3.258-2.12,6.309-4.615,8.816c-4.97,4.992-12.128,5.523-18.765,5.721
				c-7.035,0.209-14.837,1.533-21.708-0.543c-5.901-1.781-9.79-5.523-12.451-10.238c-15.022-1.117-29.758-4.154-43.688-9.789
				c-0.44-0.178-0.825-0.389-1.165-0.627c-1.891-0.145-3.701-1.207-4.579-3.48c-3.544-9.18-2.349-19.652-2.299-29.27
				c0.034-6.873-0.515-13.734-0.37-20.627c0.135-6.414,0.872-13.102,0.375-19.5c-0.021-0.268-0.047-0.537-0.068-0.805
				c-1.361,0.785-3.063,1.031-4.894,0.309c-8.402-3.316-18.666,0.631-26.734,3.266c-9.668,3.156-17.705,9.041-25.962,14.795
				c-15.155,10.562-34.064,20.211-43.93,36.461c-4.243,6.988-5.993,15.227-6.928,23.27c-0.802,6.904-2.376,16.521,0.644,23.078
				c5.295,11.494,22.649,13.773,33.407,16.805c4.714,1.33,5.94,6.893,2.025,9.959c-3.153,2.471-6.913,4.154-10.505,6.047
				c6.069,0.789,12.14,1.949,16.657,6.424c3.575,3.541,5.665,8.475,7.312,13.143c1.835,5.203,3.423,10.32,6.378,15.02
				c2.884,4.588,6.08,8.98,9.646,13.062c15.941,18.256,37.501,31.793,59.899,40.678c25.332,10.049,51.523,12.604,78.6,10.381
				c16.084-1.32,32.712-2.721,48.482-6.236c13.768-3.07,27.341-7.16,41.33-9.098c4.021-14.48,0.104-30.232,1.727-45.029
				c0.559-5.1,7.319-5.535,9.958-2.025c9.095,12.098,22.934,21.777,38.185,23.375c-3.155-14.23-14.9-25.838-16.229-40.877
				c-0.468-5.295,5.372-7.088,9.116-4.555c6.198,4.191,13.722,5.889,20.731,8.182c5.089,1.664,10.546,2.818,15.809,3.793
				c4.45,0.822,12.544,2.9,16.694,0.07c3.984-2.715,6.178-7.436,8.151-11.688c5.356-11.539,11.507-22.473,17.584-33.641
				c6.866-12.615,11.188-25.814,13.215-40.043C493.635,285.672,493.992,270.865,493.255,256.148z"/>
		</g>
	</g>
	<g>
		<g>
			<path d="M503.384,240.785c-1.646-23.172-6.804-56.004-30.983-66.455c-6.906-2.984-14.49-3.801-22.05-4.018
				c2.5-3.615,4.862-7.318,6.832-11.264c1.47-2.943,3.92-7.809,2.749-11.143c-1.168-3.322-5.145-6.459-7.762-8.66
				c-11.813-9.93-28.026-11.379-42.81-10.449c-8.485,0.533-16.91,1.896-25.162,3.918c-9.033,2.213-17.402,5.98-26.109,9.119
				c-8.646,3.119-19.778,4.598-27.217,10.572c-0.531-0.857-1.071-1.709-1.601-2.568c-7.99-12.971-15.071-26.223-20.842-40.34
				c-5.51-13.48-8.812-27.529-12.582-41.549c-6-22.318-16.908-47.986-43.602-48.342c-20.63-0.273-40.049,14.949-56.105,26.123
				c-15.795,10.992-32.605,19.322-50.564,26.18c-16.644,6.355-32.184,12.297-41.763,28.369c-9.784,16.416-8.862,36.93-8.61,55.322
				c0.279,20.484-5.19,40.045-13.39,58.678c-2.624,5.961,4.566,10.236,9.059,6.078c4.253-3.936,10.282-5.533,15.462-7.852
				c6.099-2.73,11.271-8.213,16.064-12.766c10.243-9.729,20.914-18.982,30.354-29.529c2.909-3.25,5.566-6.611,8.062-10.059
				c3.646,18.355,7.304,36.711,9.409,55.303c-9.954-3.533-20.361-1.248-30.223,1.758c-11.062,3.373-20.452,8.877-29.866,15.492
				c-17.865,12.553-38.493,23.541-50.32,42.574c-5.048,8.123-6.954,18.164-8.042,27.525c-1.012,8.709-2.036,19.012,1.229,27.355
				c4.643,11.863,16.887,16.963,28.896,20.473c-3.721,2.027-7.335,4.199-10.288,7.463c-2.409,2.66-1.444,6.969,1.685,8.557
				c5.838,2.963,12.14,3.131,18.447,4.324c6.203,1.176,8.186,6.176,10.156,11.561c1.777,4.854,3.285,9.686,5.703,14.277
				c2.668,5.068,6.211,9.773,9.809,14.209c15.234,18.785,35.957,32.887,57.757,42.99c23.036,10.676,47.434,15.748,72.771,15.846
				c16.499,0.062,32.951-2.023,49.285-4.135c15.428-1.996,30.221-5.682,45.338-9.252c6.141-1.449,12.332-2.578,18.605-3.262
				c1.737-0.189,3.879-1.254,4.503-3.037c4.407-12.584,3.076-25.146,2.96-37.893c12.092,11.213,27.727,18.506,44.537,17.93
				c3.105-0.105,5.136-3.014,5.062-5.908c-0.225-8.686-3.726-16.412-7.686-23.98c-2.095-4.002-4.454-7.986-6.288-12.148
				c7.721,3.102,15.99,5.102,23.957,6.984c10.02,2.369,23.509,5.377,32.32-1.715c7.965-6.41,11.637-17.85,15.872-26.826
				c6.262-13.27,14.905-25.139,19.839-39.061C506.018,299.967,505.431,269.588,503.384,240.785z M169.389,147.129
				c2.318-3.803,4.571-7.676,6.852-11.598c3.194-5.494,6.557-11.438,10.877-16.133c3.194-3.471,11.164-3.568,15.441-4.48
				c6.918-1.479,3.217-11.848-3.637-10.383c-5.17,1.104-10.534,1.652-15.288,4.111c-5.348,2.764-8.505,8.184-11.719,13.066
				c-8.159,12.396-14.401,25.643-23.905,37.145c-9.451,11.438-20.779,20.707-31.269,31.084c-5.39,5.334-10.872,10.93-17.952,13.855
				c-0.402,0.166-0.798,0.334-1.196,0.502c2.965-8.377,5.333-16.947,6.856-25.748c2.422-13.998,1.321-27.982,1.723-42.092
				c0.38-13.338,2.955-27.076,11.983-37.383c8.427-9.619,21.232-13.031,32.714-17.416c13.932-5.32,27.523-11.582,40.261-19.365
				c9.194-5.619,17.751-12.238,26.821-18.055c15.689-10.064,38.838-22.1,53.746-4.357c10.621,12.643,13.593,31.057,17.624,46.57
				c4.554,17.527,11.401,34.025,19.608,50.137c8.902,17.477,20.18,33.939,30.884,50.352c5.675,8.703,11.434,17.35,17.228,25.973
				c-0.773,0.307-1.494,0.844-2.089,1.678c-0.119,0.166-0.233,0.332-0.344,0.504c-0.461,0.684-0.748,1.389-0.899,2.09l-0.023-0.012
				c0.411-2.199,0.078-0.73-0.479,0.156c-0.639,1.018-1.286,2.029-1.931,3.043c-1.512,2.373-2.946,4.842-4.723,7.01
				c-6.376,7.785-14.565,13.805-22.637,19.695c-15.667,11.434-32.896,19.998-52.185,22.822c-3.087-1.781-6.737-2.678-10.415-2.66
				c-11.348,0.059-22.415,1.395-33.395,4.295c-1.73,0.457-2.772,1.465-3.28,2.68c-2.698-2.482-7.959-3.584-10.852-3.889
				c-5.058-0.529-10.626-3.805-15.286-5.736c-5.111-2.119-10.302-4.07-15.714-5.264c-0.225-0.049-0.444-0.084-0.659-0.109
				c-0.136-4.15-0.365-8.309-0.314-12.465c0.087-7.15,0.383-14.297,0.409-21.449c0.048-13.16-3.06-26.969-5.375-39.875
				C174.553,172.625,171.864,159.896,169.389,147.129z M373.488,241.164c-0.051,0.191-0.13,0.537-0.276,1.096
				c-0.303,1.152-0.763,2.262-1.191,3.371c-1.177,3.047-2.536,6.027-3.921,8.986c-3.114,6.654-8.458,11.367-14.576,15.262
				c-6.963,4.434-14.875,7.275-22.566,10.15c-9.268,3.463-18.431,6.824-28.016,9.338c-6.99,1.834-14.199,3.508-21.535,4.938
				c-0.053-4.824-0.514-10.084-2.011-14.623c18.481-3.855,35.302-12.311,50.671-23.484c8.875-6.453,17.578-13.189,24.751-21.553
				c2.21-2.576,3.928-5.65,5.754-8.504c0.776-1.211,1.859-2.564,2.704-3.979c3.299,4.883,6.602,9.762,9.905,14.639
				c0.215,0.318,0.448,0.594,0.69,0.844C373.377,238.734,373.194,239.961,373.488,241.164z M268.071,306.846
				c-3.366,2.889-8.754,2.316-12.847,2.438c-5.55,0.166-11.069,0.898-16.577-0.133c-5.122-0.957-6.58-5.451-7.959-9.918
				c-1.788-5.795-2.599-11.885-3.455-17.873c1.183,0.709,2.659,0.998,4.325,0.559c7.692-2.031,15.459-3.127,23.397-3.549
				c2.707-0.143,7.067-0.725,10.21,0.42c0.61,1.111,1.607,1.975,2.963,2.311c0.104,0.17,0.212,0.336,0.298,0.525
				c1.896,4.162,1.771,9.689,1.964,14.164C270.529,298.99,270.839,304.473,268.071,306.846z M217.07,288.029
				c0.471,3.336,1.015,6.779,1.793,10.131c-11.938-1.248-23.614-3.889-34.676-8.361c-0.352-0.143-0.698-0.242-1.039-0.314
				c-1.647-5.982-1.339-12.682-1.084-19.012c7.977,1.99,15.377,5.768,23.089,8.562c2.766,1.002,5.552,1.783,8.4,2.469
				c0.669,0.16,1.332,0.348,1.993,0.541c0.208,0.289,0.444,0.557,0.708,0.801v2.303C216.255,286.328,216.563,287.283,217.07,288.029
				z M491.556,300.268c-2.026,14.229-6.349,27.428-13.215,40.043c-6.077,11.168-12.228,22.102-17.584,33.641
				c-1.974,4.252-4.167,8.973-8.151,11.688c-4.15,2.83-12.244,0.752-16.694-0.07c-5.263-0.975-10.72-2.129-15.809-3.793
				c-7.01-2.293-14.533-3.99-20.731-8.182c-3.744-2.533-9.584-0.74-9.116,4.555c1.329,15.039,13.074,26.646,16.229,40.877
				c-15.251-1.598-29.09-11.277-38.185-23.375c-2.639-3.51-9.399-3.074-9.958,2.025c-1.622,14.797,2.295,30.549-1.727,45.029
				c-13.989,1.938-27.562,6.027-41.33,9.098c-15.771,3.516-32.398,4.916-48.482,6.236c-27.076,2.223-53.268-0.332-78.6-10.381
				c-22.398-8.885-43.958-22.422-59.899-40.678c-3.565-4.082-6.762-8.475-9.646-13.062c-2.955-4.699-4.543-9.816-6.378-15.02
				c-1.647-4.668-3.737-9.602-7.312-13.143c-4.518-4.475-10.588-5.635-16.657-6.424c3.592-1.893,7.352-3.576,10.505-6.047
				c3.915-3.066,2.688-8.629-2.025-9.959c-10.758-3.031-28.112-5.311-33.407-16.805c-3.02-6.557-1.445-16.174-0.644-23.078
				c0.935-8.043,2.685-16.281,6.928-23.27c9.865-16.25,28.774-25.898,43.93-36.461c8.257-5.754,16.294-11.639,25.962-14.795
				c8.068-2.635,18.332-6.582,26.734-3.266c1.83,0.723,3.532,0.477,4.894-0.309c0.021,0.268,0.048,0.537,0.068,0.805
				c0.497,6.398-0.24,13.086-0.375,19.5c-0.145,6.893,0.404,13.754,0.37,20.627c-0.05,9.617-1.245,20.09,2.299,29.27
				c0.878,2.273,2.688,3.336,4.579,3.48c0.34,0.238,0.725,0.449,1.165,0.627c13.93,5.635,28.665,8.672,43.688,9.789
				c2.661,4.715,6.55,8.457,12.451,10.238c6.871,2.076,14.673,0.752,21.708,0.543c6.637-0.197,13.795-0.729,18.765-5.721
				c2.495-2.508,3.863-5.559,4.615-8.816c11.307-2.078,22.404-4.787,33.064-7.863c9.917-2.861,19.594-6.729,29.178-10.545
				c8.876-3.535,17.662-7.82,24.845-14.217c6.158-5.484,9.752-11.926,12.965-19.367c2.09-4.84,6.49-13.023,2.128-17.734
				c0.805-1.531,0.871-3.434-0.399-5.309c-15.444-22.799-30.871-45.615-45.581-68.895c4.308-4.848,14.543-6.414,20.032-7.998
				c11.125-3.213,21.513-8.314,32.822-11.086c18.716-4.584,44.668-7.014,59.056,8.357c-2.661,7.781-8.296,14.498-13.021,21.066
				c-2.88,4.002-0.489,9.115,4.556,9.115c9.422,0.002,19.531-0.402,28.362,3.414c11.122,4.809,15.965,17.572,19.271,28.334
				c4.268,13.893,4.735,28.783,5.457,43.189C493.992,270.865,493.635,285.672,491.556,300.268z"/>
		</g>
	</g>
	<g>
		<g>
			<path d="M259.3,288.65c-1.54-2.283-5.342-3.422-7.635-1.484c-0.112,0.082-0.19,0.145-0.245,0.189
				c-0.116,0.039-0.138,0.053-0.099,0.053c-0.967,0.16-1.962,0.193-2.937,0.242c-2.553,0.129-4.959,0.33-7.463,0.885
				c-2.93,0.646-4.276,4.439-3.373,7.01c1.081,3.076,4.082,4.02,7.01,3.373c3.805-0.84,9.577,0.477,13.257-2.633
				C260.104,294.354,261.111,291.336,259.3,288.65z"/>
		</g>
	</g>
</g>
</svg>
