<?xml version="1.0" encoding="utf-8"?>
<!-- Generator: Adobe Illustrator 16.0.3, SVG Export Plug-In . SVG Version: 6.00 Build 0)  -->
<!DOCTYPE svg PUBLIC "-//W3C//DTD SVG 1.1//EN" "http://www.w3.org/Graphics/SVG/1.1/DTD/svg11.dtd">
<svg version="1.1" id="Layer_1" xmlns="http://www.w3.org/2000/svg" xmlns:xlink="http://www.w3.org/1999/xlink" x="0px" y="0px"
	 width="512px" height="512px" viewBox="0 0 512 512" style="enable-background:new 0 0 512 512;" xml:space="preserve">
<style type="text/css">
<![CDATA[
	.st0{fill:#127274;}
	.st1{fill:#14B6B9;}
	.st2{fill:#1E4384;}
	.st3{fill:#EF4754;}
	.st4{fill:#EF4823;}
	.st5{fill:#BCBCBC;}
	.st6{fill:#F6851F;}
	.st7{fill:#C56528;}
	.st8{fill:#FCBF95;}
	.st9{fill:#FEBF10;}
	.st10{fill:none;}
	.st11{fill:#010101;}
	.st12{fill:#3AB37C;}
	.st13{fill:#D6E5E5;}
	.st14{fill:#71C598;}
	.st15{fill:#74CCCF;}
]]>
</style>
<g>
	<g>
		<path d="M501.121,255.496c-15.399-5.91-31.839-6.281-47.939-8.926c-0.644-0.107-1.292-0.191-1.937-0.293
			c-10.318-5.334-21.051-9.904-30.121-17.348c-12.986-10.654-23.921-25.166-30.769-40.467c-6.241-13.945-8.114-29.625-8.583-44.758
			c-0.475-15.301,1.055-31.367,6.334-45.826c0.24-0.658,0.383-1.301,0.438-1.918l0.076-0.109
			c9.237-12.953,19.101-26.398,23.334-41.949c0.277-0.686,0.456-1.416,0.567-2.205c0.017-0.072,0.039-0.143,0.055-0.215
			c-0.009,0-0.018,0-0.027-0.002c0.058-0.467,0.1-0.949,0.113-1.471c0.169-6.436-9.548-6.424-10.884-0.627
			c-0.016,0.07-0.037,0.137-0.053,0.207c-0.061,0.072-0.111,0.129-0.18,0.213c-1.527,1.568-1.796,3.336-1.297,4.887
			c-3.534,10.369-9.971,19.77-16.175,28.65c-1.325,1.895-2.63,3.807-3.938,5.715c-11.431-2.131-23.174,0.723-34.7,1.123
			c-13.538,0.471-28.15-4.576-40.746-9.051c-11.793-4.189-23.062-8.35-33.445-15.535c-9.376-6.488-17.652-14.514-25.177-23.066
			c-0.81-11.23-2.187-22.475-6.189-32.91c-2.11-5.5-8.99-4.189-10.404,0.596c-3.19,2.545-1.661,8.047,2.091,9.379
			c1.804,6.525,2.739,13.311,3.333,20.146c-0.696,0.941-1.146,2.162-1.196,3.619c-1.864,53.703-76.14,48.391-113.432,51.09
			c-0.865,0.062-1.675,0.344-2.388,0.777c-7.379-7.084-14.492-14.461-21.128-22.365c-4.516-5.381-13.682,0.715-9.119,6.15
			c3.688,4.393,7.509,8.645,11.428,12.799c-0.011,16.838-0.436,33.441-2.389,50.205c-2.712,23.283-7.761,46.316-15.417,68.48
			c-7.865,22.764-18.5,43.936-32.435,63.592c-4.794,6.762-9.95,12.51-15.765,18.367c-4.774,4.809-9.525,10.303-11.657,15.695
			c-0.622,1.574-0.673,3.07-0.136,4.439c-4.458,2.186-5.04,9.836,0.885,10.232c1.538,0.104,3.068,0.15,4.593,0.156
			c0.634,1.344,1.856,2.426,3.759,2.801c22.094,4.357,40.33,20.84,56.318,35.705c6.308,5.865,12.935,11.35,19.323,17.123
			c2.414,2.182,5.043,4.527,7.456,7.08c1.241,3.49,2.56,6.941,4.082,10.309c-7.955,7.504-15.865,15.061-23.619,22.791
			c-5.039,5.023,3.272,12.24,8.265,7.262c6.896-6.875,13.955-13.578,21.062-20.23c1.08,0.812,2.493,1.309,3.727,1.086
			c62.965-11.328,123.424,24.709,160.009,74.086c1.124,1.518,2.639,2.229,4.153,2.316c2.426,4.809,11.113,3.502,10.392-2.814
			c-0.139-1.219-0.268-2.439-0.401-3.658c2.004-0.76,3.578-2.57,3.4-5.342c-1.958-30.598,19.199-56.486,43.339-72.639
			c23.894-15.986,56.979-26.166,85.222-16.506c2.627,0.898,4.959,0.17,6.376-1.334c3.725,3.033,7.494,6.01,11.356,8.869
			c-0.904,4.297,5.549,8.57,9.846,4.668c-0.301,0.355-0.072,0.375,0.687,0.061c3.876-0.824,5.004-7.092,1.812-9.322
			c-12.244-8.559-23.528-18.324-34.861-28.029c-7.252-14.844-9.093-31.967-6.156-48.732c3.253-18.572,17.492-42.664,37.81-45.615
			c2.507-0.365,4.075-1.859,4.659-3.668c7.099,0.799,14.217,1.535,21.151,3.072c0.355,2.615,2.313,5.111,5.688,5.096
			c3.175-0.018,5.99-0.473,8.895-1.795C504.347,263.859,506.016,257.373,501.121,255.496z M411.333,234.951
			c3.237,3.018,6.731,5.605,10.376,7.941c-8.139-0.707-16.283-1.338-24.384-2.121c-6.082-0.586-12.188-1.266-18.311-1.969
			c-0.476-0.936-1.148-1.768-2.019-2.352c-23.899-16.047-32.938-49.662-33.875-77.375c4.783-6.205,9.526-12.443,14.221-18.721
			c5.035-6.732,9.848-13.602,14.612-20.498c-0.872,7.09-1.223,14.26-1.207,21.438c0.037,17.123,2.475,34.975,9.225,50.805
			C386.968,208.504,398.363,222.861,411.333,234.951z M358.88,303.479c-5.575-4.148-11.148-8.301-16.719-12.453
			c-0.506-8.787-4.631-17.332-2.686-26.092c1.563-7.043,7.508-14.547,14.308-17.967c4.953,0.52,9.901,1.08,14.842,1.652
			C358.743,265.383,355.444,284.318,358.88,303.479z M328.403,275.053c0.32,2.238,0.88,4.488,1.428,6.748
			c-5.237-3.92-10.477-7.838-15.694-11.785c-10.252-7.758-20.429-15.615-30.544-23.551c0.323,0.008,0.658-0.006,1.014-0.057
			c17.724-2.549,35.596-2.264,53.456-0.889c-3.341,3.752-6.027,8.072-7.779,12.336C328.002,263.408,327.56,269.152,328.403,275.053z
			 M198.34,269.963c-3.292,1.031-6.592,2.035-9.898,3.008c-1.582-0.125-2.908,0.342-3.929,1.146
			c-1.796,0.514-3.593,1.021-5.391,1.521c10.927-16.945,16.914-36.705,17.162-57.002c0.171-14.029-2.272-28.584-7.161-41.744
			c-0.488-1.314-1.025-2.605-1.583-3.887c11.105,10.604,22.079,21.35,33.144,31.992c0.172,0.166,0.345,0.33,0.517,0.494
			c0.454,14.551,1.545,30.215-4.92,43.336c-2.878,5.842-6.972,11.039-11.499,15.684C203.005,266.334,200.791,268.348,198.34,269.963
			z M194.156,318.717c-1.043-11.553-6.929-23.045-14.988-31.682c3.726-1.018,7.443-2.082,11.155-3.17
			c2.36-0.119,4.637-0.58,6.829-1.303C202.446,293.5,198.761,308.033,194.156,318.717z M130.884,122.201
			c6.844,6.051,13.784,12.004,20.719,17.965c3.698,3.18,7.348,6.414,10.978,9.668c4.526,8.713,9.891,16.963,14.1,25.848
			c5.626,11.877,7.926,25.357,8.541,38.395c1.124,23.85-7.348,47.496-22.803,65.67c-0.109,0.129-0.203,0.262-0.298,0.393
			c-3.347,0.846-6.692,1.678-10.033,2.482c-21.231,5.113-42.444,10.312-63.656,15.508c-8.864,2.17-17.605,4.574-26.341,7.135
			c25.296-27.254,49.782-56.43,64.968-90.561c7.773-17.471,10.87-35.904,11.111-54.932
			C138.335,146.707,134.354,134.516,130.884,122.201z M232.384,216.152c7.617,7.205,15.298,14.342,23.104,21.344
			c2.27,2.037,4.579,4.025,6.904,5.996c-0.309,0.402-0.622,0.801-0.931,1.203c-13.083,6.703-26.696,12.508-40.601,17.625
			c1.042-1.49,2.024-2.977,2.937-4.434C231.592,245.443,232.538,230.711,232.384,216.152z M279.18,243.018
			c-0.527-0.416-1.06-0.824-1.586-1.24c0.485-0.629,0.971-1.258,1.456-1.887C278.833,240.934,278.88,242.027,279.18,243.018z
			 M276.675,225.023c-1.224-4.225-1.707-8.822-2.333-12.881c-1.078-6.988-1.981-13.992-2.82-21.01
			c1.709,1.105,3.436,2.1,5.147,2.941c3.35,1.646,6.856,2.918,10.47,3.844c3.288,0.842,7.167,0.256,10.471,0.965
			c0.021,0.061,0.045,0.121,0.067,0.182C290.681,207.721,283.562,216.273,276.675,225.023z M207.366,278.574
			c13.3-4.365,26.428-9.254,39.217-14.818c-0.553,0.693-1.094,1.396-1.649,2.09c-10.223,12.75-22.421,24.238-33.624,36.141
			c-0.451,0.479-0.902,0.959-1.353,1.438C211.217,294.924,210.767,286.277,207.366,278.574z M238.592,289.043
			c10.548-11.207,20.213-23.117,29.66-35.213c0.29,19.307,2.409,38.416,4.967,57.486c-3.377-1.584-6.965-2.654-10.871-3.088
			c-7.38-0.818-14.706,0.656-22.073,0.666c-7.111,0.01-14.321,0.225-21.363,1.229C225.459,303.078,232.008,296.039,238.592,289.043z
			 M298.372,215.297c1.584-1.945,3.163-3.895,4.745-5.842c4.634,6.723,10.827,12.604,16.891,17.566
			c3.241,2.654,6.698,4.955,10.303,6.98c-15.565-0.889-31.119-0.783-46.549,1.436c-0.61,0.088-1.157,0.256-1.649,0.482
			C287.46,228.994,292.839,222.088,298.372,215.297z M303.997,189.451c-5.925-2.26-12.344-1.182-18.356-3.426
			c-5.334-1.99-11.284-5.812-15.918-10.035c-1.814-14.418-4.079-28.598-7.087-42.766c6.938,4.326,14.475,7.879,21.174,11.314
			c14.208,7.287,29.938,13.457,46.092,13.697c-8.251,10.611-16.594,21.152-24.928,31.693
			C304.679,189.752,304.358,189.588,303.997,189.451z M264.045,217.213c0.942,5.703,1.962,11.846,4.503,17.164
			c-9.702-8.242-18.949-17.074-28.187-25.797c-2.545-2.402-5.083-4.816-7.614-7.232c9.513-1.447,20.66-5.883,27.358-13.102
			c0.073,0.625,0.146,1.248,0.219,1.873C261.372,199.182,262.56,208.213,264.045,217.213z M204.814,325.273
			c10.266-4.834,22.19-5.258,33.367-5.393c12.348-0.148,25.183-3.604,35.738,4.629c0.396,0.309,0.809,0.543,1.227,0.738
			c1.857,13.143,3.764,26.287,5.269,39.48c0.625,5.479,1.175,10.963,1.698,16.449c-0.023,0.115-0.045,0.23-0.068,0.344
			c-7.461-13.734-17.506-25.678-30.575-35.297c-9.069-6.674-18.786-11.885-29.495-15.371c-6.095-1.984-12.404-3.131-18.773-3.846
			C203.74,326.432,204.276,325.852,204.814,325.273z M279.297,257.135c4.566,3.561,9.161,7.084,13.751,10.609
			c8.52,6.545,17.094,13.018,25.686,19.469c-7.281,0.486-14.575,2.318-20.917,4.596c-5.226,1.877-10.535,4.58-14.964,8.139
			C281.09,285.738,279.707,271.492,279.297,257.135z M328.241,219.527c-6.568-5.021-13.582-11.539-17.842-19.072
			c7.607-9.43,15.168-18.895,22.645-28.426c2.51,21.842,10.021,44.279,24.133,60.836C346.828,230.09,336.841,226.1,328.241,219.527z
			 M296.582,89.861c14.378,4.566,28.398,9.734,43.562,11.105c10.983,0.992,22.073-2.215,32.988-1.643
			c-3.813,5.615-7.638,11.219-11.579,16.732c-7.451,10.424-15.123,20.686-22.911,30.859c-0.47-0.062-0.966-0.088-1.515-0.023
			c-17.06,1.957-33.554-4.559-48.422-12.207c-9.702-4.992-21.771-10.104-29.967-18.209c-4.703-18.59-10.276-37.768-11.598-56.832
			c-0.006-0.094-0.012-0.189-0.019-0.283C261.211,72.994,277.26,83.725,296.582,89.861z M248.695,121.904
			c0.056,0.062,0.109,0.125,0.164,0.188c0.286,1.166,0.571,2.332,0.859,3.498c3.675,14.887,6.154,29.781,8.174,44.834
			c-1.392,0.605-2.48,1.869-2.742,3.904c-1.442,11.203-19.665,16.379-29.024,16.564c-1.327,0.025-2.375,0.432-3.156,1.072
			c-15.435-14.871-30.765-29.85-46.482-44.426c13.146-0.754,26.187-2.891,38.757-6.941c7.817-2.52,15.323-6.064,22.324-10.348
			C241.265,127.99,245.449,125.279,248.695,121.904z M237.151,70.076c1.179,7.834,3.229,15.643,4.928,23.305
			c1.005,4.531,2.055,9.053,3.123,13.57c-1.002,0.699-1.769,1.807-2.051,3.377c-0.993,5.518-10.025,9.834-14.373,12.385
			c-6.296,3.697-13.201,6.303-20.16,8.443c-13.314,4.094-27.379,5.531-41.275,5.715c-1.021-0.564-2.183-0.775-3.316-0.686
			c-11.834-10.516-23.969-20.65-35.683-31.234C165.581,102.789,217.835,102.305,237.151,70.076z M44.705,310.068
			c-3.981,0.893-8.007,1.564-12.058,1.877c0.221-0.822,0.267-1.693,0.145-2.535c0.417-0.74,0.972-1.531,1.895-2.629
			c2.609-3.107,5.528-5.965,8.391-8.834c6.501-6.52,11.874-13.455,17.12-21.049c13.927-20.154,24.238-41.803,32.096-64.975
			c7.669-22.611,12.627-45.924,15.389-69.627c1.533-13.164,2.092-26.264,2.273-39.432c2.161,2.107,4.34,4.195,6.542,6.262
			c3.039,15.535,9.56,30.314,10.614,46.25c1.224,18.492-2.598,37.504-9.909,54.432c-15.9,36.816-43.948,67.66-71.14,96.48
			C44.996,307.42,44.605,308.76,44.705,310.068z M95.181,354.246c-13.14-12.918-28.71-26.299-46.15-33.992
			c1.851-0.416,3.697-0.865,5.54-1.342c14.885,8.715,30.053,16.975,41.4,30.377c3.657,4.318,6.544,8.883,8.962,13.709
			C101.604,360.164,98.297,357.309,95.181,354.246z M123.257,380.146c-1.276-3.76-2.476-7.553-3.793-11.295
			c-3.693-10.492-9.054-19.713-16.399-28.066c-9.647-10.971-21.596-18.707-33.912-26.021c5.805-1.729,11.602-3.465,17.425-4.902
			c22.502-5.557,45.006-11.176,67.568-16.48c4.225-0.994,8.452-2.027,12.678-3.098c10.449,8.414,20.159,25.881,15.799,38.646
			c-0.469,1.373-0.533,2.674-0.258,3.812c-1.671,1.775-3.343,3.553-5.015,5.328c-15.8,16.787-32.587,32.504-49.368,48.238
			C126.594,384.145,124.98,382.094,123.257,380.146z M135.437,394.596c12.02-11.146,24.037-22.295,35.573-33.947
			c7.643-7.719,15.164-15.566,22.632-23.471c7.979,0.545,15.896,1.592,23.642,3.699c9.755,2.656,18.76,7.75,26.922,13.613
			c17.748,12.744,29.205,30.193,36.152,50.705c0.749,2.213,2.36,3.312,4.106,3.549c1.474,18.979,2.78,37.975,4.599,56.922
			C251.746,420.461,194.951,387.934,135.437,394.596z M290.627,357.393c-1.77-14.576-3.967-29.094-5.963-43.627
			c3.655-6.365,12.677-10.195,18.878-12.303c9.001-3.062,21.56-5.416,30.561-1.158c0.887,0.42,1.856,0.57,2.804,0.502
			c7.338,5.467,14.68,10.928,22.019,16.395c-0.865,0.1-1.703,0.195-2.497,0.271c-6.289,0.605-12.536,1.855-18.622,3.535
			c-11.128,3.07-21.755,8.512-30.581,15.959C300.25,342.854,294.78,349.783,290.627,357.393z M422.128,368.715
			c-27.896-3.84-56.918,5.713-80.272,21.016c-19.191,12.576-36.053,31.029-43.795,52.668c-1.634-20.234-2.997-40.494-4.873-60.707
			c2.985-13.221,9.213-25.395,19.584-35.061c14.621-13.625,35.299-18.398,54.844-18.758c0.886,0.633,2.008,1.014,3.358,0.99
			c1.002-0.02,2.044-0.129,2.995-0.445c13.4,10,26.843,19.98,39.673,30.701c1.884,1.574,3.758,3.16,5.628,4.75
			C420.163,365.516,421.115,367.133,422.128,368.715z M411.713,305.295c-2.633,12.131-2.065,26.211,0.338,38.459
			c-6.914-5.496-13.926-10.867-20.989-16.199c-7.101-5.359-14.224-10.691-21.354-16.01c1.035-1.271,1.555-2.992,1.034-4.986
			c-5.103-19.543-1.744-39.984,9.938-56.547c4.86,0.553,9.711,1.084,14.548,1.559c16.617,1.629,33.795,2.068,50.321,4.816
			C427.706,265.609,415.822,286.357,411.713,305.295z"/>
	</g>
	<g>
		<path class="st10" d="M501.121,255.496c-15.399-5.91-31.839-6.281-47.939-8.926c-0.644-0.107-1.292-0.191-1.937-0.293
			c-10.318-5.334-21.051-9.904-30.121-17.348c-12.986-10.654-23.921-25.166-30.769-40.467c-6.241-13.945-8.114-29.625-8.583-44.758
			c-0.475-15.301,1.055-31.367,6.334-45.826c0.24-0.658,0.383-1.301,0.438-1.918l0.076-0.109
			c9.237-12.953,19.101-26.398,23.334-41.949c0.277-0.686,0.456-1.416,0.567-2.205c0.017-0.072,0.039-0.143,0.055-0.215
			c-0.009,0-0.018,0-0.027-0.002c0.058-0.467,0.1-0.949,0.113-1.471c0.169-6.436-9.548-6.424-10.884-0.627
			c-0.016,0.07-0.037,0.137-0.053,0.207c-0.061,0.072-0.111,0.129-0.18,0.213c-1.527,1.568-1.796,3.336-1.297,4.887
			c-3.534,10.369-9.971,19.77-16.175,28.65c-1.325,1.895-2.63,3.807-3.938,5.715c-11.431-2.131-23.174,0.723-34.7,1.123
			c-13.538,0.471-28.15-4.576-40.746-9.051c-11.793-4.189-23.062-8.35-33.445-15.535c-9.376-6.488-17.652-14.514-25.177-23.066
			c-0.81-11.23-2.187-22.475-6.189-32.91c-2.11-5.5-8.99-4.189-10.404,0.596c-3.19,2.545-1.661,8.047,2.091,9.379
			c1.804,6.525,2.739,13.311,3.333,20.146c-0.696,0.941-1.146,2.162-1.196,3.619c-1.864,53.703-76.14,48.391-113.432,51.09
			c-0.865,0.062-1.675,0.344-2.388,0.777c-7.379-7.084-14.492-14.461-21.128-22.365c-4.516-5.381-13.682,0.715-9.119,6.15
			c3.688,4.393,7.509,8.645,11.428,12.799c-0.011,16.838-0.436,33.441-2.389,50.205c-2.712,23.283-7.761,46.316-15.417,68.48
			c-7.865,22.764-18.5,43.936-32.435,63.592c-4.794,6.762-9.95,12.51-15.765,18.367c-4.774,4.809-9.525,10.303-11.657,15.695
			c-0.622,1.574-0.673,3.07-0.136,4.439c-4.458,2.186-5.04,9.836,0.885,10.232c1.538,0.104,3.068,0.15,4.593,0.156
			c0.634,1.344,1.856,2.426,3.759,2.801c22.094,4.357,40.33,20.84,56.318,35.705c6.308,5.865,12.935,11.35,19.323,17.123
			c2.414,2.182,5.043,4.527,7.456,7.08c1.241,3.49,2.56,6.941,4.082,10.309c-7.955,7.504-15.865,15.061-23.619,22.791
			c-5.039,5.023,3.272,12.24,8.265,7.262c6.896-6.875,13.955-13.578,21.062-20.23c1.08,0.812,2.493,1.309,3.727,1.086
			c62.965-11.328,123.424,24.709,160.009,74.086c1.124,1.518,2.639,2.229,4.153,2.316c2.426,4.809,11.113,3.502,10.392-2.814
			c-0.139-1.219-0.268-2.439-0.401-3.658c2.004-0.76,3.578-2.57,3.4-5.342c-1.958-30.598,19.199-56.486,43.339-72.639
			c23.894-15.986,56.979-26.166,85.222-16.506c2.627,0.898,4.959,0.17,6.376-1.334c3.725,3.033,7.494,6.01,11.356,8.869
			c-0.904,4.297,5.549,8.57,9.846,4.668c-0.301,0.355-0.072,0.375,0.687,0.061c3.876-0.824,5.004-7.092,1.812-9.322
			c-12.244-8.559-23.528-18.324-34.861-28.029c-7.252-14.844-9.093-31.967-6.156-48.732c3.253-18.572,17.492-42.664,37.81-45.615
			c2.507-0.365,4.075-1.859,4.659-3.668c7.099,0.799,14.217,1.535,21.151,3.072c0.355,2.615,2.313,5.111,5.688,5.096
			c3.175-0.018,5.99-0.473,8.895-1.795C504.347,263.859,506.016,257.373,501.121,255.496z M411.333,234.951
			c3.237,3.018,6.731,5.605,10.376,7.941c-8.139-0.707-16.283-1.338-24.384-2.121c-6.082-0.586-12.188-1.266-18.311-1.969
			c-0.476-0.936-1.148-1.768-2.019-2.352c-23.899-16.047-32.938-49.662-33.875-77.375c4.783-6.205,9.526-12.443,14.221-18.721
			c5.035-6.732,9.848-13.602,14.612-20.498c-0.872,7.09-1.223,14.26-1.207,21.438c0.037,17.123,2.475,34.975,9.225,50.805
			C386.968,208.504,398.363,222.861,411.333,234.951z M358.88,303.479c-5.575-4.148-11.148-8.301-16.719-12.453
			c-0.506-8.787-4.631-17.332-2.686-26.092c1.563-7.043,7.508-14.547,14.308-17.967c4.953,0.52,9.901,1.08,14.842,1.652
			C358.743,265.383,355.444,284.318,358.88,303.479z M328.403,275.053c0.32,2.238,0.88,4.488,1.428,6.748
			c-5.237-3.92-10.477-7.838-15.694-11.785c-10.252-7.758-20.429-15.615-30.544-23.551c0.323,0.008,0.658-0.006,1.014-0.057
			c17.724-2.549,35.596-2.264,53.456-0.889c-3.341,3.752-6.027,8.072-7.779,12.336C328.002,263.408,327.56,269.152,328.403,275.053z
			 M198.34,269.963c-3.292,1.031-6.592,2.035-9.898,3.008c-1.582-0.125-2.908,0.342-3.929,1.146
			c-1.796,0.514-3.593,1.021-5.391,1.521c10.927-16.945,16.914-36.705,17.162-57.002c0.171-14.029-2.272-28.584-7.161-41.744
			c-0.488-1.314-1.025-2.605-1.583-3.887c11.105,10.604,22.079,21.35,33.144,31.992c0.172,0.166,0.345,0.33,0.517,0.494
			c0.454,14.551,1.545,30.215-4.92,43.336c-2.878,5.842-6.972,11.039-11.499,15.684C203.005,266.334,200.791,268.348,198.34,269.963
			z M194.156,318.717c-1.043-11.553-6.929-23.045-14.988-31.682c3.726-1.018,7.443-2.082,11.155-3.17
			c2.36-0.119,4.637-0.58,6.829-1.303C202.446,293.5,198.761,308.033,194.156,318.717z M130.884,122.201
			c6.844,6.051,13.784,12.004,20.719,17.965c3.698,3.18,7.348,6.414,10.978,9.668c4.526,8.713,9.891,16.963,14.1,25.848
			c5.626,11.877,7.926,25.357,8.541,38.395c1.124,23.85-7.348,47.496-22.803,65.67c-0.109,0.129-0.203,0.262-0.298,0.393
			c-3.347,0.846-6.692,1.678-10.033,2.482c-21.231,5.113-42.444,10.312-63.656,15.508c-8.864,2.17-17.605,4.574-26.341,7.135
			c25.296-27.254,49.782-56.43,64.968-90.561c7.773-17.471,10.87-35.904,11.111-54.932
			C138.335,146.707,134.354,134.516,130.884,122.201z M232.384,216.152c7.617,7.205,15.298,14.342,23.104,21.344
			c2.27,2.037,4.579,4.025,6.904,5.996c-0.309,0.402-0.622,0.801-0.931,1.203c-13.083,6.703-26.696,12.508-40.601,17.625
			c1.042-1.49,2.024-2.977,2.937-4.434C231.592,245.443,232.538,230.711,232.384,216.152z M279.18,243.018
			c-0.527-0.416-1.06-0.824-1.586-1.24c0.485-0.629,0.971-1.258,1.456-1.887C278.833,240.934,278.88,242.027,279.18,243.018z
			 M276.675,225.023c-1.224-4.225-1.707-8.822-2.333-12.881c-1.078-6.988-1.981-13.992-2.82-21.01
			c1.709,1.105,3.436,2.1,5.147,2.941c3.35,1.646,6.856,2.918,10.47,3.844c3.288,0.842,7.167,0.256,10.471,0.965
			c0.021,0.061,0.045,0.121,0.067,0.182C290.681,207.721,283.562,216.273,276.675,225.023z M207.366,278.574
			c13.3-4.365,26.428-9.254,39.217-14.818c-0.553,0.693-1.094,1.396-1.649,2.09c-10.223,12.75-22.421,24.238-33.624,36.141
			c-0.451,0.479-0.902,0.959-1.353,1.438C211.217,294.924,210.767,286.277,207.366,278.574z M238.592,289.043
			c10.548-11.207,20.213-23.117,29.66-35.213c0.29,19.307,2.409,38.416,4.967,57.486c-3.377-1.584-6.965-2.654-10.871-3.088
			c-7.38-0.818-14.706,0.656-22.073,0.666c-7.111,0.01-14.321,0.225-21.363,1.229C225.459,303.078,232.008,296.039,238.592,289.043z
			 M298.372,215.297c1.584-1.945,3.163-3.895,4.745-5.842c4.634,6.723,10.827,12.604,16.891,17.566
			c3.241,2.654,6.698,4.955,10.303,6.98c-15.565-0.889-31.119-0.783-46.549,1.436c-0.61,0.088-1.157,0.256-1.649,0.482
			C287.46,228.994,292.839,222.088,298.372,215.297z M303.997,189.451c-5.925-2.26-12.344-1.182-18.356-3.426
			c-5.334-1.99-11.284-5.812-15.918-10.035c-1.814-14.418-4.079-28.598-7.087-42.766c6.938,4.326,14.475,7.879,21.174,11.314
			c14.208,7.287,29.938,13.457,46.092,13.697c-8.251,10.611-16.594,21.152-24.928,31.693
			C304.679,189.752,304.358,189.588,303.997,189.451z M264.045,217.213c0.942,5.703,1.962,11.846,4.503,17.164
			c-9.702-8.242-18.949-17.074-28.187-25.797c-2.545-2.402-5.083-4.816-7.614-7.232c9.513-1.447,20.66-5.883,27.358-13.102
			c0.073,0.625,0.146,1.248,0.219,1.873C261.372,199.182,262.56,208.213,264.045,217.213z M204.814,325.273
			c10.266-4.834,22.19-5.258,33.367-5.393c12.348-0.148,25.183-3.604,35.738,4.629c0.396,0.309,0.809,0.543,1.227,0.738
			c1.857,13.143,3.764,26.287,5.269,39.48c0.625,5.479,1.175,10.963,1.698,16.449c-0.023,0.115-0.045,0.23-0.068,0.344
			c-7.461-13.734-17.506-25.678-30.575-35.297c-9.069-6.674-18.786-11.885-29.495-15.371c-6.095-1.984-12.404-3.131-18.773-3.846
			C203.74,326.432,204.276,325.852,204.814,325.273z M279.297,257.135c4.566,3.561,9.161,7.084,13.751,10.609
			c8.52,6.545,17.094,13.018,25.686,19.469c-7.281,0.486-14.575,2.318-20.917,4.596c-5.226,1.877-10.535,4.58-14.964,8.139
			C281.09,285.738,279.707,271.492,279.297,257.135z M328.241,219.527c-6.568-5.021-13.582-11.539-17.842-19.072
			c7.607-9.43,15.168-18.895,22.645-28.426c2.51,21.842,10.021,44.279,24.133,60.836C346.828,230.09,336.841,226.1,328.241,219.527z
			 M296.582,89.861c14.378,4.566,28.398,9.734,43.562,11.105c10.983,0.992,22.073-2.215,32.988-1.643
			c-3.813,5.615-7.638,11.219-11.579,16.732c-7.451,10.424-15.123,20.686-22.911,30.859c-0.47-0.062-0.966-0.088-1.515-0.023
			c-17.06,1.957-33.554-4.559-48.422-12.207c-9.702-4.992-21.771-10.104-29.967-18.209c-4.703-18.59-10.276-37.768-11.598-56.832
			c-0.006-0.094-0.012-0.189-0.019-0.283C261.211,72.994,277.26,83.725,296.582,89.861z M248.695,121.904
			c0.056,0.062,0.109,0.125,0.164,0.188c0.286,1.166,0.571,2.332,0.859,3.498c3.675,14.887,6.154,29.781,8.174,44.834
			c-1.392,0.605-2.48,1.869-2.742,3.904c-1.442,11.203-19.665,16.379-29.024,16.564c-1.327,0.025-2.375,0.432-3.156,1.072
			c-15.435-14.871-30.765-29.85-46.482-44.426c13.146-0.754,26.187-2.891,38.757-6.941c7.817-2.52,15.323-6.064,22.324-10.348
			C241.265,127.99,245.449,125.279,248.695,121.904z M237.151,70.076c1.179,7.834,3.229,15.643,4.928,23.305
			c1.005,4.531,2.055,9.053,3.123,13.57c-1.002,0.699-1.769,1.807-2.051,3.377c-0.993,5.518-10.025,9.834-14.373,12.385
			c-6.296,3.697-13.201,6.303-20.16,8.443c-13.314,4.094-27.379,5.531-41.275,5.715c-1.021-0.564-2.183-0.775-3.316-0.686
			c-11.834-10.516-23.969-20.65-35.683-31.234C165.581,102.789,217.835,102.305,237.151,70.076z M44.705,310.068
			c-3.981,0.893-8.007,1.564-12.058,1.877c0.221-0.822,0.267-1.693,0.145-2.535c0.417-0.74,0.972-1.531,1.895-2.629
			c2.609-3.107,5.528-5.965,8.391-8.834c6.501-6.52,11.874-13.455,17.12-21.049c13.927-20.154,24.238-41.803,32.096-64.975
			c7.669-22.611,12.627-45.924,15.389-69.627c1.533-13.164,2.092-26.264,2.273-39.432c2.161,2.107,4.34,4.195,6.542,6.262
			c3.039,15.535,9.56,30.314,10.614,46.25c1.224,18.492-2.598,37.504-9.909,54.432c-15.9,36.816-43.948,67.66-71.14,96.48
			C44.996,307.42,44.605,308.76,44.705,310.068z M95.181,354.246c-13.14-12.918-28.71-26.299-46.15-33.992
			c1.851-0.416,3.697-0.865,5.54-1.342c14.885,8.715,30.053,16.975,41.4,30.377c3.657,4.318,6.544,8.883,8.962,13.709
			C101.604,360.164,98.297,357.309,95.181,354.246z M123.257,380.146c-1.276-3.76-2.476-7.553-3.793-11.295
			c-3.693-10.492-9.054-19.713-16.399-28.066c-9.647-10.971-21.596-18.707-33.912-26.021c5.805-1.729,11.602-3.465,17.425-4.902
			c22.502-5.557,45.006-11.176,67.568-16.48c4.225-0.994,8.452-2.027,12.678-3.098c10.449,8.414,20.159,25.881,15.799,38.646
			c-0.469,1.373-0.533,2.674-0.258,3.812c-1.671,1.775-3.343,3.553-5.015,5.328c-15.8,16.787-32.587,32.504-49.368,48.238
			C126.594,384.145,124.98,382.094,123.257,380.146z M135.437,394.596c12.02-11.146,24.037-22.295,35.573-33.947
			c7.643-7.719,15.164-15.566,22.632-23.471c7.979,0.545,15.896,1.592,23.642,3.699c9.755,2.656,18.76,7.75,26.922,13.613
			c17.748,12.744,29.205,30.193,36.152,50.705c0.749,2.213,2.36,3.312,4.106,3.549c1.474,18.979,2.78,37.975,4.599,56.922
			C251.746,420.461,194.951,387.934,135.437,394.596z M290.627,357.393c-1.77-14.576-3.967-29.094-5.963-43.627
			c3.655-6.365,12.677-10.195,18.878-12.303c9.001-3.062,21.56-5.416,30.561-1.158c0.887,0.42,1.856,0.57,2.804,0.502
			c7.338,5.467,14.68,10.928,22.019,16.395c-0.865,0.1-1.703,0.195-2.497,0.271c-6.289,0.605-12.536,1.855-18.622,3.535
			c-11.128,3.07-21.755,8.512-30.581,15.959C300.25,342.854,294.78,349.783,290.627,357.393z M422.128,368.715
			c-27.896-3.84-56.918,5.713-80.272,21.016c-19.191,12.576-36.053,31.029-43.795,52.668c-1.634-20.234-2.997-40.494-4.873-60.707
			c2.985-13.221,9.213-25.395,19.584-35.061c14.621-13.625,35.299-18.398,54.844-18.758c0.886,0.633,2.008,1.014,3.358,0.99
			c1.002-0.02,2.044-0.129,2.995-0.445c13.4,10,26.843,19.98,39.673,30.701c1.884,1.574,3.758,3.16,5.628,4.75
			C420.163,365.516,421.115,367.133,422.128,368.715z M411.713,305.295c-2.633,12.131-2.065,26.211,0.338,38.459
			c-6.914-5.496-13.926-10.867-20.989-16.199c-7.101-5.359-14.224-10.691-21.354-16.01c1.035-1.271,1.555-2.992,1.034-4.986
			c-5.103-19.543-1.744-39.984,9.938-56.547c4.86,0.553,9.711,1.084,14.548,1.559c16.617,1.629,33.795,2.068,50.321,4.816
			C427.706,265.609,415.822,286.357,411.713,305.295z"/>
	</g>
	<g>
		<path class="st10" d="M501.121,255.496c-15.399-5.91-31.839-6.281-47.939-8.926c-0.644-0.107-1.292-0.191-1.937-0.293
			c-10.318-5.334-21.051-9.904-30.121-17.348c-12.986-10.654-23.921-25.166-30.769-40.467c-6.241-13.945-8.114-29.625-8.583-44.758
			c-0.475-15.301,1.055-31.367,6.334-45.826c0.24-0.658,0.383-1.301,0.438-1.918l0.076-0.109
			c9.237-12.953,19.101-26.398,23.334-41.949c0.277-0.686,0.456-1.416,0.567-2.205c0.017-0.072,0.039-0.143,0.055-0.215
			c-0.009,0-0.018,0-0.027-0.002c0.058-0.467,0.1-0.949,0.113-1.471c0.169-6.436-9.548-6.424-10.884-0.627
			c-0.016,0.07-0.037,0.137-0.053,0.207c-0.061,0.072-0.111,0.129-0.18,0.213c-1.527,1.568-1.796,3.336-1.297,4.887
			c-3.534,10.369-9.971,19.77-16.175,28.65c-1.325,1.895-2.63,3.807-3.938,5.715c-11.431-2.131-23.174,0.723-34.7,1.123
			c-13.538,0.471-28.15-4.576-40.746-9.051c-11.793-4.189-23.062-8.35-33.445-15.535c-9.376-6.488-17.652-14.514-25.177-23.066
			c-0.81-11.23-2.187-22.475-6.189-32.91c-2.11-5.5-8.99-4.189-10.404,0.596c-3.19,2.545-1.661,8.047,2.091,9.379
			c1.804,6.525,2.739,13.311,3.333,20.146c-0.696,0.941-1.146,2.162-1.196,3.619c-1.864,53.703-76.14,48.391-113.432,51.09
			c-0.865,0.062-1.675,0.344-2.388,0.777c-7.379-7.084-14.492-14.461-21.128-22.365c-4.516-5.381-13.682,0.715-9.119,6.15
			c3.688,4.393,7.509,8.645,11.428,12.799c-0.011,16.838-0.436,33.441-2.389,50.205c-2.712,23.283-7.761,46.316-15.417,68.48
			c-7.865,22.764-18.5,43.936-32.435,63.592c-4.794,6.762-9.95,12.51-15.765,18.367c-4.774,4.809-9.525,10.303-11.657,15.695
			c-0.622,1.574-0.673,3.07-0.136,4.439c-4.458,2.186-5.04,9.836,0.885,10.232c1.538,0.104,3.068,0.15,4.593,0.156
			c0.634,1.344,1.856,2.426,3.759,2.801c22.094,4.357,40.33,20.84,56.318,35.705c6.308,5.865,12.935,11.35,19.323,17.123
			c2.414,2.182,5.043,4.527,7.456,7.08c1.241,3.49,2.56,6.941,4.082,10.309c-7.955,7.504-15.865,15.061-23.619,22.791
			c-5.039,5.023,3.272,12.24,8.265,7.262c6.896-6.875,13.955-13.578,21.062-20.23c1.08,0.812,2.493,1.309,3.727,1.086
			c62.965-11.328,123.424,24.709,160.009,74.086c1.124,1.518,2.639,2.229,4.153,2.316c2.426,4.809,11.113,3.502,10.392-2.814
			c-0.139-1.219-0.268-2.439-0.401-3.658c2.004-0.76,3.578-2.57,3.4-5.342c-1.958-30.598,19.199-56.486,43.339-72.639
			c23.894-15.986,56.979-26.166,85.222-16.506c2.627,0.898,4.959,0.17,6.376-1.334c3.725,3.033,7.494,6.01,11.356,8.869
			c-0.904,4.297,5.549,8.57,9.846,4.668c-0.301,0.355-0.072,0.375,0.687,0.061c3.876-0.824,5.004-7.092,1.812-9.322
			c-12.244-8.559-23.528-18.324-34.861-28.029c-7.252-14.844-9.093-31.967-6.156-48.732c3.253-18.572,17.492-42.664,37.81-45.615
			c2.507-0.365,4.075-1.859,4.659-3.668c7.099,0.799,14.217,1.535,21.151,3.072c0.355,2.615,2.313,5.111,5.688,5.096
			c3.175-0.018,5.99-0.473,8.895-1.795C504.347,263.859,506.016,257.373,501.121,255.496z M411.333,234.951
			c3.237,3.018,6.731,5.605,10.376,7.941c-8.139-0.707-16.283-1.338-24.384-2.121c-6.082-0.586-12.188-1.266-18.311-1.969
			c-0.476-0.936-1.148-1.768-2.019-2.352c-23.899-16.047-32.938-49.662-33.875-77.375c4.783-6.205,9.526-12.443,14.221-18.721
			c5.035-6.732,9.848-13.602,14.612-20.498c-0.872,7.09-1.223,14.26-1.207,21.438c0.037,17.123,2.475,34.975,9.225,50.805
			C386.968,208.504,398.363,222.861,411.333,234.951z M358.88,303.479c-5.575-4.148-11.148-8.301-16.719-12.453
			c-0.506-8.787-4.631-17.332-2.686-26.092c1.563-7.043,7.508-14.547,14.308-17.967c4.953,0.52,9.901,1.08,14.842,1.652
			C358.743,265.383,355.444,284.318,358.88,303.479z M328.403,275.053c0.32,2.238,0.88,4.488,1.428,6.748
			c-5.237-3.92-10.477-7.838-15.694-11.785c-10.252-7.758-20.429-15.615-30.544-23.551c0.323,0.008,0.658-0.006,1.014-0.057
			c17.724-2.549,35.596-2.264,53.456-0.889c-3.341,3.752-6.027,8.072-7.779,12.336C328.002,263.408,327.56,269.152,328.403,275.053z
			 M198.34,269.963c-3.292,1.031-6.592,2.035-9.898,3.008c-1.582-0.125-2.908,0.342-3.929,1.146
			c-1.796,0.514-3.593,1.021-5.391,1.521c10.927-16.945,16.914-36.705,17.162-57.002c0.171-14.029-2.272-28.584-7.161-41.744
			c-0.488-1.314-1.025-2.605-1.583-3.887c11.105,10.604,22.079,21.35,33.144,31.992c0.172,0.166,0.345,0.33,0.517,0.494
			c0.454,14.551,1.545,30.215-4.92,43.336c-2.878,5.842-6.972,11.039-11.499,15.684C203.005,266.334,200.791,268.348,198.34,269.963
			z M194.156,318.717c-1.043-11.553-6.929-23.045-14.988-31.682c3.726-1.018,7.443-2.082,11.155-3.17
			c2.36-0.119,4.637-0.58,6.829-1.303C202.446,293.5,198.761,308.033,194.156,318.717z M130.884,122.201
			c6.844,6.051,13.784,12.004,20.719,17.965c3.698,3.18,7.348,6.414,10.978,9.668c4.526,8.713,9.891,16.963,14.1,25.848
			c5.626,11.877,7.926,25.357,8.541,38.395c1.124,23.85-7.348,47.496-22.803,65.67c-0.109,0.129-0.203,0.262-0.298,0.393
			c-3.347,0.846-6.692,1.678-10.033,2.482c-21.231,5.113-42.444,10.312-63.656,15.508c-8.864,2.17-17.605,4.574-26.341,7.135
			c25.296-27.254,49.782-56.43,64.968-90.561c7.773-17.471,10.87-35.904,11.111-54.932
			C138.335,146.707,134.354,134.516,130.884,122.201z M232.384,216.152c7.617,7.205,15.298,14.342,23.104,21.344
			c2.27,2.037,4.579,4.025,6.904,5.996c-0.309,0.402-0.622,0.801-0.931,1.203c-13.083,6.703-26.696,12.508-40.601,17.625
			c1.042-1.49,2.024-2.977,2.937-4.434C231.592,245.443,232.538,230.711,232.384,216.152z M279.18,243.018
			c-0.527-0.416-1.06-0.824-1.586-1.24c0.485-0.629,0.971-1.258,1.456-1.887C278.833,240.934,278.88,242.027,279.18,243.018z
			 M276.675,225.023c-1.224-4.225-1.707-8.822-2.333-12.881c-1.078-6.988-1.981-13.992-2.82-21.01
			c1.709,1.105,3.436,2.1,5.147,2.941c3.35,1.646,6.856,2.918,10.47,3.844c3.288,0.842,7.167,0.256,10.471,0.965
			c0.021,0.061,0.045,0.121,0.067,0.182C290.681,207.721,283.562,216.273,276.675,225.023z M207.366,278.574
			c13.3-4.365,26.428-9.254,39.217-14.818c-0.553,0.693-1.094,1.396-1.649,2.09c-10.223,12.75-22.421,24.238-33.624,36.141
			c-0.451,0.479-0.902,0.959-1.353,1.438C211.217,294.924,210.767,286.277,207.366,278.574z M238.592,289.043
			c10.548-11.207,20.213-23.117,29.66-35.213c0.29,19.307,2.409,38.416,4.967,57.486c-3.377-1.584-6.965-2.654-10.871-3.088
			c-7.38-0.818-14.706,0.656-22.073,0.666c-7.111,0.01-14.321,0.225-21.363,1.229C225.459,303.078,232.008,296.039,238.592,289.043z
			 M298.372,215.297c1.584-1.945,3.163-3.895,4.745-5.842c4.634,6.723,10.827,12.604,16.891,17.566
			c3.241,2.654,6.698,4.955,10.303,6.98c-15.565-0.889-31.119-0.783-46.549,1.436c-0.61,0.088-1.157,0.256-1.649,0.482
			C287.46,228.994,292.839,222.088,298.372,215.297z M303.997,189.451c-5.925-2.26-12.344-1.182-18.356-3.426
			c-5.334-1.99-11.284-5.812-15.918-10.035c-1.814-14.418-4.079-28.598-7.087-42.766c6.938,4.326,14.475,7.879,21.174,11.314
			c14.208,7.287,29.938,13.457,46.092,13.697c-8.251,10.611-16.594,21.152-24.928,31.693
			C304.679,189.752,304.358,189.588,303.997,189.451z M264.045,217.213c0.942,5.703,1.962,11.846,4.503,17.164
			c-9.702-8.242-18.949-17.074-28.187-25.797c-2.545-2.402-5.083-4.816-7.614-7.232c9.513-1.447,20.66-5.883,27.358-13.102
			c0.073,0.625,0.146,1.248,0.219,1.873C261.372,199.182,262.56,208.213,264.045,217.213z M204.814,325.273
			c10.266-4.834,22.19-5.258,33.367-5.393c12.348-0.148,25.183-3.604,35.738,4.629c0.396,0.309,0.809,0.543,1.227,0.738
			c1.857,13.143,3.764,26.287,5.269,39.48c0.625,5.479,1.175,10.963,1.698,16.449c-0.023,0.115-0.045,0.23-0.068,0.344
			c-7.461-13.734-17.506-25.678-30.575-35.297c-9.069-6.674-18.786-11.885-29.495-15.371c-6.095-1.984-12.404-3.131-18.773-3.846
			C203.74,326.432,204.276,325.852,204.814,325.273z M279.297,257.135c4.566,3.561,9.161,7.084,13.751,10.609
			c8.52,6.545,17.094,13.018,25.686,19.469c-7.281,0.486-14.575,2.318-20.917,4.596c-5.226,1.877-10.535,4.58-14.964,8.139
			C281.09,285.738,279.707,271.492,279.297,257.135z M328.241,219.527c-6.568-5.021-13.582-11.539-17.842-19.072
			c7.607-9.43,15.168-18.895,22.645-28.426c2.51,21.842,10.021,44.279,24.133,60.836C346.828,230.09,336.841,226.1,328.241,219.527z
			 M296.582,89.861c14.378,4.566,28.398,9.734,43.562,11.105c10.983,0.992,22.073-2.215,32.988-1.643
			c-3.813,5.615-7.638,11.219-11.579,16.732c-7.451,10.424-15.123,20.686-22.911,30.859c-0.47-0.062-0.966-0.088-1.515-0.023
			c-17.06,1.957-33.554-4.559-48.422-12.207c-9.702-4.992-21.771-10.104-29.967-18.209c-4.703-18.59-10.276-37.768-11.598-56.832
			c-0.006-0.094-0.012-0.189-0.019-0.283C261.211,72.994,277.26,83.725,296.582,89.861z M248.695,121.904
			c0.056,0.062,0.109,0.125,0.164,0.188c0.286,1.166,0.571,2.332,0.859,3.498c3.675,14.887,6.154,29.781,8.174,44.834
			c-1.392,0.605-2.48,1.869-2.742,3.904c-1.442,11.203-19.665,16.379-29.024,16.564c-1.327,0.025-2.375,0.432-3.156,1.072
			c-15.435-14.871-30.765-29.85-46.482-44.426c13.146-0.754,26.187-2.891,38.757-6.941c7.817-2.52,15.323-6.064,22.324-10.348
			C241.265,127.99,245.449,125.279,248.695,121.904z M237.151,70.076c1.179,7.834,3.229,15.643,4.928,23.305
			c1.005,4.531,2.055,9.053,3.123,13.57c-1.002,0.699-1.769,1.807-2.051,3.377c-0.993,5.518-10.025,9.834-14.373,12.385
			c-6.296,3.697-13.201,6.303-20.16,8.443c-13.314,4.094-27.379,5.531-41.275,5.715c-1.021-0.564-2.183-0.775-3.316-0.686
			c-11.834-10.516-23.969-20.65-35.683-31.234C165.581,102.789,217.835,102.305,237.151,70.076z M44.705,310.068
			c-3.981,0.893-8.007,1.564-12.058,1.877c0.221-0.822,0.267-1.693,0.145-2.535c0.417-0.74,0.972-1.531,1.895-2.629
			c2.609-3.107,5.528-5.965,8.391-8.834c6.501-6.52,11.874-13.455,17.12-21.049c13.927-20.154,24.238-41.803,32.096-64.975
			c7.669-22.611,12.627-45.924,15.389-69.627c1.533-13.164,2.092-26.264,2.273-39.432c2.161,2.107,4.34,4.195,6.542,6.262
			c3.039,15.535,9.56,30.314,10.614,46.25c1.224,18.492-2.598,37.504-9.909,54.432c-15.9,36.816-43.948,67.66-71.14,96.48
			C44.996,307.42,44.605,308.76,44.705,310.068z M95.181,354.246c-13.14-12.918-28.71-26.299-46.15-33.992
			c1.851-0.416,3.697-0.865,5.54-1.342c14.885,8.715,30.053,16.975,41.4,30.377c3.657,4.318,6.544,8.883,8.962,13.709
			C101.604,360.164,98.297,357.309,95.181,354.246z M123.257,380.146c-1.276-3.76-2.476-7.553-3.793-11.295
			c-3.693-10.492-9.054-19.713-16.399-28.066c-9.647-10.971-21.596-18.707-33.912-26.021c5.805-1.729,11.602-3.465,17.425-4.902
			c22.502-5.557,45.006-11.176,67.568-16.48c4.225-0.994,8.452-2.027,12.678-3.098c10.449,8.414,20.159,25.881,15.799,38.646
			c-0.469,1.373-0.533,2.674-0.258,3.812c-1.671,1.775-3.343,3.553-5.015,5.328c-15.8,16.787-32.587,32.504-49.368,48.238
			C126.594,384.145,124.98,382.094,123.257,380.146z M135.437,394.596c12.02-11.146,24.037-22.295,35.573-33.947
			c7.643-7.719,15.164-15.566,22.632-23.471c7.979,0.545,15.896,1.592,23.642,3.699c9.755,2.656,18.76,7.75,26.922,13.613
			c17.748,12.744,29.205,30.193,36.152,50.705c0.749,2.213,2.36,3.312,4.106,3.549c1.474,18.979,2.78,37.975,4.599,56.922
			C251.746,420.461,194.951,387.934,135.437,394.596z M290.627,357.393c-1.77-14.576-3.967-29.094-5.963-43.627
			c3.655-6.365,12.677-10.195,18.878-12.303c9.001-3.062,21.56-5.416,30.561-1.158c0.887,0.42,1.856,0.57,2.804,0.502
			c7.338,5.467,14.68,10.928,22.019,16.395c-0.865,0.1-1.703,0.195-2.497,0.271c-6.289,0.605-12.536,1.855-18.622,3.535
			c-11.128,3.07-21.755,8.512-30.581,15.959C300.25,342.854,294.78,349.783,290.627,357.393z M422.128,368.715
			c-27.896-3.84-56.918,5.713-80.272,21.016c-19.191,12.576-36.053,31.029-43.795,52.668c-1.634-20.234-2.997-40.494-4.873-60.707
			c2.985-13.221,9.213-25.395,19.584-35.061c14.621-13.625,35.299-18.398,54.844-18.758c0.886,0.633,2.008,1.014,3.358,0.99
			c1.002-0.02,2.044-0.129,2.995-0.445c13.4,10,26.843,19.98,39.673,30.701c1.884,1.574,3.758,3.16,5.628,4.75
			C420.163,365.516,421.115,367.133,422.128,368.715z M411.713,305.295c-2.633,12.131-2.065,26.211,0.338,38.459
			c-6.914-5.496-13.926-10.867-20.989-16.199c-7.101-5.359-14.224-10.691-21.354-16.01c1.035-1.271,1.555-2.992,1.034-4.986
			c-5.103-19.543-1.744-39.984,9.938-56.547c4.86,0.553,9.711,1.084,14.548,1.559c16.617,1.629,33.795,2.068,50.321,4.816
			C427.706,265.609,415.822,286.357,411.713,305.295z"/>
	</g>
</g>
</svg>
