<?xml version="1.0" encoding="utf-8"?>
<!-- Generator: Adobe Illustrator 16.0.3, SVG Export Plug-In . SVG Version: 6.00 Build 0)  -->
<!DOCTYPE svg PUBLIC "-//W3C//DTD SVG 1.1//EN" "http://www.w3.org/Graphics/SVG/1.1/DTD/svg11.dtd">
<svg version="1.1" id="Layer_1" xmlns="http://www.w3.org/2000/svg" xmlns:xlink="http://www.w3.org/1999/xlink" x="0px" y="0px"
	 width="512px" height="512px" viewBox="0 0 512 512" style="enable-background:new 0 0 512 512;" xml:space="preserve">
<style type="text/css">
<![CDATA[
	.st0{fill:#127274;}
	.st1{fill:#14B6B9;}
	.st2{fill:#1E4384;}
	.st3{fill:#EF4754;}
	.st4{fill:#EF4823;}
	.st5{fill:#BCBCBC;}
	.st6{fill:#F6851F;}
	.st7{fill:#C56528;}
	.st8{fill:#FCBF95;}
	.st9{fill:#FEBF10;}
	.st10{fill:none;}
	.st11{fill:#010101;}
	.st12{fill:#3AB37C;}
	.st13{fill:#D6E5E5;}
	.st14{fill:#71C598;}
	.st15{fill:#74CCCF;}
]]>
</style>
<g>
	<g>
		<g>
			<path class="st9" d="M257.898,309.768c-18.284-0.07-34.268-4.348-46.572-18.648c-11.854-13.779-21.652-30.576-17.35-48.678
				c-15.699,10.527-4.98,41.121,6.852,51.219c8.955,7.643,19.531,14,30.58,18.092c7.935,2.938,20.992,6.449,26.852-2.002
				C258.14,309.758,258.023,309.768,257.898,309.768z"/>
		</g>
	</g>
	<g>
		<g>
			<path class="st9" d="M252.006,325.252c-6.979,1.273-14.707,0.035-21.902-2.381c-13.559-4.553-27.167-12.252-37.715-21.988
				c-13.854-12.791-22.273-40.137-13.298-57.592c-13.471-4.24-27.678,0.744-39.816,7.279c-14.332,7.719-27.159,17.119-39.732,27.416
				c-6.857,5.619-14.518,10.922-20.822,17.146c-4.366,4.309-8.859,8.529-13.643,12.377c-7.273,5.85-15.551,11.449-24.644,14.066
				c0.003,0.047,0.009,0.088,0.009,0.135c0.053,7.307,0.955,14.701,2.176,21.93c7.719-10.309,19.864-16.281,30.01-23.916
				c6.909-5.201,12.716-12.277,18.943-18.281c6.179-5.957,12.442-11.836,18.954-17.43c9.098-7.814,18.933-14.928,29.593-20.459
				c9.647-5.004,21.665-9.697,32.279-4.844c6.449,2.949,1.554,12.803-4.895,9.854c-8.637-3.949-20.977,3.596-28.082,7.936
				c-9.438,5.764-18.233,12.496-26.434,19.904c-6.253,5.65-12.354,11.463-18.354,17.379c-5.146,5.072-10.003,10.787-15.854,15.061
				c-9.312,6.803-22.216,12.594-28.396,22.738c-1.366,2.24-3.598,2.971-5.67,2.693c0.505,2.109,1.076,4.201,1.775,6.25
				c0.56,1.641,1.082,3.412,2,4.896c0.789,1.277,0.57,1.119,0.914,1.285c0.163,0.078,0.312,0.168,0.461,0.254
				c23.611-22.656,55.317-36.982,73.16-65.271c3.741-5.932,13.644-1.115,9.855,4.895c-9.701,15.379-22.943,27.42-37.383,38.275
				c-13.746,10.332-28.18,19.9-40.256,32.229c0.572,3.4,0.241,7.113,0.199,10.621c-0.01,0.863-0.175,1.695-0.474,2.455
				c6.374-0.707,12.857-5.428,17.611-8.992c6.08-4.561,11.677-9.666,17.072-15.01c8.988-8.904,19.416-16.15,28.069-25.139
				c3.546-7.738,7.078-15.484,11.305-22.836c3.515-6.111,13.4-1.271,9.855,4.895c-0.286,0.498-0.559,1.004-0.838,1.504
				c1.439,1.449,2.071,3.619,0.838,5.996c-3.24,6.242-7.349,11.641-11.927,16.594c-5.104,11.076-10.291,22.102-17.563,31.941
				c-13.479,18.242-32.199,31.865-50.358,45.072c-0.646,0.471-1.298,0.766-1.938,0.924c0.145,0.139,0.286,0.285,0.423,0.441
				c4.378,5.035,9.19,9.82,14.446,13.943c3.313,2.6,6.744,4.512,10.258,6.379c0.083-0.959,0.422-1.939,1.102-2.879
				c9.143-12.631,11.488-28.992,22.5-40.498c4.886-5.105,13.185,2.121,8.264,7.262c-10.789,11.275-13.422,27.957-22.498,40.498
				c-0.098,0.135-0.199,0.256-0.301,0.375c6.815,3.002,14.717,4.184,20.708,8.584c0.56-29.15,12.357-58.25,33.63-78.502
				c9.159-8.719,21.911-17.574,26.938-29.582c2.852-6.811,4.956-13.957,6.987-21.049c1.939-6.766,12.754-4.723,10.8,2.1
				c-2.217,7.732-4.482,15.604-7.592,23.031c-4.832,11.541-15.326,20.232-24.312,28.504c-10.789,9.934-19.501,20.777-25.832,34.098
				c-6.279,13.215-9.564,27.244-9.674,41.887c-0.013,1.705-0.666,3.045-1.645,4.002c0.055,0.008,0.109,0.02,0.164,0.025
				c3.366,0.434,7.356,0.617,10.531-0.867c1.024-0.479,1.065-4.123,1.258-5.258c0.795-4.688,2.096-9.285,3.767-13.734
				c7.676-20.428,22.521-36.869,36.304-53.371c3.748-4.486,10.104-0.453,9.531,4.68c-1.52,13.648-9.195,24.898-13.1,37.777
				c-3.715,12.248-2.346,24.814-0.315,37.246c0.151,0.918,0.09,1.725-0.126,2.426c2.697-0.018,5.394-0.074,8.08-0.277
				c1.769-0.133,3.56-0.258,5.305-0.6c0.39-0.076,0.79-0.193,1.181-0.328c0.705-0.99,1.536-1.58,2.404-1.859
				c-0.554-13.338,0.88-27.562,4.776-39.855c3.922-12.371,11.238-22.91,17.228-34.287c4.211-7.998,7.875-16.377,10.929-24.883
				c1.519-4.229,2.954-8.582,3.688-13.027c0.244-1.475,0.496-2.795,0.316-4.277c-0.002-0.021-0.004-0.035-0.006-0.055
				c-5.573-4.115,1.665-12.213,7.371-8.18c6.729,4.756,2.97,16.725,1.022,22.916c-3.067,9.76-6.958,19.287-11.471,28.467
				c-5.153,10.48-12.072,20.07-16.523,30.9c-5.448,13.256-7.091,29.113-6.237,43.736c0.422,0.322,0.798,0.709,1.116,1.164v-2.006
				c0-0.877,0.17-1.658,0.467-2.342c3.11-24.576,20.215-45.379,33.623-65.281C248.062,379.566,260.885,352.973,252.006,325.252z"/>
		</g>
	</g>
	<g>
		<g>
			<path class="st9" d="M224.07,206.219c0.885-4.93,0.785-7.539-4.678-6.963c-0.146,0.016-0.292,0.014-0.438,0.016
				c-0.261,0.877-0.523,1.754-0.779,2.637c-3.305,11.408-5.643,23.131-9.301,34.428c-0.562,1.738-1.718,2.879-3.076,3.506
				c0.037,0.758-0.075,1.561-0.395,2.391c-4.309,11.215,0.207,22.83,6.879,32.576c0.061-0.324,0.141-0.654,0.26-0.99
				c4.133-11.605,3.842-24.188,6.668-36.084c1.219-5.133,3.814-9.752,6.031-14.498c1.453-3.111,3.443-6.865,3.799-10.543
				C225.871,212.285,223.458,209.635,224.07,206.219z"/>
		</g>
	</g>
	<g>
		<g>
			<path class="st9" d="M260.053,261.199c-6.203,6.906-11.678,14.43-17.451,21.697c-4.414,5.557-12.671-1.715-8.266-7.262
				c6.521-8.209,12.664-16.742,19.907-24.342c-0.358-1.285-0.89-2.344-1.894-2.686c-2.685-0.912-6.185,0.059-8.957,0.146
				c-2.24,0.068-5.086-1.223-5.615-3.668c-1.059-4.883-2.592-9.625-4.08-14.381c-1.232,2.582-2.434,5.172-3.377,7.82
				c-2.312,6.492-2.373,14.199-3.378,20.979c-0.976,6.574-2.312,12.938-4.546,19.209c-0.881,2.473-2.787,3.344-4.719,3.127
				c0.973,1.148,1.955,2.254,2.93,3.311c2.205,2.393,4.55,4.375,7.007,6.043c0.755-0.545,1.725-0.889,2.931-0.914
				c10.354-0.217,20.563-6.395,28.404-12.701c4.145-3.334,8.986-7.742,12.26-12.805C267.586,264.1,263.35,263.107,260.053,261.199z"
				/>
		</g>
	</g>
	<g>
		<g>
			<path class="st9" d="M291.389,289.25c-5.008,0.006-8.717-7.127-3.498-10.045c2.564-1.434,4.249-3.1,4.949-5.283
				c-4.305-0.449-8.697-1.494-12.131-3.895c-3.594,5.777-8.594,10.859-13.613,15.037c-6.027,5.016-13.25,9.904-20.974,12.975
				c3.518,0.516,7.164,0.742,10.929,0.758c2.463,0.01,4.164,1.355,5.045,3.098c5.518-2.537,11.403-3.961,17.103-6.014
				c5.817-2.098,11.578-4.352,17.3-6.695c0.018-0.008,0.036-0.014,0.055-0.021C294.838,289.234,293.113,289.248,291.389,289.25z"/>
		</g>
	</g>
	<g>
		<g>
			<path class="st6" d="M336.209,259.982c-1.932-2.654-3.43-5.836-4.237-9.012c-1.36-5.354,2.019-11.703-1-16.43
				c-2.284-3.576-4.123-6.768-4.81-10.451c-1.192-0.068-2.349-0.002-3.379,0.371c-1.76,0.637-3.303,0.381-4.506-0.379
				c-6.98,7.037-14.097,14.252-22.736,19.246c-3.385,1.955-6.791,0.037-8.113-2.668c-2.642-0.891-4.807-2.693-5.59-5.887
				c-0.591-2.406-0.148-2.891-1.645-3.455c-1.695-0.641-3.649-0.779-5.443-0.916c-4.178-0.316-8.32-0.652-11.58-3.613
				c-2.6-2.361-3.48-5.662-3.61-9.062c-1.726-1.043-2.912-2.945-2.491-5.508c0.977-5.934,5.292-11.166,9.217-15.479
				c5.137-5.646,10.775-10.811,16.463-15.896c-0.189-0.275-0.377-0.549-0.568-0.822c-1.125-1.613-2.834-4.561-5.314-3.795
				c-5.816,1.793-10.582,4.449-16.947,3.443c-6.025-0.953-10.028-4.109-15.16-6.977c-1.999-1.115-3.805-1.809-6.137-1.432
				c-2.63,0.424-6.92,1.482-9.076,3.068c-0.607,0.447-1.219,0.736-1.82,0.904c0.206,4.67-0.795,9.121-1.916,13.619
				c5.805,1.777,8.969,6.807,9.432,13.139c1.782,0.436,3.404,1.566,3.92,3.457c0.741,2.719,0.905,5.322,0.672,7.852
				c0.535,0.688,0.936,1.531,1.121,2.545c1.361,7.445,4.258,14.486,6.251,21.768c6.341-0.164,12.868,0.369,16.213,6.818
				c0.944,1.82,1.194,3.627,1.452,5.637c0.184,1.438-1.311,0.562,0.554,1.391c0.751,0.355,1.517,0.676,2.296,0.961
				c2.143,0.752,4.381,1.299,6.619,1.727c0.174-0.971,0.4-1.945,0.73-2.93c1.83-5.455,10.557-6.107,10.883,0.627
				c0.12,2.482-0.113,4.898-0.63,7.242c0.357,0.828,1.032,1.553,2.189,2.109c3.294,1.582,6.905,2.033,10.532,2.086
				c3.273,0.047,5.299,1.902,5.908,5.061c0.604,3.131,0.361,6.174-0.562,8.969c0.875-0.285,1.714-0.643,2.499-1.104
				c4.596-2.701,9.241,1.812,8.619,5.738c2.463-0.934,4.933-1.852,7.432-2.682c0.53-0.176,2.033-0.514,3.514-0.875
				c0.526-3.705,5.195-6.861,9.041-3.814c3.019-1.754,6.317-6.312,6.505-8.938C341.086,264.436,337.012,261.088,336.209,259.982z"/>
		</g>
	</g>
	<g>
		<g>
			<path class="st9" d="M477.873,47.051c-6.153-2.721-12.576-4.631-19.055-6.406c-7.15-1.959-13.492-4.805-20.163-8.084
				c-3.956-1.945-8.146-4.172-12.604-4.625c-2.542-0.256-4.604,0.352-6.401,1.504c10.437,11.09,18.116,26.062,34.169,28.654
				c4.793,0.773,35.695,5.801,35.1-1.801C488.559,51.723,481.625,48.711,477.873,47.051z"/>
		</g>
	</g>
	<g>
		<g>
			<path class="st7" d="M454.945,69.396c-9.949-1.506-18.515-4.76-25.652-12.148c-6.146-6.361-11.133-13.738-17.304-20.035
				c-5.108,8.375-9.148,17.391-14.597,25.57c-6.654,9.99-14.352,19.428-21.969,28.695c-15.006,18.258-31.346,35.148-45.621,54.021
				c-6.395,8.455-12.49,17.602-19.881,25.227c-4.012,4.139-8.324,7.977-12.642,11.799c1.839,4.773-3.618,10.42-7.821,6.961
				c-4.324,3.875-8.6,7.816-12.592,12.023c-2.076,2.188-4.768,4.846-6.684,7.645c0.603,0.992,0.896,2.223,0.684,3.664
				c-0.28,1.893-0.885,4.424-0.002,6.26c-0.265-0.551,0.562-0.023,1.209,0.07c3,0.441,6.117,0.303,9.069,1.047
				c4.233,1.068,7.96,2.871,9.902,6.986c0.501,1.062,0.694,2.154,0.982,3.256c0.506-0.033,1.011-0.08,1.515-0.154
				c0.606-0.066,1.164-0.041,1.677,0.051c6.786-5.07,12.606-11.363,18.601-17.35c7.627-7.617,15.955-14.363,23.994-21.525
				c17.086-15.225,33.654-31.008,50.283-46.727c26.994-25.516,54.283-50.934,83.96-73.305
				C465.444,71.074,459.106,70.027,454.945,69.396z"/>
		</g>
	</g>
	<g>
		<g>
			<path d="M499.584,59.145c0.09-0.49,0.168-0.994,0.214-1.523c1.499-17.047-23.163-23.305-35.503-26.834
				c-2.938-0.84-5.898-1.604-8.832-2.457c-5.029-1.463-9.797-4.627-14.514-6.887c-10.138-4.859-22.039-7.234-30.877,1.512
				c-0.147,0.145-0.275,0.297-0.418,0.445c-1.114,0.205-2.137,0.758-2.826,1.748c-6.277,9-10.877,18.912-16.465,28.322
				c-6.494,10.936-15.176,20.916-23.203,30.746c-7.922,9.699-16.301,18.912-24.74,28.15c-7.873,8.615-14.91,17.977-21.944,27.275
				c-6.239,8.25-12.229,17.023-19.44,24.465c-3.24,3.344-6.702,6.479-10.199,9.57c-2.66-3.734-5.455-7.014-10.902-8.277
				c-6.494-1.508-11.611,4.105-17.916,3.471c-6.172-0.619-10.238-5.697-15.893-7.619c-3.646-1.238-7.312-1.332-11.062-0.455
				c-3.756,0.879-8.521,2.098-11.668,4.414c-0.908,0.668-1.514,1.463-1.871,2.307c-2.891,0.043-5.618,2.004-5.039,5.676
				c0.113,0.719,0.178,1.43,0.215,2.137c-0.955,0.281-1.928,0.887-2.861,1.912c-2.498,2.74-2.91,8.188-3.52,11.678
				c-1.104,6.32-3.523,12.469-5.256,18.654c-2.153,7.691-3.699,15.531-5.926,23.199c-1.254-1.016-2.976-1.434-4.979-0.68
				c-2.938,1.107-5.47,2.557-7.662,4.258c-28.979-12.037-60.528,9.01-82.753,26.229c-13.062,10.119-26.053,20.598-38.081,31.91
				c-9.565,8.998-21.861,19.295-35.628,19.66c-2.963,0.08-5.329,3.037-5.062,5.908c0.35,3.762,1.943,5.643,4.589,7.971
				c0.359,8.84,1.792,17.748,3.555,26.363c1.327,6.482,2.896,16.646,8.241,21.896c0.199,1.064,0.81,2.104,1.969,2.977
				c2.786,2.098,1.184,8.195,1.146,11.289c-0.024,1.846,1.163,3.412,2.728,4.299c-2.084,3.102-1.437,7.869,3.208,8.178
				c17.803,1.184,33.294-13.881,45.176-25.326c2.496-2.404,5.078-4.715,7.688-6.99c-0.693,1.059-1.408,2.105-2.145,3.141
				C88.56,389.516,70.19,402.48,52.88,415.07c-3.229,2.35-2.688,6.279-0.569,8.51c-3.84,0.506-7.08,4.484-3.914,8.125
				c8.425,9.693,17.808,18.408,29.125,24.629c4.73,2.602,9.9,4.828,14.999,6.602c3.403,1.184,7.482,2.055,10.842,3.82
				c0.143,0.314,0.314,0.631,0.531,0.947c4.562,6.648,16.826,7.697,24.08,7.221c8.645-0.568,14.309-4.646,15.756-13.242
				c2.613-15.51,10.066-28.631,19.111-40.852c-1.412,3.309-2.77,6.635-3.891,10.029c-4.255,12.879-2.628,27.084-0.485,40.191
				c0.286,1.748,1.197,3.006,2.381,3.799c-1.888,3.203,0.001,8.764,5.028,8.764c4.874-0.002,9.749-0.031,14.607-0.477
				c2.313-0.213,5.273-0.531,7.76-1.537c1.09,1.355,2.758,2.205,4.631,2.014c4.836-0.496,6.799-3.285,6.676-7.455
				c2.672,3.17,9.501,2.625,9.821-2.352c1.75-27.252,22.268-49.588,36.445-71.492c15.794-24.402,25.95-52.816,16.362-81.34
				c2.327-1.711,4.432-3.924,6.224-6.746c0.77-1.211,0.965-2.367,0.778-3.402c5.613-2.184,11.489-3.684,17.112-5.852
				c7.473-2.881,14.898-5.846,22.312-8.877c7.291-2.98,14.64-5.799,22.172-8.115c1.958-0.602,3.955-1.174,5.45-2.326
				c4.762-1.518,8.771-5.486,11.642-9.371c4.362-5.902,5.58-12.625,0.791-18.654c-2.361-2.973-4.532-5.172-5.924-8.805
				c-1.208-3.152,0.398-7.139,0.5-10.383c0.104-3.316-1.073-6.15-2.555-9.051c-1.566-3.066-4.342-5.359-3.816-9.074
				c0.545-3.865-2.166-6.346-5.822-6.535c-0.61-0.031-1.209-0.08-1.799-0.133c4.252-3.861,8.576-7.637,12.918-11.463
				c17.149-15.113,33.743-30.834,50.344-46.543c33.494-31.695,67.258-63.361,105.527-89.309
				C500.82,64.445,500.897,61.4,499.584,59.145z M205.404,242.232c0.319-0.83,0.432-1.633,0.395-2.391
				c1.358-0.627,2.514-1.768,3.076-3.506c3.658-11.297,5.996-23.02,9.301-34.428c0.256-0.883,0.519-1.76,0.779-2.637
				c0.146-0.002,0.291,0,0.438-0.016c5.463-0.576,5.562,2.033,4.678,6.963c-0.612,3.416,1.801,6.066,4.971,6.475
				c-0.355,3.678-2.346,7.432-3.799,10.543c-2.217,4.746-4.812,9.365-6.031,14.498c-2.826,11.896-2.535,24.479-6.668,36.084
				c-0.119,0.336-0.199,0.666-0.26,0.99C205.611,265.062,201.096,253.447,205.404,242.232z M242.602,282.896
				c5.773-7.268,11.248-14.791,17.451-21.697c3.297,1.908,7.533,2.9,11.156,3.574c-3.273,5.062-8.115,9.471-12.26,12.805
				c-7.841,6.307-18.051,12.484-28.404,12.701c-1.206,0.025-2.176,0.369-2.931,0.914c-2.457-1.668-4.802-3.65-7.007-6.043
				c-0.975-1.057-1.957-2.162-2.93-3.311c1.932,0.217,3.838-0.654,4.719-3.127c2.233-6.271,3.57-12.635,4.546-19.209
				c1.005-6.779,1.066-14.486,3.378-20.979c0.943-2.648,2.145-5.238,3.377-7.82c1.488,4.756,3.021,9.498,4.08,14.381
				c0.529,2.445,3.375,3.736,5.615,3.668c2.772-0.088,6.272-1.059,8.957-0.146c1.004,0.342,1.535,1.4,1.894,2.686
				c-7.243,7.6-13.386,16.133-19.907,24.342C229.931,281.182,238.188,288.453,242.602,282.896z M232.576,402.557
				c-13.408,19.902-30.513,40.705-33.623,65.281c-0.297,0.684-0.467,1.465-0.467,2.342v2.006c-0.318-0.455-0.694-0.842-1.116-1.164
				c-0.854-14.623,0.789-30.48,6.237-43.736c4.451-10.83,11.37-20.42,16.523-30.9c4.513-9.18,8.403-18.707,11.471-28.467
				c1.947-6.191,5.706-18.16-1.022-22.916c-5.706-4.033-12.944,4.064-7.371,8.18c0.002,0.02,0.004,0.033,0.006,0.055
				c0.18,1.482-0.072,2.803-0.316,4.277c-0.733,4.445-2.169,8.799-3.688,13.027c-3.054,8.506-6.718,16.885-10.929,24.883
				c-5.989,11.377-13.306,21.916-17.228,34.287c-3.896,12.293-5.33,26.518-4.776,39.855c-0.868,0.279-1.699,0.869-2.404,1.859
				c-0.391,0.135-0.791,0.252-1.181,0.328c-1.745,0.342-3.536,0.467-5.305,0.6c-2.687,0.203-5.383,0.26-8.08,0.277
				c0.216-0.701,0.277-1.508,0.126-2.426c-2.03-12.432-3.399-24.998,0.315-37.246c3.904-12.879,11.58-24.129,13.1-37.777
				c0.572-5.133-5.783-9.166-9.531-4.68c-13.782,16.502-28.628,32.943-36.304,53.371c-1.671,4.449-2.972,9.047-3.767,13.734
				c-0.192,1.135-0.233,4.779-1.258,5.258c-3.175,1.484-7.165,1.301-10.531,0.867c-0.055-0.006-0.109-0.018-0.164-0.025
				c0.979-0.957,1.632-2.297,1.645-4.002c0.109-14.643,3.395-28.672,9.674-41.887c6.331-13.32,15.043-24.164,25.832-34.098
				c8.986-8.271,19.48-16.963,24.312-28.504c3.109-7.428,5.375-15.299,7.592-23.031c1.954-6.822-8.86-8.865-10.8-2.1
				c-2.031,7.092-4.136,14.238-6.987,21.049c-5.026,12.008-17.778,20.863-26.938,29.582c-21.272,20.252-33.07,49.352-33.63,78.502
				c-5.991-4.4-13.893-5.582-20.708-8.584c0.102-0.119,0.203-0.24,0.301-0.375c9.076-12.541,11.709-29.223,22.498-40.498
				c4.921-5.141-3.378-12.367-8.264-7.262c-11.012,11.506-13.357,27.867-22.5,40.498c-0.68,0.939-1.019,1.92-1.102,2.879
				c-3.514-1.867-6.944-3.779-10.258-6.379c-5.256-4.123-10.068-8.908-14.446-13.943c-0.137-0.156-0.278-0.303-0.423-0.441
				c0.641-0.158,1.292-0.453,1.938-0.924c18.159-13.207,36.879-26.83,50.358-45.072c7.272-9.84,12.46-20.865,17.563-31.941
				c4.578-4.953,8.687-10.352,11.927-16.594c1.233-2.377,0.602-4.547-0.838-5.996c0.279-0.5,0.552-1.006,0.838-1.504
				c3.545-6.166-6.341-11.006-9.855-4.895c-4.227,7.352-7.759,15.098-11.305,22.836c-8.653,8.988-19.081,16.234-28.069,25.139
				c-5.396,5.344-10.992,10.449-17.072,15.01c-4.754,3.564-11.237,8.285-17.611,8.992c0.299-0.76,0.464-1.592,0.474-2.455
				c0.042-3.508,0.373-7.221-0.199-10.621c12.076-12.328,26.51-21.896,40.256-32.229c14.439-10.855,27.682-22.896,37.383-38.275
				c3.788-6.01-6.114-10.826-9.855-4.895c-17.843,28.289-49.549,42.615-73.16,65.271c-0.149-0.086-0.298-0.176-0.461-0.254
				c-0.344-0.166-0.125-0.008-0.914-1.285c-0.918-1.484-1.44-3.256-2-4.896c-0.699-2.049-1.271-4.141-1.775-6.25
				c2.072,0.277,4.304-0.453,5.67-2.693c6.18-10.145,19.084-15.936,28.396-22.738c5.851-4.273,10.708-9.988,15.854-15.061
				c6-5.916,12.102-11.729,18.354-17.379c8.2-7.408,16.995-14.141,26.434-19.904c7.105-4.34,19.445-11.885,28.082-7.936
				c6.448,2.949,11.344-6.904,4.895-9.854c-10.614-4.854-22.632-0.16-32.279,4.844c-10.66,5.531-20.495,12.645-29.593,20.459
				c-6.512,5.594-12.775,11.473-18.954,17.43c-6.228,6.004-12.034,13.08-18.943,18.281c-10.146,7.635-22.291,13.607-30.01,23.916
				c-1.221-7.229-2.123-14.623-2.176-21.93c0-0.047-0.006-0.088-0.009-0.135c9.093-2.617,17.37-8.217,24.644-14.066
				c4.783-3.848,9.276-8.068,13.643-12.377c6.305-6.225,13.965-11.527,20.822-17.146c12.573-10.297,25.4-19.697,39.732-27.416
				c12.139-6.535,26.346-11.52,39.816-7.279c-8.976,17.455-0.557,44.801,13.298,57.592c10.548,9.736,24.156,17.436,37.715,21.988
				c7.195,2.416,14.924,3.654,21.902,2.381C260.885,352.973,248.062,379.566,232.576,402.557z M231.408,311.752
				c-11.049-4.092-21.625-10.449-30.58-18.092c-11.832-10.098-22.551-40.691-6.852-51.219c-4.303,18.102,5.496,34.898,17.35,48.678
				c12.305,14.301,28.288,18.578,46.572,18.648c0.125,0,0.241-0.01,0.361-0.018C252.4,318.201,239.343,314.689,231.408,311.752z
				 M296.498,289.186c-5.722,2.344-11.482,4.598-17.3,6.695c-5.699,2.053-11.585,3.477-17.103,6.014
				c-0.881-1.742-2.582-3.088-5.045-3.098c-3.765-0.016-7.411-0.242-10.929-0.758c7.724-3.07,14.946-7.959,20.974-12.975
				c5.02-4.178,10.02-9.26,13.613-15.037c3.434,2.4,7.826,3.445,12.131,3.895c-0.7,2.184-2.385,3.85-4.949,5.283
				c-5.219,2.918-1.51,10.051,3.498,10.045c1.725-0.002,3.449-0.016,5.164-0.086C296.534,289.172,296.516,289.178,296.498,289.186z
				 M330.972,234.541c3.019,4.727-0.36,11.076,1,16.43c0.808,3.176,2.306,6.357,4.237,9.012c0.803,1.105,4.877,4.453,4.79,5.654
				c-0.188,2.625-3.486,7.184-6.505,8.938c-3.846-3.047-8.515,0.109-9.041,3.814c-1.48,0.361-2.983,0.699-3.514,0.875
				c-2.499,0.83-4.969,1.748-7.432,2.682c0.622-3.926-4.023-8.439-8.619-5.738c-0.785,0.461-1.624,0.818-2.499,1.104
				c0.923-2.795,1.165-5.838,0.562-8.969c-0.609-3.158-2.635-5.014-5.908-5.061c-3.627-0.053-7.238-0.504-10.532-2.086
				c-1.157-0.557-1.832-1.281-2.189-2.109c0.517-2.344,0.75-4.76,0.63-7.242c-0.326-6.734-9.053-6.082-10.883-0.627
				c-0.33,0.984-0.557,1.959-0.73,2.93c-2.238-0.428-4.477-0.975-6.619-1.727c-0.779-0.285-1.545-0.605-2.296-0.961
				c-1.864-0.828-0.37,0.047-0.554-1.391c-0.258-2.01-0.508-3.816-1.452-5.637c-3.345-6.449-9.872-6.982-16.213-6.818
				c-1.993-7.281-4.89-14.322-6.251-21.768c-0.186-1.014-0.586-1.857-1.121-2.545c0.233-2.529,0.069-5.133-0.672-7.852
				c-0.516-1.891-2.138-3.021-3.92-3.457c-0.463-6.332-3.627-11.361-9.432-13.139c1.121-4.498,2.122-8.949,1.916-13.619
				c0.602-0.168,1.213-0.457,1.82-0.904c2.156-1.586,6.446-2.645,9.076-3.068c2.332-0.377,4.138,0.316,6.137,1.432
				c5.132,2.867,9.135,6.023,15.16,6.977c6.365,1.006,11.131-1.65,16.947-3.443c2.48-0.766,4.189,2.182,5.314,3.795
				c0.191,0.273,0.379,0.547,0.568,0.822c-5.688,5.086-11.326,10.25-16.463,15.896c-3.925,4.312-8.24,9.545-9.217,15.479
				c-0.421,2.562,0.766,4.465,2.491,5.508c0.13,3.4,1.011,6.701,3.61,9.062c3.26,2.961,7.402,3.297,11.58,3.613
				c1.794,0.137,3.748,0.275,5.443,0.916c1.496,0.564,1.054,1.049,1.645,3.455c0.783,3.193,2.948,4.996,5.59,5.887
				c1.322,2.705,4.729,4.623,8.113,2.668c8.64-4.994,15.756-12.209,22.736-19.246c1.203,0.76,2.746,1.016,4.506,0.379
				c1.03-0.373,2.187-0.439,3.379-0.371C326.849,227.773,328.688,230.965,330.972,234.541z M388.098,144.732
				c-16.629,15.719-33.197,31.502-50.283,46.727c-8.039,7.162-16.367,13.908-23.994,21.525c-5.994,5.986-11.814,12.279-18.601,17.35
				c-0.513-0.092-1.07-0.117-1.677-0.051c-0.504,0.074-1.009,0.121-1.515,0.154c-0.288-1.102-0.481-2.193-0.982-3.256
				c-1.942-4.115-5.669-5.918-9.902-6.986c-2.952-0.744-6.069-0.605-9.069-1.047c-0.646-0.094-1.474-0.621-1.209-0.07
				c-0.883-1.836-0.278-4.367,0.002-6.26c0.213-1.441-0.081-2.672-0.684-3.664c1.916-2.799,4.607-5.457,6.684-7.645
				c3.992-4.207,8.268-8.148,12.592-12.023c4.203,3.459,9.66-2.188,7.821-6.961c4.317-3.822,8.63-7.66,12.642-11.799
				c7.391-7.625,13.486-16.771,19.881-25.227c14.275-18.873,30.615-35.764,45.621-54.021c7.617-9.268,15.314-18.705,21.969-28.695
				c5.448-8.18,9.488-17.195,14.597-25.57c6.171,6.297,11.157,13.674,17.304,20.035c7.138,7.389,15.703,10.643,25.652,12.148
				c4.161,0.631,10.499,1.678,17.112,2.031C442.381,93.799,415.092,119.217,388.098,144.732z M453.818,58.094
				c-16.053-2.592-23.732-17.564-34.169-28.654c1.797-1.152,3.859-1.76,6.401-1.504c4.459,0.453,8.648,2.68,12.604,4.625
				c6.671,3.279,13.013,6.125,20.163,8.084c6.479,1.775,12.901,3.686,19.055,6.406c3.752,1.66,10.686,4.672,11.045,9.242
				C489.514,63.895,458.611,58.867,453.818,58.094z"/>
		</g>
	</g>
</g>
</svg>
