<?xml version="1.0" encoding="utf-8"?>
<!-- Generator: Adobe Illustrator 16.0.3, SVG Export Plug-In . SVG Version: 6.00 Build 0)  -->
<!DOCTYPE svg PUBLIC "-//W3C//DTD SVG 1.1//EN" "http://www.w3.org/Graphics/SVG/1.1/DTD/svg11.dtd">
<svg version="1.1" id="Layer_1" xmlns="http://www.w3.org/2000/svg" xmlns:xlink="http://www.w3.org/1999/xlink" x="0px" y="0px"
	 width="512px" height="512px" viewBox="0 0 512 512" style="enable-background:new 0 0 512 512;" xml:space="preserve">
<style type="text/css">
<![CDATA[
	.st0{fill:#127274;}
	.st1{fill:#14B6B9;}
	.st2{fill:#1E4384;}
	.st3{fill:#EF4754;}
	.st4{fill:#EF4823;}
	.st5{fill:#BCBCBC;}
	.st6{fill:#F6851F;}
	.st7{fill:#C56528;}
	.st8{fill:#FCBF95;}
	.st9{fill:#FEBF10;}
	.st10{fill:none;}
	.st11{fill:#010101;}
	.st12{fill:#3AB37C;}
	.st13{fill:#D6E5E5;}
	.st14{fill:#71C598;}
	.st15{fill:#74CCCF;}
]]>
</style>
<g>
	<g>
		<g>
			<path class="st0" d="M297.308,93.312c-3.693-1.658-6.762-0.91-10.176,1.254c-1.164,0.738-2.344,1.504-3.32,2.482
				c2.27,1.17,2.926,3.289,2.502,5.289c6.93,5.777,10.522,13.186,13.668,22.266c1.039,2.994,2.873,8.195,6.344,4.262
				c2.684-3.041,4.355-6.984,4.96-10.99C312.737,108.287,306.086,97.256,297.308,93.312z"/>
		</g>
	</g>
	<g>
		<g>
			<path class="st0" d="M249.21,180.363c-2.577-0.521-14.088-4.705-22.84-9.896c-0.09,2.594-0.449,8.721,1.867,9.555
				c3.329,1.197,7.387,0.057,10.913,1.27c4.163,1.43,7.45,4.529,10.28,7.795c1.655,1.91,4.071,5.881,7.028,5.734
				c3.915-0.193,6.946-1.914,10.488-3.389c6.754-2.814,12.993-2.332,17.126,2.369c7.974-4.289,12.144-11.678,14.993-19.949
				C283.346,180.254,265.89,183.734,249.21,180.363z"/>
		</g>
	</g>
	<g>
		<g>
			<path class="st0" d="M254.788,100.535c-3.075-1.27-7.058,0.051-9.895,1.432c-5.434,2.643-14.16,9.707-14.506,16.365
				c-0.033,0.619-0.153,1.189-0.336,1.711c0.746,0.795,1.249,1.883,1.336,3.289c0.207,3.445,2.688,6.943,5.445,8.912
				c3.122,2.232,4.584,0.986,6.037-2.123c3.079-6.586,3.805-14.34,8.389-20.143C252.474,108.441,258.88,102.223,254.788,100.535z"/>
		</g>
	</g>
	<g>
		<g>
			<path class="st13" d="M469.124,230.73c-2.197-14.584-8.122-28.586-7.926-43.496c0.096-7.365,1.255-15.643-0.8-22.832
				c-1.931-6.752-5.886-12.041-10.056-17.57c-1.502-1.99-1.349-4.033-0.338-5.607c-1.437-3.404-3.217-6.781-5.799-9.199
				c-2.467-2.309-4.12-3.004-6.809-2.66c-2.559,0.328-5.852,1.998-8.712,4.008c-3.729,2.619-7.126,5.635-10.397,8.803
				c-7.569,7.328-14.631,15.184-22.529,22.172c-6.69,5.918-14.785,12.418-24.088,13.104c-19.186,1.414-29.543-21.424-34.419-36.498
				c-7.084-21.908-11.119-45.59-22.535-65.84c-6.332-11.232-14.812-21.537-26.519-27.479c-13.406-6.805-27.15-5.262-39.221,3.68
				c-19.467,14.422-35.642,30.92-43.037,54.498c-4.961,15.818-8.83,32.279-16.328,47.162c-6.725,13.348-17.573,26.941-33.779,27.688
				c-23.322,1.076-39.231-17.982-58.09-28.33c-9.299-5.1-16.559-7.566-26.2-4.211c-4.349,1.514-8.698,3.266-12.599,5.74
				c-1.336,0.848-2.83,1.693-3.917,2.865c0.011-0.014-0.299,0.42-0.552,0.74c-0.012,0.066-0.031,0.133-0.047,0.199
				c0.314,2.283-0.73,3.859-2.294,4.666c-3.608,6.883-6.604,14.023-9.647,21.184c-4.607,10.834-10.682,21.943-11.771,33.859
				c-0.421,4.623-0.204,10.766,4.763,12.863c4.036,1.703,8.606,1.717,12.875,2.441c10.201,1.73,18.538,7.504,20.859,18.021
				c2.204,9.994-0.559,20.254-2.677,30.016c-2.042,9.408-4.26,19.105-5.173,28.695c-0.827,8.691-0.585,21.17,9.202,24.936
				c10.114,3.891,22.215-1.945,32.425-2.877c10.119-0.922,20.166,3.121,25.873,11.766c13.564,20.549,7.496,48.465,8.531,71.467
				c0.613,13.664,2.799,28.309,10.94,39.725c6.541,9.172,16.845,16.889,28.687,15.957c24.897-1.957,41.875-22.463,63.201-33.004
				c13.371-6.609,28.248-9.316,40.605,0.902c10.06,8.32,15.715,20.643,22.302,31.605c5.271,8.775,12.651,20.678,23.603,20.658
				c22.399-0.041,38.363-22.08,44.357-41.506c6.51-21.094,6.164-47.436,25.887-61.576c9.703-6.955,21.371-8.436,32.406-12.182
				c10.552-3.582,20.205-10.16,20.111-22.439c-0.084-10.855-3.748-21.471-7.246-31.639c-3.723-10.812-9.184-23.439-6.184-35.092
				c3.134-12.168,12.609-17.834,21.855-25.145c4.025-3.184,7.988-6.826,9.957-11.688
				C470.233,243.459,470.046,236.846,469.124,230.73z M244.083,90.564c5.518-1.98,14.174-2.713,18.602,2.146
				c4.793,5.26,5.678,11.734,1.895,17.867c-1.768,2.865-4.82,5.287-6.105,8.387c-1.075,2.59-1.793,5.295-2.677,7.953
				c-1.757,5.277-3.901,12.793-9.232,15.68c-11.954,6.473-25.427-6.461-26.147-18.418c-0.033-0.559,0.01-1.072,0.107-1.551
				c-0.744-0.799-1.186-1.941-1.107-3.449C220.104,105.938,232.229,94.816,244.083,90.564z M313.388,163.332
				c0,1.129-0.244,2.41-0.85,3.445c-4.455,16.945-10.814,32.768-28.817,39.17c-2.888,1.027-5.941-0.588-7.011-3.373
				c-1.402-3.654-4.124-1.686-7.086-0.336c-3.178,1.445-6.243,2.838-9.743,3.311c-9.312,1.26-13.538-4.006-19.358-10.047
				c-3.033-3.15-5.397-4.266-9.708-4.363c-3.417-0.078-7.677-0.336-10.192-3.059c-2.942-3.188-4.756-7.289-5.057-11.652
				c-0.135-1.939-0.139-3.873-0.148-5.816c-0.004-0.738-0.004-1.486-0.033-2.23c-1.882-2.016-1.16-5.254,0.899-7.221
				c-0.599-1.76-0.234-3.467,1.487-5.035c3.243-2.959,7.727-1.236,9.331,1.639c0.192,0.135,0.376,0.279,0.579,0.396
				c1.187,0.732,2.383,1.447,3.594,2.139c2.034,1.162,4.072,2.312,6.074,3.529c6.903,4.191,13.999,6.482,22.13,6.441
				c15.784-0.078,29.804-3.254,43.813-10.299c2.69-3.945,10.096-3.389,10.096,2.361V163.332z M305.201,141.299
				c-8.334,0.863-13.28-5.898-15.604-13.059c-2.621-8.084-5.54-15.021-13.144-19.557c-2.246-1.34-2.989-3.547-2.724-5.607
				c-2.188-2.932-2.556-6.83-0.269-10.535c3.15-5.105,9.537-9.244,15.353-10.574c15.817-3.615,30.716,13.102,33.181,27.607
				C323.888,120.717,318.788,139.895,305.201,141.299z"/>
		</g>
	</g>
	<g>
		<g>
			<path d="M478.196,219.906c-1.559-7.127-3.656-14.125-5.015-21.299c-1.319-6.979-0.976-13.961-0.821-21.02
				c0.15-6.836-0.347-13.57-2.605-20.066c-1.638-4.707-4.395-8.891-7.337-12.898c0.117-0.816,0.036-1.719-0.325-2.686
				c-4.232-11.363-12.209-25.744-26.586-23.389c-12.188,1.994-21.91,12.684-30.178,21.012c-8.58,8.643-17.623,19.76-28.463,25.033
				c-4.485,2.18-7.877,2.598-11.444,0.84c-9.111-4.488-13.743-16.586-16.896-25.482c-7.743-21.852-11.618-44.883-21.983-65.805
				c-11.069-22.342-32.508-44.174-59.464-41.82c-13.852,1.209-25.186,10.107-35.492,18.637c-9.781,8.096-18.41,17.156-25.383,27.785
				c-10.01,15.26-13.386,33.883-19.033,50.979c-3.944,11.941-9.021,26.004-18.906,34.404c-12.247,10.404-27.496,3.959-39.331-3.754
				c-8.896-5.799-17.056-12.607-26.297-17.898c-7.466-4.273-17.229-8.355-26.013-6.988c-7.743,1.205-15.227,4.457-22.047,8.201
				c-4.193,2.303-10.246,6.398-11.164,11.66c-6.106,11.109-10.736,23.016-15.728,34.652c-4.626,10.785-9.257,22.744-7.78,34.691
				c1.402,11.367,10.161,16.482,20.605,17.996c4.555,0.66,9.14,0.893,13.235,3.168c4.121,2.291,5.067,7.346,5.281,11.609
				c0.464,9.238-2.76,18.99-4.56,27.996c-2.053,10.268-4.359,20.422-4.377,30.953c-0.016,10.18,3.635,20.133,12.334,25.951
				c9.647,6.449,21.855,3.746,32.416,1.598c9.896-2.016,19.271-3.109,25.507,6.334c5.306,8.039,5.933,19.195,6.188,28.518
				c0.772,28.139-3.938,58.457,13.495,82.902c6.742,9.455,16.582,16.451,27.957,18.963c11.572,2.557,24.154-1.127,34.438-6.342
				c10.818-5.484,20.331-13.049,30.338-19.824c7.682-5.197,16.538-10.805,25.922-12.109c12.02-1.672,19.601,7.727,25.621,17.164
				c7.033,11.021,12.394,23.227,21.715,32.621c11.008,11.094,26.09,11.064,39.725,4.941c21.939-9.855,33.779-33.852,39.029-56.111
				c2.633-11.166,3.748-22.787,8.896-33.193c5.437-10.988,15.936-15.609,27.13-18.705c11.508-3.186,22.444-6.135,31.306-14.615
				c8.102-7.752,9.23-19.854,7.75-30.334c-1.553-10.996-5.525-21.732-9.158-32.174c-3.834-11.016-8.121-24.549,2.248-33.402
				c8.084-6.902,17.137-11.98,23.051-21.104C483.138,246.479,480.82,231.91,478.196,219.906z M467.878,249.281
				c-1.969,4.861-5.932,8.504-9.957,11.688c-9.246,7.311-18.722,12.977-21.855,25.145c-3,11.652,2.461,24.279,6.184,35.092
				c3.498,10.168,7.162,20.783,7.246,31.639c0.094,12.279-9.56,18.857-20.111,22.439c-11.035,3.746-22.703,5.227-32.406,12.182
				c-19.723,14.141-19.377,40.482-25.887,61.576c-5.994,19.426-21.958,41.465-44.357,41.506
				c-10.951,0.02-18.331-11.883-23.603-20.658c-6.587-10.963-12.242-23.285-22.302-31.605c-12.357-10.219-27.234-7.512-40.605-0.902
				c-21.326,10.541-38.304,31.047-63.201,33.004c-11.842,0.932-22.146-6.785-28.687-15.957
				c-8.142-11.416-10.327-26.061-10.94-39.725c-1.035-23.002,5.033-50.918-8.531-71.467c-5.707-8.645-15.754-12.688-25.873-11.766
				c-10.21,0.932-22.311,6.768-32.425,2.877c-9.787-3.766-10.029-16.244-9.202-24.936c0.913-9.59,3.131-19.287,5.173-28.695
				c2.118-9.762,4.881-20.021,2.677-30.016c-2.321-10.518-10.658-16.291-20.859-18.021c-4.269-0.725-8.839-0.738-12.875-2.441
				c-4.967-2.098-5.184-8.24-4.763-12.863c1.089-11.916,7.163-23.025,11.771-33.859c3.043-7.16,6.039-14.301,9.647-21.184
				c1.563-0.807,2.608-2.383,2.294-4.666c0.016-0.066,0.035-0.133,0.047-0.199c0.253-0.32,0.562-0.754,0.552-0.74
				c1.087-1.172,2.581-2.018,3.917-2.865c3.9-2.475,8.25-4.227,12.599-5.74c9.642-3.355,16.901-0.889,26.2,4.211
				c18.858,10.348,34.768,29.406,58.09,28.33c16.206-0.746,27.055-14.34,33.779-27.688c7.498-14.883,11.367-31.344,16.328-47.162
				c7.396-23.578,23.57-40.076,43.037-54.498c12.07-8.941,25.814-10.484,39.221-3.68c11.707,5.941,20.187,16.246,26.519,27.479
				c11.416,20.25,15.451,43.932,22.535,65.84c4.876,15.074,15.233,37.912,34.419,36.498c9.303-0.686,17.397-7.186,24.088-13.104
				c7.898-6.988,14.96-14.844,22.529-22.172c3.271-3.168,6.668-6.184,10.397-8.803c2.86-2.01,6.153-3.68,8.712-4.008
				c2.688-0.344,4.342,0.352,6.809,2.66c2.582,2.418,4.362,5.795,5.799,9.199c-1.011,1.574-1.164,3.617,0.338,5.607
				c4.17,5.529,8.125,10.818,10.056,17.57c2.055,7.189,0.896,15.467,0.8,22.832c-0.196,14.91,5.729,28.912,7.926,43.496
				C470.046,236.846,470.233,243.459,467.878,249.281z"/>
		</g>
	</g>
	<g>
		<g>
			<path d="M262.685,92.711c-4.428-4.859-13.084-4.127-18.602-2.146c-11.854,4.252-23.979,15.373-24.666,28.615
				c-0.078,1.508,0.363,2.65,1.107,3.449c-0.098,0.479-0.141,0.992-0.107,1.551c0.721,11.957,14.193,24.891,26.147,18.418
				c5.331-2.887,7.476-10.402,9.232-15.68c0.884-2.658,1.602-5.363,2.677-7.953c1.285-3.1,4.338-5.521,6.105-8.387
				C268.362,104.445,267.478,97.971,262.685,92.711z M251.259,109.979c-4.584,5.803-5.31,13.557-8.389,20.143
				c-1.453,3.109-2.915,4.355-6.037,2.123c-2.757-1.969-5.238-5.467-5.445-8.912c-0.087-1.406-0.59-2.494-1.336-3.289
				c0.183-0.521,0.303-1.092,0.336-1.711c0.346-6.658,9.072-13.723,14.506-16.365c2.837-1.381,6.819-2.701,9.895-1.432
				C258.88,102.223,252.474,108.441,251.259,109.979z"/>
		</g>
	</g>
	<g>
		<g>
			<path d="M321.995,109.574c-2.465-14.506-17.363-31.223-33.181-27.607c-5.815,1.33-12.202,5.469-15.353,10.574
				c-2.287,3.705-1.919,7.604,0.269,10.535c-0.266,2.061,0.478,4.268,2.724,5.607c7.604,4.535,10.522,11.473,13.144,19.557
				c2.323,7.16,7.27,13.922,15.604,13.059C318.788,139.895,323.888,120.717,321.995,109.574z M311.285,117.875
				c-0.604,4.006-2.276,7.949-4.96,10.99c-3.471,3.934-5.305-1.268-6.344-4.262c-3.146-9.08-6.738-16.488-13.668-22.266
				c0.424-2-0.232-4.119-2.502-5.289c0.977-0.979,2.156-1.744,3.32-2.482c3.414-2.164,6.482-2.912,10.176-1.254
				C306.086,97.256,312.737,108.287,311.285,117.875z"/>
		</g>
	</g>
	<g>
		<g>
			<path d="M303.292,159.971c-14.01,7.045-28.029,10.221-43.813,10.299c-8.131,0.041-15.227-2.25-22.13-6.441
				c-2.002-1.217-4.04-2.367-6.074-3.529c-1.211-0.691-2.407-1.406-3.594-2.139c-0.203-0.117-0.387-0.262-0.579-0.396
				c-1.604-2.875-6.088-4.598-9.331-1.639c-1.722,1.568-2.086,3.275-1.487,5.035c-2.06,1.967-2.781,5.205-0.899,7.221
				c0.029,0.744,0.029,1.492,0.033,2.23c0.01,1.943,0.014,3.877,0.148,5.816c0.301,4.363,2.114,8.465,5.057,11.652
				c2.516,2.723,6.775,2.98,10.192,3.059c4.311,0.098,6.675,1.213,9.708,4.363c5.82,6.041,10.046,11.307,19.358,10.047
				c3.5-0.473,6.565-1.865,9.743-3.311c2.962-1.35,5.684-3.318,7.086,0.336c1.069,2.785,4.123,4.4,7.011,3.373
				c18.003-6.402,24.362-22.225,28.817-39.17c0.605-1.035,0.85-2.316,0.85-3.445v-1
				C313.388,156.582,305.982,156.025,303.292,159.971z M284.073,193.801c-4.133-4.701-10.372-5.184-17.126-2.369
				c-3.542,1.475-6.573,3.195-10.488,3.389c-2.957,0.146-5.373-3.824-7.028-5.734c-2.83-3.266-6.117-6.365-10.28-7.795
				c-3.526-1.213-7.584-0.072-10.913-1.27c-2.316-0.834-1.957-6.961-1.867-9.555c8.752,5.191,20.263,9.375,22.84,9.896
				c16.68,3.371,34.136-0.109,49.856-6.512C296.217,182.123,292.047,189.512,284.073,193.801z"/>
		</g>
	</g>
</g>
</svg>
