<?xml version="1.0" encoding="utf-8"?>
<!-- Generator: Adobe Illustrator 16.0.3, SVG Export Plug-In . SVG Version: 6.00 Build 0)  -->
<!DOCTYPE svg PUBLIC "-//W3C//DTD SVG 1.1//EN" "http://www.w3.org/Graphics/SVG/1.1/DTD/svg11.dtd">
<svg version="1.1" id="Layer_1" xmlns="http://www.w3.org/2000/svg" xmlns:xlink="http://www.w3.org/1999/xlink" x="0px" y="0px"
	 width="512px" height="512px" viewBox="0 0 512 512" style="enable-background:new 0 0 512 512;" xml:space="preserve">
<style type="text/css">
<![CDATA[
	.st0{fill:#127274;}
	.st1{fill:#14B6B9;}
	.st2{fill:#1E4384;}
	.st3{fill:#EF4754;}
	.st4{fill:#EF4823;}
	.st5{fill:#BCBCBC;}
	.st6{fill:#F6851F;}
	.st7{fill:#C56528;}
	.st8{fill:#FCBF95;}
	.st9{fill:#FEBF10;}
	.st10{fill:none;}
	.st11{fill:#010101;}
	.st12{fill:#3AB37C;}
	.st13{fill:#D6E5E5;}
	.st14{fill:#71C598;}
	.st15{fill:#74CCCF;}
]]>
</style>
<g>
	<g>
		<g>
			<path class="st9" d="M318.202,264.777c-10.744,2.364-21.699,3.716-32.564,5.411c-28.366,4.427-56.826,8.146-85.174,12.717
				c-20.084,3.238-40.33,6.004-60.688,6.593c-20.74,0.601-42.135-0.541-61.821-7.618c-8.757-3.148-17.267-7.552-24.308-13.714
				c-2.203-1.929-4.25-4.014-6.174-6.209c-1.367,0.254-2.739,0.346-4.072,0.24c23.721,26.156,56.223,41.658,89.992,51.142
				c21.16,5.942,41.77,10.436,63.861,10.609c9.191,0.073,18.279,0.955,27.451,1.408c7.367,0.364,15.081,0.667,22.24-1.341v-0.139
				c0-7.06,10.969-7.937,10.969-0.848v1.852c7.82-6.205,15.494-12.588,22.942-19.229c14.652-13.064,28.335-27.219,41.48-41.846
				C320.894,264.174,319.496,264.492,318.202,264.777z"/>
		</g>
	</g>
	<g>
		<g>
			<path class="st15" d="M254.487,233.94c-3.096,0.161-8.68,0.535-11.438,3.079c3.477,0.57,4.869,4.379,3.881,7.35
				c7.139-0.531,14.572-4.379,19.36-9.534C262.397,233.981,258.247,233.744,254.487,233.94z"/>
		</g>
	</g>
	<g>
		<g>
			<path class="st9" d="M409.946,134.412c-5.332,1.296-10.758,2.235-16.189,2.888c-13.648,1.64-27.393,1.898-41.125,2.062
				c-13.378,0.159-26.777,1.053-40.15,0.903c-9.479-0.106-18.947-0.651-28.375-1.604c3.861,4.502,5.66,10.487,3.723,17.851
				c-4.186,15.901-24.533,19.404-38.447,18.497c-13.594-0.887-36.021-10.178-34.376-27.015
				c1.099-11.237,10.695-15.845,21.368-17.729c-3.286-0.826-6.561-1.697-9.82-2.62c-27.761-7.864-54.429-18.766-79.843-32.409
				c-9.88-5.303-18.344-13.012-28.35-18.032c-0.799-0.4-1.646-0.811-2.521-1.19c-0.503,1.746-1.186,3.426-2.082,4.956
				c1.31,1.322,2.028,3.339,1.579,5.045c-2.186,8.311-9.055,12.667-16.801,13.554c0.186,2.351,0.564,4.668,1.182,6.948
				c3.706,13.688,10.584,26.488,17.732,38.651c7.507,12.77,15.566,24.906,25.54,35.938c8.896,9.84,19.495,18.2,28.147,28.165
				c4.287,4.938,9.416,9.478,14.935,13.002c2.138,1.365,4.374,2.592,6.401,4.125c0.014,0.01,0.027,0.021,0.041,0.031
				c1.645-0.1,3.314,0.596,4.479,2.453c0.376,0.6,0.779,1.237,1.102,1.906c7.923-1.498,15.787-3.172,23.559-5.014
				c29.396-6.967,57.506-17.634,84.027-32.1c7.396-4.034,14.792-8.068,22.188-12.104c3.414-1.861,6.828-3.724,10.241-5.585
				c3.227-1.761,7.394-3.276,10.241-5.586c9.131-7.407,17.729-16.447,29.65-18.925c6.943-1.442,7.685,9.55,0.848,10.971
				c-8.082,1.679-15.199,9.416-21.27,14.525c-8.227,6.925-19.246,11.367-28.68,16.513c-19.533,10.654-38.908,21.358-59.762,29.275
				c-0.828,0.314-1.658,0.611-2.488,0.917c4.008,0.764,7.723,1.924,10.728,3.354c2.734,1.301,3.757,4.706,2.479,7.374
				c-8.646,18.071-35.342,27.349-52.057,15.184c-3.899-2.839-1.363-8.733,2.754-9.534c0.205-2.13,0.699-4.04,1.459-5.73
				c-16.386,4.137-33.025,7.247-49.824,9.903c-16.178,2.558-32.455,4.719-48.818,5.622c-8.451,0.466-16.923,0.703-25.386,0.459
				c-6.866-0.198-14.193-0.039-20.896-1.688c-6.268-1.542-12.328-3.823-18.598-5.354c-2.201-0.537-4.684-1.176-7.167-1.476
				c1.056,2.901,0.995,6.261,0.015,9.216c-0.695,2.097-2.031,4.048-3.76,5.718c6.155,6.27,13.796,10.893,22.048,14.097
				c19.063,7.403,40.374,8.428,60.599,7.663c20.285-0.766,40.422-3.456,60.439-6.719c28.632-4.667,57.416-8.257,86.055-12.853
				c8.619-1.383,17.334-2.374,25.893-4.105c4.482-0.907,9.062-2.002,13.281-3.806c2.035-0.87,4.91-2.487,5.135-3.595
				c0.899-4.438,5.625-5.183,8.559-3.334c1.357-1.59,2.713-3.182,4.062-4.775c9.048-10.682,18.264-21.676,24.973-34.021
				c4.646-8.547,8.63-18.225,14.715-26.008c0.008-1.146,0.437-2.337,1.455-3.439c0.043-0.047,0.088-0.091,0.132-0.137
				c-0.058-0.552-0.03-1.146,0.101-1.782c1.978-9.586,10.975-18.569,17.178-25.669c3.178-3.636,6.418-7.232,9.824-10.657
				C411.071,136.778,410.312,135.664,409.946,134.412z"/>
		</g>
	</g>
	<g>
		<g>
			<path class="st15" d="M261.107,139.899c-0.241,0.029-0.489,0.049-0.753,0.049c-0.928,0-1.852-0.007-2.772-0.017
				c-0.075,0.006-0.153,0.01-0.228,0.017c-0.493,0.045-0.953,0.028-1.385-0.032c-6.129-0.064-12.129-0.091-18.164,1.405
				c-4.075,1.01-11.371,2.321-11.895,7.668c-0.519,5.31,7.364,9.946,11.326,11.821c4.182,1.979,8.531,3.027,13.152,3.329
				c8.002,0.521,22.73-0.435,26.419-9.283C281.072,144.628,269.729,140.362,261.107,139.899z"/>
		</g>
	</g>
	<g>
		<g>
			<path class="st15" d="M295.212,323.361c-0.789,2.416-3.072,8.956-0.928,10.821c2.096,1.82,6.584-0.939,8.419-2.161
				c9.265-6.167,14.833-16.156,16.001-27.055C308.641,303.407,300.283,313.994,295.212,323.361z"/>
		</g>
	</g>
	<g>
		<g>
			<path class="st9" d="M399.938,187.382c-0.428-2.243-1.162-4.773-2.665-6.555c-0.396-0.468-0.839-0.549-1.294-0.411
				c-0.162,0.905-0.607,1.818-1.424,2.675c-4.831,5.068-7.943,11.633-11.156,17.779c-3.523,6.736-7.005,13.461-11.342,19.719
				c-8.698,12.548-18.471,24.278-28.595,35.692c-10.185,11.481-20.138,23.45-30.909,34.378c-1.844,1.871-3.721,3.706-5.596,5.546
				c5.998-2.654,12.711-3.162,19.917-0.179c1.612,0.667,3.069,2.734,3.038,4.504c-0.312,17.533-9.4,37.037-26.817,43.615
				c-5.938,2.243-13.387,2.363-17.501-3.303c-2.108-2.904-2.876-6.293-2.865-9.757c-1.135-1.45-1.615-3.426-0.727-5.581
				c1.588-3.854,3.655-7.877,6.137-11.713c-13.922,12.354-28.488,23.986-43.482,35.003c-12.081,8.876-24.401,17.424-36.914,25.682
				c-12.389,8.177-24.801,16.731-37.732,24.032c-12.312,6.951-23.675,16.361-37.148,21.068c-2.58,0.902-5.232,1.433-7.883,1.977
				c-0.355,0.942-0.758,1.861-1.199,2.756c13.057,7.582,31.778,4.647,45.638,2.133c20.366-3.693,40.478-9.685,59.574-17.662
				c25.234-10.541,48.57-25.671,69.824-42.824c19.546-15.773,37.257-33.934,52.046-54.262
				c14.946-20.542,27.002-43.251,35.409-67.238c2.205-6.293,3.906-12.746,6.175-19.011c2.138-5.903,4.115-11.894,5.52-18.021
				C399.401,201.162,401.167,193.832,399.938,187.382z"/>
		</g>
	</g>
	<g>
		<g>
			<path class="st9" d="M465.815,93.367c-4.119-1.891-7.908-4.76-11.338-8.03c-5.285,18.448-20.593,31.512-32.271,46.98
				c1.502,0.521,2.63,1.58,3.387,3.278c0.008,0.017,0.015,0.032,0.021,0.049c1.822,4.088-1.627,7.014-5.148,7.021
				c0.119,0.078,0.239,0.156,0.359,0.234c0.732,0.017,1.301-0.123,1.694-0.284c0.455-0.398,0.48-0.41,0.332-0.267
				c0.489-0.354,0.386-0.055-0.236,0.225c-0.292,0.274-0.692,0.645-0.778,0.729c-1.2,1.175-2.379,2.371-3.536,3.589
				c-3.163,3.328-6.25,6.732-9.228,10.228c-2.886,3.387-7.201,8.049-10.15,12.454c1.02,0.214,2.053,0.567,3.103,1.12
				c5.155,2.715,7.614,9.19,8.638,14.56c2.725,14.292-3.078,30.492-7.877,43.747c-5.078,14.022-9.079,28.212-15.33,41.821
				c-6.129,13.344-13.307,26.136-21.479,38.334c-13.972,20.856-30.702,39.639-49.521,56.235
				c-19.676,17.354-41.714,33.179-65.093,45.134c-23.859,12.2-49.712,20.71-75.976,25.917c-11.43,2.266-24.812,4.471-37.332,3.256
				c10.324,3.785,21.425,5.644,32.379,6.476c19.033,1.447,38.547,0.618,57.574-0.711c34.278-2.394,68.564-9.667,99.584-24.818
				c40.457-19.762,72.32-52.958,89.631-94.608c11.582-27.866,17.334-57.594,18.84-87.673c1.525-30.479-0.094-60.984-0.127-91.478
				c0-0.158,0.012-0.311,0.021-0.463c-1.82-2.767-1.471-6.889,2.605-7.991c16.309-4.412,29.165-20.265,34.705-35.835
				c0.574-1.615,1.065-3.376,1.176-5.095C471.618,96.022,468.714,94.697,465.815,93.367z"/>
		</g>
	</g>
	<g>
		<g>
			<path d="M485.29,95.314c-0.424-4.234-2.962-6.094-6.442-7.934c-3.506-1.853-7.172-3.408-10.766-5.08
				c-2.079-0.968-3.966-3.436-5.695-4.978c-2.526-2.251-4.86-4.604-6.946-7.273c-3.516-4.501-9.947-2.041-10.045,3.499
				c-0.343,19.347-15.671,32.922-27.75,47.07c-24.855,9.09-52.566,7.461-78.602,7.952c-13.848,0.261-27.586,1.084-41.44,0.256
				c-14.536-0.868-28.987-2.933-43.262-5.778c-28.757-5.732-56.67-15.295-83.191-27.751c-11.749-5.519-23.173-11.531-33.84-18.94
				c-8.12-5.642-16.804-12.317-27.072-12.824c-10.411-0.513-18.304,6.831-23.931,14.802c-1.829,2.59-1.615,6.566,1.008,8.271
				c-0.525,2.53-0.814,5.147-0.861,7.782c-0.018,1.012,0.396,1.99,1.035,2.82c-0.033,1.312,0.01,2.608,0.111,3.842
				c1.264,15.384,9.656,30.443,16.969,43.678c7.471,13.518,15.711,26.493,25.652,38.336c9.275,11.048,19.596,21.145,30.264,30.836
				c5.27,4.787,9.58,10.187,15.332,14.531c2.299,1.736,4.695,3.372,7.105,4.987c-18.689,2.968-37.585,4.935-56.258,5.749
				c-14.811,0.646-30.084,1.037-44.385-3.262c-10.337-3.107-21.465-7.274-32.246-3.79c-8.598,2.778-18.399,9.978-17.498,18.995
				c-1.177,1.409-2.266,2.828-3.227,4.214c-1.336,1.928-2.08,4.643-0.427,6.706c25.741,32.143,62.001,50.385,100.909,61.677
				c10.573,3.068,21.272,6.124,32.098,8.146c11.309,2.112,22.861,2.813,34.346,3.039c9.81,0.192,19.523,0.878,29.317,1.433
				c5.911,0.335,12.04,0.463,17.982-0.367c-11.28,8.438-22.81,16.545-34.468,24.412c-12.382,8.354-24.968,16.404-37.635,24.318
				c-6.08,3.799-12.294,7.367-18.338,11.222c-6.273,3.999-12.453,8.195-19.202,11.365c-4.857,2.281-9.986,3.095-15.032,4.344
				c-10.689-2.188-23.123,6.524-27.35,15.881c-1.754,3.883,1.087,8.111,5.352,7.933c1.91-0.08,3.787-0.394,5.568-0.931
				c1.217,0.638,2.701,0.854,4.098,0.584c0.728,0.277,1.519,0.409,2.334,0.347c0.162-0.012,0.312-0.043,0.473-0.059
				c0.324,0.604,0.804,1.183,1.471,1.705c19.954,15.615,45.057,19.729,69.747,20.559c24.315,0.816,49.317-0.42,73.401-3.852
				c43.793-6.24,86.936-22.03,120.916-50.951c31.492-26.803,51.713-62.947,62.775-102.479
				c13.938-49.801,9.392-102.072,9.266-153.115c16.905-6.655,29.789-23.23,36.212-39.752
				C484.626,103.621,485.708,99.493,485.29,95.314z M255.97,139.916c0.432,0.061,0.892,0.077,1.385,0.032
				c0.074-0.007,0.152-0.011,0.228-0.017c0.921,0.01,1.845,0.017,2.772,0.017c0.264,0,0.512-0.02,0.753-0.049
				c8.622,0.463,19.965,4.729,15.701,14.957c-3.688,8.849-18.417,9.805-26.419,9.283c-4.621-0.302-8.971-1.351-13.152-3.329
				c-3.962-1.875-11.845-6.512-11.326-11.821c0.523-5.347,7.819-6.658,11.895-7.668C243.841,139.825,249.841,139.851,255.97,139.916
				z M61.339,251.006c0.98-2.955,1.041-6.314-0.015-9.216c2.483,0.3,4.966,0.938,7.167,1.476c6.27,1.53,12.33,3.812,18.598,5.354
				c6.702,1.649,14.029,1.49,20.896,1.688c8.463,0.244,16.935,0.007,25.386-0.459c16.363-0.903,32.641-3.064,48.818-5.622
				c16.799-2.656,33.438-5.767,49.824-9.903c-0.76,1.69-1.254,3.601-1.459,5.73c-4.117,0.801-6.653,6.695-2.754,9.534
				c16.715,12.165,43.41,2.888,52.057-15.184c1.277-2.668,0.255-6.073-2.479-7.374c-3.005-1.43-6.72-2.59-10.728-3.354
				c0.83-0.306,1.66-0.603,2.488-0.917c20.854-7.917,40.229-18.621,59.762-29.275c9.434-5.146,20.453-9.588,28.68-16.513
				c6.07-5.109,13.188-12.847,21.27-14.525c6.837-1.421,6.096-12.413-0.848-10.971c-11.922,2.478-20.52,11.518-29.65,18.925
				c-2.848,2.31-7.015,3.825-10.241,5.586c-3.413,1.861-6.827,3.724-10.241,5.585c-7.396,4.035-14.791,8.069-22.188,12.104
				c-26.521,14.466-54.631,25.133-84.027,32.1c-7.771,1.842-15.636,3.516-23.559,5.014c-0.322-0.669-0.726-1.307-1.102-1.906
				c-1.164-1.857-2.834-2.553-4.479-2.453c-0.014-0.01-0.027-0.021-0.041-0.031c-2.027-1.533-4.264-2.76-6.401-4.125
				c-5.519-3.524-10.647-8.063-14.935-13.002c-8.652-9.965-19.252-18.325-28.147-28.165c-9.974-11.032-18.033-23.169-25.54-35.938
				c-7.148-12.163-14.026-24.963-17.732-38.651c-0.617-2.28-0.996-4.598-1.182-6.948c7.746-0.887,14.615-5.243,16.801-13.554
				c0.449-1.706-0.27-3.723-1.579-5.045c0.896-1.53,1.579-3.21,2.082-4.956c0.876,0.38,1.723,0.79,2.521,1.19
				c10.006,5.021,18.47,12.729,28.35,18.032c25.414,13.644,52.082,24.545,79.843,32.409c3.26,0.923,6.534,1.794,9.82,2.62
				c-10.673,1.884-20.27,6.491-21.368,17.729c-1.646,16.837,20.782,26.128,34.376,27.015c13.914,0.907,34.262-2.596,38.447-18.497
				c1.938-7.363,0.139-13.349-3.723-17.851c9.428,0.952,18.896,1.497,28.375,1.604c13.373,0.149,26.772-0.744,40.15-0.903
				c13.732-0.163,27.477-0.422,41.125-2.062c5.432-0.652,10.857-1.592,16.189-2.888c0.365,1.252,1.125,2.366,2.08,3.173
				c-3.406,3.425-6.646,7.021-9.824,10.657c-6.203,7.1-15.2,16.083-17.178,25.669c-0.131,0.636-0.158,1.23-0.101,1.782
				c-0.044,0.046-0.089,0.09-0.132,0.137c-1.019,1.103-1.447,2.293-1.455,3.439c-6.085,7.783-10.068,17.461-14.715,26.008
				c-6.709,12.345-15.925,23.339-24.973,34.021c-1.35,1.594-2.705,3.186-4.062,4.775c-2.934-1.849-7.659-1.104-8.559,3.334
				c-0.225,1.107-3.1,2.725-5.135,3.595c-4.219,1.804-8.799,2.898-13.281,3.806c-8.559,1.731-17.273,2.723-25.893,4.105
				c-28.639,4.596-57.423,8.186-86.055,12.853c-20.018,3.263-40.154,5.953-60.439,6.719c-20.225,0.765-41.535-0.26-60.599-7.663
				c-8.252-3.204-15.893-7.827-22.048-14.097C59.308,255.054,60.644,253.103,61.339,251.006z M243.05,237.019
				c2.758-2.544,8.342-2.918,11.438-3.079c3.76-0.196,7.91,0.041,11.804,0.895c-4.788,5.155-12.222,9.003-19.36,9.534
				C247.919,241.398,246.526,237.589,243.05,237.019z M224.706,325.356c-9.172-0.453-18.26-1.335-27.451-1.408
				c-22.092-0.174-42.701-4.667-63.861-10.609c-33.77-9.483-66.271-24.985-89.992-51.142c1.333,0.105,2.705,0.014,4.072-0.24
				c1.924,2.195,3.971,4.28,6.174,6.209c7.041,6.162,15.551,10.565,24.308,13.714c19.687,7.077,41.081,8.219,61.821,7.618
				c20.357-0.589,40.604-3.354,60.688-6.593c28.348-4.57,56.808-8.29,85.174-12.717c10.865-1.695,21.82-3.047,32.564-5.411
				c1.294-0.285,2.691-0.603,4.136-0.971c-13.146,14.627-26.828,28.781-41.48,41.846c-7.448,6.641-15.122,13.023-22.942,19.229
				v-1.852c0-7.089-10.969-6.212-10.969,0.848v0.139C239.787,326.023,232.073,325.72,224.706,325.356z M318.704,304.966
				c-1.168,10.898-6.736,20.888-16.001,27.055c-1.835,1.222-6.323,3.981-8.419,2.161c-2.145-1.865,0.139-8.405,0.928-10.821
				C300.283,313.994,308.641,303.407,318.704,304.966z M124.979,421.554c2.65-0.544,5.303-1.074,7.883-1.977
				c13.474-4.707,24.837-14.117,37.148-21.068c12.932-7.301,25.344-15.855,37.732-24.032c12.513-8.258,24.833-16.806,36.914-25.682
				c14.994-11.017,29.561-22.649,43.482-35.003c-2.481,3.836-4.549,7.859-6.137,11.713c-0.889,2.155-0.408,4.131,0.727,5.581
				c-0.011,3.464,0.757,6.853,2.865,9.757c4.114,5.666,11.562,5.546,17.501,3.303c17.417-6.578,26.506-26.082,26.817-43.615
				c0.031-1.77-1.426-3.837-3.038-4.504c-7.206-2.983-13.919-2.476-19.917,0.179c1.875-1.84,3.752-3.675,5.596-5.546
				c10.771-10.928,20.725-22.896,30.909-34.378c10.124-11.414,19.896-23.145,28.595-35.692c4.337-6.258,7.818-12.982,11.342-19.719
				c3.213-6.146,6.325-12.711,11.156-17.779c0.816-0.856,1.262-1.77,1.424-2.675c0.455-0.138,0.898-0.057,1.294,0.411
				c1.503,1.781,2.237,4.312,2.665,6.555c1.229,6.449-0.537,13.779-1.973,20.043c-1.404,6.127-3.382,12.117-5.52,18.021
				c-2.269,6.265-3.97,12.718-6.175,19.011c-8.407,23.987-20.463,46.696-35.409,67.238c-14.789,20.328-32.5,38.488-52.046,54.262
				c-21.254,17.153-44.59,32.283-69.824,42.824c-19.097,7.978-39.208,13.969-59.574,17.662c-13.859,2.515-32.581,5.449-45.638-2.133
				C124.222,423.416,124.624,422.497,124.979,421.554z M473.269,102.595c-5.54,15.57-18.396,31.423-34.705,35.835
				c-4.076,1.103-4.426,5.225-2.605,7.991c-0.01,0.152-0.021,0.305-0.021,0.463c0.033,30.493,1.652,60.998,0.127,91.478
				c-1.506,30.079-7.258,59.807-18.84,87.673c-17.311,41.65-49.174,74.847-89.631,94.608c-31.02,15.151-65.306,22.425-99.584,24.818
				c-19.027,1.329-38.541,2.158-57.574,0.711c-10.954-0.832-22.055-2.69-32.379-6.476c12.52,1.215,25.902-0.99,37.332-3.256
				c26.264-5.207,52.116-13.717,75.976-25.917c23.379-11.955,45.417-27.78,65.093-45.134c18.818-16.597,35.549-35.379,49.521-56.235
				c8.173-12.198,15.351-24.99,21.479-38.334c6.251-13.609,10.252-27.799,15.33-41.821c4.799-13.255,10.602-29.455,7.877-43.747
				c-1.023-5.369-3.482-11.845-8.638-14.56c-1.05-0.553-2.083-0.906-3.103-1.12c2.949-4.405,7.265-9.067,10.15-12.454
				c2.978-3.495,6.064-6.899,9.228-10.228c1.157-1.218,2.336-2.414,3.536-3.589c0.086-0.084,0.486-0.454,0.778-0.729
				c-0.031,0.014-0.062,0.028-0.095,0.042c0.133-0.116,0.24-0.2,0.331-0.267c0.148-0.144,0.123-0.132-0.332,0.267
				c-0.394,0.161-0.962,0.301-1.694,0.284c-0.12-0.078-0.24-0.156-0.359-0.234c3.521-0.008,6.971-2.934,5.148-7.021
				c-0.007-0.017-0.014-0.032-0.021-0.049c-0.757-1.698-1.885-2.758-3.387-3.278c11.679-15.469,26.986-28.532,32.271-46.98
				c3.43,3.271,7.219,6.14,11.338,8.03c2.898,1.33,5.803,2.655,8.629,4.134C474.334,99.219,473.843,100.98,473.269,102.595z"/>
		</g>
	</g>
</g>
</svg>
