<?xml version="1.0" encoding="utf-8"?>
<!-- Generator: Adobe Illustrator 16.0.3, SVG Export Plug-In . SVG Version: 6.00 Build 0)  -->
<!DOCTYPE svg PUBLIC "-//W3C//DTD SVG 1.1//EN" "http://www.w3.org/Graphics/SVG/1.1/DTD/svg11.dtd">
<svg version="1.1" id="Layer_1" xmlns="http://www.w3.org/2000/svg" xmlns:xlink="http://www.w3.org/1999/xlink" x="0px" y="0px"
	 width="512px" height="512px" viewBox="0 0 512 512" style="enable-background:new 0 0 512 512;" xml:space="preserve">
<style type="text/css">
<![CDATA[
	.st0{fill:#127274;}
	.st1{fill:#14B6B9;}
	.st2{fill:#1E4384;}
	.st3{fill:#EF4754;}
	.st4{fill:#EF4823;}
	.st5{fill:#BCBCBC;}
	.st6{fill:#F6851F;}
	.st7{fill:#C56528;}
	.st8{fill:#FCBF95;}
	.st9{fill:#FEBF10;}
	.st10{fill:none;}
	.st11{fill:#010101;}
	.st12{fill:#3AB37C;}
	.st13{fill:#D6E5E5;}
	.st14{fill:#71C598;}
	.st15{fill:#74CCCF;}
]]>
</style>
<g>
	<g>
		<g>
			<path class="st7" d="M248.046,60.045c-2.261,0.791-4.468,1.668-6.632,2.615c-4.879,7.422-9.271,15.101-11.247,23.652
				c-1.778,7.702-1.692,15.664-0.708,23.664c8.819-7.033,18.002-13.587,27.414-19.81c0.435-4.336,1.316-8.677,2.815-13.028
				c3.255-9.441,8.477-17.637,14.562-25.246C265.551,54.695,256.709,57.016,248.046,60.045z"/>
		</g>
	</g>
	<g>
		<g>
			<path class="st7" d="M261.448,132.824c-1.773-9.795-3.941-19.541-4.667-29.288c-8.688,5.874-17.13,12.096-25.208,18.832
				c1.782,8.562,4.033,17.033,5.57,25.142c8.019-4.873,16.281-9.281,24.707-13.364C261.676,133.75,261.537,133.314,261.448,132.824z
				"/>
		</g>
	</g>
	<g>
		<g>
			<path class="st7" d="M252.608,45.801c-0.327,0.537-0.667,1.073-1.005,1.608c2.021-0.616,4.05-1.216,6.079-1.81
				C255.991,45.645,254.298,45.707,252.608,45.801z"/>
		</g>
	</g>
	<g>
		<g>
			<path class="st7" d="M219.599,83.252c0.976-3.776,2.329-7.369,3.925-10.845c-3.01,1.913-5.984,3.908-8.954,5.949
				c-7.743,5.321-15.326,10.929-22.668,16.845c-0.405,5.295-0.427,10.617-0.228,15.777c0.403,10.543,1.697,20.966,3.366,31.338
				c7.163-7.771,14.565-15.285,22.367-22.211c0.861-0.766,1.735-1.516,2.605-2.27c-0.292-1.778-0.565-3.56-0.806-5.348
				C217.904,102.754,217.111,92.879,219.599,83.252z"/>
		</g>
	</g>
	<g>
		<g>
			<path class="st7" d="M238.17,47.213c-9.021,1.289-18.038,3.16-26.913,5.614c-8.833,6.858-13.931,16.19-16.72,26.427
				c3.944-2.969,7.945-5.857,11.994-8.666c8.952-6.209,18.002-12.348,27.889-16.901c1.443-2.185,2.9-4.362,4.336-6.55
				C238.56,47.164,238.365,47.185,238.17,47.213z"/>
		</g>
	</g>
	<g>
		<g>
			<path class="st7" d="M190.508,178.791c-0.726-3.986-1.482-7.977-2.238-11.971c-6.429,7.09-12.801,14.238-18.784,21.708
				c-5.702,7.119-11.848,15.104-16.735,23.683c0.947,2.305,2.013,4.555,3.268,6.691c1.523-0.039,2.998,0.52,3.939,1.806
				c2.179-3.009,4.354-6.013,6.605-8.935c8.017-10.405,16.34-20.67,25.724-29.889C191.424,181.229,190.769,180.219,190.508,178.791z
				"/>
		</g>
	</g>
	<g>
		<g>
			<path class="st9" d="M359.785,452.88c-2.691-8.006-9.861-9.965-17.585-8.319c-5.46,1.164-8.349-5.197-5.934-8.67
				c-0.746-2.203-0.199-4.744,2.499-6.13c5.93-3.046-7.157-14.356-10.871-15.343c-12.445-3.314-24.942,3.109-37.025,5.848
				c-2.208,2.621-6.883,3.371-9.165-0.484c-3.507-5.924-7.743-12.296-13.91-15.743c-7.072-3.955-14.329-2.479-21.241,1.146
				c-2.231,1.171-4.352,0.714-5.881-0.503c-2.593-0.246-5.2-2.028-5.553-5.293c-1.314-12.184-7.146-24.089-19.195-28.689
				c-10.678-4.078-22.275-3.982-33.459-2.32c-2.586,4.702-9.072,1.695-9.672-3.014c-0.597-1.428-0.677-3.037-0.117-4.375
				c-0.029-0.048-0.051-0.091-0.084-0.141c-0.739-1.102-1.825-2.175-2.901-2.978c-4.027-3.005-8.512-5.365-13.104-7.385
				c-8.031-3.532-16.81-6.693-25.489-8.189c-2.669-0.46-8.529,0.853-11.947,1.64c-5.282,1.215-10.575,2.758-15.472,5.115
				c-6.773,3.26-17.137,9.13-15.754,18.18c0.055,0.356,0.071,0.7,0.066,1.034c5.54,4.64,11.056,9.317,16.752,13.763
				c0.346-0.139,0.723-0.25,1.138-0.327c14.272-2.647,28.263-6.58,42.534-9.228c6.944-1.288,9.761,9.351,2.789,10.644
				c-11.606,2.152-23.03,5.146-34.567,7.617c11.613,8.196,23.264,16.594,35.497,23.921c1.441-0.328,2.941-0.123,4.107,0.682
				c0.892-1.193,2.249-2.076,4.074-2.25c14.22-1.352,27.437-7.719,40.423-13.207c6.468-2.733,11.95,6.813,5.431,9.568
				c-12.667,5.354-25.188,11.025-38.663,13.576c1.812,0.884,3.635,1.746,5.481,2.559c16.598,7.313,34.069,14.507,52.002,19.903
				c9.225-5.949,18.988-11.001,28.185-16.993c5.963-3.886,11.339,5.717,5.431,9.567c-6.185,4.031-12.626,7.636-18.989,11.372
				c16.128,3.819,32.532,5.857,48.928,4.924c-1.547-1.993-1.951-4.922,0.254-7.284c6.703-7.185,18.59-9.295,23.021-18.468
				c3.083-6.384,12.491-0.674,9.425,5.674c-4.842,10.025-15.702,12.304-23.265,19.19c0.648-0.085,1.298-0.159,1.946-0.253
				c0.875-1.328,2.357-2.251,4.451-2.196c1.605,0.042,3.119,0.634,4.694,0.675c6.083,0.159,7.531,9.522,1.323,10.821
				c-0.738,0.155-1.478,0.278-2.216,0.421c4.633,3.512,10.112,6.182,14.406,10.012c5.304,4.73-2.609,12.375-7.877,7.678
				c-6.067-5.41-14.265-8.316-19.442-14.771c-0.254-0.317-0.474-0.651-0.669-0.995c-21.327,1.945-42.467-0.954-63.132-6.416
				c3.445,5.326,7.453,10.398,12.341,13.979c5.669,4.152,0.063,13.627-5.673,9.426c-9.385-6.874-16.201-17.322-21.785-27.368
				c-0.106-0.19-0.199-0.38-0.281-0.569c-15.646-5.057-30.973-11.273-45.851-17.628c-3.338-1.426-6.609-2.974-9.838-4.603
				c0.267,1.842,0.516,3.688,0.728,5.537c0.572,5.008,1.477,10.889-0.293,15.765c-2.402,6.624-12.993,3.626-10.568-3.061
				c1.366-3.766,0.386-8.849-0.124-12.706c-0.54-4.085-1.205-8.148-1.917-12.205c-13.635-8.03-26.541-17.361-39.475-26.43
				c-1.332-0.935-2.646-1.892-3.953-2.859c0.472,7.503-0.437,15.645-5.886,20.318c-5.359,4.6-13.071-3.248-7.677-7.877
				c4.224-3.625,2.711-13.316,1.887-18.143c-0.206-1.199-0.053-2.271,0.338-3.196c-3.343-2.739-6.653-5.522-9.971-8.293
				c-0.045,0.006-0.086,0.017-0.131,0.022c-19.463,2.353-32.402,23.215-25.15,41.647c6.793,17.27,27.673,20.738,43.835,17.082
				c0.257-0.438,0.513-0.879,0.775-1.312c3.677-6.059,13.114-0.405,9.426,5.673c-4.868,8.021-10.239,18.574-6.892,28.165
				c3.066,8.784,12.448,14.045,20.416,17.894c8.242,3.981,17.485,7.214,26.612,8.307c6.892,0.825,15.704,1.498,21.168-3.673
				c1.644-1.556,3.545-1.811,5.206-1.281c0.545-6.197,10.637-5.746,10.978,1.002c0.736,14.598,23.03,15.868,33.604,15.883
				c13.659,0.02,30.858-1.18,42.692-8.604c1.886-1.184,3.709-1.057,5.141-0.211c1.105-2.061,3.326-3.608,6.217-3.103
				c15.123,2.649,31.155,2.751,46.094-1.071c11.491-2.939,26.84-7.932,33.172-18.899
				C360.548,469.264,362.339,460.479,359.785,452.88z"/>
		</g>
	</g>
	<g>
		<g>
			<path class="st7" d="M103.342,199.499c-1.369-10.755-2.389-21.591-3.276-32.355c-0.259-3.136-0.412-6.243-0.464-9.331
				c-6.874,24.229-7.564,50.065,0.449,73.575C99.875,220.657,100.874,209.949,103.342,199.499z"/>
		</g>
	</g>
	<g>
		<g>
			<path class="st7" d="M370.625,73.756c-1.229,1.293-3.025,2.084-5.198,1.72c1.392,0.233,1.606-0.009,0.216,0.413
				c-1.002,0.303-1.994,0.633-2.972,1.01c-2.17,0.836-4.299,1.777-6.409,2.753c-5.23,2.421-10.408,4.978-15.463,7.751
				c-10.953,6.011-18.594,14.895-26.283,24.248c0.032,0.197,0.062,0.398,0.094,0.596c11.412-4.287,22.844-8.526,34.155-13.07
				c6.465-2.598,13.254-4.979,19.24-8.597c2.933-1.772,7.505-4.387,8.43-8.017C377.352,78.971,373.551,75.755,370.625,73.756z"/>
		</g>
	</g>
	<g>
		<g>
			<path class="st7" d="M303.061,108.361c-1.217-11.887-0.33-24.28,3.837-34.961c-13.24,7.415-26.427,14.922-39.211,23.01
				c-0.199,9.972,1.81,19.792,3.726,29.957c0.024,0.105,0.054,0.205,0.073,0.315l0.495,2.736
				c9.999-4.494,20.188-8.593,30.433-12.535c-1.645-2.005-2.194-5.083-0.099-7.609C302.565,108.973,302.812,108.664,303.061,108.361
				z"/>
		</g>
	</g>
	<g>
		<g>
			<path class="st7" d="M352.257,63.695c-5.085-2.287-10.308-4.287-15.609-6.063c-0.504,0.44-1.105,0.815-1.825,1.088
				c-15.439,5.835-20.844,21.395-21.365,36.894c2.156-2.49,4.4-4.897,6.822-7.127c5.12-4.712,10.782-8.388,16.906-11.63
				c5.799-3.07,11.687-6.037,17.734-8.59c1.176-0.495,2.375-1.032,3.596-1.536C356.448,65.67,354.366,64.643,352.257,63.695z"/>
		</g>
	</g>
	<g>
		<g>
			<path class="st7" d="M312.856,51.209c-6.715-1.423-13.503-2.627-20.333-3.561c-9.095,9.561-18.263,19.873-22.266,32.551
				c-0.182,0.573-0.329,1.144-0.489,1.715c5.8-3.597,11.659-7.097,17.555-10.526c10.964-6.379,22.312-12.169,33.406-18.354
				C318.111,52.384,315.486,51.768,312.856,51.209z"/>
		</g>
	</g>
	<g>
		<g>
			<path class="st7" d="M226.616,150.912c-1.272-6.863-2.803-13.675-4.221-20.507c-2.486,2.286-4.935,4.624-7.333,7.034
				c-6.1,6.131-11.799,12.64-17.541,19.107c1.076,5.831,2.195,11.658,3.27,17.491c8.517-7.432,17.679-14.307,27.021-20.569
				C227.242,152.838,226.816,151.993,226.616,150.912z"/>
		</g>
	</g>
	<g>
		<g>
			<path class="st7" d="M180.584,107.102c-0.007-0.78-0.004-1.566,0.001-2.353c-8.089,7.147-15.805,14.704-23.018,22.706
				c-5.435,6.03-10.616,12.305-15.347,18.903c0.019,4.843,0.271,9.711,0.777,14.656c1.196,11.692,2.305,23.46,4.894,34.946
				c0.183,0.812,0.375,1.627,0.569,2.442c6.197-9.394,13.459-18.167,20.589-26.444c5.478-6.358,10.986-12.814,16.604-19.199
				C182.947,137.652,180.725,122.463,180.584,107.102z"/>
		</g>
	</g>
	<g>
		<g>
			<path class="st8" d="M409.726,234.649c-3.01-8.897-6.44-17.712-11.127-25.878c-6.495-11.317-14.675-21.312-22.981-30.158
				c-8.177-8.707-16.649-17.227-25.73-24.996c-3.849-3.292-7.793-6.698-12.187-9.252c-0.845-0.491-1.702-0.97-2.588-1.386
				c-4.317,2.959-8.823,5.646-13.006,8.801c-3.062,2.31-9.325,6.324-8.519,10.947c0.953,5.468,7.043,10.216,10.957,13.603
				c4.529,3.916,9.23,7.613,13.604,11.705c24.375,22.809,50.132,44.706,69.892,71.811c3.322-1.738,6.807-3.166,10.131-4.891
				C414.416,248.666,412.062,241.553,409.726,234.649z"/>
		</g>
	</g>
	<g>
		<g>
			<path class="st7" d="M146.81,224.844c-1.915,5.271-3.125,10.699-3.308,16.234c2.932-2.93,5.639-6.068,8.217-9.326
				C149.896,229.561,148.273,227.248,146.81,224.844z"/>
		</g>
	</g>
	<g>
		<g>
			<path class="st6" d="M442.543,257.186c-3.056-15.324-3.276-31.445-8.182-46.365c-4.355-13.247-11.152-25.873-19.297-37.167
				c-16.131-22.368-37.018-40.72-55.696-60.854c-1.606-1.732-1.8-3.738-1.171-5.455c-4.45,1.78-8.953,3.414-13.333,5.117
				c-13.701,5.332-27.524,10.344-41.233,15.654c-27.312,10.58-54.339,22.667-77.938,40.27
				c-11.539,8.607-22.607,17.586-32.351,28.232c-9.61,10.5-18.222,21.811-26.681,33.242c-6.549,8.85-13.038,18.011-21.792,24.746
				c29.675,38.332,67.708,70.551,109.354,95.169c19.995,11.819,41.485,19.984,64.741,22.292c23.15,2.298,46.701,0.031,68.734-7.611
				c9.744-3.381,20.023-7.673,29.484-13.187c-2.906-1.965-5.896-3.554-8.748-4.631c-6.581-2.485-3.592-13.081,3.061-10.569
				c5.146,1.943,10.512,4.996,15.439,8.822c5.32-3.931,10.154-8.361,14.188-13.368C458.963,309.373,447.473,281.908,442.543,257.186
				z M429.09,261.225c-6.093,4.289-13.419,6.219-19.499,10.5c-2.471,1.74-5.957,0.943-7.635-1.484
				c-11.204-16.212-24.758-30.534-38.974-44.121c-12.646-12.085-25.31-24.547-38.778-35.711
				c-8.231-6.822-25.489-18.977-21.274-31.978c3.3-10.179,12.778-16.022,21.642-21.702c0.134-0.33,0.303-0.665,0.521-1.005
				c2.146-3.329,4.956-4.524,7.989-4.464c1.621-0.52,3.178-0.1,4.393,0.836c4.812,1.624,9.666,5.25,12.997,7.814
				c10.592,8.152,20.204,17.641,29.426,27.291c9.249,9.68,18.385,19.799,25.365,31.266c5.438,8.932,9.991,18.479,13.416,28.363
				c3.188,9.202,5.736,19.008,11.896,26.76C432.467,255.972,431.395,259.603,429.09,261.225z"/>
		</g>
	</g>
	<g>
		<g>
			<path class="st7" d="M159.436,75.822c1.359,1.172,2.014,3.01,1.099,5.276c-2.513,6.214-6.149,11.646-9.42,17.458
				c-3.693,6.562-5.063,13.773-6.448,21.129c-0.454,2.405-0.819,4.795-1.146,7.178c1.039-1.233,2.089-2.457,3.152-3.668
				c10.652-12.132,22.374-23.322,34.82-33.635c1.273-10.54,4.034-20.91,9.264-29.863C179.784,64.056,169.236,69.404,159.436,75.822z
				"/>
		</g>
	</g>
	<g>
		<g>
			<path class="st7" d="M140.682,211.857c-5.665-15.752-6.911-33.671-8.545-49.645c-0.008-0.082-0.016-0.164-0.024-0.247
				c-5.046,8.13-10.001,16.2-13.437,25.271c-1.821,4.808-3.281,9.672-4.436,14.575c2.023,15.507,5.93,30.677,15.986,42.265
				c1.728,1.99,1.719,4.311,0.787,6.159c0.933-0.432,1.848-0.917,2.752-1.432c-0.638-0.814-1.072-1.846-1.17-3.098
				c-0.423-5.435,0.131-10.979,1.464-16.266C135.598,223.346,137.89,217.498,140.682,211.857z"/>
		</g>
	</g>
	<g>
		<g>
			<path class="st7" d="M140.529,90.438c-4.869,4.433-9.442,9.204-13.65,14.336c-0.157,1.504-0.949,2.96-2.606,3.972
				c-0.392,0.239-0.765,0.512-1.129,0.797c-2.011,2.698-3.938,5.479-5.751,8.359c-0.094,0.15-0.182,0.303-0.275,0.453
				c-1.998,4.85-3.138,10.336-4.058,14.436c-2.851,12.711-2.965,24.992-1.68,37.926c0.167,1.676,0.319,3.378,0.464,5.1
				c3.829-7.822,8.332-15.143,12.882-22.767c2.064-3.46,4.258-6.84,6.545-10.157c0.134-8.115,0.928-16.189,2.477-24.408
				c1.44-7.647,2.636-15.73,6.332-22.665c0.905-1.699,1.891-3.362,2.895-5.019C142.16,90.658,141.346,90.537,140.529,90.438z"/>
		</g>
	</g>
	<g>
		<g>
			<path class="st7" d="M124.844,64.377c-19.935-1.865-40.48,3.15-59.432,8.895c-8.381,2.541-17.247,4.226-25.339,7.606
				c-7.464,3.118-11.702,8.335-9.583,16.771c1.204,4.799,3.125,10.713,8.343,12.48c3.366,1.141,7.54-0.34,10.631-1.639
				c9.193-3.865,17.095-10.156,26.083-14.429c10.465-4.974,22.583-8.31,33.793-11.126c8.843-2.221,17.992-4.006,27.114-3.795
				c1-0.846,2.007-1.682,3.028-2.493c2.176-1.729,4.4-3.403,6.664-5.034C140.154,67.01,132.259,65.07,124.844,64.377z"/>
		</g>
	</g>
	<g>
		<g>
			<path class="st7" d="M122.35,251.755c-4.839-5.576-8.509-11.763-11.279-18.351c0.183,6.865,0.898,13.759,2.096,20.65
				c3.549-0.078,7.022-0.457,10.375-1.251C123.129,252.531,122.729,252.19,122.35,251.755z"/>
		</g>
	</g>
	<g>
		<g>
			<path class="st11" d="M458.314,323.734c4.726-11.023,4.031-23.059,2.396-34.658c-2.178-15.445-7.141-30.342-9.423-45.785
				c-2.186-14.807-3.503-29.503-9.381-43.434c-5.381-12.752-11.867-24.48-20.172-35.579c-16.111-21.532-36.26-39.507-54.489-59.157
				c-0.431-0.465-0.885-0.821-1.353-1.092c4.886-2.289,9.572-4.926,13.795-8.237c7.241-5.679,10.277-14.806,5.265-22.968
				c-2.977-4.845-8.036-8.262-12.813-11.108c-5.937-3.538-12.124-6.554-18.45-9.319c-17.69-7.732-36.789-12.381-56.03-15.104
				c-1.468-3.131-5.629-5.036-8.708-1.813c-0.204,0.213-0.406,0.427-0.608,0.641c-4.424-0.49-8.845-0.896-13.246-1.214
				c-41.127-2.973-84.513,8.21-119.641,30.427c-13.607-12.414-33.629-13.35-51.412-11.554c-19.394,1.959-37.779,8.111-56.484,13.167
				c-8.242,2.229-16.607,4.84-22.837,10.963c-7.044,6.922-6.371,17.42-3.874,26.131c2.904,10.129,10.908,17.453,21.617,17.376
				c9.613-0.07,18.988-6.465,26.879-11.254c4.373-2.654,8.709-5.464,13.506-7.297c6.339-2.423,12.913-4.426,19.383-6.466
				c7.033-2.217,14.477-4.387,21.995-5.523c-3.536,3.83-6.896,7.861-10.041,12.09c-2.002,2.103-3.646,4.56-5.037,7.193
				c-28.701,43.54-36.806,103.118-8.815,147.477c-0.628,3.033,1.054,6.809,5.081,7.17c0.253,0.022,0.504,0.037,0.757,0.057
				c1.389,0.649,2.946,0.661,4.336,0.23c8.142,0.2,16.081-0.953,23.527-4.112c0.812,1.463,2.215,2.181,3.724,2.284
				c16.677,21.342,35.95,40.515,56.794,57.798c21.67,17.969,45.461,35.262,70.972,47.372c47.308,22.458,102.37,19.462,148.749-3.511
				c3.914-1.938,7.777-4.058,11.526-6.36c4.351,4.594,7.716,9.937,8.874,15.33c1.487,6.935,12.131,4.138,10.644-2.788
				c-1.448-6.746-5.292-13.202-10.353-18.796C444.89,344.761,453.292,335.452,458.314,323.734z M100.051,231.388
				c-8.014-23.51-7.323-49.346-0.449-73.575c0.052,3.088,0.205,6.195,0.464,9.331c0.888,10.765,1.907,21.601,3.276,32.355
				C100.874,209.949,99.875,220.657,100.051,231.388z M365.427,75.476c2.173,0.364,3.97-0.427,5.198-1.72
				c2.926,1.999,6.727,5.215,5.81,8.807c-0.925,3.63-5.497,6.244-8.43,8.017c-5.986,3.618-12.775,5.999-19.24,8.597
				c-11.312,4.544-22.743,8.783-34.155,13.07c-0.032-0.197-0.062-0.398-0.094-0.596c7.689-9.354,15.33-18.237,26.283-24.248
				c5.055-2.773,10.232-5.33,15.463-7.751c2.11-0.976,4.239-1.917,6.409-2.753c0.978-0.377,1.97-0.707,2.972-1.01
				C367.033,75.467,366.818,75.709,365.427,75.476z M334.822,58.72c0.72-0.272,1.321-0.647,1.825-1.088
				c5.302,1.776,10.524,3.776,15.609,6.063c2.109,0.947,4.191,1.975,6.259,3.035c-1.221,0.504-2.42,1.041-3.596,1.536
				c-6.048,2.553-11.936,5.52-17.734,8.59c-6.124,3.242-11.786,6.918-16.906,11.63c-2.422,2.229-4.666,4.637-6.822,7.127
				C313.979,80.114,319.383,64.555,334.822,58.72z M292.523,47.648c6.83,0.934,13.618,2.138,20.333,3.561
				c2.63,0.559,5.255,1.175,7.873,1.824c-11.095,6.186-22.442,11.976-33.406,18.354c-5.896,3.43-11.755,6.93-17.555,10.526
				c0.16-0.571,0.308-1.142,0.489-1.715C274.261,67.521,283.429,57.209,292.523,47.648z M303.061,108.361
				c-0.249,0.303-0.495,0.611-0.746,0.913c-2.096,2.526-1.546,5.604,0.099,7.609c-10.245,3.942-20.434,8.041-30.433,12.535
				l-0.495-2.736c-0.02-0.11-0.049-0.21-0.073-0.315c-1.916-10.165-3.925-19.985-3.726-29.957
				c12.784-8.088,25.971-15.595,39.211-23.01C302.73,84.081,301.844,96.475,303.061,108.361z M252.608,45.801
				c1.689-0.094,3.383-0.156,5.074-0.201c-2.029,0.594-4.058,1.193-6.079,1.81C251.941,46.874,252.281,46.338,252.608,45.801z
				 M248.046,60.045c8.663-3.029,17.505-5.35,26.205-8.152c-6.086,7.609-11.308,15.805-14.562,25.246
				c-1.499,4.352-2.381,8.692-2.815,13.028c-9.412,6.223-18.595,12.776-27.414,19.81c-0.984-8-1.07-15.962,0.708-23.664
				c1.976-8.552,6.368-16.23,11.247-23.652C243.578,61.713,245.785,60.836,248.046,60.045z M261.851,134.146
				c-8.426,4.083-16.688,8.491-24.707,13.364c-1.537-8.108-3.788-16.58-5.57-25.142c8.078-6.736,16.521-12.958,25.208-18.832
				c0.726,9.747,2.894,19.493,4.667,29.288C261.537,133.314,261.676,133.75,261.851,134.146z M211.257,52.827
				c8.875-2.454,17.893-4.325,26.913-5.614c0.195-0.028,0.39-0.049,0.586-0.076c-1.436,2.188-2.893,4.365-4.336,6.55
				c-9.887,4.554-18.937,10.692-27.889,16.901c-4.049,2.809-8.05,5.697-11.994,8.666C197.326,69.018,202.424,59.686,211.257,52.827z
				 M227.812,153.469c-9.343,6.263-18.505,13.138-27.021,20.569c-1.074-5.833-2.193-11.66-3.27-17.491
				c5.742-6.468,11.441-12.977,17.541-19.107c2.398-2.41,4.847-4.748,7.333-7.034c1.418,6.832,2.948,13.644,4.221,20.507
				C226.816,151.993,227.242,152.838,227.812,153.469z M191.901,95.201c7.342-5.916,14.925-11.523,22.668-16.845
				c2.97-2.041,5.944-4.036,8.954-5.949c-1.596,3.476-2.949,7.068-3.925,10.845c-2.487,9.627-1.694,19.502-0.392,29.236
				c0.24,1.788,0.514,3.569,0.806,5.348c-0.87,0.754-1.744,1.504-2.605,2.27c-7.802,6.926-15.204,14.439-22.367,22.211
				c-1.669-10.372-2.963-20.795-3.366-31.338C191.475,105.818,191.496,100.496,191.901,95.201z M192.286,181.885
				c-9.384,9.219-17.707,19.483-25.724,29.889c-2.251,2.922-4.427,5.926-6.605,8.935c-0.941-1.286-2.416-1.845-3.939-1.806
				c-1.255-2.137-2.32-4.387-3.268-6.691c4.888-8.578,11.033-16.563,16.735-23.683c5.983-7.47,12.355-14.618,18.784-21.708
				c0.756,3.994,1.513,7.984,2.238,11.971C190.769,180.219,191.424,181.229,192.286,181.885z M160.534,81.099
				c0.915-2.267,0.261-4.104-1.099-5.276c9.801-6.418,20.349-11.767,31.321-16.125c-5.229,8.953-7.99,19.323-9.264,29.863
				c-12.446,10.312-24.168,21.503-34.82,33.635c-1.063,1.211-2.113,2.435-3.152,3.668c0.326-2.383,0.691-4.772,1.146-7.178
				c1.385-7.355,2.755-14.566,6.448-21.129C154.385,92.744,158.021,87.312,160.534,81.099z M109.34,82.936
				c-11.21,2.816-23.328,6.152-33.793,11.126c-8.988,4.272-16.89,10.563-26.083,14.429c-3.091,1.299-7.265,2.779-10.631,1.639
				c-5.218-1.768-7.139-7.682-8.343-12.48c-2.119-8.436,2.119-13.652,9.583-16.771c8.092-3.381,16.958-5.065,25.339-7.606
				c18.951-5.744,39.497-10.76,59.432-8.895c7.415,0.693,15.311,2.633,21.303,7.236c-2.264,1.631-4.488,3.306-6.664,5.034
				c-1.021,0.812-2.028,1.647-3.028,2.493C127.332,78.93,118.183,80.715,109.34,82.936z M113.06,132.791
				c0.92-4.1,2.06-9.586,4.058-14.436c0.094-0.15,0.182-0.303,0.275-0.453c1.813-2.881,3.74-5.661,5.751-8.359
				c0.364-0.285,0.737-0.558,1.129-0.797c1.657-1.012,2.449-2.468,2.606-3.972c4.208-5.132,8.781-9.903,13.65-14.336
				c0.816,0.099,1.631,0.22,2.444,0.362c-1.004,1.656-1.989,3.319-2.895,5.019c-3.696,6.935-4.892,15.018-6.332,22.665
				c-1.549,8.219-2.343,16.293-2.477,24.408c-2.287,3.317-4.48,6.697-6.545,10.157c-4.55,7.624-9.053,14.944-12.882,22.767
				c-0.145-1.722-0.297-3.424-0.464-5.1C110.095,157.783,110.209,145.502,113.06,132.791z M113.166,254.055
				c-1.197-6.892-1.913-13.785-2.096-20.65c2.771,6.588,6.44,12.774,11.279,18.351c0.379,0.436,0.779,0.776,1.191,1.049
				C120.188,253.598,116.715,253.977,113.166,254.055z M134.06,229.441c-1.333,5.287-1.887,10.831-1.464,16.266
				c0.098,1.252,0.532,2.283,1.17,3.098c-0.904,0.515-1.819,1-2.752,1.432c0.932-1.849,0.94-4.169-0.787-6.159
				c-10.057-11.588-13.963-26.758-15.986-42.265c1.154-4.903,2.614-9.768,4.436-14.575c3.436-9.071,8.391-17.142,13.437-25.271
				c0.009,0.083,0.017,0.165,0.024,0.247c1.634,15.974,2.88,33.893,8.545,49.645C137.89,217.498,135.598,223.346,134.06,229.441z
				 M142.221,146.358c4.73-6.599,9.912-12.873,15.347-18.903c7.213-8.002,14.929-15.559,23.018-22.706
				c-0.005,0.786-0.008,1.572-0.001,2.353c0.141,15.361,2.363,30.551,5.07,45.658c-5.618,6.385-11.127,12.841-16.604,19.199
				c-7.13,8.277-14.392,17.051-20.589,26.444c-0.194-0.815-0.387-1.631-0.569-2.442c-2.589-11.486-3.697-23.254-4.894-34.946
				C142.492,156.069,142.239,151.201,142.221,146.358z M146.81,224.844c1.464,2.404,3.087,4.717,4.909,6.908
				c-2.578,3.258-5.285,6.396-8.217,9.326C143.685,235.543,144.895,230.115,146.81,224.844z M426.936,344.891
				c-4.928-3.826-10.294-6.879-15.439-8.822c-6.652-2.512-9.642,8.084-3.061,10.569c2.852,1.077,5.842,2.666,8.748,4.631
				c-9.461,5.514-19.74,9.806-29.484,13.187c-22.033,7.643-45.584,9.909-68.734,7.611c-23.256-2.308-44.746-10.473-64.741-22.292
				c-41.646-24.618-79.679-56.837-109.354-95.169c8.754-6.735,15.243-15.896,21.792-24.746c8.459-11.432,17.07-22.742,26.681-33.242
				c9.743-10.646,20.812-19.625,32.351-28.232c23.599-17.603,50.625-29.689,77.938-40.27c13.709-5.311,27.532-10.322,41.233-15.654
				c4.38-1.703,8.883-3.337,13.333-5.117c-0.629,1.717-0.436,3.723,1.171,5.455c18.679,20.135,39.565,38.486,55.696,60.854
				c8.145,11.294,14.941,23.92,19.297,37.167c4.905,14.92,5.126,31.041,8.182,46.365c4.93,24.723,16.42,52.188-1.42,74.337
				C437.09,336.529,432.256,340.96,426.936,344.891z"/>
		</g>
	</g>
	<g>
		<g>
			<path class="st11" d="M368.661,445.674c-3.604-7.789-10.654-11.541-18.364-12.374c3.606-8.259-4.309-19.713-11.166-25.153
				c-15.024-11.919-34.482-2.232-50.856,1.438c-4.373-6.513-9.715-12.467-16.795-16.027c-8.577-4.312-17.776-3.379-26.241,0.135
				c-2.678-13.74-9.631-25.797-22.972-32.146c-12.18-5.797-26.084-6.011-39.324-4.284c-2.652-6.15-9.832-10.759-15.86-13.9
				c-10.156-5.292-21.645-9.514-32.926-11.632c-5.417-1.018-11.428,0.251-16.758,1.339c-6.963,1.422-13.749,3.816-20.146,6.895
				c-8.86,4.265-16.786,11.031-19.373,20.024c-6.377-5.054-12.958-9.839-20.063-13.936c-6.151-3.547-11.817,5.884-5.673,9.427
				c7.425,4.281,14.309,9.299,20.99,14.598c-19.958,7.436-32.335,28.39-26.403,50.455c5.948,22.13,28.677,30.494,49.527,28.721
				c-2.569,7.057-3.679,14.508-1.928,22.115c2.812,12.213,14.292,19.86,24.719,25.252c10.357,5.355,21.64,8.795,33.168,10.391
				c9.774,1.354,20.867,0.461,28.5-6.371c5.86,13.212,23.233,17.295,37.331,18.148c10.307,0.623,20.776-0.396,30.909-2.281
				c7.611-1.414,15.848-3.44,22.479-7.6c1.073-0.674,1.774-1.537,2.179-2.476c0.218,0.064,0.445,0.12,0.688,0.163
				c18.914,3.313,38.293,3.103,56.808-2.332c14.365-4.217,29.995-11.698,36.687-25.861
				C372.623,468.178,373.461,456.045,368.661,445.674z M356.627,476.054c-6.332,10.968-21.681,15.96-33.172,18.899
				c-14.938,3.822-30.971,3.721-46.094,1.071c-2.891-0.506-5.111,1.042-6.217,3.103c-1.432-0.846-3.255-0.973-5.141,0.211
				c-11.834,7.424-29.033,8.623-42.692,8.604c-10.573-0.015-32.867-1.285-33.604-15.883c-0.341-6.748-10.433-7.199-10.978-1.002
				c-1.661-0.529-3.562-0.274-5.206,1.281c-5.464,5.171-14.276,4.498-21.168,3.673c-9.127-1.093-18.37-4.325-26.612-8.307
				c-7.968-3.849-17.35-9.109-20.416-17.894c-3.348-9.591,2.023-20.145,6.892-28.165c3.688-6.078-5.749-11.731-9.426-5.673
				c-0.263,0.433-0.519,0.873-0.775,1.312c-16.162,3.656-37.042,0.188-43.835-17.082c-7.252-18.433,5.688-39.295,25.15-41.647
				c0.045-0.006,0.086-0.017,0.131-0.022c3.317,2.771,6.628,5.554,9.971,8.293c-0.391,0.925-0.544,1.997-0.338,3.196
				c0.824,4.826,2.337,14.518-1.887,18.143c-5.395,4.629,2.317,12.477,7.677,7.877c5.449-4.674,6.357-12.815,5.886-20.318
				c1.307,0.968,2.621,1.925,3.953,2.859c12.934,9.068,25.84,18.399,39.475,26.43c0.712,4.057,1.377,8.12,1.917,12.205
				c0.51,3.857,1.49,8.94,0.124,12.706c-2.425,6.687,8.166,9.685,10.568,3.061c1.77-4.876,0.865-10.757,0.293-15.765
				c-0.212-1.85-0.461-3.695-0.728-5.537c3.229,1.629,6.5,3.177,9.838,4.603c14.878,6.354,30.205,12.571,45.851,17.628
				c0.082,0.189,0.175,0.379,0.281,0.569c5.584,10.046,12.4,20.494,21.785,27.368c5.736,4.201,11.342-5.273,5.673-9.426
				c-4.888-3.58-8.896-8.652-12.341-13.979c20.665,5.462,41.805,8.361,63.132,6.416c0.195,0.344,0.415,0.678,0.669,0.995
				c5.178,6.454,13.375,9.36,19.442,14.771c5.268,4.697,13.181-2.947,7.877-7.678c-4.294-3.83-9.773-6.5-14.406-10.012
				c0.738-0.143,1.478-0.266,2.216-0.421c6.208-1.299,4.76-10.662-1.323-10.821c-1.575-0.041-3.089-0.633-4.694-0.675
				c-2.094-0.055-3.576,0.868-4.451,2.196c-0.648,0.094-1.298,0.168-1.946,0.253c7.562-6.887,18.423-9.165,23.265-19.19
				c3.066-6.348-6.342-12.058-9.425-5.674c-4.431,9.173-16.317,11.283-23.021,18.468c-2.205,2.362-1.801,5.291-0.254,7.284
				c-16.396,0.934-32.8-1.104-48.928-4.924c6.363-3.736,12.805-7.341,18.989-11.372c5.908-3.851,0.532-13.453-5.431-9.567
				c-9.196,5.992-18.96,11.044-28.185,16.993c-17.933-5.396-35.404-12.59-52.002-19.903c-1.847-0.812-3.669-1.675-5.481-2.559
				c13.475-2.551,25.996-8.223,38.663-13.576c6.52-2.755,1.037-12.302-5.431-9.568c-12.986,5.488-26.203,11.855-40.423,13.207
				c-1.825,0.174-3.183,1.057-4.074,2.25c-1.166-0.805-2.666-1.01-4.107-0.682c-12.233-7.327-23.884-15.725-35.497-23.921
				c11.537-2.471,22.961-5.465,34.567-7.617c6.972-1.293,4.155-11.932-2.789-10.644c-14.271,2.647-28.262,6.58-42.534,9.228
				c-0.415,0.077-0.792,0.188-1.138,0.327c-5.696-4.445-11.212-9.123-16.752-13.763c0.005-0.334-0.012-0.678-0.066-1.034
				c-1.383-9.05,8.98-14.92,15.754-18.18c4.896-2.357,10.189-3.9,15.472-5.115c3.418-0.787,9.278-2.1,11.947-1.64
				c8.68,1.496,17.458,4.657,25.489,8.189c4.592,2.02,9.076,4.38,13.104,7.385c1.076,0.803,2.162,1.876,2.901,2.978
				c0.033,0.05,0.055,0.093,0.084,0.141c-0.56,1.338-0.479,2.947,0.117,4.375c0.6,4.709,7.086,7.716,9.672,3.014
				c11.184-1.662,22.781-1.758,33.459,2.32c12.049,4.601,17.881,16.506,19.195,28.689c0.353,3.265,2.96,5.047,5.553,5.293
				c1.529,1.217,3.649,1.674,5.881,0.503c6.912-3.626,14.169-5.102,21.241-1.146c6.167,3.447,10.403,9.819,13.91,15.743
				c2.282,3.855,6.957,3.105,9.165,0.484c12.083-2.738,24.58-9.162,37.025-5.848c3.714,0.986,16.801,12.297,10.871,15.343
				c-2.698,1.386-3.245,3.927-2.499,6.13c-2.415,3.473,0.474,9.834,5.934,8.67c7.724-1.646,14.894,0.313,17.585,8.319
				C362.339,460.479,360.548,469.264,356.627,476.054z"/>
		</g>
	</g>
	<g>
		<g>
			<path class="st11" d="M430.574,253.59c-6.159-7.752-8.707-17.558-11.896-26.76c-3.425-9.885-7.979-19.432-13.416-28.363
				c-6.98-11.467-16.116-21.586-25.365-31.266c-9.222-9.65-18.834-19.139-29.426-27.291c-3.331-2.564-8.185-6.19-12.997-7.814
				c-1.215-0.936-2.771-1.355-4.393-0.836c-3.033-0.061-5.844,1.135-7.989,4.464c-0.219,0.34-0.388,0.675-0.521,1.005
				c-8.863,5.68-18.342,11.523-21.642,21.702c-4.215,13.001,13.043,25.155,21.274,31.978c13.469,11.164,26.133,23.626,38.778,35.711
				c14.216,13.587,27.77,27.909,38.974,44.121c1.678,2.428,5.164,3.225,7.635,1.484c6.08-4.281,13.406-6.211,19.499-10.5
				C431.395,259.603,432.467,255.972,430.574,253.59z M408.041,259.846c-19.76-27.104-45.517-49.002-69.892-71.811
				c-4.374-4.092-9.075-7.789-13.604-11.705c-3.914-3.387-10.004-8.135-10.957-13.603c-0.807-4.623,5.457-8.638,8.519-10.947
				c4.183-3.155,8.688-5.842,13.006-8.801c0.886,0.416,1.743,0.895,2.588,1.386c4.394,2.554,8.338,5.96,12.187,9.252
				c9.081,7.77,17.554,16.289,25.73,24.996c8.307,8.846,16.486,18.841,22.981,30.158c4.687,8.166,8.117,16.98,11.127,25.878
				c2.336,6.903,4.69,14.017,8.446,20.306C414.848,256.68,411.363,258.107,408.041,259.846z"/>
		</g>
	</g>
</g>
</svg>
