<?xml version="1.0" encoding="utf-8"?>
<!-- Generator: Adobe Illustrator 16.0.3, SVG Export Plug-In . SVG Version: 6.00 Build 0)  -->
<!DOCTYPE svg PUBLIC "-//W3C//DTD SVG 1.1//EN" "http://www.w3.org/Graphics/SVG/1.1/DTD/svg11.dtd">
<svg version="1.1" id="Layer_1" xmlns="http://www.w3.org/2000/svg" xmlns:xlink="http://www.w3.org/1999/xlink" x="0px" y="0px"
	 width="512px" height="512px" viewBox="0 0 512 512" style="enable-background:new 0 0 512 512;" xml:space="preserve">
<style type="text/css">
<![CDATA[
	.st0{fill:#127274;}
	.st1{fill:#14B6B9;}
	.st2{fill:#1E4384;}
	.st3{fill:#EF4754;}
	.st4{fill:#EF4823;}
	.st5{fill:#BCBCBC;}
	.st6{fill:#F6851F;}
	.st7{fill:#C56528;}
	.st8{fill:#FCBF95;}
	.st9{fill:#FEBF10;}
	.st10{fill:none;}
	.st11{fill:#010101;}
	.st12{fill:#3AB37C;}
	.st13{fill:#D6E5E5;}
	.st14{fill:#71C598;}
	.st15{fill:#74CCCF;}
]]>
</style>
<g>
	<g>
		<g>
			<path class="st7" d="M392.565,225.215c-3.407-0.863-5.571-4.516-3.877-7.846c2.403-4.725,5.146-10.791,3.482-16.225
				c-1.189-3.885-3.549-7.096-6.328-10.02c-5.926-6.234-12.492-12.064-16.091-20.057c-2.097-4.654-3.481-9.928-6.383-14.174
				c-2.979-4.361-7.379-6.471-12.276-8.166c-3.92-1.357-8.096-1.924-11.725-4.041c-4.417-2.578-7.707-6.891-10.288-11.205
				c-1.218-2.035-2.339-4.199-3.761-6.104c-0.439-0.588-0.311-0.535-0.727-0.85c-0.066-0.01-0.121-0.018-0.206-0.029
				c-3.694-0.451-8.81,1.539-12.921,1.645c-4.214,0.111-8.943-0.018-12.622-2.389c-3.448-2.221-6.388-5.047-9.695-7.457
				c-10.934-7.971-26.068-1.166-35.764,5.525c-8.447,5.828-16.622,12.807-24.229,19.707c-6.632,6.014-16.25,13.912-17.633,23.336
				c-0.326,2.229-1.637,3.533-3.24,4.057c2.484,7.715,1.785,17.346,0.441,24.102c-1.746,8.789-6.111,19.445-14.761,22.193
				c0.161,12.791-4.618,25.834-14.458,34.266c-8.083,6.924-16.801,5.619-25.944,3.516c-2.933,10.859-11.647,20.105-22.021,24.385
				c-5.499,2.27-12.275,3.32-17.829,0.566c-3.234-1.604-5.554-3.955-7.225-6.752c-10.222,9.975-21.094,18.836-36.232,19.967
				l-0.047,0.004c-2.726,4.092-1.244,11.664-0.617,15.965c1.01,6.92,2.655,13.703,4.547,20.43
				c1.477,5.252,3.071,10.471,4.802,15.645c1.099-0.322,2.336-0.32,3.641,0.174c8.652,3.268,18.406,5.676,27.705,4.461
				c10.26-1.342,16.853-7.418,20.418-16.98c0.805-2.16,3.808-3.518,5.977-2.953c13.266,3.459,26.065,2.033,31.521-12.047
				c0.644-1.662,2.75-3.01,4.503-3.039c11.521-0.193,30.271-6.842,29.437-21.09c-0.414-7.086,10.556-7.924,10.971-0.846
				c1.133,19.365-18.938,31.148-36.319,32.727c-7.242,14.688-22.545,18.787-37.938,16.027c-5.042,10.074-14.03,17.004-25.513,18.85
				c-10.136,1.629-20.396-0.174-30.095-3.309c2.938,7.602,6.24,15.061,9.989,22.316c0.846-0.291,1.831-0.355,2.945-0.092
				c7.559,1.787,16.315,1.619,23.862-0.121c6.155-1.418,15.869-4.244,16.101-12.057c0.132-4.439,3.782-6.857,7.933-5.35
				c8.916,3.238,31.062,7.248,32.65-6.621c0.262-2.275,2.69-4.43,4.977-4.436c9.502-0.029,42.993-0.186,38.729-16.695
				c-0.29-1.121-0.247-2.156,0.026-3.074c-2.37-5.346-4.39-10.838-6.025-16.426c-0.619-2.115-0.039-3.926,1.113-5.211
				c-0.009-46.717,45.134-73.131,79.588-96.543v-0.543c0-7.061,10.971-7.938,10.971-0.848c0,7.068,2.035,11.723,6.312,15.996
				c1.071-0.869,2.51-1.336,4.252-1.064c13.123,2.049,25.629,8.084,37.208,14.346c11.138,6.025,22.132,12.531,32.78,19.41
				c0.764-0.365,1.603-0.582,2.455-0.611c0.211-0.156,0.635-0.289,1.222-0.207c0.726-0.426,1.447-0.859,2.139-1.342
				c1.723-1.195,3.403-2.453,4.997-3.818c2.357-2.021,4.787-4.346,6.218-6.826C409.106,237.967,402.4,227.705,392.565,225.215z"/>
		</g>
	</g>
	<g>
		<g>
			<path class="st7" d="M390.334,259.354c-0.046,0.027-0.091,0.055-0.137,0.082c-0.109,0.064-0.195,0.105-0.289,0.152
				c1.362,0.145,2.706,0.801,3.767,2.15C392.347,260.049,391.18,259.473,390.334,259.354z"/>
		</g>
	</g>
	<g>
		<g>
			<path class="st7" d="M251.901,390.484c-0.051-2.293-0.235-4.576-0.268-6.869c0.002-0.912-0.023-1.824-0.076-2.734
				c-0.017-0.084-0.027-0.154-0.04-0.229c-1.424-1.936-1.437-4.67-0.33-6.611c-6.646-6.068-12.618-12.883-17.825-20.25
				c3.697,7.811,3.613,17.703,0.133,25.545c-3.469,7.814-10.038,11.486-17.688,12.295c-1.31,8.598-6.58,15.662-15.756,18.178
				c-7.865,2.154-16.09,1.98-24.121,0.812c-6.076,18.188-33.727,13.805-50.686,7.588c2.539,1.818,5.133,3.586,7.758,5.396
				c5.478,3.773,11.877,6.607,18.035,9.055c3.366,1.338,7.913,3.492,11.792,3.764c0.619-0.145,1.305-0.17,2.045-0.062
				c0.108-0.016,0.221-0.023,0.327-0.043c1.749-0.326,3.106,0.119,4.052,0.99c7.165,1.756,14.097,4.348,21.128,6.57
				c-0.473-2.906,1.044-6.031,4.82-6.061c16.413-0.127,36.297-5.684,35.436-25.59c-0.123-2.844,1.992-5.867,5.062-5.908
				c5.485-0.07,12.391-0.502,14.793-6.352C251.705,397.018,251.971,393.646,251.901,390.484z"/>
		</g>
	</g>
	<g>
		<g>
			<path class="st7" d="M221.992,355.941c-0.527-0.561-0.903-1.158-1.161-1.773c-9.6,5.539-23.672,7.215-34.247,7.555
				c-5.015,15.52-25.967,15.611-40.888,11.965c-5.932,15.748-29.322,19.596-45.862,17.533c3.638,5.863,7.746,11.465,12.595,16.361
				c0.914,0.924,1.85,1.805,2.796,2.664c0.252-3.496,3.737-6.883,7.852-4.867c9.44,4.625,41.503,15.643,43.151-2.123
				c0.276-2.988,3.727-4.881,6.448-4.35c11.356,2.219,33.231,5.004,32.463-12.176c-0.173-3.877,2.941-6.098,6.535-5.822
				c5.31,0.406,10.721-1.492,12.214-7.135C225.325,368.336,226.13,360.33,221.992,355.941z"/>
		</g>
	</g>
	<g>
		<g>
			<path class="st9" d="M239.399,458.92c1.21,2.674,0.592,6.256-2.957,7.574c-5.902,2.193-10.789,6.754-15.727,10.531
				c-5.206,3.98-10.769,6.77-16.278,10.207c-1.66,1.035-3.532,2.09-4.911,3.496c-0.102,0.104-0.197,0.211-0.289,0.318
				c1.484,0.578,5.182,1.244,7.688,1.439c2.965,0.234,5.98,0.176,8.944-0.062c3.012-0.244,6.073-0.561,8.978-1.434
				c1.111-0.332,2.23-0.689,3.281-1.189c3.904-5.102,9.605-7.953,15.293-12.098c7.259-5.291,8.131-12.303,8.208-20.592
				C247.597,457.822,243.511,458.441,239.399,458.92z"/>
		</g>
	</g>
	<g>
		<g>
			<path class="st7" d="M120.261,146.951c0.141-0.166,0.24-0.275,0.316-0.354c0.006-0.029,0.014-0.057,0.021-0.086
				C120.493,146.66,120.384,146.807,120.261,146.951z"/>
		</g>
	</g>
	<g>
		<g>
			<path class="st9" d="M262.677,454.975c1.738,2.279,1.719,5.787-0.274,7.613c-0.472,7.051-2.03,13.859-7.157,19.297
				c-3.189,3.381-6.953,5.838-10.878,8.268c-0.987,0.611-2.067,1.246-3.129,1.941c3.816-0.215,7.61-0.789,11.207-1.879
				c6.622-2.006,11.286-5.217,16.601-9.473c8.475-6.787,8.133-19.455,10.476-29.734C273.95,452.486,268.327,453.797,262.677,454.975
				z"/>
		</g>
	</g>
	<g>
		<g>
			<path class="st8" d="M443.067,194.475c-3.67-5.598-12.974-6.588-19.031-6.672c-4.85-0.066-7.689-5.135-4.555-9.115
				c4.825-6.129,12.038-17.102,5.833-24.863c-0.946-1.186-10.919,0.939-13.276,0.98c-3.656,0.061-6.387-2.859-5.822-6.535
				c1.699-11.076,10.975-21.771,6.206-33.131c-3.604-8.582-17.114-5.393-24.384-5.332c-2.796,0.023-5.928-1.918-5.908-5.062
				c0.044-6.977,0.634-14.012-0.073-20.975c-0.416-4.102-1.647-14.146-7.228-14.727c-3.948-0.41-8.357,3.521-12.082,4.529
				c-4.92,1.332-9.986,1.219-14.497-1.412c-4.263-2.486-6.259-6.955-7.807-11.424c-1.23-3.551-2.341-7.27-6.604-7.844
				c-6.509-0.873-13.604,3.404-18.87,6.674c-5.529,3.434-10.954,7.033-17.03,9.449c-2.209,0.877-5.136-0.084-6.378-2.117
				c-5.813-9.516-15.921-18.137-27.358-11.66c-10.705,6.059-17.17,17.348-19.68,29.135c-0.759,3.559-4.568,5.393-7.847,3.877
				c-5.977-2.764-10.477-8.049-16.46-10.652c-6.037-2.629-11.597,3.332-11.598,9.33c-0.004,16.285,11.588,29.199,21.588,41.059
				c5.082-4.396,10.321-8.654,15.727-12.385c10.186-7.027,22.779-13.209,35.525-11.562c6.457,0.834,11.957,3.5,16.992,7.566
				c2.115,1.707,4.616,4.705,7.391,5.256c8.266,1.643,17.99-4.559,25.408,0.951c6.293,4.674,7.39,15.855,15.489,18.266
				c9.596,2.855,20.105,5.559,25.75,14.664c4.925,7.945,6.597,17.299,13.069,24.311c5.562,6.027,12.205,11.455,15.697,19.053
				c3.436,7.471,2.51,15.324-0.271,22.662c13.154,6.59,19.949,21.832,12.374,35.941c-1.163,2.166-2.739,4.191-4.53,6.07
				c1.436-1.109,2.803-2.23,4.075-3.277c2.459-2.021,4.934-4.227,6.82-6.816c-3.385-1.861-4.581-7.17-0.685-9.432
				c2.549-1.48,6.603-3.252,7.898-6.137c1.279-2.85,0.58-6.25,0.255-9.279c-0.028-0.027-0.052-0.049-0.084-0.078
				c-0.472-0.404-0.894-0.859-1.266-1.363c-0.951-1.613-1.412-3.189-1.159-5.061c0.418-3.082,1.891-6.535,4.406-8.453
				c3.033-2.314,7.03-3.15,9.703-5.953C440.259,201.393,444.798,197.115,443.067,194.475z"/>
		</g>
	</g>
	<g>
		<g>
			<path class="st7" d="M389.112,259.561c-0.323,0.24-0.127,0.498,0.796,0.027C389.643,259.561,389.378,259.551,389.112,259.561z"/>
		</g>
	</g>
	<g>
		<g>
			<path class="st7" d="M120.598,146.512c0.022-0.031,0.048-0.061,0.069-0.092c-0.013-0.072,0-0.217,0.08-0.512
				C120.688,146.107,120.644,146.311,120.598,146.512z"/>
		</g>
	</g>
	<g>
		<g>
			<path class="st7" d="M198.5,177.189c-3.515-0.262-6.881-3.732-4.802-7.818c0.084-0.164,0.147-0.336,0.227-0.502
				c-2.041-2.691-0.489-6.182,2.197-7.678c0.997-7.783-0.987-16.266-3.298-23.354c-3.543-10.867-8.597-21.588-15.811-30.531
				c-7.624-9.455-18.183-16.002-30.383-17.275c-11.097-1.158-22.32,1.312-32.517,5.766c-0.346,1.004-1.107,1.92-2.41,2.584
				c-12.689,6.479-25.971,16.865-29.477,31.447c-1.651,6.869-1.366,14.08-0.639,21.074c0.588,5.645,1.114,13.844,5.173,18.283
				c0.724,0.793,1.166,1.658,1.382,2.537c7.557,3.143,15.994,5.02,23.924,2.312c7.266-2.48,14.995-8.068,18.821-14.93
				c3.394-6.088,3.819-13.154,5.527-19.836c1.2-4.691,2.348-11.057,6.636-14.01c5.85-4.027,11.995,5.096,6.15,9.119
				c1.205-0.828-0.302,1.213-0.542,1.893c-0.585,1.662-1.028,3.387-1.446,5.098c-0.892,3.641-1.666,7.309-2.394,10.986
				c-1.525,7.709-4.932,14.713-10.7,20.201c-1.606,1.529-3.28,2.99-5.018,4.357c0.008,0.158,0.016,0.314,0.011,0.48
				c-0.152,5.852-1.311,11.861-3.081,17.434c-1.596,5.018-3.625,11.346-9.94,11.619c-5.388,0.234-10.115-2.637-14.212-5.865
				c-0.076-0.061-0.148-0.125-0.225-0.186c-4.826,11.568-12.762,21.398-20.793,30.963c-8.24,9.814-17.52,20.289-20.832,33.004
				c-1.158,4.447-2.665,10.123-0.632,14.562c1.663,3.633,6.63,3.654,10.008,3.27c15.282-1.732,24.757-12.135,35.091-22.514
				c3.563-3.58,8.73-1.494,9.617,3.207c1.552,8.232,8.334,9.32,15.056,5.51c6.934-3.932,14.259-11.127,14.472-19.662
				c0.086-3.422,2.77-6.684,6.535-5.822c7.583,1.736,16.784,6.074,23.145-0.598c7.674-8.051,10.656-18.598,9.318-29.578
				c-0.451-3.707,3.147-6.309,6.535-5.822c5.782,0.832,8.429-11.316,9.082-15.939C198.769,187.357,199.271,181.842,198.5,177.189z
				 M120.701,146.477C120.807,146.389,120.748,146.488,120.701,146.477c-0.028,0.023-0.07,0.064-0.124,0.121
				c-0.014,0.061-0.033,0.119-0.045,0.18c-0.157,0.844-0.276,1.691-0.34,2.549c-0.012,0.146-0.02,0.254-0.027,0.342
				c-0.002,0.094-0.004,0.205-0.009,0.365c-0.012,0.354-0.021,0.705-0.026,1.057c-0.012,0.77-0.016,1.537-0.016,2.305
				c-0.001,2.996-1.903,5.668-5.062,5.91c-2.812,0.215-5.909-2.062-5.908-5.062c0.002-4.701-0.398-10.727,2.854-14.553
				c4.443-5.23,12.329,1.393,8.67,6.73C120.673,146.457,120.687,146.475,120.701,146.477z"/>
		</g>
	</g>
	<g>
		<g>
			<path class="st9" d="M107.608,186.08c-1.871,0.141-3.723,0.16-5.555,0.07c2.599,2.293,5.068,4.736,7.887,6.771
				c1.252,0.904,2.732,1.977,4.291,2.418c0.278-0.613,0.545-1.23,0.765-1.869c1.021-2.955,1.961-6.4,2.545-9.723
				C114.413,184.986,111.11,185.816,107.608,186.08z"/>
		</g>
	</g>
	<g>
		<g>
			<path class="st12" d="M401.576,288.15c-6.077-9.441-15.413-15.363-24.771-21.154c-10.486-6.49-21.02-12.979-32.014-18.584
				c-4.711-2.4-9.512-4.744-14.448-6.705c1.696,1.564,3.3,3.229,4.727,5.078c6.995,9.07,8.308,22.162,2.561,31.139
				c17.785,10.822,37.361,18.674,54.019,31.35c3.446,2.623,7.091,5.635,10.395,8.98c0.046-0.129,0.088-0.26,0.144-0.391
				C406.255,308.225,407.494,297.346,401.576,288.15z"/>
		</g>
	</g>
	<g>
		<g>
			<path class="st1" d="M402.196,341.744c0.111-4.967-1.891-7.938-4.834-11.828c-5.008-6.619-11.805-11.947-18.739-16.43
				c-13.341-8.623-27.81-15.215-41.54-23.141c2.322,8.855,0.154,19.104-5.705,26.049c0.908-0.369,2.014-0.414,3.29,0.016
				c13.092,4.416,25.888,9.924,37.935,16.711c9.41,5.301,20.497,11.627,27.831,20.189c-0.042-0.834,0.076-1.729,0.441-2.672
				C401.937,347.898,402.128,344.801,402.196,341.744z"/>
		</g>
	</g>
	<g>
		<g>
			<path class="st4" d="M474.831,242.592c4.783-8.859,13.01-18.115,11.482-28.93c-0.822-5.818-3.77-11.16-6.821-16.092
				c-1.744-2.818-4.476-5.812-5.573-8.936c-1.004-2.857,0.895-5.857,2.075-8.367c2.286-4.861,7.979-14.09,4.533-19.486
				c-2.386-3.736-6.252-5.416-9.647-8.059c-8.855-6.895-8.473-16.625-2.659-25.318c3.002-4.49,5.489-8.396,1.556-13.275
				c-2.935-3.639-7.236-5.889-10.483-9.217c-3.991-4.09-6.816-8.621-7.571-14.383c-0.638-4.871,0.008-9.686-0.01-14.568
				c-0.02-5.426-0.946-11.082-6.234-13.951c-4.111-2.23-8.22-2.553-12.805-2.73c-4.816-0.186-9.442-0.623-13.675-3.141
				c-4.911-2.922-7.506-7.748-10.296-12.521c-4.084-6.988-8.585-17.439-17.477-19.221c-6.219-1.246-11.465,0.158-17.298,2.23
				c-5.696,2.025-11.386,3.154-17.287,1.285c-5.619-1.777-9.063-5.984-12.228-10.729c-2.698-4.043-4.53-7.771-9.947-7.039
				c-11.254,1.521-20.696,9.639-32.324,9.99c-10.455,0.318-20.646-5.562-31.143-3.479c-10.572,2.1-14.376,13.209-22.426,18.916
				c-4.234,3-9.45,4.865-14.489,5.949c-3.481,0.75-9.442,0.352-12.118,3.133c-4.665,4.85-4.097,8.373-1.42,14.057
				c1.342,2.846,2.39,5.557,2.844,8.438c4.559,1.889,8.328,5.033,12.36,7.816c4.344-12.85,12.887-25.029,25.473-30.432
				c14.685-6.303,28.114,0.65,36.854,12.363c5.855-2.971,11.188-6.98,17.013-10.018c6.24-3.252,14.892-6.627,22.016-4.539
				c5.762,1.688,9.787,5.109,12.17,10.658c1.254,2.92,1.93,8.924,5.405,10.098c4.655,1.574,9.182-2.172,13.364-3.699
				c5.336-1.949,11.373-1.861,15.781,2.197c10.328,9.506,9.727,23.938,9.376,37.074c10.849-0.375,22.812-0.502,28.456,10.348
				c3.404,6.547,4.22,14.131,2.042,21.219c-1.347,4.379-3.298,8.584-4.802,12.912c6.461-0.686,12.797-0.801,16.441,6.072
				c5.221,9.848,2.979,19.717-2.001,28.502c6.837,1.186,13.549,3.779,17.774,9.115c6.917,8.734,0.943,20.545-7.191,26.207
				c-2.232,1.553-4.791,2.443-7.087,3.865c-0.239,0.148-0.409,0.229-0.547,0.277c-0.007,0.016-0.015,0.035-0.021,0.053
				c2.163,2.818,2.243,7.053,2.305,10.459c0.137,7.568-2.622,12.568-7.521,16.66c0.517,1.293,0.707,2.766,0.438,4.416
				c-0.715,4.387-3.986,8.195-7.106,11.16c-5.324,5.057-12.335,11.219-19.641,14.428c3.658,3.865,6.757,8.209,8.878,13.195
				c4.95,11.635,3.224,23.826-1.577,35.201c-0.079,0.186-0.167,0.355-0.257,0.521c0.504,0.367,0.977,0.842,1.39,1.455
				c1.025,1.52,5.62,1.477,7.12,0.885c2.742-1.084,4.632-3.314,7.033-4.914c1.982-2.605,5.135-4.41,8.266-5.316
				c0.682-0.217,1.376-0.381,2.084-0.492c-0.327,0.006-0.654,0.014-0.98,0.021c0.973-0.713,1.957-1.414,2.895-2.172
				c0.859-0.695,2.142-1.715,2.586-2.539c3.776-6.994,1.197-17.385,6.829-23.449c2.654-2.859,6.232-3.906,9.587-5.68
				c4.579-2.418,9.766-5.303,12.771-9.674c3.787-5.508,1.569-10.65,1.916-16.668C473.493,251.025,472.985,246.01,474.831,242.592z"
				/>
		</g>
	</g>
	<g>
		<g>
			<path class="st12" d="M399.225,375.805c-1.274-6.422-4.042-12.229-8.799-16.742c-15.733-14.934-37.476-24.979-57.857-31.854
				c-3.872-1.307-4.786-5.551-3.538-8.398c-1.156,1.035-2.41,1.963-3.771,2.748c4.126,8.146,5.877,18.107,3.604,26.904
				c13.965,7.244,42.749,24.039,59.609,40.062c1.105-1.148,2.703-1.854,4.693-1.617
				C400.546,387.783,400.378,381.613,399.225,375.805z"/>
		</g>
	</g>
	<g>
		<g>
			<path class="st6" d="M322.8,276.121c6.324-2.129,8.901-8.414,7.209-14.789c-1.852-6.975-6.568-11.559-12.217-15.787
				c-5.798-4.342-12.103-8.242-16.671-13.977c-1.747-2.191-3.028-4.455-3.949-6.814c-31.259,20.812-72.757,45.383-70.563,87.633
				c0.055,1.043-0.143,1.947-0.51,2.715c7.016,21.217,19.677,40.381,36.973,54.588c3.504,2.879,8.666,7.459,14.056,9.916
				c1.036,0.035,2.104,0.357,3.125,1.07c0.059,0.041,0.116,0.086,0.175,0.127c2.703,0.715,5.392,0.715,7.888-0.486
				c6.852-3.297,3.697-15.008,0.246-19.432c-3.512-4.502,2.278-10.277,7.007-8.002c6.797,3.27,14.592,4.494,19.272-0.605
				c-0.839-2.615,0.741-5.848,3.393-6.98c1.903-8.051-0.87-16.947-5.673-23.41c-1.936-2.605-0.688-7.531,2.74-8.268
				c12.52-2.686,16.076-20.764,5.688-28.176C317.556,282.996,319.167,277.342,322.8,276.121z"/>
		</g>
	</g>
	<g>
		<g>
			<path class="st1" d="M390.263,407.279c-0.146-0.334-0.209-0.531-0.869-1.529c-0.445-0.672-0.901-1.338-1.398-1.975
				c-1.023-1.311-2.068-2.486-3.254-3.676c-7.15-7.174-15.397-13.264-23.719-19.002c-11.673-8.051-24.023-16.43-36.905-22.842
				c-4.083,5.254-9.56,7.791-15.508,8.279c7.013,4.545,13.821,9.393,20.619,14.252c6.954,4.973,13.825,10.611,21.611,14.238
				c11.629,5.418,26.227,8.748,38.063,15.459c0.375-0.633,0.912-1.225,1.637-1.738c0.024-0.018,0.087-0.094,0.146-0.164
				C390.635,408.357,390.529,407.883,390.263,407.279z"/>
		</g>
	</g>
	<g>
		<g>
			<path class="st7" d="M282.545,414.746c8.981-6.537-1.919-19.854-8.495-25.016c-2.998-1.195-5.883-2.766-8.499-4.488
				c-0.956-0.629-1.899-1.277-2.836-1.936c0.027,1.295,0.025,2.578,0.075,3.775c0.226,5.434,0.036,10.908-1.792,16.076
				c-3.136,8.869-10.981,12.709-19.544,13.791c-0.909,9.484-5.293,18.162-13.697,23.566c-6.172,3.969-13.154,6.248-20.346,7.375
				c14.543,2.039,29.496,0.857,43.875-1.824c5.211-0.971,10.414-2.037,15.589-3.223c0.067-1.475,0.714-2.953,2.171-4.1
				c2.927-2.303,17.103-10.701,12.943-15.307C279.584,420.773,279.437,417.008,282.545,414.746z"/>
		</g>
	</g>
	<g>
		<g>
			<path class="st7" d="M320.644,422.988c-4.916-3.662-9.586-7.637-13.812-12.059c-3.623-3.789-6.916-7.791-10.256-11.828
				c-1.047-1.266-2.786-3.695-4.509-5.426c5.062,8.645,6.788,18.889,0.54,26.527c2.743,6.303-0.222,11.998-4.916,17.014
				C299.124,433.572,310.214,428.994,320.644,422.988z"/>
		</g>
	</g>
	<g>
		<g>
			<path class="st12" d="M398.299,438.762c-0.467-3.949-2.452-7.746-5.033-10.727c-6.665-7.699-17.167-11.604-26.451-15.045
				c-9.596-3.557-19.633-6.553-28.202-12.301c-12.008-8.057-23.459-16.938-35.615-24.771c-0.545,3.496-1.844,6.785-4.043,9.469
				c0.066,0.064,0.139,0.131,0.204,0.197c7.767,7.836,13.835,16.855,22.352,24.025c3.068,2.582,6.259,4.984,9.531,7.264
				c2.897-0.621,5.509,1.525,6.289,4.152c6.353,3.977,12.974,7.531,19.743,10.807c6.862,3.32,13.67,5.975,21.064,7.85
				c5.462,1.387,13.392,3.639,18.592,1.76C398.357,440.854,398.562,440.992,398.299,438.762z"/>
		</g>
	</g>
	<g>
		<g>
			<path d="M389.112,259.561c0.266-0.01,0.53,0,0.796,0.027c0.094-0.047,0.18-0.088,0.289-0.152
				c0.046-0.027,0.091-0.055,0.137-0.082C389.747,259.271,389.323,259.404,389.112,259.561z"/>
		</g>
	</g>
	<g>
		<g>
			<path d="M497.393,213.969c-0.487-10.049-6.53-19.424-12.05-27.713c4.697-10.523,10.623-21.73,3.66-32.633
				c-2.427-3.801-6.415-6.109-10.039-8.574c-3.985-2.713-5.215-5.504-2.78-9.812c2.412-4.271,5.269-7.742,6.572-12.582
				c1.431-5.311-1.305-11.508-4.585-15.576c-3.036-3.764-7.126-6.4-10.715-9.578c-4.328-3.832-5.133-8.254-5.09-13.805
				c0.086-11.133,0.877-21.057-8.368-29.062c-8.351-7.23-18.066-4.619-27.751-7.117c-4.655-1.201-6.929-7.488-9.08-11.17
				c-2.553-4.369-5.04-8.781-8.248-12.715c-6.67-8.18-15.744-11.252-26.124-10.635c-9.566,0.568-20.554,10.102-27.828,0.135
				c-2.71-3.713-4.934-7.672-8.417-10.758c-3.512-3.111-8.449-3.551-12.931-3.199c-9.923,0.779-18.728,6.984-28.239,9.445
				c-5.246,1.357-10.185-0.176-15.291-1.311c-4.856-1.082-9.699-1.844-14.676-2.006c-8.938-0.291-16.531,3.945-22.852,9.91
				c-3.443,3.252-5.848,7.537-9.402,10.654c-3.301,2.896-8.297,4.432-12.523,5.197c-4.023,0.727-8.119,0.889-11.85,2.723
				c-4.549,2.236-7.794,6.199-10.077,10.654c-2.182,4.26-1.76,9.188-0.382,13.59c0.839,2.682,2.855,5.527,3.854,8.426
				c-6.133,1.99-11.276,7.568-13.263,13.471c-2.781,8.264-0.81,18.42,2.687,26.213c4.869,10.854,12.847,20.053,20.416,29.105
				c-0.712,0.645-1.425,1.289-2.13,1.928c-4.364,3.959-9.235,8.559-13.009,13.746c-0.545-4.83-1.624-9.619-2.896-14.15
				c-3.648-13.002-10.05-25.938-18.538-36.463c-9.263-11.486-22.031-19.145-36.72-21.074c-16.037-2.105-32.083,2.66-46.176,10.029
				c-1.497,0.783-2.277,1.895-2.525,3.09c-13.776,8.367-25.07,20.701-28.929,36.75c-1.938,8.061-1.151,17.15-0.185,25.312
				c0.775,6.537,2.152,13.328,5.57,18.975c-0.732,2.305-0.112,4.988,2.698,6.355c3.87,1.885,7.833,3.463,11.896,4.59
				c-0.653,0.717-1.14,1.676-1.349,2.934c-0.47,2.82,1.013,4.846,3.022,5.797C82.007,221.9,49.177,239.621,47.59,272.406
				c-0.472,9.736,4.066,16.418,11.396,19.279c-1.256,4.27-1.193,9.037-0.906,13.363c0.545,8.201,2.543,16.369,4.621,24.295
				c5.484,20.91,13.309,40.604,23.278,59.783c4.64,8.926,10.417,17.076,17.136,24.545c6.688,7.434,14.646,12.396,22.627,18.197
				c6.192,4.5,13.349,7.762,20.402,10.646c5.215,2.133,12.233,5.344,18.258,4.965c13.012,2.721,25.179,8.389,38.269,10.828
				c7.423,1.383,15.014,1.828,22.612,1.637c-4.199,2.676-8.066,5.932-12.001,8.941c-5.835,4.463-12.538,7.258-18.454,11.539
				c-5.948,4.305-11.404,13.186-3.508,18.729c6.613,4.641,16.031,4.691,23.776,4.342c3.653-0.166,7.963-0.514,11.999-1.555
				c0.612,0.42,1.288,0.697,1.979,0.758c15.756,1.414,32.732-0.961,45.002-11.766c6.037-5.314,9.928-10.4,12.229-18.199
				c2.023-6.852,1.866-14.221,4.242-20.982c0.5-1.424,0.435-2.77,0.005-3.939c14.012-4.418,27.543-10.156,40.09-17.986
				c3.188,2.006,6.43,3.916,9.695,5.738c14.818,8.268,31.397,15.863,48.584,17.199c6.179,0.48,13.793,0.084,17.855-5.361
				c5.056-6.777,1.689-16.281-2.306-22.699c-1.849-2.971-4.069-5.537-6.56-7.799c5.693-4.953,4.284-11.742-1.151-19.184
				c7.491-0.906,13.187-5.695,13.873-14.422c0.674-8.557-2.116-17.941-6.7-25.236c1.614,0.594,3.539,0.443,5.275-0.777
				c4.869-0.125,5.844-5.527,3.534-8.701c0.056-1.303,0.063-2.615,0.176-3.877c0.254-2.844,0.312-5.564-0.103-8.246
				c5.458,1.158,11.744-0.15,16.04-2.98c1.565-1.031,2.865-2.455,4.383-3.559c1.088-0.793,2.04-1.279,2.707-2.498
				c0.038-0.021,0.068-0.033,0.118-0.068c0.729-0.531,2.736-1.527,2.973-1.561c2.617-0.363,4.686-2.365,6.706-3.93
				c6.062-4.695,7.897-10.041,9.385-17.338c0.562-2.756,0.796-8.707,2.144-10.508c1.177-1.572,6.35-3.229,8.65-4.443
				c9.1-4.807,16.518-11.838,18.588-22.213c0.51-2.551,0.571-4.893,0.21-7.473c-0.449-3.213-0.124-5.939-0.122-9.146
				c0.002-4.096,0.433-3.594,2.44-7.482c2.762-5.346,6.257-9.965,8.302-15.715C496.909,223.131,497.62,218.654,497.393,213.969z
				 M208.618,86.928c0.001-5.998,5.561-11.959,11.598-9.33c5.983,2.604,10.483,7.889,16.46,10.652
				c3.278,1.516,7.088-0.318,7.847-3.877c2.51-11.787,8.975-23.076,19.68-29.135c11.438-6.477,21.545,2.145,27.358,11.66
				c1.242,2.033,4.169,2.994,6.378,2.117c6.076-2.416,11.501-6.016,17.03-9.449c5.267-3.27,12.361-7.547,18.87-6.674
				c4.264,0.574,5.374,4.293,6.604,7.844c1.548,4.469,3.544,8.938,7.807,11.424c4.511,2.631,9.577,2.744,14.497,1.412
				c3.725-1.008,8.134-4.939,12.082-4.529c5.58,0.58,6.812,10.625,7.228,14.727c0.707,6.963,0.117,13.998,0.073,20.975
				c-0.02,3.145,3.112,5.086,5.908,5.062c7.27-0.061,20.779-3.25,24.384,5.332c4.769,11.359-4.507,22.055-6.206,33.131
				c-0.564,3.676,2.166,6.596,5.822,6.535c2.357-0.041,12.33-2.166,13.276-0.98c6.205,7.762-1.008,18.734-5.833,24.863
				c-3.135,3.98-0.295,9.049,4.555,9.115c6.058,0.084,15.361,1.074,19.031,6.672c1.73,2.641-2.809,6.918-4.275,8.455
				c-2.673,2.803-6.67,3.639-9.703,5.953c-2.516,1.918-3.988,5.371-4.406,8.453c-0.253,1.871,0.208,3.447,1.159,5.061
				c0.372,0.504,0.794,0.959,1.266,1.363c0.032,0.029,0.056,0.051,0.084,0.078c0.325,3.029,1.024,6.43-0.255,9.279
				c-1.296,2.885-5.35,4.656-7.898,6.137c-3.896,2.262-2.7,7.57,0.685,9.432c-1.887,2.59-4.361,4.795-6.82,6.816
				c-1.272,1.047-2.64,2.168-4.075,3.277c1.791-1.879,3.367-3.904,4.53-6.07c7.575-14.109,0.78-29.352-12.374-35.941
				c2.781-7.338,3.707-15.191,0.271-22.662c-3.492-7.598-10.135-13.025-15.697-19.053c-6.473-7.012-8.145-16.365-13.069-24.311
				c-5.645-9.105-16.154-11.809-25.75-14.664c-8.1-2.41-9.196-13.592-15.489-18.266c-7.418-5.51-17.143,0.691-25.408-0.951
				c-2.774-0.551-5.275-3.549-7.391-5.256c-5.035-4.066-10.535-6.732-16.992-7.566c-12.746-1.646-25.34,4.535-35.525,11.562
				c-5.405,3.73-10.645,7.988-15.727,12.385C220.206,116.127,208.614,103.213,208.618,86.928z M59.398,278.926
				c-2.033-4.439-0.526-10.115,0.632-14.562c3.312-12.715,12.592-23.189,20.832-33.004c8.031-9.564,15.967-19.395,20.793-30.963
				c0.076,0.061,0.148,0.125,0.225,0.186c4.097,3.229,8.824,6.1,14.212,5.865c6.315-0.273,8.345-6.602,9.94-11.619
				c1.771-5.572,2.929-11.582,3.081-17.434c0.005-0.166-0.003-0.322-0.011-0.48c1.737-1.367,3.411-2.828,5.018-4.357
				c5.769-5.488,9.175-12.492,10.7-20.201c0.728-3.678,1.502-7.346,2.394-10.986c0.418-1.711,0.861-3.436,1.446-5.098
				c0.24-0.68,1.747-2.721,0.542-1.893c5.845-4.023-0.301-13.146-6.15-9.119c-4.288,2.953-5.436,9.318-6.636,14.01
				c-1.708,6.682-2.134,13.748-5.527,19.836c-3.826,6.861-11.556,12.449-18.821,14.93c-7.93,2.707-16.367,0.83-23.924-2.312
				c-0.216-0.879-0.658-1.744-1.382-2.537c-4.059-4.439-4.585-12.639-5.173-18.283c-0.728-6.994-1.013-14.205,0.639-21.074
				c3.506-14.582,16.787-24.969,29.477-31.447c1.303-0.664,2.064-1.58,2.41-2.584c10.196-4.453,21.42-6.924,32.517-5.766
				c12.2,1.273,22.759,7.82,30.383,17.275c7.214,8.943,12.268,19.664,15.811,30.531c2.311,7.088,4.295,15.57,3.298,23.354
				c-2.687,1.496-4.238,4.986-2.197,7.678c-0.079,0.166-0.143,0.338-0.227,0.502c-2.079,4.086,1.287,7.557,4.802,7.818
				c0.771,4.652,0.269,10.168-0.243,13.787c-0.653,4.623-3.3,16.771-9.082,15.939c-3.388-0.486-6.986,2.115-6.535,5.822
				c1.338,10.98-1.645,21.527-9.318,29.578c-6.36,6.672-15.562,2.334-23.145,0.598c-3.766-0.861-6.449,2.4-6.535,5.822
				c-0.213,8.535-7.538,15.73-14.472,19.662c-6.722,3.811-13.504,2.723-15.056-5.51c-0.887-4.701-6.054-6.787-9.617-3.207
				c-10.334,10.379-19.809,20.781-35.091,22.514C66.028,282.58,61.062,282.559,59.398,278.926z M102.054,186.15
				c1.832,0.09,3.684,0.07,5.555-0.07c3.502-0.264,6.805-1.094,9.933-2.332c-0.584,3.322-1.523,6.768-2.545,9.723
				c-0.22,0.639-0.486,1.256-0.765,1.869c-1.559-0.441-3.039-1.514-4.291-2.418C107.122,190.887,104.652,188.443,102.054,186.15z
				 M93.234,379.5c-3.749-7.256-7.051-14.715-9.989-22.316c9.699,3.135,19.959,4.938,30.095,3.309
				c11.482-1.846,20.471-8.775,25.513-18.85c15.393,2.76,30.695-1.34,37.938-16.027c17.381-1.578,37.452-13.361,36.319-32.727
				c-0.415-7.078-11.385-6.24-10.971,0.846c0.834,14.248-17.916,20.896-29.437,21.09c-1.753,0.029-3.859,1.377-4.503,3.039
				c-5.456,14.08-18.256,15.506-31.521,12.047c-2.169-0.564-5.172,0.793-5.977,2.953c-3.565,9.562-10.158,15.639-20.418,16.98
				c-9.299,1.215-19.053-1.193-27.705-4.461c-1.305-0.494-2.542-0.496-3.641-0.174c-1.73-5.174-3.325-10.393-4.802-15.645
				c-1.892-6.727-3.537-13.51-4.547-20.43c-0.627-4.301-2.108-11.873,0.617-15.965l0.047-0.004
				c15.139-1.131,26.011-9.992,36.232-19.967c1.671,2.797,3.99,5.148,7.225,6.752c5.554,2.754,12.33,1.703,17.829-0.566
				c10.374-4.279,19.089-13.525,22.021-24.385c9.144,2.104,17.861,3.408,25.944-3.516c9.84-8.432,14.619-21.475,14.458-34.266
				c8.649-2.748,13.015-13.404,14.761-22.193c1.344-6.756,2.043-16.387-0.441-24.102c1.604-0.523,2.914-1.828,3.24-4.057
				c1.383-9.424,11.001-17.322,17.633-23.336c7.607-6.9,15.782-13.879,24.229-19.707c9.695-6.691,24.83-13.496,35.764-5.525
				c3.308,2.41,6.247,5.236,9.695,7.457c3.679,2.371,8.408,2.5,12.622,2.389c4.111-0.105,9.227-2.096,12.921-1.645
				c0.085,0.012,0.14,0.02,0.206,0.029c0.416,0.314,0.287,0.262,0.727,0.85c1.422,1.904,2.543,4.068,3.761,6.104
				c2.581,4.314,5.871,8.627,10.288,11.205c3.629,2.117,7.805,2.684,11.725,4.041c4.897,1.695,9.297,3.805,12.276,8.166
				c2.901,4.246,4.286,9.52,6.383,14.174c3.599,7.992,10.165,13.822,16.091,20.057c2.779,2.924,5.139,6.135,6.328,10.02
				c1.663,5.434-1.079,11.5-3.482,16.225c-1.694,3.33,0.47,6.982,3.877,7.846c9.835,2.49,16.541,12.752,11.122,22.152
				c-1.431,2.48-3.86,4.805-6.218,6.826c-1.594,1.365-3.274,2.623-4.997,3.818c-0.691,0.482-1.413,0.916-2.139,1.342
				c0.846,0.119,2.013,0.695,3.341,2.385c-1.061-1.35-2.404-2.006-3.767-2.15c-0.923,0.471-1.119,0.213-0.796-0.027
				c-0.853,0.029-1.691,0.246-2.455,0.611c-10.648-6.879-21.643-13.385-32.78-19.41c-11.579-6.262-24.085-12.297-37.208-14.346
				c-1.742-0.271-3.181,0.195-4.252,1.064c-4.277-4.273-6.312-8.928-6.312-15.996c0-7.09-10.971-6.213-10.971,0.848v0.543
				c-34.454,23.412-79.597,49.826-79.588,96.543c-1.152,1.285-1.732,3.096-1.113,5.211c1.636,5.588,3.655,11.08,6.025,16.426
				c-0.273,0.918-0.316,1.953-0.026,3.074c4.264,16.51-29.228,16.666-38.729,16.695c-2.286,0.006-4.715,2.16-4.977,4.436
				c-1.589,13.869-23.734,9.859-32.65,6.621c-4.15-1.508-7.801,0.91-7.933,5.35c-0.231,7.812-9.945,10.639-16.101,12.057
				c-7.547,1.74-16.304,1.908-23.862,0.121C95.065,379.145,94.08,379.209,93.234,379.5z M115.225,410.246
				c-0.946-0.859-1.882-1.74-2.796-2.664c-4.849-4.896-8.957-10.498-12.595-16.361c16.54,2.062,39.931-1.785,45.862-17.533
				c14.921,3.646,35.873,3.555,40.888-11.965c10.575-0.34,24.647-2.016,34.247-7.555c0.258,0.615,0.634,1.213,1.161,1.773
				c4.138,4.389,3.333,12.395,1.896,17.832c-1.493,5.643-6.904,7.541-12.214,7.135c-3.594-0.275-6.708,1.945-6.535,5.822
				c0.769,17.18-21.106,14.395-32.463,12.176c-2.722-0.531-6.172,1.361-6.448,4.35c-1.648,17.766-33.711,6.748-43.151,2.123
				C118.962,403.363,115.477,406.75,115.225,410.246z M195.202,437.818c-3.776,0.029-5.293,3.154-4.82,6.061
				c-7.031-2.223-13.963-4.814-21.128-6.57c-0.945-0.871-2.303-1.316-4.052-0.99c-0.106,0.02-0.219,0.027-0.327,0.043
				c-0.74-0.107-1.426-0.082-2.045,0.062c-3.879-0.271-8.426-2.426-11.792-3.764c-6.158-2.447-12.558-5.281-18.035-9.055
				c-2.625-1.811-5.219-3.578-7.758-5.396c16.959,6.217,44.609,10.6,50.686-7.588c8.031,1.168,16.256,1.342,24.121-0.812
				c9.176-2.516,14.446-9.58,15.756-18.178c7.649-0.809,14.219-4.48,17.688-12.295c3.48-7.842,3.564-17.734-0.133-25.545
				c5.207,7.367,11.18,14.182,17.825,20.25c-1.106,1.941-1.094,4.676,0.33,6.611c0.013,0.074,0.023,0.145,0.04,0.229
				c0.053,0.91,0.078,1.822,0.076,2.734c0.032,2.293,0.217,4.576,0.268,6.869c0.069,3.162-0.196,6.533-1.408,9.484
				c-2.402,5.85-9.308,6.281-14.793,6.352c-3.07,0.041-5.186,3.064-5.062,5.908C231.499,432.135,211.615,437.691,195.202,437.818z
				 M228.128,489.801c-1.051,0.5-2.17,0.857-3.281,1.189c-2.904,0.873-5.966,1.189-8.978,1.434
				c-2.964,0.238-5.979,0.297-8.944,0.062c-2.506-0.195-6.203-0.861-7.688-1.439c0.092-0.107,0.188-0.215,0.289-0.318
				c1.379-1.406,3.251-2.461,4.911-3.496c5.51-3.438,11.072-6.227,16.278-10.207c4.938-3.777,9.824-8.338,15.727-10.531
				c3.549-1.318,4.167-4.9,2.957-7.574c4.111-0.479,8.197-1.098,12.229-1.809c-0.077,8.289-0.949,15.301-8.208,20.592
				C237.733,481.848,232.032,484.699,228.128,489.801z M269.046,480.742c-5.314,4.256-9.979,7.467-16.601,9.473
				c-3.597,1.09-7.391,1.664-11.207,1.879c1.062-0.695,2.142-1.33,3.129-1.941c3.925-2.43,7.688-4.887,10.878-8.268
				c5.127-5.438,6.686-12.246,7.157-19.297c1.993-1.826,2.013-5.334,0.274-7.613c5.65-1.178,11.273-2.488,16.845-3.967
				C277.179,461.287,277.521,473.955,269.046,480.742z M282.545,414.746c-3.108,2.262-2.961,6.027-0.556,8.691
				c4.159,4.605-10.017,13.004-12.943,15.307c-1.457,1.146-2.104,2.625-2.171,4.1c-5.175,1.186-10.378,2.252-15.589,3.223
				c-14.379,2.682-29.332,3.863-43.875,1.824c7.191-1.127,14.174-3.406,20.346-7.375c8.404-5.404,12.788-14.082,13.697-23.566
				c8.562-1.082,16.408-4.922,19.544-13.791c1.828-5.168,2.018-10.643,1.792-16.076c-0.05-1.197-0.048-2.48-0.075-3.775
				c0.937,0.658,1.88,1.307,2.836,1.936c2.616,1.723,5.501,3.293,8.499,4.488C280.626,394.893,291.526,408.209,282.545,414.746z
				 M280.427,380.803c-0.059-0.041-0.116-0.086-0.175-0.127c-1.021-0.713-2.089-1.035-3.125-1.07
				c-5.39-2.457-10.552-7.037-14.056-9.916c-17.296-14.207-29.957-33.371-36.973-54.588c0.367-0.768,0.564-1.672,0.51-2.715
				c-2.193-42.25,39.305-66.82,70.563-87.633c0.921,2.359,2.202,4.623,3.949,6.814c4.568,5.734,10.873,9.635,16.671,13.977
				c5.648,4.229,10.365,8.812,12.217,15.787c1.692,6.375-0.885,12.66-7.209,14.789c-3.633,1.221-5.244,6.875-1.812,9.322
				c10.389,7.412,6.832,25.49-5.688,28.176c-3.429,0.736-4.676,5.662-2.74,8.268c4.803,6.463,7.576,15.359,5.673,23.41
				c-2.651,1.133-4.231,4.365-3.393,6.98c-4.681,5.1-12.476,3.875-19.272,0.605c-4.729-2.275-10.519,3.5-7.007,8.002
				c3.451,4.424,6.605,16.135-0.246,19.432C285.818,381.518,283.13,381.518,280.427,380.803z M324.117,358.256
				c12.882,6.412,25.232,14.791,36.905,22.842c8.321,5.738,16.568,11.828,23.719,19.002c1.186,1.189,2.23,2.365,3.254,3.676
				c0.497,0.637,0.953,1.303,1.398,1.975c0.66,0.998,0.723,1.195,0.869,1.529c0.267,0.604,0.372,1.078,0.424,1.303
				c-0.06,0.07-0.122,0.146-0.146,0.164c-0.725,0.514-1.262,1.105-1.637,1.738c-11.837-6.711-26.435-10.041-38.063-15.459
				c-7.786-3.627-14.657-9.266-21.611-14.238c-6.798-4.859-13.606-9.707-20.619-14.252
				C314.558,366.047,320.034,363.51,324.117,358.256z M287.69,437.217c4.694-5.016,7.659-10.711,4.916-17.014
				c6.248-7.639,4.521-17.883-0.54-26.527c1.723,1.73,3.462,4.16,4.509,5.426c3.34,4.037,6.633,8.039,10.256,11.828
				c4.227,4.422,8.896,8.396,13.812,12.059C310.214,428.994,299.124,433.572,287.69,437.217z M398.299,438.762
				c0.264,2.23,0.059,2.092-1.569,2.68c-5.2,1.879-13.13-0.373-18.592-1.76c-7.395-1.875-14.202-4.529-21.064-7.85
				c-6.77-3.275-13.391-6.83-19.743-10.807c-0.78-2.627-3.392-4.773-6.289-4.152c-3.272-2.279-6.463-4.682-9.531-7.264
				c-8.517-7.17-14.585-16.189-22.352-24.025c-0.065-0.066-0.138-0.133-0.204-0.197c2.199-2.684,3.498-5.973,4.043-9.469
				c12.156,7.834,23.607,16.715,35.615,24.771c8.569,5.748,18.606,8.744,28.202,12.301c9.284,3.441,19.786,7.346,26.451,15.045
				C395.847,431.016,397.832,434.812,398.299,438.762z M393.165,386.908c-1.99-0.236-3.588,0.469-4.693,1.617
				c-16.86-16.023-45.645-32.818-59.609-40.062c2.273-8.797,0.522-18.758-3.604-26.904c1.361-0.785,2.615-1.713,3.771-2.748
				c-1.248,2.848-0.334,7.092,3.538,8.398c20.382,6.875,42.124,16.92,57.857,31.854c4.757,4.514,7.524,10.32,8.799,16.742
				C400.378,381.613,400.546,387.783,393.165,386.908z M400.875,350.639c-0.365,0.943-0.483,1.838-0.441,2.672
				c-7.334-8.562-18.421-14.889-27.831-20.189c-12.047-6.787-24.843-12.295-37.935-16.711c-1.276-0.43-2.382-0.385-3.29-0.016
				c5.859-6.945,8.027-17.193,5.705-26.049c13.73,7.926,28.199,14.518,41.54,23.141c6.935,4.482,13.731,9.811,18.739,16.43
				c2.943,3.891,4.945,6.861,4.834,11.828C402.128,344.801,401.937,347.898,400.875,350.639z M402.188,317.863
				c-0.056,0.131-0.098,0.262-0.144,0.391c-3.304-3.346-6.948-6.357-10.395-8.98c-16.657-12.676-36.233-20.527-54.019-31.35
				c5.747-8.977,4.435-22.068-2.561-31.139c-1.427-1.85-3.03-3.514-4.727-5.078c4.937,1.961,9.737,4.305,14.448,6.705
				c10.994,5.605,21.527,12.094,32.014,18.584c9.357,5.791,18.693,11.713,24.771,21.154
				C407.494,297.346,406.255,308.225,402.188,317.863z M474.831,242.592c-1.846,3.418-1.338,8.434-1.552,12.145
				c-0.347,6.018,1.871,11.16-1.916,16.668c-3.005,4.371-8.191,7.256-12.771,9.674c-3.354,1.773-6.933,2.82-9.587,5.68
				c-5.632,6.064-3.053,16.455-6.829,23.449c-0.444,0.824-1.727,1.844-2.586,2.539c-0.938,0.758-1.922,1.459-2.895,2.172
				c0.326-0.008,0.653-0.016,0.98-0.021c-0.708,0.111-1.402,0.275-2.084,0.492c-3.131,0.906-6.283,2.711-8.266,5.316
				c-2.401,1.6-4.291,3.83-7.033,4.914c-1.5,0.592-6.095,0.635-7.12-0.885c-0.413-0.613-0.886-1.088-1.39-1.455
				c0.09-0.166,0.178-0.336,0.257-0.521c4.801-11.375,6.527-23.566,1.577-35.201c-2.121-4.986-5.22-9.33-8.878-13.195
				c7.306-3.209,14.316-9.371,19.641-14.428c3.12-2.965,6.392-6.773,7.106-11.16c0.269-1.65,0.078-3.123-0.438-4.416
				c4.899-4.092,7.658-9.092,7.521-16.66c-0.062-3.406-0.142-7.641-2.305-10.459c0.007-0.018,0.015-0.037,0.021-0.053
				c0.138-0.049,0.308-0.129,0.547-0.277c2.296-1.422,4.854-2.312,7.087-3.865c8.135-5.662,14.108-17.473,7.191-26.207
				c-4.226-5.336-10.938-7.93-17.774-9.115c4.979-8.785,7.222-18.654,2.001-28.502c-3.645-6.873-9.98-6.758-16.441-6.072
				c1.504-4.328,3.455-8.533,4.802-12.912c2.178-7.088,1.362-14.672-2.042-21.219c-5.644-10.85-17.607-10.723-28.456-10.348
				c0.351-13.137,0.952-27.568-9.376-37.074c-4.408-4.059-10.445-4.146-15.781-2.197c-4.183,1.527-8.709,5.273-13.364,3.699
				c-3.476-1.174-4.151-7.178-5.405-10.098c-2.383-5.549-6.408-8.971-12.17-10.658c-7.124-2.088-15.775,1.287-22.016,4.539
				c-5.825,3.037-11.157,7.047-17.013,10.018c-8.739-11.713-22.169-18.666-36.854-12.363c-12.586,5.402-21.129,17.582-25.473,30.432
				c-4.032-2.783-7.802-5.928-12.36-7.816c-0.454-2.881-1.502-5.592-2.844-8.438c-2.677-5.684-3.245-9.207,1.42-14.057
				c2.676-2.781,8.637-2.383,12.118-3.133c5.039-1.084,10.255-2.949,14.489-5.949c8.05-5.707,11.854-16.816,22.426-18.916
				c10.497-2.084,20.688,3.797,31.143,3.479c11.628-0.352,21.07-8.469,32.324-9.99c5.417-0.732,7.249,2.996,9.947,7.039
				c3.164,4.744,6.608,8.951,12.228,10.729c5.901,1.869,11.591,0.74,17.287-1.285c5.833-2.072,11.079-3.477,17.298-2.23
				c8.892,1.781,13.393,12.232,17.477,19.221c2.79,4.773,5.385,9.6,10.296,12.521c4.232,2.518,8.858,2.955,13.675,3.141
				c4.585,0.178,8.693,0.5,12.805,2.73c5.288,2.869,6.215,8.525,6.234,13.951c0.018,4.883-0.628,9.697,0.01,14.568
				c0.755,5.762,3.58,10.293,7.571,14.383c3.247,3.328,7.549,5.578,10.483,9.217c3.934,4.879,1.446,8.785-1.556,13.275
				c-5.813,8.693-6.196,18.424,2.659,25.318c3.396,2.643,7.262,4.322,9.647,8.059c3.446,5.396-2.247,14.625-4.533,19.486
				c-1.181,2.51-3.079,5.51-2.075,8.367c1.098,3.123,3.829,6.117,5.573,8.936c3.052,4.932,5.999,10.273,6.821,16.092
				C487.841,224.477,479.614,233.732,474.831,242.592z"/>
		</g>
	</g>
	<g>
		<g>
			<path d="M120.667,146.42c-0.021,0.031-0.047,0.061-0.069,0.092c-0.007,0.029-0.015,0.057-0.021,0.086
				c0.054-0.057,0.096-0.098,0.124-0.121C120.687,146.475,120.673,146.457,120.667,146.42z"/>
		</g>
	</g>
	<g>
		<g>
			<path d="M120.701,146.477C120.748,146.488,120.807,146.389,120.701,146.477L120.701,146.477z"/>
		</g>
	</g>
	<g>
		<g>
			<path d="M111.997,139.689c-3.252,3.826-2.852,9.852-2.854,14.553c-0.001,3,3.096,5.277,5.908,5.062
				c3.159-0.242,5.062-2.914,5.062-5.91c0-0.768,0.004-1.535,0.016-2.305c0.006-0.352,0.015-0.703,0.026-1.057
				c0.005-0.16,0.007-0.271,0.009-0.365c0.008-0.088,0.016-0.195,0.027-0.342c0.063-0.857,0.183-1.705,0.34-2.549
				c0.012-0.061,0.031-0.119,0.045-0.18c-0.076,0.078-0.176,0.188-0.316,0.354c0.123-0.145,0.232-0.291,0.337-0.439
				c0.046-0.201,0.091-0.404,0.149-0.604c-0.08,0.295-0.093,0.439-0.08,0.512C124.326,141.082,116.44,134.459,111.997,139.689z"/>
		</g>
	</g>
</g>
</svg>
