<?xml version="1.0" encoding="utf-8"?>
<!-- Generator: Adobe Illustrator 16.0.3, SVG Export Plug-In . SVG Version: 6.00 Build 0)  -->
<!DOCTYPE svg PUBLIC "-//W3C//DTD SVG 1.1//EN" "http://www.w3.org/Graphics/SVG/1.1/DTD/svg11.dtd">
<svg version="1.1" id="Layer_1" xmlns="http://www.w3.org/2000/svg" xmlns:xlink="http://www.w3.org/1999/xlink" x="0px" y="0px"
	 width="512px" height="512px" viewBox="0 0 512 512" style="enable-background:new 0 0 512 512;" xml:space="preserve">
<style type="text/css">
<![CDATA[
	.st0{fill:#127274;}
	.st1{fill:#14B6B9;}
	.st2{fill:#1E4384;}
	.st3{fill:#EF4754;}
	.st4{fill:#EF4823;}
	.st5{fill:#BCBCBC;}
	.st6{fill:#F6851F;}
	.st7{fill:#C56528;}
	.st8{fill:#FCBF95;}
	.st9{fill:#FEBF10;}
	.st10{fill:none;}
	.st11{fill:#010101;}
	.st12{fill:#3AB37C;}
	.st13{fill:#D6E5E5;}
	.st14{fill:#71C598;}
	.st15{fill:#74CCCF;}
]]>
</style>
<g>
	<g>
		<g>
			<path class="st9" d="M211.351,362.078c-3.136-1.09-6.125-2.549-8.823-4.555c-1.987-1.477-2.389-3.443-1.833-5.197
				c-0.771-0.379-1.492-0.982-2.096-1.859c-6.942-10.084,0.95-18.141,10.512-21.018c-0.012-0.156-0.014-0.307-0.023-0.463
				c-15.622,0.699-36.635-2.73-50.257-12.959c0.469,7.334,0.969,14.691,2.163,21.932c1.354,1.277,1.958,3.156,0.957,5.223
				c0.007,0.062,0.008,0.123,0.014,0.184c0.027,0.029,0.052,0.055,0.089,0.09c1.687,1.609,3.566,2.92,5.583,4.078
				c6.11,3.508,12.628,6.305,19.204,8.814c6.643,2.533,13.383,4.816,20.23,6.734c1.643,0.459,3.292,0.896,4.947,1.312
				C211.767,363.652,211.538,362.887,211.351,362.078z"/>
		</g>
	</g>
	<g>
		<g>
			<path class="st9" d="M248.033,342.723c-2.064-2.373-3.957-2.854-7.458-3.537c-8.057-1.576-16.664-1.594-24.737-0.088
				c-2.934,0.547-6.251,1.322-8.547,3.109c-0.744,0.58-0.492,0.205-0.54,0.678c0.069-0.684,0.052-0.119,0.237,0.297
				c-0.239-0.537,0.856,1.316,0.731,1.135c1.002,1.457,1.189,2.93,0.844,4.234c0.414,0.178,0.825,0.408,1.228,0.707
				c4.501,3.346,11.212,4.229,16.625,4.793c4.743,0.494,10.581,1.195,15.108-0.697c0.822-0.344,1.823-0.865,2.827-1.516
				c-0.188-2.68,1.317-5.338,4.722-5.424C249.351,345.213,249.106,343.957,248.033,342.723z"/>
		</g>
	</g>
	<g>
		<g>
			<path class="st9" d="M306.927,319.76c4.678,9.391,7.307,20.24,6.486,29.531c18.265-1.492,37.172-11.92,49.105-25.029
				c1.112-1.221,2.415-1.758,3.699-1.805c0.002-0.004,0.003-0.008,0.005-0.012c4.946-10.48,4.523-23.088,5.13-34.611
				C356.444,307.172,330.876,317.699,306.927,319.76z"/>
		</g>
	</g>
	<g>
		<g>
			<path class="st12" d="M411.113,66.701c-1.382-9.227-11.696-15.262-19.608-18.076c-9.648-3.432-20.123-4.559-30.276-5.342
				c-12.584-0.969-25.18-1.299-37.788-1.826c-32.426-1.355-64.826-3.25-97.215-5.299c-18.453-1.17-36.813-1.809-55.294-0.723
				c-15.387,0.902-32.694,2.271-46.545,9.715c-5.52,2.965-10.887,6.857-13.699,12.635c-1.965,4.039-2.645,8.373-2.485,12.734
				c15.426,10.082,32.101,18.9,50.561,21.539c20.968,2.996,42.834-0.373,63.784-2.154c15.593-1.326,30.844-1.498,46.464-0.652
				c15.468,0.84,30.934,1.889,46.421,2.305c26.187,0.701,55.436,1.498,79.866-9.342C400.953,79.707,412.291,74.566,411.113,66.701z"
				/>
		</g>
	</g>
	<g>
		<g>
			<path class="st12" d="M396.827,93.486c-11.129,4.449-22.685,6.539-34.594,7.744c-30.748,3.107-61.62,0.627-92.377-1.008
				c-15.616-0.83-30.873-0.707-46.463,0.652c-15.696,1.367-31.296,2.658-47.048,3.09c-24.936,0.686-47.279-7.746-68.058-20.445
				c-0.231,0.287-0.488,0.553-0.765,0.793c2.515,17.129,9.919,33.596,14.345,50.199c6.162,23.113,11.349,46.477,17.471,69.582
				c5.991,22.607,11.25,45.473,14.83,68.596c1.225,7.908,2.26,15.85,3.084,23.811c3.064,8.486,11.74,13.67,20.17,16.75
				c10.334,3.777,21.836,5.418,32.812,4.658c0.28-0.02,0.547-0.016,0.807,0c4.455-9.979,15.618-16.406,26.367-19.441
				c15.428-4.355,34.08-5.904,49.35-0.035c5.288,2.031,10.283,6.402,14.498,12.041c0.806-0.859,1.957-1.453,3.475-1.564
				c25.553-1.865,53.74-14.314,64.493-38.959c0.793-1.818,2.134-2.742,3.592-2.992c0.504-7.068,1.009-14.137,1.514-21.203
				c1.814-25.404,4.915-50.66,9.642-75.693c2.47-13.078,5.266-26.096,8.493-39.01c2.022-8.094,4.07-15.887,7.489-23.498
				c3.019-6.725,6.236-13.363,9.112-20.148C405.187,89.895,400.913,91.852,396.827,93.486z"/>
		</g>
	</g>
	<g>
		<g>
			<path class="st12" d="M381.688,296.824c-0.574,10.445-1.051,20.852-5.611,30.516c-0.986,2.09-2.699,2.975-4.454,3.002
				c-0.217,0.4-0.49,0.797-0.841,1.182c-14.541,15.973-38.438,28.893-60.602,28.924c-3.208,5.668-8.849,9.596-17.574,10.375
				c-0.544,0.529-1.247,0.967-2.133,1.26c-14.019,4.639-29.105,8.236-43.9,8.717c-8.292,0.268-17.308-0.582-24.243-4.332
				c-0.632,0.275-1.38,0.426-2.249,0.408c-5.99-0.125-11.993-2.045-17.685-3.74c-8.543-2.545-17.025-5.426-25.26-8.846
				c-6.863-2.852-29.817-11.625-26.568-22.809c-1.735-10.055-2.34-20.197-3.081-30.396c-0.295-4.053-0.659-8.1-1.057-12.143
				c-0.588-1.967-1.008-4.035-1.212-6.229c-39.813-2.023-99.83,30.469-86.73,77.574c4.862,17.486,18.482,30.49,33.623,39.678
				c16.621,10.086,35.011,17.051,53.694,22.24c23.876,6.631,48.591,10.043,73.125,13.27c16.108,2.119,32.346,3.719,48.613,3.371
				c13.721-0.295,27.263-2.129,40.835-4.025c23.782-3.326,47.673-7.385,70.472-15.129c21.646-7.352,44.678-18.189,58.455-37.24
				C468.077,349.898,421.873,307.932,381.688,296.824z"/>
		</g>
	</g>
	<g>
		<g>
			<path class="st12" d="M274.955,338.838c-1.997-10.85-14.88-10.768-24.062-7.559c4.572,2.52,8.334,6.584,9.078,11.961
				c0.144,1.039,0.174,2.059,0.11,3.055C267.67,345.85,275.949,344.24,274.955,338.838z"/>
		</g>
	</g>
	<g>
		<g>
			<path class="st9" d="M300.96,334.459c-2.93-10.557-9.085-23.566-20.642-26.646c-12.833-3.42-27.625-2.633-40.249,1.328
				c-8.644,2.713-20.188,8.18-20.1,18.289c5.598-0.654,11.394-0.764,16.98-0.09c0.358-0.938,1.041-1.809,2.131-2.506
				c14.898-9.533,41.032-9.834,46.373,10.799c4.665,18.021-16.496,21.182-30.527,21.662c-2.078,2.188-4.608,4-7.282,5.312
				c-7.2,3.537-15.543,3.186-23.331,2.24c-0.012-0.002-0.024-0.004-0.037-0.004c5.79,6.639,20.726,5.277,27.742,4.539
				c11.827-1.246,23.53-3.949,34.816-7.684c0.313-0.104,0.617-0.172,0.916-0.223c0.806-0.861,1.958-1.459,3.479-1.57
				C304.009,358.967,303.583,343.916,300.96,334.459z"/>
		</g>
	</g>
	<g>
		<g>
			<path d="M457.794,354.166c-6.058-35.416-42.434-60.201-75.368-68.512c0.853-11.943,1.706-23.889,2.559-35.834
				c1.909-26.719,5.166-53.211,10.138-79.541c3.953-20.934,7.679-42.58,16.491-61.816c3.428-7.482,6.992-14.914,9.919-22.613
				c2.035-5.352,4.708-12.004,2.805-17.764c-0.509-1.539-1.447-2.531-2.562-3.074c-0.723-4.582-2.999-9.027-6.033-12.963
				c-6.265-8.127-15.859-12.438-25.443-15.279c-9.835-2.914-20.219-3.809-30.406-4.539c-13.078-0.938-26.172-1.279-39.271-1.826
				c-32.714-1.367-65.4-3.332-98.076-5.412c-17.837-1.135-35.61-1.518-53.47-0.469c-18.029,1.059-37.218,3.535-53.083,12.76
				c-12.943,7.525-18.672,19.771-18.516,33.311c-1.093,0.969-1.826,2.389-1.8,4.234c0.283,20.32,9.122,39.26,14.534,58.516
				c6.58,23.406,11.39,47.273,17.756,70.709c6.384,23.502,11.792,47.275,15.52,71.35c0.329,2.129,0.63,4.264,0.921,6.398
				c-37.627-0.932-83.264,20.541-95.552,57.854c-5.964,18.109-2.352,37.889,8.362,53.439c10.777,15.641,27.665,26.438,44.49,34.559
				c17.276,8.338,35.846,14.09,54.459,18.58c11.84,2.857,23.886,4.467,35.909,6.369c15.874,2.51,31.776,4.854,47.798,6.186
				c28.077,2.336,55.381-0.695,83.084-5.023c23.893-3.732,47.824-8.762,70.377-17.662
				C426.542,422.998,464.732,394.719,457.794,354.166z M110.688,57.785c2.812-5.777,8.18-9.67,13.699-12.635
				c13.851-7.443,31.158-8.812,46.545-9.715c18.481-1.086,36.841-0.447,55.294,0.723c32.389,2.049,64.789,3.943,97.215,5.299
				c12.608,0.527,25.204,0.857,37.788,1.826c10.154,0.783,20.628,1.91,30.276,5.342c7.913,2.814,18.227,8.85,19.608,18.076
				c1.178,7.865-10.161,13.006-15.815,15.514c-24.431,10.84-53.68,10.043-79.866,9.342c-15.487-0.416-30.953-1.465-46.421-2.305
				c-15.62-0.846-30.871-0.674-46.464,0.652c-20.95,1.781-42.816,5.15-63.784,2.154c-18.46-2.639-35.134-11.457-50.561-21.539
				C108.043,66.158,108.723,61.824,110.688,57.785z M139.339,204.094c-6.122-23.105-11.309-46.469-17.471-69.582
				c-4.426-16.604-11.83-33.07-14.345-50.199c0.277-0.24,0.534-0.506,0.765-0.793c20.778,12.699,43.122,21.131,68.058,20.445
				c15.752-0.432,31.352-1.723,47.048-3.09c15.59-1.359,30.847-1.482,46.463-0.652c30.757,1.635,61.629,4.115,92.377,1.008
				c11.909-1.205,23.465-3.295,34.594-7.744c4.085-1.635,8.36-3.592,12.238-6.082c-2.876,6.785-6.093,13.424-9.112,20.148
				c-3.419,7.611-5.467,15.404-7.489,23.498c-3.228,12.914-6.023,25.932-8.493,39.01c-4.728,25.033-7.828,50.289-9.642,75.693
				c-0.505,7.066-1.01,14.135-1.514,21.203c-1.458,0.25-2.799,1.174-3.592,2.992c-10.752,24.645-38.939,37.094-64.493,38.959
				c-1.518,0.111-2.669,0.705-3.475,1.564c-4.214-5.639-9.21-10.01-14.498-12.041c-15.27-5.869-33.921-4.32-49.35,0.035
				c-10.749,3.035-21.912,9.463-26.367,19.441c-0.26-0.016-0.526-0.02-0.807,0c-10.976,0.76-22.478-0.881-32.812-4.658
				c-8.43-3.08-17.105-8.264-20.17-16.75c-0.824-7.961-1.859-15.902-3.084-23.811C150.589,249.566,145.33,226.701,139.339,204.094z
				 M306.927,319.76c23.949-2.061,49.517-12.588,64.425-31.926c-0.606,11.523-0.184,24.131-5.13,34.611
				c-0.002,0.004-0.003,0.008-0.005,0.012c-1.284,0.047-2.587,0.584-3.699,1.805c-11.934,13.109-30.841,23.537-49.105,25.029
				C314.234,340,311.605,329.15,306.927,319.76z M160.993,337.959c-1.193-7.24-1.693-14.598-2.163-21.932
				c13.623,10.229,34.635,13.658,50.257,12.959c0.009,0.156,0.011,0.307,0.023,0.463c-9.562,2.877-17.454,10.934-10.512,21.018
				c0.604,0.877,1.324,1.48,2.096,1.859c-0.556,1.754-0.154,3.721,1.833,5.197c2.698,2.006,5.687,3.465,8.823,4.555
				c0.188,0.809,0.417,1.574,0.667,2.316c-1.655-0.416-3.305-0.854-4.947-1.312c-6.848-1.918-13.588-4.201-20.23-6.734
				c-6.576-2.51-13.093-5.307-19.204-8.814c-2.017-1.158-3.897-2.469-5.583-4.078c-0.037-0.035-0.062-0.061-0.089-0.09
				c-0.006-0.061-0.006-0.121-0.014-0.184C162.951,341.115,162.347,339.236,160.993,337.959z M209.789,349.258
				c-0.402-0.299-0.813-0.529-1.228-0.707c0.346-1.305,0.159-2.777-0.844-4.234c0.125,0.182-0.97-1.672-0.731-1.135
				c-0.185-0.416-0.168-0.98-0.237-0.297c0.048-0.473-0.204-0.098,0.54-0.678c2.296-1.787,5.613-2.562,8.547-3.109
				c8.073-1.506,16.681-1.488,24.737,0.088c3.502,0.684,5.395,1.164,7.458,3.537c1.074,1.234,1.318,2.49,1.038,3.691
				c-3.404,0.086-4.91,2.744-4.722,5.424c-1.004,0.65-2.005,1.172-2.827,1.516c-4.527,1.893-10.365,1.191-15.108,0.697
				C221.001,353.486,214.29,352.604,209.789,349.258z M224.314,364.848c7.787,0.945,16.13,1.297,23.331-2.24
				c2.674-1.312,5.205-3.125,7.282-5.312c14.031-0.48,35.191-3.641,30.527-21.662c-5.341-20.633-31.475-20.332-46.373-10.799
				c-1.09,0.697-1.772,1.568-2.131,2.506c-5.587-0.674-11.383-0.564-16.98,0.09c-0.088-10.109,11.457-15.576,20.1-18.289
				c12.624-3.961,27.416-4.748,40.249-1.328c11.557,3.08,17.712,16.09,20.642,26.646c2.623,9.457,3.049,24.508-9.729,25.447
				c-1.521,0.111-2.674,0.709-3.479,1.57c-0.299,0.051-0.603,0.119-0.916,0.223c-11.286,3.734-22.989,6.438-34.816,7.684
				c-7.016,0.738-21.952,2.1-27.742-4.539C224.29,364.844,224.302,364.846,224.314,364.848z M259.971,343.24
				c-0.744-5.377-4.506-9.441-9.078-11.961c9.181-3.209,22.065-3.291,24.062,7.559c0.994,5.402-7.285,7.012-14.874,7.457
				C260.145,345.299,260.115,344.279,259.971,343.24z M437.307,392.451c-13.777,19.051-36.809,29.889-58.455,37.24
				c-22.799,7.744-46.69,11.803-70.472,15.129c-13.572,1.896-27.115,3.73-40.835,4.025c-16.267,0.348-32.505-1.252-48.613-3.371
				c-24.535-3.227-49.25-6.639-73.125-13.27c-18.683-5.189-37.073-12.154-53.694-22.24c-15.141-9.188-28.761-22.191-33.623-39.678
				c-13.1-47.105,46.917-79.598,86.73-77.574c0.204,2.193,0.624,4.262,1.212,6.229c0.398,4.043,0.762,8.09,1.057,12.143
				c0.741,10.199,1.346,20.342,3.081,30.396c-3.249,11.184,19.706,19.957,26.568,22.809c8.234,3.42,16.717,6.301,25.26,8.846
				c5.691,1.695,11.694,3.615,17.685,3.74c0.869,0.018,1.617-0.133,2.249-0.408c6.936,3.75,15.951,4.6,24.243,4.332
				c14.795-0.48,29.881-4.078,43.9-8.717c0.887-0.293,1.589-0.73,2.133-1.26c8.725-0.779,14.366-4.707,17.574-10.375
				c22.164-0.031,46.061-12.951,60.602-28.924c0.351-0.385,0.624-0.781,0.841-1.182c1.755-0.027,3.468-0.912,4.454-3.002
				c4.561-9.664,5.037-20.07,5.611-30.516C421.873,307.932,468.077,349.898,437.307,392.451z"/>
		</g>
	</g>
</g>
</svg>
