<?xml version="1.0" encoding="utf-8"?>
<!-- Generator: Adobe Illustrator 16.0.3, SVG Export Plug-In . SVG Version: 6.00 Build 0)  -->
<!DOCTYPE svg PUBLIC "-//W3C//DTD SVG 1.1//EN" "http://www.w3.org/Graphics/SVG/1.1/DTD/svg11.dtd">
<svg version="1.1" id="Layer_1" xmlns="http://www.w3.org/2000/svg" xmlns:xlink="http://www.w3.org/1999/xlink" x="0px" y="0px"
	 width="512px" height="512px" viewBox="0 0 512 512" style="enable-background:new 0 0 512 512;" xml:space="preserve">
<style type="text/css">
<![CDATA[
	.st0{fill:#127274;}
	.st1{fill:#14B6B9;}
	.st2{fill:#1E4384;}
	.st3{fill:#EF4754;}
	.st4{fill:#EF4823;}
	.st5{fill:#BCBCBC;}
	.st6{fill:#F6851F;}
	.st7{fill:#C56528;}
	.st8{fill:#FCBF95;}
	.st9{fill:#FEBF10;}
	.st10{fill:none;}
	.st11{fill:#010101;}
	.st12{fill:#3AB37C;}
	.st13{fill:#D6E5E5;}
	.st14{fill:#71C598;}
	.st15{fill:#74CCCF;}
]]>
</style>
<g>
	<g>
		<g>
			<path class="st9" d="M291.685,113.355c-6.063,0.109-17.954,1.754-17.209,9.916c0.656,7.193,6.398,13.596,11.86,17.836
				c4.604,3.576,11.462,7.721,17.486,5.605c3.91-1.373,6.766,1.586,7.146,4.756c0.044-0.002,0.088-0.004,0.132-0.008
				c-3.802-10.938,9.786-23.236,17.075-29.205c0.08-0.064,0.164-0.131,0.245-0.197C316.114,119.557,304.304,113.125,291.685,113.355
				z"/>
		</g>
	</g>
	<g>
		<g>
			<path class="st9" d="M230.448,47.523c-6.683-2.434-13.458-1.953-20.378-1.129c-9.022,1.074-23.886,3.949-29.365,12.736
				c11.672-1.643,24.221,0.346,31.926,9.617c2.745-1.289,5.624-2.352,8.542-3.201c0.212-0.43,0.484-0.855,0.842-1.27
				c2.497-2.895,10.488-7.205,19.612-10.561C238.137,51.229,234.474,48.988,230.448,47.523z"/>
		</g>
	</g>
	<g>
		<g>
			<path class="st9" d="M263.506,124.119c-0.424-9.729,5.977-16.461,14.318-19.572c-0.948-7.443-12.025-7.422-18.361-5.949
				c-1.434,0.334-2.726,0.139-3.814-0.387c-2.966,3.166-6.602,5.783-10.616,7.859c-0.376,0.924-1.115,1.766-2.312,2.395
				c-5.803,3.059-15.24,10.271-15.589,17.518c-0.001,0.023-0.005,0.047-0.007,0.072c13.275,4.193,25.78,12.984,26.911,27.094
				c9.635-0.016,19.331-0.143,29.054-0.422C272.48,146.125,263.964,134.654,263.506,124.119z"/>
		</g>
	</g>
	<g>
		<g>
			<path class="st9" d="M406.651,136.559v-2.23c0-0.094,0.01-0.18,0.013-0.271c0.047-9.297-0.273-28.807-12.451-22.592
				c-1.434,0.732-2.865,0.811-4.146,0.467c0.183,0.264,0.367,0.525,0.538,0.803c4.006,6.518,3.293,13.988-1.992,19.609
				c-5.763,6.129-13.254,9.656-20.787,12.885c13.096-2.145,26.071-4.836,38.85-8.18
				C406.663,136.889,406.651,136.729,406.651,136.559z"/>
		</g>
	</g>
	<g>
		<g>
			<path class="st9" d="M250.236,76.217c-0.613-0.439-2.686-1.316-4.138-1.627c-2.158-0.463-4.313-0.736-6.52-0.707
				c-5.367,0.072-10.694,0.887-15.806,2.543c-4.942,1.6-9.783,3.688-13.865,6.965c-0.304,0.244-0.595,0.502-0.883,0.762
				c3.754,2.092,4.66,8.486-0.559,9.945c-1.351,0.379-3.534,0.752-4.558,1.91c0.058,0.105,0.135,0.23,0.241,0.379
				c1.66,2.332,4.555,4.006,7.33,4.621c7.186,1.588,16.278,0.086,23.148-2.303c7.164-2.492,14.691-6.926,16.998-14.705
				C252.833,79.936,252.807,78.061,250.236,76.217z"/>
		</g>
	</g>
	<g>
		<g>
			<path class="st9" d="M165.944,118.5c-2.364,0.176-4.562,0.672-6.591,1.426c-0.906,1.078-2.168,1.77-3.611,1.723
				c-7.988,4.725-12.482,14.037-12.606,23.832c-0.02,1.553-0.569,2.807-1.411,3.74c8.162,0.414,16.337,1.006,24.451,1.33
				c2.724,0.107,5.446,0.221,8.169,0.334c-0.123-0.469-0.192-0.984-0.182-1.557c0.204-11.086,6.201-18.135,14.437-22.098
				C189.898,119.871,170.326,118.172,165.944,118.5z"/>
		</g>
	</g>
	<g>
		<g>
			<path class="st9" d="M407.438,84.705c-0.146-5.795-2.142-11.998-4.047-16.227c-3.321-7.367-11.048-18.957-19.678-12.51
				c-0.724,0.539-1.452,0.861-2.165,1.008c2.433,6.135,3.488,12.924,2.988,19.48c-0.538,7.066-11.33,4.887-10.797-2.1
				c0.956-12.549-7.417-28.211-21.253-28.318c-5.917-0.047-12.054,0.48-17.762,2.109c-2.925,0.836-9.496,2.375-10.185,5.811
				c-0.265,1.32-0.871,2.312-1.666,3.01c6.897,4.553,13.461,9.695,19.713,13.512c2.407,1.471,3.068,3.943,2.608,6.139
				c0.187,0.418,0.336,0.869,0.43,1.365c0.632,3.336,0.267,7.09-1.611,9.992c-6.609,10.211-22.272,8.572-32.47,6.324
				c-12.447-2.744-26.348-7.896-34.853-17.854c-3.625-4.244-4.738-9.143-3.946-13.727c-2.328,0.387-5.085-0.748-6.344-3.014
				c-0.535-0.037-3.02,0.061-4.222,0.209c-4.052,0.5-8.018,1.42-11.927,2.59c-1.164,0.348-2.458,0.727-3.818,1.143
				c8.799,1.576,17.229,6.086,16.912,16.139c-0.084,2.67-0.529,5.152-1.246,7.477c12.049-0.916,24.836,3.312,26.585,15.26
				c16.161-0.615,30.511,7.76,46.504,9.482c1.885,0.203,3.106,1.125,3.76,2.348c9.999-6.48,21.711-11.66,32.954-11.115
				c4.899,0.238,9.764,1.451,13.67,4.184c-0.467-1.883,0.148-3.881,2.488-5.076c3.625-1.85,7.809-3.33,11.893-3.057
				c0.393-0.531,0.916-1.023,1.606-1.443c2.981-1.812,4.634-4.576,5.384-7.766C406.307,88.277,406.52,86.213,407.438,84.705z"/>
		</g>
	</g>
	<g>
		<g>
			<path class="st9" d="M381.486,118.887c-2.637-3.768-6.616-4.949-11.123-4.65c-12.622,0.834-24.868,8.178-34.52,15.91
				c-4.309,3.453-8.934,7.451-11.906,12.172c-1.108,1.76-2.062,3.5-2.293,4.713c-0.12,0.635-0.195,0.729-0.221,0.73
				c0.012,0.018,0.037,0.074,0.073,0.215c0.028,0.018,0.05,0.029,0.061,0.029c-0.006,0.014-0.008,0.047-0.006,0.1
				c0.643,0.795,1.021,1.654,1.183,2.521c6.476-0.521,12.945-1.135,19.399-1.861c-0.071-1.621,0.622-3.262,2.431-4.422
				c10.213-6.547,22.593-8.957,32.428-16.312C380.239,125.602,383.962,122.426,381.486,118.887z"/>
		</g>
	</g>
	<g>
		<g>
			<path class="st0" d="M460.847,106.668c-3.577-7.812-14.825-8.867-22.224-9.641c-7.122-0.746-14.6-0.695-21.746-1.92
				c-1.267,3.818-3.354,7.182-6.375,9.805c2.051,2.207,3.645,4.83,4.704,7.734c2.54,6.957,2.447,14.096,2.42,21.344
				c3.458-1.02,6.905-2.072,10.328-3.199c7.929-2.609,15.909-5.734,22.964-10.254C454.939,117.961,463.559,112.592,460.847,106.668z
				"/>
		</g>
	</g>
	<g>
		<g>
			<path class="st9" d="M334.655,78.83c-0.03-0.158-0.046-0.309-0.063-0.459c-6.979-4.559-13.562-9.723-20.765-13.938
				c-6.55-3.832-16.133-9.488-23.972-6.197c-2.068,0.869-5.05,3.166-5.775,4.393c-0.679,1.148-0.86,1.777-0.892,1.965
				c-0.066,0.396-0.215,0.037,0.005,1.398c-0.213-1.314,0.873,2.027,0.355,1.113c0.452,0.799,0.94,1.576,1.518,2.291
				c0.85,1.055,2.94,2.939,4.59,4.137c8.732,6.34,20.222,9.988,30.883,11.105c4.231,0.443,8.842,0.498,12.309-0.988
				c0.237-0.102,0.744-0.268,1.658-1.059c-0.466,0.402,0.142-0.328,0.108-0.262c0.261-0.535,0.311-0.777,0.319-0.801
				C334.924,80.613,334.826,79.73,334.655,78.83z"/>
		</g>
	</g>
	<g>
		<g>
			<path class="st9" d="M321.497,147.977c-0.046-0.029-0.112-0.084-0.225-0.205c0.089,0.098,0.166,0.197,0.247,0.295
				C321.512,148.033,321.504,148.004,321.497,147.977z"/>
		</g>
	</g>
	<g>
		<g>
			<path class="st9" d="M321.552,148.105c-0.011-0.014-0.022-0.025-0.032-0.039c0.021,0.088,0.043,0.195,0.07,0.342
				C321.562,148.256,321.554,148.17,321.552,148.105z"/>
		</g>
	</g>
	<g>
		<g>
			<path class="st9" d="M214.666,134.486c-5.267-0.672-12.672-0.664-18.751,1.305c-0.443,0.246-0.915,0.412-1.399,0.502
				c-5.283,2.064-9.265,5.807-9.382,12.188c-0.021,1.092-0.302,2.035-0.762,2.824c19.612,0.826,39.212,1.615,58.853,1.797
				C242.1,141.205,224.294,135.717,214.666,134.486z"/>
		</g>
	</g>
	<g>
		<g>
			<path class="st12" d="M282.157,332.318c-0.022-1.076,0.192-1.99,0.552-2.768c-1.49,0.369-3.154,0.143-4.696-1.025
				c-2.312-1.75-3.554-3.865-4.22-6.18c-0.242,0.01-0.482,0.031-0.727,0.035c-6.092,0.1-8.35-8.588-2.242-10.678
				c0.793-0.271,1.582-0.545,2.369-0.814c0.122-1.262,0.672-2.547,1.508-3.576c-2.857-3.059-5.35-6.512-7.515-10.184
				c-8.067-3.939-14.015-10.826-20.462-16.918c-6.343-5.992-14.084-12.029-23.424-10.242c-5.61,1.072-9.749,6.096-10.415,11.652
				c-0.408,3.404,0.674,6.359,3.177,7.818c1.759,0.24,3.484,0.594,5.134,1.059c5.572,1.568,5.974,11.055-0.626,10.883
				c-0.496-0.012-0.986-0.049-1.474-0.09v0.004c-0.006-0.002-0.013-0.004-0.019-0.006c-1.758-0.152-3.452-0.49-5.049-1.012
				c-5.02-0.641-11.086-0.281-12.897,4.189c-2.308,5.695,7.527,11.639,11.736,13.369c11.54,4.744,27.938,7.08,39.958,2.867
				c6.742-2.363,10.165,7.727,3.637,10.383c-14.367,5.844-33.01,17.525-27.072,35.855c1.92,5.93,5.741,6.197,11.268,4.436
				c6.219-1.982,12.005-5.053,18.168-7.176c3.235-1.115,7.198,1.176,7.304,4.768c0.184,6.293,3.611,15.553,10.665,17.209
				c7.352,1.727,11.744-5.254,12.279-11.775C290.258,359.982,282.455,346.568,282.157,332.318z"/>
		</g>
	</g>
	<g>
		<g>
			<path class="st12" d="M347.217,307.711c-6.664-3.986-13.406-3.514-20.885-2.762c-7.302,0.734-16.031,1.484-22.114,6.006
				c-5.02,3.73-10.362-2.898-7.702-7.418c-0.201-0.41-0.393-0.842-0.564-1.322c-1.97-5.51,4.717-8.928,8.477-6.248
				c0.42-0.219,0.834-0.451,1.236-0.711c1.731-1.123,3.405-2.326,5.002-3.635c2.623-2.145,5.014-4.533,7.676-6.633
				c7.571-5.973,18.601-13.088,18.467-24.059c-0.125-10.305-7.658-13.648-17.124-11.697c-8.136,1.678-11.692,12.729-15.91,18.797
				c-2.373,3.416-8.19,1.846-9.323-1.812c-2.071-6.689-7.178-14.559-14.637-15.943c-6.585-1.223-13.32,1.301-13.133,8.727
				c0.241,9.516,3.068,20.375,8.037,29.6c1.203,0.857,1.797,2.041,1.918,3.285c2.472,3.953,5.354,7.514,8.638,10.379
				c2.05,1.787,2.239,4.104,1.399,6.02c0.625,0.082,1.293,0.125,2.045,0.127c2.996,0.004,5.667,1.9,5.909,5.062
				c0.175,2.291-1.306,5.016-3.667,5.613c-1.077,0.273-2.152,0.553-3.228,0.828c-0.136,0.209-0.283,0.414-0.458,0.611
				c-0.271,0.309-0.582,0.572-0.912,0.811c1.308,1.689,1.161,3.705,0.185,5.34c2.319-0.365,4.954,0.719,6.286,3.4
				c5.536,11.139,13.492,33.184,29.1,32.396c5.686-0.287,11.158-2.824,12.857-8.852c1.746-6.189-0.104-11.092-6.098-13.801
				c-4.799-2.168-3.477-10.439,2.023-10.412c6.541,0.035,16.139,1.525,21.67-2.844C358.914,321.41,352.667,310.971,347.217,307.711z
				"/>
		</g>
	</g>
	<g>
		<g>
			<path class="st12" d="M223.57,334.379c-20.787,0.084-42.342,2.775-62.418-2.686c3.5,5.924,6.996,11.764,8.377,18.586
				c18.926-0.787,39.363-5.311,55.236-16.021C224.396,334.334,223.998,334.377,223.57,334.379z"/>
		</g>
	</g>
	<g>
		<g>
			<path class="st9" d="M220.961,112.299c-9.236,0.414-19.583-0.848-25.436-9.066c-2.711-3.807-3.057-7.467-1.856-10.607
				c-0.002-0.1-0.009-0.193-0.007-0.295c0.119-4.727,1.595-8.969,4.556-12.693c1.446-1.82,3.119-3.467,4.942-4.973
				c-7.082-7.006-19.85-5.924-28.557-2.902c-9.869,3.424-21.364,10.945-20.968,22.723c0.238,7.08-10.731,7.934-10.971,0.846
				c-0.245-7.305,2.262-13.764,6.399-19.135c-5.549-8.338-18.654-10.807-27.713-7.623c-4.314,1.516-8.224,4.359-8.214,9.355
				c0.018,8.49-0.267,17.582,2.705,25.66c0.07,0.191,0.128,0.381,0.178,0.566c13.777-2.191,29.267,0.064,39.714,5.5
				c3.882-1.48,8.002-2.283,12.156-2.193c10.917,0.236,29.416,4.832,31.664,16.395c5.402-0.912,11.062-0.951,16.322-0.279
				c0.228,0.029,0.459,0.064,0.688,0.096c0.774-4.057,2.596-7.924,5.09-11.414C221.424,112.27,221.19,112.289,220.961,112.299z"/>
		</g>
	</g>
	<g>
		<g>
			<path class="st0" d="M494.456,291.646c-3.313-25.941-6.938-52.316-24.118-73.244c-10.617-12.934-24.246-31.92-20.406-49.133
				c-15.979,7.498-33.821,11.021-51.298,13.061c-12.504,1.457-25.063,2.258-37.609,3.25c-13.126,1.037-26.085,2.865-39.142,4.518
				c-32.643,4.131-65.521,6.609-98.433,6.77c-32.829,0.16-65.422-2.473-98.114-5.119c-10.998-0.891-22.07-1.336-33.078-2.268
				c2.914,12.896-9.736,23.84-19.138,32.002c-8.97,7.787-15.728,19.52-20.959,30.078c-5.837,11.779-9.868,24.262-11.763,37.289
				c-3.475,23.889-0.357,49.176,9.165,71.391c9.379,21.877,25.083,41.244,45.116,54.256c24.459,15.887,53.012,19.518,81.128,24.428
				c0.138-0.008,0.272-0.02,0.417-0.02c19.43,0.064,38.783,1.838,58.102,3.756c18.824,1.869,37.654,3.166,56.508,4.617
				c16.669,1.281,33.081,1.014,49.757,0.561c5.749-0.156,11.567-0.449,17.229-1.521c2.983-0.566,8.703-1.41,10.392-4.373
				c2.326-4.082,7.483-3.295,9.631-0.488c24.85-7.182,49.11-16.783,70.346-31.834c18.116-12.838,32.32-30.283,40.062-51.199
				C496.11,337.189,497.307,313.959,494.456,291.646z M360.451,334.08c-4.514,4.238-10.342,5.68-16.354,6.145
				c5.812,12.562-1.128,30.232-16.97,32.852c-12.028,1.99-20.816-3.051-27.709-10.818c1.752,9.256,1.827,18.33-3.992,26.365
				c-5.92,8.176-17.303,11.932-26.239,6.068c-6.44-4.227-10.989-10.436-12.954-17.645c-5.807,2.492-11.56,5.238-17.852,6.08
				c-9.041,1.211-16.949-3.521-19.373-12.547c-1.893-7.045-2.02-14.131,0.048-20.652c-16.724,7.938-35.941,11.35-53.983,11.451
				c-2.882,0.016-5.814-1.912-5.908-5.062c-0.371-12.49-10.266-21.926-14.706-33.102c-1.796-4.52,3.447-8.904,7.639-6.746
				c15.406,7.932,32.449,8.178,49.43,7.598c-0.528-0.381-1.048-0.777-1.552-1.193c-7.523-6.197-14.271-17.025-6.939-26.104
				c2.659-3.293,6.178-5.367,10.041-6.52c-0.554-1.436-0.947-2.994-1.123-4.688c-0.908-8.748,3.375-18.455,11.046-23.064
				c10.242-6.152,22.747-4.139,32.337,2.338c4.85,3.277,8.958,7.645,13.182,11.834c-2.549-8.375-4.88-19.055-1.016-26.951
				c4.729-9.666,17.229-12.727,26.922-9.502c6.624,2.205,12.044,6.928,15.854,12.725c1.895-3.219,3.898-6.357,6.622-8.949
				c5.061-4.814,12.172-6.496,19.024-6.221c14.408,0.582,23.691,12.047,21.588,26.428c-2.055,14.043-12.883,21.424-22.852,29.781
				c1.989-0.162,3.941-0.281,5.814-0.379c10.938-0.57,20.895,1.545,28.588,9.973C366.512,311.736,369.264,325.803,360.451,334.08z"
				/>
		</g>
	</g>
	<g>
		<g>
			<path class="st0" d="M105.361,106.926c-0.241-0.676-0.469-1.355-0.675-2.043c-12.333,2.275-26.386,9.025-34.244,18.02
				c-7.995,9.148-1.609,15.766,7.202,19.887c0.354-0.223,0.748-0.418,1.189-0.576c2.766-0.992,5.238-2.461,7.873-3.514
				c-0.566-0.746-0.949-1.697-1.04-2.871C84.505,120.768,93.216,111.533,105.361,106.926z"/>
		</g>
	</g>
	<g>
		<g>
			<path class="st0" d="M480.992,92.855c-12.676-19.158-40.793-29.848-62.938-23.41c-0.758,0.221-1.473,0.279-2.143,0.221
				c1.553,4.785,2.448,9.76,2.513,14.529c6.511,1.148,13.296,1.152,19.813,1.783c9.053,0.875,20.131,2.16,27.082,8.732
				c5.834,5.516,9.234,13.756,5.345,21.412c-7.243,14.262-26.985,21.473-41.355,25.77c-58.312,17.438-119.391,22.49-180.009,22.225
				c-31.903-0.141-63.708-1.861-95.575-3.098c-13.685-0.529-27.286-1.043-40.973-1.25c-11.901-0.182-24.112-0.816-35.399-4.928
				c-8.422-3.068-18.861-9.27-21.154-18.748c-1.919-7.936,0.995-15.395,6.621-21.148c10.058-10.285,25.263-18.119,39.869-20.863
				c-0.136-1.451-0.232-2.904-0.299-4.348c-0.034-0.75-0.082-1.523-0.135-2.307C91.981,90.35,81.784,93.629,71.957,97.82
				c-11.145,4.754-22.929,10.668-31.07,19.902c-4.68,5.307-8.285,11.895-7.969,19.184c0.419,9.689,5.25,19.572,12.426,26.074
				c18.113,16.406,45.459,15.213,68.262,16.895c33.046,2.439,65.986,5.826,99.155,6.018c32.886,0.191,65.772-1.723,98.433-5.564
				c13.913-1.637,27.75-3.902,41.71-5.117c12.429-1.08,24.892-1.779,37.307-3.029c24.077-2.426,50.069-6.461,69.804-21.613
				C476.178,138.156,494.676,113.533,480.992,92.855z"/>
		</g>
	</g>
	<g>
		<g>
			<path class="st9" d="M143.843,116.951c-18.592-5.324-48.889-3.789-47.205,18.031c0.109,1.416-0.247,2.578-0.884,3.482
				c2.979,2.252,3.052,7.496-0.287,9.303c9.937,1.211,19.916,1.049,29.909,1.004c2.45-0.012,4.907,0.033,7.366,0.1
				c-0.373-0.691-0.59-1.533-0.577-2.543c0.137-10.74,2.84-21.01,10.835-28.611C143.274,117.457,143.56,117.205,143.843,116.951z"/>
		</g>
	</g>
	<g>
		<g>
			<path class="st0" d="M346.904,458.588c-15.508,0.834-31.086,1.215-46.598,0.287c-20.761-1.244-41.524-2.783-62.221-4.836
				c-20.297-2.014-40.597-4.098-61.016-4.164c-0.33,0-0.643-0.033-0.945-0.08c-0.62,0.111-1.295,0.121-2.026-0.006
				c-0.688-0.121-1.378-0.236-2.067-0.355c-0.042,0.045-0.087,0.088-0.132,0.131c0.45,0.492,0.936,0.953,1.464,1.398
				c2.155,1.818,4.441,3.43,6.885,4.838c5.969,3.438,12.398,5.074,19.111,6.562c10.716,2.379,21.595,3.141,32.336,5.127
				c10.438,1.93,21.022,2.969,31.636,3.191c22.462,0.471,44.903-1.535,67.145-4.543c8.189-1.107,16.805-2.111,24.545-5.166
				c2.939-1.16,5.604-2.645,8.076-4.379C357.633,457.953,351.764,458.326,346.904,458.588z"/>
		</g>
	</g>
	<g>
		<g>
			<path d="M321.497,147.977c0.007,0.027,0.015,0.057,0.022,0.09c0.01,0.014,0.021,0.025,0.032,0.039
				c-0.002-0.053,0-0.086,0.006-0.1C321.547,148.006,321.525,147.994,321.497,147.977z"/>
		</g>
	</g>
	<g>
		<g>
			<path d="M506.65,305.119c-0.523-12.605-2.321-25.387-4.439-37.812c-2.162-12.684-5.584-25.143-11.224-36.738
				c-5.865-12.059-15.06-21.314-22.224-32.473c-6.105-9.508-13.015-23.469-4.498-33.561c1.21-1.434,1.518-2.994,1.238-4.416
				c0.602-0.438,1.213-0.855,1.805-1.311c21.246-16.314,38.09-44.826,23.524-70.92c-6.867-12.305-20.592-21.285-33.438-26.18
				c-13.63-5.195-28.865-6.75-42.978-2.646c-1.047,0.305-1.845,0.809-2.424,1.434c-7.702-14.244-21.216-23.52-34.431-13.646
				c-0.417,0.311-0.763,0.652-1.058,1.01c-5.377-7.238-13.25-12.287-23.158-12.73c-12.107-0.543-36.266,1.584-39.539,16.463
				c-8.373-4.299-17.215-6.68-26.562-4.094c-4.572,1.264-8.351,3.908-10.94,7.264c-1.753-6.621-11.067-7.09-21.554-4.889
				c-6.368-4.93-12.912-9.84-20.542-12.617c-8.93-3.25-18.024-2.787-27.288-1.539c-15.25,2.053-34.358,8.533-38.672,25.141
				c-0.143,0.551-0.197,1.066-0.189,1.555c-3.862,1.521-7.592,3.543-10.951,6.01c-8.783-11.709-27.074-14.562-40.268-9.926
				c-7.174,2.521-12.604,8.1-14.338,15.535c-0.153,0.658-0.267,1.336-0.355,2.025c-16.186,4.49-32.13,9.824-47.038,17.662
				c-14.524,7.635-29.072,19.213-32.563,36.096c-4.218,20.4,10.482,40.691,27.654,49.869c9.129,4.881,19.573,7.15,29.799,8.504
				c0.139,0.428,0.33,0.859,0.593,1.291c5.03,8.26-7.397,17.498-12.769,22.145c-9.104,7.879-15.776,17.818-21.824,28.191
				c-13.098,22.467-18.689,48.285-17.772,74.15c1.722,48.584,29.054,94.609,72.709,116.863c18.28,9.32,38.567,13.121,58.704,16.516
				c-1.248,8.439,15.218,18.539,21.192,21.141c10.345,4.502,22.558,6.17,33.618,7.891c12.403,1.932,24.984,3.803,37.508,4.701
				c25.898,1.859,51.932-0.385,77.614-3.734c9.743-1.271,19.818-2.584,29.085-5.986c9.283-3.408,16.842-9.828,23.111-17.336
				c0.713-0.852,1.11-1.75,1.258-2.635c45.323-13.373,91.422-36.207,112.118-80.943C504.561,350.088,507.573,327.365,506.65,305.119
				z M416.877,95.107c7.146,1.225,14.624,1.174,21.746,1.92c7.398,0.773,18.646,1.828,22.224,9.641
				c2.712,5.924-5.907,11.293-9.929,13.869c-7.055,4.52-15.035,7.645-22.964,10.254c-3.423,1.127-6.87,2.18-10.328,3.199
				c0.027-7.248,0.12-14.387-2.42-21.344c-1.06-2.904-2.653-5.527-4.704-7.734C413.522,102.289,415.61,98.926,416.877,95.107z
				 M283.188,64.594c0.031-0.188,0.213-0.816,0.892-1.965c0.726-1.227,3.707-3.523,5.775-4.393
				c7.839-3.291,17.422,2.365,23.972,6.197c7.203,4.215,13.785,9.379,20.765,13.938c0.018,0.15,0.033,0.301,0.063,0.459
				c0.171,0.9,0.269,1.783,0.278,2.699c-0.009,0.023-0.059,0.266-0.319,0.801c0.033-0.066-0.574,0.664-0.108,0.262
				c-0.914,0.791-1.421,0.957-1.658,1.059c-3.467,1.486-8.077,1.432-12.309,0.988c-10.661-1.117-22.15-4.766-30.883-11.105
				c-1.649-1.197-3.74-3.082-4.59-4.137c-0.577-0.715-1.065-1.492-1.518-2.291c0.518,0.914-0.568-2.428-0.355-1.113
				C282.974,64.631,283.122,64.99,283.188,64.594z M250.254,62.506c3.909-1.17,7.875-2.09,11.927-2.59
				c1.202-0.148,3.687-0.246,4.222-0.209c1.259,2.266,4.016,3.4,6.344,3.014c-0.792,4.584,0.321,9.482,3.946,13.727
				c8.505,9.957,22.405,15.109,34.853,17.854c10.197,2.248,25.86,3.887,32.47-6.324c1.878-2.902,2.243-6.656,1.611-9.992
				c-0.094-0.496-0.243-0.947-0.43-1.365c0.46-2.195-0.201-4.668-2.608-6.139c-6.252-3.816-12.815-8.959-19.713-13.512
				c0.795-0.697,1.401-1.689,1.666-3.01c0.688-3.436,7.26-4.975,10.185-5.811c5.708-1.629,11.845-2.156,17.762-2.109
				c13.836,0.107,22.209,15.77,21.253,28.318c-0.533,6.986,10.259,9.166,10.797,2.1c0.5-6.557-0.556-13.346-2.988-19.48
				c0.713-0.146,1.441-0.469,2.165-1.008c8.63-6.447,16.356,5.143,19.678,12.51c1.905,4.229,3.901,10.432,4.047,16.227
				c-0.919,1.508-1.132,3.572-0.493,5.375c-0.75,3.189-2.402,5.953-5.384,7.766c-0.69,0.42-1.214,0.912-1.606,1.443
				c-4.084-0.273-8.268,1.207-11.893,3.057c-2.34,1.195-2.955,3.193-2.488,5.076c-3.906-2.732-8.771-3.945-13.67-4.184
				c-11.243-0.545-22.955,4.635-32.954,11.115c-0.653-1.223-1.875-2.145-3.76-2.348c-15.993-1.723-30.343-10.098-46.504-9.482
				c-1.749-11.947-14.536-16.176-26.585-15.26c0.717-2.324,1.162-4.807,1.246-7.477c0.317-10.053-8.113-14.562-16.912-16.139
				C247.796,63.232,249.09,62.854,250.254,62.506z M321.59,148.408c-0.027-0.146-0.05-0.254-0.07-0.342
				c-0.081-0.098-0.158-0.197-0.247-0.295c0.112,0.121,0.179,0.176,0.225,0.205c-0.036-0.141-0.062-0.197-0.073-0.215
				c0.025-0.002,0.101-0.096,0.221-0.73c0.23-1.213,1.185-2.953,2.293-4.713c2.973-4.721,7.598-8.719,11.906-12.172
				c9.651-7.732,21.897-15.076,34.52-15.91c4.507-0.299,8.486,0.883,11.123,4.65c2.476,3.539-1.247,6.715-4.494,9.145
				c-9.835,7.355-22.215,9.766-32.428,16.312c-1.809,1.16-2.502,2.801-2.431,4.422c-6.454,0.727-12.924,1.34-19.399,1.861
				c-0.162-0.867-0.54-1.727-1.183-2.521C321.554,148.17,321.562,148.256,321.59,148.408z M311.101,151.461
				c-0.044,0.004-0.088,0.006-0.132,0.008c-0.381-3.17-3.236-6.129-7.146-4.756c-6.024,2.115-12.882-2.029-17.486-5.605
				c-5.462-4.24-11.204-10.643-11.86-17.836c-0.745-8.162,11.146-9.807,17.209-9.916c12.619-0.23,24.43,6.201,36.736,8.703
				c-0.081,0.066-0.165,0.133-0.245,0.197C320.887,128.225,307.299,140.523,311.101,151.461z M174.345,150.885
				c-2.723-0.113-5.445-0.227-8.169-0.334c-8.114-0.324-16.289-0.916-24.451-1.33c0.842-0.934,1.392-2.188,1.411-3.74
				c0.124-9.795,4.618-19.107,12.606-23.832c1.443,0.047,2.705-0.645,3.611-1.723c2.029-0.754,4.227-1.25,6.591-1.426
				c4.382-0.328,23.954,1.371,22.655,8.73c-8.235,3.963-14.232,11.012-14.437,22.098C174.152,149.9,174.222,150.416,174.345,150.885
				z M185.134,148.48c0.117-6.381,4.099-10.123,9.382-12.188c0.484-0.09,0.956-0.256,1.399-0.502
				c6.079-1.969,13.484-1.977,18.751-1.305c9.628,1.23,27.434,6.719,28.559,18.615c-19.641-0.182-39.24-0.971-58.853-1.797
				C184.832,150.516,185.113,149.572,185.134,148.48z M227.125,126.055c0.002-0.025,0.006-0.049,0.007-0.072
				c0.349-7.246,9.786-14.459,15.589-17.518c1.196-0.629,1.936-1.471,2.312-2.395c4.015-2.076,7.65-4.693,10.616-7.859
				c1.089,0.525,2.381,0.721,3.814,0.387c6.336-1.473,17.413-1.494,18.361,5.949c-8.342,3.111-14.742,9.844-14.318,19.572
				c0.458,10.535,8.975,22.006,19.584,28.607c-9.723,0.279-19.419,0.406-29.054,0.422
				C252.905,139.039,240.4,130.248,227.125,126.055z M388.613,132.344c5.285-5.621,5.998-13.092,1.992-19.609
				c-0.171-0.277-0.355-0.539-0.538-0.803c1.28,0.344,2.712,0.266,4.146-0.467c12.178-6.215,12.498,13.295,12.451,22.592
				c-0.003,0.092-0.013,0.178-0.013,0.271v2.23c0,0.17,0.012,0.33,0.024,0.49c-12.778,3.344-25.754,6.035-38.85,8.18
				C375.359,142,382.851,138.473,388.613,132.344z M250.236,76.217c2.57,1.844,2.597,3.719,1.391,7.783
				c-2.307,7.779-9.834,12.213-16.998,14.705c-6.87,2.389-15.963,3.891-23.148,2.303c-2.775-0.615-5.67-2.289-7.33-4.621
				c-0.106-0.148-0.184-0.273-0.241-0.379c1.023-1.158,3.207-1.531,4.558-1.91c5.219-1.459,4.312-7.854,0.559-9.945
				c0.288-0.26,0.579-0.518,0.883-0.762c4.082-3.277,8.923-5.365,13.865-6.965c5.111-1.656,10.438-2.471,15.806-2.543
				c2.206-0.029,4.361,0.244,6.52,0.707C247.551,74.9,249.623,75.777,250.236,76.217z M210.07,46.395
				c6.92-0.824,13.695-1.305,20.378,1.129c4.025,1.465,7.688,3.705,11.179,6.193c-9.124,3.355-17.115,7.666-19.612,10.561
				c-0.357,0.414-0.63,0.84-0.842,1.27c-2.918,0.85-5.797,1.912-8.542,3.201c-7.705-9.271-20.254-11.26-31.926-9.617
				C186.185,50.344,201.048,47.469,210.07,46.395z M113.138,77.928c-0.01-4.996,3.899-7.84,8.214-9.355
				c9.059-3.184,22.164-0.715,27.713,7.623c-4.138,5.371-6.645,11.83-6.399,19.135c0.239,7.088,11.209,6.234,10.971-0.846
				c-0.396-11.777,11.099-19.299,20.968-22.723c8.707-3.021,21.475-4.104,28.557,2.902c-1.823,1.506-3.496,3.152-4.942,4.973
				c-2.961,3.725-4.437,7.967-4.556,12.693c-0.002,0.102,0.005,0.195,0.007,0.295c-1.2,3.141-0.854,6.801,1.856,10.607
				c5.853,8.219,16.199,9.48,25.436,9.066c0.229-0.01,0.463-0.029,0.693-0.041c-2.494,3.49-4.315,7.357-5.09,11.414
				c-0.229-0.031-0.46-0.066-0.688-0.096c-5.261-0.672-10.92-0.633-16.322,0.279c-2.248-11.562-20.747-16.158-31.664-16.395
				c-4.154-0.09-8.274,0.713-12.156,2.193c-10.447-5.436-25.937-7.691-39.714-5.5c-0.05-0.186-0.107-0.375-0.178-0.566
				C112.871,95.51,113.155,86.418,113.138,77.928z M143.843,116.951c-0.283,0.254-0.568,0.506-0.843,0.766
				c-7.995,7.602-10.698,17.871-10.835,28.611c-0.013,1.01,0.204,1.852,0.577,2.543c-2.459-0.066-4.916-0.111-7.366-0.1
				c-9.993,0.045-19.973,0.207-29.909-1.004c3.339-1.807,3.267-7.051,0.287-9.303c0.637-0.904,0.993-2.066,0.884-3.482
				C94.954,113.162,125.251,111.627,143.843,116.951z M105.361,106.926c-12.146,4.607-20.856,13.842-19.694,28.902
				c0.091,1.174,0.474,2.125,1.04,2.871c-2.635,1.053-5.107,2.521-7.873,3.514c-0.441,0.158-0.836,0.354-1.189,0.576
				c-8.812-4.121-15.197-10.738-7.202-19.887c7.858-8.994,21.911-15.744,34.244-18.02C104.893,105.57,105.12,106.25,105.361,106.926
				z M45.344,162.98c-7.176-6.502-12.007-16.385-12.426-26.074c-0.316-7.289,3.289-13.877,7.969-19.184
				c8.142-9.234,19.926-15.148,31.07-19.902c9.827-4.191,20.024-7.471,30.299-10.393c0.053,0.783,0.101,1.557,0.135,2.307
				c0.066,1.443,0.163,2.896,0.299,4.348c-14.606,2.744-29.812,10.578-39.869,20.863c-5.626,5.754-8.54,13.213-6.621,21.148
				c2.293,9.479,12.732,15.68,21.154,18.748c11.287,4.111,23.498,4.746,35.399,4.928c13.687,0.207,27.288,0.721,40.973,1.25
				c31.867,1.236,63.672,2.957,95.575,3.098c60.618,0.266,121.697-4.787,180.009-22.225c14.37-4.297,34.112-11.508,41.355-25.77
				c3.89-7.656,0.489-15.896-5.345-21.412c-6.951-6.572-18.029-7.857-27.082-8.732c-6.518-0.631-13.303-0.635-19.813-1.783
				c-0.064-4.77-0.96-9.744-2.513-14.529c0.67,0.059,1.385,0,2.143-0.221c22.145-6.438,50.262,4.252,62.938,23.41
				c13.684,20.678-4.814,45.301-20.979,57.713c-19.734,15.152-45.727,19.188-69.804,21.613c-12.415,1.25-24.878,1.949-37.307,3.029
				c-13.96,1.215-27.797,3.48-41.71,5.117c-32.66,3.842-65.547,5.756-98.433,5.564c-33.169-0.191-66.109-3.578-99.155-6.018
				C90.803,178.193,63.457,179.387,45.344,162.98z M355.021,460.973c-7.74,3.055-16.355,4.059-24.545,5.166
				c-22.241,3.008-44.683,5.014-67.145,4.543c-10.613-0.223-21.197-1.262-31.636-3.191c-10.741-1.986-21.62-2.748-32.336-5.127
				c-6.713-1.488-13.143-3.125-19.111-6.562c-2.443-1.408-4.729-3.02-6.885-4.838c-0.528-0.445-1.014-0.906-1.464-1.398
				c0.045-0.043,0.09-0.086,0.132-0.131c0.689,0.119,1.38,0.234,2.067,0.355c0.731,0.127,1.406,0.117,2.026,0.006
				c0.303,0.047,0.615,0.08,0.945,0.08c20.419,0.066,40.719,2.15,61.016,4.164c20.696,2.053,41.46,3.592,62.221,4.836
				c15.512,0.928,31.09,0.547,46.598-0.287c4.859-0.262,10.729-0.635,16.192-1.994C360.625,458.328,357.96,459.812,355.021,460.973z
				 M488.25,358.422c-7.742,20.916-21.946,38.361-40.062,51.199c-21.235,15.051-45.496,24.652-70.346,31.834
				c-2.147-2.807-7.305-3.594-9.631,0.488c-1.688,2.963-7.408,3.807-10.392,4.373c-5.661,1.072-11.479,1.365-17.229,1.521
				c-16.676,0.453-33.088,0.721-49.757-0.561c-18.854-1.451-37.684-2.748-56.508-4.617c-19.318-1.918-38.672-3.691-58.102-3.756
				c-0.145,0-0.279,0.012-0.417,0.02c-28.116-4.91-56.669-8.541-81.128-24.428c-20.033-13.012-35.737-32.379-45.116-54.256
				c-9.522-22.215-12.64-47.502-9.165-71.391c1.895-13.027,5.926-25.51,11.763-37.289c5.231-10.559,11.989-22.291,20.959-30.078
				c9.401-8.162,22.052-19.105,19.138-32.002c11.008,0.932,22.08,1.377,33.078,2.268c32.692,2.646,65.285,5.279,98.114,5.119
				c32.912-0.16,65.79-2.639,98.433-6.77c13.057-1.652,26.016-3.48,39.142-4.518c12.546-0.992,25.105-1.793,37.609-3.25
				c17.477-2.039,35.318-5.562,51.298-13.061c-3.84,17.213,9.789,36.199,20.406,49.133c17.181,20.928,20.805,47.303,24.118,73.244
				C497.307,313.959,496.11,337.189,488.25,358.422z"/>
		</g>
	</g>
	<g>
		<g>
			<path d="M359.062,303.574c-7.693-8.428-17.65-10.543-28.588-9.973c-1.873,0.098-3.825,0.217-5.814,0.379
				c9.969-8.357,20.797-15.738,22.852-29.781c2.104-14.381-7.18-25.846-21.588-26.428c-6.853-0.275-13.964,1.406-19.024,6.221
				c-2.724,2.592-4.728,5.73-6.622,8.949c-3.81-5.797-9.229-10.52-15.854-12.725c-9.693-3.225-22.193-0.164-26.922,9.502
				c-3.864,7.896-1.533,18.576,1.016,26.951c-4.224-4.189-8.332-8.557-13.182-11.834c-9.59-6.477-22.095-8.49-32.337-2.338
				c-7.671,4.609-11.954,14.316-11.046,23.064c0.176,1.693,0.569,3.252,1.123,4.688c-3.863,1.152-7.382,3.227-10.041,6.52
				c-7.331,9.078-0.584,19.906,6.939,26.104c0.504,0.416,1.023,0.812,1.552,1.193c-16.98,0.58-34.023,0.334-49.43-7.598
				c-4.191-2.158-9.435,2.227-7.639,6.746c4.44,11.176,14.335,20.611,14.706,33.102c0.094,3.15,3.026,5.078,5.908,5.062
				c18.042-0.102,37.26-3.514,53.983-11.451c-2.067,6.521-1.94,13.607-0.048,20.652c2.424,9.025,10.332,13.758,19.373,12.547
				c6.292-0.842,12.045-3.588,17.852-6.08c1.965,7.209,6.514,13.418,12.954,17.645c8.937,5.863,20.319,2.107,26.239-6.068
				c5.819-8.035,5.744-17.109,3.992-26.365c6.893,7.768,15.681,12.809,27.709,10.818c15.842-2.619,22.782-20.289,16.97-32.852
				c6.013-0.465,11.841-1.906,16.354-6.145C369.264,325.803,366.512,311.736,359.062,303.574z M169.529,350.279
				c-1.381-6.822-4.877-12.662-8.377-18.586c20.076,5.461,41.631,2.77,62.418,2.686c0.428-0.002,0.825-0.045,1.195-0.121
				C208.893,344.969,188.455,349.492,169.529,350.279z M289.074,374.402c-0.535,6.521-4.928,13.502-12.279,11.775
				c-7.054-1.656-10.481-10.916-10.665-17.209c-0.105-3.592-4.068-5.883-7.304-4.768c-6.163,2.123-11.949,5.193-18.168,7.176
				c-5.526,1.762-9.348,1.494-11.268-4.436c-5.938-18.33,12.705-30.012,27.072-35.855c6.528-2.656,3.105-12.746-3.637-10.383
				c-12.021,4.213-28.418,1.877-39.958-2.867c-4.209-1.73-14.044-7.674-11.736-13.369c1.812-4.471,7.878-4.83,12.897-4.189
				c1.597,0.521,3.291,0.859,5.049,1.012c0.006,0.002,0.013,0.004,0.019,0.006v-0.004c0.487,0.041,0.978,0.078,1.474,0.09
				c6.6,0.172,6.198-9.314,0.626-10.883c-1.649-0.465-3.375-0.818-5.134-1.059c-2.503-1.459-3.585-4.414-3.177-7.818
				c0.666-5.557,4.805-10.58,10.415-11.652c9.34-1.787,17.081,4.25,23.424,10.242c6.447,6.092,12.395,12.979,20.462,16.918
				c2.165,3.672,4.657,7.125,7.515,10.184c-0.836,1.029-1.386,2.314-1.508,3.576c-0.787,0.27-1.576,0.543-2.369,0.814
				c-6.107,2.09-3.85,10.777,2.242,10.678c0.244-0.004,0.484-0.025,0.727-0.035c0.666,2.314,1.908,4.43,4.22,6.18
				c1.542,1.168,3.206,1.395,4.696,1.025c-0.359,0.777-0.574,1.691-0.552,2.768C282.455,346.568,290.258,359.982,289.074,374.402z
				 M352.387,326.564c-5.531,4.369-15.129,2.879-21.67,2.844c-5.5-0.027-6.822,8.244-2.023,10.412
				c5.994,2.709,7.844,7.611,6.098,13.801c-1.699,6.027-7.172,8.564-12.857,8.852c-15.607,0.787-23.563-21.258-29.1-32.396
				c-1.332-2.682-3.967-3.766-6.286-3.4c0.977-1.635,1.123-3.65-0.185-5.34c0.33-0.238,0.642-0.502,0.912-0.811
				c0.175-0.197,0.322-0.402,0.458-0.611c1.075-0.275,2.15-0.555,3.228-0.828c2.361-0.598,3.842-3.322,3.667-5.613
				c-0.242-3.162-2.913-5.059-5.909-5.062c-0.752-0.002-1.42-0.045-2.045-0.127c0.84-1.916,0.65-4.232-1.399-6.02
				c-3.284-2.865-6.166-6.426-8.638-10.379c-0.121-1.244-0.715-2.428-1.918-3.285c-4.969-9.225-7.796-20.084-8.037-29.6
				c-0.188-7.426,6.548-9.949,13.133-8.727c7.459,1.385,12.565,9.254,14.637,15.943c1.133,3.658,6.95,5.229,9.323,1.812
				c4.218-6.068,7.774-17.119,15.91-18.797c9.466-1.951,16.999,1.393,17.124,11.697c0.134,10.971-10.896,18.086-18.467,24.059
				c-2.662,2.1-5.053,4.488-7.676,6.633c-1.597,1.309-3.271,2.512-5.002,3.635c-0.402,0.26-0.816,0.492-1.236,0.711
				c-3.76-2.68-10.446,0.738-8.477,6.248c0.172,0.48,0.363,0.912,0.564,1.322c-2.66,4.52,2.683,11.148,7.702,7.418
				c6.083-4.521,14.812-5.271,22.114-6.006c7.479-0.752,14.221-1.225,20.885,2.762C352.667,310.971,358.914,321.41,352.387,326.564z
				"/>
		</g>
	</g>
</g>
</svg>
