<?xml version="1.0" encoding="utf-8"?>
<!-- Generator: Adobe Illustrator 16.0.3, SVG Export Plug-In . SVG Version: 6.00 Build 0)  -->
<!DOCTYPE svg PUBLIC "-//W3C//DTD SVG 1.1//EN" "http://www.w3.org/Graphics/SVG/1.1/DTD/svg11.dtd">
<svg version="1.1" id="Layer_1" xmlns="http://www.w3.org/2000/svg" xmlns:xlink="http://www.w3.org/1999/xlink" x="0px" y="0px"
	 width="512px" height="512px" viewBox="0 0 512 512" style="enable-background:new 0 0 512 512;" xml:space="preserve">
<style type="text/css">
<![CDATA[
	.st0{fill:#127274;}
	.st1{fill:#14B6B9;}
	.st2{fill:#1E4384;}
	.st3{fill:#EF4754;}
	.st4{fill:#EF4823;}
	.st5{fill:#BCBCBC;}
	.st6{fill:#F6851F;}
	.st7{fill:#C56528;}
	.st8{fill:#FCBF95;}
	.st9{fill:#FEBF10;}
	.st10{fill:none;}
	.st11{fill:#010101;}
	.st12{fill:#3AB37C;}
	.st13{fill:#D6E5E5;}
	.st14{fill:#71C598;}
	.st15{fill:#74CCCF;}
]]>
</style>
<g>
	<g>
		<g>
			<path class="st4" d="M409.51,57.549c-4.305-5.521-15.473-9.925-19.122-2.767c0.452,0.675,0.728,1.532,0.735,2.588
				c0.062,9.516,0.926,18.979,2.066,28.42c0.84,6.949,1.875,13.897,5.611,19.993c2.113,3.446,5.904,8.948,10.102,4.663
				c3.073-3.139,5.42-6.68,6.887-10.625c0.016-1.074,0.336-2.15,0.924-3.035c0.268-1.104,0.492-2.225,0.623-3.387
				C418.591,82.207,416.679,66.745,409.51,57.549z"/>
		</g>
	</g>
	<g>
		<g>
			<path class="st4" d="M158.646,104.86c-0.646-14.34-7.365-39.774-26.172-31.669c-0.286,0.794-0.781,1.552-1.529,2.208
				c1.212-1.063,0.367,0.16,0.193,1.5c-0.227,1.753-0.271,3.499-0.219,5.267c0.146,4.939,0.674,9.867,1.446,14.747
				c0.759,4.798,1.661,9.582,2.943,14.271c0.754,2.755,1.84,6.621,2.985,8.271c0.18,0.258,0.322,0.517,0.446,0.774
				c4.976,0.846,10.241,1.095,14.583-1.053C158.339,116.696,158.865,109.715,158.646,104.86z"/>
		</g>
	</g>
	<g>
		<g>
			<path class="st2" d="M478.867,278.278c-0.941-16.473,0.538-33.041,1.52-49.479c1.168-19.56,2.197-39.223,1.071-58.81
				c-1.028-17.886-3.349-37.012-11.761-53.132c-3.799-7.278-8.598-14.04-14.964-19.301c-3.361-2.778-6.968-5.175-10.905-7.065
				c-5.169-2.481-10.916-3.588-16.367-5.325c0.367,4.673,0.29,9.223-0.166,13.292c-0.108,0.967-0.258,1.93-0.434,2.888
				c5.783,3.63,8.144,10.792,6.696,18.02c-1.931,9.642-8.452,18.933-17.71,22.768c-10.141,4.2-24.711,1.097-32.775-6.269
				c-4.235-3.867-7.613-9.42-7.307-15.374c0.179-3.478,0.506-7.26,2.454-10.273c0.919-1.421,1.858-2.813,2.902-4.146
				c0.046-0.06,0.093-0.127,0.138-0.196c0.048-2.098,1.283-4.236,3.408-4.939c-0.086-0.37-0.172-0.74-0.251-1.11
				c-0.494-2.319-0.899-4.688-1.259-7.076c-18.781,0.862-37.511,2.487-56.264,3.812c-19.439,1.374-38.805,1.743-58.275,2.193
				c-33.701,0.779-68.387,4.737-101.504-3.261c0.933,4.36,1.411,8.789,1.504,13.016c0.016,0.687,0.014,1.389,0.002,2.096
				c10.879,6.113,17.094,17.973,11.881,30.183c-5.031,11.782-17.688,19.088-30.208,19.739c-11.519,0.601-27.341-0.858-34.785-11.028
				c-7.076-9.667-1.478-27.823,10.06-31.759c-1.477-5.838-2.665-11.772-3.484-17.739c-49.928-6.945-59.383,54.763-60.466,91.677
				c-0.455,15.533,0.138,31.114,1.763,46.57c2.324,22.107,7.188,43.861,9.812,65.947c1.869,15.719,3.245,31.501,3.9,47.319
				c0.573,13.8,0.02,27.683,1.107,41.453c1.562,19.755,6.585,40.745,22.154,54.31c20.235,17.631,50.396,20.314,76.123,20.337
				c30.578,0.026,60.827-4.602,91.225-7.255c31.709-2.768,63.08,0.283,94.723,2.48c16.281,1.13,32.645,1.938,48.964,1.152
				c9.991-0.48,19.866-1.709,29.206-5.488c31.367-12.691,40.576-47.031,42.775-77.83
				C485.814,346.448,480.818,312.382,478.867,278.278z M458.542,414.109c-0.255,0.909-0.765,1.737-1.422,2.413v2.248
				c0,2.688-1.729,5.196-4.603,5.371c-28.717,1.747-57.479,2.115-86.195,4.041c-28.881,1.938-57.756,3.964-86.643,5.804
				c-57.313,3.65-114.7,6.62-172.145,6.654c-5.058,0.003-6.621-6.187-3.904-8.813c-0.266-15.396-2.659-30.75-3.06-46.17
				c-0.558-21.499-1.533-42.984-2.616-64.463c-2.201-43.688-4.752-87.384-4.79-131.143c-0.003-3.359,2.729-5.175,5.333-5.223
				c0.633-0.158,1.337-0.195,2.107-0.07c28.529,4.627,57.594,3.44,86.339,1.99c29.377-1.481,58.606-1.916,88.014-2.152
				c30.986-0.25,62.054-1.061,92.863-4.608c14.694-1.692,29.091-4.056,43.915-4.333c12.828-0.241,25.728-0.127,38.413-2.148
				c0.048-6.374,9.971-7.153,9.971-0.725v4.5c0,2.924-1.689,4.695-4.404,5.317c-0.229,0.25-0.487,0.489-0.786,0.712
				c0.671-0.5,0.119-0.298-0.361,0.898c-0.227,0.568-0.436,1.278-0.637,2.254c-0.58,2.81-0.918,5.684-1.035,8.549
				c-0.31,7.537-0.033,15.094,0.455,22.617c0.859,13.188,3.299,26.367,3.848,39.545c1.146,27.58,2.262,55.167,2.705,82.77
				c0.204,12.764,0.037,25.529,0.705,38.279C461.237,390.2,461.814,402.439,458.542,414.109z"/>
		</g>
	</g>
	<g>
		<g>
			<path class="st11" d="M488.657,260.8c0.934-35.951,5.829-71.897,1.315-107.812c-2.139-17.021-6.601-34.152-16.032-48.666
				c-4.374-6.729-10.062-12.672-16.582-17.339c-8.716-6.239-18.216-8.47-28.27-11.72c-1.201-0.387-2.235-0.317-3.079,0.054
				c-2.011-9.118-5.924-17.765-12.294-23.296c-11.362-9.868-30.404-8.956-33.987,7.697c-0.429,1.994,0.26,3.546,1.443,4.539
				c0.061,5.646,0.258,11.452,0.711,17.231c-0.262-0.082-0.521-0.169-0.792-0.226c-2.175-0.453-3.827,0.415-4.8,1.8
				c-35.051,1.792-69.915,5.245-105.055,5.658c-35.872,0.42-72.54,5.506-107.635-4.459c-0.039-0.011-0.078-0.017-0.117-0.027
				c-1.611-3.562-3.639-6.881-6.148-9.76c-8.699-9.977-20.762-10.176-31.982-4.448c-2.005,1.023-2.616,2.696-2.324,4.316
				c-2.505,4.193-2.699,9.956-2.246,15.45c-70.885-7.05-72.07,95.166-67.93,143.42c1.692,19.714,5.9,39.051,8.66,58.624
				c4.345,30.823,5.477,61.485,6.244,92.546c0.504,20.452,3.964,41.768,15.786,58.936c13.802,20.045,37.007,28.199,60.082,31.85
				c29.877,4.728,60.468,1.854,90.344-1.295c15.066-1.588,30.118-3.32,45.233-4.396c16.158-1.152,32.453-0.326,48.594,0.75
				c31.01,2.066,62.748,6.43,93.814,3.065c17.039-1.847,33.102-8.362,45.445-20.403c23.986-23.398,26.938-61.523,26.914-93.036
				C493.944,326.768,487.799,293.851,488.657,260.8z M409.51,61.967c7.169,9.196,9.081,24.658,7.826,35.851
				c-0.131,1.162-0.355,2.283-0.623,3.387c-0.588,0.885-0.908,1.961-0.924,3.035c-1.467,3.945-3.813,7.486-6.887,10.625
				c-4.197,4.285-7.988-1.217-10.102-4.663c-3.736-6.096-4.771-13.044-5.611-19.993c-1.141-9.441-2.005-18.904-2.066-28.42
				c-0.008-1.056-0.283-1.913-0.735-2.588C394.037,52.042,405.205,56.445,409.51,61.967z M388.787,112.616
				c1.729,3.451,3.899,6.663,6.611,9.441c5.727,5.867,14.123,5.52,20.045,0.27c3.333-2.954,5.975-6.536,7.934-10.466
				c1.117,2.413,0.573,5.845-0.355,8.485c-2.278,6.48-7.633,12.568-14.698,13.594c-7.757,1.126-19.403-2.934-22.19-10.783
				C384.666,119.018,386.605,115.76,388.787,112.616z M130.945,79.817c0.748-0.656,1.243-1.414,1.529-2.208
				c18.807-8.106,25.525,17.329,26.172,31.669c0.219,4.854-0.308,11.836-5.322,14.317c-4.342,2.147-9.607,1.898-14.583,1.053
				c-0.124-0.258-0.267-0.517-0.446-0.774c-1.146-1.65-2.231-5.517-2.985-8.271c-1.282-4.689-2.185-9.474-2.943-14.271
				c-0.772-4.88-1.3-9.808-1.446-14.747c-0.053-1.768-0.008-3.514,0.219-5.267C131.312,79.978,132.157,78.754,130.945,79.817z
				 M130.195,133.077c9.494,2.167,20.068,3.654,28.933-1.332c4.073-2.291,6.494-6.021,7.873-10.232
				c4.404,3.607,6.779,8.812,4.543,14.824c-3.006,8.076-11.836,13.154-20.07,14.061c-8.28,0.911-17.538,0.035-24.867-4.131
				c-3.674-2.089-4.589-5.004-3.997-8.979c0.434-2.906,1.616-6.224,3.771-8.374C126.622,130.792,127.822,132.536,130.195,133.077z
				 M483.371,380.673c-2.199,30.799-11.408,65.139-42.775,77.83c-9.34,3.779-19.215,5.008-29.206,5.488
				c-16.319,0.785-32.683-0.022-48.964-1.152c-31.643-2.197-63.014-5.248-94.723-2.48c-30.397,2.653-60.646,7.281-91.225,7.255
				c-25.727-0.022-55.888-2.706-76.123-20.337c-15.569-13.564-20.593-34.555-22.154-54.31c-1.088-13.771-0.534-27.653-1.107-41.453
				c-0.655-15.818-2.031-31.601-3.9-47.319c-2.625-22.086-7.488-43.84-9.812-65.947c-1.625-15.456-2.218-31.037-1.763-46.57
				c1.083-36.914,10.538-98.622,60.466-91.677c0.819,5.967,2.008,11.901,3.484,17.739c-11.537,3.936-17.136,22.092-10.06,31.759
				c7.444,10.17,23.267,11.629,34.785,11.028c12.521-0.651,25.177-7.957,30.208-19.739c5.213-12.21-1.002-24.069-11.881-30.183
				c0.012-0.707,0.014-1.409-0.002-2.096c-0.093-4.227-0.571-8.655-1.504-13.016c33.117,7.998,67.803,4.04,101.504,3.261
				c19.471-0.45,38.836-0.819,58.275-2.193c18.753-1.325,37.482-2.95,56.264-3.812c0.359,2.388,0.765,4.757,1.259,7.076
				c0.079,0.37,0.165,0.74,0.251,1.11c-2.125,0.703-3.36,2.842-3.408,4.939c-0.045,0.069-0.092,0.137-0.138,0.196
				c-1.044,1.333-1.983,2.726-2.902,4.146c-1.948,3.014-2.275,6.796-2.454,10.273c-0.307,5.954,3.071,11.507,7.307,15.374
				c8.064,7.365,22.635,10.469,32.775,6.269c9.258-3.835,15.779-13.126,17.71-22.768c1.447-7.228-0.913-14.39-6.696-18.02
				c0.176-0.958,0.325-1.921,0.434-2.888c0.456-4.069,0.533-8.619,0.166-13.292c5.451,1.737,11.198,2.844,16.367,5.325
				c3.938,1.891,7.544,4.287,10.905,7.065c6.366,5.261,11.165,12.022,14.964,19.301c8.412,16.12,10.732,35.246,11.761,53.132
				c1.126,19.587,0.097,39.25-1.071,58.81c-0.981,16.438-2.461,33.007-1.52,49.479C480.818,312.382,485.814,346.448,483.371,380.673
				z"/>
		</g>
	</g>
	<g>
		<g>
			<path class="st4" d="M450.301,372.138c-0.511-13.668-0.252-27.377-0.555-41.052c-0.315-14.173-0.765-28.343-1.297-42.509
				c-0.434-11.578-0.181-23.476-1.607-34.975c-1.777-14.318-3.344-28.71-3.873-43.136c-0.27-7.361-0.438-14.874,0.53-22.196
				c0.169-1.281,0.374-2.601,0.655-3.906c-11.092,1.154-22.296,1.015-33.459,1.303c-14.84,0.383-29.289,2.916-44.016,4.508
				c-30.853,3.334-61.891,4.213-92.903,4.408c-29.979,0.189-59.761,0.881-89.708,2.319c-26.929,1.292-54.138,2.144-80.904-1.657
				c0.25,41.767,2.674,83.475,4.765,125.18c1.108,22.125,2.146,44.258,2.663,66.406c0.342,14.641,2.697,29.193,3,43.812
				c55.821-0.255,111.592-3.177,167.289-6.755c28.885-1.856,57.757-3.881,86.636-5.809c26.538-1.773,53.118-2.177,79.665-3.658
				c0.02-0.193,0.074-0.365,0.113-0.547l-1.462-1.462c-3.896-3.895,0.401-10.015,4.591-8.758
				C451.755,393.243,450.693,382.659,450.301,372.138z"/>
		</g>
	</g>
	<g>
		<g>
			<path class="st11" d="M460.609,378.224c-0.668-12.75-0.501-25.516-0.705-38.279c-0.443-27.603-1.559-55.189-2.705-82.77
				c-0.549-13.178-2.988-26.356-3.848-39.545c-0.488-7.523-0.765-15.08-0.455-22.617c0.117-2.865,0.455-5.739,1.035-8.549
				c0.201-0.976,0.41-1.686,0.637-2.254c0.48-1.196,1.032-1.398,0.361-0.898c0.299-0.223,0.558-0.462,0.786-0.712
				c2.715-0.622,4.404-2.394,4.404-5.317v-4.5c0-3.013-2.18-4.442-4.5-4.455h-0.005c-2.63-0.013-5.44,1.795-5.466,5.18
				c-12.686,2.021-25.585,1.907-38.413,2.148c-14.824,0.277-29.221,2.641-43.915,4.333c-30.81,3.548-61.877,4.358-92.863,4.608
				c-29.407,0.236-58.637,0.671-88.014,2.152c-28.745,1.45-57.81,2.637-86.339-1.99c-0.771-0.125-1.475-0.088-2.107,0.07
				c-2.604,0.048-5.336,1.863-5.333,5.223c0.038,43.759,2.589,87.454,4.79,131.143c1.083,21.479,2.059,42.964,2.616,64.463
				c0.4,15.42,2.794,30.773,3.06,46.17c-2.717,2.627-1.153,8.816,3.904,8.813c57.444-0.034,114.831-3.004,172.145-6.654
				c28.887-1.84,57.762-3.866,86.643-5.804c28.716-1.926,57.479-2.294,86.195-4.041c2.873-0.175,4.603-2.683,4.603-5.371v-2.248
				c0.657-0.676,1.167-1.504,1.422-2.413C461.814,402.439,461.237,390.2,460.609,378.224z M450.424,403.654
				c-4.189-1.257-8.486,4.863-4.591,8.758l1.462,1.462c-0.039,0.182-0.094,0.354-0.113,0.547
				c-26.547,1.481-53.127,1.885-79.665,3.658c-28.879,1.928-57.751,3.952-86.636,5.809c-55.697,3.578-111.468,6.5-167.289,6.755
				c-0.303-14.618-2.658-29.171-3-43.812c-0.518-22.148-1.555-44.281-2.663-66.406c-2.091-41.705-4.515-83.413-4.765-125.18
				c26.767,3.801,53.976,2.949,80.904,1.657c29.947-1.438,59.729-2.13,89.708-2.319c31.013-0.195,62.051-1.074,92.903-4.408
				c14.727-1.592,29.176-4.125,44.016-4.508c11.163-0.288,22.367-0.148,33.459-1.303c-0.281,1.306-0.486,2.625-0.655,3.906
				c-0.969,7.322-0.8,14.835-0.53,22.196c0.529,14.426,2.096,28.817,3.873,43.136c1.427,11.499,1.174,23.396,1.607,34.975
				c0.532,14.166,0.981,28.336,1.297,42.509c0.303,13.675,0.044,27.384,0.555,41.052
				C450.693,382.659,451.755,393.243,450.424,403.654z"/>
		</g>
	</g>
	<g>
		<g>
			<path class="st11" d="M163.018,250.067c-11.553,0.327-23.112,1.562-34.668,1.644c-7.089,0.049-6.217,11.02,0.849,10.969
				c7.669-0.053,15.357-0.699,23.027-1.145c-1.504,10.869,1.739,21.797,3.787,32.508c2.793,14.621,5.652,29.219,7.777,43.957
				c1.529,10.6,4.372,24.529-0.666,34.504c-2.727,5.398-11.703,9.318-18.746,8.701c0.426-3.828-4.141-8.133-8.68-5.569
				c-1.912,1.08-3.488,2.394-5.057,3.929c-2.063,2.021-1.724,6.003,0.502,7.764c9.518,7.528,22.646,5.006,32.531-0.447
				c12.037-6.641,13.501-20.836,12.77-33.184c-0.955-16.131-4.019-32.133-7.039-47.98c-1.529-8.025-3.152-16.025-4.816-24.023
				c-1.43-6.872-2.464-13.785-1.107-20.643c3.306-0.101,6.613-0.162,9.92-0.143c1.833,0.012,3.512,0.05,5.146,0.193
				c0.694,0.062,1.384,0.16,2.071,0.279c0.092,0.018,0.182,0.043,0.272,0.062c3.073,2.099,7.889,1.454,8.282-3.199
				C190.139,246.855,169.663,249.879,163.018,250.067z M178.376,256.146c-0.199,2.355,0.896,4.16,2.455,5.253
				C179.459,260.956,178.052,259.96,178.376,256.146z"/>
		</g>
	</g>
	<g>
		<g>
			<path class="st11" d="M262.312,328.21c-0.795-12.634-2.808-25.147-3.628-37.786c-0.897-13.833-2.439-27.559-5.72-41.047
				c-0.687-2.828-4.427-4.406-7.009-3.373c-2.029,0.812-3.022,1.879-4.314,3.561c-2.541,3.303-0.717,7.186,2.093,8.668
				c1.97,9.674,2.991,19.499,3.726,29.348c0.82,11.018,1.923,21.918,3.117,32.898c1.172,10.771,1.781,21.637-0.321,32.328
				c-1.528,7.77-5.898,17.89-15.105,18.175c-8.161,0.253-11.233-13.696-12.322-19.46c-1.864-9.871-1.866-20.032-2.774-30.012
				c-0.998-10.98-4.267-21.551-6.792-32.243c-2.993-12.671-5.268-25.481-6.003-38.495c-0.398-7.078-11.369-6.238-10.969,0.848
				c1.542,27.322,11.724,52.975,13.508,80.17c1.134,17.268,2.765,50.889,27.237,50.131c9.435-0.293,16.796-8.453,20.666-16.277
				C263.237,354.452,263.075,340.338,262.312,328.21z"/>
		</g>
	</g>
	<g>
		<g>
			<path class="st11" d="M315.698,368.636c-2.186,1.655-8.453,1.308-11.594,1.741c-2.859,0.394-9.707,2.987-11.627,0.169
				c-3.194-4.687-2.402-13.152-2.355-18.496c0.056-6.347,0.555-12.685,0.232-19.031c-0.775-15.278-2.896-30.433-5.823-45.438
				c-1.358-6.963-2.755-13.842-5.2-20.513c-2.134-5.817-5.597-12.454-5.158-18.823c0.48-6.98-10.311-9.164-10.797-2.098
				c-0.526,7.623,1.816,14.548,4.463,21.607c2.987,7.969,4.828,15.925,6.418,24.283c3.219,16.912,5.633,34.379,5.154,51.627
				c-0.303,10.918-3.146,32.622,9.709,38.021c5.278,2.219,11.486,0.26,16.868-0.482c5.017-0.69,11.617-0.234,15.861-3.448
				C327.487,373.487,321.366,364.346,315.698,368.636z"/>
		</g>
	</g>
	<g>
		<g>
			<path class="st11" d="M348.259,251.771c0.01-7.089-10.961-6.211-10.969,0.848c-0.009,6.908-0.12,13.812-0.313,20.713
				c-3.019-2.314-6.104-4.549-9.162-6.803c-5.121-3.775-10.249-7.543-15.275-11.445c-2.071-1.608-4.112-3.256-6.1-4.968
				c-1.107-0.955-3.137-3.038-3.105-2.997c-4.257-5.646-13.4,0.477-9.119,6.152c5.612,7.441,14.607,12.854,21.996,18.32
				c4.582,3.39,9.19,6.744,13.726,10.197c1.546,1.178,3.076,2.378,4.568,3.623c0.438,0.367,0.861,0.751,1.28,1.138
				c0.179,0.357,0.411,0.675,0.665,0.972c-0.509,10.849-1.251,21.688-2.249,32.512c-0.967,10.484-3.513,20.76-4.652,31.227
				c-0.558,5.127-0.259,10.375-0.259,15.527c0,1.018,0.016,1.433,0.028,1.59c-0.024,0.053-0.073,0.301-0.168,1.078
				c-0.553,0.854-0.885,1.909-0.86,3.164c0.018,1.023,0.027,2.057,0.427,3.025c1.438,3.479,6.737,5.375,9.325,1.812
				c3.449-4.75,2.217-12.98,2.217-18.377c0-11.837,3.09-23.373,4.537-35.076C347.744,300.168,348.229,275.761,348.259,251.771z"/>
		</g>
	</g>
	<g>
		<g>
			<path class="st11" d="M431.774,357.127c-0.905-2.388-1.852-4.757-2.712-7.161c-1.3-3.637-1.272-7.889-1.646-11.711
				c-0.532-5.438-0.819-10.913-0.966-16.404c5.58-0.811,5.142-9.236-0.126-10.682c0.008-10.074,0.298-20.164,0.298-30.156
				c0-7.089-10.969-6.211-10.969,0.848c0,9.665-0.215,19.384-0.224,29.092h-21.716c-7.209,0-5.677-6.988-5.387-12.347
				c1.168-21.6,1.529-44.168-1.705-65.593c-1.051-6.961-12.031-6.186-10.969,0.848c3.576,23.699,1.477,47.536,1.52,71.354
				c0.015,8.098,3.916,14.313,11.962,16.272c5.521,1.344,12.072,0.435,17.706,0.435h8.694c0.087,3.853,0.222,7.699,0.454,11.536
				c0.398,6.577,0.559,13.869,2.69,20.146c0.701,2.068,1.529,4.099,2.317,6.136c0.377,0.977,0.748,1.956,1.111,2.938
				c0.479,1.295,0.512,3.771,0.74,0.621c0.077-0.117,0.154-0.234,0.232-0.351c-1.072,4.474,3.715,9.631,8.133,6.049
				C435.301,365.682,433.329,361.226,431.774,357.127z"/>
		</g>
	</g>
</g>
</svg>
