<?xml version="1.0" encoding="utf-8"?>
<!-- Generator: Adobe Illustrator 16.0.3, SVG Export Plug-In . SVG Version: 6.00 Build 0)  -->
<!DOCTYPE svg PUBLIC "-//W3C//DTD SVG 1.1//EN" "http://www.w3.org/Graphics/SVG/1.1/DTD/svg11.dtd">
<svg version="1.1" id="Layer_1" xmlns="http://www.w3.org/2000/svg" xmlns:xlink="http://www.w3.org/1999/xlink" x="0px" y="0px"
	 width="512px" height="512px" viewBox="0 0 512 512" style="enable-background:new 0 0 512 512;" xml:space="preserve">
<style type="text/css">
<![CDATA[
	.st0{fill:#127274;}
	.st1{fill:#14B6B9;}
	.st2{fill:#1E4384;}
	.st3{fill:#EF4754;}
	.st4{fill:#EF4823;}
	.st5{fill:#BCBCBC;}
	.st6{fill:#F6851F;}
	.st7{fill:#C56528;}
	.st8{fill:#FCBF95;}
	.st9{fill:#FEBF10;}
	.st10{fill:none;}
	.st11{fill:#010101;}
	.st12{fill:#3AB37C;}
	.st13{fill:#D6E5E5;}
	.st14{fill:#71C598;}
	.st15{fill:#74CCCF;}
]]>
</style>
<g>
	<g>
		<g>
			<path class="st13" d="M166.378,354.259c-1.575-0.195-3.144-0.377-4.493-0.841c-3.902-1.345-6.862-4.114-8.614-7.832
				c-0.109-0.231-0.207-0.479-0.307-0.724c-0.646,1.391-1.243,2.803-1.754,4.248c-0.936,2.645-3.047,3.457-5.108,3.066
				c0.087,0.936,0.173,1.869,0.256,2.803c1.645,1.402,2.731,3.895,3.893,5.59c2.086,3.043,5.913,4.625,9.415,5.443
				c0.375,0.088,0.756,0.176,1.132,0.264c0.838-1.016,1.991-1.799,3.331-2.102c-1.694-2.158-1.729-4.854,0.022-7.143
				C164.875,356.086,165.618,355.163,166.378,354.259z"/>
		</g>
	</g>
	<g>
		<g>
			<path class="st4" d="M300.798,119.087c0-0.371,0.036-0.721,0.094-1.057c-14.762-0.463-29.522-1.434-44.259-2.217
				c-2.082-0.111-4.158-0.201-6.23-0.277c-0.068,17.143,3.598,34.227,4.844,51.297c1.268,17.359,2.28,34.705,4.055,52.023
				c1.796,17.527,3.598,35.064,4.713,52.65c1.012,15.914,1.19,31.846,2.188,47.758c0.088,0.291,0.153,0.6,0.191,0.932
				c9.821-1.453,19.597-3.211,29.316-5.248c0.197-1.279,0.865-2.525,2.165-3.512c-1.73,1.312-1.173,1.688-0.951-0.254
				c0.091-0.805,0.186-1.611,0.215-2.422c0.093-2.615,0.104-5.23,0.104-7.848c0.001-5.715,0.497-11.338,0.901-17.036
				c1.3-18.313,2.035-36.661,2.409-55.015C301.303,192.274,300.807,155.679,300.798,119.087z"/>
		</g>
	</g>
	<g>
		<g>
			<path class="st13" d="M165.531,364.038c0.601,0.02,1.225,0.133,1.865,0.365C166.165,362.972,165.546,362.854,165.531,364.038z"/>
		</g>
	</g>
	<g>
		<g>
			<path class="st4" d="M211.388,302.505c-0.995-10.453-3.076-20.893-5.131-31.18c-4.589-22.984-10.355-45.752-14.191-68.883
				c-3.125-18.84-4.909-37.965-9.977-56.408c-1.749-6.367-3.477-12.781-4.616-19.289c-0.401-2.295-0.941-5.107-0.827-7.762
				c-4.499,0.248-9.004,0.447-13.522,0.572c-11.576,0.318-22.588-1.348-33.149-4.475c3.354,17.186,9.495,33.674,13.506,50.709
				c4.275,18.168,8.425,36.328,13.869,54.191c5.546,18.199,12.286,36.047,17.208,54.436c2.23,8.332,4.298,16.818,5.558,25.359
				c0.97,6.574,1.287,13.951,4.729,19.811c1.034,1.762,1.005,3.529,0.358,5.008c1.48,0.146,2.965,0.277,4.454,0.367
				c8.497,0.516,17.101,0.512,25.709,0.17C212.027,318.169,212.108,310.077,211.388,302.505z"/>
		</g>
	</g>
	<g>
		<g>
			<path class="st13" d="M236.64,361.052c-1.104-2.175-1.652-4.303-1.609-6.328c-1.773-0.502-3.436-1.199-4.641-2.984
				c-0.493-0.73-0.846-1.5-1.101-2.295c-3.767,1.617-7.681,2.607-11.254,1.82c-1.571,3.488-3.122,7.426-2.486,8.787
				c0.137-0.172,2.177,1.131,2.561,1.314c1.089,0.527,2.179,1.052,3.287,1.535c1.938,0.848,3.896,1.785,5.936,2.363
				c0.252,0.071,0.486,0.158,0.714,0.252c2.985-1.717,6.304-2.672,9.868-2.154c0.058,0.008,0.114,0.023,0.172,0.031
				C237.555,362.638,237.053,361.868,236.64,361.052z"/>
		</g>
	</g>
	<g>
		<g>
			<path class="st13" d="M300.875,353.333c-0.674-2.145-0.831-3.973-0.477-6.195c0.17-1.059,0.733-2.189,1.271-3.174
				c-2.002-0.555-4.084-0.928-5.984-1.771c-0.434-0.19-0.845-0.396-1.243-0.611c-0.974,3.189-1.478,6.74-2.565,9.529
				c-1.065,2.723-3.365,3.48-5.521,2.973c-1.024,1.734-2.228,3.338-3.381,4.988c-0.142,0.193-0.266,0.396-0.396,0.598
				c1.759-0.139,3.526-0.539,5.279-0.49c3.646,0.1,7.729,1.369,11.333,0.666c1.754-0.342,3.481-0.834,5.194-1.385
				C302.953,356.927,301.518,355.384,300.875,353.333z"/>
		</g>
	</g>
	<g>
		<g>
			<path class="st4" d="M383.604,109.075c-7.747,3.098-15.706,5.037-23.841,6.346c0,0.051,0.005,0.1,0.004,0.152
				c-0.902,35.736-4.41,71.871-10.305,107.129c-2.92,17.463-6.351,34.947-7.547,52.639c-0.615,9.078,2.4,22.041-3.821,29.807
				c0.645-0.189,1.293-0.371,1.932-0.572c3.372-1.062,6.395-2.467,9.56-4.016c1.973-0.965,5.478-2.252,6.437-4.344
				c0.409-0.893,0.953-1.559,1.573-2.043c0.311-3.766,0.613-7.531,0.913-11.299c0.349-0.154,0.712-0.264,1.083-0.326
				c0.505-7.068,1.009-14.137,1.515-21.205c1.814-25.402,4.913-50.66,9.642-75.691c2.469-13.078,5.266-26.098,8.493-39.01
				c2.022-8.094,4.07-15.887,7.489-23.5c3.019-6.723,6.234-13.361,9.112-20.148C391.964,105.485,387.69,107.442,383.604,109.075z"/>
		</g>
	</g>
	<g>
		<g>
			<path class="st2" d="M334.94,317.138c-5.44,1.188-10.836,2.448-16.247,3.768c-21.779,5.32-43.846,9.727-66.143,12.203
				c-21.972,2.438-44.732,4.381-66.816,2.52c-13.42-1.131-29.451-3.438-41.81-10.434c0.154,3.953,0.436,7.908,0.77,11.863
				c3.19-5.385,8.028-10.156,13.386-4.871c2.801,2.764,3.833,9.699,7.53,10.975c5.159,1.777,9.648,1.193,14.304,4.703
				c3.046,2.297,1.99,6.617-0.556,8.691c-1.5,1.221-2.839,2.648-4.097,4.145c1.536,2.636,1.939,5.518-0.271,8.636
				c4.758,0.897,9.536,1.628,14.243,2.015c8.197,0.676,16.467,0.857,24.758,0.76c-3.973-1.887-7.469-4.395-8.481-7.703
				c-2.468-8.059,2.33-16.209,5.178-23.525c1.574-4.041,7.259-3.723,9.487-0.627c1.59,2.207,9.271-3.133,11.031-4.152
				c3.191-1.85,8.714-0.332,8.561,4.137c-0.038,1.119-0.159,2.24-0.157,3.359c-0.014,0.367-0.015,0.732-0.004,1.1
				c1.76,0.414,3.506,0.873,5.123,1.705c3.64,1.869,3.764,6.176,1.28,8.861c0.115-0.072,0.028,0.334,0.706,1.395
				c0.994,1.555,2.078,3.037,3.218,4.486c2.1,2.668,4.171,5.232,5.54,8.365c0.105,0.241,0.179,0.486,0.238,0.734
				c0.186-0.01,0.37-0.02,0.554-0.029c6.181-0.33,12.341-0.652,18.464-1.289c-1.92-1.168-3.334-3.002-3.799-5.754
				c-1.002-5.93,3.068-9.584,5.758-14.291c1.269-2.219,3.376-2.992,5.378-2.789c2.233-5.793,2.528-12.164,6.751-17.061
				c2.946-3.418,7.579-1.738,9.323,1.812c1.02,2.074,5.887,2.395,7.795,3.004c3.107,0.99,6.354,2.293,7.538,5.662
				c0.721,2.049,0.403,4.613-0.501,6.551c-0.761,1.633-2.372,2.869-1.192,4.34c2.411,3.006,4.972,5.42,6.36,9.109
				c0.003,0.008,0.005,0.016,0.005,0.016c0.703-0.178,1.407-0.355,2.106-0.541c2.813-0.75,6.292-1.529,9.924-2.518
				c-2.979-3.023-5.587-6.328-6.357-10.656c-0.783-4.408,2.174-6.654,5.412-8.06c-0.217-0.25-0.437-0.497-0.653-0.749
				c-0.818-1.004-1.7-2.088-2.128-3.335c-0.845-2.464-0.521-5.175,1.392-7.063c2.303-2.271,5.564-2.111,8.013-3.912
				c2.034-1.496,2.947-4.34,4.166-6.656C338.3,316.431,336.584,316.78,334.94,317.138z"/>
		</g>
	</g>
	<g>
		<g>
			<path class="st13" d="M169.57,303.571c-1.223-8.611-3.095-17.131-5.396-25.518c-5.042-18.363-11.741-36.201-17.209-54.434
				c-5.734-19.125-10.096-38.531-14.758-57.934c-4.401-18.318-11.074-35.928-14.076-54.6c-0.012-0.062-0.013-0.121-0.021-0.184
				c-7.914-3.236-15.582-7.232-23.045-11.795c-0.229,0.289-0.488,0.553-0.765,0.795c2.514,17.127,9.918,33.596,14.345,50.199
				c6.162,23.111,11.349,46.477,17.47,69.58c5.992,22.609,11.251,45.473,14.831,68.598c1.201,7.76,2.219,15.553,3.035,23.365
				c-0.005,0.088-0.007,0.176-0.013,0.264c5.709,4.927,13.329,7.307,20.541,9.053c3.251,0.787,6.519,1.488,9.803,2.088
				C171.456,316.946,170.52,310.259,169.57,303.571z"/>
		</g>
	</g>
	<g>
		<g>
			<path class="st13" d="M368.465,312.413c-0.531,9.674-0.985,19.309-4.669,28.355c0.035,0.504,0.005,1.039-0.114,1.611
				c-3.425,16.381-21.659,22.158-35.837,25.938c-10.229,2.727-20.551,5.244-30.846,7.726c-11.993,2.89-23.809,4.259-36.11,4.938
				c-24.326,1.342-49.438,3.537-73.754,1.168c-5.958-0.58-11.6-1.984-17.456-3.07c-5.011-0.932-10.068-1.572-14.948-3.088
				c-4.666-1.448-9.115-3.852-12.341-7.586c-0.072-0.084-0.138-0.174-0.208-0.258c-2.301-2.018-4.049-4.221-4.772-6.57
				c-0.284-0.534-0.497-1.141-0.611-1.824c-0.186-1.107-0.022-2.219,0.461-3.23c-1.664-9.877-2.267-19.834-2.994-29.848
				c-0.296-4.053-0.658-8.1-1.056-12.143c-0.59-1.967-1.01-4.037-1.213-6.229c-39.814-2.023-99.83,30.469-86.73,77.574
				c4.862,17.486,18.482,30.49,33.623,39.678c16.621,10.086,35.01,17.051,53.695,22.24c23.876,6.631,48.59,10.043,73.125,13.27
				c16.107,2.119,32.344,3.717,48.612,3.369c13.722-0.293,27.265-2.127,40.836-4.025c23.781-3.323,47.673-7.383,70.472-15.127
				c21.646-7.352,44.679-18.189,58.455-37.242C454.854,365.489,408.65,323.522,368.465,312.413z"/>
		</g>
	</g>
	<g>
		<g>
			<path class="st2" d="M397.891,82.292c-1.382-9.227-11.696-15.262-19.608-18.076c-9.649-3.432-20.123-4.559-30.276-5.342
				c-12.584-0.971-25.18-1.301-37.789-1.826c-32.424-1.355-64.825-3.25-97.215-5.301c-18.453-1.168-36.812-1.807-55.293-0.723
				c-15.388,0.904-32.695,2.273-46.545,9.715c-5.519,2.967-10.888,6.857-13.699,12.638c-1.965,4.036-2.645,8.37-2.485,12.733
				c15.426,10.082,32.101,18.898,50.561,21.537c20.968,2.998,42.834-0.371,63.784-2.152c15.594-1.326,30.844-1.5,46.464-0.652
				c15.469,0.838,30.934,1.889,46.422,2.305c26.186,0.701,55.435,1.496,79.865-9.342C387.729,95.298,399.068,90.157,397.891,82.292z
				"/>
		</g>
	</g>
	<g>
		<g>
			<path class="st13" d="M347.644,324.649c-1.991,3.457-3.985,6.502-8.047,8.395c1.489,1.777,2.871,3.783,3.132,6.102
				c0.53,4.719-2.877,6.607-6.627,7.545c0.177,0.221,0.339,0.453,0.533,0.658c0.858,0.904,1.745,1.778,2.64,2.641
				c1.06,0.299,2.055,0.988,2.838,2.176c5.335-2.672,9.622-6.387,10.771-11.885c0.165-0.795,0.46-1.467,0.84-2.031
				c0.319-1.34,0.589-2.693,0.807-4.057c0.704-2.053,1.247-4.168,1.671-6.322C353.14,327.325,350.418,326.099,347.644,324.649z"/>
		</g>
	</g>
	<g>
		<g>
			<path class="st13" d="M311.768,118.265c0.01,39.189,0.635,78.393-0.429,117.574c-0.522,19.211-0.772,38.768-2.99,57.873
				c-0.559,4.805,0.762,12.271-0.114,18.438c1.018-0.238,2.034-0.467,3.048-0.711c6.257-1.51,12.695-2.74,19.024-4.238
				c-2.821-1.572-4.412-5.236-1.489-8.168c2.965-2.975,2.214-9.799,2.139-13.631c-0.118-5.963,0.038-11.783,0.632-17.734
				c1.705-17.08,4.975-33.926,7.701-50.859c5.301-32.924,8.634-66.625,9.496-99.967
				C336.461,118.075,324.115,118.407,311.768,118.265z"/>
		</g>
	</g>
	<g>
		<g>
			<path class="st13" d="M350.024,312.556c-0.284,0.16-0.586,0.297-0.879,0.446c2.704,1.548,5.359,3.425,8.368,4.007
				c0.183-2.811,0.287-5.631,0.394-8.416C355.281,310.005,352.469,311.175,350.024,312.556z"/>
		</g>
	</g>
	<g>
		<g>
			<path class="st13" d="M252.916,270.403c-1.209-17.572-2.815-35.146-4.785-52.65c-1.94-17.229-3.19-34.68-4-52
				c-0.79-16.898-4.879-33.5-4.684-50.453c-9.742-0.055-19.443,0.309-29.276,1.164c-7.288,0.637-14.556,1.25-21.826,1.773
				c-0.146,0.441-0.367,0.879-0.663,1.307c-0.002,0.1,0,0.223,0.009,0.375c0.058,1.064,0.148,2.125,0.302,3.182
				c0.43,2.945,1.031,5.852,1.731,8.744c1.332,5.492,2.86,10.93,4.373,16.373c5.146,18.521,6.201,38.27,9.589,57.16
				c3.804,21.199,8.952,42.117,13.169,63.232c2.015,10.096,4.107,20.305,5.246,30.543c0.751,6.768-0.192,15.734,3.408,21.768
				c0.736,1.232,0.94,2.469,0.778,3.607c7.888-0.549,15.747-1.318,23.5-2.178c1.851-0.205,3.699-0.424,5.547-0.652
				C254.201,304.61,254.092,287.491,252.916,270.403z"/>
		</g>
	</g>
	<g>
		<g>
			<path d="M444.571,369.755c-6.058-35.414-42.434-60.199-75.367-68.51c0.854-11.945,1.706-23.889,2.559-35.834
				c1.909-26.719,5.166-53.211,10.139-79.541c3.953-20.934,7.68-42.58,16.491-61.816c3.429-7.482,6.992-14.914,9.919-22.613
				c2.035-5.352,4.708-12.006,2.804-17.764c-0.508-1.541-1.447-2.533-2.561-3.076c-0.723-4.582-2.999-9.025-6.033-12.961
				c-6.265-8.127-15.859-12.438-25.443-15.279c-9.835-2.916-20.219-3.809-30.406-4.539c-13.077-0.938-26.172-1.279-39.271-1.826
				c-32.715-1.367-65.4-3.332-98.076-5.412c-17.837-1.135-35.61-1.518-53.47-0.469c-18.029,1.059-37.218,3.535-53.082,12.76
				C89.829,60.397,84.1,72.646,84.256,86.185c-1.093,0.969-1.825,2.389-1.8,4.234c0.283,20.32,9.122,39.26,14.534,58.514
				c6.58,23.408,11.39,47.273,17.756,70.711c6.384,23.502,11.792,47.273,15.519,71.348c0.33,2.131,0.631,4.264,0.921,6.398
				c-37.626-0.932-83.263,20.543-95.551,57.854c-5.964,18.109-2.352,37.891,8.362,53.439c10.777,15.643,27.664,26.438,44.49,34.559
				c17.276,8.34,35.847,14.092,54.459,18.582c11.839,2.857,23.886,4.467,35.908,6.369c15.875,2.51,31.776,4.854,47.798,6.186
				c28.078,2.334,55.382-0.697,83.084-5.023c23.894-3.732,47.825-8.762,70.378-17.662
				C413.318,438.589,451.51,410.31,444.571,369.755z M386.73,123.142c-3.419,7.613-5.467,15.406-7.489,23.5
				c-3.228,12.912-6.024,25.932-8.493,39.01c-4.729,25.031-7.827,50.289-9.642,75.691c-0.506,7.068-1.01,14.137-1.515,21.205
				c-0.371,0.062-0.734,0.172-1.083,0.326c-0.3,3.768-0.603,7.533-0.913,11.299c-0.62,0.484-1.164,1.15-1.573,2.043
				c-0.959,2.092-4.464,3.379-6.437,4.344c-3.165,1.549-6.188,2.953-9.56,4.016c-0.639,0.201-1.287,0.383-1.932,0.572
				c6.222-7.766,3.206-20.729,3.821-29.807c1.196-17.691,4.627-35.176,7.547-52.639c5.895-35.258,9.402-71.393,10.305-107.129
				c0.001-0.053-0.004-0.102-0.004-0.152c8.135-1.309,16.094-3.248,23.841-6.346c4.086-1.633,8.359-3.59,12.238-6.082
				C392.965,109.78,389.749,116.419,386.73,123.142z M326.449,333.668c0.428,1.247,1.31,2.331,2.128,3.335
				c0.217,0.252,0.437,0.499,0.653,0.749c-3.238,1.405-6.195,3.651-5.412,8.06c0.771,4.328,3.378,7.633,6.357,10.656
				c-3.632,0.988-7.11,1.768-9.924,2.518c-0.699,0.186-1.403,0.363-2.104,0.547c0,0-0.004-0.014-0.007-0.021
				c-1.389-3.689-3.949-6.104-6.36-9.109c-1.18-1.471,0.432-2.707,1.192-4.34c0.904-1.938,1.222-4.502,0.501-6.551
				c-1.184-3.369-4.431-4.672-7.538-5.662c-1.908-0.609-6.775-0.93-7.795-3.004c-1.744-3.551-6.377-5.23-9.323-1.812
				c-4.223,4.896-4.518,11.268-6.751,17.061c-2.002-0.203-4.109,0.57-5.378,2.789c-2.689,4.707-6.76,8.361-5.758,14.291
				c0.465,2.752,1.879,4.586,3.799,5.754c-6.123,0.637-12.283,0.959-18.464,1.289c-0.184,0.01-0.368,0.02-0.554,0.029
				c-0.06-0.248-0.133-0.493-0.238-0.734c-1.369-3.133-3.44-5.697-5.54-8.365c-1.14-1.449-2.224-2.932-3.218-4.486
				c-0.678-1.061-0.591-1.467-0.706-1.395c2.483-2.686,2.359-6.992-1.28-8.861c-1.617-0.832-3.363-1.291-5.123-1.705
				c-0.011-0.367-0.01-0.732,0.004-1.1c-0.002-1.119,0.119-2.24,0.157-3.359c0.153-4.469-5.369-5.986-8.561-4.137
				c-1.76,1.02-9.441,6.359-11.031,4.152c-2.229-3.096-7.913-3.414-9.487,0.627c-2.848,7.316-7.646,15.467-5.178,23.525
				c1.013,3.309,4.509,5.816,8.481,7.703c-8.291,0.098-16.561-0.084-24.758-0.76c-4.707-0.387-9.485-1.117-14.243-2.015
				c2.21-3.118,1.807-6,0.271-8.636c1.258-1.496,2.597-2.924,4.097-4.145c2.546-2.074,3.602-6.395,0.556-8.691
				c-4.655-3.51-9.145-2.926-14.304-4.703c-3.697-1.275-4.729-8.211-7.53-10.975c-5.357-5.285-10.195-0.514-13.386,4.871
				c-0.334-3.955-0.615-7.91-0.77-11.863c12.358,6.996,28.39,9.303,41.81,10.434c22.084,1.861,44.845-0.082,66.816-2.52
				c22.297-2.477,44.363-6.883,66.143-12.203c5.411-1.319,10.807-2.58,16.247-3.768c1.644-0.357,3.359-0.707,5.079-1.102
				c-1.219,2.316-2.132,5.16-4.166,6.656c-2.448,1.801-5.71,1.641-8.013,3.912C325.928,328.493,325.604,331.204,326.449,333.668z
				 M300.875,353.333c0.643,2.051,2.078,3.594,3.512,5.127c-1.713,0.551-3.44,1.043-5.194,1.385
				c-3.604,0.703-7.688-0.566-11.333-0.666c-1.753-0.049-3.521,0.352-5.279,0.49c0.13-0.201,0.254-0.404,0.396-0.598
				c1.153-1.65,2.356-3.254,3.381-4.988c2.155,0.508,4.455-0.25,5.521-2.973c1.088-2.789,1.592-6.34,2.565-9.529
				c0.398,0.215,0.81,0.421,1.243,0.611c1.9,0.844,3.982,1.217,5.984,1.771c-0.538,0.984-1.102,2.115-1.271,3.174
				C300.044,349.36,300.201,351.188,300.875,353.333z M238.086,363.394c-0.058-0.008-0.114-0.023-0.172-0.031
				c-3.564-0.518-6.883,0.438-9.868,2.154c-0.228-0.094-0.462-0.181-0.714-0.252c-2.039-0.578-3.998-1.516-5.936-2.363
				c-1.108-0.483-2.198-1.008-3.287-1.535c-0.384-0.184-2.424-1.486-2.561-1.314c-0.636-1.361,0.915-5.299,2.486-8.787
				c3.573,0.787,7.487-0.203,11.254-1.82c0.255,0.795,0.607,1.564,1.101,2.295c1.205,1.785,2.867,2.482,4.641,2.984
				c-0.043,2.025,0.505,4.153,1.609,6.328C237.053,361.868,237.555,362.638,238.086,363.394z M164.128,364.175
				c-1.34,0.303-2.493,1.086-3.331,2.102c-0.376-0.088-0.757-0.176-1.132-0.264c-3.502-0.818-7.329-2.4-9.415-5.443
				c-1.161-1.695-2.248-4.188-3.893-5.59c-0.083-0.934-0.169-1.867-0.256-2.803c2.062,0.391,4.173-0.422,5.108-3.066
				c0.511-1.445,1.108-2.857,1.754-4.248c0.1,0.244,0.197,0.492,0.307,0.724c1.752,3.718,4.712,6.487,8.614,7.832
				c1.35,0.464,2.918,0.646,4.493,0.841c-0.76,0.904-1.503,1.827-2.228,2.773C162.398,359.321,162.434,362.017,164.128,364.175z
				 M167.396,364.403c-0.641-0.232-1.265-0.346-1.865-0.365C165.546,362.854,166.165,362.972,167.396,364.403z M177.473,126.745
				c1.14,6.508,2.867,12.922,4.616,19.289c5.067,18.443,6.852,37.568,9.977,56.408c3.836,23.131,9.603,45.898,14.191,68.883
				c2.055,10.287,4.136,20.727,5.131,31.18c0.721,7.572,0.64,15.664,3.977,22.627c-8.608,0.342-17.212,0.346-25.709-0.17
				c-1.489-0.09-2.974-0.221-4.454-0.367c0.646-1.479,0.676-3.246-0.358-5.008c-3.441-5.859-3.759-13.236-4.729-19.811
				c-1.26-8.541-3.327-17.027-5.558-25.359c-4.922-18.389-11.662-36.236-17.208-54.436c-5.444-17.863-9.594-36.023-13.869-54.191
				c-4.011-17.035-10.152-33.523-13.506-50.709c10.562,3.127,21.573,4.793,33.149,4.475c4.519-0.125,9.023-0.324,13.522-0.572
				C176.531,121.638,177.071,124.45,177.473,126.745z M300.553,228.862c-0.374,18.354-1.109,36.701-2.409,55.015
				c-0.404,5.698-0.9,11.321-0.901,17.036c-0.001,2.617-0.012,5.232-0.104,7.848c-0.029,0.811-0.124,1.617-0.215,2.422
				c-0.222,1.941-0.779,1.566,0.951,0.254c-1.3,0.986-1.968,2.232-2.165,3.512c-9.72,2.037-19.495,3.795-29.316,5.248
				c-0.038-0.332-0.104-0.641-0.191-0.932c-0.997-15.912-1.176-31.844-2.188-47.758c-1.115-17.586-2.917-35.123-4.713-52.65
				c-1.774-17.318-2.787-34.664-4.055-52.023c-1.246-17.07-4.912-34.154-4.844-51.297c2.072,0.076,4.148,0.166,6.23,0.277
				c14.736,0.783,29.497,1.754,44.259,2.217c-0.058,0.336-0.094,0.686-0.094,1.057C300.807,155.679,301.303,192.274,300.553,228.862
				z M252.916,270.403c1.176,17.088,1.285,34.207,2.418,51.295c-1.848,0.229-3.696,0.447-5.547,0.652
				c-7.753,0.859-15.612,1.629-23.5,2.178c0.162-1.139-0.042-2.375-0.778-3.607c-3.601-6.033-2.657-15-3.408-21.768
				c-1.139-10.238-3.231-20.447-5.246-30.543c-4.217-21.115-9.365-42.033-13.169-63.232c-3.388-18.891-4.442-38.639-9.589-57.16
				c-1.513-5.443-3.041-10.881-4.373-16.373c-0.7-2.893-1.302-5.799-1.731-8.744c-0.153-1.057-0.244-2.117-0.302-3.182
				c-0.009-0.152-0.011-0.275-0.009-0.375c0.296-0.428,0.518-0.865,0.663-1.307c7.271-0.523,14.538-1.137,21.826-1.773
				c9.833-0.855,19.534-1.219,29.276-1.164c-0.195,16.953,3.894,33.555,4.684,50.453c0.81,17.32,2.06,34.771,4,52
				C250.101,235.257,251.707,252.831,252.916,270.403z M311.768,118.265c12.348,0.143,24.693-0.189,37.018-1.424
				c-0.862,33.342-4.195,67.043-9.496,99.967c-2.727,16.934-5.996,33.779-7.701,50.859c-0.594,5.951-0.75,11.771-0.632,17.734
				c0.075,3.832,0.826,10.656-2.139,13.631c-2.923,2.932-1.332,6.596,1.489,8.168c-6.329,1.498-12.768,2.729-19.024,4.238
				c-1.014,0.244-2.03,0.473-3.048,0.711c0.876-6.166-0.444-13.633,0.114-18.438c2.218-19.105,2.468-38.662,2.99-57.873
				C312.402,196.657,311.777,157.454,311.768,118.265z M342.729,339.146c-0.261-2.318-1.643-4.324-3.132-6.102
				c4.062-1.893,6.056-4.938,8.047-8.395c2.774,1.449,5.496,2.676,8.558,3.221c-0.424,2.154-0.967,4.27-1.671,6.322
				c-0.218,1.363-0.487,2.717-0.807,4.057c-0.38,0.564-0.675,1.236-0.84,2.031c-1.149,5.498-5.437,9.213-10.771,11.885
				c-0.783-1.188-1.778-1.877-2.838-2.176c-0.895-0.862-1.781-1.736-2.64-2.641c-0.194-0.205-0.356-0.438-0.533-0.658
				C339.852,345.753,343.259,343.864,342.729,339.146z M349.146,313.002c0.293-0.149,0.595-0.286,0.879-0.446
				c2.444-1.381,5.257-2.551,7.883-3.963c-0.106,2.785-0.211,5.605-0.394,8.416C354.505,316.427,351.85,314.55,349.146,313.002z
				 M97.465,73.377c2.812-5.78,8.181-9.671,13.699-12.638c13.85-7.441,31.157-8.811,46.545-9.715
				c18.481-1.084,36.84-0.445,55.293,0.723c32.39,2.051,64.791,3.945,97.215,5.301c12.609,0.525,25.205,0.855,37.789,1.826
				c10.153,0.783,20.627,1.91,30.276,5.342c7.912,2.814,18.227,8.85,19.608,18.076c1.178,7.865-10.161,13.006-15.815,15.514
				c-24.431,10.838-53.68,10.043-79.865,9.342c-15.488-0.416-30.953-1.467-46.422-2.305c-15.62-0.848-30.87-0.674-46.464,0.652
				c-20.95,1.781-42.816,5.15-63.784,2.152c-18.46-2.639-35.135-11.455-50.561-21.537C94.82,81.747,95.5,77.413,97.465,73.377z
				 M126.115,219.683c-6.121-23.104-11.308-46.469-17.47-69.58c-4.427-16.604-11.831-33.072-14.345-50.199
				c0.276-0.242,0.535-0.506,0.765-0.795c7.463,4.562,15.131,8.559,23.045,11.795c0.008,0.062,0.009,0.121,0.021,0.184
				c3.002,18.672,9.675,36.281,14.076,54.6c4.662,19.402,9.023,38.809,14.758,57.934c5.468,18.232,12.167,36.07,17.209,54.434
				c2.302,8.387,4.174,16.906,5.396,25.518c0.949,6.688,1.886,13.375,4.742,19.479c-3.284-0.6-6.552-1.301-9.803-2.088
				c-7.212-1.746-14.832-4.126-20.541-9.053c0.006-0.088,0.008-0.176,0.013-0.264c-0.816-7.812-1.834-15.605-3.035-23.365
				C137.366,265.155,132.107,242.292,126.115,219.683z M424.084,408.04c-13.776,19.053-36.809,29.891-58.455,37.242
				c-22.799,7.744-46.69,11.804-70.472,15.127c-13.571,1.898-27.114,3.732-40.836,4.025c-16.269,0.348-32.505-1.25-48.612-3.369
				c-24.535-3.227-49.249-6.639-73.125-13.27c-18.686-5.189-37.074-12.154-53.695-22.24c-15.141-9.188-28.761-22.191-33.623-39.678
				c-13.1-47.105,46.916-79.598,86.73-77.574c0.203,2.191,0.623,4.262,1.213,6.229c0.397,4.043,0.76,8.09,1.056,12.143
				c0.728,10.014,1.33,19.971,2.994,29.848c-0.483,1.012-0.646,2.123-0.461,3.23c0.114,0.684,0.327,1.29,0.611,1.824
				c0.724,2.35,2.472,4.553,4.772,6.57c0.07,0.084,0.136,0.174,0.208,0.258c3.226,3.734,7.675,6.138,12.341,7.586
				c4.88,1.516,9.938,2.156,14.948,3.088c5.856,1.086,11.498,2.49,17.456,3.07c24.315,2.369,49.428,0.174,73.754-1.168
				c12.302-0.68,24.117-2.049,36.11-4.938c10.295-2.481,20.616-4.999,30.846-7.726c14.178-3.779,32.412-9.557,35.837-25.938
				c0.119-0.572,0.149-1.107,0.114-1.611c3.684-9.047,4.138-18.682,4.669-28.355C408.65,323.522,454.854,365.489,424.084,408.04z"/>
		</g>
	</g>
</g>
</svg>
