<?xml version="1.0" encoding="utf-8"?>
<!-- Generator: Adobe Illustrator 16.0.3, SVG Export Plug-In . SVG Version: 6.00 Build 0)  -->
<!DOCTYPE svg PUBLIC "-//W3C//DTD SVG 1.1//EN" "http://www.w3.org/Graphics/SVG/1.1/DTD/svg11.dtd">
<svg version="1.1" id="Layer_1" xmlns="http://www.w3.org/2000/svg" xmlns:xlink="http://www.w3.org/1999/xlink" x="0px" y="0px"
	 width="512px" height="512px" viewBox="0 0 512 512" style="enable-background:new 0 0 512 512;" xml:space="preserve">
<style type="text/css">
<![CDATA[
	.st0{fill:#127274;}
	.st1{fill:#14B6B9;}
	.st2{fill:#EF4823;}
	.st3{fill:#BCBCBC;}
	.st4{fill:#F6851F;}
	.st5{fill:#C0E6ED;}
	.st6{fill:#C56528;}
	.st7{fill:#FCBF95;}
	.st8{fill:#FEBF10;}
	.st9{fill:#FFFFFF;}
	.st10{fill:#9FDADF;}
	.st11{fill:#010101;}
	.st12{fill:#3AB37C;}
	.st13{fill:#D6E5E5;}
	.st14{fill:#71C598;}
	.st15{fill:#74CCCF;}
]]>
</style>
<g>
	<g>
		<g>
			<path class="st4" d="M211.556,363.353c-9.37,0.012-18.558,1.805-27.856,2.986c-11.389,1.445-22.499,0.611-33.926,0.186
				c-23.154-0.863-46.499-1.266-69.414-5.017c-8.494-1.391-17.065-2.974-25.484-4.788c-1.163,6.726-2.955,14.438-0.987,20.99
				c2.081,6.932,7.224,11.328,13.623,14.34c14.477,6.814,30.588,8.527,46.404,8.648c9.809,0.074,19.615-0.209,29.423-0.23
				c8.77-0.02,17.498,0.845,26.291,0.563c8.961-0.286,17.8-1.431,26.728-2.1c7.23-0.542,14.68-0.774,21.586-3.171
				c0.375-0.129,0.737-0.214,1.091-0.268C214.826,385.229,212.615,374.397,211.556,363.353z"/>
		</g>
	</g>
	<g>
		<g>
			<path class="st4" d="M211.288,321.263c-0.345,0.087-0.709,0.15-1.102,0.176c-14.42,0.938-28.765,2.732-43.178,3.741
				c-13.954,0.978-28.141,0.665-42.092-0.257c-13.869-0.916-27.71-2.692-41.243-5.918c-9.642-2.299-18.499-5.598-27.519-7.852
				c-4.851-1.212-12.282-2.752-18.61-5.58c-1.021,6.783-1.372,13.683-0.405,20.472c1,7.028,2.875,13.538,9.744,16.733
				c5.755,2.678,12.079,3.527,18.271,4.65c9.006,1.633,17.908,3.559,27.011,4.648c21.43,2.566,42.992,2.824,64.527,3.791
				c10.108,0.453,19.679,0.473,29.722-0.994c8.128-1.188,16.229-2.514,24.438-2.498c-0.369-10.352,0.001-20.781,0.426-31
				C211.278,321.337,211.285,321.302,211.288,321.263z"/>
		</g>
	</g>
	<g>
		<g>
			<path class="st8" d="M197.406,301.151c-9.782,0.529-19.534,1.048-29.32,1.6c-21.62,1.219-44.092,0.465-64.501-7.505
				c-8.838-3.452-17.779-8.103-25.726-13.325c-3.804-2.5-7.016-5.617-9.266-9.404c-7.926,0.585-16.229,4-22.781,8.224
				c-2.838,1.831-10.143,7.483-9.186,10.624c1.054,0.555,1.913,1.424,2.356,2.56c3.147,2.275,7.872,3.435,11.273,4.37
				c5.283,1.453,10.7,2.506,15.873,4.334c22.382,7.914,46.631,11.277,70.283,11.908c24.524,0.654,48.517-2.48,72.927-4.068
				c2.152-0.141,3.724,0.777,4.676,2.131c0.651-3.859,1.412-7.704,2.571-11.506c0.384-1.26,0.796-2.51,1.211-3.758
				C211.378,299.905,204.157,300.784,197.406,301.151z"/>
		</g>
	</g>
	<g>
		<g>
			<path class="st8" d="M224.763,406.968c-0.4-0.668-0.782-1.342-1.161-2.016c-0.525,0.494-1.194,0.904-2.021,1.191
				c-8.331,2.891-17.232,3.152-25.936,3.879c-9.647,0.807-19.19,1.971-28.89,2.053c-10.807,0.092-21.572-0.709-32.377-0.555
				c-10.466,0.15-20.927,0.326-31.385-0.233c-4.325-0.231-8.818-0.642-13.334-1.294c0.672,2.215,0.198,4.883-1.943,6.48
				c-0.034,0.154-0.06,0.352-0.06,0.609c-0.001,1.371,0.058,2.74,0.25,4.101c0.411,2.903,1.061,5.741,1.898,8.552
				c1.719,5.768,4.007,10.553,9.398,13.863c13.899,8.539,31.681,9.503,47.549,10.467c19.253,1.17,38.724,0.506,57.832-2.168
				c17.897-2.504,34.915-7.412,52.005-13.025C243.869,430.437,232.543,419.929,224.763,406.968z"/>
		</g>
	</g>
	<g>
		<g>
			<path class="st8" d="M311.075,283.64c-5.052,2.854-10.016,7.238-11.46,12.928c-1.731,6.82-0.499,17.594,6.23,21.534
				c3.044,1.783,6.261,2.78,9.582,3.304C313.771,308.832,312.066,296.261,311.075,283.64z"/>
		</g>
	</g>
	<g>
		<g>
			<path class="st8" d="M322.425,90.622c-6.953-2.799-15.104-3.405-22.521-3.988c-7.669-0.603-15.358-0.76-23.049-0.808
				c-15.622-0.097-31.087-0.582-46.661-1.897c-16.274-1.375-32.536-3.109-48.85-3.973c-12.348-0.652-24.665-0.276-37.007-0.633
				c-7.861-0.229-15.732-0.465-23.595-0.139c-8.202,0.34-16.772,0.885-24.57,3.664c-4.934,1.758-10.781,4.713-10.925,10.681
				c-0.019,0.776-0.175,1.474-0.428,2.099c16.748,3.021,33.624,5.368,50.587,6.758c20.361,1.669,40.48,1.262,60.865,1.076
				c20.233-0.186,40.382-1.877,60.621-0.826c18.56,0.963,37.689,2.973,56.098-0.604c4.058-0.789,8.321-1.727,12.115-3.414
				c0.785-0.35,4.051-1.609,4.236-2.667C329.729,93.745,324.042,91.272,322.425,90.622z"/>
		</g>
	</g>
	<g>
		<g>
			<path class="st8" d="M330.476,108.532c-6.862,3.389-15.763,4.544-21.939,5.301c-15.105,1.854-30.276,0.904-45.417,0.062
				c-31.774-1.768-63.473,1.518-95.256,1.008c-30.842-0.494-61.51-3.936-91.792-9.71c-2.215,6.438-2.791,14.497-0.711,20.379
				c1.766,4.998,5.172,6.55,10.217,7.216c6.101,0.807,12.248,1.049,18.312,2.156c15.318,2.795,30.049,6.861,45.653,8.021
				c16.146,1.2,32.35,1.011,48.521,0.478c16.177-0.534,32.317-0.816,48.499-1.078c15.547-0.254,31.195-0.898,46.547-3.541
				c5.995-1.033,11.868-2.393,17.912-3.145c4.795-0.598,9.918-1.039,14.331-3.184C332.715,128.917,333.518,116.091,330.476,108.532z
				"/>
		</g>
	</g>
	<g>
		<g>
			<path class="st8" d="M307.303,189.317c-13.998,3.029-28.434,4.557-42.613,6.494c-15.702,2.144-31.443,4.096-47.248,5.309
				c-29.507,2.266-58.708,1.142-88.15-1.385c-12.444-1.066-24.936-2.617-36.79-6.73c-3.252-1.129-6.788-2.479-10.162-4.186
				c-0.613,0.323-1.328,0.545-2.155,0.619c1.162-0.105,0.375-0.304-0.2,1.236c-0.409,1.094-0.659,2.275-0.855,3.424
				c-0.5,2.929-0.786,5.874-0.847,8.844c-0.108,5.309-0.492,11.75,2.346,16.493c0.438,0.733,0.931,1.399,1.449,2.034
				c0.088,0,0.171-0.002,0.261-0.002c3.25,0,5.185,2.325,5.64,4.834c1.876,1.057,3.899,1.918,5.985,2.674
				c9.174,3.322,19.01,5.261,28.649,6.641c21.842,3.125,43.899,2.956,65.905,2.34c9.83-0.274,19.646-0.652,29.468-1.105
				c9.251-0.427,18.465-1.082,26.957-5.09c2.427-1.145,4.444-0.369,5.673,1.199c4.892-5.799,10.216-11.232,16.062-16.17
				c15.27-12.898,34.016-22.594,53.599-27.898v-4.52C316.438,186.72,312.052,188.29,307.303,189.317z"/>
		</g>
	</g>
	<g>
		<g>
			<path class="st4" d="M321.203,148.028c-0.586-0.9-0.871-1.807-0.924-2.674c-4.025,0.743-8.085,1.193-12.155,1.773
				c-5.973,0.85-11.825,2.377-17.806,3.239c-15.48,2.231-31.109,2.876-46.734,3.014c-31.998,0.282-64.181,2.973-96.14,0.382
				c-15.616-1.266-30.286-5.426-45.653-8.021c-6.61-1.116-15.867-0.679-23.314-2.987c-0.736,0.509-1.35,1.174-1.777,2.003
				c-3.546,6.876-2.392,16.241,0.282,23.235c3.312,8.66,11.801,12.488,20.395,15.137c11.998,3.696,24.522,5.096,36.997,6.049
				c14.047,1.074,28.105,2.318,42.201,2.435c31.806,0.263,63.413-3.368,94.857-7.831c8.083-1.146,16.181-2.248,24.244-3.533
				c5.234-0.835,10.679-1.449,15.625-3.465C321.681,172.554,327.652,157.942,321.203,148.028z"/>
		</g>
	</g>
	<g>
		<g>
			<path class="st4" d="M215.579,247.954c-11.864,0.475-23.72,0.975-35.595,1.199c-25.345,0.48-51.241,0.145-76.002-5.9
				c-8.473-2.067-17.228-4.652-24.045-9.343c-4.166,5.606-5.373,12.32-4.908,19.622c0.323,5.078,0.812,11.979,4.683,15.85
				c4.386,4.387,10.213,6.584,15.498,9.644c7.614,4.409,15.753,7.728,24.336,9.706c17.793,4.102,36.085,4.061,54.2,2.6
				c8.091-0.652,16.176-0.611,24.259-1.246c7.111-0.558,14.752-1.383,20.682-5.691c0.307-0.224,0.615-0.4,0.922-0.551
				c1.244-2.689,2.504-5.371,3.82-8.025c5.316-10.721,11.254-21.232,18.129-31.046C233.186,247.209,224.263,247.607,215.579,247.954
				z"/>
		</g>
	</g>
	<g>
		<g>
			<path class="st8" d="M335.125,276.894c-4.557,0.315-9.072,1.113-13.33,2.355c0.977,14.232,2.973,28.385,4.823,42.553
				c4.295-0.203,8.648-0.632,12.945-0.731C337.838,306.366,336.116,291.655,335.125,276.894z"/>
		</g>
	</g>
	<g>
		<g>
			<path class="st8" d="M439.883,281.132c-29.712-41.202-83.443-67.35-133.888-53.654c-22.517,6.113-42.893,18.806-57.726,36.912
				c-7.319,8.934-13.347,18.875-17.637,29.615c-2.256,5.65-4.101,11.448-5.377,17.402c-1.32,6.156-1.737,12.463-3.093,18.596
				c-0.083,0.379-0.2,0.725-0.335,1.051c-0.896,25.297-0.417,52.443,14.559,73.59c14.048,19.837,36.383,33.336,58.976,41.44
				c22.469,8.06,47.226,10.601,70.686,5.671c24.166-5.076,45.573-18.252,61.635-36.914
				C459.283,378.124,469.524,322.237,439.883,281.132z M337.209,233.025c7.894,3.097,16.097,2.415,23.184,7.795
				c5.65,4.289-1.634,12.536-7.262,8.265c-5.608-4.258-14.341-3.664-20.816-6.205C325.718,240.292,330.647,230.45,337.209,233.025z
				 M238.63,302.321c4.148-5.746,12.386,1.551,8.265,7.262c-3.264,4.523-3.462,13.4-1.941,18.551
				c2.007,6.793-8.373,10.442-10.383,3.638C231.826,322.479,232.878,310.292,238.63,302.321z M245.203,390.028
				c-4.792-8.48-9.574-17.719-9.926-27.652c-0.25-7.082,10.72-7.935,10.971-0.847c0.284,8.019,4.203,15.497,8.074,22.349
				C257.791,390.015,248.698,396.214,245.203,390.028z M258.63,268.321c7.854-7.898,16.118-17.607,27.313-20.561
				c6.826-1.799,10.496,8.575,3.638,10.383c-9.342,2.464-16.134,10.85-22.687,17.439
				C261.921,280.585,253.613,273.368,258.63,268.321z M288.131,434.085c-6.123-5.854-14.089-9.205-21-14
				c-5.816-4.037,1.492-12.269,7.262-8.264c6.95,4.822,14.814,8.086,21,14C300.502,430.704,293.275,439.003,288.131,434.085z
				 M351.186,442.438h-25c-7.059,0-7.936-10.971-0.847-10.971h25C357.397,431.468,358.274,442.438,351.186,442.438z
				 M369.896,373.424c-3.727,4.7-8.757,8.515-14.281,11.483c0.604,5.594,1.451,11.138,2.669,16.598
				c1.163,0.788,1.963,2.115,1.963,4.024v4c0,5.925-8.847,8.563-10.677,2.242c-2.124-7.339-3.458-14.827-4.374-22.388
				c-2.138,0.715-4.276,1.319-6.375,1.812c-3.278,0.77-6.599,1.238-9.919,1.412c0.316,3.324,1.021,6.51,2.419,9.27
				c3.163,6.246-5.918,12.473-9.119,6.15c-2.532-5.002-3.646-10.418-4.056-15.938c-5.479-0.836-10.824-2.551-15.832-5.211
				c-4.518-2.4-3.687-10.412,2.024-10.412h2c2.055,0,3.582,0.932,4.545,2.25c2.343,0.951,4.745,1.649,7.178,2.135
				c0.02-0.525,0.043-1.051,0.067-1.574c0.525-11.355,1.349-22.186,0.218-33.549c-0.448-4.494-0.971-8.982-1.526-13.469
				c-6.695-0.441-13.405-1.908-18.66-6.215c-7.181-5.883-10.478-15.674-10.252-24.777c0.363-14.703,9.791-24.455,22.461-29.926
				c-0.15-4.314-0.2-8.635-0.092-12.967c0.176-7.032,11.147-7.926,10.971-0.847c-0.086,3.44-0.075,6.872,0.009,10.298
				c4.326-0.987,8.812-1.57,13.285-1.793c-0.153-3.883-0.251-7.768-0.264-11.658c-0.024-7.062,10.946-7.938,10.971-0.847
				c0.015,4.239,0.13,8.473,0.312,12.7c8.14,0.719,15.736,2.689,21.65,5.796c6.263,3.29,1.401,13.161-4.895,9.854
				c-4.853-2.549-10.386-4.084-16.137-4.748c1.05,14.986,2.837,29.92,4.577,44.852c2.465,0.562,4.873,1.416,7.196,2.701
				C374.688,333.942,382.514,357.509,369.896,373.424z M391.393,249.82c6.087,4.844,12.761,9.745,15.561,17.313
				c2.468,6.672-7.926,10.278-10.383,3.638c-2.035-5.501-8.043-9.188-12.44-12.687C378.579,253.667,385.851,245.409,391.393,249.82z
				 M417.689,394.399c-3.174,9.107-9.195,18.5-18.108,22.744c-6.415,3.055-9.967-7.369-3.638-10.383
				c5.994-2.854,9.836-11.356,11.892-17.256c0.988-2.836,4.946-3.684,7.375-2.479C418.144,388.481,418.675,391.571,417.689,394.399z
				 M427.571,306.771c-2.283-7.911-9.917-13.097-12-21c-1.799-6.826,8.575-10.495,10.383-3.638c0.902,3.42,3.714,6.283,5.711,9.115
				c2.591,3.676,5.033,7.531,6.289,11.885C439.916,309.935,429.538,313.589,427.571,306.771z M432.63,353.321
				c2.75-3.133,0.708-10.146,0.647-13.945c-0.113-7.07,10.856-7.938,10.971-0.847c0.12,7.52,2.113,15.829-3.353,22.054
				C436.218,365.91,427.94,358.663,432.63,353.321z"/>
		</g>
	</g>
	<g>
		<g>
			<path class="st4" d="M456.528,262.243c-9.852-18.842-23.157-36.316-40.743-48.566c-21.401-14.906-48.525-20.814-74.289-17.696
				c-26.125,3.161-52.762,14.646-71.955,32.896c-2.46,2.34-4.806,4.769-7.064,7.265c26.24-18.918,60.249-27.666,92.212-21.805
				c25.191,4.621,48.996,16.499,68.507,33.017c18.874,15.979,34.984,36.284,41.477,60.516c9.319,34.784,1.131,71.735-18.64,101.12
				c9.933-10.264,17.921-22.271,22.8-36.484C481.033,336.974,473.615,294.923,456.528,262.243z"/>
		</g>
	</g>
	<g>
		<g>
			<path class="st8" d="M365.029,352.937c-0.86-8.025-5.615-15.381-12.895-18.869c0.039,0.353,0.08,0.705,0.118,1.057
				c1.346,12.258,1.562,24.85,2.337,37.353C361.092,367.937,365.966,361.688,365.029,352.937z"/>
		</g>
	</g>
	<g>
		<g>
			<path class="st8" d="M328.878,381.585c5.17-0.308,10.319-1.522,15.224-3.505c-1.064-14.042-1.272-28.225-2.819-42.109
				c-0.16-1.435-0.323-2.868-0.487-4.302c-4.267-0.107-8.648,0.348-12.855,0.602c0.428,3.553,0.829,7.109,1.183,10.67
				c1.106,11.115,0.691,21.547,0.115,32.649C329.141,377.472,328.997,379.495,328.878,381.585z"/>
		</g>
	</g>
	<g>
		<g>
			<path d="M357.951,324.685c-2.323-1.285-4.731-2.139-7.196-2.701c-1.74-14.932-3.527-29.865-4.577-44.852
				c5.751,0.664,11.285,2.199,16.137,4.748c6.296,3.307,11.158-6.564,4.895-9.854c-5.914-3.106-13.511-5.077-21.65-5.796
				c-0.181-4.228-0.297-8.461-0.312-12.7c-0.024-7.091-10.995-6.216-10.971,0.847c0.013,3.891,0.111,7.775,0.264,11.658
				c-4.473,0.223-8.959,0.806-13.285,1.793c-0.083-3.426-0.095-6.857-0.009-10.298c0.177-7.079-10.794-6.186-10.971,0.847
				c-0.108,4.332-0.058,8.652,0.092,12.967c-12.67,5.471-22.098,15.223-22.461,29.926c-0.225,9.104,3.072,18.895,10.252,24.777
				c5.255,4.307,11.965,5.773,18.66,6.215c0.555,4.486,1.078,8.975,1.526,13.469c1.131,11.363,0.307,22.193-0.218,33.549
				c-0.024,0.523-0.047,1.049-0.067,1.574c-2.434-0.485-4.835-1.184-7.178-2.135c-0.963-1.318-2.49-2.25-4.545-2.25h-2
				c-5.711,0-6.542,8.012-2.024,10.412c5.008,2.66,10.354,4.375,15.832,5.211c0.41,5.52,1.524,10.936,4.056,15.938
				c3.201,6.322,12.282,0.096,9.119-6.15c-1.397-2.76-2.103-5.945-2.419-9.27c3.32-0.174,6.641-0.643,9.919-1.412
				c2.099-0.493,4.237-1.098,6.375-1.812c0.916,7.561,2.25,15.049,4.374,22.388c1.83,6.321,10.677,3.683,10.677-2.242v-4
				c0-1.909-0.8-3.236-1.963-4.024c-1.218-5.46-2.065-11.004-2.669-16.598c5.524-2.969,10.554-6.783,14.281-11.483
				C382.514,357.509,374.688,333.942,357.951,324.685z M305.845,318.102c-6.729-3.94-7.962-14.714-6.23-21.534
				c1.444-5.689,6.408-10.074,11.46-12.928c0.992,12.621,2.696,25.192,4.353,37.766C312.106,320.882,308.89,319.885,305.845,318.102
				z M321.795,279.249c4.258-1.242,8.773-2.04,13.33-2.355c0.991,14.762,2.712,29.473,4.438,44.177
				c-4.297,0.1-8.65,0.528-12.945,0.731C324.769,307.634,322.772,293.481,321.795,279.249z M328.878,381.585
				c0.118-2.09,0.263-4.113,0.36-5.995c0.576-11.103,0.991-21.534-0.115-32.649c-0.354-3.561-0.755-7.117-1.183-10.67
				c4.207-0.254,8.588-0.709,12.855-0.602c0.164,1.434,0.327,2.867,0.487,4.302c1.547,13.885,1.755,28.067,2.819,42.109
				C339.198,380.062,334.048,381.277,328.878,381.585z M354.589,372.477c-0.775-12.503-0.991-25.095-2.337-37.353
				c-0.039-0.352-0.08-0.704-0.118-1.057c7.28,3.488,12.035,10.844,12.895,18.869C365.966,361.688,361.092,367.937,354.589,372.477z
				"/>
		</g>
	</g>
	<g>
		<g>
			<path d="M459.794,245.722c-11.03-18.133-25.917-34.008-44.062-45.113c-22.738-13.916-50.497-18.572-76.741-15.397
				c-2.584,0.313-5.166,0.729-7.744,1.202v-2.884c0-2.384-1.957-4.308-4.172-4.89c1.344-1.555,2.56-3.285,3.614-5.24
				c5.08-9.418,5.581-22.076-0.195-31.23c5.525-2.949,9.316-7.816,11.029-14.381c2.229-8.539,1.951-19.02-2.554-26.828
				c0.366-0.688,0.682-1.412,0.932-2.18c3.1-9.525-7.617-16.271-15.047-18.953c-13.955-5.039-30.439-4.738-45.096-4.937
				c-12.601-0.171-25.151-0.077-37.729-0.989c-13.586-0.984-27.143-2.348-40.718-3.473c-20.647-1.712-41.181-1.611-61.852-2.192
				c-18.57-0.522-58.458-2.761-64.427,20.554c-7.561,4.592-10.294,13.645-11.246,22.193c-0.995,8.941-0.387,18.372,5.292,25.573
				c-9.05,10.185-5.639,29.743,0.092,40.655c0.891,1.695,2.034,3.222,3.347,4.614c-6.931,7.462-5.903,25.233-4.638,33.222
				c0.679,4.287,2.125,7.883,4.134,10.938c-3.181,3.535-5.096,7.932-6.527,12.404c-2.332,7.287-2.028,15.771-0.528,23.448
				c-8.068,1.112-15.938,4.558-22.957,8.396c-7.086,3.874-14.863,10.373-16.267,18.81c-0.606,3.645,0.21,6.65,1.93,9.16
				c-3.247,16.171-4.804,37.654,7.528,49.855c2.532,2.506,5.685,4.285,9.05,5.625c-2.541,16.433-4.048,32.841,11.035,43.848
				c7.29,5.318,16.107,8.674,25.229,10.768c-3.846,3.236-4.15,8.611-3.571,13.73c0.699,6.174,2.294,13.469,5.268,18.998
				c8.706,16.189,29.196,20.238,45.825,22.303c22.616,2.809,45.592,2.924,68.254,0.637c23.239-2.344,45.216-8.465,67.3-15.824
				c1.755-0.584,2.799-1.725,3.274-3.049c5.501,3.049,11.143,5.762,16.775,8.162c27.554,11.746,58.507,15.02,87.161,8.414
				c1.259,1.57,3.312,2.422,5.79,1.473c44.534-17.051,89.358-43.389,104.081-91.779
				C493.305,329.808,481.861,281.997,459.794,245.722z M85.248,93.529c0.144-5.968,5.991-8.923,10.925-10.681
				c7.797-2.779,16.368-3.324,24.57-3.664c7.862-0.326,15.734-0.09,23.595,0.139c12.342,0.356,24.659-0.02,37.007,0.633
				c16.313,0.863,32.575,2.598,48.85,3.973c15.574,1.315,31.039,1.801,46.661,1.897c7.691,0.048,15.38,0.205,23.049,0.808
				c7.417,0.583,15.568,1.189,22.521,3.988c1.617,0.65,7.304,3.123,6.916,5.329c-0.185,1.058-3.451,2.317-4.236,2.667
				c-3.794,1.688-8.057,2.625-12.115,3.414c-18.408,3.576-37.538,1.566-56.098,0.604c-20.239-1.051-40.388,0.641-60.621,0.826
				c-20.384,0.186-40.504,0.593-60.865-1.076c-16.963-1.39-33.839-3.736-50.587-6.758C85.072,95.003,85.229,94.306,85.248,93.529z
				 M76.071,105.193c30.282,5.774,60.95,9.216,91.792,9.71c31.784,0.51,63.482-2.775,95.256-1.008
				c15.141,0.842,30.312,1.791,45.417-0.062c6.176-0.757,15.077-1.912,21.939-5.301c3.042,7.559,2.239,20.385-5.124,23.963
				c-4.413,2.145-9.536,2.586-14.331,3.184c-6.044,0.752-11.917,2.111-17.912,3.145c-15.352,2.643-31,3.287-46.547,3.541
				c-16.182,0.262-32.321,0.544-48.499,1.078c-16.17,0.533-32.375,0.723-48.521-0.478c-15.604-1.159-30.335-5.226-45.653-8.021
				c-6.065-1.107-12.211-1.35-18.312-2.156c-5.045-0.666-8.451-2.218-10.217-7.216C73.28,119.69,73.856,111.632,76.071,105.193z
				 M217.987,236.851c-9.822,0.453-19.638,0.831-29.468,1.105c-22.006,0.616-44.063,0.785-65.905-2.34
				c-9.64-1.38-19.475-3.318-28.649-6.641c-2.086-0.756-4.109-1.617-5.985-2.674c-0.455-2.509-2.391-4.834-5.64-4.834
				c-0.09,0-0.173,0.002-0.261,0.002c-0.518-0.635-1.01-1.301-1.449-2.034c-2.838-4.743-2.455-11.185-2.346-16.493
				c0.061-2.97,0.346-5.915,0.847-8.844c0.196-1.148,0.446-2.33,0.855-3.424c0.576-1.54,1.362-1.342,0.2-1.236
				c0.827-0.074,1.542-0.296,2.155-0.619c3.374,1.706,6.91,3.057,10.162,4.186c11.854,4.113,24.345,5.664,36.79,6.73
				c29.442,2.526,58.643,3.65,88.15,1.385c15.805-1.213,31.546-3.165,47.248-5.309c14.18-1.938,28.615-3.465,42.613-6.494
				c4.749-1.027,9.135-2.598,12.974-4.945v4.52c-19.583,5.305-38.329,15-53.599,27.898c-5.846,4.938-11.17,10.371-16.062,16.17
				c-1.229-1.568-3.246-2.344-5.673-1.199C236.452,235.769,227.238,236.424,217.987,236.851z M241.558,244.771
				c-6.875,9.813-12.812,20.325-18.129,31.046c-1.316,2.654-2.576,5.336-3.82,8.025c-0.307,0.15-0.615,0.327-0.922,0.551
				c-5.93,4.309-13.571,5.134-20.682,5.691c-8.083,0.635-16.168,0.594-24.259,1.246c-18.115,1.461-36.407,1.502-54.2-2.6
				c-8.583-1.979-16.722-5.297-24.336-9.706c-5.285-3.06-11.112-5.257-15.498-9.644c-3.871-3.871-4.36-10.771-4.683-15.85
				c-0.464-7.302,0.743-14.016,4.908-19.622c6.817,4.69,15.572,7.275,24.045,9.343c24.761,6.045,50.657,6.381,76.002,5.9
				c11.875-0.225,23.73-0.725,35.595-1.199C224.263,247.607,233.186,247.209,241.558,244.771z M311.301,176.784
				c-4.947,2.016-10.392,2.63-15.625,3.465c-8.062,1.285-16.16,2.387-24.244,3.533c-31.444,4.463-63.051,8.094-94.857,7.831
				c-14.096-0.116-28.153-1.36-42.201-2.435c-12.475-0.953-24.999-2.353-36.997-6.049c-8.594-2.648-17.083-6.477-20.395-15.137
				c-2.674-6.994-3.828-16.359-0.282-23.235c0.427-0.829,1.042-1.494,1.777-2.003c7.447,2.309,16.704,1.871,23.314,2.987
				c15.367,2.595,30.037,6.755,45.653,8.021c31.959,2.591,64.142-0.1,96.14-0.382c15.625-0.138,31.254-0.782,46.734-3.014
				c5.981-0.862,11.833-2.39,17.806-3.239c4.07-0.58,8.13-1.03,12.155-1.773c0.053,0.867,0.338,1.773,0.924,2.674
				C327.652,157.942,321.681,172.554,311.301,176.784z M45.812,280.74c6.552-4.224,14.855-7.639,22.781-8.224
				c2.25,3.787,5.462,6.904,9.266,9.404c7.946,5.223,16.888,9.873,25.726,13.325c20.409,7.97,42.882,8.724,64.501,7.505
				c9.786-0.552,19.538-1.07,29.32-1.6c6.751-0.367,13.972-1.246,20.392-3.816c-0.416,1.248-0.828,2.498-1.211,3.758
				c-1.159,3.802-1.92,7.646-2.571,11.506c-0.952-1.354-2.524-2.271-4.676-2.131c-24.41,1.588-48.403,4.723-72.927,4.068
				c-23.652-0.631-47.901-3.994-70.283-11.908c-5.173-1.828-10.59-2.881-15.873-4.334c-3.401-0.936-8.126-2.095-11.273-4.37
				c-0.443-1.136-1.303-2.005-2.356-2.56C35.67,288.224,42.974,282.571,45.812,280.74z M46.882,342.778
				c-6.869-3.195-8.744-9.705-9.744-16.733c-0.967-6.789-0.616-13.688,0.405-20.472c6.328,2.828,13.759,4.368,18.61,5.58
				c9.02,2.254,17.877,5.553,27.519,7.852c13.533,3.226,27.374,5.002,41.243,5.918c13.951,0.922,28.138,1.234,42.092,0.257
				c14.413-1.009,28.758-2.804,43.178-3.741c0.393-0.025,0.757-0.089,1.102-0.176c-0.002,0.039-0.009,0.074-0.011,0.113
				c-0.424,10.219-0.794,20.648-0.426,31c-8.209-0.016-16.31,1.311-24.438,2.498c-10.043,1.467-19.613,1.447-29.722,0.994
				c-21.536-0.967-43.098-1.225-64.527-3.791c-9.103-1.09-18.005-3.016-27.011-4.648C58.961,346.306,52.637,345.456,46.882,342.778z
				 M67.512,392.05c-6.399-3.012-11.542-7.408-13.623-14.34c-1.968-6.553-0.176-14.265,0.987-20.99
				c8.419,1.814,16.991,3.397,25.484,4.788c22.915,3.751,46.26,4.153,69.414,5.017c11.427,0.426,22.537,1.26,33.926-0.186
				c9.298-1.182,18.487-2.975,27.856-2.986c1.059,11.045,3.27,21.877,7.479,32.141c-0.354,0.054-0.717,0.139-1.091,0.268
				c-6.907,2.396-14.356,2.629-21.586,3.171c-8.928,0.669-17.767,1.813-26.728,2.1c-8.793,0.281-17.521-0.583-26.291-0.563
				c-9.808,0.021-19.614,0.305-29.423,0.23C98.1,400.577,81.988,398.864,67.512,392.05z M204.583,451.897
				c-19.108,2.674-38.579,3.338-57.832,2.168c-15.869-0.964-33.65-1.928-47.549-10.467c-5.391-3.311-7.679-8.096-9.398-13.863
				c-0.837-2.811-1.488-5.648-1.898-8.552c-0.192-1.36-0.251-2.729-0.25-4.101c0-0.258,0.026-0.455,0.06-0.609
				c2.142-1.598,2.615-4.266,1.943-6.48c4.516,0.652,9.01,1.062,13.334,1.294c10.458,0.56,20.918,0.384,31.385,0.233
				c10.805-0.154,21.571,0.646,32.377,0.555c9.7-0.082,19.243-1.246,28.89-2.053c8.704-0.727,17.605-0.988,25.936-3.879
				c0.827-0.287,1.496-0.697,2.021-1.191c0.379,0.674,0.761,1.348,1.161,2.016c7.78,12.961,19.105,23.469,31.825,31.904
				C239.498,444.485,222.48,449.394,204.583,451.897z M366.046,451.755c-23.46,4.93-48.217,2.389-70.686-5.671
				c-22.593-8.104-44.928-21.604-58.976-41.44c-14.976-21.146-15.455-48.293-14.559-73.59c0.136-0.326,0.252-0.672,0.335-1.051
				c1.356-6.133,1.773-12.439,3.093-18.596c1.277-5.954,3.121-11.752,5.377-17.402c4.29-10.74,10.318-20.682,17.637-29.615
				c14.833-18.106,35.209-30.799,57.726-36.912c50.445-13.695,104.176,12.452,133.888,53.654
				c29.642,41.105,19.4,96.992-12.202,133.709C411.619,433.503,390.212,446.679,366.046,451.755z M468.835,372.505
				c-4.879,14.213-12.867,26.221-22.8,36.484c19.771-29.385,27.958-66.336,18.64-101.12c-6.493-24.231-22.603-44.537-41.477-60.516
				c-19.512-16.518-43.316-28.396-68.507-33.017c-31.963-5.861-65.972,2.887-92.212,21.805c2.258-2.496,4.604-4.925,7.064-7.265
				c19.192-18.251,45.83-29.735,71.955-32.896c25.764-3.118,52.888,2.79,74.289,17.696c17.585,12.25,30.891,29.725,40.743,48.566
				C473.615,294.923,481.033,336.974,468.835,372.505z"/>
		</g>
	</g>
	<g>
		<g>
			<path d="M437.954,303.134c-1.256-4.354-3.698-8.209-6.289-11.885c-1.997-2.832-4.809-5.695-5.711-9.115
				c-1.808-6.857-12.182-3.188-10.383,3.638c2.083,7.903,9.717,13.089,12,21C429.538,313.589,439.916,309.935,437.954,303.134z"/>
		</g>
	</g>
	<g>
		<g>
			<path d="M444.248,338.529c-0.115-7.091-11.084-6.224-10.971,0.847c0.062,3.799,2.104,10.812-0.647,13.945
				c-4.689,5.342,3.588,12.589,8.265,7.262C446.36,354.358,444.367,346.049,444.248,338.529z"/>
		</g>
	</g>
	<g>
		<g>
			<path d="M238.63,302.321c-5.752,7.971-6.804,20.158-4.059,29.45c2.01,6.805,12.39,3.155,10.383-3.638
				c-1.521-5.15-1.323-14.027,1.941-18.551C251.016,303.872,242.778,296.575,238.63,302.321z"/>
		</g>
	</g>
	<g>
		<g>
			<path d="M254.322,383.878c-3.871-6.852-7.791-14.33-8.074-22.349c-0.251-7.088-11.221-6.235-10.971,0.847
				c0.352,9.934,5.134,19.172,9.926,27.652C248.698,396.214,257.791,390.015,254.322,383.878z"/>
		</g>
	</g>
	<g>
		<g>
			<path d="M295.393,425.821c-6.186-5.914-14.05-9.178-21-14c-5.77-4.005-13.079,4.227-7.262,8.264c6.911,4.795,14.877,8.146,21,14
				C293.275,439.003,300.502,430.704,295.393,425.821z"/>
		</g>
	</g>
	<g>
		<g>
			<path d="M350.339,431.468h-25c-7.089,0-6.212,10.971,0.847,10.971h25C358.274,442.438,357.397,431.468,350.339,431.468z"/>
		</g>
	</g>
	<g>
		<g>
			<path d="M415.209,387.026c-2.428-1.205-6.386-0.357-7.375,2.479c-2.056,5.899-5.897,14.402-11.892,17.256
				c-6.33,3.014-2.777,13.438,3.638,10.383c8.914-4.244,14.934-13.637,18.108-22.744
				C418.675,391.571,418.144,388.481,415.209,387.026z"/>
		</g>
	</g>
	<g>
		<g>
			<path d="M285.943,247.761c-11.196,2.953-19.46,12.662-27.313,20.561c-5.017,5.047,3.292,12.264,8.265,7.262
				c6.552-6.59,13.345-14.976,22.687-17.439C296.439,256.336,292.77,245.962,285.943,247.761z"/>
		</g>
	</g>
	<g>
		<g>
			<path d="M360.393,240.82c-7.087-5.38-15.29-4.698-23.184-7.795c-6.562-2.575-11.492,7.267-4.895,9.854
				c6.476,2.541,15.208,1.947,20.816,6.205C358.759,253.356,366.043,245.109,360.393,240.82z"/>
		</g>
	</g>
	<g>
		<g>
			<path d="M406.954,267.134c-2.8-7.568-9.473-12.47-15.561-17.313c-5.542-4.411-12.814,3.847-7.262,8.265
				c4.396,3.498,10.405,7.186,12.44,12.687C399.027,277.412,409.422,273.806,406.954,267.134z"/>
		</g>
	</g>
</g>
</svg>
