<?xml version="1.0" encoding="utf-8"?>
<!-- Generator: Adobe Illustrator 16.0.3, SVG Export Plug-In . SVG Version: 6.00 Build 0)  -->
<!DOCTYPE svg PUBLIC "-//W3C//DTD SVG 1.1//EN" "http://www.w3.org/Graphics/SVG/1.1/DTD/svg11.dtd">
<svg version="1.1" id="Layer_1" xmlns="http://www.w3.org/2000/svg" xmlns:xlink="http://www.w3.org/1999/xlink" x="0px" y="0px"
	 width="512px" height="512px" viewBox="0 0 512 512" style="enable-background:new 0 0 512 512;" xml:space="preserve">
<style type="text/css">
<![CDATA[
	.st0{fill:#127274;}
	.st1{fill:#14B6B9;}
	.st2{fill:#EF4823;}
	.st3{fill:#BCBCBC;}
	.st4{fill:#F6851F;}
	.st5{fill:#C0E6ED;}
	.st6{fill:#C56528;}
	.st7{fill:#FCBF95;}
	.st8{fill:#FEBF10;}
	.st9{fill:#FFFFFF;}
	.st10{fill:#9FDADF;}
	.st11{fill:#010101;}
	.st12{fill:#3AB37C;}
	.st13{fill:#D6E5E5;}
	.st14{fill:#71C598;}
	.st15{fill:#74CCCF;}
]]>
</style>
<g>
	<g>
		<g>
			<g>
				<path class="st12" d="M372.636,197.769c-14.494,3.326-27.135,13.787-40.795,19.603c4.976,3.981,10.1,7.777,15.376,11.347
					c7.906,5.348,16.292,10.146,25.083,13.963C369.022,227.997,372.35,212.757,372.636,197.769z"/>
			</g>
		</g>
		<g>
			<g>
				<path class="st8" d="M421.768,265.216c-11.442,0.324-23.669-2.912-34.077-5.703c-16.227-4.352-31.194-11.49-45.153-20.79
					c-25.23-16.809-47.378-38.202-65.148-62.761c-1.184,4.599-1.838,9.289-2.02,14.113c2.705-0.17,5.308,1.373,5.169,4.862
					c-0.482,12.091,10.35,23.241,18.559,30.919c5.48,5.125,10.602,10.463,16.663,14.95c6.188,4.581,12.688,8.671,19.24,12.704
					c7.218,4.442,15.076,8.208,22.841,11.592c5.182,2.258,10.343,4.604,15.944,5.514c4.334,0.704,8.692,1.335,13.067,1.721
					c2.066,0.182,4.148,0.357,6.225,0.268c0.326-0.014,0.655-0.025,0.983-0.043c2.908-2.749,9.028-1.844,9.478,3.376
					c0.053,0.612,0.031,1.171-0.034,1.698C410.188,274.239,416.285,270.061,421.768,265.216z"/>
			</g>
		</g>
		<g>
			<g>
				<path class="st0" d="M334.804,169.02c-0.268,12.149-3.195,24.206-2.907,36.329c11.702-5.537,22.579-13.398,34.847-17.273
					C355.658,182.436,344.958,176.108,334.804,169.02z"/>
			</g>
		</g>
		<g>
			<g>
				<path class="st0" d="M383.604,195.856c-0.218,13.239-3.283,27.083-1.402,40.164c10.358-10.133,19.593-21.432,31.266-30.08
					C403.243,203.208,393.309,199.868,383.604,195.856z"/>
			</g>
		</g>
		<g>
			<g>
				<path class="st0" d="M299.484,138.559c-5.875,6.642-11.413,13.522-15.735,21.439c-0.636,1.164-1.221,2.331-1.782,3.499
					c0.226,0.236,0.443,0.492,0.646,0.788c2.178,3.185,4.434,6.319,6.761,9.399c1.284-0.824,2.914-1.109,4.683-0.434
					c0.207-0.023,0.508-0.101,0.916-0.328c1.319-0.734,2.593-1.538,3.82-2.418c3.26-2.336,6.365-4.879,9.633-7.203
					c3.334-2.371,6.944-4.688,10.792-6.137C312.279,151.399,305.678,145.209,299.484,138.559z"/>
			</g>
		</g>
		<g>
			<g>
				<path class="st12" d="M377.275,282.259c-15.245-2.139-29.029-9.014-42.5-16.258c-16.321-8.777-30.641-19.862-43.851-32.75
					c-3.999-3.901-8.395-8.422-12.155-13.404c1.71,8.084,3.893,16.084,6.428,23.879c4.171,12.826,9.098,25.406,19.486,34.503
					c2.434,2.131,2.243,5.01,0.814,7.069c0.111,0.643,0.111,1.346-0.046,2.112c-6.092,29.841-17.79,57.876-27.345,86.673
					c-8.22,24.771-15.648,50.311-29.482,72.664c-0.03,3.469-3.663,7.226-8.019,5.541c-5.239-2.025-19.291-0.636-18.164,7.361
					c1.416,10.055,13.419,16.465,22.137,19.109c9.969,3.023,25.218,7.277,34.399,0.043c10.095-7.957-2.069-18.502-8.556-24.309
					c-3.054-2.734-1.914-6.655,0.614-8.559c0.227-0.409,0.514-0.813,0.885-1.205c3.644-3.846,6.269-8.519,8.929-13.064
					c2.926-5.004,6.124-9.844,9.014-14.865c6.868-11.934,12.49-24.51,17.616-37.275c5.7-14.196,11.674-28.219,16.897-42.611
					c4.954-13.652,9.718-27.375,14.75-41c0.517-1.398,1.363-2.279,2.352-2.742c0.772-1.294,2.142-2.227,4.151-2.295
					c14.576-0.5,29.309-2.544,43.191-7.159C384.141,283.439,379.586,282.583,377.275,282.259z"/>
			</g>
		</g>
		<g>
			<g>
				<path class="st12" d="M323.841,166.972c-5.728,1.447-11.507,7.121-15.552,10.181c-3.166,2.396-6.922,5.349-10.918,6.548
					c7.3,8.686,15.201,16.873,23.632,24.471C320.249,194.388,324.062,180.75,323.841,166.972z"/>
			</g>
		</g>
		<g>
			<g>
				<path class="st12" d="M423.861,245.18c-0.948-3.927-1.77-7.882-2.492-11.856c-1.037-5.704-1.995-11.412-3.407-17.018
					c-11.79,9.176-21.275,21.069-32.182,31.297c1.33,0.394,2.664,0.771,4.009,1.111c6.604,1.676,13.375,3.119,20.1,4.235
					c4.23,0.702,8.685,1.392,13.047,1.21c0.379-1.438,1.297-2.719,2.473-3.543C424.893,248.813,424.306,247.022,423.861,245.18z"/>
			</g>
		</g>
		<g>
			<g>
				<path class="st8" d="M434.342,125.899c-12.388-14.868-29.665-24.865-48.597-28.102c-0.728,1.535-2.133,2.761-4.269,3.048
					c-5.149,0.692-8.896,1.688-5.896,6.837c2.989,5.13,7.26,9.425,11.959,13.018c14.647,11.199,35.884,14.897,53.98,15.155
					C439.381,132.411,436.995,129.083,434.342,125.899z"/>
			</g>
		</g>
		<g>
			<g>
				<path class="st1" d="M446.811,145.696c-0.796,0.712-1.899,1.158-3.334,1.149c-23.508-0.155-51.257-5.347-68.588-22.585
					c-4.919-4.895-11.86-12.332-11.473-19.91c0.159-3.107,1.089-5.58,2.557-7.555c-6.184,0.379-12.359,1.438-18.22,3.309
					c-0.366,0.66-0.897,1.278-1.624,1.816c-9.619,7.119-6.806,20.285-1.867,29.484c5.866,10.93,13.746,19.146,25.237,24.101
					c14.042,6.056,29.376,8.163,44.439,10.052c9.296,1.166,26.756,6.16,32.188-4.645c1.182-2.35,3.286-3.152,5.3-2.91
					C450.176,153.81,448.649,149.694,446.811,145.696z"/>
			</g>
		</g>
		<g>
			<g>
				<path class="st2" d="M454.026,169.028c-8.731,12.142-25.493,9.407-38.965,7.73c-18.446-2.298-38.069-4.537-54.721-13.447
					c-16.676-8.924-35.167-33.637-31.359-53.641c-6.898,4.859-13.105,10.736-18.725,16.995c-1.127,1.255-2.261,2.502-3.396,3.746
					c19.715,21.134,43.465,37.655,69.469,50.151c14.394,6.916,29.161,12.263,44.712,15.961c6.531,1.553,12.701,2.684,19.389,2.998
					c4.707,0.223,9.662,0.322,14.107,2.029C456.028,190.718,455.895,179.71,454.026,169.028z"/>
			</g>
		</g>
		<g>
			<g>
				<path class="st0" d="M451.605,212.288c-4.934-2.574-11.732-1.781-17.136-2.106c-2.35-0.142-4.695-0.465-7.031-0.886
					c2.233,7.582,3.452,15.411,4.901,23.182c0.993,5.328,2.921,10.723,4.137,16.129c2.491-3.594,4.767-7.369,6.797-11.322
					c4.018-7.822,7.089-16.123,9.158-24.644C452.16,212.545,451.885,212.435,451.605,212.288z"/>
			</g>
		</g>
		<g>
			<g>
				<path d="M415.231,96.332c-20.104-10.963-44.184-13.007-66.296-7.979c-25.651,5.834-45.364,27.619-61.451,47.059
					c-8.508,10.28-16.127,21.938-20.163,34.744c-4.344,13.787-3.44,28.472-1.047,42.539c2.352,13.828,5.986,27.549,10.595,40.787
					c3.976,11.418,9.497,22.235,18.118,30.732c-0.138,0.338-0.253,0.701-0.333,1.098c-5.867,28.733-16.979,55.766-26.273,83.467
					c-8.238,24.553-15.488,49.854-29.037,72.128c-10.864-1.47-24.599,2.325-27.441,13.432
					c-4.012,15.681,12.801,29.021,25.717,33.635c15.128,5.405,35.107,9.722,48.87-1.126c14.353-11.312,5.423-26.295-4.682-36.668
					c6.433-7.507,10.917-17.072,16.07-25.4c7.559-12.217,13.382-25.469,18.801-38.742c11.378-27.871,21.534-56.055,31.955-84.289
					c23.942-1.084,47.958-6.555,68.53-19.211c21.944-13.5,36.523-36.552,44.274-60.673
					C476.372,175.386,459.082,120.245,415.231,96.332z M381.476,100.846c2.136-0.287,3.542-1.513,4.269-3.048
					c18.933,3.236,36.209,13.233,48.597,28.102c2.652,3.184,5.039,6.512,7.178,9.956c-18.096-0.258-39.333-3.956-53.98-15.155
					c-4.7-3.593-8.97-7.888-11.959-13.018C372.58,102.534,376.327,101.538,381.476,100.846z M346.128,101.921
					c0.727-0.538,1.258-1.156,1.624-1.816c5.86-1.871,12.036-2.93,18.22-3.309c-1.468,1.975-2.398,4.447-2.557,7.555
					c-0.387,7.578,6.554,15.016,11.473,19.91c17.331,17.238,45.08,22.43,68.588,22.585c1.435,0.009,2.538-0.438,3.334-1.149
					c1.839,3.998,3.365,8.113,4.615,12.307c-2.014-0.242-4.118,0.561-5.3,2.91c-5.433,10.805-22.892,5.811-32.188,4.645
					c-15.063-1.889-30.397-3.996-44.439-10.052c-11.491-4.955-19.371-13.171-25.237-24.101
					C339.322,122.206,336.509,109.04,346.128,101.921z M283.749,159.998c4.322-7.917,9.861-14.798,15.735-21.439
					c6.194,6.65,12.794,12.841,19.732,18.606c-3.848,1.449-7.458,3.766-10.792,6.137c-3.268,2.324-6.373,4.867-9.633,7.203
					c-1.228,0.88-2.501,1.684-3.82,2.418c-0.408,0.228-0.709,0.305-0.916,0.328c-1.769-0.676-3.398-0.391-4.683,0.434
					c-2.327-3.08-4.583-6.215-6.761-9.399c-0.202-0.296-0.42-0.552-0.646-0.788C282.528,162.329,283.113,161.162,283.749,159.998z
					 M321.003,208.171c-8.431-7.598-16.332-15.785-23.632-24.471c3.997-1.199,7.752-4.152,10.918-6.548
					c4.045-3.06,9.824-8.733,15.552-10.181C324.062,180.75,320.249,194.388,321.003,208.171z M345.629,290.876
					c-2.01,0.068-3.379,1.001-4.151,2.295c-0.989,0.463-1.835,1.344-2.352,2.742c-5.032,13.625-9.796,27.348-14.75,41
					c-5.223,14.393-11.197,28.415-16.897,42.611c-5.125,12.766-10.748,25.342-17.616,37.275c-2.89,5.021-6.088,9.861-9.014,14.865
					c-2.66,4.546-5.285,9.219-8.929,13.064c-0.371,0.392-0.658,0.796-0.885,1.205c-2.528,1.903-3.668,5.824-0.614,8.559
					c6.486,5.807,18.65,16.352,8.556,24.309c-9.182,7.234-24.431,2.98-34.399-0.043c-8.717-2.645-20.721-9.055-22.137-19.109
					c-1.127-7.997,12.925-9.387,18.164-7.361c4.356,1.685,7.988-2.072,8.019-5.541c13.834-22.354,21.262-47.894,29.482-72.664
					c9.556-28.797,21.253-56.832,27.345-86.673c0.157-0.767,0.157-1.47,0.046-2.112c1.429-2.06,1.62-4.938-0.814-7.069
					c-10.389-9.097-15.315-21.677-19.486-34.503c-2.535-7.795-4.718-15.795-6.428-23.879c3.76,4.982,8.156,9.503,12.155,13.404
					c13.21,12.888,27.53,23.973,43.851,32.75c13.472,7.244,27.256,14.119,42.5,16.258c2.311,0.324,6.866,1.181,11.545,1.458
					C374.938,288.332,360.205,290.376,345.629,290.876z M403.504,277.636c0.065-0.527,0.087-1.086,0.034-1.698
					c-0.449-5.22-6.569-6.125-9.478-3.376c-0.328,0.018-0.657,0.029-0.983,0.043c-2.077,0.09-4.159-0.086-6.225-0.268
					c-4.375-0.386-8.733-1.017-13.067-1.721c-5.601-0.909-10.763-3.256-15.944-5.514c-7.765-3.384-15.623-7.149-22.841-11.592
					c-6.552-4.033-13.053-8.123-19.24-12.704c-6.061-4.487-11.183-9.825-16.663-14.95c-8.209-7.678-19.042-18.828-18.559-30.919
					c0.139-3.489-2.464-5.032-5.169-4.862c0.182-4.824,0.835-9.515,2.02-14.113c17.771,24.559,39.918,45.952,65.148,62.761
					c13.959,9.3,28.927,16.438,45.153,20.79c10.408,2.791,22.635,6.027,34.077,5.703
					C416.285,270.061,410.188,274.239,403.504,277.636z M372.636,197.769c-0.286,14.988-3.613,30.229-0.335,44.912
					c-8.792-3.816-17.177-8.615-25.083-13.963c-5.277-3.569-10.4-7.365-15.376-11.347
					C345.501,211.556,358.142,201.095,372.636,197.769z M334.804,169.02c10.154,7.089,20.854,13.416,31.94,19.056
					c-12.268,3.875-23.145,11.736-34.847,17.273C331.609,193.226,334.536,181.169,334.804,169.02z M383.604,195.856
					c9.705,4.012,19.639,7.352,29.864,10.084c-11.673,8.648-20.908,19.947-31.266,30.08
					C380.321,222.939,383.386,209.096,383.604,195.856z M422.937,254.159c-4.362,0.182-8.816-0.508-13.047-1.21
					c-6.725-1.116-13.496-2.56-20.1-4.235c-1.345-0.341-2.68-0.718-4.009-1.111c10.907-10.228,20.392-22.121,32.182-31.297
					c1.412,5.605,2.37,11.313,3.407,17.018c0.723,3.975,1.544,7.93,2.492,11.856c0.445,1.843,1.032,3.634,1.548,5.437
					C424.233,251.44,423.315,252.722,422.937,254.159z M443.274,237.284c-2.031,3.953-4.306,7.729-6.797,11.322
					c-1.216-5.406-3.144-10.801-4.137-16.129c-1.449-7.771-2.668-15.6-4.901-23.182c2.336,0.421,4.681,0.744,7.031,0.886
					c5.404,0.325,12.203-0.468,17.136,2.106c0.279,0.146,0.555,0.257,0.827,0.353C450.363,221.161,447.292,229.462,443.274,237.284z
					 M454.536,201.552c-4.445-1.707-9.4-1.807-14.107-2.029c-6.688-0.314-12.858-1.445-19.389-2.998
					c-15.551-3.698-30.318-9.045-44.712-15.961c-26.004-12.496-49.754-29.018-69.469-50.151c1.135-1.244,2.269-2.491,3.396-3.746
					c5.62-6.259,11.827-12.136,18.725-16.995c-3.808,20.004,14.683,44.717,31.359,53.641c16.652,8.91,36.275,11.149,54.721,13.447
					c13.473,1.677,30.234,4.411,38.965-7.73C455.895,179.71,456.028,190.718,454.536,201.552z"/>
			</g>
		</g>
	</g>
	<g>
		<g>
			<g>
				<path class="st12" d="M148.24,141.391c-11.305,9.661-17.662,24.787-27.075,36.269c6.254,1.224,12.553,2.215,18.883,2.934
					c9.484,1.077,19.138,1.446,28.698,0.756C159.04,169.854,154.929,154.806,148.24,141.391z"/>
			</g>
		</g>
		<g>
			<g>
				<path class="st8" d="M190.182,189.138c-16.396,3.66-32.968,4.266-49.647,2.49c-30.146-3.211-59.684-11.912-86.809-25.445
					c1.081,4.624,2.674,9.084,4.748,13.443c2.318-1.404,5.34-1.242,6.833,1.915c5.173,10.938,19.938,15.804,30.77,18.806
					c7.23,2.004,14.243,4.361,21.692,5.531c7.605,1.193,15.262,1.808,22.937,2.347c8.454,0.595,17.163,0.292,25.612-0.306
					c5.638-0.399,11.299-0.711,16.685-2.5c4.167-1.383,8.322-2.843,12.378-4.527c1.915-0.796,3.841-1.604,5.641-2.646
					c0.282-0.163,0.568-0.326,0.852-0.493c1.304-3.783,7.147-5.815,9.963-1.397c0.331,0.518,0.57,1.023,0.756,1.521
					c4.351-6.106,7.818-12.634,10.433-19.467C213.034,183.995,200.699,186.791,190.182,189.138z"/>
			</g>
		</g>
		<g>
			<g>
				<path class="st0" d="M101.395,133.435c5.39,10.893,8.381,22.933,14.251,33.543c7.806-10.327,13.804-22.332,22.882-31.449
					C126.091,135.665,113.677,135.015,101.395,133.435z"/>
			</g>
		</g>
		<g>
			<g>
				<path class="st0" d="M157.075,134.615c5.939,11.835,9.636,25.522,17.362,36.245c4.486-13.778,7.438-28.069,13.776-41.142
					C177.885,132.034,167.534,133.676,157.075,134.615z"/>
			</g>
		</g>
		<g>
			<g>
				<path class="st0" d="M55.983,122.799c-2.13,8.607-3.852,17.271-4.015,26.29c-0.024,1.326-0.002,2.631,0.042,3.926
					c0.31,0.105,0.621,0.23,0.937,0.399c3.406,1.813,6.856,3.547,10.346,5.199c0.756-1.325,2.069-2.333,3.949-2.554
					c0.173-0.116,0.404-0.324,0.66-0.715c0.829-1.262,1.585-2.564,2.266-3.912c1.807-3.58,3.381-7.272,5.201-10.846
					c1.856-3.646,3.983-7.371,6.722-10.438C73.27,128.253,64.553,125.824,55.983,122.799z"/>
			</g>
		</g>
		<g>
			<g>
				<path class="st12" d="M176.567,416.259c-3.974-1.009-4.779-5.012-3.42-7.869c0.011-0.468,0.079-0.959,0.226-1.479
					c1.448-5.096,1.61-10.453,1.862-15.714c0.275-5.79,0.868-11.561,1.103-17.35c0.56-13.757-0.283-27.507-1.654-41.194
					c-1.524-15.223-2.725-30.417-4.763-45.592c-1.933-14.395-4.067-28.763-5.919-43.168c-0.189-1.479,0.153-2.652,0.814-3.521
					c0.085-1.504,0.867-2.965,2.616-3.956c12.687-7.195,24.797-15.831,34.962-26.352c-4.275,1.922-8.709,3.272-10.907,4.056
					c-14.501,5.166-29.902,5.458-45.197,5.278c-18.53-0.22-36.356-3.411-54.033-8.714c-5.352-1.605-11.341-3.575-16.981-6.249
					c5.26,6.372,10.9,12.451,16.757,18.185c9.638,9.436,19.831,18.303,33.252,21.553c3.144,0.761,4.309,3.4,3.996,5.888
					c0.396,0.519,0.722,1.142,0.938,1.894c8.423,29.269,11.042,59.533,15.912,89.48c4.188,25.761,9.436,51.836,7.529,78.056
					c1.58,3.088,0.101,8.1-4.54,8.625c-5.582,0.631-17.391,8.371-12.688,14.938c5.912,8.255,19.52,8.376,28.47,6.682
					c10.235-1.938,25.72-5.231,30.506-15.896C200.67,422.112,185.005,418.4,176.567,416.259z"/>
			</g>
		</g>
		<g>
			<g>
				<path class="st12" d="M90.73,136.698c-4.406,3.936-6.899,11.641-9.067,16.227c-1.696,3.589-3.657,7.946-6.644,10.86
					c10.493,4.315,21.288,7.912,32.279,10.74C100.246,162.659,97.308,148.808,90.73,136.698z"/>
			</g>
		</g>
		<g>
			<g>
				<path class="st12" d="M219.49,163.782c-1.293-1.358-2.643-2.674-3.891-4.102c-2.659-3.041-5.219-6.165-7.701-9.354
					c-3.561-4.574-7.054-9.189-10.902-13.503c-6.199,13.593-9.096,28.526-14.024,42.644c1.36-0.268,2.718-0.552,4.068-0.873
					c6.629-1.573,13.299-3.431,19.775-5.557c4.075-1.337,8.342-2.789,12.124-4.971C218.609,166.618,218.829,165.058,219.49,163.782z
					"/>
			</g>
		</g>
		<g>
			<g>
				<path class="st8" d="M169.638,49.113c-17.866-7.438-37.808-8.296-56.086-2.395c0.066,1.697-0.612,3.435-2.372,4.679
					c-4.243,2.998-7.102,5.617-2.059,8.79c5.025,3.161,10.799,4.99,16.629,5.997c18.168,3.141,38.703-3.418,54.86-11.572
					C177.12,52.551,173.463,50.706,169.638,49.113z"/>
			</g>
		</g>
		<g>
			<g>
				<path class="st1" d="M189.858,60.884c-0.376,0.999-1.147,1.906-2.423,2.562C166.529,74.198,139.531,82.45,116.187,75.2
					c-6.627-2.059-16.224-5.436-19.391-12.33c-1.299-2.828-1.62-5.45-1.233-7.881c-5.305,3.2-10.288,6.999-14.615,11.372
					c-0.019,0.755-0.204,1.549-0.598,2.362c-5.228,10.765,3.365,21.13,12.002,26.995c10.262,6.97,21.051,10.601,33.53,9.669
					c15.25-1.137,29.816-6.372,44.041-11.676c8.779-3.272,26.565-6.934,26.375-19.025c-0.041-2.63,1.452-4.316,3.349-5.034
					C196.598,66.515,193.339,63.575,189.858,60.884z"/>
			</g>
		</g>
		<g>
			<g>
				<path class="st2" d="M207.06,78.22c-2.114,14.805-18.235,20.145-30.952,24.899c-17.413,6.508-35.84,13.612-54.726,13.429
					c-18.913-0.184-46.747-13.521-52.639-33.014c-3.863,7.502-6.642,15.586-8.723,23.736c-0.418,1.634-0.845,3.264-1.275,4.893
					c27.262,9.598,55.963,13.239,84.797,12.269c15.96-0.537,31.524-2.639,47.019-6.564c6.508-1.649,12.5-3.505,18.573-6.324
					c4.274-1.983,8.712-4.19,13.442-4.736C218.881,96.515,213.664,86.82,207.06,78.22z"/>
			</g>
		</g>
		<g>
			<g>
				<path class="st0" d="M225.849,117.608c-0.286,0.042-0.581,0.071-0.896,0.071c-5.565,0.004-11.223,3.855-16.163,6.07
					c-2.148,0.963-4.376,1.763-6.642,2.472c5.491,5.686,10.198,12.06,15.082,18.274c3.348,4.263,7.556,8.15,11.138,12.378
					c0.543-4.339,0.811-8.738,0.78-13.183C229.085,134.897,227.962,126.118,225.849,117.608z"/>
			</g>
		</g>
		<g>
			<g>
				<path d="M226.968,195.891c13.195-22.129,15.438-49.312,11.134-74.279c-8.293-48.108-49.158-88.968-99.097-89.85
					C116.11,31.357,93.822,40.7,76.554,55.397c-20.032,17.053-27.411,45.49-32.664,70.17c-2.778,13.053-4.131,26.912-1.776,40.132
					c2.536,14.231,10.139,26.827,18.776,38.186c8.489,11.166,18.065,21.643,28.282,31.24c8.812,8.277,18.716,15.308,30.292,18.845
					c0.035,0.363,0.101,0.738,0.213,1.127c8.11,28.183,10.783,57.287,15.377,86.143c4.072,25.576,9.366,51.357,7.675,77.373
					c-10.309,3.73-20.724,13.455-18.098,24.615c3.708,15.756,24.788,19.79,38.372,17.896c15.912-2.217,35.617-7.646,42.79-23.635
					c7.481-16.673-7.374-25.815-21.134-30.328c2.224-9.633,1.768-20.188,2.477-29.955c1.041-14.328,0.062-28.77-1.283-43.043
					c-2.826-29.972-6.88-59.653-10.722-89.504C195.848,232.608,214.598,216.636,226.968,195.891z M225.849,117.608
					c2.113,8.51,3.236,17.289,3.299,26.083c0.031,4.444-0.237,8.844-0.78,13.183c-3.582-4.228-7.79-8.115-11.138-12.378
					c-4.883-6.215-9.59-12.589-15.082-18.274c2.265-0.709,4.493-1.509,6.642-2.472c4.939-2.215,10.598-6.066,16.163-6.07
					C225.268,117.68,225.563,117.65,225.849,117.608z M218.939,168.067c-3.782,2.182-8.049,3.634-12.124,4.971
					c-6.477,2.126-13.146,3.983-19.775,5.557c-1.35,0.321-2.708,0.605-4.068,0.873c4.929-14.117,7.825-29.051,14.024-42.644
					c3.848,4.313,7.341,8.929,10.902,13.503c2.481,3.188,5.042,6.312,7.701,9.354c1.248,1.428,2.598,2.743,3.891,4.102
					C218.829,165.058,218.609,166.618,218.939,168.067z M101.395,133.435c12.282,1.58,24.696,2.23,37.133,2.094
					c-9.078,9.117-15.076,21.122-22.882,31.449C109.776,156.367,106.785,144.327,101.395,133.435z M107.298,174.525
					c-10.991-2.828-21.786-6.425-32.279-10.74c2.986-2.914,4.947-7.271,6.644-10.86c2.167-4.586,4.661-12.291,9.067-16.227
					C97.308,148.808,100.246,162.659,107.298,174.525z M148.24,141.391c6.689,13.415,10.8,28.464,20.506,39.958
					c-9.56,0.69-19.214,0.321-28.698-0.756c-6.33-0.719-12.629-1.71-18.883-2.934C130.578,166.178,136.935,151.052,148.24,141.391z
					 M157.075,134.615c10.459-0.939,20.811-2.581,31.138-4.896c-6.339,13.072-9.29,27.363-13.776,41.142
					C166.71,160.138,163.014,146.45,157.075,134.615z M111.18,51.397c1.76-1.244,2.438-2.981,2.372-4.679
					c18.278-5.901,38.22-5.044,56.086,2.395c3.825,1.593,7.482,3.438,10.973,5.499c-16.157,8.154-36.692,14.713-54.86,11.572
					c-5.83-1.007-11.604-2.836-16.629-5.997C104.078,57.015,106.938,54.396,111.18,51.397z M80.351,68.724
					c0.395-0.813,0.579-1.607,0.598-2.362c4.327-4.373,9.31-8.172,14.615-11.372c-0.387,2.431-0.066,5.053,1.233,7.881
					c3.167,6.895,12.764,10.271,19.391,12.33c23.344,7.25,50.342-1.002,71.248-11.754c1.276-0.656,2.046-1.563,2.423-2.562
					c3.481,2.691,6.74,5.631,9.791,8.769c-1.897,0.718-3.39,2.404-3.349,5.034c0.19,12.092-17.597,15.753-26.375,19.025
					c-14.225,5.304-28.791,10.539-44.041,11.676c-12.479,0.932-23.268-2.699-33.53-9.669C83.715,89.854,75.123,79.488,80.351,68.724
					z M60.021,107.271c2.081-8.15,4.86-16.234,8.723-23.736c5.892,19.492,33.726,32.83,52.639,33.014
					c18.885,0.184,37.313-6.921,54.726-13.429c12.717-4.755,28.838-10.095,30.952-24.899c6.604,8.601,11.821,18.295,15.517,28.587
					c-4.73,0.546-9.167,2.753-13.442,4.736c-6.073,2.819-12.065,4.675-18.573,6.324c-15.495,3.926-31.059,6.027-47.019,6.564
					c-28.834,0.971-57.536-2.671-84.797-12.269C59.175,110.534,59.603,108.904,60.021,107.271z M52.01,153.015
					c-0.043-1.295-0.065-2.6-0.042-3.926c0.164-9.02,1.885-17.683,4.015-26.29c8.569,3.025,17.287,5.454,26.106,7.351
					c-2.739,3.066-4.866,6.791-6.722,10.438c-1.819,3.573-3.394,7.266-5.201,10.846c-0.68,1.348-1.437,2.65-2.266,3.912
					c-0.256,0.391-0.487,0.599-0.66,0.715c-1.88,0.221-3.192,1.229-3.949,2.554c-3.489-1.652-6.94-3.386-10.346-5.199
					C52.63,153.245,52.319,153.12,52.01,153.015z M167.433,236.417c-1.75,0.991-2.531,2.452-2.616,3.956
					c-0.662,0.868-1.004,2.041-0.814,3.521c1.852,14.405,3.986,28.773,5.919,43.168c2.038,15.175,3.238,30.369,4.763,45.592
					c1.371,13.688,2.213,27.438,1.654,41.194c-0.235,5.789-0.828,11.56-1.103,17.35c-0.252,5.261-0.414,10.618-1.862,15.714
					c-0.147,0.52-0.215,1.011-0.226,1.479c-1.358,2.857-0.553,6.86,3.42,7.869c8.438,2.142,24.103,5.854,18.842,17.581
					c-4.786,10.664-20.271,13.958-30.506,15.896c-8.951,1.694-22.558,1.573-28.47-6.682c-4.703-6.566,7.106-14.307,12.688-14.938
					c4.641-0.525,6.12-5.537,4.54-8.625c1.907-26.22-3.34-52.295-7.529-78.056c-4.87-29.947-7.489-60.212-15.912-89.48
					c-0.216-0.752-0.542-1.375-0.938-1.894c0.313-2.487-0.852-5.127-3.996-5.888c-13.421-3.25-23.614-12.117-33.252-21.553
					c-5.857-5.733-11.498-11.812-16.757-18.185c5.64,2.674,11.629,4.644,16.981,6.249c17.677,5.303,35.502,8.494,54.033,8.714
					c15.294,0.18,30.695-0.112,45.197-5.278c2.198-0.783,6.632-2.134,10.907-4.056C192.229,220.586,180.119,229.222,167.433,236.417
					z M201.872,197.752c-0.283,0.167-0.569,0.33-0.852,0.493c-1.799,1.042-3.726,1.851-5.641,2.646
					c-4.057,1.685-8.211,3.145-12.378,4.527c-5.385,1.789-11.046,2.101-16.685,2.5c-8.449,0.598-17.158,0.9-25.612,0.306
					c-7.675-0.539-15.331-1.153-22.937-2.347c-7.45-1.17-14.462-3.527-21.692-5.531c-10.832-3.002-25.597-7.867-30.77-18.806
					c-1.493-3.157-4.515-3.319-6.833-1.915c-2.074-4.359-3.667-8.819-4.748-13.443c27.125,13.533,56.663,22.234,86.809,25.445
					c16.679,1.775,33.251,1.17,49.647-2.49c10.517-2.347,22.852-5.143,32.842-10.729c-2.615,6.833-6.082,13.36-10.433,19.467
					c-0.187-0.497-0.426-1.003-0.756-1.521C209.019,191.937,203.176,193.969,201.872,197.752z"/>
			</g>
		</g>
	</g>
</g>
</svg>
