<?xml version="1.0" encoding="utf-8"?>
<!-- Generator: Adobe Illustrator 16.0.3, SVG Export Plug-In . SVG Version: 6.00 Build 0)  -->
<!DOCTYPE svg PUBLIC "-//W3C//DTD SVG 1.1//EN" "http://www.w3.org/Graphics/SVG/1.1/DTD/svg11.dtd">
<svg version="1.1" id="Layer_1" xmlns="http://www.w3.org/2000/svg" xmlns:xlink="http://www.w3.org/1999/xlink" x="0px" y="0px"
	 width="512px" height="512px" viewBox="0 0 512 512" style="enable-background:new 0 0 512 512;" xml:space="preserve">
<style type="text/css">
<![CDATA[
	.st0{fill:#127274;}
	.st1{fill:#14B6B9;}
	.st2{fill:#EF4823;}
	.st3{fill:#BCBCBC;}
	.st4{fill:#F6851F;}
	.st5{fill:#C0E6ED;}
	.st6{fill:#C56528;}
	.st7{fill:#FCBF95;}
	.st8{fill:#FEBF10;}
	.st9{fill:#FFFFFF;}
	.st10{fill:#9FDADF;}
	.st11{fill:#010101;}
	.st12{fill:#3AB37C;}
	.st13{fill:#D6E5E5;}
	.st14{fill:#71C598;}
	.st15{fill:#74CCCF;}
]]>
</style>
<g>
	<g>
		<g>
			<path class="st8" d="M278.598,146.614c0.342-1.312,0.821-2.514,1.396-3.631c-8.206-1.53-15.262-6.499-20.185-13.165
				c-0.51-0.336-0.95-0.772-1.283-1.32c-0.943,0.077-1.886,0.164-2.816,0.345c-1.687,0.328-3.141,0.9-4.521,1.944
				c-3.65,2.76-2.713,6.679-2.368,10.789c0.433,5.145-7.423,8.583-10.045,3.499c-2.305-4.47-6.209-5.733-11.076-4.82
				c-4.668,0.876-6.025,4.206-6.318,8.739c-0.589,9.122,6.726,18.251,16.198,17.521c0.362-0.028,0.703-0.019,1.032,0.011
				c15.675-1.854,27.44,6.803,34.827,19.01c3.084-5.786,7.36-11.001,12.6-14.618C279.13,165.369,276.25,155.628,278.598,146.614z"/>
		</g>
	</g>
	<g>
		<g>
			<path class="st8" d="M230.979,125.407c-0.213-0.31-0.902-1.083-1.198-1.483c-0.152,0.307-0.785,0.805-0.98,1.04
				c-3.91,4.718-12.447-0.751-9.059-6.078c2.331-3.665,6.804-11.954,3.324-16.116c-3.282-3.925-11.203-1.604-13.471,2.345
				c-2.482,4.323-10.474,3.828-10.412-2.024c0.053-4.946-1.18-9.889-5.49-12.836c-3.62-2.476-8.68-2.222-12.277,0.165
				c-3.964,2.63-7.355,6.423-8.614,11.132c-0.912,3.409-1.88,8.496,1.647,10.855c1.737,1.161,2.519,2.863,2.611,4.571
				c2.116,0.374,4.124,1,5.927,1.91c10.693,5.396,11.712,16.843,6.694,25.813c5.801,3.525,10.904,8.842,9.598,16.004
				c-0.703,3.854-2.991,7.236-6.05,9.811c7.733,4.217,13.854,11.412,18.684,19.201c2.605-6.265,6.259-12.043,11.175-16.299
				c-9.542-6.241-15.223-18.572-11.896-30.161c2.421-8.435,8.016-13.519,16.969-14.142c1.457-0.102,2.903-0.084,4.318,0.047
				c0.035-0.08,0.07-0.159,0.11-0.236C232.178,127.685,231.726,126.494,230.979,125.407z"/>
		</g>
	</g>
	<g>
		<g>
			<path class="st8" d="M276.734,59.05c-0.014-0.005-0.027-0.009-0.041-0.014c-0.127,0.473-0.27,0.943-0.431,1.411
				c-2.093,6.05-11.323,2.383-10.326-3.497c0.179-1.055,0.444-2.029,0.782-2.929c0.542-6.145-6.378-15.258-12.65-11.523
				c-6.713,3.997-12.967,12.638-13.229,20.77c0.034,0.811,0.017,1.627-0.106,2.449c-0.918,6.129-10.707,5.579-10.884-0.627
				c-0.022-0.784-0.001-1.564,0.043-2.344c-0.619-3.364-6.71-8.477-8.946-9.752c-4.375-2.495-8.742,2.131-11.386,5.442
				c-3.99,4.997-4.438,9.747-1.553,15.583c2.629,5.315,6.98,9.996,12.44,12.387c2.012,0.881,2.929,2.433,3.046,4.071
				c1.862,0.554,3.638,1.428,5.242,2.687c6.562,5.15,7.284,13.191,5.266,20.678c2.547,1.078,4.853,3.132,6.514,6.09
				c0.545,0.971,1.183,2.359,1.748,3.936c1.732-1.93,4.047-3.514,7.1-4.619c1.223-0.442,2.818-0.88,4.566-1.201
				c-0.773-2.595-1.272-5.27-1.45-7.971c-0.542-8.256,1.927-16.727,10.368-19.935c3.774-1.435,7.759-1.781,11.727-1.429
				c-0.479-3.105-0.435-6.288,0.027-9.096c1.359-8.252,5.378-15.1,11.513-20.135C283.355,56.378,277.557,54.197,276.734,59.05z"/>
		</g>
	</g>
	<g>
		<g>
			<path class="st8" d="M210.518,41.756c0.131-10.204-10.858-18.341-20.48-14.332c-5.008,2.086-10.366,5.062-13.497,9.658
				c-1.779,2.61-4.484,9.975-0.757,11.991c4.495,2.433,3.706,10.381-2.024,10.412c-3.423,0.019-13.086-0.433-12.999,5.125
				c0.083,5.31,2.268,12.435,7.689,14.463c2.303,0.861,3.178,3.096,2.961,5.275c1.55-1.426,3.216-2.679,4.969-3.694
				c8.079-4.679,16.482-3.734,22.887,0.546c-1.338-2.335-2.393-4.778-3.066-7.247c-2.674-9.808,0.213-18.672,7.685-25.568
				c2.172-2.005,4.467-3.721,6.852-4.963C210.59,42.925,210.51,42.373,210.518,41.756z"/>
		</g>
	</g>
	<g>
		<g>
			<path class="st8" d="M371.032,71.477c-2.879-3.994-6.721-3.203-10.621-0.917c-3.463,2.03-8.29,0.207-8.561-4.136
				c-0.339-5.43,1.16-16.784-5.054-19.602c-5.927-2.686-15.378-1.133-18.534,4.958c-2.539,4.9-9.833,3.385-10.412-2.024
				c-0.355-3.312,0.532-7.463-3.267-8.925c-2.693-1.037-6.099-1.546-8.969-1.073c-2.988,0.492-3.26,8.435-2.776,12.539
				c5.57-0.378,11.029,1.354,14.907,6.243c3.319,4.185,4.753,9.343,4.947,14.604c6.698-1.562,14.127,0.053,17.943,6.163
				c4.42,7.078,3.139,14.935-0.869,21.487c1.636,0.438,3.162,1.141,4.502,2.17c1.108-1.202,2.737-1.95,4.784-1.696
				c10.875,1.347,22.916-5.314,24.416-16.77C374.024,80.245,373.627,75.078,371.032,71.477z"/>
		</g>
	</g>
	<g>
		<g>
			<path class="st8" d="M373.072,142.89c-4.163-3.841-8.944-3.013-11.419,1.378c-0.332,1.188-0.791,2.365-1.39,3.513
				c-2.763,5.294-12.3,2.589-10.326-3.497c0.15-0.463,0.314-0.928,0.485-1.393c-0.004-0.002-0.009-0.004-0.014-0.005
				c0.042-0.081,0.075-0.175,0.114-0.26c0.082-0.218,0.161-0.435,0.248-0.651c1.082-3.41-0.068-9.214-4.613-8.63
				c-5.054,0.648-8.679,5.028-11.228,9.103c-2.518,4.023-10.704,4.022-10.412-2.023c0.265-5.495-2.375-13.797-9.46-13.047
				c-5.158,0.547-6.32,7.602-7.656,11.673c-0.701,2.137-2.36,4.547-4.976,4.436c-4.833-0.207-11.254,0.16-13.132,5.562
				c-1.862,5.355,0.502,13.324,6.425,14.887c1.408,0.372,2.433,1.131,3.12,2.08c1.08-0.12,2.175-0.199,3.299-0.185
				c12.446,0.162,24.271,7.416,29.913,18.173c8.685-12.376,22.084-23.043,37.41-18.542c0.127-0.143,0.261-0.284,0.409-0.424
				C375.341,159.895,379.752,149.053,373.072,142.89z"/>
		</g>
	</g>
	<g>
		<g>
			<path class="st8" d="M375.086,122.984c-1.375-3.785-3.688-9.892-8.133-10.918c-1.392-0.322-2.412-1.021-3.107-1.916
				c-4.53,1.653-9.477,2.41-14.494,2.123c0.537,3.303,0.168,6.765-0.987,9.928c1.294,0.217,2.597,0.635,3.898,1.292
				c3.402,1.718,6.043,4.328,7.763,7.396c0.676-0.318,1.383-0.591,2.133-0.799c4.744-1.314,9.694-0.876,13.941,1.422
				c0.167-0.887,0.342-1.777,0.422-2.678C376.602,127.931,375.672,124.596,375.086,122.984z"/>
		</g>
	</g>
	<g>
		<g>
			<path class="st8" d="M336.827,111.416c-2.957-1.075-6.847,0.211-9.672,1.108c-5.779,1.837-10.46-6.502-4.895-9.751
				c4.81-2.808,12.565-9.846,9.795-16.28c-2.174-5.05-9.325-2.854-11.92,0.471c-3.324,4.259-10.89,0.568-9.531-4.681
				c1.352-5.224,2.29-12.212-1.356-16.809c-3.396-4.281-9.597-1.991-13.404,0.5c-5.25,3.435-9.154,7.93-10.203,14.295
				c-0.578,3.508-1.148,10.45,2.81,12.137c6.531,2.781,1.618,12.596-4.894,9.854c-4.883-2.056-11.958-4.195-17.067-1.735
				c-4.079,1.964-3.313,7.558-2.743,11.234c0.39,2.515,1.216,5.075,2.405,7.499c1.355,0.932,2.296,2.307,2.577,4.253
				c3.864,5.26,9.583,9.099,16.186,9.004c2.001-0.028,3.504,0.831,4.471,2.078c2.709-1.149,5.687-1.817,8.704-2.026
				c2.967-8.305,7.103-16.1,17.424-16.168c7.988-0.054,14.285,4.941,17.549,11.604c0.373-0.331,0.754-0.652,1.14-0.967
				c-0.414-1.927,0.09-4.062,2.061-5.595C338.409,119.768,340.284,112.674,336.827,111.416z"/>
		</g>
	</g>
	<g>
		<g>
			<path class="st8" d="M178.888,151.594c-4.253-1.755-3.443-7.015-0.628-9.486c4.53-3.979,5.363-12.568-1.864-13.88
				c-6.415-1.163-15.988,0.107-18.8,6.887c-2.771,6.681-12.098,1.62-9.854-4.895c1.806-5.243,1.399-13.058-4.23-15.956
				c-4.64-2.389-11.884-2.076-15.661,1.979c-6.962,7.475-5.21,20.64,2.449,26.958c3.355,2.768,1.839,7.797-1.812,9.323
				c-4.262,1.782-8.889,2.453-13.424,3.174c-2.841,0.45-8.001,0.67-10.118,2.921c-2.754,2.93-1.51,9.444,0.697,12.394
				c3.074,4.108,8.544,4.429,13.27,4.169c2.761-0.151,4.569,1.424,5.334,3.424c6.042-1.244,12.299-0.422,17.278,3.746
				c2.186,1.829,3.995,3.932,5.613,6.178c5.584-12.047,17.61-21.697,30.786-21.871c0.8-1.074,2.008-1.889,3.655-2.144
				c-1.413,0.219,1.048-0.552,1.069-0.562c0.894-0.426,1.773-0.901,2.607-1.436c1.229-0.788,3.383-1.729,3.183-3.566
				C188.004,154.983,182.013,152.883,178.888,151.594z"/>
		</g>
	</g>
	<g>
		<g>
			<path class="st2" d="M387.624,203.836c-0.35-2.375-0.904-4.734-1.453-6.997c-0.896-3.697-1.451-7.663-3.76-10.806
				c-3.98-5.415-10.915-9.551-17.657-10.299c-12.73-1.412-22.21,10.584-27.683,21.062c-2.087,23.358-3.934,46.74-6.238,70.08
				c-1.214,12.299-2.797,24.553-4.099,36.84c-1.218,11.492-1.397,23.031-1.536,34.577c-0.143,11.954-0.326,23.869-1.681,35.761
				c-1.32,11.592-3.258,23.235-3.349,34.927c-0.091,11.778,0.245,23.65-0.768,35.401c-0.649,7.539-0.291,15-2.182,22.287
				c1.58,0.003,3.161,0.014,4.741-0.004c2.077-0.024,4.158-0.043,6.231-0.16c0.701-0.039,1.407-0.079,2.106-0.155
				c0.979-0.431,2.06-0.51,3.1-0.318c0.389-0.465,0.888-0.894,1.528-1.259c1.68-0.96,3.388-1.693,5.151-2.342
				c4.944-20.058,6.632-40.666,9.183-61.127c2.745-22.015,8.188-43.411,12.132-65.214c2.071-11.448,4.01-22.862,7.156-34.077
				c2.91-10.374,6.246-20.648,8.731-31.139c2.493-10.521,4.34-21.25,6.247-31.893c1.597-8.912,2.979-17.86,3.464-26.894
				c-1.5-1.408-2.089-3.55-0.582-5.869c0.534-0.821,1.331-3.616,0.862-1.27C387.35,204.55,387.472,204.18,387.624,203.836z"/>
		</g>
	</g>
	<g>
		<g>
			<path class="st13" d="M324.518,197.756c-0.387-11.891-12.197-22.708-24.337-20.751c-9.134,1.473-15.396,8.841-18.71,17.127
				c0.02,0.249,0.029,0.506,0.017,0.778c-1.098,23.416-8.161,45.948-9.397,69.356c-1.196,22.663-1.846,45.392-2.704,68.072
				c-0.892,23.567-1.481,47.144-2.29,70.714c-0.385,11.215-1.09,22.461-2.529,33.597c-0.686,5.302-2.517,10.909-2.413,16.261
				c0.067,3.491,0.368,7.005-0.209,10.435c14.042,1.657,28.085,2.881,42.22,3.183c-0.006-0.015-0.015-0.026-0.021-0.041
				c-1.513-3.428,0.661-6.038,3.471-6.803c0.411-3.061,0.436-6.221,0.541-9.21c0.167-4.754,0.569-9.492,0.729-14.246
				c0.379-11.211-0.074-22.461,0.607-33.656c0.74-12.15,2.739-24.158,3.809-36.275c1.022-11.575,0.822-23.223,1.032-34.832
				c0.427-23.688,3.827-47.024,6.08-70.577c1.915-20.012,3.557-40.049,5.319-60.074
				C325.019,200.005,324.557,198.976,324.518,197.756z"/>
		</g>
	</g>
	<g>
		<g>
			<path class="st8" d="M166.925,89.437c-0.166,0.018-0.325,0.05-0.499,0.049c-5.799-0.021-13.662-1.03-18.457,3.013
				c-1.553,1.309-3.31,3.436-3.665,5.513c-0.373,2.187,0.842,2.342,2.812,3.062c2.287,0.836,3.202,2.549,3.149,4.338
				c1.017,0.712,1.965,1.533,2.823,2.474c3.222,3.532,5.128,7.435,5.953,11.548c1.754-0.803,3.611-1.437,5.511-1.909
				C158.568,109.357,160.834,97.946,166.925,89.437z"/>
		</g>
	</g>
	<g>
		<g>
			<path class="st2" d="M166.324,395.351c-2.417-22.151-4.675-44.322-7.308-66.45c-2.57-21.61-6.084-43.094-8.685-64.691
				c-1.271-10.562-1.775-21.174-3.127-31.73c-1.151-9-2.33-17.992-2.618-27.061c-4.514-7.773-9.587-20.117-20.683-15.31
				c-12.189,5.28-11.206,19.152-9.75,30.136c0.276,2.082-0.49,3.613-1.726,4.564c0.861,6.836,3.412,13.715,5.011,20.236
				c2.325,9.48,3.57,18.865,4.715,28.531c2.507,21.179,6.885,42.092,10.832,63.035c4.021,21.328,8.333,42.6,12.335,63.932
				c1.888,10.062,3.466,20.154,5.023,30.271c0.647,4.207,1.206,8.412,1.761,12.631c0.439,3.338,0.719,7.177,2.457,10.146
				c0.338,0.578,0.562,1.158,0.688,1.728c6.549,0.319,13.087,1.119,19.662,1.171c0.111,0.001,0.223,0,0.334,0.001
				C170.059,436.575,168.549,415.744,166.324,395.351z"/>
		</g>
	</g>
	<g>
		<g>
			<path class="st2" d="M268.811,201.818c-4.208-12.828-14.705-28.488-30.583-24.112c-12.33,3.398-17.192,15.874-19.494,27.344
				c-0.105,0.522-0.275,0.979-0.475,1.404c0.088,1.532,0.285,3.055,0.365,4.333c0.278,4.459,0.183,8.914,0.057,13.379
				c-0.311,10.998-0.653,21.996-0.85,32.997c-0.407,22.722,1.229,45.276,2.149,67.961c0.93,22.881,1.383,45.779,1.479,68.679
				c0.048,11.499,0.523,22.881,1.081,34.362c0.258,5.301,0.302,10.547,0.036,15.848c-0.165,3.272-0.403,6.653,0.03,9.926
				c0.544,0.759,0.879,1.743,0.879,2.972v1.334c0,0.045-0.012,0.086-0.012,0.131c9.067,1.017,18.105,2.327,27.154,3.539
				c0.12-0.626,0.333-1.191,0.621-1.693c0.349-3.764-0.277-7.653,0.239-11.437c0.734-5.388,1.893-10.69,2.506-16.101
				c1.234-10.881,1.903-21.771,2.264-32.713c0.753-22.916,1.331-45.839,2.232-68.75c0.893-22.664,1.441-45.393,2.739-68.036
				c0.665-11.604,2.292-22.827,4.484-34.234c1.609-8.372,3.248-16.78,4.17-25.265C269.432,203.177,269.056,202.564,268.811,201.818z
				"/>
		</g>
	</g>
	<g>
		<g>
			<path class="st13" d="M211.572,429.012c-0.627-11.479-1.024-22.865-1.082-34.362c-0.122-24.208-0.569-48.418-1.646-72.604
				c-1.067-23.965-2.555-47.753-1.789-71.761c0.347-10.867,0.75-21.779,0.788-32.653c0.015-4.325-0.724-9.053-0.525-13.576
				c-5.508-11.581-14.105-25.384-28.174-26.43c-11.146-0.829-22.46,10.837-24.112,21.753c0.28,0.622,0.447,1.352,0.454,2.197
				c0.093,10.728,1.61,21.316,2.927,31.942c1.308,10.548,1.744,21.161,3.122,31.699c2.742,20.96,5.973,41.837,8.451,62.836
				c2.534,21.478,4.747,42.989,7.093,64.488c2.19,20.073,3.481,40.743,8.565,60.363c0.719,0.798,1.175,1.901,1.175,3.339v0.271
				c5.477,0.005,10.953,0.035,16.425,0.249c2.95,0.115,5.893,0.298,8.832,0.523C210.382,448.106,212.078,438.278,211.572,429.012z"
				/>
		</g>
	</g>
	<g>
		<g>
			<path class="st11" d="M397.275,196.331c-1.07-4.756-1.887-9.751-4.298-14.049c-3.043-5.424-7.496-9.386-12.654-12.308
				c6.919-8.215,9.079-20.359,4.242-29.665c2.882-4.524,3.073-12.475,2.164-16.458c-1.698-7.438-5.469-15.832-12.041-20.142
				c5.722-5.11,9.526-12.267,9.911-20.865c0.345-7.694-1.899-15.247-7.274-20.863c-4.146-4.332-9.668-4.995-14.963-3.801
				c-0.759-9.453-2.86-19.324-13.311-22.247c-7.386-2.064-15.743-1.444-22.253,2.291c-1.037-2.412-2.721-4.539-5.635-6.334
				c-4.851-2.986-11.831-3.855-17.384-2.94c-8.751,1.442-12.208,11.473-12.19,20.356c-4.43-3.193-10.317-4.486-15.372-3.354
				c-2.979-8.879-11.132-15.864-21.43-14.994c-7.153,0.604-13.21,6.757-17.215,12.181c-1.457,1.974-2.78,4.081-3.903,6.288
				c-1.892-1.925-3.94-3.62-5.873-4.994c-2.135-1.519-4.259-2.436-6.354-2.855c0.025-0.217,0.041-0.438,0.044-0.668
				c0.237-18.373-20.237-30.056-36.341-23.348c-8.252,3.438-16.765,9.357-20.071,17.99c-1.729,4.516-2.436,9.538-1.385,13.961
				c-6.697,1.604-12.202,5.422-13.754,13.437c-0.957,4.942,0.449,11.066,3.328,16.208c-6.249,0.958-11.978,3.312-16.174,9.076
				c-3.128,4.296-4.345,9.412-3.256,13.821c-3.195,0.458-6.282,1.46-8.948,2.913c-13.804,7.521-15.372,26.512-7.901,39.279
				c-9.11,1.646-19.274,2.188-23.218,11.572c-2.902,6.905-0.897,16.461,3.466,22.292c3.377,4.514,8.441,6.734,13.8,7.621
				c-2.957,3.009-5.246,6.702-6.771,10.647c-2.442,6.317-2.366,13.044-1.684,19.674c-0.789,0.961-1.318,2.214-1.395,3.701
				c-0.428,8.3,3.068,16.005,4.667,24c2.057,10.287,4.596,20.139,5.333,30.668c1.522,21.742,7.169,43.601,11.199,64.979
				c4.143,21.978,8.594,43.896,12.697,65.881c1.98,10.605,3.511,21.287,5.151,31.95c1.169,7.599,1.229,15.703,5.211,22.509
				c0.013,0.021,0.027,0.04,0.04,0.062c-0.177,2.998,1.832,6.349,5.733,6.349c8.156,0,16.354,1.203,24.543,1.309
				c10.084,0.129,20.162-0.045,30.242,0.349c20.649,0.807,41.198,4.986,61.727,7.24c14.49,1.591,28.986,2.381,43.555,2.552
				c5.391,0.062,10.787,0.106,16.177-0.06c3.316-0.103,7.567-0.043,9.663-2.985c1.231,0.268,2.595,0.113,3.956-0.664
				c1.684-0.962,3.575-1.449,5.41-2.034c2.752-0.878,3.399-3.458,4.052-5.923c1.419-5.354,2.51-10.793,3.497-16.242
				c2.105-11.622,3.367-23.389,4.707-35.117c1.276-11.17,2.626-22.329,4.611-33.399c2.125-11.85,5.2-23.517,7.432-35.353
				c2.158-11.443,3.811-23.03,6.602-34.341c2.888-11.708,6.708-23.167,9.768-34.83c3.064-11.68,4.996-23.7,7.168-35.571
				c1.618-8.841,2.914-17.73,3.498-26.686c0.506-0.672,0.84-1.559,0.912-2.68C399.073,206.439,398.435,201.482,397.275,196.331z
				 M375.086,122.984c0.586,1.611,1.516,4.946,1.437,5.85c-0.08,0.9-0.255,1.791-0.422,2.678c-4.248-2.298-9.198-2.736-13.941-1.422
				c-0.75,0.208-1.457,0.48-2.133,0.799c-1.719-3.067-4.36-5.678-7.763-7.396c-1.302-0.657-2.604-1.075-3.898-1.292
				c1.155-3.163,1.524-6.625,0.987-9.928c5.017,0.287,9.963-0.47,14.494-2.123c0.695,0.895,1.715,1.594,3.107,1.916
				C371.397,113.093,373.711,119.199,375.086,122.984z M334.93,142.447c2.549-4.074,6.173-8.454,11.228-9.103
				c4.545-0.584,5.695,5.22,4.613,8.63c-0.087,0.217-0.166,0.434-0.248,0.651c-0.039,0.085-0.072,0.179-0.114,0.26
				c0.005,0.001,0.009,0.003,0.014,0.005c-0.171,0.465-0.335,0.93-0.485,1.393c-1.974,6.086,7.563,8.791,10.326,3.497
				c0.599-1.147,1.058-2.324,1.39-3.513c2.475-4.391,7.257-5.219,11.419-1.378c6.68,6.163,2.269,17.005-3.202,22.146
				c-0.148,0.14-0.282,0.281-0.409,0.424c-15.326-4.501-28.726,6.166-37.41,18.542c-5.642-10.757-17.467-18.011-29.913-18.173
				c-1.124-0.015-2.219,0.064-3.299,0.185c-0.688-0.949-1.712-1.708-3.12-2.08c-5.923-1.562-8.287-9.531-6.425-14.887
				c1.878-5.401,8.299-5.769,13.132-5.562c2.615,0.111,4.274-2.299,4.976-4.436c1.336-4.071,2.498-11.126,7.656-11.673
				c7.085-0.75,9.725,7.552,9.46,13.047C324.226,146.47,332.412,146.471,334.93,142.447z M305.615,39.758
				c2.871-0.473,6.276,0.036,8.969,1.073c3.799,1.462,2.911,5.613,3.267,8.925c0.58,5.409,7.873,6.925,10.412,2.024
				c3.155-6.091,12.606-7.644,18.534-4.958c6.214,2.817,4.715,14.172,5.054,19.602c0.271,4.343,5.097,6.166,8.561,4.136
				c3.9-2.286,7.742-3.077,10.621,0.917c2.595,3.602,2.992,8.769,2.436,13.021c-1.5,11.455-13.541,18.116-24.416,16.77
				c-2.047-0.254-3.676,0.494-4.784,1.696c-1.34-1.029-2.866-1.731-4.502-2.17c4.008-6.553,5.289-14.409,0.869-21.487
				c-3.815-6.11-11.245-7.725-17.943-6.163c-0.194-5.261-1.627-10.419-4.947-14.604c-3.878-4.89-9.337-6.621-14.907-6.243
				C302.354,48.192,302.627,40.25,305.615,39.758z M295.843,65.975c3.808-2.491,10.008-4.781,13.404-0.5
				c3.646,4.597,2.708,11.585,1.356,16.809c-1.358,5.249,6.207,8.939,9.531,4.681c2.595-3.325,9.746-5.521,11.92-0.471
				c2.77,6.435-4.985,13.473-9.795,16.28c-5.565,3.249-0.885,11.588,4.895,9.751c2.825-0.897,6.716-2.184,9.672-1.108
				c3.458,1.258,1.582,8.352-0.567,10.024c-1.971,1.533-2.475,3.668-2.061,5.595c-0.386,0.314-0.767,0.636-1.14,0.967
				c-3.264-6.662-9.561-11.657-17.549-11.604c-10.321,0.068-14.457,7.863-17.424,16.168c-3.018,0.209-5.995,0.877-8.704,2.026
				c-0.967-1.247-2.47-2.106-4.471-2.078c-6.603,0.095-12.321-3.744-16.186-9.004c-0.28-1.946-1.222-3.321-2.577-4.253
				c-1.189-2.424-2.015-4.984-2.405-7.499c-0.57-3.677-1.336-9.271,2.743-11.234c5.109-2.46,12.185-0.32,17.067,1.735
				c6.512,2.742,11.425-7.072,4.894-9.854c-3.958-1.687-3.387-8.629-2.81-12.137C286.688,73.904,290.593,69.409,295.843,65.975z
				 M189.682,144.701c5.018-8.971,3.999-20.418-6.694-25.813c-1.804-0.91-3.812-1.536-5.927-1.91
				c-0.092-1.708-0.874-3.41-2.611-4.571c-3.527-2.359-2.559-7.446-1.647-10.855c1.259-4.709,4.65-8.502,8.614-11.132
				c3.598-2.387,8.657-2.641,12.277-0.165c4.31,2.947,5.543,7.89,5.49,12.836c-0.062,5.853,7.93,6.348,10.412,2.024
				c2.268-3.948,10.189-6.27,13.471-2.345c3.479,4.162-0.994,12.451-3.324,16.116c-3.389,5.327,5.148,10.796,9.059,6.078
				c0.195-0.235,0.828-0.733,0.98-1.04c0.296,0.4,0.985,1.174,1.198,1.483c0.746,1.087,1.198,2.277,1.61,3.519
				c-0.04,0.077-0.075,0.156-0.11,0.236c-1.415-0.131-2.861-0.148-4.318-0.047c-8.953,0.623-14.548,5.707-16.969,14.142
				c-3.327,11.589,2.354,23.92,11.896,30.161c-4.916,4.256-8.57,10.034-11.175,16.299c-4.83-7.789-10.951-14.984-18.684-19.201
				c3.059-2.574,5.347-5.957,6.05-9.811C200.585,153.543,195.482,148.227,189.682,144.701z M221.381,148.994
				c0.293-4.533,1.65-7.863,6.318-8.739c4.867-0.913,8.771,0.351,11.076,4.82c2.622,5.084,10.478,1.646,10.045-3.499
				c-0.345-4.11-1.282-8.029,2.368-10.789c1.38-1.044,2.834-1.616,4.521-1.944c0.93-0.181,1.874-0.268,2.816-0.345
				c0.333,0.548,0.773,0.984,1.283,1.32c4.923,6.666,11.979,11.635,20.185,13.165c-0.574,1.117-1.054,2.318-1.396,3.631
				c-2.348,9.014,0.533,18.755,7.441,24.303c-5.24,3.617-9.516,8.832-12.6,14.618c-7.387-12.207-19.152-20.864-34.827-19.01
				c-0.329-0.029-0.67-0.039-1.032-0.011C228.106,167.245,220.792,158.116,221.381,148.994z M220.947,52.994
				c2.236,1.275,8.327,6.388,8.946,9.752c-0.044,0.779-0.065,1.56-0.043,2.344c0.177,6.206,9.965,6.756,10.884,0.627
				c0.123-0.822,0.14-1.639,0.106-2.449c0.261-8.132,6.515-16.772,13.229-20.77c6.272-3.734,13.191,5.379,12.65,11.523
				c-0.338,0.899-0.604,1.874-0.782,2.929c-0.997,5.88,8.233,9.547,10.326,3.497c0.162-0.468,0.304-0.938,0.431-1.411
				c0.013,0.005,0.027,0.009,0.041,0.014c0.823-4.853,6.621-2.672,9.382,0.433c-6.135,5.035-10.154,11.883-11.513,20.135
				c-0.462,2.808-0.506,5.99-0.027,9.096c-3.968-0.353-7.953-0.006-11.727,1.429c-8.441,3.208-10.91,11.679-10.368,19.935
				c0.178,2.701,0.677,5.376,1.45,7.971c-1.749,0.321-3.343,0.759-4.566,1.201c-3.053,1.105-5.368,2.689-7.1,4.619
				c-0.564-1.576-1.203-2.965-1.748-3.936c-1.661-2.958-3.967-5.012-6.514-6.09c2.018-7.486,1.295-15.527-5.266-20.678
				c-1.604-1.259-3.38-2.133-5.242-2.687c-0.117-1.639-1.034-3.19-3.046-4.071c-5.46-2.391-9.812-7.071-12.44-12.387
				c-2.886-5.836-2.438-10.586,1.553-15.583C212.205,55.125,216.572,50.499,220.947,52.994z M173.759,59.485
				c5.729-0.031,6.519-7.979,2.024-10.412c-3.727-2.017-1.021-9.381,0.757-11.991c3.131-4.597,8.489-7.572,13.497-9.658
				c9.622-4.009,20.611,4.128,20.48,14.332c-0.008,0.617,0.072,1.169,0.218,1.666c-2.385,1.242-4.68,2.958-6.852,4.963
				c-7.472,6.896-10.358,15.761-7.685,25.568c0.673,2.469,1.728,4.912,3.066,7.247c-6.404-4.28-14.808-5.225-22.887-0.546
				c-1.753,1.016-3.419,2.269-4.969,3.694c0.217-2.18-0.658-4.414-2.961-5.275c-5.421-2.028-7.606-9.153-7.689-14.463
				C160.673,59.053,170.335,59.504,173.759,59.485z M144.304,98.011c0.355-2.077,2.112-4.204,3.665-5.513
				c4.795-4.043,12.658-3.033,18.457-3.013c0.174,0.001,0.333-0.031,0.499-0.049c-6.091,8.51-8.357,19.921-2.373,28.087
				c-1.899,0.473-3.757,1.106-5.511,1.909c-0.824-4.113-2.73-8.016-5.953-11.548c-0.858-0.94-1.806-1.762-2.823-2.474
				c0.053-1.789-0.862-3.502-3.149-4.338C145.146,100.353,143.931,100.197,144.304,98.011z M105.643,171.013
				c-2.207-2.949-3.451-9.464-0.697-12.394c2.117-2.251,7.277-2.471,10.118-2.921c4.535-0.721,9.162-1.392,13.424-3.174
				c3.651-1.526,5.167-6.556,1.812-9.323c-7.659-6.318-9.411-19.483-2.449-26.958c3.777-4.056,11.021-4.368,15.661-1.979
				c5.63,2.898,6.036,10.713,4.23,15.956c-2.244,6.515,7.083,11.575,9.854,4.895c2.812-6.779,12.385-8.05,18.8-6.887
				c7.228,1.312,6.395,9.901,1.864,13.88c-2.814,2.472-3.625,7.731,0.628,9.486c3.125,1.289,9.116,3.39,9.549,7.357
				c0.2,1.837-1.953,2.778-3.183,3.566c-0.834,0.534-1.713,1.01-2.607,1.436c-0.021,0.01-2.482,0.78-1.069,0.562
				c-1.647,0.255-2.855,1.069-3.655,2.144c-13.176,0.174-25.202,9.824-30.786,21.871c-1.618-2.246-3.428-4.349-5.613-6.178
				c-4.979-4.168-11.235-4.99-17.278-3.746c-0.765-2-2.574-3.575-5.334-3.424C114.187,175.441,108.717,175.121,105.643,171.013z
				 M174.912,456.49c-6.575-0.052-13.113-0.852-19.662-1.171c-0.126-0.569-0.35-1.149-0.688-1.728
				c-1.738-2.97-2.018-6.809-2.457-10.146c-0.555-4.219-1.113-8.424-1.761-12.631c-1.557-10.117-3.135-20.21-5.023-30.271
				c-4.002-21.332-8.315-42.604-12.335-63.932c-3.947-20.943-8.325-41.856-10.832-63.035c-1.145-9.666-2.39-19.051-4.715-28.531
				c-1.599-6.521-4.15-13.4-5.011-20.236c1.236-0.951,2.002-2.482,1.726-4.564c-1.456-10.983-2.439-24.855,9.75-30.136
				c11.096-4.808,16.169,7.536,20.683,15.31c0.288,9.068,1.466,18.061,2.618,27.061c1.352,10.557,1.856,21.169,3.127,31.73
				c2.601,21.598,6.114,43.081,8.685,64.691c2.633,22.128,4.891,44.299,7.308,66.45c2.225,20.394,3.735,41.225,8.922,61.141
				C175.135,456.49,175.023,456.491,174.912,456.49z M203.246,456.765c-5.472-0.214-10.949-0.244-16.425-0.249v-0.271
				c0-1.438-0.456-2.541-1.175-3.339c-5.084-19.62-6.375-40.29-8.565-60.363c-2.346-21.499-4.559-43.011-7.093-64.488
				c-2.479-20.999-5.709-41.876-8.451-62.836c-1.378-10.538-1.814-21.151-3.122-31.699c-1.317-10.626-2.833-21.215-2.927-31.942
				c-0.007-0.846-0.174-1.575-0.454-2.197c1.651-10.916,12.966-22.582,24.112-21.753c14.069,1.046,22.666,14.849,28.174,26.43
				c-0.199,4.523,0.54,9.251,0.525,13.576c-0.039,10.874-0.441,21.786-0.788,32.653c-0.766,24.008,0.722,47.796,1.789,71.761
				c1.077,24.186,1.524,48.396,1.646,72.604c0.058,11.497,0.455,22.884,1.082,34.362c0.506,9.267-1.19,19.095,0.505,28.276
				C209.139,457.062,206.196,456.88,203.246,456.765z M258.491,331.221c-0.901,22.911-1.479,45.834-2.232,68.75
				c-0.36,10.941-1.029,21.832-2.264,32.713c-0.613,5.41-1.772,10.713-2.506,16.101c-0.516,3.783,0.11,7.673-0.239,11.437
				c-0.288,0.502-0.501,1.067-0.621,1.693c-9.049-1.212-18.087-2.522-27.154-3.539c0-0.045,0.012-0.086,0.012-0.131v-1.334
				c0-1.229-0.335-2.213-0.879-2.972c-0.433-3.272-0.194-6.653-0.03-9.926c0.266-5.301,0.222-10.547-0.036-15.848
				c-0.558-11.481-1.033-22.863-1.081-34.362c-0.096-22.899-0.55-45.798-1.479-68.679c-0.921-22.685-2.557-45.239-2.149-67.961
				c0.197-11.001,0.539-21.999,0.85-32.997c0.126-4.465,0.222-8.92-0.057-13.379c-0.08-1.278-0.277-2.801-0.365-4.333
				c0.199-0.425,0.37-0.882,0.475-1.404c2.302-11.47,7.164-23.945,19.494-27.344c15.878-4.376,26.374,11.284,30.583,24.112
				c0.245,0.746,0.621,1.358,1.073,1.867c-0.922,8.484-2.561,16.893-4.17,25.265c-2.192,11.407-3.819,22.63-4.484,34.234
				C259.933,285.828,259.384,308.557,258.491,331.221z M313.302,366.296c-1.07,12.117-3.069,24.125-3.809,36.275
				c-0.682,11.195-0.229,22.445-0.607,33.656c-0.161,4.754-0.562,9.492-0.729,14.246c-0.105,2.989-0.13,6.149-0.541,9.21
				c-2.811,0.765-4.984,3.375-3.471,6.803c0.006,0.015,0.015,0.026,0.021,0.041c-14.135-0.302-28.178-1.525-42.22-3.183
				c0.577-3.43,0.276-6.943,0.209-10.435c-0.104-5.352,1.728-10.959,2.413-16.261c1.439-11.136,2.145-22.382,2.529-33.597
				c0.809-23.57,1.397-47.146,2.29-70.714c0.858-22.681,1.508-45.409,2.704-68.072c1.236-23.408,8.299-45.94,9.397-69.356
				c0.013-0.272,0.003-0.529-0.017-0.778c3.313-8.286,9.576-15.654,18.71-17.127c12.14-1.957,23.95,8.86,24.337,20.751
				c0.04,1.22,0.501,2.249,1.215,3.057c-1.762,20.025-3.404,40.062-5.319,60.074c-2.253,23.553-5.653,46.89-6.08,70.577
				C314.124,343.073,314.324,354.721,313.302,366.296z M387.27,204.95c0.469-2.347-0.328,0.448-0.862,1.27
				c-1.507,2.319-0.918,4.461,0.582,5.869c-0.485,9.033-1.867,17.981-3.464,26.894c-1.907,10.643-3.754,21.371-6.247,31.893
				c-2.485,10.49-5.821,20.765-8.731,31.139c-3.146,11.215-5.084,22.629-7.156,34.077c-3.944,21.803-9.388,43.199-12.132,65.214
				c-2.551,20.461-4.239,41.069-9.183,61.127c-1.763,0.648-3.471,1.382-5.151,2.342c-0.64,0.365-1.14,0.794-1.528,1.259
				c-1.04-0.191-2.121-0.112-3.1,0.318c-0.7,0.076-1.405,0.116-2.106,0.155c-2.074,0.117-4.154,0.136-6.231,0.16
				c-1.58,0.018-3.161,0.007-4.741,0.004c1.891-7.287,1.532-14.748,2.182-22.287c1.013-11.751,0.676-23.623,0.768-35.401
				c0.091-11.691,2.028-23.335,3.349-34.927c1.355-11.892,1.538-23.807,1.681-35.761c0.138-11.546,0.318-23.085,1.536-34.577
				c1.302-12.287,2.885-24.541,4.099-36.84c2.305-23.34,4.151-46.722,6.238-70.08c5.473-10.479,14.953-22.475,27.683-21.062
				c6.742,0.748,13.677,4.884,17.657,10.299c2.31,3.143,2.864,7.108,3.76,10.806c0.548,2.263,1.103,4.622,1.453,6.997
				C387.472,204.18,387.35,204.55,387.27,204.95z"/>
		</g>
	</g>
</g>
</svg>
