<?xml version="1.0" encoding="utf-8"?>
<!-- Generator: Adobe Illustrator 16.0.3, SVG Export Plug-In . SVG Version: 6.00 Build 0)  -->
<!DOCTYPE svg PUBLIC "-//W3C//DTD SVG 1.1//EN" "http://www.w3.org/Graphics/SVG/1.1/DTD/svg11.dtd">
<svg version="1.1" id="Layer_1" xmlns="http://www.w3.org/2000/svg" xmlns:xlink="http://www.w3.org/1999/xlink" x="0px" y="0px"
	 width="512px" height="512px" viewBox="0 0 512 512" style="enable-background:new 0 0 512 512;" xml:space="preserve">
<style type="text/css">
<![CDATA[
	.st0{fill:#127274;}
	.st1{fill:#14B6B9;}
	.st2{fill:#EF4823;}
	.st3{fill:#BCBCBC;}
	.st4{fill:#F6851F;}
	.st5{fill:#C0E6ED;}
	.st6{fill:#C56528;}
	.st7{fill:#FCBF95;}
	.st8{fill:#FEBF10;}
	.st9{fill:#FFFFFF;}
	.st10{fill:#9FDADF;}
	.st11{fill:#010101;}
	.st12{fill:#3AB37C;}
	.st13{fill:#D6E5E5;}
	.st14{fill:#71C598;}
	.st15{fill:#74CCCF;}
]]>
</style>
<g>
	<g>
		<g>
			<path class="st8" d="M444.85,282.237c-1.601,1.281-3.814,1.609-5.962-0.067c-0.515-0.402-0.93-0.847-1.255-1.318
				c-1.439,2.059-2.809,4.206-3.083,6.938c-0.004,0.041-0.003,0.079-0.007,0.12c0.213-0.084,0.422-0.176,0.636-0.258
				c1.187-2.691,4.155-4.505,7.12-2.721c0.691-0.879,1.627-1.604,2.697-2.036C444.939,282.679,444.892,282.459,444.85,282.237z"/>
		</g>
	</g>
	<g>
		<g>
			<path class="st8" d="M259,218v2.219c1.985-0.737,3.97-1.477,5.954-2.219H259z"/>
		</g>
	</g>
	<g>
		<g>
			<path class="st13" d="M435.767,146.644c-5.301-8.724-17.047-11.696-26.342-13.691c-11.931-2.561-23.91-4.312-35.731-7.452
				c-58.604-15.562-112.893-43.232-170.035-63.002c-0.094-0.032-0.178-0.071-0.267-0.106c-8.305,27.714-15.405,55.957-27.851,82.186
				c-12.241,25.798-23.305,52.831-28.699,80.987c1.935,2.056,6.541,3.038,9.345,3.833c4.712,1.335,9.48,2.446,14.214,3.697
				c8.479,2.241,16.844,5.015,25.225,7.677c7.93-2.064,15.824-4.269,23.655-6.718c12.522-3.917,24.893-8.345,37.221-12.907
				c-1.187-0.543-2.353-1.128-3.465-1.793c-5.104-3.053-9.544-7.607-10.873-13.595c-3.172-14.283,5.682-29.075,10.526-41.979
				c4.293-11.436,6.193-25.678,16.674-33.46c10.871-8.071,25.91-0.816,29.6,11.299c2.063,6.775-8.762,8.767-10.81,2.042
				c-1.038-3.405-6.255-6.752-9.778-5.736c-4.249,1.225-6.896,5.889-8.51,9.688c-3.664,8.624-5.912,17.756-9.495,26.43
				c-2.218,5.369-4.509,10.773-6.087,16.375c-1.336,4.74-3.21,10.905-0.306,15.438c3.979,6.206,12.074,6.584,18.427,9.291
				c0.037,0.006,0.076,0.018,0.114,0.024c5.462-2.044,10.927-4.082,16.402-6.083c0.881-2.855,1.786-5.705,2.753-8.533
				c2.531-7.41,5.439-14.712,7.841-22.163c3.208-9.96,5.263-21.079,10.875-30.071c0.187-0.492,0.461-0.989,0.847-1.482l1.847-2.364
				c0.011,0.01,0.021,0.019,0.034,0.028c0.31-0.381,0.612-0.767,0.941-1.136c4.129-4.636,11.981,2.343,8.191,7.193l-1.847,2.364
				c-0.19,0.244-0.394,0.458-0.601,0.658c-2.917,4.331-4.385,10.104-5.828,14.875c-1.168,3.855-2.271,7.727-3.483,11.565
				c11.772-4.774,19.731-16.84,27.218-26.462c4.336-5.572,13.521,0.489,9.167,6.086c-8.412,10.812-16.825,22.319-28.879,28.771
				c1.706,2.943,2.666,6.224,3.146,9.652c7.558-2.349,15.172-4.511,22.868-6.399c2.576-10.096,3.725-20.581,8.142-30.133
				c1.905-4.121,6.932-4.127,9.456-1.885c7.459-2.985,16.152,0.624,22.906,3.939c3.209,1.576,3.088,6.685,0.564,8.734
				c-1.814,1.476-3.715,2.081-6.01,2.388c-3.274,0.437-5.476-1.697-6.168-4.188c-2.613-0.865-5.29-1.458-6.588-0.936
				c-2.048,0.828-3.927,0.424-5.338-0.604c-2.009,5.527-3.124,11.306-4.294,17.066c1.594,0.935,3.435,1.778,5.249,2.672
				c2.685-0.428,5.68,0.856,6.33,4.061c1.889,1.875,2.93,4.266,2.218,7.64c-0.103,0.487-0.298,0.927-0.554,1.325
				c2.721,9.115,8.6,16.942,16.686,22.324c1.008-2.645,1.987-5.301,2.875-7.992c3.755-11.377,9.115-22.781,10.239-34.821
				c0.033-0.354,0.099-0.684,0.182-1c-0.136-0.038-0.27-0.079-0.404-0.118c-1.387,0.525-3.012,0.381-4.599-0.859l-1.576-1.23
				c-4.842-3.782-1.355-11.703,4.807-9.794c8.848,2.741,17.793,5.109,25.905,9.713c6.187,3.511,0.04,12.643-6.086,9.167
				c-2.384-1.353-4.884-2.461-7.445-3.438c-1.459,11.97-6.403,23.188-10.155,34.556c-1.225,3.711-2.592,7.368-4.014,11.005
				c3.631,1.566,7.395,2.806,11.292,3.624c0.594,0.124,1.189,0.237,1.786,0.353c2.446-6.614,5.021-13.174,8.111-19.521
				c5.467-11.234,11.918-22.086,16.3-33.816C437.461,170.179,441.644,156.316,435.767,146.644z M188.594,192.843
				c-2.177,5.976-10.857,4.083-10.697-2.146c0.031-1.224,0.24-2.372,0.271-3.595c0.051-2.016,0.971-3.394,2.258-4.174
				c8.191-23.819,14.152-48.343,22.336-72.168c-0.019-0.006-0.038-0.012-0.057-0.019c-2.883,3.171-9.515,0.311-9.384-4.853
				c-1.653-3.878,1.789-8.45,6.747-7.342c11.323,2.529,21.137,9.034,32.161,12.435c6.799,2.097,3.235,12.507-3.526,10.421
				c-5.435-1.676-10.576-4.107-15.75-6.445C204.159,140.708,197.916,167.26,188.594,192.843z M241.288,156.326
				c-5.515,14.354-9.146,29.675-13.244,44.495c-1.896,6.858-12.302,3.276-10.421-3.526c4.096-14.814,7.709-30.153,13.242-44.495
				c4.243-10.993,9.25-22.483,8.669-34.504c-0.343-7.083,10.634-6.235,10.973,0.767C251.132,131.976,245.827,144.51,241.288,156.326
				z"/>
		</g>
	</g>
	<g>
		<g>
			<path class="st13" d="M393.155,369.692c-3.581-14.197-7.27-28.372-11.422-42.414c-4.107-13.891-9.375-27.446-12.4-41.629
				c-2.607-12.218-4.205-24.74-7.974-36.683c-3.123-9.896-8.36-23.396-18.947-27.4c-9.548-3.611-20.634,1.277-29.187,5.428
				c-10.979,5.327-21.497,11.321-32.746,16.125c-55.762,23.815-115.578,35.432-172.779,55.031c-0.094,0.032-0.184,0.053-0.275,0.08
				c10.518,26.952,22.309,53.58,28.648,81.91c6.235,27.866,14.16,55.98,27.242,81.489c2.79,0.429,7.025-1.633,9.724-2.732
				c4.535-1.849,8.978-3.908,13.478-5.837c10.745-4.604,21.91-8.336,32.805-12.59c13.408-5.234,26.816-10.589,40.539-14.955
				c12.518-3.983,25.201-7.391,37.848-10.934c13.17-3.689,26.354-7.489,39.125-12.415c8.91-3.437,17.379-7.677,26.035-11.668
				c6.786-3.129,13.601-6.197,20.383-9.335c3.145-1.455,6.291-2.908,9.406-4.428c0.596-0.291,1.046-0.507,1.512-0.742
				C392.302,374.053,392.236,371.635,393.155,369.692z M166.322,415.034c-0.729-0.983-1.271-2.017-2-3
				c-1.2-1.619-1.323-3.271-0.79-4.679c-8.209-23.813-18.608-46.809-26.827-70.621c-0.019,0.006-0.037,0.014-0.056,0.02
				c-0.32,4.273-7.307,6.103-10.383,1.953c-3.689-2.038-3.792-7.761,0.797-9.939c10.48-4.978,22.219-5.893,33-10
				c6.648-2.533,10.249,7.863,3.637,10.383c-5.314,2.025-10.863,3.274-16.38,4.617c8.923,25.706,20.35,50.474,28.753,76.373
				C178.036,416.189,170.031,420.042,166.322,415.034z M201.69,395.777c-5.893-14.195-12.488-28.508-16.957-43.216
				c-3.425-11.275-6.553-23.412-14.411-32.527c-4.63-5.37,4.542-11.46,9.119-6.15c8.442,9.791,11.979,22.934,15.676,35.04
				c4.49,14.706,11.062,29.016,16.956,43.217C214.802,398.713,204.396,402.296,201.69,395.777z M261.134,386.444
				c-2.88,0-6.31,1.944-9.054,2.784c-2.898,0.888-5.887,1.754-8.903,2.131c-5.902,0.736-12.204-0.119-16.938-4.02
				c-11.293-9.303-13.422-26.41-17.549-39.562c-3.657-11.654-10.928-24.047-7.459-36.632c3.598-13.053,19.915-16.595,30.281-9.318
				c5.797,4.068-1.508,12.303-7.262,8.264c-2.914-2.045-9.086-1.47-11.237,1.499c-2.594,3.581-1.81,8.887-0.742,12.873
				c2.423,9.052,6.272,17.632,8.789,26.674c1.558,5.597,3.079,11.265,5.284,16.65c1.865,4.559,4.184,10.57,9.263,12.354
				c6.956,2.441,13.568-2.244,20.241-4.021c0.703-0.404,1.568-0.646,2.609-0.646h1.828
				C267.346,375.474,268.223,386.444,261.134,386.444z M297.251,376.091c-2.741-1.999-4.137-6.219-5.46-9.182
				c-1.753-3.929-3.2-8.204-5.469-11.875c-4.06-6.566-9.213-18.235-18.167-18.589c1.953,5.931,3.915,11.859,6.08,17.716
				c1.48,4.004,3.006,7.993,4.691,11.916c0.291,0.677,0.679,1.421,1.088,2.197c1.371,0.743,2.353,2.145,2.353,4.261v2.148
				c0,7.059-10.971,7.937-10.971,0.847c0-1.124-2.323-4.556-2.853-5.815c-0.719-1.713-1.438-3.426-2.115-5.154
				c-1.535-3.906-3.003-7.838-4.379-11.804c-2.566-7.397-4.77-14.942-7.465-22.292c-3.604-9.824-8.83-19.852-9.943-30.393
				c-0.156-0.503-0.245-1.063-0.245-1.689v-3c0.015,0.001,0.028,0.002,0.044,0.002c0.01-0.491,0.011-0.981,0.043-1.476
				c0.4-6.194,10.884-5.529,10.884,0.626v3c0,0.31-0.028,0.604-0.068,0.889c0.368,5.209,2.766,10.662,4.564,15.31
				c1.454,3.758,2.967,7.487,4.376,11.259c6.338-11.01,5.182-25.418,5.157-37.609c-0.014-7.061,10.956-7.938,10.971-0.848
				c0.027,13.699,0.481,27.947-5.045,40.452c7.483,3.011,12.891,10.034,17.232,17.156c2.688,4.41,5.086,8.819,7.165,13.555
				c1.114,2.54,2.188,5.104,3.389,7.606c0.494,1.029,1.371,2.498,1.404,2.522C310.241,372.004,302.945,380.244,297.251,376.091z
				 M334.7,365.15c-5.146,1.107-10.071,3.154-15.395,3.294c-3.332,0.087-5.285-2.299-5.68-4.867
				c-4.592-13.898-8.432-28.022-12.746-41.997c-3.937-12.751-12.129-23.737-15.189-36.803c-1.035-4.421,2.922-7.52,6.291-7.307
				c4.041-6.944,13.113-9.452,20.477-10.997c3.499-0.733,6.549,3.366,5.822,6.535c-0.521,2.279-1.646,3.927-3.267,5.581
				c-2.312,2.36-5.359,2.034-7.438,0.498c-2.592,0.927-5.066,2.107-5.767,3.318c-1.104,1.913-2.834,2.751-4.578,2.811
				c1.819,5.592,4.498,10.832,7.122,16.092c6.932-0.925,15.853-5.072,19.721,2.832c1.321,2.699-0.795,6.104-3.373,7.01
				c-1.882,0.662-3.587,0.256-4.932-0.771c-0.271,0.021-0.543,0.044-0.814,0.083c-1.026,0.147-2.048,0.321-3.062,0.538
				c-0.921,0.197-1.848,0.409-2.777,0.61c0.825,2.066,1.558,4.17,2.147,6.332c3.56,13.05,7.535,26.046,11.744,38.914
				c2.696-0.601,5.326-1.503,8.057-2.09c2.931-0.631,5.925,0.285,7.01,3.373C338.973,360.699,337.634,364.52,334.7,365.15z
				 M361.69,346.777c-5.166-13.738-8.047-28.191-13-42c-4.045-11.276-6.842-23.563-13.368-33.743c-0.192-0.3-0.343-0.6-0.473-0.899
				c-0.13,0.053-0.261,0.104-0.392,0.155c-0.77,1.268-2.139,2.154-4.152,2.154h-2c-6.144,0-8.272-8.388-2.242-10.677
				c8.66-3.287,17.168-6.928,26.395-8.294c7.036-1.042,7.814,9.938,0.848,10.971c-2.711,0.401-5.364,1.067-7.983,1.875
				c6.219,10.33,9.229,22.215,13.271,33.482c5.113,14.255,8.149,29.16,13.48,43.339C374.577,349.8,364.182,353.402,361.69,346.777z"
				/>
		</g>
	</g>
	<g>
		<g>
			<path class="st8" d="M433.046,322.827c-0.473,1.995-2.016,3.617-4.74,3.617c-7.06,0-7.937-10.971-0.848-10.971
				c0.761,0,1.445,0.134,2.061,0.36c-0.114-0.618-0.208-1.248-0.277-1.893c-0.347-3.229,0.936-6.058,2.932-8.399
				c-9.237-6.75-10.961-19.817-4.694-29.965c-7.962-4.097-14.399-11.387-14.057-20.882c0.104-2.89,0.839-6.446,2.206-9.613
				c-26.514-2.481-52.439-18.201-57.51-45.396c-1.756,0.35-3.505,0.722-5.251,1.105c-0.147,0.402-0.286,0.809-0.44,1.209h-4.83
				c-43.321,10.332-83.995,29.988-126.518,43.006c-44.682,13.679-91.224,20.19-135.82,34.049c0.028,0.309,0.041,0.624,0.021,0.954
				c-0.487,8.2,0.67,16.369,0.45,24.564c-0.19,7.103-1.315,13.725-3.536,20.464c-3.315,10.062-7.633,22.242-16.612,28.785
				c9.518,7.255,10.662,22.658,7.201,34.347c11.844,7.206,14.988,23.11,11.185,36.458c10.045,4.732,17.003,15.086,14.517,26.021
				c1.856,0.813,3.868,1.276,5.794,1.89c1.189-0.412,2.581-0.341,4.051,0.494c8.185,4.646,17.729,5.628,26.114,9.772
				c8.474,4.188,14.382,11.057,20.799,17.715c11.724,0.104,21.819-5.291,32.821-8.752c12.889-4.055,25.865-7.822,38.772-11.816
				c12.29-3.802,24.433-8.051,36.798-11.61c12.036-3.465,24.16-6.616,36.197-10.077c11.93-3.432,23.833-7.092,35.346-11.759
				c8.473-3.435,16.48-7.757,24.832-11.422c6.299-2.763,12.564-5.604,18.793-8.522c2.791-1.308,5.582-2.617,8.34-3.996
				c0.713-0.356,1.424-0.725,2.118-1.115c0.229-0.129,0.413-0.245,0.558-0.346c0.31-0.374,0.497-0.466,0.426-0.362
				c1.192-1.084,2.729-1.398,4.201-1.148c5.123-3.386,10.396-6.11,16.26-7.907c1.652-20.798,7.249-40.767,18.055-58.637
				c-0.723-2.852,0.501-6.108,3.936-6.527c0.004-1.119,0.295-2.266,0.872-3.266C433.389,323.12,433.216,322.977,433.046,322.827z
				 M404.458,249.474c7.06,0,7.937,10.971,0.848,10.971C398.246,260.444,397.369,249.474,404.458,249.474z M80.458,349.474
				c7.06,0,7.937,10.971,0.848,10.971C74.246,360.444,73.369,349.474,80.458,349.474z M92.367,382.535
				c0,1.523-0.32,2.882-1.354,4.055c-0.941,1.07-2.287,1.745-3.708,1.854c-1.469,0.112-2.95-0.38-4.055-1.354
				c-1.002-0.882-1.854-2.335-1.854-3.708v-1c0-1.523,0.32-2.882,1.354-4.055c0.941-1.07,2.287-1.745,3.708-1.854
				c1.469-0.112,2.95,0.38,4.055,1.354c1.002,0.882,1.854,2.335,1.854,3.708V382.535z M99.306,417.444
				c-1.469,0.112-2.95-0.38-4.055-1.354c-1.002-0.882-1.854-2.335-1.854-3.708v-1c0-1.523,0.32-2.882,1.354-4.055
				c0.941-1.07,2.287-1.745,3.708-1.854c1.469-0.112,2.95,0.38,4.055,1.354c1.002,0.882,1.854,2.335,1.854,3.708v1
				c0,1.523-0.32,2.882-1.354,4.055C102.072,416.66,100.727,417.335,99.306,417.444z M111.306,450.444
				c-1.396,0.106-2.771-0.364-3.845-1.208c-0.795-0.197-1.534-0.55-2.21-1.146c-1.07-0.941-1.745-2.287-1.854-3.708
				c-0.112-1.469,0.38-2.95,1.354-4.055c0.881-1.001,2.335-1.855,3.708-1.854c1.526,0.001,2.942,0.052,4.346,0.721
				c2.042,0.975,3.457,3.075,3.563,5.341C116.507,447.528,114.358,450.21,111.306,450.444z M404.809,381.406
				c-2.104,4.371-10.181,6.537-14.183,8.404c-7.518,3.508-15.082,6.914-22.618,10.38c-9.155,4.211-18.091,8.791-27.538,12.359
				c-12.812,4.84-25.938,8.737-39.124,12.416c-13.794,3.848-27.663,7.503-41.252,12.042c-13.713,4.579-27.152,9.957-40.618,15.206
				c-11.406,4.446-23,8.417-34.196,13.373c-6.899,3.054-16.575,8.759-24.447,6.771c-1.3-0.328-2.278-0.984-2.964-1.819
				c-1.299-0.179-2.568-0.944-3.546-2.504c-0.921-1.469-2.146-2.533-2.632-4.257c-0.147-0.523-0.215-1.025-0.227-1.508
				c-11.984-24.928-19.582-51.574-25.773-78.492c-7.004-30.451-19.922-58.915-31-88c-1.896-4.977,3.453-8.245,7.319-6.801
				c0.531-0.503,1.21-0.92,2.054-1.209c36.609-12.545,74.227-21.746,111.215-33.055c27.636-8.449,55.68-17.65,81.223-31.349
				c17.061-9.148,42.18-22.884,59.297-6.114c17.996,17.63,19.278,44.51,24.543,67.646c3.136,13.782,8.383,27.032,12.32,40.604
				c4.484,15.453,8.506,31.031,12.412,46.64c0.354,1.412,0.107,2.856-0.508,4.102C405.479,377.637,405.751,379.449,404.809,381.406z
				 M413.458,272.474c7.06,0,7.937,10.971,0.848,10.971C407.246,283.444,406.369,272.474,413.458,272.474z M416.251,308.091
				c-1.002-0.882-1.854-2.335-1.854-3.708v-1c0-1.523,0.32-2.882,1.354-4.055c0.941-1.07,2.287-1.745,3.708-1.854
				c1.469-0.112,2.95,0.38,4.055,1.354c1.002,0.882,1.854,2.335,1.854,3.708v1c0,1.523-0.32,2.882-1.354,4.055
				c-0.941,1.07-2.287,1.745-3.708,1.854C418.837,309.557,417.355,309.064,416.251,308.091z"/>
		</g>
	</g>
	<g>
		<g>
			<path class="st8" d="M306.526,191.457c-1.549,4.309-3.091,8.619-4.554,12.957c2.927-1.021,5.857-2.025,8.797-3.005
				C310.508,197.488,309.4,193.891,306.526,191.457z"/>
		</g>
	</g>
	<g>
		<g>
			<path class="st8" d="M389.817,401.104c-0.238,0.288-0.547,0.74-0.862,1.408c0.293-0.621,0.651-1.133,1.056-1.551
				C389.956,401.004,389.892,401.051,389.817,401.104z"/>
		</g>
	</g>
	<g>
		<g>
			<path class="st8" d="M461.614,139.069c-43.082-21.692-91.024-31.449-135.893-48.651c-43.632-16.729-84.317-40.249-127.992-56.783
				c-0.168,0.261-0.353,0.517-0.571,0.765c-5.432,6.162-9.549,13.312-14.768,19.635c-4.522,5.48-9.485,10.006-15.385,13.95
				c-8.807,5.887-19.708,12.828-30.812,12.456c3.033,11.576-5.548,24.419-15.471,31.5c4.897,12.97-2.416,27.438-13.631,35.615
				c5.003,9.913,4.112,22.356-4.579,29.442c0.962,1.784,2.262,3.388,3.402,5.057c1.19,0.407,2.243,1.32,2.888,2.883
				c3.59,8.699,10.506,15.35,14.562,23.778c4.1,8.517,4.526,17.566,5.484,26.765c7.737,6.155,16.969,8.519,26.149,11.534v3.36
				c6.621-1.471,13.24-2.953,19.844-4.492c-4.352-1.314-8.719-2.569-13.13-3.679c-7.317-1.841-18.454-3.302-23.434-9.715
				c-0.822-1.059-1.189-2.179-1.216-3.259c-0.913-0.94-1.442-2.325-1.252-4.156c0.178-1.724-0.132-3.316,0.547-4.975
				c0.205-0.503,0.461-0.939,0.749-1.327c5.902-27.022,16.319-52.698,28.012-77.722c13.228-28.309,20.571-58.691,29.747-88.432
				c1.568-5.09,7.797-4.371,9.954-0.854c0.729-0.069,1.52,0.02,2.362,0.312c36.573,12.652,71.881,28.56,107.991,42.419
				c26.979,10.355,54.743,20.369,83.306,25.3c19.076,3.294,47.326,7.934,50.492,31.687c3.328,24.972-12.21,46.943-22.305,68.417
				c-2.247,4.779-4.215,9.683-6.074,14.632c2.008,0.145,3.734,0.469,5.747,1.874c0.376,0.263,0.68,0.563,0.932,0.889
				c0.662,0.169,1.346,0.407,2.057,0.738c5.847,2.728,2.324,11.128-3.201,10.362c-0.136,0.282-0.271,0.564-0.406,0.848
				c-0.348,0.849-0.636,1.639-0.836,2.537c-0.377,1.693-0.839,3.542-0.296,5.266c1.796,5.706,6.698,9.098,12.342,10.516
				c2.053,0.516,4.036,2.148,4.367,4.343c1.159-0.171,2.429,0.126,3.675,1.099c0.6,0.469,1.057,0.996,1.401,1.553
				c0.291-0.558,0.605-1.111,0.947-1.662c1.714-2.758,4.467-4.197,7.48-4.814c-3.123-11.006,3.562-22.364,14.748-26.503
				c-3.752-8.13-4.337-17.838,1.779-25.109c1.861-2.213,4.629-4.563,7.656-6.218C459.62,191.971,448.867,163.622,461.614,139.069z
				 M120.369,183.19c-1.732,2.444-5.077,3.235-7.627,1.54c-1.165-0.775-1.959-1.992-2.286-3.318
				c-0.505-0.645-0.87-1.378-1.036-2.264c-0.264-1.4,0.033-2.876,0.821-4.063c0.815-1.227,2.116-2.091,3.563-2.362
				c1.31-0.246,2.981-0.024,4.063,0.822c1.202,0.939,2.286,1.852,2.98,3.243C121.857,178.812,121.68,181.34,120.369,183.19z
				 M131.844,149.01l-0.615,0.788c-0.938,1.2-2.027,2.073-3.562,2.362c-1.401,0.264-2.877-0.033-4.064-0.822
				c-1.227-0.815-2.091-2.115-2.361-3.562c-0.247-1.312-0.024-2.981,0.82-4.063l0.616-0.788c0.938-1.201,2.026-2.074,3.562-2.362
				c1.401-0.264,2.877,0.033,4.063,0.821c1.227,0.816,2.092,2.115,2.362,3.562C132.912,146.258,132.689,147.928,131.844,149.01z
				 M140.24,118.77l-0.615,0.787c-0.938,1.201-2.026,2.074-3.562,2.362c-1.4,0.264-2.877-0.032-4.064-0.821
				c-1.227-0.815-2.09-2.115-2.361-3.562c-0.247-1.312-0.023-2.982,0.821-4.064l0.616-0.787c0.938-1.201,2.025-2.074,3.562-2.362
				c1.4-0.265,2.877,0.032,4.063,0.821c1.227,0.815,2.091,2.115,2.362,3.562C141.309,116.018,141.086,117.688,140.24,118.77z
				 M144.508,95.339c-5.562-4.347,0.5-13.531,6.086-9.167C156.157,90.518,150.094,99.703,144.508,95.339z M451.291,261.52
				l-0.615,0.787c-0.938,1.201-2.027,2.074-3.562,2.362c-1.401,0.264-2.877-0.032-4.064-0.821c-1.227-0.815-2.091-2.115-2.361-3.562
				c-0.247-1.312-0.024-2.982,0.821-4.064l0.615-0.787c0.938-1.201,2.026-2.074,3.563-2.362c1.4-0.264,2.876,0.032,4.063,0.821
				c1.227,0.815,2.091,2.115,2.361,3.562C452.359,258.768,452.137,260.438,451.291,261.52z M454.327,239.665
				c-5.563-4.347,0.5-13.531,6.086-9.167C465.977,234.844,459.914,244.029,454.327,239.665z M461.395,216
				c-5.563-4.347,0.5-13.531,6.086-9.168C473.043,211.179,466.98,220.363,461.395,216z"/>
		</g>
	</g>
	<g>
		<g>
			<path class="st8" d="M390.011,400.961c0.131-0.104,0.202-0.177,0.232-0.22C390.164,400.812,390.085,400.883,390.011,400.961z"/>
		</g>
	</g>
	<g>
		<g>
			<path class="st11" d="M389.817,401.104c0.074-0.053,0.139-0.1,0.193-0.143c0.074-0.078,0.153-0.148,0.232-0.22
				C390.314,400.638,390.127,400.729,389.817,401.104z"/>
		</g>
	</g>
	<g>
		<g>
			<path class="st11" d="M404.565,376.242c0.615-1.245,0.861-2.689,0.508-4.102c-3.906-15.608-7.928-31.187-12.412-46.64
				c-3.938-13.572-9.185-26.822-12.32-40.604c-5.265-23.137-6.547-50.017-24.543-67.646c-17.117-16.77-42.236-3.034-59.297,6.114
				c-25.543,13.698-53.587,22.899-81.223,31.349c-36.988,11.309-74.605,20.51-111.215,33.055c-0.844,0.289-1.522,0.706-2.054,1.209
				c-3.866-1.444-9.216,1.824-7.319,6.801c11.078,29.085,23.996,57.549,31,88c6.191,26.918,13.789,53.564,25.773,78.492
				c0.012,0.482,0.079,0.984,0.227,1.508c0.486,1.724,1.711,2.788,2.632,4.257c0.978,1.56,2.247,2.325,3.546,2.504
				c0.686,0.835,1.664,1.491,2.964,1.819c7.872,1.988,17.548-3.717,24.447-6.771c11.196-4.956,22.79-8.927,34.196-13.373
				c13.466-5.249,26.905-10.627,40.618-15.206c13.589-4.539,27.458-8.194,41.252-12.042c13.187-3.679,26.312-7.576,39.124-12.416
				c9.447-3.568,18.383-8.148,27.538-12.359c7.536-3.466,15.101-6.872,22.618-10.38c4.002-1.867,12.078-4.033,14.183-8.404
				C405.751,379.449,405.479,377.637,404.565,376.242z M392.657,376.736c-3.115,1.52-6.262,2.973-9.406,4.428
				c-6.782,3.138-13.597,6.206-20.383,9.335c-8.656,3.991-17.125,8.231-26.035,11.668c-12.771,4.926-25.955,8.726-39.125,12.415
				c-12.646,3.543-25.33,6.95-37.848,10.934c-13.723,4.366-27.131,9.721-40.539,14.955c-10.895,4.254-22.06,7.986-32.805,12.59
				c-4.5,1.929-8.942,3.988-13.478,5.837c-2.698,1.1-6.934,3.161-9.724,2.732c-13.082-25.509-21.007-53.623-27.242-81.489
				c-6.34-28.33-18.131-54.958-28.648-81.91c0.092-0.027,0.182-0.048,0.275-0.08c57.201-19.6,117.018-31.216,172.779-55.031
				c11.249-4.804,21.768-10.798,32.746-16.125c8.553-4.15,19.639-9.039,29.187-5.428c10.587,4.005,15.824,17.504,18.947,27.4
				c3.769,11.942,5.366,24.465,7.974,36.683c3.025,14.183,8.293,27.738,12.4,41.629c4.152,14.042,7.841,28.217,11.422,42.414
				c-0.919,1.942-0.854,4.36,1.014,6.302C393.703,376.229,393.253,376.445,392.657,376.736z"/>
		</g>
	</g>
	<g>
		<g>
			<path class="st11" d="M176.073,410.141c-8.403-25.899-19.83-50.667-28.753-76.373c5.517-1.343,11.065-2.592,16.38-4.617
				c6.612-2.52,3.012-12.916-3.637-10.383c-10.781,4.107-22.52,5.022-33,10c-4.589,2.179-4.486,7.901-0.797,9.939
				c3.076,4.149,10.062,2.32,10.383-1.953c0.019-0.006,0.037-0.014,0.056-0.02c8.219,23.812,18.618,46.808,26.827,70.621
				c-0.533,1.407-0.41,3.06,0.79,4.679c0.729,0.983,1.271,2.017,2,3C170.031,420.042,178.036,416.189,176.073,410.141z"/>
		</g>
	</g>
	<g>
		<g>
			<path class="st11" d="M212.073,392.141c-5.895-14.201-12.466-28.511-16.956-43.217c-3.697-12.106-7.233-25.249-15.676-35.04
				c-4.577-5.31-13.749,0.78-9.119,6.15c7.858,9.115,10.986,21.252,14.411,32.527c4.469,14.708,11.064,29.021,16.957,43.216
				C204.396,402.296,214.802,398.713,212.073,392.141z"/>
		</g>
	</g>
	<g>
		<g>
			<path class="st11" d="M260.286,375.474h-1.828c-1.041,0-1.906,0.241-2.609,0.646c-6.673,1.777-13.285,6.463-20.241,4.021
				c-5.079-1.783-7.397-7.795-9.263-12.354c-2.205-5.386-3.727-11.054-5.284-16.65c-2.517-9.042-6.366-17.622-8.789-26.674
				c-1.067-3.986-1.852-9.292,0.742-12.873c2.151-2.969,8.323-3.544,11.237-1.499c5.754,4.039,13.059-4.195,7.262-8.264
				c-10.366-7.276-26.684-3.734-30.281,9.318c-3.469,12.585,3.802,24.978,7.459,36.632c4.127,13.152,6.256,30.26,17.549,39.562
				c4.733,3.9,11.035,4.756,16.938,4.02c3.017-0.377,6.005-1.243,8.903-2.131c2.744-0.84,6.174-2.784,9.054-2.784
				C268.223,386.444,267.346,375.474,260.286,375.474z"/>
		</g>
	</g>
	<g>
		<g>
			<path class="st11" d="M304.513,367.827c-0.033-0.024-0.91-1.493-1.404-2.522c-1.201-2.502-2.274-5.066-3.389-7.606
				c-2.079-4.735-4.477-9.145-7.165-13.555c-4.342-7.122-9.749-14.146-17.232-17.156c5.526-12.505,5.072-26.753,5.045-40.452
				c-0.015-7.09-10.984-6.213-10.971,0.848c0.024,12.191,1.181,26.6-5.157,37.609c-1.409-3.771-2.922-7.501-4.376-11.259
				c-1.799-4.647-4.196-10.101-4.564-15.31c0.04-0.285,0.068-0.579,0.068-0.889v-3c0-6.155-10.483-6.82-10.884-0.626
				c-0.032,0.494-0.033,0.984-0.043,1.476c-0.016,0-0.029-0.001-0.044-0.002v3c0,0.626,0.089,1.187,0.245,1.689
				c1.113,10.541,6.339,20.568,9.943,30.393c2.695,7.35,4.898,14.895,7.465,22.292c1.376,3.966,2.844,7.897,4.379,11.804
				c0.678,1.729,1.396,3.441,2.115,5.154c0.529,1.26,2.853,4.691,2.853,5.815c0,7.09,10.971,6.212,10.971-0.847v-2.148
				c0-2.116-0.981-3.518-2.353-4.261c-0.409-0.776-0.797-1.521-1.088-2.197c-1.686-3.923-3.211-7.912-4.691-11.916
				c-2.165-5.856-4.127-11.785-6.08-17.716c8.954,0.354,14.107,12.022,18.167,18.589c2.269,3.671,3.716,7.946,5.469,11.875
				c1.323,2.963,2.719,7.183,5.46,9.182C302.945,380.244,310.241,372.004,304.513,367.827z"/>
		</g>
	</g>
	<g>
		<g>
			<path class="st11" d="M338.073,358.141c-1.085-3.088-4.079-4.004-7.01-3.373c-2.73,0.587-5.36,1.489-8.057,2.09
				c-4.209-12.868-8.185-25.864-11.744-38.914c-0.59-2.162-1.322-4.266-2.147-6.332c0.93-0.201,1.856-0.413,2.777-0.61
				c1.014-0.217,2.035-0.391,3.062-0.538c0.271-0.039,0.543-0.062,0.814-0.083c1.345,1.026,3.05,1.433,4.932,0.771
				c2.578-0.905,4.694-4.311,3.373-7.01c-3.868-7.904-12.789-3.757-19.721-2.832c-2.624-5.26-5.303-10.5-7.122-16.092
				c1.744-0.06,3.474-0.897,4.578-2.811c0.7-1.211,3.175-2.392,5.767-3.318c2.079,1.536,5.127,1.862,7.438-0.498
				c1.62-1.654,2.745-3.302,3.267-5.581c0.727-3.169-2.323-7.269-5.822-6.535c-7.363,1.545-16.436,4.053-20.477,10.997
				c-3.369-0.213-7.326,2.886-6.291,7.307c3.061,13.065,11.253,24.052,15.189,36.803c4.314,13.975,8.154,28.099,12.746,41.997
				c0.395,2.568,2.348,4.954,5.68,4.867c5.323-0.14,10.248-2.187,15.395-3.294C337.634,364.52,338.973,360.699,338.073,358.141z"/>
		</g>
	</g>
	<g>
		<g>
			<path class="st11" d="M372.073,343.141c-5.331-14.179-8.367-29.084-13.48-43.339c-4.041-11.268-7.052-23.152-13.271-33.482
				c2.619-0.808,5.272-1.474,7.983-1.875c6.967-1.032,6.188-12.013-0.848-10.971c-9.227,1.366-17.734,5.007-26.395,8.294
				c-6.03,2.289-3.901,10.677,2.242,10.677h2c2.014,0,3.383-0.887,4.152-2.154c0.131-0.052,0.262-0.103,0.392-0.155
				c0.13,0.3,0.28,0.6,0.473,0.899c6.526,10.18,9.323,22.467,13.368,33.743c4.953,13.809,7.834,28.262,13,42
				C364.182,353.402,374.577,349.8,372.073,343.141z"/>
		</g>
	</g>
	<g>
		<g>
			<path class="st11" d="M80.458,349.474c-7.089,0-6.212,10.971,0.848,10.971C88.395,360.444,87.518,349.474,80.458,349.474z"/>
		</g>
	</g>
	<g>
		<g>
			<path class="st11" d="M90.513,377.827c-1.104-0.974-2.586-1.466-4.055-1.354c-1.421,0.109-2.767,0.784-3.708,1.854
				c-1.033,1.173-1.354,2.531-1.354,4.055v1c0,1.373,0.853,2.826,1.854,3.708c1.104,0.974,2.586,1.466,4.055,1.354
				c1.421-0.109,2.767-0.784,3.708-1.854c1.033-1.173,1.354-2.531,1.354-4.055v-1C92.367,380.162,91.515,378.709,90.513,377.827z"/>
		</g>
	</g>
	<g>
		<g>
			<path class="st11" d="M102.513,406.827c-1.104-0.974-2.586-1.466-4.055-1.354c-1.421,0.109-2.767,0.784-3.708,1.854
				c-1.033,1.173-1.354,2.531-1.354,4.055v1c0,1.373,0.853,2.826,1.854,3.708c1.104,0.974,2.586,1.466,4.055,1.354
				c1.421-0.109,2.767-0.784,3.708-1.854c1.033-1.173,1.354-2.531,1.354-4.055v-1C104.367,409.162,103.515,407.709,102.513,406.827z
				"/>
		</g>
	</g>
	<g>
		<g>
			<path class="st11" d="M112.804,439.194c-1.403-0.669-2.819-0.72-4.346-0.721c-1.373-0.001-2.827,0.854-3.708,1.854
				c-0.974,1.104-1.466,2.586-1.354,4.055c0.109,1.421,0.784,2.767,1.854,3.708c0.676,0.596,1.415,0.948,2.21,1.146
				c1.074,0.844,2.449,1.314,3.845,1.208c3.053-0.234,5.201-2.916,5.062-5.909C116.261,442.27,114.846,440.169,112.804,439.194z"/>
		</g>
	</g>
	<g>
		<g>
			<path class="st11" d="M404.458,249.474c-7.089,0-6.212,10.971,0.848,10.971C412.395,260.444,411.518,249.474,404.458,249.474z"/>
		</g>
	</g>
	<g>
		<g>
			<path class="st11" d="M413.458,272.474c-7.089,0-6.212,10.971,0.848,10.971C421.395,283.444,420.518,272.474,413.458,272.474z"/>
		</g>
	</g>
	<g>
		<g>
			<path class="st11" d="M423.513,298.827c-1.104-0.974-2.586-1.466-4.055-1.354c-1.421,0.109-2.767,0.784-3.708,1.854
				c-1.033,1.173-1.354,2.531-1.354,4.055v1c0,1.373,0.853,2.826,1.854,3.708c1.104,0.974,2.586,1.466,4.055,1.354
				c1.421-0.109,2.767-0.784,3.708-1.854c1.033-1.173,1.354-2.531,1.354-4.055v-1C425.367,301.162,424.515,299.709,423.513,298.827z
				"/>
		</g>
	</g>
	<g>
		<g>
			<path class="st11" d="M494.123,213.128c-0.356-0.699-0.748-1.308-1.166-1.849c0.002-0.411-0.053-0.835-0.188-1.273
				c-1.026-3.344-2.934-4.598-5.447-6.834c-2.572-2.289-4.911-4.828-7.129-7.457c-4.429-5.251-7.805-11.23-10.317-17.607
				c-4.93-12.51-3.788-26.337,3.601-37.575c2.303-3.503,0.035-7.071-3.009-8.169c-0.384-0.678-0.929-1.33-1.684-1.92l-1.576-1.231
				c-1.079-0.843-2.175-1.176-3.202-1.141c-42.424-20.628-88.934-30.819-132.959-47.392c-45.508-17.132-87.66-41.989-133.271-58.793
				c-2.435-0.897-4.845,0.244-6.347,2.167l-1.231,1.576c-0.187,0.238-0.33,0.479-0.469,0.718
				c-9.061,10.361-15.462,22.979-26.799,31.148c-7.886,5.685-18.831,13.363-29.082,11.692c-2.642-0.431-4.386,0.861-5.165,2.698
				c-2.149,0.194-4.268,1.661-5.084,3.734c-0.845,2.145-0.699,4.125-0.465,6.379c0.232,2.238,1.473,3.554,3.037,4.089
				c-0.351,7.494-9.791,16.229-14.98,18.84c-3.438,1.729-3.833,5.649-1.774,8.569c6.923,9.814-3.657,23.005-12.335,27.359
				c-3.246,1.629-4.081,5.791-1.775,8.57c4.978,6.002,6.258,16.426-1.795,20.365c-2.201,1.076-3.512,3.555-3.029,5.982
				c0.569,2.859,1.81,5.259,3.462,7.638c1.287,1.854,3.793,4.104,3.353,6.497c-0.641,3.481,1.775,5.398,4.516,5.586
				c3.348,5.685,7.608,10.818,10.891,16.57c4.732,8.294,4.487,18.043,5.534,27.268c0.251,2.219,1.489,3.531,3.042,4.074
				c0.037,0.034,0.069,0.07,0.107,0.104c5.365,4.708,11.738,7.788,18.383,10.248c-20.754,4.642-41.443,9.512-61.706,16.007
				c-2.471,0.792-3.667,3.175-3.667,5.615v2c0,0.303,0.034,0.58,0.072,0.854c-0.761,13.743,1.962,27.626-1.942,41.044
				c-2.715,9.335-6.612,22.124-15.72,27.118c-2.347,1.286-2.926,3.379-2.409,5.306c-1.574,1.477-2.34,3.937-1.707,6.072
				c0.654,2.211,1.988,3.682,3.561,5.313c1.561,1.621,3.349,1.894,4.91,1.353c4.338,6.121,2.276,18.817-0.206,24.068
				c-1.645,3.479,0.457,6.812,3.877,7.846c11.498,3.473,11.28,20.381,7.123,29.154c-1.556,3.282,0.349,7.075,3.877,7.846
				c7.617,1.666,15.044,9.093,11.123,17.154c-1.072,2.203-0.579,4.964,1.296,6.579c2.209,1.903,4.663,3.03,7.43,3.888
				c2.156,0.669,5.516,0.898,6.642,3.056c1.639,3.139,4.723,3.161,6.997,1.622c6.139,2.419,12.656,3.841,18.783,6.354
				c8.836,3.623,14.645,11.456,21.148,18.081c1.564,1.594,3.348,1.866,4.906,1.338c0.05,0.004,0.098,0.013,0.148,0.016
				c11.975,0.684,23.365-3.987,34.348-8.16c13.005-4.94,26.71-8.323,40.01-12.393c12.906-3.949,25.646-8.399,38.607-12.167
				c12.598-3.663,25.303-6.945,37.911-10.57c12.504-3.597,24.882-7.626,36.907-12.608c8.073-3.345,15.75-7.508,23.735-11.039
				c6.787-3.001,13.538-6.09,20.241-9.272c2.147-1.021,5.496-2.146,8.287-3.718c1.141,0.142,2.379-0.13,3.604-0.998
				c6.229-4.412,12.271-7.606,19.743-9.368c2.576-0.607,3.55-3.324,3.667-5.615c1.075-21.045,6.818-42.331,18.646-59.945
				c1.101-1.639,1.397-3.444,1.03-5.017c2.619-1.182,4.231-3.182,5.765-6.167c1.026-1.998,0.681-5.211-1.296-6.579
				c-1.663-1.152-3.678-2.015-5.256-3.24c-1.948-1.513,3.963-4.679,4.7-5.068c1.776-0.938,2.41-3.149,2.41-4.983v-1
				c0-2.46-2.181-4.482-4.436-4.975c-1.123-0.245-2.157-0.605-3.095-1.062c0.878-0.316,1.759-0.623,2.646-0.914
				c1.876-0.613,3.222-1.854,3.9-3.318c2.792,0.681,5.294,0.098,8.34-1.312c2.038-0.942,3.744-3.688,3.028-5.982
				c-0.601-1.932-1.657-3.852-2.146-5.789c-0.604-2.392,6.003-1.247,6.824-1.101c1.977,0.355,3.838-0.998,4.967-2.443l0.616-0.787
				c1.515-1.939,1.041-4.875-0.433-6.651c-3.582-4.317-4.004-9.436,0.025-13.647c4.286-4.481,11.134-3.179,14.764-7.824
				c1.548-1.982,0.99-4.823-0.434-6.651c-3.574-4.592-5.35-10.282-3.252-15.885c0.634-1.692,2.136-2.864,3.475-3.967
				c0.711-0.585,1.425-1.03,2.221-1.485c0.281-0.139,0.562-0.278,0.843-0.418C489.104,223.328,497.052,218.877,494.123,213.128z
				 M432.694,326.521c-3.435,0.419-4.658,3.676-3.936,6.527c-10.806,17.87-16.402,37.839-18.055,58.637
				c-5.863,1.797-11.137,4.521-16.26,7.907c-1.472-0.25-3.009,0.064-4.201,1.148c-0.03,0.043-0.102,0.116-0.232,0.22
				c-0.404,0.418-0.763,0.93-1.056,1.551c0.315-0.668,0.624-1.12,0.862-1.408c-0.145,0.101-0.328,0.217-0.558,0.346
				c-0.694,0.391-1.405,0.759-2.118,1.115c-2.758,1.379-5.549,2.688-8.34,3.996c-6.229,2.918-12.494,5.76-18.793,8.522
				c-8.352,3.665-16.359,7.987-24.832,11.422c-11.513,4.667-23.416,8.327-35.346,11.759c-12.037,3.461-24.161,6.612-36.197,10.077
				c-12.365,3.56-24.508,7.809-36.798,11.61c-12.907,3.994-25.884,7.762-38.772,11.816c-11.002,3.461-21.098,8.856-32.821,8.752
				c-6.417-6.658-12.325-13.527-20.799-17.715c-8.386-4.145-17.93-5.127-26.114-9.772c-1.47-0.835-2.861-0.906-4.051-0.494
				c-1.926-0.613-3.938-1.076-5.794-1.89c2.486-10.936-4.472-21.289-14.517-26.021c3.804-13.348,0.659-29.252-11.185-36.458
				c3.461-11.688,2.316-27.092-7.201-34.347c8.979-6.543,13.297-18.724,16.612-28.785c2.221-6.739,3.346-13.361,3.536-20.464
				c0.22-8.195-0.938-16.364-0.45-24.564c0.02-0.33,0.007-0.646-0.021-0.954c44.597-13.858,91.139-20.37,135.82-34.049
				c42.522-13.018,83.196-32.674,126.518-43.006h4.83c0.154-0.4,0.293-0.807,0.44-1.209c1.746-0.384,3.495-0.756,5.251-1.105
				c5.07,27.195,30.996,42.915,57.51,45.396c-1.367,3.167-2.102,6.724-2.206,9.613c-0.343,9.495,6.095,16.785,14.057,20.882
				c-6.267,10.147-4.543,23.215,4.694,29.965c-1.996,2.342-3.278,5.171-2.932,8.399c0.069,0.645,0.163,1.274,0.277,1.893
				c-0.615-0.227-1.3-0.36-2.061-0.36c-7.089,0-6.212,10.971,0.848,10.971c2.725,0,4.268-1.622,4.74-3.617
				c0.17,0.149,0.343,0.293,0.521,0.429C432.989,324.256,432.698,325.402,432.694,326.521z M424.04,177.972
				c-8.112-4.604-17.058-6.972-25.905-9.713c-6.162-1.909-9.648,6.012-4.807,9.794l1.576,1.23c1.587,1.24,3.212,1.385,4.599,0.859
				c0.135,0.039,0.269,0.08,0.404,0.118c-0.083,0.316-0.148,0.646-0.182,1c-1.124,12.04-6.484,23.444-10.239,34.821
				c-0.888,2.691-1.867,5.348-2.875,7.992c-8.086-5.382-13.965-13.209-16.686-22.324c0.256-0.398,0.451-0.838,0.554-1.325
				c0.712-3.374-0.329-5.765-2.218-7.64c-0.65-3.204-3.646-4.488-6.33-4.061c-1.814-0.894-3.655-1.737-5.249-2.672
				c1.17-5.761,2.285-11.539,4.294-17.066c1.411,1.027,3.29,1.432,5.338,0.604c1.298-0.522,3.975,0.07,6.588,0.936
				c0.692,2.49,2.894,4.624,6.168,4.188c2.295-0.307,4.195-0.912,6.01-2.388c2.523-2.05,2.645-7.158-0.564-8.734
				c-6.754-3.315-15.447-6.925-22.906-3.939c-2.524-2.242-7.551-2.236-9.456,1.885c-4.417,9.552-5.565,20.037-8.142,30.133
				c-7.696,1.889-15.311,4.051-22.868,6.399c-0.48-3.429-1.44-6.709-3.146-9.652c12.054-6.452,20.467-17.959,28.879-28.771
				c4.354-5.597-4.831-11.658-9.167-6.086c-7.486,9.622-15.445,21.688-27.218,26.462c1.212-3.839,2.315-7.71,3.483-11.565
				c1.443-4.771,2.911-10.544,5.828-14.875c0.207-0.2,0.41-0.414,0.601-0.658l1.847-2.364c3.79-4.851-4.062-11.829-8.191-7.193
				c-0.329,0.369-0.632,0.755-0.941,1.136c-0.013-0.01-0.023-0.019-0.034-0.028l-1.847,2.364c-0.386,0.493-0.66,0.99-0.847,1.482
				c-5.612,8.992-7.667,20.111-10.875,30.071c-2.401,7.451-5.31,14.753-7.841,22.163c-0.967,2.828-1.872,5.678-2.753,8.533
				c-5.476,2.001-10.94,4.039-16.402,6.083c-0.038-0.007-0.077-0.019-0.114-0.024c-6.353-2.707-14.448-3.085-18.427-9.291
				c-2.904-4.532-1.03-10.697,0.306-15.438c1.578-5.602,3.869-11.006,6.087-16.375c3.583-8.674,5.831-17.806,9.495-26.43
				c1.613-3.799,4.261-8.463,8.51-9.688c3.523-1.016,8.74,2.331,9.778,5.736c2.048,6.725,12.873,4.733,10.81-2.042
				c-3.689-12.115-18.729-19.37-29.6-11.299c-10.48,7.782-12.381,22.024-16.674,33.46c-4.845,12.904-13.698,27.696-10.526,41.979
				c1.329,5.987,5.769,10.542,10.873,13.595c1.112,0.665,2.278,1.25,3.465,1.793c-12.328,4.562-24.698,8.99-37.221,12.907
				c-7.831,2.449-15.726,4.653-23.655,6.718c-8.381-2.662-16.745-5.436-25.225-7.677c-4.733-1.251-9.502-2.362-14.214-3.697
				c-2.804-0.795-7.41-1.777-9.345-3.833c5.395-28.156,16.458-55.189,28.699-80.987c12.445-26.229,19.546-54.472,27.851-82.186
				c0.089,0.035,0.173,0.074,0.267,0.106c57.143,19.77,111.432,47.44,170.035,63.002c11.821,3.14,23.801,4.892,35.731,7.452
				c9.295,1.995,21.041,4.968,26.342,13.691c5.877,9.673,1.694,23.535-1.938,33.257c-4.382,11.73-10.833,22.582-16.3,33.816
				c-3.09,6.348-5.665,12.907-8.111,19.521c-0.597-0.115-1.192-0.229-1.786-0.353c-3.897-0.818-7.661-2.058-11.292-3.624
				c1.422-3.637,2.789-7.294,4.014-11.005c3.752-11.367,8.696-22.586,10.155-34.556c2.562,0.977,5.062,2.085,7.445,3.438
				C424.08,190.614,430.227,181.482,424.04,177.972z M310.77,201.409c-2.939,0.979-5.87,1.984-8.797,3.005
				c1.463-4.338,3.005-8.648,4.554-12.957C309.4,193.891,310.508,197.488,310.77,201.409z M264.954,218
				c-1.984,0.742-3.969,1.481-5.954,2.219V218H264.954z M442.299,284.932c-2.965-1.784-5.934,0.029-7.12,2.721
				c-0.214,0.082-0.423,0.174-0.636,0.258c0.004-0.041,0.003-0.079,0.007-0.12c0.274-2.732,1.644-4.88,3.083-6.938
				c0.325,0.472,0.74,0.916,1.255,1.318c2.147,1.677,4.361,1.349,5.962,0.067c0.042,0.222,0.09,0.441,0.146,0.658
				C443.926,283.328,442.99,284.053,442.299,284.932z M471.33,216.466c-6.116,7.271-5.531,16.979-1.779,25.109
				c-11.186,4.139-17.871,15.497-14.748,26.503c-3.014,0.617-5.767,2.057-7.48,4.814c-0.342,0.551-0.656,1.104-0.947,1.662
				c-0.345-0.557-0.802-1.084-1.401-1.553c-1.246-0.973-2.516-1.27-3.675-1.099c-0.331-2.194-2.314-3.827-4.367-4.343
				c-5.644-1.418-10.546-4.81-12.342-10.516c-0.543-1.724-0.081-3.572,0.296-5.266c0.2-0.898,0.488-1.688,0.836-2.537
				c0.136-0.283,0.271-0.565,0.406-0.848c5.525,0.766,9.048-7.635,3.201-10.362c-0.711-0.331-1.395-0.569-2.057-0.738
				c-0.252-0.325-0.556-0.626-0.932-0.889c-2.013-1.405-3.739-1.729-5.747-1.874c1.859-4.949,3.827-9.853,6.074-14.632
				c10.095-21.474,25.633-43.445,22.305-68.417c-3.166-23.753-31.416-28.393-50.492-31.687c-28.562-4.931-56.326-14.944-83.306-25.3
				c-36.11-13.859-71.418-29.767-107.991-42.419c-0.843-0.292-1.634-0.381-2.362-0.312c-2.157-3.518-8.386-4.236-9.954,0.854
				c-9.176,29.74-16.52,60.123-29.747,88.432c-11.692,25.023-22.109,50.699-28.012,77.722c-0.288,0.388-0.544,0.824-0.749,1.327
				c-0.679,1.658-0.369,3.251-0.547,4.975c-0.19,1.831,0.339,3.216,1.252,4.156c0.026,1.08,0.394,2.2,1.216,3.259
				c4.979,6.413,16.116,7.874,23.434,9.715c4.411,1.109,8.778,2.364,13.13,3.679c-6.604,1.539-13.223,3.021-19.844,4.492v-3.36
				c-9.181-3.016-18.412-5.379-26.149-11.534c-0.958-9.198-1.385-18.248-5.484-26.765c-4.057-8.429-10.973-15.079-14.562-23.778
				c-0.645-1.562-1.697-2.476-2.888-2.883c-1.141-1.669-2.44-3.272-3.402-5.057c8.691-7.086,9.582-19.529,4.579-29.442
				c11.215-8.177,18.528-22.646,13.631-35.615c9.923-7.081,18.504-19.924,15.471-31.5c11.104,0.372,22.005-6.569,30.812-12.456
				c5.899-3.944,10.862-8.47,15.385-13.95c5.219-6.322,9.336-13.473,14.768-19.635c0.219-0.248,0.403-0.504,0.571-0.765
				c43.675,16.534,84.36,40.055,127.992,56.783c44.868,17.202,92.811,26.959,135.893,48.651
				c-12.747,24.553-1.994,52.901,17.372,71.179C475.959,211.902,473.191,214.253,471.33,216.466z"/>
		</g>
	</g>
	<g>
		<g>
			<path class="st11" d="M232.229,110.981c-11.024-3.4-20.838-9.905-32.161-12.435c-4.958-1.108-8.4,3.464-6.747,7.342
				c-0.131,5.163,6.501,8.023,9.384,4.853c0.019,0.007,0.038,0.013,0.057,0.019c-8.184,23.825-14.145,48.349-22.336,72.168
				c-1.287,0.78-2.207,2.158-2.258,4.174c-0.031,1.223-0.24,2.371-0.271,3.595c-0.16,6.229,8.521,8.122,10.697,2.146
				c9.322-25.583,15.565-52.135,24.359-77.886c5.174,2.338,10.315,4.77,15.75,6.445
				C235.465,123.488,239.028,113.078,232.229,110.981z"/>
		</g>
	</g>
	<g>
		<g>
			<path class="st11" d="M250.507,119.062c-0.339-7.002-11.315-7.85-10.973-0.767c0.581,12.021-4.426,23.511-8.669,34.504
				c-5.533,14.342-9.146,29.681-13.242,44.495c-1.881,6.803,8.525,10.385,10.421,3.526c4.098-14.82,7.729-30.142,13.244-44.495
				C245.827,144.51,251.132,131.976,250.507,119.062z"/>
		</g>
	</g>
	<g>
		<g>
			<path class="st11" d="M150.594,86.172c-5.586-4.364-11.648,4.82-6.086,9.167C150.094,99.703,156.157,90.518,150.594,86.172z"/>
		</g>
	</g>
	<g>
		<g>
			<path class="st11" d="M141.062,114.705c-0.271-1.447-1.136-2.747-2.362-3.562c-1.187-0.789-2.663-1.086-4.063-0.821
				c-1.537,0.288-2.625,1.161-3.562,2.362l-0.616,0.787c-0.845,1.082-1.068,2.752-0.821,4.064c0.271,1.447,1.135,2.747,2.361,3.562
				c1.188,0.789,2.664,1.085,4.064,0.821c1.536-0.288,2.625-1.161,3.562-2.362l0.615-0.787
				C141.086,117.688,141.309,116.018,141.062,114.705z"/>
		</g>
	</g>
	<g>
		<g>
			<path class="st11" d="M132.665,144.945c-0.271-1.447-1.136-2.746-2.362-3.562c-1.187-0.788-2.662-1.085-4.063-0.821
				c-1.536,0.288-2.624,1.161-3.562,2.362l-0.616,0.788c-0.845,1.082-1.067,2.752-0.82,4.063c0.271,1.447,1.135,2.747,2.361,3.562
				c1.188,0.789,2.663,1.086,4.064,0.822c1.535-0.289,2.624-1.162,3.562-2.362l0.615-0.788
				C132.689,147.928,132.912,146.258,132.665,144.945z"/>
		</g>
	</g>
	<g>
		<g>
			<path class="st11" d="M120.849,176.788c-0.694-1.392-1.778-2.304-2.98-3.243c-1.082-0.847-2.754-1.068-4.063-0.822
				c-1.447,0.271-2.748,1.136-3.563,2.362c-0.788,1.188-1.085,2.663-0.821,4.063c0.166,0.886,0.531,1.619,1.036,2.264
				c0.327,1.326,1.121,2.543,2.286,3.318c2.55,1.695,5.895,0.904,7.627-1.54C121.68,181.34,121.857,178.812,120.849,176.788z"/>
		</g>
	</g>
	<g>
		<g>
			<path class="st11" d="M467.48,206.832c-5.586-4.363-11.649,4.821-6.086,9.168C466.98,220.363,473.043,211.179,467.48,206.832z"/>
		</g>
	</g>
	<g>
		<g>
			<path class="st11" d="M460.413,230.498c-5.586-4.364-11.649,4.82-6.086,9.167C459.914,244.029,465.977,234.844,460.413,230.498z"
				/>
		</g>
	</g>
	<g>
		<g>
			<path class="st11" d="M452.112,257.455c-0.271-1.447-1.135-2.747-2.361-3.562c-1.188-0.789-2.663-1.085-4.063-0.821
				c-1.537,0.288-2.625,1.161-3.563,2.362l-0.615,0.787c-0.846,1.082-1.068,2.752-0.821,4.064c0.271,1.447,1.135,2.747,2.361,3.562
				c1.188,0.789,2.663,1.085,4.064,0.821c1.535-0.288,2.625-1.161,3.562-2.362l0.615-0.787
				C452.137,260.438,452.359,258.768,452.112,257.455z"/>
		</g>
	</g>
</g>
</svg>
