<?xml version="1.0" encoding="utf-8"?>
<!-- Generator: Adobe Illustrator 16.0.3, SVG Export Plug-In . SVG Version: 6.00 Build 0)  -->
<!DOCTYPE svg PUBLIC "-//W3C//DTD SVG 1.1//EN" "http://www.w3.org/Graphics/SVG/1.1/DTD/svg11.dtd">
<svg version="1.1" id="Layer_1" xmlns="http://www.w3.org/2000/svg" xmlns:xlink="http://www.w3.org/1999/xlink" x="0px" y="0px"
	 width="512px" height="512px" viewBox="0 0 512 512" style="enable-background:new 0 0 512 512;" xml:space="preserve">
<style type="text/css">
<![CDATA[
	.st0{fill:#127274;}
	.st1{fill:#14B6B9;}
	.st2{fill:#1E4384;}
	.st3{fill:#EF4754;}
	.st4{fill:#EF4823;}
	.st5{fill:#BCBCBC;}
	.st6{fill:#F6851F;}
	.st7{fill:#C56528;}
	.st8{fill:#FCBF95;}
	.st9{fill:#FEBF10;}
	.st10{fill:none;}
	.st11{fill:#010101;}
	.st12{fill:#3AB37C;}
	.st13{fill:#D6E5E5;}
	.st14{fill:#71C598;}
	.st15{fill:#74CCCF;}
]]>
</style>
<g>
	<g>
		<g>
			<path class="st1" d="M236.308,166.991c-3.879-0.826-8.204-0.626-10.909,2.704c-1.376,1.694-1.981,3.792-1.883,5.995
				c0.048,1.056,0.08,2.137,0.456,3.135c0.028,0.002,0.048,0.002,0.077,0.005c0.498,0.048,0.945,0.152,1.354,0.294
				c7.354-1.018,14.898-1.354,22.61-0.938C248.642,173.003,241.346,168.063,236.308,166.991z"/>
		</g>
	</g>
	<g>
		<g>
			<path class="st1" d="M285.324,196.888c-10.127-3.562-20.752-6.095-31.5-7.262c-2.67,2.262-6.105,1.416-8.051-0.604
				c-10.996-0.473-22.023,0.551-32.689,3.465c-10.501,2.869-20.449,7.23-29.768,12.702c0.078,1.18-0.17,2.363-0.766,3.329
				c0.486,0.581,0.992,1.141,1.572,1.656c1.943,1.731,4.009,3.192,6.332,4.378c5.398,2.754,11.14,4.545,17.064,5.776
				c11.42,2.373,23.082,3.253,34.729,3.386c10.209,0.117,20.274-1.126,30.013-4.318c8.889-2.912,21.424-7.76,23.334-18.218
				c0.018-0.096,0.043-0.183,0.064-0.275C292.258,199.459,288.812,198.115,285.324,196.888z"/>
		</g>
	</g>
	<g>
		<g>
			<path class="st1" d="M372.604,132.124c-3.809-13.722-8.988-28.906-18.652-39.675c-3.562-3.969-7.316-7.915-11.592-11.129
				c-1.592-1.197-3.281-2.368-5.174-3.047c-0.221-0.08-0.336-0.151-0.402-0.212c-0.014,0.072-0.053,0.166-0.158,0.306
				c-0.137,0.181-0.278,0.348-0.424,0.503c-0.763,4.203-2.27,8.063-4.53,11.37c33.993,35.857,44.497,93.159,29.413,139.911
				c0.63,0.555,1.262,1.11,1.887,1.67c0.865-1.165,2.104-2.01,3.45-2.247C379.508,199.161,381.457,164.024,372.604,132.124z"/>
		</g>
	</g>
	<g>
		<g>
			<path class="st9" d="M242.982,68.268c-29.199,0.538-58.164,4.226-87.045,8.311c-0.414,1.054-1.115,1.995-1.99,2.677
				c0.292,2.416,0.7,4.819,1.193,7.172c0.393,1.871,0.881,3.771,1.529,5.587c1.889,0.58,3.158,2.039,3.75,3.704
				c0.624,0.521,1.096,1.199,1.405,1.964c1.091-0.259,2.327-0.116,3.624,0.623c5.284,3.01,12.312,10.162,18.789,10.046
				c8.498-0.151,15.167-5.12,22.351-8.987c6.399-3.445,13.526-7.659,20.983-5.329c4.3,1.344,7.921,3.974,11.888,6.017
				c4.782,2.464,9.239,2.974,14.558,1.917c10.146-2.018,18.271-8.488,27.977-11.422c7.52-2.273,14.693,0.159,22.307,0.245
				c5.945,0.067,13.44-0.418,17.652-5.286c3.167-3.661,3.997-8.229,3.921-12.862C298.199,72.02,270.699,67.758,242.982,68.268z"/>
		</g>
	</g>
	<g>
		<g>
			<path class="st1" d="M145.13,93.266c-0.796-2.773-1.359-5.723-1.753-8.535c-15.959,0.267-29.826,8.847-38.302,22.486
				c-8.655,13.928-11.896,29.22-11.513,45.465c0.401,17.088,1.88,34.284,5.27,51.054c2.99,14.795,7.35,30.581,17.018,42.522
				c0.078-0.004,0.152-0.017,0.23-0.019c0.926-0.021,1.818,0.159,2.621,0.507c0.045-1.047,0.399-2.127,1.17-3.153
				c3.879-5.163,0.049-15.542-1.293-21.017c-1.932-7.875-3.124-15.522-3.664-23.612c-1.131-16.949-0.146-33.68,2.489-50.428
				C120.219,130.644,125.637,100.363,145.13,93.266z"/>
		</g>
	</g>
	<g>
		<g>
			<path class="st15" d="M416.68,322.116c-7.215-19.808-19.264-37.107-32.82-53.095c-8.535-10.066-17.848-19.752-27.842-28.727
				c-3.527,1.59-8.888-1.491-7.924-6.117c0.043-0.205,0.112-0.399,0.17-0.598c-13.104-10.874-27.291-20.442-42.42-27.977
				c-3.744,13.071-17.767,20.361-29.943,24.177c-12.742,3.992-25.455,5.245-38.729,4.768c-15.318-0.55-31.17-1.854-45.583-7.457
				c-6.651-2.585-13.044-6.215-17.659-11.77c-0.594-0.715-1.338-1.628-2.05-2.641c-8.81,6.397-16.94,13.772-24.27,21.804
				c-17.704,19.401-31.399,42.126-41.496,66.329c-11.09,26.584-24.675,55.756-17.5,85.22c7.728-1.6,15.86-0.553,23.63,0.243
				c9.693,0.993,19.418,1.696,29.135,2.439c16.141,1.235,32.307,1.45,48.465,2.294c16.165,0.844,32.341,1.502,48.523,1.849
				c31.975,0.686,63.98,0.331,95.91-1.575c16.201-0.967,32.385-2.263,48.523-3.994c6.701-0.718,13.379-1.241,19.906-2.958
				c4.912-1.292,9.968-2.77,15.057-3.123c1.408-0.097,2.82-0.097,4.219-0.013c0.516-0.525,1.112-0.957,1.762-1.248
				C425.154,360.415,423.422,340.623,416.68,322.116z"/>
		</g>
	</g>
	<g>
		<g>
			<path class="st1" d="M465.391,197.461c-4.131,5.885-9.014,11.164-15.001,15.321c-7.056,4.899-14.907,8.364-22.535,12.249
				c-9.823,5.003-18.763,10.668-26.261,18.883c-2.213,2.423-4.385,4.824-6.665,7.18c-0.989,1.022-1.979,2.045-2.938,3.098
				c-0.163,1.342-0.903,2.639-2.424,3.594c-0.188,0.118-0.385,0.243-0.586,0.368c14.146,15.935,27.033,33.441,35.236,53.049
				c2.793,6.675,4.976,13.48,6.646,20.375c11.857-1.813,18.514-13.388,22.186-23.922c3.885-11.146,4.766-22.589,4.664-34.291
				c-0.104-11.836-0.527-24.149,3.098-35.564c3.049-9.603,9.146-16.93,17.611-21.43
				C474.113,210.039,470.361,203.228,465.391,197.461z"/>
		</g>
	</g>
	<g>
		<g>
			<path class="st1" d="M432.506,404.359c-0.772-3.894-1.453-8.484-4.951-10.709c-0.875-0.123-1.705-0.465-2.4-1.046
				c-5.238-1.551-11.341,0.156-16.416,1.484c-6.402,1.675-12.613,2.798-19.203,3.53c-64.089,7.122-128.609,7.883-192.973,4.663
				c-28.416-1.422-56.836-2.176-85.162-5.078c-5.289-0.542-10.661-1.222-15.988-0.967c-3.186,0.152-6.269,0.146-7.788,3.396
				c-3.44,7.358-2.103,16.269-1.722,24.332c0.782,0.344,1.522,0.886,2.163,1.677c-1.407-1.738-0.425-0.688,0.392-0.479
				c1.451,0.37,2.917,0.677,4.395,0.921c4.31,0.711,8.656,1.185,13.008,1.556c20.658,1.763,41.434,0.999,62.055,3.168
				c16.032,1.687,32.096,4.32,48.249,4.413c16.038,0.093,32.063,0.448,48.097,0.791c31.84,0.681,63.914,0.808,95.408-4.596
				c13.828-2.373,27.246-6.673,40.916-9.776c11.211-2.544,22.025-4.037,33.356-4.342
				C434.195,413.01,433.307,408.386,432.506,404.359z"/>
		</g>
	</g>
	<g>
		<g>
			<path class="st11" d="M491.545,215.652c-8.185-10.09-13.492-22.404-23.428-31.055c-2.82-2.456-6.777-1.361-8.559,1.685
				c-4.893,8.371-11.135,14.944-19.378,20.037c-8.452,5.223-17.763,9.005-26.466,13.788c-9.908,5.445-17.02,13.61-24.85,21.485
				c-1.743,1.753-5.51,4.856-7.605,8.132c-0.492-0.523-0.984-1.052-1.479-1.572c-2.195-2.31-4.445-4.596-6.74-6.859
				c0.133-0.197,0.268-0.395,0.377-0.618c18.329-37.264,19.982-81.384,7-120.637c-3.147-9.515-7.465-18.638-12.445-27.322
				c-2.797-4.876-7.146-9.129-11.057-13.113c-4.386-4.47-12.938-12.321-20.414-12.57c-0.01-0.074-0.015-0.146-0.023-0.22
				c-0.378-3.158-2.811-5.05-5.908-5.062c-29.551-0.11-58.859-4.845-88.436-4.452c-30.697,0.408-61.214,4.622-91.557,8.952
				c-1.329,0.189-2.375,0.743-3.151,1.506c-3.04,0.027-4.944,3.199-4.909,5.902c0,0.023,0,0.051,0.002,0.075
				c-38.052,0.341-60.062,39.937-59.997,74.437c0.034,18.42,1.65,36.941,5.071,55.043c3.28,17.355,8.194,36.306,19.851,50.089
				c0.723,0.854,1.563,1.416,2.447,1.737c0.232,0.58,0.524,1.131,0.856,1.629c1.006,1.508,2.379,2.694,3.724,3.895
				c-9.206,15.232-16.624,31.403-23.597,47.917c-10.814,25.615-19.492,53.761-12.561,81.559c0.175,0.701,0.443,1.286,0.775,1.775
				c-6.65,9.139-4.156,26.375-4.068,35.827c0.027,3.139,2.194,4.714,4.594,4.886c4.062,4.107,11.3,4.476,16.674,5.145
				c9.465,1.177,19.031,1.659,28.555,2.076c9.045,0.396,18.104,0.288,27.145,0.712c16.145,0.758,32.154,3.51,48.25,4.881
				c15.838,1.349,31.806,0.901,47.688,1.248c15.844,0.346,31.684,0.789,47.533,0.728c30.738-0.119,60.809-3.054,90.594-10.755
				c17.725-4.583,34.697-8.36,53.059-8.36c3.216,0,4.787-2.258,4.891-4.724c0.162-0.368,0.293-0.771,0.385-1.211
				c1.839-8.795-0.434-19.414-3.125-27.81c-1.332-4.155-3.822-7.216-6.963-9.359c1.299-14.363,1.037-28.702-1.247-42.739
				c24.62-4.191,34.179-34.714,35.421-56.558c1.199-21.116-5.757-53.586,20.332-61.882
				C491.98,222.909,493.765,218.389,491.545,215.652z M336.201,78.869c0.146-0.155,0.287-0.322,0.424-0.503
				c0.105-0.141,0.145-0.234,0.158-0.306c0.066,0.061,0.182,0.132,0.402,0.212c1.893,0.679,3.582,1.85,5.174,3.047
				c4.275,3.214,8.03,7.16,11.592,11.129c9.664,10.769,14.844,25.953,18.652,39.675c8.854,31.901,6.904,67.037-6.183,97.45
				c-1.347,0.236-2.585,1.082-3.45,2.247c-0.625-0.56-1.257-1.115-1.887-1.67c15.084-46.752,4.58-104.054-29.413-139.911
				C333.932,86.933,335.438,83.072,336.201,78.869z M155.938,76.579c28.881-4.085,57.846-7.773,87.045-8.311
				c27.717-0.51,55.217,3.752,82.892,4.377c0.076,4.633-0.754,9.201-3.921,12.862c-4.212,4.868-11.707,5.353-17.652,5.286
				c-7.613-0.086-14.787-2.518-22.307-0.245c-9.705,2.934-17.83,9.404-27.977,11.422c-5.318,1.058-9.775,0.547-14.558-1.917
				c-3.967-2.043-7.588-4.673-11.888-6.017c-7.457-2.33-14.584,1.884-20.983,5.329c-7.184,3.868-13.853,8.836-22.351,8.987
				c-6.477,0.115-13.505-7.037-18.789-10.046c-1.297-0.739-2.533-0.882-3.624-0.623c-0.31-0.765-0.781-1.444-1.405-1.964
				c-0.592-1.665-1.861-3.124-3.75-3.704c-0.648-1.815-1.137-3.716-1.529-5.587c-0.493-2.353-0.901-4.757-1.193-7.172
				C154.822,78.574,155.523,77.633,155.938,76.579z M150.424,103.404c1.869,1.778,4.17,2.709,7.002,2.314
				c0.262-0.037,0.492-0.109,0.732-0.172c0.434,1.016,1.205,1.937,2.396,2.615c6.822,3.885,12.939,9.519,20.89,10.911
				c9.129,1.598,17.972-2.995,25.606-7.38c3.695-2.124,7.391-4.252,11.293-5.979c4.474-1.98,6.543-1.244,10.818,1.124
				c4.508,2.497,8.73,5.043,13.787,6.295c5.877,1.456,12.756-0.129,18.43-1.707c5.607-1.56,10.887-4.227,16.071-6.816
				c3.204-1.601,6.651-3.673,10.264-4.137c3.929-0.505,8.103,0.574,11.997,0.974c4.588,0.47,9.22,0.478,13.777-0.25
				c3.881-0.62,7.248-1.836,10.144-3.514c30.252,31.376,40.421,82.903,28.388,124.824c-26.977-21.747-58.666-38.58-92.687-43.232
				c0.915-11.232-12.306-22.14-23.679-23.542c-8.619-1.063-17.574,2.935-21.355,11.026c-1.806,3.865-2.426,9.827-1.058,14.702
				c-31.894,7.82-59.653,28.245-81.016,54.022c-0.455-8.496-3.827-17.478-5.206-25.211c-2.999-16.832-2.354-35.393,0.082-52.236
				c1.729-11.944,3.47-24.124,7.633-35.508C137.711,114.387,142.26,105.851,150.424,103.404z M245.773,189.022
				c1.945,2.02,5.381,2.865,8.051,0.604c10.748,1.167,21.373,3.7,31.5,7.262c3.488,1.227,6.934,2.571,10.336,4.016
				c-0.021,0.092-0.047,0.18-0.064,0.275c-1.91,10.458-14.445,15.306-23.334,18.218c-9.738,3.191-19.804,4.435-30.013,4.318
				c-11.647-0.133-23.31-1.013-34.729-3.386c-5.925-1.231-11.666-3.022-17.064-5.776c-2.323-1.186-4.389-2.647-6.332-4.378
				c-0.58-0.516-1.086-1.075-1.572-1.656c0.596-0.966,0.844-2.149,0.766-3.329c9.318-5.471,19.267-9.833,29.768-12.702
				C223.75,189.574,234.777,188.549,245.773,189.022z M225.398,169.694c2.705-3.33,7.03-3.53,10.909-2.704
				c5.038,1.073,12.334,6.012,11.705,11.195c-7.712-0.415-15.257-0.079-22.61,0.938c-0.408-0.142-0.855-0.246-1.354-0.294
				c-0.029-0.003-0.049-0.003-0.077-0.005c-0.376-0.999-0.408-2.08-0.456-3.135C223.417,173.487,224.022,171.388,225.398,169.694z
				 M98.832,203.737c-3.39-16.77-4.868-33.966-5.27-51.054c-0.383-16.245,2.857-31.537,11.513-45.465
				c8.476-13.64,22.343-22.22,38.302-22.486c0.394,2.812,0.957,5.762,1.753,8.535c-19.493,7.097-24.911,37.377-27.727,55.272
				c-2.635,16.748-3.62,33.479-2.489,50.428c0.54,8.09,1.732,15.737,3.664,23.612c1.342,5.475,5.172,15.854,1.293,21.017
				c-0.771,1.026-1.125,2.106-1.17,3.153c-0.803-0.348-1.695-0.528-2.621-0.507c-0.078,0.001-0.152,0.015-0.23,0.019
				C106.182,234.317,101.822,218.532,98.832,203.737z M106.114,300.814c10.097-24.203,23.792-46.928,41.496-66.329
				c7.329-8.032,15.46-15.407,24.27-21.804c0.712,1.013,1.456,1.926,2.05,2.641c4.615,5.554,11.008,9.184,17.659,11.77
				c14.413,5.603,30.265,6.906,45.583,7.457c13.273,0.477,25.986-0.776,38.729-4.768c12.177-3.816,26.199-11.106,29.943-24.177
				c15.129,7.535,29.316,17.103,42.42,27.977c-0.058,0.199-0.127,0.393-0.17,0.598c-0.964,4.626,4.396,7.707,7.924,6.117
				c9.994,8.975,19.307,18.661,27.842,28.727c13.557,15.988,25.605,33.287,32.82,53.095c6.742,18.507,8.475,38.299,7.064,57.833
				c-0.649,0.291-1.246,0.723-1.762,1.248c-1.398-0.084-2.811-0.084-4.219,0.013c-5.089,0.353-10.145,1.83-15.057,3.123
				c-6.527,1.717-13.205,2.24-19.906,2.958c-16.139,1.73-32.322,3.027-48.523,3.994c-31.93,1.906-63.936,2.261-95.91,1.575
				c-16.183-0.347-32.358-1.004-48.523-1.849c-16.158-0.844-32.324-1.059-48.465-2.294c-9.717-0.743-19.441-1.446-29.135-2.439
				c-7.77-0.796-15.902-1.842-23.63-0.243C81.439,356.571,95.024,327.399,106.114,300.814z M433.94,417.297
				c-11.331,0.305-22.146,1.797-33.356,4.342c-13.67,3.103-27.088,7.403-40.916,9.776c-31.494,5.404-63.568,5.277-95.408,4.596
				c-16.033-0.343-32.059-0.698-48.097-0.791c-16.153-0.093-32.217-2.727-48.249-4.413c-20.621-2.169-41.396-1.405-62.055-3.168
				c-4.352-0.371-8.698-0.845-13.008-1.556c-1.478-0.244-2.943-0.551-4.395-0.921c-0.816-0.208-1.799-1.259-0.392,0.479
				c-0.641-0.791-1.381-1.333-2.163-1.677c-0.381-8.062-1.719-16.973,1.722-24.332c1.52-3.25,4.603-3.244,7.788-3.396
				c5.327-0.255,10.699,0.425,15.988,0.967c28.326,2.901,56.746,3.655,85.162,5.078c64.363,3.22,128.884,2.459,192.973-4.663
				c6.59-0.732,12.801-1.855,19.203-3.53c5.075-1.328,11.178-3.036,16.416-1.484c0.695,0.582,1.525,0.924,2.4,1.046
				c3.498,2.225,4.179,6.815,4.951,10.709C433.307,408.386,434.195,413.01,433.94,417.297z M460.811,237.799
				c-3.625,11.415-3.202,23.728-3.098,35.564c0.102,11.702-0.779,23.145-4.664,34.291c-3.672,10.535-10.328,22.109-22.186,23.922
				c-1.671-6.895-3.854-13.7-6.646-20.375c-8.203-19.607-21.09-37.114-35.236-53.049c0.201-0.125,0.398-0.25,0.586-0.368
				c1.521-0.956,2.261-2.252,2.424-3.594c0.959-1.052,1.949-2.076,2.938-3.098c2.28-2.355,4.452-4.757,6.665-7.18
				c7.498-8.214,16.438-13.88,26.261-18.883c7.628-3.885,15.479-7.35,22.535-12.249c5.987-4.157,10.87-9.436,15.001-15.321
				c4.971,5.767,8.723,12.578,13.031,18.908C469.957,220.869,463.859,228.196,460.811,237.799z"/>
		</g>
	</g>
	<g>
		<g>
			<path class="st11" d="M472.678,122.414c-3.674-7.889-8.409-13.942-13.798-20.732c-2.021-2.548-4.208-5.371-4.54-8.706
				c-0.404-4.074,4.129-7.752,6.779-10.11c5.303-4.717-3.039-11.91-8.264-7.263c-6.176,5.495-11.113,12.823-8.943,21.414
				c1.881,7.44,7.836,13.067,12.444,18.902c4.093,5.183,6.929,10.949,8.005,17.478c0.488,2.968,2.33,14.688-1.693,15.643
				c-6.894,1.634-3.207,12.006,3.637,10.383C480.053,156.162,477.005,131.706,472.678,122.414z"/>
		</g>
	</g>
</g>
</svg>
