<?xml version="1.0" encoding="utf-8"?>
<!-- Generator: Adobe Illustrator 16.0.3, SVG Export Plug-In . SVG Version: 6.00 Build 0)  -->
<!DOCTYPE svg PUBLIC "-//W3C//DTD SVG 1.1//EN" "http://www.w3.org/Graphics/SVG/1.1/DTD/svg11.dtd">
<svg version="1.1" id="Layer_1" xmlns="http://www.w3.org/2000/svg" xmlns:xlink="http://www.w3.org/1999/xlink" x="0px" y="0px"
	 width="512px" height="512px" viewBox="0 0 512 512" style="enable-background:new 0 0 512 512;" xml:space="preserve">
<style type="text/css">
<![CDATA[
	.st0{fill:#127274;}
	.st1{fill:#14B6B9;}
	.st2{fill:#EF4823;}
	.st3{fill:#BCBCBC;}
	.st4{fill:#F6851F;}
	.st5{fill:#C0E6ED;}
	.st6{fill:#C56528;}
	.st7{fill:#FCBF95;}
	.st8{fill:#FEBF10;}
	.st9{fill:#FFFFFF;}
	.st10{fill:#9FDADF;}
	.st11{fill:#010101;}
	.st12{fill:#3AB37C;}
	.st13{fill:#D6E5E5;}
	.st14{fill:#71C598;}
	.st15{fill:#74CCCF;}
]]>
</style>
<g>
	<g>
		<g>
			<path class="st8" d="M259.602,467.95c1.224-16.973-1.85-34.358-2.096-51.362c-0.313-21.703-3.855-43.215-3.986-64.924
				c-2.383-0.096-4.754-0.178-7.096-0.179c-2.611-0.001-5.226-0.001-7.838-0.049c-0.068,0.204-0.135,0.408-0.188,0.613
				c-0.066,0.257-0.146,0.499-0.238,0.729c0.213,0.686,0.308,1.443,0.238,2.271c-0.844,10.068,2.086,20.288,2.086,30.407
				c0,10.633,0.06,21.268-0.01,31.9c-0.125,19.43-0.963,38.852-2.531,58.218c2.643,0.023,5.285,0.026,7.928-0.07
				c3.111-0.112,6.256-0.244,9.336-0.73c0.92-0.146,1.822-0.281,2.709-0.586c0.445-0.153,0.724-0.271,0.887-0.345
				c0.64-0.717,1.428-1.225,2.277-1.547C260.088,471.213,259.473,469.74,259.602,467.95z"/>
		</g>
	</g>
	<g>
		<g>
			<path class="st1" d="M155.974,100.812c-4.141,0.13-7.522,1.265-9.966,4.827c-1.65,2.406-2.431,5.34-2.062,8.111
				c1.342,0.45,2.46,1.541,2.92,3.432c2.94,12.084,23.788,5.786,24.775-4.723C172.355,104.86,162.265,100.613,155.974,100.812z"/>
		</g>
	</g>
	<g>
		<g>
			<path class="st8" d="M221.734,350.639c-4.243,0.386-9.253,1.318-13.746,0.649c-0.18,0.473-0.344,0.94-0.486,1.46
				c-0.611,2.213-1.139,4.445-1.639,6.686c-0.833,3.728-1.656,7.41-2.936,11.014c-4.65,13.087-8.806,26.381-14.229,39.18
				c-5.232,12.344-10.523,24.541-16.371,36.617c-4.66,9.625-9.262,19.275-13.287,29.176c10.498-0.161,21.065-0.317,31.415,1.331
				c8.166-22.794,13.815-46.307,21.616-69.198c6.33-18.578,7.401-38.645,14.754-56.87
				C225.115,350.55,223.411,350.486,221.734,350.639z"/>
		</g>
	</g>
	<g>
		<g>
			<path class="st0" d="M218.87,81.467c-9.532-20.524-32.835-34.117-55.258-34.609c-23.061-0.506-41.172,13.026-53.741,31.485
				c-7.902,11.604-13.794,25.635-15.271,39.672c-1.314,12.489,1.292,24.315,7.116,35.082c0.466,0.516,0.848,1.174,1.112,1.98
				c0.759,1.298,1.553,2.583,2.406,3.848c0.733,1.087,1.018,2.182,0.973,3.208c4.452,6.701,11.618,11.612,18.751,15.111
				c9.507,4.664,20.572,8.393,31.294,8.271c25.472-0.29,49.394-16.267,60.297-39.233C225.752,126.902,228.074,101.281,218.87,81.467
				z M139.566,127.64c-0.177-0.153-0.351-0.319-0.522-0.508c-11.359-12.466-5.389-33.489,11.703-36.809
				c12.566-2.441,30.418,4.854,31.771,19.157C184.542,130.871,151.098,143.401,139.566,127.64z"/>
		</g>
	</g>
	<g>
		<g>
			<path class="st1" d="M308.299,100.812c-4.141,0.13-7.521,1.265-9.966,4.827c-1.651,2.406-2.431,5.34-2.062,8.111
				c1.342,0.45,2.459,1.541,2.92,3.432c2.94,12.084,23.788,5.786,24.775-4.723C324.681,104.86,314.59,100.613,308.299,100.812z"/>
		</g>
	</g>
	<g>
		<g>
			<path class="st0" d="M371.195,81.467c-9.532-20.524-32.834-34.117-55.258-34.609c-23.061-0.506-41.172,13.026-53.741,31.485
				c-7.901,11.604-13.794,25.635-15.271,39.672c-1.314,12.489,1.292,24.315,7.116,35.082c0.467,0.516,0.848,1.174,1.111,1.98
				c0.76,1.298,1.555,2.583,2.407,3.848c0.733,1.087,1.017,2.182,0.972,3.208c4.453,6.701,11.619,11.612,18.752,15.111
				c9.507,4.664,20.572,8.393,31.293,8.271c25.473-0.29,49.395-16.267,60.299-39.233
				C378.076,126.902,380.398,101.281,371.195,81.467z M291.893,127.64c-0.178-0.153-0.352-0.319-0.523-0.508
				c-11.359-12.466-5.389-33.489,11.703-36.809c12.566-2.441,30.418,4.854,31.771,19.157
				C336.867,130.871,303.424,143.401,291.893,127.64z"/>
		</g>
	</g>
	<g>
		<g>
			<path class="st0" d="M95.607,237.461c-0.062,0.007-0.123,0.02-0.184,0.024c-1.336,0.103-2.461-0.237-3.369-0.868
				c-0.295,0-0.604-0.002-0.633-0.001c-1.381,0.062-2.759,0.173-4.135,0.307c-0.631,0.062-1.262,0.128-1.895,0.194
				c-0.455,3.693,0.133,7.407,0.609,11.115c3.455-0.188,7.155-0.244,10.303,0.703C96.17,245.116,95.949,241.282,95.607,237.461z"/>
		</g>
	</g>
	<g>
		<g>
			<path class="st0" d="M350.573,183.318c-16.774,11.199-37.376,15.992-57.309,11.24c-6.521-1.555-13.495-3.843-20.106-6.988
				c-0.792,1.137-2.107,1.915-3.991,1.915h-0.743c-0.016,0-0.031-0.002-0.047-0.003c-26.24-0.025-52.882-1.337-78.953,2.003
				c-1.739,0.223-3.096-0.278-4.051-1.17c-13.897,5.968-29.357,7.838-44.434,4.243c-7.595-1.811-15.805-4.617-23.339-8.615
				c-2.399,2.023-6.442,2.168-8.257-0.927c-0.439,0.146-0.876,0.296-1.303,0.472c-0.646,0.299-1.377,0.664-1.908,1.143
				c-2.37,2.136-4.508,4.321-5.186,7.573c-1.34,6.436,0.26,12.417,1.641,18.687c1.52,6.894,2.775,13.839,3.533,20.86
				c1.598,14.798,1.783,29.761,0.434,44.589c-0.993,10.912-4.326,26.135,8.771,30.649c10.771,3.712,22.969,0.783,33.947-0.268
				c31.647-3.028,62.839,2.606,94.404,3.726c16.293,0.578,32.783,0.113,49.071-0.499c14.554-0.547,29.981,0.677,43.981-3.997
				c4.112-2.541,8.096-5.783,8.992-10.811c0.936-5.242-0.133-10.572-1.207-15.717c-0.309-1.475-0.051-2.667,0.553-3.568
				c-0.21-0.197-0.49-0.486-0.766-0.781c-1.467-1.207-2.004-2.686-1.896-4.115c-0.069-0.43-0.13-0.86-0.199-1.28
				c-0.588-3.561-1.117-7.132-1.496-10.721c-0.755-7.161-1.162-14.333-1.195-21.534c-0.016-3.348,2.438-5.302,5.029-5.68
				c2.572-4.13,7.412-7.534,12.055-7.902C356.93,211.438,357.787,196.117,350.573,183.318z"/>
		</g>
	</g>
	<g>
		<g>
			<path class="st0" d="M408.81,179.822c-0.296,0.181-0.561,0.345-0.669,0.425c-2.053,1.517-3.939,3.211-5.764,4.994
				c-5.337,5.216-10.316,10.811-14.998,16.619c-5.018,6.226-9.887,12.663-13.859,19.617c-1.607,2.812-3.174,5.702-4.281,8.755
				c-0.537,1.483-0.829,3.59-0.754,4.344c0.528,5.236-5.341,7.036-8.717,4.77c-1.37-0.271-2.626-1.012-3.327-2.271
				c-0.01-0.019-0.034-0.049-0.054-0.077c-0.367,0.235-0.728,0.48-1.068,0.751c-0.04,0.046-0.162,0.166-0.383,0.377
				c-0.277,0.307-0.549,0.62-0.803,0.948c-0.021,0.049-0.08,0.158-0.205,0.373c-0.83,1.542-2.062,2.402-3.393,2.731
				c0.205,9.307,1.027,18.575,2.516,27.767c0.218,0.223,0.43,0.457,0.634,0.729c0.231,0.309,0.415,0.621,0.567,0.935
				c5.38,0.357,4.895-3.487,4.462-8.039c-0.53-5.575-1.495-11-1.112-16.62c0.48-7.065,11.272-4.881,10.797,2.1
				c-0.506,7.444,2.684,14.883,1.104,22.351c-0.514,2.423-1.424,4.386-2.64,5.954c0.378,0.038,0.772,0.117,1.187,0.247
				c12.379,3.877,18.915,15.064,27.326,24.038c3.625,3.868,7.654,8.29,11.881,11.479c2.262,1.705,2.167,1.282,2.373-1.495
				c0.178-2.389-0.073-4.809-0.113-7.199c-0.034-2.003,0.822-3.508,2.068-4.475c0.199-19.972,0.863-39.938,0.924-59.912
				C412.566,220.271,415.229,198.885,408.81,179.822z"/>
		</g>
	</g>
	<g>
		<g>
			<path class="st8" d="M309.225,409.288c-10.627-18.008-18.651-38.536-32.855-54.156c-1.129-1.242-1.569-2.664-1.527-4.038
				c-3.396,0.611-6.855,0.834-10.337,0.861c0.044,3.914,0.2,7.821,0.421,11.726c2.686-0.134,5.396,1.429,5.559,4.896
				c0.287,6.122,3.869,11.575,6.604,16.889c3.16,6.142,5.329,12.702,7.787,19.144c5.324,13.951,10.859,27.773,17.682,41.065
				c2.369,4.618,4.633,9.465,6.25,14.399c0.73,2.229,1.386,4.498,2.246,6.682c0.489,1.239,1.545,3.595,1.711,3.62
				c4.045,0.605,8.613-2.475,12.418-3.566c3.943-1.132,8.283-1.336,12.555-1.342C327.723,447.002,319.907,427.394,309.225,409.288z"
				/>
		</g>
	</g>
	<g>
		<g>
			<path class="st8" d="M277.722,324.942c-0.327-0.501-0.587-1.048-0.757-1.626c-9.524,0.146-19.051,0.168-28.576,0.169
				c-14.7,0-29.291-1.401-43.879-2.664c0.293,2.543,0.512,5.099,0.848,7.639c0.359,2.729,0.709,5.512,1.637,8.119
				c0.311,0.873,0.574,1.819,1.097,2.598c0.394,0.586,1.069,1.027,0.604,1.011c4.635,0.793,9.454-0.535,14.105-0.653
				c6.984-0.176,14.123,0.979,21.16,0.98c9.618,0.003,19.453,1.263,29.012-0.261c1.286-0.204,2.945-0.376,4.102-1.126
				c-0.293,0.122,0.336-0.802,0.418-1.231c0.215-1.114,0.406-2.228,0.477-3.363C278.17,331.336,277.924,328.139,277.722,324.942z"/>
		</g>
	</g>
	<g>
		<g>
			<path d="M334.844,109.48c-1.354-14.303-19.205-21.599-31.771-19.157c-17.092,3.319-23.062,24.343-11.703,36.809
				c0.172,0.188,0.346,0.354,0.523,0.508C303.424,143.401,336.867,130.871,334.844,109.48z M323.967,112.459
				c-0.987,10.509-21.835,16.807-24.775,4.723c-0.461-1.891-1.578-2.981-2.92-3.432c-0.369-2.771,0.41-5.705,2.062-8.111
				c2.444-3.562,5.825-4.697,9.966-4.827C314.59,100.613,324.681,104.86,323.967,112.459z"/>
		</g>
	</g>
	<g>
		<g>
			<path d="M419.191,176.182c-0.73-2.168-2.307-3.255-4.031-3.512c-0.203-0.975-0.678-1.938-1.529-2.802
				c-4.453-4.519-10.986,0.551-14.539,3.575c-6.59,5.609-12.424,12.085-17.967,18.709c-4.857,5.803-9.452,11.873-13.601,18.219
				c-0.345-11.586-1.938-22.93-7.965-33.446c-0.073-0.127-0.151-0.241-0.229-0.357c32.44-28.915,40.138-86.227,8.628-118.534
				C355.168,44.916,336.01,37.2,317.9,36.031c-17.066-1.101-33.229,4.658-46.346,15.508c-15.494,12.816-26.107,30.648-32.229,49.621
				c-6.407,19.859-4.259,40.586,5.757,58.465c2.537,7.561,7.416,13.782,13.523,18.839c-18.139-0.166-36.416-0.618-54.514,0.575
				c0.029-0.023,0.059-0.045,0.087-0.068c34.802-28.031,43.861-87.71,11.454-120.938c-12.791-13.117-31.948-20.833-50.058-22.002
				c-17.066-1.101-33.229,4.658-46.346,15.508C103.734,64.355,93.122,82.188,87,101.16c-6.407,19.859-4.258,40.586,5.757,58.465
				c2.128,6.343,5.907,11.741,10.673,16.303c-3.014,1.475-5.797,3.512-7.688,5.377c-8.781,8.661-6.74,22.856-3.934,33.514
				c0.943,3.584,1.705,7.234,2.32,10.924c-4.607-0.784-10.609,0.709-14.553,0.772c-4.17,0.067-5.585,3.89-4.607,7.003
				c-0.17,0.429-0.301,0.901-0.367,1.433c-0.84,6.608,0.743,12.896,0.914,19.474c0.08,3.119,3.033,5.117,5.908,5.062
				c2.474-0.049,10.76-1.867,12.017,0.59c0.755,1.477,1.832,2.26,2.995,2.524c-0.172,6.102-0.852,12.169-0.941,18.264
				c-0.093,6.246-1.289,12.371-0.592,18.631c3.121,28.02,38.453,21.59,57.521,19.991c13.748-1.153,27.382-0.59,40.993,0.431
				c1.169,7.779,0.687,18.444,4.979,25.225c-2.911,5.086-3.518,13.218-4.588,17.698c-2.939,12.312-8.176,24.696-12.771,36.489
				c-10.491,26.926-25.055,52.092-34.965,79.225c-1.477,4.045,0.882,7.944,5.352,7.933c13.845-0.037,27.893-1.041,41.527,1.913
				c2.196,0.477,5.146-0.726,5.977-2.951c8.648-23.215,15.513-47.016,22.421-70.791c3.12-10.74,5.893-21.366,8.164-32.322
				c0.001,0.03,0.003,0.061,0.003,0.09c0.209,10.656,0,21.34,0,32c0,21.874-0.965,43.739-2.914,65.526
				c-0.336,3.737,1.994,6.519,5.822,6.535c6.561,0.028,13.104,0.188,19.656-0.302c6.266-0.471,14.059-1.312,16.318-8.134
				c0.559-1.688,0.293-3.076-0.451-4.108c1.32-0.612,2.305-1.873,2.451-3.892c1.26-17.474-1.822-34.994-1.914-52.474
				c-0.049-9.276-0.723-18.517-1.504-27.752c3.174,6.554,5.584,13.368,8.188,20.19c3.125,8.188,6.374,16.327,9.848,24.374
				c3.262,7.554,7.395,14.684,10.609,22.244c3.516,8.271,5.133,23.055,16.037,24.689c5.623,0.843,11.191-2.152,16.351-3.899
				c3.575-1.21,8.278-0.834,12.011-0.911c3.539-0.072,6.989,0.624,9.516-2.362c0.643-0.761,1.029-1.727,1.178-2.741
				c0.676-1.218,0.932-2.685,0.475-4.227c-0.408-1.379-1.08-2.469-1.91-3.49c-11.23-19.707-19.572-40.91-30.938-60.555
				c-10.869-18.787-19.58-39.33-34.17-55.646c6.145-5.332,4.961-16.169,4.461-24.427c2.965-0.084,5.93-0.179,8.893-0.299
				c14.566-0.593,29.285,0.241,43.291-4.573c0.65-0.224,1.202-0.525,1.664-0.883c6.168-3.758,11.413-8.863,13.488-15.969
				c1.811-6.199,1.104-12.645-0.109-18.888c2.238-0.131,4.324-0.58,6.176-1.392c-0.694,2.769,0.418,6.243,3.914,7.338
				c6.732,2.109,11.818,9.324,16.119,14.492c4.475,5.379,9.393,10.088,14.258,15.084c4.533,4.654,11.275,9.789,17.92,5.899
				c4.283-2.508,5.726-6.526,6.165-10.89c1.222-0.969,2.069-2.449,2.071-4.408c0.025-23.132,0.882-46.254,0.994-69.385
				C423.578,218.343,425.965,196.293,419.191,176.182z M86.002,248.232c-0.477-3.708-1.064-7.422-0.609-11.115
				c0.633-0.066,1.264-0.133,1.895-0.194c1.376-0.134,2.754-0.244,4.135-0.307c0.029-0.001,0.338,0.001,0.633,0.001
				c0.908,0.631,2.033,0.971,3.369,0.868c0.061-0.005,0.122-0.018,0.184-0.024c0.342,3.821,0.562,7.655,0.697,11.475
				C93.157,247.988,89.457,248.045,86.002,248.232z M258.531,162.133c0.045-1.026-0.238-2.121-0.972-3.208
				c-0.853-1.265-1.647-2.55-2.407-3.848c-0.264-0.807-0.645-1.465-1.111-1.98c-5.824-10.767-8.431-22.593-7.116-35.082
				c1.478-14.037,7.37-28.067,15.271-39.672c12.569-18.459,30.681-31.991,53.741-31.485c22.424,0.492,45.726,14.085,55.258,34.609
				c9.203,19.814,6.881,45.436-2.32,64.814c-10.904,22.967-34.826,38.943-60.299,39.233c-10.721,0.122-21.786-3.606-31.293-8.271
				C270.15,173.745,262.984,168.834,258.531,162.133z M102.828,155.077c-0.265-0.807-0.646-1.465-1.112-1.98
				c-5.824-10.767-8.431-22.593-7.116-35.082c1.478-14.037,7.369-28.067,15.271-39.672c12.569-18.459,30.681-31.991,53.741-31.485
				c22.423,0.492,45.726,14.085,55.258,34.609c9.204,19.814,6.882,45.436-2.321,64.814c-10.903,22.967-34.825,38.943-60.297,39.233
				c-10.722,0.122-21.787-3.606-31.294-8.271c-7.133-3.499-14.299-8.41-18.751-15.111c0.045-1.026-0.239-2.121-0.973-3.208
				C104.381,157.66,103.587,156.375,102.828,155.077z M212.072,407.553c-7.801,22.892-13.45,46.404-21.616,69.198
				c-10.35-1.648-20.917-1.492-31.415-1.331c4.025-9.9,8.627-19.551,13.287-29.176c5.848-12.076,11.139-24.273,16.371-36.617
				c5.423-12.799,9.578-26.093,14.229-39.18c1.279-3.604,2.103-7.286,2.936-11.014c0.5-2.24,1.027-4.473,1.639-6.686
				c0.143-0.52,0.307-0.987,0.486-1.46c4.493,0.669,9.503-0.264,13.746-0.649c1.677-0.152,3.381-0.089,5.092,0.044
				C219.474,368.908,218.402,388.975,212.072,407.553z M258.803,473.844c-0.163,0.074-0.441,0.191-0.887,0.345
				c-0.887,0.305-1.789,0.44-2.709,0.586c-3.08,0.486-6.225,0.618-9.336,0.73c-2.643,0.097-5.285,0.094-7.928,0.07
				c1.568-19.366,2.406-38.788,2.531-58.218c0.069-10.633,0.01-21.268,0.01-31.9c0-10.119-2.93-20.339-2.086-30.407
				c0.069-0.827-0.025-1.585-0.238-2.271c0.092-0.23,0.172-0.473,0.238-0.729c0.053-0.205,0.119-0.409,0.188-0.613
				c2.612,0.048,5.227,0.048,7.838,0.049c2.342,0.001,4.713,0.083,7.096,0.179c0.131,21.709,3.673,43.221,3.986,64.924
				c0.246,17.004,3.319,34.39,2.096,51.362c-0.129,1.79,0.486,3.263,1.479,4.347C260.23,472.619,259.442,473.127,258.803,473.844z
				 M243.961,340.515c-7.037-0.002-14.176-1.156-21.16-0.98c-4.651,0.118-9.471,1.446-14.105,0.653
				c0.465,0.017-0.211-0.425-0.604-1.011c-0.522-0.778-0.786-1.725-1.097-2.598c-0.928-2.607-1.277-5.391-1.637-8.119
				c-0.336-2.54-0.555-5.096-0.848-7.639c14.588,1.263,29.179,2.664,43.879,2.664c9.525-0.001,19.052-0.022,28.576-0.169
				c0.17,0.578,0.43,1.125,0.757,1.626c0.202,3.196,0.448,6.394,0.247,9.591c-0.07,1.136-0.262,2.249-0.477,3.363
				c-0.082,0.43-0.711,1.354-0.418,1.231c-1.156,0.75-2.815,0.922-4.102,1.126C263.414,341.777,253.579,340.518,243.961,340.515z
				 M309.225,409.288c10.683,18.105,18.498,37.714,28.512,56.179c-4.271,0.006-8.611,0.21-12.555,1.342
				c-3.805,1.092-8.373,4.172-12.418,3.566c-0.166-0.025-1.222-2.381-1.711-3.62c-0.86-2.184-1.516-4.452-2.246-6.682
				c-1.617-4.935-3.881-9.781-6.25-14.399c-6.822-13.292-12.357-27.114-17.682-41.065c-2.458-6.441-4.627-13.002-7.787-19.144
				c-2.734-5.313-6.316-10.767-6.604-16.889c-0.162-3.467-2.873-5.029-5.559-4.896c-0.221-3.904-0.377-7.812-0.421-11.726
				c3.481-0.027,6.94-0.25,10.337-0.861c-0.042,1.374,0.398,2.796,1.527,4.038C290.573,370.752,298.598,391.28,309.225,409.288z
				 M344.545,233.744c-2.591,0.378-5.045,2.332-5.029,5.68c0.033,7.201,0.44,14.373,1.195,21.534
				c0.379,3.589,0.908,7.16,1.496,10.721c0.069,0.42,0.13,0.851,0.199,1.28c-0.107,1.43,0.43,2.908,1.896,4.115
				c0.275,0.295,0.556,0.584,0.766,0.781c-0.604,0.901-0.861,2.094-0.553,3.568c1.074,5.145,2.143,10.475,1.207,15.717
				c-0.896,5.027-4.88,8.27-8.992,10.811c-14,4.674-29.428,3.45-43.981,3.997c-16.288,0.612-32.778,1.077-49.071,0.499
				c-31.565-1.119-62.757-6.754-94.404-3.726c-10.979,1.051-23.176,3.979-33.947,0.268c-13.098-4.515-9.765-19.737-8.771-30.649
				c1.35-14.828,1.164-29.791-0.434-44.589c-0.758-7.021-2.014-13.967-3.533-20.86c-1.381-6.27-2.98-12.251-1.641-18.687
				c0.678-3.252,2.815-5.438,5.186-7.573c0.531-0.479,1.262-0.844,1.908-1.143c0.427-0.176,0.863-0.326,1.303-0.472
				c1.814,3.095,5.857,2.95,8.257,0.927c7.534,3.998,15.744,6.805,23.339,8.615c15.076,3.595,30.536,1.725,44.434-4.243
				c0.955,0.892,2.312,1.393,4.051,1.17c26.071-3.34,52.713-2.028,78.953-2.003c0.016,0.001,0.031,0.003,0.047,0.003h0.743
				c1.884,0,3.199-0.778,3.991-1.915c6.611,3.146,13.586,5.434,20.106,6.988c19.933,4.752,40.534-0.041,57.309-11.24
				c7.214,12.799,6.356,28.119,6.026,42.523C351.957,226.21,347.117,229.614,344.545,233.744z M412.508,240.037
				c-0.061,19.974-0.725,39.94-0.924,59.912c-1.246,0.967-2.103,2.472-2.068,4.475c0.04,2.391,0.291,4.811,0.113,7.199
				c-0.206,2.777-0.111,3.2-2.373,1.495c-4.227-3.188-8.256-7.61-11.881-11.479c-8.411-8.974-14.947-20.161-27.326-24.038
				c-0.414-0.13-0.809-0.209-1.187-0.247c1.216-1.568,2.126-3.531,2.64-5.954c1.58-7.468-1.609-14.906-1.104-22.351
				c0.476-6.98-10.316-9.165-10.797-2.1c-0.383,5.62,0.582,11.045,1.112,16.62c0.433,4.552,0.918,8.396-4.462,8.039
				c-0.152-0.313-0.336-0.626-0.567-0.935c-0.204-0.272-0.416-0.507-0.634-0.729c-1.488-9.191-2.311-18.46-2.516-27.767
				c1.331-0.329,2.562-1.189,3.393-2.731c0.125-0.215,0.185-0.324,0.205-0.373c0.254-0.328,0.525-0.642,0.803-0.948
				c0.221-0.211,0.343-0.331,0.383-0.377c0.341-0.271,0.701-0.516,1.068-0.751c0.02,0.028,0.044,0.059,0.054,0.077
				c0.701,1.259,1.957,2,3.327,2.271c3.376,2.267,9.245,0.467,8.717-4.77c-0.075-0.754,0.217-2.86,0.754-4.344
				c1.107-3.053,2.674-5.942,4.281-8.755c3.973-6.954,8.842-13.392,13.859-19.617c4.682-5.809,9.661-11.403,14.998-16.619
				c1.824-1.783,3.711-3.478,5.764-4.994c0.108-0.08,0.373-0.244,0.669-0.425C415.229,198.885,412.566,220.271,412.508,240.037z"/>
		</g>
	</g>
	<g>
		<g>
			<path d="M182.518,109.48c-1.353-14.303-19.204-21.599-31.771-19.157c-17.092,3.319-23.062,24.343-11.703,36.809
				c0.172,0.188,0.346,0.354,0.522,0.508C151.098,143.401,184.542,130.871,182.518,109.48z M171.642,112.459
				c-0.987,10.509-21.835,16.807-24.775,4.723c-0.46-1.891-1.578-2.981-2.92-3.432c-0.369-2.771,0.411-5.705,2.062-8.111
				c2.443-3.562,5.825-4.697,9.966-4.827C162.265,100.613,172.355,104.86,171.642,112.459z"/>
		</g>
	</g>
</g>
</svg>
