<?xml version="1.0" encoding="utf-8"?>
<!-- Generator: Adobe Illustrator 16.0.3, SVG Export Plug-In . SVG Version: 6.00 Build 0)  -->
<!DOCTYPE svg PUBLIC "-//W3C//DTD SVG 1.1//EN" "http://www.w3.org/Graphics/SVG/1.1/DTD/svg11.dtd">
<svg version="1.1" id="Layer_1" xmlns="http://www.w3.org/2000/svg" xmlns:xlink="http://www.w3.org/1999/xlink" x="0px" y="0px"
	 width="512px" height="512px" viewBox="0 0 512 512" style="enable-background:new 0 0 512 512;" xml:space="preserve">
<style type="text/css">
<![CDATA[
	.st0{fill:#127274;}
	.st1{fill:#14B6B9;}
	.st2{fill:#EF4823;}
	.st3{fill:#BCBCBC;}
	.st4{fill:#F6851F;}
	.st5{fill:#C0E6ED;}
	.st6{fill:#C56528;}
	.st7{fill:#FCBF95;}
	.st8{fill:#FEBF10;}
	.st9{fill:#FFFFFF;}
	.st10{fill:#9FDADF;}
	.st11{fill:#010101;}
	.st12{fill:#3AB37C;}
	.st13{fill:#D6E5E5;}
	.st14{fill:#71C598;}
	.st15{fill:#74CCCF;}
]]>
</style>
<g>
	<g>
		<g>
			<path class="st1" d="M161.652,268.298c-22.771-0.167-45.464,2.12-68.229,2.188c-0.57,0.002-1.096-0.075-1.584-0.205
				c-4.088,11.843-2.572,25.136-3.191,37.433c-0.764,15.172-2.855,30.117-3.115,45.338c4.666-1.173,10.464-0.497,14.35-0.291
				c10.09,0.533,20.137,1.735,30.15,3.051c26.056,3.424,51.941,3.689,78.156,3.703c0.176-0.386,0.396-0.77,0.678-1.145
				c2.575-3.446,2.467-10.867,2.807-15.156c0.496-6.244,0.562-12.594,1.494-18.795c1.31-8.698,4.098-17.245,5.965-25.842
				c1.887-8.69,3.443-17.42,4.213-26.271C202.744,271.523,182.275,268.449,161.652,268.298z"/>
		</g>
	</g>
	<g>
		<g>
			<path class="st2" d="M438,321.825c-0.161-5.727-0.658-11.427-1.092-17.138c-0.52-6.814-0.965-13.505-2.134-20.264
				c-1.315-7.6-2.741-15.166-3.149-22.863c-11.013,0.282-21.977,1.301-32.952,2.257c-12.614,1.099-25.164,1.239-37.793,1.842
				c-12.001,0.572-23.993,2.135-36.025,1.78c-10.15-0.3-20.286-1.312-30.437-1.172c0.008,0.255,0.006,0.514-0.02,0.782
				c-0.447,4.827,1.639,9.609,3.301,14.028c1.547,4.113,2.46,8.332,3.6,12.571c2.502,9.31,4.768,18.67,7.2,27.995
				c2.001,7.67,3.911,14.939,6.933,22.251c1.35,3.268,3.815,7.854,4.189,11.942c6.555-1.529,13.787-0.875,20.34-1.011
				c12-0.248,24.33-2.149,36.021-4.794c18.186-4.114,36.261-8.103,54.199-13.225c2.031-0.58,3.779-0.058,5.053,1.007
				c0.076-0.72,0.338-1.481,0.838-2.263C438.518,331.735,438.122,326.16,438,321.825z"/>
		</g>
	</g>
	<g>
		<g>
			<path class="st3" d="M225.236,137.938c-4.793-8.747-12.894-15.234-22.949-16.655c-11.855-1.676-20.385,3.965-29.244,11.099
				c-12.408,9.994-23.994,20.957-34.865,32.599c-20.922,22.405-39.461,46.826-57.543,71.537c17.726-0.152,35.432-0.875,53.135-1.688
				c-0.232-1.153-0.088-2.409,0.604-3.66c7.608-13.774,17.422-26.241,24.98-40.002c6.156-11.21,10.459-24.653,20.594-33.079
				c11.4-9.482,24.111-6.234,37.424-3.921c1.834,0.319,10.266,2.329,10.907-0.917C229.24,148.389,227.598,142.247,225.236,137.938z"
				/>
		</g>
	</g>
	<g>
		<g>
			<path class="st3" d="M425.849,206.623c-8.366-9.499-17.2-18.486-25.757-27.803c-10.68-11.631-20.773-23.818-31.848-35.085
				c-9.396-9.562-21.119-23.191-35.494-24.095c-12.012-0.756-22.006,8.526-28.414,17.69c-3.709,5.309-6.627,11.128-9.1,17.104
				c-1.281,3.098-4.055,8.504-2.738,11.927c1.852,4.814,11.973,0.022,14.932-1.174c5.432-2.197,11.693-5.238,17.717-4.917
				c10.156,0.543,19.095,5.263,25.807,12.881c6.848,7.774,11.898,16.644,17.436,25.349c4.98,7.828,10.398,16.041,19.023,20.168
				c4.877,2.334,3.727,8.294,0.203,10.512c7.088-0.567,14.18-1.078,21.262-1.444c11.238-0.58,22.543,0.529,33.762-0.225
				c0.428-0.637,0.998-1.172,1.652-1.598C437.717,219.929,431.738,213.308,425.849,206.623z"/>
		</g>
	</g>
	<g>
		<g>
			<path class="st3" d="M458.453,313.016c-0.611-10.688-1.219-21.304-1.258-32.01c-0.033-9.027-0.252-18.135-1.535-27.083
				c-0.609-4.256-1.354-8.597-3.047-12.58c-0.355-0.838-1.039-2.296-1.441-2.77c-0.205,0.057-0.414,0.111-0.627,0.144
				c-14.086,2.126-28.324,0.002-42.469,1.09c-15.569,1.197-31.136,2.427-46.705,3.616c-31.346,2.395-62.79,2.067-94.199,1.479
				c-32.322-0.606-64.578-1.069-96.891,0.271c-31.436,1.304-62.854,3.299-94.328,3.346c-0.137,0-0.269-0.011-0.402-0.02
				c-0.238,0.531-0.465,1.065-0.668,1.611c-1.098,2.973-2.414,8.895-3.148,13.121c-2.264,13.081-3.386,26.385-4.121,39.631
				c-0.76,13.7-1.166,27.428-1.158,41.15c0.004,5.926-0.162,12.02,0.213,18.01c0.732,0.579,1.281,1.393,1.551,2.442
				c13.838,3.936,27.219,9.857,41.492,12.097c16.102,2.525,32.22,4.344,48.545,4.15c15.939-0.189,31.281-1.83,46.98-4.512
				c5.398-0.924,10.744-1.781,16.189-2.345c3.014-0.312,7.463-0.203,10.193-1.946c-0.909-18.236-0.576-36.644,4.6-54.281
				c2.936-10.002,5.672-24.991,18.414-26.504c15.295-1.815,25.128,11.757,30.643,23.997c3.17,7.037,6.43,14.097,8.649,21.496
				c2.188,7.293,3.988,14.688,5.892,22.057c2.119,1.421,3.438,3.987,2.584,6.505c0.094,0.091,0.186,0.173,0.275,0.273
				c6.953,7.572,18.344,7.835,27.936,7.312c10.791-0.586,21.393-2.538,32.105-3.82c13.834-1.656,27.938-0.43,41.697-2.725
				c14.875-2.481,28.902-9.512,44.119-9.865c0.471-0.012,0.913,0.037,1.34,0.116c0.277-2.488,2.019-4.739,4.184-5.541
				C459.197,339.098,459.191,325.886,458.453,313.016z M234.352,271.648c-0.699,10.413-2.518,20.685-4.828,30.854
				c-1.941,8.55-4.896,17.199-5.793,25.936c-0.705,6.865-0.843,13.778-1.609,20.638c-0.642,5.744-1.44,11.805-4.988,16.555
				c-0.287,0.384-0.594,0.704-0.912,0.974c-0.395,2.114-1.953,3.881-4.797,3.881c-26.775,0-53.371,0.113-79.965-3.411
				c-8.582-1.137-17.176-2.256-25.807-2.973c-4.154-0.345-8.332-0.656-12.506-0.576c-1.699,0.033-3.43,0.062-5.111,0.346
				c-0.078,0.014-0.14,0.022-0.201,0.032c-3.063,2.945-8.377,0.977-9.312-2.657c-2.171-0.353-4.007-1.917-4.007-4.822v-4
				c0-0.273,0.021-0.535,0.053-0.79c0.109-7.381,0.416-14.759,0.991-22.118c0.664-8.487,2.108-16.946,2.257-25.458
				c0.243-13.927-0.415-28.46,5.256-41.505c1.406-3.234,4.547-3.646,7.005-2.445c0.684-0.368,1.511-0.59,2.499-0.593
				c22.762-0.066,45.463-2.499,68.229-2.187c23.321,0.319,46.439,4.084,69.771,4.187
				C236.431,261.541,238.027,269.095,234.352,271.648z M448.967,325.836c-0.184,4.851-0.332,10.382-3.039,14.611
				c-2.078,3.247-6.01,3.245-8.49,1.594c0.192,2.181-0.852,4.359-3.619,5.15c-17.932,5.121-35.979,9.268-54.197,13.225
				c-11.559,2.51-23.43,4.639-35.262,5.256c-4.789,0.25-9.584,0.043-14.375,0.205c-3.412,0.115-7.854-0.117-10.908,1.683
				c-4.434,2.612-8.914-1.503-8.66-5.325c-1.559-1.04-2.486-2.859-1.814-5.284c-0.287,1.032-0.256-0.734-0.61-1.77
				c-0.487-1.425-1-2.839-1.558-4.237c-1.161-2.912-2.396-5.792-3.611-8.681c-3.359-7.982-4.654-17.099-7.014-25.444
				c-2.597-9.186-3.865-18.972-7-28c-2.752-7.925-6.002-15.295-5.207-23.868c0.021-0.229,0.055-0.448,0.096-0.658
				c-2.118-3.112-1.008-8.452,3.879-8.777c12.178-0.81,24.268,0.724,36.432,0.954c12.057,0.229,23.998-1.311,36.025-1.779
				c12.638-0.493,25.18-0.729,37.793-1.843c12.566-1.108,25.125-2.271,37.75-2.332c2.533-0.012,4.265,1.394,5.123,3.199
				c1.049,0.804,1.76,2.082,1.785,3.862c0.145,10.065,2.375,19.807,3.871,29.715c0.944,6.255,1.196,12.498,1.699,18.791
				C448.578,312.635,449.215,319.256,448.967,325.836z"/>
		</g>
	</g>
	<g>
		<g>
			<path d="M470.49,313.844c-0.564-12.182-1.262-24.269-1.367-36.464c-0.09-10.849-0.594-21.84-2.975-32.457
				c-1.012-4.516-2.547-9.202-5.137-12.827c2.17-2.239,2.765-5.806-0.441-8.207c-12.018-8.998-21.725-20.488-31.588-31.699
				c-10.084-11.456-20.953-22.174-31.086-33.597c-10.473-11.802-20.867-23.685-32.578-34.295
				c-10.262-9.299-21.611-17.053-35.988-16.571c-24.709,0.828-40.506,27.82-47.418,48.412c-3.463,10.315-0.508,22.087,11.648,23.895
				c12.705,1.889,23.361-9.987,35.754-7.221c12.422,2.771,19.814,17.249,25.862,27.098c6.974,11.347,14.452,23.532,26.905,29.488
				c0.158,0.075,0.312,0.134,0.469,0.196c-6.668,0.557-13.33,1.148-19.98,1.712c-32.02,2.715-64.226,2.241-96.318,1.65
				c-31.609-0.585-63.148-1.053-94.75,0.183c-7.934,0.311-15.864,0.672-23.795,1.043c-0.018-0.583-0.106-1.167-0.27-1.736
				c7.451-12.66,16.334-24.458,23.398-37.32c5.842-10.639,10.131-26.979,22.893-31.258c5.651-1.896,12.713,0.395,18.307,1.479
				c5.627,1.091,11.471,2.171,17.154,0.893c12.548-2.823,12.262-16.231,9.606-26.248c-5.55-20.938-27.901-34.387-48.944-30.208
				c-12.84,2.549-22.605,11.658-32.24,19.935c-11.912,10.23-23.025,21.337-33.589,32.945c-19.567,21.498-36.994,44.852-54.12,68.304
				c-1.424,1.949-1.51,4.069-0.822,5.868c-4.654,4.058-6.545,12.249-7.773,17.483c-3.135,13.376-4.18,27.314-5.121,40.985
				c-1.044,15.236-1.563,30.511-1.664,45.782c-0.062,9.293-0.506,19.002,0.842,28.234c0.482,3.314,3.605,6.26,7.046,5.475
				c0.597,0.445,1.304,0.804,2.14,1.031c14.385,3.938,28.137,9.877,42.877,12.491c17.055,3.024,34.439,4.407,51.752,4.338
				c17.334-0.069,33.973-2.337,51.023-5.196c4.922-0.826,9.688-1.378,14.701-1.934c4.576-0.507,10.314-1.024,14.012-4.079
				c0.744-0.615,1.289-1.311,1.66-2.048c1.893-0.945,3.295-2.82,3.141-5.557c-0.885-15.619-0.984-31.235,2.309-46.604
				c1.188-5.54,2.906-11.084,4.602-16.491c0.93-2.954,2.494-7.39,6.023-7.808c11.066-1.313,16.871,14.934,20.139,22.628
				c5.799,13.66,9.162,27.699,13.014,42.006c0.592,2.188,1.883,3.37,3.393,3.804c0.205,1.064,0.699,2.118,1.574,3.072
				c15.291,16.659,44.662,9.826,64.096,7.076c14.123-1.999,28.365-1.354,42.523-2.834c14.568-1.521,28.223-8.238,42.643-9.979
				c1.288,0.761,2.92,1.004,4.766,0.357c0.823-0.287,5.59-2.284,2.18-1.09c1.895-0.663,3.027-1.923,3.555-3.371
				c2.607,0.753,5.842-0.221,7.453-2.883C470.701,347.303,471.25,330.223,470.49,313.844z M368.389,198.5
				c-5.537-8.705-10.588-17.574-17.436-25.349c-6.712-7.618-15.65-12.338-25.807-12.881c-6.023-0.321-12.285,2.72-17.717,4.917
				c-2.959,1.196-13.08,5.988-14.932,1.174c-1.316-3.423,1.457-8.829,2.738-11.927c2.473-5.976,5.391-11.795,9.1-17.104
				c6.408-9.164,16.402-18.446,28.414-17.69c14.375,0.903,26.098,14.532,35.494,24.095c11.074,11.267,21.168,23.454,31.848,35.085
				c8.557,9.316,17.391,18.304,25.757,27.803c5.89,6.685,11.868,13.306,18.442,19.29c-0.654,0.426-1.225,0.961-1.652,1.598
				c-11.219,0.754-22.523-0.355-33.762,0.225c-7.082,0.366-14.174,0.877-21.262,1.444c3.523-2.218,4.674-8.178-0.203-10.512
				C378.787,214.541,373.369,206.328,368.389,198.5z M138.178,164.979c10.871-11.642,22.457-22.604,34.865-32.599
				c8.859-7.134,17.389-12.774,29.244-11.099c10.056,1.421,18.156,7.908,22.949,16.655c2.361,4.31,4.004,10.451,3.042,15.312
				c-0.642,3.246-9.073,1.236-10.907,0.917c-13.312-2.313-26.023-5.562-37.424,3.921c-10.135,8.426-14.438,21.869-20.594,33.079
				c-7.559,13.761-17.372,26.228-24.98,40.002c-0.691,1.251-0.836,2.507-0.604,3.66c-17.703,0.812-35.409,1.535-53.135,1.688
				C98.717,211.806,117.256,187.385,138.178,164.979z M454.057,350.929c-2.165,0.802-3.906,3.053-4.184,5.541
				c-0.427-0.079-0.869-0.128-1.34-0.116c-15.217,0.354-29.244,7.384-44.119,9.865c-13.76,2.295-27.863,1.068-41.697,2.725
				c-10.713,1.282-21.314,3.234-32.105,3.82c-9.592,0.522-20.982,0.26-27.936-7.312c-0.09-0.101-0.182-0.183-0.275-0.273
				c0.854-2.518-0.465-5.084-2.584-6.505c-1.903-7.369-3.703-14.764-5.892-22.057c-2.22-7.399-5.479-14.459-8.649-21.496
				c-5.515-12.24-15.348-25.812-30.643-23.997c-12.742,1.513-15.479,16.502-18.414,26.504c-5.176,17.638-5.509,36.045-4.6,54.281
				c-2.73,1.743-7.18,1.634-10.193,1.946c-5.445,0.563-10.791,1.421-16.189,2.345c-15.699,2.682-31.041,4.322-46.98,4.512
				c-16.325,0.193-32.443-1.625-48.545-4.15c-14.273-2.239-27.654-8.161-41.492-12.097c-0.27-1.05-0.818-1.863-1.551-2.442
				c-0.375-5.99-0.209-12.084-0.213-18.01c-0.008-13.723,0.398-27.45,1.158-41.15c0.735-13.246,1.857-26.55,4.121-39.631
				c0.734-4.227,2.051-10.148,3.148-13.121c0.203-0.546,0.43-1.08,0.668-1.611c0.134,0.009,0.266,0.02,0.402,0.02
				c31.475-0.047,62.893-2.042,94.328-3.346c32.312-1.34,64.568-0.877,96.891-0.271c31.409,0.589,62.854,0.916,94.199-1.479
				c15.569-1.189,31.136-2.419,46.705-3.616c14.145-1.088,28.383,1.036,42.469-1.09c0.213-0.032,0.422-0.087,0.627-0.144
				c0.402,0.474,1.086,1.932,1.441,2.77c1.693,3.983,2.438,8.324,3.047,12.58c1.283,8.948,1.502,18.056,1.535,27.083
				c0.039,10.706,0.646,21.321,1.258,32.01C459.191,325.886,459.197,339.098,454.057,350.929z"/>
		</g>
	</g>
	<g>
		<g>
			<path d="M230.576,261.515c-23.331-0.103-46.449-3.867-69.771-4.187c-22.767-0.312-45.468,2.12-68.229,2.187
				c-0.988,0.003-1.815,0.225-2.499,0.593c-2.458-1.2-5.599-0.789-7.005,2.445c-5.671,13.045-5.013,27.578-5.256,41.505
				c-0.148,8.512-1.593,16.971-2.257,25.458c-0.575,7.359-0.882,14.737-0.991,22.118c-0.031,0.255-0.053,0.517-0.053,0.79v4
				c0,2.905,1.836,4.47,4.007,4.822c0.935,3.634,6.248,5.603,9.312,2.657c0.062-0.01,0.123-0.019,0.201-0.032
				c1.682-0.283,3.412-0.312,5.111-0.346c4.174-0.08,8.352,0.231,12.506,0.576c8.631,0.717,17.225,1.836,25.807,2.973
				c26.594,3.524,53.189,3.411,79.965,3.411c2.844,0,4.402-1.767,4.797-3.881c0.318-0.27,0.625-0.59,0.912-0.974
				c3.548-4.75,4.347-10.811,4.988-16.555c0.767-6.859,0.904-13.772,1.609-20.638c0.897-8.736,3.852-17.386,5.793-25.936
				c2.311-10.17,4.129-20.441,4.828-30.854C238.027,269.095,236.431,261.541,230.576,261.515z M219.133,298.576
				c-1.867,8.597-4.655,17.144-5.965,25.842c-0.932,6.201-0.998,12.551-1.494,18.795c-0.34,4.289-0.231,11.71-2.807,15.156
				c-0.281,0.375-0.502,0.759-0.678,1.145c-26.215-0.014-52.101-0.279-78.156-3.703c-10.014-1.315-20.061-2.518-30.15-3.051
				c-3.886-0.206-9.684-0.882-14.35,0.291c0.26-15.221,2.352-30.166,3.115-45.338c0.619-12.297-0.896-25.59,3.191-37.433
				c0.488,0.13,1.014,0.207,1.584,0.205c22.765-0.067,45.457-2.354,68.229-2.188c20.623,0.151,41.092,3.226,61.693,4.007
				C222.576,281.156,221.02,289.886,219.133,298.576z"/>
		</g>
	</g>
	<g>
		<g>
			<path d="M448.055,306.082c-0.503-6.293-0.755-12.536-1.699-18.791c-1.496-9.908-3.727-19.649-3.871-29.715
				c-0.025-1.78-0.736-3.059-1.785-3.862c-0.858-1.806-2.59-3.211-5.123-3.199c-12.625,0.061-25.184,1.224-37.75,2.332
				c-12.613,1.113-25.155,1.35-37.793,1.843c-12.027,0.469-23.969,2.008-36.025,1.779c-12.164-0.23-24.254-1.764-36.432-0.954
				c-4.887,0.325-5.997,5.665-3.879,8.777c-0.041,0.21-0.074,0.429-0.096,0.658c-0.795,8.573,2.455,15.943,5.207,23.868
				c3.135,9.028,4.403,18.814,7,28c2.359,8.346,3.654,17.462,7.014,25.444c1.216,2.889,2.45,5.769,3.611,8.681
				c0.558,1.398,1.07,2.812,1.558,4.237c0.354,1.035,0.323,2.802,0.61,1.77c-0.672,2.425,0.256,4.244,1.814,5.284
				c-0.254,3.822,4.227,7.938,8.66,5.325c3.055-1.8,7.496-1.567,10.908-1.683c4.791-0.162,9.586,0.045,14.375-0.205
				c11.832-0.617,23.703-2.746,35.262-5.256c18.219-3.957,36.266-8.104,54.197-13.225c2.768-0.791,3.812-2.97,3.619-5.15
				c2.48,1.651,6.412,1.653,8.49-1.594c2.707-4.229,2.855-9.761,3.039-14.611C449.215,319.256,448.578,312.635,448.055,306.082z
				 M436.072,335.553c-0.5,0.781-0.762,1.543-0.838,2.263c-1.273-1.064-3.021-1.587-5.053-1.007
				c-17.938,5.122-36.014,9.11-54.199,13.225c-11.691,2.645-24.021,4.546-36.021,4.794c-6.553,0.136-13.785-0.519-20.34,1.011
				c-0.374-4.088-2.84-8.675-4.189-11.942c-3.021-7.312-4.932-14.581-6.933-22.251c-2.433-9.325-4.698-18.686-7.2-27.995
				c-1.14-4.239-2.053-8.458-3.6-12.571c-1.662-4.419-3.748-9.201-3.301-14.028c0.025-0.269,0.027-0.527,0.02-0.782
				c10.15-0.141,20.286,0.872,30.437,1.172c12.032,0.354,24.024-1.208,36.025-1.78c12.629-0.603,25.179-0.743,37.793-1.842
				c10.976-0.956,21.939-1.975,32.952-2.257c0.408,7.697,1.834,15.264,3.149,22.863c1.169,6.759,1.614,13.449,2.134,20.264
				c0.434,5.711,0.931,11.411,1.092,17.138C438.122,326.16,438.518,331.735,436.072,335.553z"/>
		</g>
	</g>
</g>
</svg>
