<?xml version="1.0" encoding="utf-8"?>
<!-- Generator: Adobe Illustrator 16.0.3, SVG Export Plug-In . SVG Version: 6.00 Build 0)  -->
<!DOCTYPE svg PUBLIC "-//W3C//DTD SVG 1.1//EN" "http://www.w3.org/Graphics/SVG/1.1/DTD/svg11.dtd">
<svg version="1.1" id="Layer_1" xmlns="http://www.w3.org/2000/svg" xmlns:xlink="http://www.w3.org/1999/xlink" x="0px" y="0px"
	 width="512px" height="512px" viewBox="0 0 512 512" style="enable-background:new 0 0 512 512;" xml:space="preserve">
<style type="text/css">
<![CDATA[
	.st0{fill:#127274;}
	.st1{fill:#14B6B9;}
	.st2{fill:#EF4823;}
	.st3{fill:#BCBCBC;}
	.st4{fill:#F6851F;}
	.st5{fill:#C0E6ED;}
	.st6{fill:#C56528;}
	.st7{fill:#FCBF95;}
	.st8{fill:#FEBF10;}
	.st9{fill:#FFFFFF;}
	.st10{fill:#9FDADF;}
	.st11{fill:#010101;}
	.st12{fill:#3AB37C;}
	.st13{fill:#D6E5E5;}
	.st14{fill:#71C598;}
	.st15{fill:#74CCCF;}
]]>
</style>
<g>
	<g>
		<g>
			<path class="st2" d="M314.41,356.223c-2.314-6.972-4.82-13.875-7.434-20.741c-2.253-5.923-4.037-12.302-7.043-17.896
				c-4.157-7.739-9.592-14.576-15.062-21.394c-0.885,2.89-1.334,5.962-1.781,8.85c-0.818,5.285-1.852,10.472-2.944,15.706
				c-2.853,13.664-5.033,27.4-7.481,41.133c-4.587,25.736-9.221,51.492-16.072,76.734c0.439-0.012,0.88-0.018,1.319-0.031
				c28.396-0.84,56.825-3.891,84.587-10.027C330.68,405.434,322.566,380.803,314.41,356.223z"/>
		</g>
	</g>
	<g>
		<g>
			<path class="st12" d="M421.433,299.599c0-13.565,0.779-27.396-0.142-40.931c-0.483-7.109-1.797-15-0.486-22.229
				c-3.127,2.641-6.175,4.898-8.599,6.588c-7.942,5.533-16.185,10.173-24.696,14.176c0.657,0.558,1.216,1.272,1.6,2.152
				c4.611,10.568,7.953,21.59,10.985,32.698c2.862,10.485,5.08,21.462,9.312,31.501c3.466,8.225,8.225,15.388,13.933,22.197
				c0.63,0.752,1.308,1.548,1.986,2.377C422.964,332.083,421.433,315.953,421.433,299.599z"/>
		</g>
	</g>
	<g>
		<g>
			<path class="st12" d="M345.039,272.395c-18.275,5.065-36.861,8.996-55.602,11.932c7.227,9.213,15.002,18.023,20.339,28.532
				c5.764,11.349,9.767,24.159,13.839,36.21c7.271,21.522,14.045,43.342,23.51,64.029c2.643-8.693,4.549-17.617,6.729-26.437
				c3.437-13.899,7.173-27.735,10.784-41.591c3.771-14.465,7.048-28.658,8.634-43.555c1.433-13.459,2.446-26.97,5.038-40.27
				C367.602,265.648,356.499,269.219,345.039,272.395z"/>
		</g>
	</g>
	<g>
		<g>
			<path class="st12" d="M256.602,288.465c-20.869,2.013-41.87,3.229-62.852,3.115c0.134,0.244,0.255,0.5,0.359,0.775
				c9.271,24.43,13.644,50.598,24.395,74.484c5.865,13.03,13.248,25.084,20.88,37.134c3.63,5.731,7.243,11.354,9.455,17.819
				c0.151,0.441,0.294,0.885,0.44,1.326c5.643-22.681,10.041-45.812,13.506-68.826c2.139-14.207,5.116-28.223,7.995-42.289
				c1.804-8.812,2.216-18.089,6.653-25.938C270.504,286.993,263.558,287.795,256.602,288.465z"/>
		</g>
	</g>
	<g>
		<g>
			<path class="st2" d="M237.836,423.743c-2.646-6.638-6.863-12.475-10.663-18.493c-7.356-11.654-14.333-23.598-19.724-36.312
				c-8.181-19.294-12.77-39.781-19.129-59.688c-5.832,17.805-5.334,37.439-8.734,55.8c-4.645,25.079-12.74,49.37-23.289,72.567
				c1.857,0.167,3.713,0.318,5.563,0.436c16.128,1.023,32.299,0.953,48.45,0.799c10.82-0.104,21.652,0.023,32.479-0.032
				C241.104,433.805,239.798,428.666,237.836,423.743z"/>
		</g>
	</g>
	<g>
		<g>
			<path class="st2" d="M434.962,387.146c-0.606-0.188-1.18-0.459-1.675-0.84c-1.682-1.293-2.749-2.284-3.561-4.313
				c-0.8-1.999-0.401-3.718,0.609-4.967c-0.788-4.056-1.545-8.112-2.269-12.171c-3.526,2.449-9.366-0.961-8.505-5.733
				c-0.078-0.177-0.195-0.411-0.418-0.755c-0.385-0.618-0.791-1.221-1.22-1.811c-0.946-1.274-1.921-2.523-2.94-3.74
				c-1.924-2.297-3.935-4.528-5.664-6.979c-5.304-7.51-9.963-15.988-12.594-24.845c-3.696-12.442-6.718-25.122-10.549-37.528
				c-0.883,7.982-1.578,15.988-2.537,23.97c-1.784,14.843-5.426,28.993-9.164,43.431c-3.556,13.734-7.327,27.431-10.633,41.228
				c-2.717,11.341-5.344,22.741-9.473,33.657c18.602-4.664,37.305-10.297,54.791-18.199c7.304-3.3,14.789-7.029,20.895-12.304
				c1.782-1.538,4.361-4.261,4.786-6.081C435.017,388.418,435.07,387.773,434.962,387.146z"/>
		</g>
	</g>
	<g>
		<g>
			<path class="st2" d="M121.703,363.342c-3.861-14.146-7.081-28.647-12.782-42.21c-4.126-9.817-9.954-18.763-14.847-28.196
				c1.145,4.775,2.426,9.533,3.366,14.34c2.406,12.292,4.498,24.493,4.847,37.047c0.707,25.442,0.116,50.977,0.116,76.429
				c0,0.646-0.094,1.239-0.261,1.78c5.672,6.625,17.856,9.084,25.321,10.676c5.729,1.221,11.568,2.264,17.437,3.093
				C133.674,413.273,128.416,387.93,121.703,363.342z"/>
		</g>
	</g>
	<g>
		<g>
			<path class="st12" d="M166.176,290.623c-15.297-1.012-30.593-2.637-45.634-5.662c-6.989-1.405-14.14-2.961-21.181-4.874
				c0.709,0.542,1.316,1.288,1.748,2.269c5.315,12.09,13.315,22.838,18.195,35.139c5.444,13.728,8.844,28.014,12.782,42.21
				c5.823,20.992,10.184,42.96,18.655,63.165c8.537-20.409,15.098-41.652,18.674-63.516c3.73-22.807,2.784-46.912,14.575-67.627
				c0.06-0.104,0.131-0.193,0.195-0.293C178.178,291.281,172.174,291.02,166.176,290.623z"/>
		</g>
	</g>
	<g>
		<g>
			<path class="st4" d="M410.743,198.948c-5.471-1.536-11.035-2.606-16.605-3.704c-8.32-1.641-16.487-3.691-24.882-5.02
				c-7.4-1.172-14.732-0.367-21.908-2.502c-0.682,12.978-7.703,25.088-22.084,27.615c-15.889,2.791-33.169-7.744-37.043-23.189
				c-0.549,0.258-1.173,0.438-1.879,0.511c-10.346,1.071-21.109,2.142-31.505,1.925c-4.015-0.084-8.051-0.193-12.063,0.037
				c-2.034,0.116-5.434,0.025-6.78,1.113c-2.472,1.996-5.057,1.264-6.672-0.549c-3.833,4.597-8.832,8.191-14.712,10.125
				c-12.055,3.963-24.162,1.979-35.815-2.02c-6.668,3.916-16.333,2.854-23.558,3.053c-12.537,0.346-25.465,1.58-37.798,3.865
				c-12.106,2.244-25.573,3.369-36.574,9.359c-4.327,2.355-7.571,4.139-9.834,8.016c-0.277,0.475-0.551,0.953-0.82,1.434
				c7.686,0.847,15.284,2.279,22.821,4.017c14.854,3.423,29.736,8.092,44.937,9.741c16.347,1.773,32.76,2.535,49.196,2.768
				c31.275,0.441,62.642,0.351,93.874-1.504c15.508-0.922,31.005-2.223,46.409-4.256c13.348-1.763,27.104-3.434,40.043-7.268
				c9.591-2.842,19.227-6.33,27.932-11.311c8.064-4.612,16.428-10.311,19.569-19.479c0.165-0.479,0.372-0.893,0.606-1.257
				C413.934,199.85,412.244,199.369,410.743,198.948z"/>
		</g>
	</g>
	<g>
		<g>
			<path class="st8" d="M394.437,425.131c-28.479,9.605-57.491,16.857-87.341,20.674c-31.313,4.004-62.528,3.697-94.02,3.998
				c-25.467,0.243-50.898,0.234-76.117-3.686c-16.217-2.52-39.685-6.217-47.232-23.124c-1.191-2.669-0.133-4.842,1.726-6.032
				c0.019-4.416,0.062-8.838,0.11-13.264c-4.525,0.99-8.602,8.232-10.109,11.738c-2.319,5.396-3.643,11.395-2.446,17.254
				c2.155,10.557,13.354,18.473,22.345,23.191c20.471,10.744,44.49,13.494,67.306,13.928c59.581,1.131,120.147-3.423,177.929-18.551
				c24.321-6.367,50.261-13.011,71.277-27.387c8.254-5.646,17.554-13.512,21.812-22.553
				C428.108,413.105,404.311,421.801,394.437,425.131z"/>
		</g>
	</g>
	<g>
		<g>
			<path class="st8" d="M91.471,277.768c0.062,0.922,0.155,1.839,0.26,2.754c0.973-0.889,2.312-1.439,3.699-1.543
				C94.104,278.588,92.783,278.188,91.471,277.768z"/>
		</g>
	</g>
	<g>
		<g>
			<path class="st8" d="M423.965,208.831c-3.387,7.642-10.109,13.693-16.978,18.186c-18.772,12.278-40.423,17.783-62.294,21.329
				c-30.61,4.965-61.615,7.113-92.596,7.895c-31.492,0.795-63.222,1.119-94.675-0.842c-15.849-0.988-31.175-3.047-46.618-6.773
				c-14.619-3.529-29.194-7.473-44.197-8.975c-0.035,0.807-0.01,1.625,0.066,2.422c0.15,1.578,0.322,3.176,0.76,4.707
				c1.369,4.795,3.865,8.719,7.897,11.724c8.341,6.218,19.497,8.812,29.37,11.462c25.784,6.92,52.369,9.693,78.994,10.6
				c29.916,1.019,60.441-1.242,90.095-5.109c29.862-3.896,59.517-10.008,88.052-19.744c16.299-5.562,30.104-11.838,44.213-21.804
				c6.26-4.421,12.709-9.242,17.287-15.483c0.885-1.208,1.678-2.507,2.239-3.901c0.153-0.378,0.517-2.182,0.524-1.978
				C426.043,210.903,425.523,210.08,423.965,208.831z"/>
		</g>
	</g>
	<g>
		<g>
			<path class="st8" d="M404.18,68.016c-6.918-3.143-14.759,2.309-19.895,6.447c-8.947,7.211-16.164,16.512-22.376,26.119
				c-6.22,9.618-11.849,19.6-17.965,29.283c-6.913,10.947-13.89,21.867-19.1,33.756c-0.691,1.579-2.718,3.109-4.503,3.038
				c-10.327-0.411-21.395,6.79-20.938,18.092c0.048,1.192-0.228,2.203-0.713,3.034c1.944,10.811,13.238,18.777,24.495,16.799
				c10.751-1.889,14.432-12.611,13.179-22.255c-4.41-1.549-5.085-8.169-1.256-10.096c-0.421-0.705-0.676-1.575-0.676-2.636v-2
				c0-2.607,1.499-4.369,3.387-5.199c12.669-18.632,29.743-33.426,46.49-48.36c7.79-6.946,16.003-14.618,20.229-24.374
				C406.622,84.853,411.14,71.18,404.18,68.016z"/>
		</g>
	</g>
	<g>
		<g>
			<path class="st8" d="M225.296,168.33c-4.491-11.375-16.28-13.629-26.688-9.479c-10.783,4.301-20.192,11.295-32.324,7.211
				c-11.998-4.039-23.316-10.379-35.072-15.144c-12.367-5.013-24.991-9.589-38.046-12.472c-12.179-2.689-24.996-4.414-37.384-2.035
				c-6.225,1.196-25.508,7.133-14.47,15.095c8.753,6.313,20.987,7.476,31.369,8.81c12.562,1.613,24.997,3.808,37.502,5.818
				c8.021,1.289,16.056,2.523,24.12,3.521c6.553,0.812,13.441,0.904,19.836,2.648c10.106,2.756,18.105,8.379,25.33,15.546
				c2.547,0.021,4.935,1.593,4.935,4.9v0.911c10.595,3.433,23.215,5.184,32.552-1.801C223.895,186.67,228.69,176.926,225.296,168.33
				z"/>
		</g>
	</g>
	<g>
		<g>
			<path d="M446.478,372.099c-1.7-2.327-4.222-2.69-6.331-1.919c-4.107-21.638-7.448-43.424-7.735-65.5
				c-0.177-13.684-0.008-27.381-0.008-41.064c0-4.889-0.46-9.728-0.821-14.599c-0.349-4.677-0.919-10.071,1.263-14.396
				c1.653-3.277-0.181-6.156-2.777-7.309c6.753-8.045,10.558-17.315,3.046-25.028c-0.063-0.715-0.262-1.45-0.636-2.186
				c-5.348-10.526-21.995-12.843-32.272-14.88c-7.259-1.439-14.391-3.38-21.693-4.605c-4.504-0.756-9.006-1.615-13.573-1.842
				c-4.797-0.238-9.997,0.195-14.573-1.524c-1.385-0.521-2.695-0.491-3.843-0.106c-0.126-0.598-0.261-1.193-0.413-1.785
				c-0.312-1.214-1.107-2.111-2.106-2.717c0.313-0.307,0.605-0.637,0.842-1.018c14.28-22.959,36.343-38.545,55.193-57.322
				c8.524-8.491,15.487-18.704,17.792-30.675c1.857-9.649,0.591-20.349-8.757-25.462c-7.655-4.188-17.387-1.346-24.44,2.6
				c-10.704,5.988-19.363,16.236-26.483,25.99c-7.437,10.188-13.61,21.218-20.158,31.975c-7.444,12.229-15.548,24.035-21.638,37.01
				c-13.873,0.951-26.061,11.746-27.739,25.525c-0.185,0.238-0.347,0.496-0.493,0.768c-0.748-0.306-1.622-0.443-2.627-0.34
				c-11.143,1.154-22.553,2.09-33.75,1.88c-4.516-0.085-10.883-0.689-16.134,0.485c0.376-1.07,0.716-2.156,0.991-3.263
				c2.781-11.179-2.044-21.722-10.441-28.944c-10.442-8.982-23.899-6.736-35.459-1.572c-5.842,2.609-11.317,6.73-18.02,5.988
				c-6.719-0.743-12.955-4.969-19.018-7.67c-11.608-5.174-23.334-10.082-35.35-14.236c-23.312-8.057-49.324-14.128-73.563-6.467
				c-13.603,4.301-24.748,18.239-12.464,30.416c10.426,10.334,28.635,11.6,42.329,13.318c18.635,2.34,37.061,6.141,55.689,8.588
				c8.845,1.161,18.24,1.078,26.581,4.553c5.303,2.209,9.783,5.836,13.865,9.84c-2.938,0.729-6.306,0.592-9.055,0.668
				c-5.994,0.165-11.894,0.385-17.877,0.83c-16.215,1.207-32.416,3.538-48.299,7.051c-11.859,2.623-26.382,7.096-33.312,17.885
				c-2.246,3.496-4.491,7.404-5.391,11.506c-0.097,0.441-0.14,0.859-0.157,1.266c-1.797,4.967-0.693,11.854,0.389,16.606
				c2.58,11.328,12.681,18.761,22.771,23.067c0.189,0.082,0.386,0.151,0.576,0.231c-0.329,10.949,3.085,21.599,5.57,32.157
				c2.89,12.275,4.707,24.842,5.281,37.439c0.75,16.451,0.627,33.003,0.437,49.535c-10.441,1.159-17.601,11.121-21.254,20.553
				c-4.455,11.499-3.727,24.433,3.765,34.472c13.858,18.571,39.277,26.466,61.066,30.069c24.606,4.068,49.955,3.063,74.782,2.455
				c31.184-0.763,62.323-3.541,93.09-8.707c21.383-3.59,42.561-8.457,63.364-14.566c16.839-4.945,33.767-10.284,49.118-18.925
				C438.27,425.449,466.228,399.129,446.478,372.099z M430.336,377.026c-1.011,1.249-1.409,2.968-0.609,4.967
				c0.812,2.029,1.879,3.021,3.561,4.313c0.495,0.381,1.068,0.651,1.675,0.84c0.108,0.627,0.055,1.271-0.119,2.02
				c-0.425,1.82-3.004,4.543-4.786,6.081c-6.105,5.274-13.591,9.004-20.895,12.304c-17.486,7.902-36.189,13.535-54.791,18.199
				c4.129-10.916,6.756-22.316,9.473-33.657c3.306-13.797,7.077-27.493,10.633-41.228c3.738-14.438,7.38-28.588,9.164-43.431
				c0.959-7.981,1.654-15.987,2.537-23.97c3.831,12.406,6.853,25.086,10.549,37.528c2.631,8.856,7.29,17.335,12.594,24.845
				c1.729,2.45,3.74,4.682,5.664,6.979c1.02,1.217,1.994,2.466,2.94,3.74c0.429,0.59,0.835,1.192,1.22,1.811
				c0.223,0.344,0.34,0.578,0.418,0.755c-0.861,4.772,4.979,8.183,8.505,5.733C428.791,368.914,429.548,372.971,430.336,377.026z
				 M102.287,344.322c-0.349-12.554-2.44-24.755-4.847-37.047c-0.94-4.807-2.222-9.564-3.366-14.34
				c4.893,9.434,10.721,18.379,14.847,28.196c5.701,13.562,8.921,28.063,12.782,42.21c6.713,24.588,11.971,49.932,23.197,72.958
				c-5.868-0.829-11.708-1.872-17.437-3.093c-7.465-1.592-19.649-4.051-25.321-10.676c0.167-0.541,0.261-1.135,0.261-1.78
				C102.403,395.299,102.994,369.765,102.287,344.322z M132.087,359.704c-3.938-14.196-7.338-28.482-12.782-42.21
				c-4.88-12.301-12.88-23.049-18.195-35.139c-0.432-0.98-1.039-1.727-1.748-2.269c7.041,1.913,14.191,3.469,21.181,4.874
				c15.041,3.025,30.337,4.65,45.634,5.662c5.998,0.396,12.002,0.658,18.011,0.811c-0.064,0.1-0.136,0.189-0.195,0.293
				c-11.791,20.715-10.845,44.82-14.575,67.627c-3.576,21.863-10.137,43.106-18.674,63.516
				C142.271,402.664,137.91,380.696,132.087,359.704z M179.586,365.05c3.4-18.36,2.902-37.995,8.734-55.8
				c6.359,19.907,10.948,40.395,19.129,59.688c5.391,12.714,12.367,24.657,19.724,36.312c3.8,6.019,8.018,11.855,10.663,18.493
				c1.962,4.923,3.268,10.062,4.953,15.076c-10.826,0.056-21.658-0.071-32.479,0.032c-16.151,0.154-32.322,0.225-48.45-0.799
				c-1.851-0.117-3.706-0.269-5.563-0.436C166.846,414.42,174.941,390.129,179.586,365.05z M239.384,403.974
				c-7.632-12.05-15.015-24.104-20.88-37.134c-10.751-23.887-15.124-50.055-24.395-74.484c-0.104-0.275-0.226-0.531-0.359-0.775
				c20.981,0.113,41.982-1.103,62.852-3.115c6.956-0.67,13.902-1.472,20.832-2.398c-4.438,7.849-4.85,17.125-6.653,25.938
				c-2.879,14.066-5.856,28.082-7.995,42.289c-3.465,23.015-7.863,46.146-13.506,68.826c-0.146-0.441-0.289-0.885-0.44-1.326
				C246.627,415.328,243.014,409.705,239.384,403.974z M272.664,361.881c2.448-13.732,4.629-27.469,7.481-41.133
				c1.093-5.234,2.126-10.421,2.944-15.706c0.447-2.888,0.896-5.96,1.781-8.85c5.471,6.817,10.905,13.654,15.062,21.394
				c3.006,5.594,4.79,11.973,7.043,17.896c2.613,6.866,5.119,13.77,7.434,20.741c8.156,24.58,16.27,49.211,28.088,72.334
				c-27.762,6.137-56.19,9.188-84.587,10.027c-0.439,0.014-0.88,0.02-1.319,0.031C263.443,413.373,268.077,387.617,272.664,361.881z
				 M323.615,349.068c-4.072-12.051-8.075-24.861-13.839-36.21c-5.337-10.509-13.112-19.319-20.339-28.532
				c18.74-2.936,37.326-6.866,55.602-11.932c11.46-3.176,22.562-6.746,33.271-11.148c-2.592,13.3-3.605,26.811-5.038,40.27
				c-1.586,14.896-4.862,29.09-8.634,43.555c-3.611,13.855-7.348,27.691-10.784,41.591c-2.181,8.819-4.087,17.743-6.729,26.437
				C337.66,392.41,330.887,370.591,323.615,349.068z M421.291,258.668c0.921,13.535,0.142,27.365,0.142,40.931
				c0,16.354,1.531,32.484,3.893,48.53c-0.679-0.829-1.356-1.625-1.986-2.377c-5.708-6.81-10.467-13.973-13.933-22.197
				c-4.231-10.039-6.449-21.016-9.312-31.501c-3.032-11.108-6.374-22.13-10.985-32.698c-0.384-0.88-0.942-1.595-1.6-2.152
				c8.512-4.003,16.754-8.643,24.696-14.176c2.424-1.689,5.472-3.947,8.599-6.588C419.494,243.668,420.808,251.559,421.291,258.668z
				 M320.342,166.659c1.785,0.071,3.812-1.459,4.503-3.038c5.21-11.889,12.187-22.809,19.1-33.756
				c6.116-9.684,11.745-19.665,17.965-29.283c6.212-9.607,13.429-18.908,22.376-26.119c5.136-4.139,12.977-9.59,19.895-6.447
				c6.96,3.164,2.442,16.837,0.358,21.648c-4.226,9.756-12.438,17.428-20.229,24.374c-16.747,14.935-33.821,29.729-46.49,48.36
				c-1.888,0.83-3.387,2.592-3.387,5.199v2c0,1.061,0.255,1.931,0.676,2.636c-3.829,1.927-3.154,8.547,1.256,10.096
				c1.253,9.644-2.428,20.366-13.179,22.255c-11.257,1.979-22.551-5.988-24.495-16.799c0.485-0.831,0.761-1.842,0.713-3.034
				C298.947,173.449,310.015,166.248,320.342,166.659z M154.139,172.305c-6.395-1.744-13.283-1.836-19.836-2.648
				c-8.064-0.998-16.099-2.232-24.12-3.521c-12.505-2.011-24.939-4.205-37.502-5.818c-10.382-1.334-22.616-2.496-31.369-8.81
				c-11.038-7.962,8.245-13.898,14.47-15.095c12.388-2.379,25.205-0.654,37.384,2.035c13.055,2.883,25.679,7.459,38.046,12.472
				c11.756,4.765,23.074,11.104,35.072,15.144c12.132,4.084,21.541-2.91,32.324-7.211c10.408-4.15,22.197-1.896,26.688,9.479
				c3.395,8.596-1.401,18.34-8.341,23.531c-9.337,6.984-21.957,5.233-32.552,1.801v-0.911c0-3.308-2.388-4.88-4.935-4.9
				C172.244,180.684,164.245,175.061,154.139,172.305z M71.03,227.584c2.263-3.877,5.507-5.66,9.834-8.016
				c11.001-5.99,24.468-7.115,36.574-9.359c12.333-2.285,25.261-3.52,37.798-3.865c7.225-0.199,16.89,0.863,23.558-3.053
				c11.653,3.999,23.761,5.982,35.815,2.02c5.88-1.934,10.879-5.528,14.712-10.125c1.615,1.812,4.2,2.545,6.672,0.549
				c1.347-1.088,4.746-0.997,6.78-1.113c4.013-0.23,8.049-0.121,12.063-0.037c10.396,0.217,21.159-0.854,31.505-1.925
				c0.706-0.073,1.33-0.253,1.879-0.511c3.874,15.445,21.154,25.98,37.043,23.189c14.381-2.527,21.402-14.638,22.084-27.615
				c7.176,2.135,14.508,1.33,21.908,2.502c8.395,1.328,16.562,3.379,24.882,5.02c5.57,1.098,11.135,2.168,16.605,3.704
				c1.501,0.421,3.19,0.901,4.854,1.521c-0.234,0.364-0.441,0.777-0.606,1.257c-3.142,9.168-11.505,14.866-19.569,19.479
				c-8.705,4.98-18.341,8.469-27.932,11.311c-12.938,3.834-26.695,5.505-40.043,7.268c-15.404,2.033-30.901,3.334-46.409,4.256
				c-31.232,1.854-62.599,1.945-93.874,1.504c-16.437-0.232-32.85-0.994-49.196-2.768c-15.2-1.649-30.082-6.318-44.937-9.741
				c-7.537-1.737-15.136-3.17-22.821-4.017C70.479,228.537,70.753,228.059,71.03,227.584z M75.331,258.503
				c-4.032-3.005-6.528-6.929-7.897-11.724c-0.438-1.531-0.609-3.129-0.76-4.707c-0.076-0.797-0.102-1.615-0.066-2.422
				c15.003,1.502,29.578,5.445,44.197,8.975c15.443,3.727,30.77,5.785,46.618,6.773c31.453,1.961,63.183,1.637,94.675,0.842
				c30.98-0.781,61.985-2.93,92.596-7.895c21.871-3.546,43.521-9.051,62.294-21.329c6.868-4.492,13.591-10.544,16.978-18.186
				c1.559,1.249,2.078,2.072,2.141,3.714c-0.008-0.204-0.371,1.6-0.524,1.978c-0.562,1.395-1.354,2.693-2.239,3.901
				c-4.578,6.241-11.027,11.062-17.287,15.483c-14.108,9.966-27.914,16.242-44.213,21.804
				c-28.535,9.736-58.189,15.848-88.052,19.744c-29.653,3.867-60.179,6.128-90.095,5.109c-26.625-0.906-53.21-3.68-78.994-10.6
				C94.828,267.315,83.672,264.721,75.331,258.503z M91.73,280.521c-0.104-0.915-0.197-1.832-0.26-2.754
				c1.312,0.42,2.634,0.82,3.959,1.211C94.043,279.082,92.703,279.633,91.73,280.521z M417.863,423.871
				c-21.017,14.376-46.956,21.02-71.277,27.387c-57.781,15.128-118.348,19.682-177.929,18.551
				c-22.815-0.434-46.835-3.184-67.306-13.928c-8.991-4.719-20.189-12.635-22.345-23.191c-1.196-5.859,0.127-11.857,2.446-17.254
				c1.508-3.506,5.584-10.748,10.109-11.738c-0.049,4.426-0.092,8.848-0.11,13.264c-1.858,1.19-2.917,3.363-1.726,6.032
				c7.548,16.907,31.016,20.604,47.232,23.124c25.219,3.92,50.65,3.929,76.117,3.686c31.491-0.301,62.706,0.006,94.02-3.998
				c29.85-3.816,58.862-11.068,87.341-20.674c9.874-3.33,33.672-12.025,45.239-23.812
				C435.417,410.359,426.117,418.225,417.863,423.871z"/>
		</g>
	</g>
</g>
</svg>
