<?xml version="1.0" encoding="utf-8"?>
<!-- Generator: Adobe Illustrator 16.0.3, SVG Export Plug-In . SVG Version: 6.00 Build 0)  -->
<!DOCTYPE svg PUBLIC "-//W3C//DTD SVG 1.1//EN" "http://www.w3.org/Graphics/SVG/1.1/DTD/svg11.dtd">
<svg version="1.1" id="Layer_1" xmlns="http://www.w3.org/2000/svg" xmlns:xlink="http://www.w3.org/1999/xlink" x="0px" y="0px"
	 width="512px" height="512px" viewBox="0 0 512 512" style="enable-background:new 0 0 512 512;" xml:space="preserve">
<style type="text/css">
<![CDATA[
	.st0{fill:#127274;}
	.st1{fill:#14B6B9;}
	.st2{fill:#EF4823;}
	.st3{fill:#BCBCBC;}
	.st4{fill:#F6851F;}
	.st5{fill:#C0E6ED;}
	.st6{fill:#C56528;}
	.st7{fill:#FCBF95;}
	.st8{fill:#FEBF10;}
	.st9{fill:#FFFFFF;}
	.st10{fill:#9FDADF;}
	.st11{fill:#010101;}
	.st12{fill:#3AB37C;}
	.st13{fill:#D6E5E5;}
	.st14{fill:#71C598;}
	.st15{fill:#74CCCF;}
]]>
</style>
<g>
	<g>
		<g>
			<path class="st1" d="M398.477,214.248c-6.449,1.219-8.521-4.02-8.061-9.631c0.283-3.459-0.484-7.07-0.636-10.545
				c-0.185-4.281-0.257-8.562-0.263-12.848c-0.023-17.6-0.003-35.201-0.003-52.801c0-16.982-0.248-33.986,0.092-50.967
				c0.236-11.813,1.111-25.242-3.39-36.536c-11.748,4.614-22.879,10.622-33.764,17.005c-12.351,7.244-24.99,14.362-36.878,22.346
				c-11.198,7.52-21.857,16.013-33.776,22.407c-9.024,4.842-19.99,8.856-26.667,16.952c-0.387,0.469-0.802,0.838-1.233,1.129
				c-0.058,1.166-0.078,2.333-0.063,3.5c0.042,3.341,0.2,6.676,0.374,10.011c0.111,0.585,0.145,1.18,0.092,1.759
				c0.003,0.066,0.006,0.132,0.01,0.197c0.586,11.113,0.123,22.285,0.437,33.412c0.397,14.072,1.249,28.087,1.176,42.174
				c-0.071,13.589-0.42,27.175-0.438,40.764c-0.002,1.416-0.45,2.58-1.157,3.484c-0.111,3.072-2.481,6.117-6.378,5.338
				c-12.399-2.476-26.991,3.476-35.323,12.766c-5.152,5.746-10.047,16.268-4.997,23.49c3.811,5.451,11.627,7.024,18.175,7.438
				c8.75,0.551,17.884-0.93,26.225-3.527c6.396-1.992,12.851-4.52,18.199-8.652c8.357-6.459,9.986-15.626,6.365-25.495
				c-4.991-13.604-7.535-27.46-7.946-41.964c-0.334-11.767-1.167-23.201-2.381-34.91c-1.116-10.762-2.172-22.445,0.867-33.003
				c3.289-11.423,10.37-19.536,20.267-25.975c11.461-7.456,24.327-12.039,36.553-18.011c14.055-6.865,26.958-16.053,40.972-23.114
				c5.687-2.866,11.353,4.393,7.561,8.126v0.01c-0.837,20.885,4.882,41.24,6,62c1.058,19.634,2.991,39.324,2,59
				c-0.196,3.89-2.665,6.062-6.535,5.822c-14.276-0.881-29.104,11.594-33.639,24.544c-4.236,12.101,4.285,28.77,18.47,27.589
				c14.076-1.17,26.386-13.1,34.373-23.873c3.924-5.291,7.452-11.078,8.664-17.631C403.098,229.107,403.998,219.652,398.477,214.248
				z"/>
		</g>
	</g>
	<g>
		<g>
			<path class="st2" d="M363.178,342.358c-9.922,0.525-19.938,0.843-29.923,1.003c-2.091,2.129-5.947,2.844-8.485,0.093
				c-1.114,0.008-2.233,0.026-3.346,0.03c-2.516,0.01-4.746-1.87-5.637-4.086c-0.219-0.069-0.437-0.125-0.656-0.221
				c-0.192-0.084-0.385-0.168-0.578-0.25c-1.723-0.746-2.91-2.674-3.038-4.504c-0.677-9.746-0.335-19.494-0.562-29.25
				c-0.229-9.853-1.06-19.685-1.364-29.537c-0.612-19.783-0.539-39.586-1.359-59.362c-0.774-18.692-2.298-37.358-3.474-56.03
				c-0.339-5.391-1.576-10.697-1.768-16.14c-0.093-2.638-0.302-6.126,0.411-9.139c-6.654,3.261-13.236,7.091-18.271,12.294
				c-5.624,5.812-8.068,13.136-8.707,21.105c-1.356,16.901,2.846,33.951,3.084,50.869c0.156,11.072,0.763,22.342,3.653,33.084
				c2.434,9.047,7.059,17.549,6.481,27.164c-1.052,17.527-18.111,27.525-33.094,32.191c-14.242,4.436-31.009,6.861-45.362,1.586
				c-14.717-5.408-19.876-20.842-14.109-35.031c7.127-17.537,28.505-29.368,47.467-28.313c0.001-0.015,0.001-0.031,0.002-0.046
				c0.081-14.346,0.489-28.689,0.413-43.033c-0.078-14.584-1.127-29.123-1.33-43.702c-0.104-7.525-0.107-15.034-0.274-22.546
				c-19.853,0.515-39.856,2.899-59.589,4.66c-14.707,1.312-29.27,2.186-44.02,2.228c-0.042,0.847-0.04,1.698-0.002,2.543
				c0.117,2.572,0.342,5.136,0.643,7.692c0.54,4.594,1.087,9.182,1.581,13.779c2.024,18.826,3.309,37.793,5.001,56.658
				c1.671,18.622,3.062,37.268,4.339,55.92c1.264,18.449,1.492,37.201,4.182,55.508c0.44,3.001-2.235,5.649-5.062,5.908
				c-11.447,1.052-22.664,3.776-34.105,4.826c-8.985,0.826-17.938,0.488-26.918,0.285c1.672,4.76,5.227,9.057,8.535,12.59
				c4.953,5.29,10.363,10.1,15.836,14.838c12.906,11.176,24.989,23.268,37.789,34.581c15.215,13.447,30.056,27.286,45.516,40.46
				c7.29,6.212,14.5,12.3,21.073,19.285c4.59,4.877,9.144,9.769,14.155,14.178c8.223-14.066,19.901-25.812,31.477-37.181
				c13.64-13.396,25.672-27.991,38.529-42.101c13.842-15.189,29.686-28.582,46.432-40.471c8.062-5.724,15.205-11.22,21.958-18.487
				c2.503-2.692,5.015-5.401,7.635-7.991C373.224,341.104,368.115,342.097,363.178,342.358z"/>
		</g>
	</g>
	<g>
		<g>
			<path d="M330.457,245.049c-7.076,18.16,4.053,41.635,24.703,43.373c18.705,1.573,35.713-13.683,46.259-27.502
				c11.134-14.588,19.728-40.258,4.212-55.053c-1.393-1.328-2.938-1.684-4.349-1.408c0.086-0.713,0.184-1.407,0.203-1.883
				c0.174-4.224-0.731-8.744-0.875-13c-0.272-8.062-0.125-16.146-0.125-24.211v-48.932c0-15.266-0.023-30.525,0.197-45.789
				c0.197-13.602-0.505-27.529-7.123-39.721c-0.871-1.604-2.809-2.424-4.634-2.409c-0.608,0.005-1.204,0.103-1.744,0.294
				c-13.184,4.684-25.6,11.227-37.717,18.164c-12.975,7.428-25.979,15.082-38.54,23.189c-11.865,7.66-22.869,16.576-35.276,23.396
				c-8.571,4.712-18.196,8.582-25.448,15.307c-1.462-0.119-3,0.299-4.332,1.504c-4.31,3.897-3.4,13.156-2.944,19.242
				c-19.365,0.498-38.822,2.887-58.093,4.5c-15.724,1.316-31.263,2.404-47.042,2.404c-0.274,0-0.533,0.021-0.784,0.054
				c-1.265-0.292-2.681-0.089-4.08,0.871c-7.873,5.398-3.467,20.996-2.584,28.708c2.095,18.299,3.182,36.74,4.935,55.08
				c1.903,19.912,3.402,39.862,4.791,59.817c1.25,17.966,1.535,36.222,3.746,54.124c-9.469,1.227-18.84,3.15-28.341,4.171
				c-9.098,0.978-18.228,0.532-27.353,0.292c-1.556-2.197-4.432-3.317-7.194-1.192c-1.596,1.228-3.071,2.161-3.852,4.112
				c-0.835,2.086-0.542,4.116,0.528,5.603c1.656,13.567,13.352,24.223,22.93,32.88c12.774,11.547,25.265,23.402,38.133,34.847
				c16.097,14.315,31.909,28.952,48.26,42.978c7.791,6.682,15.708,13.104,22.809,20.534c6.602,6.909,12.946,13.997,20.637,19.739
				c2.797,2.088,6.907,1.701,8.558-1.686c7.767-15.938,20.629-28.553,33.119-40.838c13.626-13.403,25.75-27.922,38.528-42.102
				c13.162-14.604,28.376-27.165,44.319-38.613c7.378-5.297,14.378-10.221,20.72-16.781c6.238-6.453,11.92-13.547,19.462-18.554
				c0.553-0.366,1.026-0.862,1.415-1.424c4.867-1.675,5.668-9.853-0.44-10.534c-10.244-1.145-20.839,1.629-31.013,2.582
				c-6.575,0.616-13.232,0.383-19.828,0.613c-5.797,0.202-11.589,0.456-17.385,0.602c-1.38-0.537-2.827-0.766-4.342-0.661
				l0.003-0.161c0.027-1.553-0.478-2.722-1.286-3.527c-0.275-7.252-0.178-14.512-0.246-21.771
				c-0.087-9.185-0.904-18.354-1.258-27.53c-0.738-19.119-0.691-38.26-1.283-57.384c-0.543-17.541-1.957-35.049-3.087-52.561
				c-0.433-6.7-0.974-12.672-1.784-18.838c-0.341-2.598-0.531-5.213-0.623-7.832c-0.042-1.201-0.026-2.389,0.102-3.584
				c0.042-0.336,0.121-0.664,0.189-0.995c2.634-2.473,1.687-5.563-0.557-7.323c8.709-3.882,17.494-7.584,25.593-12.67
				c7.258-4.559,14.665-8.876,22.203-12.953c0.146,18.496,4.685,36.666,5.969,55.097c1.271,18.238,2.788,36.711,2.308,55.03
				C352.568,216.438,336.695,229.039,330.457,245.049z M314.553,338.928c0.193,0.082,0.386,0.166,0.578,0.25
				c0.22,0.096,0.438,0.151,0.656,0.221c0.891,2.216,3.121,4.096,5.637,4.086c1.112-0.004,2.231-0.022,3.346-0.03
				c2.538,2.751,6.395,2.036,8.485-0.093c9.984-0.16,20.001-0.478,29.923-1.003c4.938-0.262,10.046-1.255,15.157-2.062
				c-2.62,2.59-5.132,5.299-7.635,7.991c-6.753,7.268-13.896,12.764-21.958,18.487c-16.746,11.889-32.59,25.281-46.432,40.471
				c-12.857,14.109-24.89,28.705-38.529,42.101c-11.575,11.368-23.254,23.114-31.477,37.181c-5.012-4.409-9.565-9.301-14.155-14.178
				c-6.573-6.985-13.783-13.073-21.073-19.285c-15.46-13.174-30.301-27.013-45.516-40.46c-12.8-11.313-24.883-23.405-37.789-34.581
				c-5.473-4.738-10.883-9.548-15.836-14.838c-3.309-3.533-6.863-7.83-8.535-12.59c8.98,0.203,17.933,0.541,26.918-0.285
				c11.441-1.05,22.658-3.774,34.105-4.826c2.826-0.259,5.502-2.907,5.062-5.908c-2.689-18.307-2.918-37.059-4.182-55.508
				c-1.277-18.652-2.668-37.298-4.339-55.92c-1.692-18.865-2.977-37.832-5.001-56.658c-0.494-4.598-1.041-9.186-1.581-13.779
				c-0.301-2.557-0.525-5.12-0.643-7.692c-0.038-0.845-0.04-1.696,0.002-2.543c14.75-0.042,29.312-0.915,44.02-2.228
				c19.732-1.761,39.736-4.146,59.589-4.66c0.167,7.512,0.17,15.021,0.274,22.546c0.203,14.579,1.252,29.118,1.33,43.702
				c0.076,14.344-0.332,28.688-0.413,43.033c-0.001,0.015-0.001,0.031-0.002,0.046c-18.962-1.055-40.34,10.776-47.467,28.313
				c-5.767,14.189-0.607,29.623,14.109,35.031c14.354,5.275,31.12,2.85,45.362-1.586c14.982-4.666,32.042-14.664,33.094-32.191
				c0.577-9.615-4.048-18.117-6.481-27.164c-2.891-10.742-3.497-22.012-3.653-33.084c-0.238-16.918-4.44-33.968-3.084-50.869
				c0.639-7.97,3.083-15.293,8.707-21.105c5.035-5.203,11.617-9.033,18.271-12.294c-0.713,3.013-0.504,6.501-0.411,9.139
				c0.191,5.442,1.429,10.749,1.768,16.14c1.176,18.672,2.699,37.338,3.474,56.03c0.82,19.776,0.747,39.579,1.359,59.362
				c0.305,9.853,1.135,19.685,1.364,29.537c0.228,9.756-0.114,19.504,0.562,29.25C311.643,336.254,312.83,338.182,314.553,338.928z
				 M378.485,160.576c-1.118-20.76-6.837-41.115-6-62v-0.01c3.792-3.733-1.874-10.992-7.561-8.126
				c-14.014,7.062-26.917,16.249-40.972,23.114c-12.226,5.972-25.092,10.555-36.553,18.011
				c-9.896,6.438-16.978,14.552-20.267,25.975c-3.039,10.558-1.983,22.241-0.867,33.003c1.214,11.709,2.047,23.144,2.381,34.91
				c0.411,14.504,2.955,28.359,7.946,41.964c3.621,9.869,1.992,19.036-6.365,25.495c-5.349,4.133-11.803,6.66-18.199,8.652
				c-8.341,2.598-17.475,4.078-26.225,3.527c-6.548-0.413-14.364-1.986-18.175-7.438c-5.05-7.223-0.155-17.744,4.997-23.49
				c8.332-9.29,22.924-15.241,35.323-12.766c3.896,0.779,6.267-2.266,6.378-5.338c0.707-0.904,1.155-2.068,1.157-3.484
				c0.018-13.589,0.366-27.175,0.438-40.764c0.073-14.087-0.778-28.102-1.176-42.174c-0.313-11.127,0.149-22.299-0.437-33.412
				c-0.004-0.065-0.007-0.131-0.01-0.197c0.053-0.579,0.02-1.174-0.092-1.759c-0.174-3.335-0.332-6.67-0.374-10.011
				c-0.015-1.167,0.006-2.334,0.063-3.5c0.432-0.291,0.847-0.66,1.233-1.129c6.677-8.096,17.643-12.11,26.667-16.952
				c11.919-6.395,22.578-14.888,33.776-22.407c11.888-7.983,24.527-15.102,36.878-22.346c10.885-6.383,22.016-12.391,33.764-17.005
				c4.501,11.294,3.626,24.723,3.39,36.536c-0.34,16.98-0.092,33.984-0.092,50.967c0,17.6-0.021,35.201,0.003,52.801
				c0.006,4.285,0.078,8.566,0.263,12.848c0.151,3.475,0.919,7.086,0.636,10.545c-0.461,5.611,1.611,10.85,8.061,9.631
				c5.521,5.404,4.621,14.859,3.342,21.779c-1.212,6.553-4.74,12.34-8.664,17.631c-7.987,10.773-20.297,22.703-34.373,23.873
				c-14.185,1.181-22.706-15.488-18.47-27.589c4.534-12.95,19.362-25.425,33.639-24.544c3.87,0.24,6.339-1.933,6.535-5.822
				C381.477,199.9,379.543,180.21,378.485,160.576z"/>
		</g>
	</g>
</g>
</svg>
