<?xml version="1.0" encoding="utf-8"?>
<!-- Generator: Adobe Illustrator 16.0.3, SVG Export Plug-In . SVG Version: 6.00 Build 0)  -->
<!DOCTYPE svg PUBLIC "-//W3C//DTD SVG 1.1//EN" "http://www.w3.org/Graphics/SVG/1.1/DTD/svg11.dtd">
<svg version="1.1" id="Layer_1" xmlns="http://www.w3.org/2000/svg" xmlns:xlink="http://www.w3.org/1999/xlink" x="0px" y="0px"
	 width="512px" height="512px" viewBox="0 0 512 512" style="enable-background:new 0 0 512 512;" xml:space="preserve">
<style type="text/css">
<![CDATA[
	.st0{fill:#127274;}
	.st1{fill:#14B6B9;}
	.st2{fill:#EF4823;}
	.st3{fill:#BCBCBC;}
	.st4{fill:#F6851F;}
	.st5{fill:#C0E6ED;}
	.st6{fill:#C56528;}
	.st7{fill:#FCBF95;}
	.st8{fill:#FEBF10;}
	.st9{fill:#FFFFFF;}
	.st10{fill:#9FDADF;}
	.st11{fill:#010101;}
	.st12{fill:#3AB37C;}
	.st13{fill:#D6E5E5;}
	.st14{fill:#71C598;}
	.st15{fill:#74CCCF;}
]]>
</style>
<g>
	<g>
		<g>
			<path class="st1" d="M288.73,127.75c-1.433-19.554-1.759-38.769-0.974-58.349c0.378-9.451,0.697-19.019-0.414-28.436
				c-0.718-6.076-0.794-12.642-7.914-13.839c-5.769-0.972-11.62-0.116-17.412,0.202c-7.976,0.438-16.303-1.045-24.028,1.281
				c0.272,24.418,5.314,48.443,6.36,72.805c1.01,23.533,2.612,47.033,4.233,70.531c0.864,0.808,1.417,2.004,1.387,3.619
				c-0.018,1.046-0.031,2.066-0.221,3.052c13.167-3.337,27.007-4.173,39.374-0.333c1.318,0.41,2.611,0.859,3.885,1.343
				C289.878,162.629,289.991,144.909,288.73,127.75z"/>
		</g>
	</g>
	<g>
		<g>
			<path class="st1" d="M190.209,470.73c2.632-0.222,3.63-1.146,3.897-2.137C193.306,469.741,192.018,470.578,190.209,470.73z"/>
		</g>
	</g>
	<g>
		<g>
			<path class="st1" d="M269.774,218.247c-2.222,1.064-4.39,2.244-6.522,3.474c-2.306,1.327-4.603,2.681-6.823,4.146
				c-0.744,0.492-1.489,0.987-2.213,1.511c-1.139,4.152-0.931,8.821-0.355,13.391c2.696-1.801,5.602-3.223,8.604-4.666
				c2.796-1.344,5.903-2.742,8.243-4.875C270.229,226.917,269.906,222.593,269.774,218.247z"/>
		</g>
	</g>
	<g>
		<g>
			<path class="st1" d="M337.421,257.722c-2.316-20.449-13.891-42.389-29.195-56.084c-8.214-7.352-18.016-12.861-29.088-14.269
				c-11.093-1.409-23.079,0.696-33.674,4.062c-20.946,6.655-41.519,20.303-47.58,42.607c-0.653,2.402-2.425,3.697-4.361,4.068
				c-9.528,20.262-6.592,45.805,6.161,64.1c9.514,13.65,23.81,23.296,40.078,26.894c29.865,6.604,64.625-3.889,84.231-27.858
				C334.011,288.995,339.216,273.567,337.421,257.722z M295.581,279.429c-2.283,8.901-9.639,26.95-21.847,18.879
				c-8.553-5.656-4.729-21.055,3.816-25.377c-0.761-9.711-3.268-19.212-4.979-28.834c-0.049-0.271-0.09-0.542-0.138-0.812
				c-0.285,0.157-0.566,0.322-0.854,0.473c-4.285,2.225-9.681,3.916-13.265,7.254c-0.85,0.792-1.787,1.25-2.736,1.449
				c0.996,9.367-0.183,19.381,3.796,28.102c0.398,0.871,0.467,1.79,0.302,2.673c0.561,0.784,0.925,1.714,0.992,2.722
				c0.061,0.924,0.003,1.906-0.142,2.918c0.242,0.8,0.283,1.668,0.055,2.555c-0.988,3.845-3.029,7.418-5.826,9.962
				c-5.472,6.921-13.77,11.305-20.714,5.356c-6.334-5.427-5.174-15.86-0.264-21.704c3.261-3.882,7.873-6.974,12.862-8.136
				c-1.85-8.58-1.16-17.773-2.393-26.404c-1.17-8.195-2.614-17.134-0.722-25.349c-0.318-1.361,0.01-2.85,1.309-4.184
				c0.138-0.347,0.267-0.695,0.421-1.038c1-2.231,2.827-3.11,4.673-3.04c3.176-2.177,6.615-4.043,9.931-5.831
				c3.713-2.002,9.816-6.3,14.372-5.08c1.523,0.406,2.598,1.266,3.28,2.328c1.777,0.592,3.157,2.098,3.157,4.609
				c0,4.373,0.194,8.735,0.554,13.085c2.081,1.366,3.326,3.94,1.889,6.823c-0.296,0.59-0.617,1.156-0.961,1.706
				c0.473,3.513,1.043,7.015,1.728,10.497c1.786,9.107,4.03,18.205,4.686,27.453c0.858,0.065,1.745,0.221,2.668,0.498
				C293.964,273.802,296.381,276.313,295.581,279.429z"/>
		</g>
	</g>
	<g>
		<g>
			<path class="st3" d="M468.534,287.523c-0.388-2.063-1.822-3.996-2.979-5.68c-0.412-0.602-0.679-1.205-0.835-1.8
				c-0.053-0.067-0.112-0.129-0.165-0.2c-7.451-10.035-13.853-20.992-22.038-30.463c-7.177-8.305-15.381-15.861-20.243-25.875
				c-5.257-10.82-4-24.359-1.558-35.787c2.464-11.531,1.372-23.318,1.846-35.02c-0.47-0.684-0.806-1.515-0.933-2.508
				c-1.258-9.857-5.284-19.205-10.373-27.676c-12.793-21.288-29.834-41.201-50.824-54.768
				c-18.672-12.068-39.63-19.887-61.561-23.411c0.163,3.403,0.173,6.775,0.176,9.947c0.01,10.489-0.796,20.945-1.014,31.428
				c-0.221,10.604,0.273,21.207,0.997,31.783c0.769,11.214,1.646,22.419,2.318,33.639c0.622,10.368,0.918,20.889,3.327,31.035
				c0.274,1.158,0.201,2.223-0.111,3.164c14.322,8.834,25.161,22.592,32.905,37.798c8.624,16.936,14.078,36.058,9.81,55.058
				c-3.632,16.164-12.913,30.147-25.5,40.771c-25.518,21.537-63.467,29.481-95.002,17.664
				c-41.186-15.436-63.52-67.663-41.221-107.083c0.792-1.399,1.918-2.224,3.141-2.596c6.023-16.542,18.674-29.7,34.297-37.945
				c5.087-2.685,10.647-5.166,16.469-7.242c-0.841-0.921-1.38-2.151-1.462-3.347c-1.753-25.368-3.571-50.739-4.624-76.148
				c-0.792-19.143-4.095-38.071-5.608-57.148c-21.347,3.547-42.312,9.771-62.284,17.812c-12.48,10.681-26.811,19.563-37.43,32.254
				c-11.58,13.84-19.914,31.021-25.29,48.176c-8.339,26.615-13.541,56.199-8.139,83.894c5.474,28.065,20.45,53.302,34.139,78.01
				c7.78,14.041,15.765,27.968,23.897,41.807c7.76,13.206,16.193,26.13,23.43,39.629c11.97,22.332,21.25,48.313,16.593,73.814
				c2.282,1.459,2.989,4.691,1.942,7.139c0.133,0.178,0.253,0.363,0.39,0.539c0.783,0.985,1.583,1.947,2.444,2.865
				c1.918,2.045,3.582,3.744,6.093,5.072c7.483,3.959,15.577,6.348,23.931,7.639c13.176,2.038,26.706,1.664,40.004,2.581
				c13.444,0.927,27.133,1.874,40.558,0.181c11.147-1.406,22.515-4.641,29.098-14.412c0.429-0.636,0.908-1.108,1.417-1.453
				c0.01-0.346,0.019-0.812-0.06-1.115c-0.377-1.451-0.785-2.893-1.202-4.334c-0.895-3.08-1.841-6.184-2.369-9.355
				c-1.016-6.12-0.2-13.35,1.037-19.387c1.459-7.133,4.008-15.102,10.575-19.104c5.72-3.486,11.945-5.311,18.5-5.879
				c1.058-0.838,2.45-1.311,4.122-1.117c11.628,1.344,23.545,1.054,35.242,1.299c4.332,0.092,10.07,0.484,13.889-2.02
				c4.822-3.161,6.157-8.309,6.697-13.762c0.598-6.033,0.9-12.844,4.274-18.125c2.058-3.221,4.491-5.982,6.96-8.888
				c2.481-2.917,5.162-5.95,6.639-9.536c1.441-3.5,0.021-4.998-3.198-6.643c-1.467-0.75-2.322-1.859-2.703-3.081
				c-2.206-2.902-1.136-8.534,3.728-9.331c11.956-1.961,2.551-11.998-2.18-16.42c-6.336-5.923-8.842-12.521-6.796-21.145
				c0.02-0.089,0.049-0.17,0.074-0.256c0.247-1.203,0.948-2.355,2.249-3.255c6.827-4.723,17.079-4.206,24.939-5.845
				c3.069-0.639,7.667-1.817,9.242-3.762C468.728,288.976,468.836,289.131,468.534,287.523z"/>
		</g>
	</g>
	<g>
		<g>
			<path d="M474.675,275.691c-0.02-0.028-0.042-0.052-0.061-0.08c-0.164-0.634-0.464-1.279-0.939-1.92c-6.839-9.211-13-18.903-20-28
				c-6.441-8.371-14.518-15.258-20.115-24.305c-6.088-9.84-3.935-22.723-1.649-33.42c2.536-11.873,0.805-24.145,1.604-36.15
				c0.104-1.549-0.349-2.861-1.12-3.889c-3.865-25.98-22.314-49.574-40.069-67.969C376.438,63.5,356.692,50.883,335.36,42.744
				c-12.299-4.692-24.987-7.845-37.861-9.725c-0.465-2.122-1.065-4.179-1.855-6.118c-2.591-6.36-8.662-9.656-15.146-10.746
				c-6.351-1.068-12.957-0.199-19.326,0.204c-9.646,0.61-19.229-1.105-28.503,2.438c-2.5,0.955-3.537,3.033-3.505,5.113
				c-1.279,0.967-2.174,2.479-2.161,4.501c0.01,1.928,0.06,3.853,0.128,5.775c-8.995,1.445-17.908,3.321-26.67,5.565
				c-12.624,3.23-25.009,7.377-37.116,12.193c-1.062-0.058-2.198,0.305-3.304,1.263c-0.051,0.044-0.104,0.087-0.155,0.131
				c-0.195,0.081-0.393,0.157-0.588,0.237c-1.47,0.605-2.422,1.604-2.948,2.753c-8.782,7.269-18.049,13.935-26.597,21.495
				c-10.29,9.102-18.071,20.238-24.7,32.199c-13.756,24.82-20.104,53.333-23.012,81.336c-2.859,27.521,4.258,54.279,15.915,79.016
				c13.131,27.856,29.058,54.617,44.607,81.17c19.411,33.146,48.853,71.262,38.154,112.174c-0.729,2.787,0.619,4.783,2.595,5.713
				c0.432,1.438,1.121,2.861,2.002,4.125c4.551,6.539,10.242,11.108,17.428,14.446c17.427,8.095,36.107,7.451,54.768,8.606
				c16.299,1.01,32.648,2.638,48.971,1.147c14.41-1.315,30.404-5.728,38.93-18.382c0.644-0.956,0.955-1.953,1.014-2.925
				c1.395-0.621,2.569-1.803,3.091-3.634c1.097-3.843-1.116-8.779-2.171-12.414c-1.466-5.055-1.905-9.366-1.524-14.639
				c0.418-5.779,1.278-12.478,4.642-17.374c3.647-5.31,13.353-6.04,19.079-6.138c0.952-0.016,1.755-0.232,2.425-0.586
				c12.339,1.117,25.098,1.183,37.391,0.986c14.33-0.229,24.24-8.932,26.263-23.15c0.944-6.642,0.577-13.441,5.051-18.921
				c3.182-3.896,6.606-7.523,9.404-11.726c4.973-7.471,5.62-15.346,0.746-21.188c6.521-4.508,8.95-12.381,4.331-21.137
				c-2.298-4.355-5.782-7.65-9.375-10.933c-2.882-2.633-3.965-4.842-3.709-8.073c0.532-0.17,1.125-0.34,1.832-0.516
				c2.127-0.531,4.523-0.817,6.773-1.156c5.622-0.848,11.324-1.64,16.738-3.43c4.614-1.525,9.48-4.432,11.288-9.187
				C481.063,287.014,478.206,280.838,474.675,275.691z M308.226,201.638c15.305,13.695,26.879,35.635,29.195,56.084
				c1.795,15.846-3.41,31.273-13.428,43.52c-19.606,23.97-54.366,34.463-84.231,27.858c-16.269-3.598-30.564-13.243-40.078-26.894
				c-12.753-18.295-15.689-43.838-6.161-64.1c1.937-0.371,3.708-1.666,4.361-4.068c6.062-22.305,26.634-35.952,47.58-42.607
				c10.595-3.365,22.581-5.471,33.674-4.062C290.21,188.776,300.012,194.286,308.226,201.638z M262.017,27.329
				c5.792-0.318,11.644-1.174,17.412-0.202c7.12,1.197,7.196,7.763,7.914,13.839c1.111,9.417,0.792,18.984,0.414,28.436
				c-0.785,19.58-0.459,38.795,0.974,58.349c1.261,17.159,1.147,34.879,4.276,51.877c-1.273-0.483-2.566-0.933-3.885-1.343
				c-12.367-3.84-26.207-3.004-39.374,0.333c0.189-0.985,0.203-2.006,0.221-3.052c0.03-1.615-0.522-2.812-1.387-3.619
				c-1.621-23.498-3.224-46.998-4.233-70.531c-1.046-24.361-6.088-48.387-6.36-72.805C245.714,26.284,254.041,27.768,262.017,27.329
				z M190.209,470.73c1.809-0.152,3.097-0.989,3.897-2.137C193.839,469.584,192.841,470.509,190.209,470.73z M468.222,289.602
				c-1.575,1.944-6.173,3.123-9.242,3.762c-7.86,1.639-18.112,1.122-24.939,5.845c-1.301,0.899-2.002,2.052-2.249,3.255
				c-0.025,0.086-0.055,0.167-0.074,0.256c-2.046,8.624,0.46,15.222,6.796,21.145c4.73,4.422,14.136,14.459,2.18,16.42
				c-4.863,0.797-5.934,6.429-3.728,9.331c0.381,1.222,1.236,2.331,2.703,3.081c3.22,1.645,4.64,3.143,3.198,6.643
				c-1.477,3.586-4.157,6.619-6.639,9.536c-2.469,2.905-4.902,5.667-6.96,8.888c-3.374,5.281-3.677,12.092-4.274,18.125
				c-0.54,5.453-1.875,10.601-6.697,13.762c-3.818,2.504-9.557,2.111-13.889,2.02c-11.697-0.245-23.614,0.045-35.242-1.299
				c-1.672-0.193-3.064,0.279-4.122,1.117c-6.555,0.568-12.78,2.393-18.5,5.879c-6.567,4.002-9.116,11.971-10.575,19.104
				c-1.237,6.037-2.053,13.267-1.037,19.387c0.528,3.172,1.475,6.275,2.369,9.355c0.417,1.441,0.825,2.883,1.202,4.334
				c0.078,0.304,0.069,0.77,0.06,1.115c-0.509,0.345-0.988,0.817-1.417,1.453c-6.583,9.771-17.95,13.006-29.098,14.412
				c-13.425,1.693-27.113,0.746-40.558-0.181c-13.298-0.917-26.828-0.543-40.004-2.581c-8.354-1.291-16.447-3.68-23.931-7.639
				c-2.511-1.328-4.175-3.027-6.093-5.072c-0.861-0.918-1.661-1.88-2.444-2.865c-0.137-0.176-0.257-0.361-0.39-0.539
				c1.047-2.447,0.34-5.68-1.942-7.139c4.657-25.501-4.623-51.482-16.593-73.814c-7.236-13.499-15.67-26.423-23.43-39.629
				c-8.133-13.839-16.117-27.766-23.897-41.807c-13.688-24.708-28.665-49.944-34.139-78.01c-5.402-27.694-0.2-57.278,8.139-83.894
				c5.376-17.155,13.71-34.336,25.29-48.176c10.619-12.69,24.949-21.573,37.43-32.254c19.972-8.042,40.938-14.266,62.284-17.812
				c1.514,19.077,4.816,38.006,5.608,57.148c1.053,25.409,2.871,50.78,4.624,76.148c0.082,1.195,0.621,2.426,1.462,3.347
				c-5.821,2.076-11.382,4.558-16.469,7.242c-15.623,8.245-28.273,21.403-34.297,37.945c-1.223,0.372-2.349,1.196-3.141,2.596
				c-22.299,39.42,0.035,91.647,41.221,107.083c31.535,11.817,69.484,3.873,95.002-17.664c12.587-10.624,21.868-24.607,25.5-40.771
				c4.269-19-1.186-38.122-9.81-55.058c-7.744-15.206-18.583-28.964-32.905-37.798c0.312-0.941,0.386-2.006,0.111-3.164
				c-2.409-10.146-2.705-20.667-3.327-31.035c-0.673-11.22-1.55-22.425-2.318-33.639c-0.724-10.576-1.218-21.18-0.997-31.783
				c0.218-10.482,1.023-20.938,1.014-31.428c-0.003-3.172-0.013-6.544-0.176-9.947c21.931,3.524,42.889,11.343,61.561,23.411
				c20.99,13.566,38.031,33.479,50.824,54.768c5.089,8.471,9.115,17.818,10.373,27.676c0.127,0.993,0.463,1.824,0.933,2.508
				c-0.474,11.701,0.618,23.488-1.846,35.02c-2.442,11.428-3.699,24.967,1.558,35.787c4.862,10.014,13.066,17.57,20.243,25.875
				c8.186,9.471,14.587,20.428,22.038,30.463c0.053,0.071,0.112,0.133,0.165,0.2c0.156,0.595,0.423,1.198,0.835,1.8
				c1.156,1.684,2.591,3.616,2.979,5.68C468.836,289.131,468.728,288.976,468.222,289.602z"/>
		</g>
	</g>
	<g>
		<g>
			<path d="M291.23,272.981c-0.923-0.277-1.81-0.433-2.668-0.498c-0.655-9.248-2.899-18.346-4.686-27.453
				c-0.685-3.482-1.255-6.984-1.728-10.497c0.344-0.55,0.665-1.116,0.961-1.706c1.438-2.883,0.192-5.457-1.889-6.823
				c-0.359-4.35-0.554-8.712-0.554-13.085c0-2.512-1.38-4.018-3.157-4.609c-0.683-1.062-1.757-1.922-3.28-2.328
				c-4.556-1.22-10.659,3.078-14.372,5.08c-3.315,1.788-6.755,3.654-9.931,5.831c-1.846-0.07-3.673,0.809-4.673,3.04
				c-0.154,0.343-0.283,0.691-0.421,1.038c-1.299,1.334-1.627,2.822-1.309,4.184c-1.893,8.215-0.448,17.153,0.722,25.349
				c1.232,8.631,0.543,17.824,2.393,26.404c-4.989,1.162-9.602,4.254-12.862,8.136c-4.91,5.844-6.07,16.277,0.264,21.704
				c6.944,5.948,15.242,1.564,20.714-5.356c2.797-2.544,4.838-6.117,5.826-9.962c0.229-0.887,0.188-1.755-0.055-2.555
				c0.145-1.012,0.202-1.994,0.142-2.918c-0.067-1.008-0.432-1.938-0.992-2.722c0.165-0.883,0.097-1.802-0.302-2.673
				c-3.979-8.721-2.8-18.734-3.796-28.102c0.949-0.199,1.887-0.657,2.736-1.449c3.584-3.338,8.979-5.029,13.265-7.254
				c0.288-0.15,0.569-0.315,0.854-0.473c0.048,0.271,0.089,0.541,0.138,0.812c1.712,9.622,4.219,19.123,4.979,28.834
				c-8.546,4.322-12.369,19.721-3.816,25.377c12.208,8.071,19.563-9.978,21.847-18.879
				C296.381,276.313,293.964,273.802,291.23,272.981z M262.464,236.103c-3.002,1.443-5.907,2.865-8.604,4.666
				c-0.575-4.569-0.783-9.238,0.355-13.391c0.724-0.523,1.469-1.019,2.213-1.511c2.221-1.466,4.518-2.819,6.823-4.146
				c2.133-1.229,4.301-2.409,6.522-3.474c0.132,4.346,0.455,8.67,0.933,12.98C268.367,233.36,265.26,234.759,262.464,236.103z"/>
		</g>
	</g>
</g>
</svg>
