<?xml version="1.0" encoding="utf-8"?>
<!-- Generator: Adobe Illustrator 16.0.3, SVG Export Plug-In . SVG Version: 6.00 Build 0)  -->
<!DOCTYPE svg PUBLIC "-//W3C//DTD SVG 1.1//EN" "http://www.w3.org/Graphics/SVG/1.1/DTD/svg11.dtd">
<svg version="1.1" id="Layer_1" xmlns="http://www.w3.org/2000/svg" xmlns:xlink="http://www.w3.org/1999/xlink" x="0px" y="0px"
	 width="512px" height="512px" viewBox="0 0 512 512" style="enable-background:new 0 0 512 512;" xml:space="preserve">
<style type="text/css">
<![CDATA[
	.st0{fill:#127274;}
	.st1{fill:#14B6B9;}
	.st2{fill:#EF4823;}
	.st3{fill:#BCBCBC;}
	.st4{fill:#F6851F;}
	.st5{fill:#C0E6ED;}
	.st6{fill:#C56528;}
	.st7{fill:#FCBF95;}
	.st8{fill:#FEBF10;}
	.st9{fill:#FFFFFF;}
	.st10{fill:#9FDADF;}
	.st11{fill:#010101;}
	.st12{fill:#3AB37C;}
	.st13{fill:#D6E5E5;}
	.st14{fill:#71C598;}
	.st15{fill:#74CCCF;}
]]>
</style>
<g>
	<g>
		<g>
			<path class="st8" d="M242.059,101.321c-0.002,0.098-0.007,0.222-0.011,0.347c0.091-0.233,0.159-0.473,0.215-0.715
				C242.236,100.772,242.132,100.841,242.059,101.321z"/>
		</g>
	</g>
	<g>
		<g>
			<path class="st8" d="M242.013,101.744c-0.001,0.021-0.004,0.032-0.005,0.054c0.001-0.019,0.002-0.031,0.003-0.049
				c-0.44,1.062-1.262,1.99-2.538,2.587c1.501-0.675,2.239-1.636,2.564-2.379c0.003-0.087,0.006-0.188,0.01-0.289
				C242.037,101.693,242.024,101.718,242.013,101.744z"/>
		</g>
	</g>
	<g>
		<g>
			<path class="st8" d="M473.821,261.149c-1.637-25.176-9.145-49.657-21.574-71.606c-13.021-22.999-30.142-42.087-48.57-60.703
				c-3.533,0.8-8.011-2.69-6.822-7.152c-6.545-0.813-13.83-2.989-16.739-8.686c-5.243-10.266,2.61-18.354,12.086-21.792
				c6.686-2.426,10.296,7.968,3.638,10.383c-0.295,0.107-0.591,0.215-0.887,0.322c-2.152,0.896-8.049,3.617-4.577,6.233
				c2.707,2.04,6.623,2.653,9.913,2.921c7.591,0.617,14.84-2.246,15.486-10.846c1.383-18.427-18.794-36.084-36.539-33.799
				c-10.128,1.305-18.398,8.021-22.29,17.424c-3.724,8.998-4.176,18.574-2.431,27.883c2.707,1.473,4.336,4.932,2.001,7.875
				c0.568,1.769,1.203,3.519,1.907,5.242c10.296,25.203,31.685,44.062,41.183,69.75c10.376,28.062,8.792,59.412,5.192,88.611
				c-3.22,26.131-9.948,52.941-23.873,75.564c-28.013,45.509-79.306,65.608-131.175,65.093c-26.385-0.263-53.2-2.234-78.273-11.033
				c-24.86-8.724-45.867-24.841-61.735-45.825c-14.63-19.349-24.352-43.074-23.684-67.636c0.77-28.336,13.56-54.887,23.515-80.946
				c5.392-14.114,10.654-28.334,14.405-42.987c3.349-13.085,6.445-27.029,5.475-40.616c-1.468-20.563-12.817-41.829-35.976-42.253
				c-9.797-0.18-20.186,1.801-28.488,7.261c-6.997,4.602-15.656,14.199-12.568,23.479c3.016,9.062,13.832,13.796,22.781,10.9
				c4.208-1.361,6.819-2.654,4.675-7.102c-0.94-1.949-2.224-3.742-3.641-5.428c-2.812,0.316-5.701-1.219-5.701-4.855v-3
				c0-4.406,5.43-8.287,9.116-4.557c5.509,5.574,11.939,12.558,12.148,20.871c0.118,4.673-2.2,8.248-5.558,10.812
				c-0.075,0.296-0.167,0.594-0.294,0.897c-2.363,5.627-4.725,11.256-7.056,16.896c-11.723,28.367-22.96,57.084-30.5,86.891
				c-7.194,28.439-12.087,58.673-10.03,88.086c1.963,28.064,10.781,54.893,29.003,76.676c16.603,19.846,38.762,34.466,62.433,44.557
				c50.614,21.576,108.232,31.033,162.879,22.798c26.563-4.005,52.886-12.235,75.978-26.171
				c21.392-12.908,40.195-29.701,55.726-49.264C455.317,363.349,477.102,311.604,473.821,261.149z"/>
		</g>
	</g>
	<g>
		<g>
			<path d="M242.262,100.953c-0.056,0.242-0.124,0.481-0.215,0.715c-0.003,0.102-0.007,0.202-0.01,0.289
				C242.242,101.491,242.287,101.12,242.262,100.953z"/>
		</g>
	</g>
	<g>
		<g>
			<path d="M482.678,242.197c-4.196-24.798-14.17-48.132-27.607-69.292c-12.278-19.334-27.735-35.826-43.776-51.98
				c5.272-1.712,9.717-5.229,12.783-10.43c4.798-8.141,2.625-18.992-0.948-27.105c-7.076-16.06-23.042-28.104-40.568-28.124h-0.025
				c-2.5-0.001-5.032,0.242-7.574,0.754c-25.157,5.063-35.161,31.985-31.719,55.153c0.226,1.518,0.507,3.01,0.825,4.485
				c-3.642,2.022-8.07,3.02-11.892,3.958c-6.253,1.537-12.744,2.006-18.976,3.594c-5.203,1.325-10.435,2.502-15.69,3.551
				c-1.771-11.631-3.715-23.234-6.006-34.783c-1.361-6.859-12.351-6.113-10.971,0.848c2.364,11.918,4.354,23.896,6.159,35.904
				c-4.786,0.793-9.588,1.49-14.404,2.092c-2.546-11.594-6.126-23.415-4.87-35.371c0.735-6.998-10.056-9.156-10.798-2.098
				c-1.299,12.365,1.441,24.215,4.194,36.195c0.19,0.829,0.353,1.662,0.529,2.495c-2.322,0.223-4.646,0.43-6.972,0.614
				c-3.366,0.267-6.733,0.473-10.102,0.641c-1.022-10.363-2.197-20.73-2.238-31.125c0-0.039,0.002-0.119,0.005-0.216
				c-0.325,0.743-1.063,1.704-2.564,2.379c1.276-0.597,2.098-1.524,2.538-2.587c-0.001,0.018-0.002,0.03-0.003,0.049
				c0.001-0.021,0.004-0.033,0.005-0.054c0.011-0.026,0.024-0.051,0.034-0.076c0.004-0.125,0.009-0.249,0.011-0.347
				c0.074-0.48,0.178-0.549,0.204-0.368c0.856-3.707-2.333-8.366-7.061-6.743c-5.754,1.975-4.166,10.602-3.905,15.195
				c0.459,8.113,1.24,16.211,1.972,24.305c-4.173,0.105-8.347,0.163-12.521,0.193c-0.065-0.434-0.136-0.869-0.197-1.304
				c-0.617-4.364-1.074-8.751-1.231-13.157c-0.081-2.283-0.169-6.924,0.834-8.41c3.922-5.808-4.306-13.124-8.265-7.262
				c-4.389,6.498-3.827,14.801-3.177,22.294c0.229,2.634,0.55,5.257,0.917,7.875c-4.831-0.005-9.663-0.021-14.493-0.021h-5.152
				c-0.25-4.054-0.797-7.952-1.398-11.957c-0.272-1.819-0.447-3.649-0.58-5.483c-0.068-0.94-0.079-1.881-0.077-2.824
				c3.855-2.985,0.276-10.783-5.728-9.443c-7.577,1.691-5.216,14.391-4.433,19.619c0.502,3.35,0.847,6.715,1.116,10.089h-12.422
				c-8.448,0-17.023-1.087-25.261,1.292c-0.276,0.08-0.529,0.178-0.771,0.284c-0.333-6.925-1.445-13.785-3.605-20.476
				c-6.868-21.271-25.631-33.939-47.726-33.408c-20.04,0.482-41.436,11.262-47.195,31.564c-5.342,18.83,12.728,34.072,30.453,32.729
				c-22.075,53.133-41.884,106.933-45.08,165.021c-1.529,27.796,2.462,56.536,15.184,81.54
				c11.897,23.382,30.591,41.947,52.329,56.297c21.989,14.514,47.341,23.799,72.587,30.864c26.869,7.519,54.707,11.442,82.595,11.9
				c53.537,0.879,107.214-13.803,149.102-47.941c38.887-31.696,66.312-76.491,79.398-124.716
				C485.247,293.894,487.002,267.753,482.678,242.197z M319.479,133.148c8.838-1.541,19.225-2.7,27.742-6.788
				c7.592,20.332,22.787,37.176,34.021,55.703c16.243,26.788,16.207,57.796,13.857,88.049c-2.059,26.527-7.776,53.186-20.142,76.906
				c-7.571,14.524-18.153,26.998-30.809,36.988c-1.396-10.254-4.617-20.154-6.918-30.227c-2.773-12.142-4.864-24.49-7.308-36.705
				c-5.032-25.162-10.064-50.322-15.097-75.484c-6.881-34.404-10.717-69.301-15.712-104.014
				C305.909,136.102,312.644,134.341,319.479,133.148z M288.284,139.619c4.782,33.677,8.514,67.52,15.187,100.883
				c5.032,25.161,10.064,50.323,15.097,75.483c2.436,12.178,5.104,24.334,7.273,36.561c2.106,11.873,6.51,23.233,7.694,35.279
				c0.118,1.201,0.54,2.168,1.147,2.919c-4.862,3.138-9.948,5.962-15.241,8.417c-3.401,1.578-6.842,2.984-10.315,4.248
				c-0.215-0.461-0.47-0.869-0.756-1.227c-2.329-9.619-2.917-19.582-3.495-29.464c-0.748-12.794-2.097-25.444-3.755-38.152
				c-3.555-27.245-7.992-54.366-12.113-81.529c-4.098-27.011-7.355-54.132-10.906-81.219c-1.313-10.013-2.221-20.149-3.79-30.148
				C278.981,141.07,283.64,140.39,288.284,139.619z M262.774,142.974c0.182-0.018,0.362-0.04,0.544-0.056
				c1.422,9.23,2.354,18.546,3.561,27.812c3.61,27.734,6.978,55.498,11.159,83.154c4.205,27.812,8.727,55.576,12.367,83.471
				c1.649,12.644,2.86,25.232,3.604,37.96c0.62,10.601,1.494,21.272,4.218,31.547c-6.363,1.74-12.816,3.058-19.338,3.994
				c-0.291-0.794-0.754-1.498-1.383-2.028c-0.139-0.615-0.23-1.243-0.326-1.866c-0.305-1.978-0.466-3.979-0.599-5.976
				c-0.461-6.971-1.488-13.871-2.47-20.788c-2.289-16.111-3.758-32.341-5.979-48.47c-4.497-32.652-9.946-65.17-13.756-97.916
				c-1.855-15.943-3.237-31.942-5.094-47.891c-1.526-13.111-3.053-26.235-3.887-39.41c-0.049-0.776-0.116-1.552-0.172-2.328
				C251.072,143.904,256.922,143.521,262.774,142.974z M234.27,144.584c1.836,19.853,3.812,39.666,6.034,59.497
				c3.639,32.491,7.5,64.811,12.315,97.16c4.781,32.117,9.274,64.367,12.73,96.652c0.313,2.926,0.208,9.303,1.527,14.285
				c-7.513,0.592-15.089,0.781-22.695,0.657c-0.319-0.007-0.64-0.017-0.959-0.022c0.172-0.563,0.284-1.17,0.284-1.836v-3
				c0-2.036-0.907-3.412-2.197-4.176c-2.397-9.127-2.322-18.842-2.426-28.226c-0.152-13.657-1.308-27.261-2.23-40.884
				c-2.034-30.049-4.049-60.099-6.088-90.146c-1.971-29.044-3.241-58.285-6.127-87.252c-0.417-4.182-1.107-8.34-1.839-12.492
				C226.49,144.759,230.38,144.688,234.27,144.584z M201.829,144.886c3.185,0,6.367-0.004,9.547-0.011
				c0.523,3.053,1.053,6.104,1.532,9.16c2.03,12.931,2.231,26.286,3.065,39.337c0.984,15.398,2.176,30.78,3.223,46.174
				c2.131,31.345,4.232,62.691,6.353,94.038c0.965,14.271,2.207,28.53,2.362,42.839c0.131,12.072,0.216,24.631,4.631,36.042
				c-5.285-0.249-10.578-0.631-15.854-1.174c0.027-2.073-1.394-3.771-3.262-4.604c-0.725-51.591-7.308-103.222-14.115-154.27
				c-3.504-26.273-6.235-52.304-7.347-78.801c-0.402-9.577-0.885-19.155-1.391-28.731H201.829z M140.416,145.058
				c1.197,0.74,2.709,1.03,4.423,0.535c8.139-2.351,17.836-0.707,26.222-0.707h8.481c0.217,4.726,0.399,9.457,0.708,14.18
				c0.923,14.073,1.214,28.184,2.16,42.26c0.954,14.197,2.741,28.238,4.643,42.33c3.843,28.483,7.541,56.989,10.381,85.592
				c2.634,26.525,4.708,53.436,5.036,80.137c-12.48-2.104-24.722-5.381-36.362-10.411c-23.731-10.255-43.398-29.521-56.328-51.721
				c-12.738-21.874-15.699-47.318-9.262-71.673c7.615-28.808,21.245-55.908,30.286-84.293
				C135.479,176.603,139.656,160.79,140.416,145.058z M424.378,402.317c-15.531,19.562-34.333,36.355-55.726,49.264
				c-23.091,13.936-49.414,22.166-75.978,26.171c-54.646,8.235-112.265-1.222-162.879-22.798
				c-23.67-10.091-45.83-24.711-62.433-44.557c-18.222-21.783-27.04-48.611-29.003-76.676c-2.057-29.413,2.836-59.646,10.03-88.086
				c7.54-29.807,18.778-58.523,30.5-86.891c2.331-5.641,4.693-11.27,7.056-16.896c0.127-0.304,0.219-0.602,0.294-0.897
				c3.358-2.563,5.675-6.139,5.558-10.812c-0.209-8.313-6.639-15.297-12.148-20.871c-3.687-3.73-9.116,0.15-9.116,4.557v3
				c0,3.637,2.888,5.172,5.701,4.855c1.417,1.686,2.701,3.479,3.641,5.428c2.145,4.447-0.466,5.74-4.675,7.102
				c-8.949,2.896-19.765-1.838-22.781-10.9c-3.088-9.279,5.571-18.877,12.568-23.479c8.303-5.46,18.691-7.44,28.488-7.261
				c23.159,0.424,34.508,21.689,35.976,42.253c0.97,13.587-2.125,27.531-5.475,40.616c-3.751,14.653-9.013,28.873-14.405,42.987
				c-9.956,26.06-22.745,52.61-23.515,80.946c-0.667,24.562,9.054,48.287,23.684,67.636c15.868,20.984,36.875,37.102,61.735,45.825
				c25.073,8.799,51.888,10.771,78.273,11.033c51.869,0.516,103.162-19.584,131.175-65.093
				c13.925-22.623,20.653-49.434,23.873-75.564c3.599-29.199,5.184-60.55-5.192-88.611c-9.498-25.688-30.887-44.547-41.183-69.75
				c-0.704-1.724-1.339-3.474-1.907-5.242c2.335-2.943,0.706-6.402-2.001-7.875c-1.745-9.309-1.293-18.885,2.431-27.883
				c3.892-9.402,12.162-16.119,22.29-17.424c17.745-2.285,37.922,15.372,36.539,33.799c-0.646,8.6-7.896,11.463-15.486,10.846
				c-3.29-0.268-7.206-0.881-9.913-2.921c-3.473-2.616,2.425-5.337,4.577-6.233c0.295-0.107,0.591-0.215,0.887-0.322
				c6.659-2.415,3.048-12.809-3.638-10.383c-9.476,3.438-17.329,11.526-12.086,21.792c2.91,5.696,10.194,7.872,16.739,8.686
				c-1.188,4.462,3.29,7.952,6.822,7.152c18.429,18.616,35.549,37.704,48.57,60.703c12.429,21.949,19.938,46.431,21.574,71.606
				C477.102,311.604,455.317,363.349,424.378,402.317z"/>
		</g>
	</g>
</g>
</svg>
