<?xml version="1.0" encoding="utf-8"?>
<!-- Generator: Adobe Illustrator 16.0.3, SVG Export Plug-In . SVG Version: 6.00 Build 0)  -->
<!DOCTYPE svg PUBLIC "-//W3C//DTD SVG 1.1//EN" "http://www.w3.org/Graphics/SVG/1.1/DTD/svg11.dtd">
<svg version="1.1" id="Layer_1" xmlns="http://www.w3.org/2000/svg" xmlns:xlink="http://www.w3.org/1999/xlink" x="0px" y="0px"
	 width="512px" height="512px" viewBox="0 0 512 512" style="enable-background:new 0 0 512 512;" xml:space="preserve">
<style type="text/css">
<![CDATA[
	.st0{fill:#127274;}
	.st1{fill:#14B6B9;}
	.st2{fill:#EF4754;}
	.st3{fill:#EF4823;}
	.st4{fill:#BCBCBC;}
	.st5{fill:#FEBF10;}
	.st6{fill:#010101;}
	.st7{fill:#D6E5E5;}
	.st8{fill:#71C598;}
	.st9{fill:#74CCCF;}
]]>
</style>
<g>
	<g>
		<g>
			<path class="st3" d="M272.63,432.15c-0.562-6.279-1.25-12.666-2.761-18.797c-0.688-2.793-1.427-5.668-2.704-8.26
				c-0.077-0.158-0.41-0.568-0.674-0.904c-2.512-0.139-4.381-1.969-5.111-4.088c-0.091-0.023-0.183-0.043-0.271-0.072
				c-0.106,3.961-0.113,7.924,0.113,11.887c0.434,7.588,1.338,15.432,0.209,23.002c-2.053,13.771-13.222,19.926-21.772,29.518
				c-2.322,2.607-6.748,2.447-8.691-0.557c-5.814-8.98-13.187-17.475-15.248-28.281c-1.159-6.084-0.642-12.408-0.728-18.578
				c-0.078-5.58-0.226-11.166-0.586-16.736c-0.332,0.219-0.684,0.4-1.047,0.553c-10.096,11.408-13.573,28.43-12.154,43.305
				c1.367,14.348,8.542,26.229,17.977,36.484c0.61-1.203,1.321-2.365,2.214-3.451c1.849-2.254,5.641-2.512,7.763-0.502
				c7.869,7.453,11.006,16.094,12.189,25.662c2.688-2.191,5.468-4.326,7.948-6.896c5.81-6.025,10.475-15.766,10.746-24.209
				c0.183-5.648,6.393-7.852,10.045-3.5c0.047,0.057,0.089,0.117,0.136,0.176C273.451,456.391,273.663,443.738,272.63,432.15z"/>
		</g>
	</g>
	<g>
		<g>
			<path class="st1" d="M166.896,439.936c-1.11-0.922-6.444-1.248-8.739-1.4c-3.396-0.227-6.805-0.244-10.206-0.246
				c-0.879,0-1.665-0.17-2.349-0.469c-0.114,0.254-0.229,0.51-0.354,0.762c-2.367,4.736-5.891,8.275-9.771,11.479
				c11.367-0.312,22.726-0.873,34.083-1.492c0.222-2.439,0.383-4.881,0.502-7.322C169.006,441.188,167.918,440.787,166.896,439.936z
				"/>
		</g>
	</g>
	<g>
		<g>
			<path class="st1" d="M172.086,352.283c-4.193-5.635-8.173-11.381-11.894-17.271c-2.062,2.607-4.374,4.973-6.79,7.387
				c-3.157,3.156-6.43,6.549-7.112,11.164c-0.989,6.689-0.312,13.977-0.133,20.727c0.192,7.281,0.854,14.508,1.257,21.775
				c0.455,8.205,0.581,16.416,0.594,24.633c0.003,2.201,0.006,4.418-0.12,6.615c6.723-0.053,15.798-0.717,22.431,2.088
				c-0.061-24.549-3.283-49.164-0.19-73.646C170.334,354.117,171.08,352.98,172.086,352.283z"/>
		</g>
	</g>
	<g>
		<g>
			<path class="st5" d="M307.184,138.402c-10.329-26.309-23.428-51.502-35.304-77.127c-2.261-4.877-4.749-9.85-7.624-14.48
				c-0.2,0.197-0.413,0.389-0.654,0.568c-7.635,5.699-18.219,5.059-27.239,4.947c-4.969-0.061-9.944,0.975-14.938,1.082
				c-6.353,0.137-19.256-0.496-23.714-6.127c-9.175,9.119-16.925,19.982-23.396,30.107c-15.154,23.703-25.588,48.881-30.908,76.574
				c-1.744,9.078-3.229,18.244-4.341,27.453c1.408,0.758,2.55,2.074,2.947,3.98c2.222,10.676,17.005,13.375,25.876,14.5
				c12.885,1.633,25.95,0.996,38.868,0.084c19.14-1.354,38.31-2.152,57.443-3.633c10.885-0.842,21.878-2.357,32.803-2.234
				c4.283,0.047,8.645,0.242,12.909-0.283c2.206-0.27,4.427-0.613,6.468-1.553c1.807-0.832,1.641-0.738,1.662-2.033
				c0.036-2.117,1.056-3.674,2.456-4.629C317.446,169.555,313.217,153.768,307.184,138.402z M263.98,146.455
				c-10.17,17.09-31.848,29.064-51.859,23.385c-13.626-3.867-38.944-15.627-34.387-33.693c-4.148-18.715-2.376-38.402,13.579-51.803
				c16.969-14.254,47.926-11.564,64.603,1.986C273.593,100.693,275.293,127.447,263.98,146.455z"/>
		</g>
	</g>
	<g>
		<g>
			<path class="st3" d="M231.621,25.256c-0.507,1.227-1.559,2.25-3.276,2.74c-7.046,2.006-13.552,5.436-19.555,9.775
				c0.798,1.193,1.156,2.666,1.04,4.049c0.946,0.182,1.931,0.303,2.852,0.393c4.392,0.432,8.861,0.281,13.254-0.064
				c4.138-0.324,8.039-0.814,12.199-0.77c6.179,0.068,14.094,0.764,19.316-3.135c0.126-0.094,0.252-0.174,0.378-0.254
				C251.244,30.469,242.874,25.232,231.621,25.256z"/>
		</g>
	</g>
	<g>
		<g>
			<path class="st7" d="M239.468,121.285c-2.173-8.186-8.223-16.721-17.143-18.225c-10.562-1.781-18.325,7.713-15.608,17.926
				c0.597,2.236-0.122,4.129-1.416,5.428c0.88,3.445,2.168,6.865,4.524,9.189c3.952,3.9,9.719,5.99,15.312,5.85
				c6.044-0.152,10.886-2.227,13.339-8.045C240.049,129.682,240.517,125.234,239.468,121.285z"/>
		</g>
	</g>
	<g>
		<g>
			<path class="st1" d="M260.119,118.387c-0.343-10.135-4.652-19.924-13.622-25.34c-9.291-5.611-21.506-7.979-32.286-6.627
				c-11.664,1.465-21.189,8.594-25.445,19.754c-3.207,8.41-2.706,17.371-0.778,26.012c1.018,0.986,1.523,2.428,1.057,4.242
				c0.517,1.877,1.078,3.734,1.673,5.559c0.434,1.326,0.376,2.527-0.005,3.559c2.415,3.199,6.34,5.75,9.489,7.521
				c6.363,3.576,14.967,7.789,22.301,7.172C244.385,158.395,260.877,140.768,260.119,118.387z M225.982,152.424
				c-8.954-0.232-18.092-2.598-24.252-9.484c-5.432-6.078-7.117-13.947-8.689-21.711c-0.516-2.549,0.637-4.26,2.369-5.072
				c0.559-13.486,10.809-25.254,25.768-24.273c14.351,0.941,25.871,13.311,28.919,26.854
				C253.712,134.795,244.064,152.893,225.982,152.424z"/>
		</g>
	</g>
	<g>
		<g>
			<path class="st1" d="M328.712,434.354c-0.311-2.357-0.432-4.711-0.471-7.064H302.95c-0.8,0-1.517-0.146-2.154-0.395
				c-0.199,1.666-0.383,3.309-0.535,4.916c-0.287,3.018-1.093,9.018,1.62,11.258c2.124,1.754,5.665,1.75,8.3,1.881
				c7.603,0.375,15.6,0.975,23.398,0.438C330.671,442.496,329.293,438.768,328.712,434.354z"/>
		</g>
	</g>
	<g>
		<g>
			<path class="st1" d="M246.181,356.068c-2.497-4.16-4.984-8.422-7.695-12.447c-2.052-3.045-4.16-6.018-7.671-6.375
				c-1.118,7.826-5.78,14.676-6.89,22.607c-1.708,12.229,0.363,24.217,1.236,36.414c0.434,6.041,0.69,12.09,0.774,18.145
				c0.023,1.605-0.009,3.242-0.048,4.887c5.786-0.092,11.559-0.615,17.347-0.629c2.061-0.006,4.762-0.143,7.388,0.088
				c-0.165-2.557-0.353-5.113-0.454-7.664c-0.294-7.256,0.117-14.494,0.467-21.74C251.189,377.838,252.327,366.309,246.181,356.068z
				"/>
		</g>
	</g>
	<g>
		<g>
			<path class="st1" d="M328.091,396.477c0.439-9.514,1.947-20.232-0.539-29.568c-0.55-2.061-1.136-4.209-2.447-5.934
				c-1.269-1.67-2.805-2.574-3.864-4.496c-2.683-4.865-5.78-9.471-8.891-14.066c-4.659,8.826-9.754,17.629-15.568,25.883
				c0.104,0.139,0.208,0.279,0.305,0.434c8.617,13.66,7.127,31.248,5.059,47.59h26.229c0.028-2.109,0.022-4.223-0.084-6.34
				C328.062,405.439,327.883,401.021,328.091,396.477z"/>
		</g>
	</g>
	<g>
		<g>
			<path class="st5" d="M326.075,226.893c-0.775-8.645-1.75-17.25-2.989-25.799c-0.212,0.129-0.421,0.258-0.646,0.383
				c-4.366,2.42-9.582,3.322-14.522,3.529c-5.156,0.215-10.327-0.166-15.479,0.113c-6.567,0.355-13.128,1.057-19.685,1.578
				c-21.99,1.748-44.01,2.793-66.013,4.297c-15.225,1.041-31.071,1.869-46.129-1.15c-8.817-1.768-17.396-5.057-23.152-11.164
				c-0.875,13.645-0.769,27.334,0.738,40.941c3.17,28.633,11.998,57.291,26.644,82.197c14.02,23.842,32.953,44.186,48.556,66.928
				c-0.896-9.035-1.774-18.086-0.756-27.148c0.582-5.184,1.884-9.852,3.805-14.697c1.721-4.34,3.943-8.895,3.594-13.672
				c-0.265-3.631,2.485-5.613,5.301-5.738c0.725-0.586,1.643-1.008,2.76-1.172c12.892-1.879,19.124,10.631,24.869,19.807
				c3.325,5.309,6.528,10.713,7.896,16.889c1.573,7.111,1.239,14.516,0.914,21.742c-0.063,1.357-0.13,2.715-0.196,4.072
				c12.031-8.236,21.715-19.576,29.58-31.787c8.22-12.758,15.724-26.418,21.271-40.561
				C323.761,287.611,328.852,257.824,326.075,226.893z"/>
		</g>
	</g>
	<g>
		<g>
			<path class="st5" d="M250.518,429.973c-0.855-0.127-1.711-0.238-2.575-0.289c-2.457-0.145-4.952-0.055-7.411,0.027
				c-4.83,0.16-9.658,0.531-14.491,0.576c0.046,0.461,0.085,0.922,0.146,1.377c1.062,7.799,5.671,14.273,10.166,20.629
				c6.591-5.953,13.743-11.438,14.448-21.006c0.031-0.426,0.042-0.852,0.063-1.277C250.77,430.004,250.661,429.994,250.518,429.973z
				"/>
		</g>
	</g>
	<g>
		<g>
			<path d="M354.974,441.877c-4.19-1.732-8.757-2.092-12.91-3.732c-4.269-1.686-2.999-12.326-2.967-15.889
				c0.101-10.852-0.279-21.629,0.246-32.475c0.463-9.518,0.828-19.301-1.98-28.523c-1.177-3.855-3.424-7.453-6.493-10.068
				c-1.996-1.703-3.478-5.957-4.92-8.211c-2.217-3.463-4.574-6.836-6.863-10.25c-0.369-0.551-0.785-0.998-1.23-1.348
				c11.008-23.574,18.085-49.127,19.83-75.098c1.003-14.939-0.411-29.756-2.095-44.596c-1.689-14.881-4.166-29.668-7.626-44.24
				c-7.131-30.021-20.979-57.863-34.405-85.457c-13.757-28.27-25.745-69.508-64.458-67.672c-2.494,0.119-4.001,1.559-4.603,3.357
				c-23.391,6.756-41.03,27.314-54.497,46.525c-15.618,22.273-27.068,46.293-33.99,72.627
				c-14.436,54.912-14.52,114.551,7.863,167.266c3.015,7.1,6.437,13.941,10.177,20.594c-0.159,0.209-0.312,0.428-0.452,0.67
				c-4.77,8.256-13.759,12.865-17.022,22.209c-2.075,5.939-1.549,12.322-1.518,18.518c0.035,7.219,0.214,14.436,0.698,21.639
				c0.503,7.49,1.021,14.943,1.176,22.453c0.146,6.967,0.929,14.52-0.717,21.334c-2.226,9.223-14.276,14.846-20.822,20.664
				c-3.981,3.539,0.336,9.123,4.556,9.115c18.351-0.035,36.68-0.984,55-2c2.302-0.127,4.694-2.068,4.975-4.436
				c3.618-30.525-2.339-61.25,0.436-91.73c8.073,10.398,16.288,20.682,23.754,31.531c-11.528,13.516-15.055,33.018-13.881,50.332
				c1.356,20.002,13.561,36.648,27.662,49.949c3.195,3.016,8.055,0.779,9.029-3.082c0.025-0.098,0.049-0.199,0.072-0.299
				c3.971,7.322,4.041,15.812,4.044,24.674c0.002,5.604,8.111,6.684,10.412,2.023c4.121-8.35,14.215-12.064,19.515-19.67
				c2.122-3.045,4.003-6.324,5.55-9.76c0.781,0.303,1.615,0.467,2.433,0.467c5.771,0,7.873-7.068,9.623-11.566
				c2.524-6.496,3.825-13.363,4.593-20.264c1.025-9.232,1.148-18.598,0.278-27.844c-0.735-7.838-2.051-29.393-11.082-35.027
				c6.348-4.924,12.015-10.613,17.15-16.787c4.129,9.109,3.089,20.846,2.296,30.355c-0.925,11.094-4.607,23.789-1.902,34.805
				c2.445,9.959,10.908,12.395,20.067,12.9c14.674,0.809,30.544,2.023,44.371-3.865
				C358.378,450.279,359.701,443.832,354.974,441.877z M228.345,27.996c1.718-0.49,2.77-1.514,3.276-2.74
				c11.253-0.023,19.623,5.213,26.208,12.734c-0.126,0.08-0.252,0.16-0.378,0.254c-5.223,3.898-13.138,3.203-19.316,3.135
				c-4.16-0.045-8.062,0.445-12.199,0.77c-4.393,0.346-8.862,0.496-13.254,0.064c-0.921-0.09-1.905-0.211-2.852-0.393
				c0.116-1.383-0.242-2.855-1.04-4.049C214.793,33.432,221.299,30.002,228.345,27.996z M143.405,153.947
				c5.32-27.693,15.754-52.871,30.908-76.574c6.472-10.125,14.222-20.988,23.396-30.107c4.458,5.631,17.361,6.264,23.714,6.127
				c4.994-0.107,9.97-1.143,14.938-1.082c9.021,0.111,19.604,0.752,27.239-4.947c0.241-0.18,0.454-0.371,0.654-0.568
				c2.875,4.631,5.363,9.604,7.624,14.48c11.876,25.625,24.975,50.818,35.304,77.127c6.033,15.365,10.263,31.152,13.313,47.197
				c-1.4,0.955-2.42,2.512-2.456,4.629c-0.021,1.295,0.145,1.201-1.662,2.033c-2.041,0.939-4.262,1.283-6.468,1.553
				c-4.265,0.525-8.626,0.33-12.909,0.283c-10.925-0.123-21.918,1.393-32.803,2.234c-19.134,1.48-38.304,2.279-57.443,3.633
				c-12.918,0.912-25.983,1.549-38.868-0.084c-8.871-1.125-23.654-3.824-25.876-14.5c-0.397-1.906-1.539-3.223-2.947-3.98
				C140.177,172.191,141.661,163.025,143.405,153.947z M169.559,448.568c-11.357,0.619-22.716,1.18-34.083,1.492
				c3.881-3.203,7.404-6.742,9.771-11.479c0.126-0.252,0.24-0.508,0.354-0.762c0.684,0.299,1.47,0.469,2.349,0.469
				c3.401,0.002,6.811,0.02,10.206,0.246c2.295,0.152,7.629,0.479,8.739,1.4c1.022,0.852,2.11,1.252,3.165,1.311
				C169.941,443.688,169.78,446.129,169.559,448.568z M170.128,355.754c-3.093,24.482,0.13,49.098,0.19,73.646
				c-6.633-2.805-15.708-2.141-22.431-2.088c0.126-2.197,0.123-4.414,0.12-6.615c-0.013-8.217-0.139-16.428-0.594-24.633
				c-0.403-7.268-1.064-14.494-1.257-21.775c-0.18-6.75-0.856-14.037,0.133-20.727c0.683-4.615,3.955-8.008,7.112-11.164
				c2.416-2.414,4.729-4.779,6.79-7.387c3.721,5.891,7.7,11.637,11.894,17.271C171.08,352.98,170.334,354.117,170.128,355.754z
				 M272.63,432.15c1.033,11.588,0.821,24.24-2.408,35.754c-0.047-0.059-0.089-0.119-0.136-0.176
				c-3.652-4.352-9.862-2.148-10.045,3.5c-0.271,8.443-4.937,18.184-10.746,24.209c-2.48,2.57-5.26,4.705-7.948,6.896
				c-1.184-9.568-4.32-18.209-12.189-25.662c-2.122-2.01-5.914-1.752-7.763,0.502c-0.893,1.086-1.604,2.248-2.214,3.451
				c-9.435-10.256-16.609-22.137-17.977-36.484c-1.419-14.875,2.059-31.896,12.154-43.305c0.363-0.152,0.715-0.334,1.047-0.553
				c0.36,5.57,0.508,11.156,0.586,16.736c0.086,6.17-0.432,12.494,0.728,18.578c2.062,10.807,9.434,19.301,15.248,28.281
				c1.943,3.004,6.369,3.164,8.691,0.557c8.551-9.592,19.72-15.746,21.772-29.518c1.129-7.57,0.225-15.414-0.209-23.002
				c-0.227-3.963-0.22-7.926-0.113-11.887c0.089,0.029,0.181,0.049,0.271,0.072c0.73,2.119,2.6,3.949,5.111,4.088
				c0.264,0.336,0.597,0.746,0.674,0.904c1.277,2.592,2.016,5.467,2.704,8.26C271.38,419.484,272.068,425.871,272.63,432.15z
				 M250.635,389.354c-0.35,7.246-0.761,14.484-0.467,21.74c0.102,2.551,0.289,5.107,0.454,7.664
				c-2.626-0.23-5.327-0.094-7.388-0.088c-5.788,0.014-11.561,0.537-17.347,0.629c0.039-1.645,0.071-3.281,0.048-4.887
				c-0.084-6.055-0.341-12.104-0.774-18.145c-0.873-12.197-2.944-24.186-1.236-36.414c1.109-7.932,5.771-14.781,6.89-22.607
				c3.511,0.357,5.619,3.33,7.671,6.375c2.711,4.025,5.198,8.287,7.695,12.447C252.327,366.309,251.189,377.838,250.635,389.354z
				 M250.863,430.01c-0.021,0.426-0.032,0.852-0.063,1.277c-0.705,9.568-7.857,15.053-14.448,21.006
				c-4.495-6.355-9.104-12.83-10.166-20.629c-0.061-0.455-0.1-0.916-0.146-1.377c4.833-0.045,9.661-0.416,14.491-0.576
				c2.459-0.082,4.954-0.172,7.411-0.027c0.864,0.051,1.72,0.162,2.575,0.289C250.661,429.994,250.77,430.004,250.863,430.01z
				 M291.164,357.041c-7.865,12.211-17.549,23.551-29.58,31.787c0.066-1.357,0.133-2.715,0.196-4.072
				c0.325-7.227,0.659-14.631-0.914-21.742c-1.367-6.176-4.57-11.58-7.896-16.889c-5.745-9.176-11.978-21.686-24.869-19.807
				c-1.117,0.164-2.035,0.586-2.76,1.172c-2.815,0.125-5.565,2.107-5.301,5.738c0.35,4.777-1.873,9.332-3.594,13.672
				c-1.921,4.846-3.223,9.514-3.805,14.697c-1.019,9.062-0.141,18.113,0.756,27.148c-15.603-22.742-34.536-43.086-48.556-66.928
				c-14.646-24.906-23.474-53.564-26.644-82.197c-1.507-13.607-1.613-27.297-0.738-40.941c5.756,6.107,14.335,9.396,23.152,11.164
				c15.058,3.02,30.904,2.191,46.129,1.15c22.003-1.504,44.022-2.549,66.013-4.297c6.557-0.521,13.117-1.223,19.685-1.578
				c5.151-0.279,10.322,0.102,15.479-0.113c4.94-0.207,10.156-1.109,14.522-3.529c0.225-0.125,0.434-0.254,0.646-0.383
				c1.239,8.549,2.214,17.154,2.989,25.799c2.776,30.932-2.314,60.719-13.64,89.588
				C306.888,330.623,299.384,344.283,291.164,357.041z M296.781,368.295c5.814-8.254,10.909-17.057,15.568-25.883
				c3.11,4.596,6.208,9.201,8.891,14.066c1.06,1.922,2.596,2.826,3.864,4.496c1.312,1.725,1.897,3.873,2.447,5.934
				c2.486,9.336,0.979,20.055,0.539,29.568c-0.208,4.545-0.029,8.963,0.198,13.502c0.106,2.117,0.112,4.23,0.084,6.34h-26.229
				c2.068-16.342,3.559-33.93-5.059-47.59C296.989,368.574,296.885,368.434,296.781,368.295z M310.181,444.949
				c-2.635-0.131-6.176-0.127-8.3-1.881c-2.713-2.24-1.907-8.24-1.62-11.258c0.152-1.607,0.336-3.25,0.535-4.916
				c0.638,0.248,1.354,0.395,2.154,0.395h25.291c0.039,2.354,0.16,4.707,0.471,7.064c0.581,4.414,1.959,8.143,4.867,11.033
				C325.78,445.924,317.783,445.324,310.181,444.949z"/>
		</g>
	</g>
	<g>
		<g>
			<path d="M255.916,86.33c-16.677-13.551-47.634-16.24-64.603-1.986c-15.955,13.4-17.728,33.088-13.579,51.803
				c-4.558,18.066,20.761,29.826,34.387,33.693c20.012,5.68,41.689-6.295,51.859-23.385
				C275.293,127.447,273.593,100.693,255.916,86.33z M222.502,160.238c-7.334,0.617-15.938-3.596-22.301-7.172
				c-3.149-1.771-7.074-4.322-9.489-7.521c0.381-1.031,0.438-2.232,0.005-3.559c-0.595-1.824-1.156-3.682-1.673-5.559
				c0.467-1.814-0.039-3.256-1.057-4.242c-1.928-8.641-2.429-17.602,0.778-26.012c4.256-11.16,13.781-18.289,25.445-19.754
				c10.78-1.352,22.995,1.016,32.286,6.627c8.97,5.416,13.279,15.205,13.622,25.34C260.877,140.768,244.385,158.395,222.502,160.238
				z"/>
		</g>
	</g>
	<g>
		<g>
			<path d="M250.097,118.736c-3.048-13.543-14.568-25.912-28.919-26.854c-14.959-0.98-25.209,10.787-25.768,24.273
				c-1.732,0.812-2.885,2.523-2.369,5.072c1.572,7.764,3.258,15.633,8.689,21.711c6.16,6.887,15.298,9.252,24.252,9.484
				C244.064,152.893,253.712,134.795,250.097,118.736z M238.477,133.408c-2.453,5.818-7.295,7.893-13.339,8.045
				c-5.594,0.141-11.36-1.949-15.312-5.85c-2.356-2.324-3.645-5.744-4.524-9.189c1.294-1.299,2.013-3.191,1.416-5.428
				c-2.717-10.213,5.046-19.707,15.608-17.926c8.92,1.504,14.97,10.039,17.143,18.225
				C240.517,125.234,240.049,129.682,238.477,133.408z"/>
		</g>
	</g>
</g>
</svg>
