<?xml version="1.0" encoding="utf-8"?>
<!-- Generator: Adobe Illustrator 16.0.3, SVG Export Plug-In . SVG Version: 6.00 Build 0)  -->
<!DOCTYPE svg PUBLIC "-//W3C//DTD SVG 1.1//EN" "http://www.w3.org/Graphics/SVG/1.1/DTD/svg11.dtd">
<svg version="1.1" id="Layer_1" xmlns="http://www.w3.org/2000/svg" xmlns:xlink="http://www.w3.org/1999/xlink" x="0px" y="0px"
	 width="512px" height="512px" viewBox="0 0 512 512" style="enable-background:new 0 0 512 512;" xml:space="preserve">
<style type="text/css">
<![CDATA[
	.st0{fill:#127274;}
	.st1{fill:#14B6B9;}
	.st2{fill:#EF4754;}
	.st3{fill:#EF4823;}
	.st4{fill:#BCBCBC;}
	.st5{fill:#FEBF10;}
	.st6{fill:#010101;}
	.st7{fill:#D6E5E5;}
	.st8{fill:#71C598;}
	.st9{fill:#74CCCF;}
]]>
</style>
<g>
	<g>
		<g>
			<g>
				<path class="st4" d="M332.366,442.774c-0.032,0.002-0.061,0.006-0.093,0.007c-6.672,0.164-13.32,0.955-20,1
					c-1.161,0.008-2.151-0.286-2.969-0.775c-0.376,2.662-0.963,5.263-1.841,7.765c8.32-0.086,16.639-0.304,24.958-0.51
					C332.513,447.759,332.478,445.265,332.366,442.774z"/>
			</g>
		</g>
		<g>
			<g>
				<path class="st4" d="M330.335,421.807c-6.861,1.466-14.304,0.171-21.284-0.005c0.395,3.715,0.717,7.491,0.788,11.238
					c0.477-0.141,1.002-0.225,1.587-0.229c6.68-0.045,13.328-0.836,20-1c0.013,0,0.026,0.002,0.039,0.001
					C331.101,428.478,330.695,425.144,330.335,421.807z"/>
			</g>
		</g>
		<g>
			<g>
				<path class="st4" d="M304.152,359.602c-0.115,0.637-0.349,1.249-0.707,1.804c0.001,0.107,0.002,0.218,0.007,0.354
					c0.017,0.689,0.048,1.379,0.094,2.066c0.1,1.401,0.223,2.802,0.353,4.199c0.461-0.129,0.966-0.209,1.526-0.213
					c7.948-0.06,16.1-0.904,23.938,0.732v-8.061C320.967,359.962,312.561,359.702,304.152,359.602z"/>
			</g>
		</g>
		<g>
			<g>
				<path class="st4" d="M220.337,360.78c0.002,2.006,0.017,4.01,0.026,6.016c8.041-1.668,16.917-1.158,24.992-1.017
					c0.005-1.687,0.009-3.373,0.009-5.06c0-0.24,0.015-0.473,0.04-0.699C237.049,360.181,228.697,360.411,220.337,360.78z"/>
			</g>
		</g>
		<g>
			<g>
				<path class="st4" d="M309.565,243.181c-0.45-1.205-1.053-3.302-2.082-4.119c-1.799-1.429-9.376-4.35-11.432-2.088
					c-2.193,2.414-3.686,5.043-6.1,6.85c-0.126,0.539-0.338,1.079-0.65,1.609c0.038,0.031,0.066,0.052,0.114,0.092
					c0.839,0.698,3.25,1.908,4.666,2.293c4.615,1.254,9.793,1.865,13.956,0.102c1.621-0.688,1.928-1.09,2.042-2.365
					C310.06,245.772,309.825,243.877,309.565,243.181z"/>
			</g>
		</g>
		<g>
			<g>
				<path class="st4" d="M359.402,461.224c-0.341-0.123-0.644-0.27-0.925-0.43c-17.486,0.078-34.961,0.836-52.447,0.961
					c-0.38,5.465-0.342,11.555,5.851,12.09c8.22,0.711,16.36-1.863,24.548-2.016c6.942-0.128,13.925,0.983,20.849-0.018
					c2.923-0.423,5.531-0.902,5.836-4.279C363.38,464.588,362.154,462.218,359.402,461.224z"/>
			</g>
		</g>
		<g>
			<g>
				<path class="st4" d="M329.364,406.759v-4.978h-22.396c0.206,2.54,0.426,5.08,0.682,7.62c0.047,0.469,0.102,0.948,0.152,1.422
					c4.07,0.072,8.125,0.486,12.194,0.593c2.725,0.071,6.827,0.609,9.467-0.556C329.405,409.495,329.364,408.128,329.364,406.759z"
					/>
			</g>
		</g>
		<g>
			<g>
				<path class="st4" d="M220.439,378.118c0.024,2.584,0.054,5.168,0.084,7.754c6.582,2.457,15.208,1.943,21.902,0.939
					c0.937-0.141,1.759-0.062,2.471,0.172c0.038-0.643,0.08-1.283,0.106-1.928c0.113-2.779,0.183-5.559,0.236-8.338
					C237.167,376.499,228.136,375.911,220.439,378.118z"/>
			</g>
		</g>
		<g>
			<g>
				<path class="st4" d="M328.8,379.695c-7.372-1.867-15.009-0.971-22.527-0.914c-0.5,0.004-0.964-0.053-1.401-0.151
					c0.024,0.209,0.043,0.417,0.069,0.625c0.477,3.854,0.837,7.705,1.158,11.557h23.266V379.81
					C329.18,379.78,328.992,379.744,328.8,379.695z"/>
			</g>
		</g>
		<g>
			<g>
				<path class="st4" d="M343.575,238.963c-2.439,0.394-5.088,1.315-7.398,2.641c0.391,1.059,0.411,2.28-0.134,3.579
					c1.115,0.459,2.327,0.752,3.633,0.754c2.202,0.002,7.219-0.074,8.375-2.506C349.82,239.709,346.657,238.465,343.575,238.963z"/>
			</g>
		</g>
		<g>
			<g>
				<path class="st9" d="M108.457,332.989c-16.278,1.158-27.597,13.381-27.183,29.498c0.57-0.033,1.139-0.078,1.703-0.182
					c1.417-0.258,2.825-0.722,4.188-1.187c3.466-1.183,6.851-2.592,10.325-3.749c5.624-1.874,14.329-4.117,18.264,2.114
					c2.293,3.632,2.158,7.757,1.495,11.861c-0.435,2.689-2.132,5.333-3.433,7.667c-1.175,2.109-3.122,3.902-0.42,4.98
					c4.944,1.976,11.325-1.709,15.378-4.256c4.626-2.907,8.667-6.684,10.677-11.889
					C146.741,348.964,126.161,331.729,108.457,332.989z"/>
			</g>
		</g>
		<g>
			<g>
				<path class="st4" d="M118.272,312.781c-0.773,0.069-1.467-0.005-2.089-0.184c-1.533,3.077-2.998,6.187-4.307,9.368
					c7.402,0.222,14.725,2.316,20.921,6.412c1.028,0.68,2.027,1.395,2.998,2.137c2.913-3.342,4.361-7.749,5.366-12.404
					C134.212,314.78,126.041,312.079,118.272,312.781z"/>
			</g>
		</g>
		<g>
			<g>
				<path class="st4" d="M164.506,213.374c-4.474,1.537-8.019,5.641-10.769,9.794c4.067,0.446,8.052,1.39,11.695,3.21
					C165.074,222.048,164.705,217.718,164.506,213.374z"/>
			</g>
		</g>
		<g>
			<g>
				<path class="st4" d="M129.823,284.7c-0.284,0.749-0.578,1.494-0.887,2.236c-2.107,5.043-4.585,9.91-7.114,14.752
					c7.299,0.196,14.721,2.364,21.408,5.275c0.447-2.156,0.972-4.227,1.692-6.115c1.219-3.191,2.549-6.328,3.981-9.418
					C142.444,289.478,136.485,285.981,129.823,284.7z"/>
			</g>
		</g>
		<g>
			<g>
				<path class="st4" d="M247.411,467.772c-0.047,0.002-0.091,0.008-0.139,0.009c-7.34,0.076-14.661,1.094-22,1
					c-4.635-0.058-9.26-0.575-13.879-0.913c-4.997-0.363-10.254-0.868-15.238-0.107c-0.384,0.059-0.724,0.111-1.06,0.191
					c-0.143,0.175-0.741,0.686-1.012,1.377c-0.702,1.789-1.201,4.375-0.424,6.233c0.892,2.134,2.279,1.286,4.768,1.249
					c3.765-0.057,7.559,1.076,11.361,1.129c7.23,0.1,14.465-0.467,21.652-1.227c4.116-0.434,9.135-0.812,12.783-2.982
					C247.067,472.04,247.842,470.281,247.411,467.772z"/>
			</g>
		</g>
		<g>
			<g>
				<path class="st4" d="M163.8,264.695c-7.36-2.109-17.997-4.427-25.091-9.573c-2.271,6.227-3.787,12.687-5.547,19.072
					c6.501,1.525,12.334,4.93,18.737,6.703c0.747,0.207,1.381,0.527,1.919,0.921c0.09-0.159,0.171-0.323,0.262-0.482
					c1.562-2.757,3.251-5.351,5.151-7.89c1.104-1.475,2.97-3.385,3.219-5.199c0.22-1.602,0.958-2.711,1.941-3.413
					C164.198,264.798,164.001,264.753,163.8,264.695z"/>
			</g>
		</g>
		<g>
			<g>
				<path class="st4" d="M243.272,397.781c-7.044,1.058-15.278,1.249-22.601-0.476c0.045,3.197,0.093,6.395,0.141,9.592
					c0.872-0.31,1.905-0.352,3.086,0c5.762,1.717,11.611,0.973,17.527,0.914c0.463-0.004,0.897,0.041,1.307,0.125
					c0.35-3.437,0.777-6.859,1.176-10.283C243.704,397.705,243.492,397.75,243.272,397.781z"/>
			</g>
		</g>
		<g>
			<g>
				<path class="st4" d="M242.064,418.784c-6.775,0.084-13.667,0.876-20.265-1.089c-0.298-0.089-0.574-0.2-0.838-0.322
					c0.078,5.397,0.148,10.796,0.208,16.194c0.266-0.169,0.548-0.326,0.86-0.463c4.666-2.025,9.46-1.414,14.396-1.293
					c1.297,0.031,2.589,0.162,3.885,0.211c0.148,0.006,0.299,0.012,0.449,0.018c0.461-0.328,0.967-0.596,1.502-0.785
					C242.091,427.099,241.986,422.941,242.064,418.784z"/>
			</g>
		</g>
		<g>
			<g>
				<path class="st4" d="M166.37,243.538c-0.004-1.98-0.071-3.954-0.162-5.926c-1.657,0.367-3.454-0.125-4.99-1.184
					c-3.417-2.354-8.939-2.605-12.945-2.647c-0.158-0.001-0.309-0.015-0.461-0.027c-1.687,3.419-3.249,6.897-4.724,10.415
					c2.4,2.895,7.136,4.424,10.394,5.675c4.073,1.564,8.225,2.852,12.417,4.054c0.253,0.072,0.49,0.161,0.719,0.258
					C166.478,250.62,166.377,247.081,166.37,243.538z"/>
			</g>
		</g>
		<g>
			<g>
				<path class="st4" d="M242.847,443.024c-0.302,0.009-0.61,0.008-0.928-0.004c-4.925-0.183-11.155-1.746-16.251,0.467
					c-1.716,0.746-3.225,0.569-4.404-0.139c0.038,4.778,0.066,9.555,0.07,14.333c0.092,0.007,0.185,0.013,0.277,0.02
					c7.231,0.481,14.5-0.497,21.743-0.806C243.307,452.272,243.09,447.647,242.847,443.024z"/>
			</g>
		</g>
		<g>
			<g>
				<path class="st9" d="M449.337,329.563c-17.045,1.277-36.388,23.789-24.657,40.1c3.096,4.303,7.534,8.309,12.18,10.911
					c2.3,1.288,5.589,3.214,8.326,2.023c1.275-0.555,2.813-1.06,1.996-2.356c-4.329-6.867-13.562-13.148-9.242-22.46
					c3.562-7.677,13.863-11.358,21.866-9.47c4.489,1.061,7.049,3.672,9.935,7.102c1.227,1.459,2.965,4.296,4.844,4.806
					C475.158,345.587,466.107,328.306,449.337,329.563z"/>
			</g>
		</g>
		<g>
			<g>
				<path class="st7" d="M357.919,152.567c-0.611-10.465-0.424-20.981-1.397-31.426c-0.929-9.967-2.417-20.346-6.926-29.412
					c-3.99-8.021-11.276-10.67-19.826-11.277c-8.757-0.621-17.6,0.371-26.371,0.32c-13.017-0.075-26.029-0.409-39.04-0.812
					c-25.854-0.8-51.713-1.735-77.582-1.204c0.046,1.083,0.111,2.164,0.211,3.245c0.384,4.137,0.926,8.259,1.513,12.372
					c1.33,9.323,2.927,18.611,4.127,27.953c1.511,11.754,0.706,23.8,0.706,35.625c0,9.621,1.801,20.206,0.233,29.932
					c28.745,0.545,57.373,4.018,86.156,2.409c14.605-0.817,29.195-2.283,43.83-2.452c7.472-0.086,15.013-0.274,22.48-0.02
					c1.877,0.063,3.753,0.186,5.631,0.219c0.663,0.012,1.33,0.023,1.996,0.016c1.137-0.875,2.567-1.357,4.04-1.158
					C358.907,175.497,358.587,163.998,357.919,152.567z M250.601,137.439c-13.653,9.554-35.775-3.667-33.15-20.192
					c0.323-2.031,1.794-3.402,3.584-4.063c0.18-0.18,0.298-0.299,0.286-0.29c0.538-0.341,1.107-0.604,1.71-0.789
					c1.376-0.475,2.618-0.41,3.672,0.003c7.184-4.662,18.375-3.062,24.519,2.687C257.772,120.923,258.531,131.89,250.601,137.439z
					 M290.981,162.928c-5.621,6.347-15.312,3.965-22.709,3.854c-7.044-0.105-7.931-11.076-0.847-10.97
					c3.249,0.049,13.378,2.014,15.291-0.146C287.415,150.36,295.695,157.604,290.981,162.928z M331.024,124.21
					c-1.88,8.185-10.463,11.121-17.97,11.801c-6.874,0.621-15.378,0.532-21.652-2.787c-2.351-1.244-3.13-3.416-2.854-5.465
					c-1.526-1.409-2.139-3.569-0.626-5.91c2.712-4.197,5.04-9.818,9.707-12.268c4.75-2.492,10.009-3.439,15.344-2.98
					C322.044,107.382,333.591,113.036,331.024,124.21z"/>
			</g>
		</g>
		<g>
			<g>
				<path class="st4" d="M435.99,296.491c-3.353,2.951-8.552,4.873-11.891,6.392c-3.137,1.427-6.333,2.735-9.513,4.076
					c3.832,7.104,7.407,14.367,10.983,21.562c6.384-5.506,14.161-9.274,22.23-9.943C444.952,310.685,440.562,303.538,435.99,296.491
					z"/>
			</g>
		</g>
		<g>
			<g>
				<path class="st4" d="M425.794,280.22c-0.981-1.76-1.916-3.542-2.833-5.333c-6.259,4.743-14.262,7.151-20.273,12.427
					c0.245,0.344,0.494,0.683,0.733,1.033c2.006,2.938,3.904,5.952,5.733,9.014c3.063-1.298,6.151-2.545,9.184-3.901
					c2.543-1.14,5.118-2.262,7.534-3.655c0.958-0.554,1.942-1.102,2.823-1.775c0.085-0.064,0.158-0.119,0.222-0.163
					c0.002-0.007,0.002-0.01,0.005-0.017c0.185-0.482,0.413-0.896,0.668-1.261C428.274,284.488,426.995,282.372,425.794,280.22z"/>
			</g>
		</g>
		<g>
			<g>
				<path class="st4" d="M338.896,30.826c-1.582-0.207-9.819-1.164-9.081,2.417c0.465,2.259,0.251,4.205-0.634,5.777
					c0.457,0.101,0.914,0.207,1.375,0.324c3.752,0.959,7.673,2.491,10.26-1.343C343.015,34.741,343.481,31.427,338.896,30.826z"/>
			</g>
		</g>
		<g>
			<g>
				<path class="st4" d="M206.196,32.53c-2.675,2.08,6.015,8.189,8.23,8.281c0.583,0.024,1.121,0.127,1.62,0.285
					C223.017,37.746,210.537,29.154,206.196,32.53z"/>
			</g>
		</g>
		<g>
			<g>
				<path class="st4" d="M243.184,122.437c-3.164-2.194-8.078-3.015-11.259-0.58c-1.071,0.819-2.16,1.152-3.182,1.127
					c2.208,5.012,10.288,8.096,14.96,5.869C246.767,127.394,245.306,123.907,243.184,122.437z"/>
			</g>
		</g>
		<g>
			<g>
				<path class="st4" d="M320.182,121.584c-0.023-0.146-0.561-1.815-0.536-1.794c-2.072-1.724-5.732-2.33-8.365-2.357
					c-2.664-0.027-6.079-0.008-8.38,1.846c-1.602,1.289-2.7,3.232-3.75,5.113c2.868,0.715,6.506,0.954,9.479,0.863
					c3.373-0.104,9.596-0.236,11.602-2.98C320.311,122.168,320.298,122.289,320.182,121.584z"/>
			</g>
		</g>
		<g>
			<g>
				<path class="st4" d="M398.64,233.198c-0.513,0.521-1.165,0.965-1.972,1.289c-3.497,1.408-7.285,2.871-10.536,4.986
					c-0.256,2.298-1.826,4.308-4.86,4.308h-0.62c0.395,6.048,0.84,12.093,1.286,18.138c0.013,0.01,0.022,0.023,0.035,0.034
					c2.546-2.91,5.702-5.429,8.452-7.673c4.892-3.991,10.093-7.582,15.03-11.508C403.327,239.472,401.061,236.261,398.64,233.198z"
					/>
			</g>
		</g>
		<g>
			<g>
				<path class="st7" d="M373.364,321.72c-0.001-12.016,0.02-24.06-0.857-36.051c-1.689-23.097-3.771-46.386-4.082-69.568
					c-14.248-1.293-28.737-0.391-43.002-0.303c-17.553,0.107-35.099,0.583-52.65,0.827c-17.246,0.24-34.397,0.065-51.604-1.23
					c-15.23-1.147-30.434-2.679-45.691-3.421c0.286,5.414,0.932,10.789,1.393,16.199c0.522,6.129,0.43,12.236,0.49,18.381
					c0.121,12.567,1.407,25.068,1.235,37.638c-0.182,13.281-1.116,26.541-1.237,39.823c-0.086,9.463-0.496,18.674-2.778,27.734
					c14.379-0.249,28.746-1.182,43.107-1.865c17.806-0.848,35.575-1.007,53.396-1.175c19.305-0.181,38.623-0.387,57.904,0.796
					c13.659,0.838,28.974,3.623,42.543,0.038c0.045-0.548,0.168-1.114,0.392-1.694C374.992,339.907,373.365,330.031,373.364,321.72z
					 M324.717,236.665c5.823-5.527,15.512-10.316,23.754-8.592c9.089,1.902,13.962,12.718,9.071,20.855
					c-4.211,7.006-14.084,9.086-21.643,7.594c-6.571-1.298-12.587-6.179-11.093-12.763
					C322.886,241.935,322.224,239.032,324.717,236.665z M279.471,240.638c-0.323-2.286,0.674-4.661,3.56-5.533
					c2.299-0.694,3.712-4.475,5.548-6.088c2.719-2.39,6.254-3.586,9.891-3.455c6.985,0.254,15.261,2.041,18.94,8.659
					c4.765,8.572,5.336,18.837-4.696,23.615C301.909,262.979,270.589,256.796,279.471,240.638z M358.272,341.781
					c-15.333,0.202-30.965,5.138-45.871-0.558c-2.769-1.059-3.51-3.396-2.96-5.573c-1.415-1.416-1.948-3.522-0.52-5.802
					c1.692-2.699,1.152-6.773,0.993-9.816c-0.21-4.029-0.35-8.073-0.587-12.098c-0.625-10.584-4.729-20.594-4.963-31.215
					c-0.049-2.227,1.005-3.838,2.477-4.779c0.613-1.744,2.114-3.098,4.585-3.129c13.749-0.174,27.215-3.769,41-3
					c3.136,0.175,5.466,1.787,5.908,5.062c2.916,21.568,4.942,43.22,5,65C363.342,338.716,361.428,341.739,358.272,341.781z"/>
			</g>
		</g>
		<g>
			<g>
				<path class="st5" d="M348.008,276.686c-10.857,0.173-21.562,2.451-32.413,2.985c0.509,4.788,1.667,9.424,2.686,14.175
					c1.217,5.678,1.81,11.132,2.102,16.919c0.325,6.425,2.03,14.998-0.38,21.461c10.17,2.719,21.688-0.154,32.285-1.124
					C351.962,312.885,350.33,294.755,348.008,276.686z"/>
			</g>
		</g>
		<g>
			<g>
				<path class="st4" d="M412.561,254.573c-0.45-0.785-0.907-1.571-1.364-2.36c-4.167,3.27-8.529,6.29-12.663,9.604
					c-2.852,2.286-8.494,6.328-9.978,9.645c0.699,0.725,1.408,1.441,2.125,2.152c1.755,1.741,3.458,3.479,5.1,5.257
					c3.459-2.827,7.273-5.017,11.261-7.144c3.333-1.776,8.267-3.698,10.992-6.734C416.292,261.48,414.513,257.985,412.561,254.573z"
					/>
			</g>
		</g>
		<g>
			<g>
				<path class="st4" d="M379.444,218.003c0.093,4.204,0.254,8.406,0.455,12.608c3.531-2.322,7.385-4.131,11.318-5.762
					C387.889,221.528,383.673,218.062,379.444,218.003z"/>
			</g>
		</g>
		<g>
			<g>
				<path d="M368.99,153.528c-0.598-11.592-0.566-23.24-1.644-34.803c-1.012-10.865-3.091-22.037-7.982-31.871
					c-4.442-8.932-11.575-14.069-21.225-16.309c-8.756-2.033-18.133-1.162-27.023-0.832c-2.227,0.084-4.458,0.126-6.689,0.152
					c1.94-3.271,5.797-5.994,8.214-8.502c2.839-2.945,5.401-11.344,9.748-12.086c4.497-0.767,9.437,2.14,14.015,2.225
					c6.16,0.113,11.423-3.412,14.374-8.76c5.741-10.405,1.151-21.283-10.979-22.872c-4.852-0.636-10.703-0.452-14.955,2.154
					c-2.418,1.481-4.432,4.497-5.383,7.085c-0.459,1.248-0.801,2.639-0.692,3.99c0.002,0.145,0.022,0.286,0.033,0.43
					c-1.426,1.533-1.625,3.737-0.938,5.619c-4.514,1.414-7.252,5.805-9.688,9.525c-2.579,3.938-5.397,7.275-8.815,10.516
					c-3.183,3.018-5.925,6.314-6.715,10.625c-7.103-0.131-14.208-0.393-21.284-0.592c-8.18-0.229-16.359-0.492-24.538-0.74
					c-0.375-1.203-1.18-2.314-2.524-3.114c-7.016-4.173-14.194-10.589-19.104-17.633c4.437-4.317,5.561-10.276,1.717-16.766
					c-4.628-7.813-14.676-11.464-23.193-9.311c-7.943,2.008-10.262,10.801-7.213,17.599c2.403,5.357,6.792,9.257,12.052,11.184
					c0.933,0.816,2.178,1.339,3.718,1.339h2.406c3.653,5.966,8.841,11.532,14.507,16.217c-14.916-0.355-29.835-0.527-44.759-0.187
					c-1.484,0.033-2.616,0.545-3.419,1.325c-1.135,0.118-2.274,0.588-3.29,1.528c-4.096,3.792-1.586,13.779-1.012,18.424
					c1.225,9.898,2.904,19.735,4.334,29.604c1.479,10.21,1.325,20.209,1.325,30.531c0,7.505-0.133,15.006,0.304,22.501
					c0.333,5.715,1.342,12.629-0.747,18.123c-1.001,2.635-0.023,5.002,1.669,6.473c0.952,1.424,2.527,2.453,4.681,2.46
					c17.133,0.055,34.215,1.387,51.316,2.292c17.524,0.929,34.887,0.666,52.39-0.528c17.465-1.19,34.789-1.764,52.294-1.764
					c4.158,0,8.439,0.616,12.574,0.089c2.337-0.299,4.185-1.629,5.165-3.35c2.748,0.622,5.787-0.573,6.237-4.175
					C369.819,178.79,369.64,166.141,368.99,153.528z M329.816,33.243c-0.738-3.581,7.499-2.624,9.081-2.417
					c4.584,0.601,4.119,3.915,1.919,7.176c-2.587,3.834-6.508,2.302-10.26,1.343c-0.46-0.117-0.918-0.224-1.375-0.324
					C330.067,37.448,330.281,35.502,329.816,33.243z M216.045,41.097c-0.499-0.158-1.037-0.261-1.62-0.285
					c-2.215-0.092-10.905-6.201-8.23-8.281C210.537,29.154,223.017,37.746,216.045,41.097z M357.7,186.897
					c-1.473-0.199-2.903,0.283-4.04,1.158c-0.666,0.008-1.333-0.004-1.996-0.016c-1.878-0.033-3.754-0.155-5.631-0.219
					c-7.468-0.255-15.008-0.066-22.48,0.02c-14.635,0.169-29.225,1.635-43.83,2.452c-28.783,1.608-57.411-1.864-86.156-2.409
					c1.568-9.726-0.233-20.311-0.233-29.932c0-11.825,0.805-23.871-0.706-35.625c-1.2-9.342-2.798-18.63-4.127-27.953
					c-0.587-4.113-1.129-8.235-1.513-12.372c-0.1-1.081-0.165-2.162-0.211-3.245c25.869-0.531,51.728,0.404,77.582,1.204
					c13.01,0.402,26.022,0.736,39.04,0.812c8.771,0.051,17.614-0.941,26.371-0.32c8.55,0.607,15.836,3.257,19.826,11.277
					c4.509,9.066,5.998,19.445,6.926,29.412c0.973,10.444,0.786,20.961,1.397,31.426C358.587,163.998,358.907,175.497,357.7,186.897
					z"/>
			</g>
		</g>
		<g>
			<g>
				<path d="M251.221,114.794c-6.144-5.748-17.334-7.349-24.519-2.687c-1.054-0.413-2.296-0.478-3.672-0.003
					c-0.603,0.186-1.172,0.448-1.71,0.789c0.012-0.009-0.106,0.11-0.286,0.29c-1.79,0.661-3.261,2.032-3.584,4.063
					c-2.625,16.525,19.497,29.746,33.15,20.192C258.531,131.89,257.772,120.923,251.221,114.794z M243.703,128.853
					c-4.672,2.227-12.752-0.857-14.96-5.869c1.022,0.025,2.11-0.308,3.182-1.127c3.181-2.435,8.096-1.614,11.259,0.58
					C245.306,123.907,246.767,127.394,243.703,128.853z"/>
			</g>
		</g>
		<g>
			<g>
				<path d="M312.973,106.601c-5.335-0.459-10.595,0.488-15.344,2.98c-4.667,2.449-6.995,8.07-9.707,12.268
					c-1.512,2.341-0.9,4.501,0.626,5.91c-0.277,2.049,0.502,4.221,2.854,5.465c6.273,3.319,14.778,3.408,21.652,2.787
					c7.507-0.68,16.09-3.616,17.97-11.801C333.591,113.036,322.044,107.382,312.973,106.601z M320.232,122.274
					c-2.005,2.744-8.229,2.877-11.602,2.98c-2.973,0.091-6.612-0.148-9.479-0.863c1.05-1.881,2.148-3.824,3.75-5.113
					c2.301-1.854,5.716-1.873,8.38-1.846c2.633,0.027,6.293,0.634,8.365,2.357c-0.025-0.021,0.512,1.648,0.536,1.794
					C320.298,122.289,320.311,122.168,320.232,122.274z"/>
			</g>
		</g>
		<g>
			<g>
				<path d="M282.717,155.665c-1.913,2.16-12.042,0.195-15.291,0.146c-7.084-0.106-6.197,10.864,0.847,10.97
					c7.397,0.111,17.088,2.493,22.709-3.854C295.695,157.604,287.415,150.36,282.717,155.665z"/>
			</g>
		</g>
		<g>
			<g>
				<path d="M459.288,319.812c0.079-0.723,0.011-1.504-0.247-2.334c-4.95-15.934-15.925-29.117-24.127-43.41
					c-5.322-9.271-9.443-19.186-14.852-28.443c-6.043-10.342-12.897-20.472-21.492-28.881c-5.214-5.102-12.23-9.77-19.597-9.734
					c-0.912-0.734-2.099-1.197-3.547-1.197h-0.234c-15.493-1.98-31.146-1.014-46.716-0.998c-17.553,0.016-35.102,0.492-52.65,0.781
					c-17.559,0.291-35.034,0.279-52.558-0.998c-17.617-1.284-35.184-3.11-52.842-3.785c-1.383-0.053-2.444,0.34-3.23,0.983
					c-0.249-0.009-0.503-0.007-0.77,0.017c-19.407,1.694-28.676,26.19-34.879,41.539c-1.548,3.83-3.011,7.695-4.625,11.498
					c-2.903,6.846-3.786,14.863-5.967,21.988c-4.641,15.156-14.456,28.214-20.033,43.012c-0.431,1.143-0.484,2.233-0.275,3.225
					c-5.924,1.365-11.546,3.951-16.282,7.708c-10.378,8.23-14.866,20.946-14,33.938c0.124,1.859,0.977,3.166,2.153,3.963
					c0.284,1.414,1.179,2.72,2.885,3.541c6.558,3.156,14.312-0.244,20.578-2.594c2.992-1.123,6.07-2.477,9.224-3.076
					c0.491-0.094,1.106-0.117,1.546-0.144c0.016,0.182,0.021,0.403,0.001,0.688c-0.336,5.037-4.554,9.161-5.711,14.103
					c-1.404,5.992,3.519,11.073,8.633,13.115c10.994,4.394,24.148-3.602,32.055-10.705c8.346-7.5,11.671-19.541,9.301-30.334
					c-1.256-5.719-3.835-10.748-7.326-15.102c7.753-8.071,8.229-21.533,10.93-31.785c1.851-7.022,5.791-13.855,9.301-20.16
					c0.998-1.793,2.344-3.55,3.705-5.333c0,0.112,0.004,0.226,0.005,0.339c0.057,11.995-0.714,23.983-1.091,35.969
					c-0.375,11.929,0.425,24.194-3.631,35.645c-0.73,2.062-0.276,3.963,0.767,5.4c0.547,2.395,2.458,4.54,5.583,4.532
					c13.374-0.032,26.738-0.769,40.094-1.464c0.03,31.854,0.938,63.698,0.99,95.553c-3.215-0.219-6.433-0.383-9.661-0.391
					c-6.718-0.018-12.089,0.999-15.933,6.898c-3.967,6.09-3.254,16.176,2.016,21.225c2.264,2.17,4.921,3.17,8.036,3.239
					c4.674,0.103,9.271,0.837,13.954,1.002c9.216,0.326,18.627-0.356,27.753-1.689c6.132-0.896,12.601-2.564,17.277-6.852
					c5.462-5.007,5.644-12.237,3.24-18.825c-0.589-1.615-1.649-2.621-2.88-3.129c0.111-0.459,0.176-0.947,0.173-1.476
					c-0.09-16.222-2.388-32.425-0.624-48.623c1.762-16.187,2.623-32.08,2.624-48.377c0,0-0.001-0.015-0.001-0.022
					c5.196-0.067,10.394-0.124,15.597-0.172c6.861-0.062,13.725-0.127,20.588-0.135c-0.41,3.246,0.189,6.97,0.437,9.624
					c0.927,9.94,2.344,19.843,3.116,29.8c0.683,8.799,1.385,17.588,2.101,26.393c0.643,7.91,1.449,17.174-2.25,24.488
					c-0.976,1.932-0.736,3.723,0.155,5.105c-0.435,0.777-0.7,1.7-0.712,2.766c-0.123,10.232-1.027,22.914,11.317,26.303
					c10.812,2.969,22.174-1.508,33.096-1.212c8.912,0.241,21.783,2.477,29.147-3.954c8.437-7.367,6.253-23.557-4.628-27.487
					c-0.429-0.155-0.851-0.256-1.263-0.313c-0.92-0.762-2.126-1.246-3.607-1.244c-5.354,0.009-10.707,0.09-16.059,0.199
					c0.666-14.776-3.033-29.326-3.033-44.1v-44.618c13.187,1.077,26.964,2.022,39.334-2.806c3.606-1.406,4.156-5.158,2.832-7.843
					c2.572-8.227,2.045-17.172,1.881-25.698c-0.232-12.084-0.027-24.15-0.661-36.227c-0.121-2.302-0.263-4.606-0.405-6.91
					c3.44,3.643,7.017,7.201,10.001,11.293c2.406,3.299,4.645,6.737,6.766,10.263c-1.207,3.433,0.85,7.768,4.391,7.692
					c4.31,7.923,8.21,16.108,12.185,24.058c0.346,0.692,0.786,1.259,1.284,1.721c-3.903,5.401-6.615,11.517-7.565,17.678
					c-1.827,11.845,4.446,22.515,13.216,29.927c9.104,7.691,22.602,14.439,32.258,3.661c8.463-9.446-4.146-17.11-7.811-24.624
					c-1.641-3.363,6.063-4.48,7.771-4.565c1.007-0.05,1.996,0.222,2.964,0.45c-1.81-0.428-0.154,0.12,0.592,0.83
					c1.894,1.801,3.464,4.002,5.21,5.945c3.847,4.281,9.522,6.977,15.091,4.35c1.058-0.498,1.835-1.207,2.375-2.021
					c1.644-0.486,2.967-1.804,3.206-4.12c0.184-1.791,0.274-3.587,0.27-5.376v-0.007
					C485.478,341.656,476.649,324.994,459.288,319.812z M164.506,213.374c0.199,4.344,0.568,8.674,0.927,13.004
					c-3.644-1.82-7.628-2.764-11.695-3.21C156.487,219.015,160.032,214.911,164.506,213.374z M139.45,367.849
					c-2.009,5.205-6.05,8.981-10.677,11.889c-4.054,2.547-10.434,6.231-15.378,4.256c-2.702-1.078-0.755-2.871,0.42-4.98
					c1.301-2.334,2.999-4.978,3.433-7.667c0.663-4.104,0.798-8.229-1.495-11.861c-3.935-6.231-12.641-3.988-18.264-2.114
					c-3.474,1.157-6.859,2.566-10.325,3.749c-1.363,0.465-2.771,0.929-4.188,1.187c-0.563,0.104-1.132,0.148-1.703,0.182
					c-0.414-16.117,10.905-28.34,27.183-29.498C126.161,331.729,146.741,348.964,139.45,367.849z M135.796,330.515
					c-0.971-0.742-1.97-1.457-2.998-2.137c-6.197-4.096-13.519-6.19-20.921-6.412c1.31-3.182,2.774-6.291,4.307-9.368
					c0.622,0.179,1.315,0.253,2.089,0.184c7.769-0.702,15.94,1.999,22.889,5.329C140.157,322.766,138.708,327.173,135.796,330.515z
					 M144.922,300.849c-0.721,1.889-1.245,3.959-1.692,6.115c-6.687-2.911-14.109-5.079-21.408-5.275
					c2.529-4.842,5.007-9.709,7.114-14.752c0.31-0.742,0.604-1.487,0.887-2.236c6.662,1.281,12.621,4.777,19.08,6.73
					C147.471,294.521,146.141,297.657,144.922,300.849z M162.45,268.247c-0.249,1.814-2.115,3.725-3.219,5.199
					c-1.9,2.539-3.589,5.133-5.151,7.89c-0.09,0.159-0.172,0.323-0.262,0.482c-0.539-0.394-1.172-0.714-1.919-0.921
					c-6.403-1.773-12.235-5.178-18.737-6.703c1.76-6.386,3.276-12.846,5.547-19.072c7.095,5.146,17.731,7.464,25.091,9.573
					c0.202,0.058,0.398,0.103,0.592,0.139C163.408,265.536,162.67,266.646,162.45,268.247z M165.898,253.897
					c-4.192-1.202-8.344-2.489-12.417-4.054c-3.257-1.251-7.993-2.78-10.394-5.675c1.475-3.518,3.037-6.996,4.724-10.415
					c0.152,0.013,0.303,0.026,0.461,0.027c4.006,0.042,9.529,0.294,12.945,2.647c1.536,1.059,3.333,1.551,4.99,1.184
					c0.091,1.972,0.158,3.945,0.162,5.926c0.007,3.543,0.108,7.082,0.248,10.617C166.389,254.059,166.152,253.97,165.898,253.897z
					 M244.222,473.731c-3.648,2.17-8.667,2.549-12.783,2.982c-7.187,0.76-14.422,1.326-21.652,1.227
					c-3.802-0.053-7.596-1.186-11.361-1.129c-2.488,0.037-3.875,0.885-4.768-1.249c-0.777-1.858-0.277-4.444,0.424-6.233
					c0.271-0.691,0.87-1.202,1.012-1.377c0.336-0.08,0.676-0.133,1.06-0.191c4.984-0.761,10.242-0.256,15.238,0.107
					c4.619,0.338,9.245,0.855,13.879,0.913c7.339,0.094,14.66-0.924,22-1c0.048-0.001,0.092-0.007,0.139-0.009
					C247.842,470.281,247.067,472.04,244.222,473.731z M242.262,431.255c-0.536,0.189-1.041,0.457-1.502,0.785
					c-0.149-0.006-0.3-0.012-0.449-0.018c-1.295-0.049-2.588-0.18-3.885-0.211c-4.935-0.121-9.729-0.732-14.396,1.293
					c-0.312,0.137-0.594,0.294-0.86,0.463c-0.061-5.398-0.131-10.797-0.208-16.194c0.264,0.122,0.54,0.233,0.838,0.322
					c6.597,1.965,13.49,1.173,20.265,1.089C241.986,422.941,242.091,427.099,242.262,431.255z M225.668,443.487
					c5.096-2.213,11.326-0.649,16.251-0.467c0.318,0.012,0.626,0.013,0.928,0.004c0.243,4.623,0.459,9.248,0.506,13.871
					c-7.243,0.309-14.512,1.287-21.743,0.806c-0.092-0.007-0.185-0.013-0.277-0.02c-0.003-4.778-0.032-9.555-0.07-14.333
					C222.443,444.057,223.952,444.233,225.668,443.487z M242.732,407.937c-0.409-0.084-0.844-0.129-1.307-0.125
					c-5.916,0.059-11.765,0.803-17.527-0.914c-1.181-0.352-2.214-0.31-3.086,0c-0.048-3.197-0.096-6.395-0.141-9.592
					c7.323,1.725,15.557,1.533,22.601,0.476c0.22-0.031,0.432-0.076,0.636-0.128C243.51,401.077,243.083,404.5,242.732,407.937z
					 M242.426,386.812c-6.693,1.004-15.32,1.518-21.902-0.939c-0.03-2.586-0.061-5.17-0.084-7.754
					c7.697-2.207,16.727-1.619,24.799-1.4c-0.053,2.779-0.123,5.559-0.236,8.338c-0.026,0.645-0.069,1.285-0.106,1.928
					C244.185,386.749,243.363,386.671,242.426,386.812z M220.363,366.796c-0.009-2.006-0.023-4.01-0.026-6.016
					c8.359-0.369,16.712-0.6,25.067-0.76c-0.025,0.227-0.04,0.459-0.04,0.699c0,1.687-0.003,3.373-0.009,5.06
					C237.28,365.638,228.404,365.128,220.363,366.796z M303.547,363.825c-0.046-0.688-0.078-1.377-0.094-2.066
					c-0.005-0.136-0.006-0.246-0.007-0.354c0.358-0.555,0.592-1.167,0.707-1.804c8.409,0.101,16.815,0.36,25.212,0.882v8.061
					c-7.839-1.637-15.99-0.792-23.938-0.732c-0.56,0.004-1.064,0.084-1.526,0.213C303.77,366.627,303.647,365.227,303.547,363.825z
					 M331.426,431.812c-6.672,0.164-13.32,0.955-20,1c-0.584,0.004-1.11,0.088-1.587,0.229c-0.071-3.747-0.393-7.523-0.788-11.238
					c6.98,0.176,14.423,1.471,21.284,0.005c0.36,3.337,0.766,6.671,1.13,10.006C331.452,431.813,331.439,431.812,331.426,431.812z
					 M332.272,442.781c0.032-0.001,0.062-0.005,0.093-0.007c0.112,2.49,0.147,4.984,0.054,7.486
					c-8.319,0.206-16.637,0.424-24.958,0.51c0.878-2.502,1.464-5.103,1.841-7.765c0.818,0.489,1.809,0.783,2.969,0.775
					C318.953,443.736,325.6,442.945,332.272,442.781z M319.996,411.416c-4.069-0.106-8.124-0.521-12.194-0.593
					c-0.051-0.474-0.105-0.953-0.152-1.422c-0.255-2.54-0.476-5.08-0.682-7.62h22.396v4.978c0,1.369,0.041,2.736,0.098,4.102
					C326.822,412.025,322.72,411.487,319.996,411.416z M304.872,378.63c0.437,0.099,0.901,0.155,1.401,0.151
					c7.518-0.057,15.156-0.953,22.527,0.914c0.192,0.049,0.38,0.085,0.564,0.114v11.002h-23.266
					c-0.32-3.852-0.681-7.703-1.158-11.557C304.915,379.047,304.896,378.839,304.872,378.63z M358.477,460.794
					c0.281,0.16,0.584,0.307,0.925,0.43c2.752,0.994,3.979,3.364,3.712,6.309c-0.306,3.377-2.914,3.856-5.836,4.279
					c-6.924,1.001-13.907-0.11-20.849,0.018c-8.188,0.152-16.328,2.727-24.548,2.016c-6.193-0.535-6.231-6.625-5.851-12.09
					C323.515,461.63,340.99,460.872,358.477,460.794z M371.922,347.849c-0.224,0.58-0.347,1.146-0.392,1.694
					c-13.569,3.585-28.884,0.8-42.543-0.038c-19.281-1.183-38.599-0.977-57.904-0.796c-17.821,0.168-35.59,0.327-53.396,1.175
					c-14.361,0.684-28.728,1.616-43.107,1.865c2.282-9.061,2.691-18.271,2.778-27.734c0.121-13.282,1.055-26.542,1.237-39.823
					c0.172-12.569-1.114-25.07-1.235-37.638c-0.06-6.145,0.032-12.252-0.49-18.381c-0.46-5.41-1.107-10.785-1.393-16.199
					c15.257,0.742,30.46,2.273,45.691,3.421c17.207,1.296,34.358,1.471,51.604,1.23c17.551-0.244,35.097-0.72,52.65-0.827
					c14.265-0.088,28.754-0.99,43.002,0.303c0.312,23.183,2.393,46.472,4.082,69.568c0.877,11.991,0.856,24.035,0.857,36.051
					C373.365,330.031,374.992,339.907,371.922,347.849z M379.444,218.003c4.229,0.059,8.445,3.525,11.773,6.847
					c-3.933,1.631-7.787,3.439-11.318,5.762C379.698,226.409,379.537,222.207,379.444,218.003z M381.974,261.953
					c-0.013-0.011-0.022-0.024-0.035-0.034c-0.446-6.045-0.891-12.09-1.286-18.138h0.62c3.034,0,4.604-2.01,4.86-4.308
					c3.251-2.115,7.039-3.578,10.536-4.986c0.807-0.324,1.459-0.768,1.972-1.289c2.421,3.062,4.688,6.273,6.816,9.574
					c-4.938,3.926-10.139,7.517-15.03,11.508C387.676,256.524,384.52,259.043,381.974,261.953z M395.781,278.871
					c-1.641-1.778-3.345-3.516-5.1-5.257c-0.717-0.711-1.426-1.428-2.125-2.152c1.484-3.316,7.126-7.358,9.978-9.645
					c4.134-3.314,8.497-6.335,12.663-9.604c0.457,0.789,0.914,1.575,1.364,2.36c1.953,3.412,3.731,6.907,5.473,10.42
					c-2.725,3.036-7.659,4.958-10.992,6.734C403.054,273.854,399.24,276.044,395.781,278.871z M403.42,288.347
					c-0.24-0.351-0.489-0.689-0.733-1.033c6.012-5.275,14.014-7.684,20.273-12.427c0.917,1.791,1.852,3.573,2.833,5.333
					c1.201,2.152,2.48,4.269,3.796,6.368c-0.255,0.364-0.483,0.778-0.668,1.261c-0.002,0.007-0.003,0.01-0.005,0.017
					c-0.064,0.044-0.137,0.099-0.222,0.163c-0.881,0.674-1.864,1.222-2.823,1.775c-2.417,1.394-4.991,2.516-7.534,3.655
					c-3.033,1.356-6.121,2.604-9.184,3.901C407.325,294.299,405.427,291.284,403.42,288.347z M414.585,306.959
					c3.181-1.341,6.376-2.649,9.513-4.076c3.339-1.519,8.539-3.44,11.891-6.392c4.572,7.047,8.962,14.193,11.81,22.086
					c-8.069,0.669-15.847,4.438-22.23,9.943C421.992,321.326,418.417,314.063,414.585,306.959z M474.585,360.219
					c-1.879-0.51-3.617-3.347-4.844-4.806c-2.885-3.43-5.446-6.041-9.935-7.102c-8.003-1.889-18.305,1.793-21.866,9.47
					c-4.32,9.312,4.913,15.593,9.242,22.46c0.818,1.297-0.721,1.802-1.996,2.356c-2.737,1.19-6.026-0.735-8.326-2.023
					c-4.646-2.603-9.084-6.608-12.18-10.911c-11.731-16.311,7.612-38.822,24.657-40.1
					C466.107,328.306,475.158,345.587,474.585,360.219z"/>
			</g>
		</g>
		<g>
			<g>
				<path d="M317.409,234.221c-3.679-6.618-11.955-8.405-18.94-8.659c-3.637-0.131-7.171,1.065-9.891,3.455
					c-1.836,1.613-3.249,5.394-5.548,6.088c-2.886,0.872-3.882,3.247-3.56,5.533c-8.882,16.158,22.438,22.342,33.242,17.198
					C322.745,253.058,322.173,242.793,317.409,234.221z M308.037,247.919c-4.163,1.764-9.341,1.152-13.956-0.102
					c-1.416-0.385-3.827-1.595-4.666-2.293c-0.048-0.04-0.076-0.061-0.114-0.092c0.312-0.53,0.524-1.07,0.65-1.609
					c2.414-1.807,3.906-4.436,6.1-6.85c2.056-2.262,9.633,0.659,11.432,2.088c1.028,0.817,1.631,2.914,2.082,4.119
					c0.26,0.696,0.495,2.592,0.514,2.373C309.965,246.829,309.658,247.231,308.037,247.919z"/>
			</g>
		</g>
		<g>
			<g>
				<path d="M348.471,228.073c-8.243-1.725-17.932,3.064-23.754,8.592c-2.493,2.367-1.831,5.27,0.09,7.095
					c-1.495,6.584,4.522,11.465,11.093,12.763c7.559,1.492,17.431-0.588,21.643-7.594
					C362.434,240.791,357.561,229.976,348.471,228.073z M348.05,243.431c-1.155,2.432-6.172,2.508-8.375,2.506
					c-1.306-0.002-2.518-0.295-3.633-0.754c0.544-1.299,0.525-2.521,0.134-3.579c2.31-1.325,4.959-2.247,7.398-2.641
					C346.657,238.465,349.82,239.709,348.05,243.431z"/>
			</g>
		</g>
		<g>
			<g>
				<path d="M358.334,270.873c-0.442-3.274-2.772-4.887-5.908-5.062c-13.785-0.769-27.251,2.826-41,3
					c-2.471,0.031-3.972,1.385-4.585,3.129c-1.472,0.941-2.526,2.553-2.477,4.779c0.234,10.621,4.339,20.631,4.963,31.215
					c0.238,4.024,0.377,8.068,0.587,12.098c0.159,3.043,0.699,7.117-0.993,9.816c-1.428,2.279-0.895,4.386,0.52,5.802
					c-0.55,2.178,0.191,4.515,2.96,5.573c14.905,5.695,30.538,0.76,45.871,0.558c3.156-0.042,5.069-3.065,5.062-5.908
					C363.276,314.093,361.25,292.441,358.334,270.873z M320.002,332.226c2.41-6.463,0.705-15.036,0.38-21.461
					c-0.292-5.787-0.884-11.241-2.102-16.919c-1.019-4.751-2.177-9.387-2.686-14.175c10.851-0.534,21.556-2.812,32.413-2.985
					c2.321,18.069,3.954,36.199,4.279,54.416C341.691,332.071,330.172,334.944,320.002,332.226z"/>
			</g>
		</g>
	</g>
</g>
</svg>
