<?xml version="1.0" encoding="utf-8"?>
<!-- Generator: Adobe Illustrator 16.0.3, SVG Export Plug-In . SVG Version: 6.00 Build 0)  -->
<!DOCTYPE svg PUBLIC "-//W3C//DTD SVG 1.1//EN" "http://www.w3.org/Graphics/SVG/1.1/DTD/svg11.dtd">
<svg version="1.1" id="Layer_1" xmlns="http://www.w3.org/2000/svg" xmlns:xlink="http://www.w3.org/1999/xlink" x="0px" y="0px"
	 width="512px" height="512px" viewBox="0 0 512 512" style="enable-background:new 0 0 512 512;" xml:space="preserve">
<style type="text/css">
<![CDATA[
	.st0{fill:#127274;}
	.st1{fill:#14B6B9;}
	.st2{fill:#EF4754;}
	.st3{fill:#EF4823;}
	.st4{fill:#BCBCBC;}
	.st5{fill:#FEBF10;}
	.st6{fill:#010101;}
	.st7{fill:#D6E5E5;}
	.st8{fill:#71C598;}
	.st9{fill:#74CCCF;}
]]>
</style>
<g>
	<g>
		<g>
			<path class="st5" d="M231.939,196.332c-1.901-9.559-3.993-20.58-9.43-28.869c-5.722-8.727-13.444-15.994-22.28-21.537
				c-3.602-2.26-7.454-4.262-11.357-5.953c-1.965-0.85-6.621-3.406-8.727-2.025c-2.465,1.613-4.965,0.982-6.624-0.582
				c-9.04,8.449-14.003,24.068-13.495,35.965c0.548,12.889,5.77,26.027,14.908,35.287c8.889,9.006,19.54,12.855,31.939,14.447
				c9.378,1.205,20.926,1.855,29.868-2.398C234.847,212.617,233.552,204.441,231.939,196.332z"/>
		</g>
	</g>
	<g>
		<g>
			<path class="st8" d="M322.065,49.799c-37.123-20.449-87.944-20.646-125.449-0.779c-21.277,11.271-39.519,29.467-52.142,49.885
				c-13.329,21.559-21.753,46.594-16.921,72.059c0.578,3.047-1.192,4.906-3.479,5.461c-0.343,3.932-0.684,7.863-0.34,11.793
				c0.506,5.775,1.534,11.449,3.428,16.941c3.67,10.645,9.444,20.289,16.531,29.016c15.208,18.727,34.867,34.967,54.838,48.381
				c18.604,12.496,42.064,25.596,65.208,24.902c20.323-0.609,38.989-9.885,54.595-22.475
				c35.521-28.656,59.753-72.361,59.192-118.465C377.002,123.322,362.441,72.041,322.065,49.799z M265.511,239.75
				c1.049,3.402,2.678,6.492,3.5,10c0.68,2.895-0.34,5.961-2.951,7.01c-2.334,0.938-5.456-0.479-6.135-3.373
				c-0.822-3.506-2.453-6.596-3.5-10C254.358,236.682,263.45,233.064,265.511,239.75z M249.634,238.17
				c2.323,0.516,4.639,3.596,3.807,6.447l-2.625,9c-0.829,2.844-2.815,4.979-5.643,4.35c-2.322-0.516-4.639-3.596-3.806-6.449
				l2.625-9C244.821,239.676,246.808,237.541,249.634,238.17z M203.444,233.672c-14.749-2.312-27.547-7.549-37.664-18.854
				c-10.822-12.092-17.328-28.41-16.676-44.719c0.627-15.654,7.421-33.348,19.889-43.271c2.646-2.107,5.414-1.135,6.996,0.936
				c7.977-3.416,17.63,2.127,24.661,5.744c9.831,5.057,19.027,12.486,26.019,21.045c15.546,19.029,15.461,44.305,21.592,67.016
				c0.652,2.416,0.043,4.916-2.115,6.379C234.126,236.092,217.22,235.834,203.444,233.672z M304.468,269.438
				c-0.893,13.166-22.698,18.42-32.898,19.955c-7.154,1.078-14.846,0.367-21.926-0.945c-7.521-1.395-15.465-3.6-21.205-8.928
				c-5.186-4.814,2.047-13.105,7.262-8.264c4.604,4.271,11.387,5.723,17.422,6.625c5.443,0.812,11.156,1.512,16.643,0.686
				c5.464-0.822,10.945-2.396,15.982-4.68c2.75-1.244,7.7-3.26,7.924-6.549C294.149,260.271,304.942,262.457,304.468,269.438z
				 M275.021,225.785c-1.299-0.125-2.283-0.594-2.984-1.27c-2.848,2.166-8.502,1.092-9.451-3.705
				c-5.877-29.686,2.066-65.59,25.262-86.34c11.192-10.014,30.385-21.855,45.238-11.984c11.82,7.855,14.891,23.996,14.692,37.26
				c-0.216,14.41-3.073,30.418-11.95,42.193C322.45,219.68,296.464,227.857,275.021,225.785z"/>
		</g>
	</g>
	<g>
		<g>
			<path class="st5" d="M325.923,131.018c-5.435-2.49-12.611-0.363-17.969,2.541c-9.607,5.209-17.841,12.797-23.532,22.174
				c-10.987,18.102-14.774,39.705-11.518,60.516c1.07-0.898,2.495-1.426,4.214-1.26c15.136,1.463,32.179-3.836,43.891-13.529
				c11.098-9.184,14.891-23.891,15.715-37.781C337.325,153.547,336.375,135.807,325.923,131.018z"/>
		</g>
	</g>
	<g>
		<g>
			<path class="st8" d="M416.382,376.574c-2.709-5.639-6.53-10.822-8.641-16.746c-2.38-6.676-2.779-13.471-2.195-20.49
				c0.636-7.645,1.117-14.596-0.038-22.207c-0.948-6.252-2.132-12.467-3.796-18.57c-3.313-12.15-7.748-24.811-16.101-34.496
				c-3.932-4.559-8.822-7.928-14.243-10.482c-2.617-1.232-5.406-2.201-7.348-3.961c-8.854,14.039-19.566,27.012-31.874,37.955
				c-17.073,15.182-37.743,27.994-60.944,30.408c-25.948,2.699-51.535-8.879-72.934-22.559
				c-12.189-7.793-24.25-16.533-35.472-26.188c-6.965,2.277-13.548,5.754-18.656,11.123c-14.485,15.223-17.694,37.568-19.231,57.688
				c-0.865,11.316-2.943,22.25-4.562,33.467c-1.309,9.068-3.771,23.65,3.931,30.762c5.402,4.99,13.562,6.439,20.588,4.398
				c5.27-1.531,12.293-5.121,11.168-11.711c-0.789-4.619-4.695-8.939-7.434-12.539c-3.089-4.059-6.51-8.428-7.863-13.449
				c-3.733-13.852,2.088-27.234,4.934-40.639c1.471-6.932,12.271-4.846,10.797,2.1c-2.654,12.506-10.731,28.586-2.617,40.535
				c5.274,7.766,13.441,15.539,13.269,25.625c-0.137,7.994-4.911,13.859-11.415,17.504c1.378,10.908,3.941,21.596,7.154,32.107
				c1.633,5.344,3.365,10.656,5.203,15.934c0.482,1.383,1.374,2.977,2.236,4.613c0.941,0.539,1.68,1.404,2.029,2.602
				c2.753,2.146,3.695,6.467-0.182,8.59c-4.643,2.539-18.443,5.76-13.992,13.4c4.853,8.326,15.33,9.801,24.189,10.168
				c9.604,0.396,19.225,0.527,28.832,0.877c10.686,0.389,22.621,0.646,32.647-3.643c2.997-1.281,8.097-3.475,8.321-7.277
				c0.168-2.844-1.801-6.213-2.943-8.709c-3.176-6.945-6.711-15.119-3.02-22.629c8.648-17.594,35.92-17.434,50.17-7.689
				c7.749,5.299,11.945,13.699,10.875,23.074c-0.424,3.711-1.594,7.242-2.193,10.914c-0.365,2.24-0.699,3.129,1.42,3.992
				c5.875,2.393,13.63,2.246,19.879,2.627c7.718,0.473,15.494,0.502,23.213,0.029c6.557-0.4,13.049-1.383,19.624-1.328
				c4.747,0.039,9.518,0.242,14.261-0.053c8.712-0.539,18.785-3.047,20.568-13.172c1.088-6.172-7.473-10.104-11.627-13.01
				c-6.453-4.512-12.971-10.379-13.703-18.762c-1.324-15.158,1.918-30.592-1.789-45.553c-0.438-1.766-0.066-3.318,0.749-4.537
				c-1.993-2.449-3.644-5.166-4.835-8.096c-4.604-11.316-0.227-22.549,1.561-33.955c2.361-15.08-3.908-29.199-10.475-42.412
				c-3.158-6.354,7.271-9.896,10.383-3.637c3.973,7.99,8.002,16.277,9.874,25.062c1.515,7.105,2.397,14.258,1.264,21.496
				c-1.003,6.408-3.015,12.678-3.631,19.143c-0.815,8.557,2.916,15.686,10.001,20.5c5.266,3.578,12.928,5.865,19.074,3.291
				C419.514,394.432,419.958,384.018,416.382,376.574z"/>
		</g>
	</g>
	<g>
		<g>
			<path class="st6" d="M248.261,221.568c-6.131-22.711-6.046-47.986-21.592-67.016c-6.991-8.559-16.188-15.988-26.019-21.045
				c-7.031-3.617-16.685-9.16-24.661-5.744c-1.582-2.07-4.35-3.043-6.996-0.936c-12.468,9.924-19.262,27.617-19.889,43.271
				c-0.652,16.309,5.854,32.627,16.676,44.719c10.117,11.305,22.915,16.541,37.664,18.854c13.775,2.162,30.682,2.42,42.701-5.725
				C248.304,226.484,248.913,223.984,248.261,221.568z M206.874,223.064c-12.399-1.592-23.051-5.441-31.939-14.447
				c-9.139-9.26-14.36-22.398-14.908-35.287c-0.508-11.896,4.455-27.516,13.495-35.965c1.659,1.564,4.159,2.195,6.624,0.582
				c2.105-1.381,6.762,1.176,8.727,2.025c3.903,1.691,7.756,3.693,11.357,5.953c8.836,5.543,16.559,12.811,22.28,21.537
				c5.437,8.289,7.528,19.311,9.43,28.869c1.612,8.109,2.907,16.285,4.803,24.334C227.8,224.92,216.252,224.27,206.874,223.064z"/>
		</g>
	</g>
	<g>
		<g>
			<path class="st6" d="M333.085,122.486c-14.854-9.871-34.046,1.971-45.238,11.984c-23.195,20.75-31.139,56.654-25.262,86.34
				c0.949,4.797,6.604,5.871,9.451,3.705c0.701,0.676,1.686,1.145,2.984,1.27c21.443,2.072,47.43-6.105,60.807-23.846
				c8.877-11.775,11.734-27.783,11.95-42.193C347.976,146.482,344.905,130.342,333.085,122.486z M336.724,163.678
				c-0.824,13.891-4.617,28.598-15.715,37.781c-11.712,9.693-28.755,14.992-43.891,13.529c-1.719-0.166-3.144,0.361-4.214,1.26
				c-3.257-20.811,0.53-42.414,11.518-60.516c5.691-9.377,13.925-16.965,23.532-22.174c5.357-2.904,12.534-5.031,17.969-2.541
				C336.375,135.807,337.325,153.547,336.724,163.678z"/>
		</g>
	</g>
	<g>
		<g>
			<path class="st6" d="M249.634,238.17c-2.826-0.629-4.812,1.506-5.642,4.348l-2.625,9c-0.833,2.854,1.483,5.934,3.806,6.449
				c2.827,0.629,4.813-1.506,5.643-4.35l2.625-9C254.272,241.766,251.957,238.686,249.634,238.17z"/>
		</g>
	</g>
	<g>
		<g>
			<path class="st6" d="M269.011,249.75c-0.822-3.508-2.451-6.598-3.5-10c-2.061-6.686-11.152-3.068-9.086,3.637
				c1.047,3.404,2.678,6.494,3.5,10c0.679,2.895,3.801,4.311,6.135,3.373C268.671,255.711,269.69,252.645,269.011,249.75z"/>
		</g>
	</g>
	<g>
		<g>
			<path class="st6" d="M419.229,358.783c-3.261-6.736-3.244-13.801-2.553-21.096c0.699-7.365,0.854-14.078-0.199-21.402
				c-1.857-12.928-4.992-25.797-9.923-37.906c-3.549-8.713-8.312-16.738-14.672-23.682c-3.062-3.344-6.796-5.967-10.644-8.322
				c-2.025-1.24-4.18-2.271-6.326-3.283c-0.959-0.377-1.871-0.848-2.734-1.41c-0.226-0.131-0.418-0.24-0.586-0.332
				c-0.473-0.672-1.084-1.189-1.773-1.561c1.635-2.965,3.198-5.961,4.669-8.988c9.747-20.072,13.929-41.482,14.015-63.721
				c0.168-43.596-14.654-94.697-51.77-120.969c-35.824-25.359-85.578-28.018-126.418-14.676
				c-45.154,14.75-82.359,57.549-92.892,103.58c-2.274,9.938-2.927,20.324-1.786,30.473c-1.187,0.969-2.018,2.418-2.053,4.322
				c-0.119,6.449-1.248,12.789-0.82,19.254c0.443,6.693,1.955,13.361,4.016,19.73c3.889,12.027,10.846,22.975,18.764,32.725
				c5.541,6.822,11.633,13.307,18.104,19.457c-17.105,7.645-27.9,22.639-33.701,40.867c-3.242,10.189-4.668,20.918-5.622,31.535
				c-1.005,11.18-2.491,22.02-4.317,33.104c-1.856,11.262-3.32,23.453,0.658,34.432c3.2,8.832,10.988,14.412,19.822,16.682
				c4.43,1.137,9.598,1.215,14.633,0.27c1.297,8.969,3.338,17.805,5.764,26.539c1.51,5.432,3.234,10.801,5.013,16.148
				c0.772,2.322,1.576,4.635,2.382,6.947c0.305,0.873,1.387,2.543,2.231,4.016c-5.835,2.734-11.636,5.635-13.71,12.348
				c-3.018,9.768,4.898,19.268,12.9,23.67c8.787,4.834,19.828,4.986,29.58,5.109c9.854,0.127,19.689,0.814,29.538,0.861
				c16.222,0.078,49.217-4.094,43.405-27.602c-1.643-6.645-7.91-13.438-6.32-20.555c1.779-7.963,15.749-8.908,21.823-8.244
				c7.897,0.867,17.816,5.199,18.683,14.152c0.686,7.08-3.883,13.66-2.113,20.822c2.549,10.312,15.947,10.486,24.299,11.32
				c15.504,1.549,30.479,0.299,45.933-0.586c9.796-0.561,19.604,0.812,29.274-1.447c10.099-2.359,17.357-8.963,20.477-18.896
				c2.508-7.982-1.127-14.879-7.248-19.939c-5.158-4.266-13.353-7.451-16.469-13.717c-1.173-2.359-1.08-4.889-1.176-7.467
				c-0.182-4.906,0.042-9.83,0.185-14.734c0.204-7.033,0.136-13.949-0.78-20.83c7.383,3.918,16.057,5.35,24.113,3.199
				c8.387-2.24,13.549-9.465,16.02-17.344C432.722,379.527,424.176,369.004,419.229,358.783z M143.694,234.174
				c-7.087-8.727-12.861-18.371-16.531-29.016c-1.894-5.492-2.922-11.166-3.428-16.941c-0.344-3.93-0.003-7.861,0.34-11.793
				c2.286-0.555,4.057-2.414,3.479-5.461c-4.832-25.465,3.592-50.5,16.921-72.059c12.623-20.418,30.864-38.613,52.142-49.885
				c37.505-19.867,88.326-19.67,125.449,0.779c40.376,22.242,54.937,73.523,55.462,116.719
				c0.561,46.104-23.672,89.809-59.192,118.465c-15.605,12.59-34.271,21.865-54.595,22.475
				c-23.144,0.693-46.604-12.406-65.208-24.902C178.562,269.141,158.902,252.9,143.694,234.174z M410.843,398.061
				c-6.146,2.574-13.809,0.287-19.074-3.291c-7.085-4.814-10.816-11.943-10.001-20.5c0.616-6.465,2.628-12.734,3.631-19.143
				c1.134-7.238,0.251-14.391-1.264-21.496c-1.872-8.785-5.901-17.072-9.874-25.062c-3.111-6.26-13.541-2.717-10.383,3.637
				c6.566,13.213,12.836,27.332,10.475,42.412c-1.787,11.406-6.165,22.639-1.561,33.955c1.191,2.93,2.842,5.646,4.835,8.096
				c-0.815,1.219-1.187,2.771-0.749,4.537c3.707,14.961,0.465,30.395,1.789,45.553c0.732,8.383,7.25,14.25,13.703,18.762
				c4.154,2.906,12.715,6.838,11.627,13.01c-1.783,10.125-11.856,12.633-20.568,13.172c-4.743,0.295-9.514,0.092-14.261,0.053
				c-6.575-0.055-13.067,0.928-19.624,1.328c-7.719,0.473-15.495,0.443-23.213-0.029c-6.249-0.381-14.004-0.234-19.879-2.627
				c-2.119-0.863-1.785-1.752-1.42-3.992c0.6-3.672,1.77-7.203,2.193-10.914c1.07-9.375-3.126-17.775-10.875-23.074
				c-14.25-9.744-41.521-9.904-50.17,7.689c-3.691,7.51-0.156,15.684,3.02,22.629c1.143,2.496,3.111,5.865,2.943,8.709
				c-0.225,3.803-5.324,5.996-8.321,7.277c-10.026,4.289-21.962,4.031-32.647,3.643c-9.607-0.35-19.229-0.48-28.832-0.877
				c-8.859-0.367-19.337-1.842-24.189-10.168c-4.451-7.641,9.35-10.861,13.992-13.4c3.877-2.123,2.935-6.443,0.182-8.59
				c-0.35-1.197-1.088-2.062-2.029-2.602c-0.862-1.637-1.754-3.23-2.236-4.613c-1.838-5.277-3.57-10.59-5.203-15.934
				c-3.213-10.512-5.776-21.199-7.154-32.107c6.504-3.645,11.278-9.51,11.415-17.504c0.173-10.086-7.994-17.859-13.269-25.625
				c-8.114-11.949-0.037-28.029,2.617-40.535c1.475-6.945-9.326-9.031-10.797-2.1c-2.846,13.404-8.667,26.787-4.934,40.639
				c1.354,5.021,4.774,9.391,7.863,13.449c2.738,3.6,6.645,7.92,7.434,12.539c1.125,6.59-5.898,10.18-11.168,11.711
				c-7.026,2.041-15.186,0.592-20.588-4.398c-7.701-7.111-5.239-21.693-3.931-30.762c1.618-11.217,3.696-22.15,4.562-33.467
				c1.537-20.119,4.746-42.465,19.231-57.688c5.108-5.369,11.691-8.846,18.656-11.123c11.222,9.654,23.282,18.395,35.472,26.188
				c21.398,13.68,46.985,25.258,72.934,22.559c23.201-2.414,43.871-15.227,60.944-30.408c12.308-10.943,23.02-23.916,31.874-37.955
				c1.941,1.76,4.73,2.729,7.348,3.961c5.421,2.555,10.312,5.924,14.243,10.482c8.353,9.686,12.787,22.346,16.101,34.496
				c1.664,6.104,2.848,12.318,3.796,18.57c1.155,7.611,0.674,14.562,0.038,22.207c-0.584,7.02-0.185,13.814,2.195,20.49
				c2.11,5.924,5.932,11.107,8.641,16.746C419.958,384.018,419.514,394.432,410.843,398.061z"/>
		</g>
	</g>
	<g>
		<g>
			<path class="st6" d="M293.671,267.338c-0.224,3.289-5.174,5.305-7.924,6.549c-5.037,2.283-10.519,3.857-15.982,4.68
				c-5.486,0.826-11.199,0.127-16.643-0.686c-6.035-0.902-12.818-2.354-17.422-6.625c-5.215-4.842-12.447,3.449-7.262,8.264
				c5.74,5.328,13.684,7.533,21.205,8.928c7.08,1.312,14.771,2.023,21.926,0.945c10.2-1.535,32.006-6.789,32.898-19.955
				C304.942,262.457,294.149,260.271,293.671,267.338z"/>
		</g>
	</g>
</g>
</svg>
