<?xml version="1.0" encoding="utf-8"?>
<!-- Generator: Adobe Illustrator 16.0.3, SVG Export Plug-In . SVG Version: 6.00 Build 0)  -->
<!DOCTYPE svg PUBLIC "-//W3C//DTD SVG 1.1//EN" "http://www.w3.org/Graphics/SVG/1.1/DTD/svg11.dtd">
<svg version="1.1" id="Layer_1" xmlns="http://www.w3.org/2000/svg" xmlns:xlink="http://www.w3.org/1999/xlink" x="0px" y="0px"
	 width="512px" height="512px" viewBox="0 0 512 512" style="enable-background:new 0 0 512 512;" xml:space="preserve">
<style type="text/css">
<![CDATA[
	.st0{fill:#127274;}
	.st1{fill:#14B6B9;}
	.st2{fill:#EF4754;}
	.st3{fill:#EF4823;}
	.st4{fill:#BCBCBC;}
	.st5{fill:#FEBF10;}
	.st6{fill:#010101;}
	.st7{fill:#D6E5E5;}
	.st8{fill:#71C598;}
	.st9{fill:#74CCCF;}
]]>
</style>
<g>
	<g>
		<g>
			<path class="st4" d="M285.719,265.07c-6.191-9.059-17.127-8.35-25.613-2.773c-5.205,3.418-14.525,12.268-8.99,17.604
				c2.605,2.512,1.979,5.91,0.061,7.969c8.973,3.727,20.203,4.244,29.176,0.91c3.439-1.279,8.162-3.611,9.24-7.521
				C291.111,275.736,288.859,269.668,285.719,265.07z"/>
		</g>
	</g>
	<g>
		<g>
			<path class="st5" d="M357.406,253.482c-0.309,0.564-0.674,1.035-1.076,1.422c0.525,0.479,0.984,1.076,1.342,1.811
				c2.182,4.506,13.572,3.389,13.32-2.258C370.645,246.594,360.373,248.074,357.406,253.482z"/>
		</g>
	</g>
	<g>
		<g>
			<path class="st4" d="M195.117,270.227c-7.982-3.129-12.521,14.312-12.645,19.383c-0.057,2.371-1.342,4.041-3.014,4.947
				c-0.119,4.926,0.566,16.992,7.807,14.496c7.361-2.537,10.941-11.43,11.746-18.555
				C199.559,285.652,201.113,272.578,195.117,270.227z"/>
		</g>
	</g>
	<g>
		<g>
			<path class="st5" d="M304.459,104.566c-5.498-4.76-6.723-11.676-8.158-18.504c-3.426,5.01-6.455,10.43-8.449,16.066
				c0.703,1.221,1.078,2.699,1.115,4.49c0.061,2.793-1.969,5.35-4.525,5.885c-2.861,2.814-8.771,1.197-9.391-3.217
				c-4.123-1.459-8.279-2.166-12.617-2.492c3.056,4.455,6.727,8.598,7.232,14.363c0.453,5.168-0.979,10.232-1.631,15.318
				c2.99-1.863,5.764-4.232,8.838-5.801c4.369-2.229,9.77-3.701,14.658-2.701c5.369,1.098,8.801,6.055,12.385,9.713
				c1.604,1.637,2.953,3.613,4.512,5.121c-1.588-8.729-3.662-18.375,3.309-24.564c3.842-3.412,8.21-5.484,12.863-7.582
				c1.365-0.615,2.801-1.254,4.197-1.975C320.324,108.441,311.156,110.361,304.459,104.566z"/>
		</g>
	</g>
	<g>
		<g>
			<path class="st4" d="M266.293,198.855c-0.705-1.729-0.504-3.246,0.219-4.434c-16.34,2.578-32.359,7.713-46.736,15.4
				c1.178,1.105,1.895,2.727,1.609,4.764c-0.9,6.461,0.848,10.936,6.393,12.863c5.023,1.748,12.479,0.654,18.105-1.291
				C257.207,222.244,271.746,212.246,266.293,198.855z"/>
		</g>
	</g>
	<g>
		<g>
			<path class="st0" d="M402.785,266.354c-13.953-35.984-44.479-63.441-82.625-71.098c-14.27-2.865-29.545-3.516-44.764-1.982
				c0.516,0.508,0.955,1.15,1.279,1.945c8.229,20.203-11.803,37.178-29.467,42.039c-8.359,2.301-18.682,3.508-26.598-0.973
				c-7.949-4.5-10.779-12.354-10.299-20.891c-7.252,4.725-13.947,10.176-19.879,16.359c-17.357,18.09-30.619,40.471-29,66.361
				c0.806,12.895,4.178,25.875,7.934,38.203c3.768,12.373,8.545,24.441,16.68,34.635c0.873,1.094,1.213,2.209,1.172,3.252
				c10.852-3.488,21.562-7.438,32.219-11.477c23.285-8.826,46.771-17.131,69.805-26.617c26.633-10.969,52.846-23.262,77.057-38.967
				c13.252-8.598,26.127-18.137,38.445-28.174C403.934,268.385,403.242,267.529,402.785,266.354z M209.992,290.881
				c-1.227,12.182-8.467,27.156-21.947,29.213c-14.59,2.225-19.977-13.428-19.541-25.139c0.086-2.338,1.365-3.992,3.018-4.902
				c0.468-12.381,9.123-35.381,25.449-30.705C210.426,263.199,211.164,279.248,209.992,290.881z M288.502,297.158
				c-13.381,6.895-31.709,6.195-44.965-0.699c-4.113-2.139-3.443-7.113-0.717-9.367c-9.768-10.916-0.705-25.752,9.656-32.918
				c12.475-8.629,30.018-10.596,40.488,2.236C303.436,269.24,304.793,288.766,288.502,297.158z M381.832,256.062
				c-2.398,17.25-27.48,18.869-34.543,4.291c-1.176-2.424-0.402-4.439,1.176-5.662c-1.549-1.438-2.252-3.662-0.912-6.104
				c4.057-7.395,12.533-12.443,21.144-10.289C376.854,240.342,383.055,247.264,381.832,256.062z"/>
		</g>
	</g>
	<g>
		<g>
			<path class="st0" d="M420.359,301.391c-3.174,2.178-6.37,4.318-9.579,6.42c-23.714,15.527-47.886,30.699-72.271,45.152
				c-24.338,14.426-49.598,27.822-76.43,37.01c-15.186,5.199-30.949,9.27-46.773,12.844c6.523,7.938,14.398,14.77,23.287,19.951
				c40.66,23.695,95.229,20.82,134.443-4.754c7.045-4.594,13.561-9.875,19.471-15.744c-0.82-0.654-1.457-1.525-1.779-2.527
				c-0.176-0.197-0.346-0.402-0.494-0.623c-0.348-0.52-0.633-1.09-0.846-1.686c-1.914-0.084-3.75-1.174-4.602-3.588
				c-3.457-9.799-3.475-20.906-2.281-31.117c1.092-9.348,3.277-18.834,8.916-26.549c7.865-10.762,22.955-21.928,36.326-19.047
				C426.611,311.555,424.285,306.229,420.359,301.391z"/>
		</g>
	</g>
	<g>
		<g>
			<path class="st4" d="M398.328,345.668c-5.359,10.246-7.182,25.027-5.016,37.287c1.266,0.77,2.15,2.139,2.15,4.15v2.527
				c1.939,0.379,3.658,1.799,4.266,3.682c0.16,0.184,0.314,0.371,0.453,0.572c6.676-7.996,12.346-16.842,16.812-26.387
				c5.289-11.305,10.702-24.912,11.512-38.09C417.926,323.174,403.178,336.4,398.328,345.668z"/>
		</g>
	</g>
	<g>
		<g>
			<path class="st5" d="M483.357,179.082c-4.215-10.604-12.992-17.703-23.334-22.059c-22.275-9.383-48.031-5.889-70.514,0.938
				c-21.68,6.584-42.277,16.295-61.715,27.879c3.576,0.906,7.117,1.939,10.6,3.143c0.09-0.045,0.172-0.094,0.266-0.137
				c14.682-6.637,29.039-13.998,44.131-19.695c19.357-7.309,42.248-14.037,62.639-6.932c16.055,5.594,28.424,20.477,26.328,37.977
				c-2.051,17.139-13.893,32.477-25.129,44.855c-11.973,13.188-25.461,25.041-39.521,35.953
				c-19.051,14.785-38.494,28.637-59.786,40.066c-25.375,13.619-51.929,24.793-78.812,35.053
				c-20.553,7.844-41.162,15.67-61.871,23.088c-20.246,7.252-41.188,13.92-62.658,16.252c-18.95,2.061-40.002,0.873-55.7-11.188
				c-14.356-11.029-19.743-27.551-13.284-44.598c6.637-17.516,20.998-31.65,34.756-43.805c8.021-7.086,16.439-13.639,24.969-20.059
				c-3.844,2.221-7.639,4.516-11.375,6.871c-15.094,9.518-29.799,20.119-42.459,32.752c-10.268,10.248-21.312,22.84-24.02,37.596
				c-2.715,14.805,5.777,26.559,17.512,34.75c20.441,14.273,45.244,17.727,69.651,16.115c25.847-1.707,51.015-7.871,76.122-13.891
				c12.893-3.092,25.753-6.039,38.289-10.418c13.43-4.689,26.523-10.289,39.25-16.641c25.602-12.775,49.789-28.162,73.916-43.48
				c23.404-14.859,47.561-28.85,68.691-46.945c19.006-16.275,37.533-37.27,43.627-62.191
				C486.414,200.152,487.314,189.033,483.357,179.082z"/>
		</g>
	</g>
	<g>
		<g>
			<path class="st6" d="M496.895,190.24c-1.385-24.041-19.236-39.574-41.057-46.342c-23.119-7.17-48.818-2.742-71.426,4.123
				c-23.398,7.105-45.701,18.209-66.507,30.957c-1.829,1.121-2.538,2.732-2.479,4.334c-4.086-0.641-8.203-1.113-12.34-1.395
				c-46.744-3.178-96.02,13.643-127.141,49.391c-5.498,6.316-10.268,13.09-14.15,20.244c-0.928-0.221-1.979-0.164-3.125,0.291
				c-29.986,11.873-58.672,30.768-82.232,52.662c-21.127,19.631-43.732,51.719-22.33,79.332
				c13.088,16.887,35.326,26.244,55.828,29.672c25.531,4.268,51.939,0.436,77.041-4.684c5.455-1.113,10.941-2.242,16.434-3.41
				c29.557,40.049,83.719,50.766,130.271,40.602c21.701-4.738,42.34-14.758,59.266-29.154c18.17-15.453,29.637-34.764,39.057-56.361
				c4.145-9.504,6.857-19.836,7.309-30.057c1.088-1.793,1.338-4.148-0.01-6.176c-0.512-10.363-3.563-20.41-10.078-29.135
				c15.91-11.561,30.893-24.441,43.197-39.814C487.02,237.082,498.271,214.117,496.895,190.24z M266.512,194.422
				c-0.723,1.188-0.924,2.705-0.219,4.434c5.453,13.391-9.086,23.389-20.41,27.303c-5.627,1.945-13.082,3.039-18.105,1.291
				c-5.545-1.928-7.293-6.402-6.393-12.863c0.285-2.037-0.432-3.658-1.609-4.764C234.152,202.135,250.172,197,266.512,194.422z
				 M190.434,231.754c5.932-6.184,12.627-11.635,19.879-16.359c-0.48,8.537,2.35,16.391,10.299,20.891
				c7.916,4.48,18.238,3.273,26.598,0.973c17.664-4.861,37.696-21.836,29.467-42.039c-0.324-0.795-0.764-1.438-1.279-1.945
				c15.219-1.533,30.494-0.883,44.764,1.982c38.146,7.656,68.672,35.113,82.625,71.098c0.457,1.176,1.148,2.031,1.959,2.617
				c-12.318,10.037-25.193,19.576-38.445,28.174c-24.211,15.705-50.424,27.998-77.057,38.967
				c-23.033,9.486-46.52,17.791-69.805,26.617c-10.657,4.039-21.367,7.988-32.219,11.477c0.041-1.043-0.299-2.158-1.172-3.252
				c-8.135-10.193-12.912-22.262-16.68-34.635c-3.756-12.328-7.128-25.309-7.934-38.203
				C159.814,272.225,173.076,249.844,190.434,231.754z M409.832,254.867c-9.154-19.865-22.965-37.326-40.836-50.168
				c-5.341-3.838-10.982-7.158-16.836-10.01c15.889-7.402,31.688-14.963,48.547-20.018c18.891-5.664,40.471-7.998,55.193,7.545
				c10.789,11.393,2.479,28.285-4.535,39.148c-9.949,15.412-24.025,28.531-37.904,40.357v-2.111
				C413.461,256.881,411.832,255.336,409.832,254.867z M150.682,302.027c1.061,13.25,4.906,26.783,8.768,39.457
				c3.85,12.639,9.184,25.227,17.479,35.619c0.057,0.07,0.115,0.131,0.174,0.195c-5.803,1.68-11.648,3.201-17.559,4.5
				c-17.918,3.936-38.588,6.246-55.924-1.193c-7.621-3.27-14.307-8.795-18.314-16.104c-3.307-6.025-2.541-13.236-0.604-19.525
				c5.053-16.387,20.051-30.023,32.416-41.047c11.182-9.969,23.332-18.736,35.346-27.656
				C150.633,284.557,149.973,293.168,150.682,302.027z M373.037,418.014c-39.215,25.574-93.783,28.449-134.443,4.754
				c-8.889-5.182-16.764-12.014-23.287-19.951c15.824-3.574,31.588-7.645,46.773-12.844c26.832-9.188,52.092-22.584,76.43-37.01
				c24.385-14.453,48.557-29.625,72.271-45.152c3.209-2.102,6.405-4.242,9.579-6.42c3.926,4.838,6.252,10.164,7.389,15.742
				c-13.371-2.881-28.461,8.285-36.326,19.047c-5.639,7.715-7.824,17.201-8.916,26.549c-1.193,10.211-1.176,21.318,2.281,31.117
				c0.852,2.414,2.688,3.504,4.602,3.588c0.213,0.596,0.498,1.166,0.846,1.686c0.148,0.221,0.318,0.426,0.494,0.623
				c0.322,1.002,0.959,1.873,1.779,2.527C386.598,408.139,380.082,413.42,373.037,418.014z M416.994,367.5
				c-4.467,9.545-10.137,18.391-16.812,26.387c-0.139-0.201-0.293-0.389-0.453-0.572c-0.607-1.883-2.326-3.303-4.266-3.682v-2.527
				c0-2.012-0.885-3.381-2.15-4.15c-2.166-12.26-0.344-27.041,5.016-37.287c4.85-9.268,19.598-22.494,30.178-16.258
				C427.696,342.588,422.283,356.195,416.994,367.5z M483.926,210.332c-6.094,24.922-24.621,45.916-43.627,62.191
				c-21.131,18.096-45.287,32.086-68.691,46.945c-24.127,15.318-48.314,30.705-73.916,43.48
				c-12.727,6.352-25.82,11.951-39.25,16.641c-12.536,4.379-25.396,7.326-38.289,10.418c-25.107,6.02-50.275,12.184-76.122,13.891
				c-24.407,1.611-49.21-1.842-69.651-16.115c-11.734-8.191-20.227-19.945-17.512-34.75c2.707-14.756,13.752-27.348,24.02-37.596
				c12.66-12.633,27.365-23.234,42.459-32.752c3.736-2.355,7.531-4.65,11.375-6.871c-8.529,6.42-16.947,12.973-24.969,20.059
				c-13.758,12.154-28.119,26.289-34.756,43.805c-6.459,17.047-1.072,33.568,13.284,44.598c15.698,12.061,36.75,13.248,55.7,11.188
				c21.471-2.332,42.412-9,62.658-16.252c20.709-7.418,41.318-15.244,61.871-23.088c26.883-10.26,53.437-21.434,78.812-35.053
				c21.292-11.43,40.735-25.281,59.786-40.066c14.061-10.912,27.549-22.766,39.521-35.953
				c11.236-12.379,23.078-27.717,25.129-44.855c2.096-17.5-10.273-32.383-26.328-37.977c-20.391-7.105-43.281-0.377-62.639,6.932
				c-15.092,5.697-29.449,13.059-44.131,19.695c-0.094,0.043-0.176,0.092-0.266,0.137c-3.482-1.203-7.023-2.236-10.6-3.143
				c19.438-11.584,40.035-21.295,61.715-27.879c22.482-6.826,48.238-10.32,70.514-0.938c10.342,4.355,19.119,11.455,23.334,22.059
				C487.314,189.033,486.414,200.152,483.926,210.332z"/>
		</g>
	</g>
	<g>
		<g>
			<path class="st6" d="M196.971,259.348c-16.326-4.676-24.981,18.324-25.449,30.705c-1.652,0.91-2.932,2.564-3.018,4.902
				c-0.436,11.711,4.951,27.363,19.541,25.139c13.48-2.057,20.721-17.031,21.947-29.213
				C211.164,279.248,210.426,263.199,196.971,259.348z M199.012,290.498c-0.805,7.125-4.385,16.018-11.746,18.555
				c-7.24,2.496-7.926-9.57-7.807-14.496c1.672-0.906,2.957-2.576,3.014-4.947c0.123-5.07,4.662-22.512,12.645-19.383
				C201.113,272.578,199.559,285.652,199.012,290.498z"/>
		</g>
	</g>
	<g>
		<g>
			<path class="st6" d="M292.965,256.41c-10.471-12.832-28.014-10.865-40.488-2.236c-10.361,7.166-19.424,22.002-9.656,32.918
				c-2.727,2.254-3.396,7.229,0.717,9.367c13.256,6.895,31.584,7.594,44.965,0.699C304.793,288.766,303.436,269.24,292.965,256.41z
				 M289.592,281.258c-1.078,3.91-5.801,6.242-9.24,7.521c-8.973,3.334-20.203,2.816-29.176-0.91
				c1.918-2.059,2.545-5.457-0.061-7.969c-5.535-5.336,3.785-14.186,8.99-17.604c8.486-5.576,19.422-6.285,25.613,2.773
				C288.859,269.668,291.111,275.736,289.592,281.258z"/>
		</g>
	</g>
	<g>
		<g>
			<path class="st6" d="M368.696,238.299c-8.61-2.154-17.087,2.895-21.144,10.289c-1.34,2.441-0.637,4.666,0.912,6.104
				c-1.578,1.223-2.352,3.238-1.176,5.662c7.062,14.578,32.145,12.959,34.543-4.291
				C383.055,247.264,376.854,240.342,368.696,238.299z M357.672,256.715c-0.357-0.734-0.816-1.332-1.342-1.811
				c0.402-0.387,0.768-0.857,1.076-1.422c2.967-5.408,13.238-6.889,13.586,0.975C371.244,260.104,359.854,261.221,357.672,256.715z"
				/>
		</g>
	</g>
	<g>
		<g>
			<path class="st6" d="M342.928,100.615c-9.6-4.295-19.871-1.293-29.76-3.672c-3.846-0.924-4.635-6.357-5.369-9.531
				c-1.193-5.15-1.881-10.348-4.125-15.188c-1.641-3.535-6.492-5.27-9.324-1.812c-6.682,8.156-13.223,17.793-16.879,28.068
				c-7.793-2.496-15.812-2.92-24.41-2.924c-3.818,0-5.576,4.121-4.768,7.305c1.836,7.227,9.053,12.002,10.402,19.145
				c0.625,3.312-0.551,7.115-1.109,10.365c-0.711,4.143-1.23,8.414-0.588,12.592c0.41,2.66,2.812,5.707,5.908,5.062
				c5.635-1.172,10.107-3.621,14.771-6.924c2.857-2.021,9.055-6.393,12.545-3.756c8.541,6.453,12.574,18.604,25.183,16.68
				c3.067-0.469,5.159-2.736,5.062-5.908c-0.164-5.316-1.619-10.484-2.303-15.742c-0.721-5.541,0.34-8.242,5.075-10.971
				c8.291-4.775,16.78-6.787,22.167-15.414C346.951,105.516,345.469,101.752,342.928,100.615z M324.6,110.662
				c-4.653,2.098-9.021,4.17-12.863,7.582c-6.971,6.189-4.896,15.836-3.309,24.564c-1.559-1.508-2.908-3.484-4.512-5.121
				c-3.584-3.658-7.016-8.615-12.385-9.713c-4.889-1-10.289,0.473-14.658,2.701c-3.074,1.568-5.848,3.938-8.838,5.801
				c0.652-5.086,2.084-10.15,1.631-15.318c-0.506-5.766-4.177-9.908-7.232-14.363c4.338,0.326,8.494,1.033,12.617,2.492
				c0.619,4.414,6.529,6.031,9.391,3.217c2.557-0.535,4.586-3.092,4.525-5.885c-0.037-1.791-0.412-3.27-1.115-4.49
				c1.994-5.637,5.023-11.057,8.449-16.066c1.436,6.828,2.66,13.744,8.158,18.504c6.697,5.795,15.865,3.875,24.338,4.121
				C327.4,109.408,325.965,110.047,324.6,110.662z"/>
		</g>
	</g>
</g>
</svg>
