<?xml version="1.0" encoding="utf-8"?>
<!-- Generator: Adobe Illustrator 16.0.3, SVG Export Plug-In . SVG Version: 6.00 Build 0)  -->
<!DOCTYPE svg PUBLIC "-//W3C//DTD SVG 1.1//EN" "http://www.w3.org/Graphics/SVG/1.1/DTD/svg11.dtd">
<svg version="1.1" id="Layer_1" xmlns="http://www.w3.org/2000/svg" xmlns:xlink="http://www.w3.org/1999/xlink" x="0px" y="0px"
	 width="512px" height="512px" viewBox="0 0 512 512" style="enable-background:new 0 0 512 512;" xml:space="preserve">
<style type="text/css">
<![CDATA[
	.st0{fill:#127274;}
	.st1{fill:#14B6B9;}
	.st2{fill:#1E4384;}
	.st3{fill:#EF4754;}
	.st4{fill:#EF4823;}
	.st5{fill:#BCBCBC;}
	.st6{fill:#F6851F;}
	.st7{fill:#C56528;}
	.st8{fill:#FCBF95;}
	.st9{fill:#FEBF10;}
	.st10{fill:none;}
	.st11{fill:#010101;}
	.st12{fill:#3AB37C;}
	.st13{fill:#D6E5E5;}
	.st14{fill:#71C598;}
	.st15{fill:#74CCCF;}
]]>
</style>
<g>
	<g>
		<g>
			<path class="st9" d="M313.119,375.22c-0.006,0.047-0.004,0.092-0.012,0.139c-0.051,0.287-0.115,0.57-0.169,0.856
				c0.258-0.198,0.534-0.374,0.827-0.526C313.551,375.533,313.334,375.378,313.119,375.22z"/>
		</g>
	</g>
	<g>
		<g>
			<path class="st9" d="M321.325,414.589c-3.412-10.691-7.459-21.117-9.735-32.121c-4.792,19.634-14.414,38.003-22.043,56.582
				c-3.312,8.066-7.687,18.008-6.8,26.945c0.714,7.19,8.483,9.434,14.707,10.115c7.306,0.799,15.409-0.055,20.307-6.158
				c5.508-6.865,7.085-16.277,7.602-24.84C325.996,434.611,324.524,424.612,321.325,414.589z"/>
		</g>
	</g>
	<g>
		<g>
			<path class="st9" d="M295.234,361.673c1.475,3.294,0.26,7.305-4.252,9.607c-6.175,3.154-12.932,5.016-19.66,6.597
				c-11.492,2.701-23.066,6.022-34.116,10.215c-7.014,2.66-14.151,5.6-20.421,9.777c-3.841,2.559-7.877,6.341-7.848,11.386
				c0.062,10.605,7.695,20.551,14.928,27.713c3.986,3.947,9.115,8.23,15.146,7.635c4.786-0.473,8.949-2.932,12.596-5.966
				c9.918-8.251,17.137-19.655,24.273-30.241c8.729-12.949,17.51-25.852,27.695-37.717c0.504-0.588,1.074-1.01,1.674-1.311
				C301.891,366.831,298.549,364.271,295.234,361.673z"/>
		</g>
	</g>
	<g>
		<g>
			<path class="st9" d="M381.79,422.986c-0.722-2.646-1.598-2.086,0.343-2.191c-4.679,0.254-6.633-4.441-5.385-7.771
				c-16.746-8.559-33.496-16.865-49.119-27.522c-1.52-1.036-3.018-2.101-4.525-3.153c4.62,14.201,11.256,27.656,16.136,41.771
				c3.22,9.314,5.938,23.49,14.541,29.523c3.54,2.482,9.589-0.516,12.751-2.421c4.945-2.979,9.598-6.677,13.014-11.386
				c2.385-3.283,2.898-5.893,2.829-10.193C382.34,427.476,382.363,425.092,381.79,422.986z"/>
		</g>
	</g>
	<g>
		<g>
			<path class="st9" d="M237.457,326.693c-6.961-3.794-17.318-8.383-25.324-5.09c-6.658,2.739-8.934,10.906-9.654,17.424
				c-0.646,5.84-1.164,17.01,3.436,21.537c5.307,5.223,13.838,4.222,20.621,3.418c10.92-1.295,21.469-3.766,32.209-6.043
				c8.24-1.748,17.373-3.432,25.912-2.105C266.715,350.076,253.781,335.589,237.457,326.693z"/>
		</g>
	</g>
	<g>
		<g>
			<path class="st6" d="M407.086,427.261c-4.61-1.11-9.811-3.466-14.23-5.722c1.202,6.089,0.637,13.107-0.561,17.294
				c-3.613,12.627-19.594,24.491-32.217,26.354c-12.07,1.781-19.205-7.55-23.895-17.649c-0.164,1.969-0.369,3.935-0.668,5.893
				c-1.527,10.033-4.959,20.418-12.936,27.18c-7.191,6.096-16.956,7.422-26.086,6.422c-8.91-0.975-18.951-4.531-22.994-13.225
				c-4.197-9.022-0.664-20.459,2.311-29.297c4.846-14.4,11.812-28.127,17.577-42.245c-5.46,7.97-10.743,16.06-16.417,23.888
				c-6.676,9.213-14.266,19.677-24.483,25.253c-9.819,5.358-20.299,5.577-29.69-0.954c-9.176-6.381-17.646-17.049-21.955-27.399
				c-3.921-9.419-4.332-20.896,3.176-28.774c9.167-9.617,23.732-14.803,36.083-18.873c7.105-2.341,14.298-4.379,21.507-6.377
				c1.557-0.432,3.096-0.879,4.678-1.203c-1.654,0.339-0.006-0.005,0.259-0.066c0.684-0.156,1.363-0.33,2.046-0.496
				c-6.094,0.936-12.072,2.377-18.09,3.736c-10.316,2.33-21.402,4.721-32.055,4.52c-9.189-0.174-18.246-2.602-23.107-11.093
				c-4.447-7.769-4.814-18.819-3.658-27.499c1.141-8.557,4.453-18.297,12.072-23.247c8.666-5.631,19.858-4.473,29.182-1.126
				c2.219,0.797,4.359,1.744,6.447,2.797c-2.452-1.964-4.925-3.897-7.434-5.778c-8.423-6.316-15.172-14.966-24.408-20.146
				c-4.365,2.585-6.727,7.933-8.902,12.331c-3.545,7.165-6.793,14.491-9.463,22.029c-5.205,14.691-8.511,30.325-10.283,45.805
				c-3.153,27.549-0.939,57.785,15.134,81.294c23.499,34.37,67.604,51.013,108.202,50.069c21.443-0.498,43.007-5.512,61.396-16.885
				c18.964-11.728,32.832-28.628,41.832-48.715C403.656,432.678,404.086,428.589,407.086,427.261z"/>
		</g>
	</g>
	<g>
		<g>
			<path class="st9" d="M472.137,160.675c-11.041-6.768-30.262-5.938-36.5,7.082c-3.064,6.393-12.924,1.509-9.855-4.895
				c1.654-3.454,3.994-6.4,6.796-8.845c-17.259-27.937-46.124-46.312-77.046-56.385c-31.576-10.285-65.654-15.839-98.879-15.259
				c-49.056,0.857-98.365,15.902-133.635,51.359c-20.224,20.331-36.852,43.469-49.719,69.109
				c-6.313,12.581-12.108,25.582-16.662,38.914c-3.831,11.215-9.24,21.887-12.93,33.135c2.786-0.971,5.656-1.679,8.578-2.066
				c7.053-0.938,7.842,10.041,0.848,10.969c-11,1.461-22.689,9.916-27.297,20.064c-3.609,7.945-2.128,17.543,7.028,20.232
				c5.028,1.478,10.288,2.031,15.558,1.98c1.1-0.625,2.439-0.769,3.879-0.141c3.234-0.204,6.453-0.605,9.604-1.142
				c6.923-1.179,16.971-3.206,21.672-8.11c4.891-5.102,13.189,2.125,8.266,7.262c-6.34,6.611-16.349,9.617-25.577,11.266
				c15.35,10.771,29.931,22.549,44.302,34.637c14.756,12.412,30.908,26.671,50.586,29.49c1.484-1.498,3.668-2.209,5.74-1.188
				c-0.861-16.134,0.757-32.468,4.057-48.167c3.113-14.811,7.007-29.17,13.133-43.064c4.679-10.613,9.851-24.646,21.809-28.795
				c1.598-0.555,3.018-0.383,4.167,0.223c0.033,0.016,0.065,0.025,0.099,0.041c10.491,4.975,17.066,14.094,26.184,20.795
				c9.963,7.322,19.212,15.519,28.695,23.435c19.35,16.15,38.58,32.454,59.102,47.122c1.463,1.046,2.934,2.08,4.408,3.107
				c6.758-3.97,14.596-5.668,22.123-7.686c9.422-2.526,16.969-6.359,24.473-12.682c7.965-6.711,15.005-14.432,22.034-22.094
				c6.872-7.491,14.263-14.484,20.886-22.211c14.191-16.557,23.754-35.58,31.305-55.957c3.799-10.253,6.719-20.744,10.059-31.145
				c0.869-2.707,1.77-5.441,2.293-8.242c0.328-1.755,0.381-3.704,1.266-5.283c0.072-0.474,0.129-0.949,0.172-1.428
				c0.055-0.65,0.096-1.301,0.144-1.952c0.13-1.786,1.151-3.017,2.513-3.704c0.531-0.549,1.217-1.013,2.08-1.34
				c7.488-2.837,9.881-13.867,10.6-20.885C479.166,171.627,478.361,164.49,472.137,160.675z M160.193,155.886
				c0.113,1.469-0.379,2.95-1.352,4.055c-0.871,0.988-2.346,1.875-3.709,1.854c-1.254-0.019-2.771-0.041-3.885-0.749
				c-1.316-0.837-1.169-0.698-2.162-1.894c-0.285-0.344-0.807-1.682-0.697-1.353c-0.355-1.069-0.408-1.927-0.231-3.036
				c0.257-1.625,1.294-2.957,2.419-4.084c1.037-1.038,2.213-1.74,3.709-1.854c1.469-0.113,2.949,0.379,4.055,1.352
				c1.439,1.268,2.124,3.38,1.777,5.273C160.14,155.597,160.182,155.738,160.193,155.886z M207.168,118.554
				c-0.089,1.254-0.447,2.388-1.326,3.387c-0.943,1.07-2.289,1.745-3.709,1.854c-1.469,0.113-2.951-0.379-4.055-1.352
				c-1.001-0.882-1.855-2.336-1.854-3.709c0-1.041-0.025-2.131,0.257-3.141c0.413-1.483,1.021-2.777,2.095-3.914
				c2.057-2.174,5.452-2.537,7.764-0.502C208.402,112.994,208.852,116.349,207.168,118.554z M229.225,101.734
				c-0.113-1.469,0.379-2.95,1.352-4.055c0.883-1.002,2.336-1.854,3.709-1.854h1c1.523,0,2.883,0.319,4.055,1.352
				c1.07,0.942,1.746,2.288,1.854,3.709c0.113,1.469-0.379,2.95-1.352,4.055c-0.883,1.002-2.336,1.854-3.709,1.854h-1
				c-1.523,0-2.881-0.319-4.055-1.352C230.008,104.5,229.334,103.155,229.225,101.734z M238.133,154.794
				c-7.059,0-7.937-10.969-0.848-10.969C244.344,143.826,245.222,154.794,238.133,154.794z M280.842,108.941
				c-0.883,1.002-2.336,1.854-3.709,1.854h-1c-1.523,0-2.881-0.319-4.055-1.352c-1.07-0.942-1.744-2.288-1.854-3.709
				c-0.113-1.469,0.379-2.95,1.352-4.055c0.883-1.002,2.336-1.854,3.709-1.854h1c1.523,0,2.883,0.319,4.055,1.352
				c1.07,0.942,1.746,2.288,1.854,3.709C282.307,106.355,281.814,107.836,280.842,108.941z M287.285,291.826
				c7.059,0,7.937,10.969,0.848,10.969C281.074,302.794,280.196,291.826,287.285,291.826z M291.133,336.794
				c-7.059,0-7.937-10.969-0.848-10.969C297.344,325.826,298.222,336.794,291.133,336.794z M321.842,146.941
				c-0.883,1.002-2.336,1.854-3.709,1.854h-1c-1.523,0-2.881-0.319-4.055-1.352c-1.07-0.942-1.744-2.288-1.854-3.709
				c-0.113-1.469,0.379-2.95,1.352-4.055c0.883-1.002,2.336-1.854,3.709-1.854h1c1.523,0,2.883,0.319,4.055,1.352
				c1.07,0.942,1.746,2.288,1.854,3.709C323.307,144.355,322.814,145.836,321.842,146.941z M336.576,107.679
				c0.883-1.001,2.336-1.855,3.709-1.854c0.695,0,1.408-0.014,2.088,0.105c1.096,0.193,1.996,0.667,2.842,1.371
				c1.334,1.113,1.979,2.888,1.979,4.584c0.002,1.522-0.32,2.883-1.352,4.055c-0.943,1.07-2.289,1.745-3.709,1.854
				c-1.469,0.113-2.951-0.379-4.055-1.352c-0.26-0.229-0.508-0.496-0.734-0.791c-0.09-0.068-0.179-0.133-0.266-0.209
				c-1.07-0.942-1.744-2.288-1.854-3.709C335.111,110.265,335.604,108.784,336.576,107.679z M337.629,352.74
				c-0.314,0.133-0.621,0.281-0.935,0.426c-0.796,0.367-1.692,0.583-2.562,0.629c-2.992,0.16-5.676-2.022-5.908-5.061
				c-0.213-2.771,1.82-5.43,4.564-5.854c0.314-0.133,0.621-0.281,0.935-0.426c0.796-0.367,1.691-0.583,2.562-0.629
				c2.992-0.16,5.676,2.022,5.908,5.061C342.406,349.658,340.373,352.316,337.629,352.74z M348.842,318.941
				c-0.883,1.002-2.336,1.854-3.709,1.854h-1c-1.523,0-2.881-0.319-4.055-1.352c-1.07-0.942-1.744-2.288-1.854-3.709
				c-0.113-1.469,0.379-2.95,1.352-4.055c0.883-1.002,2.336-1.854,3.709-1.854h1c1.523,0,2.883,0.319,4.055,1.352
				c1.07,0.942,1.746,2.288,1.854,3.709C350.307,316.355,349.814,317.836,348.842,318.941z M381.576,130.679
				c0.883-1.002,2.336-1.854,3.709-1.854c0.987,0,1.955,0.043,2.943,0.109c0.838,0.055,1.428,0.309,2.281,0.602
				c2.113,0.726,3.604,3.186,3.684,5.35c0.111,2.994-1.984,5.674-5.061,5.908c-1.279,0.098-2.559-0.294-3.598-1.02
				c-1.283-0.079-2.439-0.438-3.457-1.332c-1.07-0.942-1.744-2.288-1.854-3.709C380.111,133.265,380.604,131.784,381.576,130.679z
				 M366.723,157.093c-1.088-0.631-1.492-0.984-2.256-1.979c-0.314-0.41-0.582-1.08-0.743-1.42
				c-0.427-0.894-0.499-1.977-0.499-2.961c-0.002-1.522,0.32-2.883,1.352-4.055c0.941-1.07,2.288-1.745,3.709-1.854
				c1.469-0.113,2.949,0.379,4.055,1.352c0.777,0.685,1.458,1.712,1.727,2.779c0.646,0.842,1.046,1.865,1.127,2.93
				c0.113,1.469-0.379,2.95-1.352,4.055c-0.846,0.961-2.369,1.917-3.709,1.854C368.885,157.737,367.848,157.747,366.723,157.093z
				 M375.078,310.443c-1.07-0.942-1.744-2.288-1.854-3.709c-0.113-1.469,0.379-2.95,1.352-4.055
				c0.883-1.002,2.336-1.854,3.709-1.854h1c1.523,0,2.883,0.319,4.055,1.352c1.07,0.942,1.746,2.288,1.854,3.709
				c0.113,1.469-0.379,2.95-1.352,4.055c-0.883,1.002-2.336,1.854-3.709,1.854h-1C377.609,311.794,376.252,311.475,375.078,310.443z
				 M381.133,337.794c-7.059,0-7.937-10.969-0.848-10.969C387.344,326.826,388.222,337.794,381.133,337.794z M393.133,206.794
				c-7.059,0-7.937-10.969-0.848-10.969C399.344,195.826,400.222,206.794,393.133,206.794z M400.225,172.734v-1
				c0-1.523,0.319-2.882,1.352-4.055c0.941-1.07,2.288-1.745,3.709-1.854c1.469-0.113,2.949,0.379,4.055,1.352
				c1.002,0.883,1.854,2.336,1.854,3.709v1c0,1.523-0.318,2.882-1.352,4.055c-0.943,1.07-2.289,1.745-3.709,1.854
				c-1.469,0.113-2.951-0.379-4.055-1.352C401.076,175.56,400.225,174.107,400.225,172.734z M414.193,294.886
				c0,1.523-0.318,2.882-1.352,4.055c-0.943,1.07-2.289,1.745-3.709,1.854c-1.469,0.113-2.951-0.379-4.055-1.352
				c-1.002-0.883-1.854-2.336-1.854-3.709v-2c0-1.523,0.319-2.882,1.352-4.055c0.941-1.07,2.288-1.745,3.709-1.854
				c1.469-0.113,2.949,0.379,4.055,1.352c1.002,0.883,1.854,2.336,1.854,3.709V294.886z M423.285,193.826
				c7.059,0,7.937,10.969,0.848,10.969C417.074,204.794,416.196,193.826,423.285,193.826z M430.193,217.886v1
				c0,1.523-0.318,2.882-1.352,4.055c-0.943,1.07-2.289,1.745-3.709,1.854c-1.469,0.113-2.951-0.379-4.055-1.352
				c-1.002-0.883-1.854-2.336-1.854-3.709v-1c0-1.523,0.319-2.882,1.352-4.055c0.941-1.07,2.288-1.745,3.709-1.854
				c1.469-0.113,2.949,0.379,4.055,1.352C429.342,215.06,430.193,216.513,430.193,217.886z M427.842,273.941
				c-0.943,1.07-2.289,1.745-3.709,1.854c-1.469,0.113-2.951-0.379-4.055-1.352c-0.26-0.229-0.508-0.496-0.734-0.791
				c-0.09-0.068-0.179-0.133-0.266-0.209c-1.07-0.942-1.744-2.288-1.854-3.709c-0.113-1.469,0.379-2.95,1.352-4.055
				c0.883-1.001,2.336-1.855,3.709-1.854c0.695,0,1.408-0.014,2.088,0.105c1.096,0.193,1.996,0.667,2.842,1.371
				c1.334,1.113,1.979,2.888,1.979,4.584C429.195,271.409,428.873,272.769,427.842,273.941z M439.842,249.941
				c-0.943,1.07-2.289,1.745-3.709,1.854c-1.469,0.113-2.951-0.379-4.055-1.352c-0.26-0.229-0.508-0.496-0.734-0.791
				c-0.09-0.068-0.179-0.133-0.266-0.209c-1.07-0.942-1.744-2.288-1.854-3.709c-0.113-1.469,0.379-2.95,1.352-4.055
				c0.883-1.001,2.336-1.855,3.709-1.854c0.695,0,1.408-0.014,2.088,0.105c1.096,0.193,1.996,0.667,2.842,1.371
				c1.334,1.113,1.979,2.888,1.979,4.584C441.195,247.409,440.873,248.769,439.842,249.941z"/>
		</g>
	</g>
	<g>
		<g>
			<path d="M480.486,153.26c-10.014-8.563-25.949-10.051-38.5-4.95c-25.832-42.604-74.469-61.586-121.462-70.882
				c-47.657-9.428-98.706-8.991-144.378,8.915c-37.753,14.801-67.869,42.33-90.971,75.211
				c-12.379,17.619-22.574,36.658-31.023,56.444c-4.326,10.136-7.726,20.612-11.905,30.802c-4.481,10.926-9.4,21.688-11.897,33.29
				c-5.648,4.261-10.434,9.675-13.807,15.759c-6.582,11.875-4.209,27.693,8.031,34.604c7.225,4.077,16.303,4.982,24.989,4.643
				c20.367,13.169,39.448,28.483,57.722,44.398c17.213,14.991,37.17,28.885,60.811,29.299c1.245,8.961,3.336,17.789,6.422,26.336
				c14.48,40.111,55.699,64.33,95.708,72.055c27.44,5.297,56.606,3.275,82.54-7.359c30.25-12.404,52.971-36.82,64.871-67.066
				c1.215-3.09,0.002-6.086-2.594-7.328c1.669-0.587,2.938-1.738,3.594-3.672c1.879-5.549-4.705-9.924-8.229-7.274
				c-0.704-0.168-1.402-0.368-2.075-0.604c-3.072-1.078-6.047-2.441-8.996-3.81c-5.342-2.478-10.556-5.22-15.768-7.955
				c-9.145-4.8-18.544-9.056-27.598-14.055c-5.755-3.178-11.365-6.573-16.873-10.132c4.891-1.95,10.188-3.07,15.208-4.389
				c9.185-2.414,16.802-6.059,24.37-11.841c7.633-5.831,14.404-12.785,20.963-19.772c6.986-7.443,14.107-14.757,21.066-22.225
				c13.805-14.816,24.158-31.078,32.389-49.543c4.367-9.799,8.02-19.893,11.334-30.09c3.117-9.586,6.89-19.639,8.508-29.634
				c0.592-1.222,0.846-2.63,0.988-4.034c9.568-5.066,13.709-16.688,15.221-26.922C490.715,170.853,488.977,160.519,480.486,153.26z
				 M392.295,438.833c1.197-4.187,1.763-11.205,0.561-17.294c4.42,2.256,9.62,4.611,14.23,5.722c-3,1.328-3.43,5.417-1.632,8.094
				c-9,20.087-22.868,36.987-41.832,48.715c-18.389,11.373-39.952,16.387-61.396,16.885c-40.598,0.943-84.703-15.699-108.202-50.069
				c-16.073-23.509-18.287-53.745-15.134-81.294c1.772-15.479,5.078-31.113,10.283-45.805c2.67-7.538,5.918-14.864,9.463-22.029
				c2.176-4.398,4.537-9.746,8.902-12.331c9.236,5.181,15.985,13.83,24.408,20.146c2.509,1.881,4.981,3.814,7.434,5.778
				c-2.088-1.053-4.229-2-6.447-2.797c-9.323-3.347-20.516-4.505-29.182,1.126c-7.619,4.95-10.932,14.69-12.072,23.247
				c-1.156,8.68-0.789,19.73,3.658,27.499c4.861,8.491,13.918,10.919,23.107,11.093c10.652,0.201,21.738-2.189,32.055-4.52
				c6.018-1.359,11.996-2.801,18.09-3.736c-0.683,0.166-1.362,0.34-2.046,0.496c-0.265,0.062-1.913,0.405-0.259,0.066
				c-1.582,0.324-3.121,0.771-4.678,1.203c-7.209,1.998-14.401,4.036-21.507,6.377c-12.351,4.07-26.916,9.256-36.083,18.873
				c-7.508,7.879-7.097,19.355-3.176,28.774c4.309,10.351,12.779,21.019,21.955,27.399c9.392,6.531,19.871,6.312,29.69,0.954
				c10.218-5.576,17.808-16.04,24.483-25.253c5.674-7.828,10.957-15.918,16.417-23.888c-5.765,14.118-12.731,27.845-17.577,42.245
				c-2.975,8.838-6.508,20.274-2.311,29.297c4.043,8.693,14.084,12.25,22.994,13.225c9.13,1,18.895-0.326,26.086-6.422
				c7.977-6.762,11.408-17.146,12.936-27.18c0.299-1.958,0.504-3.924,0.668-5.893c4.689,10.1,11.824,19.431,23.895,17.649
				C372.701,463.325,388.682,451.46,392.295,438.833z M295.234,361.673c3.314,2.598,6.656,5.157,10.016,7.695
				c-0.6,0.301-1.17,0.723-1.674,1.311c-10.186,11.865-18.966,24.768-27.695,37.717c-7.137,10.586-14.355,21.99-24.273,30.241
				c-3.646,3.034-7.81,5.493-12.596,5.966c-6.031,0.596-11.16-3.688-15.146-7.635c-7.232-7.162-14.865-17.107-14.928-27.713
				c-0.029-5.045,4.007-8.827,7.848-11.386c6.27-4.178,13.407-7.117,20.421-9.777c11.05-4.192,22.624-7.514,34.116-10.215
				c6.729-1.581,13.485-3.442,19.66-6.597C295.494,368.978,296.709,364.967,295.234,361.673z M321.325,414.589
				c3.199,10.022,4.671,20.021,4.037,30.523c-0.517,8.562-2.094,17.975-7.602,24.84c-4.897,6.104-13.001,6.957-20.307,6.158
				c-6.224-0.682-13.993-2.925-14.707-10.115c-0.887-8.938,3.487-18.879,6.8-26.945c7.629-18.579,17.251-36.948,22.043-56.582
				C313.866,393.472,317.913,403.898,321.325,414.589z M312.938,376.215c0.054-0.286,0.118-0.569,0.169-0.856
				c0.008-0.047,0.006-0.092,0.012-0.139c0.215,0.158,0.432,0.312,0.646,0.469C313.473,375.841,313.196,376.017,312.938,376.215z
				 M258.744,357.939c-10.74,2.277-21.289,4.748-32.209,6.043c-6.783,0.804-15.314,1.805-20.621-3.418
				c-4.6-4.527-4.082-15.697-3.436-21.537c0.721-6.518,2.996-14.685,9.654-17.424c8.006-3.293,18.363,1.296,25.324,5.09
				c16.324,8.896,29.258,23.383,47.199,29.141C276.117,354.507,266.984,356.191,258.744,357.939z M376.748,413.023
				c-1.248,3.33,0.706,8.025,5.385,7.771c-1.94,0.105-1.064-0.455-0.343,2.191c0.573,2.106,0.55,4.49,0.584,6.656
				c0.069,4.301-0.444,6.91-2.829,10.193c-3.416,4.709-8.068,8.406-13.014,11.386c-3.162,1.905-9.211,4.903-12.751,2.421
				c-8.603-6.033-11.321-20.209-14.541-29.523c-4.88-14.115-11.516-27.57-16.136-41.771c1.508,1.053,3.006,2.117,4.525,3.153
				C343.252,396.158,360.002,404.464,376.748,413.023z M478.49,178.234c-0.719,7.018-3.111,18.048-10.6,20.885
				c-0.863,0.327-1.549,0.791-2.08,1.34c-1.361,0.688-2.383,1.918-2.513,3.704c-0.048,0.651-0.089,1.302-0.144,1.952
				c-0.043,0.479-0.1,0.954-0.172,1.428c-0.885,1.579-0.938,3.528-1.266,5.283c-0.523,2.801-1.424,5.535-2.293,8.242
				c-3.34,10.4-6.26,20.892-10.059,31.145c-7.551,20.377-17.113,39.4-31.305,55.957c-6.623,7.727-14.014,14.72-20.886,22.211
				c-7.029,7.662-14.069,15.383-22.034,22.094c-7.504,6.322-15.051,10.155-24.473,12.682c-7.527,2.018-15.365,3.716-22.123,7.686
				c-1.475-1.027-2.945-2.062-4.408-3.107c-20.521-14.668-39.752-30.972-59.102-47.122c-9.483-7.916-18.732-16.112-28.695-23.435
				c-9.117-6.701-15.692-15.82-26.184-20.795c-0.033-0.016-0.065-0.025-0.099-0.041c-1.149-0.605-2.569-0.777-4.167-0.223
				c-11.958,4.148-17.13,18.182-21.809,28.795c-6.126,13.895-10.02,28.254-13.133,43.064c-3.3,15.699-4.918,32.033-4.057,48.167
				c-2.072-1.021-4.256-0.31-5.74,1.188c-19.678-2.819-35.83-17.078-50.586-29.49c-14.371-12.088-28.952-23.866-44.302-34.637
				c9.229-1.648,19.237-4.654,25.577-11.266c4.924-5.137-3.375-12.363-8.266-7.262c-4.701,4.904-14.749,6.932-21.672,8.11
				c-3.15,0.536-6.369,0.938-9.604,1.142c-1.439-0.628-2.779-0.484-3.879,0.141c-5.27,0.051-10.529-0.503-15.558-1.98
				c-9.156-2.689-10.638-12.287-7.028-20.232c4.607-10.148,16.297-18.604,27.297-20.064c6.994-0.928,6.205-11.906-0.848-10.969
				c-2.922,0.388-5.792,1.096-8.578,2.066c3.689-11.248,9.099-21.92,12.93-33.135c4.554-13.332,10.349-26.333,16.662-38.914
				c12.867-25.641,29.495-48.778,49.719-69.109c35.27-35.457,84.579-50.502,133.635-51.359c33.225-0.58,67.303,4.974,98.879,15.259
				c30.922,10.072,59.787,28.448,77.046,56.385c-2.802,2.444-5.142,5.391-6.796,8.845c-3.068,6.403,6.791,11.287,9.855,4.895
				c6.238-13.02,25.459-13.85,36.5-7.082C478.361,164.49,479.166,171.627,478.49,178.234z"/>
		</g>
	</g>
	<g>
		<g>
			<path d="M374.066,148.957c-0.269-1.067-0.949-2.095-1.727-2.779c-1.105-0.973-2.586-1.465-4.055-1.352
				c-1.421,0.108-2.768,0.783-3.709,1.854c-1.031,1.172-1.354,2.532-1.352,4.055c0,0.984,0.072,2.067,0.499,2.961
				c0.161,0.34,0.429,1.01,0.743,1.42c0.764,0.994,1.168,1.348,2.256,1.979c1.125,0.653,2.162,0.644,3.41,0.701
				c1.34,0.063,2.863-0.893,3.709-1.854c0.973-1.104,1.465-2.586,1.352-4.055C375.112,150.822,374.713,149.798,374.066,148.957z"/>
		</g>
	</g>
	<g>
		<g>
			<path d="M390.51,129.537c-0.854-0.293-1.443-0.547-2.281-0.602c-0.988-0.066-1.956-0.109-2.943-0.109
				c-1.373-0.001-2.826,0.852-3.709,1.854c-0.973,1.104-1.465,2.586-1.352,4.055c0.109,1.421,0.783,2.767,1.854,3.709
				c1.018,0.895,2.174,1.253,3.457,1.332c1.039,0.726,2.318,1.117,3.598,1.02c3.076-0.234,5.172-2.914,5.061-5.908
				C394.113,132.722,392.623,130.262,390.51,129.537z"/>
		</g>
	</g>
	<g>
		<g>
			<path d="M321.34,139.177c-1.172-1.032-2.531-1.352-4.055-1.352h-1c-1.373,0-2.826,0.852-3.709,1.854
				c-0.973,1.104-1.465,2.586-1.352,4.055c0.109,1.421,0.783,2.767,1.854,3.709c1.174,1.032,2.531,1.352,4.055,1.352h1
				c1.373,0,2.826-0.852,3.709-1.854c0.973-1.104,1.465-2.586,1.352-4.055C323.086,141.465,322.41,140.12,321.34,139.177z"/>
		</g>
	</g>
	<g>
		<g>
			<path d="M345.215,107.302c-0.846-0.704-1.746-1.178-2.842-1.371c-0.68-0.119-1.393-0.105-2.088-0.105
				c-1.373-0.002-2.826,0.853-3.709,1.854c-0.973,1.104-1.465,2.586-1.352,4.055c0.109,1.421,0.783,2.767,1.854,3.709
				c0.087,0.076,0.176,0.141,0.266,0.209c0.227,0.295,0.475,0.562,0.734,0.791c1.104,0.973,2.586,1.465,4.055,1.352
				c1.42-0.108,2.766-0.783,3.709-1.854c1.031-1.172,1.354-2.532,1.352-4.055C347.193,110.19,346.549,108.416,345.215,107.302z"/>
		</g>
	</g>
	<g>
		<g>
			<path d="M280.34,101.177c-1.172-1.032-2.531-1.352-4.055-1.352h-1c-1.373,0-2.826,0.852-3.709,1.854
				c-0.973,1.104-1.465,2.586-1.352,4.055c0.109,1.421,0.783,2.767,1.854,3.709c1.174,1.032,2.531,1.352,4.055,1.352h1
				c1.373,0,2.826-0.852,3.709-1.854c0.973-1.104,1.465-2.586,1.352-4.055C282.086,103.465,281.41,102.12,280.34,101.177z"/>
		</g>
	</g>
	<g>
		<g>
			<path d="M336.285,341.826c-0.87,0.046-1.766,0.262-2.562,0.629c-0.313,0.145-0.62,0.293-0.935,0.426
				c-2.744,0.424-4.777,3.082-4.564,5.854c0.232,3.038,2.916,5.221,5.908,5.061c0.869-0.046,1.766-0.262,2.562-0.629
				c0.313-0.145,0.62-0.293,0.935-0.426c2.744-0.424,4.777-3.082,4.564-5.854C341.961,343.848,339.277,341.666,336.285,341.826z"/>
		</g>
	</g>
	<g>
		<g>
			<path d="M380.285,326.826c-7.089,0-6.211,10.969,0.848,10.969C388.222,337.794,387.344,326.826,380.285,326.826z"/>
		</g>
	</g>
	<g>
		<g>
			<path d="M412.34,289.177c-1.105-0.973-2.586-1.465-4.055-1.352c-1.421,0.108-2.768,0.783-3.709,1.854
				c-1.032,1.173-1.352,2.531-1.352,4.055v2c0,1.373,0.852,2.826,1.854,3.709c1.104,0.973,2.586,1.465,4.055,1.352
				c1.42-0.108,2.766-0.783,3.709-1.854c1.033-1.173,1.352-2.531,1.352-4.055v-2C414.193,291.513,413.342,290.06,412.34,289.177z"/>
		</g>
	</g>
	<g>
		<g>
			<path d="M439.215,241.302c-0.846-0.704-1.746-1.178-2.842-1.371c-0.68-0.119-1.393-0.105-2.088-0.105
				c-1.373-0.002-2.826,0.853-3.709,1.854c-0.973,1.104-1.465,2.586-1.352,4.055c0.109,1.421,0.783,2.767,1.854,3.709
				c0.087,0.076,0.176,0.141,0.266,0.209c0.227,0.295,0.475,0.562,0.734,0.791c1.104,0.973,2.586,1.465,4.055,1.352
				c1.42-0.108,2.766-0.783,3.709-1.854c1.031-1.172,1.354-2.532,1.352-4.055C441.193,244.19,440.549,242.416,439.215,241.302z"/>
		</g>
	</g>
	<g>
		<g>
			<path d="M428.34,214.177c-1.105-0.973-2.586-1.465-4.055-1.352c-1.421,0.108-2.768,0.783-3.709,1.854
				c-1.032,1.173-1.352,2.531-1.352,4.055v1c0,1.373,0.852,2.826,1.854,3.709c1.104,0.973,2.586,1.465,4.055,1.352
				c1.42-0.108,2.766-0.783,3.709-1.854c1.033-1.173,1.352-2.531,1.352-4.055v-1C430.193,216.513,429.342,215.06,428.34,214.177z"/>
		</g>
	</g>
	<g>
		<g>
			<path d="M427.215,265.302c-0.846-0.704-1.746-1.178-2.842-1.371c-0.68-0.119-1.393-0.105-2.088-0.105
				c-1.373-0.002-2.826,0.853-3.709,1.854c-0.973,1.104-1.465,2.586-1.352,4.055c0.109,1.421,0.783,2.767,1.854,3.709
				c0.087,0.076,0.176,0.141,0.266,0.209c0.227,0.295,0.475,0.562,0.734,0.791c1.104,0.973,2.586,1.465,4.055,1.352
				c1.42-0.108,2.766-0.783,3.709-1.854c1.031-1.172,1.354-2.532,1.352-4.055C429.193,268.19,428.549,266.416,427.215,265.302z"/>
		</g>
	</g>
	<g>
		<g>
			<path d="M383.34,302.177c-1.172-1.032-2.531-1.352-4.055-1.352h-1c-1.373,0-2.826,0.852-3.709,1.854
				c-0.973,1.104-1.465,2.586-1.352,4.055c0.109,1.421,0.783,2.767,1.854,3.709c1.174,1.032,2.531,1.352,4.055,1.352h1
				c1.373,0,2.826-0.852,3.709-1.854c0.973-1.104,1.465-2.586,1.352-4.055C385.086,304.465,384.41,303.12,383.34,302.177z"/>
		</g>
	</g>
	<g>
		<g>
			<path d="M348.34,311.177c-1.172-1.032-2.531-1.352-4.055-1.352h-1c-1.373,0-2.826,0.852-3.709,1.854
				c-0.973,1.104-1.465,2.586-1.352,4.055c0.109,1.421,0.783,2.767,1.854,3.709c1.174,1.032,2.531,1.352,4.055,1.352h1
				c1.373,0,2.826-0.852,3.709-1.854c0.973-1.104,1.465-2.586,1.352-4.055C350.086,313.465,349.41,312.12,348.34,311.177z"/>
		</g>
	</g>
	<g>
		<g>
			<path d="M290.285,325.826c-7.089,0-6.211,10.969,0.848,10.969C298.222,336.794,297.344,325.826,290.285,325.826z"/>
		</g>
	</g>
	<g>
		<g>
			<path d="M287.285,291.826c-7.089,0-6.211,10.969,0.848,10.969C295.222,302.794,294.344,291.826,287.285,291.826z"/>
		</g>
	</g>
	<g>
		<g>
			<path d="M158.34,150.177c-1.105-0.973-2.586-1.465-4.055-1.352c-1.496,0.113-2.672,0.815-3.709,1.854
				c-1.125,1.127-2.162,2.459-2.419,4.084c-0.177,1.109-0.124,1.967,0.231,3.036c-0.109-0.329,0.412,1.009,0.697,1.353
				c0.993,1.195,0.846,1.057,2.162,1.894c1.113,0.708,2.631,0.73,3.885,0.749c1.363,0.021,2.838-0.865,3.709-1.854
				c0.973-1.104,1.465-2.586,1.352-4.055c-0.012-0.148-0.054-0.289-0.076-0.436C160.464,153.557,159.779,151.445,158.34,150.177z"/>
		</g>
	</g>
	<g>
		<g>
			<path d="M206.34,111.177c-2.312-2.035-5.707-1.672-7.764,0.502c-1.074,1.137-1.682,2.431-2.095,3.914
				c-0.282,1.01-0.257,2.1-0.257,3.141c-0.002,1.373,0.853,2.827,1.854,3.709c1.104,0.973,2.586,1.465,4.055,1.352
				c1.42-0.108,2.766-0.783,3.709-1.854c0.879-0.999,1.237-2.133,1.326-3.387C208.852,116.349,208.402,112.994,206.34,111.177z"/>
		</g>
	</g>
	<g>
		<g>
			<path d="M239.34,97.177c-1.172-1.032-2.531-1.352-4.055-1.352h-1c-1.373,0-2.826,0.852-3.709,1.854
				c-0.973,1.104-1.465,2.586-1.352,4.055c0.109,1.421,0.783,2.767,1.854,3.709c1.174,1.032,2.531,1.352,4.055,1.352h1
				c1.373,0,2.826-0.852,3.709-1.854c0.973-1.104,1.465-2.586,1.352-4.055C241.086,99.465,240.41,98.12,239.34,97.177z"/>
		</g>
	</g>
	<g>
		<g>
			<path d="M237.285,143.826c-7.089,0-6.211,10.969,0.848,10.969C245.222,154.794,244.344,143.826,237.285,143.826z"/>
		</g>
	</g>
	<g>
		<g>
			<path d="M392.285,195.826c-7.089,0-6.211,10.969,0.848,10.969C400.222,206.794,399.344,195.826,392.285,195.826z"/>
		</g>
	</g>
	<g>
		<g>
			<path d="M409.34,167.177c-1.105-0.973-2.586-1.465-4.055-1.352c-1.421,0.108-2.768,0.783-3.709,1.854
				c-1.032,1.173-1.352,2.531-1.352,4.055v1c0,1.373,0.852,2.826,1.854,3.709c1.104,0.973,2.586,1.465,4.055,1.352
				c1.42-0.108,2.766-0.783,3.709-1.854c1.033-1.173,1.352-2.531,1.352-4.055v-1C411.193,169.513,410.342,168.06,409.34,167.177z"/>
		</g>
	</g>
	<g>
		<g>
			<path d="M423.285,193.826c-7.089,0-6.211,10.969,0.848,10.969C431.222,204.794,430.344,193.826,423.285,193.826z"/>
		</g>
	</g>
</g>
</svg>
