<?xml version="1.0" encoding="utf-8"?>
<!-- Generator: Adobe Illustrator 16.0.3, SVG Export Plug-In . SVG Version: 6.00 Build 0)  -->
<!DOCTYPE svg PUBLIC "-//W3C//DTD SVG 1.1//EN" "http://www.w3.org/Graphics/SVG/1.1/DTD/svg11.dtd">
<svg version="1.1" id="Layer_1" xmlns="http://www.w3.org/2000/svg" xmlns:xlink="http://www.w3.org/1999/xlink" x="0px" y="0px"
	 width="512px" height="512px" viewBox="0 0 512 512" style="enable-background:new 0 0 512 512;" xml:space="preserve">
<style type="text/css">
<![CDATA[
	.st0{fill:#127274;}
	.st1{fill:#14B6B9;}
	.st2{fill:#EF4823;}
	.st3{fill:#BCBCBC;}
	.st4{fill:#F6851F;}
	.st5{fill:#C56528;}
	.st6{fill:#FEBF10;}
	.st7{fill:none;}
	.st8{fill:#010101;}
	.st9{fill:#3AB37C;}
	.st10{fill:#D6E5E5;}
	.st11{fill:#71C598;}
	.st12{fill:#74CCCF;}
]]>
</style>
<g>
	<g>
		<g>
			<path class="st12" d="M481.947,232.221c-4.37-9.369-16.518-10.502-25.1-13.959c-3.307-1.332-3.184-5.325-1.531-7.78
				c5.782-8.597,9.127-19.549,9.841-29.835c0.768-11.055-2.553-20.208-10.049-28.349c-14.29-15.519-37.011-26.564-57.24-15.371
				c-3.133,1.734-7.585,0.273-7.782-3.76c-0.982-20.013-10.193-36.679-25.828-49.092c-9.361-7.431-19.838-12.833-32.134-11.147
				c-11.161,1.53-21.39,6.846-31.256,12c-2.229,1.166-5.532,1.232-6.94-1.349c-6.24-11.428-14.851-22.235-27.01-27.682
				c-12.074-5.408-25.902-5.074-38.192-0.394c-14.999,5.711-29.439,13.575-41.154,24.695c-4.21,3.997-7.196,8.144-7.565,14.077
				c-0.354,5.69,0.35,11.417,0.053,17.124c-0.223,4.278-4.59,7.146-8.287,4.141c-10.041-8.159-20.526-14.021-33.858-13.921
				c-14.886,0.111-29.573,5.599-40.847,15.346c-19.076,16.492-24.729,41.239-21.008,65.434c0.534,3.475-2.953,5.587-5.94,5.293
				c-19.752-1.943-44.701,2.175-53.565,22.543c-3.404,7.822-5.407,17.677-3.154,26.106c1.087,4.063,2.766,8.128,6.063,10.916
				c3.896,3.293,9.233,2.492,13.89,1.666c11.052-1.961,20.683-3.009,30.633,3.301c7.58,4.808,13.531,11.746,21.076,16.515
				c21.118,13.346,44.731-1.632,62.216-14.099c1.305-0.93,3.614-1.269,5.021-0.334c4.214,2.801,7.432,6.295,11.156,9.653
				c4.461,4.021,9.277,4.485,15.197,4.173c6.387-0.336,13.07-1.242,18.592-4.686c3.672-2.292,7.043-4.839,10.098-7.811
				c-0.025-15.473,8.124-30.649,22.715-39.273c13.93-8.233,29.127-11.523,45.182-8.657c13.08,2.335,25.401,7.368,37.521,12.702
				c5.622-28.83,45.12-37.311,70.739-35.173c18.621,1.553,37.753,11.912,50.365,25.534c12.348,13.336,19.428,29.603,19.413,47.478
				c7.388-0.366,15.104,0.701,22.243,3.115c0.777-2.341,3.108-4.145,5.483-3.668C485.143,250.205,485.358,239.534,481.947,232.221z"
				/>
		</g>
	</g>
	<g>
		<g>
			<path class="st6" d="M196.062,334.177c-8.066,1.625-16.253,3.947-24.552,3.49c-2.43-0.134-5.521-1.634-5.371-4.602
				c0.253-4.994,2.163-9.415,3.274-14.092c-0.019,0.028-0.034,0.058-0.052,0.086c-3.779,5.911-8.348,11.264-12.479,16.923
				c-6.696,9.169-14.163,17.737-21.126,26.695c5.038-1.048,9.967-2.717,14.92-4.26c9.262-2.886,18.83-4.929,28.129-7.79
				c3.949-1.215,6.801,1.918,6.562,5.674c-0.461,7.228-5.708,13.583-10.024,19.023c-5.774,7.278-11.079,14.915-16.865,22.188
				c-9.788,12.303-20.191,23.945-29.733,36.378c5.106-1.196,10.185-2.577,15.062-4.155c7.285-2.356,14.529-5.126,22.269-5.374
				c3.086-0.099,6.122,2.657,5.293,5.94c-1.067,4.229-3.39,8.25-5.39,12.085c-0.004,0.008-0.009,0.016-0.013,0.024
				c1.813-2.095,3.61-4.214,5.404-6.364c8.206-9.836,16.71-19.661,23.394-30.618c-6.963,2.132-13.785,4.712-21.252,4.905
				c-3.966,0.103-7.598-5.06-4.142-8.287c5.329-4.976,7.52-12.287,11.681-18.153c5.21-7.346,11.125-14.037,15.775-21.779
				c4.305-7.166,8.358-14.497,12.863-21.54c2.088-3.266,5.084-7.191,6.5-11.273C209.514,331.063,202.871,332.806,196.062,334.177z"
				/>
		</g>
	</g>
	<g>
		<g>
			<path class="st6" d="M321.433,375.917c-10.189,0.879-20.341,2.228-30.59,1.75c-3.142-0.146-6.03-2.46-5.293-5.94
				c0.781-3.687,1.812-7.319,2.837-10.951c-8.8,13.027-19.524,24.764-29.697,36.823c4.512-0.828,8.986-1.824,13.295-3.267
				c6.789-2.272,13.514-5.034,20.756-5.305c3.341-0.125,5.785,2.65,5.293,5.94c-0.977,6.521-5.275,11.578-9.773,16.117
				c-5.441,5.492-10.286,11.458-15.272,17.358c-6.458,7.641-13.653,15.027-19.815,23.066c0.891-0.643,1.773-1.298,2.632-2
				c5.017-4.099,10.618-7.576,15.696-11.662c10.57-8.505,20.892-17.161,31.058-26.151c10.382-9.182,21.585-17.516,31.567-27.137
				c2.772-2.672,5.624-5.251,8.41-7.908c1.557-1.485,3.146-2.975,4.525-4.631c0.019-0.022,0.032-0.041,0.051-0.062
				C338.724,374.475,330.236,375.158,321.433,375.917z"/>
		</g>
	</g>
	<g>
		<g>
			<path class="st10" d="M448.457,268.769c-3.48,0.534-5.579-2.952-5.293-5.94c3.236-33.776-27.689-64.955-60.615-67.702
				c-20.775-1.733-60.88,4.487-60.49,32.271c0.055,3.866-3.602,6.469-7.211,4.864c-24.623-10.95-52.276-23.526-77.979-8.334
				c-11.132,6.58-18.23,17.101-19.416,28.398c0.233,0.227,0.446,0.474,0.637,0.735c-0.001,0.092-0.007,0.185-0.007,0.276
				c-0.04,0.53-0.082,1.059-0.121,1.584c-0.033,0.354-0.055,0.708-0.067,1.063c-0.011,0.193-0.015,0.385-0.021,0.577
				c0,0.031-0.002,0.061-0.002,0.092c-0.024,0.78-0.023,1.553,0.051,2.311c-0.032,0.04-0.06,0.08-0.094,0.119
				c-0.107,0.124-0.22,0.239-0.328,0.362c0.663,5.608,2.822,11.245,6.717,16.541c2.172,2.952-0.053,7.688-3.76,7.782
				c-2.66,0.068-5.972,0.742-8.825,1.993c-0.854-0.233-1.835-0.028-2.459,0.91c-0.038,0.058-0.077,0.118-0.115,0.176
				c-2.005,1.164-3.449,3.276-3.774,5.683c-0.102,0.749,0.051,1.476,0.481,2.008c-0.001,0.006-0.003,0.012-0.003,0.019
				c-0.188,2.025,0.77,3.351,2.176,4.143c-0.006,0.047-0.006,0.096-0.014,0.143c5.375,6.214,15.193,5.947,22.764,5.952
				c2.014,0.001,3.473,0.984,4.33,2.332c0.787,0.097,1.586,0.377,2.355,0.898c13.384,9.054,27.642,11.721,43.585,11.765
				c8.562,0.023,16.573-5.022,25.046-4.631c7.1,0.328,12.176,4.902,18.494,7.664c15.757,6.888,32.322,7.306,48.824,2.861
				c5.692-1.533,11.611-3.313,16.762-6.243c3.26-1.854,8.807-4.899,9.002-9.274c0.158-3.538,3.523-6.883,7.211-4.864
				c25.395,13.903,60.184,19.223,79.85-7.018C502.968,275.839,464.227,266.351,448.457,268.769z"/>
		</g>
	</g>
	<g>
		<g>
			<path d="M488.959,268.111c-0.657-0.468-1.331-0.918-2.016-1.354c7.978-9.856,8.823-24.984,4.965-36.53
				c-4.037-12.077-14.936-15.292-25.527-19.03c4.763-8.829,7.657-18.638,8.593-28.642c1.289-13.789-2.56-25.24-11.462-35.727
				c-15.791-18.603-40.946-29.782-64.119-21.425c-2.919-20.664-14.111-37.746-30.932-50.717
				c-10.469-8.074-22.225-12.807-35.582-11.889c-11.631,0.8-22.563,6.021-32.873,11.371c-6.969-11.473-16.375-21.359-28.639-27.23
				c-14.02-6.711-29.973-6.038-44.477-1.38c-17.543,5.633-33.158,15.929-46.832,28.038c-5.238,4.639-8.84,10.777-9.77,17.733
				c-0.465,3.479-0.418,7.005-0.307,10.537c-8.907-5.803-18.286-9.414-29.729-10.096c-16.523-0.985-33.448,5.074-46.49,15.043
				c-22.068,16.87-30.886,43.8-28.383,70.61c-21.084-0.791-43.018,4.717-55.175,23.45c-9.81,15.115-12.502,44.112,4.642,55.39
				c10.346,6.806,22.155,0.886,33.337,0.758c10.29-0.118,19.22,10.444,26.519,16.406c9.048,7.39,18.547,10.435,30.176,10.396
				c13.537-0.046,26.311-6.515,37.44-13.63c2.626-1.679,5.187-3.458,7.73-5.259c3.686,3.069,6.666,6.956,10.72,9.603
				c5.562,3.632,12.205,3.712,18.65,3.567c11.135-0.25,21.127-4.151,29.57-10.655c0.727,2.555,1.688,5.074,2.908,7.525
				c-10.139,2.833-18.497,10.652-16.023,22.325c3.23,15.243,21.141,17.311,33.98,17.46c0.255,0.274,0.556,0.537,0.916,0.781
				c7.062,4.778,14.272,8.614,22.451,11.1c8.108,2.464,16.748,2.887,25.164,3.084c4.956,0.117,9.525-0.197,14.337-1.422
				c4.665-1.188,9.198-2.889,14.05-3.168c3.088-0.178,7.488,3.781,10.074,5.129c4.487,2.339,9.285,4.053,14.108,5.549
				c16.62,5.153,34.444,2.939,50.776-2.173c9.277-2.904,20.791-7.744,25.349-16.708c29.753,14.188,68.977,15.88,88.853-15.27
				C503.656,289.557,500.468,276.311,488.959,268.111z M207.34,255.632c-3.055,2.972-6.426,5.52-10.098,7.811
				c-5.521,3.444-12.205,4.35-18.592,4.686c-5.92,0.312-10.736-0.153-15.197-4.173c-3.725-3.358-6.942-6.852-11.156-9.653
				c-1.406-0.935-3.716-0.596-5.021,0.334c-17.484,12.467-41.098,27.445-62.216,14.099c-7.545-4.769-13.496-11.707-21.076-16.515
				c-9.95-6.31-19.581-5.263-30.633-3.301c-4.656,0.826-9.994,1.627-13.89-1.666c-3.298-2.787-4.977-6.852-6.063-10.916
				c-2.253-8.429-0.25-18.284,3.154-26.106c8.864-20.368,33.813-24.486,53.565-22.543c2.987,0.294,6.475-1.818,5.94-5.293
				c-3.721-24.195,1.932-48.941,21.008-65.434c11.273-9.747,25.961-15.235,40.847-15.346c13.332-0.1,23.817,5.762,33.858,13.921
				c3.697,3.005,8.064,0.137,8.287-4.141c0.297-5.707-0.406-11.433-0.053-17.124c0.369-5.934,3.355-10.081,7.565-14.077
				c11.715-11.12,26.155-18.984,41.154-24.695c12.29-4.68,26.118-5.014,38.192,0.394c12.159,5.447,20.77,16.254,27.01,27.682
				c1.408,2.581,4.711,2.515,6.94,1.349c9.866-5.154,20.095-10.47,31.256-12c12.296-1.686,22.772,3.716,32.134,11.147
				c15.635,12.413,24.846,29.079,25.828,49.092c0.197,4.033,4.649,5.494,7.782,3.76c20.229-11.194,42.95-0.148,57.24,15.371
				c7.496,8.141,10.816,17.293,10.049,28.349c-0.714,10.286-4.059,21.238-9.841,29.835c-1.652,2.456-1.775,6.448,1.531,7.78
				c8.582,3.457,20.729,4.59,25.1,13.959c3.411,7.312,3.195,17.983-0.946,25.468c-2.375-0.477-4.706,1.327-5.483,3.668
				c-7.14-2.414-14.855-3.481-22.243-3.115c0.015-17.875-7.065-34.142-19.413-47.478c-12.612-13.622-31.744-23.98-50.365-25.534
				c-25.619-2.137-65.117,6.343-70.739,35.173c-12.119-5.333-24.44-10.366-37.521-12.702c-16.055-2.866-31.252,0.424-45.182,8.657
				C215.464,224.983,207.314,240.16,207.34,255.632z M486.146,298.285c-19.666,26.241-54.455,20.921-79.85,7.018
				c-3.688-2.019-7.053,1.326-7.211,4.864c-0.195,4.375-5.742,7.42-9.002,9.274c-5.15,2.93-11.069,4.709-16.762,6.243
				c-16.502,4.445-33.067,4.027-48.824-2.861c-6.318-2.762-11.395-7.336-18.494-7.664c-8.473-0.391-16.484,4.655-25.046,4.631
				c-15.943-0.044-30.201-2.711-43.585-11.765c-0.77-0.521-1.568-0.801-2.355-0.898c-0.857-1.348-2.316-2.331-4.33-2.332
				c-7.57-0.005-17.389,0.262-22.764-5.952c0.008-0.047,0.008-0.096,0.014-0.143c-1.406-0.792-2.363-2.118-2.176-4.143
				c0-0.006,0.002-0.013,0.003-0.019c-0.431-0.533-0.583-1.26-0.481-2.008c0.325-2.407,1.77-4.519,3.774-5.683
				c0.038-0.059,0.077-0.118,0.115-0.176c0.624-0.938,1.604-1.144,2.459-0.91c2.854-1.251,6.165-1.925,8.825-1.993
				c3.707-0.095,5.932-4.83,3.76-7.782c-3.895-5.296-6.054-10.933-6.717-16.541c0.108-0.123,0.221-0.239,0.328-0.362
				c0.034-0.039,0.062-0.08,0.094-0.119c-0.074-0.757-0.075-1.53-0.051-2.311c0-0.031,0.002-0.061,0.002-0.092
				c0.006-0.192,0.01-0.384,0.021-0.577c0.013-0.354,0.034-0.708,0.067-1.063c0.039-0.526,0.081-1.054,0.121-1.584
				c0-0.092,0.006-0.185,0.007-0.276c-0.19-0.262-0.403-0.509-0.637-0.735c1.186-11.297,8.284-21.818,19.416-28.398
				c25.703-15.192,53.356-2.616,77.979,8.334c3.609,1.605,7.266-0.998,7.211-4.864c-0.39-27.784,39.715-34.004,60.49-32.271
				c32.926,2.747,63.852,33.925,60.615,67.702c-0.286,2.988,1.812,6.474,5.293,5.94
				C464.227,266.351,502.968,275.839,486.146,298.285z"/>
		</g>
	</g>
	<g>
		<g>
			<path d="M357.845,369.027c-0.597-2.212-2.174-3.213-3.883-3.312c-0.266-2.958-2.886-5.754-6.49-4.421
				c-8.762,3.241-17.574,3.926-26.809,4.65c-7.972,0.625-15.89,1.621-23.863,1.804c2.019-7.541,4.517-14.975,5.233-22.78
				c0.262-2.845-1.56-4.808-3.703-5.537c-1.596-3.322-7.001-4.618-9.018-0.309c-11.1,23.725-30.703,41.86-46.611,62.257
				c-2.449,3.14-0.529,9.067,4.142,8.288c7.847-1.309,15.671-2.686,23.423-4.483c4.821-1.118,9.43-3.085,14.16-4.505
				c-2.034,2.452-4.523,4.64-6.622,6.79c-5.245,5.372-9.81,11.439-14.683,17.142c-9.267,10.844-19.534,21.273-26.476,33.846
				c-1.901,3.444,0.678,6.419,3.688,6.96c1.161,3.105,5.584,5.11,8.548,1.898c4.108-4.453,10.095-8.251,15.233-11.435
				c6.1-3.778,11.511-8.633,17.139-13.054c11.527-9.054,22.269-18.952,33.367-28.511c10.227-8.808,20.627-17.26,30.472-26.504
				C349.876,383.318,359.922,376.724,357.845,369.027z M347.061,372.021c-1.379,1.656-2.969,3.146-4.525,4.631
				c-2.786,2.657-5.638,5.235-8.41,7.908c-9.982,9.621-21.186,17.955-31.567,27.137c-10.166,8.99-20.487,17.646-31.058,26.151
				c-5.078,4.086-10.68,7.563-15.696,11.662c-0.858,0.701-1.741,1.357-2.632,2c6.162-8.039,13.357-15.425,19.815-23.066
				c4.986-5.899,9.831-11.866,15.272-17.358c4.498-4.54,8.797-9.596,9.773-16.117c0.492-3.291-1.952-6.065-5.293-5.94
				c-7.242,0.271-13.967,3.032-20.756,5.305c-4.309,1.442-8.783,2.438-13.295,3.267c10.173-12.059,20.897-23.796,29.697-36.823
				c-1.024,3.632-2.056,7.264-2.837,10.951c-0.737,3.48,2.151,5.794,5.293,5.94c10.249,0.478,20.4-0.871,30.59-1.75
				c8.804-0.76,17.291-1.442,25.679-3.959C347.093,371.98,347.079,371.999,347.061,372.021z"/>
		</g>
	</g>
	<g>
		<g>
			<path d="M206.727,364.993c4.444-7.399,8.698-14.904,13.334-22.187c3.757-5.899,8.185-13.21,6.718-20.51
				c-0.669-3.328-3.243-5.209-6.64-4.335c-8.795,2.265-17.402,4.744-26.312,6.539c-5.584,1.125-11.198,2.548-16.885,3.057
				c0.953-3.453,2.43-6.79,2.946-10.352c0.758-5.229,0.491-10.489,2.146-15.571c0.893-2.743-0.591-4.622-2.676-5.32
				c-1.37-3.219-6.93-4.575-9.379-0.525c-3.338,5.52-5.256,11.748-8.618,17.322c-3.771,6.252-8.741,11.816-13.041,17.705
				c-8.623,11.807-18.612,22.535-26.951,34.563c-2.626,3.789-0.428,8.087,4.142,8.288c9.268,0.408,18.255-2.556,26.977-5.337
				c6.547-2.087,13.25-3.744,19.918-5.519c-2.085,3.229-4.818,6.194-7.001,8.983c-5.711,7.295-11.024,14.884-16.835,22.11
				c-11.842,14.726-24.467,28.507-35.2,44.142c-2.159,3.146-0.728,9.149,4.142,8.287c8.356-1.479,16.51-3.813,24.745-5.829
				c5.378-1.316,10.565-3.426,15.909-4.81c-0.25,0.49-0.496,0.982-0.747,1.472c-2.699,5.254-5.567,10.423-8.484,15.559
				c-2.889,5.087-5.862,10.129-8.978,15.082c-1.024,1.628-2.072,3.236-3.194,4.798c-0.276,0.384-0.57,0.754-0.863,1.125
				c-3.674,1.32-4.026,8.24,0.94,9.859c2.307,0.751,4.291-0.611,5.908-2.409c1.01,0.098,2.102-0.188,3.175-1.021
				c5.478-4.254,9.224-10.151,13.402-15.592c5.579-7.264,12.849-13.165,18.482-20.47c10.996-14.257,23.412-27.363,31.132-43.859
				c1.517-3.241-0.947-7.786-4.864-7.211c-6.849,1.006-13.321,3.614-19.95,5.436c1.737-3.201,3.379-6.473,5.475-9.429
				C195.342,380.935,201.593,373.541,206.727,364.993z M173.51,410.333c7.467-0.193,14.289-2.773,21.252-4.905
				c-6.684,10.957-15.188,20.782-23.394,30.618c-1.794,2.15-3.591,4.269-5.404,6.364c0.004-0.008,0.009-0.016,0.013-0.024
				c2-3.835,4.322-7.856,5.39-12.085c0.829-3.283-2.207-6.04-5.293-5.94c-7.739,0.248-14.983,3.018-22.269,5.374
				c-4.877,1.578-9.955,2.959-15.062,4.155c9.542-12.433,19.945-24.075,29.733-36.378c5.786-7.273,11.091-14.91,16.865-22.188
				c4.316-5.44,9.563-11.795,10.024-19.023c0.239-3.756-2.612-6.889-6.562-5.674c-9.299,2.86-18.867,4.903-28.129,7.79
				c-4.953,1.543-9.882,3.212-14.92,4.26c6.963-8.958,14.43-17.526,21.126-26.695c4.132-5.659,8.7-11.012,12.479-16.923
				c0.018-0.028,0.033-0.058,0.052-0.086c-1.111,4.678-3.021,9.099-3.274,14.092c-0.15,2.968,2.941,4.468,5.371,4.602
				c8.299,0.457,16.485-1.865,24.552-3.49c6.81-1.372,13.452-3.114,20.126-4.876c-1.416,4.083-4.412,8.008-6.5,11.273
				c-4.505,7.043-8.559,14.374-12.863,21.54c-4.65,7.742-10.565,14.433-15.775,21.779c-4.161,5.867-6.352,13.177-11.681,18.153
				C165.912,405.273,169.544,410.437,173.51,410.333z"/>
		</g>
	</g>
</g>
</svg>
