<?xml version="1.0" encoding="utf-8"?>
<!-- Generator: Adobe Illustrator 16.0.3, SVG Export Plug-In . SVG Version: 6.00 Build 0)  -->
<!DOCTYPE svg PUBLIC "-//W3C//DTD SVG 1.1//EN" "http://www.w3.org/Graphics/SVG/1.1/DTD/svg11.dtd">
<svg version="1.1" id="Layer_1" xmlns="http://www.w3.org/2000/svg" xmlns:xlink="http://www.w3.org/1999/xlink" x="0px" y="0px"
	 width="512px" height="512px" viewBox="0 0 512 512" style="enable-background:new 0 0 512 512;" xml:space="preserve">
<style type="text/css">
<![CDATA[
	.st0{fill:#127274;}
	.st1{fill:#14B6B9;}
	.st2{fill:#EF4823;}
	.st3{fill:#BCBCBC;}
	.st4{fill:#F6851F;}
	.st5{fill:#C56528;}
	.st6{fill:#FEBF10;}
	.st7{fill:none;}
	.st8{fill:#010101;}
	.st9{fill:#3AB37C;}
	.st10{fill:#D6E5E5;}
	.st11{fill:#71C598;}
	.st12{fill:#74CCCF;}
]]>
</style>
<g>
	<g>
		<g>
			<path class="st6" d="M402.152,182.071c-18.406-44.75-53.223-83.506-101.229-96.112c-40.188-10.551-80.795-2.803-116.645,15.961
				c22.023-2.988,46.617,7.166,63.019,20.456c25.442,20.616,37.517,58.634,33.312,90.573c-1.65,12.538-5.721,26.365-13.76,36.382
				c-3.881,4.838-8.635,8.875-13.449,12.755c-2.205,1.778-8.541,5.956-6.002,9.527c4.057,5.707,15.943,4.931,22.064,6.566
				c10.129,2.706,17.255,11.096,18.289,21.702c0.575,5.893-0.309,11.824-2.486,17.331c-0.882,2.226-1.881,5.32-3.609,7.055
				c-2.012,2.021-4.492,4.179-5.808,6.789c3.405,0.155,6.8-0.032,10.175-0.961c8.988-2.473,15.412-8.242,21.887-14.688
				c4.677-4.658,12.459,2.098,7.737,6.8c-7.153,7.125-14.896,14.496-24.907,17.25c-4.954,1.362-9.863,2.026-14.908,1.852
				c0.188,0.793,0.367,1.595,0.502,2.412c0.519,3.106,0.365,6.086-0.148,9.188c-0.906,5.48-2.461,10.968-4.873,15.989
				c-7.301,15.197-20.508,26.654-36.134,31.636c17.251,3.157,35,3.779,52.657,1.554c14.137-1.782,27.945-5.473,40.953-10.906
				c2.119-9.029,7.102-17.097,15.781-21.896c4.152-2.295,8.673-4.181,13.329-5.174c2.212-0.472,9.567-0.698,9.985-3.596
				c0.641-4.442-0.478-9.368,0.938-13.691c1.443-4.408,3.473-8.555,6.395-12.191c7.449-9.27,18.078-15.313,29.132-16.448
				C422.954,275.216,419.768,224.898,402.152,182.071z M339.609,207.224c-1.393,1.961-1.926,4.86-3.372,6.973
				c-1.346,1.966-2.851,3.805-4.655,5.366c-3.572,3.09-8.28,4.939-12.956,5.507c-9.878,1.2-20.05-2.535-23.799-12.333
				c-2.381-6.223,7.356-9.594,9.724-3.406c2.201,5.755,9.936,6.727,15.195,5.041c3.051-0.978,4.907-2.304,6.976-4.677
				c2.384-2.738,3.067-6.34,5.15-9.271C335.713,195.015,343.424,201.853,339.609,207.224z"/>
		</g>
	</g>
	<g>
		<g>
			<path class="st12" d="M168.727,386.267c-6.58-3.968-12.933-8.345-19.01-13.119c-19.511-15.329-36.55-34.513-47.854-56.713
				c-3.637-7.143-6.836-14.496-9.394-22.072c-15.493-4.517-29.341,8.812-30.437,23.938c-0.205,2.826-3.418,4.293-5.862,3.954
				c-10.009-1.388-23.536,2.576-30.556,10.061c-3.15,3.359-4.95,7.243-2.735,11.679c3.202,6.413,9.29,8.737,15.961,9.669
				c6.727,0.939,13.62,1.811,18.585,6.927c5.061,5.213,4.809,13.604,10.204,18.338c13.344,11.708,33.554,8.326,47.699,0.273
				c2.743-1.562,6.427-0.742,7.516,2.492c3.74,11.105,14.958,18.281,26.705,16.524c4.04-0.604,8.096-1.956,11.808-3.642
				c2.062-0.937,4.154-2.013,5.889-3.493c0.339-0.289,0.816-0.682,1.006-1.073c0.039-0.081,0.073-0.15,0.105-0.214
				C168.018,388.456,168.205,387.256,168.727,386.267z"/>
		</g>
	</g>
	<g>
		<g>
			<path class="st4" d="M274.49,293.044c-2.967-3.883-6.281-4.752-10.914-5.59c-8.096-1.465-17.959-2.119-23.705-8.787
				c-7.596-8.817-0.602-18.372,6.722-24.274c4.844-3.904,9.878-7.915,13.433-13.092c3.597-5.237,6.287-11.701,7.963-17.812
				c3.58-13.074,3.951-26.718,1.471-40.039c-4.471-24.001-16.359-46.894-37.883-59.505c-14.188-8.313-33.345-15.039-50.039-11.072
				c-0.48-0.48-1.166-0.773-1.997-0.646c-4.641,0.714-9.007,1.9-12.911,4.02c-1.057,0.488-2.098,1.016-3.128,1.568
				c-0.735-0.615-1.321-1.42-1.681-2.309c-40.67,28.118-74.279,72.224-66.622,123.979c0.165,0.493,0.255,1.05,0.255,1.674
				c0.108,0.652,0.1,1.245,0.003,1.78c0.026,11.969,0.36,23.697,3.162,35.432c2.54,10.639,6.171,21.026,11.041,30.829
				c9.815,19.756,24.104,37.268,40.971,51.43c18.112,15.207,39.007,26.76,61.267,34.009c0.744-1.016,1.961-1.69,3.691-1.651
				c25.753,0.57,48.633-18.825,50.842-44.882c0.223-2.62-0.569-5.325-1.232-8.013c-4.236-0.601-8.477-1.091-12.766-0.696
				c-6.629,0.612-7.393-9.664-0.792-10.272c4.509-0.416,9.022,0.125,13.531,0.747c0.467-1.534,1.116-2.998,1.93-4.216
				c3.557-5.344,8.216-9.07,9.702-15.594C278.104,304.363,278.224,297.93,274.49,293.044z M191.986,240.209
				c-12.578,3.069-27.496-3.378-34.594-13.934c-3.71-5.516,4.828-11.276,8.538-5.76c4.624,6.873,14.776,11.624,23.128,9.87
				c2.935-0.616,5.895-1.799,8.623-3.02c1.519-0.681,3.039-1.378,4.434-2.3c0.264-0.174,0.463-0.313,0.635-0.437
				c0.543-4.389,7.926-6.048,10.125-0.876C216.852,233.103,197.9,238.766,191.986,240.209z"/>
		</g>
	</g>
	<g>
		<g>
			<path class="st12" d="M468.933,370.108c-6.753-8.965-14.757-2.117-20.052,4.767c-2.785,3.623-8.267,1.102-8.742-2.916
				c-1.737-14.664-4.171-31.727-18.259-39.969c-8.363-4.893-17.39-5.622-26.229-1.319c-7.069,3.441-16.202,10.964-17.286,19.353
				c-0.854,6.606,1.326,15.103-5.091,19.61c-5.866,4.12-13.784,3.692-20.277,6.551c-16.819,7.404-18.204,27.628-12.152,42.736
				c1.144,2.857-1.167,6.631-4.335,6.64c-12.143,0.035-24.648,1.087-36.363,4.416c-10.279,2.92-23.404,7.885-26.113,19.552
				c-0.039,0.167-0.087,0.326-0.137,0.482c2.973,5.8,10.525,8.182,16.641,8.249c8.276,0.091,17.044-1.32,25.149-2.873
				c5.083-0.973,10.153-2.195,15.04-3.917c4.293-1.513,7.75-3.967,11.68-6.18c6.363-3.583,12.906-5.292,19.684-1.568
				c6.553,3.6,12.943,5.908,20.598,5.779c6.496-0.109,13.019-1.426,18.633-4.846c11.629-7.085,18.606-18.84,23.326-31.306
				c0.878-2.321,4.59-3.672,6.703-2.255c13.173,8.834,37.575,2.664,41.418-14.246C474.76,388.087,474.587,377.613,468.933,370.108z"
				/>
		</g>
	</g>
	<g>
		<g>
			<path d="M473.552,360.345c-7.969-7.676-17.443-5.123-24.901,0.609c-2.473-14.11-7.211-27.248-19.729-36.215
				c-4.276-3.063-8.849-5.01-13.507-5.991c15.281-37.479,14.637-80.688,3.658-119.313c-13.217-46.504-43.031-89.667-86.518-112.231
				c-42.216-21.905-92.748-20.717-136.055-2.69C135.266,110.001,73.34,170.064,85.182,241.95c0,13.605,0.688,26.518,3.713,39.826
				c0.166,0.727,0.358,1.445,0.537,2.167c-17.182-1.365-33.193,10.684-36.629,28.111c-11.902-0.151-24.66,4.417-33.261,12.292
				c-4.737,4.337-7.638,9.739-7.7,16.224c-0.072,7.449,6.132,15.399,12.309,18.94c7.504,4.302,16.28,2.891,23.901,6.368
				c4.188,1.911,5.099,7.218,6.564,11.084c1.768,4.661,4.821,8.369,8.738,11.397c15.097,11.669,35.902,9.465,52.313,1.837
				c6.861,12.758,21.488,20.343,36.158,17.748c8.27-1.464,24.665-6.424,26.347-16.359c33.228,17.522,71.397,25.055,109.023,20.942
				c13.947-1.524,27.515-4.805,40.382-9.688c0.061,4.377,0.66,8.751,1.721,12.896c-11.719,0.458-23.46,2.104-34.688,5.449
				c-13.371,3.983-27.025,11.923-30.395,26.435c-0.179,0.77-0.187,1.473-0.062,2.104c-0.418,0.981-0.416,2.173,0.251,3.504
				c8.056,16.081,25.361,15.429,40.784,13.781c10.843-1.159,21.768-3.348,31.974-7.243c4.36-1.665,8.178-4.689,12.22-6.965
				c4.438-2.499,7.711-0.496,11.627,1.815c13.216,7.803,31.827,5.885,44.869-1.08c12.063-6.442,20.338-18.513,25.758-30.917
				c9.26,4.022,20.119,3.27,29.441-0.555c11.828-4.852,19.76-14.422,22.219-26.867C485.662,383.214,482.496,368.962,473.552,360.345
				z M168.357,389.797c-0.032,0.064-0.066,0.133-0.105,0.214c-0.189,0.391-0.667,0.784-1.006,1.073
				c-1.734,1.48-3.826,2.556-5.889,3.493c-3.712,1.686-7.768,3.038-11.808,3.642c-11.747,1.757-22.965-5.419-26.705-16.524
				c-1.089-3.233-4.772-4.054-7.516-2.492c-14.146,8.052-34.355,11.435-47.699-0.273c-5.396-4.734-5.144-13.125-10.204-18.338
				c-4.965-5.116-11.858-5.988-18.585-6.927c-6.671-0.932-12.759-3.256-15.961-9.669c-2.215-4.436-0.415-8.319,2.735-11.679
				c7.02-7.485,20.547-11.449,30.556-10.061c2.444,0.339,5.657-1.128,5.862-3.954c1.096-15.127,14.943-28.455,30.437-23.938
				c2.558,7.577,5.757,14.929,9.394,22.072c11.304,22.2,28.343,41.384,47.854,56.713c6.077,4.774,12.43,9.151,19.01,13.119
				C168.205,387.256,168.018,388.456,168.357,389.797z M211.896,394.637c-22.26-7.249-43.154-18.802-61.267-34.009
				c-16.867-14.162-31.155-31.674-40.971-51.43c-4.87-9.803-8.501-20.19-11.041-30.829c-2.802-11.735-3.136-23.463-3.162-35.432
				c0.097-0.535,0.105-1.127-0.003-1.78c0-0.624-0.09-1.181-0.255-1.674c-7.657-51.755,25.952-95.861,66.622-123.979
				c0.359,0.889,0.945,1.693,1.681,2.309c1.03-0.552,2.071-1.08,3.128-1.568c3.904-2.119,8.271-3.305,12.911-4.02
				c0.831-0.127,1.517,0.165,1.997,0.646c16.694-3.966,35.852,2.759,50.039,11.072c21.523,12.612,33.412,35.504,37.883,59.505
				c2.48,13.321,2.109,26.965-1.471,40.039c-1.676,6.112-4.366,12.575-7.963,17.812c-3.555,5.177-8.589,9.188-13.433,13.092
				c-7.323,5.902-14.317,15.457-6.722,24.274c5.746,6.668,15.609,7.322,23.705,8.787c4.633,0.838,7.947,1.708,10.914,5.59
				c3.733,4.886,3.613,11.319,2.312,17.015c-1.486,6.523-6.146,10.25-9.702,15.594c-0.813,1.219-1.463,2.683-1.93,4.216
				c-4.509-0.622-9.022-1.163-13.531-0.747c-6.601,0.608-5.837,10.884,0.792,10.272c4.289-0.395,8.529,0.096,12.766,0.696
				c0.663,2.688,1.455,5.393,1.232,8.013c-2.209,26.058-25.089,45.452-50.842,44.882
				C213.857,392.947,212.641,393.621,211.896,394.637z M328.789,391.182c-13.008,5.433-26.816,9.124-40.953,10.906
				c-17.657,2.226-35.406,1.604-52.657-1.554c15.626-4.982,28.833-16.438,36.134-31.636c2.412-5.021,3.967-10.509,4.873-15.989
				c0.514-3.103,0.667-6.083,0.148-9.188c-0.135-0.817-0.314-1.619-0.502-2.412c5.045,0.174,9.954-0.489,14.908-1.852
				c10.012-2.754,17.754-10.125,24.907-17.25c4.722-4.702-3.061-11.458-7.737-6.8c-6.475,6.446-12.898,12.215-21.887,14.688
				c-3.375,0.929-6.77,1.116-10.175,0.961c1.315-2.609,3.796-4.768,5.808-6.789c1.729-1.734,2.728-4.829,3.609-7.055
				c2.178-5.507,3.062-11.438,2.486-17.331c-1.034-10.606-8.16-18.996-18.289-21.702c-6.121-1.635-18.008-0.859-22.064-6.566
				c-2.539-3.572,3.797-7.749,6.002-9.527c4.814-3.88,9.568-7.917,13.449-12.755c8.039-10.017,12.109-23.844,13.76-36.382
				c4.205-31.939-7.869-69.958-33.312-90.573c-16.401-13.29-40.995-23.444-63.019-20.456c35.85-18.764,76.457-26.512,116.645-15.961
				c48.006,12.605,82.822,51.362,101.229,96.112c17.615,42.827,20.802,93.145,2.196,136.114
				c-11.054,1.135-21.683,7.178-29.132,16.448c-2.922,3.636-4.951,7.783-6.395,12.191c-1.415,4.323-0.297,9.25-0.938,13.691
				c-0.418,2.898-7.773,3.124-9.985,3.596c-4.656,0.994-9.177,2.879-13.329,5.174C335.891,374.084,330.908,382.153,328.789,391.182z
				 M472.768,396.849c-3.843,16.91-28.245,23.08-41.418,14.246c-2.113-1.417-5.825-0.066-6.703,2.255
				c-4.72,12.466-11.697,24.22-23.326,31.306c-5.614,3.42-12.137,4.736-18.633,4.846c-7.654,0.129-14.045-2.18-20.598-5.779
				c-6.777-3.723-13.32-2.015-19.684,1.568c-3.93,2.212-7.387,4.667-11.68,6.18c-4.887,1.723-9.957,2.944-15.04,3.917
				c-8.105,1.552-16.873,2.964-25.149,2.873c-6.115-0.067-13.668-2.449-16.641-8.249c0.05-0.156,0.098-0.315,0.137-0.482
				c2.709-11.667,15.834-16.632,26.113-19.552c11.715-3.329,24.221-4.381,36.363-4.416c3.168-0.009,5.479-3.783,4.335-6.64
				c-6.052-15.108-4.667-35.332,12.152-42.736c6.493-2.858,14.411-2.431,20.277-6.551c6.417-4.507,4.237-13.004,5.091-19.61
				c1.084-8.389,10.217-15.912,17.286-19.353c8.839-4.303,17.865-3.573,26.229,1.319c14.088,8.242,16.521,25.305,18.259,39.969
				c0.476,4.018,5.957,6.539,8.742,2.916c5.295-6.884,13.299-13.731,20.052-4.767C474.587,377.613,474.76,388.087,472.768,396.849z"
				/>
		</g>
	</g>
	<g>
		<g>
			<path d="M331.872,200.424c-2.083,2.931-2.767,6.532-5.15,9.271c-2.068,2.373-3.925,3.7-6.976,4.677
				c-5.26,1.687-12.994,0.714-15.195-5.041c-2.367-6.188-12.104-2.817-9.724,3.406c3.749,9.798,13.921,13.533,23.799,12.333
				c4.676-0.568,9.384-2.417,12.956-5.507c1.805-1.561,3.31-3.4,4.655-5.366c1.446-2.113,1.979-5.012,3.372-6.973
				C343.424,201.853,335.713,195.015,331.872,200.424z"/>
		</g>
	</g>
	<g>
		<g>
			<path d="M212.875,223.752c-2.199-5.171-9.582-3.512-10.125,0.876c-0.172,0.124-0.371,0.263-0.635,0.437
				c-1.395,0.921-2.915,1.619-4.434,2.3c-2.729,1.221-5.688,2.403-8.623,3.02c-8.352,1.753-18.504-2.998-23.128-9.87
				c-3.71-5.517-12.248,0.244-8.538,5.76c7.098,10.556,22.016,17.003,34.594,13.934C197.9,238.766,216.852,233.103,212.875,223.752z
				"/>
		</g>
	</g>
</g>
</svg>
