<?xml version="1.0" encoding="utf-8"?>
<!-- Generator: Adobe Illustrator 16.0.3, SVG Export Plug-In . SVG Version: 6.00 Build 0)  -->
<!DOCTYPE svg PUBLIC "-//W3C//DTD SVG 1.1//EN" "http://www.w3.org/Graphics/SVG/1.1/DTD/svg11.dtd">
<svg version="1.1" id="Layer_1" xmlns="http://www.w3.org/2000/svg" xmlns:xlink="http://www.w3.org/1999/xlink" x="0px" y="0px"
	 width="512px" height="512px" viewBox="0 0 512 512" style="enable-background:new 0 0 512 512;" xml:space="preserve">
<style type="text/css">
<![CDATA[
	.st0{fill:#127274;}
	.st1{fill:#14B6B9;}
	.st2{fill:#EF4823;}
	.st3{fill:#BCBCBC;}
	.st4{fill:#F6851F;}
	.st5{fill:#C56528;}
	.st6{fill:#FEBF10;}
	.st7{fill:none;}
	.st8{fill:#010101;}
	.st9{fill:#3AB37C;}
	.st10{fill:#D6E5E5;}
	.st11{fill:#71C598;}
	.st12{fill:#74CCCF;}
]]>
</style>
<g>
	<g>
		<g>
			<path class="st12" d="M298.768,379.515c-1.418,1.866-3,3.624-4.623,5.259c-4.836,4.87-13.949,10.957-15.279,18.178
				c-0.554,3.002,0.865,8.03,4.354,8.771c4.066,0.863,8.475-1.313,11.303-4.206C301.637,400.238,300.418,389.509,298.768,379.515z"
				/>
		</g>
	</g>
	<g>
		<g>
			<path class="st12" d="M89.141,360.518c-3.462,4.467-13.841,16.229-9.23,22.391c5.32,7.111,11.424-7.275,12.953-11.393
				c1.753-4.722,1.71-9.67,1.807-14.658c0.024-1.273,0.051-2.546,0.08-3.818C92.936,355.567,91.052,358.052,89.141,360.518z"/>
		</g>
	</g>
	<g>
		<g>
			<path class="st12" d="M173.096,325.809c-1.13,1.269-2.316,2.499-3.535,3.691c-5.853,5.727-15.434,12.364-17.254,20.882
				c-0.901,4.221,0.15,10.479,3.488,13.546c3.613,3.32,8.379-0.208,11.178-3.104c4.102-4.244,7.325-9.077,7.735-15.096
				C175.162,339.049,174.086,332.42,173.096,325.809z"/>
		</g>
	</g>
	<g>
		<g>
			<path class="st12" d="M189.318,410.318c-9.363,12.294-22.409,30.87-10.908,35.196
				C192.93,450.977,190.144,422.342,189.318,410.318z"/>
		</g>
	</g>
	<g>
		<g>
			<path class="st10" d="M456.51,274.333c-3.48,0.534-5.579-2.952-5.293-5.94c3.236-33.776-27.689-64.955-60.615-67.702
				c-20.775-1.733-60.88,4.487-60.49,32.271c0.055,3.866-3.602,6.469-7.211,4.864c-24.623-10.95-52.276-23.526-77.979-8.334
				c-11.132,6.58-18.23,17.101-19.416,28.398c0.233,0.227,0.446,0.474,0.637,0.735c-0.001,0.092-0.007,0.185-0.007,0.276
				c-0.04,0.53-0.082,1.059-0.121,1.584c-0.033,0.354-0.055,0.708-0.067,1.063c-0.011,0.193-0.015,0.385-0.021,0.577
				c0,0.031-0.002,0.061-0.002,0.092c-0.024,0.78-0.023,1.553,0.051,2.311c-0.032,0.04-0.06,0.08-0.094,0.119
				c-0.107,0.124-0.22,0.239-0.328,0.362c0.663,5.608,2.822,11.245,6.717,16.541c2.172,2.952-0.053,7.688-3.76,7.782
				c-2.66,0.068-5.972,0.742-8.825,1.993c-0.854-0.233-1.835-0.028-2.459,0.91c-0.038,0.058-0.077,0.118-0.115,0.176
				c-2.005,1.164-3.449,3.276-3.774,5.683c-0.102,0.749,0.051,1.476,0.481,2.008c-0.001,0.006-0.003,0.012-0.003,0.019
				c-0.188,2.025,0.77,3.351,2.176,4.143c-0.006,0.047-0.006,0.096-0.014,0.143c5.375,6.214,15.193,5.947,22.764,5.952
				c2.014,0.001,3.473,0.984,4.33,2.332c0.787,0.097,1.586,0.377,2.355,0.898c13.384,9.054,27.642,11.721,43.585,11.765
				c8.562,0.023,16.573-5.022,25.046-4.631c7.1,0.328,12.176,4.902,18.494,7.664c15.757,6.888,32.322,7.306,48.824,2.861
				c5.692-1.533,11.611-3.313,16.762-6.243c3.26-1.854,8.807-4.899,9.002-9.274c0.158-3.538,3.523-6.883,7.211-4.864
				c25.395,13.903,60.184,19.223,79.85-7.018C511.021,281.403,472.279,271.916,456.51,274.333z"/>
		</g>
	</g>
	<g>
		<g>
			<path class="st12" d="M427.28,364.125c-0.448-1.462-1.222-4.572-2.425-6.935c-0.642,2.453-1.344,4.889-2.189,7.287
				c-1.641,4.656-4.058,8.145-7.192,11.898c-3.013,3.606-6.378,7.216-8.579,11.402c-2.008,3.819-2.457,5.829,1.768,7.861
				c10.752,5.172,20.645-8.184,20.625-18.064C429.278,373.051,428.606,368.453,427.28,364.125z"/>
		</g>
	</g>
	<g>
		<g>
			<path class="st12" d="M343.773,439.874c-0.478,1.207-0.979,2.402-1.543,3.567c-1.867,3.852-4.4,7.346-6.855,10.838
				c-3.631,5.167-13.594,17.181-5.479,22.833c5.2,3.622,13.283-9.161,14.687-12.675C347.656,456.744,345.86,448.131,343.773,439.874
				z"/>
		</g>
	</g>
	<g>
		<g>
			<path class="st12" d="M490,237.786c-4.37-9.369-16.518-10.502-25.1-13.959c-3.307-1.332-3.184-5.325-1.531-7.78
				c5.782-8.597,9.127-19.549,9.842-29.835c0.767-11.055-2.554-20.208-10.05-28.349c-14.29-15.519-37.011-26.564-57.24-15.371
				c-3.133,1.734-7.585,0.273-7.782-3.76c-0.982-20.013-10.193-36.679-25.828-49.092c-9.361-7.431-19.838-12.833-32.134-11.147
				c-11.161,1.53-21.39,6.846-31.256,12c-2.229,1.166-5.532,1.232-6.94-1.349c-6.24-11.428-14.851-22.235-27.01-27.682
				c-12.074-5.408-25.902-5.074-38.192-0.394c-14.999,5.711-29.439,13.575-41.154,24.695c-4.21,3.997-7.196,8.144-7.565,14.077
				c-0.354,5.69,0.35,11.417,0.053,17.124c-0.223,4.278-4.59,7.146-8.287,4.141c-10.041-8.159-20.526-14.021-33.858-13.921
				c-14.886,0.111-29.573,5.599-40.847,15.346c-19.076,16.492-24.729,41.239-21.008,65.434c0.534,3.475-2.953,5.587-5.94,5.293
				c-19.752-1.943-44.701,2.175-53.565,22.543c-3.404,7.822-5.407,17.677-3.154,26.106c1.087,4.063,2.766,8.128,6.063,10.916
				c3.896,3.293,9.233,2.492,13.89,1.666c11.052-1.961,20.683-3.009,30.633,3.301c7.58,4.808,13.531,11.746,21.076,16.515
				c21.118,13.346,44.731-1.632,62.216-14.099c1.305-0.93,3.614-1.269,5.021-0.334c4.214,2.801,7.432,6.295,11.156,9.653
				c4.461,4.021,9.277,4.485,15.197,4.173c6.387-0.336,13.07-1.242,18.592-4.686c3.672-2.292,7.043-4.839,10.098-7.811
				c-0.025-15.473,8.124-30.649,22.715-39.273c13.93-8.233,29.127-11.523,45.182-8.657c13.08,2.335,25.401,7.368,37.521,12.702
				c5.622-28.83,45.12-37.311,70.739-35.173c18.621,1.553,37.753,11.912,50.365,25.534c12.348,13.336,19.428,29.603,19.413,47.478
				c7.388-0.366,15.104,0.701,22.243,3.115c0.777-2.341,3.108-4.145,5.483-3.668C493.195,255.769,493.411,245.098,490,237.786z"/>
		</g>
	</g>
	<g>
		<g>
			<path d="M504.939,282.073v23.54C509.412,297.548,509.163,289.106,504.939,282.073z"/>
		</g>
	</g>
	<g>
		<g>
			<path d="M497.012,273.675c-0.657-0.468-1.331-0.918-2.016-1.354c7.978-9.856,8.823-24.984,4.965-36.53
				c-4.037-12.077-14.936-15.292-25.527-19.03c4.763-8.829,7.657-18.638,8.593-28.642c1.289-13.789-2.56-25.24-11.462-35.727
				c-15.791-18.603-40.946-29.782-64.119-21.425c-2.919-20.664-14.111-37.746-30.932-50.717
				c-10.469-8.074-22.225-12.807-35.582-11.889c-11.631,0.8-22.563,6.021-32.873,11.371c-6.969-11.473-16.375-21.359-28.639-27.23
				c-14.02-6.711-29.973-6.038-44.477-1.38c-17.543,5.633-33.158,15.929-46.832,28.038c-5.238,4.639-8.84,10.777-9.77,17.733
				c-0.465,3.479-0.418,7.005-0.307,10.537c-8.907-5.803-18.286-9.414-29.729-10.096c-16.523-0.985-33.448,5.074-46.49,15.043
				c-22.068,16.87-30.886,43.8-28.383,70.61c-21.084-0.791-43.018,4.717-55.175,23.45c-9.81,15.115-12.502,44.112,4.642,55.39
				c10.346,6.806,22.155,0.886,33.337,0.758c10.29-0.118,19.22,10.444,26.519,16.406c9.048,7.39,18.547,10.435,30.176,10.396
				c13.537-0.046,26.311-6.515,37.44-13.63c2.626-1.679,5.187-3.458,7.73-5.259c3.686,3.069,6.666,6.956,10.72,9.603
				c5.562,3.632,12.205,3.712,18.65,3.567c11.135-0.25,21.127-4.151,29.57-10.655c0.727,2.555,1.688,5.074,2.908,7.525
				c-10.139,2.833-18.497,10.652-16.023,22.325c3.23,15.243,21.141,17.311,33.98,17.46c0.255,0.274,0.556,0.537,0.916,0.781
				c7.062,4.778,14.272,8.614,22.451,11.1c8.108,2.464,16.748,2.887,25.164,3.084c4.956,0.117,9.525-0.197,14.337-1.422
				c4.665-1.188,9.198-2.889,14.05-3.168c3.088-0.178,7.488,3.781,10.074,5.129c4.487,2.339,9.285,4.053,14.108,5.549
				c16.62,5.153,34.444,2.939,50.776-2.173c9.277-2.904,20.791-7.744,25.349-16.708c29.753,14.188,68.977,15.88,88.853-15.27
				c0.342-0.535,0.654-1.073,0.953-1.613v-23.54C503.06,278.942,500.399,276.089,497.012,273.675z M215.393,261.197
				c-3.055,2.972-6.426,5.52-10.098,7.811c-5.521,3.444-12.205,4.35-18.592,4.686c-5.92,0.312-10.736-0.153-15.197-4.173
				c-3.725-3.358-6.942-6.852-11.156-9.653c-1.406-0.935-3.716-0.596-5.021,0.334c-17.484,12.467-41.098,27.445-62.216,14.099
				c-7.545-4.769-13.496-11.707-21.076-16.515c-9.95-6.31-19.581-5.263-30.633-3.301c-4.656,0.826-9.994,1.627-13.89-1.666
				c-3.298-2.787-4.977-6.852-6.063-10.916c-2.253-8.429-0.25-18.284,3.154-26.106c8.864-20.368,33.813-24.486,53.565-22.543
				c2.987,0.294,6.475-1.818,5.94-5.293c-3.721-24.195,1.932-48.941,21.008-65.434c11.273-9.747,25.961-15.235,40.847-15.346
				c13.332-0.1,23.817,5.762,33.858,13.921c3.697,3.005,8.064,0.137,8.287-4.141c0.297-5.707-0.406-11.433-0.053-17.124
				c0.369-5.934,3.355-10.081,7.565-14.077c11.715-11.12,26.155-18.984,41.154-24.695c12.29-4.68,26.118-5.014,38.192,0.394
				c12.159,5.447,20.77,16.254,27.01,27.682c1.408,2.581,4.711,2.515,6.94,1.349c9.866-5.154,20.095-10.47,31.256-12
				c12.296-1.686,22.772,3.716,32.134,11.147c15.635,12.413,24.846,29.079,25.828,49.092c0.197,4.033,4.649,5.494,7.782,3.76
				c20.229-11.194,42.95-0.148,57.24,15.371c7.496,8.141,10.816,17.293,10.05,28.349c-0.715,10.286-4.06,21.238-9.842,29.835
				c-1.652,2.456-1.775,6.448,1.531,7.78c8.582,3.457,20.729,4.59,25.1,13.959c3.411,7.312,3.195,17.983-0.946,25.468
				c-2.375-0.477-4.706,1.327-5.483,3.668c-7.14-2.414-14.855-3.481-22.243-3.115c0.015-17.875-7.065-34.142-19.413-47.478
				c-12.612-13.622-31.744-23.98-50.365-25.534c-25.619-2.137-65.117,6.343-70.739,35.173c-12.119-5.333-24.44-10.366-37.521-12.702
				c-16.055-2.866-31.252,0.424-45.182,8.657C223.517,230.548,215.367,245.724,215.393,261.197z M494.199,303.85
				c-19.666,26.241-54.455,20.921-79.85,7.018c-3.688-2.019-7.053,1.326-7.211,4.864c-0.195,4.375-5.742,7.42-9.002,9.274
				c-5.15,2.93-11.069,4.709-16.762,6.243c-16.502,4.445-33.067,4.027-48.824-2.861c-6.318-2.762-11.395-7.336-18.494-7.664
				c-8.473-0.391-16.484,4.655-25.046,4.631c-15.943-0.044-30.201-2.711-43.585-11.765c-0.77-0.521-1.568-0.801-2.355-0.898
				c-0.857-1.348-2.316-2.331-4.33-2.332c-7.57-0.005-17.389,0.262-22.764-5.952c0.008-0.047,0.008-0.096,0.014-0.143
				c-1.406-0.792-2.363-2.118-2.176-4.143c0-0.006,0.002-0.013,0.003-0.019c-0.431-0.533-0.583-1.26-0.481-2.008
				c0.325-2.407,1.77-4.519,3.774-5.683c0.038-0.059,0.077-0.118,0.115-0.176c0.624-0.938,1.604-1.144,2.459-0.91
				c2.854-1.251,6.165-1.925,8.825-1.993c3.707-0.095,5.932-4.83,3.76-7.782c-3.895-5.296-6.054-10.933-6.717-16.541
				c0.108-0.123,0.221-0.239,0.328-0.362c0.034-0.039,0.062-0.08,0.094-0.119c-0.074-0.757-0.075-1.53-0.051-2.311
				c0-0.031,0.002-0.061,0.002-0.092c0.006-0.192,0.01-0.384,0.021-0.577c0.013-0.354,0.034-0.708,0.067-1.063
				c0.039-0.526,0.081-1.054,0.121-1.584c0-0.092,0.006-0.185,0.007-0.276c-0.19-0.262-0.403-0.509-0.637-0.735
				c1.186-11.297,8.284-21.818,19.416-28.398c25.703-15.192,53.356-2.616,77.979,8.334c3.609,1.605,7.266-0.998,7.211-4.864
				c-0.39-27.784,39.715-34.004,60.49-32.271c32.926,2.747,63.852,33.925,60.615,67.702c-0.286,2.988,1.812,6.474,5.293,5.94
				C472.279,271.916,511.021,281.403,494.199,303.85z"/>
		</g>
	</g>
	<g>
		<g>
			<path d="M307.111,367.962c-0.185-1.922-1.39-3.367-2.92-4.083c-0.024-0.305-0.039-0.609-0.08-0.917
				c-0.842-6.358-10.822-5.642-9.973,0.77c1.218,9.2-9.874,16.616-15.557,22.312c-7.241,7.259-13.156,16.994-7.602,27.099
				c6.7,12.189,21.292,10.102,30.263,1.715C314.459,402.501,308.615,383.615,307.111,367.962z M294.521,407.517
				c-2.828,2.893-7.236,5.068-11.303,4.206c-3.488-0.74-4.907-5.768-4.354-8.771c1.33-7.221,10.443-13.308,15.279-18.178
				c1.623-1.635,3.205-3.393,4.623-5.259C300.418,389.509,301.637,400.238,294.521,407.517z"/>
		</g>
	</g>
	<g>
		<g>
			<path d="M351.111,427.962c-0.231-1.292-0.826-2.355-1.625-3.132c0.041-0.086,0.076-0.174,0.117-0.259
				c2.82-5.809-6.145-10.246-8.957-4.449c-3.241,6.677-4.832,14.165-8.293,20.676c-2.899,5.454-7.018,10.266-10.297,15.496
				c-6.121,9.756-8.041,23.605,3.883,30.019c10.27,5.525,20.966-6.184,25.748-13.832
				C360.342,458.641,353.713,442.482,351.111,427.962z M344.583,464.436c-1.403,3.514-9.486,16.297-14.687,12.675
				c-8.115-5.651,1.848-17.666,5.479-22.833c2.455-3.492,4.988-6.986,6.855-10.838c0.564-1.165,1.065-2.36,1.543-3.567
				C345.86,448.131,347.656,456.744,344.583,464.436z"/>
		</g>
	</g>
	<g>
		<g>
			<path d="M182.111,317.962c-0.166-1.507-0.85-2.613-1.785-3.346c1.179-2.986,1.854-6.186,1.785-9.654
				c-0.127-6.446-10.1-5.661-9.973,0.77c0.209,10.634-11.941,18.722-18.645,25.417c-8.449,8.438-14.211,18.793-9.957,30.831
				c2.232,6.318,6.649,12.594,13.809,13.322c6.724,0.684,12.549-3.437,17.141-7.875c4.858-4.695,8.78-11.251,9.835-17.958
				C185.975,338.954,183.254,328.37,182.111,317.962z M174.708,345.728c-0.41,6.02-3.634,10.852-7.735,15.096
				c-2.799,2.896-7.564,6.424-11.178,3.104c-3.338-3.067-4.39-9.325-3.488-13.546c1.82-8.518,11.401-15.155,17.254-20.882
				c1.219-1.193,2.405-2.423,3.535-3.691C174.086,332.42,175.162,339.049,174.708,345.728z"/>
		</g>
	</g>
	<g>
		<g>
			<path d="M199.111,405.962c-0.018-2.439-1.457-3.84-3.237-4.293c0.287-0.41,0.534-0.779,0.729-1.097
				c3.387-5.502-5.61-9.888-8.957-4.449c-8.234,13.377-41.759,49.328-11.476,59.133C204.387,464.39,199.221,421.23,199.111,405.962z
				 M178.41,445.515c-11.501-4.327,1.545-22.902,10.908-35.196C190.144,422.342,192.93,450.977,178.41,445.515z"/>
		</g>
	</g>
	<g>
		<g>
			<path d="M98.646,325.123c-4.859,13.94-14.41,24.271-22.463,36.266c-6.463,9.627-11.258,22.365-0.814,31.146
				c9.977,8.39,19.975-3.568,24.309-11.777c7.183-13.605,3.695-28.828,6.355-43.456c0.205-1.125,0.059-2.106-0.316-2.931
				c0.682-1.57,1.318-3.166,1.887-4.798C109.701,323.556,100.762,319.052,98.646,325.123z M94.67,356.858
				c-0.097,4.988-0.054,9.937-1.807,14.658c-1.529,4.117-7.633,18.503-12.953,11.393c-4.61-6.162,5.769-17.924,9.23-22.391
				c1.911-2.465,3.795-4.951,5.609-7.478C94.721,354.312,94.694,355.585,94.67,356.858z"/>
		</g>
	</g>
	<g>
		<g>
			<path d="M427.011,345.766c-1.241-4.119-8.503-4.67-9.794,0.627c-1.525,6.262-2.303,14.31-6.205,19.597
				c-3.896,5.276-8.4,9.989-11.99,15.508c-2.955,4.541-5.076,10.487-2.787,15.742c2.906,6.671,11.601,9.704,18.326,9.704
				c15.111,0.002,24.724-17.803,24.697-30.979C439.239,366.261,436.234,351.213,427.011,345.766z M408.662,395.639
				c-4.225-2.032-3.775-4.042-1.768-7.861c2.201-4.186,5.566-7.795,8.579-11.402c3.135-3.753,5.552-7.242,7.192-11.898
				c0.846-2.398,1.548-4.834,2.189-7.287c1.203,2.362,1.977,5.473,2.425,6.935c1.326,4.328,1.998,8.925,2.007,13.449
				C429.307,387.455,419.414,400.811,408.662,395.639z"/>
		</g>
	</g>
</g>
</svg>
