<?xml version="1.0" encoding="utf-8"?>
<!-- Generator: Adobe Illustrator 16.0.3, SVG Export Plug-In . SVG Version: 6.00 Build 0)  -->
<!DOCTYPE svg PUBLIC "-//W3C//DTD SVG 1.1//EN" "http://www.w3.org/Graphics/SVG/1.1/DTD/svg11.dtd">
<svg version="1.1" id="Layer_1" xmlns="http://www.w3.org/2000/svg" xmlns:xlink="http://www.w3.org/1999/xlink" x="0px" y="0px"
	 width="512px" height="512px" viewBox="0 0 512 512" style="enable-background:new 0 0 512 512;" xml:space="preserve">
<style type="text/css">
<![CDATA[
	.st0{fill:#127274;}
	.st1{fill:#14B6B9;}
	.st2{fill:#EF4823;}
	.st3{fill:#BCBCBC;}
	.st4{fill:#F6851F;}
	.st5{fill:#C56528;}
	.st6{fill:#FEBF10;}
	.st7{fill:none;}
	.st8{fill:#010101;}
	.st9{fill:#3AB37C;}
	.st10{fill:#D6E5E5;}
	.st11{fill:#71C598;}
	.st12{fill:#74CCCF;}
]]>
</style>
<g>
	<g>
		<g>
			<path class="st6" d="M120.233,69.156c-2.022-1.104-3.845-2.388-5.542-3.808c-0.641,4.708-0.082,9.843,0.516,14.822
				c2.471-1.565,5.053-2.904,7.289-4.073c1.701-0.889,3.76-2.05,5.967-3.121C125.885,71.45,122.739,70.524,120.233,69.156z"/>
		</g>
	</g>
	<g>
		<g>
			<path class="st6" d="M263.707,73.776c-2.982,0.502-5.979,1.027-8.879,1.903c-1.277,0.385-2.585,0.77-3.785,1.359
				c-0.312,0.742-0.789,1.355-1.365,1.839c1.847,2.493,3.48,5.144,5.047,7.854c1.787,3.096,3.479,6.565,5.756,9.443
				c3.526-4.182,6.469-8.926,9.029-13.742c1.564-2.942,3.67-6.506,4.715-10.101C270.709,72.74,267.198,73.188,263.707,73.776z"/>
		</g>
	</g>
	<g>
		<g>
			<path class="st6" d="M44.575,129.867c3.509,3.551,8.741,6.65,12.767,8.083c2.414,0.859,5.049,1.804,7.346,3.152
				c0.519-2.989,0.827-6.478,1.441-8.891c0.713-2.802,1.432-5.626,2.492-8.26C60.738,124.489,50.858,125.409,44.575,129.867z"/>
		</g>
	</g>
	<g>
		<g>
			<path class="st6" d="M200.293,53.601c-0.351-2.724-0.957-5.338-1.516-7.945c-2.889,2.265-5.878,4.412-8.581,6.97
				c-2.071,1.96-4.405,3.624-6.597,5.441c-0.734,0.608-2.016,1.486-2.99,2.44c7.283,0.512,14.312,2.206,21.456,3.567
				C201.07,60.722,200.752,57.161,200.293,53.601z"/>
		</g>
	</g>
	<g>
		<g>
			<path class="st6" d="M56.657,207.266c-0.26,0.603-0.505,1.212-0.725,1.833c-1.125,3.185-1.923,6.506-2.648,9.802
				c-0.665,3.019-1.218,6.058-1.774,9.097c5.087-1.638,9.994-3.845,15.158-5.174C64.799,216.955,59.867,212.58,56.657,207.266z"/>
		</g>
	</g>
	<g>
		<g>
			<path class="st12" d="M486.666,317.99c-4.37-9.369-16.518-10.502-25.1-13.959c-3.307-1.332-3.184-5.325-1.531-7.78
				c5.782-8.597,9.127-19.549,9.842-29.835c0.767-11.055-2.554-20.208-10.05-28.349c-14.29-15.519-37.011-26.564-57.24-15.371
				c-3.133,1.734-7.585,0.273-7.782-3.76c-0.982-20.013-10.193-36.679-25.828-49.092c-9.361-7.431-19.838-12.833-32.134-11.147
				c-11.161,1.53-21.39,6.846-31.256,12c-2.229,1.166-5.532,1.232-6.94-1.349c-6.24-11.428-14.851-22.235-27.01-27.682
				c-12.074-5.408-25.902-5.074-38.192-0.394c-14.999,5.711-29.439,13.575-41.154,24.695c-4.21,3.997-7.196,8.144-7.565,14.077
				c-0.354,5.69,0.35,11.417,0.053,17.124c-0.223,4.278-4.59,7.146-8.287,4.141c-10.041-8.159-20.526-14.021-33.858-13.921
				c-14.886,0.111-29.573,5.599-40.847,15.346c-19.076,16.492-24.729,41.239-21.008,65.434c0.534,3.475-2.953,5.587-5.94,5.293
				c-19.752-1.943-44.701,2.175-53.565,22.543c-3.404,7.822-5.407,17.677-3.154,26.106c1.087,4.063,2.766,8.128,6.063,10.916
				c3.896,3.293,9.233,2.492,13.89,1.666c11.052-1.961,20.683-3.009,30.633,3.301c7.58,4.808,13.531,11.746,21.076,16.515
				c21.118,13.346,44.731-1.632,62.216-14.099c1.305-0.93,3.614-1.269,5.021-0.334c4.214,2.801,7.432,6.295,11.156,9.653
				c4.461,4.021,9.277,4.485,15.197,4.173c6.387-0.336,13.07-1.242,18.592-4.686c3.672-2.292,7.043-4.839,10.098-7.811
				c-0.025-15.473,8.124-30.649,22.715-39.273c13.93-8.233,29.127-11.523,45.182-8.657c13.08,2.335,25.401,7.368,37.521,12.702
				c5.622-28.83,45.12-37.311,70.739-35.173c18.621,1.553,37.753,11.912,50.365,25.534c12.348,13.336,19.428,29.603,19.413,47.478
				c7.388-0.366,15.104,0.701,22.243,3.115c0.777-2.341,3.108-4.145,5.483-3.668C489.861,335.973,490.077,325.302,486.666,317.99z"
				/>
		</g>
	</g>
	<g>
		<g>
			<path class="st6" d="M234.258,103.842c-7.953-7.6-17.225-11.309-27.92-13.325c-12.286-2.316-24.979-3.546-37.458-2.178
				c-11.938,1.309-23.089,5.562-33.503,11.487c-19.546,11.121-36.072,26.247-44.347,47.513c-6.421,16.5-10.524,37.929-2.716,54.744
				c3.01-3.426,6.391-6.615,10.168-9.502c13.042-9.97,29.967-16.028,46.49-15.043c11.442,0.682,20.821,4.293,29.729,10.096
				c-0.111-3.531-0.158-7.058,0.307-10.537c0.93-6.957,4.531-13.095,9.77-17.733c13.674-12.108,29.289-22.404,46.832-28.038
				c5.258-1.688,10.705-2.843,16.182-3.323C245.294,119.027,241.061,110.343,234.258,103.842z"/>
		</g>
	</g>
	<g>
		<g>
			<path class="st10" d="M453.176,354.538c-3.48,0.534-5.579-2.952-5.293-5.94c3.236-33.776-27.689-64.955-60.615-67.702
				c-20.775-1.733-60.88,4.487-60.49,32.271c0.055,3.866-3.602,6.469-7.211,4.864c-24.623-10.95-52.276-23.526-77.979-8.334
				c-11.132,6.58-18.23,17.101-19.416,28.398c0.233,0.227,0.446,0.474,0.637,0.735c-0.001,0.092-0.007,0.185-0.007,0.276
				c-0.04,0.53-0.082,1.059-0.121,1.584c-0.033,0.354-0.055,0.708-0.067,1.063c-0.011,0.193-0.015,0.385-0.021,0.577
				c0,0.031-0.002,0.061-0.002,0.092c-0.024,0.78-0.023,1.553,0.051,2.311c-0.032,0.04-0.06,0.08-0.094,0.119
				c-0.107,0.124-0.22,0.239-0.328,0.362c0.663,5.608,2.822,11.245,6.717,16.541c2.172,2.952-0.053,7.688-3.76,7.782
				c-2.66,0.068-5.972,0.742-8.825,1.993c-0.854-0.233-1.835-0.028-2.459,0.91c-0.038,0.058-0.077,0.118-0.115,0.176
				c-2.005,1.164-3.449,3.276-3.774,5.683c-0.102,0.749,0.051,1.476,0.481,2.008c-0.001,0.006-0.003,0.012-0.003,0.019
				c-0.188,2.025,0.77,3.351,2.176,4.143c-0.006,0.047-0.006,0.096-0.014,0.143c5.375,6.214,15.193,5.947,22.764,5.952
				c2.014,0.001,3.473,0.984,4.33,2.332c0.787,0.097,1.586,0.377,2.355,0.898c13.384,9.054,27.642,11.721,43.585,11.765
				c8.562,0.023,16.573-5.022,25.046-4.631c7.1,0.328,12.176,4.902,18.494,7.664c15.757,6.888,32.322,7.306,48.824,2.861
				c5.692-1.533,11.611-3.313,16.762-6.243c3.26-1.854,8.807-4.899,9.002-9.274c0.158-3.538,3.523-6.883,7.211-4.864
				c25.395,13.903,60.184,19.223,79.85-7.018C507.687,361.607,468.945,352.12,453.176,354.538z"/>
		</g>
	</g>
	<g>
		<g>
			<path d="M493.678,353.879c-0.657-0.468-1.331-0.918-2.016-1.354c7.978-9.856,8.823-24.984,4.965-36.53
				c-4.037-12.077-14.936-15.292-25.527-19.03c4.763-8.829,7.657-18.638,8.593-28.642c1.289-13.789-2.56-25.24-11.462-35.727
				c-15.791-18.603-40.946-29.782-64.119-21.425c-2.919-20.664-14.111-37.746-30.932-50.717
				c-10.469-8.074-22.225-12.807-35.582-11.889c-11.631,0.8-22.563,6.021-32.873,11.371c-6.969-11.473-16.375-21.359-28.639-27.23
				c-5.783-2.768-11.896-4.263-18.1-4.757c-0.023-0.301-0.064-0.609-0.143-0.926c-5.775-23.618-22.716-40.418-46.405-45.668
				c-13.589-3.011-27.796-4.189-41.68-3.141c-13.284,1.003-25.356,5.642-37.077,11.743c-22.337,11.63-41.092,29.401-50.609,52.933
				c-8.387,20.731-11.987,46.375-1.055,66.827c0.209,0.363,0.418,0.726,0.629,1.089c0.019,0.032,0.04,0.06,0.059,0.091
				c-2.012,3.176-3.749,6.5-5.246,9.93c-1.956-8.567-10.184-13.573-12.615-21.804c-0.535-1.812-1.726-2.804-3.092-3.152
				c-0.879-1.036-2.225-1.685-4.013-1.515c-2.073,0.197-3.751,1.08-5.144,2.358c-3.729,7.986-4.722,17.498-6.67,25.96
				c-1.105,4.803-2.195,9.617-3.082,14.466c-0.067,0.367-0.135,0.735-0.203,1.104c0.993,1.033,2.375,1.659,3.868,1.418
				c9.314-1.498,17.778-6.782,27.104-7.828c-2.701,10.047-3.508,20.708-2.514,31.355c-21.084-0.791-43.018,4.717-55.175,23.45
				c-9.81,15.115-12.502,44.112,4.642,55.39c10.346,6.806,22.155,0.886,33.337,0.758c10.29-0.118,19.22,10.444,26.519,16.406
				c9.048,7.39,18.547,10.435,30.176,10.396c13.537-0.046,26.311-6.515,37.44-13.63c2.626-1.679,5.187-3.458,7.73-5.259
				c3.686,3.069,6.666,6.956,10.72,9.603c5.562,3.632,12.205,3.712,18.65,3.567c11.135-0.25,21.127-4.151,29.57-10.655
				c0.727,2.555,1.688,5.074,2.908,7.525c-10.139,2.833-18.497,10.652-16.023,22.325c3.23,15.243,21.141,17.311,33.98,17.46
				c0.255,0.274,0.556,0.537,0.916,0.781c7.062,4.778,14.272,8.614,22.451,11.1c8.108,2.464,16.748,2.887,25.164,3.084
				c4.956,0.117,9.525-0.197,14.337-1.422c4.665-1.188,9.198-2.889,14.05-3.168c3.088-0.178,7.488,3.781,10.074,5.129
				c4.487,2.339,9.285,4.053,14.108,5.549c16.62,5.153,34.444,2.939,50.776-2.173c9.277-2.904,20.791-7.744,25.349-16.708
				c29.753,14.188,68.977,15.88,88.853-15.27C508.375,375.325,505.187,362.08,493.678,353.879z M51.51,227.998
				c0.557-3.039,1.109-6.078,1.774-9.097c0.726-3.295,1.523-6.617,2.648-9.802c0.22-0.621,0.465-1.23,0.725-1.833
				c3.21,5.313,8.142,9.689,10.011,15.558C61.504,224.152,56.597,226.36,51.51,227.998z M91.03,147.339
				c8.274-21.267,24.801-36.393,44.347-47.513c10.414-5.925,21.564-10.178,33.503-11.487c12.479-1.369,25.172-0.138,37.458,2.178
				c10.695,2.016,19.967,5.726,27.92,13.325c6.803,6.501,11.036,15.185,13.533,24.161c-5.477,0.479-10.924,1.635-16.182,3.323
				c-17.543,5.633-33.158,15.929-46.832,28.038c-5.238,4.639-8.84,10.777-9.77,17.733c-0.465,3.479-0.418,7.005-0.307,10.537
				c-8.907-5.803-18.286-9.414-29.729-10.096c-16.523-0.985-33.448,5.074-46.49,15.043c-3.777,2.888-7.158,6.077-10.168,9.502
				C80.506,185.269,84.609,163.84,91.03,147.339z M212.059,341.401c-3.055,2.972-6.426,5.52-10.098,7.811
				c-5.521,3.444-12.205,4.35-18.592,4.686c-5.92,0.312-10.736-0.153-15.197-4.173c-3.725-3.358-6.942-6.852-11.156-9.653
				c-1.406-0.935-3.716-0.596-5.021,0.334c-17.484,12.467-41.098,27.445-62.216,14.099c-7.545-4.769-13.496-11.707-21.076-16.515
				c-9.95-6.31-19.581-5.263-30.633-3.301c-4.656,0.826-9.994,1.627-13.89-1.666c-3.298-2.787-4.977-6.852-6.063-10.916
				c-2.253-8.429-0.25-18.284,3.154-26.106c8.864-20.368,33.813-24.486,53.565-22.543c2.987,0.294,6.475-1.818,5.94-5.293
				c-3.721-24.195,1.932-48.941,21.008-65.434c11.273-9.747,25.961-15.235,40.847-15.346c13.332-0.1,23.817,5.762,33.858,13.921
				c3.697,3.005,8.064,0.137,8.287-4.141c0.297-5.707-0.406-11.433-0.053-17.124c0.369-5.934,3.355-10.081,7.565-14.077
				c11.715-11.12,26.155-18.984,41.154-24.695c12.29-4.68,26.118-5.014,38.192,0.394c12.159,5.447,20.77,16.254,27.01,27.682
				c1.408,2.581,4.711,2.515,6.94,1.349c9.866-5.154,20.095-10.47,31.256-12c12.296-1.686,22.772,3.716,32.134,11.147
				c15.635,12.413,24.846,29.079,25.828,49.092c0.197,4.033,4.649,5.494,7.782,3.76c20.229-11.194,42.95-0.148,57.24,15.371
				c7.496,8.141,10.816,17.293,10.05,28.349c-0.715,10.286-4.06,21.238-9.842,29.835c-1.652,2.456-1.775,6.448,1.531,7.78
				c8.582,3.457,20.729,4.59,25.1,13.959c3.411,7.312,3.195,17.983-0.946,25.468c-2.375-0.477-4.706,1.327-5.483,3.668
				c-7.14-2.414-14.855-3.481-22.243-3.115c0.015-17.875-7.065-34.142-19.413-47.478c-12.612-13.622-31.744-23.98-50.365-25.534
				c-25.619-2.137-65.117,6.343-70.739,35.173c-12.119-5.333-24.44-10.366-37.521-12.702c-16.055-2.866-31.252,0.424-45.182,8.657
				C220.183,310.752,212.033,325.928,212.059,341.401z M490.865,384.054c-19.666,26.241-54.455,20.921-79.85,7.018
				c-3.688-2.019-7.053,1.326-7.211,4.864c-0.195,4.375-5.742,7.42-9.002,9.274c-5.15,2.93-11.069,4.709-16.762,6.243
				c-16.502,4.445-33.067,4.027-48.824-2.861c-6.318-2.762-11.395-7.336-18.494-7.664c-8.473-0.391-16.484,4.655-25.046,4.631
				c-15.943-0.044-30.201-2.711-43.585-11.765c-0.77-0.521-1.568-0.801-2.355-0.898c-0.857-1.348-2.316-2.331-4.33-2.332
				c-7.57-0.005-17.389,0.262-22.764-5.952c0.008-0.047,0.008-0.096,0.014-0.143c-1.406-0.792-2.363-2.118-2.176-4.143
				c0-0.006,0.002-0.013,0.003-0.019c-0.431-0.533-0.583-1.26-0.481-2.008c0.325-2.407,1.77-4.519,3.774-5.683
				c0.038-0.059,0.077-0.118,0.115-0.176c0.624-0.938,1.604-1.144,2.459-0.91c2.854-1.251,6.165-1.925,8.825-1.993
				c3.707-0.095,5.932-4.83,3.76-7.782c-3.895-5.296-6.054-10.933-6.717-16.541c0.108-0.123,0.221-0.239,0.328-0.362
				c0.034-0.039,0.062-0.08,0.094-0.119c-0.074-0.757-0.075-1.53-0.051-2.311c0-0.031,0.002-0.061,0.002-0.092
				c0.006-0.192,0.01-0.384,0.021-0.577c0.013-0.354,0.034-0.708,0.067-1.063c0.039-0.526,0.081-1.054,0.121-1.584
				c0-0.092,0.006-0.185,0.007-0.276c-0.19-0.262-0.403-0.509-0.637-0.735c1.186-11.297,8.284-21.818,19.416-28.398
				c25.703-15.192,53.356-2.616,77.979,8.334c3.609,1.605,7.266-0.998,7.211-4.864c-0.39-27.784,39.715-34.004,60.49-32.271
				c32.926,2.747,63.852,33.925,60.615,67.702c-0.286,2.988,1.812,6.474,5.293,5.94C468.945,352.12,507.687,361.607,490.865,384.054
				z"/>
		</g>
	</g>
	<g>
		<g>
			<path d="M140.156,72.536c-3.919-3.186-8.271-5.722-12.42-8.587c-4.979-3.439-11.162-7.239-14.383-12.601
				c-2.684-0.381-5.49,1.401-6.048,3.789c-4.987,11.188-1.324,24.192-1.168,35.925c0.024,1.877,1.011,3.18,2.353,3.882
				c4.107-3.854,9.675-5.708,14.893-7.88c1.223-0.737,2.461-1.448,3.705-2.137c2.464-1.366,5.025-2.535,7.646-3.564
				c0.207-0.082,0.426-0.163,0.652-0.243c1.775-0.924,3.559-1.834,5.378-2.672c1.374-0.633,2.804-1.123,4.252-1.565
				c0.054-0.261,0.08-0.529,0.099-0.798C143.373,75.063,141.745,73.828,140.156,72.536z M122.496,76.097
				c-2.236,1.168-4.818,2.508-7.289,4.073c-0.598-4.979-1.156-10.113-0.516-14.822c1.697,1.42,3.52,2.704,5.542,3.808
				c2.506,1.368,5.651,2.294,8.229,3.82C126.256,74.047,124.197,75.208,122.496,76.097z"/>
		</g>
	</g>
	<g>
		<g>
			<path d="M208.391,61.872c-1.547-10.306-3.787-20.764-4.336-31.189c-1.703-0.82-3.748-0.643-5.354,1.36
				c-4.598,5.735-11.096,9.883-16.723,14.553c-4.75,3.943-10.662,7.521-12.429,13.793c-0.866,3.075,1.107,5.081,3.53,5.577
				c0.082,0.406,0.222,0.801,0.389,1.186c2.051,0.045,4.11,0.014,6.012,0.283c5.189,0.734,10.562,1.48,15.647,2.763
				c5.005,1.263,9.886,2.754,14.997,3.549c0.022,0.003,0.045,0.007,0.067,0.011c0.083-0.075,0.155-0.161,0.234-0.241
				C209.598,69.665,208.976,65.767,208.391,61.872z M180.609,60.507c0.975-0.955,2.256-1.833,2.99-2.44
				c2.191-1.817,4.525-3.48,6.597-5.441c2.703-2.559,5.692-4.705,8.581-6.97c0.559,2.607,1.165,5.221,1.516,7.945
				c0.459,3.56,0.777,7.121,1.772,10.473C194.922,62.712,187.893,61.019,180.609,60.507z"/>
		</g>
	</g>
	<g>
		<g>
			<path d="M284.777,66.292c-0.199-1.726-1.247-3.289-2.727-4.081c-6.908,0.947-13.748,2.378-20.541,4.062
				c-7.932,1.965-15.146,6.493-23.1,8.244c8.258,9.805,12.373,22.566,21.138,31.911c7.373-7.574,15.22-14.918,20.02-24.46
				c1.319-2.623,2.427-5.32,3.658-7.98c0.423-0.912,0.917-1.832,1.422-2.759C284.896,69.573,284.965,67.918,284.777,66.292z
				 M269.51,82.432c-2.561,4.816-5.503,9.561-9.029,13.742c-2.277-2.878-3.969-6.348-5.756-9.443
				c-1.566-2.711-3.2-5.362-5.047-7.854c0.576-0.483,1.053-1.097,1.365-1.839c1.2-0.589,2.508-0.974,3.785-1.359
				c2.9-0.875,5.896-1.4,8.879-1.903c3.491-0.588,7.002-1.036,10.518-1.444C273.18,75.926,271.074,79.49,269.51,82.432z"/>
		</g>
	</g>
	<g>
		<g>
			<path d="M55.719,118.986c-4.537,0.792-9.062,1.774-13.508,2.982c-2.31,0.627-4.492,1.566-6.689,2.461
				c-0.518,0.514-1.02,1.044-1.486,1.612c-1.501,1.829-1.569,4.093-0.389,6.097c0.657,1.116,1.447,2.145,2.32,3.111
				c5.176,4.001,10.852,7.299,16.884,9.937c4.147,1.813,8.905,3.233,12.794,5.586c1.232,0.745,2.398,1.583,3.594,2.353
				c0.203-0.216,0.393-0.448,0.559-0.698c0.342-0.137,0.666-0.33,0.979-0.552c2.089-6.771,3.756-13.646,5.229-20.614
				c0.885-4.185,3.539-10.061,3.514-15.028C71.539,116.625,63.581,117.615,55.719,118.986z M66.129,132.21
				c-0.614,2.413-0.923,5.902-1.441,8.891c-2.297-1.348-4.932-2.292-7.346-3.152c-4.025-1.433-9.258-4.531-12.767-8.083
				c6.283-4.458,16.163-5.378,24.046-5.917C67.561,126.584,66.842,129.409,66.129,132.21z"/>
		</g>
	</g>
</g>
</svg>
