<?xml version="1.0" encoding="utf-8"?>
<!-- Generator: Adobe Illustrator 16.0.3, SVG Export Plug-In . SVG Version: 6.00 Build 0)  -->
<!DOCTYPE svg PUBLIC "-//W3C//DTD SVG 1.1//EN" "http://www.w3.org/Graphics/SVG/1.1/DTD/svg11.dtd">
<svg version="1.1" id="Layer_1" xmlns="http://www.w3.org/2000/svg" xmlns:xlink="http://www.w3.org/1999/xlink" x="0px" y="0px"
	 width="512px" height="512px" viewBox="0 0 512 512" style="enable-background:new 0 0 512 512;" xml:space="preserve">
<style type="text/css">
<![CDATA[
	.st0{fill:#127274;}
	.st1{fill:#14B6B9;}
	.st2{fill:#EF4823;}
	.st3{fill:#BCBCBC;}
	.st4{fill:#F6851F;}
	.st5{fill:#C56528;}
	.st6{fill:#FEBF10;}
	.st7{fill:none;}
	.st8{fill:#010101;}
	.st9{fill:#3AB37C;}
	.st10{fill:#D6E5E5;}
	.st11{fill:#71C598;}
	.st12{fill:#74CCCF;}
]]>
</style>
<g>
	<g>
		<g>
			<path class="st6" d="M467.789,176.141c-0.229-2.691-0.358-5.28-0.209-7.836h-2.074c-0.328,0-0.638-0.031-0.938-0.076
				c-11.368,0.175-22.495,2.607-33.831,3.6c-13.22,1.156-26.61-0.551-39.834-1.183c-12.861-0.615-25.587-0.333-38.444-0.186
				c-7.834,0.089-16.78-0.361-23.557-4.813c-9.941-6.531-13.118-16.472-16.752-27.279c-4.771-14.193-11.494-27.116-18.437-40.346
				c-6.046-11.52-12.951-22.51-19.107-33.969c-4.507-8.389-10.061-20.958-19.09-25.441c-7.889-3.918-12.26,7.451-14.628,13.114
				c-4.639,11.093-9.324,21.872-15.216,32.396c-7.725,13.797-14.131,28.162-20.754,42.511c-2.906,6.297-5.755,12.573-9.057,18.673
				c-1.463,2.701-3.449,5.813-4.535,9.014c-2.987,4.752-5.942,9.524-8.751,14.376c-0.511-0.318-0.975-0.72-1.371-1.189
				c-11.063-1.288-22.322-0.44-33.379-2.195c-12.36-1.961-23.989-3.308-36.547-2.749c-12.278,0.547-24.101,2.378-36.185,4.441
				c-9.816,1.676-19.959,1.752-29.542,4.459c0.071,0.876-0.084,1.822-0.542,2.805c-4.02,8.611,3.85,18.042,9.493,23.866
				c8.042,8.299,17.254,15.316,26.479,22.233c24.694,18.518,44.628,41.991,65.731,64.321c0.732,0.775,1.186,1.625,1.413,2.491
				c0.973,1.361,1.167,3.165-0.116,5.089c-15.436,23.121-21.584,50.316-31.066,76.07c-7.496,20.359-29.965,52.049-6.255,70.265
				c8.857,6.805,20.806,5.252,30.746,1.911c11.368-3.821,22.306-9.585,32.357-16.091c11.69-7.567,22.417-16.411,33.162-25.238
				c10.33-8.485,21.191-18.761,33.626-24.035c24.79-10.515,45.223,6.649,63.176,21.842c13.572,11.485,26.505,23.782,41.252,33.801
				c11.088,7.534,30.087,19.414,43.86,11.636c20.766-11.727,19.673-42.776,17.634-63.07c-2.81-27.945-6.409-56.345-13.291-83.64
				c-0.073-0.028-0.143-0.065-0.215-0.097c-0.347-3.044-0.807-6.074-1.398-9.08l0.768-0.768c-0.475-0.72-0.769-1.568-0.769-2.531v-2
				c0-2.945,1.911-4.809,4.136-5.473c7.828-9.35,16.785-17.606,25.272-26.364c8.322-8.587,16.537-17.412,24.486-26.347
				c7.841-8.813,15.727-18.256,20.065-29.374C467.877,187.74,468.328,182.459,467.789,176.141z M238.947,232.845
				c-4.363,3.075-10.105,6.576-15.698,5.182c-10.972-2.734-23.771-15.028-21.565-27.256c1.259-6.985,12.055-4.877,10.797,2.099
				c-0.947,5.255,7.259,12.961,11.932,14.126c2.773,0.69,5.193-1.021,7.441-2.606c1.385-0.976,2.811-1.959,3.961-3.217
				c0.375-0.41,0.6-0.715,0.731-0.923c0.149-6.107,10.107-6.493,11.021,0.147C248.289,225.646,242.715,230.189,238.947,232.845z
				 M275.658,324.039c-6.853,1.907-12.334,1.264-18.553-2.382c-6.357-3.727-14.562-9.271-16.215-17.018
				c-1.462-6.854,8.908-10.556,10.383-3.638c1.107,5.195,7.396,9.133,11.795,11.39c4.059,2.082,5.572,2.395,9.875,0.985
				c4.676-1.532,9.227-3.562,13.328-6.301c1.689-1.128,3.459-2.276,4.803-3.823c0.072-0.083,0.421-0.681,0.664-0.987
				c-2.436-6.201,7.627-9.499,10.535-3.263C308.085,311.463,284.029,321.709,275.658,324.039z M335.157,225.379
				c-7.399,3.932-13.253,10.388-22.278,9.952c-11.015-0.533-16.225-8.532-22.356-16.436c-4.356-5.615,4.791-11.73,9.119-6.151
				c3.727,4.804,7.648,12.647,14.976,11.623c4.321-0.604,7.963-3.857,11.646-6.403c0.197-0.263,0.42-0.522,0.687-0.775
				c1.362-1.291,2.655-2.521,4.671-2.521c2.945,0,5.733,1.901,5.909,5.062c0.013,0.222,0.024,0.444,0.037,0.667
				C337.668,222.206,336.864,224.473,335.157,225.379z"/>
		</g>
	</g>
	<g>
		<g>
			<path class="st8" d="M478.524,167.042c-0.774-1.373-1.702-2.656-2.828-3.795c-2.015-2.039-4.261-3.38-6.647-4.193
				c-4.768-0.831-10.226-0.394-14.882,0.387c-1.24,0.208-2.157-0.47-2.543-1.35c-9.696,1.092-19.343,2.892-29.119,3.221
				c-15.777,0.532-31.844-1.839-47.644-2.184c-12.017-0.263-25.15,2.208-36.854-1.257c-10.57-3.13-12.991-15.753-16.012-24.737
				c-8.881-26.418-24.681-49.59-37.637-74.042c-7.193-13.577-25.026-45.058-43.73-27.597c-6.17,5.76-9.171,14.167-12.208,21.827
				c-4.899,12.359-11.527,23.685-17.827,35.352c-7.305,13.527-13.18,27.968-19.621,41.925c-3.708,8.034-10.311,16.613-11.31,25.745
				c-9.888-0.811-19.886-0.368-29.739-1.832c-12.74-1.892-24.696-3.396-37.626-2.991c-12.86,0.402-25.435,2.085-38.052,4.512
				c-12.364,2.377-25.096,1.927-36.982,6.595c-3.721,1.46-4.188,5.417-2.695,8.113c-8.842,22.135,18.824,42.398,33.781,53.837
				c10.784,8.249,21.152,16.452,30.928,25.942c12.969,12.59,24.945,26.155,37.288,39.351c-14.549,23.011-20.731,49.819-30.054,75.14
				c-8.548,23.215-25.773,46.793-11.821,71.644c12.919,23.01,40.19,19.315,60.635,10.22c24.606-10.946,44.683-28.09,65.448-44.819
				c10.337-8.328,21.668-18.815,35.578-19.37c12.809-0.511,24.486,9.245,33.581,17.055c12.992,11.156,25.733,22.741,39.33,33.164
				c13.874,10.635,30.539,22.055,48.642,22.674c20.688,0.708,33.022-16.869,37.915-35.051c5.254-19.526,1.991-40.68-0.531-60.359
				c-3.151-24.577-6.57-49.201-13.015-73.168c-0.122-0.455-0.303-0.855-0.516-1.219c8.318-10.498,18.153-19.569,27.512-29.113
				c8.738-8.912,17.246-18.209,25.543-27.534c7.841-8.813,15.178-18.378,20.027-29.195c2.352-5.246,4.24-11.151,4.297-16.938
				C479.186,178.049,477.511,172.067,478.524,167.042z M465.557,193.687c-4.339,11.117-12.225,20.561-20.065,29.374
				c-7.949,8.935-16.164,17.759-24.486,26.347c-8.487,8.758-17.444,17.014-25.272,26.364c-2.225,0.664-4.136,2.528-4.136,5.473v2
				c0,0.963,0.294,1.811,0.769,2.531l-0.768,0.768c0.592,3.005,1.052,6.036,1.398,9.08c0.072,0.031,0.142,0.068,0.215,0.097
				c6.882,27.295,10.481,55.695,13.291,83.64c2.039,20.294,3.132,51.344-17.634,63.07c-13.773,7.778-32.772-4.103-43.86-11.636
				c-14.747-10.019-27.68-22.316-41.252-33.801c-17.953-15.193-38.386-32.357-63.176-21.842
				c-12.435,5.274-23.296,15.55-33.626,24.035c-10.745,8.827-21.472,17.671-33.162,25.238c-10.052,6.506-20.989,12.27-32.357,16.091
				c-9.94,3.341-21.889,4.894-30.746-1.911c-23.71-18.216-1.241-49.906,6.255-70.265c9.482-25.753,15.631-52.949,31.066-76.07
				c1.283-1.924,1.089-3.728,0.116-5.089c-0.228-0.865-0.681-1.715-1.413-2.491c-21.104-22.33-41.037-45.803-65.731-64.321
				c-9.225-6.917-18.437-13.935-26.479-22.233c-5.644-5.824-13.513-15.255-9.493-23.866c0.458-0.983,0.613-1.929,0.542-2.805
				c9.583-2.707,19.726-2.783,29.542-4.459c12.084-2.063,23.906-3.895,36.185-4.441c12.558-0.56,24.187,0.787,36.547,2.749
				c11.057,1.754,22.315,0.907,33.379,2.195c0.396,0.47,0.86,0.872,1.371,1.189c2.809-4.853,5.764-9.625,8.751-14.376
				c1.086-3.201,3.072-6.313,4.535-9.014c3.302-6.1,6.15-12.376,9.057-18.673c6.623-14.349,13.029-28.713,20.754-42.511
				c5.892-10.524,10.577-21.302,15.216-32.396c2.368-5.663,6.739-17.032,14.628-13.114c9.029,4.483,14.583,17.053,19.09,25.441
				c6.156,11.458,13.062,22.449,19.107,33.969c6.942,13.23,13.665,26.152,18.437,40.346c3.634,10.808,6.811,20.748,16.752,27.279
				c6.776,4.452,15.723,4.903,23.557,4.813c12.857-0.146,25.583-0.429,38.444,0.186c13.224,0.632,26.614,2.339,39.834,1.183
				c11.336-0.992,22.463-3.425,33.831-3.6c0.301,0.045,0.61,0.076,0.938,0.076h2.074c-0.149,2.556-0.021,5.145,0.209,7.836
				C468.328,182.459,467.877,187.74,465.557,193.687z"/>
		</g>
	</g>
	<g>
		<g>
			<path class="st8" d="M247.567,220.396c-0.914-6.641-10.872-6.255-11.021-0.147c-0.132,0.208-0.356,0.513-0.731,0.923
				c-1.15,1.258-2.576,2.241-3.961,3.217c-2.248,1.585-4.668,3.297-7.441,2.606c-4.673-1.165-12.879-8.872-11.932-14.126
				c1.258-6.976-9.538-9.083-10.797-2.099c-2.205,12.228,10.594,24.521,21.565,27.256c5.593,1.394,11.335-2.107,15.698-5.182
				C242.715,230.189,248.289,225.646,247.567,220.396z"/>
		</g>
	</g>
	<g>
		<g>
			<path class="st8" d="M337.53,219.73c-0.176-3.161-2.964-5.062-5.909-5.062c-2.016,0-3.309,1.23-4.671,2.521
				c-0.267,0.253-0.489,0.513-0.687,0.775c-3.684,2.545-7.325,5.798-11.646,6.403c-7.327,1.024-11.249-6.819-14.976-11.623
				c-4.328-5.579-13.476,0.536-9.119,6.151c6.132,7.904,11.342,15.903,22.356,16.436c9.025,0.437,14.879-6.02,22.278-9.952
				c1.707-0.907,2.511-3.174,2.41-4.983C337.555,220.174,337.543,219.952,337.53,219.73z"/>
		</g>
	</g>
	<g>
		<g>
			<path class="st8" d="M302.273,299.001c-2.908-6.236-12.971-2.938-10.535,3.263c-0.243,0.307-0.592,0.904-0.664,0.987
				c-1.344,1.547-3.113,2.694-4.803,3.823c-4.102,2.739-8.652,4.769-13.328,6.301c-4.303,1.41-5.816,1.097-9.875-0.985
				c-4.398-2.256-10.688-6.194-11.795-11.39c-1.475-6.918-11.845-3.217-10.383,3.638c1.652,7.747,9.857,13.291,16.215,17.018
				c6.219,3.646,11.7,4.289,18.553,2.382C284.029,321.709,308.085,311.463,302.273,299.001z"/>
		</g>
	</g>
</g>
</svg>
