<?xml version="1.0" encoding="utf-8"?>
<!-- Generator: Adobe Illustrator 16.0.3, SVG Export Plug-In . SVG Version: 6.00 Build 0)  -->
<!DOCTYPE svg PUBLIC "-//W3C//DTD SVG 1.1//EN" "http://www.w3.org/Graphics/SVG/1.1/DTD/svg11.dtd">
<svg version="1.1" id="Layer_1" xmlns="http://www.w3.org/2000/svg" xmlns:xlink="http://www.w3.org/1999/xlink" x="0px" y="0px"
	 width="512px" height="512px" viewBox="0 0 512 512" style="enable-background:new 0 0 512 512;" xml:space="preserve">
<style type="text/css">
<![CDATA[
	.st0{fill:#127274;}
	.st1{fill:#14B6B9;}
	.st2{fill:#EF4823;}
	.st3{fill:#BCBCBC;}
	.st4{fill:#F6851F;}
	.st5{fill:#C56528;}
	.st6{fill:#FEBF10;}
	.st7{fill:none;}
	.st8{fill:#010101;}
	.st9{fill:#3AB37C;}
	.st10{fill:#D6E5E5;}
	.st11{fill:#71C598;}
	.st12{fill:#74CCCF;}
]]>
</style>
<g>
	<g>
		<g>
			<path class="st2" d="M358.835,30.289c-8.738-1.89-17.919-2.24-26.531,0.537c-8.554,2.757-16.612,7.268-24.171,12.084
				c-24.359,15.52-45.267,35.682-66.146,55.464c-21.646,20.509-40.275,44.071-55.696,69.59
				c-10.24,16.947-19.41,34.756-27.544,52.822c-3.79,8.418-7.522,17.007-9.962,25.932c-0.955,3.497-2.07,7.292-2.133,10.947
				c-0.017,0.953-0.004,2.976,0.102,3.377c0.28,1.056,0.824,1.977,0.431,1.548c1.616,1.759,1.844,3.886,1.255,5.719
				c2.859,0.383,5.678,0.943,8.426,1.691c4.54,1.235,8.747,2.957,12.706,5.033c0.974-26.536,11.106-52.217,23.518-75.39
				c12.96-24.197,28.027-47.685,45.497-68.88c17.949-21.777,38.287-41.641,60.603-58.931c11.34-8.786,22.909-16.935,35.752-23.392
				c11.419-5.741,23.321-10.381,35.386-14.56C366.582,32.373,362.753,31.136,358.835,30.289z"/>
		</g>
	</g>
	<g>
		<g>
			<path class="st6" d="M416.047,65.727c-0.018,0.347-0.049,0.698-0.107,1.054c-0.781,4.726-5.945,5.295-8.871,3.023
				c-0.646,0.234-1.288,0.477-1.92,0.748c-1.902,0.816-3.773,1.694-5.643,2.584c-4.418,2.104-9.018,3.54-13.583,5.294
				c-14.327,5.505-27.642,12.647-41.019,20.104c-25.274,14.09-49.319,28.483-68.032,51.027
				c-17.586,21.186-31.878,45.618-43.812,70.39c-11.275,23.409-21.928,49.677-21.029,76.134c8.456-6.302,17.807-11.393,28.03-13.951
				c0.425-0.106,0.855-0.203,1.284-0.302c-3.455-5.362-2.89-12.602-1.62-18.686c3.653-17.507,11.959-34.307,20.319-49.991
				c9.689-18.176,22.326-34.469,36.854-49.077c17.885-17.984,38.268-33.157,60.02-46.143c11.812-7.053,23.938-14.452,36.617-19.836
				c13.131-5.577,26.997-9.087,40.258-14.309C428.193,77.48,422.251,71.46,416.047,65.727z"/>
		</g>
	</g>
	<g>
		<g>
			<path class="st12" d="M441.051,92.375c-0.465,0.414-1.023,0.773-1.693,1.047c-7.186,2.939-14.556,5.322-21.936,7.717
				c-26.421,8.572-50.925,22.58-73.75,38.332c-21.107,14.569-40.273,31.672-56.21,51.828c-10.981,13.889-19.311,28.951-26.612,45.06
				c-3.699,8.159-7.304,16.521-9.485,25.235c-0.823,3.288-1.733,6.797-1.628,10.214c0.037,1.203,0.106,2.389,0.326,3.039
				c0.468,1.381,0.107,0.76,0.616,1.243c1.259,1.195,1.771,2.597,1.753,3.959c7.859-0.719,15.979-0.325,23.611,1.495
				c-0.761-21.22,8.461-42.314,19.59-59.922c11.293-17.869,25.367-34.579,40.067-49.735c14.865-15.327,31.417-29.171,50.033-39.735
				c10.038-5.696,20.604-11.087,31.472-15.011c11.199-4.043,22.779-6.934,33.903-11.185
				C447.944,101.295,444.582,96.771,441.051,92.375z"/>
		</g>
	</g>
	<g>
		<g>
			<path class="st4" d="M406.663,57.427c-7.405-6.268-15.521-12.524-24.231-17.579c-0.541,1.118-1.532,2.062-3.07,2.577
				c-13.522,4.53-27.125,9.385-39.831,15.92c-12.229,6.291-23.374,14.147-34.19,22.607c-21.498,16.814-41.221,35.924-58.49,57.073
				c-16.776,20.547-31.509,43.056-43.906,66.512c-12.406,23.47-23.332,49.722-22.406,76.76c0.01,0.28-0.004,0.546-0.028,0.806
				c8.097,6.249,15.155,13.947,21.933,21.92c0.791-0.722,1.596-1.433,2.405-2.138c-2.01-0.48-3.683-2.026-3.781-4.742
				c-0.461-12.72,1.549-25.455,4.981-37.681c7.275-25.915,19.251-50.041,32.679-73.261c14.071-24.333,30.329-48.483,52.296-66.424
				c11.105-9.071,23.332-16.589,35.78-23.656c12.704-7.212,25.367-14.694,38.609-20.886c10.909-5.101,22.331-8.801,33.26-13.805
				c2.618-1.199,5.817-2.843,8.927-3.204C407.286,57.961,406.977,57.692,406.663,57.427z"/>
		</g>
	</g>
	<g>
		<g>
			<path class="st10" d="M368.417,340.73c-16.85-4.298-34.472,3.112-47.342,13.829c-2.845,2.369-7.073,0.282-8.267-2.741
				c-4.42-11.199-7.223-22.974-11.755-34.124c-3.753-9.234-9.14-17.993-18.532-22.304c-12.011-5.513-27.659-6.244-40.266-2.477
				c-13.979,4.177-25.828,12.542-36.124,22.717c-2.696,2.665-6.325,2.282-8.691-0.556c-11.833-14.186-24.958-30.338-43.919-34.587
				c-21.605-4.841-46.31,1.259-60.36,19.079c-6.6,8.371-10.892,18.4-13.184,28.777c-1.62,7.333-2.041,17.349-7.246,23.293
				c-5.796,6.62-15.251,9.291-22.339,14.261c-8.9,6.24-13.018,14.254-15.396,24.735c-2.135,9.409-1.872,18.704,5.887,25.397
				c7.196,6.209,16.186,10.055,24.533,14.492c0.054-0.001,0.104-0.008,0.159-0.008c0.234,0,0.461,0.014,0.682,0.037
				c0.258,0.001,0.52,0.013,0.792,0.049c55.351,7.209,111.285-0.293,166.54-4.745c29.863-2.406,59.88-0.364,89.699-3.293
				c25.566-2.512,64.088-9.208,67.584-40.789C392.662,365.618,385.841,345.175,368.417,340.73z"/>
		</g>
	</g>
	<g>
		<g>
			<path class="st9" d="M457.063,115.286c-0.357,0.243-0.756,0.459-1.206,0.635c-10.916,4.276-22.329,7.021-33.345,10.998
				c-10.564,3.814-20.903,8.729-30.628,14.35c-17.303,9.999-32.946,22.439-46.853,36.777
				c-13.973,14.407-27.979,30.166-38.726,47.172c-10.416,16.482-20.172,36.07-19.274,56.079c0.065,1.47-0.358,2.667-1.069,3.584
				c0.121,0.054,0.245,0.1,0.365,0.155c12.348,5.667,19.327,15.779,24.334,27.298c-0.014-0.367-0.026-0.733-0.036-1.097
				c-0.155-5.831,0.517-11.642,1.748-17.344c2.437-11.29,6.492-22.112,10.812-32.798c4.357-10.777,8.352-21.707,14.076-31.86
				c5.253-9.317,11.284-18.258,18.12-26.491c27.69-33.35,68.663-59.145,112.793-61.346c0.167-0.816,0.508-1.514,0.951-2.113
				C465.709,130.949,461.656,122.95,457.063,115.286z"/>
		</g>
	</g>
	<g>
		<g>
			<path class="st8" d="M480.229,137.41c-9.971-25.128-25.274-47.294-43.732-66.928c-18.676-19.866-41.396-39.84-67.615-48.688
				c-13.191-4.452-26.781-5.217-40.215-1.351c-13.053,3.756-25.49,12.167-36.468,19.928c-23.267,16.451-43.602,36.745-64.281,56.229
				c-30.122,28.381-52.283,65.236-70.692,101.905c-6.299,12.546-12.326,25.312-16.872,38.612
				c-3.038,8.888-7.532,21.583-2.663,30.592c-16.362,0.313-32.982,6.099-45.008,16.583c-7.96,6.939-13.934,15.699-18.151,25.347
				c-4.276,9.778-5.871,20.182-8.331,30.477c-1.628,6.81-8.377,8.512-14.46,12.008c-8.72,5.01-16.474,10.792-21.647,19.581
				c-4.146,7.042-6.265,16.056-7.13,24.101c-0.778,7.235,0.424,14.1,3.92,20.479c6.833,12.468,22.878,18.256,34.671,24.645
				c1.373,0.744,2.679,0.848,3.814,0.522c61.071,7.876,122.521-1.39,183.484-5.72c31.109-2.209,62.219,0.941,93.145-4.63
				c14.871-2.679,30.254-7.125,42.277-16.662c12.082-9.583,17.833-23.364,17.838-38.618c0.007-18.453-9.443-37.852-27.448-44.558
				c-16.965-6.319-35.919-1.18-50.895,7.804c-1.073,0.644-2.116,1.334-3.146,2.044c-0.552-1.626-1.09-3.273-1.623-4.931
				c0.178-0.304,0.339-0.638,0.473-1.014c3.796-10.646,1.179-21.309,2.518-32.233c1.431-11.667,5.448-22.814,9.745-33.683
				c8.02-20.28,16.293-39.422,29.865-56.706c26.705-34.01,68.196-59.91,112.361-60.331c3.161-0.03,5.062-3.075,5.062-5.908v-3.312
				C480.445,141.726,481.161,139.76,480.229,137.41z M439.357,93.422c0.67-0.274,1.229-0.633,1.693-1.047
				c3.531,4.396,6.894,8.92,10.058,13.579c-11.124,4.251-22.704,7.142-33.903,11.185c-10.867,3.924-21.434,9.315-31.472,15.011
				c-18.616,10.564-35.168,24.408-50.033,39.735c-14.7,15.157-28.774,31.866-40.067,49.735
				c-11.129,17.608-20.351,38.703-19.59,59.922c-7.632-1.82-15.752-2.214-23.611-1.495c0.018-1.363-0.494-2.764-1.753-3.959
				c-0.509-0.483-0.148,0.138-0.616-1.243c-0.22-0.65-0.289-1.836-0.326-3.039c-0.105-3.417,0.805-6.926,1.628-10.214
				c2.182-8.713,5.786-17.076,9.485-25.235c7.302-16.108,15.631-31.171,26.612-45.06c15.937-20.156,35.103-37.259,56.21-51.828
				c22.825-15.752,47.329-29.76,73.75-38.332C424.802,98.745,432.172,96.362,439.357,93.422z M415.939,66.781
				c0.059-0.356,0.09-0.707,0.107-1.054c6.204,5.733,12.146,11.753,17.746,18.063c-13.261,5.222-27.127,8.732-40.258,14.309
				c-12.679,5.384-24.805,12.784-36.617,19.836c-21.752,12.986-42.135,28.159-60.02,46.143
				c-14.527,14.608-27.164,30.901-36.854,49.077c-8.36,15.685-16.666,32.484-20.319,49.991c-1.27,6.084-1.835,13.324,1.62,18.686
				c-0.429,0.1-0.859,0.196-1.284,0.302c-10.224,2.558-19.574,7.649-28.03,13.951c-0.898-26.457,9.754-52.725,21.029-76.134
				c11.934-24.771,26.226-49.204,43.812-70.39c18.713-22.544,42.758-36.938,68.032-51.027c13.377-7.457,26.691-14.599,41.019-20.104
				c4.565-1.754,9.165-3.19,13.583-5.294c1.869-0.89,3.74-1.768,5.643-2.584c0.632-0.271,1.274-0.513,1.92-0.748
				C409.994,72.077,415.158,71.507,415.939,66.781z M382.432,39.848c8.71,5.055,16.826,11.312,24.231,17.579
				c0.313,0.265,0.623,0.534,0.935,0.8c-3.109,0.361-6.309,2.005-8.927,3.204c-10.929,5.003-22.351,8.704-33.26,13.805
				c-13.242,6.192-25.905,13.674-38.609,20.886c-12.448,7.067-24.675,14.585-35.78,23.656
				c-21.967,17.941-38.225,42.091-52.296,66.424c-13.428,23.22-25.403,47.346-32.679,73.261
				c-3.433,12.227-5.442,24.961-4.981,37.681c0.099,2.716,1.771,4.262,3.781,4.742c-0.81,0.706-1.614,1.417-2.405,2.138
				c-6.777-7.974-13.836-15.672-21.933-21.92c0.024-0.26,0.038-0.526,0.028-0.806c-0.926-27.038,10-53.29,22.406-76.76
				c12.397-23.456,27.13-45.965,43.906-66.512c17.27-21.149,36.992-40.259,58.49-57.073c10.816-8.46,21.961-16.317,34.19-22.607
				c12.706-6.535,26.309-11.39,39.831-15.92C380.899,41.909,381.891,40.966,382.432,39.848z M146.652,257.664
				c0.062-3.654,1.178-7.45,2.133-10.947c2.439-8.925,6.172-17.513,9.962-25.932c8.134-18.065,17.304-35.875,27.544-52.822
				c15.421-25.52,34.05-49.081,55.696-69.59c20.879-19.783,41.786-39.945,66.146-55.464c7.559-4.816,15.617-9.327,24.171-12.084
				c8.612-2.776,17.793-2.426,26.531-0.537c3.918,0.848,7.747,2.084,11.491,3.592c-12.064,4.179-23.967,8.819-35.386,14.56
				c-12.843,6.457-24.412,14.606-35.752,23.392c-22.315,17.29-42.653,37.154-60.603,58.931
				c-17.47,21.195-32.537,44.683-45.497,68.88c-12.411,23.172-22.544,48.854-23.518,75.39c-3.959-2.077-8.166-3.798-12.706-5.033
				c-2.748-0.748-5.566-1.308-8.426-1.691c0.589-1.833,0.361-3.96-1.255-5.719c0.394,0.428-0.15-0.492-0.431-1.548
				C146.648,260.64,146.636,258.617,146.652,257.664z M321.075,354.56c12.87-10.717,30.492-18.127,47.342-13.829
				c17.424,4.445,24.245,24.888,22.456,41.044c-3.496,31.581-42.018,38.276-67.584,40.789c-29.819,2.93-59.836,0.887-89.699,3.293
				c-55.255,4.451-111.189,11.954-166.54,4.745c-0.272-0.036-0.534-0.047-0.792-0.049c-0.221-0.023-0.447-0.037-0.682-0.037
				c-0.055,0-0.105,0.006-0.159,0.008c-8.348-4.437-17.337-8.283-24.533-14.492c-7.759-6.693-8.021-15.989-5.887-25.397
				c2.378-10.481,6.495-18.495,15.396-24.735c7.088-4.97,16.543-7.641,22.339-14.261c5.205-5.945,5.626-15.96,7.246-23.293
				c2.292-10.377,6.584-20.407,13.184-28.777c14.051-17.819,38.755-23.92,60.36-19.079c18.961,4.249,32.086,20.401,43.919,34.587
				c2.366,2.837,5.995,3.221,8.691,0.556c10.296-10.176,22.146-18.541,36.124-22.717c12.606-3.767,28.255-3.036,40.266,2.477
				c9.393,4.311,14.779,13.07,18.532,22.304c4.532,11.149,7.335,22.924,11.755,34.124
				C314.002,354.842,318.23,356.929,321.075,354.56z M468.176,141.399c-44.13,2.202-85.103,27.996-112.793,61.346
				c-6.836,8.233-12.867,17.174-18.12,26.491c-5.725,10.153-9.719,21.083-14.076,31.86c-4.32,10.686-8.376,21.508-10.812,32.798
				c-1.231,5.703-1.903,11.514-1.748,17.344c0.01,0.364,0.022,0.73,0.036,1.097c-5.007-11.519-11.986-21.631-24.334-27.298
				c-0.12-0.055-0.244-0.101-0.365-0.155c0.711-0.917,1.135-2.115,1.069-3.584c-0.897-20.009,8.858-39.597,19.274-56.079
				c10.747-17.006,24.753-32.766,38.726-47.172c13.906-14.338,29.55-26.778,46.853-36.777c9.725-5.621,20.063-10.536,30.628-14.35
				c11.016-3.978,22.429-6.722,33.345-10.998c0.45-0.176,0.849-0.392,1.206-0.635c4.593,7.664,8.646,15.663,12.063,24
				C468.684,139.886,468.343,140.583,468.176,141.399z"/>
		</g>
	</g>
</g>
</svg>
