<?xml version="1.0" encoding="utf-8"?>
<!-- Generator: Adobe Illustrator 16.0.3, SVG Export Plug-In . SVG Version: 6.00 Build 0)  -->
<!DOCTYPE svg PUBLIC "-//W3C//DTD SVG 1.1//EN" "http://www.w3.org/Graphics/SVG/1.1/DTD/svg11.dtd">
<svg version="1.1" id="Layer_1" xmlns="http://www.w3.org/2000/svg" xmlns:xlink="http://www.w3.org/1999/xlink" x="0px" y="0px"
	 width="512px" height="512px" viewBox="0 0 512 512" style="enable-background:new 0 0 512 512;" xml:space="preserve">
<style type="text/css">
<![CDATA[
	.st0{fill:#127274;}
	.st1{fill:#14B6B9;}
	.st2{fill:#EF4823;}
	.st3{fill:#BCBCBC;}
	.st4{fill:#F6851F;}
	.st5{fill:#C56528;}
	.st6{fill:#FEBF10;}
	.st7{fill:none;}
	.st8{fill:#010101;}
	.st9{fill:#3AB37C;}
	.st10{fill:#D6E5E5;}
	.st11{fill:#71C598;}
	.st12{fill:#74CCCF;}
]]>
</style>
<g>
	<g>
		<g>
			<path class="st2" d="M267.439,110.822c-1.495-1.102-3.416-1.64-5.24-1.84c-3.734-0.41-7.445,0.378-8.752,4.194
				c-0.291,0.85-0.705,1.51-1.199,2.004c4.029,5.556,8.285,10.954,12.082,16.656c1.904-6.113,3.744-12.271,4.359-18.567
				C268.8,112.145,269.113,112.054,267.439,110.822z"/>
		</g>
	</g>
	<g>
		<g>
			<path class="st2" d="M299.637,174.361c-1.32-3.748-3.225-8.754-7.088-10.603c-3.191-1.528-6.643-0.548-9.736,1.002
				c-0.056,0.765-0.32,1.577-0.867,2.413c-2.862,4.379-0.631,12.894,0.187,17.745c0.704,4.182,2.136,8.679,2.886,13.065
				c0.309,0.647,0.486,1.417,0.486,2.317v0.972c0.892,0.155,1.793,0.57,2.646,1.318c3.494,3.066,10.119,2.917,15.127,1.615
				C303.697,194.284,302.906,183.647,299.637,174.361z"/>
		</g>
	</g>
	<g>
		<g>
			<path class="st2" d="M340.083,231.279c-3.231-7.553-6.663-15.06-11.019-22.043c-3.086-4.947-8.39-14.167-14.938-16.148
				c0.198,4,0.181,8.002,0.017,11.925c1.37,1.866,1.769,4.494,0.007,6.842c0.535-0.712,0.752-1.139,0.828-1.323
				c-0.058,0.228-0.139,0.817,0.119,1.706c0.31,1.068,0.632,2.13,1.015,3.175c0.835,2.279,1.751,4.523,2.662,6.773
				c1.893,4.676,2.913,8.989,3.47,14.008c0.982,8.844,1.936,17.798,2.191,26.717c0.495-0.132,1.045-0.199,1.658-0.176
				c7.674,0.285,16.217-1.07,17.701-9.925C345.008,245.566,342.924,237.918,340.083,231.279z"/>
		</g>
	</g>
	<g>
		<g>
			<path class="st2" d="M333.675,193.279c-0.292-3.494-0.825-6.964-1.533-10.397c-0.808-3.909-1.704-8.004-3.028-11.875
				c-5.867,1.26-11.646,2.742-17.277,4.91c-0.064,0.025-0.127,0.041-0.191,0.063c0.506,1.945,0.926,3.919,1.271,5.914
				c8.865,1.092,15.637,7.481,20.884,14.616C333.848,195.441,333.764,194.333,333.675,193.279z"/>
		</g>
	</g>
	<g>
		<g>
			<path class="st10" d="M338.407,75.175c-19.901-34.937-64.2-54.181-103.011-41.144c-21.514,7.227-40.897,23.412-50.133,44.368
				c-4.977,11.295-6.269,22.587-6.254,34.801c0.008,6.799,0.003,13.64,0.676,20.413c0.293,2.935,0.545,5.962,1.314,8.819
				c0.199,0.744,0.492,1.504,0.756,2.263c0.071,0.037,0.143,0.065,0.215,0.105c16.145,8.909,32.737,22.694,51.889,23.542
				c7.183,0.318,14.361,0.838,21.554,0.873c4.019,0.02,10.899,0.536,14.571-1.048c0.293-1.881,0.847-3.651,1.736-5.228
				c-0.65-2.021-0.164-4.314,2.223-5.772c6.555-4.005,13.901-6.659,21.479-4.086c5.871,1.994,9.893,7.153,12.507,12.574
				c0.091-0.04,0.176-0.083,0.271-0.12c7.645-2.944,15.594-4.627,23.604-6.234c0.193-0.218,0.398-0.432,0.637-0.634
				c11.201-9.531,14.654-27.6,15.566-41.488C348.964,102.559,345.679,87.94,338.407,75.175z M227.996,94.158
				c-6.054-0.372-10.291-5.662-10.459-11.504c-0.096-3.296,2.232-5.241,4.767-5.666c1.862-3.928,5.156-7.103,9.739-7.409
				c8.459-0.565,11.721,10.087,9.469,16.624C239.586,91.799,233.545,94.498,227.996,94.158z M277.402,125.415
				c-1.699,6.49-3.81,12.867-5.484,19.361c-0.578,2.245-2.449,4.436-4.975,4.436h-1.5c-1.818,0-4.065-0.63-4.983-2.409
				c-6.14-11.897-15.337-21.753-22.499-32.999c-3.18-4.992,2.645-10.108,6.877-8.175c6.654-11.049,27.445-10.115,33.435,1.249
				C281.241,112.511,278.912,119.647,277.402,125.415z M310.797,92.662c-2.2,3.272-6.547,5.068-10.393,4.583
				c-2.855-0.361-4.791-2.349-6.006-4.793c-0.379-0.766-0.58-1.634-0.658-2.53c-0.959-1.533-1.473-3.462-1.695-5.176
				c-0.336-2.574,0.268-5.145,1.854-7.208c3.816-4.962,11.301-1.854,15.137,1.395c2.071,1.755,3.484,4.102,3.823,6.811
				C313.182,88.328,312.193,90.584,310.797,92.662z"/>
		</g>
	</g>
	<g>
		<g>
			<path class="st10" d="M394.02,310.91c-8.227-23.2-20.572-44.869-37.279-62.969c-0.547,0.183-1.08,0.279-1.594,0.292
				c0.049,3.902-0.496,7.768-1.934,11.418c-4.27,10.835-15.443,14.456-26.273,14.054c-2.225-0.083-3.832-1.243-4.768-2.78
				c-3.209,2.24-8.604,1.186-8.641-3.782c-0.089-11.606-1.254-23.432-2.85-34.919c-0.732-5.273-4.749-11.168-6.319-16.923
				c-7.495,1.554-16.452,0.728-22.301-3.528c-0.036,0.132-0.069,0.263-0.116,0.396c-6.448,18.603-6.928,38.465-9.334,57.82
				c-1.436,11.55-1.807,23.159-3.049,34.726c-0.863,8.058-1.49,23.426-11.658,25.609c-10.993,2.361-21.941-0.95-32.959-1.124
				c-2.803-0.044-5.917-1.868-5.908-5.062c0.081-31.318,4.438-61.775,15.789-91.065c1.299-3.351,2.713-6.938,4.289-10.581
				c-0.654,0.005-1.338-0.098-2.042-0.345c-10.52-3.697-21.728-4.836-32.366-8.108c-9.248-2.844-19.382-7.076-26.537-13.85
				c-0.736,1.508-2.127,2.714-4.223,3.017c-12.728,1.839-20.098,16.979-25.738,26.975c-0.844,1.495-1.664,3.004-2.48,4.516
				c0.967,2.823-0.848,6.364-3.791,7.278c-5.628,11.25-10.434,22.93-14.062,34.964c-8.159,27.069-11.17,55.65-10.153,83.879
				c0.822,22.856,4.094,47.042,14.986,67.506c10.672,20.05,27.957,34.038,48.248,43.745c41.061,19.643,91.812,25.536,135.963,13.771
				c45.162-12.034,81.537-50.636,87.393-97.581C407.506,362.668,402.578,335.049,394.02,310.91z"/>
		</g>
	</g>
	<g>
		<g>
			<path class="st2" d="M274.533,203.848c0-2.133-0.284-4.306-0.701-6.494c-8.113,1.827-14.115,10.208-18.051,16.905
				c-4.994,8.497-8.844,17.589-12.276,26.812c-9.276,24.919-12.999,51.052-13.449,77.511c3.206,0.295,6.404,0.716,9.603,1.033
				c4.564,0.452,10.898,1.745,15.344,0.122c0.1-0.037,0.163-0.061,0.237-0.089c0.386-0.725,0.737-1.465,1.004-2.245
				c0.63-1.843,0.978-3.859,1.306-5.775c0.92-5.388,1.453-10.834,1.865-16.282c0.924-12.174,2.154-24.217,3.377-36.363
				c1.77-17.56,3.485-34.931,9.301-51.706c0.523-1.508,1.431-2.419,2.494-2.855C274.568,204.23,274.533,204.052,274.533,203.848z"/>
		</g>
	</g>
	<g>
		<g>
			<path class="st2" d="M270.783,183.336c-0.172-1.215-0.367-2.524-0.545-3.887c-4.221,0.847-8.81,0.76-12.773,0.741
				c-7.885-0.038-15.738-0.64-23.613-0.913c-19.963-0.692-36.676-13.056-53.455-22.743c-3.293,13.429-4.84,29.102,7.979,37.731
				c16.3,10.973,35.51,11.677,53.593,18.03c0.63,0.221,1.155,0.509,1.586,0.847c6.341-12.084,14.995-23.111,27.842-26.415
				C271.154,185.588,270.941,184.455,270.783,183.336z"/>
		</g>
	</g>
	<g>
		<g>
			<path d="M447.287,202.739c-3.512,0-7.644-1.621-11.02-2.508c-3.896-1.023-8.219-2.196-11.782-4.286
				c6.128-9.502,12.185-19.048,17.952-28.771c2.31-3.893-1.51-7.932-5.35-7.932h-4.5c-5.135,0-6.088,5.751-3.544,8.924
				c-3.288,5.404-6.652,10.761-10.056,16.094c0.006-0.151,0.013-0.301,0.008-0.458c-0.229-7.152-3.792-14.496-6.259-21.083
				c-1.473-3.933-2.942-7.868-4.209-11.873c-0.433-1.366-0.866-2.77-1.126-4.174c-0.059-0.318-0.102-0.638-0.135-0.959
				c2.972-3.741-0.469-10.733-6.074-8.677c-8.668,3.179-3.869,15.202-1.807,21.197c0.264,0.77,0.543,1.534,0.816,2.3
				c-4.178-0.923-8.542-1.239-12.613-1.291c-7.085-0.091-6.199,10.879,0.848,10.97c5.578,0.072,11.811,0.967,16.628,3.942
				c0.071,0.044,0.142,0.077,0.212,0.117c1.225,3.316,2.636,6.846,2.75,10.378c0.146,4.589,4.794,5.845,7.992,4.241
				c-13.758,21.392-27.965,42.503-40.182,64.825c-4.822-6.369-10.055-12.432-15.691-18.125c-0.902-0.911-1.875-1.383-2.836-1.523
				c-0.504-1.234-1.02-2.463-1.604-3.663c-1.096-2.252-3.117-3.848-5.55-3.675c-2.72-6.874-6.108-13.636-9.834-20.038
				c6.004-3.628,4.586-13.398,3.74-19.286c-0.951-6.625-2.261-13.862-4.646-20.354c15.36-13.751,19.704-36.99,19.726-56.72
				c0.021-20.14-8.622-40.116-21.422-55.405c-26.391-31.521-71.977-44.488-110.59-29.611c-23.654,9.114-43.943,28.475-53.344,52.059
				c-5.148,12.913-5.785,25.883-5.741,39.593c0.023,7.383,0.226,14.776,1.204,22.102c0.416,3.11,1.093,6.212,2.008,9.214
				c-0.047,0.13-0.094,0.258-0.133,0.395c-4.081,14.519-6.574,30.753,0.9,43.757c-11.018,2.006-18.907,9.822-25.111,18.815
				c-3.787,5.489-7.232,11.263-10.419,17.177c-4.72-2.685-9.274-5.722-13.785-8.658c-9.955-6.479-19.671-13.332-29.214-20.402
				c-0.679-0.503-1.355-1.011-2.033-1.517c0.407-1.008,0.538-2.172,0.257-3.445c-1.823-8.257,1.257-18.368,2.434-26.542
				c0.991-6.89,3.597-18.294-1.565-24.211c-4.604-5.276-13.779,0.811-9.119,6.151c0.965,1.106,1.334,2.993,1.367,5.216
				c-0.699-0.27-1.402-0.534-2.109-0.794c-2.877-1.058-6.13-2.118-8.138-4.573c-4.454-5.448-13.614,0.654-9.119,6.151
				c4.816,5.891,11.495,7.586,17.96,10.514c-0.322,1.676-0.622,3.177-0.791,4.301c-0.92,6.126-2.117,12.501-2.147,18.794
				c-4.751-3.782-9.406-7.683-13.894-11.767c-2.926-2.663-5.923-5.531-8.251-8.388c-0.833-1.022-1.584-2.109-2.249-3.248
				c-0.024-0.089-0.166-0.409-0.272-0.665c0.226-5.607-8.034-9.085-10.222-3.065c-2.74,7.542,4.238,14.252,9.055,19.154
				c8.287,8.434,17.774,15.756,27.172,22.895c10.655,8.095,21.623,15.779,32.77,23.181c5.498,3.651,11.077,7.461,16.89,10.738
				c-1.171,2.416-2.314,4.84-3.419,7.268c-11.346,24.941-17.875,51.503-20.214,78.746c-3.812,44.401-1.179,96.155,30.317,130.866
				c15.08,16.619,36.52,27.51,57.412,34.823c22.775,7.974,46.731,11.916,70.824,12.546c22.296,0.583,45.127-2.329,66.121-10.063
				c21.67-7.983,40.938-22.19,55.524-40.019c11.515-14.074,19.705-30.581,24.353-48.128c5.053-19.072,4.306-39.19,1.477-58.555
				c-4.254-29.104-14.767-57.418-30.953-81.976c10.715-20.277,23.194-39.48,35.658-58.698c4.011,2.305,8.32,3.824,12.809,5.19
				c3.713,1.129,7.752,2.372,11.752,3.016c0.67,0.282,1.43,0.445,2.283,0.445h2.701
				C455.224,213.708,454.346,202.739,447.287,202.739z M340.083,231.279c2.841,6.64,4.925,14.288,3.712,21.532
				c-1.484,8.854-10.027,10.209-17.701,9.925c-0.613-0.023-1.163,0.044-1.658,0.176c-0.256-8.918-1.209-17.873-2.191-26.717
				c-0.557-5.019-1.577-9.332-3.47-14.008c-0.911-2.25-1.827-4.494-2.662-6.773c-0.383-1.045-0.705-2.107-1.015-3.175
				c-0.258-0.889-0.177-1.479-0.119-1.706c-0.076,0.184-0.293,0.61-0.828,1.323c1.762-2.348,1.363-4.977-0.007-6.842
				c0.164-3.922,0.182-7.924-0.017-11.925c6.548,1.981,11.852,11.201,14.938,16.148C333.42,216.219,336.852,223.726,340.083,231.279
				z M312.916,181.894c-0.346-1.994-0.766-3.969-1.271-5.914c0.064-0.022,0.127-0.038,0.191-0.063
				c5.631-2.168,11.41-3.65,17.277-4.91c1.324,3.871,2.221,7.966,3.028,11.875c0.708,3.433,1.241,6.903,1.533,10.397
				c0.089,1.054,0.173,2.163,0.125,3.23C328.553,189.375,321.781,182.985,312.916,181.894z M185.264,78.398
				c9.235-20.956,28.619-37.141,50.133-44.368c38.811-13.037,83.109,6.207,103.011,41.144c7.271,12.765,10.557,27.384,9.599,42.004
				c-0.912,13.888-4.365,31.957-15.566,41.488c-0.238,0.202-0.443,0.416-0.637,0.634c-8.01,1.606-15.959,3.29-23.604,6.234
				c-0.095,0.037-0.18,0.08-0.271,0.12c-2.614-5.42-6.636-10.58-12.507-12.574c-7.577-2.573-14.924,0.082-21.479,4.086
				c-2.387,1.458-2.873,3.75-2.223,5.772c-0.89,1.576-1.443,3.347-1.736,5.228c-3.672,1.584-10.553,1.067-14.571,1.048
				c-7.192-0.034-14.371-0.555-21.554-0.873c-19.151-0.848-35.744-14.633-51.889-23.542c-0.072-0.04-0.144-0.069-0.215-0.105
				c-0.264-0.758-0.557-1.519-0.756-2.263c-0.77-2.857-1.021-5.884-1.314-8.819c-0.673-6.772-0.668-13.614-0.676-20.413
				C178.995,100.986,180.287,89.693,185.264,78.398z M285.018,197.983c-0.75-4.387-2.182-8.884-2.886-13.065
				c-0.817-4.851-3.049-13.365-0.187-17.745c0.547-0.836,0.812-1.648,0.867-2.413c3.094-1.551,6.545-2.531,9.736-1.002
				c3.863,1.849,5.768,6.855,7.088,10.603c3.27,9.286,4.061,19.922,3.641,29.845c-5.008,1.301-11.633,1.451-15.127-1.615
				c-0.854-0.749-1.755-1.164-2.646-1.318v-0.972C285.504,199.4,285.326,198.63,285.018,197.983z M274.586,204.421
				c-1.063,0.437-1.971,1.347-2.494,2.855c-5.815,16.775-7.531,34.146-9.301,51.706c-1.223,12.146-2.453,24.188-3.377,36.363
				c-0.412,5.448-0.945,10.894-1.865,16.282c-0.328,1.916-0.676,3.932-1.306,5.775c-0.267,0.78-0.618,1.52-1.004,2.245
				c-0.074,0.028-0.138,0.053-0.237,0.089c-4.445,1.623-10.779,0.33-15.344-0.122c-3.198-0.316-6.396-0.737-9.603-1.033
				c0.45-26.459,4.173-52.592,13.449-77.511c3.433-9.223,7.282-18.315,12.276-26.812c3.936-6.697,9.938-15.078,18.051-16.905
				c0.417,2.188,0.701,4.361,0.701,6.494C274.533,204.052,274.568,204.23,274.586,204.421z M180.396,156.535
				c16.779,9.687,33.492,22.051,53.455,22.743c7.875,0.273,15.729,0.875,23.613,0.913c3.964,0.019,8.553,0.105,12.773-0.741
				c0.178,1.363,0.373,2.672,0.545,3.887c0.158,1.119,0.371,2.252,0.612,3.392c-12.847,3.304-21.501,14.331-27.842,26.415
				c-0.431-0.338-0.956-0.626-1.586-0.847c-18.083-6.354-37.293-7.058-53.593-18.03
				C175.557,185.637,177.104,169.963,180.396,156.535z M394.02,310.91c8.559,24.139,13.486,51.758,10.293,77.353
				c-5.855,46.945-42.23,85.547-87.393,97.581c-44.15,11.764-94.902,5.871-135.963-13.771
				c-20.291-9.707-37.576-23.694-48.248-43.745c-10.893-20.465-14.164-44.65-14.986-67.506c-1.017-28.229,1.994-56.81,10.153-83.879
				c3.628-12.035,8.434-23.714,14.062-34.964c2.943-0.915,4.758-4.455,3.791-7.278c0.816-1.512,1.637-3.021,2.48-4.516
				c5.641-9.997,13.011-25.136,25.738-26.975c2.096-0.303,3.486-1.509,4.223-3.017c7.155,6.773,17.289,11.005,26.537,13.85
				c10.639,3.272,21.847,4.412,32.366,8.108c0.704,0.248,1.388,0.35,2.042,0.345c-1.576,3.643-2.99,7.229-4.289,10.581
				c-11.352,29.29-15.708,59.747-15.789,91.065c-0.009,3.194,3.105,5.018,5.908,5.062c11.018,0.174,21.966,3.484,32.959,1.124
				c10.168-2.184,10.795-17.552,11.658-25.609c1.242-11.567,1.613-23.176,3.049-34.726c2.406-19.354,2.886-39.217,9.334-57.82
				c0.047-0.133,0.08-0.265,0.116-0.396c5.849,4.256,14.806,5.082,22.301,3.528c1.57,5.754,5.587,11.65,6.319,16.923
				c1.596,11.487,2.761,23.313,2.85,34.919c0.037,4.967,5.432,6.022,8.641,3.782c0.936,1.537,2.543,2.697,4.768,2.78
				c10.83,0.402,22.004-3.219,26.273-14.054c1.438-3.65,1.982-7.516,1.934-11.418c0.514-0.013,1.047-0.11,1.594-0.292
				C373.447,266.042,385.793,287.71,394.02,310.91z"/>
		</g>
	</g>
	<g>
		<g>
			<path d="M278.272,106.878c-5.989-11.364-26.78-12.298-33.435-1.249c-4.232-1.933-10.057,3.183-6.877,8.175
				c7.162,11.245,16.359,21.102,22.499,32.999c0.918,1.779,3.165,2.409,4.983,2.409h1.5c2.525,0,4.396-2.19,4.975-4.436
				c1.675-6.494,3.785-12.871,5.484-19.361C278.912,119.647,281.241,112.511,278.272,106.878z M268.689,113.269
				c-0.615,6.296-2.455,12.454-4.359,18.567c-3.797-5.703-8.053-11.101-12.082-16.656c0.494-0.494,0.908-1.154,1.199-2.004
				c1.307-3.816,5.018-4.604,8.752-4.194c1.824,0.2,3.745,0.738,5.24,1.84C269.113,112.054,268.8,112.145,268.689,113.269z"/>
		</g>
	</g>
	<g>
		<g>
			<path d="M232.043,69.579c-4.583,0.307-7.877,3.481-9.739,7.409c-2.534,0.424-4.862,2.37-4.767,5.666
				c0.168,5.843,4.405,11.133,10.459,11.504c5.549,0.34,11.59-2.359,13.516-7.955C243.764,79.666,240.502,69.013,232.043,69.579z"/>
		</g>
	</g>
	<g>
		<g>
			<path d="M312.858,85.743c-0.339-2.709-1.752-5.056-3.823-6.811c-3.836-3.249-11.32-6.356-15.137-1.395
				c-1.586,2.062-2.189,4.633-1.854,7.208c0.223,1.713,0.736,3.643,1.695,5.176c0.078,0.896,0.279,1.765,0.658,2.53
				c1.215,2.444,3.15,4.432,6.006,4.793c3.846,0.486,8.192-1.31,10.393-4.583C312.193,90.584,313.182,88.328,312.858,85.743z"/>
		</g>
	</g>
</g>
</svg>
