<?xml version="1.0" encoding="utf-8"?>
<!-- Generator: Adobe Illustrator 16.0.3, SVG Export Plug-In . SVG Version: 6.00 Build 0)  -->
<!DOCTYPE svg PUBLIC "-//W3C//DTD SVG 1.1//EN" "http://www.w3.org/Graphics/SVG/1.1/DTD/svg11.dtd">
<svg version="1.1" id="Layer_1" xmlns="http://www.w3.org/2000/svg" xmlns:xlink="http://www.w3.org/1999/xlink" x="0px" y="0px"
	 width="512px" height="512px" viewBox="0 0 512 512" style="enable-background:new 0 0 512 512;" xml:space="preserve">
<style type="text/css">
<![CDATA[
	.st0{fill:#127274;}
	.st1{fill:#14B6B9;}
	.st2{fill:#EF4823;}
	.st3{fill:#BCBCBC;}
	.st4{fill:#F6851F;}
	.st5{fill:#C56528;}
	.st6{fill:#FEBF10;}
	.st7{fill:none;}
	.st8{fill:#010101;}
	.st9{fill:#3AB37C;}
	.st10{fill:#D6E5E5;}
	.st11{fill:#71C598;}
	.st12{fill:#74CCCF;}
]]>
</style>
<g>
	<g>
		<g>
			<path class="st6" d="M181.752,433.611c-4.41-3.747-9.752-6.678-14.645-9.765c-5.01-3.161-10.061-6.303-15.336-9.006
				c-3.52-1.803-6.849-2.824-10.33-3.862c0.512,2.811-0.141,6.046-0.305,8.689c-0.361,5.84-0.182,12.055,0.512,17.865
				c1.339,11.22,2.377,22.402,5.383,33.266c8.488-4.296,15.665-10.524,22.541-17.183
				C173.008,450.288,188.162,439.057,181.752,433.611z"/>
		</g>
	</g>
	<g>
		<g>
			<path class="st6" d="M90.217,357.272c-0.221,1.008-0.17,1.59-0.135,1.789c-0.057-0.192-0.266-0.729-0.891-1.597
				c-0.984-1.366-2.007-2.703-3.068-4.009c-2.121-2.608-4.307-5.162-6.484-7.723c-5.355-6.294-8.447-14.226-13.866-20.4
				c-4.638,6.379-6.793,15.378-9.229,22.437c-2.723,7.882-7.344,16.022-8.303,24.487c13.538,0.489,27.884-3.66,39.299-10.494
				c1.066-0.639,2.136-0.877,3.143-0.827C90.123,359.948,89.9,358.717,90.217,357.272z"/>
		</g>
	</g>
	<g>
		<g>
			<path class="st1" d="M377.85,232.793c-2.166-0.234-4.336-0.428-6.51-0.577c-4.355-0.299-8.69-0.338-13.051-0.453
				c-11.434-0.3-22.842-0.915-34.28-1.077c-8.522-0.121-17.53-0.333-25.888,1.606c-6.326,1.469-13.761,3.813-15.094,11.021
				c0.3,0.866,0.336,1.89-0.014,3.057c-2.934,9.794-0.146,18.784,1.086,28.527c0.895,7.066,1.777,14.379,4.604,20.987
				c2.774,6.483,7.584,11.371,14.808,12.431c5.677,0.833,11.296-0.042,16.989,0.246c4.785,0.242,9.57,0.479,14.338,0.963
				c8.561,0.87,17.65,1.116,23.321-6.521c3.887-5.235,5.149-12.016,6.071-18.328c1.264-8.64,2.652-16.809,5.641-25.07
				c3.199-8.842,6.834-17.429,8.25-26.777C378.03,232.818,377.94,232.803,377.85,232.793z"/>
		</g>
	</g>
	<g>
		<g>
			<path class="st6" d="M367.967,155.406c-32.95-32.231-80.512-47.916-126.205-45.828c-46.206,2.111-92.082,21.903-119.82,59.959
				c-7.221,9.907-13.008,20.506-17.477,31.549c15.637,0.124,31.263-0.669,46.898-0.529c14.422,0.129,28.98,0.822,43.389,1.567
				c12.577,0.651,27.471,1.44,38.355,8.539c6.16,4.018,17.332,18.562,25.7,11.86c3.595-2.879,5.292-7.784,7.974-11.425
				c2.984-4.054,6.945-6.809,11.462-8.96c11.009-5.243,23.739-5.852,35.738-5.713c13.39,0.155,26.863,0.241,40.204,1.42
				c14.797,1.308,29.556,3.349,44.43,3.062C391.586,184.029,381.324,168.472,367.967,155.406z"/>
		</g>
	</g>
	<g>
		<g>
			<path class="st6" d="M52.434,220.513c-6.707,2.215-13.466,4.257-20.084,6.74c-7.187,2.696-15.242,5.501-21.148,10.595
				c-0.709,0.611-1.182,1.2-1.438,1.687c3.424,3.068,7.883,4.772,11.482,7.655c5.425,4.345,9.951,9.416,15.126,13.958
				c3.019,2.65,6.263,6.205,10.11,7.828c1.407-16.361,6.581-32.343,6.696-48.768C52.944,220.32,52.699,220.425,52.434,220.513z"/>
		</g>
	</g>
	<g>
		<g>
			<path class="st6" d="M158.53,62.887c-1.946-2.214-12.312-15.906-15.681-13.201c-2.893,2.323-2.018,8.299-1.706,11.456
				c0.517,5.235,1.513,10.383,2.352,15.571c1.194,7.385,3.149,15.46,2.997,23.224c8.207-8.51,19.878-14.199,31.626-17.09
				C171.206,76.587,164.688,69.89,158.53,62.887z"/>
		</g>
	</g>
	<g>
		<g>
			<path class="st6" d="M83.406,131.968c-5.5-1.956-11.249-3.492-17-4.495c-4.305-0.751-11.762-2.491-15.419,0.374
				c0,0-0.368,0.479-0.354,0.798c0.068,1.493,0.291,2.399,0.852,3.823c3.555,9.056,10.664,16.882,16.712,24.352
				c3.117,3.85,7.049,7.97,10.019,12.442c0.341-0.377,0.682-0.753,1.001-1.15c1.162-1.446,2.278-2.927,3.356-4.437
				c2.324-3.253,4.571-6.56,6.751-9.912c3.417-5.253,6.733-11.322,11.166-16.045C94.664,136.353,89.059,133.978,83.406,131.968z"/>
		</g>
	</g>
	<g>
		<g>
			<path class="st6" d="M333.086,83.107c5.973,2.245,11.512,6.926,16.172,10.571c4.005,3.133,7.916,6.391,11.805,9.669
				c4.195-3.392,6.503-9.077,8.467-13.931c1.809-4.474,3.713-8.879,5.604-13.319c2.625-6.168,6.99-14.934,7.086-22.561
				C364.137,59.583,344.671,67.801,333.086,83.107z"/>
		</g>
	</g>
	<g>
		<g>
			<path class="st6" d="M435.191,127.03c-9.773,1.885-19.543,4.694-28.758,8.482c-1.18,0.485-2.26,0.543-3.205,0.307
				c3.889,6.321,8.835,12.098,12.895,18.265c2.342,3.56,5.188,7.647,6.812,11.948c7.24-5.756,14.604-11.516,20.547-18.342
				c5.369-6.166,13.848-12.918,16.836-21.041C453.26,123.18,441.877,125.741,435.191,127.03z"/>
		</g>
	</g>
	<g>
		<g>
			<path class="st6" d="M266.533,41.609c-1.514-5.299-2.482-10.772-4.195-16.004c-0.689-2.104-1.305-4.47-2.473-6.371
				c-0.334-0.545-0.58-0.889-0.755-1.111c-3.997,3.158-6.581,8.679-8.665,13.143c-2.432,5.212-4.501,10.569-6.758,15.856
				c-3.77,8.822-9.734,16.562-12.471,25.715h42.205C273.349,62.209,269.407,51.672,266.533,41.609z"/>
		</g>
	</g>
	<g>
		<g>
			<path class="st0" d="M406.566,210.72c-0.387-0.079-0.742-0.191-1.074-0.325c-0.803,0.812-1.948,1.354-3.453,1.411
				c-2.455,0.093-4.911,0.163-7.368,0.126c-15.517-0.229-30.857-2.481-46.312-3.592c-13.066-0.939-26.535-1.261-39.637-0.915
				c-9.943,0.263-25.379,0.589-32.312,9.164c-6.045,7.477-9.321,17.931-20.735,18.387c-12.081,0.482-18.655-8.176-27.646-14.544
				c-10.453-7.405-26.964-7.258-39.206-7.588c-14.839-0.4-29.654-1.467-44.5-1.299c-16.43,0.186-32.857,0.917-49.285,0.262
				c-1.154-0.046-2.137-0.388-2.951-0.915c-2.4,2.333-4.456,5.095-5.76,8.085c-1.174,2.691-2.535,7.629,0.164,9.924
				c2.874,2.444,6.536,3.737,9.468,6.128c3.299,2.691,6.091,6.269,7.608,10.271c1.879,4.959,2.549,10.212,3.082,15.459
				c0.473,4.635,1.537,9.158,2.193,13.77c1.261,8.85,1.705,19.036,6.229,26.99c11.251,19.782,37.34,19.278,57.174,20.176
				c7.396,0.335,14.66,1.343,22.025,2.037c3.812,0.359,7.668,0.673,11.5,0.43c1.891-0.12,5.392-0.112,6.711-1.473
				c0.652-0.672,1.363-1.122,2.096-1.396c10.244-13.145,11.887-29.336,14.386-45.398c1.401-9.011,4.378-25.256,14.979-27.992
				c13.992-3.611,22.793,9.85,25.402,21.695c1.502,6.817,2.353,13.685,3.37,20.577c1.366,9.257,3.644,18.305,6.091,27.327
				c0.193,0.714,0.246,1.391,0.195,2.027c13.186,9.803,29.775,11.585,45.799,11.296c9.37-0.169,19.123-0.527,28.391-1.99
				c6.119-0.966,12.109-2.779,18.26-3.073c0.301-0.356,0.658-0.694,1.088-1.002c8.75-6.262,8.844-19.461,9.811-29.141
				c1.168-11.677,2.754-24.636,7.342-35.511c2.49-5.907,5.474-11.777,9.561-16.762c2.766-3.375,5.716-5.457,9.002-7.575
				c-0.021-0.15-0.04-0.301-0.062-0.452h0.767c0.992-0.634,2.013-1.278,3.071-1.971C421.3,227.287,416.607,212.769,406.566,210.72z
				 M223.513,272.577c-4.058,18.639-7.728,42.146-30.474,45.229c-20.602,2.793-45.789-0.11-60.664-16.163
				c-8.385-9.047-13.068-21.971-16.078-33.72c-3.385-13.21-5.248-26.698-7.166-40.179c-0.133-0.93-0.051-1.747,0.184-2.455
				c0.211-2.353,1.787-4.442,4.877-4.453c17.715-0.061,35.363-1.766,53.068-2.121c13.182-0.264,27.97-0.832,39.968,5.682
				C225.211,234.161,227.512,254.204,223.513,272.577z M389.014,234.371c-1.662,11.769-7.016,22.206-10.406,33.469
				c-2.699,8.971-2.801,18.338-5.223,27.346c-2.057,7.647-5.445,15.228-12.047,20.021c-8.752,6.354-18.281,6.142-28.598,5.116
				c-6.902-0.686-13.703-0.727-20.625-0.616c-5.613,0.09-11.213-0.192-16.518-2.205c-7.848-2.978-13.531-9.226-16.799-16.863
				c-3.463-8.095-3.846-16.486-5.689-24.945c-2.225-10.203-3.953-21.209-0.893-31.423c0.039-0.128,0.086-0.247,0.131-0.369
				c-0.238-0.775-0.307-1.653-0.131-2.631c3.759-20.939,31.481-21.732,48.074-21.589c13.018,0.112,26.018,1.064,39.025,1.143
				c5.1,0.03,10.193,0.276,15.275,0.678c3.38,0.267,8.463-0.004,11.471,1.891c2.787,1.757,3.201,4.874,2.232,7.292
				C388.912,231.681,389.219,232.919,389.014,234.371z"/>
		</g>
	</g>
	<g>
		<g>
			<path class="st1" d="M200.418,233.327c-11.75-5.035-25.543-3.95-38.006-3.47c-13.882,0.535-27.744,1.592-41.635,1.877
				c1.291,9.278,2.576,18.591,4.715,27.707c2.711,11.559,6.318,26.135,14.994,34.856c7.666,7.705,18.082,11.385,28.707,12.738
				c5.596,0.713,11.234,0.899,16.863,0.456c4.381-0.345,9.42-0.433,13.133-3.095c7.57-5.427,9.713-16.048,11.553-24.602
				C214.174,263.836,219.477,241.493,200.418,233.327z"/>
		</g>
	</g>
	<g>
		<g>
			<path class="st6" d="M500.979,247.504c-7.773-5.311-20.276-8.075-29.897-10.466c-5.817-1.445-11.671-2.772-17.569-3.846
				c-2.212-0.403-4.431-0.794-6.661-1.086c-0.26-0.034-0.521-0.059-0.781-0.092c0.271,14.352,6.021,27.864,4.246,42.007
				c2.373,0.193,5.201-1.435,7.152-2.461c3.266-1.718,6.443-3.592,9.711-5.305c4.751-2.492,9.904-4.158,14.847-6.226
				c6.015-2.516,12.395-5.18,17.442-9.41c0.762-0.639,1.779-1.485,2.242-2.381c0.02-0.04,0.035-0.083,0.053-0.125
				C501.562,247.934,501.305,247.726,500.979,247.504z"/>
		</g>
	</g>
	<g>
		<g>
			<path class="st6" d="M462.049,371.64c-2.05-7.052-4.756-13.855-7.288-20.74c-1.759-4.78-3.117-9.707-5.773-14.105
				c-1.184-1.959-2.713-4.956-4.876-6.046c-1.615-0.814-2.396,0.941-3.363,2.204c-0.705,0.919-1.516,1.489-2.359,1.783
				c-1.662,2.996-4.057,5.829-5.549,7.889c-5.273,7.283-11.266,14.382-15.457,22.375c-0.424,0.807-0.772,1.464-1.031,2.04
				c0.07,0.037,0.135,0.071,0.215,0.112c4.578,2.386,9.5,4.098,14.377,5.762c5.085,1.734,10.178,3.319,15.045,5.624
				c6.047,2.864,11.947,6.214,18.168,8.731C464.93,382.119,463.418,376.35,462.049,371.64z"/>
		</g>
	</g>
	<g>
		<g>
			<path class="st6" d="M249.039,443.806c-0.61,0.003-1.172-0.081-1.688-0.228c-1.179,1.022-0.706,2.994,0.057,5.56
				c1.287,4.324,3.09,8.723,5.605,12.495c4.711,7.065,11.053,12.828,16.023,19.702c2.211,3.057,3.986,6.442,5.868,9.75
				c2.585-9.661,6.292-19.183,11.409-27.507c4.474-7.275,10.529-15.883,12.32-24.761
				C282.184,441.394,265.747,443.726,249.039,443.806z"/>
		</g>
	</g>
	<g>
		<g>
			<path class="st6" d="M379.311,403.103c-10.816,7.469-22.853,13.221-34.877,18.41c-0.195,0.084-0.387,0.155-0.576,0.216
				c-2.738,3.483,1.097,9.125,3.021,12.33c3.177,5.291,6.067,10.628,10.493,15.006c4.252,4.206,8.323,8.533,12.342,12.96
				c2.167,2.387,4.316,4.546,6.816,6.205c0.301-11.758-0.48-23.547-0.393-35.303c0.051-6.824,0.182-13.758,1.344-20.5
				C378.018,409.305,378.738,406.21,379.311,403.103z"/>
		</g>
	</g>
	<g>
		<g>
			<path class="st6" d="M409.566,248.428c-3.158,3.034-5.625,6.737-7.432,10.955c-5.775,13.49-7.852,27.707-9.375,42.258
				c-1.17,11.167-3.27,22.894-11.926,30.521c-0.605,2.616-2.859,4.967-6.268,4.559c-4.355-0.522-8.973,0.775-13.201,1.68
				c-4.828,1.033-9.594,1.656-14.514,2.099c-9.525,0.858-19.171,1.625-28.744,1.451c-17.174-0.311-34.597-4.427-48.123-15.497
				c-1.99-1.629-2.299-3.751-1.63-5.583c-3.952-14.655-6.04-29.318-8.724-44.204c-0.924-5.115-2.035-11.012-5.45-15.129
				c-2.042-2.463-6.112-4.909-8.558-1.755c-2.801,3.609-3.824,8.529-4.797,12.895c-1.432,6.435-2.104,12.996-3.221,19.489
				c-2.392,13.91-6.654,26.839-15.857,37.786c-0.967,1.149-2.099,1.725-3.24,1.875c-6.008,4.117-14.547,3.577-21.48,3.101
				c-8.566-0.587-17.07-1.994-25.422-2.324c-22.287-0.883-52.329-1.507-64.979-23.747c-5.642-9.921-6.971-20.964-8.554-32.079
				c-0.792-5.56-1.931-11.015-2.538-16.597c-0.381-3.498-0.752-7.434-2.145-10.826c-1.688,23.232,1.391,46.955,8.781,69.429
				c0.199,0.605,0.293,1.185,0.305,1.734c5.133,7.216,9.688,14.858,15.127,21.873c5.447,7.024,11.369,13.659,17.893,19.705
				c12.697,11.769,27.05,21.572,42.809,28.784c43.734,20.016,96.494,22.79,140.807,3.058c43.604-19.417,77.438-58.995,87.494-105.97
				C409.397,274.926,410.359,261.603,409.566,248.428z"/>
		</g>
	</g>
	<g>
		<g>
			<path d="M410.078,200.259c-7.977-20.168-20.131-38.72-35.903-54.149c-33.092-32.37-80.777-47.75-126.419-47.665
				c-45.67,0.084-91.094,17.451-123,50.493c-13.822,14.314-24.084,30.988-31.093,48.925c-1.276-0.308-2.71-0.099-4.124,0.898
				c-8.447,5.955-16.155,16.183-15.408,26.983c0.338,4.892,2.076,8.85,5.848,12.056c1.023,0.87,2.143,1.591,3.289,2.271
				c-2.987,25.688-0.514,52.191,6.834,76.95c-1.053,1.579-1.228,3.647,0.319,5.657c8.25,10.717,14.927,22.454,23.704,32.826
				c7.854,9.281,16.635,17.696,26.234,25.154c19.08,14.824,41.199,25.112,64.503,31.268c46.971,12.407,97.296,6.815,138.944-18.638
				c41.03-25.076,69.461-68.553,75.853-116.195c1.62-12.075,1.729-24.194,0.462-36.115c3.966-3.23,6.371-7.37,7.407-12.966
				C429.85,215.475,422.121,203.474,410.078,200.259z M121.941,169.537c27.738-38.056,73.614-57.848,119.82-59.959
				c45.693-2.087,93.255,13.597,126.205,45.828c13.357,13.066,23.619,28.624,30.648,45.5c-14.874,0.286-29.633-1.755-44.43-3.062
				c-13.341-1.179-26.814-1.265-40.204-1.42c-11.999-0.139-24.729,0.47-35.738,5.713c-4.517,2.151-8.478,4.906-11.462,8.96
				c-2.682,3.641-4.379,8.546-7.974,11.425c-8.368,6.702-19.54-7.842-25.7-11.86c-10.885-7.099-25.778-7.888-38.355-8.539
				c-14.408-0.746-28.967-1.438-43.389-1.567c-15.636-0.14-31.262,0.653-46.898,0.529
				C108.934,190.042,114.721,179.443,121.941,169.537z M406.605,287.968c-10.057,46.975-43.891,86.553-87.494,105.97
				c-44.312,19.732-97.072,16.958-140.807-3.058c-15.759-7.212-30.111-17.015-42.809-28.784
				c-6.523-6.046-12.445-12.681-17.893-19.705c-5.439-7.015-9.994-14.656-15.127-21.873c-0.012-0.55-0.105-1.129-0.305-1.734
				c-7.391-22.474-10.469-46.197-8.781-69.429c1.393,3.393,1.764,7.329,2.145,10.826c0.607,5.582,1.746,11.038,2.538,16.597
				c1.583,11.115,2.912,22.158,8.554,32.079c12.649,22.24,42.691,22.864,64.979,23.747c8.352,0.331,16.855,1.737,25.422,2.324
				c6.934,0.476,15.473,1.016,21.48-3.101c1.142-0.15,2.273-0.726,3.24-1.875c9.203-10.947,13.466-23.876,15.857-37.786
				c1.117-6.494,1.789-13.054,3.221-19.489c0.973-4.366,1.996-9.286,4.797-12.895c2.445-3.154,6.516-0.708,8.558,1.755
				c3.415,4.117,4.526,10.014,5.45,15.129c2.684,14.886,4.771,29.549,8.724,44.204c-0.669,1.832-0.36,3.955,1.63,5.583
				c13.526,11.07,30.949,15.186,48.123,15.497c9.573,0.173,19.219-0.593,28.744-1.451c4.92-0.443,9.686-1.066,14.514-2.099
				c4.229-0.904,8.846-2.202,13.201-1.68c3.408,0.409,5.662-1.942,6.268-4.559c8.656-7.627,10.756-19.354,11.926-30.521
				c1.523-14.551,3.6-28.768,9.375-42.258c1.807-4.218,4.273-7.92,7.432-10.955C410.359,261.603,409.397,274.926,406.605,287.968z
				 M412.029,233.351c-1.059,0.692-2.079,1.337-3.071,1.971h-0.767c0.022,0.15,0.041,0.301,0.062,0.452
				c-3.286,2.119-6.236,4.2-9.002,7.575c-4.087,4.984-7.07,10.855-9.561,16.762c-4.588,10.875-6.174,23.834-7.342,35.511
				c-0.967,9.679-1.061,22.878-9.811,29.141c-0.43,0.308-0.787,0.646-1.088,1.002c-6.15,0.293-12.141,2.107-18.26,3.073
				c-9.268,1.462-19.021,1.82-28.391,1.99c-16.023,0.289-32.613-1.494-45.799-11.296c0.051-0.636-0.002-1.313-0.195-2.027
				c-2.447-9.022-4.725-18.07-6.091-27.327c-1.018-6.892-1.868-13.76-3.37-20.577c-2.609-11.845-11.41-25.306-25.402-21.695
				c-10.602,2.736-13.578,18.981-14.979,27.992c-2.499,16.062-4.142,32.253-14.386,45.398c-0.732,0.274-1.443,0.724-2.096,1.396
				c-1.319,1.361-4.82,1.354-6.711,1.473c-3.832,0.243-7.688-0.071-11.5-0.43c-7.365-0.694-14.629-1.702-22.025-2.037
				c-19.834-0.898-45.923-0.394-57.174-20.176c-4.523-7.955-4.968-18.14-6.229-26.99c-0.656-4.612-1.721-9.135-2.193-13.77
				c-0.533-5.248-1.203-10.5-3.082-15.459c-1.518-4.002-4.31-7.58-7.608-10.271c-2.932-2.392-6.594-3.685-9.468-6.128
				c-2.699-2.294-1.338-7.232-0.164-9.924c1.304-2.99,3.359-5.752,5.76-8.085c0.814,0.527,1.797,0.869,2.951,0.915
				c16.428,0.654,32.855-0.077,49.285-0.262c14.846-0.167,29.661,0.899,44.5,1.299c12.242,0.331,28.753,0.184,39.206,7.588
				c8.99,6.368,15.564,15.027,27.646,14.544c11.414-0.456,14.69-10.91,20.735-18.387c6.933-8.574,22.368-8.901,32.312-9.164
				c13.102-0.346,26.57-0.025,39.637,0.915c15.454,1.111,30.795,3.364,46.312,3.592c2.457,0.036,4.913-0.033,7.368-0.126
				c1.505-0.057,2.65-0.598,3.453-1.411c0.332,0.133,0.688,0.246,1.074,0.325C416.607,212.769,421.3,227.287,412.029,233.351z"/>
		</g>
	</g>
	<g>
		<g>
			<path d="M207.228,224.397c-11.998-6.513-26.786-5.946-39.968-5.682c-17.705,0.354-35.354,2.06-53.068,2.121
				c-3.09,0.011-4.666,2.101-4.877,4.453c-0.234,0.708-0.316,1.525-0.184,2.455c1.918,13.481,3.781,26.969,7.166,40.179
				c3.01,11.749,7.693,24.672,16.078,33.72c14.875,16.053,40.062,18.956,60.664,16.163c22.746-3.083,26.416-26.59,30.474-45.229
				C227.512,254.204,225.211,234.161,207.228,224.397z M210.742,279.794c-1.84,8.553-3.982,19.174-11.553,24.602
				c-3.713,2.662-8.752,2.75-13.133,3.095c-5.629,0.443-11.268,0.258-16.863-0.456c-10.625-1.354-21.041-5.034-28.707-12.738
				c-8.676-8.721-12.283-23.297-14.994-34.856c-2.139-9.116-3.424-18.428-4.715-27.707c13.891-0.286,27.753-1.343,41.635-1.877
				c12.463-0.48,26.256-1.565,38.006,3.47C219.477,241.493,214.174,263.836,210.742,279.794z"/>
		</g>
	</g>
	<g>
		<g>
			<path d="M388.295,230.686c0.969-2.418,0.555-5.535-2.232-7.292c-3.008-1.895-8.091-1.625-11.471-1.891
				c-5.082-0.401-10.176-0.647-15.275-0.678c-13.008-0.078-26.008-1.03-39.025-1.143c-16.593-0.143-44.315,0.65-48.074,21.589
				c-0.176,0.978-0.107,1.856,0.131,2.631c-0.045,0.122-0.092,0.241-0.131,0.369c-3.061,10.213-1.332,21.22,0.893,31.423
				c1.844,8.459,2.227,16.851,5.689,24.945c3.268,7.637,8.951,13.885,16.799,16.863c5.305,2.012,10.904,2.294,16.518,2.205
				c6.922-0.111,13.723-0.07,20.625,0.616c10.316,1.025,19.846,1.238,28.598-5.116c6.602-4.793,9.99-12.375,12.047-20.021
				c2.422-9.008,2.523-18.375,5.223-27.346c3.391-11.263,8.744-21.7,10.406-33.469C389.219,232.919,388.912,231.681,388.295,230.686
				z M369.871,259.606c-2.988,8.261-4.377,16.43-5.641,25.07c-0.922,6.312-2.185,13.093-6.071,18.328
				c-5.671,7.637-14.761,7.391-23.321,6.521c-4.768-0.484-9.553-0.721-14.338-0.963c-5.693-0.288-11.312,0.587-16.989-0.246
				c-7.224-1.06-12.033-5.948-14.808-12.431c-2.826-6.608-3.709-13.921-4.604-20.987c-1.232-9.743-4.02-18.733-1.086-28.527
				c0.35-1.167,0.313-2.191,0.014-3.057c1.333-7.208,8.768-9.552,15.094-11.021c8.357-1.939,17.365-1.728,25.888-1.606
				c11.438,0.162,22.847,0.777,34.28,1.077c4.36,0.115,8.695,0.153,13.051,0.453c2.174,0.149,4.344,0.343,6.51,0.577
				c0.091,0.01,0.181,0.025,0.271,0.036C376.705,242.177,373.07,250.764,369.871,259.606z"/>
		</g>
	</g>
	<g>
		<g>
			<path d="M276.459,36.371c-2.701-9.458-3.826-26.365-15.359-29.525c-6.156-1.687-11.412,4.79-14.461,9.014
				c-4.242,5.88-7.111,12.614-9.877,19.274c-2.864,6.899-6.137,13.245-9.716,19.797c-3.63,6.644-6.855,13.772-7.829,21.341
				c-0.305,2.366,0.729,4.174,2.263,5.263c0.962,1.329,2.494,2.271,4.56,2.271h53c2.266,0,4.74-2.165,4.975-4.436
				C285.544,64.555,280.469,50.409,276.459,36.371z M231.217,72.836c2.736-9.152,8.701-16.893,12.471-25.715
				c2.257-5.287,4.326-10.644,6.758-15.856c2.084-4.464,4.668-9.985,8.665-13.143c0.175,0.223,0.421,0.566,0.755,1.111
				c1.168,1.901,1.783,4.267,2.473,6.371c1.713,5.231,2.682,10.705,4.195,16.004c2.874,10.063,6.815,20.6,6.889,31.228H231.217z"/>
		</g>
	</g>
	<g>
		<g>
			<path d="M391.807,44.502c-1.01-2.888-4.156-4.281-7.01-3.373c-22.01,7.001-47.666,16.771-61.314,36.56
				c-1.131,1.64-1.276,3.403-0.814,4.955c-4.173,2.637-2.711,10.648,3.371,10.162c3.94-0.315,7.744,3.285,10.729,5.463
				c2.47,1.801,4.975,3.454,7.365,5.366c4.006,3.204,7.936,6.506,11.852,9.818c2.187,1.849,4.67,1.606,6.502,0.359
				c1.297,0.339,2.764,0.127,4.205-0.932c10.285-7.553,13.988-21.772,18.787-33.044C389.898,69.45,395.779,55.861,391.807,44.502z
				 M375.133,76.097c-1.891,4.44-3.795,8.845-5.604,13.319c-1.964,4.854-4.271,10.54-8.467,13.931
				c-3.889-3.278-7.8-6.536-11.805-9.669c-4.66-3.645-10.199-8.327-16.172-10.571c11.585-15.306,31.051-23.524,49.133-29.571
				C382.123,61.163,377.758,69.928,375.133,76.097z"/>
		</g>
	</g>
	<g>
		<g>
			<path d="M471.807,122.502c-0.881-2.507-3.707-4.164-5.923-5.336c-9.554-5.057-22.707-2.81-32.761-0.87
				c-10.305,1.988-20.609,4.839-30.326,8.834c-2.41,0.991-3.439,3.033-3.451,5.08c-3.924-2.364-10.045,2.909-7.29,8.187
				c3.325,6.368,8.157,12.039,12.266,17.906c2.399,3.426,4.707,6.917,6.767,10.558c0.687,1.214,1.252,2.469,1.762,3.766
				c0.35,0.888,0.35,2.678,0.838,1.247c-0.24,0.706-0.338,1.391-0.326,2.047c-0.293,0.256-0.59,0.51-0.879,0.769
				c-5.297,4.725,3.046,11.918,8.266,7.263c12.547-11.194,25.668-21.271,37.077-33.689c4.745-5.165,9.493-10.629,12.462-17.045
				C471.408,128.795,472.74,125.159,471.807,122.502z M443.482,147.69c-5.943,6.826-13.307,12.586-20.547,18.342
				c-1.624-4.3-4.471-8.388-6.812-11.948c-4.06-6.167-9.006-11.944-12.895-18.265c0.945,0.237,2.025,0.178,3.205-0.307
				c9.215-3.788,18.984-6.597,28.758-8.482c6.686-1.29,18.068-3.85,25.127-0.381C457.33,134.771,448.852,141.524,443.482,147.69z"/>
		</g>
	</g>
	<g>
		<g>
			<path d="M511.625,242.629c-2.486-4.163-8.207-6.462-12.443-8.239c-6.691-2.805-13.73-4.868-20.721-6.776
				c-11.255-3.071-23.507-6.605-35.27-6.778c-2.881-0.042-4.443,1.746-4.811,3.891c-1.76,0.883-3.15,2.58-3.25,5.018
				c-0.629,15.446,8.742,31.967,3.557,47.129c-1.836,5.37,4.279,9.645,7.879,7.506c0.311,0.135,0.641,0.252,1,0.34
				c7.498,1.83,15.471-3.639,21.673-7.117c5.566-3.122,11.56-5.157,17.437-7.615C495.528,266.285,519.711,256.17,511.625,242.629z
				 M501.711,248.237c-0.463,0.896-1.48,1.743-2.242,2.381c-5.048,4.23-11.428,6.894-17.442,9.41
				c-4.942,2.067-10.096,3.734-14.847,6.226c-3.268,1.713-6.445,3.587-9.711,5.305c-1.951,1.027-4.779,2.655-7.152,2.461
				c1.775-14.143-3.975-27.655-4.246-42.007c0.261,0.033,0.521,0.058,0.781,0.092c2.23,0.292,4.449,0.684,6.661,1.086
				c5.898,1.073,11.752,2.4,17.569,3.846c9.621,2.391,22.124,5.156,29.897,10.466c0.325,0.222,0.582,0.429,0.784,0.607
				C501.746,248.154,501.73,248.198,501.711,248.237z"/>
		</g>
	</g>
	<g>
		<g>
			<path d="M194.246,82.189c-10.877-8.781-20.775-18.712-29.928-29.271c-6.119-7.062-14.332-16.812-24.825-13.794
				c-11.952,3.438-9.833,20.55-8.464,29.586c0.844,5.565,1.75,11.14,2.693,16.689c1.221,7.187,2.828,14.76,0.494,21.873
				c-1.803,5.49,5.073,7.841,8.85,4.909c2.038,2.175,5.447,2.857,7.682-0.229c8.887-12.282,25.553-18.916,40.291-20.146
				C195.627,91.423,198.031,85.245,194.246,82.189z M146.492,99.937c0.152-7.764-1.803-15.839-2.997-23.224
				c-0.839-5.188-1.835-10.336-2.352-15.571c-0.312-3.157-1.187-9.133,1.706-11.456c3.369-2.706,13.734,10.987,15.681,13.201
				c6.158,7.003,12.676,13.701,19.588,19.96C166.37,85.738,154.699,91.427,146.492,99.937z"/>
		</g>
	</g>
	<g>
		<g>
			<path d="M112.852,133.187c-0.355-2.625-2.308-5.208-5.66-5.35c-8.068-0.341-16.316-4.966-23.968-7.439
				c-6.874-2.222-13.995-3.904-21.188-4.623c-10.128-1.013-22.922,1.715-22.344,14.318c0.457,9.995,8.971,19.717,14.811,27.165
				c3.512,4.479,7.165,8.844,10.678,13.322c2.343,2.987,5.427,6.89,6.244,9.562c1.727,5.645,9.199,4.068,10.467-0.525
				c0.178-0.027,0.359-0.059,0.543-0.103c2.574-0.611,4.551-3.487,6.076-5.44c2.703-3.459,5.149-7.129,7.594-10.773
				c4.664-6.955,9.217-17.091,16.588-21.418C116.486,139.652,115.556,135.317,112.852,133.187z M89.323,153.763
				c-2.18,3.352-4.427,6.659-6.751,9.912c-1.078,1.509-2.194,2.991-3.356,4.437c-0.319,0.396-0.66,0.773-1.001,1.15
				c-2.97-4.472-6.901-8.592-10.019-12.442c-6.048-7.47-13.157-15.296-16.712-24.352c-0.561-1.424-0.783-2.33-0.852-3.823
				c-0.014-0.319,0.354-0.797,0.354-0.797c3.658-2.865,11.115-1.125,15.42-0.375c5.751,1.003,11.5,2.54,17,4.495
				c5.652,2.01,11.258,4.385,17.083,5.75C96.057,142.44,92.74,148.509,89.323,153.763z"/>
		</g>
	</g>
	<g>
		<g>
			<path d="M64.1,215.898c-0.198-5.125-5.986-6.096-9.074-3.565c-1.217-1.902-3.459-3.118-6.229-2.203
				c-8.105,2.677-16.244,5.184-24.191,8.319c-8.344,3.292-19.26,7.375-24.231,15.391c-2.114,3.41-2.222,7.919-0.017,11.344
				c3.281,5.093,9.312,6.438,13.627,10.27c6.281,5.579,12.254,11.416,18.531,16.969c5.615,4.968,11.762,8.89,19.523,8.384
				c3.186-0.208,5.025-2.941,5.061-5.908C57.341,254.991,64.879,235.926,64.1,215.898z M46.482,268.976
				c-3.848-1.624-7.092-5.178-10.11-7.828c-5.175-4.542-9.701-9.613-15.126-13.958c-3.6-2.883-8.059-4.587-11.482-7.655
				c0.256-0.487,0.729-1.076,1.438-1.687c5.906-5.093,13.962-7.898,21.148-10.595c6.618-2.482,13.377-4.524,20.084-6.74
				c0.266-0.088,0.511-0.193,0.745-0.305C53.063,236.633,47.89,252.615,46.482,268.976z"/>
		</g>
	</g>
	<g>
		<g>
			<path d="M90.141,341.202c-6.703-7.87-10.807-17.492-17.895-25.013c-1.238-1.314-2.627-1.754-3.932-1.6
				c-2.088-1.67-5.326-2.179-7.832,0.101c-7.717,7.024-10.316,18.755-13.795,28.184c-4.113,11.15-10.354,22.653-9.557,34.871
				c0.149,2.302,2.051,4.694,4.436,4.976c17.852,2.108,36.773-2.649,52.125-11.839c3.041-1.821,3.027-4.996,1.496-7.272
				c2.508,0.199,5.135-1.079,5.826-4.238C102.409,353.001,93.752,345.441,90.141,341.202z M87.539,361.762
				c-11.415,6.834-25.761,10.983-39.299,10.494c0.959-8.465,5.58-16.605,8.303-24.487c2.437-7.059,4.592-16.058,9.229-22.437
				c5.419,6.174,8.511,14.106,13.866,20.4c2.178,2.561,4.363,5.114,6.484,7.723c1.062,1.307,2.084,2.643,3.068,4.009
				c0.625,0.868,0.834,1.405,0.891,1.597c-0.035-0.199-0.086-0.781,0.135-1.789c-0.316,1.445-0.094,2.676,0.465,3.663
				C89.675,360.884,88.605,361.123,87.539,361.762z"/>
		</g>
	</g>
	<g>
		<g>
			<path d="M473.142,370.643c-2.278-9.319-6.255-18.085-9.335-27.14c-2.439-7.174-5.613-14.055-10.855-19.633
				c-5.254-5.591-12.285-5.37-17.543-1.164c-3.017-0.435-5.895,2.359-6.117,5.47c-0.16,0.316-0.332,0.627-0.502,0.933
				c-0.797,1.433-1.745,2.776-2.686,4.116c-2.773,3.952-5.688,7.805-8.526,11.709c-4.497,6.185-11.599,14.054-12.56,21.986
				c-1.218,10.059,13.974,13.415,21.031,15.848c5.098,1.756,10.133,3.38,15.045,5.624c8.51,3.886,16.512,8.48,25.473,11.328
				c2.341,0.744,4.924-0.975,5.977-2.952C476.852,388.674,475.217,379.132,473.142,370.643z M464.156,387.269
				c-6.221-2.517-12.121-5.867-18.168-8.731c-4.867-2.305-9.96-3.889-15.045-5.624c-4.877-1.664-9.799-3.376-14.377-5.762
				c-0.08-0.042-0.145-0.075-0.215-0.112c0.259-0.576,0.607-1.233,1.031-2.04c4.191-7.993,10.184-15.092,15.457-22.375
				c1.492-2.061,3.887-4.894,5.549-7.889c0.844-0.294,1.654-0.864,2.359-1.783c0.967-1.262,1.748-3.018,3.363-2.204
				c2.163,1.09,3.692,4.086,4.876,6.046c2.656,4.398,4.015,9.325,5.773,14.105c2.532,6.885,5.238,13.688,7.288,20.74
				C463.418,376.35,464.93,382.119,464.156,387.269z"/>
		</g>
	</g>
	<g>
		<g>
			<path d="M391.1,390.898c-0.454-5.168-6.207-6.236-9.617-3.208c-11.336,10.069-25.686,16.93-39.516,22.932
				c-1.094-0.089-2.271,0.232-3.428,1.14c-13.887,10.896-1.841,28.989,6.334,39.771c4.875,6.431,11.314,11.782,16.709,17.787
				c5.395,6.006,10.955,10.53,18.984,12.4c2.658,0.619,6.244-1.427,6.447-4.35c0.967-13.828,0.133-27.633,0.086-41.473
				c-0.025-7.8,0.168-15.516,1.496-23.22C389.855,405.371,391.76,398.387,391.1,390.898z M377.48,412.426
				c-1.162,6.743-1.293,13.676-1.344,20.5c-0.088,11.756,0.693,23.545,0.393,35.303c-2.5-1.659-4.649-3.818-6.816-6.205
				c-4.019-4.428-8.09-8.754-12.342-12.96c-4.426-4.378-7.316-9.715-10.493-15.006c-1.924-3.205-5.759-8.847-3.021-12.33
				c0.189-0.061,0.381-0.132,0.576-0.216c12.024-5.189,24.061-10.941,34.877-18.41C378.738,406.21,378.018,409.305,377.48,412.426z"
				/>
		</g>
	</g>
	<g>
		<g>
			<path d="M310.1,431.898c-0.141-2.816-3-5.522-5.908-5.062c-17.164,2.718-34.273,5.448-51.65,5.924
				c-0.885-0.612-2.004-0.971-3.35-0.924c-17.477,0.616-13.926,19.005-8.592,29.885c4.121,8.407,10.475,14.763,16.361,21.924
				c6.424,7.815,10.049,17.426,17.023,24.808c2.908,3.079,8.355,0.76,9.029-3.083c2.446-13.922,7.223-27.2,14.593-39.242
				C303.857,455.914,310.721,444.304,310.1,431.898z M286.314,463.578c-5.117,8.324-8.824,17.846-11.409,27.507
				c-1.882-3.308-3.657-6.693-5.868-9.75c-4.971-6.874-11.312-12.637-16.023-19.702c-2.516-3.772-4.318-8.171-5.605-12.495
				c-0.763-2.565-1.235-4.537-0.057-5.56c0.516,0.147,1.077,0.231,1.688,0.228c16.708-0.08,33.145-2.413,49.596-4.99
				C296.844,447.695,290.788,456.303,286.314,463.578z"/>
		</g>
	</g>
	<g>
		<g>
			<path d="M193.661,432.049c-1.698-5.938-8.039-9.28-12.812-12.362c-5.959-3.847-11.904-7.708-18.023-11.297
				c-4.725-2.77-10.377-6.583-15.831-7.569c-2.018-0.365-4.079-0.863-6.084-1.446c-0.378-0.186-0.792-0.341-1.247-0.453
				c-0.232-0.058-0.602-0.178-0.865-0.199c-5.192-0.415-7.502,4.321-5.781,7.783c-2.507,1.409-3.123,4.139-2.445,6.455v0.009
				c0.041,0.802-0.031,1.618-0.083,2.418c-0.138,2.118-0.314,4.234-0.358,6.357c-0.142,6.657,0.012,13.409,1,20
				c1.951,13.031,2.882,25.835,7.293,38.396c0.972,2.767,4.208,4.444,7.01,3.373c12.613-4.822,22.895-13.248,32.402-22.635
				C185.58,453.232,197.188,444.384,193.661,432.049z M169.572,453.615c-6.876,6.658-14.053,12.887-22.541,17.183
				c-3.006-10.864-4.044-22.046-5.383-33.266c-0.693-5.81-0.873-12.025-0.512-17.865c0.164-2.643,0.816-5.878,0.305-8.689
				c3.481,1.038,6.811,2.059,10.33,3.862c5.275,2.704,10.326,5.846,15.336,9.006c4.893,3.086,10.234,6.018,14.645,9.765
				C188.162,439.057,173.008,450.288,169.572,453.615z"/>
		</g>
	</g>
</g>
</svg>
