<?xml version="1.0" encoding="utf-8"?>
<!-- Generator: Adobe Illustrator 16.0.3, SVG Export Plug-In . SVG Version: 6.00 Build 0)  -->
<!DOCTYPE svg PUBLIC "-//W3C//DTD SVG 1.1//EN" "http://www.w3.org/Graphics/SVG/1.1/DTD/svg11.dtd">
<svg version="1.1" id="Layer_1" xmlns="http://www.w3.org/2000/svg" xmlns:xlink="http://www.w3.org/1999/xlink" x="0px" y="0px"
	 width="512px" height="512px" viewBox="0 0 512 512" style="enable-background:new 0 0 512 512;" xml:space="preserve">
<style type="text/css">
<![CDATA[
	.st0{fill:#127274;}
	.st1{fill:#14B6B9;}
	.st2{fill:#EF4823;}
	.st3{fill:#BCBCBC;}
	.st4{fill:#F6851F;}
	.st5{fill:#C56528;}
	.st6{fill:#FEBF10;}
	.st7{fill:none;}
	.st8{fill:#010101;}
	.st9{fill:#3AB37C;}
	.st10{fill:#D6E5E5;}
	.st11{fill:#71C598;}
	.st12{fill:#74CCCF;}
]]>
</style>
<g>
	<g>
		<g>
			<path class="st12" d="M291.781,119.057c-0.008-0.01-0.016-0.021-0.024-0.033v0.007c0.032,0.062,0.068,0.138,0.117,0.247
				C291.855,119.196,291.812,119.132,291.781,119.057z"/>
		</g>
	</g>
	<g>
		<g>
			<path class="st12" d="M291.756,118.996c-0.101-0.22-0.236-0.416-0.447-0.562c0.121,0.14,0.22,0.291,0.331,0.437
				c0.018-0.002,0.053,0.041,0.106,0.14c0.004,0.005,0.008,0.009,0.012,0.014C291.757,119.015,291.756,119.007,291.756,118.996z"/>
		</g>
	</g>
	<g>
		<g>
			<path class="st12" d="M470.801,131.273c-3.343-3.316-7.268-6.037-11.284-8.475c-6.922-4.202-14.528-8.32-22.453-10.261
				c-3.902-0.956-5.033-6.926-1.87-9.322c7.375-5.586,15.053-11.167,21.365-17.98c3.084-3.33,9.21-11.321,5.216-16.169
				c-4.766-5.784-13.062,0.164-17.411,3.55c-6.572,5.12-12.488,11.018-19.076,16.114c-0.603,0.467-1.227,0.779-1.853,0.975
				c-2.719,3.167-8.911,3.008-9.593-2.258c-1.157-8.937-2.073-18.684-6.235-26.822c-2.965-5.798-9.812-12.432-16.917-8.976
				c-18.676,9.085-3.067,30.382,2.018,42.929c0.814,1.721,0.741,3.887-0.281,5.584c-0.008,0.012-0.014,0.025-0.022,0.037
				c-0.958,1.591-3.128,2.692-4.983,2.445c-0.1-0.013-0.198-0.026-0.296-0.039c-0.439-0.007-0.873-0.069-1.29-0.198
				c-0.684-0.149-1.285-0.398-1.805-0.727c-6.732-2.214-13.214-5.483-19.959-7.708c-7.55-2.492-15.177-4.722-22.71-7.278
				c-15.675-5.321-31.219-11.024-46.925-16.259c-1.093-0.365-1.91-0.945-2.491-1.649c-3.309-0.356-6.659-3.912-5.077-8.066
				c3.776-9.922-9.76-23.656-19.413-23.058c-6.672,0.414-12.006,8.271-15.111,13.465c-3.932,6.579-7.959,14.942-5.809,22.777
				c0.636,2.316-0.158,4.228-1.554,5.473c-0.295,1.726-1.448,3.259-3.708,3.854c-17.807,4.689-36.508,3.736-54.419,7.919
				c-8.581,2.004-17.301,4.196-26.17,4.225c-5.107,0.016-13.181-1.43-17.418,2.022c-3.025,2.466-6.168,0.75-7.476-2.027
				c-0.828-0.08-1.697-0.266-2.621-0.598c-5.585-2.014-2.936-9.177,1.93-10.078c0.102-0.142,0.219-0.349,0.471-0.843
				c0.767-1.504,1.422-3.051,1.909-4.669c1.473-4.892,2.481-9.942,3.028-15.022c0.495-4.577,0.754-9.409-0.036-13.971
				c-0.331-1.91-1.801-4.473-3.444-4.442c-2.156,0.041-4.688,2.363-6.619,4.819c-2.909,3.703-5.16,7.915-7.12,12.186
				c-3.377,7.36-6.591,15.388-7.608,23.485c-0.5,3.987-6.3,5.797-9.043,2.931c-6.398-6.683-12.826-13.668-20.32-19.153
				c-3.664-2.682-12.307-7.845-16.663-3.319c-5.197,5.399,1.666,12.957,5.531,16.886c5.842,5.939,12.382,11.137,18.203,17.094
				c0.534,0.546,0.916,1.129,1.182,1.729c3.459,2.336,4.014,8.505-1.139,9.789c-8.743,2.177-18.321,4.211-25.924,9.282
				c-5.42,3.613-11.221,11.179-6.969,17.838c11.174,17.506,30.533-0.451,42.411-6.947c1.615-1.006,3.775-1.183,5.58-0.363
				c0.012,0.006,0.025,0.012,0.039,0.019c1.691,0.768,3.034,2.797,3.003,4.669c-0.001,0.1-0.003,0.199-0.005,0.298
				c0.042,0.437,0.031,0.875-0.048,1.304c-0.069,0.697-0.248,1.322-0.515,1.877c-1.425,6.942-3.925,13.757-5.359,20.713
				c-1.605,7.787-2.944,15.62-4.615,23.396c-3.481,16.184-7.358,32.282-10.75,48.486c-0.545,2.607-2.4,3.907-4.426,4.147
				c-1.439,1.958-4.005,3.166-6.849,1.991c-6.907-2.852-16.861-2.42-24.417-1.482c-5.558,0.69-18.294,2.431-19.275,9.754
				c-0.963,7.189,10.919,12.252,16.24,14.479c5.859,2.454,17.694,7.173,23.365,3.004c2.597-1.909,5.229-1.036,6.803,0.873
				c2.813-0.869,6.163,0.204,6.792,3.945c3.059,18.157,0.419,36.695,2.966,54.912c1.22,8.728,2.614,17.609,1.839,26.444
				c-0.445,5.088-2.616,12.999,0.439,17.53c2.183,3.237,0.188,6.21-2.695,7.263c-0.155,0.817-0.417,1.666-0.832,2.555
				c-2.511,5.38-9.406,2.094-9.861-2.833c-0.132-0.115-0.329-0.25-0.797-0.546c-1.429-0.898-2.911-1.692-4.478-2.324
				c-4.738-1.909-9.677-3.37-14.687-4.375c-4.514-0.905-9.304-1.601-13.918-1.228c-1.931,0.157-4.617,1.388-4.734,3.028
				c-0.155,2.151,1.928,4.882,4.201,7.027c3.423,3.232,7.415,5.855,11.492,8.192c7.023,4.029,14.729,7.956,22.7,9.701
				c3.925,0.859,5.203,6.798,2.1,9.272c-7.234,5.768-14.772,11.537-20.912,18.505c-3.001,3.406-8.927,11.546-4.813,16.293
				c4.908,5.665,13.055-0.487,17.317-3.98c6.444-5.281,12.211-11.325,18.67-16.583c0.592-0.481,1.208-0.809,1.828-1.021
				c2.64-3.233,8.834-3.227,9.646,2.021c1.377,8.904,2.536,18.626,6.899,26.659c3.108,5.724,10.118,12.185,17.134,8.553
				c18.445-9.545,2.312-30.45-3.082-42.864c-0.856-1.7-0.837-3.868,0.143-5.591c0.007-0.011,0.014-0.024,0.022-0.037
				c0.918-1.614,3.061-2.769,4.922-2.568c0.1,0.011,0.198,0.021,0.297,0.032c0.439-0.004,0.874,0.048,1.294,0.165
				c0.688,0.133,1.294,0.367,1.823,0.683c6.785,2.046,13.345,5.153,20.142,7.209c7.611,2.305,15.29,4.344,22.883,6.713
				c15.803,4.931,31.484,10.247,47.315,15.09c1.78,0.545,2.86,1.67,3.373,2.994c0.56,0.364,1.084,0.849,1.542,1.484
				c5.621,7.783,6.302,17.358,8.628,26.367c2.158,8.353,7.84,17.154,18.192,13.919c8.148-2.545,13.327-11.647,15.672-19.354
				c2.39-7.849,4.115-17.823-0.596-25.176c-2.453-3.829,0.469-7.642,3.89-8.317c-1.486-2.837-0.83-6.774,3.177-7.723
				c17.917-4.246,36.589-2.83,54.599-6.568c8.628-1.792,17.399-3.766,26.266-3.574c5.107,0.111,13.142,1.757,17.464-1.59
				c3.086-2.391,6.185-0.597,7.423,2.212c0.825,0.101,1.689,0.308,2.604,0.663c5.533,2.151,2.708,9.247-2.18,10.026
				c-0.105,0.139-0.227,0.343-0.491,0.831c-0.804,1.485-1.498,3.016-2.025,4.62c-1.594,4.854-2.727,9.877-3.4,14.942
				c-0.607,4.563-0.987,9.388-0.311,13.968c0.283,1.917,1.688,4.516,3.332,4.525c2.157,0.013,4.746-2.245,6.737-4.652
				c3.001-3.63,5.354-7.785,7.42-12.006c3.559-7.273,6.97-15.22,8.188-23.289c0.599-3.973,6.442-5.638,9.114-2.705
				c6.23,6.84,12.483,13.982,19.839,19.651c3.595,2.772,12.108,8.149,16.575,3.732c5.33-5.27-1.343-12.995-5.11-17.019
				c-5.693-6.083-12.101-11.44-17.773-17.54c-0.519-0.559-0.887-1.151-1.138-1.757c-3.4-2.421-3.802-8.603,1.381-9.757
				c8.795-1.96,18.42-3.755,26.147-8.636c5.507-3.478,11.494-10.897,7.409-17.66c-10.735-17.778-30.536-0.307-42.569,5.893
				c-1.64,0.965-3.805,1.088-5.588,0.224c-0.012-0.006-0.025-0.012-0.039-0.019c-1.67-0.811-2.963-2.873-2.886-4.743
				c0.005-0.1,0.009-0.199,0.013-0.298c-0.033-0.438-0.01-0.875,0.08-1.303c0.086-0.694,0.281-1.316,0.561-1.863
				c1.596-6.905,4.266-13.655,5.871-20.573c1.799-7.745,3.33-15.542,5.195-23.275c3.881-16.092,8.156-32.088,11.948-48.203
				c0.745-3.162,3.385-4.328,5.875-4.005c0.461-0.163,0.962-0.279,1.514-0.325c6.686-0.557,27.609-2.823,26.514-13.056
				c-1.94-18.136-26.448-11.986-38.026-10.165c-5.984,0.942-7.145-6.971-3.01-9.96c-1.836-17.147,0.776-34.479-1.189-51.644
				c-1.004-8.755-2.177-17.668-1.184-26.482c0.571-5.076,2.938-12.929-0.004-17.536c-2.102-3.29-0.034-6.213,2.875-7.192
				c0.174-0.813,0.458-1.654,0.895-2.534c2.643-5.317,9.454-1.86,9.788,3.077c0.129,0.118,0.321,0.257,0.783,0.565
				c1.406,0.934,2.867,1.765,4.419,2.434c4.689,2.026,9.59,3.609,14.573,4.738c4.489,1.017,9.26,1.832,13.882,1.573
				c1.935-0.109,4.65-1.274,4.809-2.91C475.033,136.257,473.019,133.475,470.801,131.273z M384.98,151.691
				c2.809-2.126,6.931-1.708,8.585,1.696c3.524,7.25,2.814,15.185,2.961,23.008c0.152,8.113,3.474,16.01,3.855,24.132
				c0.246,5.229,0.417,10.466,0.958,15.676c0.304,2.938,0.618,5.913,1.301,8.793c0.213,0.9,0.381,1.836,0.79,2.675
				c0.108,0.223,0.173,0.358,0.219,0.456c3.988,3.541,0.859,9.854-3.421,9.904c-1.734,1.396-4.197,1.867-6.414,0.337
				c-0.038-0.011-0.072-0.02-0.116-0.032c-0.34-0.07-1.619-0.287-1.542-0.282c-1.713-0.111-3.434-0.144-5.15-0.054
				c-1.764,0.092-3.63,0.171-5.336,0.548c-0.831,0.184-1.672,0.366-2.473,0.659c-0.158,0.058-0.269,0.096-0.359,0.125
				c-0.046,0.029-0.095,0.058-0.159,0.094c-0.382,0.222-0.763,0.394-1.141,0.52c-1.613,1.723-4.14,2.404-6.586,0.514
				c-4.056-3.135-5.325-8.492-6.18-13.314c-1.228-6.926-1.746-13.973-2.193-20.985c-0.458-7.166-0.75-14.343-1.302-21.501
				c-0.197-2.571-0.383-5.161-0.806-7.708c-0.074-0.449-0.152-0.9-0.243-1.349c-3.424-3.425,0.033-10.821,5.851-9.086
				c0.135,0.04,0.255,0.098,0.383,0.146c0.301-0.822,0.869-1.608,1.775-2.294L384.98,151.691z M281.831,112.373
				c0.639-1.954,1.797-4.956,2.124-5.988c0.15-0.473,0.292-0.956,0.414-1.442c-1.105-2.328,0.069-5.465,2.144-6.8
				c0.854-0.548,1.734-0.794,2.601-0.836c0.617-3.443,4.573-6.475,8.49-4.052c20.346,12.582,44.114,22.519,67.883,25.976
				c5.667,0.824,6.648,7.498,2.021,10.424c-8.192,5.181-11.694,15.727-21.718,18.361c-0.216,0.057-0.427,0.1-0.634,0.133
				c-1.232,1.195-3.034,1.678-5.163,0.679c-8.911-4.184-18.722-5.488-28.118-8.16c-9.058-2.576-17.521-6.88-26.562-9.392
				c-3.692-1.024-4.345-4.515-3.101-7.222C280.35,120.473,280.485,116.483,281.831,112.373z M310.812,202.83l19.931-15.09
				c2.688-2.036,7.105-1.813,8.586,1.695c5.843,13.844,4.958,28.897,6.061,43.574c0.246,3.288-2.774,6.673-5.812,6.745
				c-1.106,1.032-2.694,1.527-4.662,0.967c-7.682-2.188-15.817,0.752-22.793-4.519c-7.045-5.321-5.05-12.848-6.998-20.294
				c-0.938-3.587,1.511-6.207,4.309-6.889C308.359,207.06,308.465,204.607,310.812,202.83z M316.89,256.585
				c3.913-0.691,7.964,0.419,11.813,1.161c2.552,0.492,5.105,1.015,7.676,1.402c0.499,0.075,2.216,0.291,2.194,0.291
				c0.022,0.001,0.032,0.003,0.05,0.004c1.763-0.588,3.793-0.385,5.262,0.65c1.2-0.244,2.471-0.088,3.716,0.496
				c2.369,1.109,3.124,3.587,3.124,5.989c0,2.115-0.985,3.614-2.362,4.493c-0.222,0.618-0.441,1.237-0.67,1.852
				c-1.012,2.709-1.703,5.587-2.173,8.438c-1.181,7.178-1.39,14.457-2.165,21.682c-0.379,3.529-4.346,7.646-8.114,4.938
				c-8.281-5.95-15.981-12.762-22.9-20.256c-0.253-0.274-0.466-0.558-0.652-0.845c-0.275-0.149-0.549-0.316-0.817-0.521
				C300.748,278.664,303.225,258.997,316.89,256.585z M266.56,171.293c1.193-4.341,3.64-8.854,3.496-13.429
				c-0.132-4.139,3.57-6.023,6.713-5.458c1.384-1.099,3.263-1.359,5.062-1.195c2.106,0.192,3.509,1.308,4.261,2.758
				c0.596,0.277,1.191,0.552,1.784,0.835c2.607,1.251,5.41,2.201,8.208,2.926c7.04,1.825,14.272,2.693,21.396,4.117
				c3.48,0.697,7.221,5.02,4.184,8.527c-6.674,7.708-14.155,14.761-22.245,20.974c-1.651,1.269-3.45,1.443-5.025,0.956
				c-1.39,0.83-3.144,1.087-5.021,0.292c-3.724-1.578-8.074-0.545-11.969-1.348c-4.031-0.832-7.308-2.873-9.373-6.496
				C265.779,180.807,265.368,175.633,266.56,171.293z M253.231,169.75c0.155,0.361,0.28,0.761,0.366,1.205
				c1.448,7.385,5.595,18.81-1.306,24.843c-6.858,5.999-15.832,6.921-24.136,9.86c-3.212,1.136-5.632-0.7-6.543-3.176
				c-0.584-0.262-1.16-0.658-1.704-1.227l-17.285-18.061c-2.331-2.436-2.62-6.85,0.695-8.725
				c13.079-7.397,28.133-8.251,42.586-11.037C249.611,162.717,253.933,166.241,253.231,169.75z M211,223.049
				c-0.187,7.863-0.675,18.73-10.001,21.085c-7.043,1.779-14.637,1.339-21.763,0.24c-1.782-0.274-2.956-1.172-3.606-2.34
				c-0.13-0.048-0.259-0.084-0.389-0.141c-2.396-1.05-3.213-3.507-3.271-5.91c-0.052-2.114,0.896-3.637,2.25-4.549
				c0.206-0.624,0.41-1.248,0.624-1.868c0.944-2.734,1.564-5.627,1.962-8.49c1.003-7.204,1.031-14.487,1.627-21.728
				c0.291-3.538,4.155-7.751,7.989-5.138c8.424,5.742,16.292,12.362,23.395,19.682c2.081,2.144,1.967,4.847,0.775,6.872
				C210.87,221.411,211.02,222.172,211,223.049z M204.119,301.424l-19.551,15.581c-2.636,2.101-7.059,1.989-8.625-1.481
				c-6.185-13.695-5.673-28.765-7.139-43.411c-0.191-1.904,0.727-3.861,2.116-5.206c-0.536-2.465,0.47-5.051,3.705-5.667
				c6.254-1.189,12.675-1.084,18.907,0.296c4.87,1.079,6.804,2.985,8.8,7.338c3.105,6.769,6.291,15.194,6.454,22.732
				c0.053,2.429-1.206,4.082-2.89,4.92C206.336,298.174,205.919,299.99,204.119,301.424z M161.266,124.743
				c6.797-4.336,14.762-4.544,22.515-5.591c8.04-1.085,15.503-5.293,23.528-6.608c5.166-0.846,10.348-1.618,15.461-2.754
				c2.883-0.641,5.803-1.294,8.585-2.305c0.87-0.316,1.78-0.591,2.566-1.092c0.21-0.135,0.337-0.215,0.429-0.271
				c1.625-2.321,4.255-2.734,6.448-1.979c0.306-0.072,0.614-0.121,0.919-0.134c3.238-0.134,5.272,2.3,5.73,5.262
				c1.026,6.656-1.282,14.255,1.396,20.557c0.121,0.285,0.199,0.576,0.252,0.87c1.897,1.404,2.865,3.836,1.269,6.484
				c-2.647,4.39-7.822,6.268-12.514,7.671c-6.74,2.017-13.679,3.343-20.594,4.595c-7.064,1.279-14.161,2.396-21.209,3.768
				c-2.53,0.493-5.083,0.976-7.563,1.688c-0.438,0.125-0.876,0.255-1.312,0.397c-3.008,3.796-10.753,1.214-9.699-4.765
				c0.024-0.139,0.067-0.265,0.1-0.398c-0.849-0.204-1.697-0.678-2.482-1.499l-14.52-15.172
				C158.134,130.92,158.076,126.777,161.266,124.743z M112.334,227.591c0.07-0.199,0.151-0.401,0.246-0.603
				c10.156-21.659,17.292-46.413,17.989-70.422c0.166-5.726,6.683-7.468,10.122-3.209c6.09,7.541,16.968,9.807,20.739,19.46
				c0.082,0.208,0.149,0.413,0.206,0.614c1.329,1.087,2.017,2.821,1.269,5.05c-3.13,9.333-3.296,19.23-4.869,28.871
				c-1.516,9.293-4.817,18.196-6.271,27.467c-0.479,3.054-2.782,4.329-5.142,4.222c-1.098,1.119-2.729,1.649-4.777,0.974
				c-8.471-2.791-17.601-1.316-26.079-4.108C111.874,234.625,111.028,230.428,112.334,227.591z M131.243,354.387
				c-2.756,2.196-6.888,1.88-8.626-1.481c-3.704-7.161-3.19-15.112-3.531-22.928c-0.354-8.105-3.87-15.918-4.453-24.03
				c-0.375-5.22-0.676-10.452-1.345-15.648c-0.377-2.929-0.765-5.896-1.519-8.758c-0.237-0.894-0.427-1.826-0.857-2.654
				c-0.114-0.221-0.182-0.354-0.229-0.451c-2.994-2.527-2.184-6.646,0.152-8.715c1.585-5.425,9.751-6.006,14.332-6.485
				c3.732-0.39,10.483-1.8,13.939,0.31c0.346,0.211,0.65,0.444,0.926,0.691c0.969-0.012,2.002,0.303,3.032,1.06
				c4.133,3.034,5.534,8.357,6.508,13.156c1.4,6.894,2.092,13.925,2.714,20.925c0.635,7.152,1.106,14.321,1.834,21.463
				c0.262,2.565,0.512,5.15,0.997,7.686c0.084,0.447,0.175,0.896,0.276,1.342c3.508,3.34,0.236,10.819-5.625,9.229
				c-0.135-0.038-0.256-0.092-0.386-0.137c-0.28,0.828-0.829,1.629-1.717,2.337L131.243,354.387z M233.756,380.967
				c0.024,0.531-0.029,1.099-0.184,1.705c-1.69,6.605-1.62,13.746-1.067,20.498c0.286,3.494-2.253,5.372-4.965,5.527
				c-1.475,2.308-4.459,3.719-7.499,1.942c-20.651-12.073-44.659-21.418-68.506-24.284c-5.688-0.684-6.833-7.331-2.28-10.371
				c8.061-5.383,11.301-16.011,21.256-18.894c0.214-0.062,0.424-0.111,0.63-0.149c1.203-1.225,2.993-1.753,5.145-0.807
				c9.012,3.961,18.853,5.022,28.312,7.46c9.118,2.35,17.686,6.443,26.787,8.729C235.829,373.439,236.017,378.191,233.756,380.967z
				 M240.961,348.694c-0.112,0.299-0.247,0.596-0.409,0.89c-1.262,2.291-3.784,2.882-6.18,2.724
				c-2.111-0.14-3.542-1.221-4.329-2.652c-0.601-0.261-1.205-0.521-1.803-0.79c-2.639-1.188-5.464-2.066-8.278-2.723
				c-7.084-1.65-14.334-2.338-21.492-3.585c-3.497-0.61-7.343-4.839-4.395-8.421c6.481-7.871,13.785-15.108,21.718-21.52
				c2.157-1.743,4.624-1.559,6.494-0.429c6.645,0.475,14.689,3.827,18.156,9.219c1.802,2.803,0.63,7.402,0.661,10.557
				c0.029,3.05-0.261,6.779,1.732,9.3C245.198,344.251,243.611,347.333,240.961,348.694z M253.999,289.801
				c-4.76,0.826-10.172,1.11-14.412-1.609c-2.963-1.902-4.918-4.825-6.873-7.708c-1.365-0.499-2.558-1.553-3.199-3.287
				c-4.929-13.347-5.723-27.84-7.135-41.871c-0.324-3.223,1.792-5.062,4.254-5.447c12.375-12.742,34.245-14.662,50.865-16.162
				c1.929-0.174,3.819,0.962,4.861,2.521c6.898,10.327,4.016,23.662,6.175,35.271c1.723,9.261,5.117,22.732-3.833,29.461
				C276.304,287.285,264.01,288.063,253.999,289.801z M264.34,331.622c-5.219-10.503-7.953-23.571,3.162-31.477
				c8.481-6.033,21.731-10.649,30.482-2.623c0.318,0.29,0.586,0.594,0.814,0.907c1.076,0.1,2.165,0.609,3.141,1.68l16.832,18.484
				c2.269,2.493,2.449,6.913-0.912,8.705c-13.258,7.07-28.33,7.551-42.847,9.977c-2.416,0.403-5.042-0.988-6.382-2.966
				C266.981,334.415,265.35,333.654,264.34,331.622z M358.665,378.052c-6.903,4.166-14.87,4.176-22.646,5.03
				c-8.065,0.886-15.629,4.908-23.685,6.022c-5.186,0.718-10.385,1.361-15.526,2.371c-2.898,0.569-5.833,1.15-8.639,2.091
				c-0.876,0.293-1.794,0.546-2.593,1.029c-0.213,0.129-0.341,0.206-0.434,0.259c-2.117,2.871-5.754,2.679-8.065,0.967
				c-2.904,1.334-6.657,0.387-7.659-3.169c-1.048-3.717-1.273-7.712-1.646-11.54c-0.198-2.036-0.375-4.076-0.648-6.102
				c-0.152-1.134-0.093-0.906-0.225-1.439c-0.04-0.164-0.067-0.286-0.087-0.383c-2.04-3.031-0.38-6.069,2.241-7.374
				c0.062-0.77,0.323-1.581,0.851-2.407c2.755-4.323,7.977-6.071,12.701-7.359c6.787-1.85,13.757-3.002,20.701-4.083
				c7.095-1.104,14.216-2.044,21.295-3.24c2.542-0.43,5.106-0.85,7.604-1.5c0.44-0.115,0.883-0.234,1.321-0.364
				c3.102-3.721,10.78-0.946,9.579,5.005c-0.028,0.138-0.074,0.263-0.111,0.395c0.845,0.225,1.68,0.72,2.445,1.561l14.139,15.527
				C361.949,371.953,361.904,376.097,358.665,378.052z M410.069,277.33c-0.195,0.173-0.382,0.327-0.57,0.482
				c-10.495,21.22-18.08,45.487-19.357,69.187c-0.308,5.72-6.866,7.299-10.198,2.957c-5.901-7.69-16.72-10.225-20.25-19.969
				c-0.076-0.21-0.138-0.416-0.19-0.619c-1.301-1.119-1.945-2.871-1.143-5.081c3.36-9.252,3.772-19.142,5.583-28.74
				c1.746-9.255,5.267-18.072,6.95-27.304c0.756-4.148,4.823-4.906,7.741-3.385c2.118-0.088,4.39,0.538,6.334,0.956
				c5.585,1.201,13.361,3.702,19.363,2.594C408.961,267.552,414.648,273.261,410.069,277.33z"/>
		</g>
	</g>
	<g>
		<g>
			<path class="st12" d="M382.976,269.986c0.606,1.993,0.122,3.681-0.911,4.904C383.093,274.105,383.79,272.663,382.976,269.986z"/>
		</g>
	</g>
	<g>
		<g>
			<path d="M161.635,173.433c-0.057-0.201-0.124-0.407-0.206-0.614c-3.771-9.654-14.649-11.919-20.739-19.46
				c-3.439-4.259-9.956-2.517-10.122,3.209c-0.698,24.009-7.833,48.763-17.989,70.422c-0.095,0.202-0.176,0.403-0.246,0.603
				c-1.306,2.837-0.46,7.034,3.433,8.316c8.478,2.792,17.608,1.318,26.079,4.108c2.048,0.675,3.68,0.146,4.777-0.974
				c2.359,0.107,4.663-1.168,5.142-4.222c1.454-9.271,4.755-18.174,6.271-27.467c1.573-9.641,1.739-19.538,4.869-28.871
				C163.652,176.254,162.964,174.52,161.635,173.433z M147.287,205.018c-1.19,8.014-3.883,15.684-5.543,23.571
				c-5.545-1.329-11.307-1.23-16.939-1.974c8.105-18.548,13.916-38.771,15.98-58.998c0.143,0.101,0.283,0.203,0.428,0.304
				c2.914,2.035,8.343,4.664,9.714,8.175c0.217,0.555,0.494,1.035,0.812,1.454C149.031,186.441,148.646,195.864,147.287,205.018z"/>
		</g>
	</g>
	<g>
		<g>
			<path d="M249.096,130.698c-0.054-0.293-0.132-0.585-0.252-0.87c-2.678-6.302-0.369-13.901-1.396-20.557
				c-0.458-2.962-2.492-5.396-5.73-5.262c-0.305,0.013-0.613,0.062-0.919,0.134c-2.193-0.755-4.824-0.342-6.448,1.979
				c-0.092,0.056-0.219,0.136-0.429,0.271c-0.786,0.501-1.697,0.776-2.566,1.092c-2.782,1.01-5.702,1.664-8.585,2.305
				c-5.113,1.136-10.296,1.909-15.461,2.754c-8.025,1.315-15.488,5.523-23.528,6.608c-7.753,1.046-15.718,1.254-22.515,5.591
				c-3.19,2.035-3.132,6.178-0.695,8.724l14.52,15.172c0.786,0.821,1.633,1.295,2.482,1.499c-0.033,0.133-0.076,0.259-0.1,0.398
				c-1.054,5.979,6.691,8.562,9.699,4.765c0.436-0.142,0.875-0.271,1.312-0.397c2.48-0.711,5.033-1.195,7.563-1.688
				c7.048-1.371,14.145-2.489,21.209-3.768c6.916-1.252,13.854-2.578,20.594-4.595c4.691-1.404,9.866-3.281,12.514-7.671
				C251.961,134.534,250.993,132.102,249.096,130.698z M238.084,133.152c-2.738,1.087-5.617,1.835-8.469,2.554
				c-7.183,1.808-14.508,3.059-21.8,4.333c-6.528,1.141-13.087,2.173-19.56,3.605c-1.277,0.282-2.771,0.605-4.236,1.072
				c0.111-1.444-0.332-2.963-1.588-4.276l-8.687-9.077c5.966-1.435,12.663-1.218,18.377-2.984c7.019-2.17,13.822-4.54,21.063-5.72
				c6.199-1.01,12.405-2.088,18.469-3.745c1.689-0.461,3.451-0.995,5.13-1.7c-0.126,5.388-0.572,10.836,1.538,15.844
				C238.245,133.09,238.175,133.117,238.084,133.152z"/>
		</g>
	</g>
	<g>
		<g>
			<path d="M209.816,213.892c-7.103-7.32-14.971-13.939-23.395-19.682c-3.834-2.614-7.698,1.6-7.989,5.138
				c-0.596,7.241-0.624,14.524-1.627,21.728c-0.398,2.863-1.019,5.756-1.962,8.49c-0.214,0.62-0.418,1.245-0.624,1.868
				c-1.354,0.912-2.301,2.435-2.25,4.549c0.059,2.402,0.875,4.86,3.271,5.91c0.129,0.057,0.259,0.092,0.389,0.141
				c0.651,1.167,1.825,2.065,3.606,2.34c7.125,1.099,14.72,1.539,21.763-0.24c9.327-2.355,9.815-13.222,10.001-21.085
				c0.02-0.877-0.13-1.638-0.409-2.285C211.783,218.739,211.896,216.036,209.816,213.892z M200.007,223.517
				c-0.066,2.814-0.223,5.535-0.82,8.294c-0.413,1.906-1.349,1.92-3.259,2.196c-3.478,0.501-7.124,0.444-10.679,0.087
				c0.992-3.174,1.576-6.616,2.043-9.079c0.966-5.088,1.283-10.284,1.532-15.479c4.24,3.426,8.271,7.146,12.089,10.984
				C200.376,221.333,200.036,222.33,200.007,223.517z"/>
		</g>
	</g>
	<g>
		<g>
			<path d="M253.597,170.955c-0.085-0.443-0.211-0.843-0.366-1.205c0.701-3.509-3.621-7.033-7.327-6.319
				c-14.453,2.785-29.507,3.64-42.586,11.037c-3.315,1.875-3.026,6.29-0.695,8.725l17.285,18.061
				c0.544,0.569,1.12,0.965,1.704,1.227c0.912,2.476,3.331,4.312,6.543,3.176c8.304-2.939,17.277-3.861,24.136-9.86
				C259.192,189.764,255.045,178.34,253.597,170.955z M243.561,188.819c-4.283,3.105-10.191,3.972-15.461,5.362
				c-0.228-0.386-0.506-0.763-0.851-1.125l-11.721-12.247c8.342-3.192,17.538-4.307,26.44-5.661c0.426,0.211,0.91,0.349,1.442,0.411
				C244.484,179.641,246.902,186.397,243.561,188.819z"/>
		</g>
	</g>
	<g>
		<g>
			<path d="M404.332,268.408c-6.001,1.108-13.778-1.394-19.363-2.594c-1.944-0.417-4.216-1.044-6.334-0.956
				c-2.918-1.521-6.985-0.763-7.741,3.385c-1.683,9.232-5.204,18.049-6.95,27.304c-1.812,9.598-2.223,19.488-5.583,28.74
				c-0.803,2.21-0.159,3.961,1.143,5.081c0.052,0.203,0.115,0.409,0.19,0.619c3.53,9.744,14.349,12.279,20.25,19.969
				c3.333,4.342,9.891,2.763,10.198-2.957c1.278-23.699,8.863-47.967,19.357-69.187c0.188-0.155,0.375-0.31,0.57-0.482
				C414.648,273.261,408.961,267.552,404.332,268.408z M382.976,269.986c0.814,2.677,0.118,4.119-0.911,4.904
				C383.098,273.667,383.582,271.979,382.976,269.986z M380.204,335.699c-0.14-0.105-0.277-0.21-0.419-0.314
				c-2.862-2.106-8.225-4.87-9.509-8.414c-0.203-0.561-0.469-1.047-0.776-1.474c2.926-8.822,3.546-18.232,5.132-27.349
				c1.297-7.462,3.895-14.595,5.745-21.9c0.067-0.036,0.133-0.073,0.2-0.112c0.986,0.184,1.968,0.409,2.948,0.618
				c1.991,0.429,3.976,0.64,5.968,1.044c2.441,0.495,4.848,0.947,7.253,1.247C388.638,296.859,382.68,316.235,380.204,335.699z"/>
		</g>
	</g>
	<g>
		<g>
			<path d="M359.576,369.348l-14.139-15.527c-0.765-0.84-1.6-1.336-2.445-1.561c0.037-0.132,0.083-0.257,0.111-0.395
				c1.202-5.951-6.477-8.726-9.579-5.005c-0.438,0.13-0.881,0.25-1.321,0.364c-2.498,0.649-5.062,1.069-7.604,1.5
				c-7.079,1.195-14.201,2.136-21.295,3.24c-6.944,1.081-13.915,2.233-20.701,4.083c-4.724,1.288-9.945,3.036-12.701,7.359
				c-0.527,0.826-0.789,1.637-0.851,2.407c-2.621,1.304-4.281,4.342-2.241,7.374c0.02,0.097,0.047,0.219,0.087,0.383
				c0.131,0.534,0.072,0.305,0.225,1.439c0.273,2.026,0.451,4.066,0.648,6.102c0.372,3.828,0.597,7.823,1.646,11.54
				c1.002,3.556,4.755,4.503,7.659,3.169c2.311,1.712,5.948,1.904,8.065-0.967c0.093-0.054,0.221-0.13,0.434-0.259
				c0.799-0.482,1.717-0.735,2.593-1.029c2.807-0.94,5.741-1.522,8.639-2.091c5.141-1.01,10.34-1.653,15.526-2.371
				c8.055-1.114,15.62-5.137,23.685-6.022c7.777-0.854,15.744-0.864,22.646-5.03C361.904,376.097,361.949,371.953,359.576,369.348z
				 M327.908,373.649c-7.07,1.996-13.931,4.197-21.199,5.196c-6.222,0.856-12.453,1.78-18.555,3.286
				c-2.291,0.565-4.721,1.256-6.904,2.332c-0.661-0.557-1.442-0.989-2.282-1.241c-0.156-1.679-0.282-3.396-0.44-4.988
				c-0.227-2.28-0.261-5.175-0.926-7.677c0.6-0.343,1.157-0.816,1.641-1.441c0.099-0.064,0.226-0.146,0.425-0.272
				c1.233-0.778,1.172-0.646,2.412-1.104c2.765-1.019,5.659-1.695,8.529-2.342c7.226-1.629,14.58-2.698,21.901-3.792
				c6.554-0.978,13.136-1.847,19.643-3.118c1.284-0.251,2.784-0.537,4.261-0.968c-0.147,1.441,0.259,2.97,1.482,4.314l8.458,9.29
				C340.354,372.409,333.666,372.025,327.908,373.649z"/>
		</g>
	</g>
	<g>
		<g>
			<path d="M347.602,260.59c-1.246-0.583-2.517-0.739-3.716-0.496c-1.469-1.036-3.499-1.239-5.262-0.65
				c-0.019-0.001-0.028-0.003-0.05-0.004c0.022,0-1.695-0.216-2.194-0.291c-2.571-0.387-5.124-0.911-7.676-1.402
				c-3.849-0.742-7.9-1.852-11.813-1.161c-13.665,2.411-16.142,22.078-6.017,29.773c0.268,0.205,0.542,0.371,0.817,0.521
				c0.186,0.288,0.398,0.571,0.652,0.845c6.919,7.495,14.62,14.307,22.9,20.256c3.768,2.708,7.735-1.409,8.114-4.938
				c0.775-7.225,0.984-14.504,2.165-21.682c0.47-2.852,1.161-5.729,2.173-8.438c0.229-0.615,0.448-1.234,0.67-1.852
				c1.377-0.879,2.362-2.377,2.362-4.493C350.726,264.177,349.97,261.699,347.602,260.59z M335.133,277.164
				c-1.091,5.062-1.537,10.248-1.914,15.436c-4.721-4.012-9.18-8.386-13.337-12.888c-0.236-0.256-0.481-0.472-0.729-0.666
				c-0.262-0.308-0.572-0.604-0.94-0.884c-3.412-2.593-3.795-7.645-0.1-10.324c0.307-0.223,1.125-0.379,1.616-0.473
				c0.248,0.011,0.472,0.021,0.5,0.025c2.058,0.289,4.1,0.713,6.139,1.105c2.386,0.458,6.507,1.594,10.351,1.863
				C336.029,272.824,335.54,275.283,335.133,277.164z"/>
		</g>
	</g>
	<g>
		<g>
			<path d="M318.771,318.594l-16.832-18.484c-0.976-1.071-2.064-1.58-3.141-1.68c-0.228-0.312-0.497-0.617-0.814-0.907
				c-8.751-8.026-22.001-3.41-30.482,2.623c-11.115,7.906-8.381,20.974-3.162,31.477c1.01,2.032,2.642,2.792,4.29,2.687
				c1.34,1.978,3.966,3.369,6.382,2.966c14.518-2.426,29.589-2.906,42.847-9.977C321.22,325.507,321.04,321.086,318.771,318.594z
				 M279.239,325.658c-0.789-0.413-1.767-0.603-2.941-0.455c-1.004,0.126-1.866,0.311-2.662,0.571
				c-0.016-0.034-0.027-0.068-0.044-0.102c-2.477-4.985-5.304-11.994-0.14-16.274c3.863-3.203,12.716-7.786,17.192-3.68
				c0.967,0.887,2.006,1.327,3.024,1.427c0.201,0.333,0.442,0.661,0.729,0.976l11.413,12.534
				C297.392,323.639,288.171,324.526,279.239,325.658z"/>
		</g>
	</g>
	<g>
		<g>
			<path d="M231.385,372.324c-9.102-2.286-17.669-6.379-26.787-8.729c-9.459-2.438-19.3-3.499-28.312-7.46
				c-2.152-0.946-3.942-0.418-5.145,0.807c-0.206,0.038-0.416,0.087-0.63,0.149c-9.956,2.882-13.195,13.511-21.256,18.894
				c-4.552,3.04-3.407,9.687,2.28,10.371c23.848,2.866,47.855,12.211,68.506,24.284c3.039,1.777,6.023,0.366,7.499-1.942
				c2.711-0.156,5.25-2.033,4.965-5.527c-0.553-6.752-0.624-13.893,1.067-20.498c0.155-0.606,0.208-1.174,0.184-1.705
				C236.017,378.191,235.829,373.439,231.385,372.324z M221.222,398.677c-17.856-9.867-37.633-17.576-57.758-21.496
				c0.114-0.133,0.228-0.264,0.341-0.398c2.29-2.717,5.399-7.887,9.02-8.935c0.572-0.166,1.075-0.398,1.522-0.677
				c8.609,3.5,17.959,4.736,26.952,6.918c7.311,1.773,14.211,4.803,21.329,7.125C221.31,386.825,221.006,392.832,221.222,398.677z"
				/>
		</g>
	</g>
	<g>
		<g>
			<path d="M155.394,329.87c-0.102-0.446-0.192-0.896-0.276-1.342c-0.485-2.535-0.735-5.121-0.997-7.686
				c-0.729-7.142-1.199-14.311-1.834-21.463c-0.622-7-1.313-14.031-2.714-20.925c-0.974-4.799-2.375-10.122-6.508-13.156
				c-1.03-0.756-2.063-1.071-3.032-1.06c-0.275-0.247-0.58-0.48-0.926-0.691c-3.456-2.11-10.207-0.7-13.939-0.31
				c-4.58,0.479-12.746,1.061-14.332,6.485c-2.335,2.069-3.146,6.188-0.152,8.715c0.048,0.097,0.115,0.23,0.229,0.451
				c0.43,0.829,0.62,1.76,0.857,2.654c0.754,2.862,1.142,5.829,1.519,8.758c0.669,5.196,0.97,10.428,1.345,15.648
				c0.583,8.111,4.1,15.924,4.453,24.03c0.341,7.816-0.172,15.767,3.531,22.928c1.738,3.361,5.87,3.678,8.626,1.481l16.422-13.087
				c0.889-0.708,1.438-1.51,1.717-2.337c0.13,0.045,0.251,0.099,0.386,0.137C155.629,340.688,158.902,333.209,155.394,329.87z
				 M140.166,333.247l-9.826,7.831c-0.889-6.073-0.067-12.722-1.309-18.573c-1.526-7.187-3.271-14.176-3.792-21.495
				c-0.445-6.265-0.958-12.543-2.06-18.731c-0.432-2.431-0.996-5.02-2.008-7.352c0.243-0.055,0.486-0.114,0.728-0.167
				c1.163-0.255,3.389-0.504,5.11-0.67c1.924-0.186,3.857-0.294,5.79-0.353c0.684-0.021,1.369-0.016,2.054-0.005
				c0.627,0.276,1.237,0.414,1.82,0.43c0.028,0.026,0.052,0.054,0.082,0.08c0.057,0.102,0.131,0.234,0.244,0.442
				c0.695,1.281,0.568,1.211,0.941,2.479c0.836,2.826,1.32,5.759,1.778,8.665c1.15,7.317,1.734,14.726,2.345,22.103
				c0.545,6.604,0.98,13.229,1.82,19.806c0.167,1.297,0.354,2.814,0.686,4.316C143.14,331.811,141.587,332.115,140.166,333.247z"/>
		</g>
	</g>
	<g>
		<g>
			<path d="M242.836,341.265c-1.993-2.521-1.703-6.25-1.732-9.3c-0.031-3.154,1.141-7.754-0.661-10.557
				c-3.467-5.392-11.512-8.744-18.156-9.219c-1.871-1.13-4.337-1.314-6.494,0.429c-7.933,6.412-15.237,13.648-21.718,21.52
				c-2.949,3.582,0.898,7.811,4.395,8.421c7.158,1.247,14.408,1.935,21.492,3.585c2.814,0.656,5.64,1.535,8.278,2.723
				c0.598,0.27,1.202,0.529,1.803,0.79c0.787,1.432,2.218,2.513,4.329,2.652c2.396,0.158,4.918-0.433,6.18-2.724
				c0.162-0.294,0.297-0.591,0.409-0.89C243.611,347.333,245.198,344.251,242.836,341.265z M230.192,337.635
				c-1.957-0.635-3.849-1.149-5.358-1.58c-4.98-1.423-10.125-2.208-15.278-2.926c3.401-3.507,7.02-6.828,10.734-9.968
				c3.698-0.126,7.086,1.418,9.943,3.666C230.073,330.257,229.837,334.033,230.192,337.635z"/>
		</g>
	</g>
	<g>
		<g>
			<path d="M208.786,291.607c-0.164-7.539-3.349-15.964-6.454-22.732c-1.996-4.353-3.93-6.259-8.8-7.338
				c-6.232-1.38-12.653-1.485-18.907-0.296c-3.234,0.615-4.24,3.202-3.705,5.667c-1.389,1.345-2.307,3.302-2.116,5.206
				c1.466,14.646,0.955,29.715,7.139,43.411c1.566,3.47,5.99,3.582,8.625,1.481l19.551-15.581c1.8-1.435,2.217-3.25,1.777-4.897
				C207.58,295.689,208.839,294.036,208.786,291.607z M196.62,293.372l-13.258,10.565c-2.424-8.596-2.703-17.855-3.245-26.843
				c0.463-0.761,0.717-1.724,0.646-2.905c-0.062-1.041-0.193-1.935-0.412-2.767c3.873-0.333,7.832,0.197,11.626,1.047
				c1.362,2.412,2.131,5.298,2.969,7.819c1.233,3.708,2.761,7.833,2.847,11.786c0.003,0.188,0.02,0.367,0.038,0.545
				C197.422,292.812,197.015,293.058,196.62,293.372z"/>
		</g>
	</g>
	<g>
		<g>
			<path d="M472.31,118.169c-6.365-4.865-13.989-9.487-21.83-12.748c13.77-10.643,31.147-26.576,20.066-42.865
				c-5.663-8.322-16.905-8.075-24.997-3.838c-8.349,4.371-15.113,11.156-22.208,17.344c-1.347-8.35-3.391-16.667-7.863-23.831
				c-5.769-9.237-17.012-14.833-27.681-11.194c-9.521,3.248-15.521,12.343-17.141,21.934c-1.391,8.237,2.188,16.348,6.12,24.072
				c-2.457-1.024-4.917-2.029-7.405-2.892c-8.089-2.804-16.339-5.131-24.452-7.867C329.249,71,313.731,65.272,298.042,60.042
				c1.875-16.417-13.957-32.62-30.198-33.378c-10.59-0.494-18.645,9.302-23.883,17.262c-5.645,8.575-10.031,19.085-8.675,29.461
				c-16.943,3.928-34.7,3.35-51.71,7.26c-8.607,1.979-16.98,3.774-25.852,3.734c-3.206-0.015-6.849-0.17-10.371,0.186
				c1.664-4.568,2.579-9.562,3.152-12.799c1.959-11.059,4.381-28.114-6.962-35.011c-11.335-6.893-21.125,5.092-26.326,13.82
				c-4.1,6.883-7.813,14.988-10.15,23.151c-12.157-12.453-29.984-27.88-44.89-14.997c-7.615,6.582-6.075,17.721-0.935,25.272
				c5.303,7.79,12.822,13.728,19.785,20.063c-8.14,2.299-16.166,5.288-22.766,10.555c-8.512,6.793-12.777,18.606-7.933,28.784
				c4.322,9.085,14.048,13.998,23.76,14.502c8.343,0.433,15.989-4.055,23.208-8.851c-0.735,2.559-1.45,5.119-2.02,7.69
				c-1.854,8.357-3.216,16.819-5,25.193c-3.258,15.296-6.913,30.503-10.168,45.798c-9.75-2.863-20.982-2.294-30.695-0.605
				c-10.819,1.88-24.316,7.155-25.083,19.916c-0.754,12.55,12.305,20.062,22.233,24.409c8.572,3.756,22.288,8.421,31.728,3.972
				c2.188,16.947,0.113,34.271,2.429,51.269c1.192,8.752,2.223,17.252,1.381,26.083c-0.305,3.191-0.789,6.805-0.753,10.345
				c-4.399-2.07-9.289-3.432-12.461-4.296c-10.837-2.952-27.603-6.905-35.497,3.767c-7.889,10.666,3.16,21.499,11.383,27.468
				c6.482,4.706,14.219,9.136,22.138,12.202c-13.501,10.981-30.478,27.34-18.996,43.349c5.866,8.181,17.1,7.654,25.084,3.217
				c8.237-4.578,14.831-11.528,21.771-17.889c1.554,8.313,3.804,16.578,8.453,23.627c5.996,9.091,17.374,14.407,27.949,10.504
				c9.438-3.483,15.211-12.725,16.591-22.352c1.187-8.27-2.592-16.29-6.715-23.913c2.481,0.963,4.966,1.906,7.475,2.707
				c8.156,2.603,16.46,4.724,24.639,7.258c15.396,4.771,30.661,9.958,46.066,14.699c0.069,0.108,0.133,0.216,0.211,0.324
				c6.766,9.367,5.45,22.2,10.491,32.415c5.45,11.042,19.183,16.131,30.729,11.781c11.271-4.246,17.718-16.091,21.273-26.878
				c3.413-10.354,4.068-23.25-1.754-32.879c0.162-0.025,0.324-0.051,0.49-0.09c17.862-4.233,36.583-2.894,54.6-6.568
				c8.653-1.765,17.068-3.353,25.936-3.092c3.204,0.094,6.841,0.34,10.372,0.072c-1.776,4.525-2.814,9.494-3.469,12.716
				c-2.233,11.007-5.077,27.998,6.091,35.173c11.161,7.171,21.246-4.566,26.661-13.163c4.27-6.778,8.183-14.789,10.722-22.893
				c11.844,12.751,29.283,28.616,44.503,16.107c7.776-6.392,6.514-17.566,1.562-25.241c-5.107-7.919-12.477-14.042-19.281-20.549
				c8.193-2.096,16.292-4.885,23.021-9.986c8.678-6.581,13.234-18.283,8.645-28.58c-4.095-9.189-13.696-14.342-23.394-15.086
				c-8.329-0.641-16.083,3.656-23.419,8.272c0.797-2.54,1.576-5.081,2.21-7.637c2.061-8.309,3.631-16.735,5.623-25.063
				c3.541-14.805,7.449-29.519,11.007-44.319c14.227-1.436,34.543-6.39,35.181-23.46c0.371-9.917-8.084-19.648-17.128-22.445
				c-7.863-2.43-16.085-1.681-24.152-0.452c-1.771-17,0.735-34.274-1.159-51.331c-0.975-8.777-1.794-17.302-0.733-26.109
				c0.384-3.182,0.958-6.783,1.009-10.323c4.347,2.178,9.201,3.662,12.351,4.604c10.76,3.22,27.422,7.589,35.58-2.884
				C491.157,135.445,480.38,124.34,472.31,118.169z M470.017,141.313c-4.622,0.258-9.393-0.556-13.882-1.573
				c-4.983-1.129-9.884-2.712-14.573-4.738c-1.552-0.669-3.013-1.5-4.419-2.434c-0.462-0.308-0.654-0.447-0.783-0.565
				c-0.334-4.938-7.145-8.394-9.788-3.077c-0.438,0.88-0.721,1.721-0.895,2.534c-2.909,0.979-4.977,3.903-2.875,7.192
				c2.942,4.606,0.576,12.46,0.004,17.536c-0.993,8.814,0.18,17.727,1.184,26.482c1.966,17.164-0.647,34.497,1.189,51.644
				c-4.135,2.989-2.975,10.902,3.01,9.96c11.578-1.821,36.086-7.971,38.026,10.165c1.095,10.233-19.828,12.499-26.514,13.056
				c-0.552,0.046-1.053,0.162-1.514,0.325c-2.49-0.323-5.131,0.843-5.875,4.005c-3.792,16.115-8.067,32.111-11.948,48.203
				c-1.865,7.733-3.396,15.53-5.195,23.275c-1.605,6.918-4.275,13.668-5.871,20.573c-0.28,0.547-0.475,1.169-0.561,1.863
				c-0.09,0.427-0.113,0.865-0.08,1.303c-0.004,0.099-0.008,0.198-0.013,0.298c-0.077,1.87,1.216,3.932,2.886,4.743
				c0.014,0.007,0.027,0.013,0.039,0.019c1.783,0.864,3.948,0.741,5.588-0.224c12.033-6.2,31.833-23.671,42.569-5.893
				c4.085,6.762-1.902,14.182-7.409,17.66c-7.728,4.881-17.353,6.676-26.147,8.636c-5.184,1.154-4.782,7.336-1.381,9.757
				c0.251,0.606,0.62,1.198,1.138,1.757c5.672,6.1,12.08,11.458,17.773,17.54c3.767,4.024,10.44,11.749,5.11,17.019
				c-4.466,4.417-12.98-0.96-16.575-3.732c-7.356-5.669-13.608-12.812-19.839-19.651c-2.672-2.933-8.515-1.268-9.114,2.705
				c-1.218,8.069-4.629,16.016-8.188,23.289c-2.066,4.221-4.419,8.375-7.42,12.006c-1.991,2.408-4.581,4.665-6.737,4.652
				c-1.644-0.01-3.049-2.608-3.332-4.525c-0.676-4.581-0.296-9.405,0.311-13.968c0.674-5.065,1.807-10.089,3.4-14.942
				c0.527-1.604,1.221-3.135,2.025-4.62c0.264-0.488,0.386-0.692,0.491-0.831c4.888-0.779,7.713-7.875,2.18-10.026
				c-0.915-0.355-1.779-0.562-2.604-0.663c-1.239-2.809-4.337-4.603-7.423-2.212c-4.322,3.347-12.357,1.701-17.464,1.59
				c-8.867-0.192-17.638,1.782-26.266,3.574c-18.01,3.738-36.681,2.322-54.599,6.568c-4.007,0.949-4.663,4.886-3.177,7.723
				c-3.421,0.675-6.343,4.488-3.89,8.317c4.711,7.353,2.986,17.327,0.596,25.176c-2.345,7.707-7.524,16.808-15.672,19.354
				c-10.352,3.234-16.034-5.566-18.192-13.919c-2.326-9.009-3.007-18.584-8.628-26.367c-0.458-0.635-0.983-1.12-1.542-1.484
				c-0.512-1.324-1.592-2.448-3.373-2.994c-15.831-4.843-31.512-10.159-47.315-15.09c-7.593-2.369-15.272-4.408-22.883-6.713
				c-6.797-2.056-13.357-5.163-20.142-7.209c-0.528-0.316-1.135-0.55-1.823-0.683c-0.42-0.117-0.855-0.169-1.294-0.165
				c-0.099-0.011-0.197-0.021-0.297-0.032c-1.861-0.2-4.004,0.955-4.922,2.568c-0.008,0.012-0.015,0.025-0.022,0.037
				c-0.98,1.723-0.999,3.891-0.143,5.591c5.395,12.415,21.527,33.319,3.082,42.864c-7.016,3.631-14.026-2.83-17.134-8.553
				c-4.363-8.033-5.521-17.754-6.899-26.659c-0.812-5.248-7.007-5.253-9.646-2.021c-0.62,0.211-1.236,0.54-1.828,1.021
				c-6.459,5.258-12.227,11.302-18.67,16.583c-4.262,3.494-12.409,9.645-17.317,3.98c-4.114-4.747,1.812-12.888,4.813-16.293
				c6.14-6.968,13.678-12.737,20.912-18.505c3.104-2.474,1.825-8.413-2.1-9.272c-7.972-1.746-15.677-5.672-22.7-9.701
				c-4.077-2.337-8.068-4.96-11.492-8.192c-2.272-2.145-4.355-4.876-4.201-7.027c0.118-1.64,2.803-2.871,4.734-3.028
				c4.614-0.374,9.404,0.322,13.918,1.228c5.009,1.005,9.948,2.466,14.687,4.375c1.567,0.631,3.048,1.425,4.478,2.324
				c0.468,0.296,0.665,0.432,0.797,0.546c0.456,4.927,7.351,8.213,9.861,2.833c0.415-0.89,0.676-1.738,0.832-2.555
				c2.884-1.052,4.878-4.026,2.695-7.263c-3.056-4.532-0.885-12.442-0.439-17.53c0.774-8.835-0.62-17.717-1.839-26.444
				c-2.547-18.217,0.093-36.755-2.966-54.912c-0.629-3.741-3.979-4.813-6.792-3.945c-1.574-1.908-4.207-2.781-6.803-0.873
				c-5.671,4.169-17.506-0.55-23.365-3.004c-5.321-2.227-17.203-7.291-16.24-14.479c0.981-7.323,13.718-9.064,19.275-9.754
				c7.555-0.938,17.51-1.37,24.417,1.482c2.844,1.174,5.41-0.033,6.849-1.991c2.026-0.24,3.881-1.54,4.426-4.147
				c3.392-16.204,7.269-32.302,10.75-48.486c1.671-7.776,3.01-15.608,4.615-23.396c1.434-6.956,3.934-13.771,5.359-20.713
				c0.267-0.555,0.445-1.18,0.515-1.877c0.08-0.429,0.091-0.867,0.048-1.304c0.001-0.1,0.004-0.199,0.005-0.298
				c0.031-1.872-1.312-3.901-3.003-4.669c-0.013-0.007-0.026-0.013-0.039-0.019c-1.805-0.82-3.965-0.643-5.58,0.363
				c-11.877,6.496-31.237,24.453-42.411,6.947c-4.251-6.659,1.549-14.225,6.969-17.838c7.603-5.071,17.181-7.105,25.924-9.282
				c5.153-1.283,4.598-7.453,1.139-9.789c-0.266-0.6-0.648-1.183-1.182-1.729c-5.821-5.957-12.361-11.155-18.203-17.094
				c-3.865-3.929-10.728-11.486-5.531-16.886c4.355-4.526,12.999,0.638,16.663,3.319c7.495,5.485,13.922,12.47,20.32,19.153
				c2.744,2.866,8.543,1.056,9.043-2.931c1.017-8.097,4.231-16.125,7.608-23.485c1.96-4.271,4.21-8.482,7.12-12.186
				c1.931-2.456,4.463-4.778,6.619-4.819c1.643-0.031,3.113,2.532,3.444,4.442c0.79,4.562,0.53,9.395,0.036,13.971
				c-0.547,5.081-1.556,10.13-3.028,15.022c-0.487,1.618-1.142,3.165-1.909,4.669c-0.252,0.494-0.369,0.701-0.471,0.843
				c-4.866,0.901-7.515,8.064-1.93,10.078c0.923,0.332,1.792,0.518,2.621,0.598c1.307,2.777,4.45,4.493,7.476,2.027
				c4.237-3.452,12.311-2.006,17.418-2.022c8.87-0.028,17.589-2.22,26.17-4.225c17.911-4.183,36.612-3.23,54.419-7.919
				c2.26-0.595,3.413-2.128,3.708-3.854c1.396-1.246,2.19-3.157,1.554-5.473c-2.15-7.835,1.877-16.198,5.809-22.777
				c3.104-5.194,8.439-13.051,15.111-13.465c9.653-0.598,23.189,13.136,19.413,23.058c-1.582,4.155,1.768,7.71,5.077,8.066
				c0.581,0.705,1.398,1.285,2.491,1.649c15.706,5.235,31.25,10.938,46.925,16.259c7.533,2.557,15.16,4.786,22.71,7.278
				c6.745,2.225,13.227,5.493,19.959,7.708c0.52,0.329,1.121,0.578,1.805,0.727c0.417,0.129,0.851,0.191,1.29,0.198
				c0.098,0.013,0.196,0.026,0.296,0.039c1.855,0.247,4.025-0.854,4.983-2.445c0.008-0.012,0.015-0.024,0.022-0.037
				c1.022-1.697,1.096-3.864,0.281-5.584c-5.085-12.546-20.693-33.844-2.018-42.929c7.104-3.456,13.952,3.178,16.917,8.976
				c4.162,8.138,5.079,17.885,6.235,26.822c0.682,5.266,6.874,5.425,9.593,2.258c0.626-0.195,1.25-0.508,1.853-0.975
				c6.588-5.096,12.504-10.994,19.076-16.114c4.349-3.387,12.646-9.334,17.411-3.55c3.994,4.848-2.131,12.84-5.216,16.169
				c-6.312,6.813-13.99,12.394-21.365,17.98c-3.163,2.396-2.033,8.366,1.87,9.322c7.925,1.941,15.531,6.059,22.453,10.261
				c4.017,2.438,7.941,5.158,11.284,8.475c2.218,2.202,4.232,4.984,4.025,7.13C474.667,140.04,471.952,141.204,470.017,141.313z"/>
		</g>
	</g>
	<g>
		<g>
			<path d="M291.756,118.996c0,0.011,0.001,0.02,0.001,0.029c0.008,0.012,0.016,0.022,0.024,0.033
				C291.773,119.037,291.765,119.016,291.756,118.996z"/>
		</g>
	</g>
	<g>
		<g>
			<path d="M365.487,119.23c-23.769-3.457-47.538-13.394-67.883-25.976c-3.917-2.422-7.873,0.609-8.49,4.052
				c-0.867,0.042-1.747,0.288-2.601,0.836c-2.075,1.335-3.25,4.472-2.144,6.8c-0.121,0.486-0.263,0.969-0.414,1.442
				c-0.327,1.032-1.485,4.034-2.124,5.988c-1.346,4.11-1.481,8.1,0.382,11.681c-1.244,2.707-0.592,6.198,3.101,7.222
				c9.042,2.511,17.504,6.816,26.562,9.392c9.396,2.672,19.207,3.976,28.118,8.16c2.128,0.999,3.931,0.516,5.163-0.679
				c0.207-0.033,0.418-0.076,0.634-0.133c10.024-2.634,13.526-13.18,21.718-18.361C372.135,126.728,371.154,120.054,365.487,119.23z
				 M352.982,128.495c-2.355,2.659-5.594,7.75-9.238,8.708c-0.577,0.151-1.086,0.372-1.539,0.639
				c-8.521-3.712-17.836-5.181-26.772-7.584c-7.685-2.067-14.874-5.533-22.369-8.078c-0.125-1.091-0.592-2.158-1.284-3.124
				c0.03,0.075,0.074,0.139,0.092,0.221c-0.048-0.109-0.085-0.185-0.117-0.247v-0.007c-0.003-0.005-0.008-0.009-0.012-0.014
				c-0.053-0.099-0.088-0.142-0.106-0.14c-0.11-0.146-0.21-0.296-0.331-0.437c0.211,0.146,0.347,0.342,0.447,0.562
				c-0.003-0.06-0.007-0.13-0.015-0.215c0.013-0.465,0.005-0.612-0.026-0.445c0.059-0.458,0.147-0.914,0.241-1.365
				c0.424-2.051,0.934-3.201,1.545-4.852c0.796-2.15,1.836-4.774,2.003-7.296c17.766,10.478,37.573,18.814,57.83,23.283
				C353.216,128.235,353.099,128.363,352.982,128.495z"/>
		</g>
	</g>
	<g>
		<g>
			<path d="M403.649,228.128c-0.045-0.097-0.11-0.232-0.219-0.456c-0.409-0.839-0.577-1.775-0.79-2.675
				c-0.683-2.88-0.997-5.856-1.301-8.793c-0.541-5.21-0.711-10.448-0.958-15.676c-0.381-8.123-3.703-16.02-3.855-24.132
				c-0.147-7.823,0.563-15.758-2.961-23.008c-1.654-3.404-5.777-3.823-8.585-1.696l-16.743,12.677
				c-0.906,0.686-1.474,1.472-1.775,2.294c-0.128-0.049-0.248-0.106-0.383-0.146c-5.818-1.734-9.275,5.661-5.851,9.086
				c0.09,0.449,0.168,0.9,0.243,1.349c0.422,2.547,0.608,5.137,0.806,7.708c0.552,7.158,0.844,14.335,1.302,21.501
				c0.447,7.013,0.965,14.06,2.193,20.985c0.855,4.822,2.125,10.179,6.18,13.314c2.446,1.891,4.973,1.209,6.586-0.514
				c0.378-0.125,0.759-0.297,1.141-0.52c0.064-0.036,0.112-0.065,0.159-0.094c0.09-0.029,0.201-0.067,0.359-0.125
				c0.801-0.293,1.643-0.475,2.473-0.659c1.706-0.377,3.572-0.457,5.336-0.548c1.716-0.089,3.437-0.057,5.15,0.054
				c-0.078-0.004,1.202,0.212,1.542,0.282c0.044,0.013,0.078,0.021,0.116,0.032c2.217,1.529,4.68,1.059,6.414-0.337
				C404.509,237.982,407.637,231.669,403.649,228.128z M387.312,226.981c-3.592,0.077-7.468,0.43-10.978,1.6
				c-0.74-2.801-1.148-5.695-1.527-8.562c-0.97-7.343-1.369-14.764-1.796-22.153c-0.381-6.616-0.652-13.25-1.329-19.845
				c-0.134-1.302-0.283-2.823-0.579-4.332c1.422,0.276,2.982,0.011,4.431-1.086l10.017-7.584c0.738,6.092-0.249,12.719,0.848,18.6
				c1.347,7.222,2.918,14.253,3.257,21.583c0.29,6.273,0.646,12.562,1.594,18.776c0.151,0.986,0.323,1.998,0.537,3.011
				C390.244,226.919,388.716,226.951,387.312,226.981z"/>
		</g>
	</g>
	<g>
		<g>
			<path d="M317.48,161.849c-7.125-1.424-14.357-2.292-21.396-4.117c-2.798-0.725-5.601-1.675-8.208-2.926
				c-0.592-0.284-1.188-0.559-1.784-0.835c-0.751-1.45-2.154-2.566-4.261-2.758c-1.799-0.164-3.679,0.096-5.062,1.195
				c-3.143-0.566-6.845,1.318-6.713,5.458c0.145,4.574-2.302,9.087-3.496,13.429c-1.192,4.34-0.781,9.514,1.47,13.462
				c2.065,3.623,5.342,5.664,9.373,6.496c3.895,0.802,8.246-0.23,11.969,1.348c1.877,0.795,3.632,0.538,5.021-0.292
				c1.575,0.487,3.374,0.313,5.025-0.956c8.09-6.213,15.571-13.266,22.245-20.974C324.701,166.869,320.96,162.546,317.48,161.849z
				 M293.137,182.314c-2.837-1.015-5.647-1.384-8.723-1.543c-1.627-0.084-5.45,0.469-6.608-1.046
				c-2.108-2.756-0.285-7.021,0.642-9.822c0.688-2.08,1.377-4.114,1.874-6.186c3.448,1.834,7.746,3.073,10.641,3.979
				c4.943,1.544,10.068,2.458,15.201,3.303C302.05,175.034,297.641,178.803,293.137,182.314z"/>
		</g>
	</g>
	<g>
		<g>
			<path d="M345.39,233.009c-1.103-14.677-0.218-29.73-6.061-43.574c-1.48-3.508-5.898-3.73-8.586-1.695l-19.931,15.09
				c-2.347,1.777-2.453,4.229-1.377,6.189c-2.797,0.683-5.247,3.302-4.309,6.889c1.948,7.446-0.047,14.973,6.998,20.294
				c6.976,5.271,15.111,2.331,22.793,4.519c1.968,0.56,3.556,0.064,4.662-0.967C342.616,239.682,345.636,236.296,345.39,233.009z
				 M333.588,229.362c-4.727-0.359-9.704,0.511-14.051-1.459c-4.275-1.938-2.883-11.357-3.907-15.271
				c-0.04-0.152-0.088-0.294-0.137-0.437c0.877-0.131,1.766-0.486,2.616-1.13l13.515-10.231c2.21,8.653,2.259,17.917,2.579,26.915
				C333.909,228.204,333.704,228.748,333.588,229.362z"/>
		</g>
	</g>
	<g>
		<g>
			<path d="M288.536,251.508c-2.159-11.609,0.724-24.945-6.175-35.271c-1.042-1.559-2.932-2.695-4.861-2.521
				c-16.62,1.5-38.491,3.42-50.865,16.162c-2.462,0.385-4.579,2.225-4.254,5.447c1.412,14.031,2.206,28.524,7.135,41.871
				c0.641,1.734,1.833,2.788,3.199,3.287c1.955,2.883,3.91,5.806,6.873,7.708c4.24,2.72,9.652,2.435,14.412,1.609
				c10.011-1.738,22.305-2.516,30.705-8.832C293.653,274.241,290.259,260.769,288.536,251.508z M278.251,272.114
				c-2.029,2.277-6.898,3.015-9.66,3.75c-4.008,1.066-8.112,1.786-12.2,2.469c-3.066,0.512-7.413,1.964-10.412,0.85
				c-2.597-0.965-4.318-5.214-5.863-7.291c-0.363-0.487-0.765-0.883-1.191-1.206c-3.277-10.418-4.179-21.398-5.206-32.255
				c5.125-5.743,12.958-8.132,20.193-10.018c6.773-1.765,13.738-2.697,20.701-3.387c2.973,7.164,1.281,16.205,2.353,23.67
				c0.599,4.169,1.542,8.281,2.137,12.453C279.551,264.294,280.599,269.479,278.251,272.114z"/>
		</g>
	</g>
</g>
</svg>
