<?xml version="1.0" encoding="utf-8"?><svg xmlns="http://www.w3.org/2000/svg" xmlns:xlink="http://www.w3.org/1999/xlink"><defs><svg viewBox="0 0 24 24" id="add" xmlns="http://www.w3.org/2000/svg"><path d="M19 13h-6v6h-2v-6H5v-2h6V5h2v6h6v2z"/></svg><svg viewBox="0 0 48 48" id="add-image-custom" xmlns="http://www.w3.org/2000/svg"><path d="M40 41H8c-2.2 0-4-1.8-4-4V11c0-2.2 1.8-4 4-4h32c2.2 0 4 1.8 4 4v26c0 2.2-1.8 4-4 4z" fill="#8cbcd6"/><path d="M38 16a3 3 0 1 1-6.002-.002A3 3 0 0 1 38 16z" fill="#b3ddf5"/><path d="M20 16L9 32h22z" fill="#9ac9e3"/><path d="M31 22l-8 10h16z" fill="#b3ddf5"/><path d="M48 38c0 5.523-4.477 10-10 10s-10-4.477-10-10 4.477-10 10-10 10 4.477 10 10z" fill="#43a047"/><path d="M36 32h4v12h-4z" fill="#fff"/><path d="M32 36h12v4H32z" fill="#fff"/></svg><svg viewBox="0 0 24 24" id="arrow-drop-down" xmlns="http://www.w3.org/2000/svg"><path d="M7 10l5 5 5-5z"/></svg><svg viewBox="0 0 24 24" id="assignment" xmlns="http://www.w3.org/2000/svg"><path d="M19 3h-4.18C14.4 1.84 13.3 1 12 1c-1.3 0-2.4.84-2.82 2H5c-1.1 0-2 .9-2 2v14c0 1.1.9 2 2 2h14c1.1 0 2-.9 2-2V5c0-1.1-.9-2-2-2zm-7 0c.55 0 1 .45 1 1s-.45 1-1 1-1-.45-1-1 .45-1 1-1zm2 14H7v-2h7v2zm3-4H7v-2h10v2zm0-4H7V7h10v2z"/></svg><svg viewBox="0 0 24 24" id="attachment" xmlns="http://www.w3.org/2000/svg"><path d="M2 12.5C2 9.46 4.46 7 7.5 7H18c2.21 0 4 1.79 4 4s-1.79 4-4 4H9.5a2.5 2.5 0 0 1 0-5H17v2H9.41c-.55 0-.55 1 0 1H18c1.1 0 2-.9 2-2s-.9-2-2-2H7.5C5.57 9 4 10.57 4 12.5S5.57 16 7.5 16H17v2H7.5C4.46 18 2 15.54 2 12.5z"/></svg><svg viewBox="0 0 32 32" id="background-custom" xmlns="http://www.w3.org/2000/svg"><path d="M11.313 3.281L9.905 4.72l1.782 1.78-6.906 6.906a3.063 3.063 0 0 0 0 4.313l.063.062 6.343 6.313a3.063 3.063 0 0 0 4.313 0l7.594-7.594.718-.688-9.718-9.718-.781-.813-.22-.187zm1.812 4.656L21 15.813l-6.906 6.876a1.054 1.054 0 0 1-1.5 0L6.219 16.28a1.017 1.017 0 0 1 0-1.468zM25 19.25l-.813 1.188s-.539.753-1.062 1.656c-.262.453-.508.926-.719 1.406-.21.48-.406.922-.406 1.5 0 1.645 1.355 3 3 3s3-1.355 3-3c0-.578-.195-1.02-.406-1.5-.211-.48-.457-.953-.719-1.406-.523-.903-1.063-1.657-1.063-1.657zm0 3.625c.066.11.059.102.125.219.238.41.492.847.656 1.218.164.372.219.715.219.688 0 .555-.445 1-1 1-.555 0-1-.445-1-1 0 .027.055-.316.219-.688.164-.37.418-.808.656-1.218.066-.117.059-.11.125-.219z"/></svg><svg viewBox="0 0 48 48" id="brush-custom" xmlns="http://www.w3.org/2000/svg"><path d="M6 42c4-2 6.61-7.152 7.871-11.336 1.445-4.797 2.938-9.754 10.387-10.156.18-.008.36.043.508.148l6.433 4.54c.215.148.34.394.34.656C31.54 39.582 22.758 42 6 42z" fill="#ffc107"/><path d="M23.098 20.508c-.032.066-.075.133-.086.207-.207 1.101.199 2.305 1.164 3.473 1.582 1.902 4.281 3.097 6.304 3.097.23 0 .45-.02.657-.058a.788.788 0 0 0 .508-.348L42 6h-9.988z" fill="#e91e63"/></svg><svg viewBox="0 0 24 24" id="cancel" xmlns="http://www.w3.org/2000/svg"><path d="M12 2C6.47 2 2 6.47 2 12s4.47 10 10 10 10-4.47 10-10S17.53 2 12 2zm5 13.59L15.59 17 12 13.41 8.41 17 7 15.59 10.59 12 7 8.41 8.41 7 12 10.59 15.59 7 17 8.41 13.41 12 17 15.59z"/></svg><svg viewBox="0 0 24 24" id="check" xmlns="http://www.w3.org/2000/svg"><path d="M9 16.17L4.83 12l-1.42 1.41L9 19 21 7l-1.41-1.41z"/></svg><svg viewBox="0 0 32 32" id="circle-custom" xmlns="http://www.w3.org/2000/svg"><path d="M16 4C9.383 4 4 9.383 4 16s5.383 12 12 12 12-5.383 12-12S22.617 4 16 4zm0 2c5.535 0 10 4.465 10 10s-4.465 10-10 10S6 21.535 6 16 10.465 6 16 6z"/></svg><svg viewBox="0 0 24 24" id="close" xmlns="http://www.w3.org/2000/svg"><path d="M19 6.41L17.59 5 12 10.59 6.41 5 5 6.41 10.59 12 5 17.59 6.41 19 12 13.41 17.59 19 19 17.59 13.41 12z"/></svg><svg viewBox="0 0 24 24" id="code" xmlns="http://www.w3.org/2000/svg"><path d="M9.4 16.6L4.8 12l4.6-4.6L8 6l-6 6 6 6 1.4-1.4zm5.2 0l4.6-4.6-4.6-4.6L16 6l6 6-6 6-1.4-1.4z"/></svg><svg viewBox="0 0 32 32" id="color-custom" xmlns="http://www.w3.org/2000/svg"><path d="M15.594 2.969c-.531.015-1.078.074-1.625.156h-.031C8.613 3.996 4.3 8.191 3.217 13.5c-.323 1.512-.304 2.922-.093 4.313.008.003 0 .023 0 .03.328 2.348 3.375 3.376 5.094 1.657 1.23-1.23 3.05-1.23 4.281 0 1.23 1.23 1.23 3.05 0 4.281-1.719 1.719-.691 4.766 1.656 5.094.008 0 .028-.008.031 0 1.38.21 2.782.223 4.282-.094h.031c5.324-.992 9.508-5.406 10.375-10.718v-.032c1.133-7.64-4.453-14.312-11.719-15a12.21 12.21 0 0 0-1.562-.062zm.031 2A10.97 10.97 0 0 1 16.969 5a11.093 11.093 0 0 1 9.937 12.75c-.73 4.477-4.32 8.242-8.781 9.063h-.031a9.885 9.885 0 0 1-3.657.093c-.82-.101-1.199-1.02-.53-1.687a5.036 5.036 0 0 0 0-7.125 5.036 5.036 0 0 0-7.126 0c-.668.668-1.586.289-1.687-.532a9.885 9.885 0 0 1 .093-3.656c.918-4.488 4.586-8.082 9.063-8.812.469-.07.922-.11 1.375-.125zM14 7a1.999 1.999 0 1 0 0 4 1.999 1.999 0 1 0 0-4zm7 2a1.999 1.999 0 1 0 0 4 1.999 1.999 0 1 0 0-4zM9 11a1.999 1.999 0 1 0 0 4 1.999 1.999 0 1 0 0-4zm14 5a1.999 1.999 0 1 0 0 4 1.999 1.999 0 1 0 0-4zm-4 5a1.999 1.999 0 1 0 0 4 1.999 1.999 0 1 0 0-4z"/></svg><svg viewBox="0 0 48 48" id="color-wheel-custom" xmlns="http://www.w3.org/2000/svg"><path d="M24.64 4C16.04 4 6.21 8.953 6.21 22.945 6.21 33.11 13.845 44 25.52 44h.175c4.383-.078 9.106-2.918 9.106-8.96 0-1.157-.434-2.157-.813-3.04a15.217 15.217 0 0 1-.285-.695c-.863-2.176.086-2.97 2.328-4.567 2.535-1.804 6.012-4.277 5.969-10.816C42 12.032 37.758 4 24.64 4zm.56 35.2c-2.243 0-4-1.759-4-4 0-2.24 1.757-4 4-4a3.96 3.96 0 0 1 3.995 4c0 2.241-1.758 4-3.996 4z" fill="#ffc107"/><path d="M38 16.5a3.5 3.5 0 1 1-7 0 3.5 3.5 0 1 1 7 0z" fill="#9c27b0"/><path d="M29 10.5a3.5 3.5 0 1 1-7 0 3.5 3.5 0 1 1 7 0z" fill="#2196f3"/><path d="M19 15.5a3.5 3.5 0 1 1-7 0 3.5 3.5 0 1 1 7 0z" fill="#4caf50"/><path d="M18 26.5a3.5 3.5 0 1 1-7 0 3.5 3.5 0 1 1 7 0z" fill="#ff3d00"/></svg><svg viewBox="0 0 24 24" id="copy-custom" xmlns="http://www.w3.org/2000/svg"><path d="M4 2a2 2 0 0 0-2 2v14h2V4h14V2H4zm4 4a2 2 0 0 0-2 2v12a2 2 0 0 0 2 2h12a2 2 0 0 0 2-2V8a2 2 0 0 0-2-2H8zm0 2h12v12H8V8z"/></svg><svg viewBox="0 0 24 24" id="credit-card" xmlns="http://www.w3.org/2000/svg"><path d="M20 4H4c-1.11 0-1.99.89-1.99 2L2 18c0 1.11.89 2 2 2h16c1.11 0 2-.89 2-2V6c0-1.11-.89-2-2-2zm0 14H4v-6h16v6zm0-10H4V6h16v2z"/></svg><svg viewBox="0 0 32 32" id="crop-custom" xmlns="http://www.w3.org/2000/svg"><path d="M8 4v4H4v2h4v14h14v4h2v-4h4v-2H11.437L22 11.437V21h2V9.437l3.719-3.718L26.28 4.28 22.563 8H11v2h9.563L10 20.563V4z"/></svg><svg viewBox="0 0 24 24" id="dashboard" xmlns="http://www.w3.org/2000/svg"><path d="M3 13h8V3H3v10zm0 8h8v-6H3v6zm10 0h8V11h-8v10zm0-18v6h8V3h-8z"/></svg><svg viewBox="0 0 24 24" id="delete" xmlns="http://www.w3.org/2000/svg"><path d="M6 19c0 1.1.9 2 2 2h8c1.1 0 2-.9 2-2V7H6v12zM19 4h-3.5l-1-1h-5l-1 1H5v2h14V4z"/></svg><svg viewBox="0 0 32 32" id="delete-custom" xmlns="http://www.w3.org/2000/svg"><path d="M14 4c-.523 0-1.059.184-1.438.563C12.184 4.94 12 5.476 12 6v1H5v2h1.094L8 27.094l.094.906h15.812l.094-.906L25.906 9H27V7h-7V6c0-.523-.184-1.059-.563-1.438C19.06 4.184 18.523 4 18 4zm0 2h4v1h-4zM8.125 9h15.75l-1.781 17H9.906zM12 12v11h2V12zm3 0v11h2V12zm3 0v11h2V12z"/></svg><svg viewBox="0 0 24 24" id="drag-handle" xmlns="http://www.w3.org/2000/svg"><path d="M20 9H4v2h16V9zM4 15h16v-2H4v2z"/></svg><svg viewBox="0 0 24 24" id="edit" xmlns="http://www.w3.org/2000/svg"><path d="M3 17.25V21h3.75L17.81 9.94l-3.75-3.75L3 17.25zM20.71 7.04a.996.996 0 0 0 0-1.41l-2.34-2.34a.996.996 0 0 0-1.41 0l-1.83 1.83 3.75 3.75 1.83-1.83z"/></svg><svg viewBox="0 0 32 32" id="ellipse-custom" xmlns="http://www.w3.org/2000/svg"><path d="M16 6c-3.516 0-6.727 1.07-9.094 2.844C4.54 10.617 3 13.156 3 16c0 2.844 1.54 5.383 3.906 7.156C9.273 24.93 12.484 26 16 26c3.516 0 6.727-1.07 9.094-2.844C27.46 21.383 29 18.844 29 16c0-2.844-1.54-5.383-3.906-7.156C22.727 7.07 19.516 6 16 6zm0 2c3.11 0 5.898.957 7.875 2.438C25.852 11.918 27 13.874 27 16c0 2.125-1.148 4.082-3.125 5.563C21.898 23.043 19.109 24 16 24c-3.11 0-5.898-.957-7.875-2.438C6.148 20.082 5 18.125 5 16c0-2.125 1.148-4.082 3.125-5.563C10.102 8.957 12.891 8 16 8z"/></svg><svg viewBox="0 0 24 24" id="exit-to-app" xmlns="http://www.w3.org/2000/svg"><path d="M10.09 15.59L11.5 17l5-5-5-5-1.41 1.41L12.67 11H3v2h9.67l-2.58 2.59zM19 3H5a2 2 0 0 0-2 2v4h2V5h14v14H5v-4H3v4a2 2 0 0 0 2 2h14c1.1 0 2-.9 2-2V5c0-1.1-.9-2-2-2z"/></svg><svg viewBox="0 0 24 24" id="file-download" xmlns="http://www.w3.org/2000/svg"><path d="M19 9h-4V3H9v6H5l7 7 7-7zM5 18v2h14v-2H5z"/></svg><svg viewBox="0 0 32 32" id="filter-custom" xmlns="http://www.w3.org/2000/svg"><path d="M15 5c-1.293 0-2.395.844-2.813 2H4v2h8.188c.417 1.156 1.519 2 2.812 2s2.395-.844 2.813-2H28V7H17.812C17.395 5.844 16.294 5 15 5zm0 2c.563 0 1 .438 1 1 0 .563-.438 1-1 1-.563 0-1-.438-1-1 0-.563.438-1 1-1zm7 6c-1.293 0-2.395.844-2.813 2H4v2h15.188c.417 1.156 1.519 2 2.812 2s2.395-.844 2.813-2H28v-2h-3.188c-.417-1.156-1.519-2-2.812-2zm0 2c.563 0 1 .438 1 1 0 .563-.438 1-1 1-.563 0-1-.438-1-1 0-.563.438-1 1-1zm-11 6c-1.293 0-2.395.844-2.813 2H4v2h4.188c.417 1.156 1.519 2 2.812 2s2.395-.844 2.813-2H28v-2H13.812c-.417-1.156-1.519-2-2.812-2zm0 2c.563 0 1 .438 1 1 0 .563-.438 1-1 1-.563 0-1-.438-1-1 0-.563.438-1 1-1z"/></svg><svg viewBox="0 0 24 24" id="flip" xmlns="http://www.w3.org/2000/svg"><path d="M15 21h2v-2h-2v2zm4-12h2V7h-2v2zM3 5v14c0 1.1.9 2 2 2h4v-2H5V5h4V3H5c-1.1 0-2 .9-2 2zm16-2v2h2c0-1.1-.9-2-2-2zm-8 20h2V1h-2v22zm8-6h2v-2h-2v2zM15 5h2V3h-2v2zm4 8h2v-2h-2v2zm0 8c1.1 0 2-.9 2-2h-2v2z"/></svg><svg viewBox="0 0 24 24" id="flip-horizontal-custom" xmlns="http://www.w3.org/2000/svg"><path d="M4 2c-1.102 0-2 .8-2 2v7h20L4.812 2.187C4.513 2.087 4.301 2 4 2zm0 2l9.688 5H4zm-2 9v7c0 1.5 1.512 2.414 2.813 1.813L22 13z"/></svg><svg viewBox="0 0 24 24" id="flip-to-front" xmlns="http://www.w3.org/2000/svg"><path d="M3 13h2v-2H3v2zm0 4h2v-2H3v2zm2 4v-2H3a2 2 0 0 0 2 2zM3 9h2V7H3v2zm12 12h2v-2h-2v2zm4-18H9a2 2 0 0 0-2 2v10a2 2 0 0 0 2 2h10c1.1 0 2-.9 2-2V5c0-1.1-.9-2-2-2zm0 12H9V5h10v10zm-8 6h2v-2h-2v2zm-4 0h2v-2H7v2z"/></svg><svg viewBox="0 0 24 24" id="flip-vertical-custom" xmlns="http://www.w3.org/2000/svg"><path d="M11 2L2.187 19.188C1.587 20.488 2.603 22 4 22h7zm2 0v20h7c1.5 0 2.414-1.512 1.813-2.813zm-4 8.313V20H4z"/></svg><svg viewBox="0 0 24 24" id="format-align-center" xmlns="http://www.w3.org/2000/svg"><path d="M7 15v2h10v-2H7zm-4 6h18v-2H3v2zm0-8h18v-2H3v2zm4-6v2h10V7H7zM3 3v2h18V3H3z"/></svg><svg viewBox="0 0 24 24" id="format-align-left" xmlns="http://www.w3.org/2000/svg"><path d="M15 15H3v2h12v-2zm0-8H3v2h12V7zM3 13h18v-2H3v2zm0 8h18v-2H3v2zM3 3v2h18V3H3z"/></svg><svg viewBox="0 0 24 24" id="format-align-right" xmlns="http://www.w3.org/2000/svg"><path d="M3 21h18v-2H3v2zm6-4h12v-2H9v2zm-6-4h18v-2H3v2zm6-4h12V7H9v2zM3 3v2h18V3H3z"/></svg><svg viewBox="0 0 24 24" id="format-bold" xmlns="http://www.w3.org/2000/svg"><path d="M15.6 10.79c.97-.67 1.65-1.77 1.65-2.79 0-2.26-1.75-4-4-4H7v14h7.04c2.09 0 3.71-1.7 3.71-3.79 0-1.52-.86-2.82-2.15-3.42zM10 6.5h3c.83 0 1.5.67 1.5 1.5s-.67 1.5-1.5 1.5h-3v-3zm3.5 9H10v-3h3.5c.83 0 1.5.67 1.5 1.5s-.67 1.5-1.5 1.5z"/></svg><svg viewBox="0 0 24 24" id="format-clear" xmlns="http://www.w3.org/2000/svg"><path d="M3.27 5L2 6.27l6.97 6.97L6.5 19h3l1.57-3.66L16.73 21 18 19.73 3.55 5.27 3.27 5zM6 5v.18L8.82 8h2.4l-.72 1.68 2.1 2.1L14.21 8H20V5H6z"/></svg><svg viewBox="0 0 24 24" id="format-color-fill" xmlns="http://www.w3.org/2000/svg"><path d="M16.56 8.94L7.62 0 6.21 1.41l2.38 2.38-5.15 5.15a1.49 1.49 0 0 0 0 2.12l5.5 5.5c.29.29.68.44 1.06.44s.77-.15 1.06-.44l5.5-5.5c.59-.58.59-1.53 0-2.12zM5.21 10L10 5.21 14.79 10H5.21zM19 11.5s-2 2.17-2 3.5c0 1.1.9 2 2 2s2-.9 2-2c0-1.33-2-3.5-2-3.5z"/><path fill-opacity=".36" d="M0 20h24v4H0z"/></svg><svg viewBox="0 0 24 24" id="format-color-text" xmlns="http://www.w3.org/2000/svg"><path fill-opacity=".36" d="M0 20h24v4H0z"/><path d="M11 3L5.5 17h2.25l1.12-3h6.25l1.12 3h2.25L13 3h-2zm-1.38 9L12 5.67 14.38 12H9.62z"/></svg><svg viewBox="0 0 24 24" id="format-italic" xmlns="http://www.w3.org/2000/svg"><path d="M10 4v3h2.21l-3.42 8H6v3h8v-3h-2.21l3.42-8H18V4z"/></svg><svg viewBox="0 0 24 24" id="format-list-bulleted" xmlns="http://www.w3.org/2000/svg"><path d="M4 10.5c-.83 0-1.5.67-1.5 1.5s.67 1.5 1.5 1.5 1.5-.67 1.5-1.5-.67-1.5-1.5-1.5zm0-6c-.83 0-1.5.67-1.5 1.5S3.17 7.5 4 7.5 5.5 6.83 5.5 6 4.83 4.5 4 4.5zm0 12c-.83 0-1.5.68-1.5 1.5s.68 1.5 1.5 1.5 1.5-.68 1.5-1.5-.67-1.5-1.5-1.5zM7 19h14v-2H7v2zm0-6h14v-2H7v2zm0-8v2h14V5H7z"/></svg><svg viewBox="0 0 24 24" id="format-list-numbered" xmlns="http://www.w3.org/2000/svg"><path d="M2 17h2v.5H3v1h1v.5H2v1h3v-4H2v1zm1-9h1V4H2v1h1v3zm-1 3h1.8L2 13.1v.9h3v-1H3.2L5 10.9V10H2v1zm5-6v2h14V5H7zm0 14h14v-2H7v2zm0-6h14v-2H7v2z"/></svg><svg viewBox="0 0 24 24" id="format-strikethrough" xmlns="http://www.w3.org/2000/svg"><path d="M10 19h4v-3h-4v3zM5 4v3h5v3h4V7h5V4H5zM3 14h18v-2H3v2z"/></svg><svg viewBox="0 0 24 24" id="format-underlined" xmlns="http://www.w3.org/2000/svg"><path d="M12 17c3.31 0 6-2.69 6-6V3h-2.5v8c0 1.93-1.57 3.5-3.5 3.5S8.5 12.93 8.5 11V3H6v8c0 3.31 2.69 6 6 6zm-7 2v2h14v-2H5z"/></svg><svg viewBox="0 0 32 32" id="frame-custom" xmlns="http://www.w3.org/2000/svg"><path d="M2 5v22h28V5zm2 2h24v18H4zm2 2v14h20V9zm2 2h16v10H8z"/></svg><svg viewBox="0 0 32 32" id="gradient-custom" xmlns="http://www.w3.org/2000/svg"><path d="M16 4C9.383 4 4 9.383 4 16s5.383 12 12 12 12-5.383 12-12S22.617 4 16 4zm0 2v20c-5.535 0-10-4.465-10-10S10.465 6 16 6z"/></svg><svg viewBox="0 0 24 24" id="history" xmlns="http://www.w3.org/2000/svg"><path d="M13 3a9 9 0 0 0-9 9H1l3.89 3.89.07.14L9 12H6c0-3.87 3.13-7 7-7s7 3.13 7 7-3.13 7-7 7c-1.93 0-3.68-.79-4.94-2.06l-1.42 1.42A8.954 8.954 0 0 0 13 21a9 9 0 0 0 0-18zm-1 5v5l4.28 2.54.72-1.21-3.5-2.08V8H12z"/></svg><svg viewBox="0 0 24 24" id="home" xmlns="http://www.w3.org/2000/svg"><path d="M10 20v-6h4v6h5v-8h3L12 3 2 12h3v8z"/></svg><svg viewBox="0 0 24 24" id="image" xmlns="http://www.w3.org/2000/svg"><path d="M21 19V5c0-1.1-.9-2-2-2H5c-1.1 0-2 .9-2 2v14c0 1.1.9 2 2 2h14c1.1 0 2-.9 2-2zM8.5 13.5l2.5 3.01L14.5 12l4.5 6H5l3.5-4.5z"/></svg><svg viewBox="0 0 24 24" id="insert-drive-file" xmlns="http://www.w3.org/2000/svg"><path d="M6 2c-1.1 0-1.99.9-1.99 2L4 20c0 1.1.89 2 1.99 2H18c1.1 0 2-.9 2-2V8l-6-6H6zm7 7V3.5L18.5 9H13z"/></svg><svg viewBox="0 0 24 24" id="keyboard-arrow-down" xmlns="http://www.w3.org/2000/svg"><path d="M7.41 7.84L12 12.42l4.59-4.58L18 9.25l-6 6-6-6z"/></svg><svg viewBox="0 0 24 24" id="keyboard-arrow-left" xmlns="http://www.w3.org/2000/svg"><path d="M15.41 16.09l-4.58-4.59 4.58-4.59L14 5.5l-6 6 6 6z"/></svg><svg viewBox="0 0 24 24" id="keyboard-arrow-right" xmlns="http://www.w3.org/2000/svg"><path d="M8.59 16.34l4.58-4.59-4.58-4.59L10 5.75l6 6-6 6z"/></svg><svg viewBox="0 0 24 24" id="keyboard-backspace" xmlns="http://www.w3.org/2000/svg"><path d="M21 11H6.83l3.58-3.59L9 6l-6 6 6 6 1.41-1.41L6.83 13H21z"/></svg><svg viewBox="0 0 24 24" id="layers" xmlns="http://www.w3.org/2000/svg"><path d="M11.99 18.54l-7.37-5.73L3 14.07l9 7 9-7-1.63-1.27-7.38 5.74zM12 16l7.36-5.73L21 9l-9-7-9 7 1.63 1.27L12 16z"/></svg><svg viewBox="0 0 24 24" id="link" xmlns="http://www.w3.org/2000/svg"><path d="M3.9 12c0-1.71 1.39-3.1 3.1-3.1h4V7H7c-2.76 0-5 2.24-5 5s2.24 5 5 5h4v-1.9H7c-1.71 0-3.1-1.39-3.1-3.1zM8 13h8v-2H8v2zm9-6h-4v1.9h4c1.71 0 3.1 1.39 3.1 3.1s-1.39 3.1-3.1 3.1h-4V17h4c2.76 0 5-2.24 5-5s-2.24-5-5-5z"/></svg><svg viewBox="0 0 24 24" id="mail" xmlns="http://www.w3.org/2000/svg"><path d="M20 4H4c-1.1 0-1.99.9-1.99 2L2 18c0 1.1.9 2 2 2h16c1.1 0 2-.9 2-2V6c0-1.1-.9-2-2-2zm0 4l-8 5-8-5V6l8 5 8-5v2z"/></svg><svg viewBox="0 0 24 24" id="menu" xmlns="http://www.w3.org/2000/svg"><path d="M3 18h18v-2H3v2zm0-5h18v-2H3v2zm0-7v2h18V6H3z"/></svg><svg viewBox="0 0 32 32" id="merge-custom" xmlns="http://www.w3.org/2000/svg"><path d="M16 4.594l-.719.687-5 5 1.438 1.438L15 8.438V19c0 2.773-2.227 5-5 5H5v2h5c3.855 0 7-3.145 7-7V8.437l3.281 3.282 1.438-1.438-5-5zm1.969 17.343a8.286 8.286 0 0 1-1 1.907A6.978 6.978 0 0 0 22 26h5v-2h-5a4.982 4.982 0 0 1-4.031-2.063z"/></svg><svg viewBox="0 0 24 24" id="note" xmlns="http://www.w3.org/2000/svg"><path d="M22 10l-6-6H4c-1.1 0-2 .9-2 2v12.01c0 1.1.9 1.99 2 1.99l16-.01c1.1 0 2-.89 2-1.99v-8zm-7-4.5l5.5 5.5H15V5.5z"/></svg><svg viewBox="0 0 32 32" id="opacity-custom" xmlns="http://www.w3.org/2000/svg"><path d="M6 6v4h4V6zm4 4v4h4v-4zm4 0h4V6h-4zm4 0v4h4v-4zm4 0h4V6h-4zm0 4v4h4v-4zm0 4h-4v4h4zm0 4v4h4v-4zm-4 0h-4v4h4zm-4 0v-4h-4v4zm-4 0H6v4h4zm0-4v-4H6v4zm4 0h4v-4h-4z"/></svg><svg viewBox="0 0 24 24" id="open-in-new" xmlns="http://www.w3.org/2000/svg"><path d="M19 19H5V5h7V3H5a2 2 0 0 0-2 2v14a2 2 0 0 0 2 2h14c1.1 0 2-.9 2-2v-7h-2v7zM14 3v2h3.59l-9.83 9.83 1.41 1.41L19 6.41V10h2V3h-7z"/></svg><svg viewBox="0 0 32 32" id="outline-custom" xmlns="http://www.w3.org/2000/svg"><path d="M16 4C9.383 4 4 9.383 4 16s5.383 12 12 12 12-5.383 12-12S22.617 4 16 4zm0 2c5.535 0 10 4.465 10 10s-4.465 10-10 10S6 21.535 6 16 10.465 6 16 6z"/></svg><svg viewBox="0 0 24 24" id="pause" xmlns="http://www.w3.org/2000/svg"><path d="M6 19h4V5H6v14zm8-14v14h4V5h-4z"/></svg><svg viewBox="0 0 32 32" id="pencil-custom" xmlns="http://www.w3.org/2000/svg"><path d="M23.906 3.969A4.097 4.097 0 0 0 21 5.188L5.187 21l-.062.313-1.094 5.5-.312 1.468 1.469-.312 5.5-1.094.312-.063L26.813 11a4.075 4.075 0 0 0 0-5.813 4.097 4.097 0 0 0-2.907-1.218zm0 1.906c.504 0 1.012.23 1.5.719.973.972.973 2.027 0 3l-.718.687-2.97-2.969.688-.718c.489-.489.996-.719 1.5-.719zm-3.593 2.844l2.968 2.969L11.188 23.78a6.813 6.813 0 0 0-2.97-2.968zM6.938 22.438a4.734 4.734 0 0 1 2.625 2.625l-3.282.656z"/></svg><svg viewBox="0 0 24 24" id="people" xmlns="http://www.w3.org/2000/svg"><path d="M16 11c1.66 0 2.99-1.34 2.99-3S17.66 5 16 5c-1.66 0-3 1.34-3 3s1.34 3 3 3zm-8 0c1.66 0 2.99-1.34 2.99-3S9.66 5 8 5C6.34 5 5 6.34 5 8s1.34 3 3 3zm0 2c-2.33 0-7 1.17-7 3.5V19h14v-2.5c0-2.33-4.67-3.5-7-3.5zm8 0c-.29 0-.62.02-.97.05 1.16.84 1.97 1.97 1.97 3.45V19h6v-2.5c0-2.33-4.67-3.5-7-3.5z"/></svg><svg viewBox="0 0 24 24" id="person" xmlns="http://www.w3.org/2000/svg"><path d="M12 12c2.21 0 4-1.79 4-4s-1.79-4-4-4-4 1.79-4 4 1.79 4 4 4zm0 2c-2.67 0-8 1.34-8 4v2h16v-2c0-2.66-5.33-4-8-4z"/></svg><svg viewBox="0 0 24 24" id="photo-library" xmlns="http://www.w3.org/2000/svg"><path d="M22 16V4c0-1.1-.9-2-2-2H8c-1.1 0-2 .9-2 2v12c0 1.1.9 2 2 2h12c1.1 0 2-.9 2-2zm-11-4l2.03 2.71L16 11l4 5H8l3-4zM2 6v14c0 1.1.9 2 2 2h14v-2H4V6H2z"/></svg><svg viewBox="0 0 24 24" id="photo-size-select-actual" xmlns="http://www.w3.org/2000/svg"><path d="M21 3H3C2 3 1 4 1 5v14c0 1.1.9 2 2 2h18c1 0 2-1 2-2V5c0-1-1-2-2-2zM5 17l3.5-4.5 2.5 3.01L14.5 11l4.5 6H5z"/></svg><svg viewBox="0 0 24 24" id="pie-chart" xmlns="http://www.w3.org/2000/svg"><path d="M11 2v20c-5.07-.5-9-4.79-9-10s3.93-9.5 9-10zm2.03 0v8.99H22c-.47-4.74-4.24-8.52-8.97-8.99zm0 11.01V22c4.74-.47 8.5-4.25 8.97-8.99h-8.97z"/></svg><svg viewBox="0 0 32 32" id="polygon-custom" xmlns="http://www.w3.org/2000/svg"><path d="M14 4a2 2 0 0 0-2 2v.063L6.937 9.25A2.009 2.009 0 0 0 6 9a2 2 0 0 0-2 2c0 .738.402 1.371 1 1.719V24.28c-.598.348-1 .98-1 1.719a2 2 0 0 0 2 2c.738 0 1.371-.402 1.719-1H20.28c.348.598.98 1 1.719 1a2 2 0 0 0 2-2c0-.398-.11-.781-.313-1.094L26.125 20a2.005 2.005 0 0 0 .25-3.969l-1.906-5.718C24.785 9.957 25 9.511 25 9a2 2 0 0 0-2-2c-.512 0-.957.215-1.313.531L15.97 5.594A2.012 2.012 0 0 0 14 4zm1.313 3.5l5.718 1.875c.153.805.79 1.441 1.594 1.594l1.906 5.687A1.99 1.99 0 0 0 24 18c0 .414.129.805.344 1.125L21.875 24a1.988 1.988 0 0 0-1.594 1H7.72a1.981 1.981 0 0 0-.72-.719V12.72c.598-.348 1-.98 1-1.719v-.063l5.063-3.187c.28.148.597.25.937.25.504 0 .96-.191 1.313-.5z"/></svg><svg viewBox="0 0 24 24" id="print" xmlns="http://www.w3.org/2000/svg"><path d="M19 8H5c-1.66 0-3 1.34-3 3v6h4v4h12v-4h4v-6c0-1.66-1.34-3-3-3zm-3 11H8v-5h8v5zm3-7c-.55 0-1-.45-1-1s.45-1 1-1 1 .45 1 1-.45 1-1 1zm-1-9H6v4h12V3z"/></svg><svg viewBox="0 0 24 24" id="question-answer" xmlns="http://www.w3.org/2000/svg"><path d="M21 6h-2v9H6v2c0 .55.45 1 1 1h11l4 4V7c0-.55-.45-1-1-1zm-4 6V3c0-.55-.45-1-1-1H3c-.55 0-1 .45-1 1v14l4-4h10c.55 0 1-.45 1-1z"/></svg><svg viewBox="0 0 32 32" id="rectangle-custom" xmlns="http://www.w3.org/2000/svg"><path d="M3 6v20h26V6zm2 2h22v16H5z"/></svg><svg viewBox="0 0 24 24" id="redo" xmlns="http://www.w3.org/2000/svg"><path d="M18.4 10.6C16.55 8.99 14.15 8 11.5 8c-4.65 0-8.58 3.03-9.96 7.22L3.9 16a8.002 8.002 0 0 1 7.6-5.5c1.95 0 3.73.72 5.12 1.88L13 16h9V7l-3.6 3.6z"/></svg><svg viewBox="0 0 24 24" id="remove" xmlns="http://www.w3.org/2000/svg"><path d="M19 13H5v-2h14v2z"/></svg><svg viewBox="0 0 24 24" id="reply" xmlns="http://www.w3.org/2000/svg"><path d="M10 9V5l-7 7 7 7v-4.1c5 0 8.5 1.6 11 5.1-1-5-4-10-11-11z"/></svg><svg viewBox="0 0 32 32" id="resize-custom" xmlns="http://www.w3.org/2000/svg"><path d="M5 5v2h2V5zm4 0v2h2V5zm4 0v2h2V5zm4 0v2h2V5zm4 0v2h2V5zm4 0v2h2V5zM5 9v2h2V9zm20 0v2h2V9zm-11 2v2h3.563l-4 4H5v10h10v-8.563l4-4V18h2v-7zm-9 2v2h2v-2zm20 0v2h2v-2zm0 4v2h2v-2zM7 19h6v6H7zm18 2v2h2v-2zm-8 4v2h2v-2zm4 0v2h2v-2zm4 0v2h2v-2z"/></svg><svg viewBox="0 0 24 24" id="rotate-left" xmlns="http://www.w3.org/2000/svg"><path d="M7.11 8.53L5.7 7.11C4.8 8.27 4.24 9.61 4.07 11h2.02c.14-.87.49-1.72 1.02-2.47zM6.09 13H4.07c.17 1.39.72 2.73 1.62 3.89l1.41-1.42c-.52-.75-.87-1.59-1.01-2.47zm1.01 5.32c1.16.9 2.51 1.44 3.9 1.61V17.9c-.87-.15-1.71-.49-2.46-1.03L7.1 18.32zM13 4.07V1L8.45 5.55 13 10V6.09c2.84.48 5 2.94 5 5.91s-2.16 5.43-5 5.91v2.02c3.95-.49 7-3.85 7-7.93s-3.05-7.44-7-7.93z"/></svg><svg viewBox="0 0 24 24" id="rotate-right" xmlns="http://www.w3.org/2000/svg"><path d="M15.55 5.55L11 1v3.07C7.06 4.56 4 7.92 4 12s3.05 7.44 7 7.93v-2.02c-2.84-.48-5-2.94-5-5.91s2.16-5.43 5-5.91V10l4.55-4.45zM19.93 11a7.906 7.906 0 0 0-1.62-3.89l-1.42 1.42c.54.75.88 1.6 1.02 2.47h2.02zM13 17.9v2.02c1.39-.17 2.74-.71 3.9-1.61l-1.44-1.44c-.75.54-1.59.89-2.46 1.03zm3.89-2.42l1.42 1.41c.9-1.16 1.45-2.5 1.62-3.89h-2.02c-.14.87-.48 1.72-1.02 2.48z"/></svg><svg viewBox="0 0 32 32" id="rounded-corner-custom" xmlns="http://www.w3.org/2000/svg"><path d="M8 6c-2.746 0-5 2.254-5 5v10c0 2.746 2.254 5 5 5h16c2.746 0 5-2.254 5-5V11c0-2.746-2.254-5-5-5zm0 2h16a3 3 0 0 1 3 3v10a3 3 0 0 1-3 3H8a3 3 0 0 1-3-3V11a3 3 0 0 1 3-3z"/></svg><svg viewBox="0 0 24 24" id="search" xmlns="http://www.w3.org/2000/svg"><path d="M15.5 14h-.79l-.28-.27A6.471 6.471 0 0 0 16 9.5 6.5 6.5 0 1 0 9.5 16c1.61 0 3.09-.59 4.23-1.57l.27.28v.79l5 4.99L20.49 19l-4.99-5zm-6 0C7.01 14 5 11.99 5 9.5S7.01 5 9.5 5 14 7.01 14 9.5 11.99 14 9.5 14z"/></svg><svg viewBox="0 0 24 24" id="settings" xmlns="http://www.w3.org/2000/svg"><path d="M19.43 12.98c.04-.32.07-.64.07-.98s-.03-.66-.07-.98l2.11-1.65c.19-.15.24-.42.12-.64l-2-3.46c-.12-.22-.39-.3-.61-.22l-2.49 1c-.52-.4-1.08-.73-1.69-.98l-.38-2.65A.488.488 0 0 0 14 2h-4c-.25 0-.46.18-.49.42l-.38 2.65c-.61.25-1.17.59-1.69.98l-2.49-1c-.23-.09-.49 0-.61.22l-2 3.46c-.13.22-.07.49.12.64l2.11 1.65c-.04.32-.07.65-.07.98s.03.66.07.98l-2.11 1.65c-.19.15-.24.42-.12.64l2 3.46c.12.22.39.3.61.22l2.49-1c.52.4 1.08.73 1.69.98l.38 2.65c.03.24.24.42.49.42h4c.25 0 .46-.18.49-.42l.38-2.65c.61-.25 1.17-.59 1.69-.98l2.49 1c.23.09.49 0 .61-.22l2-3.46c.12-.22.07-.49-.12-.64l-2.11-1.65zM12 15.5c-1.93 0-3.5-1.57-3.5-3.5s1.57-3.5 3.5-3.5 3.5 1.57 3.5 3.5-1.57 3.5-3.5 3.5z"/></svg><svg viewBox="0 0 32 32" id="settings-custom" xmlns="http://www.w3.org/2000/svg"><path d="M13.188 3l-.157.813-.594 2.968a9.939 9.939 0 0 0-2.593 1.532l-2.906-1-.782-.25-.406.718-2 3.438-.406.719.594.53 2.25 1.97C6.104 14.948 6 15.46 6 16s.105 1.05.188 1.563l-2.25 1.968-.594.532.406.718 2 3.438.406.718.782-.25 2.906-1a9.939 9.939 0 0 0 2.594 1.532l.593 2.968.156.813h5.626l.156-.813.593-2.968a9.939 9.939 0 0 0 2.594-1.532l2.907 1 .78.25.407-.718 2-3.438.406-.718-.593-.532-2.25-1.968C25.895 17.05 26 16.538 26 16c0-.54-.105-1.05-.188-1.563l2.25-1.968.594-.531-.406-.72-2-3.437-.406-.718-.782.25-2.906 1a9.939 9.939 0 0 0-2.593-1.532l-.594-2.968L18.812 3zm1.624 2h2.376l.5 2.594.125.593.562.188a8.017 8.017 0 0 1 3.031 1.75l.438.406.562-.187 2.532-.875 1.187 2.031-2 1.781-.469.375.157.594c.128.57.187 1.152.187 1.75 0 .598-.059 1.18-.188 1.75l-.125.594.438.375 2 1.781-1.188 2.031-2.53-.875-.563-.187-.438.406a8.017 8.017 0 0 1-3.031 1.75l-.563.188-.125.593-.5 2.594h-2.375l-.5-2.594-.124-.593-.563-.188a8.017 8.017 0 0 1-3.031-1.75l-.438-.406-.562.187-2.531.875L5.875 20.5l2-1.781.469-.375-.156-.594A7.901 7.901 0 0 1 8 16c0-.598.059-1.18.188-1.75l.156-.594-.469-.375-2-1.781 1.188-2.031 2.53.875.563.187.438-.406a8.017 8.017 0 0 1 3.031-1.75l.563-.188.124-.593zM16 11c-2.75 0-5 2.25-5 5s2.25 5 5 5 5-2.25 5-5-2.25-5-5-5zm0 2c1.668 0 3 1.332 3 3s-1.332 3-3 3-3-1.332-3-3 1.332-3 3-3z"/></svg><svg viewBox="0 0 32 32" id="shadow-custom" xmlns="http://www.w3.org/2000/svg"><path d="M16 4C9.383 4 4 9.383 4 16s5.383 12 12 12 12-5.383 12-12S22.617 4 16 4zm0 2c.39 0 .777.05 1.156.094C18.633 7.656 21 10.926 21 16c0 5.074-2.367 8.344-3.844 9.906-.379.043-.765.094-1.156.094-5.535 0-10-4.465-10-10S10.465 6 16 6z"/></svg><svg viewBox="0 0 24 24" id="star" xmlns="http://www.w3.org/2000/svg"><path d="M12 17.27L18.18 21l-1.64-7.03L22 9.24l-7.19-.61L12 2 9.19 8.63 2 9.24l5.46 4.73L5.82 21z"/></svg><svg viewBox="0 0 24 24" id="star-border" xmlns="http://www.w3.org/2000/svg"><path d="M22 9.24l-7.19-.62L12 2 9.19 8.63 2 9.24l5.46 4.73L5.82 21 12 17.27 18.18 21l-1.63-7.03L22 9.24zM12 15.4l-3.76 2.27 1-4.28-3.32-2.88 4.38-.38L12 6.1l1.71 4.04 4.38.38-3.32 2.88 1 4.28L12 15.4z"/></svg><svg viewBox="0 0 32 32" id="sticker-custom" xmlns="http://www.w3.org/2000/svg"><path d="M16 4C9.383 4 4 9.383 4 16s5.383 12 12 12 12-5.383 12-12S22.617 4 16 4zm0 2c5.535 0 10 4.465 10 10s-4.465 10-10 10S6 21.535 6 16 10.465 6 16 6zm-4.5 6a1.5 1.5 0 1 0 0 3 1.5 1.5 0 0 0 0-3zm9 0a1.5 1.5 0 1 0 0 3 1.5 1.5 0 0 0 0-3zm-9.688 7l-1.718 1c1.383 2.387 3.953 4 6.906 4s5.523-1.613 6.906-4l-1.718-1A5.977 5.977 0 0 1 16 22a5.977 5.977 0 0 1-5.188-3z"/></svg><svg viewBox="0 0 24 24" id="style" xmlns="http://www.w3.org/2000/svg"><path d="M2.53 19.65l1.34.56v-9.03l-2.43 5.86c-.41 1.02.08 2.19 1.09 2.61zm19.5-3.7L17.07 3.98a2.013 2.013 0 0 0-1.81-1.23c-.26 0-.53.04-.79.15L7.1 5.95a1.999 1.999 0 0 0-1.08 2.6l4.96 11.97a1.998 1.998 0 0 0 2.6 1.08l7.36-3.05a1.994 1.994 0 0 0 1.09-2.6zM7.88 8.75c-.55 0-1-.45-1-1s.45-1 1-1 1 .45 1 1-.45 1-1 1zm-2 11c0 1.1.9 2 2 2h1.45l-3.45-8.34v6.34z"/></svg><svg viewBox="0 0 24 24" id="subscriptions" xmlns="http://www.w3.org/2000/svg"><path d="M20 8H4V6h16v2zm-2-6H6v2h12V2zm4 10v8c0 1.1-.9 2-2 2H4c-1.1 0-2-.9-2-2v-8c0-1.1.9-2 2-2h16c1.1 0 2 .9 2 2zm-6 4l-6-3.27v6.53L16 16z"/></svg><svg viewBox="0 0 32 32" id="text-box-custom" xmlns="http://www.w3.org/2000/svg"><path d="M15 6L8 26h2l2.098-6h4.992A7.918 7.918 0 0 0 16 24c0 4.398 3.602 8 8 8s8-3.602 8-8-3.602-8-8-8c-1.16 0-2.258.254-3.254.703L17 6zm1 2.86l3.094 8.84a8.616 8.616 0 0 0-.36.3h-5.933zM24 18c3.3 0 6 2.7 6 6s-2.7 6-6 6-6-2.7-6-6 2.7-6 6-6zm-1 2v3h-3v2h3v3h2v-3h3v-2h-3v-3z"/></svg><svg viewBox="0 0 32 32" id="text-options-custom" xmlns="http://www.w3.org/2000/svg"><path d="M4 6v2h7v18h2V8h7V6zm21 .625L21.5 11H24v10h-2.5l3.5 4.375L28.5 21H26V11h2.5z"/></svg><svg viewBox="0 0 32 32" id="texture-custom" xmlns="http://www.w3.org/2000/svg"><path d="M7 6v4h2V6zm8 0v4h2V6zm8 0v4h2V6zM2 7v2h4V7zm8 0v2h4V7zm8 0v2h4V7zm8 0v2h4V7zM3 10v4h2v-4zm8 0v4h2v-4zm8 0v4h2v-4zm8 0v4h2v-4zM6 11v2h4v-2zm8 0v2h4v-2zm8 0v2h4v-2zM7 14v4h2v-4zm8 0v4h2v-4zm8 0v4h2v-4zM2 15v2h4v-2zm8 0v2h4v-2zm8 0v2h4v-2zm8 0v2h4v-2zM3 18v4h2v-4zm8 0v4h2v-4zm8 0v4h2v-4zm8 0v4h2v-4zM6 19v2h4v-2zm8 0v2h4v-2zm8 0v2h4v-2zM7 22v4h2v-4zm8 0v4h2v-4zm8 0v4h2v-4zM2 23v2h4v-2zm8 0v2h4v-2zm8 0v2h4v-2zm8 0v2h4v-2z"/></svg><svg viewBox="0 0 32 32" id="transform-custom" xmlns="http://www.w3.org/2000/svg"><path d="M16 4C9.383 4 4 9.383 4 16s5.383 12 12 12 12-5.383 12-12S22.617 4 16 4zm0 2c5.535 0 10 4.465 10 10s-4.465 10-10 10S6 21.535 6 16 10.465 6 16 6zm0 4c-2.969 0-5.426 2.168-5.906 5h2.062c.446-1.723 1.985-3 3.844-3 1.105 0 2.094.457 2.813 1.188L17 15h5v-5l-1.781 1.781C19.133 10.695 17.652 10 16 10zm-6 7v5l1.781-1.781C12.867 21.305 14.348 22 16 22c2.969 0 5.426-2.168 5.906-5h-2.062c-.446 1.723-1.985 3-3.844 3a3.927 3.927 0 0 1-2.813-1.188L15 17z"/></svg><svg viewBox="0 0 24 24" id="translate" xmlns="http://www.w3.org/2000/svg"><path d="M12.87 15.07l-2.54-2.51.03-.03A17.52 17.52 0 0 0 14.07 6H17V4h-7V2H8v2H1v1.99h11.17C11.5 7.92 10.44 9.75 9 11.35 8.07 10.32 7.3 9.19 6.69 8h-2c.73 1.63 1.73 3.17 2.98 4.56l-5.09 5.02L4 19l5-5 3.11 3.11.76-2.04zM18.5 10h-2L12 22h2l1.12-3h4.75L21 22h2l-4.5-12zm-2.62 7l1.62-4.33L19.12 17h-3.24z"/></svg><svg viewBox="0 0 32 32" id="triangle-custom" xmlns="http://www.w3.org/2000/svg"><path d="M16 4.906l-.875 1.5L4.719 24.5 3.875 26h24.25l-.844-1.5L16.875 6.406zm0 4.032L24.656 24H7.344z"/></svg><svg viewBox="0 0 24 24" id="undo" xmlns="http://www.w3.org/2000/svg"><path d="M12.5 8c-2.65 0-5.05.99-6.9 2.6L2 7v9h9l-3.62-3.62c1.39-1.16 3.16-1.88 5.12-1.88 3.54 0 6.55 2.31 7.6 5.5l2.37-.78C21.08 11.03 17.15 8 12.5 8z"/></svg><svg viewBox="0 0 24 24" id="videocam" xmlns="http://www.w3.org/2000/svg"><path d="M17 10.5V7c0-.55-.45-1-1-1H4c-.55 0-1 .45-1 1v10c0 .55.45 1 1 1h12c.55 0 1-.45 1-1v-3.5l4 4v-11l-4 4z"/></svg><svg viewBox="0 0 24 24" id="view-comfy" xmlns="http://www.w3.org/2000/svg"><path d="M3 9h4V5H3v4zm0 5h4v-4H3v4zm5 0h4v-4H8v4zm5 0h4v-4h-4v4zM8 9h4V5H8v4zm5-4v4h4V5h-4zm5 9h4v-4h-4v4zM3 19h4v-4H3v4zm5 0h4v-4H8v4zm5 0h4v-4h-4v4zm5 0h4v-4h-4v4zm0-14v4h4V5h-4z"/></svg><svg viewBox="0 0 24 24" id="view-list" xmlns="http://www.w3.org/2000/svg"><path d="M4 14h4v-4H4v4zm0 5h4v-4H4v4zM4 9h4V5H4v4zm5 5h12v-4H9v4zm0 5h12v-4H9v4zM9 5v4h12V5H9z"/></svg><svg viewBox="0 0 24 24" id="warning" xmlns="http://www.w3.org/2000/svg"><path d="M1 21h22L12 2 1 21zm12-3h-2v-2h2v2zm0-4h-2v-4h2v4z"/></svg><svg viewBox="0 0 24 24" id="web" xmlns="http://www.w3.org/2000/svg"><path d="M20 4H4c-1.1 0-1.99.9-1.99 2L2 18c0 1.1.9 2 2 2h16c1.1 0 2-.9 2-2V6c0-1.1-.9-2-2-2zm-5 14H4v-4h11v4zm0-5H4V9h11v4zm5 5h-4V9h4v9z"/></svg></defs></svg>