<?xml version="1.0" encoding="iso-8859-1"?>
<!-- Generator: Adobe Illustrator 18.0.0, SVG Export Plug-In . SVG Version: 6.00 Build 0)  -->
<!DOCTYPE svg PUBLIC "-//W3C//DTD SVG 1.1//EN" "http://www.w3.org/Graphics/SVG/1.1/DTD/svg11.dtd">
<svg version="1.1" id="Capa_1" xmlns="http://www.w3.org/2000/svg" xmlns:xlink="http://www.w3.org/1999/xlink" x="0px" y="0px"
	 viewBox="0 0 58 58" style="enable-background:new 0 0 58 58;" xml:space="preserve">
<g>
	<path style="fill:#FFDB2B;" d="M28.243,20.744c-11.348,0-19.746,0.571-20.745,1.256c-0.007,0.085-0.032,28-0.032,28
		c0,2.2,1.8,4,4,4h34c2.2,0,4-1.8,4-4c0,0,0.043-27.88,0.032-28C48.116,21.333,39.367,20.744,28.243,20.744z"/>
	<path style="fill:#464F5D;" d="M29,0C13.26,0,0.5,10.073,0.5,22.5c0,5.64,2.635,15.551,6.978,19.5
		c0.007-7.367,0.016-19.955,0.02-20c0.999-0.685,9.397-1.256,20.745-1.256c11.123,0,19.873,0.589,21.255,1.256
		c0.006,0.066-0.004,13.29-0.015,20.895C54.443,38.847,57.5,28.577,57.5,22.5C57.5,10.073,44.74,0,29,0z"/>
	<g>
		<path style="fill:#556080;" d="M27.5,27H7.775c0,5.523,4.477,10,10,10c5.185,0,10.085-3.947,10.664-9H27.5V27z"/>
		<path style="fill:#556080;" d="M29.5,27v1h-0.674c0.502,5.053,4.764,9,9.95,9c5.523,0,10-4.477,10-10H29.5z"/>
		<path style="fill:#556080;" d="M28.498,27c0,0.338-0.021,0.671-0.058,1h0.386c-0.033-0.329-0.05-0.662-0.05-1H28.498z"/>
		<path style="fill:#556080;" d="M27.5,27v1h0.94c0.038-0.329,0.058-0.662,0.058-1H27.5z"/>
		<path style="fill:#556080;" d="M29.5,27h-0.725c0,0.338,0.018,0.671,0.05,1H29.5V27z"/>
	</g>
	<g>
		<circle style="fill:#F29C1F;" cx="28.5" cy="42" r="4"/>
		<path style="fill:#F0C419;" d="M28.5,47c-2.757,0-5-2.243-5-5s2.243-5,5-5s5,2.243,5,5S31.257,47,28.5,47z M28.5,39
			c-1.654,0-3,1.346-3,3s1.346,3,3,3s3-1.346,3-3S30.154,39,28.5,39z"/>
	</g>
	<g>
		<path style="fill:#556080;" d="M43.48,47.71c0.19-0.19,0.3-0.45,0.3-0.71s-0.11-0.521-0.3-0.71c-0.36-0.37-1.05-0.37-1.41,0
			c-0.19,0.189-0.3,0.45-0.3,0.71s0.11,0.52,0.3,0.71c0.18,0.18,0.44,0.29,0.71,0.29C43.04,48,43.3,47.89,43.48,47.71z"/>
		<path style="fill:#556080;" d="M42.78,45c0.26,0,0.51-0.11,0.7-0.29c0.19-0.19,0.3-0.45,0.3-0.71s-0.11-0.521-0.3-0.71
			c-0.37-0.37-1.04-0.37-1.41,0c-0.19,0.189-0.3,0.45-0.3,0.71s0.11,0.52,0.3,0.71C42.26,44.89,42.51,45,42.78,45z"/>
		<path style="fill:#556080;" d="M45.77,45c0.27,0,0.52-0.11,0.71-0.29c0.19-0.19,0.3-0.45,0.3-0.71s-0.11-0.521-0.3-0.71
			c-0.37-0.37-1.04-0.37-1.41,0c-0.19,0.189-0.3,0.45-0.3,0.71s0.11,0.52,0.3,0.71C45.26,44.89,45.51,45,45.77,45z"/>
		<path style="fill:#556080;" d="M45.07,46.29c-0.19,0.189-0.29,0.45-0.29,0.71s0.1,0.52,0.29,0.71c0.19,0.18,0.45,0.29,0.71,0.29
			c0.26,0,0.51-0.11,0.7-0.29c0.19-0.19,0.29-0.45,0.29-0.71s-0.1-0.521-0.29-0.71C46.11,45.92,45.44,45.92,45.07,46.29z"/>
		<path style="fill:#556080;" d="M43.07,49.29c-0.19,0.189-0.29,0.439-0.29,0.71c0,0.27,0.1,0.52,0.29,0.71
			c0.19,0.18,0.44,0.29,0.71,0.29c0.25,0,0.51-0.101,0.7-0.29c0.19-0.19,0.29-0.45,0.29-0.71s-0.1-0.521-0.29-0.71
			C44.11,48.92,43.43,48.93,43.07,49.29z"/>
		<path style="fill:#556080;" d="M40.07,49.29c-0.19,0.189-0.29,0.45-0.29,0.71s0.1,0.52,0.29,0.71c0.19,0.18,0.44,0.29,0.7,0.29
			c0.27,0,0.52-0.11,0.71-0.29c0.19-0.19,0.3-0.45,0.3-0.71s-0.11-0.521-0.3-0.71C41.12,48.92,40.43,48.92,40.07,49.29z"/>
		<path style="fill:#556080;" d="M40.48,47.71c0.19-0.19,0.3-0.45,0.3-0.71s-0.11-0.521-0.3-0.71c-0.36-0.37-1.05-0.37-1.41,0
			c-0.19,0.189-0.3,0.45-0.3,0.71s0.11,0.52,0.3,0.71c0.18,0.18,0.44,0.29,0.71,0.29C40.04,48,40.3,47.89,40.48,47.71z"/>
		<path style="fill:#556080;" d="M37.07,49.29c-0.19,0.189-0.3,0.45-0.3,0.71s0.11,0.52,0.3,0.71c0.19,0.18,0.44,0.29,0.71,0.29
			c0.26,0,0.52-0.11,0.7-0.29c0.19-0.19,0.29-0.45,0.29-0.71s-0.1-0.521-0.29-0.71C38.12,48.92,37.43,48.92,37.07,49.29z"/>
		<path style="fill:#556080;" d="M34.07,49.29c-0.19,0.189-0.29,0.45-0.29,0.71s0.1,0.52,0.29,0.71c0.19,0.189,0.45,0.29,0.7,0.29
			c0.27,0,0.52-0.11,0.71-0.29c0.19-0.19,0.3-0.44,0.3-0.71c0-0.271-0.11-0.521-0.3-0.71C35.12,48.92,34.44,48.92,34.07,49.29z"/>
		<path style="fill:#556080;" d="M31.07,49.29c-0.19,0.189-0.3,0.45-0.3,0.71s0.11,0.52,0.3,0.71c0.19,0.18,0.44,0.29,0.71,0.29
			c0.26,0,0.51-0.101,0.7-0.29c0.19-0.19,0.3-0.45,0.3-0.71s-0.11-0.521-0.3-0.71C32.11,48.92,31.43,48.92,31.07,49.29z"/>
		<path style="fill:#556080;" d="M13.07,46.29c-0.19,0.189-0.29,0.45-0.29,0.71s0.1,0.52,0.29,0.71c0.19,0.18,0.45,0.29,0.71,0.29
			c0.26,0,0.51-0.11,0.7-0.29c0.19-0.19,0.29-0.45,0.29-0.71s-0.1-0.521-0.29-0.71C14.11,45.91,13.44,45.92,13.07,46.29z"/>
		<path style="fill:#556080;" d="M13.07,43.29c-0.19,0.189-0.29,0.439-0.29,0.71c0,0.27,0.1,0.52,0.29,0.71
			c0.19,0.189,0.45,0.29,0.71,0.29c0.26,0,0.51-0.101,0.7-0.29c0.19-0.19,0.29-0.44,0.29-0.71c0-0.271-0.1-0.521-0.29-0.71
			C14.1,42.92,13.45,42.92,13.07,43.29z"/>
		<path style="fill:#556080;" d="M10.78,45c0.25,0,0.51-0.101,0.7-0.29c0.19-0.19,0.29-0.44,0.29-0.71c0-0.26-0.1-0.521-0.29-0.71
			c-0.38-0.37-1.03-0.37-1.41,0C9.88,43.479,9.78,43.729,9.78,44c0,0.27,0.1,0.52,0.29,0.71C10.26,44.899,10.52,45,10.78,45z"/>
		<path style="fill:#556080;" d="M11.48,46.29c-0.36-0.37-1.05-0.37-1.41,0C9.88,46.479,9.78,46.729,9.78,47
			c0,0.27,0.1,0.52,0.29,0.71c0.18,0.18,0.44,0.29,0.71,0.29c0.26,0,0.52-0.11,0.7-0.29c0.19-0.19,0.29-0.45,0.29-0.71
			S11.67,46.479,11.48,46.29z"/>
		<path style="fill:#556080;" d="M12.07,49.29c-0.19,0.189-0.3,0.45-0.3,0.71s0.11,0.52,0.3,0.71c0.19,0.18,0.44,0.29,0.71,0.29
			c0.26,0,0.51-0.101,0.7-0.29c0.19-0.19,0.29-0.45,0.29-0.71s-0.1-0.521-0.29-0.71C13.12,48.92,12.43,48.92,12.07,49.29z"/>
		<path style="fill:#556080;" d="M15.07,49.29c-0.19,0.189-0.29,0.45-0.29,0.71s0.1,0.52,0.29,0.71c0.19,0.18,0.44,0.29,0.7,0.29
			c0.27,0,0.52-0.11,0.71-0.29c0.19-0.19,0.3-0.45,0.3-0.71s-0.11-0.521-0.3-0.71C16.12,48.92,15.43,48.92,15.07,49.29z"/>
		<path style="fill:#556080;" d="M17.48,46.29c-0.36-0.37-1.05-0.37-1.41,0c-0.19,0.189-0.29,0.45-0.29,0.71s0.1,0.52,0.29,0.71
			c0.18,0.18,0.44,0.29,0.7,0.29c0.27,0,0.53-0.11,0.71-0.29c0.19-0.19,0.3-0.45,0.3-0.71S17.67,46.479,17.48,46.29z"/>
		<path style="fill:#556080;" d="M18.07,49.29c-0.19,0.189-0.29,0.439-0.29,0.71c0,0.27,0.1,0.52,0.29,0.71
			c0.19,0.18,0.44,0.29,0.71,0.29c0.25,0,0.51-0.101,0.7-0.29c0.19-0.19,0.29-0.45,0.29-0.71s-0.1-0.521-0.29-0.71
			C19.11,48.92,18.43,48.93,18.07,49.29z"/>
		<path style="fill:#556080;" d="M22.07,49.29c-0.19,0.189-0.3,0.45-0.3,0.71s0.11,0.52,0.3,0.71c0.19,0.18,0.44,0.29,0.71,0.29
			c0.26,0,0.52-0.11,0.7-0.29c0.19-0.19,0.29-0.45,0.29-0.71s-0.1-0.521-0.29-0.71C23.12,48.92,22.43,48.92,22.07,49.29z"/>
		<path style="fill:#556080;" d="M25.07,49.29c-0.19,0.189-0.29,0.45-0.29,0.71s0.1,0.52,0.29,0.71c0.19,0.18,0.44,0.29,0.7,0.29
			c0.27,0,0.52-0.11,0.71-0.29c0.19-0.19,0.3-0.45,0.3-0.71s-0.11-0.521-0.3-0.71C26.12,48.92,25.43,48.92,25.07,49.29z"/>
		<path style="fill:#556080;" d="M28.07,49.29c-0.19,0.189-0.29,0.439-0.29,0.71c0,0.27,0.1,0.52,0.29,0.71
			c0.19,0.18,0.44,0.29,0.71,0.29c0.25,0,0.51-0.101,0.7-0.29c0.19-0.19,0.29-0.45,0.29-0.71s-0.1-0.521-0.29-0.71
			C29.11,48.92,28.43,48.93,28.07,49.29z"/>
	</g>
	<path style="fill:#FEC722;" d="M40.193,58H16.804c-0.721,0-1.305-0.584-1.305-1.305V54h26v2.695C41.498,57.416,40.914,58,40.193,58
		z"/>
	<path style="fill:#ECF0F1;" d="M49.207,15.465l-2.828-2.828c0,0,0,0,0-0.001l-0.001,0L37.894,4.15
		c-0.375-0.375-1.039-0.375-1.414,0l-2.829,2.829c-0.391,0.391-0.391,1.023,0,1.414s1.023,0.391,1.414,0l2.122-2.122l1.414,1.415
		l-2.122,2.122c-0.391,0.391-0.391,1.023,0,1.414c0.195,0.195,0.451,0.293,0.707,0.293s0.512-0.098,0.707-0.293L40.015,9.1
		l1.414,1.415l-2.122,2.121c-0.391,0.391-0.391,1.023,0,1.414c0.195,0.195,0.451,0.293,0.707,0.293s0.512-0.098,0.707-0.293
		l2.121-2.121l1.414,1.414l-2.121,2.122c-0.391,0.391-0.391,1.023,0,1.414c0.195,0.195,0.451,0.293,0.707,0.293
		s0.512-0.098,0.707-0.293l2.121-2.122l1.415,1.415l-2.122,2.121c-0.391,0.391-0.391,1.023,0,1.414
		C45.16,19.902,45.416,20,45.671,20s0.512-0.098,0.707-0.293l2.829-2.828c0.188-0.188,0.293-0.441,0.293-0.707
		S49.395,15.652,49.207,15.465z"/>
	<path style="fill:#8697CB;" d="M13.361,27l-2.293,2.293c-0.391,0.391-0.391,1.023,0,1.414C11.264,30.902,11.52,31,11.775,31
		s0.512-0.098,0.707-0.293L16.189,27H13.361z"/>
	<path style="fill:#8697CB;" d="M19.361,27l-4.293,4.293c-0.391,0.391-0.391,1.023,0,1.414C15.264,32.902,15.52,33,15.775,33
		s0.512-0.098,0.707-0.293L22.189,27H19.361z"/>
	<path style="fill:#8697CB;" d="M34.234,27l-2.186,2.313c-0.379,0.401-0.361,1.034,0.04,1.413C32.282,30.909,32.529,31,32.775,31
		c0.265,0,0.53-0.105,0.727-0.313L36.986,27H34.234z"/>
	<path style="fill:#8697CB;" d="M40.361,27l-4.293,4.293c-0.391,0.391-0.391,1.023,0,1.414C36.264,32.902,36.52,33,36.775,33
		s0.512-0.098,0.707-0.293L43.189,27H40.361z"/>
</g>
<g>
</g>
<g>
</g>
<g>
</g>
<g>
</g>
<g>
</g>
<g>
</g>
<g>
</g>
<g>
</g>
<g>
</g>
<g>
</g>
<g>
</g>
<g>
</g>
<g>
</g>
<g>
</g>
<g>
</g>
</svg>
