<?xml version="1.0" encoding="iso-8859-1"?>
<!-- Generator: Adobe Illustrator 18.0.0, SVG Export Plug-In . SVG Version: 6.00 Build 0)  -->
<!DOCTYPE svg PUBLIC "-//W3C//DTD SVG 1.1//EN" "http://www.w3.org/Graphics/SVG/1.1/DTD/svg11.dtd">
<svg version="1.1" id="Capa_1" xmlns="http://www.w3.org/2000/svg" xmlns:xlink="http://www.w3.org/1999/xlink" x="0px" y="0px"
	 viewBox="0 0 47.226 47.226" style="enable-background:new 0 0 47.226 47.226;" xml:space="preserve">
<g>
	<path style="fill:#FFD581;" d="M39.226,35.657c-2.928,5.475-8.97,9.912-15.613,9.912c-7.345,0-13.837-4.475-16.387-10.912
		l-2.833-8.758L5.476,14.49l25.917-0.558l9.5,1.725l0.583,15.086L39.226,35.657z"/>
	<path style="fill:#414141;" d="M7.226,18.657h32c0.005,0.055,0.009,10.699,0,17c4.109-3.354,8-10.323,8-15.358
		c0-10.296-10.572-18.642-23.613-18.642S0,10.003,0,20.299c0,4.673,3.628,11.086,7.226,14.358
		C7.233,28.553,7.223,18.694,7.226,18.657z"/>
	<g>
		<path style="fill:#556080;" d="M21.608,24.537c0,2.235-0.759,7.08-10.115,6.069c-3.888-0.42-4.046-3.834-4.046-6.069l0,0
			C11.835,22.03,17.221,22.03,21.608,24.537L21.608,24.537z"/>
		<path style="fill:#464F5D;" d="M13.859,31.742c-0.776,0-1.601-0.047-2.473-0.142c-4.938-0.533-4.938-5.277-4.938-7.063v-0.58
			l0.504-0.288c4.672-2.67,10.479-2.67,15.153,0l0.504,0.288v0.58c0,2.202-0.701,3.948-2.084,5.19
			C19.031,31.067,16.795,31.742,13.859,31.742z M8.456,25.128c0.075,2.583,0.701,4.221,3.145,4.484
			c3.588,0.387,6.139-0.074,7.586-1.373c0.838-0.753,1.299-1.776,1.4-3.118C16.793,23.177,12.246,23.18,8.456,25.128z"/>
	</g>
	<g>
		<path style="fill:#556080;" d="M25.065,24.537c0,2.235,0.759,7.08,10.115,6.069c3.888-0.42,4.046-3.834,4.046-6.069l0,0
			C34.839,22.03,29.453,22.03,25.065,24.537L25.065,24.537z"/>
		<path style="fill:#464F5D;" d="M32.815,31.742c-2.936,0-5.171-0.675-6.665-2.015c-1.383-1.242-2.085-2.988-2.085-5.19v-0.58
			l0.504-0.288c4.674-2.67,10.481-2.669,15.153,0l0.504,0.288v0.58c0,1.786,0,6.53-4.938,7.063
			C34.415,31.695,33.59,31.742,32.815,31.742z M26.086,25.121c0.101,1.342,0.562,2.365,1.4,3.118c1.447,1.299,4,1.763,7.587,1.373
			c2.444-0.264,3.07-1.901,3.145-4.484C34.429,23.179,29.88,23.178,26.086,25.121z"/>
	</g>
	<path style="fill:#8697CB;" d="M10.429,28.016c-0.256,0-0.512-0.098-0.707-0.293c-0.391-0.391-0.391-1.023,0-1.414l2.236-2.235
		c0.391-0.391,1.024-0.391,1.414,0c0.391,0.391,0.391,1.023,0,1.414l-2.236,2.235C10.94,27.919,10.684,28.016,10.429,28.016z"/>
	<path style="fill:#8697CB;" d="M13.41,29.508c-0.256,0-0.512-0.098-0.707-0.293c-0.391-0.391-0.391-1.023,0-1.414l3.727-3.727
		c0.391-0.391,1.023-0.391,1.414,0s0.391,1.023,0,1.414l-3.727,3.727C13.922,29.41,13.666,29.508,13.41,29.508z"/>
	<path style="fill:#8697CB;" d="M28.047,28.016c-0.256,0-0.512-0.098-0.707-0.293c-0.391-0.391-0.391-1.023,0-1.414l2.236-2.235
		c0.391-0.391,1.023-0.391,1.414,0s0.391,1.023,0,1.414l-2.236,2.235C28.558,27.919,28.303,28.016,28.047,28.016z"/>
	<path style="fill:#8697CB;" d="M31.028,29.508c-0.256,0-0.512-0.098-0.707-0.293c-0.391-0.391-0.391-1.023,0-1.414l3.727-3.727
		c0.391-0.391,1.023-0.391,1.414,0s0.391,1.023,0,1.414l-3.727,3.727C31.54,29.41,31.284,29.508,31.028,29.508z"/>
	<path style="fill:#CB8252;" d="M22.857,41.559c-1.822,0-3.617-0.688-5.349-2.056c-0.434-0.343-0.507-0.972-0.165-1.405
		c0.343-0.433,0.971-0.506,1.404-0.165c1.626,1.284,3.277,1.816,4.908,1.565c3.082-0.464,5.18-3.465,5.201-3.495
		c0.313-0.455,0.935-0.572,1.391-0.256c0.455,0.313,0.569,0.936,0.256,1.391c-0.105,0.152-2.621,3.746-6.55,4.339
		C23.588,41.532,23.222,41.559,22.857,41.559z"/>
	<path style="fill:#CB8252;" d="M30.631,38.128c-0.208,0-0.419-0.065-0.599-0.2l-1.96-1.471c-0.442-0.331-0.531-0.958-0.2-1.4
		c0.331-0.441,0.958-0.53,1.4-0.199l1.96,1.471c0.442,0.331,0.531,0.958,0.2,1.4C31.235,37.99,30.935,38.128,30.631,38.128z"/>
	<path style="fill:#CB8252;" d="M16.908,40.089c-0.304,0-0.604-0.138-0.801-0.399c-0.332-0.442-0.242-1.069,0.2-1.4l1.96-1.471
		c0.442-0.331,1.07-0.241,1.4,0.199c0.332,0.442,0.242,1.069-0.2,1.4l-1.96,1.471C17.327,40.023,17.117,40.089,16.908,40.089z"/>
	<path style="fill:#FFFFFF;" d="M24.974,8.318l-1.725-3.531c-0.116-0.239-0.323-0.421-0.573-0.507
		c-0.253-0.089-0.526-0.069-0.764,0.047l-3.071,1.5c-0.019,0.008-0.04,0.006-0.059,0.015c-0.019,0.009-0.03,0.026-0.048,0.037
		L7.787,11.227c-0.496,0.242-0.702,0.841-0.459,1.337l1.725,3.531c0.173,0.355,0.529,0.562,0.899,0.562
		c0.147,0,0.297-0.032,0.438-0.102c0.496-0.242,0.702-0.841,0.459-1.337l-1.286-2.633l1.734-0.847l1.286,2.632
		c0.173,0.355,0.529,0.562,0.899,0.562c0.147,0,0.297-0.032,0.438-0.102c0.496-0.242,0.702-0.841,0.459-1.337l-1.286-2.633
		l2.274-1.111l1.438,2.944c0.173,0.355,0.529,0.562,0.899,0.562c0.147,0,0.297-0.032,0.438-0.102
		c0.496-0.242,0.702-0.841,0.459-1.337l-1.439-2.945l1.602-0.783l1.281,2.621c0.173,0.354,0.529,0.561,0.899,0.561
		c0.147,0,0.297-0.032,0.438-0.102c0.496-0.242,0.702-0.841,0.459-1.338l-1.28-2.62l1.327-0.648l1.286,2.632
		c0.242,0.496,0.84,0.705,1.337,0.46C25.011,9.413,25.217,8.814,24.974,8.318z"/>
	<rect x="21.226" y="23.657" style="fill:#464F5D;" width="4" height="2"/>
</g>
<g>
</g>
<g>
</g>
<g>
</g>
<g>
</g>
<g>
</g>
<g>
</g>
<g>
</g>
<g>
</g>
<g>
</g>
<g>
</g>
<g>
</g>
<g>
</g>
<g>
</g>
<g>
</g>
<g>
</g>
</svg>
