<?xml version="1.0" encoding="iso-8859-1"?>
<!-- Generator: Adobe Illustrator 18.0.0, SVG Export Plug-In . SVG Version: 6.00 Build 0)  -->
<!DOCTYPE svg PUBLIC "-//W3C//DTD SVG 1.1//EN" "http://www.w3.org/Graphics/SVG/1.1/DTD/svg11.dtd">
<svg version="1.1" id="Capa_1" xmlns="http://www.w3.org/2000/svg" xmlns:xlink="http://www.w3.org/1999/xlink" x="0px" y="0px"
	 viewBox="0 0 51 51" style="enable-background:new 0 0 51 51;" xml:space="preserve">
<g>
	<path style="fill:#FFDB2B;" d="M42.5,47h-34c-2.2,0-4-1.8-4-4V10c0-2.2,1.8-4,4-4h34c2.2,0,4,1.8,4,4v33C46.5,45.2,44.7,47,42.5,47
		z"/>
	<path style="fill:#FEC722;" d="M37.195,51H13.805c-0.721,0-1.305-0.584-1.305-1.305V47h26v2.695C38.5,50.416,37.916,51,37.195,51z"
		/>
	<path style="fill:#FEC722;" d="M19.805,0l11.389,0C31.916,0,32.5,0.584,32.5,1.305V6h-14V1.305C18.5,0.584,19.084,0,19.805,0z"/>
	<path style="fill:#81CCB8;" d="M8.492,23.81c-2.009-3.413-0.871-7.809,2.543-9.818s7.809-0.871,9.818,2.543
		s3.902,12.96,0.488,14.969S10.501,27.224,8.492,23.81z"/>
	<path style="fill:#81CCB8;" d="M42.508,23.81c2.009-3.413,0.871-7.809-2.543-9.818c-3.413-2.009-7.809-0.871-9.818,2.543
		s-3.902,12.96-0.488,14.969S40.499,27.224,42.508,23.81z"/>
	<path style="fill:#14A085;" d="M11.223,23.146c-0.256,0-0.512-0.098-0.707-0.293c-0.391-0.391-0.391-1.023,0-1.414l5.146-5.146
		c0.391-0.391,1.023-0.391,1.414,0s0.391,1.023,0,1.414l-5.146,5.146C11.734,23.048,11.479,23.146,11.223,23.146z"/>
	<path style="fill:#14A085;" d="M14.368,25c-0.256,0-0.512-0.098-0.707-0.293c-0.391-0.391-0.391-1.023,0-1.414l3.146-3.146
		c0.391-0.391,1.023-0.391,1.414,0s0.391,1.023,0,1.414l-3.146,3.146C14.88,24.902,14.624,25,14.368,25z"/>
	<path style="fill:#14A085;" d="M17.368,27c-0.256,0-0.512-0.098-0.707-0.293c-0.391-0.391-0.391-1.023,0-1.414l1.146-1.146
		c0.391-0.391,1.023-0.391,1.414,0s0.391,1.023,0,1.414l-1.146,1.146C17.88,26.902,17.624,27,17.368,27z"/>
	<path style="fill:#546A79;" d="M27.5,40h-4c-0.552,0-1-0.447-1-1s0.448-1,1-1h4c0.552,0,1,0.447,1,1S28.052,40,27.5,40z"/>
	<path style="fill:#14A085;" d="M39.777,23.146c-0.256,0-0.512-0.098-0.707-0.293l-5.146-5.146c-0.391-0.391-0.391-1.023,0-1.414
		s1.023-0.391,1.414,0l5.146,5.146c0.391,0.391,0.391,1.023,0,1.414C40.289,23.048,40.033,23.146,39.777,23.146z"/>
	<path style="fill:#14A085;" d="M36.632,25c-0.256,0-0.512-0.098-0.707-0.293l-3.146-3.146c-0.391-0.391-0.391-1.023,0-1.414
		s1.023-0.391,1.414,0l3.146,3.146c0.391,0.391,0.391,1.023,0,1.414C37.144,24.902,36.888,25,36.632,25z"/>
	<path style="fill:#14A085;" d="M33.632,27c-0.256,0-0.512-0.098-0.707-0.293l-1.146-1.146c-0.391-0.391-0.391-1.023,0-1.414
		s1.023-0.391,1.414,0l1.146,1.146c0.391,0.391,0.391,1.023,0,1.414C34.144,26.902,33.888,27,33.632,27z"/>
</g>
<g>
</g>
<g>
</g>
<g>
</g>
<g>
</g>
<g>
</g>
<g>
</g>
<g>
</g>
<g>
</g>
<g>
</g>
<g>
</g>
<g>
</g>
<g>
</g>
<g>
</g>
<g>
</g>
<g>
</g>
</svg>
