<?xml version="1.0" encoding="iso-8859-1"?>
<!-- Generator: Adobe Illustrator 18.0.0, SVG Export Plug-In . SVG Version: 6.00 Build 0)  -->
<!DOCTYPE svg PUBLIC "-//W3C//DTD SVG 1.1//EN" "http://www.w3.org/Graphics/SVG/1.1/DTD/svg11.dtd">
<svg version="1.1" id="Capa_1" xmlns="http://www.w3.org/2000/svg" xmlns:xlink="http://www.w3.org/1999/xlink" x="0px" y="0px"
	 viewBox="0 0 58 58" style="enable-background:new 0 0 58 58;" xml:space="preserve">
<g>
	<path style="fill:#5DA892;" d="M15,15.929c-0.552,0-1-0.447-1-1c0-5.514-3.589-10-8-10c-0.552,0-1-0.447-1-1s0.448-1,1-1
		c5.514,0,10,5.383,10,12C16,15.482,15.552,15.929,15,15.929z"/>
	<path style="fill:#5DA892;" d="M43,14.071c-0.552,0-1-0.447-1-1c0-5.552,3.449-9,9-9c0.553,0,1,0.447,1,1s-0.447,1-1,1
		c-4.448,0-7,2.552-7,7C44,13.624,43.552,14.071,43,14.071z"/>
	<path style="fill:#81CCB8;" d="M29.392,57.067c11.246,0.156,17.52-4.381,21.008-9.189c3.603-4.966,4.764-11.283,3.647-17.323
		C50.004,8.709,29.392,8.894,29.392,8.894S8.781,8.709,4.738,30.555c-1.118,6.04,0.044,12.356,3.647,17.323
		C11.872,52.685,18.146,57.223,29.392,57.067z"/>
	<path style="fill:#14A085;" d="M4.499,32.192c-0.453-0.429-0.985-0.687-1.559-0.687C1.316,31.505,0,33.486,0,35.929
		c0,2.443,1.316,4.424,2.939,4.424c0.687,0,1.311-0.37,1.811-0.964C4.297,37.037,4.218,34.605,4.499,32.192z"/>
	<path style="fill:#14A085;" d="M57.823,28.365c-0.563-2.377-2.3-3.999-3.879-3.622c-0.491,0.117-0.898,0.43-1.225,0.855
		c0.538,1.515,0.994,3.154,1.328,4.957c0.155,0.837,0.261,1.679,0.328,2.522c0.52,0.284,1.072,0.402,1.608,0.274
		C57.562,32.975,58.386,30.742,57.823,28.365z"/>
	<ellipse style="fill:#FFFFFF;" cx="29.5" cy="23.071" rx="7.5" ry="6"/>
	<ellipse style="fill:#5DA892;" cx="29.5" cy="23.071" rx="4.5" ry="3"/>
	<ellipse style="fill:#FFFFFF;" cx="16.5" cy="29.071" rx="7.5" ry="6"/>
	<ellipse style="fill:#5DA892;" cx="16.5" cy="29.071" rx="4.5" ry="3"/>
	<ellipse style="fill:#FFFFFF;" cx="42.5" cy="29.071" rx="7.5" ry="6"/>
	<ellipse style="fill:#5DA892;" cx="42.5" cy="29.071" rx="4.5" ry="3"/>
	<path style="fill:#5DA892;" d="M45.6,41.271l-4-3c-0.442-0.331-1.068-0.242-1.4,0.2c-0.332,0.441-0.242,1.068,0.2,1.399l1.41,1.057
		c-1.273,1.601-5.348,6.18-10.898,7.011c-3.509,0.528-7.038-0.554-10.491-3.184l1.18-0.885c0.442-0.331,0.531-0.958,0.2-1.399
		c-0.331-0.442-0.956-0.53-1.4-0.2l-4,3c-0.442,0.331-0.531,0.958-0.2,1.399c0.196,0.263,0.497,0.4,0.801,0.4
		c0.208,0,0.419-0.065,0.599-0.2l1.177-0.883c0.034,0.036,0.055,0.081,0.095,0.112c3.344,2.641,6.792,3.971,10.278,3.971
		c0.689,0,1.38-0.052,2.072-0.156c6.351-0.957,10.796-6,12.191-7.784l0.987,0.74c0.18,0.135,0.391,0.2,0.599,0.2
		c0.304,0,0.604-0.138,0.801-0.4C46.132,42.229,46.042,41.602,45.6,41.271z"/>
	<circle style="fill:#14A085;" cx="3" cy="3.929" r="3"/>
	<circle style="fill:#14A085;" cx="54" cy="5.071" r="3"/>
</g>
<g>
</g>
<g>
</g>
<g>
</g>
<g>
</g>
<g>
</g>
<g>
</g>
<g>
</g>
<g>
</g>
<g>
</g>
<g>
</g>
<g>
</g>
<g>
</g>
<g>
</g>
<g>
</g>
<g>
</g>
</svg>
