<?xml version="1.0" encoding="iso-8859-1"?>
<!-- Generator: Adobe Illustrator 18.0.0, SVG Export Plug-In . SVG Version: 6.00 Build 0)  -->
<!DOCTYPE svg PUBLIC "-//W3C//DTD SVG 1.1//EN" "http://www.w3.org/Graphics/SVG/1.1/DTD/svg11.dtd">
<svg version="1.1" id="Capa_1" xmlns="http://www.w3.org/2000/svg" xmlns:xlink="http://www.w3.org/1999/xlink" x="0px" y="0px"
	 viewBox="0 0 55 55" style="enable-background:new 0 0 55 55;" xml:space="preserve">
<g>
	<path style="fill:#F18D46;" d="M41.949,20.26c-0.384,0-0.749-0.221-0.915-0.594c-0.224-0.505,0.003-1.096,0.508-1.32
		C45.646,16.522,48,14.026,48,11.5C48,6.351,38.612,2,27.5,2S7,6.351,7,11.5c0,2.381,2.114,4.771,5.802,6.555
		c0.497,0.241,0.705,0.839,0.465,1.336c-0.24,0.496-0.834,0.705-1.336,0.465C7.461,17.691,5,14.725,5,11.5C5,5.052,14.883,0,27.5,0
		S50,5.052,50,11.5c0,3.402-2.715,6.482-7.646,8.674C42.223,20.232,42.084,20.26,41.949,20.26z"/>
	<circle style="fill:#FBD971;" cx="27" cy="34" r="21"/>
	<path style="fill:#F0C419;" d="M27,49c-6.617,0-12-5.383-12-12c0-0.553,0.447-1,1-1s1,0.447,1,1c0,5.514,4.486,10,10,10
		s10-4.486,10-10c0-0.553,0.447-1,1-1s1,0.447,1,1C39,43.617,33.617,49,27,49z"/>
	<circle style="fill:#AF8066;" cx="18.5" cy="27.5" r="3.5"/>
	<circle style="fill:#AF8066;" cx="34.5" cy="27.5" r="3.5"/>
</g>
<g>
</g>
<g>
</g>
<g>
</g>
<g>
</g>
<g>
</g>
<g>
</g>
<g>
</g>
<g>
</g>
<g>
</g>
<g>
</g>
<g>
</g>
<g>
</g>
<g>
</g>
<g>
</g>
<g>
</g>
</svg>
