<?xml version="1.0" encoding="iso-8859-1"?>
<!-- Generator: Adobe Illustrator 18.0.0, SVG Export Plug-In . SVG Version: 6.00 Build 0)  -->
<!DOCTYPE svg PUBLIC "-//W3C//DTD SVG 1.1//EN" "http://www.w3.org/Graphics/SVG/1.1/DTD/svg11.dtd">
<svg version="1.1" id="Capa_1" xmlns="http://www.w3.org/2000/svg" xmlns:xlink="http://www.w3.org/1999/xlink" x="0px" y="0px"
	 viewBox="0 0 42 42" style="enable-background:new 0 0 42 42;" xml:space="preserve">
<g>
	<circle style="fill:#FBD971;" cx="21" cy="21" r="21"/>
	<path style="fill:#F0C419;" d="M32,35c-0.553,0-1-0.448-1-1c0-5.514-4.486-10-10-10s-10,4.486-10,10c0,0.552-0.447,1-1,1
		s-1-0.448-1-1c0-6.617,5.383-12,12-12s12,5.383,12,12C33,34.552,32.553,35,32,35z"/>
	<path style="fill:#F29C1F;" d="M17.001,15c-0.294,0-0.584-0.128-0.782-0.375l-4-5c-0.345-0.431-0.274-1.061,0.156-1.405
		c0.433-0.346,1.06-0.274,1.406,0.156l4,5c0.345,0.431,0.274,1.061-0.156,1.405C17.44,14.928,17.22,15,17.001,15z"/>
	<path style="fill:#F29C1F;" d="M24.999,15c-0.219,0-0.439-0.072-0.624-0.219c-0.431-0.345-0.501-0.974-0.156-1.405l4-5
		c0.347-0.43,0.975-0.501,1.406-0.156c0.431,0.345,0.501,0.974,0.156,1.405l-4,5C25.583,14.872,25.293,15,24.999,15z"/>
</g>
<g>
</g>
<g>
</g>
<g>
</g>
<g>
</g>
<g>
</g>
<g>
</g>
<g>
</g>
<g>
</g>
<g>
</g>
<g>
</g>
<g>
</g>
<g>
</g>
<g>
</g>
<g>
</g>
<g>
</g>
</svg>
