<?xml version="1.0" encoding="iso-8859-1"?>
<!-- Generator: Adobe Illustrator 18.0.0, SVG Export Plug-In . SVG Version: 6.00 Build 0)  -->
<!DOCTYPE svg PUBLIC "-//W3C//DTD SVG 1.1//EN" "http://www.w3.org/Graphics/SVG/1.1/DTD/svg11.dtd">
<svg version="1.1" id="Capa_1" xmlns="http://www.w3.org/2000/svg" xmlns:xlink="http://www.w3.org/1999/xlink" x="0px" y="0px"
	 viewBox="0 0 58 58" style="enable-background:new 0 0 58 58;" xml:space="preserve">
<g>
	<path style="fill:#FDC794;" d="M29.392,54.999c11.246,0.156,17.52-4.381,21.008-9.189c3.603-4.966,4.764-11.283,3.647-17.323
		C50.004,6.641,29.392,6.826,29.392,6.826S8.781,6.641,4.738,28.488c-1.118,6.04,0.044,12.356,3.647,17.323
		C11.872,50.617,18.146,55.155,29.392,54.999z"/>
	<path style="fill:#F9A671;" d="M28.519,30.599c-0.167,0-0.335-0.041-0.491-0.129l-13.966-7.883
		c-0.481-0.271-0.65-0.882-0.379-1.362c0.272-0.481,0.881-0.65,1.363-0.38l13.966,7.883c0.481,0.271,0.65,0.882,0.379,1.362
		C29.207,30.416,28.868,30.599,28.519,30.599z"/>
	<path style="fill:#F9A671;" d="M28.52,30.599c-0.266,0-0.532-0.105-0.729-0.314c-0.378-0.402-0.359-1.035,0.043-1.414L41.8,15.732
		c0.402-0.378,1.035-0.358,1.414,0.043c0.378,0.402,0.359,1.035-0.043,1.414L29.205,30.327
		C29.012,30.509,28.766,30.599,28.52,30.599z"/>
	<ellipse style="fill:#7F5B53;" cx="19.354" cy="30.912" rx="3.055" ry="3.066"/>
	<ellipse style="fill:#7F5B53;" cx="39.43" cy="27.409" rx="3.055" ry="3.066"/>
	<path style="fill:#F9A671;" d="M19.79,48.116c-0.196,0-0.394-0.058-0.567-0.178c-0.454-0.313-0.569-0.935-0.256-1.39
		c0.204-0.296,5.086-7.271,12.661-8.412c4.186-0.634,8.344,0.651,12.35,3.814c0.434,0.343,0.507,0.972,0.165,1.405
		s-0.971,0.506-1.404,0.165c-3.55-2.804-7.187-3.948-10.8-3.409c-6.712,1.005-11.28,7.507-11.325,7.572
		C20.419,47.965,20.107,48.116,19.79,48.116z"/>
	<path style="fill:#F9A671;" d="M4.499,30.124c-0.453-0.429-0.985-0.687-1.559-0.687C1.316,29.437,0,31.418,0,33.862
		c0,2.443,1.316,4.424,2.939,4.424c0.687,0,1.311-0.37,1.811-0.964C4.297,34.969,4.218,32.537,4.499,30.124z"/>
	<path style="fill:#F9A671;" d="M57.823,26.298c-0.563-2.377-2.3-3.999-3.879-3.622c-0.491,0.117-0.898,0.43-1.225,0.855
		c0.538,1.515,0.994,3.154,1.328,4.957c0.155,0.837,0.261,1.679,0.328,2.522c0.52,0.284,1.072,0.402,1.608,0.274
		C57.562,30.907,58.386,28.675,57.823,26.298z"/>
	<path style="fill:#5E5F62;" d="M13.9,16.998c-0.256,0-0.512-0.098-0.707-0.293l-5-5c-0.391-0.391-0.391-1.023,0-1.414
		s1.023-0.391,1.414,0l5,5c0.391,0.391,0.391,1.023,0,1.414C14.412,16.901,14.156,16.998,13.9,16.998z"/>
	<path style="fill:#5E5F62;" d="M16.901,13.998c-0.367,0-0.72-0.202-0.896-0.553l-3-6c-0.247-0.494-0.047-1.095,0.447-1.342
		c0.495-0.246,1.095-0.047,1.342,0.447l3,6c0.247,0.494,0.047,1.095-0.447,1.342C17.204,13.964,17.051,13.998,16.901,13.998z"/>
	<path style="fill:#5E5F62;" d="M20.9,11.998c-0.419,0-0.809-0.265-0.949-0.684l-2-6C17.777,4.79,18.06,4.224,18.584,4.05
		c0.526-0.177,1.091,0.108,1.265,0.632l2,6c0.175,0.524-0.108,1.091-0.632,1.265C21.112,11.982,21.005,11.998,20.9,11.998z"/>
	<path style="fill:#5E5F62;" d="M25.899,10.998c-0.48,0-0.904-0.347-0.985-0.836l-1-6c-0.091-0.544,0.277-1.06,0.822-1.15
		c0.546-0.095,1.06,0.278,1.151,0.822l1,6c0.091,0.544-0.277,1.06-0.822,1.15C26.009,10.994,25.954,10.998,25.899,10.998z"/>
	<path style="fill:#5E5F62;" d="M29.9,10.998c-0.552,0-1-0.447-1-1v-6c0-0.553,0.448-1,1-1s1,0.447,1,1v6
		C30.9,10.551,30.453,10.998,29.9,10.998z"/>
	<path style="fill:#5E5F62;" d="M33.9,10.998c-0.104,0-0.211-0.017-0.316-0.052c-0.524-0.174-0.807-0.74-0.632-1.265l2-6
		c0.175-0.523,0.74-0.809,1.265-0.632c0.524,0.174,0.807,0.74,0.632,1.265l-2,6C34.71,10.734,34.319,10.998,33.9,10.998z"/>
	<path style="fill:#5E5F62;" d="M37.9,11.998c-0.104,0-0.211-0.017-0.316-0.052c-0.524-0.174-0.807-0.74-0.632-1.265l2-6
		c0.174-0.523,0.739-0.809,1.265-0.632c0.524,0.174,0.807,0.74,0.632,1.265l-2,6C38.71,11.734,38.319,11.998,37.9,11.998z"/>
	<path style="fill:#5E5F62;" d="M40.899,13.998c-0.15,0-0.303-0.034-0.446-0.105c-0.494-0.247-0.694-0.848-0.447-1.342l3-6
		c0.247-0.494,0.847-0.693,1.342-0.447c0.494,0.247,0.694,0.848,0.447,1.342l-3,6C41.62,13.796,41.267,13.998,40.899,13.998z"/>
	<path style="fill:#F9A671;" d="M20.899,49.998c-0.208,0-0.419-0.065-0.599-0.2l-4-3c-0.442-0.331-0.531-0.958-0.2-1.399
		c0.331-0.442,0.957-0.531,1.4-0.2l4,3c0.442,0.331,0.531,0.958,0.2,1.399C21.504,49.861,21.204,49.998,20.899,49.998z"/>
	<path style="fill:#F9A671;" d="M41.901,44.998c-0.304,0-0.604-0.138-0.801-0.4c-0.332-0.441-0.242-1.068,0.2-1.399l4-3
		c0.444-0.33,1.069-0.242,1.4,0.2c0.332,0.441,0.242,1.068-0.2,1.399l-4,3C42.32,44.933,42.11,44.998,41.901,44.998z"/>
</g>
<g>
</g>
<g>
</g>
<g>
</g>
<g>
</g>
<g>
</g>
<g>
</g>
<g>
</g>
<g>
</g>
<g>
</g>
<g>
</g>
<g>
</g>
<g>
</g>
<g>
</g>
<g>
</g>
<g>
</g>
</svg>
