<?xml version="1.0" encoding="iso-8859-1"?>
<!-- Generator: Adobe Illustrator 18.0.0, SVG Export Plug-In . SVG Version: 6.00 Build 0)  -->
<!DOCTYPE svg PUBLIC "-//W3C//DTD SVG 1.1//EN" "http://www.w3.org/Graphics/SVG/1.1/DTD/svg11.dtd">
<svg version="1.1" id="Capa_1" xmlns="http://www.w3.org/2000/svg" xmlns:xlink="http://www.w3.org/1999/xlink" x="0px" y="0px"
	 viewBox="0 0 57 57" style="enable-background:new 0 0 57 57;" xml:space="preserve">
<g>
	<path style="fill:#6E5847;" d="M28.5,0C14.475,0,3,11.475,3,25.5V50c0,2.2,1.8,4,4,4h6.777c4.16,2.021,9.237,3,14.723,3
		s10.563-0.979,14.723-3H50c2.2,0,4-1.8,4-4V25.5C54,11.475,42.525,0,28.5,0z"/>
	<path style="fill:#FDC794;" d="M3.869,29.894C3.305,32.001,3,34.215,3,36.5C3,50.583,14.417,57,28.5,57S54,50.583,54,36.5
		C54,22.842,42.495,11.661,29,11h-1C14.505,11.661,3,22.842,3,36.5C3,50.583,14.417,57,28.5,57S54,50.583,54,36.5"/>
	<g>
		<circle style="fill:#D0E8F9;" cx="18.723" cy="32.5" r="6.5"/>
		<path style="fill:#556080;" d="M18.723,40c-4.136,0-7.5-3.364-7.5-7.5s3.364-7.5,7.5-7.5s7.5,3.364,7.5,7.5S22.858,40,18.723,40z
			 M18.723,27c-3.032,0-5.5,2.468-5.5,5.5s2.468,5.5,5.5,5.5s5.5-2.468,5.5-5.5S21.755,27,18.723,27z"/>
	</g>
	<g>
		<circle style="fill:#D0E8F9;" cx="38.723" cy="32.5" r="6.5"/>
		<path style="fill:#556080;" d="M38.723,40c-4.136,0-7.5-3.364-7.5-7.5s3.364-7.5,7.5-7.5s7.5,3.364,7.5,7.5S42.858,40,38.723,40z
			 M38.723,27c-3.032,0-5.5,2.468-5.5,5.5s2.468,5.5,5.5,5.5s5.5-2.468,5.5-5.5S41.755,27,38.723,27z"/>
	</g>
	<path style="fill:#556080;" d="M33.223,32.5h-2c0-1.379-1.121-2.5-2.5-2.5s-2.5,1.121-2.5,2.5h-2c0-2.481,2.019-4.5,4.5-4.5
		S33.223,30.019,33.223,32.5z"/>
	<path style="fill:#F9A671;" d="M36.223,51c-0.553,0-1-0.447-1-1c0-1.419-4.928-3-12-3c-0.553,0-1-0.447-1-1s0.447-1,1-1
		c2.338,0,14,0.241,14,5C37.223,50.553,36.775,51,36.223,51z"/>
	<path style="fill:#6E5847;" d="M25.222,26c-0.15,0-0.303-0.034-0.446-0.105l-6-3c-0.494-0.247-0.694-0.848-0.447-1.342
		c0.248-0.494,0.849-0.692,1.342-0.447l6,3c0.494,0.247,0.694,0.848,0.447,1.342C25.941,25.798,25.589,26,25.222,26z"/>
	<path style="fill:#6E5847;" d="M32.224,26c-0.367,0-0.72-0.202-0.896-0.553c-0.247-0.494-0.047-1.095,0.447-1.342l6-3
		c0.494-0.245,1.094-0.047,1.342,0.447c0.247,0.494,0.047,1.095-0.447,1.342l-6,3C32.526,25.966,32.374,26,32.224,26z"/>
	<circle style="fill:#556080;" cx="18.723" cy="32.5" r="2.5"/>
	<circle style="fill:#556080;" cx="38.723" cy="32.5" r="2.5"/>
</g>
<g>
</g>
<g>
</g>
<g>
</g>
<g>
</g>
<g>
</g>
<g>
</g>
<g>
</g>
<g>
</g>
<g>
</g>
<g>
</g>
<g>
</g>
<g>
</g>
<g>
</g>
<g>
</g>
<g>
</g>
</svg>
