<?xml version="1.0" encoding="iso-8859-1"?>
<!-- Generator: Adobe Illustrator 18.0.0, SVG Export Plug-In . SVG Version: 6.00 Build 0)  -->
<!DOCTYPE svg PUBLIC "-//W3C//DTD SVG 1.1//EN" "http://www.w3.org/Graphics/SVG/1.1/DTD/svg11.dtd">
<svg version="1.1" id="Capa_1" xmlns="http://www.w3.org/2000/svg" xmlns:xlink="http://www.w3.org/1999/xlink" x="0px" y="0px"
	 viewBox="0 0 42 42" style="enable-background:new 0 0 42 42;" xml:space="preserve">
<g>
	<circle style="fill:#FBD971;" cx="21" cy="21" r="21"/>
	<circle style="fill:#FFFFFF;" cx="12" cy="17" r="6"/>
	<circle style="fill:#FFFFFF;" cx="30" cy="17" r="6"/>
	<circle style="fill:#C03A2B;" cx="21" cy="31" r="5"/>
	<path style="fill:#F0C419;" d="M18.381,12c-0.239,0-0.479-0.085-0.671-0.258l-6.381-5.77C10.92,5.602,10.888,4.97,11.258,4.56
		c0.373-0.409,1.004-0.44,1.413-0.071l6.381,5.77c0.409,0.371,0.441,1.003,0.071,1.413C18.925,11.889,18.653,12,18.381,12z"/>
	<path style="fill:#F0C419;" d="M23.619,12c-0.272,0-0.544-0.111-0.742-0.329c-0.37-0.41-0.338-1.042,0.071-1.413l6.381-5.77
		c0.41-0.369,1.041-0.338,1.413,0.071c0.37,0.41,0.338,1.042-0.071,1.413l-6.381,5.77C24.099,11.915,23.858,12,23.619,12z"/>
	<circle style="fill:#AF8066;" cx="12" cy="17" r="3"/>
	<circle style="fill:#AF8066;" cx="30" cy="17" r="3"/>
</g>
<g>
</g>
<g>
</g>
<g>
</g>
<g>
</g>
<g>
</g>
<g>
</g>
<g>
</g>
<g>
</g>
<g>
</g>
<g>
</g>
<g>
</g>
<g>
</g>
<g>
</g>
<g>
</g>
<g>
</g>
</svg>
