<?xml version="1.0" encoding="iso-8859-1"?>
<!-- Generator: Adobe Illustrator 18.0.0, SVG Export Plug-In . SVG Version: 6.00 Build 0)  -->
<!DOCTYPE svg PUBLIC "-//W3C//DTD SVG 1.1//EN" "http://www.w3.org/Graphics/SVG/1.1/DTD/svg11.dtd">
<svg version="1.1" id="Capa_1" xmlns="http://www.w3.org/2000/svg" xmlns:xlink="http://www.w3.org/1999/xlink" x="0px" y="0px"
	 viewBox="0 0 52 52" style="enable-background:new 0 0 52 52;" xml:space="preserve">
<g>
	<path style="fill:#FFD581;" d="M47,26.689c-0.06-0.339-0.147-0.667-0.222-1H26.163H6.222c-0.076,0.333-0.162,0.661-0.222,1
		c-1.663,0.661-3,2.602-3,4.5c0,1.978,1.284,3.639,3.058,4.242C8.21,44.741,16.536,51.689,26.5,51.689
		c9.964,0,18.29-6.947,20.442-16.258C48.716,34.828,50,33.167,50,31.189C50,29.291,48.663,27.35,47,26.689z"/>
	<path style="fill:#CB8252;" d="M25.577,45.71c-1.513,0-3.02-0.29-4.41-0.869c-0.51-0.212-0.751-0.798-0.538-1.308
		c0.212-0.509,0.797-0.753,1.308-0.538c2.22,0.926,4.809,0.955,7.1,0.084c2.338-0.89,4.128-2.585,5.041-4.775
		c0.212-0.51,0.797-0.752,1.308-0.538c0.51,0.212,0.75,0.798,0.538,1.308c-1.125,2.702-3.319,4.789-6.175,5.875
		C28.412,45.458,26.991,45.71,25.577,45.71z"/>
	<path style="fill:#F0C419;" d="M52,25.689H26.163H0L24.938,0.751c0.586-0.586,1.537-0.586,2.124,0L52,25.689z"/>
	<path style="fill:#B27821;" d="M21.999,35.689c-0.15,0-0.303-0.034-0.446-0.105l-8-4c-0.494-0.247-0.694-0.848-0.447-1.342
		s0.847-0.693,1.342-0.447l8,4c0.494,0.247,0.694,0.848,0.447,1.342C22.719,35.487,22.366,35.689,21.999,35.689z"/>
	<path style="fill:#B27821;" d="M32.001,35.689c-0.367,0-0.72-0.202-0.896-0.553c-0.247-0.494-0.047-1.095,0.447-1.342l8-4
		c0.495-0.246,1.095-0.047,1.342,0.447s0.047,1.095-0.447,1.342l-8,4C32.304,35.655,32.151,35.689,32.001,35.689z"/>
	<path style="fill:#FFD581;" d="M5.078,21.689h9c0.552,0,1-0.447,1-1s-0.448-1-1-1H6l-1.661,1.661
		C4.523,21.554,4.782,21.689,5.078,21.689z"/>
	<path style="fill:#FFD581;" d="M35,18.689h9c0.276,0,0.526-0.112,0.707-0.293L43,16.689h-8c-0.552,0-1,0.447-1,1
		S34.448,18.689,35,18.689z"/>
</g>
<g>
</g>
<g>
</g>
<g>
</g>
<g>
</g>
<g>
</g>
<g>
</g>
<g>
</g>
<g>
</g>
<g>
</g>
<g>
</g>
<g>
</g>
<g>
</g>
<g>
</g>
<g>
</g>
<g>
</g>
</svg>
