<?xml version="1.0" encoding="iso-8859-1"?>
<!-- Generator: Adobe Illustrator 18.0.0, SVG Export Plug-In . SVG Version: 6.00 Build 0)  -->
<!DOCTYPE svg PUBLIC "-//W3C//DTD SVG 1.1//EN" "http://www.w3.org/Graphics/SVG/1.1/DTD/svg11.dtd">
<svg version="1.1" id="Capa_1" xmlns="http://www.w3.org/2000/svg" xmlns:xlink="http://www.w3.org/1999/xlink" x="0px" y="0px"
	 viewBox="0 0 57 57" style="enable-background:new 0 0 57 57;" xml:space="preserve">
<g>
	<g>
		<path style="fill:#6E5847;" d="M28.676,26H3.5v24c0,2.2,1.8,4,4,4h6.777c4.16,2.021,9.236,3,14.723,3s10.563-0.979,14.723-3H50.5
			c2.2,0,4-1.8,4-4V26H28.676z"/>
	</g>
	<path style="fill:#F0C419;" d="M56.5,26H28.675H0.5L27.356,0.474c0.632-0.632,1.656-0.632,2.287,0L56.5,26z"/>
	<path style="fill:#FDC794;" d="M28.676,26H5.9c-0.597,1.25-1.091,2.554-1.474,3.901l-0.057-0.007C4.034,31.145,3.5,36.007,3.5,36.5
		C3.5,50.583,14.917,57,29,57s25.5-6.417,25.5-20.5c0-3.742-0.868-7.295-2.4-10.5H28.676z"/>
	<path style="fill:#F9A671;" d="M28.511,50.001c-1.474,0-2.967-0.28-4.396-0.876c-0.51-0.212-0.751-0.798-0.538-1.308
		s0.801-0.749,1.308-0.538c4.703,1.961,10.265-0.188,12.141-4.691c0.213-0.51,0.801-0.75,1.308-0.538
		c0.51,0.212,0.751,0.798,0.538,1.308C37.152,47.483,32.924,50.001,28.511,50.001z"/>
	<path style="fill:#F9A671;" d="M23.499,37c-0.19,0-0.383-0.055-0.554-0.168l-9-6c-0.46-0.307-0.584-0.927-0.277-1.387
		c0.306-0.46,0.925-0.583,1.387-0.277l9,6c0.46,0.307,0.584,0.927,0.277,1.387C24.14,36.844,23.822,37,23.499,37z"/>
	<path style="fill:#F9A671;" d="M34.501,37c-0.323,0-0.641-0.156-0.833-0.445c-0.307-0.46-0.183-1.08,0.277-1.387l9-6
		c0.461-0.306,1.08-0.183,1.387,0.277s0.183,1.08-0.277,1.387l-9,6C34.884,36.945,34.691,37,34.501,37z"/>
</g>
<g>
</g>
<g>
</g>
<g>
</g>
<g>
</g>
<g>
</g>
<g>
</g>
<g>
</g>
<g>
</g>
<g>
</g>
<g>
</g>
<g>
</g>
<g>
</g>
<g>
</g>
<g>
</g>
<g>
</g>
</svg>
