<?xml version="1.0" encoding="iso-8859-1"?>
<!-- Generator: Adobe Illustrator 18.0.0, SVG Export Plug-In . SVG Version: 6.00 Build 0)  -->
<!DOCTYPE svg PUBLIC "-//W3C//DTD SVG 1.1//EN" "http://www.w3.org/Graphics/SVG/1.1/DTD/svg11.dtd">
<svg version="1.1" id="Capa_1" xmlns="http://www.w3.org/2000/svg" xmlns:xlink="http://www.w3.org/1999/xlink" x="0px" y="0px"
	 viewBox="0 0 51 51" style="enable-background:new 0 0 51 51;" xml:space="preserve">
<g>
	<path style="fill:#48A0DC;" d="M42.5,47h-34c-2.2,0-4-1.8-4-4V10c0-2.2,1.8-4,4-4h34c2.2,0,4,1.8,4,4v33C46.5,45.2,44.7,47,42.5,47
		z"/>
	<circle style="fill:#FFFFFF;" cx="15.5" cy="24" r="6"/>
	<circle style="fill:#FFFFFF;" cx="35.5" cy="24" r="6"/>
	<path style="fill:#007EB5;" d="M37.195,51H13.805c-0.721,0-1.305-0.584-1.305-1.305V47h26v2.695C38.5,50.416,37.916,51,37.195,51z"
		/>
	<path style="fill:#007EB5;" d="M19.805,0l11.389,0C31.916,0,32.5,0.584,32.5,1.305V6h-14V1.305C18.5,0.584,19.084,0,19.805,0z"/>
	<path style="fill:#556080;" d="M32.5,40h-14c-0.552,0-1-0.447-1-1s0.448-1,1-1h14c0.552,0,1,0.447,1,1S33.052,40,32.5,40z"/>
	<polygon style="fill:#B0D3F0;" points="29.5,10 29.5,6 21.5,6 21.5,10 15.5,10 25.5,20 35.5,10 	"/>
	<circle style="fill:#F29C1F;" cx="15.5" cy="24" r="3"/>
	<circle style="fill:#F29C1F;" cx="35.5" cy="24" r="3"/>
</g>
<g>
</g>
<g>
</g>
<g>
</g>
<g>
</g>
<g>
</g>
<g>
</g>
<g>
</g>
<g>
</g>
<g>
</g>
<g>
</g>
<g>
</g>
<g>
</g>
<g>
</g>
<g>
</g>
<g>
</g>
</svg>
