<?xml version="1.0" encoding="iso-8859-1"?>
<!-- Generator: Adobe Illustrator 18.0.0, SVG Export Plug-In . SVG Version: 6.00 Build 0)  -->
<!DOCTYPE svg PUBLIC "-//W3C//DTD SVG 1.1//EN" "http://www.w3.org/Graphics/SVG/1.1/DTD/svg11.dtd">
<svg version="1.1" id="Capa_1" xmlns="http://www.w3.org/2000/svg" xmlns:xlink="http://www.w3.org/1999/xlink" x="0px" y="0px"
	 viewBox="0 0 51 51" style="enable-background:new 0 0 51 51;" xml:space="preserve">
<g>
	<path style="fill:#AF8066;" d="M25.5,10c-0.552,0-1-0.447-1-1c0-4.963,4.038-9,9-9c0.552,0,1,0.447,1,1s-0.448,1-1,1
		c-3.86,0-7,3.141-7,7C26.5,9.553,26.052,10,25.5,10z"/>
	<circle style="fill:#FBD971;" cx="25.5" cy="30" r="21"/>
	<path style="fill:#F29C1F;" d="M20.5,26c-0.552,0-1-0.447-1-1c0-1.654-1.346-3-3-3s-3,1.346-3,3c0,0.553-0.448,1-1,1s-1-0.447-1-1
		c0-2.757,2.243-5,5-5s5,2.243,5,5C21.5,25.553,21.052,26,20.5,26z"/>
	<path style="fill:#F29C1F;" d="M38.5,26c-0.552,0-1-0.447-1-1c0-1.654-1.346-3-3-3s-3,1.346-3,3c0,0.553-0.448,1-1,1s-1-0.447-1-1
		c0-2.757,2.243-5,5-5s5,2.243,5,5C39.5,25.553,39.052,26,38.5,26z"/>
	<path style="fill:#8697CB;" d="M28.854,32.667c-1.23-0.603-2.67-0.842-4.192-0.529c-2.643,0.543-4.728,2.761-5.097,5.435
		c-0.56,4.052,2.618,7.512,6.58,7.426c2.558-0.055,4.83-1.732,5.845-4.081c0.613-1.42,0.615-2.749,0.319-3.962
		C31.157,37.915,27.233,33.882,28.854,32.667z"/>
	<path style="fill:#7C6498;" d="M34.639,32.73c-0.513-1.198-1.682-2.004-2.91-2.004c-0.56,0-1.105,0.159-1.62,0.474
		c-3.132,1.915-5.884,5.343-6,5.488l-0.228,0.285l2.456,3.683l0.401-0.217c0.948-0.512,1.778-0.944,2.512-1.326
		c2.293-1.195,3.678-1.916,4.77-3.059C34.902,35.131,35.134,33.889,34.639,32.73z"/>
</g>
<g>
</g>
<g>
</g>
<g>
</g>
<g>
</g>
<g>
</g>
<g>
</g>
<g>
</g>
<g>
</g>
<g>
</g>
<g>
</g>
<g>
</g>
<g>
</g>
<g>
</g>
<g>
</g>
<g>
</g>
</svg>
