<?xml version="1.0" encoding="iso-8859-1"?>
<!-- Generator: Adobe Illustrator 18.0.0, SVG Export Plug-In . SVG Version: 6.00 Build 0)  -->
<!DOCTYPE svg PUBLIC "-//W3C//DTD SVG 1.1//EN" "http://www.w3.org/Graphics/SVG/1.1/DTD/svg11.dtd">
<svg version="1.1" id="Capa_1" xmlns="http://www.w3.org/2000/svg" xmlns:xlink="http://www.w3.org/1999/xlink" x="0px" y="0px"
	 viewBox="0 0 58 58" style="enable-background:new 0 0 58 58;" xml:space="preserve">
<g>
	<path style="fill:#FDC794;" d="M29.392,56.496c11.246,0.156,17.52-4.381,21.008-9.189c3.603-4.966,4.764-11.283,3.647-17.323
		C50.004,8.138,29.392,8.323,29.392,8.323S8.781,8.138,4.738,29.985c-1.118,6.04,0.044,12.356,3.647,17.323
		C11.872,52.115,18.146,56.652,29.392,56.496z"/>
	<path style="fill:#DF4D60;" d="M28.031,44.352L28.031,44.352c-0.301-0.602-0.19-1.328,0.285-1.806
		c0.868-0.875,2.362-2.306,3.983-3.521c-1.23-0.603-2.67-0.842-4.192-0.529c-2.643,0.543-4.728,2.761-5.097,5.435
		c-0.56,4.052,2.618,7.512,6.58,7.426c2.558-0.055,4.83-1.732,5.845-4.081c0.613-1.42,0.615-2.749,0.319-3.962
		c-0.84,0.7-1.886,1.461-3.191,2.285C30.975,46.599,28.869,46.029,28.031,44.352z"/>
	<path style="fill:#F9A671;" d="M4.499,31.622c-0.453-0.429-0.985-0.687-1.559-0.687C1.316,30.935,0,32.915,0,35.359
		c0,2.443,1.316,4.424,2.939,4.424c0.687,0,1.311-0.37,1.811-0.964C4.297,36.466,4.218,34.034,4.499,31.622z"/>
	<path style="fill:#F9A671;" d="M57.823,27.795c-0.563-2.377-2.3-3.999-3.879-3.622c-0.491,0.117-0.898,0.43-1.225,0.855
		c0.538,1.515,0.994,3.154,1.328,4.957c0.155,0.837,0.261,1.679,0.328,2.522c0.52,0.284,1.072,0.402,1.608,0.274
		C57.562,32.404,58.386,30.172,57.823,27.795z"/>
	<ellipse style="fill:#FFFFFF;" cx="20" cy="25.859" rx="6" ry="7.5"/>
	<ellipse style="fill:#7F5B53;" cx="20" cy="25.859" rx="3" ry="4.5"/>
	<ellipse style="fill:#FFFFFF;" cx="38" cy="25.859" rx="6" ry="7.5"/>
	<ellipse style="fill:#7F5B53;" cx="38" cy="25.859" rx="3" ry="4.5"/>
	<path style="fill:#5E5F62;" d="M29.004,9.331c-0.553,0-1-0.447-1-1c0-3.83,3.073-6.831,6.996-6.831c0.553,0,1,0.447,1,1
		s-0.447,1-1,1c-2.802,0-4.996,2.122-4.996,4.831C30.004,8.884,29.557,9.331,29.004,9.331z"/>
	<g>
		<path style="fill:#FB7B76;" d="M33.972,37.899c-1.887,1.154-3.655,2.899-4.747,4.084c-0.675,0.733-0.757,1.83-0.204,2.659l0,0
			c0.613,0.919,1.826,1.226,2.805,0.713c2.766-1.448,4.303-2.18,5.457-3.396C39.354,39.776,36.539,36.329,33.972,37.899z"/>
		<path style="fill:#FB7B76;" d="M30.817,46.606c-1.026,0-2.022-0.5-2.628-1.408c-0.813-1.219-0.688-2.819,0.301-3.892
			c1.18-1.281,2.998-3.061,4.96-4.26c1.581-0.966,3.514-0.613,4.701,0.855c1.182,1.46,1.123,3.411-0.143,4.746
			c-1.152,1.216-2.571,1.954-4.923,3.179l-0.796,0.415C31.82,46.487,31.315,46.606,30.817,46.606z M35.322,38.504
			c-0.262,0-0.541,0.073-0.829,0.249l0,0c-1.764,1.078-3.438,2.721-4.532,3.908c-0.362,0.393-0.406,0.979-0.107,1.427
			c0.33,0.495,0.979,0.659,1.509,0.382l0.801-0.418c2.239-1.166,3.473-1.808,4.395-2.78c0.696-0.734,0.456-1.597,0.039-2.111
			C36.313,38.809,35.856,38.504,35.322,38.504z M33.972,37.9h0.01H33.972z"/>
	</g>
</g>
<g>
</g>
<g>
</g>
<g>
</g>
<g>
</g>
<g>
</g>
<g>
</g>
<g>
</g>
<g>
</g>
<g>
</g>
<g>
</g>
<g>
</g>
<g>
</g>
<g>
</g>
<g>
</g>
<g>
</g>
</svg>
