<?xml version="1.0" encoding="iso-8859-1"?>
<!-- Generator: Adobe Illustrator 18.0.0, SVG Export Plug-In . SVG Version: 6.00 Build 0)  -->
<!DOCTYPE svg PUBLIC "-//W3C//DTD SVG 1.1//EN" "http://www.w3.org/Graphics/SVG/1.1/DTD/svg11.dtd">
<svg version="1.1" id="Capa_1" xmlns="http://www.w3.org/2000/svg" xmlns:xlink="http://www.w3.org/1999/xlink" x="0px" y="0px"
	 viewBox="0 0 57 57" style="enable-background:new 0 0 57 57;" xml:space="preserve">
<g>
	<path style="fill:#6E5847;" d="M28.5,0C14.475,0,3,11.475,3,25.5V50c0,2.2,1.8,4,4,4h6.777c4.16,2.021,9.237,3,14.723,3
		s10.563-0.979,14.723-3H50c2.2,0,4-1.8,4-4V25.5C54,11.475,42.525,0,28.5,0z"/>
	<path style="fill:#FDC794;" d="M3.869,29.894C3.305,32.001,3,34.215,3,36.5C3,50.583,14.417,57,28.5,57S54,50.583,54,36.5
		C54,22.842,42.495,11.661,29,11h-1C14.505,11.661,3,22.842,3,36.5C3,50.583,14.417,57,28.5,57S54,50.583,54,36.5"/>
	<path style="fill:#8697CB;" d="M25.958,44.525l-0.766-1.531c-0.301-0.602-0.19-1.328,0.285-1.806
		c0.868-0.875,2.362-2.306,3.983-3.521c-1.23-0.603-2.67-0.842-4.192-0.529c-2.643,0.543-4.728,2.761-5.097,5.435
		c-0.56,4.052,2.618,7.512,6.58,7.426c2.558-0.055,4.83-1.732,5.845-4.081c0.613-1.42,0.615-2.749,0.319-3.962
		c-1.151,0.96-2.691,2.034-4.751,3.225C27.377,45.635,26.364,45.336,25.958,44.525z"/>
	<circle style="fill:#FFFFFF;" cx="17.5" cy="27.5" r="5.5"/>
	<circle style="fill:#6E5847;" cx="20" cy="27.5" r="3.5"/>
	<circle style="fill:#FFFFFF;" cx="38.5" cy="27.5" r="5.5"/>
	<circle style="fill:#6E5847;" cx="41" cy="27.5" r="3.5"/>
	<path style="fill:#7D6599;" d="M35.704,37.534c-0.59-1.381-1.944-2.308-3.37-2.308c-0.653,0-1.286,0.184-1.88,0.547
		c-3.208,1.96-6.013,5.455-6.13,5.604c-0.271,0.34-0.292,0.816-0.05,1.178l2,3C26.465,45.842,26.782,46,27.106,46
		c0.161,0,0.324-0.039,0.475-0.12c0.945-0.511,1.773-0.942,2.505-1.323c2.339-1.219,3.751-1.954,4.901-3.157
		C36.013,40.327,36.281,38.882,35.704,37.534z"/>
</g>
<g>
</g>
<g>
</g>
<g>
</g>
<g>
</g>
<g>
</g>
<g>
</g>
<g>
</g>
<g>
</g>
<g>
</g>
<g>
</g>
<g>
</g>
<g>
</g>
<g>
</g>
<g>
</g>
<g>
</g>
</svg>
