<?xml version="1.0" encoding="iso-8859-1"?>
<!-- Generator: Adobe Illustrator 18.0.0, SVG Export Plug-In . SVG Version: 6.00 Build 0)  -->
<!DOCTYPE svg PUBLIC "-//W3C//DTD SVG 1.1//EN" "http://www.w3.org/Graphics/SVG/1.1/DTD/svg11.dtd">
<svg version="1.1" id="Capa_1" xmlns="http://www.w3.org/2000/svg" xmlns:xlink="http://www.w3.org/1999/xlink" x="0px" y="0px"
	 viewBox="0 0 52 52" style="enable-background:new 0 0 52 52;" xml:space="preserve">
<g>
	<path style="fill:#556080;" d="M46,22.815H7l2.339-16C9.366,6.616,9.403,6.422,9.45,6.231c0.76-3.095,4.211-4.706,7.21-3.627
		l7.532,2.712c1.171,0.422,2.451,0.439,3.633,0.048l8.739-2.887c2.156-0.712,4.615-0.114,5.995,1.688
		c0.575,0.751,0.966,1.654,1.102,2.649L46,22.815z"/>
	<polygon style="fill:#8697CB;" points="8.023,15.815 44.977,15.815 44.684,13.815 8.316,13.815 	"/>
	<path style="fill:#FFD581;" d="M47,24.815c-0.285-1.614-1-2-1-2H7c0,0-0.714,0.38-1,2c-1.663,0.661-3,2.602-3,4.5
		c0,1.978,1.284,3.639,3.058,4.242C8.21,42.867,16.536,49.815,26.5,49.815c9.964,0,18.29-6.948,20.442-16.258
		C48.716,32.954,50,31.292,50,29.315C50,27.416,48.663,25.476,47,24.815z"/>
	<path style="fill:#3D324C;" d="M51,23.815H1c-0.553,0-1-0.447-1-1s0.447-1,1-1h50c0.553,0,1,0.447,1,1S51.553,23.815,51,23.815z"/>
	<g>
		<circle style="fill:#D0E8F9;" cx="18.924" cy="34.769" r="4.924"/>
		<path style="fill:#556080;" d="M18.924,40.694c-3.267,0-5.924-2.658-5.924-5.925s2.657-5.924,5.924-5.924s5.925,2.657,5.925,5.924
			S22.19,40.694,18.924,40.694z M18.924,30.845c-2.164,0-3.924,1.76-3.924,3.924s1.76,3.925,3.924,3.925s3.925-1.761,3.925-3.925
			S21.088,30.845,18.924,30.845z"/>
	</g>
	<g>
		<circle style="fill:#D0E8F9;" cx="34.076" cy="34.769" r="4.924"/>
		<path style="fill:#556080;" d="M34.076,40.694c-3.267,0-5.925-2.658-5.925-5.925s2.658-5.924,5.925-5.924S40,31.502,40,34.769
			S37.343,40.694,34.076,40.694z M34.076,30.845c-2.164,0-3.925,1.76-3.925,3.924s1.761,3.925,3.925,3.925S38,36.933,38,34.769
			S36.24,30.845,34.076,30.845z"/>
	</g>
	<path style="fill:#556080;" d="M30.151,34.769h-2c0-0.91-0.741-1.651-1.651-1.651s-1.651,0.741-1.651,1.651h-2
		c0-2.014,1.638-3.651,3.651-3.651S30.151,32.755,30.151,34.769z"/>
	<path style="fill:#CB8252;" d="M31.182,46.754c-0.553,0-1-0.447-1-1c0-0.709-3.039-2.03-8.849-2.03c-0.553,0-1-0.447-1-1
		s0.447-1,1-1c1.812,0,10.849,0.194,10.849,4.03C32.182,46.307,31.734,46.754,31.182,46.754z"/>
	<path style="fill:#414141;" d="M23.848,28.815c-0.15,0-0.303-0.034-0.446-0.105l-4.546-2.272c-0.494-0.247-0.694-0.848-0.447-1.342
		c0.246-0.494,0.848-0.693,1.342-0.447l4.546,2.272c0.494,0.247,0.694,0.848,0.447,1.342C24.568,28.612,24.215,28.815,23.848,28.815
		z"/>
	<path style="fill:#414141;" d="M29.152,28.815c-0.367,0-0.721-0.202-0.896-0.553c-0.247-0.494-0.047-1.095,0.447-1.342l4.546-2.272
		c0.495-0.246,1.096-0.047,1.342,0.447c0.247,0.494,0.047,1.095-0.447,1.342l-4.546,2.272C29.455,28.78,29.303,28.815,29.152,28.815
		z"/>
</g>
<g>
</g>
<g>
</g>
<g>
</g>
<g>
</g>
<g>
</g>
<g>
</g>
<g>
</g>
<g>
</g>
<g>
</g>
<g>
</g>
<g>
</g>
<g>
</g>
<g>
</g>
<g>
</g>
<g>
</g>
</svg>
