<?xml version="1.0" encoding="iso-8859-1"?>
<!-- Generator: Adobe Illustrator 18.0.0, SVG Export Plug-In . SVG Version: 6.00 Build 0)  -->
<!DOCTYPE svg PUBLIC "-//W3C//DTD SVG 1.1//EN" "http://www.w3.org/Graphics/SVG/1.1/DTD/svg11.dtd">
<svg version="1.1" id="Capa_1" xmlns="http://www.w3.org/2000/svg" xmlns:xlink="http://www.w3.org/1999/xlink" x="0px" y="0px"
	 viewBox="0 0 58 58" style="enable-background:new 0 0 58 58;" xml:space="preserve">
<g>
	<path style="fill:#FFDB2B;" d="M8,22v28c0,2.2,1.8,4,4,4h34c2.2,0,4-1.8,4-4V22H8z"/>
	<g>
		<path style="fill:#556080;" d="M50.496,26.916c-3.179-1.817-6.795-2.777-10.456-2.777s-7.277,0.96-10.456,2.777l-0.015,0.009
			h-1.527l-0.015-0.009C24.688,25.008,21.008,24,17.382,24c-3.482,0-6.806,0.89-9.878,2.646L7,26.934v0.852
			c-0.005,3.096-0.014,8.858,6.194,9.53c1.219,0.132,2.382,0.198,3.459,0.198c9.317,0,11.482-4.95,11.819-8.589h0.666
			c0.337,3.638,2.502,8.589,11.819,8.589c1.076,0,2.24-0.066,3.459-0.198C51,36.603,51,30.423,51,27.784v-0.58L50.496,26.916z"/>
		<path style="fill:#8697CB;" d="M11.804,32.07c-0.256,0-0.512-0.098-0.707-0.293c-0.391-0.391-0.391-1.023,0-1.414l3.146-3.146
			c0.391-0.391,1.023-0.391,1.414,0s0.391,1.023,0,1.414l-3.146,3.146C12.315,31.973,12.06,32.07,11.804,32.07z"/>
		<path style="fill:#8697CB;" d="M15.997,34.167c-0.256,0-0.512-0.098-0.707-0.293c-0.391-0.391-0.391-1.023,0-1.414l5.242-5.242
			c0.391-0.391,1.023-0.391,1.414,0s0.391,1.023,0,1.414l-5.242,5.242C16.509,34.069,16.253,34.167,15.997,34.167z"/>
		<path style="fill:#8697CB;" d="M34.869,32.07c-0.256,0-0.512-0.098-0.707-0.293c-0.391-0.391-0.391-1.023,0-1.414l3.146-3.146
			c0.391-0.391,1.023-0.391,1.414,0s0.391,1.023,0,1.414l-3.146,3.146C35.381,31.973,35.125,32.07,34.869,32.07z"/>
		<path style="fill:#8697CB;" d="M39.063,34.167c-0.256,0-0.512-0.098-0.707-0.293c-0.391-0.391-0.391-1.023,0-1.414l5.242-5.242
			c0.391-0.391,1.023-0.391,1.414,0s0.391,1.023,0,1.414l-5.242,5.242C39.574,34.069,39.318,34.167,39.063,34.167z"/>
	</g>
	<path style="fill:#F29C1F;" d="M21.013,49.641c-0.195,0-0.394-0.058-0.566-0.177c-0.455-0.313-0.569-0.936-0.256-1.391
		c0.151-0.22,3.773-5.394,9.407-6.242c3.131-0.47,6.227,0.481,9.207,2.834c0.433,0.343,0.507,0.972,0.165,1.405
		c-0.341,0.432-0.97,0.507-1.405,0.165c-2.526-1.997-5.103-2.816-7.669-2.427c-4.786,0.722-8.026,5.353-8.059,5.399
		C21.644,49.489,21.331,49.641,21.013,49.641z"/>
	<path style="fill:#F29C1F;" d="M22.514,51c-0.209,0-0.419-0.065-0.599-0.2L19,48.614c-0.442-0.331-0.532-0.958-0.2-1.399
		c0.331-0.442,0.958-0.53,1.399-0.2l2.915,2.186c0.442,0.331,0.532,0.958,0.2,1.399C23.118,50.862,22.818,51,22.514,51z"/>
	<path style="fill:#F29C1F;" d="M37.087,48.086c-0.305,0-0.604-0.138-0.801-0.4c-0.332-0.441-0.242-1.068,0.2-1.399l2.914-2.186
		c0.44-0.331,1.068-0.243,1.399,0.2c0.332,0.441,0.242,1.068-0.2,1.399l-2.914,2.186C37.506,48.021,37.296,48.086,37.087,48.086z"/>
	<path style="fill:#FEC722;" d="M40.695,58H17.305C16.584,58,16,57.416,16,56.695V54h26v2.695C42,57.416,41.416,58,40.695,58z"/>
	<path style="fill:#7F8C8D;" d="M6,16C6,7.163,15.745,0,29,0s23,7.163,23,16H6z"/>
	<path style="fill:#5E5F62;" d="M52,22H6c-1.65,0-3-1.35-3-3v0c0-1.65,1.35-3,3-3h46c1.65,0,3,1.35,3,3l0,0C55,20.65,53.65,22,52,22
		z"/>
	<g>
		<rect x="7" y="16" style="fill:#7F8C8D;" width="2" height="6"/>
		<rect x="13" y="16" style="fill:#7F8C8D;" width="2" height="6"/>
		<rect x="19" y="16" style="fill:#7F8C8D;" width="2" height="6"/>
		<rect x="25" y="16" style="fill:#7F8C8D;" width="2" height="6"/>
		<rect x="31" y="16" style="fill:#7F8C8D;" width="2" height="6"/>
		<rect x="37" y="16" style="fill:#7F8C8D;" width="2" height="6"/>
		<rect x="43" y="16" style="fill:#7F8C8D;" width="2" height="6"/>
		<rect x="49" y="16" style="fill:#7F8C8D;" width="2" height="6"/>
	</g>
</g>
<g>
</g>
<g>
</g>
<g>
</g>
<g>
</g>
<g>
</g>
<g>
</g>
<g>
</g>
<g>
</g>
<g>
</g>
<g>
</g>
<g>
</g>
<g>
</g>
<g>
</g>
<g>
</g>
<g>
</g>
</svg>
