<?xml version="1.0" encoding="iso-8859-1"?>
<!-- Generator: Adobe Illustrator 18.0.0, SVG Export Plug-In . SVG Version: 6.00 Build 0)  -->
<!DOCTYPE svg PUBLIC "-//W3C//DTD SVG 1.1//EN" "http://www.w3.org/Graphics/SVG/1.1/DTD/svg11.dtd">
<svg version="1.1" id="Capa_1" xmlns="http://www.w3.org/2000/svg" xmlns:xlink="http://www.w3.org/1999/xlink" x="0px" y="0px"
	 viewBox="0 0 52 52" style="enable-background:new 0 0 52 52;" xml:space="preserve">
<g>
	<path style="fill:#556080;" d="M46,23.122H7L9.339,6.347C9.718,3.57,12.089,1.5,14.892,1.5h23.216c2.803,0,5.174,2.07,5.553,4.847
		L46,23.122z"/>
	<path style="fill:#8697CB;" d="M44.745,14.122H8.255l-0.274,1.967c0.055,0.009,0.105,0.033,0.162,0.033h36.715
		c0.057,0,0.107-0.023,0.162-0.033L44.745,14.122z"/>
	<path style="fill:#8697CB;" d="M45.303,18.122H7.697l-0.274,1.965c0.059,0.011,0.112,0.035,0.174,0.035h37.806
		c0.062,0,0.115-0.024,0.174-0.035L45.303,18.122z"/>
	<path style="fill:#FFD581;" d="M50,30c0-1.898-1.337-3.839-3-4.5c-0.277-1.567-1-2.378-1-2.378H7c0,0-0.723,0.811-1,2.378
		c-1.663,0.661-3,2.602-3,4.5c0,1.978,1.284,3.639,3.058,4.242C8.21,43.552,16.536,50.5,26.5,50.5
		c9.964,0,18.29-6.947,20.442-16.258C48.716,33.639,50,31.978,50,30z"/>
	<circle style="fill:#414141;" cx="19" cy="31.5" r="2"/>
	<circle style="fill:#414141;" cx="34" cy="31.5" r="2"/>
	<path style="fill:#414141;" d="M26.965,37.159C22.458,35.052,17.107,36.994,15,41.5C19.506,43.607,24.858,41.665,26.965,37.159z"/>
	<path style="fill:#414141;" d="M27,37.159c4.506-2.107,9.858-0.165,11.965,4.341C34.458,43.607,29.107,41.665,27,37.159z"/>
	<path style="fill:#3D324C;" d="M51,24.122H1c-0.552,0-1-0.447-1-1s0.448-1,1-1h50c0.552,0,1,0.447,1,1S51.552,24.122,51,24.122z"/>
</g>
<g>
</g>
<g>
</g>
<g>
</g>
<g>
</g>
<g>
</g>
<g>
</g>
<g>
</g>
<g>
</g>
<g>
</g>
<g>
</g>
<g>
</g>
<g>
</g>
<g>
</g>
<g>
</g>
<g>
</g>
</svg>
