<?xml version="1.0" encoding="iso-8859-1"?>
<!-- Generator: Adobe Illustrator 18.0.0, SVG Export Plug-In . SVG Version: 6.00 Build 0)  -->
<!DOCTYPE svg PUBLIC "-//W3C//DTD SVG 1.1//EN" "http://www.w3.org/Graphics/SVG/1.1/DTD/svg11.dtd">
<svg version="1.1" id="Capa_1" xmlns="http://www.w3.org/2000/svg" xmlns:xlink="http://www.w3.org/1999/xlink" x="0px" y="0px"
	 viewBox="0 0 58 58" style="enable-background:new 0 0 58 58;" xml:space="preserve">
<g>
	<path style="fill:#FDC794;" d="M29.392,55c11.246,0.156,17.52-4.381,21.008-9.189c3.603-4.966,4.764-11.283,3.647-17.323
		C50.004,6.642,29.392,6.827,29.392,6.827S8.781,6.642,4.738,28.489c-1.118,6.04,0.044,12.356,3.647,17.323
		C11.872,50.618,18.146,55.156,29.392,55z"/>
	<path style="fill:#F9A671;" d="M4.499,30.125c-0.453-0.429-0.985-0.687-1.559-0.687C1.316,29.438,0,31.419,0,33.862
		c0,2.443,1.316,4.424,2.939,4.424c0.687,0,1.311-0.37,1.811-0.964C4.297,34.97,4.218,32.538,4.499,30.125z"/>
	<path style="fill:#F9A671;" d="M57.823,26.298c-0.563-2.377-2.3-3.999-3.879-3.622c-0.491,0.117-0.898,0.43-1.225,0.855
		c0.538,1.515,0.994,3.154,1.328,4.957c0.155,0.837,0.261,1.679,0.328,2.522c0.52,0.284,1.072,0.402,1.608,0.274
		C57.562,30.908,58.386,28.675,57.823,26.298z"/>
	<path style="fill:#5E5F62;" d="M13.9,16.999c-0.256,0-0.512-0.098-0.707-0.293l-5-5c-0.391-0.391-0.391-1.023,0-1.414
		s1.023-0.391,1.414,0l5,5c0.391,0.391,0.391,1.023,0,1.414C14.412,16.901,14.156,16.999,13.9,16.999z"/>
	<path style="fill:#5E5F62;" d="M16.901,13.999c-0.367,0-0.72-0.202-0.896-0.553l-3-6c-0.247-0.494-0.047-1.095,0.447-1.342
		c0.495-0.246,1.095-0.046,1.342,0.447l3,6c0.247,0.494,0.047,1.095-0.447,1.342C17.204,13.965,17.051,13.999,16.901,13.999z"/>
	<path style="fill:#5E5F62;" d="M20.9,11.999c-0.419,0-0.809-0.265-0.949-0.684l-2-6c-0.175-0.524,0.108-1.091,0.632-1.265
		c0.526-0.176,1.091,0.108,1.265,0.632l2,6c0.175,0.524-0.108,1.091-0.632,1.265C21.112,11.983,21.005,11.999,20.9,11.999z"/>
	<path style="fill:#5E5F62;" d="M25.899,10.999c-0.48,0-0.904-0.347-0.985-0.836l-1-6c-0.091-0.544,0.277-1.06,0.822-1.15
		c0.548-0.102,1.06,0.277,1.151,0.822l1,6c0.091,0.544-0.277,1.06-0.822,1.15C26.009,10.995,25.954,10.999,25.899,10.999z"/>
	<path style="fill:#5E5F62;" d="M29.9,10.999c-0.552,0-1-0.447-1-1v-6c0-0.553,0.448-1,1-1s1,0.447,1,1v6
		C30.9,10.552,30.453,10.999,29.9,10.999z"/>
	<path style="fill:#5E5F62;" d="M33.9,10.999c-0.104,0-0.211-0.017-0.316-0.052c-0.524-0.174-0.807-0.74-0.632-1.265l2-6
		c0.175-0.523,0.74-0.808,1.265-0.632c0.524,0.174,0.807,0.74,0.632,1.265l-2,6C34.709,10.734,34.319,10.999,33.9,10.999z"/>
	<path style="fill:#5E5F62;" d="M37.9,11.999c-0.104,0-0.211-0.017-0.316-0.052c-0.524-0.174-0.807-0.74-0.632-1.265l2-6
		c0.174-0.523,0.739-0.808,1.265-0.632c0.524,0.174,0.807,0.74,0.632,1.265l-2,6C38.709,11.734,38.319,11.999,37.9,11.999z"/>
	<path style="fill:#5E5F62;" d="M40.899,13.999c-0.15,0-0.303-0.034-0.446-0.105c-0.494-0.247-0.694-0.848-0.447-1.342l3-6
		c0.247-0.493,0.846-0.693,1.342-0.447c0.494,0.247,0.694,0.848,0.447,1.342l-3,6C41.62,13.797,41.267,13.999,40.899,13.999z"/>
	<path style="fill:#F9A671;" d="M28.209,47.993c-3.268,0-6.58-0.763-9.672-2.375c-0.49-0.255-0.68-0.859-0.424-1.349
		c0.256-0.49,0.859-0.68,1.349-0.425c4.504,2.347,9.649,2.8,14.487,1.279c4.838-1.522,8.795-4.842,11.143-9.346
		c0.255-0.491,0.86-0.679,1.349-0.425c0.49,0.255,0.68,0.859,0.424,1.349C43.126,43.879,35.791,47.993,28.209,47.993z"/>
	<path style="fill:#F9A671;" d="M18,48.004c-0.552,0-1-0.447-1-1c0-2.757,2.243-5,5-5c0.552,0,1,0.447,1,1s-0.448,1-1,1
		c-1.654,0-3,1.346-3,3C19,47.557,18.552,48.004,18,48.004z"/>
	<path style="fill:#F9A671;" d="M48,40.004c-0.552,0-1-0.447-1-1c0-1.654-1.346-3-3-3c-0.552,0-1-0.447-1-1s0.448-1,1-1
		c2.757,0,5,2.243,5,5C49,39.557,48.552,40.004,48,40.004z"/>
	<g>
		<path style="fill:#FFFFFF;" d="M15.944,22.778C15.349,23.709,15,24.812,15,25.999c0,3.314,2.686,6,6,6
			c2.983,0,5.451-2.179,5.915-5.031L16,22.999L15.944,22.778z"/>
		<path style="fill:#FFFFFF;" d="M41,20.999l-13.935,5.972c0.481,3.959,3.847,7.028,7.935,7.028c4.418,0,8-3.582,8-8
			c0-1.948-0.698-3.733-1.856-5.121L41,20.999z"/>
		<path style="fill:#F9A671;" d="M26.915,26.968L27,26.999l0.065-0.028C27.026,26.652,27,26.329,27,25.999
			C27,26.33,26.966,26.652,26.915,26.968z"/>
		<path style="fill:#F9A671;" d="M21,19.999c-2.127,0-3.991,1.11-5.056,2.779L16,22.999l10.915,3.969
			C26.966,26.652,27,26.33,27,25.999C27,22.685,24.314,19.999,21,19.999z"/>
		<path style="fill:#F9A671;" d="M41.144,20.879C39.677,19.12,37.47,17.999,35,17.999c-4.418,0-8,3.582-8,8
			c0,0.33,0.026,0.653,0.065,0.972L41,20.999L41.144,20.879z"/>
		<circle style="fill:#7F5B53;" cx="22" cy="27.999" r="1"/>
		<circle style="fill:#7F5B53;" cx="32.5" cy="28.499" r="1.5"/>
	</g>
</g>
<g>
</g>
<g>
</g>
<g>
</g>
<g>
</g>
<g>
</g>
<g>
</g>
<g>
</g>
<g>
</g>
<g>
</g>
<g>
</g>
<g>
</g>
<g>
</g>
<g>
</g>
<g>
</g>
<g>
</g>
</svg>
