<?xml version="1.0" encoding="iso-8859-1"?>
<!-- Generator: Adobe Illustrator 18.0.0, SVG Export Plug-In . SVG Version: 6.00 Build 0)  -->
<!DOCTYPE svg PUBLIC "-//W3C//DTD SVG 1.1//EN" "http://www.w3.org/Graphics/SVG/1.1/DTD/svg11.dtd">
<svg version="1.1" id="Capa_1" xmlns="http://www.w3.org/2000/svg" xmlns:xlink="http://www.w3.org/1999/xlink" x="0px" y="0px"
	 viewBox="0 0 57 57" style="enable-background:new 0 0 57 57;" xml:space="preserve">
<g>
	<path style="fill:#FFDB2B;" d="M49.324,26v23c0,2.03-1.996,4-4.184,4H11.338c-2.187,0-4.015-1.97-4.015-4V26
		c0,0,20.855-0.865,27-10C34.324,16,41.08,30.869,49.324,26z"/>
	<path style="fill:#ECF0F1;" d="M56.488,43.062c-2.114-4.74-2.817-13.336-3.05-18.867c-0.18-4.282-1.426-8.479-3.815-12.038
		C45.766,6.41,41.533,3.728,37.74,2.067c-6.299-2.757-13.545-2.757-19.843,0c-3.587,1.57-7.812,3.897-11.104,9.041
		c-2.28,3.563-3.401,7.737-3.484,11.967c-0.107,5.471-0.62,15.09-2.807,20.154c-0.464,1.075,0.009,2.311,1.079,2.785
		C2.664,46.493,5.824,46.781,7.324,47V26c0,0,20.855-0.865,27-10c0,0,6.756,14.869,15,10v21c2.031-0.406,4.739-0.592,6-1.081
		C56.464,45.476,56.986,44.18,56.488,43.062z"/>
	<circle style="fill:#FFFFFF;" cx="19.847" cy="33" r="6"/>
	<circle style="fill:#556080;" cx="17.847" cy="31" r="2"/>
	<circle style="fill:#FFFFFF;" cx="37.847" cy="33" r="6"/>
	<circle style="fill:#556080;" cx="35.847" cy="31" r="2"/>
	<path style="fill:#FEC722;" d="M39.542,57H16.152c-0.721,0-1.305-0.584-1.305-1.305V53h26v2.695C40.847,56.416,40.263,57,39.542,57
		z"/>
	<path style="fill:#E57E25;" d="M22.846,49.706c-0.195,0-0.393-0.057-0.566-0.177c-0.455-0.313-0.569-0.936-0.256-1.391
		c0.122-0.178,3.047-4.356,7.608-5.044c2.543-0.384,5.057,0.388,7.471,2.293c0.433,0.343,0.507,0.972,0.165,1.405
		c-0.342,0.432-0.971,0.508-1.405,0.165c-1.962-1.549-3.958-2.188-5.933-1.886c-3.713,0.561-6.234,4.165-6.26,4.201
		C23.477,49.555,23.165,49.706,22.846,49.706z"/>
</g>
<g>
</g>
<g>
</g>
<g>
</g>
<g>
</g>
<g>
</g>
<g>
</g>
<g>
</g>
<g>
</g>
<g>
</g>
<g>
</g>
<g>
</g>
<g>
</g>
<g>
</g>
<g>
</g>
<g>
</g>
</svg>
