<?xml version="1.0" encoding="iso-8859-1"?>
<!-- Generator: Adobe Illustrator 18.0.0, SVG Export Plug-In . SVG Version: 6.00 Build 0)  -->
<!DOCTYPE svg PUBLIC "-//W3C//DTD SVG 1.1//EN" "http://www.w3.org/Graphics/SVG/1.1/DTD/svg11.dtd">
<svg version="1.1" id="Capa_1" xmlns="http://www.w3.org/2000/svg" xmlns:xlink="http://www.w3.org/1999/xlink" x="0px" y="0px"
	 viewBox="0 0 42 42" style="enable-background:new 0 0 42 42;" xml:space="preserve">
<g>
	<circle style="fill:#FBD971;" cx="21" cy="21" r="21"/>
	<circle style="fill:#AF8066;" cx="13" cy="13.5" r="3.5"/>
	<circle style="fill:#AF8066;" cx="29" cy="13.5" r="3.5"/>
	<path style="fill:#F0C419;" d="M16.382,32.888c-2.421,0-4.984-1.077-7.089-3.181c-0.391-0.391-0.391-1.023,0-1.414
		s1.023-0.391,1.414,0c1.43,1.43,3.177,2.339,4.919,2.56c1.261,0.163,3.089,0.019,4.667-1.56c3.51-3.511,9.904-3.511,13.414,0
		c0.391,0.391,0.391,1.023,0,1.414s-1.023,0.391-1.414,0c-2.721-2.721-7.865-2.721-10.586,0
		C20.244,32.17,18.36,32.888,16.382,32.888z"/>
</g>
<g>
</g>
<g>
</g>
<g>
</g>
<g>
</g>
<g>
</g>
<g>
</g>
<g>
</g>
<g>
</g>
<g>
</g>
<g>
</g>
<g>
</g>
<g>
</g>
<g>
</g>
<g>
</g>
<g>
</g>
</svg>
