<?xml version="1.0" encoding="iso-8859-1"?>
<!-- Generator: Adobe Illustrator 18.0.0, SVG Export Plug-In . SVG Version: 6.00 Build 0)  -->
<!DOCTYPE svg PUBLIC "-//W3C//DTD SVG 1.1//EN" "http://www.w3.org/Graphics/SVG/1.1/DTD/svg11.dtd">
<svg version="1.1" id="Capa_1" xmlns="http://www.w3.org/2000/svg" xmlns:xlink="http://www.w3.org/1999/xlink" x="0px" y="0px"
	 viewBox="0 0 42 42" style="enable-background:new 0 0 42 42;" xml:space="preserve">
<g>
	<circle style="fill:#FBD971;" cx="21" cy="21" r="21"/>
	<path style="fill:#FFFFFF;" d="M31.5,29H29H9v5h20h2.5c1.381,0,2.5-1.119,2.5-2.5C34,30.119,32.881,29,31.5,29z"/>
	<circle style="fill:#FFFFFF;" cx="12" cy="14" r="6"/>
	<circle style="fill:#FFFFFF;" cx="30" cy="14" r="6"/>
	<g>
		<line style="fill:#ECF0F1;" x1="29" y1="34" x2="29" y2="29"/>
		<rect x="28" y="29" style="fill:#ECF0F1;" width="2" height="5"/>
	</g>
	<g>
		<line style="fill:#ECF0F1;" x1="14" y1="29" x2="14" y2="34"/>
		<rect x="13" y="29" style="fill:#ECF0F1;" width="2" height="5"/>
	</g>
	<g>
		<line style="fill:#ECF0F1;" x1="24" y1="29" x2="24" y2="34"/>
		<rect x="23" y="29" style="fill:#ECF0F1;" width="2" height="5"/>
	</g>
	<g>
		<line style="fill:#ECF0F1;" x1="19" y1="29" x2="19" y2="34"/>
		<rect x="18" y="29" style="fill:#ECF0F1;" width="2" height="5"/>
	</g>
	<circle style="fill:#AF8066;" cx="12" cy="14" r="3"/>
	<circle style="fill:#AF8066;" cx="30" cy="14" r="3"/>
</g>
<g>
</g>
<g>
</g>
<g>
</g>
<g>
</g>
<g>
</g>
<g>
</g>
<g>
</g>
<g>
</g>
<g>
</g>
<g>
</g>
<g>
</g>
<g>
</g>
<g>
</g>
<g>
</g>
<g>
</g>
</svg>
