<?xml version="1.0" encoding="iso-8859-1"?>
<!-- Generator: Adobe Illustrator 18.0.0, SVG Export Plug-In . SVG Version: 6.00 Build 0)  -->
<!DOCTYPE svg PUBLIC "-//W3C//DTD SVG 1.1//EN" "http://www.w3.org/Graphics/SVG/1.1/DTD/svg11.dtd">
<svg version="1.1" id="Capa_1" xmlns="http://www.w3.org/2000/svg" xmlns:xlink="http://www.w3.org/1999/xlink" x="0px" y="0px"
	 viewBox="0 0 58 58" style="enable-background:new 0 0 58 58;" xml:space="preserve">
<g>
	<path style="fill:#FDC794;" d="M29.392,54.999c11.246,0.156,17.52-4.381,21.008-9.189c3.603-4.966,4.764-11.283,3.647-17.323
		C50.004,6.642,29.392,6.826,29.392,6.826S8.781,6.642,4.738,28.488c-1.118,6.04,0.044,12.356,3.647,17.323
		C11.872,50.618,18.146,55.155,29.392,54.999z"/>
	<path style="fill:#0096E6;" d="M43.984,31.466L43.984,31.466c-1.127,0.019-2.065-0.889-2.083-2.016v0
		c-0.019-1.127,1.967-4.148,1.982-4.132h0c0,0,2.098,2.938,2.117,4.065v0C46.018,30.51,45.111,31.447,43.984,31.466z"/>
	<path style="fill:#0096E6;" d="M15.083,35.998L15.083,35.998c-1.127,0.019-2.065-0.889-2.083-2.016v0
		c-0.019-1.127,1.967-4.148,1.982-4.132h0c0,0,2.098,2.938,2.117,4.065l0,0C17.117,35.042,16.21,35.98,15.083,35.998z"/>
	<path style="fill:#F9A671;" d="M4.499,30.125c-0.453-0.429-0.985-0.687-1.559-0.687C1.316,29.438,0,31.418,0,33.862
		c0,2.443,1.316,4.424,2.939,4.424c0.687,0,1.311-0.37,1.811-0.964C4.297,34.969,4.218,32.537,4.499,30.125z"/>
	<path style="fill:#F9A671;" d="M57.823,26.298c-0.563-2.377-2.3-3.999-3.879-3.622c-0.491,0.117-0.898,0.43-1.225,0.855
		c0.538,1.515,0.994,3.154,1.328,4.957c0.155,0.837,0.261,1.679,0.328,2.522c0.52,0.284,1.072,0.402,1.608,0.274
		C57.562,30.907,58.386,28.675,57.823,26.298z"/>
	<path style="fill:#5E5F62;" d="M13.9,16.998c-0.256,0-0.512-0.098-0.707-0.293l-5-5c-0.391-0.391-0.391-1.023,0-1.414
		s1.023-0.391,1.414,0l5,5c0.391,0.391,0.391,1.023,0,1.414C14.412,16.901,14.156,16.998,13.9,16.998z"/>
	<path style="fill:#5E5F62;" d="M16.901,13.998c-0.367,0-0.72-0.202-0.896-0.553l-3-6c-0.247-0.494-0.047-1.095,0.447-1.342
		c0.495-0.247,1.095-0.047,1.342,0.447l3,6c0.247,0.494,0.047,1.095-0.447,1.342C17.204,13.964,17.051,13.998,16.901,13.998z"/>
	<path style="fill:#5E5F62;" d="M20.9,11.998c-0.419,0-0.809-0.265-0.949-0.684l-2-6C17.777,4.79,18.06,4.224,18.584,4.05
		c0.525-0.176,1.09,0.108,1.265,0.632l2,6c0.175,0.524-0.108,1.091-0.632,1.265C21.112,11.982,21.005,11.998,20.9,11.998z"/>
	<path style="fill:#5E5F62;" d="M25.899,10.998c-0.48,0-0.904-0.347-0.985-0.836l-1-6c-0.091-0.544,0.277-1.06,0.822-1.15
		c0.549-0.096,1.06,0.278,1.151,0.822l1,6c0.091,0.544-0.277,1.06-0.822,1.15C26.009,10.994,25.954,10.998,25.899,10.998z"/>
	<path style="fill:#5E5F62;" d="M29.9,10.998c-0.552,0-1-0.447-1-1v-6c0-0.553,0.448-1,1-1s1,0.447,1,1v6
		C30.9,10.551,30.453,10.998,29.9,10.998z"/>
	<path style="fill:#5E5F62;" d="M33.9,10.998c-0.104,0-0.211-0.017-0.316-0.052c-0.524-0.174-0.807-0.74-0.632-1.265l2-6
		c0.174-0.523,0.739-0.808,1.265-0.632c0.524,0.174,0.807,0.74,0.632,1.265l-2,6C34.709,10.734,34.319,10.998,33.9,10.998z"/>
	<path style="fill:#5E5F62;" d="M37.9,11.998c-0.104,0-0.211-0.017-0.316-0.052c-0.524-0.174-0.807-0.74-0.632-1.265l2-6
		c0.175-0.523,0.738-0.808,1.265-0.632c0.524,0.174,0.807,0.74,0.632,1.265l-2,6C38.709,11.734,38.319,11.998,37.9,11.998z"/>
	<path style="fill:#5E5F62;" d="M40.899,13.998c-0.15,0-0.303-0.034-0.446-0.105c-0.494-0.247-0.694-0.848-0.447-1.342l3-6
		c0.247-0.494,0.846-0.694,1.342-0.447c0.494,0.247,0.694,0.848,0.447,1.342l-3,6C41.62,13.796,41.267,13.998,40.899,13.998z"/>
	<path style="fill:#F9A671;" d="M23.999,50.514c-0.205,0-0.413-0.063-0.591-0.194c-0.445-0.326-0.541-0.952-0.214-1.397
		c3.312-4.511,9.476-7.517,14.027-6.828c2.337,0.35,4.015,1.66,4.723,3.689c0.182,0.521-0.093,1.092-0.614,1.274
		c-0.522,0.181-1.092-0.093-1.273-0.614c-0.465-1.333-1.519-2.131-3.131-2.372c-3.82-0.563-9.256,2.136-12.119,6.034
		C24.61,50.372,24.307,50.514,23.999,50.514z"/>
	<path style="fill:#F9A671;" d="M31.501,39.674c-1.824,0-3.705-0.991-5.038-2.691c-0.047-0.061-0.086-0.12-0.125-0.181
		c-0.29-0.455-0.195-1.101,0.25-1.405c0.445-0.304,1.024-0.243,1.343,0.191c0.033,0.046,0.064,0.092,0.094,0.139
		c1.072,1.374,2.551,2.092,3.87,1.921c1.14-0.156,2.047-0.973,2.623-2.36c0.717-1.729,0.625-3.685-0.252-5.367
		c-0.774-1.484-2.045-2.549-3.399-2.848c-0.774-0.169-1.522-0.05-2.223,0.357c-0.477,0.277-1.089,0.117-1.367-0.361
		c-0.278-0.478-0.116-1.09,0.361-1.367c1.131-0.659,2.398-0.86,3.659-0.582c1.926,0.424,3.699,1.873,4.743,3.877
		c1.151,2.208,1.27,4.78,0.326,7.057c-0.851,2.053-2.343,3.322-4.2,3.576C31.946,39.66,31.724,39.674,31.501,39.674z"/>
	<path style="fill:#F9A671;" d="M16.679,28c-1.072,0-2.139-0.249-3.126-0.743c-0.494-0.247-0.694-0.848-0.447-1.342
		c0.247-0.494,0.846-0.693,1.342-0.447c1.196,0.599,2.551,0.694,3.818,0.272c1.266-0.422,2.292-1.313,2.89-2.509
		c0.247-0.493,0.847-0.693,1.342-0.447c0.494,0.247,0.694,0.848,0.447,1.342c-0.837,1.674-2.274,2.921-4.047,3.512
		C18.171,27.88,17.424,28,16.679,28z"/>
	<path style="fill:#F9A671;" d="M41.378,23.315c-2.57,0-5.048-1.419-6.273-3.869c-0.247-0.494-0.047-1.095,0.447-1.342
		c0.496-0.246,1.095-0.047,1.342,0.447c1.233,2.466,4.244,3.469,6.708,2.236c0.495-0.246,1.095-0.046,1.342,0.447
		c0.247,0.494,0.046,1.095-0.447,1.342C43.495,23.077,42.429,23.315,41.378,23.315z"/>
</g>
<g>
</g>
<g>
</g>
<g>
</g>
<g>
</g>
<g>
</g>
<g>
</g>
<g>
</g>
<g>
</g>
<g>
</g>
<g>
</g>
<g>
</g>
<g>
</g>
<g>
</g>
<g>
</g>
<g>
</g>
</svg>
