<?xml version="1.0" encoding="iso-8859-1"?>
<!-- Generator: Adobe Illustrator 18.0.0, SVG Export Plug-In . SVG Version: 6.00 Build 0)  -->
<!DOCTYPE svg PUBLIC "-//W3C//DTD SVG 1.1//EN" "http://www.w3.org/Graphics/SVG/1.1/DTD/svg11.dtd">
<svg version="1.1" id="Capa_1" xmlns="http://www.w3.org/2000/svg" xmlns:xlink="http://www.w3.org/1999/xlink" x="0px" y="0px"
	 viewBox="0 0 57 57" style="enable-background:new 0 0 57 57;" xml:space="preserve">
<g>
	<path style="fill:#6E5847;" d="M28.5,0C14.475,0,3,11.475,3,25.5V50c0,2.2,1.8,4,4,4h6.777c4.16,2.021,9.237,3,14.723,3
		s10.563-0.979,14.723-3H50c2.2,0,4-1.8,4-4V25.5C54,11.475,42.525,0,28.5,0z"/>
	<path style="fill:#FDC794;" d="M3.869,29.894C3.305,32.001,3,34.215,3,36.5C3,50.583,14.417,57,28.5,57S54,50.583,54,36.5
		C54,22.842,42.495,11.661,29,11h-1C14.505,11.661,3,22.842,3,36.5C3,50.583,14.417,57,28.5,57S54,50.583,54,36.5"/>
	<path style="fill:#0096E6;" d="M13.083,35.824L13.083,35.824c-1.127,0.019-2.065-0.889-2.083-2.016v0
		c-0.019-1.127,1.967-4.148,1.982-4.132h0c0,0,2.098,2.938,2.117,4.065v0C15.117,34.868,14.21,35.805,13.083,35.824z"/>
	<path style="fill:#0096E6;" d="M44.083,35.824L44.083,35.824c-1.127,0.019-2.065-0.889-2.083-2.016v0
		c-0.019-1.127,1.967-4.148,1.982-4.132h0c0,0,2.098,2.938,2.117,4.065v0C46.117,34.868,45.21,35.805,44.083,35.824z"/>
	<path style="fill:#0096E6;" d="M48.083,43.824L48.083,43.824c-1.127,0.019-2.065-0.889-2.083-2.016v0
		c-0.019-1.127,1.967-4.148,1.982-4.132h0c0,0,2.098,2.938,2.117,4.065v0C50.117,42.868,49.21,43.805,48.083,43.824z"/>
	<path style="fill:#0096E6;" d="M8.984,43.824L8.984,43.824c-1.127,0.019-2.065-0.889-2.083-2.016v0
		c-0.019-1.127,1.967-4.148,1.982-4.132h0c0,0,2.098,2.938,2.117,4.065v0C11.018,42.868,10.111,43.805,8.984,43.824z"/>
	<path style="fill:#F9A671;" d="M22.485,26.676c-0.256,0-0.512-0.098-0.707-0.293c-0.945-0.945-2.201-1.467-3.535-1.467
		c-1.335,0-2.591,0.521-3.536,1.467c-0.391,0.391-1.023,0.391-1.414,0s-0.391-1.023,0-1.414c1.322-1.323,3.081-2.053,4.95-2.053
		c1.868,0,3.627,0.729,4.949,2.053c0.391,0.391,0.391,1.023,0,1.414C22.997,26.578,22.741,26.676,22.485,26.676z"/>
	<path style="fill:#F9A671;" d="M43,26.676c-0.256,0-0.512-0.098-0.707-0.293c-0.945-0.945-2.201-1.467-3.536-1.467
		c-1.334,0-2.59,0.521-3.535,1.467c-0.391,0.391-1.023,0.391-1.414,0s-0.391-1.023,0-1.414c1.322-1.323,3.081-2.053,4.949-2.053
		c1.869,0,3.628,0.729,4.95,2.053c0.391,0.391,0.391,1.023,0,1.414C43.512,26.578,43.256,26.676,43,26.676z"/>
	<path style="fill:#802D40;" d="M18,48.676c0-6.075,4.925-9,11-9s11,2.925,11,9s-4.925,1-11,1S18,54.751,18,48.676z"/>
	<path style="fill:#E64C3C;" d="M29,49.683c1.798,0,3.494,0.445,4.993,0.913c-0.04-2.727-2.256-4.927-4.993-4.927
		s-4.953,2.2-4.993,4.927C25.506,50.127,27.202,49.683,29,49.683z"/>
</g>
<g>
</g>
<g>
</g>
<g>
</g>
<g>
</g>
<g>
</g>
<g>
</g>
<g>
</g>
<g>
</g>
<g>
</g>
<g>
</g>
<g>
</g>
<g>
</g>
<g>
</g>
<g>
</g>
<g>
</g>
</svg>
