<?xml version="1.0" encoding="iso-8859-1"?>
<!-- Generator: Adobe Illustrator 18.0.0, SVG Export Plug-In . SVG Version: 6.00 Build 0)  -->
<!DOCTYPE svg PUBLIC "-//W3C//DTD SVG 1.1//EN" "http://www.w3.org/Graphics/SVG/1.1/DTD/svg11.dtd">
<svg version="1.1" id="Capa_1" xmlns="http://www.w3.org/2000/svg" xmlns:xlink="http://www.w3.org/1999/xlink" x="0px" y="0px"
	 viewBox="0 0 47 47" style="enable-background:new 0 0 47 47;" xml:space="preserve">
<g>
	<path style="fill:#FFD581;" d="M44,19.662L44,19.662c-1.74-9.843-10.158-17-20.5-17S4.74,9.819,3,19.662l0,0
		c-1.663,0.661-3,2.602-3,4.5c0,1.978,1.284,3.639,3.058,4.242C5.21,37.715,13.536,44.662,23.5,44.662
		c9.965,0,18.29-6.948,20.442-16.258l0,0.001C45.716,27.801,47,26.14,47,24.162C47,22.264,45.663,20.323,44,19.662z"/>
	<path style="fill:#0096E6;" d="M10.984,34.811L10.984,34.811c-1.127,0.019-2.065-0.889-2.083-2.016v0
		c-0.019-1.127,1.967-4.148,1.982-4.132h0c0,0,2.098,2.938,2.117,4.065v0C13.018,33.855,12.111,34.792,10.984,34.811z"/>
	<path style="fill:#0096E6;" d="M36.083,34.811L36.083,34.811c-1.127,0.019-2.065-0.889-2.083-2.016v0
		c-0.019-1.127,1.967-4.148,1.982-4.132h0c0,0,2.098,2.938,2.117,4.065v0C38.117,33.855,37.21,34.792,36.083,34.811z"/>
	<path style="fill:#CB8252;" d="M30.34,40.332c-0.553,0-1-0.447-1-1c0-3.126-2.544-5.67-5.67-5.67S18,36.206,18,39.332
		c0,0.553-0.447,1-1,1s-1-0.447-1-1c0-4.229,3.44-7.67,7.67-7.67s7.67,3.44,7.67,7.67C31.34,39.885,30.893,40.332,30.34,40.332z"/>
	<path style="fill:#9D6019;" d="M44,19.662l0,0.001C42.26,9.821,33.684,2.338,23.342,2.338S4.74,9.819,3,19.662
		c0,0,16.906,4.33,28.242-4.726c0.555-0.444,1.362-0.34,1.758,0.25C35.049,18.238,38.828,21.942,44,19.662z"/>
	<path style="fill:#B27821;" d="M19.485,27.421c-0.256,0-0.512-0.098-0.707-0.293c-1.949-1.949-5.122-1.949-7.071,0
		c-0.391,0.391-1.023,0.391-1.414,0s-0.391-1.023,0-1.414c2.728-2.728,7.17-2.729,9.899,0c0.391,0.391,0.391,1.023,0,1.414
		C19.997,27.323,19.741,27.421,19.485,27.421z"/>
	<path style="fill:#B27821;" d="M36,27.421c-0.256,0-0.512-0.098-0.707-0.293c-1.948-1.949-5.121-1.949-7.071,0
		c-0.391,0.391-1.023,0.391-1.414,0s-0.391-1.023,0-1.414c2.729-2.729,7.172-2.728,9.899,0c0.391,0.391,0.391,1.023,0,1.414
		C36.512,27.323,36.256,27.421,36,27.421z"/>
</g>
<g>
</g>
<g>
</g>
<g>
</g>
<g>
</g>
<g>
</g>
<g>
</g>
<g>
</g>
<g>
</g>
<g>
</g>
<g>
</g>
<g>
</g>
<g>
</g>
<g>
</g>
<g>
</g>
<g>
</g>
</svg>
