<?xml version="1.0" encoding="iso-8859-1"?>
<!-- Generator: Adobe Illustrator 18.0.0, SVG Export Plug-In . SVG Version: 6.00 Build 0)  -->
<!DOCTYPE svg PUBLIC "-//W3C//DTD SVG 1.1//EN" "http://www.w3.org/Graphics/SVG/1.1/DTD/svg11.dtd">
<svg version="1.1" id="Capa_1" xmlns="http://www.w3.org/2000/svg" xmlns:xlink="http://www.w3.org/1999/xlink" x="0px" y="0px"
	 viewBox="0 0 47 47" style="enable-background:new 0 0 47 47;" xml:space="preserve">
<g>
	<path style="fill:#FFD581;" d="M44,19.662L44,19.662c-1.74-9.843-10.158-17-20.5-17S4.74,9.819,3,19.662l0,0
		c-1.663,0.661-3,2.602-3,4.5c0,1.978,1.284,3.639,3.058,4.242C5.21,37.715,13.536,44.662,23.5,44.662
		c9.965,0,18.29-6.948,20.442-16.258l0,0.001C45.716,27.801,47,26.14,47,24.162C47,22.264,45.663,20.323,44,19.662z"/>
	<path style="fill:#414141;" d="M44,19.662l0,0.001C42.26,9.821,33.684,2.338,23.342,2.338S4.74,9.819,3,19.662
		c0,0,16.906,4.33,28.242-4.726c0.555-0.444,1.362-0.34,1.758,0.25C35.049,18.238,38.828,21.942,44,19.662z"/>
	<path style="fill:#E2B769;" d="M17.11,32.291c-3.655,0-6.11-2.113-6.11-5.258c0-2.778,2.26-5.038,5.037-5.038
		c2.311,0,4.19,1.879,4.19,4.189c0,1.941-1.579,3.521-3.521,3.521c-1.648,0-2.99-1.342-2.99-2.991c0-1.418,1.154-2.572,2.572-2.572
		c0.553,0,1,0.447,1,1s-0.447,1-1,1c-0.315,0-0.572,0.257-0.572,0.572c0,0.547,0.444,0.991,0.99,0.991
		c0.839,0,1.521-0.682,1.521-1.521c0-1.207-0.982-2.189-2.19-2.189c-1.675,0-3.037,1.363-3.037,3.038
		c0,2.402,2.123,3.258,4.11,3.258c3.319,0,3.815-2.893,3.815-4.617c0-0.553,0.447-1,1-1s1,0.447,1,1
		C22.926,29.756,20.697,32.291,17.11,32.291z"/>
	<path style="fill:#E2B769;" d="M32.332,30.958c-2.311,0-4.19-1.879-4.19-4.189c0-1.94,1.579-3.52,3.521-3.52
		c1.648,0,2.99,1.342,2.99,2.99c0,1.418-1.154,2.572-2.572,2.572c-0.553,0-1-0.447-1-1s0.447-1,1-1c0.315,0,0.572-0.257,0.572-0.572
		c0-0.546-0.444-0.99-0.99-0.99c-0.839,0-1.521,0.682-1.521,1.52c0,1.207,0.982,2.189,2.19,2.189c1.675,0,3.037-1.362,3.037-3.037
		c0-2.402-2.123-3.259-4.11-3.259c-3.319,0-3.815,2.893-3.815,4.617c0,0.553-0.447,1-1,1s-1-0.447-1-1
		c0-4.082,2.229-6.617,5.815-6.617c3.655,0,6.11,2.113,6.11,5.259C37.369,28.698,35.109,30.958,32.332,30.958z"/>
	<path style="fill:#802D40;" d="M24.533,38.665c-1.945-4.237,2.938-4.451,4.837-4.092c0.821,0.155,0.688,0.388,1.131,1.353
		c0.443,0.965,0.706,1.017,0.289,1.74C29.824,39.338,26.478,42.901,24.533,38.665z"/>
</g>
<g>
</g>
<g>
</g>
<g>
</g>
<g>
</g>
<g>
</g>
<g>
</g>
<g>
</g>
<g>
</g>
<g>
</g>
<g>
</g>
<g>
</g>
<g>
</g>
<g>
</g>
<g>
</g>
<g>
</g>
</svg>
