<?xml version="1.0" encoding="iso-8859-1"?>
<!-- Generator: Adobe Illustrator 18.0.0, SVG Export Plug-In . SVG Version: 6.00 Build 0)  -->
<!DOCTYPE svg PUBLIC "-//W3C//DTD SVG 1.1//EN" "http://www.w3.org/Graphics/SVG/1.1/DTD/svg11.dtd">
<svg version="1.1" id="Capa_1" xmlns="http://www.w3.org/2000/svg" xmlns:xlink="http://www.w3.org/1999/xlink" x="0px" y="0px"
	 viewBox="0 0 57.98 57.98" style="enable-background:new 0 0 57.98 57.98;" xml:space="preserve">
<g>
	<path style="fill:#AC744F;" d="M54.295,17.98c-0.62-4.487-2.586-7.48-4.471-9.034c-0.916-0.755-1.439-1.852-1.735-3.001
		c-0.799-3.102-3.738-4.757-6.794-4.965c-1.947-0.133-3.646,0.484-5.589,1.261c-0.611,0.244-1.352-0.01-1.584-0.626
		c-1.194-3.171-8.034-1.545-13.249,3.75c-0.25,0.254-0.684,0.125-0.734-0.228c-0.173-1.23-0.263-3.448,1.155-4.157
		c0,0-4.407-2.479-8.186,0.826c-1.152,1.008-1.905,2.394-2.289,3.875c-0.092,0.355-0.186,0.734-0.269,1.107
		c-0.232,1.033-1.557,1.385-2.238,0.573C8.3,7.345,8.286,7.328,8.273,7.311C7.635,6.533,6.412,6.654,6.014,7.578
		C3.893,12.5,0.604,23.537,8.295,32.98V20.454c1.406-0.518,3.324-1.526,5-3.474c0,0,3.25,2.25,11,3c0,0,4.167-5.667,15-4
		c0,0,2.917,6.75,11,2v15C50.295,32.98,55.648,27.765,54.295,17.98z"/>
	<path style="fill:#FFDB2B;" d="M39.295,15.98c-10.833-1.667-15,4-15,4c-7.75-0.75-11-3-11-3c-1.676,1.948-3.594,2.956-5,3.474
		V32.98v17c0,2.2,1.8,4,4,4h34c2.2,0,4-1.8,4-4v-17v-15C42.212,22.73,39.295,15.98,39.295,15.98z"/>
	<path style="fill:#F0C419;" d="M19.665,34.98c-4.408,0-7.369-2.534-7.369-6.307c0-3.326,2.706-6.032,6.032-6.032
		c2.743,0,4.975,2.232,4.975,4.976c0,2.282-1.857,4.14-4.141,4.14c-1.919,0-3.48-1.562-3.48-3.48c0-1.632,1.328-2.96,2.959-2.96
		c0.552,0,1,0.447,1,1s-0.448,1-1,1c-0.529,0-0.959,0.431-0.959,0.96c0,0.816,0.664,1.48,1.48,1.48c1.18,0,2.141-0.96,2.141-2.14
		c0-1.641-1.334-2.976-2.975-2.976c-2.223,0-4.032,1.809-4.032,4.032c0,3.175,2.773,4.307,5.369,4.307c3.224,0,5-2.131,5-6
		c0-0.553,0.448-1,1-1s1,0.447,1,1C26.665,31.914,23.982,34.98,19.665,34.98z"/>
	<path style="fill:#F0C419;" d="M38.633,33.319c-2.743,0-4.975-2.232-4.975-4.976c0-2.282,1.857-4.14,4.141-4.14
		c1.919,0,3.48,1.562,3.48,3.48c0,1.632-1.328,2.96-2.959,2.96c-0.552,0-1-0.447-1-1s0.448-1,1-1c0.529,0,0.959-0.431,0.959-0.96
		c0-0.816-0.664-1.48-1.48-1.48c-1.18,0-2.141,0.96-2.141,2.14c0,1.641,1.334,2.976,2.975,2.976c2.223,0,4.032-1.809,4.032-4.032
		c0-3.175-2.773-4.307-5.369-4.307c-3.224,0-5,2.131-5,6c0,0.553-0.448,1-1,1s-1-0.447-1-1c0-4.935,2.682-8,7-8
		c4.408,0,7.369,2.534,7.369,6.307C44.665,30.613,41.959,33.319,38.633,33.319z"/>
	<path style="fill:#FEC722;" d="M40.99,57.98H17.601c-0.721,0-1.305-0.584-1.305-1.305V53.98h26v2.695
		C42.295,57.395,41.711,57.98,40.99,57.98z"/>
	<path style="fill:#802D40;" d="M17.295,47.676c0-6.722,5.449-9.958,12.171-9.958s12.171,3.236,12.171,9.958
		s-5.449,1.106-12.171,1.106S17.295,54.398,17.295,47.676z"/>
	<path style="fill:#E64C3C;" d="M23.544,49.919c1.753-0.562,3.772-1.136,5.922-1.136c2.316,0,4.481,0.667,6.324,1.265
		c-0.879-3.529-3.293-6.068-6.14-6.068C26.838,43.98,24.45,46.457,23.544,49.919z"/>
</g>
<g>
</g>
<g>
</g>
<g>
</g>
<g>
</g>
<g>
</g>
<g>
</g>
<g>
</g>
<g>
</g>
<g>
</g>
<g>
</g>
<g>
</g>
<g>
</g>
<g>
</g>
<g>
</g>
<g>
</g>
</svg>
