<?xml version="1.0" encoding="iso-8859-1"?>
<!-- Generator: Adobe Illustrator 18.0.0, SVG Export Plug-In . SVG Version: 6.00 Build 0)  -->
<!DOCTYPE svg PUBLIC "-//W3C//DTD SVG 1.1//EN" "http://www.w3.org/Graphics/SVG/1.1/DTD/svg11.dtd">
<svg version="1.1" id="Capa_1" xmlns="http://www.w3.org/2000/svg" xmlns:xlink="http://www.w3.org/1999/xlink" x="0px" y="0px"
	 viewBox="0 0 42 42" style="enable-background:new 0 0 42 42;" xml:space="preserve">
<g>
	<circle style="fill:#FBD971;" cx="21" cy="21" r="21"/>
	<path style="fill:#F29C1F;" d="M12,21.05c-4.408,0-7.369-2.534-7.369-6.307c0-3.325,2.706-6.031,6.032-6.031
		c2.743,0,4.975,2.231,4.975,4.975c0,2.283-1.857,4.141-4.141,4.141c-1.919,0-3.48-1.562-3.48-3.481
		c0-1.632,1.328-2.959,2.959-2.959c0.552,0,1,0.447,1,1s-0.448,1-1,1c-0.529,0-0.959,0.431-0.959,0.959
		c0,0.816,0.664,1.481,1.48,1.481c1.18,0,2.141-0.96,2.141-2.141c0-1.641-1.334-2.975-2.975-2.975c-2.223,0-4.032,1.809-4.032,4.031
		c0,3.175,2.773,4.307,5.369,4.307c3.224,0,5-2.131,5-6c0-0.553,0.448-1,1-1s1,0.447,1,1C19,17.984,16.318,21.05,12,21.05z"/>
	<path style="fill:#F29C1F;" d="M30.968,19.389c-2.743,0-4.975-2.231-4.975-4.975c0-2.283,1.857-4.141,4.141-4.141
		c1.919,0,3.48,1.562,3.48,3.48c0,1.632-1.328,2.96-2.959,2.96c-0.552,0-1-0.447-1-1s0.448-1,1-1c0.529,0,0.959-0.431,0.959-0.96
		c0-0.816-0.664-1.48-1.48-1.48c-1.18,0-2.141,0.96-2.141,2.141c0,1.641,1.334,2.975,2.975,2.975c2.223,0,4.032-1.809,4.032-4.031
		c0-3.176-2.773-4.308-5.369-4.308c-3.224,0-5,2.131-5,6c0,0.553-0.448,1-1,1s-1-0.447-1-1c0-4.935,2.682-8,7-8
		C34.039,7.05,37,9.585,37,13.357C37,16.683,34.294,19.389,30.968,19.389z"/>
	<path style="fill:#C03A2B;" d="M19.937,33.51c-2.424-5.28,3.662-5.547,6.028-5.1c1.023,0.193,0.857,0.484,1.409,1.686
		c0.552,1.202,0.88,1.267,0.36,2.168C26.53,34.35,22.361,38.79,19.937,33.51z"/>
</g>
<g>
</g>
<g>
</g>
<g>
</g>
<g>
</g>
<g>
</g>
<g>
</g>
<g>
</g>
<g>
</g>
<g>
</g>
<g>
</g>
<g>
</g>
<g>
</g>
<g>
</g>
<g>
</g>
<g>
</g>
</svg>
