<?xml version="1.0" encoding="iso-8859-1"?>
<!-- Generator: Adobe Illustrator 18.0.0, SVG Export Plug-In . SVG Version: 6.00 Build 0)  -->
<!DOCTYPE svg PUBLIC "-//W3C//DTD SVG 1.1//EN" "http://www.w3.org/Graphics/SVG/1.1/DTD/svg11.dtd">
<svg version="1.1" id="Capa_1" xmlns="http://www.w3.org/2000/svg" xmlns:xlink="http://www.w3.org/1999/xlink" x="0px" y="0px"
	 viewBox="0 0 57 57" style="enable-background:new 0 0 57 57;" xml:space="preserve">
<g>
	<path style="fill:#6E5847;" d="M28.5,0C14.475,0,3,11.475,3,25.5V50c0,2.2,1.8,4,4,4h6.777c4.16,2.021,9.237,3,14.723,3
		s10.563-0.979,14.723-3H50c2.2,0,4-1.8,4-4V25.5C54,11.475,42.525,0,28.5,0z"/>
	<path style="fill:#FDC794;" d="M3.869,29.894C3.305,32.001,3,34.215,3,36.5C3,50.583,14.417,57,28.5,57S54,50.583,54,36.5
		C54,22.842,42.495,11.661,29,11h-1C14.505,11.661,3,22.842,3,36.5C3,50.583,14.417,57,28.5,57S54,50.583,54,36.5"/>
	<path style="fill:#F9A671;" d="M18.369,33.85c-4.407,0-7.369-2.534-7.369-6.307c0-3.326,2.706-6.032,6.031-6.032
		c2.743,0,4.976,2.232,4.976,4.976c0,2.282-1.857,4.14-4.141,4.14c-1.919,0-3.48-1.562-3.48-3.48c0-1.632,1.328-2.96,2.96-2.96
		c0.553,0,1,0.447,1,1s-0.447,1-1,1c-0.529,0-0.96,0.431-0.96,0.96c0,0.816,0.664,1.48,1.48,1.48c1.181,0,2.141-0.96,2.141-2.14
		c0-1.641-1.335-2.976-2.976-2.976c-2.223,0-4.031,1.809-4.031,4.032c0,3.175,2.773,4.307,5.369,4.307c3.225,0,5-2.131,5-6
		c0-0.553,0.447-1,1-1s1,0.447,1,1C25.369,30.784,22.687,33.85,18.369,33.85z"/>
	<path style="fill:#F9A671;" d="M40.338,32.188c-2.743,0-4.976-2.232-4.976-4.976c0-2.283,1.857-4.141,4.141-4.141
		c1.919,0,3.48,1.562,3.48,3.481c0,1.632-1.328,2.96-2.96,2.96c-0.553,0-1-0.447-1-1s0.447-1,1-1c0.529,0,0.96-0.431,0.96-0.96
		c0-0.816-0.664-1.481-1.48-1.481c-1.181,0-2.141,0.96-2.141,2.141c0,1.641,1.335,2.976,2.976,2.976
		c2.223,0,4.031-1.809,4.031-4.032c0-3.175-2.773-4.307-5.369-4.307c-3.225,0-5,2.131-5,6c0,0.553-0.447,1-1,1s-1-0.447-1-1
		c0-4.935,2.683-8,7-8c4.407,0,7.369,2.534,7.369,6.307C46.369,29.482,43.663,32.188,40.338,32.188z"/>
	<path style="fill:#802D40;" d="M18,47c0-6.075,4.925-9,11-9s11,2.925,11,9s-4.925,1-11,1S18,53.075,18,47z"/>
	<path style="fill:#E64C3C;" d="M29.007,48.014c1.798,0,3.494,0.445,4.993,0.913C33.96,46.2,31.744,44,29.007,44
		s-4.953,2.2-4.993,4.927C25.513,48.459,27.209,48.014,29.007,48.014z"/>
</g>
<g>
</g>
<g>
</g>
<g>
</g>
<g>
</g>
<g>
</g>
<g>
</g>
<g>
</g>
<g>
</g>
<g>
</g>
<g>
</g>
<g>
</g>
<g>
</g>
<g>
</g>
<g>
</g>
<g>
</g>
</svg>
