<?xml version="1.0" encoding="iso-8859-1"?>
<!-- Generator: Adobe Illustrator 18.0.0, SVG Export Plug-In . SVG Version: 6.00 Build 0)  -->
<!DOCTYPE svg PUBLIC "-//W3C//DTD SVG 1.1//EN" "http://www.w3.org/Graphics/SVG/1.1/DTD/svg11.dtd">
<svg version="1.1" id="Capa_1" xmlns="http://www.w3.org/2000/svg" xmlns:xlink="http://www.w3.org/1999/xlink" x="0px" y="0px"
	 viewBox="0 0 47 47" style="enable-background:new 0 0 47 47;" xml:space="preserve">
<g>
	<path style="fill:#FFD581;" d="M44,19.662L44,19.662c-1.74-9.843-10.158-17-20.5-17S4.74,9.819,3,19.662l0,0
		c-1.663,0.661-3,2.602-3,4.5c0,1.978,1.284,3.639,3.058,4.242C5.21,37.715,13.536,44.662,23.5,44.662
		c9.965,0,18.29-6.948,20.442-16.258l0,0.001C45.716,27.801,47,26.14,47,24.162C47,22.264,45.663,20.323,44,19.662z"/>
	<path style="fill:#B27821;" d="M12,29.808c-0.256,0-0.512-0.098-0.707-0.293c-0.391-0.391-0.391-1.023,0-1.414l5.146-5.146
		c0.391-0.391,1.023-0.391,1.414,0s0.391,1.023,0,1.414l-5.146,5.146C12.512,29.71,12.256,29.808,12,29.808z"/>
	<path style="fill:#B27821;" d="M17.146,29.808c-0.256,0-0.512-0.098-0.707-0.293l-5.146-5.146c-0.391-0.391-0.391-1.023,0-1.414
		s1.023-0.391,1.414,0l5.146,5.146c0.391,0.391,0.391,1.023,0,1.414C17.657,29.71,17.401,29.808,17.146,29.808z"/>
	<path style="fill:#B27821;" d="M31,29.808c-0.256,0-0.512-0.098-0.707-0.293c-0.391-0.391-0.391-1.023,0-1.414l5.146-5.146
		c0.391-0.391,1.023-0.391,1.414,0s0.391,1.023,0,1.414l-5.146,5.146C31.512,29.71,31.256,29.808,31,29.808z"/>
	<path style="fill:#B27821;" d="M36.146,29.808c-0.256,0-0.512-0.098-0.707-0.293l-5.146-5.146c-0.391-0.391-0.391-1.023,0-1.414
		s1.023-0.391,1.414,0l5.146,5.146c0.391,0.391,0.391,1.023,0,1.414C36.657,29.71,36.401,29.808,36.146,29.808z"/>
	<path style="fill:#CB8252;" d="M30.453,39.662c-0.553,0-1-0.447-1-1c0-3.126-2.544-5.67-5.67-5.67s-5.67,2.544-5.67,5.67
		c0,0.553-0.447,1-1,1s-1-0.447-1-1c0-4.229,3.44-7.67,7.67-7.67s7.67,3.44,7.67,7.67C31.453,39.215,31.006,39.662,30.453,39.662z"
		/>
	<path style="fill:#9D6019;" d="M44,19.662l0,0.001C42.26,9.821,33.684,2.338,23.342,2.338S4.74,9.819,3,19.662
		c0,0,16.906,4.33,28.242-4.726c0.555-0.444,1.362-0.34,1.758,0.25C35.049,18.238,38.828,21.942,44,19.662z"/>
</g>
<g>
</g>
<g>
</g>
<g>
</g>
<g>
</g>
<g>
</g>
<g>
</g>
<g>
</g>
<g>
</g>
<g>
</g>
<g>
</g>
<g>
</g>
<g>
</g>
<g>
</g>
<g>
</g>
<g>
</g>
</svg>
