<?xml version="1.0" encoding="iso-8859-1"?>
<!-- Generator: Adobe Illustrator 18.0.0, SVG Export Plug-In . SVG Version: 6.00 Build 0)  -->
<!DOCTYPE svg PUBLIC "-//W3C//DTD SVG 1.1//EN" "http://www.w3.org/Graphics/SVG/1.1/DTD/svg11.dtd">
<svg version="1.1" id="Capa_1" xmlns="http://www.w3.org/2000/svg" xmlns:xlink="http://www.w3.org/1999/xlink" x="0px" y="0px"
	 viewBox="0 0 47 47" style="enable-background:new 0 0 47 47;" xml:space="preserve">
<g>
	<path style="fill:#FFD581;" d="M47,22.662c0-1.898-1.337-3.839-3-4.5c-1.74-9.843-10.158-17-20.5-17S4.74,8.319,3,18.162
		c-1.663,0.661-3,2.602-3,4.5c0,1.978,1.284,3.639,3.058,4.242C5.21,36.215,13.536,43.162,23.5,43.162
		c0.546,0,1.085-0.029,1.621-0.07c-0.072-0.3-0.121-0.608-0.121-0.93v-7.801c1.812,0,7.292,0.021,9,0v5.975
		c4.947-2.871,8.617-7.7,9.942-13.432C45.716,26.301,47,24.64,47,22.662z"/>
	<path style="fill:#B27821;" d="M12,29.162c-0.256,0-0.512-0.098-0.707-0.293c-0.391-0.391-0.391-1.023,0-1.414l5.145-5.146
		c0.391-0.391,1.023-0.391,1.414,0s0.391,1.023,0,1.414l-5.145,5.146C12.512,29.065,12.256,29.162,12,29.162z"/>
	<path style="fill:#B27821;" d="M17.145,29.162c-0.256,0-0.512-0.098-0.707-0.293l-5.145-5.146c-0.391-0.391-0.391-1.023,0-1.414
		s1.023-0.391,1.414,0l5.145,5.146c0.391,0.391,0.391,1.023,0,1.414C17.657,29.065,17.401,29.162,17.145,29.162z"/>
	<path style="fill:#B27821;" d="M31,29.162c-0.256,0-0.512-0.098-0.707-0.293c-0.391-0.391-0.391-1.023,0-1.414l5.145-5.146
		c0.391-0.391,1.023-0.391,1.414,0s0.391,1.023,0,1.414l-5.145,5.146C31.512,29.065,31.256,29.162,31,29.162z"/>
	<path style="fill:#B27821;" d="M36.145,29.162c-0.256,0-0.512-0.098-0.707-0.293l-5.145-5.146c-0.391-0.391-0.391-1.023,0-1.414
		s1.023-0.391,1.414,0l5.145,5.146c0.391,0.391,0.391,1.023,0,1.414C36.657,29.065,36.401,29.162,36.145,29.162z"/>
	<path style="fill:#9D6019;" d="M44,18.162l0,0.001C42.26,8.321,33.684,0.838,23.342,0.838S4.74,8.319,3,18.162
		c0,0,16.906,4.33,28.242-4.726c0.555-0.444,1.362-0.34,1.758,0.25C35.049,16.738,38.828,20.442,44,18.162z"/>
	<g>
		<path style="fill:#FB7B76;" d="M25,34.361v7.801c0,2.2,1.8,4,4,4h1c2.2,0,4-1.8,4-4l0-7.801
			C32.292,34.382,26.812,34.361,25,34.361z"/>
	</g>
	<path style="fill:#E64C3C;" d="M29.533,42.162c-0.552,0-1-0.447-1-1v-0.165c0.001-2.561-0.071-4.144-0.214-4.713
		C28.123,36.102,28,35.841,28,35.552c0-0.553,0.448-1,1-1c1.291,0,1.388,1.67,1.466,3.012c0.068,1.174,0.068,2.534,0.067,3.435
		v0.164C30.533,41.715,30.085,42.162,29.533,42.162z"/>
	<path style="fill:#CB8252;" d="M35,35.362H13c-0.552,0-1-0.447-1-1s0.448-1,1-1h22c0.552,0,1,0.447,1,1S35.552,35.362,35,35.362z"
		/>
</g>
<g>
</g>
<g>
</g>
<g>
</g>
<g>
</g>
<g>
</g>
<g>
</g>
<g>
</g>
<g>
</g>
<g>
</g>
<g>
</g>
<g>
</g>
<g>
</g>
<g>
</g>
<g>
</g>
<g>
</g>
</svg>
