<?xml version="1.0" encoding="iso-8859-1"?>
<!-- Generator: Adobe Illustrator 18.0.0, SVG Export Plug-In . SVG Version: 6.00 Build 0)  -->
<!DOCTYPE svg PUBLIC "-//W3C//DTD SVG 1.1//EN" "http://www.w3.org/Graphics/SVG/1.1/DTD/svg11.dtd">
<svg version="1.1" id="Capa_1" xmlns="http://www.w3.org/2000/svg" xmlns:xlink="http://www.w3.org/1999/xlink" x="0px" y="0px"
	 viewBox="0 0 57.96 57.96" style="enable-background:new 0 0 57.96 57.96;" xml:space="preserve">
<g>
	<path style="fill:#FFDB2B;" d="M39.285,15.96c-10.833-1.667-15,4-15,4c-7.75-0.75-11-3-11-3c-1.676,1.948-3.594,2.956-5,3.474
		V32.96v17c0,2.2,1.8,4,4,4h34c2.2,0,4-1.8,4-4v-17v-15C42.202,22.71,39.285,15.96,39.285,15.96z"/>
	<path style="fill:#556080;" d="M15.285,33.98c-0.256,0-0.512-0.098-0.707-0.293c-0.391-0.391-0.391-1.023,0-1.414l8.485-8.485
		c0.391-0.391,1.023-0.391,1.414,0s0.391,1.023,0,1.414l-8.485,8.485C15.797,33.882,15.541,33.98,15.285,33.98z"/>
	<path style="fill:#556080;" d="M23.771,33.98c-0.256,0-0.512-0.098-0.707-0.293l-8.485-8.485c-0.391-0.391-0.391-1.023,0-1.414
		s1.023-0.391,1.414,0l8.485,8.485c0.391,0.391,0.391,1.023,0,1.414C24.282,33.882,24.027,33.98,23.771,33.98z"/>
	<path style="fill:#556080;" d="M35.8,33.98c-0.256,0-0.512-0.098-0.707-0.293c-0.391-0.391-0.391-1.023,0-1.414l8.485-8.485
		c0.391-0.391,1.023-0.391,1.414,0s0.391,1.023,0,1.414l-8.485,8.485C36.312,33.882,36.056,33.98,35.8,33.98z"/>
	<path style="fill:#556080;" d="M44.285,33.98c-0.256,0-0.512-0.098-0.707-0.293l-8.485-8.485c-0.391-0.391-0.391-1.023,0-1.414
		s1.023-0.391,1.414,0l8.485,8.485c0.391,0.391,0.391,1.023,0,1.414C44.797,33.882,44.541,33.98,44.285,33.98z"/>
	<g>
		<path style="fill:#CC4B4C;" d="M31.285,38.98v7.801c0,2.2,1.8,4,4,4h1c2.2,0,4-1.8,4-4V38.98
			C38.577,39.001,33.098,38.98,31.285,38.98z"/>
	</g>
	<path style="fill:#C03A2B;" d="M35.819,45.591c-0.553,0-1-0.447-1-1v-0.165c0.001-2.562-0.071-4.145-0.215-4.715
		c-0.195-0.182-0.318-0.442-0.318-0.731c0-0.553,0.447-1,1-1c1.291,0,1.388,1.671,1.466,3.013c0.068,1.173,0.067,2.534,0.067,3.435
		v0.164C36.819,45.144,36.371,45.591,35.819,45.591z"/>
	<path style="fill:#F29C1F;" d="M41.285,39.98h-22c-0.553,0-1-0.447-1-1s0.447-1,1-1h22c0.553,0,1,0.447,1,1
		S41.838,39.98,41.285,39.98z"/>
	<path style="fill:#FEC722;" d="M40.98,57.96H17.591c-0.721,0-1.305-0.584-1.305-1.305V53.96h26v2.695
		C42.285,57.375,41.701,57.96,40.98,57.96z"/>
	<path style="fill:#AC744F;" d="M54.285,17.98c-0.62-4.487-2.586-7.48-4.471-9.034c-0.916-0.755-1.439-1.852-1.735-3.001
		c-0.799-3.102-3.738-4.757-6.794-4.965c-1.947-0.133-3.646,0.484-5.589,1.261c-0.611,0.244-1.352-0.01-1.584-0.626
		c-1.194-3.171-8.034-1.545-13.249,3.75c-0.25,0.254-0.684,0.125-0.734-0.228c-0.173-1.23-0.263-3.448,1.155-4.157
		c0,0-4.407-2.479-8.186,0.826c-1.152,1.008-1.905,2.394-2.289,3.875c-0.092,0.355-0.186,0.734-0.269,1.107
		c-0.232,1.033-1.557,1.385-2.238,0.573C8.29,7.345,8.276,7.328,8.263,7.311C7.625,6.533,6.402,6.654,6.004,7.578
		C3.883,12.5,0.594,23.537,8.285,32.98V20.454c1.406-0.518,3.324-1.526,5-3.474c0,0,3.25,2.25,11,3c0,0,4.167-5.667,15-4
		c0,0,2.917,6.75,11,2v15C50.285,32.98,55.638,27.765,54.285,17.98z"/>
</g>
<g>
</g>
<g>
</g>
<g>
</g>
<g>
</g>
<g>
</g>
<g>
</g>
<g>
</g>
<g>
</g>
<g>
</g>
<g>
</g>
<g>
</g>
<g>
</g>
<g>
</g>
<g>
</g>
<g>
</g>
</svg>
