<?xml version="1.0" encoding="iso-8859-1"?>
<!-- Generator: Adobe Illustrator 18.0.0, SVG Export Plug-In . SVG Version: 6.00 Build 0)  -->
<!DOCTYPE svg PUBLIC "-//W3C//DTD SVG 1.1//EN" "http://www.w3.org/Graphics/SVG/1.1/DTD/svg11.dtd">
<svg version="1.1" id="Capa_1" xmlns="http://www.w3.org/2000/svg" xmlns:xlink="http://www.w3.org/1999/xlink" x="0px" y="0px"
	 viewBox="0 0 57 57" style="enable-background:new 0 0 57 57;" xml:space="preserve">
<g>
	<path style="fill:#6E5847;" d="M28.5,0C14.475,0,3,11.475,3,25.5V50c0,2.2,1.8,4,4,4h6.777c4.16,2.021,9.237,3,14.723,3
		s10.563-0.979,14.723-3H50c2.2,0,4-1.8,4-4V25.5C54,11.475,42.525,0,28.5,0z"/>
	<path style="fill:#FDC794;" d="M51,30c-11.099,0-20.503-7.958-23.767-18.968C13.738,11.693,3,22.842,3,36.5
		C3,50.583,14.417,57,28.5,57S54,50.583,54,36.5c0-2.285-0.305-4.499-0.869-6.606C52.428,29.959,51.718,30,51,30z"/>
	<path style="fill:#F9A671;" d="M13.515,32c-0.256,0-0.512-0.098-0.707-0.293c-0.391-0.391-0.391-1.023,0-1.414l8.485-8.485
		c0.391-0.391,1.023-0.391,1.414,0s0.391,1.023,0,1.414l-8.485,8.485C14.026,31.902,13.771,32,13.515,32z"/>
	<path style="fill:#F9A671;" d="M22,32c-0.256,0-0.512-0.098-0.707-0.293l-8.485-8.485c-0.391-0.391-0.391-1.023,0-1.414
		s1.023-0.391,1.414,0l8.485,8.485c0.391,0.391,0.391,1.023,0,1.414C22.512,31.902,22.256,32,22,32z"/>
	<g>
		<path style="fill:#FB7B76;" d="M29,40v7.801c0,2.2,1.8,4,4,4h1c2.2,0,4-1.8,4-4L38,40C36.292,40.021,30.812,40,29,40z"/>
	</g>
	<path style="fill:#E64C3C;" d="M33.533,46.611c-0.552,0-1-0.447-1-1v-0.165c0.001-2.562-0.071-4.145-0.215-4.715
		C32.123,40.55,32,40.289,32,40c0-0.553,0.448-1,1-1c1.291,0,1.388,1.671,1.466,3.013c0.068,1.173,0.068,2.534,0.067,3.435v0.164
		C34.533,46.164,34.085,46.611,33.533,46.611z"/>
	<path style="fill:#F9A671;" d="M39,41H17c-0.552,0-1-0.447-1-1s0.448-1,1-1h22c0.552,0,1,0.447,1,1S39.552,41,39,41z"/>
</g>
<g>
</g>
<g>
</g>
<g>
</g>
<g>
</g>
<g>
</g>
<g>
</g>
<g>
</g>
<g>
</g>
<g>
</g>
<g>
</g>
<g>
</g>
<g>
</g>
<g>
</g>
<g>
</g>
<g>
</g>
</svg>
