<?xml version="1.0" encoding="iso-8859-1"?>
<!-- Generator: Adobe Illustrator 18.0.0, SVG Export Plug-In . SVG Version: 6.00 Build 0)  -->
<!DOCTYPE svg PUBLIC "-//W3C//DTD SVG 1.1//EN" "http://www.w3.org/Graphics/SVG/1.1/DTD/svg11.dtd">
<svg version="1.1" id="Capa_1" xmlns="http://www.w3.org/2000/svg" xmlns:xlink="http://www.w3.org/1999/xlink" x="0px" y="0px"
	 viewBox="0 0 42 42" style="enable-background:new 0 0 42 42;" xml:space="preserve">
<g>
	<circle style="fill:#FBD971;" cx="21" cy="21" r="21"/>
	<path style="fill:#C03A2B;" d="M10,34c0-6.075,4.925-11,11-11s11,4.925,11,11"/>
	<path style="fill:#E64C3C;" d="M10,34c0-2.761,4.925-5,11-5s11,2.239,11,5"/>
	<path style="fill:#F29C1F;" d="M31.999,21c-0.226,0-0.452-0.076-0.64-0.232l-6-5C25.132,15.578,25,15.297,25,15
		s0.132-0.578,0.359-0.768l6-5c0.427-0.354,1.055-0.296,1.409,0.128c0.354,0.424,0.296,1.055-0.128,1.408L27.563,15l5.078,4.232
		c0.424,0.354,0.481,0.984,0.128,1.408C32.57,20.877,32.286,21,31.999,21z"/>
	<path style="fill:#F29C1F;" d="M10.001,21c-0.287,0-0.571-0.123-0.77-0.36c-0.354-0.424-0.296-1.055,0.128-1.408L14.438,15
		l-5.078-4.232C8.936,10.415,8.878,9.784,9.231,9.36c0.354-0.424,0.983-0.482,1.409-0.128l6,5C16.868,14.422,17,14.703,17,15
		s-0.132,0.578-0.359,0.768l-6,5C10.453,20.924,10.227,21,10.001,21z"/>
</g>
<g>
</g>
<g>
</g>
<g>
</g>
<g>
</g>
<g>
</g>
<g>
</g>
<g>
</g>
<g>
</g>
<g>
</g>
<g>
</g>
<g>
</g>
<g>
</g>
<g>
</g>
<g>
</g>
<g>
</g>
</svg>
