<?xml version="1.0" encoding="iso-8859-1"?>
<!-- Generator: Adobe Illustrator 18.0.0, SVG Export Plug-In . SVG Version: 6.00 Build 0)  -->
<!DOCTYPE svg PUBLIC "-//W3C//DTD SVG 1.1//EN" "http://www.w3.org/Graphics/SVG/1.1/DTD/svg11.dtd">
<svg version="1.1" id="Capa_1" xmlns="http://www.w3.org/2000/svg" xmlns:xlink="http://www.w3.org/1999/xlink" x="0px" y="0px"
	 viewBox="0 0 59.006 59.006" style="enable-background:new 0 0 59.006 59.006;" xml:space="preserve">
<g>
	<path style="fill:#FDC794;" d="M54.575,32.491c-1.161-6.276-3.692-10.726-6.707-13.892l0.193,0.628L7.719,24.818
		c-1.055,2.198-1.908,4.729-2.452,7.672c-1.118,6.04,0.043,12.356,3.646,17.323c3.488,4.807,9.761,9.345,21.008,9.189
		c11.246,0.156,17.52-4.381,21.008-9.189C54.532,44.847,55.693,38.531,54.575,32.491z"/>
	<path style="fill:#556080;" d="M51.025,30.66c-3.039-1.736-6.496-2.654-9.996-2.654s-6.957,0.918-9.996,2.654l-0.342,0.195h-1.325
		l-0.342-0.195c-3.039-1.736-6.496-2.654-9.996-2.654s-6.957,0.918-9.996,2.654l-0.504,0.288v0.58c0,2.529,0,8.454,6.321,9.138
		c1.164,0.126,2.274,0.189,3.303,0.189c8.724,0,10.905-4.538,11.3-8h1.153c0.395,3.462,2.575,8,11.3,8h0.001
		c1.027,0,2.138-0.063,3.302-0.189c6.321-0.684,6.321-6.608,6.321-9.138v-0.58L51.025,30.66z"/>
	<g>
		<path style="fill:#8697CB;" d="M17.236,31.148c-0.391-0.391-1.023-0.391-1.414,0l-3,3c-0.391,0.391-0.391,1.023,0,1.414
			c0.195,0.195,0.451,0.293,0.707,0.293s0.512-0.098,0.707-0.293l3-3C17.626,32.172,17.626,31.539,17.236,31.148z"/>
		<path style="fill:#8697CB;" d="M21.822,31.148l-5,5c-0.391,0.391-0.391,1.023,0,1.414c0.195,0.195,0.451,0.293,0.707,0.293
			s0.512-0.098,0.707-0.293l5-5c0.391-0.391,0.391-1.023,0-1.414S22.212,30.758,21.822,31.148z"/>
		<path style="fill:#8697CB;" d="M39.236,31.148c-0.391-0.391-1.023-0.391-1.414,0l-3,3c-0.391,0.391-0.391,1.023,0,1.414
			c0.195,0.195,0.451,0.293,0.707,0.293s0.512-0.098,0.707-0.293l3-3C39.626,32.172,39.626,31.539,39.236,31.148z"/>
		<path style="fill:#8697CB;" d="M45.236,31.148c-0.391-0.391-1.023-0.391-1.414,0l-5,5c-0.391,0.391-0.391,1.023,0,1.414
			c0.195,0.195,0.451,0.293,0.707,0.293s0.512-0.098,0.707-0.293l5-5C45.626,32.172,45.626,31.539,45.236,31.148z"/>
	</g>
	<path style="fill:#556080;" d="M44.529,4.343c-0.313-1.06-0.927-2.02-1.775-2.777C41.622,0.556,40.079,0,38.41,0
		c-1.083,0-2.177,0.237-3.162,0.687l-8.673,3.948c-0.979,0.446-2.12,0.593-3.178,0.402l-8.147-1.451
		c-0.429-0.076-0.868-0.115-1.308-0.115c-3.512,0-6.459,2.318-6.854,5.389C7.059,9.082,7.043,9.308,7.04,9.527l-0.134,5.832
		l39.335-5.452L44.529,4.343z"/>
	<path style="fill:#556080;" d="M46.837,11.843L6.859,17.384l-0.171,7.415c-0.007,0.294,0.116,0.575,0.335,0.77
		c0.184,0.165,0.421,0.254,0.665,0.254c0.046,0,0.092-0.003,0.138-0.01L48.2,20.217c0.29-0.04,0.548-0.206,0.706-0.453
		c0.157-0.247,0.198-0.551,0.112-0.831L46.837,11.843z"/>
	<polygon style="fill:#8697CB;" points="46.241,9.907 6.905,15.359 6.859,17.384 46.837,11.843 	"/>
	<path style="fill:#F9A671;" d="M5.027,34.128c-0.453-0.429-0.985-0.687-1.559-0.687c-1.623,0-2.939,1.981-2.939,4.424
		c0,2.443,1.316,4.424,2.939,4.424c0.687,0,1.311-0.37,1.811-0.964C4.826,38.972,4.747,36.54,5.027,34.128z"/>
	<path style="fill:#F9A671;" d="M58.352,30.301c-0.563-2.377-2.3-3.999-3.879-3.622c-0.491,0.117-0.898,0.43-1.225,0.855
		c0.538,1.515,0.994,3.154,1.328,4.957c0.155,0.837,0.261,1.679,0.328,2.522c0.52,0.284,1.072,0.402,1.608,0.274
		C58.091,34.91,58.915,32.678,58.352,30.301z"/>
	<path style="fill:#F9A671;" d="M23.528,54.006c-0.205,0-0.412-0.063-0.591-0.194c-0.445-0.326-0.541-0.952-0.214-1.397
		c3.311-4.511,9.472-7.518,14.026-6.828c2.337,0.35,4.015,1.66,4.724,3.689c0.182,0.521-0.093,1.092-0.614,1.274
		s-1.091-0.093-1.274-0.614c-0.465-1.333-1.519-2.131-3.131-2.372c-3.813-0.563-9.257,2.136-12.119,6.034
		C24.139,53.864,23.835,54.006,23.528,54.006z"/>
	<path style="fill:#3D324C;" d="M1.476,26.684c-0.491,0-0.92-0.362-0.989-0.862c-0.076-0.548,0.306-1.053,0.853-1.128L53.1,17.52
		c0.549-0.088,1.052,0.306,1.128,0.853c0.076,0.548-0.306,1.053-0.853,1.128L1.615,26.674C1.568,26.681,1.522,26.684,1.476,26.684z"
		/>
</g>
<g>
</g>
<g>
</g>
<g>
</g>
<g>
</g>
<g>
</g>
<g>
</g>
<g>
</g>
<g>
</g>
<g>
</g>
<g>
</g>
<g>
</g>
<g>
</g>
<g>
</g>
<g>
</g>
<g>
</g>
</svg>
