<?xml version="1.0" encoding="iso-8859-1"?>
<!-- Generator: Adobe Illustrator 18.0.0, SVG Export Plug-In . SVG Version: 6.00 Build 0)  -->
<!DOCTYPE svg PUBLIC "-//W3C//DTD SVG 1.1//EN" "http://www.w3.org/Graphics/SVG/1.1/DTD/svg11.dtd">
<svg version="1.1" id="Capa_1" xmlns="http://www.w3.org/2000/svg" xmlns:xlink="http://www.w3.org/1999/xlink" x="0px" y="0px"
	 viewBox="0 0 58 58" style="enable-background:new 0 0 58 58;" xml:space="preserve">
<g>
	<path style="fill:#FDC794;" d="M29.392,54.999c11.246,0.156,17.52-4.381,21.008-9.189c3.603-4.966,4.764-11.283,3.647-17.323
		C50.004,6.642,29.392,6.826,29.392,6.826S8.781,6.642,4.738,28.488c-1.118,6.04,0.044,12.356,3.647,17.323
		C11.872,50.618,18.146,55.155,29.392,54.999z"/>
	<path style="fill:#F9A671;" d="M4.499,30.125c-0.453-0.429-0.985-0.687-1.559-0.687C1.316,29.438,0,31.419,0,33.862
		c0,2.443,1.316,4.424,2.939,4.424c0.687,0,1.311-0.37,1.811-0.964C4.297,34.97,4.218,32.538,4.499,30.125z"/>
	<path style="fill:#F9A671;" d="M57.823,26.298c-0.563-2.377-2.3-3.999-3.879-3.622c-0.491,0.117-0.898,0.43-1.225,0.855
		c0.538,1.515,0.994,3.154,1.328,4.957c0.155,0.837,0.261,1.679,0.328,2.522c0.52,0.284,1.072,0.402,1.608,0.274
		C57.562,30.907,58.386,28.675,57.823,26.298z"/>
	<path style="fill:#5E5F62;" d="M13.9,16.999c-0.256,0-0.512-0.098-0.707-0.293l-5-5c-0.391-0.391-0.391-1.023,0-1.414
		s1.023-0.391,1.414,0l5,5c0.391,0.391,0.391,1.023,0,1.414C14.412,16.901,14.156,16.999,13.9,16.999z"/>
	<path style="fill:#5E5F62;" d="M16.901,13.999c-0.367,0-0.72-0.202-0.896-0.553l-3-6c-0.247-0.494-0.047-1.095,0.447-1.342
		c0.495-0.245,1.094-0.047,1.342,0.447l3,6c0.247,0.494,0.047,1.095-0.447,1.342C17.204,13.964,17.052,13.999,16.901,13.999z"/>
	<path style="fill:#5E5F62;" d="M20.9,11.999c-0.419,0-0.809-0.265-0.948-0.684l-2-6c-0.175-0.524,0.108-1.091,0.632-1.265
		c0.528-0.176,1.09,0.108,1.265,0.632l2,6c0.175,0.524-0.108,1.091-0.632,1.265C21.111,11.982,21.005,11.999,20.9,11.999z"/>
	<path style="fill:#5E5F62;" d="M25.899,10.999c-0.48,0-0.904-0.347-0.985-0.836l-1-6c-0.091-0.544,0.277-1.06,0.822-1.15
		c0.547-0.098,1.061,0.277,1.15,0.822l1,6c0.091,0.544-0.277,1.06-0.822,1.15C26.009,10.995,25.954,10.999,25.899,10.999z"/>
	<path style="fill:#5E5F62;" d="M29.9,10.999c-0.553,0-1-0.447-1-1v-6c0-0.553,0.447-1,1-1s1,0.447,1,1v6
		C30.9,10.551,30.453,10.999,29.9,10.999z"/>
	<path style="fill:#5E5F62;" d="M33.9,10.999c-0.104,0-0.211-0.017-0.316-0.052c-0.523-0.174-0.807-0.74-0.632-1.265l2-6
		c0.174-0.523,0.737-0.808,1.265-0.632c0.523,0.174,0.807,0.74,0.632,1.265l-2,6C34.709,10.734,34.319,10.999,33.9,10.999z"/>
	<path style="fill:#5E5F62;" d="M37.9,11.999c-0.104,0-0.211-0.017-0.316-0.052c-0.523-0.174-0.807-0.74-0.632-1.265l2-6
		c0.175-0.523,0.736-0.808,1.265-0.632c0.523,0.174,0.807,0.74,0.632,1.265l-2,6C38.709,11.734,38.319,11.999,37.9,11.999z"/>
	<path style="fill:#5E5F62;" d="M40.899,13.999c-0.15,0-0.303-0.034-0.446-0.105c-0.494-0.247-0.694-0.848-0.447-1.342l3-6
		c0.248-0.494,0.848-0.692,1.342-0.447c0.494,0.247,0.694,0.848,0.447,1.342l-3,6C41.619,13.796,41.267,13.999,40.899,13.999z"/>
	<circle style="fill:#FFFFFF;" cx="21" cy="25.003" r="6"/>
	<circle style="fill:#7F5B53;" cx="19" cy="23.003" r="2"/>
	<circle style="fill:#FFFFFF;" cx="39" cy="25.003" r="6"/>
	<circle style="fill:#7F5B53;" cx="37" cy="23.003" r="2"/>
	<path style="fill:#F9A671;" d="M21.999,47.004c-0.205,0-0.412-0.063-0.591-0.193c-0.445-0.327-0.541-0.953-0.215-1.398
		c3.31-4.511,9.473-7.517,14.026-6.828c2.338,0.35,4.016,1.66,4.725,3.689c0.182,0.521-0.093,1.092-0.614,1.274
		c-0.522,0.183-1.092-0.093-1.274-0.614c-0.465-1.333-1.519-2.131-3.132-2.372c-3.813-0.57-9.255,2.136-12.117,6.034
		C22.61,46.862,22.307,47.004,21.999,47.004z"/>
</g>
<g>
</g>
<g>
</g>
<g>
</g>
<g>
</g>
<g>
</g>
<g>
</g>
<g>
</g>
<g>
</g>
<g>
</g>
<g>
</g>
<g>
</g>
<g>
</g>
<g>
</g>
<g>
</g>
<g>
</g>
</svg>
