<?xml version="1.0" encoding="iso-8859-1"?>
<!-- Generator: Adobe Illustrator 18.0.0, SVG Export Plug-In . SVG Version: 6.00 Build 0)  -->
<!DOCTYPE svg PUBLIC "-//W3C//DTD SVG 1.1//EN" "http://www.w3.org/Graphics/SVG/1.1/DTD/svg11.dtd">
<svg version="1.1" id="Capa_1" xmlns="http://www.w3.org/2000/svg" xmlns:xlink="http://www.w3.org/1999/xlink" x="0px" y="0px"
	 viewBox="0 0 42 42" style="enable-background:new 0 0 42 42;" xml:space="preserve">
<g>
	<circle style="fill:#FBD971;" cx="21" cy="21" r="21"/>
	<g>
		<path style="fill:#D0E8F9;" d="M15,21H9c-2.2,0-4-1.8-4-4v-4c0-2.2,1.8-4,4-4h6c2.2,0,4,1.8,4,4v4C19,19.2,17.2,21,15,21z"/>
		<path style="fill:#556080;" d="M15,22H9c-2.757,0-5-2.243-5-5v-4c0-2.757,2.243-5,5-5h6c2.757,0,5,2.243,5,5v4
			C20,19.757,17.757,22,15,22z M9,10c-1.654,0-3,1.346-3,3v4c0,1.654,1.346,3,3,3h6c1.654,0,3-1.346,3-3v-4c0-1.654-1.346-3-3-3H9z"
			/>
	</g>
	<g>
		<path style="fill:#D0E8F9;" d="M33,21h-6c-2.2,0-4-1.8-4-4v-4c0-2.2,1.8-4,4-4h6c2.2,0,4,1.8,4,4v4C37,19.2,35.2,21,33,21z"/>
		<path style="fill:#556080;" d="M33,22h-6c-2.757,0-5-2.243-5-5v-4c0-2.757,2.243-5,5-5h6c2.757,0,5,2.243,5,5v4
			C38,19.757,35.757,22,33,22z M27,10c-1.654,0-3,1.346-3,3v4c0,1.654,1.346,3,3,3h6c1.654,0,3-1.346,3-3v-4c0-1.654-1.346-3-3-3H27
			z"/>
	</g>
	<rect x="19" y="14" style="fill:#556080;" width="4" height="2"/>
	<circle style="fill:#556080;" cx="12" cy="15" r="3"/>
	<circle style="fill:#556080;" cx="30" cy="15" r="3"/>
	<path style="fill:#556080;" d="M39.833,11.753l-3.54,3.54l1.414,1.414l2.975-2.975C40.431,13.055,40.149,12.395,39.833,11.753z"/>
	<path style="fill:#556080;" d="M4.267,16.681l1.466-1.361l-3.479-3.747c-0.326,0.647-0.617,1.313-0.876,1.997L4.267,16.681z"/>
	<path style="fill:#26B99A;" d="M32,26.633l9.899-3.632C41.961,22.342,42,21.675,42,21c0-0.041-0.006-0.081-0.006-0.122
		l-10.375,3.771C31.304,24.257,30.826,24,30.284,24H12c-0.554,0-1.137,0.267-1.531,0.673L0.01,20.797C0.01,20.865,0,20.932,0,21
		c0,0.649,0.039,1.287,0.097,1.921L10,26.626v6.658c0,0.091,0.018,0.179,0.036,0.266l-3.055,3.055
		c0.498,0.448,1.017,0.871,1.557,1.271l2.953-2.953C11.66,34.968,11.831,35,12,35h18.284c0.094,0,0.184-0.013,0.274-0.028
		l2.903,2.903c0.54-0.399,1.059-0.823,1.557-1.271l-3.046-3.046c0.015-0.09,0.028-0.18,0.028-0.274V26.633z"/>
</g>
<g>
</g>
<g>
</g>
<g>
</g>
<g>
</g>
<g>
</g>
<g>
</g>
<g>
</g>
<g>
</g>
<g>
</g>
<g>
</g>
<g>
</g>
<g>
</g>
<g>
</g>
<g>
</g>
<g>
</g>
</svg>
