<?xml version="1.0" encoding="iso-8859-1"?>
<!-- Generator: Adobe Illustrator 18.0.0, SVG Export Plug-In . SVG Version: 6.00 Build 0)  -->
<!DOCTYPE svg PUBLIC "-//W3C//DTD SVG 1.1//EN" "http://www.w3.org/Graphics/SVG/1.1/DTD/svg11.dtd">
<svg version="1.1" id="Capa_1" xmlns="http://www.w3.org/2000/svg" xmlns:xlink="http://www.w3.org/1999/xlink" x="0px" y="0px"
	 viewBox="0 0 47 47" style="enable-background:new 0 0 47 47;" xml:space="preserve">
<g>
	<path style="fill:#FFD581;" d="M44,19.662L44,19.662c-1.74-9.843-10.158-17-20.5-17S4.74,9.819,3,19.662l0,0
		c-1.663,0.661-3,2.602-3,4.5c0,1.978,1.284,3.639,3.058,4.242C5.21,37.715,13.536,44.662,23.5,44.662
		c9.965,0,18.29-6.948,20.442-16.258l0,0.001C45.716,27.801,47,26.14,47,24.162C47,22.264,45.663,20.323,44,19.662z"/>
	<circle style="fill:#414141;" cx="17" cy="27.662" r="2"/>
	<circle style="fill:#414141;" cx="31" cy="27.662" r="2"/>
	<path style="fill:#414141;" d="M44,19.662l0,0.001C42.26,9.821,33.684,2.338,23.342,2.338S4.74,9.819,3,19.662
		c0,0,16.906,4.33,28.242-4.726c0.555-0.444,1.362-0.34,1.758,0.25C35.049,18.238,38.828,21.942,44,19.662z"/>
	<path style="fill:#CB8252;" d="M17.001,37.185c-0.954,0-1.848-0.351-2.471-0.975c-0.391-0.391-0.391-1.024,0-1.414
		c0.391-0.391,1.023-0.391,1.414,0c0.263,0.264,0.667,0.409,1.13,0.388c0.465-0.019,0.916-0.203,1.208-0.495
		c1.377-1.376,3.792-1.374,5.167,0c0.59,0.59,1.749,0.59,2.339,0c1.377-1.377,3.789-1.377,5.166,0c0.589,0.59,1.748,0.59,2.339,0
		c0.391-0.391,1.023-0.391,1.414,0s0.391,1.023,0,1.414c-1.375,1.375-3.79,1.377-5.167,0c-0.561-0.559-1.777-0.559-2.338,0
		c-1.377,1.375-3.792,1.375-5.167,0c-0.59-0.59-1.749-0.59-2.339,0c-0.648,0.648-1.575,1.042-2.544,1.079
		C17.102,37.184,17.051,37.185,17.001,37.185z"/>
	<path style="fill:#414141;" d="M19.999,25.662c-0.19,0-0.383-0.055-0.554-0.168l-3-2c-0.46-0.307-0.584-0.927-0.277-1.387
		c0.305-0.46,0.926-0.584,1.387-0.277l3,2c0.46,0.307,0.584,0.927,0.277,1.387C20.64,25.506,20.322,25.662,19.999,25.662z"/>
	<path style="fill:#414141;" d="M28.001,25.662c-0.323,0-0.641-0.156-0.833-0.445c-0.307-0.46-0.183-1.08,0.277-1.387l3-2
		c0.461-0.307,1.081-0.183,1.387,0.277c0.307,0.46,0.183,1.08-0.277,1.387l-3,2C28.384,25.608,28.191,25.662,28.001,25.662z"/>
</g>
<g>
</g>
<g>
</g>
<g>
</g>
<g>
</g>
<g>
</g>
<g>
</g>
<g>
</g>
<g>
</g>
<g>
</g>
<g>
</g>
<g>
</g>
<g>
</g>
<g>
</g>
<g>
</g>
<g>
</g>
</svg>
