<?xml version="1.0" encoding="iso-8859-1"?>
<!-- Generator: Adobe Illustrator 18.0.0, SVG Export Plug-In . SVG Version: 6.00 Build 0)  -->
<!DOCTYPE svg PUBLIC "-//W3C//DTD SVG 1.1//EN" "http://www.w3.org/Graphics/SVG/1.1/DTD/svg11.dtd">
<svg version="1.1" id="Capa_1" xmlns="http://www.w3.org/2000/svg" xmlns:xlink="http://www.w3.org/1999/xlink" x="0px" y="0px"
	 viewBox="0 0 58 58" style="enable-background:new 0 0 58 58;" xml:space="preserve">
<g>
	<path style="fill:#FDC794;" d="M54.046,24.261C50.004,2.415,29.392,2.6,29.392,2.6S8.781,2.415,4.738,24.261
		c-1.118,6.04,0.044,12.356,3.647,17.323c3.488,4.807,9.761,9.345,21.008,9.189c0.905,0.013,1.766-0.016,2.608-0.062V44.6
		c1.812,0,7.292,0.021,9,0v4.239c4.369-1.742,7.364-4.449,9.4-7.255C54.003,36.617,55.164,30.301,54.046,24.261z"/>
	<path style="fill:#F9A671;" d="M4.499,25.898c-0.453-0.429-0.985-0.687-1.559-0.687C1.316,25.211,0,27.192,0,29.635
		c0,2.443,1.316,4.424,2.939,4.424c0.687,0,1.311-0.37,1.811-0.964C4.297,30.743,4.218,28.311,4.499,25.898z"/>
	<path style="fill:#F9A671;" d="M57.823,22.071c-0.563-2.377-2.3-3.999-3.879-3.622c-0.491,0.117-0.898,0.43-1.225,0.855
		c0.538,1.515,0.994,3.154,1.328,4.957c0.155,0.837,0.261,1.679,0.328,2.522c0.52,0.284,1.072,0.402,1.608,0.274
		C57.562,26.681,58.386,24.448,57.823,22.071z"/>
	<g>
		<path style="fill:#5E5F62;" d="M29.378,1.6C28.566,1.6,9.45,1.827,4.309,21.625l-0.144,0.554l1.816,1.817
			c1.406,0.874,2.923,1.422,4.527,0.384c1.319-0.853,2.565-1.791,3.877-2.645c2.473-3.699,6.682-6.033,11.288-5.528
			c5.922,0.649,10.614,5.915,13.778,10.583c0.023,0.034,0.035,0.067,0.055,0.101c1.073,0.403,1.775,1.427,1.955,2.597
			c0.154,0.998-0.059,2.119-0.089,3.137c2.156-0.461,6.227-3.125,6.202-4.52c-0.039-2.171,0.412-4.191,0.443-6.339
			c0.022-1.512,1.882-1.86,2.683-0.727c0.846,1.196,0.621,0.287,0.868-0.531c0.223-0.737,0.758-1.335,1-2.083
			c0.117-0.363,0.331-0.613,0.587-0.775C46.655,1.796,30.119,1.6,29.378,1.6z"/>
		<g>
			<path style="fill:#3C3E42;" d="M52.434,16.981c-0.535-0.112-1.073,0.221-1.193,0.76c-0.228,1.023-0.404,1.656-0.536,2.049
				c-0.084-0.11-0.168-0.223-0.243-0.323c-0.531-0.711-1.257-1.656-2.255-2.456c-2.078-5.761-6.67-11.126-10.276-13.742
				c-0.447-0.326-1.071-0.225-1.396,0.223c-0.324,0.446-0.225,1.072,0.223,1.396c4.924,3.573,11.312,12.229,10.496,19.187
				c-0.163,1.39-0.626,2.635-1.361,3.742c0.366-1.674,0.273-3.551-0.306-5.607c-2.619-9.306-14.758-20.07-20.7-20.07
				c-0.553,0-1,0.447-1,1s0.447,1,1,1c4.706,0,16.312,9.859,18.774,18.612c0.565,2.009,0.588,3.772,0.086,5.286
				c0.009-1.512-0.35-3.103-1.13-4.752C38.368,14.294,22.444,4.843,17.389,4.843c-0.553,0-1,0.447-1,1s0.447,1,1,1
				c4.037,0,19.312,8.602,23.419,17.296c0.808,1.712,1.097,3.268,0.902,4.703c-0.38-1.026-0.962-2.127-1.75-3.291
				c-2.225-3.284-5.78-6.674-9.978-9.486c-0.026-0.019-0.05-0.037-0.077-0.054c-5.609-3.74-12.36-6.438-18.658-6.438
				c-0.553,0-1,0.447-1,1c0,0.482,0.348,0.866,0.802,0.96C11.029,11.613,11,11.69,11,11.776c0,0.552,0.448,1,1,1s1-0.448,1-1
				c0-0.044-0.02-0.082-0.025-0.124c0.341,0.027,0.684,0.073,1.027,0.115c0,0-0.002,0.006-0.002,0.009c0,0.552,0.448,1,1,1
				c0.444,0,0.808-0.294,0.938-0.695c0.422,0.085,0.843,0.163,1.265,0.269c0.182,0.252,0.463,0.426,0.797,0.426
				c0.142,0,0.276-0.031,0.399-0.085c2.161,0.635,4.3,1.506,6.35,2.564c-3.613-0.184-5.99,0.572-8.469,2.465
				c-0.114,0.087-0.215,0.193-0.326,0.284C15.972,17.929,16,17.857,16,17.776c0-0.552-0.448-1-1-1s-1,0.448-1,1s0.448,1,1,1
				c0.031,0,0.056-0.015,0.086-0.017c-0.461,0.444-0.898,0.914-1.297,1.422c-0.001,0.001-0.003,0.003-0.004,0.004
				c-0.182-0.242-0.459-0.409-0.785-0.409c-0.552,0-1,0.448-1,1c0,0.329,0.169,0.607,0.415,0.789
				c-1.298,1.048-2.802,1.639-4.093,1.543c-1.008-0.083-1.763-0.57-2.245-1.45c-0.265-0.484-0.873-0.664-1.357-0.396
				c-0.484,0.266-0.662,0.873-0.396,1.357c0.803,1.464,2.164,2.346,3.836,2.482c0.152,0.013,0.307,0.019,0.462,0.019
				c2.348,0,4.947-1.415,6.742-3.704c0.624-0.794,1.341-1.502,2.132-2.105c2.91-2.226,5.628-2.581,11.552-1.495
				c3.889,2.636,7.184,5.795,9.259,8.857c1.621,2.395,2.266,4.483,1.767,5.732c-0.006,0.015-0.003,0.031-0.008,0.046
				c-0.008,0.023-0.018,0.044-0.024,0.067c-0.012,0.046-0.011,0.093-0.016,0.141c-0.005,0.042-0.021,0.082-0.02,0.125
				c0,0.018,0.005,0.035,0.006,0.052c0.001,0.021,0.001,0.04,0.003,0.061c0.006,0.05,0.028,0.096,0.041,0.145
				c0.002,0.007,0.003,0.015,0.005,0.023c0.01,0.032,0.006,0.065,0.019,0.097c0.001,0.002,0.002,0.003,0.003,0.004
				c0.005,0.011,0.013,0.02,0.018,0.031c0.001,0.003,0.004,0.006,0.005,0.009c0.01,0.021,0.02,0.041,0.031,0.061
				c0.006,0.01,0.005,0.022,0.012,0.032c0.015,0.025,0.037,0.043,0.054,0.066c0.023,0.031,0.046,0.062,0.072,0.09
				c0.003,0.003,0.004,0.006,0.007,0.009c0.009,0.009,0.014,0.02,0.024,0.029c0.015,0.014,0.032,0.025,0.047,0.039
				c0.006,0.005,0.008,0.013,0.015,0.018c0.012,0.01,0.027,0.013,0.039,0.022c0.026,0.02,0.051,0.04,0.079,0.056
				c0.036,0.022,0.074,0.039,0.113,0.056c0.012,0.005,0.02,0.016,0.033,0.021c0.006,0.002,0.013,0.001,0.019,0.004
				c0.014,0.006,0.028,0.01,0.043,0.015c0.014,0.004,0.026,0.009,0.04,0.013c0.085,0.024,0.173,0.038,0.262,0.039
				c0.002,0,0.004,0.001,0.006,0.001h0c0,0,0,0,0,0H41c0,0,0,0,0,0c0.094,0,0.188-0.015,0.28-0.042
				c0.023-0.007,0.043-0.019,0.065-0.027c0.013-0.005,0.027-0.002,0.039-0.008c0.01-0.004,0.019-0.009,0.029-0.014
				c0.004-0.002,0.008-0.004,0.012-0.006c4.618-1.936,7.321-5.174,7.814-9.372c0.122-1.043,0.104-2.105-0.022-3.174
				c0.489,0.621,0.971,1.099,1.619,1.099c0.098,0,0.2-0.012,0.306-0.034c1.039-0.223,1.472-1.422,2.051-4.024
				C53.312,17.636,52.973,17.101,52.434,16.981z"/>
			<circle style="fill:#3C3E42;" cx="7" cy="20.776" r="1"/>
			<circle style="fill:#3C3E42;" cx="10" cy="20.776" r="1"/>
			<circle style="fill:#3C3E42;" cx="9" cy="17.776" r="1"/>
			<circle style="fill:#3C3E42;" cx="12" cy="17.776" r="1"/>
			<circle style="fill:#3C3E42;" cx="19" cy="14.776" r="1"/>
			<circle style="fill:#3C3E42;" cx="16" cy="14.776" r="1"/>
			<circle style="fill:#3C3E42;" cx="13" cy="14.776" r="1"/>
			<circle style="fill:#3C3E42;" cx="10" cy="14.776" r="1"/>
		</g>
	</g>
	<path style="fill:#F9A671;" d="M24.56,31.767c-0.09,0-0.179-0.002-0.269-0.005c-4.746-0.154-7.958-4.384-8.093-4.563
		c-0.329-0.442-0.239-1.067,0.202-1.398c0.441-0.329,1.069-0.24,1.399,0.2c0.027,0.036,2.789,3.647,6.568,3.764
		c2.353,0.08,4.651-1.212,6.871-3.813c0.36-0.421,0.991-0.47,1.41-0.111c0.42,0.358,0.47,0.989,0.111,1.41
		C30.202,30.247,27.443,31.767,24.56,31.767z"/>
	<g>
		<g>
			<path style="fill:#FB7B76;" d="M32,44.599V52.4c0,2.2,1.8,4,4,4h1c2.2,0,4-1.8,4-4l0-7.801C39.292,44.62,33.812,44.599,32,44.599
				z"/>
		</g>
		<path style="fill:#F9A671;" d="M42,44.6H20c-0.553,0-1-0.447-1-1s0.447-1,1-1h22c0.553,0,1,0.447,1,1S42.553,44.6,42,44.6z"/>
		<path style="fill:#E64C3C;" d="M35.181,44.599c-0.02,0.143-0.017,0.29,0.029,0.437c0.393,1.252,0.364,2.744,0.337,4.188
			c-0.006,0.332-0.013,0.661-0.014,0.983c-0.002,0.553,0.444,1.002,0.996,1.004c0.001,0,0.003,0,0.004,0
			c0.551,0,0.998-0.445,1-0.996c0.001-0.313,0.007-0.631,0.014-0.954c0.027-1.476,0.049-3.141-0.391-4.661H35.181z"/>
	</g>
</g>
<g>
</g>
<g>
</g>
<g>
</g>
<g>
</g>
<g>
</g>
<g>
</g>
<g>
</g>
<g>
</g>
<g>
</g>
<g>
</g>
<g>
</g>
<g>
</g>
<g>
</g>
<g>
</g>
<g>
</g>
</svg>
