<?xml version="1.0" encoding="iso-8859-1"?>
<!-- Generator: Adobe Illustrator 18.0.0, SVG Export Plug-In . SVG Version: 6.00 Build 0)  -->
<!DOCTYPE svg PUBLIC "-//W3C//DTD SVG 1.1//EN" "http://www.w3.org/Graphics/SVG/1.1/DTD/svg11.dtd">
<svg version="1.1" id="Capa_1" xmlns="http://www.w3.org/2000/svg" xmlns:xlink="http://www.w3.org/1999/xlink" x="0px" y="0px"
	 viewBox="0 0 47 47" style="enable-background:new 0 0 47 47;" xml:space="preserve">
<g>
	<path style="fill:#FFD581;" d="M44,19.5L44,19.5c-1.74-9.843-10.158-17-20.5-17S4.74,9.657,3,19.5l0,0c-1.663,0.661-3,2.602-3,4.5
		c0,1.978,1.284,3.639,3.058,4.242C5.21,37.552,13.536,44.5,23.5,44.5c9.965,0,18.29-6.948,20.442-16.258l0,0.001
		C45.716,27.639,47,25.978,47,24C47,22.102,45.663,20.161,44,19.5z"/>
	<circle style="fill:#414141;" cx="18" cy="23.175" r="2"/>
	<path style="fill:#CB8252;" d="M17.858,40.175c-0.205,0-0.413-0.063-0.591-0.194c-0.445-0.326-0.541-0.952-0.214-1.397
		c2.945-4.013,6.311-6.062,9.232-5.625c2.104,0.314,3.758,1.908,4.658,4.486c0.182,0.521-0.093,1.092-0.614,1.274
		c-0.521,0.181-1.091-0.094-1.273-0.614c-0.456-1.305-1.357-2.913-3.066-3.169c-2.133-0.316-4.87,1.488-7.324,4.831
		C18.47,40.034,18.166,40.175,17.858,40.175z"/>
	<path style="fill:#414141;" d="M31.206,4.013l0.055-0.06C28.868,3.022,26.256,2.5,23.5,2.5c-6.296,0-11.868,2.662-15.665,6.958
		l0.09,0.348c13.685,0,28.717,14.365,26.543,19.808C47.515,24.183,38.133,9.04,31.206,4.013z"/>
	<path style="fill:#565050;" d="M38.052,27.426c0.99-1.688,1.315-3.702,0.905-5.993C37.54,13.509,27.891,4.413,22.134,2.546
		c-1.666,0.103-3.272,0.397-4.802,0.855l0.961,0.284c0.735,0.218,1.477,0.362,2.194,0.502l0.341,0.067
		c4.958,0.979,14.815,10.01,16.16,17.53c0.5,2.794-0.269,4.917-2.324,6.474c0.021,0.493-0.035,0.951-0.197,1.355
		C35.941,29.001,37.115,28.259,38.052,27.426z"/>
	<path style="fill:#565050;" d="M14.528,4.71c-0.113-0.022-0.229-0.054-0.342-0.078c-0.865,0.423-1.696,0.902-2.486,1.437
		c0.828,0.237,1.64,0.447,2.442,0.604c4.697,0.925,17.733,8.644,20.451,16.229c0.62,1.73,0.617,3.268-0.01,4.662
		c0.143,0.766,0.12,1.463-0.115,2.051c0.642-0.267,1.214-0.564,1.75-0.876c0.994-1.952,1.097-4.168,0.257-6.512
		C33.587,14.167,20.15,5.818,14.528,4.71z"/>
</g>
<g>
</g>
<g>
</g>
<g>
</g>
<g>
</g>
<g>
</g>
<g>
</g>
<g>
</g>
<g>
</g>
<g>
</g>
<g>
</g>
<g>
</g>
<g>
</g>
<g>
</g>
<g>
</g>
<g>
</g>
</svg>
