<?xml version="1.0" encoding="iso-8859-1"?>
<!-- Generator: Adobe Illustrator 18.0.0, SVG Export Plug-In . SVG Version: 6.00 Build 0)  -->
<!DOCTYPE svg PUBLIC "-//W3C//DTD SVG 1.1//EN" "http://www.w3.org/Graphics/SVG/1.1/DTD/svg11.dtd">
<svg version="1.1" id="Capa_1" xmlns="http://www.w3.org/2000/svg" xmlns:xlink="http://www.w3.org/1999/xlink" x="0px" y="0px"
	 viewBox="0 0 52.222 52.222" style="enable-background:new 0 0 52.222 52.222;" xml:space="preserve">
<g>
	<path style="fill:#FFD581;" d="M46.314,27.222c-0.238-1.346-0.408-2.541-0.836-3.752C42.947,23.099,35.856,23,26.314,23
		c-10.739,0-18.149,0.433-20.275,0.786c-0.349,1.104-0.508,2.207-0.725,3.435c-1.663,0.661-3,2.602-3,4.5
		c0,1.978,1.284,3.639,3.058,4.242c2.153,9.31,10.478,16.258,20.442,16.258c9.964,0,18.29-6.948,20.442-16.258
		c1.774-0.604,3.058-2.265,3.058-4.242C49.314,29.824,47.976,27.883,46.314,27.222z"/>
	<g>
		<path style="fill:#556080;" d="M24.504,29.343c0,2.397-0.814,7.595-10.85,6.51c-4.17-0.451-4.34-4.113-4.34-6.51l0,0
			C14.02,26.654,19.798,26.654,24.504,29.343L24.504,29.343z"/>
		<path style="fill:#464F5D;" d="M16.194,36.998c-0.831,0-1.713-0.05-2.647-0.151c-5.232-0.564-5.232-5.428-5.232-7.504v-0.58
			l0.504-0.288c4.991-2.852,11.191-2.852,16.183,0l0.504,0.288v0.58c0,2.341-0.744,4.195-2.212,5.513
			C21.704,36.281,19.322,36.998,16.194,36.998z M10.321,29.933c0.075,2.836,0.751,4.636,3.44,4.926
			c3.868,0.42,6.626-0.084,8.195-1.491c0.924-0.829,1.427-1.959,1.529-3.44C19.373,27.801,14.431,27.805,10.321,29.933z"/>
	</g>
	<g>
		<path style="fill:#556080;" d="M26.902,29.343c0,2.397,0.814,7.595,10.85,6.51c4.17-0.451,4.34-4.113,4.34-6.51l0,0
			C37.386,26.654,31.609,26.654,26.902,29.343L26.902,29.343z"/>
		<path style="fill:#464F5D;" d="M35.213,36.998c-3.129,0-5.51-0.717-7.098-2.143c-1.468-1.317-2.212-3.172-2.212-5.513v-0.58
			l0.504-0.288c4.99-2.852,11.191-2.852,16.182,0l0.504,0.288v0.58c0,2.076,0,6.939-5.232,7.504
			C36.925,36.948,36.043,36.998,35.213,36.998z M27.922,29.927c0.102,1.481,0.604,2.611,1.529,3.44
			c1.569,1.408,4.325,1.912,8.194,1.491c2.688-0.29,3.365-2.09,3.44-4.926C36.976,27.805,32.032,27.803,27.922,29.927z"/>
	</g>
	<g>
		<line style="fill:#556080;" x1="24.504" y1="29.604" x2="26.902" y2="29.604"/>
		<rect x="24.504" y="28.604" style="fill:#464F5D;" width="2.398" height="2"/>
	</g>
	<path style="fill:#8697CB;" d="M12.511,33.003c-0.256,0-0.512-0.098-0.707-0.293c-0.391-0.391-0.391-1.023,0-1.414l2.398-2.398
		c0.391-0.391,1.023-0.391,1.414,0s0.391,1.023,0,1.414l-2.398,2.398C13.023,32.905,12.767,33.003,12.511,33.003z"/>
	<path style="fill:#8697CB;" d="M15.71,34.602c-0.256,0-0.512-0.098-0.707-0.293c-0.391-0.391-0.391-1.023,0-1.414L19,28.897
		c0.391-0.391,1.023-0.391,1.414,0s0.391,1.023,0,1.414l-3.998,3.997C16.221,34.504,15.965,34.602,15.71,34.602z"/>
	<path style="fill:#8697CB;" d="M30.1,33.003c-0.256,0-0.512-0.098-0.707-0.293c-0.391-0.391-0.391-1.023,0-1.414l2.398-2.398
		c0.391-0.391,1.023-0.391,1.414,0s0.391,1.023,0,1.414l-2.398,2.398C30.612,32.905,30.356,33.003,30.1,33.003z"/>
	<path style="fill:#8697CB;" d="M33.298,34.602c-0.256,0-0.512-0.098-0.707-0.293c-0.391-0.391-0.391-1.023,0-1.414l3.998-3.997
		c0.391-0.391,1.023-0.391,1.414,0s0.391,1.023,0,1.414l-3.998,3.997C33.81,34.504,33.554,34.602,33.298,34.602z"/>
	<path style="fill:#CB8252;" d="M25.799,48.001c-2.181,0-4.332-0.827-6.411-2.469c-0.434-0.343-0.507-0.972-0.165-1.405
		c0.343-0.433,0.971-0.506,1.404-0.165c2.039,1.61,4.115,2.274,6.168,1.964c3.852-0.573,6.503-4.337,6.53-4.375
		c0.314-0.454,0.936-0.567,1.391-0.254c0.454,0.314,0.568,0.936,0.255,1.39c-0.126,0.184-3.152,4.505-7.866,5.216
		C26.67,47.968,26.234,48.001,25.799,48.001z"/>
	<path style="fill:#CB8252;" d="M35.313,43.8c-0.208,0-0.419-0.065-0.599-0.2l-2.4-1.8c-0.442-0.331-0.531-0.958-0.2-1.399
		c0.332-0.442,0.958-0.531,1.4-0.2l2.4,1.8c0.442,0.331,0.531,0.958,0.2,1.399C35.917,43.662,35.617,43.8,35.313,43.8z"/>
	<path style="fill:#CB8252;" d="M18.515,46.2c-0.304,0-0.604-0.138-0.801-0.4c-0.332-0.441-0.242-1.068,0.2-1.399l2.4-1.8
		c0.444-0.331,1.07-0.242,1.4,0.2c0.332,0.441,0.242,1.068-0.2,1.399l-2.4,1.8C18.934,46.135,18.723,46.2,18.515,46.2z"/>
	<path style="fill:#556080;" d="M33.314,15H19.047c-17.848,0-21.98,4.586-14.843,8.361L5.411,24c-0.316-0.359,7.84-1,20.903-1
		s21.542,0.184,20,1l1.664-0.639C55.114,19.586,51.161,15,33.314,15z"/>
	<g>
		<path style="fill:#8697CB;" d="M19.403,15H33.67c4.806,0,8.789,0.334,11.644,1c-2.811-5.376-8.625-16-15.083-16h-7.389
			C16.385,0,10.125,10.624,7.314,16C10.169,15.334,14.597,15,19.403,15z"/>
	</g>
</g>
<g>
</g>
<g>
</g>
<g>
</g>
<g>
</g>
<g>
</g>
<g>
</g>
<g>
</g>
<g>
</g>
<g>
</g>
<g>
</g>
<g>
</g>
<g>
</g>
<g>
</g>
<g>
</g>
<g>
</g>
</svg>
