<?xml version="1.0" encoding="iso-8859-1"?>
<!-- Generator: Adobe Illustrator 18.0.0, SVG Export Plug-In . SVG Version: 6.00 Build 0)  -->
<!DOCTYPE svg PUBLIC "-//W3C//DTD SVG 1.1//EN" "http://www.w3.org/Graphics/SVG/1.1/DTD/svg11.dtd">
<svg version="1.1" id="Capa_1" xmlns="http://www.w3.org/2000/svg" xmlns:xlink="http://www.w3.org/1999/xlink" x="0px" y="0px"
	 viewBox="0 0 55.956 55.956" style="enable-background:new 0 0 55.956 55.956;" xml:space="preserve">
<g>
	<path style="fill:#E64C3C;" d="M20.729,51.997c-7.267,0-13.291-3.461-16.29-9.435C1.17,36.05,2.269,28.29,7.309,22.312
		c0.356-0.422,0.985-0.478,1.409-0.12c0.422,0.355,0.476,0.986,0.12,1.409c-4.515,5.356-5.516,12.278-2.611,18.064
		c2.82,5.616,8.714,8.711,15.787,8.293c0.547-0.028,1.024,0.387,1.058,0.938c0.033,0.551-0.387,1.024-0.938,1.058
		C21.661,51.983,21.192,51.997,20.729,51.997z"/>
	<polygon style="fill:#C03A2B;" points="21.073,55.956 22.073,50.956 21.073,45.956 32.073,50.956 	"/>
	<path style="fill:#F0785A;" d="M53.1,0l-2.066,3.443c-1.373,2.288-3.418,4.081-5.842,5.149c-3.852-4.611-9.641-7.548-16.119-7.548
		c-6.478,0-12.267,2.937-16.119,7.548C10.531,7.524,8.485,5.73,7.112,3.443L5.047,0c0,0-1.951,10.076,4.534,14.258
		c-0.963,2.41-1.508,5.032-1.508,7.786c0,11.598,9.402,21,21,21s21-9.402,21-21c0-2.754-0.545-5.376-1.508-7.786
		C55.051,10.076,53.1,0,53.1,0z"/>
	<path style="fill:#C2615F;" d="M35.673,35.044c-0.553,0-1-0.447-1-1c0-1.179-2.951-2-5.6-2s-5.6,0.821-5.6,2c0,0.553-0.447,1-1,1
		s-1-0.447-1-1c0-3.157,4.777-4,7.6-4s7.6,0.843,7.6,4C36.673,34.597,36.226,35.044,35.673,35.044z"/>
	<path style="fill:#C2615F;" d="M24.074,15.722c-0.344,0-0.678-0.177-0.864-0.495l-1.804-3.085l-2.612-0.099
		c-0.552-0.021-0.982-0.484-0.961-1.037c0.021-0.539,0.464-0.962,0.998-0.962c0.013,0,0.025,0,0.039,0.001l3.708,0.14l2.358,4.032
		c0.278,0.477,0.118,1.089-0.358,1.368C24.419,15.678,24.246,15.722,24.074,15.722z"/>
	<path style="fill:#C2615F;" d="M33.072,15.722c-0.172,0-0.345-0.044-0.504-0.137c-0.477-0.279-0.637-0.892-0.358-1.368l2.358-4.032
		l3.708-0.14c0.568-0.051,1.017,0.409,1.037,0.961c0.021,0.553-0.409,1.017-0.961,1.037l-2.612,0.099l-1.804,3.085
		C33.75,15.545,33.416,15.722,33.072,15.722z"/>
	<circle style="fill:#F3D55B;" cx="18.573" cy="17.544" r="3.5"/>
	<circle style="fill:#F3D55B;" cx="38.573" cy="17.544" r="3.5"/>
	<circle style="fill:#E64C3C;" cx="38.573" cy="17.544" r="1.5"/>
	<circle style="fill:#E64C3C;" cx="18.573" cy="17.544" r="1.5"/>
</g>
<g>
</g>
<g>
</g>
<g>
</g>
<g>
</g>
<g>
</g>
<g>
</g>
<g>
</g>
<g>
</g>
<g>
</g>
<g>
</g>
<g>
</g>
<g>
</g>
<g>
</g>
<g>
</g>
<g>
</g>
</svg>
