<?xml version="1.0" encoding="iso-8859-1"?>
<!-- Generator: Adobe Illustrator 18.0.0, SVG Export Plug-In . SVG Version: 6.00 Build 0)  -->
<!DOCTYPE svg PUBLIC "-//W3C//DTD SVG 1.1//EN" "http://www.w3.org/Graphics/SVG/1.1/DTD/svg11.dtd">
<svg version="1.1" id="Capa_1" xmlns="http://www.w3.org/2000/svg" xmlns:xlink="http://www.w3.org/1999/xlink" x="0px" y="0px"
	 viewBox="0 0 47 47" style="enable-background:new 0 0 47 47;" xml:space="preserve">
<g>
	<path style="fill:#FFD581;" d="M44,19.662L44,19.662c-1.74-9.843-10.158-17-20.5-17S4.74,9.819,3,19.662l0,0
		c-1.663,0.661-3,2.602-3,4.5c0,1.978,1.284,3.639,3.058,4.242C5.21,37.715,13.536,44.662,23.5,44.662
		c9.965,0,18.29-6.948,20.442-16.258l0,0.001C45.716,27.801,47,26.14,47,24.162C47,22.264,45.663,20.323,44,19.662z"/>
	<circle style="fill:#414141;" cx="16" cy="25.662" r="2"/>
	<circle style="fill:#414141;" cx="30" cy="25.662" r="2"/>
	<path style="fill:#414141;" d="M44,19.662l0,0.001C42.26,9.821,33.684,2.338,23.342,2.338S4.74,9.819,3,19.662
		c0,0,16.906,4.33,28.242-4.726c0.555-0.444,1.362-0.34,1.758,0.25C35.049,18.238,38.828,21.942,44,19.662z"/>
	<path style="fill:#E64C3C;" d="M34.215,31.157c0.304-0.695,0.998-1.181,1.805-1.181c1.087,0,1.87,0.898,1.969,1.969
		c0,0,0.053,0.266-0.064,0.744c-0.159,0.651-0.534,1.23-1.038,1.672l-2.671,2.302l-2.626-2.302
		c-0.505-0.442-0.879-1.021-1.038-1.672c-0.117-0.478-0.064-0.744-0.064-0.744c0.098-1.07,0.881-1.969,1.969-1.969
		C33.262,29.976,33.911,30.462,34.215,31.157z"/>
	<path style="fill:#CB8252;" d="M25.071,36.376c-0.779,0-1.538-0.272-2.138-0.769c-0.425-0.352-0.485-0.981-0.134-1.407
		c0.353-0.425,0.982-0.485,1.408-0.134c0.245,0.202,0.544,0.31,0.863,0.31c0.749,0,1.357-0.608,1.357-1.356
		s-0.609-1.357-1.357-1.357c-0.406,0-0.788,0.181-1.047,0.494c-0.352,0.427-0.983,0.485-1.408,0.134
		c-0.426-0.352-0.485-0.981-0.134-1.407c0.641-0.776,1.585-1.221,2.589-1.221c1.851,0,3.357,1.506,3.357,3.357
		C28.429,34.87,26.922,36.376,25.071,36.376z"/>
	<path style="fill:#CB8252;" d="M23.361,40.66c-1,0-1.991-0.443-2.651-1.292c-0.479-0.614-0.73-1.381-0.708-2.158
		c0.016-0.553,0.479-0.997,1.028-0.972c0.552,0.017,0.987,0.477,0.971,1.028c-0.009,0.318,0.09,0.62,0.287,0.873
		c0.46,0.591,1.315,0.697,1.905,0.235c0.286-0.223,0.468-0.543,0.512-0.903c0.044-0.359-0.053-0.715-0.276-1.001
		c-0.083-0.106-0.181-0.2-0.291-0.276c-0.452-0.318-0.561-0.942-0.243-1.394c0.318-0.452,0.942-0.562,1.393-0.243
		c0.271,0.191,0.513,0.422,0.718,0.685c0.551,0.707,0.793,1.586,0.683,2.477c-0.11,0.89-0.561,1.684-1.269,2.234
		C24.809,40.43,24.082,40.66,23.361,40.66z"/>
</g>
<g>
</g>
<g>
</g>
<g>
</g>
<g>
</g>
<g>
</g>
<g>
</g>
<g>
</g>
<g>
</g>
<g>
</g>
<g>
</g>
<g>
</g>
<g>
</g>
<g>
</g>
<g>
</g>
<g>
</g>
</svg>
