<?xml version="1.0" encoding="iso-8859-1"?>
<!-- Generator: Adobe Illustrator 18.0.0, SVG Export Plug-In . SVG Version: 6.00 Build 0)  -->
<!DOCTYPE svg PUBLIC "-//W3C//DTD SVG 1.1//EN" "http://www.w3.org/Graphics/SVG/1.1/DTD/svg11.dtd">
<svg version="1.1" id="Capa_1" xmlns="http://www.w3.org/2000/svg" xmlns:xlink="http://www.w3.org/1999/xlink" x="0px" y="0px"
	 viewBox="0 0 57.98 57.98" style="enable-background:new 0 0 57.98 57.98;" xml:space="preserve">
<g>
	<path style="fill:#5E5F62;" d="M54.295,17.98c-0.62-4.487-2.586-7.48-4.471-9.034c-0.916-0.755-1.439-1.852-1.735-3.001
		c-0.799-3.102-3.738-4.757-6.794-4.965c-1.947-0.133-3.646,0.484-5.589,1.261c-0.611,0.244-1.352-0.01-1.584-0.626
		c-1.194-3.171-8.034-1.545-13.249,3.75c-0.25,0.254-0.684,0.125-0.734-0.228c-0.173-1.23-0.263-3.448,1.155-4.157
		c0,0-4.407-2.479-8.186,0.826c-1.152,1.008-1.905,2.394-2.289,3.875c-0.092,0.355-0.186,0.734-0.269,1.107
		c-0.232,1.033-1.557,1.385-2.238,0.573C8.3,7.345,8.286,7.328,8.273,7.311C7.635,6.533,6.412,6.654,6.014,7.578
		C3.893,12.5,0.604,23.537,8.295,32.98V20.454c1.406-0.518,3.324-1.526,5-3.474c0,0,3.25,2.25,11,3c0,0,4.167-5.667,15-4
		c0,0,2.917,6.75,11,2v15C50.295,32.98,55.648,27.765,54.295,17.98z"/>
	<path style="fill:#FFDB2B;" d="M39.295,15.98c-10.833-1.667-15,4-15,4c-7.75-0.75-11-3-11-3c-1.676,1.948-3.594,2.956-5,3.474
		V32.98v17c0,2.2,1.8,4,4,4h34c2.2,0,4-1.8,4-4v-17v-15C42.212,22.73,39.295,15.98,39.295,15.98z"/>
	<path style="fill:#E64C3C;" d="M40.45,40.565C40.853,39.644,41.772,39,42.841,39c1.44,0,2.478,1.19,2.608,2.608
		c0,0,0.07,0.352-0.085,0.986c-0.211,0.863-0.707,1.63-1.376,2.215l-3.539,3.049l-3.48-3.05c-0.669-0.585-1.165-1.352-1.376-2.215
		c-0.155-0.634-0.085-0.986-0.085-0.986C35.641,40.19,36.678,39,38.119,39C39.188,39,40.048,39.644,40.45,40.565z"/>
	<path style="fill:#F0C419;" d="M24.455,32.755c-0.282,0-0.558-0.12-0.751-0.339c-0.883-1.004-2.103-1.603-3.436-1.688
		c-1.323-0.088-2.618,0.355-3.621,1.239c-0.415,0.363-1.046,0.325-1.412-0.09c-0.364-0.415-0.324-1.047,0.09-1.412
		c2.186-1.925,5.249-2.237,7.717-1.027c-0.796-1.842-2.615-3.314-4.598-3.44c-0.552-0.035-0.97-0.511-0.935-1.062
		s0.52-0.965,1.062-0.935c3.846,0.245,7.126,3.971,6.882,7.816c-0.025,0.403-0.292,0.752-0.675,0.883
		C24.672,32.737,24.563,32.755,24.455,32.755z"/>
	<path style="fill:#E57E25;" d="M29.056,45.819c-0.792,0-1.563-0.277-2.172-0.782c-0.426-0.352-0.484-0.982-0.132-1.407
		c0.352-0.426,0.981-0.485,1.407-0.132c0.254,0.21,0.564,0.321,0.896,0.321c0.777,0,1.409-0.633,1.409-1.41S29.834,41,29.056,41
		c-0.422,0-0.819,0.188-1.089,0.513c-0.351,0.425-0.98,0.486-1.407,0.134c-0.426-0.352-0.486-0.982-0.134-1.407
		c0.65-0.788,1.609-1.239,2.63-1.239c1.88,0,3.409,1.529,3.409,3.409S30.936,45.819,29.056,45.819z"/>
	<path style="fill:#E57E25;" d="M27.307,50.198c-1.016,0-2.021-0.451-2.693-1.312c-0.486-0.625-0.741-1.403-0.719-2.193
		c0.016-0.542,0.461-0.971,0.999-0.971c0.011,0,0.021,0,0.03,0c0.552,0.017,0.986,0.477,0.971,1.029
		c-0.01,0.33,0.093,0.644,0.297,0.905c0.477,0.611,1.365,0.723,1.979,0.245c0.612-0.478,0.723-1.365,0.245-1.979
		c-0.086-0.11-0.188-0.207-0.302-0.287c-0.451-0.317-0.561-0.941-0.243-1.394c0.316-0.45,0.94-0.561,1.394-0.243
		c0.276,0.194,0.522,0.429,0.729,0.695c1.154,1.482,0.888,3.629-0.594,4.785C28.778,49.964,28.041,50.198,27.307,50.198z"/>
	<path style="fill:#FEC722;" d="M40.99,57.98H17.601c-0.721,0-1.305-0.584-1.305-1.305V53.98h26v2.695
		C42.295,57.395,41.711,57.98,40.99,57.98z"/>
	<circle style="fill:#FFFFFF;" cx="37.465" cy="29" r="6"/>
	<circle style="fill:#556080;" cx="37.465" cy="29" r="2"/>
</g>
<g>
</g>
<g>
</g>
<g>
</g>
<g>
</g>
<g>
</g>
<g>
</g>
<g>
</g>
<g>
</g>
<g>
</g>
<g>
</g>
<g>
</g>
<g>
</g>
<g>
</g>
<g>
</g>
<g>
</g>
</svg>
