<?xml version="1.0" encoding="iso-8859-1"?>
<!-- Generator: Adobe Illustrator 18.0.0, SVG Export Plug-In . SVG Version: 6.00 Build 0)  -->
<!DOCTYPE svg PUBLIC "-//W3C//DTD SVG 1.1//EN" "http://www.w3.org/Graphics/SVG/1.1/DTD/svg11.dtd">
<svg version="1.1" id="Capa_1" xmlns="http://www.w3.org/2000/svg" xmlns:xlink="http://www.w3.org/1999/xlink" x="0px" y="0px"
	 viewBox="0 0 52 52" style="enable-background:new 0 0 52 52;" xml:space="preserve">
<g>
	<path style="fill:#FFD581;" d="M47,24.815c-0.285-1.614-1-2.378-1-2.378H7c0,0-0.714,0.758-1,2.378c-1.663,0.661-3,2.602-3,4.5
		c0,1.978,1.284,3.639,3.058,4.242C8.21,42.867,16.536,49.815,26.5,49.815c9.964,0,18.29-6.948,20.442-16.258
		C48.716,32.954,50,31.292,50,29.315C50,27.416,48.663,25.476,47,24.815z"/>
	<path style="fill:#CB8252;" d="M32,45.815c-0.552,0-1-0.447-1-1c0-2.757-2.243-5-5-5s-5,2.243-5,5c0,0.553-0.448,1-1,1
		s-1-0.447-1-1c0-3.859,3.14-7,7-7s7,3.141,7,7C33,45.367,32.552,45.815,32,45.815z"/>
	<circle style="fill:#414141;" cx="18" cy="32.815" r="2"/>
	<circle style="fill:#414141;" cx="34" cy="32.815" r="2"/>
	<path style="fill:#CB8252;" d="M21,30.815c-0.219,0-0.44-0.071-0.624-0.219l-5-4c-0.432-0.346-0.501-0.975-0.156-1.406
		c0.345-0.43,0.975-0.501,1.405-0.156l5,4c0.432,0.346,0.501,0.975,0.156,1.406C21.583,30.686,21.292,30.815,21,30.815z"/>
	<path style="fill:#CB8252;" d="M31,30.815c-0.293,0-0.584-0.128-0.781-0.375c-0.345-0.432-0.275-1.061,0.156-1.406l5-4
		c0.43-0.345,1.061-0.275,1.405,0.156c0.345,0.432,0.275,1.061-0.156,1.406l-5,4C31.44,30.743,31.22,30.815,31,30.815z"/>
	<path style="fill:#7F5B53;" d="M51,21.437h-5.15L43.661,6.815c-0.136-0.994-0.527-1.898-1.102-2.649
		c-1.381-1.802-3.84-2.4-5.995-1.688l-8.739,2.887c-1.182,0.391-2.461,0.374-3.633-0.048L16.66,2.604
		c-2.998-1.08-6.45,0.532-7.21,3.627C9.403,6.422,9.366,6.616,9.339,6.815L7.15,21.437H1c-0.552,0-1,0.447-1,1s0.448,1,1,1h50
		c0.552,0,1-0.447,1-1S51.552,21.437,51,21.437z"/>
	<polygon style="fill:#93726D;" points="7.749,17.437 45.251,17.437 44.952,15.437 8.048,15.437 	"/>
</g>
<g>
</g>
<g>
</g>
<g>
</g>
<g>
</g>
<g>
</g>
<g>
</g>
<g>
</g>
<g>
</g>
<g>
</g>
<g>
</g>
<g>
</g>
<g>
</g>
<g>
</g>
<g>
</g>
<g>
</g>
</svg>
