<?xml version="1.0" encoding="iso-8859-1"?>
<!-- Generator: Adobe Illustrator 18.0.0, SVG Export Plug-In . SVG Version: 6.00 Build 0)  -->
<!DOCTYPE svg PUBLIC "-//W3C//DTD SVG 1.1//EN" "http://www.w3.org/Graphics/SVG/1.1/DTD/svg11.dtd">
<svg version="1.1" id="Capa_1" xmlns="http://www.w3.org/2000/svg" xmlns:xlink="http://www.w3.org/1999/xlink" x="0px" y="0px"
	 viewBox="0 0 58 58" style="enable-background:new 0 0 58 58;" xml:space="preserve">
<g>
	<path style="fill:#FDC794;" d="M29.392,53.496c11.246,0.156,17.52-4.381,21.008-9.189c3.603-4.966,4.764-11.283,3.647-17.323
		C50.004,5.139,29.392,5.323,29.392,5.323S8.781,5.139,4.738,26.985c-1.118,6.04,0.044,12.356,3.647,17.323
		C11.872,49.115,18.146,53.652,29.392,53.496z"/>
	<path style="fill:#F9A671;" d="M23.664,44.573c-0.505,0-0.939-0.382-0.994-0.896c-0.058-0.549,0.341-1.041,0.89-1.099l19-2
		c0.543-0.058,1.041,0.341,1.099,0.89c0.058,0.549-0.341,1.041-0.89,1.099l-19,2C23.734,44.571,23.699,44.573,23.664,44.573z"/>
	<path style="fill:#F9A671;" d="M4.499,28.622c-0.453-0.429-0.985-0.687-1.559-0.687C1.316,27.935,0,29.915,0,32.359
		c0,2.443,1.316,4.424,2.939,4.424c0.687,0,1.311-0.37,1.811-0.964C4.297,33.467,4.218,31.035,4.499,28.622z"/>
	<path style="fill:#F9A671;" d="M57.823,24.795c-0.563-2.377-2.3-3.999-3.879-3.622c-0.491,0.117-0.898,0.43-1.225,0.855
		c0.538,1.515,0.994,3.154,1.328,4.957c0.155,0.837,0.261,1.679,0.328,2.522c0.52,0.284,1.072,0.402,1.608,0.274
		C57.562,29.404,58.386,27.172,57.823,24.795z"/>
	<path style="fill:#5E5F62;" d="M31.452,18.5c-0.552,0-1-0.447-1-1c0-9.347-3.207-10.545-6-10.545c-0.552,0-1-0.447-1-1s0.448-1,1-1
		c8,0,8,9.442,8,12.545C32.452,18.053,32.004,18.5,31.452,18.5z"/>
	<path style="fill:#5E5F62;" d="M39.452,18.5c-0.552,0-1-0.447-1-1c0-6.065-3.589-11-8-11c-0.552,0-1-0.447-1-1s0.448-1,1-1
		c5.514,0,10,5.832,10,13C40.452,18.053,40.004,18.5,39.452,18.5z"/>
	<path style="fill:#5E5F62;" d="M35.452,19.5c-0.552,0-1-0.447-1-1c0-6.505-3.206-12-7-12c-0.552,0-1-0.447-1-1s0.448-1,1-1
		c5.047,0,9,6.149,9,14C36.452,19.053,36.004,19.5,35.452,19.5z"/>
	<path style="fill:#5E5F62;" d="M27.452,17.75c-0.552,0-1-0.447-1-1c0-4.879-2.29-9-5-9c-0.552,0-1-0.447-1-1s0.448-1,1-1
		c3.925,0,7,4.832,7,11C28.452,17.303,28.004,17.75,27.452,17.75z"/>
	<g>
		<polygon style="fill:#ECF0F1;" points="27.05,44.184 27.05,48.5 33.578,48.137 33.578,43.497 		"/>
	</g>
	<g>
		<polygon style="fill:#FFFFFF;" points="33.578,43.497 33.578,48.137 39,47.836 39,42.926 		"/>
	</g>
	<circle style="fill:#7F5B53;" cx="41.952" cy="30" r="1.5"/>
	<circle style="fill:#7F5B53;" cx="26.952" cy="29" r="1.5"/>
	<path style="fill:#556080;" d="M52.094,20.423l-5.175,4.266c-0.897-2.989-3.182-5.156-5.935-5.304
		c-2.791-0.139-5.221,1.829-6.315,4.705c-0.489-0.318-1.046-0.511-1.572-0.521c-0.529-0.009-1.073,0.163-1.555,0.468
		c-1.172-3.123-3.886-5.365-7.125-5.54c-3.848-0.209-7.133,2.549-8.183,6.377l-9.689-4.103c-0.247,0.603-0.479,1.228-0.694,1.878
		l10.056,4.258c-0.011,0.195-0.028,0.388-0.028,0.586c0,4.966,3.649,9.007,8.134,9.007c0.134,0,0.269-0.004,0.403-0.011
		c4.345-0.232,7.748-4.185,7.748-8.996c0-0.389-0.03-0.77-0.073-1.146h0.073c0-0.2,0.15-0.377,0.239-0.464
		c0.216-0.212,0.486-0.334,0.652-0.315c0.369,0.007,0.994,0.469,0.994,0.811h0.07c-0.041,0.365-0.07,0.735-0.07,1.114
		c0,4.475,2.977,8.115,6.635,8.115c0.099,0,0.199-0.003,0.299-0.008c3.559-0.191,6.347-3.753,6.347-8.107
		c0-0.18-0.012-0.357-0.021-0.534l5.536-4.563C52.613,21.711,52.362,21.054,52.094,20.423z M24.31,34.491
		c-3.517,0.197-6.431-3.022-6.431-6.998c0-3.864,2.752-7.008,6.136-7.008c0.098,0,0.196,0.003,0.295,0.009
		c3.283,0.176,5.855,3.251,5.855,6.999C30.165,31.242,27.593,34.316,24.31,34.491z M40.877,33.603
		c-2.624,0.183-4.827-2.653-4.827-6.109c0-3.372,2.08-6.116,4.635-6.116c0.064,0,0.127,0.002,0.191,0.006
		c2.456,0.132,4.454,2.873,4.454,6.11S43.333,33.471,40.877,33.603z"/>
</g>
<g>
</g>
<g>
</g>
<g>
</g>
<g>
</g>
<g>
</g>
<g>
</g>
<g>
</g>
<g>
</g>
<g>
</g>
<g>
</g>
<g>
</g>
<g>
</g>
<g>
</g>
<g>
</g>
<g>
</g>
</svg>
