<?xml version="1.0" encoding="iso-8859-1"?>
<!-- Generator: Adobe Illustrator 18.0.0, SVG Export Plug-In . SVG Version: 6.00 Build 0)  -->
<!DOCTYPE svg PUBLIC "-//W3C//DTD SVG 1.1//EN" "http://www.w3.org/Graphics/SVG/1.1/DTD/svg11.dtd">
<svg version="1.1" id="Capa_1" xmlns="http://www.w3.org/2000/svg" xmlns:xlink="http://www.w3.org/1999/xlink" x="0px" y="0px"
	 viewBox="0 0 47 47" style="enable-background:new 0 0 47 47;" xml:space="preserve">
<g>
	<path style="fill:#FFD581;" d="M44,19.5L44,19.5c-1.74-9.843-10.158-17-20.5-17S4.74,9.657,3,19.5l0,0c-1.663,0.661-3,2.602-3,4.5
		c0,1.978,1.284,3.639,3.058,4.242C5.21,37.552,13.536,44.5,23.5,44.5c9.965,0,18.29-6.948,20.442-16.258l0,0.001
		C45.716,27.639,47,25.978,47,24C47,22.102,45.663,20.161,44,19.5z"/>
	<rect x="20" y="32.5" style="fill:#ECF0F0;" width="4" height="6"/>
	<rect x="24" y="32.5" style="fill:#ECF0F0;" width="4" height="4"/>
	<g>
		<circle style="fill:#D0E8F9;" cx="15.924" cy="22.424" r="4.924"/>
		<path style="fill:#556080;" d="M15.924,28.349c-3.267,0-5.924-2.658-5.924-5.925s2.657-5.924,5.924-5.924s5.925,2.657,5.925,5.924
			S19.19,28.349,15.924,28.349z M15.924,18.5C13.76,18.5,12,20.26,12,22.424s1.76,3.925,3.924,3.925s3.925-1.761,3.925-3.925
			S18.088,18.5,15.924,18.5z"/>
	</g>
	<g>
		<circle style="fill:#D0E8F9;" cx="31.076" cy="22.424" r="4.924"/>
		<path style="fill:#556080;" d="M31.076,28.349c-3.267,0-5.925-2.658-5.925-5.925S27.81,16.5,31.076,16.5S37,19.157,37,22.424
			S34.343,28.349,31.076,28.349z M31.076,18.5c-2.164,0-3.925,1.76-3.925,3.924s1.761,3.925,3.925,3.925S35,24.588,35,22.424
			S33.24,18.5,31.076,18.5z"/>
	</g>
	<path style="fill:#556080;" d="M27.151,22.424h-2c0-0.91-0.741-1.651-1.651-1.651s-1.651,0.741-1.651,1.651h-2
		c0-2.014,1.638-3.651,3.651-3.651S27.151,20.41,27.151,22.424z"/>
	<path style="fill:#556080;" d="M3.457,17.517l6.902,5.752l1.281-1.537l-7.494-6.245C3.886,16.148,3.651,16.822,3.457,17.517z"/>
	<path style="fill:#556080;" d="M42.889,15.572l-7.521,6.154l1.266,1.549l6.936-5.675C43.379,16.905,43.146,16.232,42.889,15.572z"
		/>
	<path style="fill:#CB8252;" d="M32,33.5H15c-0.553,0-1-0.447-1-1s0.447-1,1-1h17c0.553,0,1,0.447,1,1S32.553,33.5,32,33.5z"/>
	<path style="fill:#414141;" d="M15,11.5c-0.553,0-1,0.447-1,1s0.447,1,1,1c3.014,0,8-5.117,8-10.949
		c0-0.01-0.006-0.019-0.006-0.029c-0.676,0.016-1.342,0.063-2,0.138C20.93,7.838,16.44,11.5,15,11.5z"/>
	<path style="fill:#414141;" d="M24.006,2.654c0.635,6.076,0.455,6.741-2.737,10.164c-0.377,0.403-0.354,1.036,0.05,1.413
		C21.511,14.411,21.756,14.5,22,14.5c0.268,0,0.534-0.106,0.731-0.318c3.719-3.987,3.924-5.33,3.284-11.52
		c-0.657-0.076-1.322-0.123-1.997-0.139C24.017,2.567,24.001,2.609,24.006,2.654z"/>
	<path style="fill:#414141;" d="M27.145,3.484c2.217,3.667,2.035,5.544,0.973,7.547c-0.26,0.487-0.074,1.093,0.414,1.352
		c0.149,0.08,0.31,0.117,0.468,0.117c0.358,0,0.705-0.192,0.884-0.531c1.47-2.767,1.314-5.266-0.549-8.665
		c-0.752-0.211-1.522-0.382-2.308-0.51C26.985,3.024,27.014,3.268,27.145,3.484z"/>
</g>
<g>
</g>
<g>
</g>
<g>
</g>
<g>
</g>
<g>
</g>
<g>
</g>
<g>
</g>
<g>
</g>
<g>
</g>
<g>
</g>
<g>
</g>
<g>
</g>
<g>
</g>
<g>
</g>
<g>
</g>
</svg>
