<?xml version="1.0" encoding="iso-8859-1"?>
<!-- Generator: Adobe Illustrator 18.0.0, SVG Export Plug-In . SVG Version: 6.00 Build 0)  -->
<!DOCTYPE svg PUBLIC "-//W3C//DTD SVG 1.1//EN" "http://www.w3.org/Graphics/SVG/1.1/DTD/svg11.dtd">
<svg version="1.1" id="Capa_1" xmlns="http://www.w3.org/2000/svg" xmlns:xlink="http://www.w3.org/1999/xlink" x="0px" y="0px"
	 viewBox="0 0 58 58" style="enable-background:new 0 0 58 58;" xml:space="preserve">
<g>
	<g>
		<path style="fill:#FFDB2B;" d="M8,29v21c0,2.2,1.8,4,4,4h34c2.2,0,4-1.8,4-4V29H8z"/>
	</g>
	<g>
		<circle style="fill:#D0E8F9;" cx="39" cy="37" r="4"/>
		<path style="fill:#556080;" d="M39,42c-2.757,0-5-2.243-5-5s2.243-5,5-5s5,2.243,5,5S41.757,42,39,42z M39,34
			c-1.654,0-3,1.346-3,3s1.346,3,3,3s3-1.346,3-3S40.654,34,39,34z"/>
	</g>
	<circle style="fill:#FFFFFF;" cx="20" cy="37" r="4"/>
	<path style="fill:#556080;" d="M50,46c-4.71,0-8-3.701-8-9c0-0.553,0.447-1,1-1s1,0.447,1,1c0,3.484,1.855,7,6,7
		c0.553,0,1,0.447,1,1S50.553,46,50,46z"/>
	<path style="fill:#2C3E50;" d="M52,29H6c-1.1,0-2-0.9-2-2v-0.923c0-1.1,0.9-2,2-2h46c1.1,0,2,0.9,2,2V27C54,28.1,53.1,29,52,29z"/>
	<path style="fill:#556080;" d="M50,24H8l1-2c3.513-8.066,3.085-14.185-1-22l0,0l42,0c0,0-4.513,13.934-1,22L50,24z"/>
	<path style="fill:#556080;" d="M16,44.983c0.451,1.09,1.645,1.892,2.997,1.606c0.97-0.205,2.099-0.667,3.316-1.587
		c3.743-2.828,6.654,1.226,6.654,1.226s2.911-4.054,6.654-1.226c1.217,0.92,2.347,1.382,3.316,1.587
		c1.289,0.273,2.482-0.552,2.977-1.565c-3.42,8.303-12.947,3.738-12.947,3.738s-9.527,4.566-12.947-3.738L16,44.983z"/>
	<path style="fill:#FEC722;" d="M40.695,58H17.305C16.584,58,16,57.416,16,56.695V54h26v2.695C42,57.416,41.416,58,40.695,58z"/>
	<circle style="fill:#556080;" cx="20" cy="37" r="1"/>
	<path style="fill:#8697CB;" d="M11.351,11c0.031,0.664,0.019,1.33-0.018,2h36.356c0.025-0.672,0.069-1.34,0.127-2H11.351z"/>
	<path style="fill:#8697CB;" d="M11.129,15c-0.102,0.658-0.243,1.325-0.409,2h37.071c-0.066-0.658-0.103-1.327-0.119-2H11.129z"/>
</g>
<g>
</g>
<g>
</g>
<g>
</g>
<g>
</g>
<g>
</g>
<g>
</g>
<g>
</g>
<g>
</g>
<g>
</g>
<g>
</g>
<g>
</g>
<g>
</g>
<g>
</g>
<g>
</g>
<g>
</g>
</svg>
