<?xml version="1.0" encoding="iso-8859-1"?>
<!-- Generator: Adobe Illustrator 18.0.0, SVG Export Plug-In . SVG Version: 6.00 Build 0)  -->
<!DOCTYPE svg PUBLIC "-//W3C//DTD SVG 1.1//EN" "http://www.w3.org/Graphics/SVG/1.1/DTD/svg11.dtd">
<svg version="1.1" id="Capa_1" xmlns="http://www.w3.org/2000/svg" xmlns:xlink="http://www.w3.org/1999/xlink" x="0px" y="0px"
	 viewBox="0 0 43.001 43.001" style="enable-background:new 0 0 43.001 43.001;" xml:space="preserve">
<g>
	<g>
		<path style="fill:#FBD971;" d="M7.039,38.167c1.962-2.282,3.832-5.541,5.603-7.45c3.569-3.62,6.153-2.488,7.628-1.049
			c0.765,0.747,2.016,0.699,2.721-0.105c1.362-1.554,3.853-2.888,7.688,0.455c1.806,1.675,3.792,4.551,5.803,6.662
			c3.601-3.931,5.72-9.223,5.503-14.972C41.548,10.119,31.798,1.078,20.209,1.515S-0.422,11.703,0.015,23.292
			C0.239,29.237,2.924,34.498,7.039,38.167z"/>
		<path style="fill:#FBD971;" d="M24.164,35.929c-1.42-0.658-3.061-0.596-4.428,0.167c-1.881,1.051-4.892,2.946-8.012,3.753
			c3.003,1.462,6.497,1.756,10.068,1.622c3.655-0.138,6.987-0.62,9.917-2.376C28.731,38.494,26.012,36.785,24.164,35.929z"/>
	</g>
	<path style="fill:#D1D4D1;" d="M43.001,38.5c-3.97,3.046-8.073-5.584-11.612-9.123c-3.706-3.485-6.246-2.246-7.665-0.745
		c-0.734,0.777-1.987,0.777-2.723,0.002c-1.42-1.494-3.959-2.722-7.662,0.76C9.8,32.934,5.971,41.547,2.001,38.5
		c5.295,4.448,14.006,0.663,18.148-1.449c1.394-0.711,3.037-0.711,4.431,0C28.721,39.164,37.705,42.948,43.001,38.5z"/>
	<g>
		<path style="fill:#FFFFFF;" d="M7.091,14.5c-0.055,0.326-0.09,0.659-0.09,1c0,3.314,2.686,6,6,6s6-2.686,6-6
			c0-0.341-0.035-0.674-0.09-1H7.091z"/>
		<path style="fill:#FFFFFF;" d="M19.07,14.5c-0.041,0.328-0.069,0.661-0.069,1c0,4.418,3.582,8,8,8s8-3.582,8-8
			c0-0.339-0.028-0.672-0.069-1H19.07z"/>
		<path style="fill:#F0C419;" d="M13.001,9.5c-2.972,0-5.433,2.164-5.91,5h11.82C18.434,11.664,15.973,9.5,13.001,9.5z"/>
		<path style="fill:#F0C419;" d="M27.001,7.5c-4.079,0-7.438,3.055-7.931,7h15.862C34.438,10.555,31.079,7.5,27.001,7.5z"/>
		<circle style="fill:#7F5B53;" cx="15.001" cy="17.5" r="1"/>
		<circle style="fill:#7F5B53;" cx="27.501" cy="18" r="1.5"/>
	</g>
</g>
<g>
</g>
<g>
</g>
<g>
</g>
<g>
</g>
<g>
</g>
<g>
</g>
<g>
</g>
<g>
</g>
<g>
</g>
<g>
</g>
<g>
</g>
<g>
</g>
<g>
</g>
<g>
</g>
<g>
</g>
</svg>
