<?xml version="1.0" encoding="iso-8859-1"?>
<!-- Generator: Adobe Illustrator 18.0.0, SVG Export Plug-In . SVG Version: 6.00 Build 0)  -->
<!DOCTYPE svg PUBLIC "-//W3C//DTD SVG 1.1//EN" "http://www.w3.org/Graphics/SVG/1.1/DTD/svg11.dtd">
<svg version="1.1" id="Capa_1" xmlns="http://www.w3.org/2000/svg" xmlns:xlink="http://www.w3.org/1999/xlink" x="0px" y="0px"
	 viewBox="0 0 58 58" style="enable-background:new 0 0 58 58;" xml:space="preserve">
<g>
	<g>
		<path style="fill:#FFDB2B;" d="M47.77,13c-0.47-0.195-0.982-0.305-1.52-0.305h-34c-0.538,0-1.051,0.111-1.52,0.305H47.77z"/>
		<path style="fill:#FFDB2B;" d="M8.25,20v30c0,2.2,1.8,4,4,4h34c2.2,0,4-1.8,4-4V20H8.25z"/>
	</g>
	<path style="fill:#CBB292;" d="M53.25,20H4.75c-1.925,0-3.5-1.575-3.5-3.5v0c0-1.925,1.575-3.5,3.5-3.5h48.5
		c1.925,0,3.5,1.575,3.5,3.5v0C56.75,18.425,55.175,20,53.25,20z"/>
	<path style="fill:#CB8252;" d="M48.25,13h-39l2.339-5.371c0.027-0.198,0.9-2.275,0.947-2.465c0.76-3.095,4.211-5.825,7.21-4.745
		l7.532,2.712c1.171,0.422,2.451,0.439,3.633,0.048l6.617-2.887c2.156-0.712,4.615-0.114,5.995,1.688
		c0.575,0.751,2.253,4.654,2.388,5.649L48.25,13z"/>
	<ellipse style="fill:#D0E8F9;" cx="20.556" cy="29" rx="5.337" ry="5.388"/>
	<ellipse style="fill:#D0E8F9;" cx="36.882" cy="29" rx="5.337" ry="5.388"/>
	<path style="fill:#556080;" d="M36.882,22.612c-2.828,0-5.228,1.877-6.041,4.461c-0.652-0.291-1.372-0.461-2.122-0.461
		s-1.47,0.17-2.122,0.461c-0.813-2.583-3.213-4.461-6.041-4.461c-3.494,0-6.337,2.865-6.337,6.388s2.843,6.388,6.337,6.388
		c3.424,0,6.215-2.752,6.327-6.176c1.006-0.734,2.666-0.734,3.673,0c0.112,3.424,2.903,6.176,6.326,6.176
		c3.495,0,6.337-2.865,6.337-6.388S40.376,22.612,36.882,22.612z M20.556,33.388c-2.392,0-4.337-1.969-4.337-4.388
		s1.945-4.388,4.337-4.388s4.337,1.969,4.337,4.388S22.948,33.388,20.556,33.388z M36.882,33.388c-2.392,0-4.337-1.969-4.337-4.388
		s1.945-4.388,4.337-4.388s4.337,1.969,4.337,4.388S39.273,33.388,36.882,33.388z"/>
	<path style="fill:#464F5D;" d="M50.302,36.766c-1.114-1.482-2.417-2.376-3.873-2.657c-1.801-0.347-3.379,0.146-4.118,1.289
		c-0.601,0.932-0.507,2.131,0.253,3.208c0.878,1.246,2.271,1.466,2.954,1.398c0.543-0.052,0.935-0.529,0.892-1.073
		c-0.042-0.544-0.507-0.926-1.068-0.919c-0.071,0.007-0.729,0.028-1.144-0.559c-0.163-0.23-0.406-0.663-0.208-0.97
		c0.224-0.347,0.962-0.623,2.06-0.41c0.967,0.186,1.834,0.806,2.652,1.894c0.596,0.793,0.701,1.755,0.314,2.649
		c-0.474,0.939-1.632,1.949-3.056,1.949c-0.2,0-0.402-0.021-0.6-0.061c-1.646-0.338-3.296-1.105-4.902-2.281
		c-0.362-0.265-0.72-0.485-1.076-0.684c-0.1-0.056-0.2-0.105-0.299-0.157c-0.294-0.151-0.586-0.282-0.875-0.392
		c-0.078-0.03-0.156-0.065-0.235-0.092c-0.366-0.126-0.726-0.22-1.082-0.287c-0.078-0.015-0.157-0.023-0.235-0.036
		c-0.337-0.052-0.668-0.082-0.994-0.087c-0.035,0-0.069-0.009-0.104-0.009c-0.016,0-0.03,0.003-0.046,0.003
		c-0.334,0.002-0.661,0.028-0.981,0.073c-0.045,0.007-0.088,0.016-0.133,0.023c-0.296,0.047-0.585,0.111-0.867,0.19
		c-0.022,0.006-0.045,0.012-0.067,0.018c-1.737,0.503-3.199,1.555-4.216,2.603c-1.015-1.045-2.474-2.095-4.207-2.6
		c-0.029-0.009-0.059-0.016-0.088-0.024c-0.274-0.076-0.555-0.138-0.842-0.185c-0.051-0.008-0.1-0.019-0.151-0.026
		c-0.318-0.045-0.642-0.071-0.974-0.073c-0.016,0-0.031-0.003-0.047-0.003c-0.036,0-0.072,0.009-0.108,0.01
		c-0.324,0.005-0.654,0.035-0.989,0.087c-0.079,0.012-0.157,0.021-0.236,0.036c-0.356,0.067-0.717,0.161-1.083,0.287
		c-0.078,0.027-0.154,0.062-0.232,0.091c-0.291,0.11-0.584,0.242-0.879,0.393c-0.099,0.051-0.198,0.1-0.297,0.155
		c-0.357,0.199-0.715,0.419-1.077,0.684c-1.606,1.176-3.256,1.943-4.902,2.281c-0.191,0.039-0.375,0.057-0.555,0.064
		c-0.72,0.022-1.418-0.197-1.99-0.597c-0.053-0.038-0.099-0.081-0.149-0.121c-0.075-0.059-0.15-0.117-0.219-0.183
		c-0.06-0.057-0.112-0.116-0.165-0.175c-0.059-0.064-0.117-0.129-0.171-0.198c-0.041-0.052-0.079-0.105-0.115-0.157
		c-0.062-0.091-0.118-0.185-0.17-0.282c-0.028-0.051-0.058-0.102-0.083-0.153l-0.013-0.03c-0.003-0.008-0.013-0.028-0.023-0.048
		c-0.391-0.896-0.287-1.862,0.311-2.658c0.658-0.875,1.429-1.709,2.612-1.887c0.831-0.127,1.459,0.071,1.767,0.553
		c0.203,0.318,0.194,0.667,0.108,0.795c-0.368,0.558-1.208,0.581-1.207,0.581c-0.552,0-1,0.447-1,1s0.448,1,1,1
		c0.194,0,1.926-0.041,2.875-1.478c0.55-0.832,0.513-2.027-0.091-2.974c-0.748-1.172-2.116-1.701-3.75-1.456
		c-2.156,0.324-3.388,1.964-3.914,2.664c-1.025,1.364-1.216,3.066-0.566,4.603c0.003,0.008,0.002,0.017,0.005,0.025
		c0.006,0.014,0.012,0.027,0.018,0.041c0.008,0.018,0.016,0.035,0.024,0.053c0.015,0.034,0.03,0.068,0.046,0.101
		c2.328,5.359,6.684,8.192,12.598,8.192c4.091,0,7.718-1.346,8.928-1.847c1.209,0.501,4.835,1.847,8.927,1.847h0.001
		c5.938,0,10.3-2.856,12.623-8.256C51.532,39.948,51.362,38.176,50.302,36.766z"/>
	<path style="fill:#FEC722;" d="M40.945,58H17.555c-0.721,0-1.305-0.584-1.305-1.305V54h26v2.695C42.25,57.416,41.666,58,40.945,58z
		"/>
</g>
<g>
</g>
<g>
</g>
<g>
</g>
<g>
</g>
<g>
</g>
<g>
</g>
<g>
</g>
<g>
</g>
<g>
</g>
<g>
</g>
<g>
</g>
<g>
</g>
<g>
</g>
<g>
</g>
<g>
</g>
</svg>
