<?xml version="1.0" encoding="iso-8859-1"?>
<!-- Generator: Adobe Illustrator 18.0.0, SVG Export Plug-In . SVG Version: 6.00 Build 0)  -->
<!DOCTYPE svg PUBLIC "-//W3C//DTD SVG 1.1//EN" "http://www.w3.org/Graphics/SVG/1.1/DTD/svg11.dtd">
<svg version="1.1" id="Capa_1" xmlns="http://www.w3.org/2000/svg" xmlns:xlink="http://www.w3.org/1999/xlink" x="0px" y="0px"
	 viewBox="0 0 42 42" style="enable-background:new 0 0 42 42;" xml:space="preserve">
<g>
	<circle style="fill:#FBD971;" cx="21" cy="21" r="21"/>
	<circle style="fill:#FFFFFF;" cx="12" cy="14" r="6"/>
	<g>
		<circle style="fill:#D0E8F9;" cx="30" cy="14" r="6"/>
		<path style="fill:#556080;" d="M30,21c-3.86,0-7-3.141-7-7s3.14-7,7-7s7,3.141,7,7S33.86,21,30,21z M30,9c-2.757,0-5,2.243-5,5
			s2.243,5,5,5s5-2.243,5-5S32.757,9,30,9z"/>
	</g>
	<path style="fill:#414141;" d="M32.419,28.704c-0.345,0-0.66-0.192-0.838-0.487c-2.33-3.861-5.634-5.051-5.634-5.051
		c-1.954-0.582-3.52,0.495-4.35,1.281c-0.361,0.342-0.938,0.342-1.299,0c-0.83-0.787-2.397-1.863-4.35-1.281
		c0,0-3.197,1.19-5.527,5.051c-0.178,0.295-0.493,0.487-0.838,0.487H7.47c-0.862,0-1.294,1.042-0.684,1.652l1.208,1.208
		c1.37,1.37,3.228,2.139,5.165,2.139h0c2.141,0,4.165-0.949,5.562-2.572c0.708-0.823,1.521-1.507,2.225-1.428
		c0.704-0.078,1.517,0.605,2.225,1.428c1.397,1.623,3.42,2.572,5.562,2.572h0.108c1.937,0,3.795-0.77,5.165-2.139l1.208-1.208
		c0.61-0.61,0.178-1.652-0.684-1.652H32.419z"/>
	<circle style="fill:#AF8066;" cx="12" cy="14" r="3"/>
	<path style="fill:#556080;" d="M36,17h-2c0,4.055,3.12,8.559,7.386,8.96c0.157-0.648,0.282-1.307,0.378-1.977
		C38.501,23.812,36,20.161,36,17z"/>
</g>
<g>
</g>
<g>
</g>
<g>
</g>
<g>
</g>
<g>
</g>
<g>
</g>
<g>
</g>
<g>
</g>
<g>
</g>
<g>
</g>
<g>
</g>
<g>
</g>
<g>
</g>
<g>
</g>
<g>
</g>
</svg>
