<?xml version="1.0" encoding="iso-8859-1"?>
<!-- Generator: Adobe Illustrator 18.0.0, SVG Export Plug-In . SVG Version: 6.00 Build 0)  -->
<!DOCTYPE svg PUBLIC "-//W3C//DTD SVG 1.1//EN" "http://www.w3.org/Graphics/SVG/1.1/DTD/svg11.dtd">
<svg version="1.1" id="Capa_1" xmlns="http://www.w3.org/2000/svg" xmlns:xlink="http://www.w3.org/1999/xlink" x="0px" y="0px"
	 viewBox="0 0 57 57" style="enable-background:new 0 0 57 57;" xml:space="preserve">
<g>
	<path style="fill:#6E5847;" d="M28.5,0C14.475,0,3,11.475,3,25.5V50c0,2.2,1.8,4,4,4h6.777c4.16,2.021,9.237,3,14.723,3
		s10.563-0.979,14.723-3H50c2.2,0,4-1.8,4-4V25.5C54,11.475,42.525,0,28.5,0z"/>
	<path style="fill:#FDC794;" d="M3.869,29.894C3.305,32.001,3,34.215,3,36.5C3,50.583,14.417,57,28.5,57S54,50.583,54,36.5
		C54,22.842,42.495,11.661,29,11h-1C14.505,11.661,3,22.842,3,36.5C3,50.583,14.417,57,28.5,57S54,50.583,54,36.5"/>
	<path style="fill:#802D40;" d="M39.223,41.676c0,6.075-4.925,11-11,11s-11-4.925-11-11H39.223z"/>
	<rect x="24.223" y="41.676" style="fill:#ECF0F0;" width="4" height="6"/>
	<rect x="28.223" y="41.676" style="fill:#ECF0F0;" width="4" height="4"/>
	<ellipse style="fill:#FFFFFF;" cx="19.223" cy="26.176" rx="6" ry="7.5"/>
	<ellipse style="fill:#6E5847;" cx="19.223" cy="26.176" rx="3" ry="4.5"/>
	<ellipse style="fill:#FFFFFF;" cx="37.223" cy="26.176" rx="6" ry="7.5"/>
	<ellipse style="fill:#6E5847;" cx="37.223" cy="26.176" rx="3" ry="4.5"/>
	<circle style="fill:#6E5847;" cx="11.616" cy="35.571" r="1"/>
	<circle style="fill:#6E5847;" cx="16.018" cy="37.942" r="1"/>
	<circle style="fill:#6E5847;" cx="11.223" cy="39.675" r="1"/>
	<circle style="fill:#6E5847;" cx="43.829" cy="35.571" r="1"/>
	<circle style="fill:#6E5847;" cx="39.427" cy="37.942" r="1"/>
	<circle style="fill:#6E5847;" cx="44.222" cy="39.675" r="1"/>
</g>
<g>
</g>
<g>
</g>
<g>
</g>
<g>
</g>
<g>
</g>
<g>
</g>
<g>
</g>
<g>
</g>
<g>
</g>
<g>
</g>
<g>
</g>
<g>
</g>
<g>
</g>
<g>
</g>
<g>
</g>
</svg>
