<?xml version="1.0" encoding="iso-8859-1"?>
<!-- Generator: Adobe Illustrator 18.0.0, SVG Export Plug-In . SVG Version: 6.00 Build 0)  -->
<!DOCTYPE svg PUBLIC "-//W3C//DTD SVG 1.1//EN" "http://www.w3.org/Graphics/SVG/1.1/DTD/svg11.dtd">
<svg version="1.1" id="Capa_1" xmlns="http://www.w3.org/2000/svg" xmlns:xlink="http://www.w3.org/1999/xlink" x="0px" y="0px"
	 viewBox="0 0 57 57" style="enable-background:new 0 0 57 57;" xml:space="preserve">
<g>
	<path style="fill:#FFDB2B;" d="M49.324,26v23c0,2.03-1.996,4-4.184,4H11.338c-2.187,0-4.015-1.97-4.015-4V26
		c0,0,20.855-0.865,27-10C34.324,16,41.08,30.869,49.324,26z"/>
	<path style="fill:#F5EFCA;" d="M56.487,43.062c-2.114-4.74-2.817-13.336-3.05-18.867c-0.18-4.282-1.426-8.479-3.815-12.038
		C45.766,6.41,41.533,3.728,37.74,2.067c-6.299-2.757-13.545-2.757-19.843,0c-3.587,1.57-7.812,3.897-11.104,9.041
		c-2.28,3.563-3.401,7.737-3.484,11.967c-0.107,5.471-0.62,15.09-2.807,20.154c-0.464,1.075,0.009,2.311,1.079,2.785
		C2.664,46.493,5.824,46.781,7.324,47V26c0,0,20.855-0.865,27-10c0,0,6.756,14.869,15,10v21c2.031-0.406,4.739-0.592,6-1.081
		C56.464,45.476,56.986,44.18,56.487,43.062z"/>
	<path style="fill:#802D40;" d="M16.469,46.696c0-6.722,5.449-9.958,12.171-9.958s12.171,3.236,12.171,9.958
		s-5.449,1.106-12.171,1.106S16.469,53.418,16.469,46.696z"/>
	<circle style="fill:#556080;" cx="20.14" cy="34" r="2"/>
	<circle style="fill:#556080;" cx="36.14" cy="34" r="2"/>
	<path style="fill:#FEC722;" d="M39.835,57H16.445c-0.721,0-1.305-0.584-1.305-1.305V53h26v2.695C41.14,56.416,40.556,57,39.835,57z
		"/>
	<path style="fill:#556080;" d="M22.662,32c-0.175,0-0.353-0.046-0.514-0.143l-5-3c-0.474-0.284-0.627-0.898-0.343-1.372
		s0.897-0.627,1.372-0.343l5,3c0.474,0.284,0.627,0.898,0.343,1.372C23.333,31.827,23.002,32,22.662,32z"/>
	<path style="fill:#556080;" d="M33.141,32c-0.34,0-0.671-0.173-0.858-0.485c-0.284-0.474-0.131-1.088,0.343-1.372l5-3
		c0.474-0.284,1.087-0.131,1.372,0.343c0.284,0.474,0.131,1.088-0.343,1.372l-5,3C33.494,31.954,33.316,32,33.141,32z"/>
	<g>
		<path style="fill:#FFFFFF;" d="M27.3,6.242c0.042,0,0.085-0.003,0.128-0.008C28.648,6.079,29.896,6,31.14,6c0.552,0,1-0.447,1-1
			s-0.448-1-1-1c-1.328,0-2.662,0.084-3.965,0.25c-0.548,0.07-0.936,0.57-0.866,1.118C26.374,5.874,26.805,6.242,27.3,6.242z"/>
		<path style="fill:#FFFFFF;" d="M22.81,7.238c0.526-0.167,0.817-0.729,0.65-1.256c-0.167-0.527-0.733-0.817-1.256-0.65
			C15.709,7.397,8.129,12.739,8.14,21.001C8.141,21.553,8.588,22,9.14,22c0,0,0.001,0,0.001,0c0.552-0.001,1-0.449,0.999-1.001
			C10.13,13.817,16.959,9.098,22.81,7.238z"/>
		<path style="fill:#FFFFFF;" d="M31.14,9c-0.001,0-0.003,0-0.005,0c-5.868,0-11.184,1.953-14.584,5.358
			c-0.39,0.392-0.39,1.024,0.001,1.415c0.195,0.194,0.451,0.292,0.707,0.292c0.256,0,0.512-0.098,0.708-0.293
			C20.995,12.739,25.794,11,31.135,11c0,0,0.003,0,0.005,0c0.552,0,1-0.447,1-1C32.14,9.448,31.692,9,31.14,9z"/>
		<path style="fill:#FFFFFF;" d="M15.434,17.302c-0.5-0.239-1.095-0.024-1.332,0.476c-0.627,1.325-0.96,2.785-0.962,4.222
			c0,0.552,0.447,1,0.999,1.001c0,0,0,0,0,0c0.552,0,1-0.447,1-0.999c0.001-1.143,0.268-2.308,0.77-3.368
			C16.146,18.134,15.933,17.538,15.434,17.302z"/>
	</g>
	<path style="fill:#E64C3C;" d="M22.718,48.939c1.753-0.562,3.772-1.136,5.922-1.136c2.316,0,4.481,0.667,6.324,1.265
		C34.085,45.539,31.671,43,28.824,43C26.011,43,23.623,45.478,22.718,48.939z"/>
</g>
<g>
</g>
<g>
</g>
<g>
</g>
<g>
</g>
<g>
</g>
<g>
</g>
<g>
</g>
<g>
</g>
<g>
</g>
<g>
</g>
<g>
</g>
<g>
</g>
<g>
</g>
<g>
</g>
<g>
</g>
</svg>
