<?xml version="1.0" encoding="iso-8859-1"?>
<!-- Generator: Adobe Illustrator 18.0.0, SVG Export Plug-In . SVG Version: 6.00 Build 0)  -->
<!DOCTYPE svg PUBLIC "-//W3C//DTD SVG 1.1//EN" "http://www.w3.org/Graphics/SVG/1.1/DTD/svg11.dtd">
<svg version="1.1" id="Capa_1" xmlns="http://www.w3.org/2000/svg" xmlns:xlink="http://www.w3.org/1999/xlink" x="0px" y="0px"
	 viewBox="0 0 58 58" style="enable-background:new 0 0 58 58;" xml:space="preserve">
<g>
	<path style="fill:#FFDB2B;" d="M50.324,27v23c0,2.03-1.996,4-4.184,4H12.338c-2.187,0-4.015-1.97-4.015-4V27
		c0,0,20.855-0.865,27-10C35.324,17,42.08,31.869,50.324,27z"/>
	<path style="fill:#DABA6C;" d="M57.487,44.062c-2.114-4.74-2.817-13.336-3.05-18.867c-0.18-4.282-1.426-8.479-3.815-12.038
		C46.765,7.41,42.533,4.728,38.74,3.067c-5.769-2.524-12.33-2.729-18.232-0.63l3.365,3.365c1.582,1.582,1.681,3.715-0.319,4.715
		l-6.508,1.201l-3.773-3.773l0.422-2.025C11.62,7.379,9.57,9.331,7.793,12.108c-0.163,0.254-0.306,0.518-0.457,0.778l1.036-0.184
		l3.773,3.773l-1.365,6.434c-0.031,0.089-0.071,0.176-0.121,0.255c-1.118,1.755-3.058,1.509-4.546,0.021l-1.618-1.618
		c-0.099,0.832-0.169,1.667-0.185,2.508c-0.107,5.471-0.62,15.09-2.807,20.154c-0.464,1.075,0.009,2.311,1.079,2.785
		C3.664,47.493,6.824,47.781,8.324,48V27c0,0,20.855-0.865,27-10c0,0,6.757,14.869,15,10v21c2.031-0.406,4.739-0.592,6-1.081
		C57.464,46.476,57.986,45.18,57.487,44.062z"/>
	<circle style="fill:#FFFFFF;" cx="38.324" cy="33" r="6"/>
	<circle style="fill:#556080;" cx="38.324" cy="33" r="2"/>
	<circle style="fill:#FFFFFF;" cx="20.324" cy="33" r="6"/>
	<circle style="fill:#556080;" cx="20.324" cy="33" r="2"/>
	<path style="fill:#FEC722;" d="M40.542,58H17.152c-0.721,0-1.305-0.584-1.305-1.305V54h26v2.695C41.847,57.416,41.263,58,40.542,58
		z"/>
	<path style="fill:#556080;" d="M27.942,50.708c-2.11,0-4.191-0.801-6.203-2.389c-0.434-0.343-0.507-0.972-0.165-1.405
		c0.342-0.433,0.972-0.506,1.404-0.165c1.957,1.545,3.947,2.179,5.92,1.887c3.698-0.551,6.248-4.168,6.272-4.204
		c0.314-0.454,0.936-0.567,1.391-0.254c0.454,0.314,0.568,0.936,0.255,1.39c-0.123,0.178-3.048,4.356-7.609,5.045
		C28.785,50.676,28.363,50.708,27.942,50.708z"/>
	<path style="fill:#E64C3C;" d="M14.648,1.341l-1.376,6.604l3.773,3.773l6.508-1.201c2-1,1.901-3.134,0.319-4.715l-4.604-4.604
		C17.746-0.324,15.727-0.522,14.648,1.341z"/>
	<path style="fill:#E64C3C;" d="M8.372,12.702l-6.544,1.164c-2.001,1-1.901,3.134-0.319,4.715l4.604,4.604
		c1.488,1.488,3.429,1.734,4.546-0.021c0.05-0.079,0.09-0.167,0.121-0.255l1.365-6.434L8.372,12.702z"/>
	<g>
		<path style="fill:#F09372;" d="M19.496,8.681c-0.174-0.523-0.742-0.808-1.265-0.632l-1.696,0.565l0.739-1.232
			c0.284-0.474,0.131-1.088-0.343-1.372c-0.475-0.285-1.088-0.132-1.372,0.343l-1.598,2.662c-0.284,0.474-0.131,1.088,0.343,1.372
			c0.043,0.026,0.088,0.038,0.133,0.057c0.158,0.377,0.52,0.618,0.914,0.618c0.104,0,0.211-0.017,0.316-0.052l3.195-1.064
			C19.388,9.771,19.671,9.205,19.496,8.681z"/>
		<path style="fill:#F09372;" d="M10.932,13.938c-0.018-0.043-0.022-0.09-0.047-0.131c-0.285-0.474-0.899-0.627-1.372-0.343
			l-2.663,1.598c-0.474,0.284-0.627,0.898-0.343,1.372c0.188,0.313,0.519,0.485,0.858,0.485c0.175,0,0.353-0.046,0.514-0.143
			l1.232-0.739l-0.565,1.695c-0.175,0.524,0.108,1.091,0.632,1.265c0.105,0.035,0.212,0.052,0.316,0.052
			c0.419,0,0.809-0.265,0.949-0.684l1.065-3.194C11.677,14.667,11.416,14.135,10.932,13.938z"/>
	</g>
	
		<rect x="9.302" y="8.803" transform="matrix(0.7071 -0.7071 0.7071 0.7071 -4.9039 12.5444)" style="fill:#C03A2B;" width="6.777" height="6.777"/>
</g>
<g>
</g>
<g>
</g>
<g>
</g>
<g>
</g>
<g>
</g>
<g>
</g>
<g>
</g>
<g>
</g>
<g>
</g>
<g>
</g>
<g>
</g>
<g>
</g>
<g>
</g>
<g>
</g>
<g>
</g>
</svg>
