<?xml version="1.0" encoding="iso-8859-1"?>
<!-- Generator: Adobe Illustrator 18.0.0, SVG Export Plug-In . SVG Version: 6.00 Build 0)  -->
<!DOCTYPE svg PUBLIC "-//W3C//DTD SVG 1.1//EN" "http://www.w3.org/Graphics/SVG/1.1/DTD/svg11.dtd">
<svg version="1.1" id="Capa_1" xmlns="http://www.w3.org/2000/svg" xmlns:xlink="http://www.w3.org/1999/xlink" x="0px" y="0px"
	 viewBox="0 0 58 58" style="enable-background:new 0 0 58 58;" xml:space="preserve">
<g>
	<path style="fill:#FDC794;" d="M54.046,27.99C50.004,6.144,29.392,6.328,29.392,6.328S8.781,6.144,4.738,27.99
		c-1.118,6.04,0.044,12.356,3.647,17.323c3.488,4.807,9.761,9.345,21.008,9.189c3.53,0.049,6.569-0.365,9.187-1.104L34,48.818
		c1.466-0.595,2.789-1.472,3.891-2.573c1.065-1.066,2.039-2.223,2.632-3.631l5.357,5.357c0.369,0.369,0.643,0.795,0.837,1.249
		c1.48-1.215,2.697-2.548,3.683-3.906C54.003,40.346,55.164,34.03,54.046,27.99z"/>
	<g>
		<path style="fill:#FB7B76;" d="M37.891,46.245c-1.102,1.102-2.424,1.978-3.891,2.573l5.516,5.516c1.556,1.556,4.101,1.556,5.657,0
			l0.707-0.707c1.556-1.556,1.556-4.101,0-5.657l-5.357-5.357C39.93,44.022,38.956,45.179,37.891,46.245z"/>
	</g>
	<path style="fill:#E64C3C;" d="M42.345,51.091c-0.256,0-0.512-0.098-0.707-0.293l-0.116-0.115
		c-1.811-1.813-2.982-2.882-3.486-3.184c-0.279,0.019-0.538-0.088-0.743-0.292c-0.391-0.391-0.391-1.023,0-1.414
		c0.912-0.914,2.162,0.2,3.167,1.095c0.878,0.781,1.84,1.744,2.477,2.381l0.115,0.115c0.391,0.391,0.391,1.023,0,1.414
		C42.856,50.994,42.601,51.091,42.345,51.091z M38.704,47.21L38.704,47.21L38.704,47.21z M38.707,47.208
		c0,0.001-0.001,0.001-0.002,0.002C38.706,47.209,38.707,47.209,38.707,47.208z"/>
	<path style="fill:#F9A671;" d="M30,50.501c-6.617,0-12-5.383-12-12c0-0.553,0.448-1,1-1s1,0.447,1,1c0,5.514,4.486,10,10,10
		s10-4.486,10-10c0-0.553,0.448-1,1-1s1,0.447,1,1C42,45.118,36.617,50.501,30,50.501z"/>
	<path style="fill:#F9A671;" d="M4.499,29.627c-0.453-0.429-0.985-0.687-1.559-0.687C1.316,28.94,0,30.92,0,33.364
		c0,2.443,1.316,4.424,2.939,4.424c0.687,0,1.311-0.37,1.811-0.964C4.297,34.472,4.218,32.04,4.499,29.627z"/>
	<path style="fill:#F9A671;" d="M57.823,25.8c-0.563-2.377-2.3-3.999-3.879-3.622c-0.491,0.117-0.898,0.43-1.225,0.855
		c0.538,1.515,0.994,3.154,1.328,4.957c0.155,0.837,0.261,1.679,0.328,2.522c0.52,0.284,1.072,0.402,1.608,0.274
		C57.562,30.409,58.386,28.177,57.823,25.8z"/>
	<path style="fill:#5E5F62;" d="M13.9,16.501c-0.256,0-0.512-0.098-0.707-0.293l-5-5c-0.391-0.391-0.391-1.023,0-1.414
		s1.023-0.391,1.414,0l5,5c0.391,0.391,0.391,1.023,0,1.414C14.412,16.403,14.156,16.501,13.9,16.501z"/>
	<path style="fill:#5E5F62;" d="M16.901,13.501c-0.367,0-0.72-0.202-0.896-0.553l-3-6c-0.247-0.494-0.047-1.095,0.447-1.342
		c0.496-0.246,1.095-0.047,1.342,0.447l3,6c0.247,0.494,0.047,1.095-0.447,1.342C17.204,13.466,17.051,13.501,16.901,13.501z"/>
	<path style="fill:#5E5F62;" d="M20.9,11.501c-0.419,0-0.809-0.265-0.949-0.684l-2-6c-0.175-0.524,0.108-1.091,0.632-1.265
		c0.526-0.177,1.091,0.108,1.265,0.632l2,6c0.175,0.524-0.108,1.091-0.632,1.265C21.112,11.484,21.005,11.501,20.9,11.501z"/>
	<path style="fill:#5E5F62;" d="M25.899,10.501c-0.48,0-0.904-0.347-0.985-0.836l-1-6c-0.091-0.544,0.277-1.06,0.822-1.15
		c0.549-0.095,1.06,0.278,1.151,0.822l1,6c0.091,0.544-0.277,1.06-0.822,1.15C26.009,10.497,25.954,10.501,25.899,10.501z"/>
	<path style="fill:#5E5F62;" d="M29.9,10.501c-0.552,0-1-0.447-1-1v-6c0-0.553,0.448-1,1-1s1,0.447,1,1v6
		C30.9,10.053,30.453,10.501,29.9,10.501z"/>
	<path style="fill:#5E5F62;" d="M33.9,10.501c-0.104,0-0.211-0.017-0.316-0.052c-0.524-0.174-0.807-0.74-0.632-1.265l2-6
		c0.174-0.523,0.739-0.809,1.265-0.632c0.524,0.174,0.807,0.74,0.632,1.265l-2,6C34.709,10.236,34.319,10.501,33.9,10.501z"/>
	<path style="fill:#5E5F62;" d="M37.9,11.501c-0.104,0-0.211-0.017-0.316-0.052c-0.524-0.174-0.807-0.74-0.632-1.265l2-6
		c0.174-0.523,0.738-0.809,1.265-0.632c0.524,0.174,0.807,0.74,0.632,1.265l-2,6C38.709,11.236,38.319,11.501,37.9,11.501z"/>
	<path style="fill:#5E5F62;" d="M40.899,13.501c-0.15,0-0.303-0.034-0.446-0.105c-0.494-0.247-0.694-0.848-0.447-1.342l3-6
		c0.247-0.494,0.846-0.693,1.342-0.447c0.494,0.247,0.694,0.848,0.447,1.342l-3,6C41.62,13.298,41.267,13.501,40.899,13.501z"/>
	<path style="fill:#FFFFFF;" d="M35.5,17.501c-1.791,0-3.451,0.489-4.821,1.324c-1.343,0.819-3.015,0.819-4.358,0
		c-1.369-0.835-3.03-1.324-4.821-1.324c-4.694,0-8.5,3.358-8.5,7.5s3.806,7.5,8.5,7.5c1.791,0,3.451-0.489,4.821-1.324
		c1.343-0.819,3.015-0.819,4.358,0c1.369,0.835,3.03,1.324,4.821,1.324c4.694,0,8.5-3.358,8.5-7.5S40.194,17.501,35.5,17.501z"/>
	<circle style="fill:#7F5B53;" cx="23" cy="26.501" r="2"/>
	<circle style="fill:#7F5B53;" cx="35" cy="25.501" r="3"/>
</g>
<g>
</g>
<g>
</g>
<g>
</g>
<g>
</g>
<g>
</g>
<g>
</g>
<g>
</g>
<g>
</g>
<g>
</g>
<g>
</g>
<g>
</g>
<g>
</g>
<g>
</g>
<g>
</g>
<g>
</g>
</svg>
