<?xml version="1.0" encoding="iso-8859-1"?>
<!-- Generator: Adobe Illustrator 18.0.0, SVG Export Plug-In . SVG Version: 6.00 Build 0)  -->
<!DOCTYPE svg PUBLIC "-//W3C//DTD SVG 1.1//EN" "http://www.w3.org/Graphics/SVG/1.1/DTD/svg11.dtd">
<svg version="1.1" id="Capa_1" xmlns="http://www.w3.org/2000/svg" xmlns:xlink="http://www.w3.org/1999/xlink" x="0px" y="0px"
	 viewBox="0 0 58 58" style="enable-background:new 0 0 58 58;" xml:space="preserve">
<g>
	<path style="fill:#FDC794;" d="M29.392,54.999c11.246,0.156,17.52-4.381,21.008-9.189c3.603-4.966,4.764-11.283,3.647-17.323
		C50.004,6.641,29.392,6.826,29.392,6.826S8.781,6.641,4.738,28.487c-1.118,6.04,0.044,12.356,3.647,17.323
		C11.872,50.617,18.146,55.155,29.392,54.999z"/>
	<path style="fill:#F9A671;" d="M4.499,30.124c-0.453-0.429-0.985-0.687-1.559-0.687C1.316,29.437,0,31.418,0,33.861
		c0,2.443,1.316,4.424,2.939,4.424c0.687,0,1.311-0.37,1.811-0.964C4.297,34.969,4.218,32.537,4.499,30.124z"/>
	<path style="fill:#F9A671;" d="M57.823,26.297c-0.563-2.377-2.3-3.999-3.879-3.622c-0.491,0.117-0.898,0.43-1.225,0.855
		c0.538,1.515,0.994,3.154,1.328,4.957c0.155,0.837,0.261,1.679,0.328,2.522c0.52,0.284,1.072,0.402,1.608,0.274
		C57.562,30.907,58.386,28.674,57.823,26.297z"/>
	<path style="fill:#5E5F62;" d="M13.9,16.998c-0.256,0-0.512-0.098-0.707-0.293l-5-5c-0.391-0.391-0.391-1.023,0-1.414
		s1.023-0.391,1.414,0l5,5c0.391,0.391,0.391,1.023,0,1.414C14.412,16.901,14.156,16.998,13.9,16.998z"/>
	<path style="fill:#5E5F62;" d="M16.901,13.998c-0.367,0-0.72-0.202-0.896-0.553l-3-6c-0.247-0.494-0.047-1.095,0.447-1.342
		c0.495-0.246,1.094-0.047,1.342,0.447l3,6c0.247,0.494,0.047,1.095-0.447,1.342C17.204,13.964,17.052,13.998,16.901,13.998z"/>
	<path style="fill:#5E5F62;" d="M20.9,11.998c-0.419,0-0.809-0.265-0.948-0.684l-2-6c-0.175-0.524,0.108-1.091,0.632-1.265
		c0.528-0.177,1.09,0.108,1.265,0.632l2,6c0.175,0.524-0.108,1.091-0.632,1.265C21.111,11.982,21.005,11.998,20.9,11.998z"/>
	<path style="fill:#5E5F62;" d="M25.899,10.998c-0.48,0-0.904-0.347-0.985-0.836l-1-6c-0.091-0.544,0.277-1.06,0.822-1.15
		c0.547-0.094,1.061,0.277,1.15,0.822l1,6c0.091,0.544-0.277,1.06-0.822,1.15C26.009,10.994,25.954,10.998,25.899,10.998z"/>
	<path style="fill:#5E5F62;" d="M29.9,10.998c-0.553,0-1-0.447-1-1v-6c0-0.553,0.447-1,1-1s1,0.447,1,1v6
		C30.9,10.551,30.453,10.998,29.9,10.998z"/>
	<path style="fill:#5E5F62;" d="M33.9,10.998c-0.104,0-0.211-0.017-0.316-0.052c-0.523-0.174-0.807-0.74-0.632-1.265l2-6
		c0.174-0.523,0.737-0.807,1.265-0.632c0.523,0.174,0.807,0.74,0.632,1.265l-2,6C34.709,10.734,34.319,10.998,33.9,10.998z"/>
	<path style="fill:#5E5F62;" d="M37.9,11.998c-0.104,0-0.211-0.017-0.316-0.052c-0.523-0.174-0.807-0.74-0.632-1.265l2-6
		c0.175-0.523,0.736-0.809,1.265-0.632c0.523,0.174,0.807,0.74,0.632,1.265l-2,6C38.709,11.734,38.319,11.998,37.9,11.998z"/>
	<path style="fill:#5E5F62;" d="M40.899,13.998c-0.15,0-0.303-0.034-0.446-0.105c-0.494-0.247-0.694-0.848-0.447-1.342l3-6
		c0.248-0.494,0.848-0.693,1.342-0.447c0.494,0.247,0.694,0.848,0.447,1.342l-3,6C41.619,13.796,41.267,13.998,40.899,13.998z"/>
	<path style="fill:#802D40;" d="M39.063,40.91c0.308,2.432-3.032,6.999-7.791,7.603c-4.759,0.603-9.133-2.985-9.442-5.417
		s3.955,0.277,8.713-0.327C35.302,42.165,38.754,38.478,39.063,40.91z"/>
	<circle style="fill:#FFFFFF;" cx="39.5" cy="18.498" r="4.5"/>
	<path style="fill:#F9A671;" d="M31.167,35.674c-1.824,0-3.705-0.991-5.038-2.692c-0.042-0.052-0.084-0.115-0.125-0.179
		c-0.288-0.453-0.196-1.096,0.245-1.402c0.442-0.306,1.017-0.251,1.34,0.177c0.036,0.049,0.069,0.1,0.102,0.15
		c1.071,1.371,2.55,2.095,3.87,1.92c1.14-0.156,2.047-0.973,2.622-2.36c0.717-1.729,0.625-3.685-0.252-5.368
		c-0.774-1.484-2.045-2.549-3.398-2.847c-0.775-0.168-1.523-0.051-2.223,0.357c-0.479,0.277-1.089,0.116-1.368-0.36
		c-0.277-0.478-0.116-1.09,0.36-1.368c1.132-0.66,2.396-0.86,3.66-0.582c1.925,0.424,3.697,1.872,4.742,3.876
		c1.151,2.209,1.271,4.781,0.326,7.058c-0.851,2.053-2.342,3.322-4.199,3.576C31.611,35.658,31.39,35.674,31.167,35.674z"/>
	<path style="fill:#E64C3C;" d="M37.086,45.375c-1.091-0.24-2.303-0.377-3.586-0.377c-3.499,0-6.502,0.996-7.805,2.417
		c1.602,0.849,3.553,1.354,5.578,1.098C33.663,48.21,35.694,46.906,37.086,45.375z"/>
	<circle style="fill:#FFFFFF;" cx="18.5" cy="23.498" r="4.5"/>
	<path style="fill:#7F5B53;" d="M18,23.828c-0.26,0-0.521-0.101-0.71-0.29c-0.181-0.181-0.29-0.44-0.29-0.71
		c0-0.261,0.109-0.521,0.29-0.71c0.38-0.36,1.04-0.37,1.42,0.01c0.18,0.18,0.29,0.439,0.29,0.7c0,0.27-0.11,0.52-0.29,0.71
		C18.52,23.728,18.26,23.828,18,23.828z"/>
	<path style="fill:#7F5B53;" d="M40,19.998c-0.26,0-0.521-0.11-0.71-0.29c-0.181-0.19-0.29-0.45-0.29-0.71s0.109-0.521,0.29-0.71
		c0.359-0.37,1.05-0.37,1.42,0c0.18,0.189,0.29,0.439,0.29,0.71c0,0.27-0.11,0.52-0.3,0.71C40.52,19.888,40.26,19.998,40,19.998z"/>
</g>
<g>
</g>
<g>
</g>
<g>
</g>
<g>
</g>
<g>
</g>
<g>
</g>
<g>
</g>
<g>
</g>
<g>
</g>
<g>
</g>
<g>
</g>
<g>
</g>
<g>
</g>
<g>
</g>
<g>
</g>
</svg>
