<?xml version="1.0" encoding="iso-8859-1"?>
<!-- Generator: Adobe Illustrator 18.0.0, SVG Export Plug-In . SVG Version: 6.00 Build 0)  -->
<!DOCTYPE svg PUBLIC "-//W3C//DTD SVG 1.1//EN" "http://www.w3.org/Graphics/SVG/1.1/DTD/svg11.dtd">
<svg version="1.1" id="Capa_1" xmlns="http://www.w3.org/2000/svg" xmlns:xlink="http://www.w3.org/1999/xlink" x="0px" y="0px"
	 viewBox="0 0 57.98 57.98" style="enable-background:new 0 0 57.98 57.98;" xml:space="preserve">
<g>
	<path style="fill:#FFDB2B;" d="M39.295,15.98c-10.833-1.667-15,4-15,4c-7.75-0.75-11-3-11-3c-1.676,1.948-3.594,2.956-5,3.474
		V32.98v17c0,2.2,1.8,4,4,4h34c2.2,0,4-1.8,4-4v-17v-15C42.212,22.73,39.295,15.98,39.295,15.98z"/>
	<circle style="fill:#FFFFFF;" cx="38.845" cy="26.667" r="4.5"/>
	<circle style="fill:#FFFFFF;" cx="19.519" cy="27.5" r="4.5"/>
	<path style="fill:#FEC722;" d="M41.99,57.98H18.601c-0.721,0-1.305-0.584-1.305-1.305V53.98h26v2.695
		C43.295,57.395,42.711,57.98,41.99,57.98z"/>
	<path style="fill:#E57E25;" d="M31.211,50.305c-0.071,0-0.142,0-0.212-0.001c-4.177-0.055-8.084-1.735-11.003-4.732
		c-0.385-0.396-0.377-1.028,0.02-1.414c0.395-0.384,1.027-0.379,1.414,0.02c2.545,2.613,5.953,4.079,9.596,4.127
		c3.613,0.071,7.088-1.327,9.7-3.873c0.397-0.384,1.029-0.378,1.415,0.019c0.385,0.396,0.377,1.029-0.019,1.415
		C39.177,48.732,35.308,50.305,31.211,50.305z"/>
	<path style="fill:#E57E25;" d="M19.497,47.226c-0.104,0-0.209-0.016-0.313-0.05c-0.525-0.173-0.811-0.738-0.638-1.263
		c0.329-0.998,1.026-1.808,1.963-2.28c0.935-0.475,2-0.553,2.999-0.223c0.524,0.173,0.81,0.738,0.637,1.263
		c-0.173,0.522-0.736,0.807-1.264,0.637c-0.488-0.163-1.012-0.123-1.472,0.108c-0.46,0.232-0.802,0.63-0.963,1.12
		C20.308,46.959,19.917,47.226,19.497,47.226z"/>
	<path style="fill:#E57E25;" d="M42.196,48.532c-0.104,0-0.209-0.016-0.313-0.05c-0.525-0.173-0.811-0.738-0.638-1.263
		c0.333-1.011-0.218-2.104-1.229-2.437c-0.525-0.173-0.811-0.738-0.638-1.263s0.737-0.811,1.263-0.638
		c0.998,0.329,1.808,1.026,2.28,1.963s0.552,2.002,0.224,2.999C43.008,48.266,42.616,48.532,42.196,48.532z"/>
	<path style="fill:#556080;" d="M39.345,26c-0.26,0-0.521-0.11-0.71-0.29c-0.181-0.19-0.29-0.45-0.29-0.71s0.109-0.521,0.29-0.71
		c0.38-0.37,1.04-0.37,1.42,0c0.18,0.189,0.29,0.45,0.29,0.71s-0.11,0.52-0.29,0.71C39.864,25.89,39.614,26,39.345,26z"/>
	<path style="fill:#556080;" d="M21.345,29c-0.271,0-0.521-0.11-0.71-0.29c-0.181-0.19-0.29-0.45-0.29-0.71
		c0-0.271,0.1-0.521,0.29-0.71c0.38-0.37,1.05-0.37,1.42,0c0.18,0.189,0.29,0.439,0.29,0.71c0,0.27-0.11,0.52-0.3,0.71
		C21.875,28.89,21.614,29,21.345,29z"/>
	<path style="fill:#E57E25;" d="M30.997,43.003c-1.918,0-3.801-0.662-4.873-1.778L26.015,41.1c-0.341-0.419-0.313-1.062,0.095-1.416
		c0.409-0.354,0.999-0.348,1.366,0.048c0.014,0.015,0.076,0.088,0.09,0.104c0.863,0.901,2.772,1.373,4.439,1.083
		c1.002-0.169,1.723-0.586,1.978-1.144c0.45-0.981,0.48-1.854,0.094-2.67c-0.712-1.502-2.782-2.632-4.519-3.085
		c-0.647-0.171-1.917-0.082-2.256,0.062c-0.509,0.217-1.096-0.021-1.312-0.528c-0.217-0.509,0.021-1.096,0.528-1.312
		c0.81-0.345,2.533-0.421,3.544-0.157c2.123,0.555,4.767,1.939,5.821,4.164c0.637,1.344,0.608,2.852-0.083,4.36
		c-0.543,1.185-1.772,1.995-3.462,2.282C31.896,42.967,31.445,43.003,30.997,43.003z"/>
	<circle style="fill:#F0785A;" cx="44.345" cy="38" r="1"/>
	<circle style="fill:#F0785A;" cx="40.345" cy="35" r="1"/>
	<circle style="fill:#F0785A;" cx="45.345" cy="34" r="1"/>
	<circle style="fill:#F0785A;" cx="13.738" cy="33.896" r="1"/>
	<circle style="fill:#F0785A;" cx="18.14" cy="36.267" r="1"/>
	<circle style="fill:#F0785A;" cx="13.345" cy="38" r="1"/>
	<path style="fill:#5E5F62;" d="M54.295,17.98c-0.62-4.487-2.586-7.48-4.471-9.034c-0.916-0.755-1.439-1.852-1.735-3.001
		c-0.799-3.102-3.738-4.757-6.794-4.965c-1.947-0.133-3.646,0.484-5.589,1.261c-0.611,0.244-1.352-0.01-1.584-0.626
		c-1.194-3.171-8.034-1.545-13.249,3.75c-0.25,0.254-0.684,0.125-0.734-0.228c-0.173-1.23-0.263-3.448,1.155-4.157
		c0,0-4.407-2.479-8.186,0.826c-1.152,1.008-1.905,2.394-2.289,3.875c-0.092,0.355-0.186,0.734-0.269,1.107
		c-0.232,1.033-1.557,1.385-2.238,0.573C8.3,7.345,8.286,7.328,8.273,7.311C7.635,6.533,6.412,6.654,6.014,7.578
		C3.893,12.5,0.604,23.537,8.295,32.98V20.454c1.406-0.518,3.324-1.526,5-3.474c0,0,3.25,2.25,11,3c0,0,4.167-5.667,15-4
		c0,0,2.917,6.75,11,2v15C50.295,32.98,55.648,27.765,54.295,17.98z"/>
</g>
<g>
</g>
<g>
</g>
<g>
</g>
<g>
</g>
<g>
</g>
<g>
</g>
<g>
</g>
<g>
</g>
<g>
</g>
<g>
</g>
<g>
</g>
<g>
</g>
<g>
</g>
<g>
</g>
<g>
</g>
</svg>
