<?xml version="1.0" encoding="iso-8859-1"?>
<!-- Generator: Adobe Illustrator 18.0.0, SVG Export Plug-In . SVG Version: 6.00 Build 0)  -->
<!DOCTYPE svg PUBLIC "-//W3C//DTD SVG 1.1//EN" "http://www.w3.org/Graphics/SVG/1.1/DTD/svg11.dtd">
<svg version="1.1" id="Capa_1" xmlns="http://www.w3.org/2000/svg" xmlns:xlink="http://www.w3.org/1999/xlink" x="0px" y="0px"
	 viewBox="0 0 57.98 57.98" style="enable-background:new 0 0 57.98 57.98;" xml:space="preserve">
<g>
	<path style="fill:#FFDB2B;" d="M39.295,15.98c-10.833-1.667-15,4-15,4c-7.75-0.75-11-3-11-3c-1.676,1.948-3.594,2.956-5,3.474
		V32.98v17c0,2.2,1.8,4,4,4h34c2.2,0,4-1.8,4-4v-17v-15C42.212,22.73,39.295,15.98,39.295,15.98z"/>
	<path style="fill:#F29C1F;" d="M40.095,41.829c-0.331-0.443-0.958-0.532-1.399-0.2l-1.205,0.904
		c-5.373-3.599-11.33,0.053-14.312,3.059l-1.284-0.963c-0.441-0.33-1.068-0.242-1.399,0.2c-0.332,0.441-0.242,1.068,0.2,1.399l4,3
		c0.18,0.135,0.39,0.2,0.599,0.2c0.305,0,0.604-0.138,0.801-0.4c0.332-0.441,0.242-1.068-0.2-1.399l-1.083-0.813
		c1.8-1.696,6.497-5.415,10.973-3.004l-1.089,0.817c-0.442,0.331-0.532,0.958-0.2,1.399c0.196,0.263,0.496,0.4,0.801,0.4
		c0.209,0,0.419-0.065,0.599-0.2l4-3C40.337,42.897,40.427,42.271,40.095,41.829z"/>
	<circle style="fill:#FFFFFF;" cx="38.076" cy="29.98" r="6"/>
	<circle style="fill:#FFFFFF;" cx="20.076" cy="29.98" r="6"/>
	<path style="fill:#FEC722;" d="M41.99,57.98H18.601c-0.721,0-1.305-0.584-1.305-1.305V53.98h26v2.695
		C43.295,57.395,42.711,57.98,41.99,57.98z"/>
	<path style="fill:#AC744F;" d="M54.295,17.98c-0.62-4.487-2.586-7.48-4.471-9.034c-0.916-0.755-1.439-1.852-1.735-3.001
		c-0.799-3.102-3.738-4.757-6.794-4.965c-1.947-0.133-3.646,0.484-5.589,1.261c-0.611,0.244-1.352-0.01-1.584-0.626
		c-1.194-3.171-8.034-1.545-13.249,3.75c-0.25,0.254-0.684,0.125-0.734-0.228c-0.173-1.23-0.263-3.448,1.155-4.157
		c0,0-4.407-2.479-8.186,0.826c-1.152,1.008-1.905,2.394-2.289,3.875c-0.092,0.355-0.186,0.734-0.269,1.107
		c-0.232,1.033-1.557,1.385-2.238,0.573C8.3,7.345,8.286,7.328,8.273,7.311C7.635,6.533,6.412,6.654,6.014,7.578
		C3.893,12.5,0.604,23.537,8.295,32.98V20.454c1.406-0.518,3.324-1.526,5-3.474c0,0,3.25,2.25,11,3c0,0,4.167-5.667,15-4
		c0,0,2.917,6.75,11,2v15C50.295,32.98,55.648,27.765,54.295,17.98z"/>
	<g>
		<path style="fill:#F0C419;" d="M43.996,48.71c0.189-0.19,0.3-0.45,0.3-0.71s-0.11-0.521-0.29-0.71c-0.37-0.37-1.05-0.37-1.42,0
			c-0.181,0.189-0.29,0.45-0.29,0.71s0.109,0.52,0.29,0.71c0.189,0.189,0.45,0.29,0.71,0.29S43.815,48.89,43.996,48.71z"/>
		<path style="fill:#F0C419;" d="M43.295,46c0.26,0,0.52-0.11,0.71-0.29c0.189-0.19,0.29-0.45,0.29-0.71s-0.11-0.521-0.29-0.71
			c-0.37-0.37-1.05-0.37-1.41,0c-0.19,0.18-0.3,0.439-0.3,0.71c0,0.27,0.109,0.52,0.29,0.71C42.775,45.899,43.025,46,43.295,46z"/>
		<path style="fill:#F0C419;" d="M46.295,46c0.26,0,0.52-0.11,0.71-0.29c0.189-0.19,0.29-0.45,0.29-0.71s-0.11-0.521-0.29-0.71
			c-0.37-0.37-1.05-0.37-1.42,0c-0.181,0.18-0.29,0.439-0.29,0.71c0,0.27,0.109,0.52,0.29,0.71C45.775,45.899,46.025,46,46.295,46z"
			/>
		<path style="fill:#F0C419;" d="M45.585,47.29c-0.181,0.189-0.29,0.45-0.29,0.71s0.109,0.52,0.29,0.71
			c0.189,0.189,0.45,0.29,0.71,0.29s0.52-0.101,0.71-0.29c0.18-0.19,0.29-0.45,0.29-0.71s-0.11-0.521-0.29-0.71
			C46.626,46.92,45.956,46.92,45.585,47.29z"/>
		<path style="fill:#F0C419;" d="M43.585,50.29c-0.181,0.189-0.29,0.45-0.29,0.71s0.109,0.52,0.29,0.71
			c0.189,0.189,0.45,0.29,0.71,0.29s0.51-0.101,0.71-0.29c0.18-0.19,0.29-0.45,0.29-0.71s-0.11-0.521-0.29-0.71
			C44.626,49.92,43.965,49.92,43.585,50.29z"/>
		<path style="fill:#F0C419;" d="M40.585,50.29c-0.181,0.189-0.29,0.45-0.29,0.71c0,0.27,0.1,0.52,0.29,0.71
			c0.189,0.189,0.45,0.29,0.71,0.29s0.52-0.101,0.71-0.29c0.18-0.19,0.29-0.45,0.29-0.71s-0.11-0.521-0.29-0.71
			C41.626,49.92,40.965,49.92,40.585,50.29z"/>
		<path style="fill:#F0C419;" d="M41.005,48.71c0.18-0.19,0.29-0.45,0.29-0.71s-0.11-0.521-0.29-0.71c-0.37-0.37-1.04-0.37-1.42,0
			c-0.19,0.189-0.29,0.439-0.29,0.71c0,0.26,0.109,0.52,0.29,0.71c0.189,0.189,0.45,0.29,0.71,0.29S40.815,48.899,41.005,48.71z"/>
		<path style="fill:#F0C419;" d="M37.585,50.29c-0.181,0.189-0.29,0.45-0.29,0.71s0.109,0.52,0.29,0.71
			c0.189,0.189,0.45,0.29,0.71,0.29s0.52-0.101,0.71-0.29c0.18-0.19,0.29-0.45,0.29-0.71s-0.11-0.521-0.29-0.71
			C38.635,49.92,37.956,49.92,37.585,50.29z"/>
		<path style="fill:#F0C419;" d="M33.585,50.29c-0.181,0.189-0.29,0.45-0.29,0.71c0,0.27,0.1,0.52,0.29,0.71
			c0.189,0.18,0.45,0.29,0.71,0.29s0.52-0.11,0.71-0.29c0.18-0.19,0.29-0.45,0.29-0.71s-0.11-0.521-0.29-0.71
			C34.635,49.92,33.956,49.92,33.585,50.29z"/>
		<path style="fill:#F0C419;" d="M16.005,47.29c-0.38-0.37-1.04-0.37-1.42,0c-0.181,0.189-0.29,0.45-0.29,0.71s0.109,0.52,0.29,0.71
			c0.189,0.189,0.45,0.29,0.71,0.29s0.52-0.101,0.71-0.29c0.18-0.19,0.29-0.45,0.29-0.71S16.185,47.479,16.005,47.29z"/>
		<path style="fill:#F0C419;" d="M15.295,46c0.26,0,0.52-0.11,0.71-0.29c0.18-0.19,0.29-0.45,0.29-0.71c0-0.271-0.11-0.53-0.29-0.71
			c-0.37-0.37-1.061-0.36-1.41,0c-0.19,0.189-0.3,0.439-0.3,0.71c0,0.26,0.109,0.52,0.29,0.71C14.775,45.89,15.025,46,15.295,46z"/>
		<path style="fill:#F0C419;" d="M12.295,46c0.26,0,0.52-0.11,0.71-0.29c0.18-0.19,0.29-0.45,0.29-0.71c0-0.271-0.11-0.53-0.29-0.71
			c-0.37-0.37-1.061-0.36-1.41,0c-0.19,0.189-0.3,0.439-0.3,0.71c0,0.26,0.109,0.52,0.29,0.71C11.775,45.89,12.025,46,12.295,46z"/>
		<path style="fill:#F0C419;" d="M13.005,47.29c-0.37-0.37-1.061-0.37-1.42,0c-0.181,0.189-0.29,0.45-0.29,0.71
			s0.109,0.52,0.29,0.71c0.189,0.18,0.45,0.29,0.71,0.29s0.52-0.101,0.71-0.29c0.18-0.19,0.29-0.45,0.29-0.71
			S13.185,47.479,13.005,47.29z"/>
		<path style="fill:#F0C419;" d="M13.585,50.29c-0.181,0.189-0.29,0.439-0.29,0.71c0,0.27,0.1,0.52,0.29,0.71
			c0.189,0.189,0.45,0.29,0.71,0.29s0.52-0.101,0.71-0.29c0.18-0.19,0.29-0.45,0.29-0.71s-0.11-0.521-0.29-0.71
			C14.626,49.92,13.965,49.92,13.585,50.29z"/>
		<path style="fill:#F0C419;" d="M16.585,50.29c-0.181,0.189-0.29,0.45-0.29,0.71s0.109,0.52,0.29,0.71
			c0.189,0.189,0.45,0.29,0.71,0.29s0.52-0.101,0.71-0.29c0.189-0.19,0.29-0.45,0.29-0.71s-0.101-0.521-0.29-0.71
			C17.626,49.92,16.965,49.92,16.585,50.29z"/>
		<path style="fill:#F0C419;" d="M19.005,47.29c-0.38-0.37-1.061-0.36-1.42,0c-0.181,0.189-0.29,0.45-0.29,0.71
			s0.109,0.52,0.29,0.71c0.189,0.18,0.45,0.29,0.71,0.29s0.52-0.101,0.71-0.29c0.18-0.19,0.29-0.45,0.29-0.71
			S19.185,47.479,19.005,47.29z"/>
		<path style="fill:#F0C419;" d="M19.585,50.29c-0.181,0.189-0.29,0.45-0.29,0.71s0.109,0.52,0.29,0.71
			c0.189,0.189,0.45,0.29,0.71,0.29s0.52-0.101,0.71-0.29c0.18-0.19,0.29-0.45,0.29-0.71s-0.11-0.521-0.29-0.71
			C20.635,49.92,19.956,49.93,19.585,50.29z"/>
		<path style="fill:#F0C419;" d="M23.585,50.29c-0.19,0.189-0.29,0.45-0.29,0.71s0.1,0.52,0.29,0.71
			c0.189,0.189,0.45,0.29,0.71,0.29s0.52-0.101,0.71-0.29c0.18-0.19,0.29-0.45,0.29-0.71s-0.11-0.521-0.29-0.71
			C24.626,49.92,23.965,49.92,23.585,50.29z"/>
		<path style="fill:#F0C419;" d="M26.585,50.29c-0.181,0.189-0.29,0.45-0.29,0.71s0.109,0.52,0.29,0.71
			c0.189,0.189,0.45,0.29,0.71,0.29s0.52-0.11,0.7-0.29c0.189-0.19,0.3-0.45,0.3-0.71s-0.11-0.521-0.29-0.71
			C27.635,49.92,26.956,49.92,26.585,50.29z"/>
		<path style="fill:#F0C419;" d="M29.585,50.29c-0.181,0.189-0.29,0.45-0.29,0.71s0.109,0.52,0.29,0.71
			c0.189,0.189,0.45,0.29,0.71,0.29s0.52-0.101,0.71-0.29c0.18-0.19,0.29-0.45,0.29-0.71s-0.11-0.521-0.29-0.71
			C30.626,49.92,29.965,49.92,29.585,50.29z"/>
	</g>
	<circle style="fill:#556080;" cx="21.795" cy="28.5" r="1.5"/>
	<circle style="fill:#556080;" cx="39.795" cy="28.5" r="1.5"/>
</g>
<g>
</g>
<g>
</g>
<g>
</g>
<g>
</g>
<g>
</g>
<g>
</g>
<g>
</g>
<g>
</g>
<g>
</g>
<g>
</g>
<g>
</g>
<g>
</g>
<g>
</g>
<g>
</g>
<g>
</g>
</svg>
