<?xml version="1.0" encoding="iso-8859-1"?>
<!-- Generator: Adobe Illustrator 18.0.0, SVG Export Plug-In . SVG Version: 6.00 Build 0)  -->
<!DOCTYPE svg PUBLIC "-//W3C//DTD SVG 1.1//EN" "http://www.w3.org/Graphics/SVG/1.1/DTD/svg11.dtd">
<svg version="1.1" id="Capa_1" xmlns="http://www.w3.org/2000/svg" xmlns:xlink="http://www.w3.org/1999/xlink" x="0px" y="0px"
	 viewBox="0 0 58 58" style="enable-background:new 0 0 58 58;" xml:space="preserve">
<g>
	<path style="fill:#FDC794;" d="M29.392,55c11.246,0.156,17.52-4.381,21.008-9.189c3.603-4.966,4.764-11.283,3.647-17.323
		C50.004,6.642,29.392,6.827,29.392,6.827S8.781,6.642,4.738,28.488c-1.118,6.04,0.044,12.356,3.647,17.323
		C11.872,50.618,18.146,55.156,29.392,55z"/>
	<g>
		<path style="fill:#5E5F62;" d="M7.71,36.709c0.18-0.19,0.29-0.45,0.29-0.71c0-0.271-0.11-0.521-0.29-0.71
			c-0.37-0.37-1.05-0.37-1.42,0C6.11,35.479,6,35.729,6,35.999c0,0.26,0.11,0.52,0.29,0.71c0.19,0.18,0.45,0.29,0.71,0.29
			C7.26,36.999,7.52,36.889,7.71,36.709z"/>
		<path style="fill:#5E5F62;" d="M11,37.999c0.26,0,0.52-0.11,0.71-0.29c0.18-0.19,0.29-0.45,0.29-0.71s-0.11-0.521-0.29-0.71
			c-0.38-0.37-1.05-0.37-1.41,0c-0.19,0.189-0.3,0.439-0.3,0.71c0,0.27,0.11,0.52,0.29,0.71C10.48,37.889,10.74,37.999,11,37.999z"
			/>
		<path style="fill:#5E5F62;" d="M8.71,39.289c-0.37-0.37-1.06-0.37-1.42,0C7.11,39.469,7,39.729,7,39.999
			c0,0.27,0.11,0.52,0.29,0.7c0.19,0.189,0.44,0.3,0.71,0.3s0.52-0.11,0.71-0.29c0.18-0.19,0.29-0.44,0.29-0.71
			C9,39.729,8.89,39.469,8.71,39.289z"/>
		<path style="fill:#5E5F62;" d="M11,40.999c0,0.26,0.11,0.52,0.29,0.71c0.19,0.18,0.45,0.29,0.71,0.29c0.26,0,0.52-0.11,0.7-0.29
			c0.19-0.19,0.3-0.44,0.3-0.71c0-0.271-0.11-0.521-0.29-0.71c-0.37-0.37-1.04-0.37-1.42,0C11.11,40.479,11,40.739,11,40.999z"/>
		<path style="fill:#5E5F62;" d="M10.71,43.289c-0.38-0.37-1.04-0.37-1.42,0C9.11,43.479,9,43.729,9,43.999
			c0,0.26,0.11,0.52,0.29,0.71c0.19,0.18,0.45,0.29,0.71,0.29c0.26,0,0.52-0.11,0.71-0.29c0.18-0.19,0.29-0.45,0.29-0.71
			S10.89,43.479,10.71,43.289z"/>
		<path style="fill:#5E5F62;" d="M14.71,44.289c-0.38-0.37-1.05-0.37-1.42,0C13.1,44.479,13,44.729,13,44.999
			c0,0.27,0.11,0.52,0.29,0.7c0.19,0.189,0.44,0.3,0.71,0.3c0.26,0,0.52-0.11,0.71-0.29c0.18-0.19,0.29-0.45,0.29-0.71
			S14.89,44.479,14.71,44.289z"/>
		<path style="fill:#5E5F62;" d="M11.29,47.289C11.1,47.479,11,47.729,11,47.999c0,0.27,0.11,0.52,0.29,0.7
			c0.19,0.189,0.44,0.3,0.71,0.3c0.26,0,0.52-0.11,0.71-0.29c0.18-0.19,0.29-0.45,0.29-0.71s-0.11-0.521-0.29-0.71
			C12.33,46.919,11.66,46.919,11.29,47.289z"/>
		<path style="fill:#5E5F62;" d="M18.71,45.709c0.18-0.19,0.29-0.44,0.29-0.71c0-0.271-0.1-0.521-0.29-0.71
			c-0.37-0.37-1.04-0.37-1.42,0c-0.18,0.189-0.29,0.45-0.29,0.71s0.11,0.52,0.29,0.71c0.19,0.18,0.45,0.29,0.71,0.29
			C18.27,45.999,18.52,45.889,18.71,45.709z"/>
		<path style="fill:#5E5F62;" d="M19.29,47.289C19.1,47.479,19,47.729,19,47.999c0,0.27,0.11,0.52,0.29,0.7
			c0.19,0.189,0.44,0.3,0.71,0.3c0.26,0,0.52-0.11,0.71-0.29c0.18-0.19,0.29-0.45,0.29-0.71s-0.11-0.521-0.29-0.71
			C20.33,46.919,19.66,46.919,19.29,47.289z"/>
		<path style="fill:#5E5F62;" d="M38.71,47.289c-0.38-0.37-1.05-0.37-1.42,0c-0.18,0.189-0.29,0.439-0.29,0.71
			c0,0.27,0.11,0.52,0.29,0.7c0.19,0.189,0.44,0.3,0.71,0.3c0.26,0,0.52-0.11,0.71-0.29c0.18-0.19,0.29-0.45,0.29-0.71
			S38.9,47.479,38.71,47.289z"/>
		<path style="fill:#5E5F62;" d="M34.19,49.789c-0.18,0.189-0.29,0.45-0.29,0.71s0.11,0.52,0.29,0.71c0.19,0.18,0.45,0.29,0.71,0.29
			c0.26,0,0.52-0.11,0.71-0.29c0.18-0.19,0.29-0.45,0.29-0.71s-0.11-0.521-0.29-0.71C35.23,49.419,34.56,49.419,34.19,49.789z"/>
		<path style="fill:#5E5F62;" d="M30.35,51.729c-0.18,0.19-0.29,0.45-0.29,0.71c0,0.261,0.11,0.521,0.29,0.7
			c0.19,0.19,0.45,0.3,0.71,0.3c0.27,0,0.52-0.109,0.71-0.3c0.19-0.18,0.29-0.439,0.29-0.7c0-0.26-0.1-0.52-0.29-0.71
			C31.39,51.358,30.73,51.358,30.35,51.729z"/>
		<path style="fill:#5E5F62;" d="M22.23,50.089c-0.19,0.189-0.29,0.439-0.29,0.71c0,0.26,0.11,0.52,0.29,0.7
			c0.19,0.189,0.44,0.3,0.71,0.3c0.26,0,0.52-0.11,0.71-0.3c0.18-0.181,0.29-0.44,0.29-0.7c0-0.271-0.11-0.521-0.29-0.71
			C23.27,49.719,22.6,49.719,22.23,50.089z"/>
		<path style="fill:#5E5F62;" d="M26.94,48.799c0-0.26-0.11-0.521-0.29-0.71c-0.38-0.38-1.05-0.37-1.42,0
			c-0.18,0.189-0.29,0.45-0.29,0.71s0.11,0.52,0.29,0.7c0.18,0.189,0.44,0.3,0.71,0.3s0.52-0.11,0.71-0.3
			C26.83,49.318,26.94,49.059,26.94,48.799z"/>
		<path style="fill:#5E5F62;" d="M30.94,48.799c0-0.26-0.11-0.521-0.29-0.71c-0.38-0.38-1.04-0.38-1.42,0
			c-0.18,0.189-0.29,0.45-0.29,0.71s0.11,0.52,0.29,0.7c0.19,0.189,0.44,0.3,0.71,0.3s0.52-0.11,0.71-0.3
			C30.83,49.318,30.94,49.059,30.94,48.799z"/>
		<path style="fill:#5E5F62;" d="M34.65,48.499c0.18-0.181,0.29-0.44,0.29-0.7c0-0.271-0.11-0.53-0.29-0.71
			c-0.38-0.37-1.05-0.37-1.42,0c-0.18,0.18-0.29,0.439-0.29,0.71c0,0.26,0.11,0.52,0.29,0.7c0.18,0.189,0.44,0.3,0.71,0.3
			S34.46,48.688,34.65,48.499z"/>
		<path style="fill:#5E5F62;" d="M26.31,51.429c-0.18,0.19-0.29,0.45-0.29,0.71s0.11,0.521,0.29,0.71c0.19,0.18,0.45,0.29,0.71,0.29
			c0.27,0,0.52-0.11,0.71-0.29c0.19-0.189,0.29-0.45,0.29-0.71s-0.1-0.52-0.29-0.71C27.35,51.059,26.69,51.059,26.31,51.429z"/>
		<path style="fill:#5E5F62;" d="M18.29,50.289c-0.18,0.189-0.29,0.439-0.29,0.71c0,0.27,0.11,0.52,0.29,0.71
			c0.19,0.18,0.45,0.29,0.71,0.29c0.26,0,0.52-0.11,0.7-0.29c0.19-0.19,0.3-0.45,0.3-0.71s-0.11-0.521-0.29-0.71
			C19.34,49.919,18.66,49.919,18.29,50.289z"/>
		<path style="fill:#5E5F62;" d="M39.29,50.289c-0.18,0.189-0.29,0.45-0.29,0.71s0.11,0.52,0.29,0.71c0.19,0.18,0.45,0.29,0.71,0.29
			c0.27,0,0.52-0.11,0.71-0.29c0.18-0.19,0.29-0.45,0.29-0.71s-0.11-0.521-0.29-0.71C40.34,49.919,39.67,49.919,39.29,50.289z"/>
		<path style="fill:#5E5F62;" d="M15.29,47.289C15.1,47.479,15,47.729,15,47.999c0,0.27,0.11,0.52,0.29,0.7
			c0.19,0.189,0.44,0.3,0.71,0.3c0.26,0,0.52-0.11,0.71-0.29c0.18-0.19,0.29-0.45,0.29-0.71s-0.11-0.521-0.29-0.71
			C16.33,46.919,15.66,46.919,15.29,47.289z"/>
		<path style="fill:#5E5F62;" d="M52.71,35.289c-0.38-0.37-1.04-0.37-1.42,0c-0.181,0.189-0.29,0.45-0.29,0.71s0.1,0.52,0.29,0.71
			c0.189,0.18,0.45,0.29,0.71,0.29s0.52-0.11,0.71-0.29c0.18-0.19,0.29-0.45,0.29-0.71S52.89,35.479,52.71,35.289z"/>
		<path style="fill:#5E5F62;" d="M48,37.999c0.27,0,0.52-0.11,0.71-0.29c0.18-0.19,0.29-0.45,0.29-0.71
			c0-0.271-0.11-0.521-0.29-0.71c-0.37-0.37-1.05-0.37-1.42,0c-0.181,0.189-0.29,0.439-0.29,0.71c0,0.27,0.109,0.52,0.29,0.71
			C47.479,37.889,47.729,37.999,48,37.999z"/>
		<path style="fill:#5E5F62;" d="M50.29,39.289c-0.181,0.18-0.29,0.439-0.29,0.71c0,0.27,0.109,0.529,0.29,0.7
			c0.18,0.189,0.439,0.3,0.71,0.3c0.27,0,0.52-0.11,0.7-0.29c0.189-0.19,0.3-0.44,0.3-0.71c0-0.271-0.11-0.521-0.29-0.71
			C51.34,38.919,50.649,38.929,50.29,39.289z"/>
		<path style="fill:#5E5F62;" d="M47,41.999c0.26,0,0.52-0.11,0.71-0.29c0.18-0.19,0.29-0.45,0.29-0.71s-0.11-0.521-0.29-0.71
			c-0.38-0.37-1.04-0.37-1.42,0c-0.181,0.189-0.29,0.439-0.29,0.71c0,0.27,0.109,0.52,0.29,0.71
			C46.479,41.889,46.74,41.999,47,41.999z"/>
		<path style="fill:#5E5F62;" d="M43,42.999c0.26,0,0.52-0.11,0.71-0.29c0.18-0.19,0.29-0.45,0.29-0.71s-0.11-0.521-0.29-0.71
			c-0.38-0.37-1.05-0.37-1.41,0c-0.19,0.18-0.3,0.439-0.3,0.71c0,0.27,0.11,0.52,0.29,0.71C42.48,42.889,42.74,42.999,43,42.999z"/>
		<path style="fill:#5E5F62;" d="M48.29,43.289c-0.181,0.189-0.29,0.439-0.29,0.71c0,0.26,0.109,0.52,0.29,0.71
			c0.189,0.18,0.45,0.29,0.71,0.29s0.52-0.11,0.7-0.29c0.189-0.19,0.3-0.44,0.3-0.71c0-0.271-0.11-0.53-0.29-0.71
			C49.33,42.919,48.67,42.919,48.29,43.289z"/>
		<path style="fill:#5E5F62;" d="M45.71,44.289c-0.38-0.37-1.05-0.37-1.42,0c-0.18,0.189-0.29,0.45-0.29,0.71s0.11,0.52,0.29,0.7
			c0.19,0.189,0.44,0.3,0.71,0.3s0.52-0.11,0.71-0.29c0.18-0.19,0.29-0.45,0.29-0.71S45.89,44.479,45.71,44.289z"/>
		<path style="fill:#5E5F62;" d="M46.29,47.289c-0.19,0.189-0.29,0.45-0.29,0.71s0.1,0.52,0.29,0.7c0.189,0.189,0.45,0.3,0.71,0.3
			c0.27,0,0.52-0.11,0.7-0.29c0.189-0.19,0.3-0.45,0.3-0.71s-0.11-0.521-0.29-0.71C47.34,46.919,46.67,46.909,46.29,47.289z"/>
		<path style="fill:#5E5F62;" d="M41.71,44.289c-0.38-0.37-1.04-0.37-1.42,0c-0.19,0.189-0.29,0.45-0.29,0.71s0.11,0.52,0.29,0.71
			c0.19,0.18,0.45,0.29,0.71,0.29c0.26,0,0.52-0.11,0.71-0.29c0.18-0.19,0.29-0.45,0.29-0.71S41.9,44.479,41.71,44.289z"/>
		<path style="fill:#5E5F62;" d="M42.29,47.289c-0.18,0.189-0.29,0.45-0.29,0.71s0.11,0.52,0.29,0.71c0.19,0.18,0.45,0.29,0.71,0.29
			c0.27,0,0.52-0.11,0.71-0.29c0.18-0.19,0.29-0.45,0.29-0.71s-0.11-0.521-0.29-0.71C43.34,46.919,42.67,46.919,42.29,47.289z"/>
	</g>
	<path style="fill:#F9A671;" d="M4.499,30.125c-0.453-0.429-0.985-0.687-1.559-0.687C1.316,29.438,0,31.419,0,33.862
		c0,2.443,1.316,4.424,2.939,4.424c0.687,0,1.311-0.37,1.811-0.964C4.297,34.97,4.218,32.538,4.499,30.125z"/>
	<path style="fill:#F9A671;" d="M57.823,26.298c-0.563-2.377-2.3-3.999-3.879-3.622c-0.491,0.117-0.898,0.43-1.225,0.855
		c0.538,1.515,0.994,3.154,1.328,4.957c0.155,0.837,0.261,1.679,0.328,2.522c0.52,0.284,1.072,0.402,1.608,0.274
		C57.562,30.908,58.386,28.675,57.823,26.298z"/>
	<g>
		<path style="fill:#5E5F62;" d="M9.607,10.292c-0.391-0.391-1.023-0.391-1.414,0s-0.391,1.023,0,1.414l5,5
			c0.195,0.195,0.451,0.293,0.707,0.293s0.512-0.098,0.707-0.293c0.391-0.391,0.391-1.023,0-1.414L9.607,10.292z"/>
		<path style="fill:#5E5F62;" d="M14.795,6.552c-0.247-0.494-0.846-0.693-1.342-0.447c-0.494,0.247-0.694,0.848-0.447,1.342l3,6
			c0.175,0.351,0.528,0.553,0.896,0.553c0.15,0,0.303-0.034,0.446-0.105c0.494-0.247,0.694-0.848,0.447-1.342L14.795,6.552z"/>
		<path style="fill:#5E5F62;" d="M19.849,4.683c-0.174-0.523-0.74-0.807-1.265-0.632c-0.524,0.174-0.807,0.74-0.632,1.265l2,6
			c0.14,0.419,0.53,0.684,0.949,0.684c0.104,0,0.211-0.017,0.316-0.052c0.524-0.174,0.807-0.74,0.632-1.265L19.849,4.683z"/>
		<path style="fill:#5E5F62;" d="M24.736,3.013c-0.544,0.091-0.913,0.606-0.822,1.15l1,6c0.082,0.489,0.505,0.836,0.985,0.836
			c0.054,0,0.11-0.004,0.166-0.014c0.544-0.091,0.913-0.606,0.822-1.15l-1-6C25.795,3.29,25.282,2.912,24.736,3.013z"/>
		<path style="fill:#5E5F62;" d="M29.9,2.999c-0.552,0-1,0.447-1,1v6c0,0.553,0.448,1,1,1s1-0.447,1-1v-6
			C30.9,3.446,30.453,2.999,29.9,2.999z"/>
		<path style="fill:#5E5F62;" d="M36.217,3.051c-0.526-0.176-1.091,0.108-1.265,0.632l-2,6c-0.175,0.524,0.108,1.091,0.632,1.265
			c0.105,0.035,0.212,0.052,0.316,0.052c0.419,0,0.809-0.265,0.949-0.684l2-6C37.024,3.791,36.741,3.225,36.217,3.051z"/>
		<path style="fill:#5E5F62;" d="M40.217,4.051c-0.525-0.175-1.09,0.108-1.265,0.632l-2,6c-0.175,0.524,0.108,1.091,0.632,1.265
			c0.105,0.035,0.212,0.052,0.316,0.052c0.419,0,0.809-0.265,0.949-0.684l2-6C41.024,4.791,40.741,4.225,40.217,4.051z"/>
		<path style="fill:#5E5F62;" d="M44.348,6.104c-0.495-0.246-1.095-0.047-1.342,0.447l-3,6c-0.247,0.494-0.047,1.095,0.447,1.342
			c0.144,0.071,0.296,0.105,0.446,0.105c0.367,0,0.72-0.202,0.896-0.553l3-6C45.042,6.952,44.842,6.352,44.348,6.104z"/>
	</g>
	<path style="fill:#F9A671;" d="M39,39.999c0-0.192-0.069-0.362-0.163-0.514c-0.197-0.742-0.573-1.431-1.135-1.993
		c-0.391-0.391-1.024-0.391-1.414,0c-0.391,0.391-0.391,1.023,0,1.414c0.029,0.029,0.05,0.063,0.078,0.094H22.169
		c0.027-0.03,0.048-0.065,0.078-0.094c0.391-0.391,0.391-1.023,0-1.414s-1.023-0.391-1.414,0c-0.837,0.837-1.298,1.94-1.298,3.107
		s0.461,2.271,1.298,3.107c0.195,0.195,0.451,0.293,0.707,0.293s0.512-0.098,0.707-0.293c0.391-0.391,0.391-1.023,0-1.414
		c-0.361-0.361-0.589-0.81-0.672-1.293H36.96c-0.084,0.483-0.311,0.932-0.672,1.293c-0.391,0.391-0.391,1.023,0,1.414
		c0.195,0.195,0.451,0.293,0.707,0.293s0.512-0.098,0.707-0.293C38.539,42.869,39,41.766,39,40.599c0-0.136-0.027-0.268-0.04-0.402
		C38.974,40.13,39,40.069,39,39.999z"/>
	<g>
		<path style="fill:#FFFFFF;" d="M34.09,23.999c-0.055,0.326-0.09,0.659-0.09,1c0,3.314,2.686,6,6,6s6-2.686,6-6
			c0-0.341-0.035-0.674-0.09-1H34.09z"/>
		<path style="fill:#F9A671;" d="M40,18.999c-2.972,0-5.433,2.164-5.91,5h11.82C45.433,21.163,42.972,18.999,40,18.999z"/>
		<circle style="fill:#7F5B53;" cx="40" cy="27.999" r="1"/>
	</g>
	<g>
		<path style="fill:#FFFFFF;" d="M12.069,23.999c-0.041,0.328-0.069,0.661-0.069,1c0,4.418,3.582,8,8,8s8-3.582,8-8
			c0-0.339-0.028-0.672-0.069-1H12.069z"/>
		<path style="fill:#F9A671;" d="M20,16.999c-4.079,0-7.438,3.055-7.931,7h15.862C27.438,20.054,24.079,16.999,20,16.999z"/>
		<circle style="fill:#7F5B53;" cx="19.5" cy="28.499" r="1.5"/>
	</g>
</g>
<g>
</g>
<g>
</g>
<g>
</g>
<g>
</g>
<g>
</g>
<g>
</g>
<g>
</g>
<g>
</g>
<g>
</g>
<g>
</g>
<g>
</g>
<g>
</g>
<g>
</g>
<g>
</g>
<g>
</g>
</svg>
