<?xml version="1.0" encoding="iso-8859-1"?>
<!-- Generator: Adobe Illustrator 18.0.0, SVG Export Plug-In . SVG Version: 6.00 Build 0)  -->
<!DOCTYPE svg PUBLIC "-//W3C//DTD SVG 1.1//EN" "http://www.w3.org/Graphics/SVG/1.1/DTD/svg11.dtd">
<svg version="1.1" id="Capa_1" xmlns="http://www.w3.org/2000/svg" xmlns:xlink="http://www.w3.org/1999/xlink" x="0px" y="0px"
	 viewBox="0 0 57 57" style="enable-background:new 0 0 57 57;" xml:space="preserve">
<g>
	<path style="fill:#6E5847;" d="M28.5,0C14.475,0,3,11.475,3,25.5V50c0,2.2,1.8,4,4,4h6.777c4.16,2.021,9.237,3,14.723,3
		s10.563-0.979,14.723-3H50c2.2,0,4-1.8,4-4V25.5C54,11.475,42.525,0,28.5,0z"/>
	<path style="fill:#FDC794;" d="M51,30c-11.099,0-20.503-7.958-23.767-18.968C13.738,11.693,3,22.842,3,36.5
		C3,50.583,14.417,57,28.5,57S54,50.583,54,36.5c0-2.285-0.305-4.499-0.869-6.606C52.428,29.959,51.718,30,51,30z"/>
	<ellipse style="fill:#FFFFFF;" cx="20" cy="26.5" rx="6" ry="7.5"/>
	<ellipse style="fill:#7F5B53;" cx="20" cy="26.5" rx="3" ry="4.5"/>
	<path style="fill:#802D40;" d="M15,40v0.031c0,3.821,2.109,7.383,5.543,9.058c2.139,1.044,4.692,1.685,7.442,1.685
		c2.747,0,5.304-0.64,7.449-1.682C38.884,47.416,41,43.836,40.989,40v0H15z"/>
	<path style="fill:#E64C3C;" d="M27.996,44.458C23.277,44.458,19,45.538,19,48l0.038,0.152c0.471,0.35,0.965,0.675,1.505,0.938
		c2.139,1.044,4.692,1.685,7.442,1.685c2.747,0,5.304-0.64,7.449-1.682c0.553-0.269,1.058-0.602,1.54-0.962L37,48
		C37,45.538,32.716,44.458,27.996,44.458z"/>
</g>
<g>
</g>
<g>
</g>
<g>
</g>
<g>
</g>
<g>
</g>
<g>
</g>
<g>
</g>
<g>
</g>
<g>
</g>
<g>
</g>
<g>
</g>
<g>
</g>
<g>
</g>
<g>
</g>
<g>
</g>
</svg>
