<?xml version="1.0" encoding="iso-8859-1"?>
<!-- Generator: Adobe Illustrator 18.0.0, SVG Export Plug-In . SVG Version: 6.00 Build 0)  -->
<!DOCTYPE svg PUBLIC "-//W3C//DTD SVG 1.1//EN" "http://www.w3.org/Graphics/SVG/1.1/DTD/svg11.dtd">
<svg version="1.1" id="Capa_1" xmlns="http://www.w3.org/2000/svg" xmlns:xlink="http://www.w3.org/1999/xlink" x="0px" y="0px"
	 viewBox="0 0 42 42" style="enable-background:new 0 0 42 42;" xml:space="preserve">
<g>
	<circle style="fill:#FBD971;" cx="21" cy="21" r="21"/>
	<path style="fill:#C03A2B;" d="M10,27c0,6.075,4.925,11,11,11s11-4.925,11-11H10z"/>
	<circle style="fill:#FFFFFF;" cx="12" cy="15" r="6"/>
	<circle style="fill:#FFFFFF;" cx="30" cy="15" r="6"/>
	<path style="fill:#FFFFFF;" d="M10,27c0,2.119,2.905,3.926,7,4.654V27H10z"/>
	<path style="fill:#FFFFFF;" d="M19,27v4.913C19.649,31.968,20.316,32,21,32s1.351-0.032,2-0.087V27H19z"/>
	<path style="fill:#FFFFFF;" d="M32,27h-7v4.654C29.095,30.926,32,29.119,32,27z"/>
	<path style="fill:#ECF0F1;" d="M17,27v4.654c0.64,0.114,1.308,0.202,2,0.26V27H17z"/>
	<path style="fill:#ECF0F1;" d="M23,27v4.913c0.692-0.058,1.36-0.146,2-0.26V27H23z"/>
	<circle style="fill:#AF8066;" cx="10" cy="13.5" r="3.5"/>
	<circle style="fill:#AF8066;" cx="28" cy="13.5" r="3.5"/>
</g>
<g>
</g>
<g>
</g>
<g>
</g>
<g>
</g>
<g>
</g>
<g>
</g>
<g>
</g>
<g>
</g>
<g>
</g>
<g>
</g>
<g>
</g>
<g>
</g>
<g>
</g>
<g>
</g>
<g>
</g>
</svg>
