<?xml version="1.0" encoding="iso-8859-1"?>
<!-- Generator: Adobe Illustrator 18.0.0, SVG Export Plug-In . SVG Version: 6.00 Build 0)  -->
<!DOCTYPE svg PUBLIC "-//W3C//DTD SVG 1.1//EN" "http://www.w3.org/Graphics/SVG/1.1/DTD/svg11.dtd">
<svg version="1.1" id="Capa_1" xmlns="http://www.w3.org/2000/svg" xmlns:xlink="http://www.w3.org/1999/xlink" x="0px" y="0px"
	 viewBox="0 0 42 42" style="enable-background:new 0 0 42 42;" xml:space="preserve">
<g>
	<path style="fill:#FBD971;" d="M25,35.317c1.466-0.595,2.789-1.472,3.891-2.573c1.065-1.066,2.039-2.223,2.632-3.631l5.357,5.357
		c0.04,0.04,0.067,0.088,0.106,0.13C40.107,30.934,42,26.191,42,21C42,9.402,32.598,0,21,0S0,9.402,0,21c0,11.598,9.402,21,21,21
		c3.128,0,6.086-0.703,8.754-1.929L25,35.317z"/>
	<path style="fill:#F29C1F;" d="M16,17c-0.552,0-1-0.447-1-1c0-1.654-1.346-3-3-3s-3,1.346-3,3c0,0.553-0.448,1-1,1s-1-0.447-1-1
		c0-2.757,2.243-5,5-5s5,2.243,5,5C17,16.553,16.552,17,16,17z"/>
	<path style="fill:#F29C1F;" d="M34,17c-0.552,0-1-0.447-1-1c0-1.654-1.346-3-3-3s-3,1.346-3,3c0,0.553-0.448,1-1,1s-1-0.447-1-1
		c0-2.757,2.243-5,5-5s5,2.243,5,5C35,16.553,34.552,17,34,17z"/>
	<g>
		<path style="fill:#FB7B76;" d="M28.891,32.744c-1.102,1.102-2.424,1.978-3.891,2.573l5.516,5.516c1.556,1.556,4.101,1.556,5.657,0
			l0.707-0.707c1.556-1.556,1.556-4.101,0-5.657l-5.357-5.357C30.93,30.521,29.956,31.679,28.891,32.744z"/>
	</g>
	<path style="fill:#E64C3C;" d="M33.345,37.591c-0.256,0-0.512-0.098-0.707-0.293l-0.116-0.115
		c-1.811-1.813-2.982-2.882-3.486-3.184c-0.275,0.017-0.538-0.087-0.743-0.292c-0.391-0.391-0.391-1.023,0-1.414
		c0.912-0.913,2.163,0.2,3.167,1.095c0.878,0.781,1.84,1.744,2.477,2.381l0.115,0.115c0.391,0.391,0.391,1.023,0,1.414
		C33.856,37.493,33.601,37.591,33.345,37.591z"/>
	<path style="fill:#F0C419;" d="M21,37c-6.617,0-12-5.383-12-12c0-0.553,0.448-1,1-1s1,0.447,1,1c0,5.514,4.486,10,10,10
		s10-4.486,10-10c0-0.553,0.448-1,1-1s1,0.447,1,1C33,31.617,27.617,37,21,37z"/>
</g>
<g>
</g>
<g>
</g>
<g>
</g>
<g>
</g>
<g>
</g>
<g>
</g>
<g>
</g>
<g>
</g>
<g>
</g>
<g>
</g>
<g>
</g>
<g>
</g>
<g>
</g>
<g>
</g>
<g>
</g>
</svg>
