<?xml version="1.0" encoding="iso-8859-1"?>
<!-- Generator: Adobe Illustrator 18.0.0, SVG Export Plug-In . SVG Version: 6.00 Build 0)  -->
<!DOCTYPE svg PUBLIC "-//W3C//DTD SVG 1.1//EN" "http://www.w3.org/Graphics/SVG/1.1/DTD/svg11.dtd">
<svg version="1.1" id="Capa_1" xmlns="http://www.w3.org/2000/svg" xmlns:xlink="http://www.w3.org/1999/xlink" x="0px" y="0px"
	 viewBox="0 0 57 57" style="enable-background:new 0 0 57 57;" xml:space="preserve">
<g>
	<path style="fill:#6E5847;" d="M28.5,0C14.475,0,3,11.475,3,25.5V50c0,2.2,1.8,4,4,4h6.777c4.16,2.021,9.237,3,14.723,3
		s10.563-0.979,14.723-3H50c2.2,0,4-1.8,4-4V25.5C54,11.475,42.525,0,28.5,0z"/>
	<path style="fill:#FDC794;" d="M51,30c-11.099,0-20.503-7.958-23.767-18.968C13.738,11.693,3,22.842,3,36.5
		C3,50.583,14.417,57,28.5,57S54,50.583,54,36.5c0-2.285-0.305-4.499-0.869-6.606C52.428,29.959,51.718,30,51,30z"/>
	<path style="fill:#802D40;" d="M45.392,37.385C45.392,42.098,37.917,50,28.696,50S12,42.098,12,37.385s7.475,1.484,16.696,1.484
		S45.392,32.672,45.392,37.385z"/>
	<path style="fill:#FFFFFF;" d="M22.5,28h-7c-1.925,0-3.5-1.575-3.5-3.5v0c0-1.925,1.575-3.5,3.5-3.5h7c1.925,0,3.5,1.575,3.5,3.5v0
		C26,26.425,24.425,28,22.5,28z"/>
	<circle style="fill:#7F5B53;" cx="22.5" cy="24.5" r="3.5"/>
	<path style="fill:#E64C3C;" d="M38,47.281C37.77,44.898,33.845,43,29.022,43c-4.971,0-9,2.015-9,4.5l0.006,0.113
		c2.534,1.43,5.502,2.387,8.69,2.387C32.154,50,35.345,48.901,38,47.281z"/>
</g>
<g>
</g>
<g>
</g>
<g>
</g>
<g>
</g>
<g>
</g>
<g>
</g>
<g>
</g>
<g>
</g>
<g>
</g>
<g>
</g>
<g>
</g>
<g>
</g>
<g>
</g>
<g>
</g>
<g>
</g>
</svg>
