<?xml version="1.0" encoding="iso-8859-1"?>
<!-- Generator: Adobe Illustrator 18.0.0, SVG Export Plug-In . SVG Version: 6.00 Build 0)  -->
<!DOCTYPE svg PUBLIC "-//W3C//DTD SVG 1.1//EN" "http://www.w3.org/Graphics/SVG/1.1/DTD/svg11.dtd">
<svg version="1.1" id="Capa_1" xmlns="http://www.w3.org/2000/svg" xmlns:xlink="http://www.w3.org/1999/xlink" x="0px" y="0px"
	 viewBox="0 0 57 57" style="enable-background:new 0 0 57 57;" xml:space="preserve">
<g>
	<path style="fill:#6E5847;" d="M28.5,0C14.475,0,3,11.475,3,25.5V50c0,2.2,1.8,4,4,4h6.777c4.16,2.021,9.237,3,14.723,3
		s10.563-0.979,14.723-3H50c2.2,0,4-1.8,4-4V25.5C54,11.475,42.525,0,28.5,0z"/>
	<path style="fill:#FDC794;" d="M51,30c-11.099,0-20.503-7.958-23.767-18.968C13.738,11.693,3,22.842,3,36.5
		C3,50.583,14.417,57,28.5,57S54,50.583,54,36.5c0-2.285-0.305-4.499-0.869-6.606C52.428,29.959,51.718,30,51,30z"/>
	<g>
		<path style="fill:#FFFFFF;" d="M18,40c0,6.075,4.925,11,11,11s11-4.925,11-11H18z"/>
		<path style="fill:#ECF0F0;" d="M38,44h-4v-4c0-0.553-0.448-1-1-1s-1,0.447-1,1v4h-6v-4c0-0.553-0.448-1-1-1s-1,0.447-1,1v4h-4
			c-0.552,0-1,0.447-1,1s0.448,1,1,1h4v4c0,0.553,0.448,1,1,1s1-0.447,1-1v-4h6v4c0,0.553,0.448,1,1,1s1-0.447,1-1v-4h4
			c0.552,0,1-0.447,1-1S38.552,44,38,44z"/>
		<path style="fill:#F9A671;" d="M29,52c-6.617,0-12-5.383-12-12c0-0.553,0.448-1,1-1h22c0.552,0,1,0.447,1,1
			C41,46.617,35.617,52,29,52z M19.05,41c0.503,5.046,4.774,9,9.95,9s9.447-3.954,9.95-9H19.05z"/>
	</g>
	<path style="fill:#F9A671;" d="M23,30c-0.256,0-0.512-0.098-0.707-0.293c-1.949-1.949-5.122-1.949-7.071,0
		c-0.391,0.391-1.023,0.391-1.414,0s-0.391-1.023,0-1.414c2.729-2.729,7.17-2.729,9.899,0c0.391,0.391,0.391,1.023,0,1.414
		C23.512,29.902,23.256,30,23,30z"/>
</g>
<g>
</g>
<g>
</g>
<g>
</g>
<g>
</g>
<g>
</g>
<g>
</g>
<g>
</g>
<g>
</g>
<g>
</g>
<g>
</g>
<g>
</g>
<g>
</g>
<g>
</g>
<g>
</g>
<g>
</g>
</svg>
