<?xml version="1.0" encoding="iso-8859-1"?>
<!-- Generator: Adobe Illustrator 18.0.0, SVG Export Plug-In . SVG Version: 6.00 Build 0)  -->
<!DOCTYPE svg PUBLIC "-//W3C//DTD SVG 1.1//EN" "http://www.w3.org/Graphics/SVG/1.1/DTD/svg11.dtd">
<svg version="1.1" id="Capa_1" xmlns="http://www.w3.org/2000/svg" xmlns:xlink="http://www.w3.org/1999/xlink" x="0px" y="0px"
	 viewBox="0 0 42 42" style="enable-background:new 0 0 42 42;" xml:space="preserve">
<g>
	<path style="fill:#FBD971;" d="M29.993,39.277l-5.516-5.516c0.879-0.357,1.698-0.826,2.458-1.373l3.007-3.007
		c0.414-0.565,0.781-1.165,1.059-1.824l5.357,5.357c0.395,0.395,0.688,0.854,0.882,1.345C40.198,30.64,42,26.039,42,21
		C42,9.402,32.598,0,21,0S0,9.402,0,21c0,11.598,9.402,21,21,21c3.429,0,6.654-0.84,9.512-2.3
		C30.331,39.572,30.154,39.438,29.993,39.277z"/>
	<circle style="fill:#AF8066;" cx="13.5" cy="13.5" r="3.5"/>
	<circle style="fill:#AF8066;" cx="29.5" cy="13.5" r="3.5"/>
	<g>
		<path style="fill:#FB7B76;" d="M28.368,31.188c-1.102,1.102-2.424,1.978-3.891,2.573l5.516,5.516c1.556,1.556,4.101,1.556,5.657,0
			l0.707-0.707c1.556-1.556,1.556-4.101,0-5.657L31,27.556C30.406,28.965,29.433,30.122,28.368,31.188z"/>
	</g>
	<path style="fill:#E64C3C;" d="M30.655,31.882c-0.669-0.505-1.277-0.933-1.821-1.186c-0.155,0.165-0.307,0.332-0.467,0.492
		c-0.371,0.371-0.776,0.706-1.194,1.024c0.221,0.216,0.518,0.311,0.802,0.282c0.737,0.341,2.993,2.103,4.139,3.248
		c0.195,0.195,0.451,0.293,0.707,0.293s0.512-0.098,0.707-0.293c0.391-0.391,0.391-1.024,0-1.414
		C32.862,33.661,31.68,32.655,30.655,31.882z"/>
	<path style="fill:#F0C419;" d="M21,35c-6.617,0-12-5.383-12-12c0-0.552,0.448-1,1-1s1,0.448,1,1c0,5.514,4.486,10,10,10
		s10-4.486,10-10c0-0.552,0.448-1,1-1s1,0.448,1,1C33,29.617,27.617,35,21,35z"/>
</g>
<g>
</g>
<g>
</g>
<g>
</g>
<g>
</g>
<g>
</g>
<g>
</g>
<g>
</g>
<g>
</g>
<g>
</g>
<g>
</g>
<g>
</g>
<g>
</g>
<g>
</g>
<g>
</g>
<g>
</g>
</svg>
