<?xml version="1.0" encoding="iso-8859-1"?>
<!-- Generator: Adobe Illustrator 18.0.0, SVG Export Plug-In . SVG Version: 6.00 Build 0)  -->
<!DOCTYPE svg PUBLIC "-//W3C//DTD SVG 1.1//EN" "http://www.w3.org/Graphics/SVG/1.1/DTD/svg11.dtd">
<svg version="1.1" id="Capa_1" xmlns="http://www.w3.org/2000/svg" xmlns:xlink="http://www.w3.org/1999/xlink" x="0px" y="0px"
	 viewBox="0 0 58 58" style="enable-background:new 0 0 58 58;" xml:space="preserve">
<g>
	<path style="fill:#6E5847;" d="M29,0C14.975,0,3.5,11.475,3.5,25.5V50c0,2.2,1.8,4,4,4h6.777c4.16,2.021,9.237,3,14.723,3
		c3.564,0,6.949-0.421,10.028-1.264l-4.419-4.419c1.467-0.595,2.789-1.472,3.891-2.573c1.065-1.066,2.039-2.223,2.632-3.631
		l5.357,5.357c0.956,0.956,1.319,2.286,1.1,3.531H50.5c2.2,0,4-1.8,4-4V25.5C54.5,11.475,43.025,0,29,0z"/>
	<path style="fill:#FDC794;" d="M29.5,11h-1C17.26,11.55,7.407,19.401,4.426,29.901l-0.057-0.007
		c-0.335,1.251-0.566,2.544-0.708,3.863c-0.02,0.179-0.037,0.359-0.054,0.539c-0.021,0.245-0.044,0.49-0.058,0.738
		C3.519,35.518,3.5,36.007,3.5,36.5C3.5,50.583,14.917,57,29,57c3.564,0,6.956-0.413,10.037-1.255l-4.428-4.428
		c1.467-0.595,2.789-1.472,3.891-2.573c1.065-1.066,2.039-2.223,2.632-3.631l5.357,5.357c0.386,0.386,0.674,0.833,0.869,1.31
		C51.777,48.413,54.5,43.371,54.5,36.5C54.5,22.842,42.995,11.661,29.5,11z"/>
	<g>
		<path style="fill:#FB7B76;" d="M38.5,48.744c-1.102,1.102-2.424,1.978-3.891,2.573l5.516,5.516c1.556,1.556,4.101,1.556,5.657,0
			l0.707-0.707c1.556-1.556,1.556-4.101,0-5.657l-5.357-5.357C40.539,46.522,39.565,47.679,38.5,48.744z"/>
	</g>
	<path style="fill:#E64C3C;" d="M42.954,53.591c-0.256,0-0.512-0.098-0.707-0.293l-0.111-0.111
		c-1.813-1.814-2.986-2.885-3.491-3.188c-0.271,0.025-0.539-0.088-0.743-0.292c-0.39-0.392-0.39-1.024,0.001-1.415
		c0.951-0.95,2.059-0.112,5.648,3.481l0.11,0.11c0.391,0.391,0.391,1.023,0,1.414C43.465,53.493,43.209,53.591,42.954,53.591z
		 M39.312,49.711C39.312,49.711,39.312,49.711,39.312,49.711C39.312,49.711,39.312,49.711,39.312,49.711z M39.315,49.708
		c0,0-0.001,0.001-0.002,0.001C39.314,49.709,39.315,49.708,39.315,49.708z"/>
	<path style="fill:#F9A671;" d="M30.609,53c-6.617,0-12-5.383-12-12c0-0.553,0.448-1,1-1s1,0.447,1,1c0,5.514,4.486,10,10,10
		s10-4.486,10-10c0-0.553,0.448-1,1-1s1,0.447,1,1C42.609,47.617,37.226,53,30.609,53z"/>
	<path style="fill:#FFFFFF;" d="M36.109,20c-1.791,0-3.451,0.489-4.821,1.324c-1.343,0.819-3.015,0.819-4.358,0
		C25.56,20.489,23.9,20,22.109,20c-4.694,0-8.5,3.358-8.5,7.5s3.806,7.5,8.5,7.5c1.791,0,3.451-0.489,4.821-1.324
		c1.343-0.819,3.015-0.819,4.358,0C32.658,34.511,34.318,35,36.109,35c4.694,0,8.5-3.358,8.5-7.5S40.803,20,36.109,20z"/>
	<circle style="fill:#6E5847;" cx="23.609" cy="29" r="2"/>
	<circle style="fill:#6E5847;" cx="35.609" cy="28" r="3"/>
</g>
<g>
</g>
<g>
</g>
<g>
</g>
<g>
</g>
<g>
</g>
<g>
</g>
<g>
</g>
<g>
</g>
<g>
</g>
<g>
</g>
<g>
</g>
<g>
</g>
<g>
</g>
<g>
</g>
<g>
</g>
</svg>
