<?xml version="1.0" encoding="iso-8859-1"?>
<!-- Generator: Adobe Illustrator 18.0.0, SVG Export Plug-In . SVG Version: 6.00 Build 0)  -->
<!DOCTYPE svg PUBLIC "-//W3C//DTD SVG 1.1//EN" "http://www.w3.org/Graphics/SVG/1.1/DTD/svg11.dtd">
<svg version="1.1" id="Capa_1" xmlns="http://www.w3.org/2000/svg" xmlns:xlink="http://www.w3.org/1999/xlink" x="0px" y="0px"
	 viewBox="0 0 42 42" style="enable-background:new 0 0 42 42;" xml:space="preserve">
<g>
	<circle style="fill:#FBD971;" cx="21" cy="21" r="21"/>
	<path style="fill:#F29C1F;" d="M28.777,29.778c-0.512,0-0.947-0.391-0.995-0.909l-0.707-7.778
		c-0.026-0.296,0.079-0.588,0.289-0.798s0.506-0.316,0.798-0.289l7.778,0.707c0.55,0.05,0.955,0.536,0.905,1.087
		c-0.051,0.549-0.522,0.954-1.087,0.905l-6.583-0.599l0.599,6.583c0.05,0.551-0.355,1.037-0.905,1.087
		C28.838,29.777,28.808,29.778,28.777,29.778z"/>
	<path style="fill:#F29C1F;" d="M21.707,15.636c-0.03,0-0.061-0.001-0.091-0.004l-7.778-0.707c-0.55-0.05-0.955-0.536-0.905-1.087
		c0.051-0.549,0.53-0.955,1.087-0.905l6.583,0.599l-0.599-6.583c-0.05-0.551,0.355-1.037,0.905-1.087
		c0.563-0.049,1.036,0.356,1.087,0.905l0.707,7.778c0.026,0.296-0.079,0.588-0.289,0.798C22.226,15.531,21.971,15.636,21.707,15.636
		z"/>
	<g>
		<path style="fill:#FFFFFF;" d="M24.485,33.828L8.929,18.272c-4.296,4.296-4.296,11.261,0,15.556S20.19,38.124,24.485,33.828z"/>
		<path style="fill:#ECF0F1;" d="M20.243,35.243l-1.414-1.414L21.657,31c0.39-0.39,0.391-1.023,0-1.414s-1.024-0.39-1.414,0
			l-2.828,2.828L16,31l2.828-2.828c0.39-0.39,0.391-1.023,0-1.414c-0.391-0.391-1.024-0.39-1.414,0l-2.828,2.828l-1.414-1.414
			L16,25.343c0.39-0.39,0.391-1.023,0-1.414c-0.391-0.391-1.024-0.39-1.414,0l-2.828,2.828l-1.414-1.414l2.828-2.828
			c0.39-0.39,0.391-1.023,0-1.414c-0.391-0.391-1.024-0.39-1.414,0l-2.828,2.828l-1.414-1.414c-0.391-0.391-1.024-0.39-1.414,0
			c-0.39,0.39-0.391,1.023,0,1.414l1.414,1.414l-2.121,2.121c-0.39,0.39-0.391,1.023,0,1.414c0.391,0.391,1.024,0.39,1.414,0
			l2.121-2.121l1.414,1.414L7.515,31c-0.39,0.39-0.391,1.023,0,1.414c0.391,0.391,1.024,0.39,1.414,0l2.828-2.828L13.172,31
			l-2.828,2.828c-0.39,0.39-0.391,1.023,0,1.414s1.024,0.39,1.414,0l2.828-2.828L16,33.828l-2.121,2.121
			c-0.39,0.39-0.391,1.023,0,1.414s1.024,0.39,1.414,0l2.121-2.121l1.414,1.414c0.391,0.391,1.024,0.39,1.414,0
			C20.633,36.266,20.633,35.633,20.243,35.243z"/>
		<path style="fill:#F0C419;" d="M8.222,34.536c-4.679-4.679-4.679-12.292,0-16.971c0.39-0.39,1.023-0.391,1.414,0l15.556,15.556
			c0.391,0.391,0.39,1.024,0,1.414C20.514,39.214,12.901,39.215,8.222,34.536z M8.964,19.722c-3.212,3.924-2.989,9.739,0.672,13.4
			c3.661,3.661,9.476,3.884,13.4,0.672L8.964,19.722z"/>
	</g>
</g>
<g>
</g>
<g>
</g>
<g>
</g>
<g>
</g>
<g>
</g>
<g>
</g>
<g>
</g>
<g>
</g>
<g>
</g>
<g>
</g>
<g>
</g>
<g>
</g>
<g>
</g>
<g>
</g>
<g>
</g>
</svg>
