<?xml version="1.0" encoding="iso-8859-1"?>
<!-- Generator: Adobe Illustrator 18.0.0, SVG Export Plug-In . SVG Version: 6.00 Build 0)  -->
<!DOCTYPE svg PUBLIC "-//W3C//DTD SVG 1.1//EN" "http://www.w3.org/Graphics/SVG/1.1/DTD/svg11.dtd">
<svg version="1.1" id="Capa_1" xmlns="http://www.w3.org/2000/svg" xmlns:xlink="http://www.w3.org/1999/xlink" x="0px" y="0px"
	 viewBox="0 0 42 42" style="enable-background:new 0 0 42 42;" xml:space="preserve">
<g>
	<path style="fill:#FBD971;" d="M29.516,38.834L24,33.317c0.464-0.188,0.906-0.414,1.339-0.656l4.494-4.494
		c0.211-0.378,0.521-0.744,0.69-1.146l5.357,5.449c0.591,0.591,0.955,1.325,1.097,2.093C40.091,30.901,42,26.184,42,21
		C42,9.402,32.598,0,21,0S0,9.402,0,21c0,11.598,9.402,21,21,21c3.495,0,6.786-0.861,9.685-2.372
		C30.262,39.436,29.862,39.18,29.516,38.834z"/>
	<circle style="fill:#FFFFFF;" cx="12" cy="15" r="6"/>
	<circle style="fill:#FFFFFF;" cx="30" cy="15" r="6"/>
	<g>
		<path style="fill:#FB7B76;" d="M27.891,30.744c-1.102,1.102-2.424,1.978-3.891,2.573l5.516,5.516c1.556,1.556,4.101,1.556,5.657,0
			l0.707-0.707c1.556-1.556,1.556-4.101,0-5.657l-5.357-5.357C29.93,28.522,28.956,29.679,27.891,30.744z"/>
	</g>
	<circle style="fill:#AF8066;" cx="12" cy="15" r="3"/>
	<circle style="fill:#AF8066;" cx="30" cy="15" r="3"/>
	<path style="fill:#E64C3C;" d="M30.179,31.438c-0.669-0.505-1.277-0.932-1.822-1.185c-0.155,0.164-0.306,0.331-0.466,0.491
		c-0.371,0.371-0.775,0.706-1.194,1.024c0.221,0.216,0.518,0.305,0.801,0.282c0.737,0.341,2.994,2.102,4.139,3.247
		c0.195,0.195,0.451,0.293,0.707,0.293s0.512-0.098,0.707-0.293c0.391-0.391,0.391-1.023,0-1.414
		C32.386,33.218,31.205,32.212,30.179,31.438z"/>
	<path style="fill:#F0C419;" d="M18.387,34.993c-1.981,0-3.953-0.38-5.771-1.138c-0.51-0.212-0.751-0.798-0.538-1.308
		c0.212-0.509,0.797-0.751,1.308-0.538c3.052,1.271,6.606,1.313,9.753,0.116c3.217-1.224,5.682-3.561,6.939-6.578
		c0.211-0.509,0.796-0.753,1.308-0.538c0.51,0.212,0.75,0.798,0.538,1.308c-1.47,3.529-4.338,6.257-8.073,7.678
		C22.1,34.661,20.239,34.993,18.387,34.993z"/>
</g>
<g>
</g>
<g>
</g>
<g>
</g>
<g>
</g>
<g>
</g>
<g>
</g>
<g>
</g>
<g>
</g>
<g>
</g>
<g>
</g>
<g>
</g>
<g>
</g>
<g>
</g>
<g>
</g>
<g>
</g>
</svg>
