<?xml version="1.0" encoding="iso-8859-1"?>
<!-- Generator: Adobe Illustrator 18.0.0, SVG Export Plug-In . SVG Version: 6.00 Build 0)  -->
<!DOCTYPE svg PUBLIC "-//W3C//DTD SVG 1.1//EN" "http://www.w3.org/Graphics/SVG/1.1/DTD/svg11.dtd">
<svg version="1.1" id="Capa_1" xmlns="http://www.w3.org/2000/svg" xmlns:xlink="http://www.w3.org/1999/xlink" x="0px" y="0px"
	 viewBox="0 0 57 57" style="enable-background:new 0 0 57 57;" xml:space="preserve">
<g>
	<path style="fill:#6E5847;" d="M44,54c-0.064,0.063,6,0,6,0c2.2,0,4-1.8,4-4V25.5C54,11.475,42.525,0,28.5,0S3,11.475,3,25.5V50
		c0,2.2,1.8,4,4,4h6.777c4.16,2.021,9.237,3,14.723,3c4.519,0,8.751-0.676,12.43-2.04"/>
	<path style="fill:#FDC794;" d="M53.131,29.894C52.428,29.959,51.718,30,51,30c-11.099,0-20.503-7.958-23.767-18.968
		C13.738,11.693,3,22.842,3,36.5C3,50.583,14.417,57,28.5,57c4.529,0,8.778-0.668,12.465-2.036c-0.895-0.085-1.767-0.449-2.448-1.13
		L33,48.317c1.292-0.524,2.464-1.278,3.48-2.201c0,0,2.45-2.594,3.044-4.003l5.357,5.357C46.427,49.016,46.53,51.442,45,53
		c5.561-3.304,9-8.665,9-16.5C54,34.215,53.695,32.001,53.131,29.894z"/>
	<g>
		<path style="fill:#FB7B76;" d="M36.891,45.744c-1.102,1.102-2.424,1.978-3.891,2.573l5.516,5.516c1.556,1.556,4.101,1.556,5.657,0
			l0.707-0.707c1.556-1.556,1.556-4.101,0-5.657l-5.357-5.357C38.93,43.522,37.956,44.679,36.891,45.744z"/>
	</g>
	<path style="fill:#E64C3C;" d="M41.345,50.591c-0.256,0-0.512-0.098-0.707-0.293l-0.116-0.115
		c-1.811-1.813-2.982-2.882-3.486-3.184c-0.276,0.027-0.538-0.088-0.743-0.292c-0.391-0.391-0.391-1.023,0-1.414
		c0.912-0.913,2.162,0.2,3.167,1.095c0.878,0.781,1.84,1.744,2.477,2.381l0.115,0.115c0.391,0.391,0.391,1.023,0,1.414
		C41.856,50.493,41.601,50.591,41.345,50.591z M37.704,46.71L37.704,46.71L37.704,46.71z M37.707,46.707
		c0,0.001-0.001,0.001-0.002,0.002C37.706,46.708,37.707,46.708,37.707,46.707z"/>
	<path style="fill:#F9A671;" d="M29,50c-6.617,0-12-5.383-12-12c0-0.553,0.448-1,1-1s1,0.447,1,1c0,5.514,4.486,10,10,10
		s10-4.486,10-10c0-0.553,0.448-1,1-1s1,0.447,1,1C41,44.617,35.617,50,29,50z"/>
	<path style="fill:#F9A671;" d="M23,30c-0.256,0-0.512-0.098-0.707-0.293c-1.949-1.949-5.122-1.949-7.071,0
		c-0.391,0.391-1.023,0.391-1.414,0s-0.391-1.023,0-1.414c2.729-2.729,7.17-2.729,9.899,0c0.391,0.391,0.391,1.023,0,1.414
		C23.512,29.902,23.256,30,23,30z"/>
</g>
<g>
</g>
<g>
</g>
<g>
</g>
<g>
</g>
<g>
</g>
<g>
</g>
<g>
</g>
<g>
</g>
<g>
</g>
<g>
</g>
<g>
</g>
<g>
</g>
<g>
</g>
<g>
</g>
<g>
</g>
</svg>
