<?xml version="1.0" encoding="iso-8859-1"?>
<!-- Generator: Adobe Illustrator 18.0.0, SVG Export Plug-In . SVG Version: 6.00 Build 0)  -->
<!DOCTYPE svg PUBLIC "-//W3C//DTD SVG 1.1//EN" "http://www.w3.org/Graphics/SVG/1.1/DTD/svg11.dtd">
<svg version="1.1" id="Capa_1" xmlns="http://www.w3.org/2000/svg" xmlns:xlink="http://www.w3.org/1999/xlink" x="0px" y="0px"
	 viewBox="0 0 57.98 57.98" style="enable-background:new 0 0 57.98 57.98;" xml:space="preserve">
<g>
	<path style="fill:#FFDB2B;" d="M39.295,15.98c-10.833-1.667-15,4-15,4c-7.75-0.75-11-3-11-3c-1.676,1.948-3.594,2.956-5,3.474
		V32.98v17c0,2.2,1.8,4,4,4h34c2.2,0,4-1.8,4-4v-17v-15C42.212,22.73,39.295,15.98,39.295,15.98z"/>
	<g>
		<circle style="fill:#8697CB;" cx="38.514" cy="34.98" r="6"/>
		<path style="fill:#556080;" d="M38.514,41.98c-3.859,0-7-3.141-7-7s3.141-7,7-7s7,3.141,7,7S42.374,41.98,38.514,41.98z
			 M38.514,29.98c-2.757,0-5,2.243-5,5s2.243,5,5,5s5-2.243,5-5S41.271,29.98,38.514,29.98z"/>
	</g>
	<g>
		<circle style="fill:#8697CB;" cx="20.514" cy="34.98" r="6"/>
		<path style="fill:#556080;" d="M20.514,41.98c-3.859,0-7-3.141-7-7s3.141-7,7-7s7,3.141,7,7S24.374,41.98,20.514,41.98z
			 M20.514,29.98c-2.757,0-5,2.243-5,5s2.243,5,5,5s5-2.243,5-5S23.271,29.98,20.514,29.98z"/>
	</g>
	<path style="fill:#FEC722;" d="M40.99,57.98H17.601c-0.721,0-1.305-0.584-1.305-1.305V53.98h26v2.695
		C42.295,57.395,41.711,57.98,40.99,57.98z"/>
	<path style="fill:#5E5F62;" d="M54.295,17.98c-0.62-4.487-2.586-7.48-4.471-9.034c-0.916-0.755-1.439-1.852-1.735-3.001
		c-0.799-3.102-3.738-4.757-6.794-4.965c-1.947-0.133-3.646,0.484-5.589,1.261c-0.611,0.244-1.352-0.01-1.584-0.626
		c-1.194-3.171-8.034-1.545-13.249,3.75c-0.25,0.254-0.684,0.125-0.734-0.228c-0.173-1.23-0.263-3.448,1.155-4.157
		c0,0-4.407-2.479-8.186,0.826c-1.152,1.008-1.905,2.394-2.289,3.875c-0.092,0.355-0.186,0.734-0.269,1.107
		c-0.232,1.033-1.557,1.385-2.238,0.573C8.3,7.345,8.286,7.328,8.273,7.311C7.635,6.533,6.412,6.654,6.014,7.578
		C3.893,12.5,0.604,23.537,8.295,32.98V20.454c1.406-0.518,3.324-1.526,5-3.474c0,0,3.25,2.25,11,3c0,0,4.167-5.667,15-4
		c0,0,2.917,6.75,11,2v15C50.295,32.98,55.648,27.765,54.295,17.98z"/>
	<path style="fill:#556080;" d="M26.506,36.522c-0.552,0-0.991-0.489-0.991-1.042c0-1.448,1.683-2.5,4-2.5s4,1.052,4,2.5
		c0,0.553-0.447,1-1,1s-1-0.447-1-1c-0.079-0.088-0.796-0.5-2-0.5s-1.921,0.412-2.017,0.583
		C27.498,36.116,27.058,36.522,26.506,36.522z"/>
	<path style="fill:#F18D46;" d="M34.514,27.98c-0.209,0-0.419-0.065-0.599-0.2c-0.442-0.331-0.532-0.958-0.2-1.399l1.8-2.4h-3
		c-0.379,0-0.725-0.214-0.895-0.553c-0.169-0.339-0.133-0.744,0.095-1.047l3-4c0.331-0.442,0.958-0.531,1.399-0.2
		c0.442,0.331,0.532,0.958,0.2,1.399l-1.8,2.4h3c0.379,0,0.725,0.214,0.895,0.553c0.169,0.339,0.133,0.744-0.095,1.047l-3,4
		C35.118,27.842,34.818,27.98,34.514,27.98z"/>
	<path style="fill:#F18D46;" d="M36.514,47.98h-14c-0.553,0-1-0.447-1-1s0.447-1,1-1h14c0.553,0,1,0.447,1,1
		S37.067,47.98,36.514,47.98z"/>
</g>
<g>
</g>
<g>
</g>
<g>
</g>
<g>
</g>
<g>
</g>
<g>
</g>
<g>
</g>
<g>
</g>
<g>
</g>
<g>
</g>
<g>
</g>
<g>
</g>
<g>
</g>
<g>
</g>
<g>
</g>
</svg>
