<?xml version="1.0" encoding="iso-8859-1"?>
<!-- Generator: Adobe Illustrator 18.0.0, SVG Export Plug-In . SVG Version: 6.00 Build 0)  -->
<!DOCTYPE svg PUBLIC "-//W3C//DTD SVG 1.1//EN" "http://www.w3.org/Graphics/SVG/1.1/DTD/svg11.dtd">
<svg version="1.1" id="Capa_1" xmlns="http://www.w3.org/2000/svg" xmlns:xlink="http://www.w3.org/1999/xlink" x="0px" y="0px"
	 viewBox="0 0 58 58" style="enable-background:new 0 0 58 58;" xml:space="preserve">
<g>
	<path style="fill:#FFDB2B;" d="M7.75,20v30c0,2.2,1.8,4,4,4h34c2.2,0,4-1.8,4-4V20H7.75z"/>
	<g>
		<g>
			<path style="fill:#D0E8F9;" d="M7.75,25.403c0,3.102,0.235,11.888,6,12.472c13.875,1.404,15-9.37,15-12.472
				C22.244,21.922,14.256,21.922,7.75,25.403z"/>
			<path style="fill:#35495E;" d="M16.138,39c-0.798,0-1.627-0.044-2.488-0.131c-3.147-0.318-6.899-2.913-6.899-13.467v-0.6
				l0.528-0.282c6.768-3.621,15.176-3.621,21.943,0l0.528,0.282v0.6c0,2.002-0.406,7.027-4.17,10.429
				C23.249,37.938,20.08,39,16.138,39z M8.755,26.009c0.071,4.87,1.05,10.461,5.096,10.87c4.525,0.458,8.023-0.394,10.389-2.531
				c2.877-2.601,3.41-6.528,3.496-8.344C21.826,23.067,14.662,23.07,8.755,26.009z"/>
		</g>
		<g>
			<path style="fill:#D0E8F9;" d="M28.75,25.403c0,3.102,1.125,13.876,15,12.472c5.765-0.584,6-9.37,6-12.472
				C43.244,21.922,35.256,21.922,28.75,25.403z"/>
			<path style="fill:#35495E;" d="M41.362,39c-3.942,0-7.111-1.063-9.442-3.169c-3.764-3.401-4.17-8.427-4.17-10.429v-0.6
				l0.528-0.282c6.768-3.621,15.176-3.621,21.943,0l0.528,0.282v0.6c0,10.554-3.752,13.148-6.899,13.467
				C42.99,38.956,42.16,39,41.362,39z M29.765,26.004c0.086,1.815,0.619,5.743,3.496,8.344c2.366,2.138,5.858,2.988,10.389,2.531
				c4.046-0.409,5.024-6,5.096-10.87C42.838,23.068,35.674,23.066,29.765,26.004z"/>
		</g>
	</g>
	<path style="fill:#7F8C8D;" d="M53.25,20H4.75c-1.925,0-3.5-1.575-3.5-3.5v0c0-1.925,1.575-3.5,3.5-3.5h48.5
		c1.925,0,3.5,1.575,3.5,3.5v0C56.75,18.425,55.175,20,53.25,20z"/>
	<path style="fill:#BDC3C7;" d="M48.25,13h-39l2.339-5.371c0.027-0.198,0.9-2.275,0.947-2.465c0.76-3.095,4.211-5.825,7.21-4.745
		l7.532,2.712c1.171,0.422,2.451,0.439,3.633,0.048l6.617-2.887c2.156-0.712,4.615-0.114,5.995,1.688
		c0.575,0.751,2.253,4.654,2.388,5.649L48.25,13z"/>
	<circle style="fill:#556080;" cx="18.235" cy="31" r="2"/>
	<circle style="fill:#556080;" cx="39.235" cy="31" r="2"/>
	<path style="fill:#FEC722;" d="M40.445,58H17.055c-0.721,0-1.305-0.584-1.305-1.305V54h26v2.695C41.75,57.416,41.166,58,40.445,58z
		"/>
	<path style="fill:#556080;" d="M35.75,40h-14c-2.2,0-4,1.8-4,4v10h22V44C39.75,41.8,37.95,40,35.75,40z"/>
	<path style="fill:#35495E;" d="M21.235,30c-0.256,0-0.512-0.098-0.707-0.293c-1.95-1.949-5.123-1.949-7.071,0
		c-0.391,0.391-1.023,0.391-1.414,0s-0.391-1.023,0-1.414c2.728-2.728,7.17-2.729,9.899,0c0.391,0.391,0.391,1.023,0,1.414
		C21.747,29.902,21.491,30,21.235,30z"/>
	<path style="fill:#35495E;" d="M45.235,30c-0.256,0-0.512-0.098-0.707-0.293c-1.95-1.949-5.123-1.949-7.071,0
		c-0.391,0.391-1.023,0.391-1.414,0s-0.391-1.023,0-1.414c2.729-2.728,7.171-2.729,9.899,0c0.391,0.391,0.391,1.023,0,1.414
		C45.747,29.902,45.491,30,45.235,30z"/>
	<path style="fill:#FFDB2B;" d="M29.75,49h2v2h0.927c1.697,0,3.073-1.376,3.073-3.073V47.5c0-2.485-2.015-4.5-4.5-4.5h-1.5h-2h-1.5
		c-2.485,0-4.5,2.015-4.5,4.5v0.427c0,1.697,1.376,3.073,3.073,3.073h0.927v-2h2H29.75z"/>
	<path style="fill:#E57E25;" d="M30.75,47h-4c-0.553,0-1-0.447-1-1s0.447-1,1-1h4c0.553,0,1,0.447,1,1S31.303,47,30.75,47z"/>
	<path style="fill:#FEC722;" d="M43.75,45v3c0,0.553,0.447,1,1,1s1-0.447,1-1v-3c0-2.206,1.794-4,4-4v-2
		C46.441,39,43.75,41.691,43.75,45z"/>
	<path style="fill:#FEC722;" d="M11.75,45v3c0,0.553,0.447,1,1,1s1-0.447,1-1v-3c0-3.309-2.691-6-6-6v2
		C9.956,41,11.75,42.794,11.75,45z"/>
</g>
<g>
</g>
<g>
</g>
<g>
</g>
<g>
</g>
<g>
</g>
<g>
</g>
<g>
</g>
<g>
</g>
<g>
</g>
<g>
</g>
<g>
</g>
<g>
</g>
<g>
</g>
<g>
</g>
<g>
</g>
</svg>
