<?xml version="1.0" encoding="iso-8859-1"?>
<!-- Generator: Adobe Illustrator 18.0.0, SVG Export Plug-In . SVG Version: 6.00 Build 0)  -->
<!DOCTYPE svg PUBLIC "-//W3C//DTD SVG 1.1//EN" "http://www.w3.org/Graphics/SVG/1.1/DTD/svg11.dtd">
<svg version="1.1" id="Capa_1" xmlns="http://www.w3.org/2000/svg" xmlns:xlink="http://www.w3.org/1999/xlink" x="0px" y="0px"
	 viewBox="0 0 57 57" style="enable-background:new 0 0 57 57;" xml:space="preserve">
<g>
	<path style="fill:#FFDB2B;" d="M28.173,19.744c-11.348,0-19.746,0.571-20.745,1.256c-0.007,0.085-0.032,28-0.032,28
		c0,2.2,1.8,4,4,4h34c2.2,0,4-1.8,4-4c0,0,0.043-27.88,0.032-28C48.046,20.333,39.296,19.744,28.173,19.744z"/>
	<g>
		<path style="fill:#556080;" d="M43.408,46.71c0.19-0.19,0.3-0.45,0.3-0.71s-0.11-0.521-0.3-0.71c-0.37-0.37-1.04-0.37-1.41,0
			c-0.19,0.189-0.29,0.45-0.29,0.71c0,0.27,0.1,0.52,0.29,0.71c0.18,0.18,0.44,0.29,0.71,0.29C42.968,47,43.228,46.89,43.408,46.71z
			"/>
		<path style="fill:#556080;" d="M42.708,44c0.26,0,0.52-0.11,0.7-0.29c0.19-0.19,0.3-0.45,0.3-0.71s-0.11-0.521-0.3-0.71
			c-0.37-0.37-1.04-0.37-1.41,0c-0.19,0.189-0.29,0.439-0.29,0.71c0,0.27,0.1,0.52,0.29,0.71C42.178,43.89,42.438,44,42.708,44z"/>
		<path style="fill:#556080;" d="M45.708,44c0.26,0,0.52-0.11,0.71-0.3c0.18-0.181,0.29-0.44,0.29-0.7s-0.11-0.521-0.29-0.71
			c-0.37-0.37-1.06-0.36-1.42,0c-0.19,0.189-0.29,0.45-0.29,0.71s0.1,0.52,0.29,0.7C45.178,43.89,45.438,44,45.708,44z"/>
		<path style="fill:#556080;" d="M44.998,45.29c-0.19,0.189-0.29,0.45-0.29,0.71c0,0.27,0.1,0.52,0.29,0.71
			c0.18,0.18,0.44,0.29,0.71,0.29c0.26,0,0.52-0.11,0.7-0.29c0.19-0.19,0.3-0.45,0.3-0.71s-0.11-0.521-0.3-0.71
			C46.038,44.92,45.368,44.92,44.998,45.29z"/>
		<path style="fill:#556080;" d="M42.998,48.29c-0.19,0.189-0.29,0.45-0.29,0.71s0.1,0.52,0.29,0.71c0.19,0.18,0.44,0.29,0.71,0.29
			c0.26,0,0.52-0.11,0.71-0.29c0.18-0.19,0.29-0.45,0.29-0.71s-0.11-0.521-0.29-0.71C44.047,47.92,43.368,47.92,42.998,48.29z"/>
		<path style="fill:#556080;" d="M39.998,48.29c-0.19,0.189-0.29,0.439-0.29,0.71c0,0.26,0.1,0.52,0.29,0.71
			c0.19,0.18,0.44,0.29,0.71,0.29c0.26,0,0.52-0.101,0.7-0.29c0.19-0.19,0.3-0.45,0.3-0.71s-0.11-0.521-0.3-0.71
			C41.038,47.92,40.368,47.92,39.998,48.29z"/>
		<path style="fill:#556080;" d="M40.408,46.71c0.19-0.19,0.3-0.45,0.3-0.71s-0.11-0.521-0.3-0.71c-0.37-0.37-1.04-0.37-1.41,0
			c-0.19,0.189-0.29,0.45-0.29,0.71c0,0.27,0.1,0.52,0.29,0.71c0.18,0.18,0.44,0.29,0.71,0.29C39.968,47,40.228,46.89,40.408,46.71z
			"/>
		<path style="fill:#556080;" d="M36.998,48.29c-0.19,0.189-0.29,0.45-0.29,0.71s0.1,0.52,0.29,0.71c0.18,0.18,0.44,0.29,0.71,0.29
			c0.26,0,0.52-0.11,0.7-0.29c0.19-0.19,0.3-0.45,0.3-0.71s-0.11-0.521-0.29-0.71C38.047,47.92,37.357,47.92,36.998,48.29z"/>
		<path style="fill:#556080;" d="M33.998,48.29c-0.19,0.189-0.29,0.45-0.29,0.71s0.1,0.52,0.29,0.71c0.19,0.18,0.44,0.29,0.71,0.29
			c0.26,0,0.52-0.11,0.71-0.29c0.18-0.19,0.29-0.45,0.29-0.71s-0.11-0.521-0.29-0.71C35.047,47.92,34.368,47.92,33.998,48.29z"/>
		<path style="fill:#556080;" d="M30.998,48.29c-0.19,0.189-0.29,0.45-0.29,0.71s0.1,0.52,0.29,0.71c0.19,0.18,0.44,0.29,0.71,0.29
			c0.26,0,0.52-0.11,0.7-0.29c0.19-0.19,0.3-0.45,0.3-0.71s-0.11-0.521-0.3-0.71C32.038,47.92,31.368,47.92,30.998,48.29z"/>
		<path style="fill:#556080;" d="M14.408,45.29c-0.37-0.37-1.04-0.37-1.41,0c-0.19,0.189-0.29,0.45-0.29,0.71s0.1,0.52,0.29,0.71
			c0.18,0.18,0.44,0.29,0.71,0.29c0.26,0,0.52-0.11,0.7-0.29c0.19-0.19,0.3-0.45,0.3-0.71S14.598,45.479,14.408,45.29z"/>
		<path style="fill:#556080;" d="M13.708,44c0.26,0,0.52-0.11,0.7-0.29c0.19-0.19,0.3-0.45,0.3-0.71s-0.11-0.521-0.3-0.71
			c-0.36-0.37-1.05-0.37-1.41,0c-0.19,0.189-0.29,0.45-0.29,0.71s0.1,0.52,0.29,0.7C13.178,43.89,13.438,44,13.708,44z"/>
		<path style="fill:#556080;" d="M10.708,44c0.26,0,0.52-0.11,0.7-0.29c0.19-0.19,0.3-0.45,0.3-0.71s-0.11-0.521-0.3-0.71
			c-0.37-0.37-1.04-0.36-1.41,0c-0.19,0.189-0.29,0.439-0.29,0.71c0,0.26,0.1,0.52,0.29,0.71C10.178,43.89,10.438,44,10.708,44z"/>
		<path style="fill:#556080;" d="M11.408,45.29c-0.37-0.37-1.04-0.37-1.41,0c-0.19,0.189-0.29,0.45-0.29,0.71s0.1,0.52,0.29,0.71
			c0.18,0.18,0.44,0.29,0.71,0.29c0.26,0,0.52-0.11,0.7-0.29c0.19-0.19,0.3-0.45,0.3-0.71S11.598,45.479,11.408,45.29z"/>
		<path style="fill:#556080;" d="M11.998,48.29c-0.19,0.189-0.29,0.439-0.29,0.71c0,0.26,0.1,0.52,0.29,0.71
			c0.19,0.189,0.45,0.29,0.71,0.29c0.26,0,0.52-0.11,0.7-0.29c0.19-0.19,0.3-0.45,0.3-0.71s-0.11-0.521-0.3-0.71
			C13.038,47.92,12.368,47.92,11.998,48.29z"/>
		<path style="fill:#556080;" d="M14.998,48.29c-0.19,0.189-0.29,0.45-0.29,0.71s0.1,0.52,0.29,0.71c0.19,0.18,0.44,0.29,0.71,0.29
			c0.26,0,0.52-0.11,0.71-0.29c0.18-0.19,0.29-0.45,0.29-0.71s-0.11-0.521-0.29-0.71C16.047,47.92,15.368,47.92,14.998,48.29z"/>
		<path style="fill:#556080;" d="M17.408,45.29c-0.36-0.37-1.04-0.37-1.41,0c-0.19,0.189-0.29,0.45-0.29,0.71s0.1,0.52,0.29,0.71
			c0.18,0.18,0.44,0.29,0.71,0.29c0.26,0,0.52-0.11,0.7-0.29c0.19-0.19,0.3-0.45,0.3-0.71S17.598,45.479,17.408,45.29z"/>
		<path style="fill:#556080;" d="M17.998,48.29c-0.19,0.189-0.29,0.45-0.29,0.71s0.1,0.52,0.29,0.71c0.19,0.18,0.44,0.29,0.71,0.29
			c0.26,0,0.52-0.11,0.7-0.29c0.19-0.19,0.3-0.45,0.3-0.71s-0.11-0.521-0.3-0.71C19.038,47.92,18.368,47.92,17.998,48.29z"/>
		<path style="fill:#556080;" d="M21.998,48.29c-0.19,0.189-0.29,0.45-0.29,0.71s0.1,0.52,0.29,0.71c0.19,0.18,0.44,0.29,0.71,0.29
			c0.26,0,0.52-0.11,0.7-0.29c0.19-0.19,0.3-0.45,0.3-0.71s-0.11-0.521-0.3-0.71C23.038,47.92,22.368,47.92,21.998,48.29z"/>
		<path style="fill:#556080;" d="M24.998,48.29c-0.19,0.189-0.29,0.439-0.29,0.71c0,0.26,0.1,0.52,0.29,0.71
			c0.19,0.189,0.45,0.29,0.71,0.29c0.26,0,0.52-0.11,0.71-0.29c0.18-0.19,0.29-0.45,0.29-0.71c0-0.271-0.11-0.521-0.29-0.71
			C26.047,47.92,25.368,47.92,24.998,48.29z"/>
		<path style="fill:#556080;" d="M27.998,48.29c-0.19,0.189-0.29,0.45-0.29,0.71s0.1,0.52,0.29,0.71c0.18,0.18,0.44,0.29,0.71,0.29
			c0.26,0,0.52-0.11,0.7-0.29c0.19-0.19,0.3-0.45,0.3-0.71s-0.11-0.521-0.3-0.71C29.047,47.92,28.357,47.92,27.998,48.29z"/>
	</g>
	<path style="fill:#8697CB;" d="M28.428,25c0,5.523-5.2,10-10.723,10s-10-4.477-10-10H28.428"/>
	<path style="fill:#8697CB;" d="M48.705,25c0,5.523-4.477,10-10,10s-10-4.477-10-10H48.705"/>
	<g>
		<polygon style="fill:#FFFFFF;" points="34.705,45 21.705,45 21.705,45 34.705,39 		"/>
		<path style="fill:#F18D46;" d="M34.705,46h-13c-0.47,0-0.876-0.327-0.977-0.785c-0.101-0.459,0.131-0.926,0.558-1.123l13-6
			c0.309-0.143,0.671-0.118,0.958,0.065c0.287,0.185,0.461,0.502,0.461,0.843v6C35.705,45.553,35.257,46,34.705,46z M26.257,44
			h7.447v-3.438L26.257,44z"/>
	</g>
	<path style="fill:#E64C3C;" d="M35.241,12H20.974c-17.848,0-21.89,5.586-14.754,9.361L7.428,22
		c-1.542-0.816,7.617-1.572,20.68-1.572S50.97,21.184,49.428,22l0.893-0.282l0.674-0.357C58.131,17.586,53.089,12,35.241,12z"/>
	<g>
		<path style="fill:#C03A2B;" d="M21.072,12h14.267c4.806,0,8.602,0.407,11.457,1.073C43.984,7.697,38.357,0,31.899,0h-7.389
			C18.053,0,12.426,7.697,9.615,13.073C12.47,12.407,16.266,12,21.072,12z"/>
	</g>
	<path style="fill:#FEC722;" d="M40.122,57H16.733c-0.721,0-1.305-0.584-1.305-1.305V53h26v2.695C41.428,56.416,40.843,57,40.122,57
		z"/>
	<path style="fill:#90BAE1;" d="M11.705,29c-0.256,0-0.512-0.098-0.707-0.293c-0.391-0.391-0.391-1.023,0-1.414l3-3
		c0.391-0.391,1.023-0.391,1.414,0s0.391,1.023,0,1.414l-3,3C12.216,28.902,11.96,29,11.705,29z"/>
	<path style="fill:#90BAE1;" d="M15.705,31c-0.256,0-0.512-0.098-0.707-0.293c-0.391-0.391-0.391-1.023,0-1.414l5-5
		c0.391-0.391,1.023-0.391,1.414,0s0.391,1.023,0,1.414l-5,5C16.216,30.902,15.96,31,15.705,31z"/>
	<path style="fill:#90BAE1;" d="M32.705,29c-0.256,0-0.512-0.098-0.707-0.293c-0.391-0.391-0.391-1.023,0-1.414l3-3
		c0.391-0.391,1.023-0.391,1.414,0s0.391,1.023,0,1.414l-3,3C33.216,28.902,32.96,29,32.705,29z"/>
	<path style="fill:#90BAE1;" d="M36.705,31c-0.256,0-0.512-0.098-0.707-0.293c-0.391-0.391-0.391-1.023,0-1.414l5-5
		c0.391-0.391,1.023-0.391,1.414,0s0.391,1.023,0,1.414l-5,5C37.216,30.902,36.96,31,36.705,31z"/>
	<path style="fill:#556080;" d="M17.705,36c-6.065,0-11-4.935-11-11c0-0.553,0.448-1,1-1h20.723c0.552,0,1,0.447,1,1
		C29.428,30.859,23.95,36,17.705,36z M8.76,26c0.499,4.494,4.32,8,8.945,8c4.816,0,9.082-3.636,9.657-8H8.76z"/>
	<path style="fill:#556080;" d="M38.705,36c-6.065,0-11-4.935-11-11c0-0.553,0.448-1,1-1h20c0.552,0,1,0.447,1,1
		C49.705,31.065,44.77,36,38.705,36z M29.76,26c0.499,4.494,4.32,8,8.945,8s8.446-3.506,8.945-8H29.76z"/>
</g>
<g>
</g>
<g>
</g>
<g>
</g>
<g>
</g>
<g>
</g>
<g>
</g>
<g>
</g>
<g>
</g>
<g>
</g>
<g>
</g>
<g>
</g>
<g>
</g>
<g>
</g>
<g>
</g>
<g>
</g>
</svg>
