<?xml version="1.0" encoding="iso-8859-1"?>
<!-- Generator: Adobe Illustrator 18.0.0, SVG Export Plug-In . SVG Version: 6.00 Build 0)  -->
<!DOCTYPE svg PUBLIC "-//W3C//DTD SVG 1.1//EN" "http://www.w3.org/Graphics/SVG/1.1/DTD/svg11.dtd">
<svg version="1.1" id="Capa_1" xmlns="http://www.w3.org/2000/svg" xmlns:xlink="http://www.w3.org/1999/xlink" x="0px" y="0px"
	 viewBox="0 0 42 42" style="enable-background:new 0 0 42 42;" xml:space="preserve">
<g>
	<circle style="fill:#FBD971;" cx="21" cy="21" r="21"/>
	<path style="fill:#F0C419;" d="M21,36c-6.617,0-12-5.383-12-12c0-0.553,0.448-1,1-1s1,0.447,1,1c0,5.514,4.486,10,10,10
		s10-4.486,10-10c0-0.553,0.448-1,1-1s1,0.447,1,1C33,30.617,27.617,36,21,36z"/>
	<path style="fill:#E64C3C;" d="M12.545,10.702C12.983,9.7,13.982,9,15.146,9c1.567,0,2.695,1.294,2.837,2.837
		c0,0,0.077,0.383-0.092,1.072c-0.229,0.939-0.769,1.773-1.496,2.409l-3.85,3.317L8.76,15.319c-0.727-0.636-1.267-1.471-1.496-2.409
		c-0.169-0.689-0.092-1.072-0.092-1.072C7.314,10.294,8.442,9,10.009,9C11.172,9,12.107,9.7,12.545,10.702z"/>
	<path style="fill:#E64C3C;" d="M29.39,10.702C29.828,9.7,30.828,9,31.991,9c1.567,0,2.695,1.294,2.837,2.837
		c0,0,0.077,0.383-0.092,1.072c-0.229,0.939-0.769,1.773-1.496,2.409l-3.85,3.317l-3.785-3.317
		c-0.727-0.636-1.267-1.471-1.496-2.409c-0.169-0.689-0.092-1.072-0.092-1.072C24.159,10.294,25.288,9,26.854,9
		C28.018,9,28.952,9.7,29.39,10.702z"/>
</g>
<g>
</g>
<g>
</g>
<g>
</g>
<g>
</g>
<g>
</g>
<g>
</g>
<g>
</g>
<g>
</g>
<g>
</g>
<g>
</g>
<g>
</g>
<g>
</g>
<g>
</g>
<g>
</g>
<g>
</g>
</svg>
