<?xml version="1.0" encoding="iso-8859-1"?>
<!-- Generator: Adobe Illustrator 18.0.0, SVG Export Plug-In . SVG Version: 6.00 Build 0)  -->
<!DOCTYPE svg PUBLIC "-//W3C//DTD SVG 1.1//EN" "http://www.w3.org/Graphics/SVG/1.1/DTD/svg11.dtd">
<svg version="1.1" id="Capa_1" xmlns="http://www.w3.org/2000/svg" xmlns:xlink="http://www.w3.org/1999/xlink" x="0px" y="0px"
	 viewBox="0 0 47 47" style="enable-background:new 0 0 47 47;" xml:space="preserve">
<g>
	<path style="fill:#FFD581;" d="M44,19.662L44,19.662c-1.74-9.843-10.158-17-20.5-17S4.74,9.819,3,19.662l0,0
		c-1.663,0.661-3,2.602-3,4.5c0,1.978,1.284,3.639,3.058,4.242C5.21,37.715,13.536,44.662,23.5,44.662
		c9.965,0,18.29-6.948,20.442-16.258l0,0.001C45.716,27.801,47,26.14,47,24.162C47,22.264,45.663,20.323,44,19.662z"/>
	<path style="fill:#9D6019;" d="M44,19.662l0,0.001C42.26,9.821,33.684,2.338,23.342,2.338S4.74,9.819,3,19.662
		c0,0,16.906,4.33,28.242-4.726c0.555-0.444,1.362-0.34,1.758,0.25C35.049,18.238,38.828,21.942,44,19.662z"/>
	<path style="fill:#E64C3C;" d="M16.609,25.02c0.349-0.799,1.147-1.358,2.075-1.358c1.25,0,2.15,1.033,2.263,2.263
		c0,0,0.061,0.306-0.073,0.855c-0.183,0.749-0.613,1.414-1.194,1.922l-3.071,2.646l-3.019-2.646c-0.58-0.508-1.01-1.173-1.194-1.922
		c-0.134-0.55-0.073-0.855-0.073-0.855c0.113-1.231,1.013-2.263,2.263-2.263C15.514,23.662,16.26,24.221,16.609,25.02z"/>
	<path style="fill:#E64C3C;" d="M30.648,25.02c0.349-0.799,1.147-1.358,2.075-1.358c1.25,0,2.15,1.033,2.263,2.263
		c0,0,0.061,0.306-0.073,0.855c-0.183,0.749-0.613,1.414-1.194,1.922l-3.071,2.646l-3.019-2.646c-0.58-0.508-1.01-1.173-1.194-1.922
		c-0.134-0.55-0.073-0.855-0.073-0.855c0.113-1.231,1.013-2.263,2.263-2.263C29.553,23.662,30.299,24.221,30.648,25.02z"/>
	<path style="fill:#CB8252;" d="M22.975,42.174c-2.42,0-4.81-0.92-7.121-2.745c-0.434-0.343-0.507-0.972-0.165-1.405
		c0.342-0.433,0.971-0.506,1.404-0.165c2.32,1.832,4.686,2.581,7.031,2.229c4.392-0.662,7.369-4.917,7.398-4.96
		c0.313-0.455,0.935-0.572,1.391-0.256c0.455,0.313,0.569,0.936,0.256,1.391c-0.141,0.204-3.507,5.013-8.748,5.803
		C23.939,42.138,23.456,42.174,22.975,42.174z"/>
	<path style="fill:#CB8252;" d="M33.652,37.459c-0.208,0-0.419-0.065-0.599-0.2l-2.694-2.021c-0.442-0.331-0.531-0.958-0.2-1.399
		c0.331-0.442,0.958-0.53,1.4-0.2l2.694,2.021c0.442,0.331,0.531,0.958,0.2,1.399C34.256,37.322,33.956,37.459,33.652,37.459z"/>
	<path style="fill:#CB8252;" d="M14.796,40.153c-0.304,0-0.604-0.138-0.801-0.4c-0.332-0.441-0.242-1.068,0.2-1.399l2.694-2.021
		c0.444-0.331,1.069-0.242,1.4,0.2c0.332,0.441,0.242,1.068-0.2,1.399l-2.694,2.021C15.215,40.087,15.004,40.153,14.796,40.153z"/>
</g>
<g>
</g>
<g>
</g>
<g>
</g>
<g>
</g>
<g>
</g>
<g>
</g>
<g>
</g>
<g>
</g>
<g>
</g>
<g>
</g>
<g>
</g>
<g>
</g>
<g>
</g>
<g>
</g>
<g>
</g>
</svg>
