<?xml version="1.0" encoding="iso-8859-1"?>
<!-- Generator: Adobe Illustrator 18.0.0, SVG Export Plug-In . SVG Version: 6.00 Build 0)  -->
<!DOCTYPE svg PUBLIC "-//W3C//DTD SVG 1.1//EN" "http://www.w3.org/Graphics/SVG/1.1/DTD/svg11.dtd">
<svg version="1.1" id="Capa_1" xmlns="http://www.w3.org/2000/svg" xmlns:xlink="http://www.w3.org/1999/xlink" x="0px" y="0px"
	 viewBox="0 0 57 57" style="enable-background:new 0 0 57 57;" xml:space="preserve">
<g>
	<path style="fill:#6E5847;" d="M28.5,0C14.475,0,3,11.475,3,25.5V50c0,2.2,1.8,4,4,4h6.777c4.16,2.021,9.237,3,14.723,3
		s10.563-0.979,14.723-3H50c2.2,0,4-1.8,4-4V25.5C54,11.475,42.525,0,28.5,0z"/>
	<path style="fill:#FDC794;" d="M3.869,29.894C3.305,32.001,3,34.215,3,36.5C3,50.583,14.417,57,28.5,57S54,50.583,54,36.5
		C54,22.842,42.495,11.661,29,11h-1C14.505,11.661,3,22.842,3,36.5C3,50.583,14.417,57,28.5,57S54,50.583,54,36.5"/>
	<path style="fill:#E64C3C;" d="M18.694,26.016C19.212,24.829,20.396,24,21.774,24c1.856,0,3.192,1.533,3.36,3.36
		c0,0,0.091,0.454-0.109,1.27c-0.272,1.112-0.911,2.1-1.772,2.854l-4.56,3.928l-4.483-3.929c-0.861-0.754-1.5-1.742-1.772-2.854
		c-0.2-0.817-0.109-1.27-0.109-1.27c0.168-1.827,1.504-3.36,3.36-3.36C17.068,24,18.175,24.829,18.694,26.016z"/>
	<path style="fill:#E64C3C;" d="M39.539,26.016C40.057,24.829,41.242,24,42.619,24c1.856,0,3.192,1.533,3.36,3.36
		c0,0,0.091,0.454-0.109,1.27c-0.272,1.112-0.911,2.1-1.772,2.854l-4.56,3.928l-4.483-3.929c-0.861-0.754-1.5-1.742-1.772-2.854
		c-0.2-0.817-0.109-1.27-0.109-1.27c0.168-1.827,1.504-3.36,3.36-3.36C37.913,24,39.02,24.829,39.539,26.016z"/>
	<path style="fill:#F9A671;" d="M26.577,47.994c-1.514,0-3.021-0.29-4.41-0.869c-0.51-0.212-0.751-0.798-0.538-1.308
		s0.801-0.75,1.308-0.538c4.704,1.962,10.265-0.188,12.141-4.691c0.213-0.51,0.801-0.749,1.308-0.538
		c0.51,0.212,0.751,0.798,0.538,1.308c-1.126,2.702-3.318,4.789-6.175,5.875C29.412,47.741,27.991,47.994,26.577,47.994z"/>
	<path style="fill:#F9A671;" d="M37.999,43c-0.209,0-0.419-0.065-0.599-0.2l-4-3c-0.442-0.331-0.532-0.958-0.2-1.399
		c0.331-0.442,0.958-0.53,1.399-0.2l4,3c0.442,0.331,0.532,0.958,0.2,1.399C38.604,42.862,38.304,43,37.999,43z"/>
</g>
<g>
</g>
<g>
</g>
<g>
</g>
<g>
</g>
<g>
</g>
<g>
</g>
<g>
</g>
<g>
</g>
<g>
</g>
<g>
</g>
<g>
</g>
<g>
</g>
<g>
</g>
<g>
</g>
<g>
</g>
</svg>
