<?xml version="1.0" encoding="iso-8859-1"?>
<!-- Generator: Adobe Illustrator 18.0.0, SVG Export Plug-In . SVG Version: 6.00 Build 0)  -->
<!DOCTYPE svg PUBLIC "-//W3C//DTD SVG 1.1//EN" "http://www.w3.org/Graphics/SVG/1.1/DTD/svg11.dtd">
<svg version="1.1" id="Capa_1" xmlns="http://www.w3.org/2000/svg" xmlns:xlink="http://www.w3.org/1999/xlink" x="0px" y="0px"
	 viewBox="0 0 42 42" style="enable-background:new 0 0 42 42;" xml:space="preserve">
<g>
	<circle style="fill:#FBD971;" cx="21" cy="21" r="21"/>
	<path style="fill:#F0C419;" d="M19.387,32.993c-1.981,0-3.953-0.38-5.771-1.138c-0.51-0.212-0.751-0.798-0.538-1.308
		c0.212-0.509,0.796-0.751,1.308-0.538c3.051,1.271,6.607,1.313,9.753,0.116c3.217-1.224,5.682-3.561,6.939-6.578
		c0.212-0.509,0.795-0.753,1.308-0.538c0.51,0.212,0.75,0.798,0.538,1.308c-1.47,3.529-4.338,6.257-8.073,7.678
		C23.1,32.661,21.239,32.993,19.387,32.993z"/>
	<path style="fill:#E64C3C;" d="M12.545,10.702C12.983,9.7,13.982,9,15.146,9c1.567,0,2.695,1.294,2.837,2.837
		c0,0,0.077,0.383-0.092,1.072c-0.229,0.939-0.769,1.773-1.496,2.409l-3.85,3.317L8.76,15.319c-0.727-0.636-1.267-1.471-1.496-2.409
		c-0.169-0.689-0.092-1.072-0.092-1.072C7.314,10.294,8.442,9,10.009,9C11.172,9,12.107,9.7,12.545,10.702z"/>
	<path style="fill:#E64C3C;" d="M29.39,10.702C29.828,9.7,30.828,9,31.991,9c1.567,0,2.695,1.294,2.837,2.837
		c0,0,0.077,0.383-0.092,1.072c-0.229,0.939-0.769,1.773-1.496,2.409l-3.85,3.317l-3.785-3.317
		c-0.727-0.636-1.267-1.471-1.496-2.409c-0.169-0.689-0.092-1.072-0.092-1.072C24.159,10.294,25.288,9,26.854,9
		C28.018,9,28.952,9.7,29.39,10.702z"/>
</g>
<g>
</g>
<g>
</g>
<g>
</g>
<g>
</g>
<g>
</g>
<g>
</g>
<g>
</g>
<g>
</g>
<g>
</g>
<g>
</g>
<g>
</g>
<g>
</g>
<g>
</g>
<g>
</g>
<g>
</g>
</svg>
