<?xml version="1.0" encoding="iso-8859-1"?>
<!-- Generator: Adobe Illustrator 18.0.0, SVG Export Plug-In . SVG Version: 6.00 Build 0)  -->
<!DOCTYPE svg PUBLIC "-//W3C//DTD SVG 1.1//EN" "http://www.w3.org/Graphics/SVG/1.1/DTD/svg11.dtd">
<svg version="1.1" id="Capa_1" xmlns="http://www.w3.org/2000/svg" xmlns:xlink="http://www.w3.org/1999/xlink" x="0px" y="0px"
	 viewBox="0 0 57 57" style="enable-background:new 0 0 57 57;" xml:space="preserve">
<g>
	<path style="fill:#6E5847;" d="M28.5,0C14.475,0,3,11.475,3,25.5V50c0,2.2,1.8,4,4,4h6.777c4.16,2.021,9.237,3,14.723,3
		s10.563-0.979,14.723-3H50c2.2,0,4-1.8,4-4V25.5C54,11.475,42.525,0,28.5,0z"/>
	<path style="fill:#FDC794;" d="M3.869,29.894C3.305,32.001,3,34.215,3,36.5C3,50.583,14.417,57,28.5,57S54,50.583,54,36.5
		C54,22.842,42.495,11.661,29,11h-1C14.505,11.661,3,22.842,3,36.5C3,50.583,14.417,57,28.5,57S54,50.583,54,36.5"/>
	<path style="fill:#E64C3C;" d="M17.539,24.38c0.519-1.187,1.703-2.016,3.08-2.016c1.856,0,3.192,1.533,3.36,3.36
		c0,0,0.091,0.454-0.109,1.27c-0.272,1.112-0.911,2.1-1.772,2.854l-4.56,3.928l-4.483-3.929c-0.861-0.754-1.5-1.742-1.772-2.854
		c-0.2-0.817-0.109-1.27-0.109-1.27c0.168-1.827,1.504-3.36,3.36-3.36C15.913,22.364,17.02,23.194,17.539,24.38z"/>
	<path style="fill:#E64C3C;" d="M38.384,24.38c0.519-1.187,1.703-2.016,3.08-2.016c1.856,0,3.192,1.533,3.36,3.36
		c0,0,0.091,0.454-0.109,1.27c-0.272,1.112-0.911,2.1-1.772,2.854l-4.56,3.928l-4.483-3.929c-0.861-0.754-1.5-1.742-1.772-2.854
		c-0.2-0.817-0.109-1.27-0.109-1.27c0.168-1.827,1.504-3.36,3.36-3.36C36.758,22.364,37.866,23.194,38.384,24.38z"/>
	<path style="fill:#802D40;" d="M40,40H18c0,6.075,4.925,11,11,11S40,46.075,40,40z"/>
</g>
<g>
</g>
<g>
</g>
<g>
</g>
<g>
</g>
<g>
</g>
<g>
</g>
<g>
</g>
<g>
</g>
<g>
</g>
<g>
</g>
<g>
</g>
<g>
</g>
<g>
</g>
<g>
</g>
<g>
</g>
</svg>
