<?xml version="1.0" encoding="iso-8859-1"?>
<!-- Generator: Adobe Illustrator 18.0.0, SVG Export Plug-In . SVG Version: 6.00 Build 0)  -->
<!DOCTYPE svg PUBLIC "-//W3C//DTD SVG 1.1//EN" "http://www.w3.org/Graphics/SVG/1.1/DTD/svg11.dtd">
<svg version="1.1" id="Capa_1" xmlns="http://www.w3.org/2000/svg" xmlns:xlink="http://www.w3.org/1999/xlink" x="0px" y="0px"
	 viewBox="0 0 58 58" style="enable-background:new 0 0 58 58;" xml:space="preserve">
<g>
	<g>
		<path style="fill:#FDC794;" d="M42.091,11.464c-6.344-3.689-12.698-3.638-12.698-3.638s-11.876-0.096-19.366,9.413L42.091,11.464z
			"/>
		<path style="fill:#FDC794;" d="M54.046,29.487c-0.931-5.033-2.747-8.885-4.983-11.851c-0.106,0.037-0.209,0.076-0.337,0.098
			L6.142,24.993c-0.07,0.012-0.146-0.005-0.223-0.035c-0.473,1.397-0.877,2.895-1.18,4.53c-1.118,6.04,0.044,12.356,3.647,17.323
			c3.488,4.807,9.761,9.345,21.008,9.188c11.246,0.156,17.52-4.381,21.008-9.188C54.003,41.843,55.164,35.527,54.046,29.487z"/>
	</g>
	<path style="fill:#802D40;" d="M45.877,39.252c0.792,3.309-2.754,10.024-8.768,11.464c-6.013,1.44-12.217-2.94-13.009-6.249
		s5.124-0.125,11.138-1.565C41.251,41.461,45.084,35.943,45.877,39.252z"/>
	<path style="fill:#5E5F62;" d="M36.192,29.716c-0.245,0-0.49-0.09-0.684-0.27c-0.403-0.378-0.424-1.011-0.047-1.414l4.585-4.897
		c0.378-0.403,1.01-0.423,1.414-0.047c0.403,0.378,0.424,1.011,0.047,1.414l-4.585,4.897C36.726,29.609,36.459,29.716,36.192,29.716
		z"/>
	
		<ellipse transform="matrix(0.9546 -0.2979 0.2979 0.9546 -9.3743 8.2538)" style="fill:#FFFFFF;" cx="22.389" cy="34.878" rx="4.5" ry="3"/>
	
		<ellipse transform="matrix(0.9546 -0.2979 0.2979 0.9546 -7.5309 13.6969)" style="fill:#FFFFFF;" cx="41.166" cy="31.552" rx="4.5" ry="3"/>
	<path style="fill:#24AE5F;" d="M48.727,17.734L6.142,24.993c-1.242,0.212-3.872-6.582,1.608-7.345l36.999-6.663
		c2.379-0.429,3.858,0.784,4.572,2.8l0.425,1.186C50.182,16.2,50.181,17.486,48.727,17.734z"/>
	<path style="fill:#4C8056;" d="M47,1.998c-1.65,0-3,1.35-3,3v6c0,0.041,0.01,0.079,0.012,0.12l0.737-0.133
		c2.122-0.382,3.524,0.546,4.31,2.181C49.635,12.618,50,11.85,50,10.998v-6C50,3.348,48.65,1.998,47,1.998z"/>
	<path style="fill:#4C8056;" d="M55,12.998h-5.5c-0.169,0-0.334,0.018-0.494,0.05c0.118,0.231,0.224,0.477,0.316,0.736l0.425,1.186
		c0.436,1.229,0.435,2.516-1.02,2.764l-0.243,0.041c0.311,0.14,0.654,0.222,1.016,0.222H55c1.375,0,2.5-1.125,2.5-2.5
		S56.375,12.998,55,12.998z"/>
	<path style="fill:#F9A671;" d="M4.499,31.124c-0.453-0.429-0.985-0.687-1.559-0.687C1.316,30.437,0,32.418,0,34.861
		c0,2.443,1.316,4.424,2.939,4.424c0.687,0,1.311-0.37,1.811-0.964C4.297,35.969,4.218,33.537,4.499,31.124z"/>
	<path style="fill:#F9A671;" d="M57.823,27.297c-0.563-2.377-2.3-3.999-3.879-3.622c-0.491,0.117-0.898,0.43-1.225,0.855
		c0.538,1.515,0.994,3.154,1.328,4.957c0.155,0.837,0.261,1.679,0.328,2.522c0.52,0.284,1.072,0.402,1.608,0.274
		C57.562,31.906,58.386,29.674,57.823,27.297z"/>
	<path style="fill:#5E5F62;" d="M26.681,31.716c-0.16,0-0.322-0.038-0.474-0.12l-5.904-3.184c-0.486-0.262-0.668-0.868-0.405-1.354
		s0.867-0.67,1.354-0.405l5.904,3.184c0.486,0.262,0.668,0.868,0.405,1.354C27.381,31.525,27.036,31.716,26.681,31.716z"/>
	<path style="fill:#7F5B53;" d="M23.78,36.038c-0.271,0-0.521-0.101-0.711-0.29c-0.189-0.19-0.289-0.44-0.289-0.71
		c0-0.261,0.1-0.521,0.289-0.71c0.381-0.37,1.04-0.37,1.41,0c0.19,0.189,0.301,0.449,0.301,0.71c0,0.27-0.11,0.529-0.301,0.71
		C24.3,35.937,24.04,36.038,23.78,36.038z"/>
	<g>
		<line style="fill:#7F5B53;" x1="42.777" y1="31.779" x2="42.777" y2="31.779"/>
		<path style="fill:#7F5B53;" d="M42.78,32.777c-0.271,0-0.521-0.1-0.711-0.289c-0.189-0.19-0.289-0.45-0.289-0.711
			c0-0.26,0.1-0.52,0.289-0.71c0.381-0.369,1.04-0.369,1.41,0c0.19,0.19,0.301,0.45,0.301,0.71c0,0.261-0.11,0.521-0.29,0.711
			C43.3,32.668,43.04,32.777,42.78,32.777z"/>
	</g>
	<path style="fill:#E64C3C;" d="M37.109,50.716c2.241-0.536,4.137-1.806,5.596-3.358c-0.551-1.637-3.429-2.357-6.575-1.604
		c-3.242,0.776-5.531,2.82-5.113,4.564l0.02,0.078C32.931,51.006,35.029,51.214,37.109,50.716z"/>
</g>
<g>
</g>
<g>
</g>
<g>
</g>
<g>
</g>
<g>
</g>
<g>
</g>
<g>
</g>
<g>
</g>
<g>
</g>
<g>
</g>
<g>
</g>
<g>
</g>
<g>
</g>
<g>
</g>
<g>
</g>
</svg>
