<?xml version="1.0" encoding="iso-8859-1"?>
<!-- Generator: Adobe Illustrator 18.0.0, SVG Export Plug-In . SVG Version: 6.00 Build 0)  -->
<!DOCTYPE svg PUBLIC "-//W3C//DTD SVG 1.1//EN" "http://www.w3.org/Graphics/SVG/1.1/DTD/svg11.dtd">
<svg version="1.1" id="Capa_1" xmlns="http://www.w3.org/2000/svg" xmlns:xlink="http://www.w3.org/1999/xlink" x="0px" y="0px"
	 viewBox="0 0 58 58" style="enable-background:new 0 0 58 58;" xml:space="preserve">
<g>
	<path style="fill:#FDC794;" d="M54.046,28.485C51.068,12.39,39.104,8.256,33.007,7.193c-0.237-0.041-0.331-0.327-0.165-0.501
		l0.769-0.808c0.91-0.957,0.47-2.641-0.833-2.857C32.672,3.009,32.563,3,32.452,3c-1.1,0-2.333,0.792-3,2l-1,1.862
		C24.37,7.139,8.177,9.449,4.711,28.637c-1.032,5.711-0.026,11.678,3.205,16.498c3.383,5.047,9.707,10.024,21.477,9.861
		c11.246,0.156,17.52-4.381,21.008-9.189C54.003,40.841,55.164,34.525,54.046,28.485z"/>
	<path style="fill:#F9A671;" d="M31.862,51.461c-4.076,0-8.148-1.578-11.21-4.722c-0.385-0.396-0.377-1.029,0.019-1.415
		c0.396-0.384,1.029-0.378,1.414,0.02c5.25,5.389,13.906,5.503,19.297,0.253c0.396-0.384,1.029-0.378,1.414,0.02
		c0.385,0.396,0.377,1.028-0.019,1.414C39.741,49.987,35.799,51.461,31.862,51.461z"/>
	<path style="fill:#F9A671;" d="M20.152,48.393c-0.104,0-0.209-0.016-0.313-0.05c-0.525-0.173-0.81-0.738-0.637-1.263
		c0.328-0.998,1.025-1.808,1.961-2.28c0.937-0.475,2.002-0.552,3-0.224c0.524,0.173,0.81,0.738,0.637,1.263
		c-0.173,0.524-0.737,0.811-1.263,0.638c-0.491-0.163-1.012-0.123-1.473,0.108c-0.46,0.232-0.802,0.63-0.963,1.12
		C20.964,48.126,20.573,48.393,20.152,48.393z"/>
	<path style="fill:#F9A671;" d="M42.852,49.698c-0.104,0-0.209-0.016-0.313-0.05c-0.525-0.173-0.81-0.738-0.637-1.263
		c0.333-1.011-0.219-2.104-1.229-2.436c-0.524-0.173-0.81-0.738-0.637-1.263s0.735-0.811,1.263-0.638
		c2.058,0.679,3.18,2.903,2.503,4.961C43.664,49.432,43.272,49.698,42.852,49.698z"/>
	<circle style="fill:#FFFFFF;" cx="39.5" cy="26.667" r="4.5"/>
	<circle style="fill:#FFFFFF;" cx="20.175" cy="27.5" r="4.5"/>
	<path style="fill:#F9A671;" d="M33.164,43.741c-2.22,0-4.394-0.762-5.63-2.049c-0.044-0.045-0.087-0.096-0.128-0.147
		c-0.341-0.423-0.308-1.071,0.106-1.422s1.007-0.337,1.369,0.068c0.01,0.012,0.071,0.085,0.081,0.098
		c1.075,1.12,3.404,1.691,5.43,1.352c1.247-0.212,2.15-0.743,2.478-1.459c0.557-1.214,0.592-2.298,0.11-3.315
		c-0.868-1.83-3.372-3.202-5.467-3.749c-0.761-0.199-2.312-0.122-2.788,0.082c-0.51,0.217-1.096-0.02-1.312-0.528
		c-0.216-0.508,0.02-1.096,0.528-1.312c0.93-0.396,2.912-0.482,4.077-0.178c2.472,0.646,5.548,2.253,6.769,4.828
		c0.741,1.562,0.707,3.246-0.099,5.006c-0.617,1.346-2.024,2.269-3.962,2.597C34.21,43.699,33.686,43.741,33.164,43.741z"/>
	<path style="fill:#F9A671;" d="M4.499,30.122c-0.453-0.429-0.985-0.687-1.559-0.687C1.316,29.435,0,31.415,0,33.859
		c0,2.443,1.316,4.424,2.939,4.424c0.687,0,1.311-0.37,1.811-0.964C4.297,34.967,4.218,32.535,4.499,30.122z"/>
	<path style="fill:#F9A671;" d="M57.823,26.295c-0.563-2.377-2.3-3.999-3.879-3.622c-0.491,0.117-0.898,0.43-1.225,0.855
		c0.538,1.515,0.994,3.154,1.328,4.957c0.155,0.837,0.261,1.679,0.328,2.522c0.52,0.284,1.072,0.402,1.608,0.274
		C57.562,30.904,58.386,28.672,57.823,26.295z"/>
	<g>
		<circle style="fill:#F0785A;" cx="45" cy="38" r="1"/>
		<circle style="fill:#F0785A;" cx="41" cy="35" r="1"/>
		<circle style="fill:#F0785A;" cx="46" cy="34" r="1"/>
		<circle style="fill:#F0785A;" cx="14.394" cy="32.246" r="1"/>
		<circle style="fill:#F0785A;" cx="18.796" cy="34.617" r="1"/>
		<circle style="fill:#F0785A;" cx="14" cy="36.35" r="1"/>
	</g>
	<path style="fill:#8697CB;" d="M32.842,6.694l0.77-0.81c0.91-0.957,0.469-2.641-0.833-2.857C32.672,3.009,32.563,3,32.452,3
		c-1.1,0-3,0.9-3,2l-1,1.862c-2.654,0.183-10.417,1.229-16.482,7.199C15.453,17.004,22.198,19,29.952,19
		c7.314,0,13.716-1.781,17.344-4.452c-4.707-4.917-10.581-6.704-14.289-7.353C32.771,7.153,32.676,6.868,32.842,6.694z"/>
	<g>
		<path style="fill:#7F5B53;" d="M19.97,29.13c-0.19,0.18-0.29,0.439-0.29,0.7c0,0.27,0.1,0.52,0.29,0.71
			c0.18,0.189,0.44,0.29,0.7,0.29c0.27,0,0.53-0.101,0.71-0.29c0.19-0.19,0.29-0.44,0.29-0.71c0-0.261-0.1-0.521-0.29-0.71
			C21,28.75,20.35,28.75,19.97,29.13z"/>
		<path style="fill:#7F5B53;" d="M40.71,28.29c-0.38-0.37-1.05-0.37-1.42,0C39.11,28.479,39,28.74,39,29s0.11,0.52,0.29,0.71
			C39.48,29.89,39.74,30,40,30c0.27,0,0.52-0.11,0.7-0.29C40.89,29.52,41,29.26,41,29S40.89,28.479,40.71,28.29z"/>
	</g>
</g>
<g>
</g>
<g>
</g>
<g>
</g>
<g>
</g>
<g>
</g>
<g>
</g>
<g>
</g>
<g>
</g>
<g>
</g>
<g>
</g>
<g>
</g>
<g>
</g>
<g>
</g>
<g>
</g>
<g>
</g>
</svg>
