<?xml version="1.0" encoding="iso-8859-1"?>
<!-- Generator: Adobe Illustrator 18.0.0, SVG Export Plug-In . SVG Version: 6.00 Build 0)  -->
<!DOCTYPE svg PUBLIC "-//W3C//DTD SVG 1.1//EN" "http://www.w3.org/Graphics/SVG/1.1/DTD/svg11.dtd">
<svg version="1.1" id="Capa_1" xmlns="http://www.w3.org/2000/svg" xmlns:xlink="http://www.w3.org/1999/xlink" x="0px" y="0px"
	 viewBox="0 0 53.845 53.845" style="enable-background:new 0 0 53.845 53.845;" xml:space="preserve">
<g>
	<path style="fill:#FBD971;" d="M36.76,35.788c-0.727-0.636-1.267-1.471-1.496-2.409c-0.169-0.689-0.092-1.072-0.092-1.072
		c0.142-1.543,1.27-2.837,2.837-2.837c1.163,0,2.098,0.7,2.536,1.702c0.186-0.425,0.476-0.79,0.833-1.076
		C41.77,28.493,42,26.828,42,25.105c0-11.598-9.402-21-21-21s-21,9.402-21,21c0,11.598,9.402,21,21,21
		c7.143,0,13.443-3.574,17.237-9.023L36.76,35.788z"/>
	<path style="fill:#F29C1F;" d="M16,20.741c-0.552,0-1-0.447-1-1c0-1.654-1.346-3-3-3s-3,1.346-3,3c0,0.553-0.448,1-1,1
		s-1-0.447-1-1c0-2.757,2.243-5,5-5s5,2.243,5,5C17,20.293,16.552,20.741,16,20.741z"/>
	<path style="fill:#F29C1F;" d="M34,20.741c-0.552,0-1-0.447-1-1c0-1.654-1.346-3-3-3s-3,1.346-3,3c0,0.553-0.448,1-1,1
		s-1-0.447-1-1c0-2.757,2.243-5,5-5s5,2.243,5,5C35,20.293,34.552,20.741,34,20.741z"/>
	<path style="fill:#F0C419;" d="M27.001,39.438c-0.323,0-0.64-0.156-0.833-0.445c-0.306-0.46-0.182-1.08,0.277-1.387l3.002-2.001
		l-3.002-2.001C26.167,33.418,26,33.106,26,32.772s0.167-0.646,0.445-0.832l3.002-2.002l-3.002-2.001
		c-0.459-0.307-0.583-0.927-0.277-1.387c0.306-0.459,0.926-0.583,1.387-0.277l4.25,2.833c0.278,0.186,0.445,0.498,0.445,0.832
		s-0.167,0.646-0.445,0.832l-3.002,2.002l3.002,2.001c0.278,0.186,0.445,0.498,0.445,0.832s-0.167,0.646-0.445,0.832l-4.25,2.833
		C27.384,39.383,27.191,39.438,27.001,39.438z"/>
	<path style="fill:#E64C3C;" d="M48.39,41.807c0.438-1.002,1.438-1.702,2.601-1.702c1.567,0,2.695,1.294,2.837,2.837
		c0,0,0.077,0.383-0.092,1.072c-0.229,0.939-0.769,1.773-1.496,2.409l-3.85,3.317l-3.785-3.317
		c-0.727-0.636-1.267-1.471-1.496-2.409c-0.169-0.689-0.092-1.072-0.092-1.072c0.142-1.543,1.27-2.837,2.837-2.837
		C47.018,40.105,47.952,40.805,48.39,41.807z"/>
	<path style="fill:#E64C3C;" d="M40.545,31.171c0.438-1.002,1.438-1.702,2.601-1.702c1.567,0,2.695,1.294,2.837,2.837
		c0,0,0.077,0.383-0.092,1.072c-0.229,0.939-0.769,1.773-1.496,2.409l-3.85,3.317l-3.785-3.317
		c-0.727-0.636-1.267-1.471-1.496-2.409c-0.169-0.689-0.092-1.072-0.092-1.072c0.142-1.543,1.27-2.837,2.837-2.837
		C39.172,29.469,40.107,30.169,40.545,31.171z"/>
</g>
<g>
</g>
<g>
</g>
<g>
</g>
<g>
</g>
<g>
</g>
<g>
</g>
<g>
</g>
<g>
</g>
<g>
</g>
<g>
</g>
<g>
</g>
<g>
</g>
<g>
</g>
<g>
</g>
<g>
</g>
</svg>
