<?xml version="1.0" encoding="iso-8859-1"?>
<!-- Generator: Adobe Illustrator 18.0.0, SVG Export Plug-In . SVG Version: 6.00 Build 0)  -->
<!DOCTYPE svg PUBLIC "-//W3C//DTD SVG 1.1//EN" "http://www.w3.org/Graphics/SVG/1.1/DTD/svg11.dtd">
<svg version="1.1" id="Capa_1" xmlns="http://www.w3.org/2000/svg" xmlns:xlink="http://www.w3.org/1999/xlink" x="0px" y="0px"
	 viewBox="0 0 57 57" style="enable-background:new 0 0 57 57;" xml:space="preserve">
<g>
	<path style="fill:#6E5847;" d="M28.5,0C14.475,0,3,11.475,3,25.5V50c0,2.2,1.8,4,4,4h6.777c4.16,2.021,9.237,3,14.723,3
		s10.563-0.979,14.723-3H50c2.2,0,4-1.8,4-4V25.5C54,11.475,42.525,0,28.5,0z"/>
	<path style="fill:#FDC794;" d="M51,30c-11.099,0-20.503-7.958-23.767-18.968C13.738,11.693,3,22.842,3,36.5
		C3,50.583,14.417,57,28.5,57S54,50.583,54,36.5c0-2.285-0.305-4.499-0.869-6.606C52.428,29.959,51.718,30,51,30z"/>
	<path style="fill:#F9A671;" d="M31.001,47c-0.323,0-0.64-0.156-0.833-0.445c-0.306-0.46-0.182-1.08,0.277-1.387l3.002-2.001
		l-3.002-2.002C30.167,40.979,30,40.667,30,40.333s0.167-0.646,0.445-0.832l3.002-2.001l-3.002-2.001
		c-0.459-0.307-0.583-0.927-0.277-1.387c0.307-0.46,0.927-0.583,1.387-0.277l4.25,2.833c0.278,0.186,0.445,0.498,0.445,0.832
		s-0.167,0.646-0.445,0.832l-3.002,2.001l3.002,2.002c0.278,0.186,0.445,0.498,0.445,0.832s-0.167,0.646-0.445,0.832l-4.25,2.833
		C31.384,46.945,31.191,47,31.001,47z"/>
	<path style="fill:#E64C3C;" d="M43.545,42.066c0.438-1.002,1.438-1.702,2.601-1.702c1.567,0,2.695,1.294,2.837,2.837
		c0,0,0.077,0.383-0.092,1.072c-0.229,0.939-0.769,1.773-1.496,2.409L43.545,50l-3.785-3.317c-0.727-0.636-1.267-1.471-1.496-2.409
		c-0.169-0.689-0.092-1.072-0.092-1.072c0.142-1.543,1.27-2.837,2.837-2.837C42.172,40.364,43.107,41.065,43.545,42.066z"/>
	<path style="fill:#F9A671;" d="M23,30c-0.256,0-0.512-0.098-0.707-0.293c-1.949-1.949-5.122-1.949-7.071,0
		c-0.391,0.391-1.023,0.391-1.414,0s-0.391-1.023,0-1.414c2.729-2.729,7.17-2.729,9.899,0c0.391,0.391,0.391,1.023,0,1.414
		C23.512,29.902,23.256,30,23,30z"/>
</g>
<g>
</g>
<g>
</g>
<g>
</g>
<g>
</g>
<g>
</g>
<g>
</g>
<g>
</g>
<g>
</g>
<g>
</g>
<g>
</g>
<g>
</g>
<g>
</g>
<g>
</g>
<g>
</g>
<g>
</g>
</svg>
