<?xml version="1.0" encoding="iso-8859-1"?>
<!-- Generator: Adobe Illustrator 18.0.0, SVG Export Plug-In . SVG Version: 6.00 Build 0)  -->
<!DOCTYPE svg PUBLIC "-//W3C//DTD SVG 1.1//EN" "http://www.w3.org/Graphics/SVG/1.1/DTD/svg11.dtd">
<svg version="1.1" id="Capa_1" xmlns="http://www.w3.org/2000/svg" xmlns:xlink="http://www.w3.org/1999/xlink" x="0px" y="0px"
	 viewBox="0 0 57 57" style="enable-background:new 0 0 57 57;" xml:space="preserve">
<g>
	<path style="fill:#6E5847;" d="M28.5,0C14.475,0,3,11.475,3,25.5V50c0,2.2,1.8,4,4,4h6.777c4.16,2.021,9.237,3,14.723,3
		s10.563-0.979,14.723-3H50c2.2,0,4-1.8,4-4V25.5C54,11.475,42.525,0,28.5,0z"/>
	<path style="fill:#FDC794;" d="M3.869,29.894C3.305,32.001,3,34.215,3,36.5C3,50.583,14.417,57,28.5,57S54,50.583,54,36.5
		C54,22.842,42.495,11.661,29,11h-1C14.505,11.661,3,22.842,3,36.5C3,50.583,14.417,57,28.5,57S54,50.583,54,36.5"/>
	<ellipse style="fill:#FFFFFF;" cx="37" cy="26.5" rx="6" ry="7.5"/>
	<ellipse style="fill:#6E5847;" cx="37" cy="26.5" rx="3" ry="4.5"/>
	<path style="fill:#F9A671;" d="M21.61,29.755c-0.282,0-0.557-0.12-0.75-0.339c-1.822-2.07-4.988-2.272-7.057-0.448
		c-0.415,0.364-1.047,0.324-1.411-0.09c-0.365-0.415-0.325-1.047,0.09-1.412c2.187-1.926,5.25-2.235,7.716-1.027
		c-0.796-1.842-2.615-3.314-4.598-3.44c-0.551-0.035-0.97-0.511-0.935-1.062s0.52-0.95,1.062-0.935
		c3.846,0.245,7.126,3.971,6.881,7.816c-0.026,0.403-0.292,0.752-0.675,0.883C21.827,29.737,21.718,29.755,21.61,29.755z"/>
	<path style="fill:#F9A671;" d="M35.621,43.857c0-2.284-1.858-4.143-4.143-4.143c-1.24,0-2.404,0.549-3.195,1.506
		c-0.352,0.426-0.292,1.056,0.134,1.407c0.427,0.354,1.057,0.293,1.408-0.134c0.409-0.495,1.012-0.779,1.653-0.779
		c1.182,0,2.143,0.961,2.143,2.143s-0.961,2.144-2.143,2.144c-0.504,0-0.976-0.17-1.364-0.49c-0.426-0.352-1.056-0.292-1.408,0.134
		c-0.352,0.425-0.292,1.056,0.134,1.407c0.74,0.612,1.677,0.949,2.638,0.949c0.238,0,0.467-0.031,0.694-0.07
		c-0.226,0.041-0.456,0.07-0.694,0.07c-0.052,0-0.103-0.011-0.156-0.014c-0.003,0.045,0.002,0.089-0.003,0.134
		c-0.07,0.567-0.358,1.074-0.81,1.426c-0.452,0.353-1.013,0.511-1.581,0.437c-0.568-0.07-1.074-0.357-1.426-0.809
		c-0.31-0.398-0.466-0.875-0.452-1.377c0.016-0.553-0.418-1.013-0.97-1.029c-0.577,0.004-1.013,0.419-1.029,0.971
		c-0.028,0.96,0.282,1.906,0.874,2.664c0.68,0.873,1.659,1.429,2.757,1.565c0.173,0.021,0.346,0.032,0.519,0.032
		c0.917,0,1.803-0.304,2.538-0.876c0.873-0.68,1.429-1.659,1.565-2.758c0.034-0.275,0.041-0.55,0.021-0.82
		C34.68,46.865,35.621,45.476,35.621,43.857z M32.416,47.884c0.166-0.039,0.326-0.093,0.485-0.151
		C32.744,47.793,32.582,47.843,32.416,47.884z"/>
</g>
<g>
</g>
<g>
</g>
<g>
</g>
<g>
</g>
<g>
</g>
<g>
</g>
<g>
</g>
<g>
</g>
<g>
</g>
<g>
</g>
<g>
</g>
<g>
</g>
<g>
</g>
<g>
</g>
<g>
</g>
</svg>
