<?xml version="1.0" encoding="iso-8859-1"?>
<!-- Generator: Adobe Illustrator 18.0.0, SVG Export Plug-In . SVG Version: 6.00 Build 0)  -->
<!DOCTYPE svg PUBLIC "-//W3C//DTD SVG 1.1//EN" "http://www.w3.org/Graphics/SVG/1.1/DTD/svg11.dtd">
<svg version="1.1" id="Capa_1" xmlns="http://www.w3.org/2000/svg" xmlns:xlink="http://www.w3.org/1999/xlink" x="0px" y="0px"
	 viewBox="0 0 42 42" style="enable-background:new 0 0 42 42;" xml:space="preserve">
<g>
	<circle style="fill:#FBD971;" cx="21" cy="21" r="21"/>
	<path style="fill:#F29C1F;" d="M16,17c-0.552,0-1-0.447-1-1c0-1.654-1.346-3-3-3s-3,1.346-3,3c0,0.553-0.448,1-1,1s-1-0.447-1-1
		c0-2.757,2.243-5,5-5s5,2.243,5,5C17,16.553,16.552,17,16,17z"/>
	<path style="fill:#F29C1F;" d="M34,17c-0.552,0-1-0.447-1-1c0-1.654-1.346-3-3-3s-3,1.346-3,3c0,0.553-0.448,1-1,1s-1-0.447-1-1
		c0-2.757,2.243-5,5-5s5,2.243,5,5C35,16.553,34.552,17,34,17z"/>
	<path style="fill:#F0C419;" d="M27.001,35.333c-0.323,0-0.64-0.156-0.833-0.445c-0.306-0.46-0.182-1.08,0.277-1.387l3.002-2.001
		l-3.002-2.001C26.167,29.313,26,29.001,26,28.667s0.167-0.646,0.445-0.832l3.002-2.002l-3.002-2.001
		c-0.459-0.307-0.583-0.927-0.277-1.387c0.306-0.459,0.927-0.583,1.387-0.277l4.25,2.833c0.278,0.186,0.445,0.498,0.445,0.832
		s-0.167,0.646-0.445,0.832l-3.002,2.002l3.002,2.001c0.278,0.186,0.445,0.498,0.445,0.832s-0.167,0.646-0.445,0.832l-4.25,2.833
		C27.384,35.278,27.191,35.333,27.001,35.333z"/>
</g>
<g>
</g>
<g>
</g>
<g>
</g>
<g>
</g>
<g>
</g>
<g>
</g>
<g>
</g>
<g>
</g>
<g>
</g>
<g>
</g>
<g>
</g>
<g>
</g>
<g>
</g>
<g>
</g>
<g>
</g>
</svg>
