<?xml version="1.0" encoding="iso-8859-1"?>
<!-- Generator: Adobe Illustrator 18.0.0, SVG Export Plug-In . SVG Version: 6.00 Build 0)  -->
<!DOCTYPE svg PUBLIC "-//W3C//DTD SVG 1.1//EN" "http://www.w3.org/Graphics/SVG/1.1/DTD/svg11.dtd">
<svg version="1.1" id="Capa_1" xmlns="http://www.w3.org/2000/svg" xmlns:xlink="http://www.w3.org/1999/xlink" x="0px" y="0px"
	 viewBox="0 0 47.332 47.332" style="enable-background:new 0 0 47.332 47.332;" xml:space="preserve">
<g>
	<path style="fill:#FBD971;" d="M38.072,30.059c-1.436-2.345-3.303-9.703-0.958-11.139c1.617-0.99,4.831,1.083,7.141,3.235
		c-0.777-10.89-9.836-19.49-20.924-19.49c-11.32,0-20.523,8.964-20.958,20.178c2.312-2.363,6.054-5.02,7.844-3.924h0
		c2.345,1.436,0.478,8.794-0.958,11.139c-1.077,1.759-3.086,2.617-5.013,2.331c3.315,7.238,10.603,12.276,19.085,12.276
		c8.468,0,15.746-5.022,19.068-12.241C40.696,32.442,39.021,31.61,38.072,30.059z"/>
	<path style="fill:#F29C1F;" d="M19.332,20.666c-0.553,0-1-0.447-1-1c0-1.654-1.346-3-3-3s-3,1.346-3,3c0,0.553-0.447,1-1,1
		s-1-0.447-1-1c0-2.757,2.243-5,5-5s5,2.243,5,5C20.332,20.219,19.884,20.666,19.332,20.666z"/>
	<path style="fill:#F29C1F;" d="M36.332,20.666c-0.553,0-1-0.447-1-1c0-1.654-1.346-3-3-3c-1.654,0-3,1.346-3,3c0,0.553-0.447,1-1,1
		s-1-0.447-1-1c0-2.757,2.243-5,5-5s5,2.243,5,5C37.332,20.219,36.884,20.666,36.332,20.666z"/>
	<path style="fill:#48A0DC;" d="M44.947,31.713L44.947,31.713c-2.345,1.436-5.439,0.692-6.875-1.653l0,0
		c-1.436-2.345-3.303-9.703-0.958-11.139l0,0c2.345-1.436,8.05,3.572,9.486,5.917l0,0C48.036,27.183,47.292,30.277,44.947,31.713z"
		/>
	<path style="fill:#48A0DC;" d="M2.385,31.713L2.385,31.713c2.345,1.436,5.439,0.692,6.875-1.653l0,0
		c1.436-2.345,3.303-9.703,0.958-11.139l0,0c-2.345-1.436-8.05,3.572-9.486,5.917l0,0C-0.704,27.183,0.04,30.277,2.385,31.713z"/>
	<path style="fill:#C03A2B;" d="M12.332,30.666c0,6.075,4.925,11,11,11s11-4.925,11-11H12.332z"/>
	<path style="fill:#FFFFFF;" d="M12.332,30.666c0,2.119,2.905,3.926,7,4.654v-4.654H12.332z"/>
	<path style="fill:#FFFFFF;" d="M21.332,30.666v4.913c0.649,0.054,1.316,0.087,2,0.087s1.351-0.032,2-0.087v-4.913H21.332z"/>
	<path style="fill:#FFFFFF;" d="M34.332,30.666h-7v4.654C31.426,34.592,34.332,32.785,34.332,30.666z"/>
	<path style="fill:#ECF0F1;" d="M19.332,30.666v4.654c0.64,0.114,1.308,0.202,2,0.26v-4.913H19.332z"/>
	<path style="fill:#ECF0F1;" d="M25.332,30.666v4.913c0.692-0.058,1.36-0.146,2-0.26v-4.654H25.332z"/>
</g>
<g>
</g>
<g>
</g>
<g>
</g>
<g>
</g>
<g>
</g>
<g>
</g>
<g>
</g>
<g>
</g>
<g>
</g>
<g>
</g>
<g>
</g>
<g>
</g>
<g>
</g>
<g>
</g>
<g>
</g>
</svg>
