<?xml version="1.0" encoding="iso-8859-1"?>
<!-- Generator: Adobe Illustrator 18.0.0, SVG Export Plug-In . SVG Version: 6.00 Build 0)  -->
<!DOCTYPE svg PUBLIC "-//W3C//DTD SVG 1.1//EN" "http://www.w3.org/Graphics/SVG/1.1/DTD/svg11.dtd">
<svg version="1.1" id="Capa_1" xmlns="http://www.w3.org/2000/svg" xmlns:xlink="http://www.w3.org/1999/xlink" x="0px" y="0px"
	 viewBox="0 0 47 47" style="enable-background:new 0 0 47 47;" xml:space="preserve">
<g>
	<path style="fill:#FFD581;" d="M44,19.662L44,19.662c-1.74-9.843-10.158-17-20.5-17S4.74,9.819,3,19.662l0,0
		c-1.663,0.661-3,2.602-3,4.5c0,1.978,1.284,3.639,3.058,4.242C5.21,37.715,13.536,44.662,23.5,44.662
		c9.965,0,18.29-6.948,20.442-16.258l0,0.001C45.716,27.801,47,26.14,47,24.162C47,22.264,45.663,20.323,44,19.662z"/>
	<path style="fill:#9D6019;" d="M44,19.662l0,0.001C42.26,9.821,33.684,2.338,23.342,2.338S4.74,9.819,3,19.662
		c0,0,16.906,4.33,28.242-4.726c0.555-0.444,1.362-0.34,1.758,0.25C35.049,18.238,38.828,21.942,44,19.662z"/>
	<path style="fill:#802D40;" d="M16.011,33.662v0.019c0,2.351,1.298,4.799,3.41,5.83c1.316,0.642,2.887,1.151,4.578,1.151
		c1.69,0,3.263-0.508,4.583-1.149c2.123-1.031,3.424-3.491,3.417-5.851v0H16.011z"/>
	<path style="fill:#B27821;" d="M14.379,30.662c-0.552,0-1-0.447-1-1c0-2.192,1.231-4.103,3.039-5.075
		c-1.321-0.25-2.779,0.091-3.711,1.023c-0.391,0.391-1.023,0.391-1.414,0s-0.391-1.023,0-1.414c2.238-2.238,6.313-2.238,8.552,0
		c0.286,0.286,0.372,0.716,0.217,1.09c-0.155,0.373-0.52,0.617-0.924,0.617c-2.072,0-3.758,1.687-3.758,3.759
		C15.379,30.215,14.932,30.662,14.379,30.662z"/>
	<path style="fill:#B27821;" d="M33.759,30.662c-0.552,0-1-0.447-1-1c0-2.072-1.686-3.759-3.759-3.759
		c-0.404,0-0.769-0.244-0.924-0.617c-0.155-0.374-0.069-0.804,0.217-1.09c2.238-2.238,6.313-2.238,8.552,0
		c0.391,0.391,0.391,1.023,0,1.414s-1.023,0.391-1.414,0c-0.933-0.933-2.393-1.274-3.711-1.023c1.808,0.973,3.039,2.883,3.039,5.075
		C34.759,30.215,34.311,30.662,33.759,30.662z"/>
	<path style="fill:#E64C3C;" d="M24.007,36.662c-1.958,0-3.789,0.861-4.775,2.736c0.065,0.035,0.123,0.081,0.19,0.114
		c1.316,0.642,2.887,1.151,4.578,1.151c1.69,0,3.263-0.508,4.583-1.149c0.07-0.034,0.132-0.082,0.201-0.12
		C27.794,37.522,25.963,36.662,24.007,36.662z"/>
</g>
<g>
</g>
<g>
</g>
<g>
</g>
<g>
</g>
<g>
</g>
<g>
</g>
<g>
</g>
<g>
</g>
<g>
</g>
<g>
</g>
<g>
</g>
<g>
</g>
<g>
</g>
<g>
</g>
<g>
</g>
</svg>
