<?xml version="1.0" encoding="iso-8859-1"?>
<!-- Generator: Adobe Illustrator 18.0.0, SVG Export Plug-In . SVG Version: 6.00 Build 0)  -->
<!DOCTYPE svg PUBLIC "-//W3C//DTD SVG 1.1//EN" "http://www.w3.org/Graphics/SVG/1.1/DTD/svg11.dtd">
<svg version="1.1" id="Capa_1" xmlns="http://www.w3.org/2000/svg" xmlns:xlink="http://www.w3.org/1999/xlink" x="0px" y="0px"
	 viewBox="0 0 42 42" style="enable-background:new 0 0 42 42;" xml:space="preserve">
<g>
	<circle style="fill:#FBD971;" cx="21" cy="21" r="21"/>
	<path style="fill:#F29C1F;" d="M31.999,22c-0.226,0-0.452-0.076-0.64-0.232l-6-5C25.132,16.578,25,16.297,25,16
		s0.132-0.578,0.359-0.768l6-5c0.426-0.354,1.056-0.296,1.409,0.128s0.296,1.055-0.128,1.408L27.562,16l5.078,4.232
		c0.424,0.354,0.481,0.984,0.128,1.408C32.57,21.877,32.286,22,31.999,22z"/>
	<path style="fill:#F29C1F;" d="M11.001,22c-0.287,0-0.571-0.123-0.77-0.36c-0.354-0.424-0.296-1.055,0.128-1.408L15.437,16
		l-5.078-4.232c-0.424-0.354-0.481-0.984-0.128-1.408c0.354-0.424,0.982-0.482,1.409-0.128l6,5C17.868,15.422,18,15.703,18,16
		s-0.132,0.578-0.359,0.768l-6,5C11.453,21.924,11.227,22,11.001,22z"/>
	<g>
		<path style="fill:#FFFFFF;" d="M32,27H10c0,6.075,4.925,11,11,11S32,33.075,32,27z"/>
		<path style="fill:#ECF0F0;" d="M30,31h-2v-4c0-0.552-0.447-1-1-1s-1,0.448-1,1v4h-2v-4c0-0.552-0.447-1-1-1s-1,0.448-1,1v4h-2v-4
			c0-0.552-0.447-1-1-1s-1,0.448-1,1v4h-2v-4c0-0.552-0.447-1-1-1s-1,0.448-1,1v4h-2c-0.553,0-1,0.448-1,1s0.447,1,1,1h2v3
			c0,0.552,0.447,1,1,1s1-0.448,1-1v-3h2v4c0,0.552,0.447,1,1,1s1-0.448,1-1v-4h2v4c0,0.552,0.447,1,1,1s1-0.448,1-1v-4h2v3
			c0,0.552,0.447,1,1,1s1-0.448,1-1v-3h2c0.553,0,1-0.448,1-1S30.553,31,30,31z"/>
		<path style="fill:#F0C419;" d="M21,39c-6.617,0-12-5.383-12-12c0-0.552,0.447-1,1-1h22c0.553,0,1,0.448,1,1
			C33,33.617,27.617,39,21,39z M11.05,28c0.503,5.046,4.773,9,9.95,9s9.447-3.954,9.95-9H11.05z"/>
	</g>
</g>
<g>
</g>
<g>
</g>
<g>
</g>
<g>
</g>
<g>
</g>
<g>
</g>
<g>
</g>
<g>
</g>
<g>
</g>
<g>
</g>
<g>
</g>
<g>
</g>
<g>
</g>
<g>
</g>
<g>
</g>
</svg>
