<?xml version="1.0" encoding="iso-8859-1"?>
<!-- Generator: Adobe Illustrator 18.0.0, SVG Export Plug-In . SVG Version: 6.00 Build 0)  -->
<!DOCTYPE svg PUBLIC "-//W3C//DTD SVG 1.1//EN" "http://www.w3.org/Graphics/SVG/1.1/DTD/svg11.dtd">
<svg version="1.1" id="Capa_1" xmlns="http://www.w3.org/2000/svg" xmlns:xlink="http://www.w3.org/1999/xlink" x="0px" y="0px"
	 viewBox="0 0 57 57" style="enable-background:new 0 0 57 57;" xml:space="preserve">
<g>
	<path style="fill:#6E5847;" d="M28.5,0C14.475,0,3,11.475,3,25.5V50c0,2.2,1.8,4,4,4h6.777c4.16,2.021,9.237,3,14.723,3
		s10.563-0.979,14.723-3H50c2.2,0,4-1.8,4-4V25.5C54,11.475,42.525,0,28.5,0z"/>
	<path style="fill:#FDC794;" d="M3.869,29.894C3.305,32.001,3,34.215,3,36.5C3,50.583,14.417,57,28.5,57S54,50.583,54,36.5
		C54,22.842,42.495,11.661,29,11h-1C14.505,11.661,3,22.842,3,36.5C3,50.583,14.417,57,28.5,57S54,50.583,54,36.5"/>
	<path style="fill:#802D40;" d="M16,41v0.031c0,3.821,2.109,7.383,5.543,9.058c2.139,1.044,4.692,1.685,7.442,1.685
		c2.747,0,5.304-0.64,7.449-1.682C39.884,48.416,42,44.836,41.989,41v0H16z"/>
	<path style="fill:#F9A671;" d="M22.989,29.755c-0.282,0-0.557-0.12-0.75-0.339c-1.822-2.07-4.988-2.272-7.057-0.448
		c-0.415,0.364-1.046,0.324-1.411-0.09c-0.365-0.415-0.325-1.047,0.09-1.412c2.186-1.926,5.249-2.235,7.716-1.027
		c-0.796-1.842-2.615-3.314-4.598-3.44c-0.551-0.035-0.97-0.511-0.935-1.062c0.035-0.551,0.511-0.95,1.062-0.935
		c3.846,0.245,7.126,3.971,6.882,7.816c-0.026,0.403-0.292,0.752-0.675,0.883C23.207,29.737,23.098,29.755,22.989,29.755z"/>
	<path style="fill:#F9A671;" d="M34.532,29.755c-0.108,0-0.217-0.018-0.323-0.054c-0.383-0.131-0.649-0.479-0.675-0.883
		c-0.245-3.846,3.035-7.571,6.881-7.816c0.536-0.018,1.026,0.384,1.062,0.935s-0.383,1.026-0.935,1.062
		c-1.982,0.126-3.802,1.599-4.598,3.441c2.468-1.211,5.53-0.897,7.716,1.026c0.415,0.365,0.455,0.997,0.09,1.412
		c-0.365,0.414-0.996,0.454-1.411,0.09c-2.069-1.821-5.235-1.62-7.057,0.448C35.089,29.635,34.814,29.755,34.532,29.755z"/>
	<path style="fill:#E64C3C;" d="M28.996,45.458C24.277,45.458,20,46.538,20,49l0.038,0.152c0.471,0.35,0.965,0.675,1.505,0.938
		c2.139,1.044,4.692,1.685,7.442,1.685c2.747,0,5.304-0.64,7.449-1.682c0.553-0.269,1.058-0.602,1.54-0.962L38,49
		C38,46.538,33.716,45.458,28.996,45.458z"/>
</g>
<g>
</g>
<g>
</g>
<g>
</g>
<g>
</g>
<g>
</g>
<g>
</g>
<g>
</g>
<g>
</g>
<g>
</g>
<g>
</g>
<g>
</g>
<g>
</g>
<g>
</g>
<g>
</g>
<g>
</g>
</svg>
