<?xml version="1.0" encoding="iso-8859-1"?>
<!-- Generator: Adobe Illustrator 18.0.0, SVG Export Plug-In . SVG Version: 6.00 Build 0)  -->
<!DOCTYPE svg PUBLIC "-//W3C//DTD SVG 1.1//EN" "http://www.w3.org/Graphics/SVG/1.1/DTD/svg11.dtd">
<svg version="1.1" id="Capa_1" xmlns="http://www.w3.org/2000/svg" xmlns:xlink="http://www.w3.org/1999/xlink" x="0px" y="0px"
	 viewBox="0 0 57 57" style="enable-background:new 0 0 57 57;" xml:space="preserve">
<g>
	<path style="fill:#FFD581;" d="M48,28c0-0.31,0.032-0.612,0.092-0.904C45.214,19.051,37.606,13.5,28.5,13.5
		S11.786,19.051,8.908,27.096C8.968,27.388,9,27.69,9,28v14c0,0.059-0.015,0.115-0.018,0.173C12.047,49.97,19.615,55.5,28.5,55.5
		c8.885,0,16.453-5.53,19.518-13.326C48.015,42.115,48,42.059,48,42V28z"/>
	<path style="fill:#CB8252;" d="M29,51.5c-4.411,0-8-3.589-8-8c0-0.553,0.447-1,1-1s1,0.447,1,1c0,3.309,2.691,6,6,6s6-2.691,6-6
		c0-0.553,0.447-1,1-1s1,0.447,1,1C37,47.911,33.411,51.5,29,51.5z"/>
	<circle style="fill:#B27821;" cx="22" cy="36.5" r="2"/>
	<circle style="fill:#B27821;" cx="36" cy="36.5" r="2"/>
	<path style="fill:#AF8066;" d="M48.984,30.326c-1.919-10.856-10.215-18.15-20.643-18.15c-10.238,0-18.407,7.294-20.326,18.15
		c-0.091,0.509,0.223,1.003,0.722,1.139c0.16,0.044,3.991,1.07,9.273,1.07c5.188,0,12.669-1.038,18.855-5.979
		c0.16-0.131,0.247-0.058,0.304,0.025c1.412,2.104,3.776,5.626,7.791,5.626c1.093,0,2.251-0.267,3.442-0.792
		C48.825,31.229,49.064,30.779,48.984,30.326z"/>
	<path style="fill:#8697CB;" d="M4.5,46.5L4.5,46.5C2.025,46.5,0,44.475,0,42V28c0-2.475,2.025-4.5,4.5-4.5h0
		C6.975,23.5,9,25.525,9,28v14C9,44.475,6.975,46.5,4.5,46.5z"/>
	<path style="fill:#8697CB;" d="M52.5,46.5L52.5,46.5c-2.475,0-4.5-2.025-4.5-4.5V28c0-2.475,2.025-4.5,4.5-4.5h0
		c2.475,0,4.5,2.025,4.5,4.5v14C57,44.475,54.975,46.5,52.5,46.5z"/>
	<path style="fill:#556080;" d="M54,24.5h-2c0-12.364-9.663-21-23.5-21S5,12.136,5,24.5H3c0-13.327,10.725-23,25.5-23
		S54,11.173,54,24.5z"/>
</g>
<g>
</g>
<g>
</g>
<g>
</g>
<g>
</g>
<g>
</g>
<g>
</g>
<g>
</g>
<g>
</g>
<g>
</g>
<g>
</g>
<g>
</g>
<g>
</g>
<g>
</g>
<g>
</g>
<g>
</g>
</svg>
