<?xml version="1.0" encoding="iso-8859-1"?>
<!-- Generator: Adobe Illustrator 18.0.0, SVG Export Plug-In . SVG Version: 6.00 Build 0)  -->
<!DOCTYPE svg PUBLIC "-//W3C//DTD SVG 1.1//EN" "http://www.w3.org/Graphics/SVG/1.1/DTD/svg11.dtd">
<svg version="1.1" id="Capa_1" xmlns="http://www.w3.org/2000/svg" xmlns:xlink="http://www.w3.org/1999/xlink" x="0px" y="0px"
	 viewBox="0 0 58 58" style="enable-background:new 0 0 58 58;" xml:space="preserve">
<g>
	<path style="fill:#FDC794;" d="M29.392,54.999c11.246,0.156,17.52-4.381,21.008-9.189c3.603-4.966,4.764-11.283,3.647-17.323
		C50.004,6.641,29.392,6.826,29.392,6.826S8.781,6.641,4.738,28.488c-1.118,6.04,0.044,12.356,3.647,17.323
		C11.872,50.617,18.146,55.155,29.392,54.999z"/>
	<path style="fill:#F9A671;" d="M4.499,30.124c-0.453-0.429-0.985-0.687-1.559-0.687C1.316,29.437,0,31.418,0,33.862
		c0,2.443,1.316,4.424,2.939,4.424c0.687,0,1.311-0.37,1.811-0.964C4.297,34.969,4.218,32.537,4.499,30.124z"/>
	<path style="fill:#F9A671;" d="M57.823,26.298c-0.563-2.377-2.3-3.999-3.879-3.622c-0.491,0.117-0.898,0.43-1.225,0.855
		c0.538,1.515,0.994,3.154,1.328,4.957c0.155,0.837,0.261,1.679,0.328,2.522c0.52,0.284,1.072,0.402,1.608,0.274
		C57.562,30.907,58.386,28.675,57.823,26.298z"/>
	<path style="fill:#5E5F62;" d="M13.9,16.998c-0.256,0-0.512-0.098-0.707-0.293l-5-5c-0.391-0.391-0.391-1.023,0-1.414
		s1.023-0.391,1.414,0l5,5c0.391,0.391,0.391,1.023,0,1.414C14.412,16.901,14.156,16.998,13.9,16.998z"/>
	<path style="fill:#5E5F62;" d="M16.901,13.998c-0.367,0-0.72-0.202-0.896-0.553l-3-6c-0.247-0.494-0.047-1.095,0.447-1.342
		c0.495-0.246,1.095-0.047,1.342,0.447l3,6c0.247,0.494,0.047,1.095-0.447,1.342C17.204,13.964,17.051,13.998,16.901,13.998z"/>
	<path style="fill:#5E5F62;" d="M20.9,11.998c-0.419,0-0.809-0.265-0.949-0.684l-2-6C17.777,4.79,18.06,4.224,18.584,4.05
		c0.525-0.175,1.09,0.108,1.265,0.632l2,6c0.175,0.524-0.108,1.091-0.632,1.265C21.112,11.982,21.005,11.998,20.9,11.998z"/>
	<path style="fill:#5E5F62;" d="M25.899,10.998c-0.48,0-0.904-0.347-0.985-0.836l-1-6c-0.091-0.544,0.277-1.06,0.822-1.15
		c0.546-0.095,1.06,0.278,1.151,0.822l1,6c0.091,0.544-0.277,1.06-0.822,1.15C26.009,10.994,25.954,10.998,25.899,10.998z"/>
	<path style="fill:#5E5F62;" d="M29.9,10.998c-0.552,0-1-0.447-1-1v-6c0-0.553,0.448-1,1-1s1,0.447,1,1v6
		C30.9,10.551,30.453,10.998,29.9,10.998z"/>
	<path style="fill:#5E5F62;" d="M33.9,10.998c-0.104,0-0.211-0.017-0.316-0.052c-0.524-0.174-0.807-0.74-0.632-1.265l2-6
		c0.175-0.523,0.738-0.808,1.265-0.632c0.524,0.174,0.807,0.74,0.632,1.265l-2,6C34.709,10.734,34.319,10.998,33.9,10.998z"/>
	<path style="fill:#5E5F62;" d="M37.9,11.998c-0.104,0-0.211-0.017-0.316-0.052c-0.524-0.174-0.807-0.74-0.632-1.265l2-6
		c0.174-0.523,0.74-0.807,1.265-0.632c0.524,0.174,0.807,0.74,0.632,1.265l-2,6C38.709,11.734,38.319,11.998,37.9,11.998z"/>
	<path style="fill:#5E5F62;" d="M40.899,13.998c-0.15,0-0.303-0.034-0.446-0.105c-0.494-0.247-0.694-0.848-0.447-1.342l3-6
		c0.248-0.494,0.846-0.693,1.342-0.447c0.494,0.247,0.694,0.848,0.447,1.342l-3,6C41.62,13.796,41.267,13.998,40.899,13.998z"/>
	<g>
		<path style="fill:#FFFFFF;" d="M15.944,21.64C15.349,22.571,15,23.675,15,24.862c0,3.314,2.686,6,6,6
			c2.983,0,5.451-2.179,5.915-5.031L16,21.862L15.944,21.64z"/>
		<path style="fill:#FFFFFF;" d="M41,19.862l-13.935,5.972c0.481,3.959,3.847,7.028,7.935,7.028c4.418,0,8-3.582,8-8
			c0-1.948-0.698-3.733-1.856-5.121L41,19.862z"/>
		<path style="fill:#F9A671;" d="M26.915,25.831L27,25.862l0.065-0.028C27.026,25.514,27,25.191,27,24.862
			C27,25.192,26.966,25.514,26.915,25.831z"/>
		<path style="fill:#F9A671;" d="M21,18.862c-2.127,0-3.991,1.11-5.056,2.779L16,21.862l10.915,3.969
			C26.966,25.514,27,25.192,27,24.862C27,21.548,24.314,18.862,21,18.862z"/>
		<path style="fill:#F9A671;" d="M41.144,19.741c-1.467-1.759-3.674-2.879-6.144-2.879c-4.418,0-8,3.582-8,8
			c0,0.33,0.026,0.653,0.065,0.972L41,19.862L41.144,19.741z"/>
		<circle style="fill:#7F5B53;" cx="22" cy="26.862" r="1"/>
		<circle style="fill:#7F5B53;" cx="32.5" cy="27.362" r="1.5"/>
	</g>
	<path style="fill:#8697CB;" d="M28.03,42.997L28.03,42.997c-0.301-0.602-0.19-1.328,0.285-1.806
		c0.868-0.875,2.362-2.306,3.983-3.521c-1.23-0.603-2.67-0.842-4.192-0.529c-2.643,0.543-4.728,2.761-5.097,5.435
		c-0.56,4.052,2.618,7.512,6.58,7.426c2.558-0.055,4.83-1.732,5.845-4.081c0.613-1.42,0.615-2.749,0.319-3.962
		c-0.84,0.7-1.886,1.461-3.191,2.285C30.974,45.243,28.868,44.674,28.03,42.997z"/>
	<g>
		<path style="fill:#7D6599;" d="M33.971,36.544c-1.887,1.154-3.655,2.899-4.747,4.084c-0.675,0.733-0.757,1.83-0.204,2.659l0,0
			c0.613,0.919,1.826,1.226,2.805,0.713c2.766-1.448,4.303-2.18,5.457-3.396C39.353,38.42,36.538,34.974,33.971,36.544z"/>
		<path style="fill:#7D6599;" d="M30.817,45.25c-1.026,0-2.023-0.5-2.628-1.408c-0.812-1.218-0.688-2.818,0.3-3.892
			c1.181-1.281,3-3.061,4.96-4.26h0c1.578-0.965,3.512-0.613,4.702,0.855c1.181,1.46,1.123,3.411-0.143,4.746
			c-1.152,1.215-2.571,1.954-4.921,3.178l-0.797,0.416C31.819,45.132,31.314,45.25,30.817,45.25z M35.321,37.149
			c-0.261,0-0.541,0.073-0.828,0.249h0c-1.764,1.078-3.438,2.721-4.533,3.908c-0.361,0.393-0.405,0.979-0.107,1.427
			c0.33,0.495,0.977,0.659,1.509,0.382l0.801-0.418c2.238-1.166,3.472-1.808,4.394-2.78c0.696-0.734,0.457-1.597,0.04-2.111
			C36.312,37.453,35.855,37.149,35.321,37.149z M33.971,36.544h0.01H33.971z"/>
	</g>
</g>
<g>
</g>
<g>
</g>
<g>
</g>
<g>
</g>
<g>
</g>
<g>
</g>
<g>
</g>
<g>
</g>
<g>
</g>
<g>
</g>
<g>
</g>
<g>
</g>
<g>
</g>
<g>
</g>
<g>
</g>
</svg>
