<?xml version="1.0" encoding="iso-8859-1"?>
<!-- Generator: Adobe Illustrator 18.0.0, SVG Export Plug-In . SVG Version: 6.00 Build 0)  -->
<!DOCTYPE svg PUBLIC "-//W3C//DTD SVG 1.1//EN" "http://www.w3.org/Graphics/SVG/1.1/DTD/svg11.dtd">
<svg version="1.1" id="Capa_1" xmlns="http://www.w3.org/2000/svg" xmlns:xlink="http://www.w3.org/1999/xlink" x="0px" y="0px"
	 viewBox="0 0 57 57" style="enable-background:new 0 0 57 57;" xml:space="preserve">
<g>
	<path style="fill:#6E5847;" d="M28.5,0C14.475,0,3,11.475,3,25.5V50c0,2.2,1.8,4,4,4h6.777c4.16,2.021,9.237,3,14.723,3
		s10.563-0.979,14.723-3H50c2.2,0,4-1.8,4-4V25.5C54,11.475,42.525,0,28.5,0z"/>
	<path style="fill:#FDC794;" d="M3.869,29.894C3.305,32.001,3,34.215,3,36.5C3,50.583,14.417,57,28.5,57S54,50.583,54,36.5
		C54,22.842,42.495,11.661,29,11h-1C14.505,11.661,3,22.842,3,36.5C3,50.583,14.417,57,28.5,57S54,50.583,54,36.5"/>
	<path style="fill:#F9A671;" d="M29.149,52.676c-3.485,0-6.934-1.33-10.278-3.971c-0.433-0.343-0.507-0.972-0.165-1.405
		c0.343-0.434,0.972-0.506,1.405-0.165c3.554,2.807,7.193,3.951,10.813,3.407c6.728-1.014,11.267-7.503,11.312-7.568
		c0.312-0.453,0.935-0.569,1.391-0.256c0.455,0.313,0.569,0.936,0.256,1.391c-0.204,0.296-5.085,7.27-12.66,8.411
		C30.53,52.624,29.839,52.676,29.149,52.676z"/>
	<path style="fill:#F9A671;" d="M44.999,45.676c-0.209,0-0.419-0.065-0.599-0.2l-4-3c-0.442-0.331-0.532-0.958-0.2-1.399
		c0.331-0.442,0.959-0.53,1.399-0.2l4,3c0.442,0.331,0.532,0.958,0.2,1.399C45.604,45.538,45.304,45.676,44.999,45.676z"/>
	<path style="fill:#F9A671;" d="M17.001,49.676c-0.305,0-0.604-0.138-0.801-0.4c-0.332-0.441-0.242-1.068,0.2-1.399l4-3
		c0.441-0.331,1.067-0.243,1.399,0.2c0.332,0.441,0.242,1.068-0.2,1.399l-4,3C17.42,49.61,17.21,49.676,17.001,49.676z"/>
	<g>
		<circle style="fill:#D0E8F9;" cx="18" cy="29.676" r="8"/>
		<path style="fill:#556080;" d="M18,38.676c-4.963,0-9-4.037-9-9s4.037-9,9-9s9,4.037,9,9S22.963,38.676,18,38.676z M18,22.676
			c-3.859,0-7,3.141-7,7s3.141,7,7,7s7-3.141,7-7S21.859,22.676,18,22.676z"/>
	</g>
	<g>
		<circle style="fill:#D0E8F9;" cx="39" cy="29.676" r="8"/>
		<path style="fill:#556080;" d="M39,38.676c-4.963,0-9-4.037-9-9s4.037-9,9-9s9,4.037,9,9S43.963,38.676,39,38.676z M39,22.676
			c-3.859,0-7,3.141-7,7s3.141,7,7,7s7-3.141,7-7S42.859,22.676,39,22.676z"/>
	</g>
	<path style="fill:#FFFFFF;" d="M15,30.676c-0.256,0-0.512-0.098-0.707-0.293c-0.391-0.391-0.391-1.023,0-1.414l4-4
		c0.391-0.391,1.023-0.391,1.414,0s0.391,1.023,0,1.414l-4,4C15.512,30.578,15.256,30.676,15,30.676z"/>
	<path style="fill:#FFFFFF;" d="M16,34.676c-0.256,0-0.512-0.098-0.707-0.293c-0.391-0.391-0.391-1.023,0-1.414l4-4
		c0.391-0.391,1.023-0.391,1.414,0s0.391,1.023,0,1.414l-4,4C16.512,34.578,16.256,34.676,16,34.676z"/>
	<path style="fill:#FFFFFF;" d="M36,30.676c-0.256,0-0.512-0.098-0.707-0.293c-0.391-0.391-0.391-1.023,0-1.414l4-4
		c0.391-0.391,1.023-0.391,1.414,0s0.391,1.023,0,1.414l-4,4C36.512,30.578,36.256,30.676,36,30.676z"/>
	<path style="fill:#FFFFFF;" d="M37,34.676c-0.256,0-0.512-0.098-0.707-0.293c-0.391-0.391-0.391-1.023,0-1.414l4-4
		c0.391-0.391,1.023-0.391,1.414,0s0.391,1.023,0,1.414l-4,4C37.512,34.578,37.256,34.676,37,34.676z"/>
	<path style="fill:#556080;" d="M32,29.676h-2c0-0.532-0.701-1-1.5-1s-1.5,0.468-1.5,1h-2c0-1.654,1.57-3,3.5-3S32,28.021,32,29.676
		z"/>
</g>
<g>
</g>
<g>
</g>
<g>
</g>
<g>
</g>
<g>
</g>
<g>
</g>
<g>
</g>
<g>
</g>
<g>
</g>
<g>
</g>
<g>
</g>
<g>
</g>
<g>
</g>
<g>
</g>
<g>
</g>
</svg>
