<?xml version="1.0" encoding="iso-8859-1"?>
<!-- Generator: Adobe Illustrator 18.0.0, SVG Export Plug-In . SVG Version: 6.00 Build 0)  -->
<!DOCTYPE svg PUBLIC "-//W3C//DTD SVG 1.1//EN" "http://www.w3.org/Graphics/SVG/1.1/DTD/svg11.dtd">
<svg version="1.1" id="Capa_1" xmlns="http://www.w3.org/2000/svg" xmlns:xlink="http://www.w3.org/1999/xlink" x="0px" y="0px"
	 viewBox="0 0 51 51" style="enable-background:new 0 0 51 51;" xml:space="preserve">
<g>
	<path style="fill:#FFDB2B;" d="M42.5,47h-34c-2.2,0-4-1.8-4-4V10c0-2.2,1.8-4,4-4h34c2.2,0,4,1.8,4,4v33C46.5,45.2,44.7,47,42.5,47
		z"/>
	<path style="fill:#F18D46;" d="M33.5,38h-16c-0.553,0-1-0.447-1-1s0.447-1,1-1h16c0.553,0,1,0.447,1,1S34.053,38,33.5,38z"/>
	<rect x="21.5" y="38" style="fill:#FFFFFF;" width="4" height="6"/>
	<rect x="25.5" y="38" style="fill:#ECF0F1;" width="4" height="4"/>
	<g>
		<circle style="fill:#D0E8F9;" cx="16.5" cy="24" r="6"/>
		<path style="fill:#556080;" d="M16.5,31c-3.859,0-7-3.141-7-7s3.141-7,7-7s7,3.141,7,7S20.359,31,16.5,31z M16.5,19
			c-2.757,0-5,2.243-5,5s2.243,5,5,5s5-2.243,5-5S19.257,19,16.5,19z"/>
	</g>
	<g>
		<circle style="fill:#D0E8F9;" cx="34.5" cy="24" r="6"/>
		<path style="fill:#556080;" d="M34.5,31c-3.859,0-7-3.141-7-7s3.141-7,7-7s7,3.141,7,7S38.359,31,34.5,31z M34.5,19
			c-2.757,0-5,2.243-5,5s2.243,5,5,5s5-2.243,5-5S37.257,19,34.5,19z"/>
	</g>
	<path style="fill:#FEC722;" d="M37.195,51H13.805c-0.721,0-1.305-0.584-1.305-1.305V47h26v2.695C38.5,50.416,37.916,51,37.195,51z"
		/>
	<path style="fill:#FEC722;" d="M19.805,0l11.389,0C31.916,0,32.5,0.584,32.5,1.305V6h-14V1.305C18.5,0.584,19.084,0,19.805,0z"/>
	<path style="fill:#F18D46;" d="M12.3,34.76c-0.27,0-0.52-0.1-0.71-0.29s-0.29-0.45-0.29-0.71s0.1-0.52,0.29-0.71
		c0.38-0.37,1.04-0.37,1.41,0c0.189,0.19,0.3,0.45,0.3,0.71s-0.11,0.52-0.29,0.71C12.819,34.649,12.56,34.76,12.3,34.76z"/>
	<path style="fill:#F18D46;" d="M12.5,39c-0.271,0-0.521-0.11-0.71-0.29c-0.181-0.19-0.29-0.44-0.29-0.71
		c0-0.26,0.109-0.521,0.29-0.71c0.37-0.37,1.04-0.37,1.42,0c0.18,0.189,0.29,0.45,0.29,0.71c0,0.27-0.11,0.52-0.29,0.71
		C13.02,38.89,12.76,39,12.5,39z"/>
	<path style="fill:#F18D46;" d="M9,39.88c-0.26,0-0.521-0.11-0.71-0.3C8.109,39.399,8,39.14,8,38.87c0-0.261,0.109-0.511,0.29-0.7
		c0.37-0.37,1.04-0.38,1.42-0.01C9.899,38.359,10,38.609,10,38.87c0,0.27-0.11,0.529-0.29,0.71C9.52,39.77,9.26,39.88,9,39.88z"/>
	<path style="fill:#F18D46;" d="M38.7,34.76c-0.261,0-0.521-0.11-0.71-0.29c-0.181-0.19-0.29-0.45-0.29-0.71s0.109-0.52,0.29-0.71
		c0.38-0.37,1.04-0.37,1.42,0c0.189,0.19,0.29,0.45,0.29,0.71s-0.101,0.52-0.29,0.71C39.22,34.66,38.97,34.76,38.7,34.76z"/>
	<path style="fill:#F18D46;" d="M38.5,39c-0.271,0-0.521-0.11-0.71-0.29c-0.181-0.181-0.29-0.44-0.29-0.71
		c0-0.271,0.1-0.521,0.29-0.71c0.37-0.37,1.05-0.37,1.42,0c0.18,0.189,0.29,0.45,0.29,0.71s-0.11,0.52-0.29,0.71
		C39.02,38.89,38.77,39,38.5,39z"/>
	<path style="fill:#F18D46;" d="M42,39.88c-0.26,0-0.521-0.11-0.71-0.3C41.1,39.399,41,39.14,41,38.87c0-0.25,0.1-0.511,0.29-0.7
		c0.38-0.38,1.05-0.37,1.41-0.01c0.199,0.199,0.3,0.449,0.3,0.71c0,0.27-0.11,0.529-0.3,0.71C42.52,39.77,42.26,39.88,42,39.88z"/>
	<path style="fill:#556080;" d="M29.5,24h-2c0-0.408-0.779-1-2-1s-2,0.592-2,1h-2c0-1.683,1.757-3,4-3S29.5,22.317,29.5,24z"/>
	<polygon style="fill:#556080;" points="46.5,14.767 38.854,21.236 40.146,22.764 46.5,17.387 	"/>
	<polygon style="fill:#556080;" points="4.5,17.565 10.867,22.774 12.133,21.226 4.5,14.98 	"/>
</g>
<g>
</g>
<g>
</g>
<g>
</g>
<g>
</g>
<g>
</g>
<g>
</g>
<g>
</g>
<g>
</g>
<g>
</g>
<g>
</g>
<g>
</g>
<g>
</g>
<g>
</g>
<g>
</g>
<g>
</g>
</svg>
