<?xml version="1.0" encoding="iso-8859-1"?>
<!-- Generator: Adobe Illustrator 18.0.0, SVG Export Plug-In . SVG Version: 6.00 Build 0)  -->
<!DOCTYPE svg PUBLIC "-//W3C//DTD SVG 1.1//EN" "http://www.w3.org/Graphics/SVG/1.1/DTD/svg11.dtd">
<svg version="1.1" id="Capa_1" xmlns="http://www.w3.org/2000/svg" xmlns:xlink="http://www.w3.org/1999/xlink" x="0px" y="0px"
	 viewBox="0 0 58 58" style="enable-background:new 0 0 58 58;" xml:space="preserve">
<g>
	<path style="fill:#FDC794;" d="M29.392,54.999c11.246,0.156,17.52-4.381,21.008-9.189c3.603-4.966,4.764-11.283,3.647-17.323
		C50.004,6.642,29.392,6.826,29.392,6.826S8.781,6.642,4.738,28.488c-1.118,6.04,0.044,12.356,3.647,17.323
		C11.872,50.618,18.146,55.155,29.392,54.999z"/>
	<path style="fill:#F9A671;" d="M4.499,30.125c-0.453-0.429-0.985-0.687-1.559-0.687C1.316,29.438,0,31.419,0,33.862
		c0,2.443,1.316,4.424,2.939,4.424c0.687,0,1.311-0.37,1.811-0.964C4.297,34.97,4.218,32.538,4.499,30.125z"/>
	<path style="fill:#F9A671;" d="M57.823,26.298c-0.563-2.377-2.3-3.999-3.879-3.622c-0.491,0.117-0.898,0.43-1.225,0.855
		c0.538,1.515,0.994,3.154,1.328,4.957c0.155,0.837,0.261,1.679,0.328,2.522c0.52,0.284,1.072,0.402,1.608,0.274
		C57.562,30.907,58.386,28.675,57.823,26.298z"/>
	<path style="fill:#5E5F62;" d="M13.9,16.999c-0.256,0-0.512-0.098-0.707-0.293l-5-5c-0.391-0.391-0.391-1.023,0-1.414
		s1.023-0.391,1.414,0l5,5c0.391,0.391,0.391,1.023,0,1.414C14.412,16.901,14.156,16.999,13.9,16.999z"/>
	<path style="fill:#5E5F62;" d="M16.901,13.999c-0.367,0-0.72-0.202-0.896-0.553l-3-6c-0.247-0.494-0.047-1.095,0.447-1.342
		c0.494-0.245,1.094-0.047,1.342,0.447l3,6c0.247,0.494,0.047,1.095-0.447,1.342C17.204,13.964,17.052,13.999,16.901,13.999z"/>
	<path style="fill:#5E5F62;" d="M20.9,11.999c-0.419,0-0.809-0.265-0.948-0.684l-2-6c-0.175-0.524,0.108-1.091,0.632-1.265
		c0.529-0.176,1.091,0.108,1.265,0.632l2,6c0.175,0.524-0.108,1.091-0.632,1.265C21.111,11.982,21.005,11.999,20.9,11.999z"/>
	<path style="fill:#5E5F62;" d="M25.899,10.999c-0.48,0-0.904-0.347-0.985-0.836l-1-6c-0.091-0.544,0.277-1.06,0.822-1.15
		c0.542-0.098,1.061,0.277,1.15,0.822l1,6c0.091,0.544-0.277,1.06-0.822,1.15C26.009,10.995,25.954,10.999,25.899,10.999z"/>
	<path style="fill:#5E5F62;" d="M29.9,10.999c-0.553,0-1-0.447-1-1v-6c0-0.553,0.447-1,1-1s1,0.447,1,1v6
		C30.9,10.551,30.453,10.999,29.9,10.999z"/>
	<path style="fill:#5E5F62;" d="M33.9,10.999c-0.104,0-0.211-0.017-0.316-0.052c-0.523-0.174-0.807-0.74-0.632-1.265l2-6
		c0.174-0.523,0.735-0.808,1.265-0.632c0.523,0.174,0.807,0.74,0.632,1.265l-2,6C34.709,10.734,34.319,10.999,33.9,10.999z"/>
	<path style="fill:#5E5F62;" d="M37.9,11.999c-0.104,0-0.211-0.017-0.316-0.052c-0.523-0.174-0.807-0.74-0.632-1.265l2-6
		c0.175-0.523,0.736-0.808,1.265-0.632c0.523,0.174,0.807,0.74,0.632,1.265l-2,6C38.709,11.734,38.319,11.999,37.9,11.999z"/>
	<path style="fill:#5E5F62;" d="M40.899,13.999c-0.15,0-0.303-0.034-0.446-0.105c-0.494-0.247-0.694-0.848-0.447-1.342l3-6
		c0.247-0.494,0.849-0.692,1.342-0.447c0.494,0.247,0.694,0.848,0.447,1.342l-3,6C41.619,13.796,41.267,13.999,40.899,13.999z"/>
	<path style="fill:#F9A671;" d="M46.6,40.204l-4-3c-0.44-0.331-1.067-0.242-1.399,0.2c-0.332,0.441-0.242,1.068,0.2,1.399
		l1.41,1.058c-1.267,1.599-5.325,6.17-10.887,7.009c-3.516,0.524-7.048-0.549-10.504-3.182l1.179-0.885
		c0.442-0.331,0.532-0.958,0.2-1.399c-0.331-0.443-0.959-0.532-1.399-0.2l-4,3c-0.442,0.331-0.532,0.958-0.2,1.399
		c0.196,0.263,0.496,0.4,0.801,0.4c0.209,0,0.419-0.065,0.599-0.2l1.177-0.883c0.034,0.036,0.055,0.08,0.095,0.112
		c3.345,2.641,6.793,3.971,10.278,3.971c0.689,0,1.381-0.052,2.072-0.156c6.352-0.957,10.797-6.001,12.191-7.785l0.988,0.741
		c0.18,0.135,0.39,0.2,0.599,0.2c0.305,0,0.604-0.138,0.801-0.4C47.132,41.162,47.042,40.535,46.6,40.204z"/>
	<g>
		<circle style="fill:#D0E8F9;" cx="19" cy="26.003" r="8"/>
		<path style="fill:#556080;" d="M19,35.004c-4.963,0-9-4.037-9-9s4.037-9,9-9s9,4.037,9,9S23.963,35.004,19,35.004z M19,19.004
			c-3.859,0-7,3.141-7,7s3.141,7,7,7s7-3.141,7-7S22.859,19.004,19,19.004z"/>
	</g>
	<g>
		<circle style="fill:#D0E8F9;" cx="40" cy="26.003" r="8"/>
		<path style="fill:#556080;" d="M40,35.004c-4.963,0-9-4.037-9-9s4.037-9,9-9s9,4.037,9,9S44.963,35.004,40,35.004z M40,19.004
			c-3.859,0-7,3.141-7,7s3.141,7,7,7s7-3.141,7-7S43.859,19.004,40,19.004z"/>
	</g>
	<path style="fill:#FFFFFF;" d="M16,27.004c-0.256,0-0.512-0.098-0.707-0.293c-0.391-0.391-0.391-1.023,0-1.414l4-4
		c0.391-0.391,1.023-0.391,1.414,0s0.391,1.023,0,1.414l-4,4C16.512,26.906,16.256,27.004,16,27.004z"/>
	<path style="fill:#FFFFFF;" d="M17,31.004c-0.256,0-0.512-0.098-0.707-0.293c-0.391-0.391-0.391-1.023,0-1.414l4-4
		c0.391-0.391,1.023-0.391,1.414,0s0.391,1.023,0,1.414l-4,4C17.512,30.906,17.256,31.004,17,31.004z"/>
	<path style="fill:#FFFFFF;" d="M37,27.004c-0.256,0-0.512-0.098-0.707-0.293c-0.391-0.391-0.391-1.023,0-1.414l4-4
		c0.391-0.391,1.023-0.391,1.414,0s0.391,1.023,0,1.414l-4,4C37.512,26.906,37.256,27.004,37,27.004z"/>
	<path style="fill:#FFFFFF;" d="M38,31.004c-0.256,0-0.512-0.098-0.707-0.293c-0.391-0.391-0.391-1.023,0-1.414l4-4
		c0.391-0.391,1.023-0.391,1.414,0s0.391,1.023,0,1.414l-4,4C38.512,30.906,38.256,31.004,38,31.004z"/>
	<path style="fill:#556080;" d="M32,27.004c-0.553,0-1-0.447-1-1c0-0.532-0.701-1-1.5-1s-1.5,0.468-1.5,1c0,0.553-0.447,1-1,1
		s-1-0.447-1-1c0-1.654,1.57-3,3.5-3s3.5,1.346,3.5,3C33,26.556,32.553,27.004,32,27.004z"/>
</g>
<g>
</g>
<g>
</g>
<g>
</g>
<g>
</g>
<g>
</g>
<g>
</g>
<g>
</g>
<g>
</g>
<g>
</g>
<g>
</g>
<g>
</g>
<g>
</g>
<g>
</g>
<g>
</g>
<g>
</g>
</svg>
