<?xml version="1.0" encoding="iso-8859-1"?>
<!-- Generator: Adobe Illustrator 18.0.0, SVG Export Plug-In . SVG Version: 6.00 Build 0)  -->
<!DOCTYPE svg PUBLIC "-//W3C//DTD SVG 1.1//EN" "http://www.w3.org/Graphics/SVG/1.1/DTD/svg11.dtd">
<svg version="1.1" id="Capa_1" xmlns="http://www.w3.org/2000/svg" xmlns:xlink="http://www.w3.org/1999/xlink" x="0px" y="0px"
	 viewBox="0 0 42 42" style="enable-background:new 0 0 42 42;" xml:space="preserve">
<g>
	<circle style="fill:#FBD971;" cx="21" cy="21" r="21"/>
	<path style="fill:#F0C419;" d="M18.387,34.993c-1.981,0-3.953-0.38-5.771-1.138c-0.51-0.212-0.751-0.798-0.538-1.308
		c0.212-0.509,0.795-0.752,1.308-0.538c3.052,1.271,6.606,1.313,9.753,0.116c3.217-1.224,5.682-3.561,6.939-6.578
		c0.211-0.509,0.796-0.751,1.308-0.538c0.51,0.212,0.75,0.798,0.538,1.308c-1.47,3.529-4.338,6.257-8.073,7.678
		C22.1,34.661,20.239,34.993,18.387,34.993z"/>
	<g>
		<path style="fill:#D0E8F9;" d="M15,21H9c-2.2,0-4-1.8-4-4v-4c0-2.2,1.8-4,4-4h6c2.2,0,4,1.8,4,4v4C19,19.2,17.2,21,15,21z"/>
		<path style="fill:#556080;" d="M15,22H9c-2.757,0-5-2.243-5-5v-4c0-2.757,2.243-5,5-5h6c2.757,0,5,2.243,5,5v4
			C20,19.757,17.757,22,15,22z M9,10c-1.654,0-3,1.346-3,3v4c0,1.654,1.346,3,3,3h6c1.654,0,3-1.346,3-3v-4c0-1.654-1.346-3-3-3H9z"
			/>
	</g>
	<rect x="19" y="14" style="fill:#556080;" width="4" height="2"/>
	<circle style="fill:#556080;" cx="12" cy="15" r="3"/>
	<g>
		<path style="fill:#D0E8F9;" d="M33,21h-6c-2.2,0-4-1.8-4-4v-4c0-2.2,1.8-4,4-4h6c2.2,0,4,1.8,4,4v4C37,19.2,35.2,21,33,21z"/>
		<path style="fill:#556080;" d="M33,22h-6c-2.757,0-5-2.243-5-5v-4c0-2.757,2.243-5,5-5h6c2.757,0,5,2.243,5,5v4
			C38,19.757,35.757,22,33,22z M27,10c-1.654,0-3,1.346-3,3v4c0,1.654,1.346,3,3,3h6c1.654,0,3-1.346,3-3v-4c0-1.654-1.346-3-3-3H27
			z"/>
	</g>
	<circle style="fill:#556080;" cx="30" cy="15" r="3"/>
	<path style="fill:#556080;" d="M4.324,16.737l1.352-1.475l-3.607-3.306c-0.305,0.638-0.578,1.292-0.819,1.963L4.324,16.737z"/>
	<path style="fill:#556080;" d="M39.833,11.753l-3.54,3.54l1.414,1.414l2.975-2.975C40.431,13.055,40.149,12.395,39.833,11.753z"/>
</g>
<g>
</g>
<g>
</g>
<g>
</g>
<g>
</g>
<g>
</g>
<g>
</g>
<g>
</g>
<g>
</g>
<g>
</g>
<g>
</g>
<g>
</g>
<g>
</g>
<g>
</g>
<g>
</g>
<g>
</g>
</svg>
