<?xml version="1.0" encoding="iso-8859-1"?>
<!-- Generator: Adobe Illustrator 18.0.0, SVG Export Plug-In . SVG Version: 6.00 Build 0)  -->
<!DOCTYPE svg PUBLIC "-//W3C//DTD SVG 1.1//EN" "http://www.w3.org/Graphics/SVG/1.1/DTD/svg11.dtd">
<svg version="1.1" id="Capa_1" xmlns="http://www.w3.org/2000/svg" xmlns:xlink="http://www.w3.org/1999/xlink" x="0px" y="0px"
	 viewBox="0 0 51 51" style="enable-background:new 0 0 51 51;" xml:space="preserve">
<g>
	<path style="fill:#FFDB2B;" d="M42.5,47h-34c-2.2,0-4-1.8-4-4V10c0-2.2,1.8-4,4-4h34c2.2,0,4,1.8,4,4v33C46.5,45.2,44.7,47,42.5,47
		z"/>
	<path style="fill:#E57E25;" d="M24.778,42.001c-2.018,0-4.006-0.765-5.928-2.281c-0.433-0.343-0.507-0.972-0.165-1.405
		c0.342-0.433,0.972-0.506,1.405-0.165c1.853,1.463,3.738,2.064,5.601,1.782c3.509-0.528,5.894-3.938,5.918-3.973
		c0.313-0.453,0.935-0.568,1.391-0.256c0.455,0.313,0.569,0.936,0.256,1.391c-0.116,0.169-2.909,4.159-7.267,4.815
		C25.585,41.971,25.181,42.001,24.778,42.001z"/>
	<path style="fill:#E57E25;" d="M33.499,38.15c-0.209,0-0.419-0.065-0.599-0.2l-2.2-1.65c-0.442-0.331-0.532-0.958-0.2-1.399
		c0.331-0.443,0.958-0.531,1.399-0.2l2.2,1.65c0.442,0.331,0.532,0.958,0.2,1.399C34.104,38.013,33.803,38.15,33.499,38.15z"/>
	<path style="fill:#E57E25;" d="M18.101,40.35c-0.305,0-0.604-0.138-0.801-0.4c-0.332-0.441-0.242-1.068,0.2-1.399l2.2-1.649
		c0.441-0.332,1.068-0.243,1.399,0.2c0.332,0.441,0.242,1.068-0.2,1.399l-2.2,1.649C18.52,40.284,18.31,40.35,18.101,40.35z"/>
	<g>
		<circle style="fill:#D0E8F9;" cx="17.231" cy="22.581" r="6.419"/>
		<path style="fill:#556080;" d="M17.231,30c-4.091,0-7.419-3.328-7.419-7.419s3.328-7.419,7.419-7.419s7.419,3.328,7.419,7.419
			S21.322,30,17.231,30z M17.231,17.162c-2.988,0-5.419,2.431-5.419,5.419S14.243,28,17.231,28s5.419-2.431,5.419-5.419
			S20.22,17.162,17.231,17.162z"/>
	</g>
	<g>
		<circle style="fill:#D0E8F9;" cx="34.081" cy="22.581" r="6.419"/>
		<path style="fill:#556080;" d="M34.081,30c-4.091,0-7.419-3.328-7.419-7.419s3.328-7.419,7.419-7.419S41.5,18.49,41.5,22.581
			S38.172,30,34.081,30z M34.081,17.162c-2.988,0-5.419,2.431-5.419,5.419S31.093,28,34.081,28s5.419-2.431,5.419-5.419
			S37.069,17.162,34.081,17.162z"/>
	</g>
	<path style="fill:#FFFFFF;" d="M14.5,24c-0.256,0-0.512-0.098-0.707-0.293c-0.391-0.391-0.391-1.023,0-1.414l3.209-3.209
		c0.391-0.391,1.023-0.391,1.414,0s0.391,1.023,0,1.414l-3.209,3.209C15.012,23.902,14.756,24,14.5,24z"/>
	<path style="fill:#FFFFFF;" d="M17.291,26.791c-0.256,0-0.512-0.098-0.707-0.293c-0.391-0.391-0.391-1.023,0-1.414l3.209-3.21
		c0.391-0.391,1.023-0.391,1.414,0s0.391,1.023,0,1.414l-3.209,3.21C17.803,26.693,17.547,26.791,17.291,26.791z"/>
	<path style="fill:#FFFFFF;" d="M31.674,23.581c-0.256,0-0.512-0.098-0.707-0.293c-0.391-0.391-0.391-1.023,0-1.414l3.21-3.209
		c0.391-0.391,1.023-0.391,1.414,0s0.391,1.023,0,1.414l-3.21,3.209C32.186,23.483,31.93,23.581,31.674,23.581z"/>
	<path style="fill:#FFFFFF;" d="M33.5,26.791c-0.256,0-0.512-0.098-0.707-0.293c-0.391-0.391-0.391-1.023,0-1.414l3.209-3.21
		c0.391-0.391,1.023-0.391,1.414,0s0.391,1.023,0,1.414l-3.209,3.21C34.012,26.693,33.756,26.791,33.5,26.791z"/>
	<path style="fill:#556080;" d="M27.662,23.581c-0.553,0-1-0.447-1-1c0-0.285-0.43-0.604-1.006-0.604s-1.006,0.319-1.006,0.604
		c0,0.553-0.447,1-1,1s-1-0.447-1-1c0-1.437,1.349-2.604,3.006-2.604s3.006,1.168,3.006,2.604
		C28.662,23.134,28.215,23.581,27.662,23.581z"/>
	<path style="fill:#E57E25;" d="M14.3,32.89c-0.27,0-0.53-0.11-0.71-0.3c-0.19-0.18-0.29-0.44-0.29-0.7s0.1-0.52,0.29-0.71
		c0.38-0.38,1.04-0.37,1.42,0c0.18,0.19,0.29,0.45,0.29,0.71s-0.11,0.521-0.29,0.7C14.819,32.779,14.56,32.89,14.3,32.89z"/>
	<path style="fill:#E57E25;" d="M14.5,37.12c-0.271,0-0.53-0.101-0.71-0.29c-0.181-0.181-0.29-0.44-0.29-0.7
		c0-0.271,0.109-0.53,0.3-0.71c0.35-0.37,1.03-0.38,1.41,0c0.18,0.18,0.29,0.439,0.29,0.71c0,0.26-0.11,0.52-0.29,0.7
		C15.02,37.02,14.77,37.12,14.5,37.12z"/>
	<path style="fill:#E57E25;" d="M11,38c-0.26,0-0.521-0.11-0.71-0.29C10.109,37.52,10,37.26,10,37s0.109-0.521,0.29-0.71
		c0.37-0.36,1.05-0.37,1.42,0C11.899,36.479,12,36.74,12,37s-0.101,0.52-0.29,0.71C11.52,37.89,11.27,38,11,38z"/>
	<path style="fill:#E57E25;" d="M38.21,33.76c-0.271,0-0.53-0.1-0.71-0.29c-0.19-0.19-0.3-0.45-0.3-0.71s0.109-0.52,0.3-0.71
		c0.37-0.37,1.04-0.37,1.41,0c0.189,0.19,0.29,0.44,0.29,0.71c0,0.26-0.101,0.52-0.29,0.71C38.72,33.66,38.47,33.76,38.21,33.76z"/>
	<path style="fill:#E57E25;" d="M38,38c-0.26,0-0.521-0.11-0.71-0.29C37.109,37.52,37,37.26,37,37s0.109-0.521,0.29-0.71
		c0.38-0.37,1.05-0.37,1.42,0C38.899,36.479,39,36.74,39,37s-0.101,0.52-0.29,0.71C38.52,37.89,38.26,38,38,38z"/>
	<path style="fill:#E57E25;" d="M41.5,38.87c-0.26,0-0.521-0.101-0.71-0.29c-0.19-0.19-0.29-0.45-0.29-0.7
		c0-0.271,0.1-0.521,0.29-0.71c0.37-0.37,1.05-0.37,1.42,0c0.18,0.189,0.29,0.439,0.29,0.71c0,0.26-0.11,0.51-0.29,0.7
		C42.02,38.77,41.76,38.87,41.5,38.87z"/>
	<path style="fill:#FEC722;" d="M37.195,51H13.805c-0.721,0-1.305-0.584-1.305-1.305V47h26v2.695C38.5,50.416,37.916,51,37.195,51z"
		/>
	<path style="fill:#FEC722;" d="M19.805,0l11.389,0C31.916,0,32.5,0.584,32.5,1.305V6h-14V1.305C18.5,0.584,19.084,0,19.805,0z"/>
</g>
<g>
</g>
<g>
</g>
<g>
</g>
<g>
</g>
<g>
</g>
<g>
</g>
<g>
</g>
<g>
</g>
<g>
</g>
<g>
</g>
<g>
</g>
<g>
</g>
<g>
</g>
<g>
</g>
<g>
</g>
</svg>
