<?xml version="1.0" encoding="iso-8859-1"?>
<!-- Generator: Adobe Illustrator 18.0.0, SVG Export Plug-In . SVG Version: 6.00 Build 0)  -->
<!DOCTYPE svg PUBLIC "-//W3C//DTD SVG 1.1//EN" "http://www.w3.org/Graphics/SVG/1.1/DTD/svg11.dtd">
<svg version="1.1" id="Capa_1" xmlns="http://www.w3.org/2000/svg" xmlns:xlink="http://www.w3.org/1999/xlink" x="0px" y="0px"
	 viewBox="0 0 42 42" style="enable-background:new 0 0 42 42;" xml:space="preserve">
<g>
	<g>
		<path style="fill:#556080;" d="M10,6h22c1.965,0,3.782,0.646,5.267,1.725C33.416,3.012,27.561,0,21,0S8.584,3.012,4.733,7.725
			C6.218,6.646,8.035,6,10,6z"/>
		<path style="fill:#556080;" d="M40.977,14.538C40.984,14.692,41,14.844,41,15c0,4.95-4.05,9-9,9H10c-4.95,0-9-4.05-9-9
			c0-0.156,0.016-0.308,0.023-0.462C0.365,16.575,0,18.744,0,21c0,11.598,9.402,21,21,21s21-9.402,21-21
			C42,18.744,41.635,16.575,40.977,14.538z"/>
	</g>
	<path style="fill:#FBD971;" d="M32,24H10c-4.95,0-9-4.05-9-9v0c0-4.95,4.05-9,9-9h22c4.95,0,9,4.05,9,9v0C41,19.95,36.95,24,32,24z
		"/>
	<path style="fill:#F29C1F;" d="M15.999,18c-0.15,0-0.303-0.034-0.446-0.105l-8-4c-0.494-0.247-0.694-0.848-0.447-1.342
		c0.247-0.494,0.847-0.693,1.342-0.447l8,4c0.494,0.247,0.694,0.848,0.447,1.342C16.719,17.798,16.366,18,15.999,18z"/>
	<path style="fill:#F29C1F;" d="M26.001,18c-0.367,0-0.72-0.202-0.896-0.553c-0.247-0.494-0.047-1.095,0.447-1.342l8-4
		c0.496-0.246,1.095-0.047,1.342,0.447s0.047,1.095-0.447,1.342l-8,4C26.304,17.966,26.151,18,26.001,18z"/>
</g>
<g>
</g>
<g>
</g>
<g>
</g>
<g>
</g>
<g>
</g>
<g>
</g>
<g>
</g>
<g>
</g>
<g>
</g>
<g>
</g>
<g>
</g>
<g>
</g>
<g>
</g>
<g>
</g>
<g>
</g>
</svg>
