<?xml version="1.0" encoding="iso-8859-1"?>
<!-- Generator: Adobe Illustrator 18.0.0, SVG Export Plug-In . SVG Version: 6.00 Build 0)  -->
<!DOCTYPE svg PUBLIC "-//W3C//DTD SVG 1.1//EN" "http://www.w3.org/Graphics/SVG/1.1/DTD/svg11.dtd">
<svg version="1.1" id="Capa_1" xmlns="http://www.w3.org/2000/svg" xmlns:xlink="http://www.w3.org/1999/xlink" x="0px" y="0px"
	 viewBox="0 0 58 58" style="enable-background:new 0 0 58 58;" xml:space="preserve">
<g>
	<path style="fill:#FFDB2B;" d="M29,15c-11.598,0-21,2.686-21,6v29c0,2.2,1.8,4,4,4h34c2.2,0,4-1.8,4-4V21
		C50,17.686,40.598,15,29,15z"/>
	<path style="fill:#E57E25;" d="M43.8,48.12c-0.27,0-0.53-0.11-0.71-0.29c-0.19-0.19-0.29-0.44-0.29-0.71
		c0-0.271,0.1-0.53,0.29-0.71c0.37-0.37,1.04-0.37,1.41,0c0.189,0.189,0.3,0.439,0.3,0.71c0,0.26-0.11,0.52-0.3,0.71
		C44.319,48.01,44.06,48.12,43.8,48.12z"/>
	<path style="fill:#E57E25;" d="M44.2,39.649c-0.261,0-0.521-0.109-0.71-0.3c-0.181-0.18-0.29-0.439-0.29-0.71
		c0-0.26,0.109-0.52,0.3-0.7c0.35-0.37,1.03-0.38,1.41,0c0.189,0.181,0.29,0.44,0.29,0.7c0,0.271-0.101,0.521-0.29,0.71
		C44.72,39.54,44.46,39.649,44.2,39.649z"/>
	<path style="fill:#E57E25;" d="M44,43.88c-0.26,0-0.521-0.101-0.71-0.29c-0.181-0.19-0.29-0.44-0.29-0.71
		c0-0.271,0.1-0.521,0.29-0.7c0.38-0.38,1.04-0.38,1.42-0.01c0.18,0.189,0.29,0.45,0.29,0.71s-0.11,0.52-0.29,0.71
		C44.52,43.779,44.26,43.88,44,43.88z"/>
	<path style="fill:#E57E25;" d="M40.66,46.16c-0.261,0-0.521-0.11-0.71-0.301c-0.181-0.189-0.29-0.439-0.29-0.699
		c0-0.261,0.109-0.521,0.29-0.71c0.369-0.37,1.05-0.37,1.42,0c0.18,0.189,0.29,0.439,0.29,0.71c0,0.26-0.11,0.52-0.29,0.699
		C41.189,46.05,40.93,46.16,40.66,46.16z"/>
	<path style="fill:#E57E25;" d="M38.31,51c-0.27,0-0.52-0.11-0.71-0.29c-0.189-0.19-0.29-0.44-0.29-0.71
		c0-0.271,0.101-0.521,0.29-0.71c0.36-0.37,1.05-0.37,1.42,0c0.181,0.189,0.29,0.45,0.29,0.71s-0.109,0.52-0.3,0.71
		C38.83,50.89,38.569,51,38.31,51z"/>
	<path style="fill:#E57E25;" d="M47.5,44.76c-0.271,0-0.53-0.11-0.71-0.3c-0.19-0.181-0.29-0.44-0.29-0.7c0-0.27,0.1-0.53,0.29-0.71
		c0.37-0.37,1.05-0.37,1.42,0c0.18,0.18,0.29,0.44,0.29,0.71c0,0.26-0.11,0.52-0.3,0.71C48.02,44.649,47.77,44.76,47.5,44.76z"/>
	<path style="fill:#E57E25;" d="M15.51,49.479c-0.26,0-0.52-0.109-0.71-0.29c-0.18-0.189-0.29-0.449-0.29-0.71
		c0-0.27,0.11-0.529,0.29-0.71c0.38-0.38,1.05-0.37,1.42,0c0.18,0.181,0.29,0.44,0.29,0.71c0,0.261-0.11,0.521-0.29,0.7
		C16.03,49.37,15.77,49.479,15.51,49.479z"/>
	<path style="fill:#E57E25;" d="M15.1,41c-0.26,0-0.52-0.11-0.7-0.3c-0.189-0.181-0.3-0.44-0.3-0.7s0.11-0.521,0.3-0.71
		c0.37-0.37,1.03-0.37,1.41,0c0.19,0.189,0.3,0.45,0.3,0.71s-0.109,0.52-0.3,0.71C15.63,40.89,15.37,41,15.1,41z"/>
	<path style="fill:#E57E25;" d="M15.31,45.24c-0.27,0-0.529-0.11-0.71-0.301c-0.189-0.18-0.29-0.439-0.29-0.699
		c0-0.271,0.101-0.53,0.29-0.711c0.36-0.369,1.04-0.38,1.42,0c0.181,0.181,0.29,0.44,0.29,0.711c0,0.26-0.109,0.52-0.3,0.71
		C15.83,45.13,15.569,45.24,15.31,45.24z"/>
	<path style="fill:#E57E25;" d="M18.649,47.51c-0.27,0-0.529-0.11-0.71-0.29c-0.189-0.19-0.29-0.45-0.29-0.71s0.101-0.51,0.28-0.7
		c0.39-0.38,1.05-0.38,1.42,0c0.19,0.181,0.3,0.44,0.3,0.7c0,0.27-0.109,0.52-0.3,0.71C19.17,47.399,18.91,47.51,18.649,47.51z"/>
	<path style="fill:#E57E25;" d="M21,52.35c-0.271,0-0.53-0.1-0.71-0.29C20.1,51.87,20,51.62,20,51.359c0-0.27,0.109-0.529,0.29-0.71
		c0.359-0.37,1.05-0.38,1.42,0c0.18,0.19,0.29,0.44,0.29,0.71c0,0.261-0.11,0.511-0.29,0.7C21.52,52.25,21.26,52.35,21,52.35z"/>
	<path style="fill:#E57E25;" d="M11.81,46.109c-0.26,0-0.52-0.1-0.71-0.29c-0.18-0.189-0.29-0.449-0.29-0.71
		c0-0.26,0.11-0.52,0.29-0.71c0.38-0.37,1.05-0.37,1.42,0.011c0.181,0.18,0.29,0.43,0.29,0.699c0,0.271-0.109,0.53-0.29,0.71
		C12.33,46.01,12.069,46.109,11.81,46.109z"/>
	<path style="fill:#802D40;" d="M37.916,41.028c0.605,2.528-2.104,7.657-6.697,8.757c-4.594,1.1-9.332-2.246-9.937-4.774
		c-0.605-2.528,3.914-0.096,8.508-1.196C34.383,42.715,37.311,38.5,37.916,41.028z"/>
	<circle style="fill:#FFFFFF;" cx="38" cy="30" r="6"/>
	<path style="fill:#FEC722;" d="M40.695,58H17.305C16.584,58,16,57.416,16,56.695V54h26v2.695C42,57.416,41.416,58,40.695,58z"/>
	<path style="fill:#556080;" d="M50,25c0-3.314-9.402-6-21-6S8,21.686,8,25v-7l20-7l22,7V25z"/>
	<circle style="fill:#556080;" cx="38" cy="30" r="2"/>
	<path style="fill:#E64C3C;" d="M36.582,45.837c-0.938-0.855-3.343-1.102-6.003-0.519c-3.207,0.703-5.573,2.348-5.329,3.69
		c1.75,0.849,3.872,1.278,5.968,0.776C33.561,49.224,35.409,47.614,36.582,45.837z"/>
	<path style="fill:#556080;" d="M33.823,17.409l-6.894,6.894c-0.018-0.03-0.032-0.06-0.051-0.09
		c-0.89-1.396-1.996-2.103-3.287-2.103c-1.535,0-3.034,0.973-4.771,2.1l-1.473,0.938c-2.011,1.261-3.748,2.35-4.146,4.117
		c-0.225,1,0.021,2.043,0.754,3.189c0.217,0.341,0.465,0.653,0.727,0.95L8,39.337v2.675l8.206-7.284
		C17.437,35.54,18.89,36,20.423,36c1.458,0,2.881-0.416,4.115-1.203c2.911-1.857,4.142-5.366,3.256-8.531l7.443-7.443L33.823,17.409
		z"/>
	<path style="fill:#35495E;" d="M53,13h-2.722c-2.31,0-4.289-1.832-4.279-4.142C46.022,3.97,42.066,0,37.183,0h-2.524
		c-1.017,0-1.947,0.575-2.401,1.484l0,0c-0.151,0.302-0.249,0.633-0.272,0.97C31.873,4.171,31.035,4,29,4s-2.873,0.171-2.986-1.546
		c-0.022-0.337-0.121-0.668-0.272-0.97l0,0C25.287,0.575,24.358,0,23.341,0h-2.524C15.934,0,11.978,3.97,12,8.858
		C12.011,11.168,10.032,13,7.722,13h-2.55c-2.089,0-3.955,1.527-4.153,3.607C0.791,18.992,2.661,21,5,21h3c0-3.314,9.402-6,21-6
		s21,2.686,21,6h2.828c2.089,0,3.955-1.527,4.153-3.607C57.209,15.007,55.339,13,53,13z"/>
	<polygon style="fill:#FFFFFF;" points="31.707,7.707 30.293,6.293 29,7.586 27.707,6.293 26.293,7.707 27.586,9 26.293,10.293 
		27.707,11.707 29,10.414 30.293,11.707 31.707,10.293 30.414,9 	"/>
</g>
<g>
</g>
<g>
</g>
<g>
</g>
<g>
</g>
<g>
</g>
<g>
</g>
<g>
</g>
<g>
</g>
<g>
</g>
<g>
</g>
<g>
</g>
<g>
</g>
<g>
</g>
<g>
</g>
<g>
</g>
</svg>
