<?xml version="1.0" encoding="iso-8859-1"?>
<!-- Generator: Adobe Illustrator 18.0.0, SVG Export Plug-In . SVG Version: 6.00 Build 0)  -->
<!DOCTYPE svg PUBLIC "-//W3C//DTD SVG 1.1//EN" "http://www.w3.org/Graphics/SVG/1.1/DTD/svg11.dtd">
<svg version="1.1" id="Capa_1" xmlns="http://www.w3.org/2000/svg" xmlns:xlink="http://www.w3.org/1999/xlink" x="0px" y="0px"
	 viewBox="0 0 58 58" style="enable-background:new 0 0 58 58;" xml:space="preserve">
<g>
	<path style="fill:#FDC794;" d="M54.046,28.488c-2.288-12.365-9.882-17.669-16.045-19.947L24.704,21.713l-1.408-1.42L35.861,7.847
		c-3.701-1.041-6.468-1.021-6.468-1.021S8.781,6.642,4.738,28.488c-0.43,2.326-0.519,4.691-0.264,7.006l8.846-8.223l1.361,1.465
		l-9.818,9.127c0.62,2.841,1.784,5.552,3.522,7.948c0.75,1.034,1.638,2.052,2.668,3.016C11.029,48.741,11,48.656,11,48.568
		c0-0.27,0.109-0.52,0.29-0.71c0.38-0.369,1.05-0.369,1.42,0c0.18,0.19,0.29,0.45,0.29,0.71c0,0.261-0.11,0.521-0.29,0.7
		c-0.19,0.19-0.45,0.3-0.71,0.3c-0.051,0-0.099-0.022-0.15-0.03c0.667,0.563,1.392,1.1,2.177,1.604
		C14.021,51.096,14,51.054,14,51.008c0-0.27,0.109-0.53,0.29-0.71c0.38-0.37,1.04-0.37,1.42-0.01c0.18,0.189,0.29,0.45,0.29,0.72
		c0,0.26-0.11,0.52-0.29,0.7c-0.099,0.098-0.217,0.173-0.344,0.224c2.934,1.596,6.627,2.722,11.27,2.995
		c-0.12-0.051-0.232-0.125-0.327-0.219c-0.18-0.181-0.29-0.44-0.29-0.7c0-0.27,0.11-0.53,0.3-0.71c0.351-0.37,1.03-0.38,1.41,0
		c0.19,0.18,0.29,0.44,0.29,0.71c0,0.26-0.1,0.51-0.29,0.7c-0.139,0.139-0.317,0.217-0.506,0.258
		c0.703,0.03,1.423,0.043,2.169,0.032c0.526,0.007,1.03-0.006,1.534-0.018c-0.213-0.031-0.42-0.116-0.577-0.272
		c-0.18-0.181-0.29-0.44-0.29-0.7c0-0.27,0.11-0.53,0.29-0.71c0.38-0.38,1.05-0.37,1.42,0c0.19,0.18,0.29,0.44,0.29,0.71
		c0,0.26-0.1,0.52-0.29,0.7c-0.152,0.152-0.349,0.235-0.558,0.269c7.222-0.237,12.232-2.498,15.707-5.426
		c-0.231-0.021-0.459-0.112-0.628-0.273c-0.181-0.189-0.29-0.449-0.29-0.71c0-0.27,0.109-0.52,0.29-0.71
		c0.37-0.369,1.04-0.369,1.42,0c0.18,0.19,0.29,0.45,0.29,0.71l-0.002,0.012c0.874-0.848,1.635-1.734,2.298-2.633
		c-0.097,0.031-0.195,0.061-0.295,0.061c-0.26,0-0.521-0.11-0.71-0.3c-0.181-0.19-0.29-0.44-0.29-0.7c0-0.27,0.109-0.53,0.29-0.71
		c0.38-0.38,1.04-0.38,1.42,0c0.166,0.176,0.263,0.405,0.278,0.651C54.125,40.126,55.101,34.184,54.046,28.488z M9.29,39.298
		c0.37-0.37,1.04-0.38,1.42,0c0.189,0.19,0.29,0.44,0.29,0.7c0,0.27-0.11,0.529-0.3,0.71c-0.181,0.189-0.44,0.3-0.7,0.3
		c-0.271,0-0.521-0.11-0.71-0.3C9.109,40.528,9,40.268,9,39.999C9,39.739,9.1,39.489,9.29,39.298z M6,38.999
		c0-0.26,0.109-0.521,0.29-0.7c0.38-0.38,1.04-0.38,1.42,0c0.18,0.18,0.29,0.44,0.29,0.7c0,0.27-0.101,0.52-0.29,0.71
		c-0.19,0.189-0.44,0.29-0.71,0.29c-0.271,0-0.521-0.101-0.71-0.29C6.1,39.518,6,39.268,6,38.999z M8,42.999
		c-0.26,0-0.521-0.101-0.71-0.29C7.109,42.528,7,42.268,7,41.999c0-0.26,0.109-0.521,0.29-0.7c0.37-0.37,1.05-0.38,1.42,0
		c0.18,0.18,0.29,0.44,0.29,0.7c0,0.27-0.11,0.529-0.29,0.71C8.52,42.898,8.26,42.999,8,42.999z M10.71,46.708
		c-0.19,0.189-0.45,0.29-0.71,0.29s-0.521-0.101-0.71-0.29C9.1,46.518,9,46.268,9,45.999c0-0.26,0.109-0.521,0.29-0.7
		c0.37-0.37,1.04-0.38,1.42,0c0.18,0.19,0.29,0.44,0.29,0.7S10.899,46.518,10.71,46.708z M11.71,43.708
		c-0.19,0.189-0.44,0.29-0.71,0.29c-0.271,0-0.521-0.101-0.71-0.29c-0.19-0.19-0.29-0.44-0.29-0.71c0-0.26,0.1-0.51,0.29-0.7
		c0.38-0.38,1.04-0.38,1.42,0c0.189,0.19,0.29,0.44,0.29,0.7C12,43.268,11.899,43.518,11.71,43.708z M14.71,46.708
		c-0.19,0.189-0.45,0.29-0.71,0.29c-0.271,0-0.521-0.101-0.71-0.29c-0.181-0.19-0.29-0.44-0.29-0.71c0-0.26,0.109-0.521,0.29-0.7
		c0.38-0.38,1.05-0.38,1.42,0c0.18,0.18,0.29,0.44,0.29,0.7C15,46.268,14.89,46.518,14.71,46.708z M14.71,42.708
		c-0.19,0.189-0.45,0.29-0.71,0.29s-0.521-0.101-0.71-0.29c-0.181-0.181-0.29-0.44-0.29-0.71c0-0.26,0.109-0.521,0.29-0.7
		c0.37-0.37,1.04-0.38,1.42,0c0.18,0.19,0.29,0.44,0.29,0.7C15,42.268,14.89,42.528,14.71,42.708z M14.7,38.708
		c-0.181,0.189-0.44,0.3-0.7,0.3s-0.521-0.11-0.71-0.3c-0.181-0.181-0.29-0.44-0.29-0.71c0-0.26,0.1-0.51,0.29-0.7
		c0.38-0.37,1.04-0.38,1.42,0c0.189,0.19,0.29,0.44,0.29,0.7C15,38.268,14.89,38.528,14.7,38.708z M21.29,47.298
		c0.38-0.38,1.05-0.37,1.42,0c0.18,0.18,0.29,0.44,0.29,0.7c0,0.27-0.11,0.52-0.29,0.71c-0.19,0.189-0.44,0.29-0.71,0.29
		c-0.26,0-0.521-0.101-0.71-0.29c-0.19-0.19-0.29-0.44-0.29-0.71C21,47.739,21.1,47.478,21.29,47.298z M17.29,45.298
		c0.37-0.38,1.05-0.37,1.42,0c0.18,0.18,0.29,0.44,0.29,0.7c0,0.27-0.11,0.52-0.29,0.71c-0.19,0.189-0.45,0.29-0.71,0.29
		s-0.521-0.101-0.71-0.29c-0.181-0.19-0.29-0.44-0.29-0.71C17,45.739,17.109,45.478,17.29,45.298z M17,50.008
		c-0.26,0-0.521-0.11-0.71-0.3c-0.181-0.181-0.29-0.44-0.29-0.7c0-0.27,0.109-0.53,0.29-0.71c0.38-0.37,1.04-0.37,1.42-0.01
		c0.18,0.189,0.29,0.45,0.29,0.72c0,0.26-0.11,0.52-0.29,0.7C17.52,49.898,17.26,50.008,17,50.008z M19.71,52.708
		c-0.19,0.189-0.45,0.3-0.71,0.3c-0.271,0-0.521-0.11-0.71-0.3c-0.181-0.181-0.29-0.44-0.29-0.7c0-0.27,0.109-0.53,0.29-0.71
		c0.37-0.37,1.04-0.37,1.42-0.01c0.18,0.2,0.29,0.45,0.29,0.72C20,52.268,19.89,52.518,19.71,52.708z M21,50.999
		c-0.271,0-0.521-0.101-0.71-0.29c-0.181-0.19-0.29-0.44-0.29-0.71c0-0.26,0.109-0.521,0.29-0.7c0.37-0.37,1.04-0.38,1.42,0
		c0.18,0.19,0.29,0.44,0.29,0.7s-0.11,0.52-0.29,0.71C21.52,50.898,21.27,50.999,21,50.999z M23.7,52.708
		c-0.181,0.189-0.431,0.3-0.7,0.3c-0.26,0-0.521-0.11-0.71-0.3c-0.181-0.181-0.29-0.44-0.29-0.7c0-0.27,0.109-0.53,0.29-0.71
		c0.38-0.37,1.05-0.37,1.42,0c0.18,0.18,0.29,0.44,0.29,0.71C24,52.268,23.89,52.528,23.7,52.708z M45.71,41.858
		c0.18,0.19,0.29,0.44,0.29,0.71c0,0.261-0.11,0.521-0.29,0.7c-0.19,0.19-0.45,0.3-0.71,0.3c-0.271,0-0.521-0.109-0.71-0.3
		c-0.181-0.18-0.29-0.439-0.29-0.7c0-0.27,0.109-0.529,0.29-0.71C44.649,41.489,45.33,41.478,45.71,41.858z M42.29,38.298
		c0.38-0.37,1.05-0.37,1.42,0c0.18,0.18,0.29,0.44,0.29,0.7s-0.101,0.52-0.29,0.71c-0.19,0.189-0.45,0.29-0.71,0.29
		s-0.521-0.101-0.71-0.29c-0.19-0.19-0.29-0.44-0.29-0.71C42,38.739,42.109,38.478,42.29,38.298z M40.29,41.298
		c0.37-0.38,1.04-0.38,1.42,0c0.18,0.18,0.29,0.44,0.29,0.7c0,0.27-0.11,0.529-0.29,0.71c-0.19,0.189-0.45,0.29-0.71,0.29
		s-0.521-0.101-0.71-0.29c-0.181-0.181-0.29-0.44-0.29-0.71C40,41.739,40.109,41.478,40.29,41.298z M25,47.999
		c0-0.26,0.109-0.521,0.29-0.7c0.37-0.37,1.04-0.38,1.42,0c0.18,0.19,0.29,0.44,0.29,0.7s-0.11,0.52-0.29,0.71
		c-0.19,0.189-0.44,0.29-0.71,0.29c-0.271,0-0.521-0.101-0.71-0.29C25.109,48.518,25,48.268,25,47.999z M27.7,51.708
		c-0.181,0.189-0.44,0.3-0.7,0.3s-0.521-0.11-0.71-0.3c-0.181-0.181-0.29-0.44-0.29-0.7c0-0.27,0.109-0.53,0.29-0.71
		c0.38-0.37,1.04-0.37,1.42,0c0.18,0.18,0.29,0.44,0.29,0.71C28,51.268,27.89,51.528,27.7,51.708z M29,48.999
		c-0.271,0-0.53-0.101-0.71-0.29c-0.181-0.19-0.29-0.44-0.29-0.71c0-0.26,0.109-0.521,0.29-0.7c0.359-0.37,1.04-0.38,1.42,0
		c0.18,0.18,0.29,0.44,0.29,0.7c0,0.27-0.11,0.52-0.29,0.71C29.52,48.898,29.26,48.999,29,48.999z M31.71,51.708
		c-0.19,0.189-0.45,0.3-0.71,0.3s-0.521-0.11-0.71-0.3c-0.181-0.181-0.29-0.44-0.29-0.7c0-0.27,0.109-0.53,0.29-0.71
		c0.38-0.37,1.05-0.37,1.42,0c0.18,0.18,0.29,0.44,0.29,0.71C32,51.268,31.89,51.528,31.71,51.708z M33,48.008
		c-0.26,0-0.521-0.11-0.71-0.3c-0.181-0.181-0.29-0.44-0.29-0.71c0-0.26,0.109-0.521,0.29-0.7c0.38-0.38,1.05-0.37,1.42,0
		c0.18,0.18,0.29,0.44,0.29,0.7c0,0.27-0.11,0.529-0.29,0.71C33.52,47.898,33.27,48.008,33,48.008z M35.67,53.708
		c-0.19,0.189-0.45,0.3-0.71,0.3s-0.521-0.11-0.71-0.3c-0.181-0.181-0.29-0.44-0.29-0.7c0-0.27,0.109-0.53,0.3-0.71
		c0.35-0.37,1.03-0.38,1.41,0c0.18,0.18,0.29,0.44,0.29,0.71C35.96,53.268,35.859,53.518,35.67,53.708z M35.71,50.708
		c-0.19,0.189-0.44,0.29-0.71,0.29c-0.271,0-0.521-0.101-0.71-0.29c-0.181-0.19-0.29-0.44-0.29-0.71c0-0.26,0.109-0.521,0.29-0.7
		c0.37-0.37,1.04-0.38,1.42,0c0.18,0.19,0.29,0.44,0.29,0.7S35.89,50.518,35.71,50.708z M37,45.008c0-0.27,0.109-0.53,0.29-0.71
		c0.38-0.38,1.04-0.38,1.42,0c0.18,0.18,0.29,0.44,0.29,0.71c0,0.26-0.11,0.52-0.29,0.7c-0.19,0.189-0.45,0.3-0.71,0.3
		s-0.521-0.11-0.71-0.3C37.109,45.528,37,45.268,37,45.008z M38,48.568c0-0.27,0.109-0.529,0.29-0.71c0.37-0.369,1.04-0.369,1.42,0
		c0.18,0.181,0.29,0.44,0.29,0.71c0,0.261-0.11,0.521-0.29,0.71c-0.19,0.181-0.45,0.29-0.71,0.29s-0.521-0.109-0.71-0.29
		C38.109,49.088,38,48.829,38,48.568z M40.7,52.278c-0.181,0.181-0.44,0.29-0.7,0.29s-0.521-0.109-0.71-0.3
		c-0.181-0.18-0.29-0.439-0.29-0.7c0-0.27,0.109-0.52,0.29-0.71c0.38-0.38,1.05-0.369,1.42,0c0.18,0.19,0.29,0.44,0.29,0.71
		C41,51.829,40.89,52.088,40.7,52.278z M42,46.568c-0.271,0-0.521-0.109-0.71-0.3c-0.181-0.18-0.29-0.439-0.29-0.7
		c0-0.27,0.109-0.52,0.29-0.71c0.37-0.369,1.04-0.369,1.42,0c0.18,0.19,0.29,0.44,0.29,0.71c0,0.261-0.11,0.521-0.29,0.7
		C42.52,46.458,42.26,46.568,42,46.568z M44.71,49.278c-0.19,0.181-0.45,0.29-0.71,0.29s-0.521-0.109-0.71-0.29
		C43.1,49.088,43,48.829,43,48.568c0-0.26,0.1-0.52,0.29-0.71c0.37-0.369,1.05-0.369,1.42,0c0.18,0.19,0.29,0.44,0.29,0.71
		C45,48.829,44.89,49.088,44.71,49.278z M46.71,46.268c-0.19,0.19-0.45,0.3-0.71,0.3s-0.521-0.109-0.71-0.3
		c-0.181-0.18-0.29-0.439-0.29-0.7c0-0.26,0.109-0.52,0.29-0.71c0.37-0.369,1.04-0.369,1.42,0c0.18,0.19,0.29,0.45,0.29,0.71
		C47,45.829,46.89,46.088,46.71,46.268z M46.71,39.708c-0.19,0.189-0.45,0.29-0.71,0.29s-0.521-0.101-0.71-0.29
		c-0.19-0.19-0.29-0.44-0.29-0.71c0-0.26,0.109-0.521,0.29-0.7c0.37-0.37,1.04-0.37,1.42,0c0.18,0.18,0.29,0.44,0.29,0.7
		C47,39.268,46.899,39.518,46.71,39.708z M49.7,42.278c-0.181,0.181-0.44,0.29-0.7,0.29s-0.521-0.109-0.71-0.3
		c-0.181-0.18-0.29-0.439-0.29-0.7c0-0.27,0.109-0.529,0.29-0.71c0.359-0.369,1.04-0.369,1.42,0c0.18,0.181,0.29,0.44,0.29,0.71
		C50,41.829,49.89,42.088,49.7,42.278z M50.71,38.268c-0.19,0.19-0.44,0.3-0.71,0.3c-0.26,0-0.521-0.109-0.71-0.3
		c-0.19-0.189-0.29-0.439-0.29-0.7c0-0.27,0.109-0.529,0.29-0.71c0.38-0.38,1.05-0.369,1.42,0c0.18,0.181,0.29,0.44,0.29,0.71
		C51,37.829,50.89,38.088,50.71,38.268z M52.7,41.278c-0.181,0.181-0.44,0.29-0.7,0.29c-0.271,0-0.521-0.109-0.71-0.3
		c-0.181-0.18-0.29-0.439-0.29-0.7c0-0.27,0.109-0.529,0.29-0.71c0.359-0.369,1.04-0.369,1.42,0c0.18,0.181,0.29,0.44,0.29,0.71
		C53,40.829,52.89,41.088,52.7,41.278z M53.71,37.268c-0.19,0.19-0.45,0.3-0.71,0.3s-0.521-0.109-0.71-0.3
		c-0.19-0.189-0.29-0.439-0.29-0.7c0-0.27,0.109-0.529,0.29-0.71c0.38-0.369,1.05-0.369,1.42,0c0.18,0.181,0.29,0.44,0.29,0.71
		C54,36.829,53.899,37.088,53.71,37.268z"/>
	<g>
		<path style="fill:#F18D46;" d="M7.71,39.708c0.189-0.19,0.29-0.44,0.29-0.71c0-0.26-0.11-0.521-0.29-0.7
			c-0.38-0.38-1.04-0.38-1.42,0c-0.181,0.18-0.29,0.44-0.29,0.7c0,0.27,0.1,0.52,0.29,0.71c0.189,0.189,0.439,0.29,0.71,0.29
			C7.27,39.999,7.52,39.898,7.71,39.708z"/>
		<path style="fill:#F18D46;" d="M10,41.008c0.26,0,0.52-0.11,0.7-0.3c0.189-0.181,0.3-0.44,0.3-0.71c0-0.26-0.101-0.51-0.29-0.7
			c-0.38-0.38-1.05-0.37-1.42,0C9.1,39.489,9,39.739,9,39.999c0,0.27,0.109,0.529,0.29,0.71C9.479,40.898,9.729,41.008,10,41.008z"
			/>
		<path style="fill:#F18D46;" d="M8.71,41.298c-0.37-0.38-1.05-0.37-1.42,0c-0.181,0.18-0.29,0.44-0.29,0.7
			c0,0.27,0.109,0.529,0.29,0.71c0.189,0.189,0.45,0.29,0.71,0.29s0.52-0.101,0.71-0.29C8.89,42.528,9,42.268,9,41.999
			C9,41.739,8.89,41.478,8.71,41.298z"/>
		<path style="fill:#F18D46;" d="M10.29,42.298c-0.19,0.19-0.29,0.44-0.29,0.7c0,0.27,0.1,0.52,0.29,0.71
			c0.189,0.189,0.439,0.29,0.71,0.29c0.27,0,0.52-0.101,0.71-0.29c0.189-0.19,0.29-0.44,0.29-0.71c0-0.26-0.101-0.51-0.29-0.7
			C11.33,41.918,10.67,41.918,10.29,42.298z"/>
		<path style="fill:#F18D46;" d="M10.71,45.298c-0.38-0.38-1.05-0.37-1.42,0c-0.181,0.18-0.29,0.44-0.29,0.7
			c0,0.27,0.1,0.52,0.29,0.71c0.189,0.189,0.45,0.29,0.71,0.29s0.52-0.101,0.71-0.29c0.189-0.19,0.29-0.45,0.29-0.71
			S10.89,45.489,10.71,45.298z"/>
		<path style="fill:#F18D46;" d="M14.71,46.708c0.18-0.19,0.29-0.44,0.29-0.71c0-0.26-0.11-0.521-0.29-0.7
			c-0.37-0.38-1.04-0.38-1.42,0c-0.181,0.18-0.29,0.44-0.29,0.7c0,0.27,0.109,0.52,0.29,0.71c0.189,0.189,0.439,0.29,0.71,0.29
			C14.26,46.999,14.52,46.898,14.71,46.708z"/>
		<path style="fill:#F18D46;" d="M11.29,47.858c-0.181,0.19-0.29,0.44-0.29,0.71c0,0.088,0.029,0.173,0.052,0.259
			c0.257,0.24,0.522,0.478,0.798,0.711c0.051,0.008,0.099,0.03,0.15,0.03c0.26,0,0.52-0.109,0.71-0.3c0.18-0.18,0.29-0.439,0.29-0.7
			c0-0.26-0.11-0.52-0.29-0.71C12.34,47.489,11.67,47.489,11.29,47.858z"/>
		<path style="fill:#F18D46;" d="M17.71,48.289c-0.38-0.36-1.04-0.36-1.42,0.01c-0.181,0.18-0.29,0.44-0.29,0.71
			c0,0.26,0.109,0.52,0.29,0.7c0.189,0.189,0.45,0.3,0.71,0.3s0.52-0.11,0.71-0.3c0.18-0.181,0.29-0.44,0.29-0.7
			C18,48.739,17.89,48.478,17.71,48.289z"/>
		<path style="fill:#F18D46;" d="M21.71,49.298c-0.38-0.38-1.05-0.37-1.42,0c-0.181,0.18-0.29,0.44-0.29,0.7
			c0,0.27,0.109,0.52,0.29,0.71c0.189,0.189,0.439,0.29,0.71,0.29c0.27,0,0.52-0.101,0.71-0.29c0.18-0.19,0.29-0.45,0.29-0.71
			S21.89,49.489,21.71,49.298z"/>
		<path style="fill:#F18D46;" d="M39.71,49.278c0.18-0.189,0.29-0.449,0.29-0.71c0-0.27-0.11-0.529-0.29-0.71
			c-0.38-0.369-1.05-0.369-1.42,0c-0.181,0.181-0.29,0.44-0.29,0.71c0,0.261,0.109,0.521,0.29,0.71c0.189,0.181,0.45,0.29,0.71,0.29
			S39.52,49.458,39.71,49.278z"/>
		<path style="fill:#F18D46;" d="M34.26,52.298c-0.19,0.18-0.3,0.44-0.3,0.71c0,0.26,0.109,0.52,0.29,0.7
			c0.189,0.189,0.45,0.3,0.71,0.3s0.52-0.11,0.71-0.3c0.189-0.19,0.29-0.44,0.29-0.7c0-0.27-0.11-0.53-0.29-0.71
			C35.29,51.918,34.609,51.928,34.26,52.298z"/>
		<path style="fill:#F18D46;" d="M30.35,53.298c-0.18,0.18-0.29,0.44-0.29,0.71c0,0.26,0.11,0.52,0.29,0.7
			c0.157,0.156,0.364,0.241,0.577,0.272c0.094-0.002,0.192,0,0.285-0.003c0.21-0.034,0.406-0.117,0.558-0.269
			c0.19-0.181,0.29-0.44,0.29-0.7c0-0.27-0.1-0.53-0.29-0.71C31.399,52.928,30.729,52.918,30.35,53.298z"/>
		<path style="fill:#F18D46;" d="M22.29,51.298c-0.181,0.18-0.29,0.44-0.29,0.71c0,0.26,0.109,0.52,0.29,0.7
			c0.189,0.189,0.45,0.3,0.71,0.3c0.27,0,0.52-0.11,0.7-0.3c0.189-0.181,0.3-0.44,0.3-0.7c0-0.27-0.11-0.53-0.29-0.71
			C23.34,50.928,22.67,50.928,22.29,51.298z"/>
		<path style="fill:#F18D46;" d="M27,52.008c0.26,0,0.52-0.11,0.7-0.3c0.189-0.181,0.3-0.44,0.3-0.7c0-0.27-0.11-0.53-0.29-0.71
			c-0.38-0.37-1.04-0.37-1.42,0c-0.181,0.18-0.29,0.44-0.29,0.71c0,0.26,0.109,0.52,0.29,0.7C26.479,51.898,26.74,52.008,27,52.008z
			"/>
		<path style="fill:#F18D46;" d="M31,52.008c0.26,0,0.52-0.11,0.71-0.3c0.18-0.181,0.29-0.44,0.29-0.7c0-0.27-0.11-0.53-0.29-0.71
			c-0.37-0.37-1.04-0.37-1.42,0c-0.181,0.18-0.29,0.44-0.29,0.71c0,0.26,0.109,0.52,0.29,0.7C30.479,51.898,30.74,52.008,31,52.008z
			"/>
		<path style="fill:#F18D46;" d="M34.29,49.298c-0.181,0.18-0.29,0.44-0.29,0.7c0,0.27,0.109,0.52,0.29,0.71
			c0.189,0.189,0.439,0.29,0.71,0.29c0.27,0,0.52-0.101,0.71-0.29c0.18-0.19,0.29-0.45,0.29-0.71s-0.11-0.51-0.29-0.7
			C35.33,48.918,34.66,48.928,34.29,49.298z"/>
		<path style="fill:#F18D46;" d="M26.319,53.298c-0.189,0.18-0.3,0.44-0.3,0.71c0,0.26,0.11,0.52,0.29,0.7
			c0.095,0.094,0.206,0.168,0.327,0.219c0.197,0.012,0.386,0.031,0.587,0.039c0.189-0.042,0.367-0.119,0.506-0.258
			c0.19-0.19,0.29-0.44,0.29-0.7c0-0.27-0.1-0.53-0.29-0.71C27.35,52.918,26.67,52.928,26.319,53.298z"/>
		<path style="fill:#F18D46;" d="M18.29,51.298c-0.181,0.18-0.29,0.44-0.29,0.71c0,0.26,0.109,0.52,0.29,0.7
			c0.189,0.189,0.439,0.3,0.71,0.3c0.26,0,0.52-0.11,0.71-0.3c0.18-0.19,0.29-0.44,0.29-0.7c0-0.27-0.11-0.52-0.29-0.72
			C19.33,50.928,18.66,50.928,18.29,51.298z"/>
		<path style="fill:#F18D46;" d="M39.29,50.858c-0.181,0.19-0.29,0.44-0.29,0.71c0,0.261,0.109,0.521,0.29,0.7
			c0.189,0.19,0.45,0.3,0.71,0.3s0.52-0.109,0.7-0.29c0.189-0.189,0.3-0.449,0.3-0.71c0-0.27-0.11-0.52-0.29-0.71
			C40.34,50.489,39.67,50.478,39.29,50.858z"/>
		<path style="fill:#F18D46;" d="M14.29,50.298c-0.181,0.18-0.29,0.44-0.29,0.71c0,0.046,0.021,0.088,0.027,0.133
			c0.427,0.275,0.874,0.538,1.339,0.791c0.127-0.052,0.245-0.126,0.344-0.224c0.18-0.181,0.29-0.44,0.29-0.7
			c0-0.27-0.11-0.53-0.29-0.72C15.33,49.928,14.67,49.928,14.29,50.298z"/>
		<path style="fill:#F18D46;" d="M53.71,35.858c-0.37-0.369-1.04-0.369-1.42,0c-0.181,0.181-0.29,0.44-0.29,0.71
			c0,0.261,0.1,0.511,0.29,0.7c0.189,0.19,0.45,0.3,0.71,0.3s0.52-0.109,0.71-0.3c0.189-0.18,0.29-0.439,0.29-0.7
			C54,36.298,53.89,36.039,53.71,35.858z"/>
		<path style="fill:#F18D46;" d="M50,38.568c0.27,0,0.52-0.109,0.71-0.3c0.18-0.18,0.29-0.439,0.29-0.7c0-0.27-0.11-0.529-0.29-0.71
			c-0.37-0.369-1.04-0.38-1.42,0c-0.181,0.181-0.29,0.44-0.29,0.71c0,0.261,0.1,0.511,0.29,0.7
			C49.479,38.458,49.74,38.568,50,38.568z"/>
		<path style="fill:#F18D46;" d="M51.29,39.858c-0.181,0.181-0.29,0.44-0.29,0.71c0,0.261,0.109,0.521,0.29,0.7
			c0.189,0.19,0.439,0.3,0.71,0.3c0.26,0,0.52-0.109,0.7-0.29c0.189-0.189,0.3-0.449,0.3-0.71c0-0.27-0.11-0.529-0.29-0.71
			C52.33,39.489,51.649,39.489,51.29,39.858z"/>
		<path style="fill:#F18D46;" d="M49.7,42.278c0.189-0.189,0.3-0.449,0.3-0.71c0-0.27-0.11-0.529-0.29-0.71
			c-0.38-0.369-1.061-0.369-1.42,0c-0.181,0.181-0.29,0.44-0.29,0.71c0,0.261,0.109,0.521,0.29,0.7c0.189,0.19,0.45,0.3,0.71,0.3
			S49.52,42.458,49.7,42.278z"/>
		<path style="fill:#F18D46;" d="M44.29,43.268c0.189,0.19,0.439,0.3,0.71,0.3c0.26,0,0.52-0.109,0.71-0.3
			c0.18-0.18,0.29-0.439,0.29-0.7c0-0.27-0.11-0.52-0.29-0.71c-0.38-0.38-1.061-0.369-1.42,0c-0.181,0.181-0.29,0.44-0.29,0.71
			C44,42.829,44.109,43.088,44.29,43.268z"/>
		<path style="fill:#F18D46;" d="M49.29,44.298c-0.181,0.18-0.29,0.44-0.29,0.71c0,0.26,0.109,0.51,0.29,0.7
			c0.189,0.189,0.45,0.3,0.71,0.3c0.101,0,0.199-0.03,0.295-0.061c0.034-0.046,0.072-0.091,0.105-0.137
			c0.205-0.282,0.399-0.57,0.588-0.861c-0.015-0.246-0.112-0.476-0.278-0.651C50.33,43.918,49.67,43.918,49.29,44.298z"/>
		<path style="fill:#F18D46;" d="M46.71,46.268c0.18-0.18,0.29-0.439,0.29-0.7c0-0.26-0.11-0.52-0.29-0.71
			c-0.38-0.369-1.05-0.369-1.42,0c-0.181,0.19-0.29,0.45-0.29,0.71c0,0.261,0.109,0.521,0.29,0.7c0.189,0.19,0.45,0.3,0.71,0.3
			S46.52,46.458,46.71,46.268z"/>
		<path style="fill:#F18D46;" d="M46.29,47.858c-0.181,0.19-0.29,0.44-0.29,0.71c0,0.261,0.109,0.521,0.29,0.71
			c0.169,0.161,0.397,0.253,0.628,0.273c0.376-0.317,0.739-0.64,1.08-0.971L48,48.568c0-0.26-0.11-0.52-0.29-0.71
			C47.33,47.489,46.66,47.489,46.29,47.858z"/>
		<path style="fill:#F18D46;" d="M42.71,44.858c-0.38-0.369-1.05-0.369-1.42,0c-0.181,0.19-0.29,0.44-0.29,0.71
			c0,0.261,0.109,0.521,0.29,0.7c0.189,0.19,0.439,0.3,0.71,0.3c0.26,0,0.52-0.109,0.71-0.3c0.18-0.18,0.29-0.439,0.29-0.7
			C43,45.298,42.89,45.048,42.71,44.858z"/>
		<path style="fill:#F18D46;" d="M38.71,45.708c0.18-0.181,0.29-0.44,0.29-0.7c0-0.27-0.11-0.53-0.29-0.71
			c-0.38-0.38-1.04-0.38-1.42,0c-0.181,0.18-0.29,0.44-0.29,0.71c0,0.26,0.109,0.52,0.29,0.7c0.189,0.189,0.45,0.3,0.71,0.3
			S38.52,45.898,38.71,45.708z"/>
		<path style="fill:#F18D46;" d="M41,42.999c0.26,0,0.52-0.101,0.71-0.29c0.18-0.181,0.29-0.44,0.29-0.71
			c0-0.26-0.11-0.521-0.29-0.7c-0.38-0.38-1.05-0.38-1.42,0c-0.181,0.18-0.29,0.44-0.29,0.7c0,0.27,0.109,0.529,0.29,0.71
			C40.479,42.898,40.74,42.999,41,42.999z"/>
		<path style="fill:#F18D46;" d="M33.71,46.298c-0.37-0.37-1.04-0.38-1.42,0c-0.181,0.18-0.29,0.44-0.29,0.7
			c0,0.27,0.109,0.529,0.29,0.71c0.189,0.189,0.45,0.3,0.71,0.3c0.27,0,0.52-0.11,0.71-0.3c0.18-0.181,0.29-0.44,0.29-0.71
			C34,46.739,33.89,46.478,33.71,46.298z"/>
		<path style="fill:#F18D46;" d="M26.71,48.708c0.18-0.19,0.29-0.45,0.29-0.71s-0.11-0.51-0.29-0.7c-0.38-0.38-1.05-0.37-1.42,0
			c-0.181,0.18-0.29,0.44-0.29,0.7c0,0.27,0.109,0.52,0.29,0.71c0.189,0.189,0.439,0.29,0.71,0.29
			C26.27,48.999,26.52,48.898,26.71,48.708z"/>
		<path style="fill:#F18D46;" d="M18,46.999c0.26,0,0.52-0.101,0.71-0.29c0.18-0.19,0.29-0.44,0.29-0.71c0-0.26-0.11-0.521-0.29-0.7
			c-0.37-0.37-1.05-0.38-1.42,0c-0.181,0.18-0.29,0.44-0.29,0.7c0,0.27,0.109,0.52,0.29,0.71C17.479,46.898,17.74,46.999,18,46.999z
			"/>
		<path style="fill:#F18D46;" d="M14,42.999c0.26,0,0.52-0.101,0.71-0.29c0.18-0.181,0.29-0.44,0.29-0.71c0-0.26-0.11-0.51-0.29-0.7
			c-0.38-0.38-1.05-0.37-1.42,0c-0.181,0.18-0.29,0.44-0.29,0.7c0,0.27,0.109,0.529,0.29,0.71C13.479,42.898,13.74,42.999,14,42.999
			z"/>
		<path style="fill:#F18D46;" d="M14,39.008c0.26,0,0.52-0.11,0.7-0.3c0.189-0.181,0.3-0.44,0.3-0.71c0-0.26-0.101-0.51-0.29-0.7
			c-0.38-0.38-1.04-0.37-1.42,0c-0.19,0.19-0.29,0.44-0.29,0.7c0,0.27,0.109,0.529,0.29,0.71C13.479,38.898,13.74,39.008,14,39.008z
			"/>
		<path style="fill:#F18D46;" d="M22,48.999c0.27,0,0.52-0.101,0.71-0.29c0.18-0.19,0.29-0.44,0.29-0.71c0-0.26-0.11-0.521-0.29-0.7
			c-0.37-0.37-1.04-0.38-1.42,0c-0.19,0.18-0.29,0.44-0.29,0.7c0,0.27,0.1,0.52,0.29,0.71C21.479,48.898,21.74,48.999,22,48.999z"/>
		<path style="fill:#F18D46;" d="M29.71,47.298c-0.38-0.38-1.061-0.37-1.42,0c-0.181,0.18-0.29,0.44-0.29,0.7
			c0,0.27,0.109,0.52,0.29,0.71c0.18,0.189,0.439,0.29,0.71,0.29c0.26,0,0.52-0.101,0.71-0.29c0.18-0.19,0.29-0.44,0.29-0.71
			C30,47.739,29.89,47.478,29.71,47.298z"/>
		<path style="fill:#F18D46;" d="M43,39.999c0.26,0,0.52-0.101,0.71-0.29c0.189-0.19,0.29-0.45,0.29-0.71s-0.11-0.521-0.29-0.7
			c-0.37-0.37-1.04-0.37-1.42,0c-0.181,0.18-0.29,0.44-0.29,0.7c0,0.27,0.1,0.52,0.29,0.71C42.479,39.898,42.74,39.999,43,39.999z"
			/>
		<path style="fill:#F18D46;" d="M46,39.999c0.26,0,0.52-0.101,0.71-0.29c0.189-0.19,0.29-0.44,0.29-0.71
			c0-0.26-0.11-0.521-0.29-0.7c-0.38-0.37-1.05-0.37-1.42,0c-0.181,0.18-0.29,0.44-0.29,0.7c0,0.27,0.1,0.52,0.29,0.71
			C45.479,39.898,45.74,39.999,46,39.999z"/>
		<path style="fill:#F18D46;" d="M43.29,47.858c-0.19,0.19-0.29,0.45-0.29,0.71c0,0.261,0.1,0.521,0.29,0.71
			c0.189,0.181,0.45,0.29,0.71,0.29s0.52-0.109,0.71-0.29c0.18-0.189,0.29-0.449,0.29-0.71c0-0.27-0.11-0.52-0.29-0.71
			C44.34,47.489,43.66,47.489,43.29,47.858z"/>
	</g>
	<path style="fill:#556080;" d="M23.39,19.754c1.979,3.103,1.068,7.223-2.035,9.202s-7.223,1.068-9.202-2.035
		s0.724-4.414,3.827-6.393S21.411,16.651,23.39,19.754z"/>
	<path style="fill:#556080;" d="M38.002,8.541c-0.739-0.273-1.455-0.501-2.141-0.694L24.287,19.312
		c-0.019-0.031-0.035-0.064-0.055-0.095c-0.89-1.396-1.996-2.104-3.288-2.104c-1.535,0-3.034,0.974-4.77,2.1l-1.471,0.938
		c-2.012,1.261-3.749,2.35-4.147,4.117c-0.226,1,0.021,2.044,0.753,3.19c0.225,0.353,0.483,0.674,0.755,0.979l-7.59,7.056
		c0.088,0.797,0.219,1.587,0.389,2.369l8.727-8.113c1.225,0.8,2.666,1.253,4.187,1.253c1.458,0,2.882-0.416,4.116-1.204
		c1.726-1.101,2.92-2.808,3.361-4.806c0.277-1.252,0.238-2.525-0.1-3.726L38.002,8.541z M23.302,24.561
		c-0.327,1.478-1.21,2.739-2.485,3.553c-0.912,0.582-1.964,0.89-3.04,0.89c-1.948,0-3.735-0.979-4.781-2.62
		c-0.43-0.675-0.59-1.223-0.488-1.676c0.216-0.955,1.626-1.839,3.259-2.862l1.498-0.955c1.408-0.914,2.738-1.777,3.681-1.777
		c0.396,0,0.936,0.135,1.603,1.18C23.36,21.568,23.628,23.083,23.302,24.561z"/>
	<path style="fill:#F9A671;" d="M4.499,30.125c-0.453-0.429-0.985-0.687-1.559-0.687C1.316,29.438,0,31.418,0,33.862
		c0,2.443,1.316,4.424,2.939,4.424c0.687,0,1.311-0.37,1.811-0.964C4.297,34.97,4.218,32.538,4.499,30.125z"/>
	<path style="fill:#F9A671;" d="M57.823,26.298c-0.563-2.377-2.3-3.999-3.879-3.622c-0.491,0.117-0.898,0.43-1.225,0.855
		c0.538,1.515,0.994,3.154,1.328,4.957c0.155,0.837,0.261,1.679,0.328,2.522c0.52,0.284,1.072,0.402,1.608,0.274
		C57.562,30.907,58.386,28.675,57.823,26.298z"/>
	<path style="fill:#5E5F62;" d="M13.9,16.998c-0.256,0-0.512-0.098-0.707-0.293l-5-5c-0.391-0.391-0.391-1.023,0-1.414
		s1.023-0.391,1.414,0l5,5c0.391,0.391,0.391,1.023,0,1.414C14.412,16.901,14.156,16.998,13.9,16.998z"/>
	<path style="fill:#5E5F62;" d="M16.901,13.998c-0.367,0-0.72-0.202-0.896-0.553l-3-6c-0.247-0.494-0.047-1.095,0.447-1.342
		c0.494-0.244,1.095-0.047,1.342,0.447l3,6c0.247,0.494,0.047,1.095-0.447,1.342C17.204,13.964,17.052,13.998,16.901,13.998z"/>
	<path style="fill:#5E5F62;" d="M20.9,11.998c-0.419,0-0.809-0.265-0.948-0.684l-2-6c-0.175-0.524,0.108-1.091,0.632-1.265
		c0.528-0.176,1.09,0.108,1.265,0.632l2,6c0.175,0.524-0.108,1.091-0.632,1.265C21.111,11.982,21.005,11.998,20.9,11.998z"/>
	<path style="fill:#5E5F62;" d="M25.899,10.998c-0.48,0-0.904-0.347-0.985-0.836l-1-6c-0.091-0.544,0.277-1.06,0.822-1.15
		c0.544-0.095,1.061,0.277,1.15,0.822l1,6c0.091,0.544-0.277,1.06-0.822,1.15C26.009,10.995,25.954,10.998,25.899,10.998z"/>
	<path style="fill:#5E5F62;" d="M31,10.998c-0.553,0-1-0.447-1-1v-6c0-0.553,0.447-1,1-1s1,0.447,1,1v6
		C32,10.551,31.553,10.998,31,10.998z"/>
	<path style="fill:#5E5F62;" d="M40,11.998c-0.104,0-0.211-0.017-0.316-0.052c-0.523-0.174-0.807-0.74-0.632-1.265l2-6
		c0.175-0.523,0.737-0.808,1.265-0.632c0.523,0.174,0.807,0.74,0.632,1.265l-2,6C40.809,11.734,40.419,11.998,40,11.998z"/>
	<path style="fill:#5E5F62;" d="M42.999,13.998c-0.15,0-0.303-0.034-0.446-0.105c-0.494-0.247-0.694-0.848-0.447-1.342l3-6
		c0.248-0.494,0.848-0.691,1.342-0.447c0.494,0.247,0.694,0.848,0.447,1.342l-3,6C43.719,13.796,43.366,13.998,42.999,13.998z"/>
	<path style="fill:#F9A671;" d="M37.8,37.832c-0.331-0.443-0.959-0.531-1.399-0.2l-1.205,0.904
		c-5.373-3.601-11.331,0.053-14.312,3.06L19.6,40.632c-0.44-0.331-1.067-0.242-1.399,0.2c-0.332,0.441-0.242,1.068,0.2,1.399l4,3
		c0.18,0.135,0.39,0.2,0.599,0.2c0.305,0,0.604-0.138,0.801-0.4c0.332-0.441,0.242-1.068-0.2-1.399l-1.083-0.813
		c1.8-1.695,6.497-5.414,10.973-3.004L32.4,40.632c-0.442,0.331-0.532,0.958-0.2,1.399c0.196,0.263,0.496,0.4,0.801,0.4
		c0.209,0,0.419-0.065,0.599-0.2l4-3C38.042,38.901,38.132,38.274,37.8,37.832z"/>
	<circle style="fill:#FFFFFF;" cx="38" cy="25.003" r="6"/>
	<circle style="fill:#7F5B53;" cx="37" cy="27.003" r="1"/>
	<path style="fill:#F9A671;" d="M43.146,21.929c-1.048-1.75-2.957-2.926-5.146-2.926c-3.314,0-6,2.687-6,6
		c0,0.331,0.034,0.653,0.085,0.969L43,22.003L43.146,21.929z"/>
</g>
<g>
</g>
<g>
</g>
<g>
</g>
<g>
</g>
<g>
</g>
<g>
</g>
<g>
</g>
<g>
</g>
<g>
</g>
<g>
</g>
<g>
</g>
<g>
</g>
<g>
</g>
<g>
</g>
<g>
</g>
</svg>
