<?xml version="1.0" encoding="iso-8859-1"?>
<!-- Generator: Adobe Illustrator 18.0.0, SVG Export Plug-In . SVG Version: 6.00 Build 0)  -->
<!DOCTYPE svg PUBLIC "-//W3C//DTD SVG 1.1//EN" "http://www.w3.org/Graphics/SVG/1.1/DTD/svg11.dtd">
<svg version="1.1" id="Capa_1" xmlns="http://www.w3.org/2000/svg" xmlns:xlink="http://www.w3.org/1999/xlink" x="0px" y="0px"
	 viewBox="0 0 58 58" style="enable-background:new 0 0 58 58;" xml:space="preserve">
<g>
	<path style="fill:#FDC794;" d="M54.046,30.487C50.004,8.641,29.392,8.825,29.392,8.825s-0.86-0.004-2.25,0.167L29,21.998l-4,2
		L17.932,11.79c-5.474,2.786-11.25,8.189-13.194,18.697c-1.118,6.04,0.043,12.356,3.646,17.323
		c3.488,4.807,9.761,9.345,21.008,9.188c11.246,0.156,17.52-4.381,21.008-9.188C54.003,42.843,55.164,36.527,54.046,30.487z"/>
	<polygon style="fill:#FFFFFF;" points="44,47.998 20,47.998 20,47.998 44,37.998 	"/>
	<path style="fill:#F9A671;" d="M4.499,32.124c-0.453-0.429-0.985-0.687-1.559-0.687C1.316,31.437,0,33.418,0,35.861
		c0,2.443,1.316,4.424,2.939,4.424c0.687,0,1.311-0.37,1.811-0.964C4.297,36.969,4.218,34.537,4.499,32.124z"/>
	<path style="fill:#F9A671;" d="M57.823,28.297c-0.563-2.377-2.3-3.999-3.879-3.622c-0.491,0.117-0.898,0.43-1.225,0.855
		c0.538,1.515,0.994,3.154,1.328,4.957c0.155,0.837,0.261,1.679,0.328,2.522c0.52,0.284,1.072,0.402,1.608,0.274
		C57.562,32.906,58.386,30.674,57.823,28.297z"/>
	<path style="fill:#F9A671;" d="M48,20.698c-0.271,0-0.521-0.11-0.71-0.29c-0.181-0.19-0.29-0.44-0.29-0.71
		c0-0.271,0.109-0.521,0.29-0.71c0.37-0.36,1.05-0.37,1.42,0.01c0.18,0.18,0.29,0.439,0.29,0.7c0,0.26-0.101,0.52-0.29,0.71
		C48.52,20.588,48.26,20.698,48,20.698z"/>
	<path style="fill:#F9A671;" d="M44.84,20.767c-0.26,0-0.521-0.109-0.71-0.29c-0.19-0.189-0.29-0.45-0.29-0.71s0.1-0.52,0.29-0.71
		c0.37-0.37,1.05-0.37,1.42,0c0.18,0.19,0.29,0.45,0.29,0.71s-0.11,0.521-0.29,0.71C45.359,20.658,45.1,20.767,44.84,20.767z"/>
	<path style="fill:#F9A671;" d="M46.05,18.208c-0.27,0-0.52-0.101-0.71-0.29c-0.19-0.18-0.29-0.44-0.29-0.71
		c0-0.26,0.1-0.521,0.29-0.71c0.37-0.36,1.05-0.37,1.42,0.01c0.18,0.18,0.29,0.44,0.29,0.7c0,0.27-0.11,0.53-0.29,0.71
		C46.569,18.107,46.31,18.208,46.05,18.208z"/>
	<path style="fill:#F9A671;" d="M42.89,18.277c-0.27,0-0.52-0.1-0.71-0.289c-0.189-0.19-0.29-0.44-0.29-0.711
		c0-0.26,0.101-0.52,0.29-0.699c0.37-0.38,1.04-0.38,1.41-0.011c0.19,0.19,0.3,0.45,0.3,0.71c0,0.261-0.109,0.521-0.3,0.711
		C43.399,18.177,43.149,18.277,42.89,18.277z"/>
	<path style="fill:#F9A671;" d="M14,25.998c-0.271,0-0.521-0.11-0.71-0.29c-0.181-0.19-0.29-0.45-0.29-0.71s0.109-0.521,0.29-0.71
		c0.37-0.37,1.04-0.37,1.42,0c0.18,0.189,0.29,0.45,0.29,0.71s-0.11,0.52-0.29,0.71C14.52,25.887,14.26,25.998,14,25.998z"/>
	<path style="fill:#F9A671;" d="M42.819,15.118c-0.27,0-0.529-0.11-0.71-0.29c-0.189-0.19-0.29-0.45-0.29-0.71
		c0-0.261,0.101-0.521,0.29-0.71c0.37-0.37,1.04-0.37,1.41,0c0.19,0.189,0.3,0.449,0.3,0.71c0,0.26-0.109,0.52-0.3,0.71
		C43.34,15.008,43.08,15.118,42.819,15.118z"/>
	<path style="fill:#F9A671;" d="M39.05,16.468c-0.26,0-0.52-0.11-0.71-0.3c-0.18-0.18-0.29-0.44-0.29-0.7
		c0-0.27,0.11-0.53,0.29-0.71c0.38-0.38,1.04-0.37,1.42,0c0.18,0.18,0.29,0.44,0.29,0.71c0,0.26-0.11,0.521-0.29,0.7
		C39.569,16.357,39.31,16.468,39.05,16.468z"/>
	<path style="fill:#F9A671;" d="M35.22,14.647c-0.27,0-0.52-0.1-0.71-0.29c-0.19-0.18-0.29-0.439-0.29-0.71
		c0-0.26,0.1-0.52,0.29-0.71c0.37-0.37,1.05-0.37,1.41,0c0.189,0.19,0.3,0.45,0.3,0.71c0,0.271-0.11,0.521-0.3,0.71
		C35.74,14.548,35.479,14.647,35.22,14.647z"/>
	<path style="fill:#F9A671;" d="M31.109,15.057c-0.26,0-0.51-0.109-0.699-0.3c-0.19-0.18-0.29-0.44-0.29-0.7
		c0-0.27,0.1-0.53,0.29-0.71c0.37-0.37,1.04-0.37,1.409,0c0.19,0.18,0.29,0.44,0.29,0.71c0,0.26-0.1,0.521-0.29,0.7
		C31.63,14.948,31.38,15.057,31.109,15.057z"/>
	<path style="fill:#F9A671;" d="M18,17.998c-0.26,0-0.521-0.11-0.71-0.29c-0.19-0.19-0.29-0.45-0.29-0.71s0.1-0.521,0.29-0.7
		c0.37-0.38,1.05-0.38,1.42-0.01c0.18,0.189,0.29,0.45,0.29,0.71c0,0.27-0.11,0.52-0.29,0.71C18.52,17.887,18.26,17.998,18,17.998z"
		/>
	<path style="fill:#F9A671;" d="M28.56,11.468c-0.27,0-0.529-0.11-0.71-0.3c-0.189-0.18-0.29-0.44-0.29-0.7
		c0-0.27,0.101-0.53,0.29-0.71c0.37-0.37,1.04-0.37,1.41,0c0.19,0.18,0.3,0.44,0.3,0.71c0,0.26-0.109,0.521-0.29,0.7
		C29.08,11.357,28.819,11.468,28.56,11.468z"/>
	<path style="fill:#F9A671;" d="M32.319,12.498c-0.26,0-0.52-0.11-0.699-0.29c-0.19-0.19-0.301-0.45-0.301-0.71
		c0-0.271,0.11-0.521,0.301-0.71c0.37-0.37,1.04-0.37,1.41,0c0.189,0.189,0.289,0.439,0.289,0.71c0,0.26-0.1,0.52-0.289,0.71
		C32.84,12.387,32.59,12.498,32.319,12.498z"/>
	<path style="fill:#F9A671;" d="M16,16.597c-0.26,0-0.521-0.109-0.71-0.29c-0.181-0.189-0.29-0.439-0.29-0.71
		c0-0.26,0.109-0.52,0.29-0.71c0.38-0.37,1.05-0.37,1.42,0c0.18,0.19,0.29,0.45,0.29,0.71s-0.11,0.521-0.29,0.71
		C16.52,16.488,16.27,16.597,16,16.597z"/>
	<path style="fill:#F9A671;" d="M36.43,12.097c-0.27,0-0.52-0.109-0.71-0.3c-0.189-0.18-0.29-0.44-0.29-0.7
		c0-0.27,0.101-0.53,0.29-0.71c0.37-0.37,1.04-0.37,1.41,0c0.189,0.18,0.3,0.44,0.3,0.71c0,0.26-0.11,0.521-0.29,0.7
		C36.95,11.988,36.689,12.097,36.43,12.097z"/>
	<path style="fill:#F9A671;" d="M7,30.998c-0.271,0-0.521-0.11-0.71-0.3C6.109,30.527,6,30.267,6,29.998
		c0-0.271,0.109-0.521,0.29-0.71c0.38-0.37,1.04-0.37,1.42,0C7.899,29.477,8,29.738,8,29.998s-0.11,0.52-0.29,0.71
		C7.52,30.887,7.26,30.998,7,30.998z"/>
	<path style="fill:#F9A671;" d="M9.49,29.048c-0.271,0-0.53-0.11-0.71-0.3c-0.181-0.181-0.29-0.44-0.29-0.7
		c0-0.271,0.109-0.521,0.29-0.71c0.369-0.37,1.039-0.37,1.42,0c0.18,0.189,0.29,0.45,0.29,0.71s-0.11,0.51-0.29,0.7
		C10.01,28.937,9.75,29.048,9.49,29.048z"/>
	<path style="fill:#F9A671;" d="M7.39,26.147c-0.27,0-0.52-0.109-0.71-0.29c-0.18-0.189-0.29-0.449-0.29-0.71
		c0-0.26,0.11-0.52,0.29-0.71c0.37-0.37,1.05-0.37,1.42,0c0.181,0.19,0.29,0.45,0.29,0.71c0,0.261-0.109,0.521-0.29,0.71
		C7.91,26.038,7.66,26.147,7.39,26.147z"/>
	<path style="fill:#F9A671;" d="M10.97,24.267c-0.27,0-0.52-0.1-0.71-0.29c-0.19-0.189-0.29-0.45-0.29-0.71s0.1-0.52,0.29-0.71
		c0.37-0.37,1.04-0.37,1.41,0c0.189,0.19,0.3,0.45,0.3,0.71s-0.11,0.521-0.3,0.71C11.479,24.168,11.229,24.267,10.97,24.267z"/>
	<path style="fill:#F9A671;" d="M14.729,20.998c-0.26,0-0.52-0.11-0.71-0.29c-0.18-0.19-0.29-0.44-0.29-0.71
		c0-0.271,0.11-0.521,0.301-0.71c0.369-0.37,1.039-0.37,1.409,0c0.19,0.189,0.29,0.45,0.29,0.71s-0.1,0.52-0.29,0.71
		C15.25,20.887,15,20.998,14.729,20.998z"/>
	<path style="fill:#F9A671;" d="M18.689,22.107c-0.26,0-0.52-0.109-0.71-0.3c-0.18-0.18-0.29-0.439-0.29-0.7
		c0-0.26,0.11-0.52,0.29-0.71c0.38-0.37,1.04-0.37,1.42,0c0.181,0.19,0.29,0.45,0.29,0.71c0,0.261-0.109,0.521-0.3,0.71
		C19.21,21.998,18.95,22.107,18.689,22.107z"/>
	<path style="fill:#F9A671;" d="M20.899,19.998c-0.27,0-0.52-0.11-0.71-0.29c-0.189-0.19-0.29-0.45-0.29-0.71s0.101-0.521,0.29-0.71
		c0.37-0.37,1.051-0.37,1.42,0c0.181,0.18,0.29,0.439,0.29,0.71c0,0.26-0.109,0.52-0.29,0.71
		C21.42,19.887,21.16,19.998,20.899,19.998z"/>
	<path style="fill:#F9A671;" d="M47,22.998c-0.26,0-0.521-0.11-0.71-0.29c-0.181-0.19-0.29-0.45-0.29-0.71s0.109-0.521,0.29-0.71
		c0.37-0.37,1.04-0.37,1.42,0c0.18,0.189,0.29,0.45,0.29,0.71s-0.11,0.52-0.29,0.71C47.52,22.887,47.26,22.998,47,22.998z"/>
	<path style="fill:#F9A671;" d="M35.29,17.807c-0.271,0-0.53-0.1-0.71-0.29c-0.19-0.18-0.29-0.439-0.29-0.71
		c0-0.26,0.1-0.52,0.29-0.7c0.37-0.369,1.04-0.38,1.41,0c0.189,0.181,0.3,0.44,0.3,0.7s-0.11,0.521-0.3,0.71
		C35.81,17.708,35.55,17.807,35.29,17.807z"/>
	<path style="fill:#F9A671;" d="M40.399,20.227c-0.26,0-0.52-0.1-0.71-0.29c-0.18-0.189-0.29-0.439-0.29-0.71
		c0-0.26,0.11-0.52,0.29-0.7c0.37-0.369,1.04-0.38,1.41,0c0.19,0.181,0.3,0.44,0.3,0.7c0,0.271-0.109,0.521-0.3,0.71
		C40.92,20.128,40.66,20.227,40.399,20.227z"/>
	<path style="fill:#F9A671;" d="M31,18.378c-0.271,0-0.521-0.11-0.71-0.29c-0.181-0.19-0.29-0.45-0.29-0.71s0.109-0.521,0.29-0.71
		c0.38-0.37,1.04-0.37,1.42,0c0.18,0.189,0.29,0.45,0.29,0.71s-0.11,0.52-0.29,0.71C31.52,18.267,31.26,18.378,31,18.378z"/>
	<path style="fill:#F9A671;" d="M11.84,18.998c-0.26,0-0.521-0.11-0.71-0.29c-0.18-0.19-0.29-0.45-0.29-0.71
		c0-0.271,0.11-0.521,0.29-0.71c0.38-0.37,1.03-0.37,1.41,0c0.189,0.189,0.3,0.45,0.3,0.71s-0.11,0.52-0.29,0.71
		C12.359,18.887,12.1,18.998,11.84,18.998z"/>
	<circle style="fill:#FFFFFF;" cx="38" cy="27.998" r="6"/>
	<circle style="fill:#7F5B53;" cx="37" cy="29.998" r="1"/>
	<circle style="fill:#FFFFFF;" cx="20" cy="32.999" r="6"/>
	<circle style="fill:#7F5B53;" cx="21.651" cy="34.507" r="1"/>
	
		<rect x="31" y="33.24" transform="matrix(0.2042 0.9789 -0.9789 0.2042 70.0052 4.8819)" style="fill:#ECF0F1;" width="1.999" height="24.515"/>
	<path style="fill:#F9A671;" d="M44,48.998H20c-0.477,0-0.887-0.337-0.98-0.804c-0.094-0.468,0.156-0.936,0.596-1.119l24-10
		c0.31-0.129,0.66-0.096,0.939,0.091C44.833,37.351,45,37.664,45,37.998v10C45,48.551,44.553,48.998,44,48.998z M25,46.998h18v-7.5
		L25,46.998z"/>
	<path style="fill:#F9A671;" d="M14.256,31.994l11.612-0.214c-0.065-0.313-0.15-0.626-0.268-0.935
		c-1.19-3.093-4.661-4.636-7.754-3.446c-2.049,0.788-3.411,2.578-3.756,4.595L14.256,31.994z"/>
	<path style="fill:#F9A671;" d="M43.159,24.945c-1.045-1.762-2.961-2.947-5.159-2.947c-3.314,0-6,2.686-6,6
		c0,0.331,0.034,0.653,0.085,0.969L43,24.998L43.159,24.945z"/>
	<polygon style="fill:#5E5F62;" points="29,21.998 25,23.998 14,4.998 26,0.998 	"/>
</g>
<g>
</g>
<g>
</g>
<g>
</g>
<g>
</g>
<g>
</g>
<g>
</g>
<g>
</g>
<g>
</g>
<g>
</g>
<g>
</g>
<g>
</g>
<g>
</g>
<g>
</g>
<g>
</g>
<g>
</g>
</svg>
