<?xml version="1.0" encoding="iso-8859-1"?>
<!-- Generator: Adobe Illustrator 18.0.0, SVG Export Plug-In . SVG Version: 6.00 Build 0)  -->
<!DOCTYPE svg PUBLIC "-//W3C//DTD SVG 1.1//EN" "http://www.w3.org/Graphics/SVG/1.1/DTD/svg11.dtd">
<svg version="1.1" id="Capa_1" xmlns="http://www.w3.org/2000/svg" xmlns:xlink="http://www.w3.org/1999/xlink" x="0px" y="0px"
	 viewBox="0 0 50 50" style="enable-background:new 0 0 50 50;" xml:space="preserve">
<g>
	<path style="fill:#FFD581;" d="M48.5,29.5c0-1.898-1.337-3.839-3-4.5c-1.448-8.189-7.524-14.502-15.478-16.399L29.5,18h-8
		l-0.534-9.617C12.528,9.973,6.007,16.475,4.5,25c-1.663,0.661-3,2.602-3,4.5c0,1.978,1.284,3.639,3.058,4.242
		C6.71,43.052,15.036,50,25,50c9.964,0,18.29-6.948,20.442-16.258C47.216,33.139,48.5,31.478,48.5,29.5z"/>
	<path style="fill:#D8A956;" d="M30.5,46c-0.552,0-1-0.447-1-1c0-2.757-2.243-5-5-5s-5,2.243-5,5c0,0.553-0.448,1-1,1s-1-0.447-1-1
		c0-3.859,3.14-7,7-7s7,3.141,7,7C31.5,45.553,31.052,46,30.5,46z"/>
	<circle style="fill:#414141;" cx="18.5" cy="28" r="2"/>
	<circle style="fill:#414141;" cx="32.5" cy="28" r="2"/>
	<g>
		<path style="fill:#D8A956;" d="M35.79,34.292c-0.18,0.189-0.29,0.45-0.29,0.71s0.11,0.52,0.29,0.71c0.19,0.18,0.45,0.29,0.71,0.29
			c0.26,0,0.52-0.11,0.71-0.29c0.18-0.19,0.29-0.45,0.29-0.71c0-0.271-0.11-0.521-0.29-0.71C36.83,33.922,36.16,33.922,35.79,34.292
			z"/>
		<path style="fill:#D8A956;" d="M33.67,32.172c-0.19,0.19-0.29,0.44-0.29,0.71c0,0.26,0.1,0.521,0.29,0.71
			c0.19,0.18,0.45,0.29,0.71,0.29c0.26,0,0.52-0.11,0.71-0.3c0.18-0.18,0.29-0.44,0.29-0.7c0-0.27-0.11-0.53-0.29-0.71
			C34.72,31.802,34.04,31.802,33.67,32.172z"/>
		<path style="fill:#D8A956;" d="M38.62,33.882c0.26,0,0.52-0.11,0.71-0.3c0.18-0.18,0.29-0.44,0.29-0.7c0-0.27-0.11-0.53-0.29-0.71
			c-0.37-0.37-1.04-0.37-1.42,0c-0.18,0.19-0.29,0.44-0.29,0.71c0,0.26,0.11,0.521,0.29,0.71C38.1,33.771,38.36,33.882,38.62,33.882
			z"/>
		<path style="fill:#D8A956;" d="M37.92,36.412c-0.19,0.18-0.3,0.439-0.3,0.71c0,0.27,0.11,0.52,0.3,0.71
			c0.18,0.18,0.44,0.29,0.7,0.29c0.26,0,0.52-0.11,0.71-0.29c0.18-0.19,0.29-0.45,0.29-0.71s-0.11-0.521-0.29-0.71
			C38.96,36.042,38.28,36.042,37.92,36.412z"/>
		<path style="fill:#D8A956;" d="M33.67,36.412c-0.18,0.189-0.29,0.439-0.29,0.71c0,0.26,0.11,0.52,0.29,0.71
			c0.19,0.18,0.45,0.29,0.71,0.29c0.26,0,0.52-0.11,0.71-0.29c0.18-0.19,0.29-0.45,0.29-0.71s-0.11-0.521-0.29-0.71
			C34.72,36.042,34.05,36.042,33.67,36.412z"/>
		<path style="fill:#D8A956;" d="M13.67,34.412c-0.18,0.189-0.29,0.439-0.29,0.71c0,0.26,0.11,0.52,0.29,0.71
			c0.19,0.18,0.45,0.29,0.71,0.29c0.26,0,0.52-0.11,0.71-0.29c0.18-0.19,0.29-0.45,0.29-0.71s-0.11-0.521-0.29-0.71
			C14.71,34.042,14.04,34.042,13.67,34.412z"/>
		<path style="fill:#D8A956;" d="M11.55,32.292c-0.19,0.18-0.29,0.439-0.29,0.71c0,0.26,0.1,0.52,0.29,0.71
			c0.19,0.18,0.45,0.29,0.71,0.29c0.26,0,0.51-0.11,0.71-0.29c0.18-0.19,0.29-0.45,0.29-0.71c0-0.271-0.11-0.521-0.3-0.71
			C12.59,31.922,11.92,31.922,11.55,32.292z"/>
		<path style="fill:#D8A956;" d="M15.79,32.292c-0.18,0.189-0.29,0.45-0.29,0.71s0.11,0.52,0.29,0.71c0.19,0.18,0.45,0.29,0.71,0.29
			c0.26,0,0.52-0.11,0.71-0.29c0.18-0.19,0.29-0.45,0.29-0.71c0-0.271-0.11-0.521-0.29-0.71C16.84,31.922,16.16,31.922,15.79,32.292
			z"/>
		<path style="fill:#D8A956;" d="M15.79,36.532c-0.18,0.189-0.29,0.449-0.29,0.71c0,0.26,0.11,0.52,0.29,0.71
			c0.19,0.189,0.45,0.29,0.71,0.29c0.26,0,0.52-0.101,0.7-0.29c0.19-0.181,0.3-0.44,0.3-0.71c0-0.271-0.11-0.521-0.29-0.71
			C16.84,36.162,16.16,36.162,15.79,36.532z"/>
		<path style="fill:#D8A956;" d="M11.55,36.532c-0.19,0.189-0.29,0.449-0.29,0.71c0,0.27,0.1,0.52,0.29,0.71
			c0.19,0.189,0.45,0.29,0.71,0.29c0.26,0,0.52-0.101,0.7-0.29c0.19-0.19,0.3-0.45,0.3-0.71c0-0.261-0.11-0.521-0.3-0.71
			C12.59,36.162,11.92,36.162,11.55,36.532z"/>
	</g>
	<polygon style="fill:#414141;" points="29.5,18 21.5,18 20.5,0 30.5,0 	"/>
	<path style="fill:#B27821;" d="M21.5,26c-0.219,0-0.44-0.071-0.624-0.219l-5-4c-0.432-0.346-0.501-0.975-0.156-1.406
		c0.345-0.43,0.975-0.501,1.405-0.156l5,4c0.432,0.346,0.501,0.975,0.156,1.406C22.083,25.871,21.792,26,21.5,26z"/>
	<path style="fill:#B27821;" d="M29.5,26c-0.293,0-0.584-0.128-0.781-0.375c-0.345-0.432-0.275-1.061,0.156-1.406l5-4
		c0.431-0.346,1.061-0.276,1.405,0.156c0.345,0.432,0.275,1.061-0.156,1.406l-5,4C29.94,25.929,29.72,26,29.5,26z"/>
</g>
<g>
</g>
<g>
</g>
<g>
</g>
<g>
</g>
<g>
</g>
<g>
</g>
<g>
</g>
<g>
</g>
<g>
</g>
<g>
</g>
<g>
</g>
<g>
</g>
<g>
</g>
<g>
</g>
<g>
</g>
</svg>
