<?xml version="1.0" encoding="iso-8859-1"?>
<!-- Generator: Adobe Illustrator 18.0.0, SVG Export Plug-In . SVG Version: 6.00 Build 0)  -->
<!DOCTYPE svg PUBLIC "-//W3C//DTD SVG 1.1//EN" "http://www.w3.org/Graphics/SVG/1.1/DTD/svg11.dtd">
<svg version="1.1" id="Capa_1" xmlns="http://www.w3.org/2000/svg" xmlns:xlink="http://www.w3.org/1999/xlink" x="0px" y="0px"
	 viewBox="0 0 59 59" style="enable-background:new 0 0 59 59;" xml:space="preserve">
<g>
	<path style="fill:#FFDB2B;" d="M46.451,14H34.608l-1.157,4v0l0,0h-8l0,0l-1.415-4H12.451c-2.2,0-4,1.8-4,4v6.197
		C15.26,21.65,23.022,22.089,29.5,25.52c6.447-3.415,14.165-3.863,20.951-1.357V18C50.451,15.8,48.651,14,46.451,14z"/>
	<path style="fill:#FFDB2B;" d="M46.643,39.632C30.786,41.221,29.5,29.029,29.5,25.52c0,3.51-1.286,15.701-17.143,14.112
		c-1.682-0.169-2.948-0.946-3.906-2.063V51c0,2.2,1.8,4,4,4h34c2.2,0,4-1.8,4-4V37.683C49.504,38.739,48.267,39.469,46.643,39.632z"
		/>
	<g>
		<g>
			<path style="fill:#556080;" d="M5.5,25.52c0,3.51,0.268,13.452,6.857,14.112C28.214,41.22,29.5,29.03,29.5,25.52
				C22.064,21.581,12.936,21.581,5.5,25.52z"/>
			<path style="fill:#556080;" d="M15.086,40.774c-0.907,0-1.85-0.049-2.828-0.146C8.719,40.273,4.5,37.363,4.5,25.52v-0.602
				l0.532-0.282c7.689-4.074,17.246-4.074,24.936,0l0.532,0.282v0.602c0,2.235-0.455,7.846-4.673,11.661
				C23.188,39.57,19.582,40.774,15.086,40.774z M6.504,26.128c0.074,5.583,1.203,12.033,5.953,12.509
				c5.241,0.524,9.291-0.463,12.028-2.939c3.332-3.015,3.915-7.551,4.001-9.574C21.651,22.728,13.339,22.731,6.504,26.128z"/>
		</g>
		<g>
			<path style="fill:#556080;" d="M29.5,25.52c0,3.51,1.286,15.701,17.143,14.112C53.232,38.972,53.5,29.03,53.5,25.52
				C46.064,21.581,36.936,21.581,29.5,25.52z"/>
			<path style="fill:#556080;" d="M43.914,40.774c-4.496,0-8.101-1.203-10.741-3.593C28.955,33.365,28.5,27.755,28.5,25.52v-0.602
				l0.532-0.282c7.689-4.074,17.246-4.074,24.936,0l0.532,0.282v0.602c0,11.844-4.219,14.753-7.758,15.107
				C45.764,40.725,44.821,40.774,43.914,40.774z M30.514,26.123c0.086,2.023,0.669,6.56,4.001,9.574
				c2.736,2.477,6.782,3.465,12.028,2.939c4.75-0.476,5.879-6.926,5.953-12.509C45.662,22.731,37.35,22.728,30.514,26.123z"/>
		</g>
	</g>
	<path style="fill:#8697CB;" d="M9.305,30.414c-0.264,0-0.526-0.104-0.723-0.309c-0.382-0.399-0.367-1.032,0.031-1.414l3.672-3.512
		c0.4-0.381,1.033-0.366,1.414,0.031c0.382,0.399,0.367,1.032-0.031,1.414l-3.672,3.512C9.802,30.322,9.554,30.414,9.305,30.414z"/>
	<path style="fill:#8697CB;" d="M14.2,32.756c-0.264,0-0.526-0.104-0.723-0.309c-0.382-0.399-0.367-1.032,0.031-1.414l6.12-5.854
		c0.4-0.381,1.032-0.366,1.414,0.031c0.382,0.399,0.367,1.032-0.031,1.414l-6.12,5.854C14.697,32.664,14.449,32.756,14.2,32.756z"/>
	<path style="fill:#8697CB;" d="M36.231,30.414c-0.264,0-0.526-0.104-0.723-0.309c-0.382-0.399-0.367-1.032,0.031-1.414l3.672-3.512
		c0.4-0.381,1.032-0.366,1.414,0.031c0.382,0.399,0.367,1.032-0.031,1.414l-3.672,3.512C36.729,30.322,36.481,30.414,36.231,30.414z
		"/>
	<path style="fill:#8697CB;" d="M41.128,32.756c-0.264,0-0.526-0.104-0.723-0.309c-0.382-0.399-0.368-1.032,0.031-1.414l6.119-5.854
		c0.401-0.381,1.032-0.366,1.414,0.031c0.382,0.399,0.368,1.032-0.031,1.414l-6.119,5.854
		C41.625,32.664,41.377,32.756,41.128,32.756z"/>
	<g>
		<polygon style="fill:#556080;" points="37.5,4 33.451,18 25.451,18 20.5,4 29.5,1 		"/>
		<path style="fill:#8697CB;" d="M33.451,19h-8c-0.424,0-0.802-0.267-0.942-0.667l-4.951-14c-0.09-0.253-0.074-0.531,0.044-0.772
			s0.327-0.425,0.582-0.509l9-3c0.218-0.074,0.453-0.067,0.668,0.012l8,3c0.488,0.184,0.754,0.713,0.609,1.214l-4.049,14
			C34.288,18.706,33.897,19,33.451,19z M26.158,17h6.541l3.583-12.389l-6.802-2.551l-7.698,2.566L26.158,17z"/>
	</g>
	<g>
		<polygon style="fill:#FFFFFF;" points="38.451,51 18.451,51 18.451,51 38.451,42.667 		"/>
		<path style="fill:#E57E25;" d="M38.451,52h-20c-0.477,0-0.887-0.337-0.98-0.804c-0.094-0.468,0.156-0.936,0.596-1.119l20-8.333
			c0.31-0.13,0.661-0.095,0.939,0.091s0.445,0.498,0.445,0.832V51C39.451,51.553,39.004,52,38.451,52z M23.451,50h14v-5.833
			L23.451,50z"/>
	</g>
	
		<rect x="27.452" y="38.702" transform="matrix(0.2042 0.9789 -0.9789 0.2042 70.5278 11.0766)" style="fill:#E57E25;" width="1.999" height="20.429"/>
	<g>
		<path style="fill:#556080;" d="M14.74,19.29c-0.181,0.189-0.29,0.45-0.29,0.71s0.109,0.52,0.29,0.71
			C14.93,20.9,15.189,21,15.45,21c0.26,0,0.52-0.101,0.71-0.29c0.189-0.19,0.29-0.45,0.29-0.71s-0.101-0.521-0.29-0.71
			C15.79,18.92,15.13,18.92,14.74,19.29z"/>
		<path style="fill:#556080;" d="M11.74,22.29c-0.181,0.189-0.29,0.45-0.29,0.71s0.109,0.52,0.29,0.7
			c0.189,0.189,0.449,0.3,0.71,0.3c0.27,0,0.529-0.11,0.71-0.3c0.18-0.181,0.29-0.44,0.29-0.7s-0.11-0.521-0.29-0.71
			C12.79,21.92,12.109,21.92,11.74,22.29z"/>
		<path style="fill:#556080;" d="M11.74,19.29c-0.181,0.189-0.29,0.45-0.29,0.71s0.109,0.52,0.29,0.71
			C11.93,20.9,12.189,21,12.45,21c0.26,0,0.52-0.101,0.71-0.29c0.189-0.19,0.29-0.45,0.29-0.71s-0.101-0.521-0.29-0.71
			C12.79,18.92,12.13,18.92,11.74,19.29z"/>
		<path style="fill:#556080;" d="M15.16,17.71c0.189-0.19,0.29-0.45,0.29-0.71s-0.101-0.521-0.29-0.71c-0.37-0.37-1.04-0.37-1.42,0
			c-0.181,0.189-0.29,0.45-0.29,0.71s0.109,0.52,0.29,0.71C13.93,17.9,14.189,18,14.45,18C14.71,18,14.97,17.89,15.16,17.71z"/>
		<path style="fill:#556080;" d="M18.16,17.71c0.189-0.19,0.29-0.45,0.29-0.71s-0.11-0.521-0.29-0.71c-0.38-0.37-1.04-0.37-1.42,0
			c-0.181,0.189-0.29,0.45-0.29,0.71s0.109,0.52,0.29,0.71C16.93,17.89,17.189,18,17.45,18C17.71,18,17.97,17.89,18.16,17.71z"/>
		<path style="fill:#556080;" d="M19.16,19.29c-0.37-0.37-1.03-0.37-1.42,0c-0.181,0.189-0.29,0.45-0.29,0.71s0.109,0.52,0.29,0.71
			C17.93,20.9,18.189,21,18.45,21c0.26,0,0.52-0.101,0.71-0.29c0.189-0.19,0.29-0.45,0.29-0.71S19.35,19.48,19.16,19.29z"/>
		<path style="fill:#556080;" d="M19.74,21.29c-0.181,0.189-0.29,0.45-0.29,0.71s0.109,0.52,0.29,0.71
			C19.93,22.89,20.189,23,20.45,23c0.26,0,0.52-0.11,0.71-0.29c0.18-0.19,0.29-0.45,0.29-0.71s-0.11-0.521-0.29-0.71
			C20.78,20.92,20.109,20.92,19.74,21.29z"/>
		<path style="fill:#556080;" d="M37.74,21.29c-0.181,0.189-0.29,0.45-0.29,0.71s0.109,0.52,0.29,0.71
			C37.93,22.89,38.189,23,38.45,23c0.26,0,0.52-0.11,0.71-0.29c0.18-0.19,0.29-0.45,0.29-0.71s-0.11-0.521-0.29-0.71
			C38.79,20.92,38.12,20.92,37.74,21.29z"/>
		<path style="fill:#556080;" d="M34.74,20.29c-0.181,0.18-0.29,0.439-0.29,0.71c0,0.26,0.109,0.52,0.29,0.71
			C34.93,21.9,35.189,22,35.45,22c0.26,0,0.52-0.101,0.71-0.29c0.189-0.19,0.29-0.45,0.29-0.71s-0.101-0.521-0.29-0.71
			C35.78,19.92,35.109,19.93,34.74,20.29z"/>
		<path style="fill:#556080;" d="M22.75,20.29c-0.19,0.18-0.3,0.439-0.3,0.71c0,0.26,0.109,0.52,0.29,0.71
			C22.93,21.9,23.189,22,23.45,22c0.26,0,0.52-0.101,0.71-0.29c0.189-0.19,0.29-0.45,0.29-0.71s-0.11-0.521-0.29-0.71
			C23.79,19.92,23.109,19.93,22.75,20.29z"/>
		<path style="fill:#556080;" d="M25.75,20.29c-0.19,0.18-0.3,0.439-0.3,0.71c0,0.26,0.109,0.52,0.29,0.71
			C25.93,21.9,26.189,22,26.45,22c0.26,0,0.52-0.101,0.71-0.29c0.189-0.19,0.29-0.45,0.29-0.71s-0.11-0.521-0.29-0.71
			C26.79,19.92,26.109,19.93,25.75,20.29z"/>
		<path style="fill:#556080;" d="M28.74,20.29C28.56,20.48,28.45,20.73,28.45,21c0,0.26,0.109,0.52,0.29,0.71
			C28.93,21.9,29.189,22,29.45,22c0.26,0,0.52-0.101,0.71-0.29c0.189-0.19,0.29-0.45,0.29-0.71s-0.11-0.521-0.29-0.71
			C29.79,19.92,29.12,19.92,28.74,20.29z"/>
		<path style="fill:#556080;" d="M31.74,20.29C31.56,20.48,31.45,20.73,31.45,21c0,0.26,0.109,0.52,0.29,0.71
			C31.93,21.9,32.189,22,32.45,22c0.26,0,0.52-0.101,0.71-0.29c0.189-0.19,0.29-0.45,0.29-0.71s-0.101-0.521-0.29-0.71
			C32.78,19.92,32.1,19.93,31.74,20.29z"/>
		<path style="fill:#556080;" d="M19.74,16.29c-0.181,0.189-0.29,0.45-0.29,0.71s0.109,0.52,0.29,0.71
			C19.93,17.89,20.189,18,20.45,18c0.26,0,0.52-0.101,0.71-0.29c0.189-0.19,0.29-0.45,0.29-0.71s-0.101-0.521-0.29-0.71
			C20.78,15.92,20.109,15.92,19.74,16.29z"/>
		<path style="fill:#556080;" d="M42.74,19.29c-0.181,0.189-0.29,0.45-0.29,0.71s0.109,0.52,0.29,0.71
			C42.93,20.9,43.189,21,43.45,21c0.26,0,0.52-0.101,0.71-0.29c0.189-0.19,0.29-0.45,0.29-0.71s-0.11-0.521-0.29-0.71
			C43.79,18.92,43.109,18.92,42.74,19.29z"/>
		<path style="fill:#556080;" d="M45.74,22.29c-0.181,0.189-0.29,0.45-0.29,0.71s0.109,0.52,0.29,0.7
			c0.189,0.189,0.449,0.3,0.71,0.3c0.27,0,0.529-0.11,0.71-0.29c0.18-0.19,0.29-0.45,0.29-0.71s-0.11-0.521-0.29-0.71
			C46.79,21.92,46.109,21.92,45.74,22.29z"/>
		<path style="fill:#556080;" d="M45.74,20.71C45.93,20.9,46.189,21,46.45,21c0.26,0,0.52-0.101,0.71-0.29
			c0.18-0.19,0.29-0.45,0.29-0.71s-0.11-0.521-0.29-0.71c-0.37-0.37-1.051-0.37-1.42,0c-0.181,0.189-0.29,0.45-0.29,0.71
			S45.56,20.52,45.74,20.71z"/>
		<path style="fill:#556080;" d="M45.16,16.29c-0.38-0.37-1.051-0.37-1.42,0c-0.181,0.189-0.29,0.45-0.29,0.71s0.109,0.52,0.29,0.71
			C43.93,17.89,44.189,18,44.45,18c0.26,0,0.52-0.11,0.71-0.29c0.189-0.19,0.29-0.45,0.29-0.71S45.34,16.48,45.16,16.29z"/>
		<path style="fill:#556080;" d="M42.16,16.29c-0.38-0.37-1.051-0.37-1.41,0c-0.19,0.18-0.3,0.439-0.3,0.71
			c0,0.26,0.109,0.52,0.29,0.71C40.93,17.89,41.189,18,41.45,18c0.26,0,0.52-0.11,0.71-0.29c0.189-0.19,0.29-0.45,0.29-0.71
			S42.34,16.48,42.16,16.29z"/>
		<path style="fill:#556080;" d="M39.74,19.29c-0.181,0.189-0.29,0.45-0.29,0.71s0.109,0.52,0.29,0.71
			C39.93,20.9,40.189,21,40.45,21c0.26,0,0.52-0.101,0.71-0.29c0.189-0.19,0.29-0.45,0.29-0.71s-0.11-0.521-0.29-0.71
			C40.79,18.92,40.109,18.92,39.74,19.29z"/>
		<path style="fill:#556080;" d="M38.45,18c0.26,0,0.52-0.101,0.71-0.29c0.189-0.19,0.29-0.45,0.29-0.71s-0.101-0.521-0.29-0.71
			c-0.38-0.37-1.051-0.37-1.42,0c-0.181,0.189-0.29,0.45-0.29,0.71s0.109,0.52,0.29,0.71C37.93,17.89,38.189,18,38.45,18z"/>
	</g>
	<path style="fill:#FEC722;" d="M41.146,59H17.756c-0.721,0-1.305-0.584-1.305-1.305V55h26v2.695C42.451,58.416,41.866,59,41.146,59
		z"/>
	<path style="fill:#8697CB;" d="M27.499,19c-0.497,0-0.928-0.37-0.991-0.876l-1-8c-0.068-0.548,0.32-1.048,0.868-1.116
		c0.554-0.064,1.048,0.32,1.116,0.868l1,8c0.068,0.548-0.32,1.048-0.868,1.116C27.582,18.997,27.54,19,27.499,19z"/>
	<path style="fill:#8697CB;" d="M31.501,19c-0.06,0-0.119-0.005-0.18-0.017c-0.544-0.099-0.904-0.619-0.805-1.162l2-11
		c0.098-0.544,0.622-0.911,1.162-0.805c0.544,0.099,0.904,0.619,0.805,1.162l-2,11C32.397,18.662,31.976,19,31.501,19z"/>
	<path style="fill:#8697CB;" d="M29.5,19c-0.553,0-1-0.447-1-1V5c0-0.553,0.447-1,1-1s1,0.447,1,1v13C30.5,18.553,30.053,19,29.5,19
		z"/>
</g>
<g>
</g>
<g>
</g>
<g>
</g>
<g>
</g>
<g>
</g>
<g>
</g>
<g>
</g>
<g>
</g>
<g>
</g>
<g>
</g>
<g>
</g>
<g>
</g>
<g>
</g>
<g>
</g>
<g>
</g>
</svg>
