<?xml version="1.0" encoding="iso-8859-1"?>
<!-- Generator: Adobe Illustrator 18.0.0, SVG Export Plug-In . SVG Version: 6.00 Build 0)  -->
<!DOCTYPE svg PUBLIC "-//W3C//DTD SVG 1.1//EN" "http://www.w3.org/Graphics/SVG/1.1/DTD/svg11.dtd">
<svg version="1.1" id="Capa_1" xmlns="http://www.w3.org/2000/svg" xmlns:xlink="http://www.w3.org/1999/xlink" x="0px" y="0px"
	 viewBox="0 0 44 44" style="enable-background:new 0 0 44 44;" xml:space="preserve">
<g>
	<path style="fill:#FBD971;" d="M39,15c-2.75,0-5-2.25-5-5c0-0.764,0.179-1.879,0.489-3.086C30.839,3.851,26.138,2,21,2
		C9.402,2,0,11.402,0,23c0,11.598,9.402,21,21,21s21-9.402,21-21c0-2.912-0.594-5.684-1.665-8.205C39.907,14.915,39.465,15,39,15z"
		/>
	<path style="fill:#F29C1F;" d="M16,19c-0.553,0-1-0.448-1-1c0-1.654-1.346-3-3-3s-3,1.346-3,3c0,0.552-0.447,1-1,1s-1-0.448-1-1
		c0-2.757,2.243-5,5-5s5,2.243,5,5C17,18.552,16.553,19,16,19z"/>
	<path style="fill:#F29C1F;" d="M34,19c-0.553,0-1-0.448-1-1c0-1.654-1.346-3-3-3s-3,1.346-3,3c0,0.552-0.447,1-1,1s-1-0.448-1-1
		c0-2.757,2.243-5,5-5s5,2.243,5,5C35,18.552,34.553,19,34,19z"/>
	<path style="fill:#48A0DC;" d="M39,15L39,15c-2.75,0-5-2.25-5-5v0c0-2.75,2.25-10,5-10h0c2.75,0,5,7.25,5,10v0
		C44,12.75,41.75,15,39,15z"/>
	<g>
		<path style="fill:#FFFFFF;" d="M32,26H10c0,6.075,4.925,11,11,11S32,32.075,32,26z"/>
		<path style="fill:#ECF0F0;" d="M30,30h-2v-4c0-0.552-0.447-1-1-1s-1,0.448-1,1v4h-2v-4c0-0.552-0.447-1-1-1s-1,0.448-1,1v4h-2v-4
			c0-0.552-0.447-1-1-1s-1,0.448-1,1v4h-2v-4c0-0.552-0.447-1-1-1s-1,0.448-1,1v4h-2c-0.553,0-1,0.448-1,1s0.447,1,1,1h2v3
			c0,0.552,0.447,1,1,1s1-0.448,1-1v-3h2v4c0,0.552,0.447,1,1,1s1-0.448,1-1v-4h2v4c0,0.552,0.447,1,1,1s1-0.448,1-1v-4h2v3
			c0,0.552,0.447,1,1,1s1-0.448,1-1v-3h2c0.553,0,1-0.448,1-1S30.553,30,30,30z"/>
		<path style="fill:#F0C419;" d="M21,38c-6.617,0-12-5.383-12-12c0-0.552,0.447-1,1-1h22c0.553,0,1,0.448,1,1
			C33,32.617,27.617,38,21,38z M11.05,27c0.503,5.046,4.773,9,9.95,9s9.447-3.954,9.95-9H11.05z"/>
	</g>
</g>
<g>
</g>
<g>
</g>
<g>
</g>
<g>
</g>
<g>
</g>
<g>
</g>
<g>
</g>
<g>
</g>
<g>
</g>
<g>
</g>
<g>
</g>
<g>
</g>
<g>
</g>
<g>
</g>
<g>
</g>
</svg>
