<?xml version="1.0" encoding="iso-8859-1"?>
<!-- Generator: Adobe Illustrator 18.0.0, SVG Export Plug-In . SVG Version: 6.00 Build 0)  -->
<!DOCTYPE svg PUBLIC "-//W3C//DTD SVG 1.1//EN" "http://www.w3.org/Graphics/SVG/1.1/DTD/svg11.dtd">
<svg version="1.1" id="Capa_1" xmlns="http://www.w3.org/2000/svg" xmlns:xlink="http://www.w3.org/1999/xlink" x="0px" y="0px"
	 viewBox="0 0 43.556 43.556" style="enable-background:new 0 0 43.556 43.556;" xml:space="preserve">
<g>
	<circle style="fill:#FBD971;" cx="21.778" cy="21.778" r="21"/>
	<path style="fill:#414141;" d="M17.777,12.778c-0.15,0-0.303-0.034-0.446-0.105c-2.146-1.072-4.893-2.163-7.105-1.056
		c-0.495,0.245-1.094,0.047-1.342-0.447c-0.247-0.494-0.047-1.095,0.447-1.342c3.04-1.521,6.531-0.125,8.895,1.056
		c0.494,0.247,0.694,0.848,0.447,1.342C18.497,12.576,18.144,12.778,17.777,12.778z"/>
	<path style="fill:#414141;" d="M24.779,12.778c-0.367,0-0.72-0.202-0.896-0.553c-0.247-0.494-0.047-1.095,0.447-1.342
		c2.363-1.181,5.854-2.575,8.895-1.056c0.494,0.247,0.694,0.848,0.447,1.342s-0.848,0.692-1.342,0.447
		c-2.213-1.108-4.959-0.017-7.105,1.056C25.082,12.744,24.93,12.778,24.779,12.778z"/>
	<path style="fill:#414141;" d="M42.624,21.513c-1.103-1.515-2.396-2.429-3.842-2.715c-1.763-0.35-3.316,0.134-4.064,1.265
		c-0.623,0.943-0.543,2.17,0.216,3.28c0.872,1.275,2.262,1.497,2.944,1.431c0.542-0.055,0.931-0.532,0.887-1.075
		s-0.533-0.979-1.068-0.916c-0.077,0.003-0.707,0.024-1.111-0.568c-0.17-0.247-0.42-0.713-0.198-1.049
		c0.228-0.343,0.952-0.615,2.006-0.406c0.95,0.189,1.806,0.82,2.614,1.932c0.716,0.982,0.732,2.201,0.047,3.26
		c-0.559,0.861-1.769,1.752-3.327,1.419c-1.623-0.343-3.251-1.125-4.84-2.325c-1.902-1.438-3.893-2.015-5.91-1.705
		c-2.389,0.362-4.214,1.886-5.198,2.907c-0.984-1.021-2.81-2.545-5.198-2.907c-2.018-0.311-4.007,0.267-5.91,1.705
		c-1.589,1.2-3.217,1.982-4.84,2.325c-1.562,0.332-2.77-0.558-3.327-1.419c-0.686-1.059-0.669-2.277,0.047-3.26
		c0.649-0.893,1.411-1.744,2.573-1.924c0.794-0.123,1.404,0.069,1.711,0.54c0.226,0.347,0.216,0.734,0.122,0.881
		c-0.363,0.566-1.18,0.591-1.178,0.591c-0.553,0-1,0.447-1,1s0.447,1,1,1c0.703,0,2.097-0.318,2.861-1.512
		c0.551-0.86,0.499-2.087-0.13-3.052c-0.751-1.152-2.092-1.668-3.693-1.425c-2.144,0.332-3.363,2.008-3.884,2.723
		c-1.203,1.653-1.245,3.771-0.108,5.525c0.558,0.861,1.327,1.506,2.198,1.913c6.314,8.786,18.756,2.827,18.756,2.827
		s12.447,5.96,18.76-2.833c0.87-0.406,1.638-1.049,2.195-1.907C43.869,25.283,43.827,23.166,42.624,21.513z"/>
	<circle style="fill:#414141;" cx="29.278" cy="15.278" r="1.5"/>
	<circle style="fill:#414141;" cx="14.278" cy="15.278" r="1.5"/>
</g>
<g>
</g>
<g>
</g>
<g>
</g>
<g>
</g>
<g>
</g>
<g>
</g>
<g>
</g>
<g>
</g>
<g>
</g>
<g>
</g>
<g>
</g>
<g>
</g>
<g>
</g>
<g>
</g>
<g>
</g>
</svg>
