<?xml version="1.0" encoding="iso-8859-1"?>
<!-- Generator: Adobe Illustrator 18.0.0, SVG Export Plug-In . SVG Version: 6.00 Build 0)  -->
<!DOCTYPE svg PUBLIC "-//W3C//DTD SVG 1.1//EN" "http://www.w3.org/Graphics/SVG/1.1/DTD/svg11.dtd">
<svg version="1.1" id="Capa_1" xmlns="http://www.w3.org/2000/svg" xmlns:xlink="http://www.w3.org/1999/xlink" x="0px" y="0px"
	 viewBox="0 0 42 42" style="enable-background:new 0 0 42 42;" xml:space="preserve">
<g>
	<circle style="fill:#FBD971;" cx="21" cy="21" r="21"/>
	<g>
		<g>
			<path style="fill:#24AE5F;" d="M14.492,22.539c-0.364,0-0.599-0.235-0.599-0.599v-0.852c-1.244-0.171-2.013-0.376-3.061-1.216
				v0.798c0,0.364-0.235,0.599-0.599,0.599c-0.364,0-0.598-0.235-0.598-0.599V16.93c0-0.364,0.235-0.599,0.598-0.599
				c0.364,0,0.599,0.235,0.599,0.599v1.36c0.64,0.695,1.119,0.949,2.192,1.359c0.262,0.099,0.553,0.176,0.868,0.23v-5.8
				c-1.161-0.322-2.041-0.629-2.617-0.915c-0.638-0.315-1.138-0.713-1.487-1.184c-0.36-0.484-0.542-1.048-0.542-1.677
				c0-1.186,0.398-2.149,1.182-2.863c0.747-0.679,1.912-1.035,3.464-1.061V5.599C13.894,5.235,14.129,5,14.492,5
				s0.598,0.235,0.598,0.599v0.866c1.1,0.204,2.044,0.584,2.807,1.132c0.198,0.142,0.105,0.266,0.244,0.375l0-0.798
				c0-0.364,0.235-0.599,0.598-0.599c0.364,0,0.599,0.235,0.599,0.599v3.741c0,0.364-0.235,0.599-0.599,0.599
				c-0.364,0-0.598-0.235-0.598-0.599V9.652c-0.676-0.747-1.265-1.334-2.267-1.745c-0.246-0.105-0.507-0.186-0.783-0.24v5.418
				c0.186,0.05,0.494,0.131,0.925,0.243c0.745,0.194,1.434,0.446,2.046,0.75c0.637,0.316,1.138,0.714,1.487,1.184
				c0.36,0.485,0.542,1.069,0.542,1.736c0,1.27-0.454,2.295-1.348,3.047c-0.856,0.72-2.084,1.095-3.652,1.114v0.78
				C15.091,22.304,14.856,22.539,14.492,22.539z M12.133,19.927c0.1,0.049,0.2,0.094,0.302,0.137
				C12.332,20.019,12.231,19.974,12.133,19.927z M15.091,14.405v5.557c1.227-0.018,2.177-0.29,2.825-0.809
				c0.659-0.528,0.979-1.195,0.979-2.038c0-0.442-0.134-0.815-0.411-1.143c-0.291-0.343-0.652-0.615-1.074-0.805
				c-0.45-0.203-0.909-0.37-1.364-0.496L15.091,14.405z M18.571,19.382c-0.086,0.085-0.178,0.166-0.276,0.245
				c-0.145,0.117-0.303,0.223-0.472,0.319c0.193-0.107,0.37-0.229,0.531-0.364C18.43,19.517,18.502,19.451,18.571,19.382z
				 M13.894,7.577c-1.165,0.024-2.036,0.277-2.591,0.752c-0.578,0.495-0.859,1.083-0.859,1.798c0,0.442,0.134,0.816,0.411,1.143
				c0.291,0.345,0.652,0.616,1.074,0.805c0.45,0.203,0.88,0.364,1.278,0.477c0.249,0.071,0.478,0.138,0.687,0.2V7.577z"/>
		</g>
	</g>
	<g>
		<g>
			<path style="fill:#24AE5F;" d="M28.245,22.539c-0.364,0-0.599-0.235-0.599-0.599v-0.852c-1.244-0.171-2.013-0.376-3.061-1.216
				v0.798c0,0.364-0.235,0.599-0.599,0.599c-0.364,0-0.598-0.235-0.598-0.599V16.93c0-0.364,0.235-0.599,0.598-0.599
				c0.364,0,0.599,0.235,0.599,0.599v1.36c0.64,0.695,1.119,0.949,2.192,1.359c0.262,0.099,0.553,0.176,0.868,0.23v-5.8
				c-1.161-0.322-2.041-0.629-2.617-0.915c-0.638-0.315-1.138-0.713-1.487-1.184C23.182,11.497,23,10.933,23,10.304
				c0-1.186,0.398-2.149,1.182-2.863c0.747-0.679,1.912-1.035,3.464-1.061V5.599C27.646,5.235,27.882,5,28.245,5
				c0.364,0,0.598,0.235,0.598,0.599v0.866c1.1,0.204,2.044,0.584,2.807,1.132c0.198,0.142,0.105,0.266,0.244,0.375l0-0.798
				c0-0.364,0.235-0.599,0.598-0.599c0.364,0,0.599,0.235,0.599,0.599v3.741c0,0.364-0.235,0.599-0.599,0.599
				c-0.364,0-0.598-0.235-0.598-0.599V9.652c-0.676-0.747-1.265-1.334-2.267-1.745c-0.246-0.105-0.507-0.186-0.783-0.24v5.418
				c0.186,0.05,0.494,0.131,0.925,0.243c0.745,0.194,1.434,0.446,2.046,0.75c0.637,0.316,1.138,0.714,1.487,1.184
				c0.36,0.485,0.542,1.069,0.542,1.736c0,1.27-0.454,2.295-1.348,3.047c-0.856,0.72-2.084,1.095-3.652,1.114v0.78
				C28.844,22.304,28.609,22.539,28.245,22.539z M25.886,19.927c0.1,0.049,0.2,0.094,0.302,0.137
				C26.085,20.019,25.984,19.974,25.886,19.927z M28.844,14.405v5.557c1.227-0.018,2.177-0.29,2.825-0.809
				c0.659-0.528,0.979-1.195,0.979-2.038c0-0.442-0.134-0.815-0.411-1.143c-0.291-0.343-0.652-0.615-1.074-0.805
				c-0.45-0.203-0.909-0.37-1.364-0.496L28.844,14.405z M32.324,19.382c-0.086,0.085-0.178,0.166-0.276,0.245
				c-0.145,0.117-0.303,0.223-0.472,0.319c0.193-0.107,0.37-0.229,0.531-0.364C32.182,19.517,32.255,19.451,32.324,19.382z
				 M27.646,7.577c-1.165,0.024-2.036,0.277-2.591,0.752c-0.578,0.495-0.859,1.083-0.859,1.798c0,0.442,0.134,0.816,0.411,1.143
				c0.291,0.345,0.652,0.616,1.074,0.805c0.45,0.203,0.88,0.364,1.278,0.477c0.249,0.071,0.478,0.138,0.687,0.2V7.577z"/>
		</g>
	</g>
	<path style="fill:#FFFFFF;" d="M32,27H10c0,6.075,4.925,11,11,11S32,33.075,32,27z"/>
	<path style="fill:#ECF0F0;" d="M30,31h-2v-4c0-0.553-0.448-1-1-1s-1,0.447-1,1v4h-2v-4c0-0.553-0.448-1-1-1s-1,0.447-1,1v4h-2v-4
		c0-0.553-0.448-1-1-1s-1,0.447-1,1v4h-2v-4c0-0.553-0.448-1-1-1s-1,0.447-1,1v4h-2c-0.552,0-1,0.447-1,1s0.448,1,1,1h2v3
		c0,0.553,0.448,1,1,1s1-0.447,1-1v-3h2v4c0,0.553,0.448,1,1,1s1-0.447,1-1v-4h2v4c0,0.553,0.448,1,1,1s1-0.447,1-1v-4h2v3
		c0,0.553,0.448,1,1,1s1-0.447,1-1v-3h2c0.552,0,1-0.447,1-1S30.552,31,30,31z"/>
	<path style="fill:#F0C419;" d="M21,39c-6.617,0-12-5.383-12-12c0-0.553,0.448-1,1-1h22c0.552,0,1,0.447,1,1
		C33,33.617,27.617,39,21,39z M11.05,28c0.503,5.046,4.774,9,9.95,9s9.447-3.954,9.95-9H11.05z"/>
</g>
<g>
</g>
<g>
</g>
<g>
</g>
<g>
</g>
<g>
</g>
<g>
</g>
<g>
</g>
<g>
</g>
<g>
</g>
<g>
</g>
<g>
</g>
<g>
</g>
<g>
</g>
<g>
</g>
<g>
</g>
</svg>
