<?xml version="1.0" encoding="iso-8859-1"?>
<!-- Generator: Adobe Illustrator 18.0.0, SVG Export Plug-In . SVG Version: 6.00 Build 0)  -->
<!DOCTYPE svg PUBLIC "-//W3C//DTD SVG 1.1//EN" "http://www.w3.org/Graphics/SVG/1.1/DTD/svg11.dtd">
<svg version="1.1" id="Capa_1" xmlns="http://www.w3.org/2000/svg" xmlns:xlink="http://www.w3.org/1999/xlink" x="0px" y="0px"
	 viewBox="0 0 57 57" style="enable-background:new 0 0 57 57;" xml:space="preserve">
<g>
	<path style="fill:#6E5847;" d="M28.5,0C14.475,0,3,11.475,3,25.5V50c0,2.2,1.8,4,4,4h6.777c4.16,2.021,9.237,3,14.723,3
		s10.563-0.979,14.723-3H50c2.2,0,4-1.8,4-4V25.5C54,11.475,42.525,0,28.5,0z"/>
	<path style="fill:#FDC794;" d="M3.869,29.894C3.305,32.001,3,34.215,3,36.5C3,50.583,14.417,57,28.5,57S54,50.583,54,36.5
		C54,22.842,42.495,11.661,29,11h-1C14.505,11.661,3,22.842,3,36.5C3,50.583,14.417,57,28.5,57S54,50.583,54,36.5"/>
	<g>
		<path style="fill:#FFFFFF;" d="M39,40.676H17c0,6.075,4.925,11,11,11S39,46.751,39,40.676z"/>
		<path style="fill:#ECF0F0;" d="M37,44.676h-2v-4c0-0.553-0.448-1-1-1s-1,0.447-1,1v4h-2v-4c0-0.553-0.448-1-1-1s-1,0.447-1,1v4h-2
			v-4c0-0.553-0.448-1-1-1s-1,0.447-1,1v4h-2v-4c0-0.553-0.448-1-1-1s-1,0.447-1,1v4h-2c-0.552,0-1,0.447-1,1s0.448,1,1,1h2v3
			c0,0.553,0.448,1,1,1s1-0.447,1-1v-3h2v4c0,0.553,0.448,1,1,1s1-0.447,1-1v-4h2v4c0,0.553,0.448,1,1,1s1-0.447,1-1v-4h2v3
			c0,0.553,0.448,1,1,1s1-0.447,1-1v-3h2c0.552,0,1-0.447,1-1S37.552,44.676,37,44.676z"/>
		<path style="fill:#F9A671;" d="M28,52.676c-6.617,0-12-5.383-12-12c0-0.553,0.448-1,1-1h22c0.552,0,1,0.447,1,1
			C40,47.293,34.617,52.676,28,52.676z M18.05,41.676c0.503,5.046,4.774,9,9.95,9s9.447-3.954,9.95-9H18.05z"/>
	</g>
	<g>
		<g>
			<path style="fill:#24AE5F;" d="M18.245,35.809c-0.364,0-0.599-0.235-0.599-0.599v-0.852c-1.244-0.171-2.013-0.376-3.061-1.216
				v0.798c0,0.364-0.235,0.599-0.599,0.599c-0.364,0-0.598-0.235-0.598-0.599V30.2c0-0.364,0.235-0.599,0.598-0.599
				c0.364,0,0.599,0.235,0.599,0.599v1.36c0.64,0.695,1.119,0.949,2.192,1.359c0.262,0.099,0.553,0.176,0.868,0.23v-5.8
				c-1.161-0.322-2.041-0.629-2.617-0.915c-0.638-0.315-1.138-0.713-1.487-1.184C13.182,24.767,13,24.203,13,23.574
				c0-1.186,0.398-2.149,1.182-2.863c0.747-0.679,1.912-1.035,3.464-1.061v-0.782c0-0.364,0.235-0.599,0.599-0.599
				c0.364,0,0.598,0.235,0.598,0.599v0.866c1.1,0.204,2.044,0.584,2.807,1.132c0.198,0.142,0.105,0.266,0.244,0.375l0-0.798
				c0-0.364,0.235-0.599,0.598-0.599c0.364,0,0.599,0.235,0.599,0.599v3.741c0,0.364-0.235,0.599-0.599,0.599
				c-0.364,0-0.598-0.235-0.598-0.599v-1.263c-0.676-0.747-1.265-1.334-2.267-1.745c-0.246-0.105-0.507-0.186-0.783-0.24v5.418
				c0.186,0.05,0.494,0.131,0.925,0.243c0.745,0.194,1.434,0.446,2.046,0.75c0.637,0.316,1.138,0.714,1.487,1.184
				c0.36,0.485,0.542,1.069,0.542,1.736c0,1.27-0.454,2.295-1.348,3.047c-0.856,0.72-2.084,1.095-3.652,1.114v0.78
				C18.844,35.574,18.609,35.809,18.245,35.809z M15.886,33.197c0.1,0.049,0.2,0.094,0.302,0.137
				C16.085,33.289,15.984,33.244,15.886,33.197z M18.844,27.676v5.557c1.227-0.018,2.177-0.29,2.825-0.809
				c0.659-0.528,0.979-1.195,0.979-2.038c0-0.442-0.134-0.815-0.411-1.143c-0.291-0.343-0.652-0.615-1.074-0.805
				c-0.45-0.203-0.909-0.37-1.364-0.496L18.844,27.676z M22.324,32.652c-0.086,0.085-0.178,0.166-0.276,0.245
				c-0.145,0.117-0.303,0.223-0.472,0.319c0.193-0.107,0.37-0.229,0.531-0.364C22.182,32.787,22.255,32.721,22.324,32.652z
				 M17.646,20.847c-1.165,0.024-2.036,0.277-2.591,0.752c-0.578,0.495-0.859,1.083-0.859,1.798c0,0.442,0.134,0.816,0.411,1.143
				c0.291,0.345,0.652,0.616,1.074,0.805c0.45,0.203,0.88,0.364,1.278,0.477c0.249,0.071,0.478,0.138,0.687,0.2V20.847z"/>
		</g>
	</g>
	<g>
		<g>
			<path style="fill:#24AE5F;" d="M37.401,35.809c-0.364,0-0.599-0.235-0.599-0.599v-0.852c-1.244-0.171-2.013-0.376-3.061-1.216
				v0.798c0,0.364-0.235,0.599-0.599,0.599s-0.598-0.235-0.598-0.599V30.2c0-0.364,0.235-0.599,0.598-0.599s0.599,0.235,0.599,0.599
				v1.36c0.64,0.695,1.119,0.949,2.192,1.359c0.262,0.099,0.553,0.176,0.868,0.23v-5.8c-1.161-0.322-2.041-0.629-2.617-0.915
				c-0.638-0.315-1.138-0.713-1.487-1.184c-0.36-0.484-0.542-1.048-0.542-1.677c0-1.186,0.398-2.149,1.182-2.863
				c0.747-0.679,1.912-1.035,3.464-1.061v-0.782c0-0.364,0.235-0.599,0.599-0.599s0.598,0.235,0.598,0.599v0.866
				c1.1,0.204,2.044,0.584,2.807,1.132c0.198,0.142,0.105,0.266,0.244,0.375l0-0.798c0-0.364,0.235-0.599,0.598-0.599
				s0.599,0.235,0.599,0.599v3.741c0,0.364-0.235,0.599-0.599,0.599s-0.598-0.235-0.598-0.599v-1.263
				c-0.676-0.747-1.265-1.334-2.267-1.745c-0.246-0.105-0.507-0.186-0.783-0.24v5.418c0.186,0.05,0.494,0.131,0.925,0.243
				c0.745,0.194,1.434,0.446,2.046,0.75c0.637,0.316,1.138,0.714,1.487,1.184C42.818,29.017,43,29.601,43,30.269
				c0,1.27-0.454,2.295-1.348,3.047c-0.856,0.72-2.084,1.095-3.652,1.114v0.78C37.999,35.574,37.764,35.809,37.401,35.809z
				 M35.041,33.197c0.1,0.049,0.2,0.094,0.302,0.137C35.241,33.289,35.14,33.244,35.041,33.197z M37.999,27.676v5.557
				c1.227-0.018,2.177-0.29,2.825-0.809c0.659-0.528,0.979-1.195,0.979-2.038c0-0.442-0.134-0.815-0.411-1.143
				c-0.291-0.343-0.652-0.615-1.074-0.805c-0.45-0.203-0.909-0.37-1.364-0.496L37.999,27.676z M41.479,32.652
				c-0.086,0.085-0.178,0.166-0.276,0.245c-0.145,0.117-0.303,0.223-0.472,0.319c0.193-0.107,0.37-0.229,0.531-0.364
				C41.338,32.787,41.411,32.721,41.479,32.652z M36.802,20.847c-1.165,0.024-2.036,0.277-2.591,0.752
				c-0.578,0.495-0.859,1.083-0.859,1.798c0,0.442,0.134,0.816,0.411,1.143c0.291,0.345,0.652,0.616,1.074,0.805
				c0.45,0.203,0.88,0.364,1.278,0.477c0.249,0.071,0.478,0.138,0.687,0.2V20.847z"/>
		</g>
	</g>
</g>
<g>
</g>
<g>
</g>
<g>
</g>
<g>
</g>
<g>
</g>
<g>
</g>
<g>
</g>
<g>
</g>
<g>
</g>
<g>
</g>
<g>
</g>
<g>
</g>
<g>
</g>
<g>
</g>
<g>
</g>
</svg>
