<?xml version="1.0" encoding="iso-8859-1"?>
<!-- Generator: Adobe Illustrator 18.0.0, SVG Export Plug-In . SVG Version: 6.00 Build 0)  -->
<!DOCTYPE svg PUBLIC "-//W3C//DTD SVG 1.1//EN" "http://www.w3.org/Graphics/SVG/1.1/DTD/svg11.dtd">
<svg version="1.1" id="Capa_1" xmlns="http://www.w3.org/2000/svg" xmlns:xlink="http://www.w3.org/1999/xlink" x="0px" y="0px"
	 viewBox="0 0 57.638 57.638" style="enable-background:new 0 0 57.638 57.638;" xml:space="preserve">
<g>
	<g>
		<path style="fill:#FFDB2B;" d="M46.516,23.467c-0.334-0.547-0.787-1.014-1.346-1.341l-0.687-0.402
			c-0.54-0.316-0.997-0.76-1.333-1.295l-0.411-0.654c-0.552-0.878-1.421-1.497-2.417-1.723l-0.901-0.205
			c-0.587-0.134-1.136-0.405-1.603-0.793l-0.695-0.578c-0.771-0.641-1.754-0.954-2.745-0.875l-0.992,0.08
			c-0.588,0.047-1.179-0.044-1.727-0.266l-0.915-0.37c-0.915-0.37-1.934-0.37-2.849,0l-0.915,0.37
			c-0.548,0.222-1.139,0.313-1.727,0.266l-0.992-0.08c-0.991-0.08-1.974,0.234-2.745,0.875l-0.695,0.578
			c-0.467,0.388-1.016,0.659-1.603,0.793l-0.901,0.205c-0.996,0.226-1.865,0.845-2.417,1.723l-0.411,0.654
			c-0.336,0.535-0.794,0.979-1.333,1.295l-0.687,0.402c-0.558,0.327-1.012,0.793-1.346,1.341c5.702-1.539,11.914-0.92,17.197,1.878
			C34.602,22.547,40.814,21.928,46.516,23.467z"/>
		<path style="fill:#FFDB2B;" d="M45.033,38.281c-14.536,1.456-15.714-9.719-15.714-12.936c0,3.217-1.179,14.392-15.714,12.936
			c-2.885-0.289-4.44-2.525-5.286-5.127v6.715v9.768c0,2.2,1.8,4,4,4h34c2.2,0,4-1.8,4-4v-10.55v-5.933
			C49.473,35.756,47.919,37.992,45.033,38.281z"/>
	</g>
	<path style="fill:#E57E25;" d="M23.318,50.912c-0.205,0-0.413-0.063-0.591-0.194c-0.445-0.326-0.541-0.952-0.214-1.397
		c2.945-4.013,6.312-6.064,9.232-5.625c2.104,0.314,3.758,1.908,4.658,4.486c0.182,0.521-0.093,1.092-0.614,1.274
		c-0.521,0.183-1.092-0.094-1.273-0.614c-0.456-1.305-1.357-2.913-3.066-3.169c-2.132-0.32-4.87,1.488-7.324,4.831
		C23.929,50.771,23.626,50.912,23.318,50.912z"/>
	<path style="fill:#FEC722;" d="M41.014,57.638H17.624c-0.721,0-1.305-0.584-1.305-1.305v-2.695h26v2.695
		C42.319,57.053,41.734,57.638,41.014,57.638z"/>
	<path style="fill:#5E5F62;" d="M54.452,22.687l-0.279-0.627c-0.331-0.744-0.467-1.561-0.396-2.372l0.059-0.673
		c0.118-1.339-0.331-2.667-1.238-3.66l-0.543-0.594c-0.538-0.589-0.921-1.302-1.114-2.076l-0.188-0.753
		c-0.317-1.27-1.138-2.355-2.274-3.005l-0.853-0.488c-0.669-0.383-1.236-0.922-1.654-1.57l-0.51-0.793
		c-0.685-1.065-1.762-1.816-2.998-2.09l-1.118-0.248c-0.728-0.162-1.409-0.491-1.988-0.962l-0.863-0.701
		c-0.956-0.778-2.175-1.158-3.404-1.061l-1.231,0.097c-0.729,0.057-1.462-0.053-2.142-0.322l-1.135-0.449
		c-1.135-0.449-2.398-0.449-3.533,0l-1.135,0.449c-0.68,0.269-1.413,0.379-2.142,0.322l-1.231-0.097
		c-1.229-0.096-2.448,0.283-3.404,1.061l-0.863,0.701c-0.579,0.471-1.26,0.8-1.988,0.962l-1.118,0.248
		c-1.236,0.274-2.313,1.025-2.998,2.09l-0.51,0.793c-0.417,0.649-0.984,1.187-1.654,1.57L9.158,8.926
		c-1.136,0.65-1.957,1.735-2.274,3.005l-0.188,0.753c-0.193,0.774-0.576,1.488-1.114,2.076l-0.543,0.594
		c-0.907,0.993-1.356,2.321-1.238,3.66l0.059,0.673c0.072,0.812-0.065,1.628-0.396,2.372l-0.279,0.627
		c-0.552,1.242-0.552,2.659,0,3.901l0.279,0.627c0.331,0.744,0.467,1.561,0.396,2.372l-0.059,0.673
		c-0.118,1.34,0.331,2.667,1.238,3.66l0.544,0.595c0.538,0.589,0.921,1.302,1.114,2.076l0.684,2.74l0.939,0.537v-6.715
		c-0.924-2.845-1-6.129-1-7.809c1.533-0.812,3.148-1.431,4.803-1.878c0.334-0.547,0.787-1.014,1.346-1.341l0.687-0.402
		c0.54-0.316,0.997-0.76,1.333-1.295l0.411-0.654c0.552-0.878,1.421-1.497,2.417-1.723l0.901-0.205
		c0.587-0.134,1.136-0.405,1.603-0.793l0.695-0.578c0.771-0.641,1.754-0.954,2.745-0.875l0.992,0.08
		c0.588,0.047,1.179-0.044,1.727-0.266l0.915-0.37c0.915-0.37,1.934-0.37,2.849,0l0.915,0.37c0.548,0.222,1.139,0.313,1.727,0.266
		l0.992-0.08c0.991-0.08,1.974,0.234,2.745,0.875l0.695,0.578c0.467,0.388,1.016,0.659,1.603,0.793l0.901,0.205
		c0.996,0.226,1.865,0.845,2.417,1.723l0.411,0.654c0.336,0.535,0.794,0.979,1.333,1.295l0.687,0.402
		c0.558,0.327,1.011,0.793,1.346,1.341c1.655,0.447,3.269,1.066,4.803,1.878c0,1.68-0.076,4.964-1,7.809v5.933l0.623-2.496
		c0.193-0.774,0.576-1.487,1.114-2.076l0.544-0.595c0.907-0.993,1.356-2.32,1.238-3.66l-0.059-0.673
		c-0.072-0.812,0.065-1.628,0.396-2.372l0.279-0.627C55.004,25.346,55.004,23.929,54.452,22.687z"/>
	<g>
		<path style="fill:#F0C419;" d="M18.609,49.928c-0.18,0.189-0.29,0.45-0.29,0.71s0.11,0.52,0.29,0.71
			c0.19,0.18,0.45,0.29,0.71,0.29c0.26,0,0.52-0.11,0.71-0.29c0.18-0.19,0.29-0.44,0.29-0.71c0-0.26-0.11-0.521-0.29-0.71
			C19.659,49.558,18.989,49.558,18.609,49.928z"/>
		<path style="fill:#F0C419;" d="M14.609,49.928c-0.18,0.189-0.29,0.45-0.29,0.71s0.11,0.52,0.29,0.71
			c0.19,0.18,0.45,0.29,0.71,0.29c0.26,0,0.52-0.11,0.71-0.29c0.18-0.19,0.29-0.45,0.29-0.71s-0.11-0.521-0.29-0.71
			C15.659,49.558,14.989,49.558,14.609,49.928z"/>
		<path style="fill:#F0C419;" d="M11.609,49.928c-0.18,0.189-0.29,0.45-0.29,0.71c0,0.27,0.11,0.52,0.29,0.71
			c0.19,0.18,0.45,0.29,0.71,0.29c0.26,0,0.52-0.11,0.71-0.29c0.18-0.19,0.29-0.45,0.29-0.71s-0.11-0.521-0.29-0.71
			C12.648,49.558,11.979,49.558,11.609,49.928z"/>
		<path style="fill:#F0C419;" d="M15.029,48.348c0.18-0.19,0.29-0.45,0.29-0.71s-0.11-0.521-0.29-0.71c-0.38-0.37-1.05-0.37-1.42,0
			c-0.18,0.189-0.29,0.45-0.29,0.71s0.11,0.52,0.29,0.71c0.19,0.18,0.45,0.29,0.71,0.29C14.579,48.638,14.839,48.527,15.029,48.348z
			"/>
		<path style="fill:#F0C419;" d="M12.029,48.348c0.18-0.19,0.29-0.45,0.29-0.71s-0.11-0.521-0.29-0.71c-0.38-0.37-1.05-0.37-1.42,0
			c-0.18,0.189-0.29,0.45-0.29,0.71s0.11,0.52,0.29,0.71c0.19,0.18,0.45,0.29,0.71,0.29C11.579,48.638,11.839,48.527,12.029,48.348z
			"/>
		<path style="fill:#F0C419;" d="M19.609,46.928c-0.18,0.189-0.29,0.45-0.29,0.71s0.11,0.52,0.29,0.71
			c0.19,0.18,0.45,0.29,0.71,0.29c0.26,0,0.52-0.11,0.71-0.29c0.18-0.19,0.29-0.45,0.29-0.71s-0.11-0.521-0.29-0.71
			C20.648,46.558,19.979,46.558,19.609,46.928z"/>
		<path style="fill:#F0C419;" d="M21.609,43.928c-0.18,0.189-0.29,0.439-0.29,0.71c0,0.27,0.11,0.52,0.29,0.71
			c0.19,0.18,0.45,0.29,0.71,0.29c0.26,0,0.52-0.11,0.71-0.29c0.18-0.19,0.29-0.45,0.29-0.71s-0.11-0.521-0.29-0.71
			C22.659,43.558,21.979,43.558,21.609,43.928z"/>
		<path style="fill:#F0C419;" d="M19.319,45.638c0.26,0,0.52-0.11,0.71-0.29c0.18-0.19,0.29-0.45,0.29-0.71s-0.11-0.521-0.29-0.71
			c-0.37-0.37-1.05-0.37-1.42,0c-0.18,0.189-0.29,0.45-0.29,0.71s0.11,0.52,0.29,0.71C18.799,45.527,19.059,45.638,19.319,45.638z"
			/>
		<path style="fill:#F0C419;" d="M21.609,40.928c-0.18,0.189-0.29,0.45-0.29,0.71s0.11,0.52,0.29,0.71
			c0.19,0.18,0.45,0.29,0.71,0.29c0.26,0,0.52-0.11,0.71-0.29c0.18-0.19,0.29-0.45,0.29-0.71s-0.11-0.521-0.29-0.71
			C22.659,40.558,21.989,40.558,21.609,40.928z"/>
		<path style="fill:#F0C419;" d="M24.609,40.928c-0.18,0.189-0.29,0.45-0.29,0.71s0.11,0.52,0.29,0.71
			c0.19,0.18,0.45,0.29,0.71,0.29c0.26,0,0.52-0.11,0.71-0.29c0.18-0.19,0.29-0.45,0.29-0.71s-0.11-0.521-0.29-0.71
			C25.648,40.558,24.979,40.558,24.609,40.928z"/>
		<path style="fill:#F0C419;" d="M27.619,39.928c-0.19,0.18-0.3,0.439-0.3,0.71c0,0.27,0.11,0.529,0.29,0.71
			c0.19,0.18,0.45,0.29,0.71,0.29c0.26,0,0.52-0.11,0.71-0.29c0.18-0.19,0.29-0.45,0.29-0.71s-0.11-0.521-0.29-0.71
			C28.659,39.558,27.979,39.558,27.619,39.928z"/>
		<path style="fill:#F0C419;" d="M31.609,39.928c-0.18,0.189-0.29,0.45-0.29,0.71s0.11,0.52,0.29,0.71
			c0.19,0.18,0.45,0.29,0.71,0.29c0.26,0,0.52-0.11,0.71-0.29c0.18-0.19,0.29-0.45,0.29-0.71s-0.11-0.521-0.29-0.71
			C32.659,39.558,31.979,39.558,31.609,39.928z"/>
		<path style="fill:#F0C419;" d="M36.029,40.928c-0.38-0.37-1.04-0.37-1.42,0c-0.18,0.189-0.29,0.45-0.29,0.71s0.11,0.52,0.29,0.71
			c0.19,0.18,0.45,0.29,0.71,0.29c0.26,0,0.52-0.11,0.71-0.29c0.18-0.19,0.29-0.45,0.29-0.71S36.209,41.117,36.029,40.928z"/>
		<path style="fill:#F0C419;" d="M38.029,45.348c0.18-0.19,0.29-0.45,0.29-0.71s-0.11-0.521-0.29-0.71c-0.37-0.37-1.05-0.37-1.42,0
			c-0.18,0.189-0.29,0.45-0.29,0.71s0.11,0.52,0.29,0.71c0.19,0.18,0.45,0.29,0.71,0.29C37.579,45.638,37.839,45.527,38.029,45.348z
			"/>
		<path style="fill:#F0C419;" d="M39.609,43.928c-0.18,0.189-0.29,0.45-0.29,0.71s0.11,0.52,0.29,0.71
			c0.19,0.18,0.45,0.29,0.71,0.29c0.26,0,0.52-0.11,0.71-0.29c0.18-0.19,0.29-0.45,0.29-0.71s-0.11-0.521-0.29-0.71
			C40.659,43.558,39.979,43.558,39.609,43.928z"/>
		<path style="fill:#F0C419;" d="M39.319,42.638c0.26,0,0.52-0.11,0.71-0.29c0.18-0.19,0.29-0.45,0.29-0.71s-0.11-0.521-0.29-0.71
			c-0.38-0.37-1.04-0.37-1.42,0c-0.18,0.189-0.29,0.45-0.29,0.71s0.11,0.52,0.29,0.71C38.799,42.527,39.059,42.638,39.319,42.638z"
			/>
		<path style="fill:#F0C419;" d="M18.029,46.928c-0.38-0.37-1.05-0.37-1.42,0c-0.18,0.189-0.29,0.45-0.29,0.71s0.11,0.52,0.29,0.71
			c0.19,0.18,0.45,0.29,0.71,0.29c0.26,0,0.52-0.11,0.71-0.29c0.18-0.19,0.29-0.45,0.29-0.71S18.209,47.117,18.029,46.928z"/>
		<path style="fill:#F0C419;" d="M38.609,49.928c-0.18,0.189-0.29,0.45-0.29,0.71c0,0.27,0.11,0.52,0.29,0.71
			c0.19,0.18,0.45,0.29,0.71,0.29c0.26,0,0.52-0.11,0.71-0.29c0.18-0.19,0.29-0.45,0.29-0.71s-0.11-0.521-0.29-0.71
			C39.648,49.558,38.979,49.558,38.609,49.928z"/>
		<path style="fill:#F0C419;" d="M42.609,49.928c-0.18,0.189-0.29,0.45-0.29,0.71c0,0.27,0.11,0.52,0.29,0.71
			c0.19,0.18,0.45,0.29,0.71,0.29c0.26,0,0.52-0.11,0.71-0.29c0.18-0.19,0.29-0.45,0.29-0.71s-0.11-0.521-0.29-0.71
			C43.648,49.558,42.979,49.558,42.609,49.928z"/>
		<path style="fill:#F0C419;" d="M45.609,49.928c-0.18,0.189-0.29,0.45-0.29,0.71s0.11,0.52,0.29,0.71
			c0.19,0.18,0.45,0.29,0.71,0.29c0.26,0,0.52-0.11,0.71-0.29c0.18-0.19,0.29-0.45,0.29-0.71s-0.11-0.521-0.29-0.71
			C46.659,49.558,45.989,49.558,45.609,49.928z"/>
		<path style="fill:#F0C419;" d="M45.029,46.928c-0.38-0.37-1.05-0.37-1.42,0c-0.18,0.189-0.29,0.45-0.29,0.71s0.11,0.52,0.29,0.71
			c0.19,0.18,0.45,0.29,0.71,0.29c0.26,0,0.52-0.11,0.71-0.29c0.18-0.19,0.29-0.45,0.29-0.71S45.209,47.117,45.029,46.928z"/>
		<path style="fill:#F0C419;" d="M48.029,46.928c-0.38-0.37-1.05-0.37-1.42,0c-0.18,0.189-0.29,0.45-0.29,0.71s0.11,0.52,0.29,0.71
			c0.19,0.18,0.45,0.29,0.71,0.29c0.26,0,0.52-0.11,0.71-0.29c0.18-0.19,0.29-0.45,0.29-0.71S48.209,47.117,48.029,46.928z"/>
		<path style="fill:#F0C419;" d="M39.029,48.348c0.18-0.19,0.29-0.45,0.29-0.71s-0.11-0.521-0.29-0.71c-0.38-0.37-1.05-0.37-1.42,0
			c-0.18,0.189-0.29,0.45-0.29,0.71s0.11,0.52,0.29,0.71c0.19,0.18,0.45,0.29,0.71,0.29C38.579,48.638,38.839,48.527,39.029,48.348z
			"/>
		<path style="fill:#F0C419;" d="M42.029,46.928c-0.38-0.37-1.05-0.37-1.42,0c-0.18,0.189-0.29,0.45-0.29,0.71s0.11,0.52,0.29,0.71
			c0.19,0.18,0.45,0.29,0.71,0.29c0.26,0,0.52-0.11,0.71-0.29c0.18-0.19,0.29-0.45,0.29-0.71S42.209,47.117,42.029,46.928z"/>
	</g>
	<g>
		<g>
			<path style="fill:#464F5D;" d="M7.319,25.345c0,3.217,0.246,12.331,6.286,12.936c14.536,1.456,15.714-9.719,15.714-12.936
				C22.503,21.735,14.135,21.735,7.319,25.345z"/>
			<path style="fill:#464F5D;" d="M16.105,39.411c-0.834,0-1.701-0.045-2.601-0.135c-3.278-0.329-7.186-3.013-7.186-13.932v-0.602
				l0.532-0.282c7.073-3.746,15.862-3.746,22.936,0l0.532,0.282v0.602c0,2.06-0.42,7.231-4.31,10.751
				C23.572,38.301,20.249,39.411,16.105,39.411z M8.323,25.954c0.073,5.071,1.103,10.903,5.381,11.332
				c4.783,0.478,8.473-0.421,10.962-2.673c3.002-2.717,3.552-6.796,3.638-8.664C22.085,22.878,14.54,22.881,8.323,25.954z"/>
		</g>
		<g>
			<path style="fill:#464F5D;" d="M29.319,25.345c0,3.217,1.179,14.392,15.714,12.936c6.04-0.605,6.286-9.719,6.286-12.936
				C44.503,21.735,36.135,21.735,29.319,25.345z"/>
			<path style="fill:#464F5D;" d="M42.533,39.411c-4.144,0-7.467-1.11-9.904-3.315c-3.89-3.52-4.31-8.691-4.31-10.751v-0.602
				l0.532-0.282c7.073-3.746,15.862-3.746,22.936,0l0.532,0.282v0.602c0,10.919-3.908,13.603-7.186,13.932
				C44.233,39.366,43.366,39.411,42.533,39.411z M30.334,25.949c0.086,1.868,0.636,5.947,3.638,8.664
				c2.49,2.252,6.177,3.152,10.962,2.673c4.278-0.429,5.308-6.261,5.381-11.332C44.097,22.881,36.551,22.878,30.334,25.949z"/>
		</g>
	</g>
	<path style="fill:#556080;" d="M10.807,29.915c-0.263,0-0.526-0.104-0.723-0.309c-0.382-0.399-0.368-1.032,0.031-1.414l3.366-3.22
		c0.399-0.382,1.033-0.367,1.414,0.031c0.382,0.399,0.368,1.032-0.031,1.414l-3.366,3.22C11.304,29.823,11.055,29.915,10.807,29.915
		z"/>
	<path style="fill:#556080;" d="M15.294,32.062c-0.263,0-0.526-0.104-0.723-0.309c-0.382-0.399-0.368-1.032,0.031-1.414l5.61-5.366
		c0.399-0.382,1.032-0.367,1.414,0.031c0.382,0.399,0.368,1.032-0.031,1.414l-5.61,5.366C15.792,31.97,15.543,32.062,15.294,32.062z
		"/>
	<path style="fill:#556080;" d="M35.49,29.915c-0.263,0-0.526-0.104-0.723-0.309c-0.382-0.399-0.368-1.032,0.031-1.414l3.366-3.22
		c0.399-0.382,1.032-0.367,1.414,0.031c0.382,0.399,0.368,1.032-0.031,1.414l-3.366,3.22C35.987,29.823,35.738,29.915,35.49,29.915z
		"/>
	<path style="fill:#556080;" d="M39.978,32.062c-0.263,0-0.526-0.104-0.723-0.309c-0.382-0.399-0.368-1.032,0.031-1.414l5.609-5.366
		c0.399-0.382,1.032-0.367,1.414,0.031c0.382,0.399,0.368,1.032-0.031,1.414l-5.609,5.366C40.475,31.97,40.226,32.062,39.978,32.062
		z"/>
</g>
<g>
</g>
<g>
</g>
<g>
</g>
<g>
</g>
<g>
</g>
<g>
</g>
<g>
</g>
<g>
</g>
<g>
</g>
<g>
</g>
<g>
</g>
<g>
</g>
<g>
</g>
<g>
</g>
<g>
</g>
</svg>
