<?xml version="1.0" encoding="iso-8859-1"?>
<!-- Generator: Adobe Illustrator 18.0.0, SVG Export Plug-In . SVG Version: 6.00 Build 0)  -->
<!DOCTYPE svg PUBLIC "-//W3C//DTD SVG 1.1//EN" "http://www.w3.org/Graphics/SVG/1.1/DTD/svg11.dtd">
<svg version="1.1" id="Capa_1" xmlns="http://www.w3.org/2000/svg" xmlns:xlink="http://www.w3.org/1999/xlink" x="0px" y="0px"
	 viewBox="0 0 42 42" style="enable-background:new 0 0 42 42;" xml:space="preserve">
<g>
	<circle style="fill:#FBD971;" cx="21" cy="21" r="21"/>
	<path style="fill:#F0C419;" d="M32,36c-0.553,0-1-0.448-1-1c0-5.514-4.486-10-10-10s-10,4.486-10,10c0,0.552-0.447,1-1,1
		s-1-0.448-1-1c0-6.617,5.383-12,12-12s12,5.383,12,12C33,35.552,32.553,36,32,36z"/>
	<path style="fill:#F29C1F;" d="M16,17c-0.553,0-1-0.448-1-1c0-1.654-1.346-3-3-3s-3,1.346-3,3c0,0.552-0.447,1-1,1s-1-0.448-1-1
		c0-2.757,2.243-5,5-5s5,2.243,5,5C17,16.552,16.553,17,16,17z"/>
	<path style="fill:#F29C1F;" d="M34,17c-0.553,0-1-0.448-1-1c0-1.654-1.346-3-3-3s-3,1.346-3,3c0,0.552-0.447,1-1,1s-1-0.448-1-1
		c0-2.757,2.243-5,5-5s5,2.243,5,5C35,16.552,34.553,17,34,17z"/>
</g>
<g>
</g>
<g>
</g>
<g>
</g>
<g>
</g>
<g>
</g>
<g>
</g>
<g>
</g>
<g>
</g>
<g>
</g>
<g>
</g>
<g>
</g>
<g>
</g>
<g>
</g>
<g>
</g>
<g>
</g>
</svg>
