<?xml version="1.0" encoding="iso-8859-1"?>
<!-- Generator: Adobe Illustrator 18.0.0, SVG Export Plug-In . SVG Version: 6.00 Build 0)  -->
<!DOCTYPE svg PUBLIC "-//W3C//DTD SVG 1.1//EN" "http://www.w3.org/Graphics/SVG/1.1/DTD/svg11.dtd">
<svg version="1.1" id="Capa_1" xmlns="http://www.w3.org/2000/svg" xmlns:xlink="http://www.w3.org/1999/xlink" x="0px" y="0px"
	 viewBox="0 0 58 58" style="enable-background:new 0 0 58 58;" xml:space="preserve">
<g>
	<path style="fill:#FDC794;" d="M29.392,54.999c11.246,0.156,17.52-4.381,21.008-9.189c3.603-4.966,4.764-11.283,3.647-17.323
		C50.004,6.642,29.392,6.826,29.392,6.826S8.781,6.642,4.738,28.488c-1.118,6.04,0.044,12.356,3.647,17.323
		C11.872,50.618,18.146,55.155,29.392,54.999z"/>
	<path style="fill:#F9A671;" d="M4.499,30.125c-0.453-0.429-0.985-0.687-1.559-0.687C1.316,29.438,0,31.418,0,33.862
		c0,2.443,1.316,4.424,2.939,4.424c0.687,0,1.311-0.37,1.811-0.964C4.297,34.97,4.218,32.538,4.499,30.125z"/>
	<path style="fill:#F9A671;" d="M57.823,26.298c-0.563-2.377-2.3-3.999-3.879-3.622c-0.491,0.117-0.898,0.43-1.225,0.855
		c0.538,1.515,0.994,3.154,1.328,4.957c0.155,0.837,0.261,1.679,0.328,2.522c0.52,0.284,1.072,0.402,1.608,0.274
		C57.562,30.907,58.386,28.675,57.823,26.298z"/>
	<path style="fill:#5E5F62;" d="M13.9,16.998c-0.256,0-0.512-0.098-0.707-0.293l-5-5c-0.391-0.391-0.391-1.023,0-1.414
		s1.023-0.391,1.414,0l5,5c0.391,0.391,0.391,1.023,0,1.414C14.412,16.901,14.156,16.998,13.9,16.998z"/>
	<path style="fill:#5E5F62;" d="M16.901,13.998c-0.367,0-0.72-0.202-0.896-0.553l-3-6c-0.247-0.494-0.047-1.095,0.447-1.342
		c0.494-0.245,1.095-0.047,1.342,0.447l3,6c0.247,0.494,0.047,1.095-0.447,1.342C17.204,13.964,17.052,13.998,16.901,13.998z"/>
	<path style="fill:#5E5F62;" d="M20.9,11.998c-0.419,0-0.809-0.265-0.948-0.684l-2-6c-0.175-0.524,0.108-1.091,0.632-1.265
		c0.528-0.176,1.09,0.108,1.265,0.632l2,6c0.175,0.524-0.108,1.091-0.632,1.265C21.111,11.982,21.005,11.998,20.9,11.998z"/>
	<path style="fill:#5E5F62;" d="M25.899,10.998c-0.48,0-0.904-0.347-0.985-0.836l-1-6c-0.091-0.544,0.277-1.06,0.822-1.15
		c0.544-0.096,1.061,0.277,1.15,0.822l1,6c0.091,0.544-0.277,1.06-0.822,1.15C26.009,10.994,25.954,10.998,25.899,10.998z"/>
	<path style="fill:#5E5F62;" d="M29.9,10.998c-0.553,0-1-0.447-1-1v-6c0-0.553,0.447-1,1-1s1,0.447,1,1v6
		C30.9,10.551,30.453,10.998,29.9,10.998z"/>
	<path style="fill:#5E5F62;" d="M33.9,10.998c-0.104,0-0.211-0.017-0.316-0.052c-0.523-0.174-0.807-0.74-0.632-1.265l2-6
		c0.175-0.523,0.736-0.809,1.265-0.632c0.523,0.174,0.807,0.74,0.632,1.265l-2,6C34.709,10.734,34.319,10.998,33.9,10.998z"/>
	<path style="fill:#5E5F62;" d="M37.9,11.998c-0.104,0-0.211-0.017-0.316-0.052c-0.523-0.174-0.807-0.74-0.632-1.265l2-6
		c0.175-0.523,0.735-0.808,1.265-0.632c0.523,0.174,0.807,0.74,0.632,1.265l-2,6C38.709,11.734,38.319,11.998,37.9,11.998z"/>
	<path style="fill:#5E5F62;" d="M40.899,13.998c-0.15,0-0.303-0.034-0.446-0.105c-0.494-0.247-0.694-0.848-0.447-1.342l3-6
		c0.248-0.494,0.849-0.692,1.342-0.447c0.494,0.247,0.694,0.848,0.447,1.342l-3,6C41.619,13.796,41.267,13.998,40.899,13.998z"/>
	<circle style="fill:#FFFFFF;" cx="22" cy="28.999" r="6"/>
	<circle style="fill:#FFFFFF;" cx="36" cy="28.999" r="8"/>
	<circle style="fill:#7F5B53;" cx="22" cy="28.999" r="2"/>
	<circle style="fill:#7F5B53;" cx="36" cy="28.999" r="3"/>
	<path style="fill:#F9A671;" d="M17.832,46.986c-1.322,0-2.622-0.454-3.539-1.371c-0.391-0.391-0.391-1.023,0-1.414
		s1.023-0.391,1.414,0c1.134,1.134,3.362,1.052,4.586-0.172c1.939-1.939,5.475-1.939,7.414,0c1.18,1.178,3.406,1.178,4.586,0
		c1.939-1.939,5.475-1.939,7.414,0c1.18,1.178,3.406,1.178,4.586,0c0.391-0.391,1.023-0.391,1.414,0s0.391,1.023,0,1.414
		c-0.932,0.932-2.282,1.466-3.707,1.466s-2.775-0.534-3.707-1.466c-1.18-1.178-3.406-1.178-4.586,0
		c-0.932,0.932-2.282,1.466-3.707,1.466s-2.775-0.534-3.707-1.466c-1.18-1.178-3.406-1.178-4.586,0
		C20.683,46.469,19.244,46.986,17.832,46.986z"/>
	<path style="fill:#5E5F62;" d="M18.672,20.995c-1.051,0-2.117-0.237-3.119-0.738c-0.494-0.247-0.694-0.848-0.447-1.342
		s0.848-0.692,1.342-0.447c2.465,1.234,5.475,0.23,6.708-2.235c0.247-0.494,0.848-0.693,1.342-0.447
		c0.494,0.247,0.694,0.848,0.447,1.342C23.719,19.577,21.241,20.995,18.672,20.995z"/>
	<path style="fill:#5E5F62;" d="M43.371,20.32c-0.745,0-1.492-0.12-2.219-0.362c-1.772-0.591-3.21-1.838-4.047-3.512
		c-0.247-0.494-0.047-1.095,0.447-1.342c0.494-0.245,1.094-0.047,1.342,0.447c0.598,1.196,1.625,2.087,2.891,2.509
		c1.265,0.422,2.62,0.327,3.817-0.272c0.493-0.245,1.094-0.047,1.342,0.447c0.247,0.494,0.047,1.095-0.447,1.342
		C45.51,20.07,44.443,20.32,43.371,20.32z"/>
</g>
<g>
</g>
<g>
</g>
<g>
</g>
<g>
</g>
<g>
</g>
<g>
</g>
<g>
</g>
<g>
</g>
<g>
</g>
<g>
</g>
<g>
</g>
<g>
</g>
<g>
</g>
<g>
</g>
<g>
</g>
</svg>
