<?xml version="1.0" encoding="iso-8859-1"?>
<!-- Generator: Adobe Illustrator 18.0.0, SVG Export Plug-In . SVG Version: 6.00 Build 0)  -->
<!DOCTYPE svg PUBLIC "-//W3C//DTD SVG 1.1//EN" "http://www.w3.org/Graphics/SVG/1.1/DTD/svg11.dtd">
<svg version="1.1" id="Capa_1" xmlns="http://www.w3.org/2000/svg" xmlns:xlink="http://www.w3.org/1999/xlink" x="0px" y="0px"
	 viewBox="0 0 57.98 57.98" style="enable-background:new 0 0 57.98 57.98;" xml:space="preserve">
<g>
	<path style="fill:#FFDB2B;" d="M39.295,15.98c-10.833-1.667-15,4-15,4c-7.75-0.75-11-3-11-3c-1.676,1.948-3.594,2.956-5,3.474
		V32.98v17c0,2.2,1.8,4,4,4h34c2.2,0,4-1.8,4-4v-17v-15C42.212,22.73,39.295,15.98,39.295,15.98z"/>
	<path style="fill:#E57E25;" d="M17.115,48.263c-1.366,0-2.642-0.498-3.526-1.383c-0.391-0.391-0.391-1.023,0-1.414
		s1.023-0.391,1.414,0c1.134,1.134,3.363,1.05,4.586-0.173c1.939-1.939,5.475-1.939,7.414,0c1.18,1.178,3.406,1.178,4.586,0
		c1.939-1.939,5.475-1.939,7.414,0c1.18,1.178,3.406,1.178,4.586,0c0.391-0.391,1.023-0.391,1.414,0s0.391,1.023,0,1.414
		c-0.932,0.932-2.282,1.466-3.707,1.466s-2.775-0.534-3.707-1.466c-1.18-1.178-3.406-1.178-4.586,0
		c-0.932,0.932-2.282,1.466-3.707,1.466s-2.775-0.534-3.707-1.466c-1.18-1.178-3.406-1.178-4.586,0
		c-0.932,0.932-2.269,1.497-3.668,1.551C17.261,48.261,17.187,48.263,17.115,48.263z"/>
	<circle style="fill:#FFFFFF;" cx="38.295" cy="32" r="6"/>
	<circle style="fill:#556080;" cx="38.295" cy="32" r="2"/>
	<circle style="fill:#FFFFFF;" cx="20.295" cy="32" r="6"/>
	<circle style="fill:#556080;" cx="20.295" cy="32" r="2"/>
	<path style="fill:#FEC722;" d="M40.99,57.98H17.601c-0.721,0-1.305-0.584-1.305-1.305V53.98h26v2.695
		C42.295,57.395,41.711,57.98,40.99,57.98z"/>
	<path style="fill:#7F6E5D;" d="M54.295,17.98c-0.62-4.487-2.586-7.48-4.471-9.034c-0.916-0.755-1.439-1.852-1.735-3.001
		c-0.799-3.102-3.738-4.757-6.794-4.965c-1.947-0.133-3.646,0.484-5.589,1.261c-0.611,0.244-1.352-0.01-1.584-0.626
		c-1.194-3.171-8.034-1.545-13.249,3.75c-0.25,0.254-0.684,0.125-0.734-0.228c-0.173-1.23-0.263-3.448,1.155-4.157
		c0,0-4.407-2.479-8.186,0.826c-1.152,1.008-1.905,2.394-2.289,3.875c-0.092,0.355-0.186,0.734-0.269,1.107
		c-0.232,1.033-1.557,1.385-2.238,0.573C8.3,7.345,8.286,7.328,8.273,7.311C7.635,6.533,6.412,6.654,6.014,7.578
		C3.893,12.5,0.604,23.537,8.295,32.98V20.454c1.406-0.518,3.324-1.526,5-3.474c0,0,3.25,2.25,11,3c0,0,4.167-5.667,15-4
		c0,0,2.917,6.75,11,2v15C50.295,32.98,55.648,27.765,54.295,17.98z"/>
</g>
<g>
</g>
<g>
</g>
<g>
</g>
<g>
</g>
<g>
</g>
<g>
</g>
<g>
</g>
<g>
</g>
<g>
</g>
<g>
</g>
<g>
</g>
<g>
</g>
<g>
</g>
<g>
</g>
<g>
</g>
</svg>
