<?xml version="1.0" encoding="iso-8859-1"?>
<!-- Generator: Adobe Illustrator 18.0.0, SVG Export Plug-In . SVG Version: 6.00 Build 0)  -->
<!DOCTYPE svg PUBLIC "-//W3C//DTD SVG 1.1//EN" "http://www.w3.org/Graphics/SVG/1.1/DTD/svg11.dtd">
<svg version="1.1" id="Capa_1" xmlns="http://www.w3.org/2000/svg" xmlns:xlink="http://www.w3.org/1999/xlink" x="0px" y="0px"
	 viewBox="0 0 57.98 57.98" style="enable-background:new 0 0 57.98 57.98;" xml:space="preserve">
<g>
	<path style="fill:#5E5F62;" d="M54.295,17.98c-0.62-4.487-2.586-7.48-4.471-9.034c-0.916-0.755-1.439-1.852-1.735-3.001
		c-0.799-3.102-3.738-4.757-6.794-4.965c-1.947-0.133-3.646,0.484-5.589,1.261c-0.611,0.244-1.352-0.01-1.584-0.626
		c-1.194-3.171-8.034-1.545-13.249,3.75c-0.25,0.254-0.684,0.125-0.734-0.228c-0.173-1.23-0.263-3.448,1.155-4.157
		c0,0-4.407-2.479-8.186,0.826c-1.152,1.008-1.905,2.394-2.289,3.875c-0.092,0.355-0.186,0.734-0.269,1.107
		c-0.232,1.033-1.557,1.385-2.238,0.573C8.3,7.345,8.286,7.328,8.273,7.311C7.635,6.533,6.412,6.654,6.014,7.578
		C3.893,12.5,0.604,23.537,8.295,32.98V20.454c1.406-0.518,3.324-1.526,5-3.474c0,0,3.25,2.25,11,3c0,0,4.167-5.667,15-4
		c0,0,2.917,6.75,11,2v15C50.295,32.98,55.648,27.765,54.295,17.98z"/>
	<path style="fill:#FFDB2B;" d="M39.295,15.98c-10.833-1.667-15,4-15,4c-7.75-0.75-11-3-11-3c-1.676,1.948-3.594,2.956-5,3.474
		V32.98v17c0,2.2,1.8,4,4,4h34c2.2,0,4-1.8,4-4v-17v-15C42.212,22.73,39.295,15.98,39.295,15.98z"/>
	<path style="fill:#F18D46;" d="M23.154,49.98c-0.205,0-0.413-0.063-0.591-0.194c-0.445-0.326-0.541-0.952-0.214-1.397
		c2.946-4.013,6.309-6.065,9.232-5.625c2.104,0.314,3.758,1.908,4.658,4.486c0.182,0.521-0.093,1.092-0.614,1.274
		c-0.521,0.18-1.092-0.094-1.273-0.614c-0.456-1.305-1.357-2.913-3.066-3.169c-2.133-0.315-4.87,1.488-7.324,4.831
		C23.765,49.838,23.461,49.98,23.154,49.98z"/>
	<path style="fill:#FEC722;" d="M40.99,57.98H17.601c-0.721,0-1.305-0.584-1.305-1.305V53.98h26v2.695
		C42.295,57.395,41.711,57.98,40.99,57.98z"/>
	<path style="fill:#FFFFFF;" d="M19.295,35.98c3.314,0,6-2.686,6-6h-12C13.295,33.294,15.982,35.98,19.295,35.98z"/>
	<path style="fill:#FFFFFF;" d="M39.295,35.98c3.314,0,6-2.686,6-6h-12C33.295,33.294,35.982,35.98,39.295,35.98z"/>
	<path style="fill:#F0C419;" d="M19.295,23.98c-3.314,0-6,2.686-6,6h12C25.295,26.666,22.609,23.98,19.295,23.98z"/>
	<path style="fill:#F0C419;" d="M39.295,23.98c-3.314,0-6,2.686-6,6h12C45.295,26.666,42.609,23.98,39.295,23.98z"/>
	<circle style="fill:#556080;" cx="20.795" cy="33.48" r="1.5"/>
	<circle style="fill:#556080;" cx="39.795" cy="33.48" r="1.5"/>
</g>
<g>
</g>
<g>
</g>
<g>
</g>
<g>
</g>
<g>
</g>
<g>
</g>
<g>
</g>
<g>
</g>
<g>
</g>
<g>
</g>
<g>
</g>
<g>
</g>
<g>
</g>
<g>
</g>
<g>
</g>
</svg>
