<?xml version="1.0" encoding="iso-8859-1"?>
<!-- Generator: Adobe Illustrator 18.0.0, SVG Export Plug-In . SVG Version: 6.00 Build 0)  -->
<!DOCTYPE svg PUBLIC "-//W3C//DTD SVG 1.1//EN" "http://www.w3.org/Graphics/SVG/1.1/DTD/svg11.dtd">
<svg version="1.1" id="Capa_1" xmlns="http://www.w3.org/2000/svg" xmlns:xlink="http://www.w3.org/1999/xlink" x="0px" y="0px"
	 viewBox="0 0 57 57" style="enable-background:new 0 0 57 57;" xml:space="preserve">
<g>
	<path style="fill:#6E5847;" d="M28.5,0C14.475,0,3,11.475,3,25.5V50c0,2.2,1.8,4,4,4h6.777c4.16,2.021,9.237,3,14.723,3
		s10.563-0.979,14.723-3H50c2.2,0,4-1.8,4-4V25.5C54,11.475,42.525,0,28.5,0z"/>
	<path style="fill:#FDC794;" d="M3.869,29.894C3.305,32.001,3,34.215,3,36.5C3,50.583,14.417,57,28.5,57S54,50.583,54,36.5
		C54,22.842,42.495,11.661,29,11h-1C14.505,11.661,3,22.842,3,36.5C3,50.583,14.417,57,28.5,57S54,50.583,54,36.5"/>
	<circle style="fill:#FFFFFF;" cx="19" cy="29" r="6"/>
	<circle style="fill:#7F5B53;" cx="16" cy="27" r="2"/>
	<circle style="fill:#FFFFFF;" cx="37" cy="29" r="6"/>
	<circle style="fill:#7F5B53;" cx="34" cy="27" r="2"/>
	<path style="fill:#F9A671;" d="M19.999,51c-0.205,0-0.412-0.063-0.591-0.194c-0.445-0.326-0.541-0.952-0.214-1.397
		c3.311-4.511,9.472-7.519,14.026-6.828c2.337,0.35,4.015,1.66,4.724,3.689c0.182,0.521-0.093,1.092-0.614,1.274
		s-1.091-0.093-1.274-0.614c-0.465-1.333-1.519-2.131-3.131-2.372c-3.814-0.562-9.256,2.136-12.119,6.034
		C20.61,50.858,20.307,51,19.999,51z"/>
</g>
<g>
</g>
<g>
</g>
<g>
</g>
<g>
</g>
<g>
</g>
<g>
</g>
<g>
</g>
<g>
</g>
<g>
</g>
<g>
</g>
<g>
</g>
<g>
</g>
<g>
</g>
<g>
</g>
<g>
</g>
</svg>
