<?xml version="1.0" encoding="iso-8859-1"?>
<!-- Generator: Adobe Illustrator 18.0.0, SVG Export Plug-In . SVG Version: 6.00 Build 0)  -->
<!DOCTYPE svg PUBLIC "-//W3C//DTD SVG 1.1//EN" "http://www.w3.org/Graphics/SVG/1.1/DTD/svg11.dtd">
<svg version="1.1" id="Capa_1" xmlns="http://www.w3.org/2000/svg" xmlns:xlink="http://www.w3.org/1999/xlink" x="0px" y="0px"
	 viewBox="0 0 47 47" style="enable-background:new 0 0 47 47;" xml:space="preserve">
<g>
	<path style="fill:#FFD581;" d="M44,19.662L44,19.662c-1.74-9.843-10.158-17-20.5-17S4.74,9.819,3,19.662l0,0
		c-1.663,0.661-3,2.602-3,4.5c0,1.978,1.284,3.639,3.058,4.242C5.21,37.715,13.536,44.662,23.5,44.662
		c9.965,0,18.29-6.948,20.442-16.258l0,0.001C45.716,27.801,47,26.14,47,24.162C47,22.264,45.663,20.323,44,19.662z"/>
	<g>
		<circle style="fill:#D0E8F9;" cx="13.53" cy="28.132" r="4.53"/>
		<path style="fill:#556080;" d="M13.53,33.662c-3.05,0-5.53-2.48-5.53-5.53s2.48-5.53,5.53-5.53s5.53,2.48,5.53,5.53
			S16.58,33.662,13.53,33.662z M13.53,24.602c-1.946,0-3.53,1.584-3.53,3.53s1.584,3.53,3.53,3.53s3.53-1.584,3.53-3.53
			S15.477,24.602,13.53,24.602z"/>
	</g>
	<g>
		<circle style="fill:#D0E8F9;" cx="27.47" cy="28.132" r="4.53"/>
		<path style="fill:#556080;" d="M27.47,33.662c-3.05,0-5.53-2.48-5.53-5.53s2.48-5.53,5.53-5.53s5.53,2.48,5.53,5.53
			S30.52,33.662,27.47,33.662z M27.47,24.602c-1.946,0-3.53,1.584-3.53,3.53s1.584,3.53,3.53,3.53S31,30.078,31,28.132
			S29.416,24.602,27.47,24.602z"/>
	</g>
	<path style="fill:#556080;" d="M23.939,28.132h-2c0-0.794-0.646-1.439-1.439-1.439s-1.439,0.646-1.439,1.439h-2
		c0-1.896,1.543-3.439,3.439-3.439S23.939,26.236,23.939,28.132z"/>
	<path style="fill:#CB8252;" d="M28,41.45c-0.553,0-1-0.447-1-1c0-0.606-2.845-1.788-8.061-1.788c-0.553,0-1-0.447-1-1s0.447-1,1-1
		c1.68,0,10.061,0.183,10.061,3.788C29,41.003,28.553,41.45,28,41.45z"/>
	<path style="fill:#9D6019;" d="M44,19.662l0,0.001C42.26,9.821,33.684,2.338,23.342,2.338S4.74,9.819,3,19.662
		c0,0,16.906,4.33,28.242-4.726c0.555-0.444,1.362-0.34,1.758,0.25C35.049,18.238,38.828,21.942,44,19.662z"/>
</g>
<g>
</g>
<g>
</g>
<g>
</g>
<g>
</g>
<g>
</g>
<g>
</g>
<g>
</g>
<g>
</g>
<g>
</g>
<g>
</g>
<g>
</g>
<g>
</g>
<g>
</g>
<g>
</g>
<g>
</g>
</svg>
