<?xml version="1.0" encoding="iso-8859-1"?>
<!-- Generator: Adobe Illustrator 18.0.0, SVG Export Plug-In . SVG Version: 6.00 Build 0)  -->
<!DOCTYPE svg PUBLIC "-//W3C//DTD SVG 1.1//EN" "http://www.w3.org/Graphics/SVG/1.1/DTD/svg11.dtd">
<svg version="1.1" id="Capa_1" xmlns="http://www.w3.org/2000/svg" xmlns:xlink="http://www.w3.org/1999/xlink" x="0px" y="0px"
	 viewBox="0 0 42 42" style="enable-background:new 0 0 42 42;" xml:space="preserve">
<g>
	<circle style="fill:#FBD971;" cx="21" cy="21" r="21"/>
	<circle style="fill:#FFFFFF;" cx="12" cy="14" r="6"/>
	<circle style="fill:#FFFFFF;" cx="30" cy="14" r="6"/>
	<path style="fill:#F9A671;" d="M28.415,31.92l-1.936-1.234l1.936-1.234c1.391-0.887,1.804-2.751,0.916-4.142
		c-0.887-1.391-2.751-1.804-4.143-0.916l-4.289,2.735l-4.289-2.735c-1.391-0.887-3.255-0.475-4.142,0.916h0
		c-0.887,1.391-0.475,3.255,0.916,4.142l1.936,1.234l-1.936,1.234c-1.391,0.887-1.804,2.751-0.916,4.142h0
		c0.887,1.391,2.751,1.804,4.142,0.916l4.289-2.735l4.289,2.735c1.391,0.887,3.255,0.475,4.143-0.916
		C30.218,34.672,29.806,32.807,28.415,31.92z"/>
	<circle style="fill:#AF8066;" cx="12" cy="14" r="3"/>
	<circle style="fill:#AF8066;" cx="30" cy="14" r="3"/>
</g>
<g>
</g>
<g>
</g>
<g>
</g>
<g>
</g>
<g>
</g>
<g>
</g>
<g>
</g>
<g>
</g>
<g>
</g>
<g>
</g>
<g>
</g>
<g>
</g>
<g>
</g>
<g>
</g>
<g>
</g>
</svg>
