<?xml version="1.0" encoding="iso-8859-1"?>
<!-- Generator: Adobe Illustrator 18.0.0, SVG Export Plug-In . SVG Version: 6.00 Build 0)  -->
<!DOCTYPE svg PUBLIC "-//W3C//DTD SVG 1.1//EN" "http://www.w3.org/Graphics/SVG/1.1/DTD/svg11.dtd">
<svg version="1.1" id="Capa_1" xmlns="http://www.w3.org/2000/svg" xmlns:xlink="http://www.w3.org/1999/xlink" x="0px" y="0px"
	 viewBox="0 0 42 42" style="enable-background:new 0 0 42 42;" xml:space="preserve">
<g>
	<circle style="fill:#FBD971;" cx="21" cy="21" r="21"/>
	<circle style="fill:#C03A2B;" cx="21" cy="31" r="5"/>
	<path style="fill:#F29C1F;" d="M7.758,20.242c-0.256,0-0.512-0.098-0.707-0.293c-0.391-0.391-0.391-1.023,0-1.414l8.484-8.484
		c0.391-0.391,1.023-0.391,1.414,0s0.391,1.023,0,1.414l-8.484,8.484C8.27,20.145,8.014,20.242,7.758,20.242z"/>
	<path style="fill:#F29C1F;" d="M16.242,20.242c-0.256,0-0.512-0.098-0.707-0.293l-8.484-8.484c-0.391-0.391-0.391-1.023,0-1.414
		s1.023-0.391,1.414,0l8.484,8.484c0.391,0.391,0.391,1.023,0,1.414C16.754,20.145,16.498,20.242,16.242,20.242z"/>
	<path style="fill:#F29C1F;" d="M25.515,20.242c-0.256,0-0.512-0.098-0.707-0.293c-0.391-0.391-0.391-1.023,0-1.414l8.485-8.484
		c0.391-0.391,1.023-0.391,1.414,0s0.391,1.023,0,1.414l-8.485,8.484C26.026,20.145,25.771,20.242,25.515,20.242z"/>
	<path style="fill:#F29C1F;" d="M34,20.242c-0.256,0-0.512-0.098-0.707-0.293l-8.485-8.484c-0.391-0.391-0.391-1.023,0-1.414
		s1.023-0.391,1.414,0l8.485,8.484c0.391,0.391,0.391,1.023,0,1.414C34.512,20.145,34.256,20.242,34,20.242z"/>
</g>
<g>
</g>
<g>
</g>
<g>
</g>
<g>
</g>
<g>
</g>
<g>
</g>
<g>
</g>
<g>
</g>
<g>
</g>
<g>
</g>
<g>
</g>
<g>
</g>
<g>
</g>
<g>
</g>
<g>
</g>
</svg>
