<?xml version="1.0" encoding="iso-8859-1"?>
<!-- Generator: Adobe Illustrator 18.0.0, SVG Export Plug-In . SVG Version: 6.00 Build 0)  -->
<!DOCTYPE svg PUBLIC "-//W3C//DTD SVG 1.1//EN" "http://www.w3.org/Graphics/SVG/1.1/DTD/svg11.dtd">
<svg version="1.1" id="Capa_1" xmlns="http://www.w3.org/2000/svg" xmlns:xlink="http://www.w3.org/1999/xlink" x="0px" y="0px"
	 viewBox="0 0 57 57" style="enable-background:new 0 0 57 57;" xml:space="preserve">
<g>
	<path style="fill:#6E5847;" d="M28.5,0C14.475,0,3,11.475,3,25.5V50c0,2.2,1.8,4,4,4h6.777c4.16,2.021,9.237,3,14.723,3
		s10.563-0.979,14.723-3H50c2.2,0,4-1.8,4-4V25.5C54,11.475,42.525,0,28.5,0z"/>
	<path style="fill:#FDC794;" d="M3.869,29.894C3.305,32.001,3,34.215,3,36.5C3,50.583,14.417,57,28.5,57S54,50.583,54,36.5
		C54,22.842,42.495,11.661,29,11h-1C14.505,11.661,3,22.842,3,36.5C3,50.583,14.417,57,28.5,57S54,50.583,54,36.5"/>
	<path style="fill:#F9A671;" d="M19,50.676c-0.552,0-1-0.447-1-1s0.448-1,1-1c1.654,0,3-1.346,3-3s-1.346-3-3-3
		c-0.552,0-1-0.447-1-1s0.448-1,1-1c2.757,0,5,2.243,5,5S21.757,50.676,19,50.676z"/>
	<path style="fill:#F9A671;" d="M38,50.676c-2.757,0-5-2.243-5-5s2.243-5,5-5c0.552,0,1,0.447,1,1s-0.448,1-1,1
		c-1.654,0-3,1.346-3,3s1.346,3,3,3c0.552,0,1,0.447,1,1S38.552,50.676,38,50.676z"/>
	<path style="fill:#F9A671;" d="M34,47.176c-0.552,0-1-0.447-1-1c0-0.436-1.577-1.5-4.5-1.5s-4.5,1.064-4.5,1.5c0,0.553-0.448,1-1,1
		s-1-0.447-1-1c0-2.298,3.27-3.5,6.5-3.5s6.5,1.202,6.5,3.5C35,46.729,34.552,47.176,34,47.176z"/>
	<ellipse style="fill:#FFFFFF;" cx="38" cy="26.5" rx="6" ry="7.5"/>
	<ellipse style="fill:#6E5847;" cx="38" cy="26.5" rx="3" ry="4.5"/>
	<ellipse style="fill:#FFFFFF;" cx="19" cy="26.5" rx="6" ry="7.5"/>
	<ellipse style="fill:#6E5847;" cx="19" cy="26.5" rx="3" ry="4.5"/>
</g>
<g>
</g>
<g>
</g>
<g>
</g>
<g>
</g>
<g>
</g>
<g>
</g>
<g>
</g>
<g>
</g>
<g>
</g>
<g>
</g>
<g>
</g>
<g>
</g>
<g>
</g>
<g>
</g>
<g>
</g>
</svg>
