<?xml version="1.0" encoding="iso-8859-1"?>
<!-- Generator: Adobe Illustrator 18.0.0, SVG Export Plug-In . SVG Version: 6.00 Build 0)  -->
<!DOCTYPE svg PUBLIC "-//W3C//DTD SVG 1.1//EN" "http://www.w3.org/Graphics/SVG/1.1/DTD/svg11.dtd">
<svg version="1.1" id="Capa_1" xmlns="http://www.w3.org/2000/svg" xmlns:xlink="http://www.w3.org/1999/xlink" x="0px" y="0px"
	 viewBox="0 0 57 57" style="enable-background:new 0 0 57 57;" xml:space="preserve">
<g>
	<path style="fill:#FFDB2B;" d="M49.324,26v23c0,2.03-1.996,4-4.184,4H11.338c-2.187,0-4.015-1.97-4.015-4V26
		c0,0,20.855-0.865,27-10C34.324,16,41.08,30.869,49.324,26z"/>
	<path style="fill:#5E5F62;" d="M56.488,43.062c-2.114-4.74-2.817-13.336-3.05-18.867c-0.18-4.282-1.426-8.479-3.815-12.038
		C45.766,6.41,41.533,3.728,37.74,2.067c-6.299-2.757-13.545-2.757-19.843,0c-3.587,1.57-7.812,3.897-11.104,9.041
		c-2.28,3.563-3.401,7.737-3.484,11.967c-0.107,5.471-0.62,15.09-2.807,20.154c-0.464,1.075,0.009,2.311,1.079,2.785
		C2.664,46.493,5.824,46.781,7.324,47V26c0,0,20.855-0.865,27-10c0,0,6.757,14.869,15,10v21c2.031-0.406,4.739-0.592,6-1.081
		C56.464,45.476,56.986,44.18,56.488,43.062z"/>
	<path style="fill:#F18D46;" d="M19.324,49c-0.552,0-1-0.447-1-1s0.448-1,1-1c1.654,0,3-1.346,3-3s-1.346-3-3-3
		c-0.552,0-1-0.447-1-1s0.448-1,1-1c2.757,0,5,2.243,5,5S22.08,49,19.324,49z"/>
	<path style="fill:#F18D46;" d="M38.324,49c-2.757,0-5-2.243-5-5s2.243-5,5-5c0.552,0,1,0.447,1,1s-0.448,1-1,1
		c-1.654,0-3,1.346-3,3s1.346,3,3,3c0.552,0,1,0.447,1,1S38.876,49,38.324,49z"/>
	<path style="fill:#F18D46;" d="M34.324,45.5c-0.552,0-1-0.447-1-1c0-0.436-1.577-1.5-4.5-1.5s-4.5,1.064-4.5,1.5
		c0,0.553-0.448,1-1,1s-1-0.447-1-1c0-2.298,3.27-3.5,6.5-3.5s6.5,1.202,6.5,3.5C35.324,45.053,34.876,45.5,34.324,45.5z"/>
	<circle style="fill:#556080;" cx="20.117" cy="30" r="2"/>
	<circle style="fill:#556080;" cx="36.117" cy="30" r="2"/>
	<path style="fill:#FEC722;" d="M39.542,57H16.152c-0.721,0-1.305-0.584-1.305-1.305V53h26v2.695C40.847,56.416,40.263,57,39.542,57
		z"/>
</g>
<g>
</g>
<g>
</g>
<g>
</g>
<g>
</g>
<g>
</g>
<g>
</g>
<g>
</g>
<g>
</g>
<g>
</g>
<g>
</g>
<g>
</g>
<g>
</g>
<g>
</g>
<g>
</g>
<g>
</g>
</svg>
