<?xml version="1.0" encoding="iso-8859-1"?>
<!-- Generator: Adobe Illustrator 18.0.0, SVG Export Plug-In . SVG Version: 6.00 Build 0)  -->
<!DOCTYPE svg PUBLIC "-//W3C//DTD SVG 1.1//EN" "http://www.w3.org/Graphics/SVG/1.1/DTD/svg11.dtd">
<svg version="1.1" id="Capa_1" xmlns="http://www.w3.org/2000/svg" xmlns:xlink="http://www.w3.org/1999/xlink" x="0px" y="0px"
	 viewBox="0 0 47 47" style="enable-background:new 0 0 47 47;" xml:space="preserve">
<g>
	<path style="fill:#FFD581;" d="M44,19.662L44,19.662c-1.74-9.843-10.158-17-20.5-17S4.74,9.819,3,19.662l0,0
		c-1.663,0.661-3,2.602-3,4.5c0,1.978,1.284,3.639,3.058,4.242C5.21,37.715,13.536,44.662,23.5,44.662
		c9.965,0,18.29-6.948,20.442-16.258l0,0.001C45.716,27.801,47,26.14,47,24.162C47,22.264,45.663,20.323,44,19.662z"/>
	<path style="fill:#CB8252;" d="M19.75,38.662c-0.553,0-1-0.447-1-1s0.447-1,1-1c0.552,0,1-0.448,1-1s-0.448-1-1-1
		c-0.553,0-1-0.447-1-1s0.447-1,1-1c1.654,0,3,1.346,3,3S21.404,38.662,19.75,38.662z"/>
	<path style="fill:#CB8252;" d="M29.25,38.662c-1.654,0-3-1.346-3-3s1.346-3,3-3c0.553,0,1,0.447,1,1s-0.447,1-1,1
		c-0.552,0-1,0.448-1,1s0.448,1,1,1c0.553,0,1,0.447,1,1S29.803,38.662,29.25,38.662z"/>
	<path style="fill:#CB8252;" d="M27.25,36.912c-0.498,0-0.912-0.365-0.987-0.842c-0.177-0.14-0.77-0.408-1.763-0.408
		s-1.586,0.269-1.763,0.408c-0.075,0.477-0.489,0.842-0.987,0.842c-0.553,0-1-0.447-1-1c0-1.325,1.542-2.25,3.75-2.25
		s3.75,0.925,3.75,2.25C28.25,36.465,27.803,36.912,27.25,36.912z"/>
	<circle style="fill:#414141;" cx="17" cy="25.662" r="2"/>
	<circle style="fill:#414141;" cx="31" cy="25.662" r="2"/>
	<path style="fill:#414141;" d="M44,19.662l0,0.001C42.26,9.821,33.684,2.338,23.342,2.338S4.74,9.819,3,19.662
		c0,0,16.906,4.33,28.242-4.726c0.555-0.444,1.362-0.34,1.758,0.25C35.049,18.238,38.828,21.942,44,19.662z"/>
</g>
<g>
</g>
<g>
</g>
<g>
</g>
<g>
</g>
<g>
</g>
<g>
</g>
<g>
</g>
<g>
</g>
<g>
</g>
<g>
</g>
<g>
</g>
<g>
</g>
<g>
</g>
<g>
</g>
<g>
</g>
</svg>
