<?xml version="1.0" encoding="iso-8859-1"?>
<!-- Generator: Adobe Illustrator 18.0.0, SVG Export Plug-In . SVG Version: 6.00 Build 0)  -->
<!DOCTYPE svg PUBLIC "-//W3C//DTD SVG 1.1//EN" "http://www.w3.org/Graphics/SVG/1.1/DTD/svg11.dtd">
<svg version="1.1" id="Capa_1" xmlns="http://www.w3.org/2000/svg" xmlns:xlink="http://www.w3.org/1999/xlink" x="0px" y="0px"
	 viewBox="0 0 42 42" style="enable-background:new 0 0 42 42;" xml:space="preserve">
<g>
	<circle style="fill:#FBD971;" cx="21" cy="21" r="21"/>
	<path style="fill:#F0C419;" d="M11.5,36c-0.553,0-1-0.447-1-1s0.447-1,1-1c1.654,0,3-1.346,3-3s-1.346-3-3-3c-0.553,0-1-0.447-1-1
		s0.447-1,1-1c2.757,0,5,2.243,5,5S14.257,36,11.5,36z"/>
	<path style="fill:#F0C419;" d="M30.5,36c-2.757,0-5-2.243-5-5s2.243-5,5-5c0.553,0,1,0.447,1,1s-0.447,1-1,1c-1.654,0-3,1.346-3,3
		s1.346,3,3,3c0.553,0,1,0.447,1,1S31.053,36,30.5,36z"/>
	<circle style="fill:#FFFFFF;" cx="12" cy="15" r="6"/>
	<circle style="fill:#FFFFFF;" cx="30" cy="15" r="6"/>
	<path style="fill:#F0C419;" d="M26.5,32.5c-0.553,0-1-0.447-1-1c0-0.436-1.577-1.5-4.5-1.5s-4.5,1.064-4.5,1.5c0,0.553-0.447,1-1,1
		s-1-0.447-1-1c0-2.298,3.27-3.5,6.5-3.5s6.5,1.202,6.5,3.5C27.5,32.053,27.053,32.5,26.5,32.5z"/>
	<circle style="fill:#AF8066;" cx="12" cy="15" r="3"/>
	<circle style="fill:#AF8066;" cx="30" cy="15" r="3"/>
</g>
<g>
</g>
<g>
</g>
<g>
</g>
<g>
</g>
<g>
</g>
<g>
</g>
<g>
</g>
<g>
</g>
<g>
</g>
<g>
</g>
<g>
</g>
<g>
</g>
<g>
</g>
<g>
</g>
<g>
</g>
</svg>
