<?xml version="1.0" encoding="iso-8859-1"?>
<!-- Generator: Adobe Illustrator 18.0.0, SVG Export Plug-In . SVG Version: 6.00 Build 0)  -->
<!DOCTYPE svg PUBLIC "-//W3C//DTD SVG 1.1//EN" "http://www.w3.org/Graphics/SVG/1.1/DTD/svg11.dtd">
<svg version="1.1" id="Capa_1" xmlns="http://www.w3.org/2000/svg" xmlns:xlink="http://www.w3.org/1999/xlink" x="0px" y="0px"
	 viewBox="0 0 51 51" style="enable-background:new 0 0 51 51;" xml:space="preserve">
<g>
	<path style="fill:#DACBBE;" d="M42.5,47h-34c-2.2,0-4-1.8-4-4V10c0-2.2,1.8-4,4-4h34c2.2,0,4,1.8,4,4v33C46.5,45.2,44.7,47,42.5,47
		z"/>
	<g>
		<circle style="fill:#FFFFFF;" cx="16.5" cy="23" r="6"/>
		<path style="fill:#AF8066;" d="M16.5,30c-3.859,0-7-3.141-7-7s3.141-7,7-7s7,3.141,7,7S20.359,30,16.5,30z M16.5,18
			c-2.757,0-5,2.243-5,5s2.243,5,5,5s5-2.243,5-5S19.257,18,16.5,18z"/>
	</g>
	<g>
		<circle style="fill:#FFFFFF;" cx="34.5" cy="23" r="6"/>
		<path style="fill:#AF8066;" d="M34.5,30c-3.859,0-7-3.141-7-7s3.141-7,7-7s7,3.141,7,7S38.359,30,34.5,30z M34.5,18
			c-2.757,0-5,2.243-5,5s2.243,5,5,5s5-2.243,5-5S37.257,18,34.5,18z"/>
	</g>
	<path style="fill:#C1B4AA;" d="M37.195,51H13.805c-0.721,0-1.305-0.584-1.305-1.305V47h26v2.695C38.5,50.416,37.916,51,37.195,51z"
		/>
	<path style="fill:#C1B4AA;" d="M19.805,0l11.389,0C31.916,0,32.5,0.584,32.5,1.305V6h-14V1.305C18.5,0.584,19.084,0,19.805,0z"/>
	<path style="fill:#AF8066;" d="M35.5,39h-20c-0.553,0-1-0.447-1-1s0.447-1,1-1h20c0.553,0,1,0.447,1,1S36.053,39,35.5,39z"/>
	<path style="fill:#AF8066;" d="M17.5,41c-0.553,0-1-0.447-1-1v-4c0-0.553,0.447-1,1-1s1,0.447,1,1v4C18.5,40.553,18.053,41,17.5,41
		z"/>
	<path style="fill:#AF8066;" d="M21.5,41c-0.553,0-1-0.447-1-1v-4c0-0.553,0.447-1,1-1s1,0.447,1,1v4C22.5,40.553,22.053,41,21.5,41
		z"/>
	<path style="fill:#AF8066;" d="M25.5,41c-0.553,0-1-0.447-1-1v-4c0-0.553,0.447-1,1-1s1,0.447,1,1v4C26.5,40.553,26.053,41,25.5,41
		z"/>
	<path style="fill:#AF8066;" d="M29.5,41c-0.553,0-1-0.447-1-1v-4c0-0.553,0.447-1,1-1s1,0.447,1,1v4C30.5,40.553,30.053,41,29.5,41
		z"/>
	<path style="fill:#AF8066;" d="M33.5,41c-0.553,0-1-0.447-1-1v-4c0-0.553,0.447-1,1-1s1,0.447,1,1v4C34.5,40.553,34.053,41,33.5,41
		z"/>
</g>
<g>
</g>
<g>
</g>
<g>
</g>
<g>
</g>
<g>
</g>
<g>
</g>
<g>
</g>
<g>
</g>
<g>
</g>
<g>
</g>
<g>
</g>
<g>
</g>
<g>
</g>
<g>
</g>
<g>
</g>
</svg>
