<?xml version="1.0" encoding="iso-8859-1"?>
<!-- Generator: Adobe Illustrator 18.0.0, SVG Export Plug-In . SVG Version: 6.00 Build 0)  -->
<!DOCTYPE svg PUBLIC "-//W3C//DTD SVG 1.1//EN" "http://www.w3.org/Graphics/SVG/1.1/DTD/svg11.dtd">
<svg version="1.1" id="Capa_1" xmlns="http://www.w3.org/2000/svg" xmlns:xlink="http://www.w3.org/1999/xlink" x="0px" y="0px"
	 viewBox="0 0 59 59" style="enable-background:new 0 0 59 59;" xml:space="preserve">
<g>
	<path style="fill:#556080;" d="M3.001,54.5c-0.101,0-0.203-0.015-0.304-0.047c-0.526-0.168-0.817-0.73-0.65-1.256l7-22
		c0.168-0.527,0.731-0.817,1.256-0.65c0.526,0.168,0.817,0.73,0.65,1.256l-7,22C3.817,54.229,3.424,54.5,3.001,54.5z"/>
	<path style="fill:#556080;" d="M1.999,43.5c-0.204,0-0.41-0.063-0.587-0.191c-0.446-0.324-0.545-0.95-0.22-1.396l8-11
		c0.325-0.446,0.95-0.544,1.397-0.221c0.446,0.324,0.545,0.95,0.22,1.396l-8,11C2.613,43.357,2.308,43.5,1.999,43.5z"/>
	<path style="fill:#556080;" d="M1.001,36.5c-0.298,0-0.593-0.133-0.79-0.386c-0.339-0.437-0.26-1.064,0.176-1.403l9-7
		c0.434-0.341,1.063-0.261,1.403,0.175c0.339,0.437,0.26,1.064-0.176,1.403l-9,7C1.432,36.432,1.215,36.5,1.001,36.5z"/>
	<path style="fill:#556080;" d="M3.001,30.5c-0.312,0-0.62-0.146-0.815-0.419c-0.321-0.449-0.217-1.074,0.233-1.395l7-5
		c0.447-0.322,1.073-0.218,1.395,0.232c0.321,0.449,0.217,1.074-0.233,1.395l-7,5C3.405,30.44,3.202,30.5,3.001,30.5z"/>
	<path style="fill:#556080;" d="M57,54.5c-0.424,0-0.817-0.271-0.953-0.697l-7-22c-0.167-0.525,0.124-1.088,0.65-1.256
		c0.525-0.17,1.088,0.123,1.256,0.65l7,22c0.167,0.525-0.124,1.088-0.65,1.256C57.202,54.485,57.1,54.5,57,54.5z"/>
	<path style="fill:#556080;" d="M58.001,43.5c-0.309,0-0.614-0.143-0.81-0.412l-8-11c-0.325-0.446-0.226-1.072,0.22-1.396
		c0.447-0.326,1.072-0.227,1.397,0.221l8,11c0.325,0.446,0.226,1.072-0.22,1.396C58.411,43.438,58.205,43.5,58.001,43.5z"/>
	<path style="fill:#556080;" d="M57.999,35.5c-0.208,0-0.419-0.065-0.599-0.2l-8-6c-0.442-0.331-0.531-0.958-0.2-1.399
		c0.331-0.442,0.957-0.53,1.4-0.2l8,6c0.442,0.331,0.531,0.958,0.2,1.399C58.604,35.362,58.303,35.5,57.999,35.5z"/>
	<path style="fill:#556080;" d="M56.999,30.5c-0.201,0-0.404-0.061-0.58-0.187l-7-5c-0.45-0.32-0.554-0.945-0.233-1.395
		c0.321-0.45,0.946-0.555,1.395-0.232l7,5c0.45,0.32,0.554,0.945,0.233,1.395C57.619,30.355,57.311,30.5,56.999,30.5z"/>
	<path style="fill:#556080;" d="M55,19.573c0,8.837-11.193,0-25,0s-25,8.837-25,0S16.193,0.5,30,0.5S55,10.736,55,19.573z"/>
	<path style="fill:#FFDB2B;" d="M30,19.573c-8.186,0-15.452,3.105-20.013,3.793C9.978,33.609,9.966,50.5,9.966,50.5c0,2.2,1.8,4,4,4
		H46c2.2,0,4-1.8,4-4c0,0,0.02-16.889,0.029-27.131C45.47,22.686,38.196,19.573,30,19.573z"/>
	<g>
		<path style="fill:#FFFFFF;" d="M36.5,45.5h-12c-1.375,0-2.5-1.125-2.5-2.5v0c0-1.375,1.125-2.5,2.5-2.5h12
			c1.375,0,2.5,1.125,2.5,2.5v0C39,44.375,37.875,45.5,36.5,45.5z"/>
		<path style="fill:#F18D46;" d="M36.5,46.5h-12c-1.93,0-3.5-1.57-3.5-3.5s1.57-3.5,3.5-3.5h12c1.93,0,3.5,1.57,3.5,3.5
			S38.43,46.5,36.5,46.5z M24.5,41.5c-0.827,0-1.5,0.673-1.5,1.5s0.673,1.5,1.5,1.5h12c0.827,0,1.5-0.673,1.5-1.5
			s-0.673-1.5-1.5-1.5H24.5z"/>
	</g>
	<path style="fill:#464F5D;" d="M50.517,27.316C47.625,25.572,44.334,24.65,41,24.65s-6.625,0.922-9.517,2.666L31.179,27.5h-1.342
		l-0.342-0.195c-3.039-1.736-6.496-2.654-9.996-2.654s-6.957,0.918-9.996,2.654L9,27.593v0.58c0,2.529,0,8.454,6.321,9.138
		c1.164,0.126,2.275,0.189,3.303,0.189c8.723,0,10.904-4.538,11.299-8h1.151c0.54,5.169,4.305,8,10.754,8c0,0,0.001,0,0.001,0
		c0.978,0,2.034-0.063,3.14-0.19C51,36.621,51,30.701,51,28.173v-0.564L50.517,27.316z"/>
	<path style="fill:#556080;" d="M14,32.5c-0.256,0-0.512-0.098-0.707-0.293c-0.391-0.391-0.391-1.023,0-1.414l3-3
		c0.391-0.391,1.023-0.391,1.414,0s0.391,1.023,0,1.414l-3,3C14.512,32.402,14.256,32.5,14,32.5z"/>
	<path style="fill:#556080;" d="M18,34.5c-0.256,0-0.512-0.098-0.707-0.293c-0.391-0.391-0.391-1.023,0-1.414l5-5
		c0.391-0.391,1.023-0.391,1.414,0s0.391,1.023,0,1.414l-5,5C18.512,34.402,18.256,34.5,18,34.5z"/>
	<path style="fill:#556080;" d="M36,32.5c-0.256,0-0.512-0.098-0.707-0.293c-0.391-0.391-0.391-1.023,0-1.414l3-3
		c0.391-0.391,1.023-0.391,1.414,0s0.391,1.023,0,1.414l-3,3C36.512,32.402,36.256,32.5,36,32.5z"/>
	<path style="fill:#556080;" d="M40,34.5c-0.256,0-0.512-0.098-0.707-0.293c-0.391-0.391-0.391-1.023,0-1.414l5-5
		c0.391-0.391,1.023-0.391,1.414,0s0.391,1.023,0,1.414l-5,5C40.512,34.402,40.256,34.5,40,34.5z"/>
	<path style="fill:#24AE5F;" d="M6.222,14.332c5.357-0.825,13.857-4.442,23.43-4.442c10.029,0,18.878,3.967,24.172,4.538
		C50.616,7.194,41.165,0.5,30,0.5C18.884,0.5,9.471,7.134,6.222,14.332z"/>
	<g>
		<path style="fill:#556080;" d="M45.71,47.21C45.89,47.02,46,46.76,46,46.5s-0.11-0.521-0.29-0.71c-0.38-0.37-1.04-0.37-1.42,0
			C44.11,45.98,44,46.24,44,46.5s0.11,0.52,0.29,0.71c0.19,0.18,0.44,0.29,0.71,0.29S45.52,47.39,45.71,47.21z"/>
		<path style="fill:#556080;" d="M45,44.5c0.27,0,0.53-0.11,0.71-0.29C45.89,44.02,46,43.76,46,43.5c0-0.271-0.11-0.521-0.29-0.7
			c-0.37-0.38-1.04-0.38-1.42-0.01C44.11,42.98,44,43.23,44,43.5c0,0.26,0.11,0.52,0.29,0.71C44.48,44.39,44.73,44.5,45,44.5z"/>
		<path style="fill:#556080;" d="M48,44.5c0.27,0,0.52-0.11,0.71-0.29C48.89,44.02,49,43.76,49,43.5c0-0.271-0.11-0.521-0.29-0.71
			c-0.37-0.37-1.05-0.37-1.42,0C47.11,42.97,47,43.23,47,43.5c0,0.26,0.11,0.52,0.29,0.71C47.48,44.39,47.73,44.5,48,44.5z"/>
		<path style="fill:#556080;" d="M47.29,45.79C47.11,45.98,47,46.24,47,46.5s0.11,0.52,0.29,0.71c0.19,0.18,0.44,0.29,0.71,0.29
			s0.52-0.11,0.71-0.29C48.89,47.02,49,46.77,49,46.5c0-0.26-0.11-0.521-0.29-0.71C48.34,45.42,47.67,45.42,47.29,45.79z"/>
		<path style="fill:#556080;" d="M45.29,48.79C45.11,48.98,45,49.24,45,49.5c0,0.27,0.11,0.52,0.29,0.71
			c0.19,0.18,0.45,0.29,0.71,0.29c0.26,0,0.52-0.11,0.71-0.29C46.89,50.02,47,49.77,47,49.5c0-0.26-0.11-0.521-0.29-0.71
			C46.34,48.42,45.67,48.42,45.29,48.79z"/>
		<path style="fill:#556080;" d="M42.29,48.79C42.11,48.98,42,49.24,42,49.5c0,0.27,0.11,0.52,0.29,0.71
			c0.19,0.18,0.45,0.29,0.71,0.29c0.26,0,0.52-0.11,0.71-0.29C43.89,50.02,44,49.76,44,49.5s-0.11-0.521-0.29-0.71
			C43.33,48.42,42.66,48.42,42.29,48.79z"/>
		<path style="fill:#556080;" d="M42.71,47.21C42.89,47.02,43,46.76,43,46.5s-0.11-0.521-0.29-0.71c-0.38-0.37-1.05-0.37-1.42,0
			C41.11,45.98,41,46.24,41,46.5s0.11,0.52,0.29,0.71c0.18,0.18,0.44,0.29,0.71,0.29S42.52,47.39,42.71,47.21z"/>
		<path style="fill:#556080;" d="M39.29,48.79C39.11,48.98,39,49.24,39,49.5s0.11,0.52,0.29,0.71c0.19,0.18,0.45,0.29,0.71,0.29
			c0.26,0,0.52-0.11,0.71-0.29C40.89,50.02,41,49.76,41,49.5s-0.11-0.521-0.29-0.71C40.33,48.42,39.66,48.42,39.29,48.79z"/>
		<path style="fill:#556080;" d="M36.29,48.79C36.11,48.98,36,49.24,36,49.5s0.11,0.52,0.29,0.71c0.19,0.18,0.45,0.29,0.71,0.29
			c0.27,0,0.52-0.11,0.71-0.29C37.89,50.02,38,49.76,38,49.5s-0.11-0.521-0.29-0.71C37.34,48.42,36.67,48.42,36.29,48.79z"/>
		<path style="fill:#556080;" d="M33.29,48.79C33.11,48.98,33,49.24,33,49.5s0.11,0.52,0.29,0.71c0.19,0.18,0.45,0.29,0.71,0.29
			c0.26,0,0.52-0.11,0.71-0.29C34.89,50.02,35,49.77,35,49.5c0-0.26-0.11-0.521-0.29-0.71C34.34,48.42,33.67,48.42,33.29,48.79z"/>
		<path style="fill:#556080;" d="M16.71,45.79c-0.38-0.37-1.04-0.37-1.42,0C15.11,45.98,15,46.24,15,46.5s0.11,0.52,0.29,0.71
			c0.19,0.18,0.44,0.29,0.71,0.29c0.27,0,0.52-0.11,0.71-0.29C16.89,47.02,17,46.76,17,46.5S16.89,45.98,16.71,45.79z"/>
		<path style="fill:#556080;" d="M16,44.5c0.27,0,0.52-0.11,0.71-0.29C16.89,44.02,17,43.76,17,43.5c0-0.271-0.11-0.521-0.29-0.71
			c-0.38-0.37-1.06-0.36-1.41,0C15.11,42.98,15,43.23,15,43.5c0,0.26,0.11,0.52,0.29,0.71C15.47,44.39,15.73,44.5,16,44.5z"/>
		<path style="fill:#556080;" d="M13,44.5c0.27,0,0.52-0.11,0.71-0.29C13.89,44.02,14,43.76,14,43.5c0-0.271-0.11-0.53-0.29-0.71
			c-0.38-0.37-1.05-0.37-1.42,0C12.11,42.97,12,43.23,12,43.5c0,0.27,0.11,0.52,0.29,0.71C12.48,44.39,12.73,44.5,13,44.5z"/>
		<path style="fill:#556080;" d="M13.71,45.79c-0.38-0.37-1.04-0.37-1.42,0C12.11,45.98,12,46.24,12,46.5
			c0,0.27,0.11,0.52,0.29,0.71c0.19,0.18,0.45,0.29,0.71,0.29c0.27,0,0.52-0.11,0.71-0.29C13.89,47.02,14,46.76,14,46.5
			S13.89,45.98,13.71,45.79z"/>
		<path style="fill:#556080;" d="M14.29,48.79C14.11,48.98,14,49.24,14,49.5s0.11,0.52,0.29,0.71c0.19,0.18,0.45,0.29,0.71,0.29
			c0.26,0,0.52-0.11,0.71-0.29C15.89,50.02,16,49.76,16,49.5s-0.11-0.521-0.29-0.71C15.34,48.42,14.66,48.42,14.29,48.79z"/>
		<path style="fill:#556080;" d="M17.29,48.79C17.11,48.98,17,49.24,17,49.5s0.11,0.52,0.29,0.71c0.19,0.18,0.45,0.29,0.71,0.29
			c0.26,0,0.52-0.11,0.71-0.29C18.89,50.02,19,49.76,19,49.5s-0.11-0.521-0.29-0.71C18.34,48.42,17.67,48.42,17.29,48.79z"/>
		<path style="fill:#556080;" d="M19.71,45.79c-0.38-0.37-1.04-0.37-1.42,0C18.11,45.98,18,46.24,18,46.5
			c0,0.27,0.11,0.52,0.29,0.71c0.19,0.18,0.44,0.29,0.71,0.29s0.52-0.11,0.71-0.29C19.89,47.02,20,46.76,20,46.5
			S19.89,45.98,19.71,45.79z"/>
		<path style="fill:#556080;" d="M20.29,48.79C20.11,48.98,20,49.24,20,49.5s0.11,0.52,0.29,0.7c0.19,0.189,0.44,0.3,0.71,0.3
			s0.52-0.11,0.71-0.29C21.89,50.02,22,49.76,22,49.5s-0.11-0.521-0.29-0.71C21.34,48.42,20.66,48.42,20.29,48.79z"/>
		<path style="fill:#556080;" d="M24.29,48.79C24.11,48.98,24,49.24,24,49.5s0.11,0.52,0.29,0.7c0.19,0.189,0.44,0.3,0.71,0.3
			s0.52-0.11,0.71-0.29C25.89,50.02,26,49.76,26,49.5s-0.11-0.521-0.29-0.71C25.34,48.42,24.66,48.42,24.29,48.79z"/>
		<path style="fill:#556080;" d="M27.29,48.79C27.11,48.98,27,49.24,27,49.5s0.11,0.52,0.29,0.71c0.19,0.18,0.45,0.29,0.71,0.29
			c0.26,0,0.52-0.11,0.71-0.29C28.89,50.02,29,49.76,29,49.5s-0.11-0.521-0.29-0.71C28.33,48.42,27.66,48.42,27.29,48.79z"/>
		<path style="fill:#556080;" d="M30.29,48.79C30.11,48.98,30,49.24,30,49.5c0,0.27,0.11,0.52,0.29,0.71
			c0.19,0.18,0.45,0.29,0.71,0.29c0.26,0,0.52-0.11,0.71-0.29C31.89,50.02,32,49.76,32,49.5s-0.11-0.521-0.29-0.71
			C31.34,48.42,30.67,48.42,30.29,48.79z"/>
	</g>
	<path style="fill:#F0C419;" d="M30,0.5c-7.948,0-15.011,3.398-19.587,7.962c5.152-1.363,11.875-3.5,19.239-3.5
		c7.821,0,14.916,2.407,20.175,3.74C45.26,4.018,38.087,0.5,30,0.5z"/>
	<path style="fill:#FEC722;" d="M41.695,58.5H18.305C17.584,58.5,17,57.916,17,57.195V54.5h26v2.695
		C43,57.916,42.416,58.5,41.695,58.5z"/>
</g>
<g>
</g>
<g>
</g>
<g>
</g>
<g>
</g>
<g>
</g>
<g>
</g>
<g>
</g>
<g>
</g>
<g>
</g>
<g>
</g>
<g>
</g>
<g>
</g>
<g>
</g>
<g>
</g>
<g>
</g>
</svg>
