<?xml version="1.0" encoding="iso-8859-1"?>
<!-- Generator: Adobe Illustrator 18.0.0, SVG Export Plug-In . SVG Version: 6.00 Build 0)  -->
<!DOCTYPE svg PUBLIC "-//W3C//DTD SVG 1.1//EN" "http://www.w3.org/Graphics/SVG/1.1/DTD/svg11.dtd">
<svg version="1.1" id="Capa_1" xmlns="http://www.w3.org/2000/svg" xmlns:xlink="http://www.w3.org/1999/xlink" x="0px" y="0px"
	 viewBox="0 0 57 57" style="enable-background:new 0 0 57 57;" xml:space="preserve">
<g>
	<path style="fill:#6E5847;" d="M28.5,0C14.475,0,3,11.475,3,25.5V50c0,2.2,1.8,4,4,4h6.777c4.16,2.021,9.237,3,14.723,3
		s10.563-0.979,14.723-3H50c2.2,0,4-1.8,4-4V25.5C54,11.475,42.525,0,28.5,0z"/>
	<path style="fill:#FDC794;" d="M3.869,29.894C3.305,32.001,3,34.215,3,36.5C3,50.583,14.417,57,28.5,57S54,50.583,54,36.5
		C54,22.842,42.495,11.661,29,11h-1C14.505,11.661,3,22.842,3,36.5C3,50.583,14.417,57,28.5,57S54,50.583,54,36.5"/>
	<g>
		<path style="fill:#FFFFFF;" d="M18,40.676c0,6.075,4.925,11,11,11s11-4.925,11-11H18z"/>
		<path style="fill:#ECF0F0;" d="M38,44.676h-4v-4c0-0.553-0.448-1-1-1s-1,0.447-1,1v4h-6v-4c0-0.553-0.448-1-1-1s-1,0.447-1,1v4h-4
			c-0.552,0-1,0.447-1,1s0.448,1,1,1h4v4c0,0.553,0.448,1,1,1s1-0.447,1-1v-4h6v4c0,0.553,0.448,1,1,1s1-0.447,1-1v-4h4
			c0.552,0,1-0.447,1-1S38.552,44.676,38,44.676z"/>
		<path style="fill:#F9A671;" d="M29,52.676c-6.617,0-12-5.383-12-12c0-0.553,0.448-1,1-1h22c0.552,0,1,0.447,1,1
			C41,47.293,35.617,52.676,29,52.676z M19.05,41.676c0.503,5.046,4.774,9,9.95,9s9.447-3.954,9.95-9H19.05z"/>
	</g>
	<g>
		<path style="fill:#556080;" d="M26.854,25.533c0,3.217-1.117,10.195-14.895,8.739C6.233,33.667,6,28.751,6,25.533l0,0
			C12.461,21.923,20.393,21.923,26.854,25.533L26.854,25.533z"/>
		<path style="fill:#464F5D;" d="M15.446,35.468c-1.125,0-2.323-0.066-3.593-0.201C5,34.542,5,28.229,5,25.533v-0.587l0.512-0.286
			c6.732-3.762,15.097-3.762,21.829,0l0.512,0.286v0.587c0,3.002-0.957,5.386-2.844,7.083
			C22.902,34.514,19.693,35.468,15.446,35.468z M7.004,26.127c0.054,3.31,0.651,6.685,5.059,7.151
			c5.477,0.579,9.382-0.146,11.609-2.148c1.328-1.194,2.055-2.877,2.167-5.008C19.976,23.075,12.866,23.076,7.004,26.127z"/>
	</g>
	<g>
		<path style="fill:#556080;" d="M30.146,25.533c0,3.217,1.117,10.195,14.895,8.739C50.767,33.667,51,28.751,51,25.533l0,0
			C44.539,21.923,36.607,21.923,30.146,25.533L30.146,25.533z"/>
		<path style="fill:#464F5D;" d="M41.554,35.468c-4.248,0-7.456-0.954-9.563-2.852c-1.887-1.697-2.844-4.081-2.844-7.083v-0.587
			l0.512-0.286c6.732-3.762,15.097-3.762,21.829,0L52,24.946v0.587c0,2.696,0,9.009-6.853,9.733
			C43.877,35.401,42.679,35.468,41.554,35.468z M31.162,26.122c0.111,2.131,0.839,3.813,2.167,5.008
			c2.228,2.004,6.132,2.728,11.609,2.148c4.407-0.467,5.005-3.842,5.059-7.151C44.134,23.075,37.024,23.074,31.162,26.122z"/>
	</g>
	<g>
		<line style="fill:#556080;" x1="26.854" y1="25.884" x2="30.146" y2="25.884"/>
		<rect x="26.854" y="24.884" style="fill:#464F5D;" width="3.293" height="2"/>
	</g>
	<path style="fill:#8697CB;" d="M10.39,30.104c-0.26,0-0.519-0.101-0.715-0.301c-0.386-0.395-0.379-1.028,0.016-1.414l3.293-3.22
		c0.395-0.387,1.027-0.379,1.414,0.016c0.386,0.395,0.379,1.028-0.016,1.414l-3.293,3.22C10.895,30.009,10.643,30.104,10.39,30.104z
		"/>
	<path style="fill:#8697CB;" d="M14.78,32.25c-0.26,0-0.519-0.101-0.715-0.301c-0.386-0.395-0.379-1.028,0.016-1.414l5.488-5.366
		c0.395-0.387,1.027-0.379,1.414,0.016c0.386,0.395,0.379,1.028-0.016,1.414l-5.488,5.366C15.285,32.155,15.033,32.25,14.78,32.25z"
		/>
	<path style="fill:#8697CB;" d="M34.537,30.104c-0.26,0-0.519-0.101-0.715-0.301c-0.386-0.395-0.379-1.028,0.016-1.414l3.292-3.22
		c0.395-0.387,1.027-0.379,1.414,0.016c0.386,0.395,0.379,1.028-0.016,1.414l-3.292,3.22C35.041,30.009,34.789,30.104,34.537,30.104
		z"/>
	<path style="fill:#8697CB;" d="M38.927,32.25c-0.26,0-0.519-0.101-0.715-0.301c-0.386-0.395-0.379-1.028,0.016-1.414l5.488-5.366
		c0.395-0.387,1.027-0.379,1.414,0.016c0.386,0.395,0.379,1.028-0.016,1.414l-5.488,5.366C39.431,32.155,39.179,32.25,38.927,32.25z
		"/>
</g>
<g>
</g>
<g>
</g>
<g>
</g>
<g>
</g>
<g>
</g>
<g>
</g>
<g>
</g>
<g>
</g>
<g>
</g>
<g>
</g>
<g>
</g>
<g>
</g>
<g>
</g>
<g>
</g>
<g>
</g>
</svg>
