<?xml version="1.0" encoding="iso-8859-1"?>
<!-- Generator: Adobe Illustrator 18.0.0, SVG Export Plug-In . SVG Version: 6.00 Build 0)  -->
<!DOCTYPE svg PUBLIC "-//W3C//DTD SVG 1.1//EN" "http://www.w3.org/Graphics/SVG/1.1/DTD/svg11.dtd">
<svg version="1.1" id="Capa_1" xmlns="http://www.w3.org/2000/svg" xmlns:xlink="http://www.w3.org/1999/xlink" x="0px" y="0px"
	 viewBox="0 0 57 57" style="enable-background:new 0 0 57 57;" xml:space="preserve">
<g>
	<path style="fill:#6E5847;" d="M28.5,0C14.475,0,3,11.475,3,25.5V50c0,2.2,1.8,4,4,4h6.777c4.16,2.021,9.237,3,14.723,3
		s10.563-0.979,14.723-3H50c2.2,0,4-1.8,4-4V25.5C54,11.475,42.525,0,28.5,0z"/>
	<path style="fill:#FDC794;" d="M3.869,29.894C3.305,32.001,3,34.215,3,36.5C3,50.583,14.417,57,28.5,57S54,50.583,54,36.5
		C54,22.842,42.495,11.661,29,11h-1C14.505,11.661,3,22.842,3,36.5C3,50.583,14.417,57,28.5,57S54,50.583,54,36.5"/>
	<path style="fill:#F9A671;" d="M27.229,50.506c-3.336,0-6.646-0.804-9.691-2.392c-0.49-0.255-0.68-0.859-0.424-1.349
		c0.255-0.49,0.858-0.681,1.349-0.425c4.504,2.349,9.65,2.802,14.487,1.28c4.838-1.522,8.795-4.842,11.143-9.346
		c0.256-0.49,0.859-0.679,1.349-0.425c0.49,0.255,0.68,0.859,0.424,1.349c-2.595,4.979-6.969,8.646-12.316,10.329
		C31.474,50.182,29.346,50.506,27.229,50.506z"/>
	<path style="fill:#F9A671;" d="M17,50.5c-0.552,0-1-0.447-1-1c0-2.757,2.243-5,5-5c0.552,0,1,0.447,1,1s-0.448,1-1,1
		c-1.654,0-3,1.346-3,3C18,50.053,17.552,50.5,17,50.5z"/>
	<path style="fill:#F9A671;" d="M47,42.5c-0.552,0-1-0.447-1-1c0-1.654-1.346-3-3-3c-0.552,0-1-0.447-1-1s0.448-1,1-1
		c2.757,0,5,2.243,5,5C48,42.053,47.552,42.5,47,42.5z"/>
	<g>
		<path style="fill:#FFFFFF;" d="M14.944,23.779C14.349,24.71,14,25.813,14,27c0,3.314,2.686,6,6,6c2.983,0,5.451-2.179,5.915-5.031
			L15,24L14.944,23.779z"/>
		<path style="fill:#FFFFFF;" d="M40,22l-13.935,5.972C26.545,31.931,29.911,35,34,35c4.418,0,8-3.582,8-8
			c0-1.948-0.698-3.733-1.856-5.121L40,22z"/>
		<path style="fill:#F9A671;" d="M25.915,27.969L26,28l0.065-0.028C26.026,27.653,26,27.33,26,27
			C26,27.331,25.966,27.653,25.915,27.969z"/>
		<path style="fill:#F9A671;" d="M20,21c-2.127,0-3.991,1.11-5.056,2.779L15,24l10.915,3.969C25.966,27.653,26,27.331,26,27
			C26,23.686,23.314,21,20,21z"/>
		<path style="fill:#F9A671;" d="M40.144,21.879C38.677,20.121,36.47,19,34,19c-4.418,0-8,3.582-8,8c0,0.33,0.026,0.653,0.065,0.972
			L40,22L40.144,21.879z"/>
		<circle style="fill:#7F5B53;" cx="21" cy="29" r="1"/>
		<circle style="fill:#7F5B53;" cx="31.5" cy="29.5" r="1.5"/>
	</g>
</g>
<g>
</g>
<g>
</g>
<g>
</g>
<g>
</g>
<g>
</g>
<g>
</g>
<g>
</g>
<g>
</g>
<g>
</g>
<g>
</g>
<g>
</g>
<g>
</g>
<g>
</g>
<g>
</g>
<g>
</g>
</svg>
