<?xml version="1.0" encoding="iso-8859-1"?>
<!-- Generator: Adobe Illustrator 18.0.0, SVG Export Plug-In . SVG Version: 6.00 Build 0)  -->
<!DOCTYPE svg PUBLIC "-//W3C//DTD SVG 1.1//EN" "http://www.w3.org/Graphics/SVG/1.1/DTD/svg11.dtd">
<svg version="1.1" id="Capa_1" xmlns="http://www.w3.org/2000/svg" xmlns:xlink="http://www.w3.org/1999/xlink" x="0px" y="0px"
	 viewBox="0 0 58 58" style="enable-background:new 0 0 58 58;" xml:space="preserve">
<g>
	<path style="fill:#FDC794;" d="M29.392,54.999c11.246,0.156,17.52-4.381,21.008-9.189c3.603-4.966,4.764-11.283,3.647-17.323
		C50.004,6.642,29.392,6.826,29.392,6.826S8.781,6.642,4.738,28.488c-1.118,6.04,0.044,12.356,3.647,17.323
		C11.872,50.618,18.146,55.155,29.392,54.999z"/>
	<path style="fill:#F9A671;" d="M4.499,30.125c-0.453-0.429-0.985-0.687-1.559-0.687C1.316,29.438,0,31.418,0,33.862
		c0,2.443,1.316,4.424,2.939,4.424c0.687,0,1.311-0.37,1.811-0.964C4.297,34.97,4.218,32.538,4.499,30.125z"/>
	<path style="fill:#F9A671;" d="M57.823,26.298c-0.563-2.377-2.3-3.999-3.879-3.622c-0.491,0.117-0.898,0.43-1.225,0.855
		c0.538,1.515,0.994,3.154,1.328,4.957c0.155,0.837,0.261,1.679,0.328,2.522c0.52,0.284,1.072,0.402,1.608,0.274
		C57.562,30.907,58.386,28.675,57.823,26.298z"/>
	<path style="fill:#5E5F62;" d="M13.9,16.999c-0.256,0-0.512-0.098-0.707-0.293l-5-5c-0.391-0.391-0.391-1.023,0-1.414
		s1.023-0.391,1.414,0l5,5c0.391,0.391,0.391,1.023,0,1.414C14.412,16.901,14.156,16.999,13.9,16.999z"/>
	<path style="fill:#5E5F62;" d="M16.901,13.999c-0.367,0-0.72-0.202-0.896-0.553l-3-6c-0.247-0.494-0.047-1.095,0.447-1.342
		c0.496-0.247,1.095-0.047,1.342,0.447l3,6c0.247,0.494,0.047,1.095-0.447,1.342C17.204,13.965,17.051,13.999,16.901,13.999z"/>
	<path style="fill:#5E5F62;" d="M20.9,11.999c-0.419,0-0.809-0.265-0.949-0.684l-2-6c-0.175-0.524,0.108-1.091,0.632-1.265
		c0.525-0.177,1.091,0.108,1.265,0.632l2,6c0.175,0.524-0.108,1.091-0.632,1.265C21.112,11.982,21.005,11.999,20.9,11.999z"/>
	<path style="fill:#5E5F62;" d="M25.899,10.999c-0.48,0-0.904-0.347-0.985-0.836l-1-6c-0.091-0.544,0.277-1.06,0.822-1.15
		c0.546-0.098,1.06,0.278,1.151,0.822l1,6c0.091,0.544-0.277,1.06-0.822,1.15C26.009,10.995,25.954,10.999,25.899,10.999z"/>
	<path style="fill:#5E5F62;" d="M29.9,10.999c-0.552,0-1-0.447-1-1v-6c0-0.553,0.448-1,1-1s1,0.447,1,1v6
		C30.9,10.552,30.453,10.999,29.9,10.999z"/>
	<path style="fill:#5E5F62;" d="M33.9,10.999c-0.104,0-0.211-0.017-0.316-0.052c-0.524-0.174-0.807-0.74-0.632-1.265l2-6
		c0.174-0.523,0.739-0.807,1.265-0.632c0.524,0.174,0.807,0.74,0.632,1.265l-2,6C34.709,10.734,34.319,10.999,33.9,10.999z"/>
	<path style="fill:#5E5F62;" d="M37.9,11.999c-0.104,0-0.211-0.017-0.316-0.052c-0.524-0.174-0.807-0.74-0.632-1.265l2-6
		c0.175-0.523,0.74-0.809,1.265-0.632c0.524,0.174,0.807,0.74,0.632,1.265l-2,6C38.709,11.734,38.319,11.999,37.9,11.999z"/>
	<path style="fill:#5E5F62;" d="M40.899,13.999c-0.15,0-0.303-0.034-0.446-0.105c-0.494-0.247-0.694-0.848-0.447-1.342l3-6
		c0.247-0.494,0.847-0.694,1.342-0.447c0.494,0.247,0.694,0.848,0.447,1.342l-3,6C41.62,13.797,41.267,13.999,40.899,13.999z"/>
	<path style="fill:#F9A671;" d="M26.209,47.988c-3.268,0-6.58-0.764-9.672-2.375c-0.49-0.255-0.68-0.859-0.424-1.349
		c0.256-0.49,0.859-0.68,1.349-0.425c4.504,2.348,9.649,2.802,14.487,1.279s8.795-4.842,11.143-9.346
		c0.256-0.491,0.859-0.679,1.349-0.425c0.49,0.255,0.68,0.859,0.424,1.349C41.126,43.874,33.792,47.988,26.209,47.988z"/>
	<path style="fill:#F9A671;" d="M16,47.999c-0.552,0-1-0.447-1-1c0-2.757,2.243-5,5-5c0.552,0,1,0.447,1,1s-0.448,1-1,1
		c-1.654,0-3,1.346-3,3C17,47.552,16.552,47.999,16,47.999z"/>
	<path style="fill:#F9A671;" d="M46,39.999c-0.552,0-1-0.447-1-1c0-1.654-1.346-3-3-3c-0.552,0-1-0.447-1-1s0.448-1,1-1
		c2.757,0,5,2.243,5,5C47,39.552,46.553,39.999,46,39.999z"/>
	<g>
		<g>
			<path style="fill:#556080;" d="M27.39,20.706c0,3.217-1.092,10.195-14.564,8.739C7.228,28.84,7,23.924,7,20.706l0,0
				C13.317,17.096,21.073,17.096,27.39,20.706L27.39,20.706z"/>
			<path style="fill:#464F5D;" d="M16.237,30.64c-1.102,0-2.275-0.066-3.519-0.201C6,29.713,6,23.401,6,20.706v-0.58l0.504-0.288
				c6.594-3.768,14.787-3.768,21.382,0l0.504,0.288v0.58c0,3.04-0.961,5.444-2.856,7.146C23.467,29.707,20.348,30.64,16.237,30.64z
				 M8.004,21.294c0.051,3.313,0.631,6.692,4.929,7.157c5.298,0.576,9.085-0.13,11.265-2.088c1.337-1.2,2.068-2.905,2.177-5.074
				C20.658,18.251,13.722,18.25,8.004,21.294z"/>
		</g>
		<g>
			<path style="fill:#556080;" d="M30.61,20.706c0,3.217,1.092,10.195,14.564,8.739C50.772,28.84,51,23.924,51,20.706l0,0
				C44.683,17.096,36.927,17.096,30.61,20.706L30.61,20.706z"/>
			<path style="fill:#464F5D;" d="M41.763,30.64c-4.112,0-7.23-0.934-9.297-2.789c-1.895-1.701-2.856-4.105-2.856-7.146v-0.58
				l0.504-0.288c6.595-3.768,14.789-3.768,21.382,0L52,20.126v0.58c0,2.695,0,9.007-6.718,9.733
				C44.039,30.574,42.865,30.64,41.763,30.64z M31.625,21.289c0.109,2.169,0.84,3.874,2.177,5.074
				c2.181,1.958,5.97,2.661,11.265,2.088c4.297-0.465,4.877-3.845,4.929-7.157C44.278,18.25,37.342,18.251,31.625,21.289z"/>
		</g>
		<rect x="27.39" y="20.056" style="fill:#464F5D;" width="3.22" height="2"/>
		<path style="fill:#8697CB;" d="M11.292,25.276c-0.256,0-0.512-0.098-0.707-0.293c-0.391-0.391-0.391-1.023,0-1.414l3.22-3.22
			c0.391-0.391,1.023-0.391,1.414,0s0.391,1.023,0,1.414L12,24.983C11.804,25.178,11.548,25.276,11.292,25.276z"/>
		<path style="fill:#8697CB;" d="M15.585,27.423c-0.256,0-0.512-0.098-0.707-0.293c-0.391-0.391-0.391-1.023,0-1.414l5.366-5.366
			c0.391-0.391,1.023-0.391,1.414,0s0.391,1.023,0,1.414l-5.366,5.366C16.097,27.325,15.841,27.423,15.585,27.423z"/>
		<path style="fill:#8697CB;" d="M34.902,25.276c-0.256,0-0.512-0.098-0.707-0.293c-0.391-0.391-0.391-1.023,0-1.414l3.22-3.22
			c0.391-0.391,1.023-0.391,1.414,0s0.391,1.023,0,1.414l-3.22,3.22C35.414,25.178,35.158,25.276,34.902,25.276z"/>
		<path style="fill:#8697CB;" d="M39.195,27.423c-0.256,0-0.512-0.098-0.707-0.293c-0.391-0.391-0.391-1.023,0-1.414l5.366-5.366
			c0.391-0.391,1.023-0.391,1.414,0s0.391,1.023,0,1.414l-5.366,5.366C39.707,27.325,39.451,27.423,39.195,27.423z"/>
	</g>
</g>
<g>
</g>
<g>
</g>
<g>
</g>
<g>
</g>
<g>
</g>
<g>
</g>
<g>
</g>
<g>
</g>
<g>
</g>
<g>
</g>
<g>
</g>
<g>
</g>
<g>
</g>
<g>
</g>
<g>
</g>
</svg>
