<?xml version="1.0" encoding="iso-8859-1"?>
<!-- Generator: Adobe Illustrator 18.0.0, SVG Export Plug-In . SVG Version: 6.00 Build 0)  -->
<!DOCTYPE svg PUBLIC "-//W3C//DTD SVG 1.1//EN" "http://www.w3.org/Graphics/SVG/1.1/DTD/svg11.dtd">
<svg version="1.1" id="Capa_1" xmlns="http://www.w3.org/2000/svg" xmlns:xlink="http://www.w3.org/1999/xlink" x="0px" y="0px"
	 viewBox="0 0 42 42" style="enable-background:new 0 0 42 42;" xml:space="preserve">
<g>
	<circle style="fill:#FBD971;" cx="21" cy="21" r="21"/>
	<path style="fill:#F0C419;" d="M20.011,35.001c-1.474,0-2.967-0.28-4.396-0.876c-0.51-0.212-0.751-0.798-0.538-1.308
		s0.801-0.751,1.308-0.538c4.704,1.96,10.265-0.188,12.141-4.691c0.213-0.51,0.799-0.75,1.308-0.538
		c0.51,0.212,0.751,0.798,0.538,1.308C28.652,32.483,24.424,35.001,20.011,35.001z"/>
	<path style="fill:#F0C419;" d="M31.447,30c-0.209,0-0.419-0.065-0.599-0.2l-4-3c-0.442-0.331-0.532-0.958-0.2-1.399
		c0.332-0.442,0.958-0.53,1.399-0.2l4,3c0.442,0.331,0.532,0.958,0.2,1.399C32.052,29.862,31.752,30,31.447,30z"/>
	<path style="fill:#AF8066;" d="M13.097,13.069c-2.389,0-4.593-0.772-6.394-2.069C6.269,11.814,6,12.728,6,13.714
		c0,3.207,2.6,5.806,5.806,5.806s5.806-2.6,5.806-5.806c0-0.529-0.093-1.031-0.226-1.517C16.069,12.758,14.62,13.069,13.097,13.069z
		"/>
	<path style="fill:#AF8066;" d="M32.097,13.272c-2.389,0-4.593-0.772-6.394-2.069C25.269,12.016,25,12.931,25,13.917
		c0,3.207,2.6,5.806,5.806,5.806s5.806-2.6,5.806-5.806c0-0.529-0.093-1.031-0.226-1.517C35.069,12.96,33.62,13.272,32.097,13.272z"
		/>
</g>
<g>
</g>
<g>
</g>
<g>
</g>
<g>
</g>
<g>
</g>
<g>
</g>
<g>
</g>
<g>
</g>
<g>
</g>
<g>
</g>
<g>
</g>
<g>
</g>
<g>
</g>
<g>
</g>
<g>
</g>
</svg>
