<?xml version="1.0" encoding="iso-8859-1"?>
<!-- Generator: Adobe Illustrator 18.0.0, SVG Export Plug-In . SVG Version: 6.00 Build 0)  -->
<!DOCTYPE svg PUBLIC "-//W3C//DTD SVG 1.1//EN" "http://www.w3.org/Graphics/SVG/1.1/DTD/svg11.dtd">
<svg version="1.1" id="Capa_1" xmlns="http://www.w3.org/2000/svg" xmlns:xlink="http://www.w3.org/1999/xlink" x="0px" y="0px"
	 viewBox="0 0 48 48" style="enable-background:new 0 0 48 48;" xml:space="preserve">
<g>
	<path style="fill:#FBD971;" d="M40.909,28c-14.084,1.456-15.227-9.719-15.227-12.936c4.981-2.722,10.815-3.389,16.217-2.006
		C38.208,7.033,31.583,3,24,3S9.792,7.033,6.101,13.058c5.401-1.384,11.236-0.717,16.217,2.006c0,3.218-1.142,14.392-15.227,12.936
		c-1.841-0.19-3.125-1.224-4.022-2.65C3.767,36.316,12.858,45,24,45c11.142,0,20.233-8.684,20.932-19.65
		C44.035,26.776,42.75,27.81,40.909,28z"/>
	<path style="fill:#F0C419;" d="M21.372,40.003c-1.931,0-3.886-0.368-5.757-1.147c-0.51-0.212-0.751-0.798-0.538-1.308
		s0.801-0.751,1.308-0.538c3.052,1.272,6.609,1.313,9.753,0.116c3.218-1.224,5.682-3.561,6.939-6.578
		c0.213-0.51,0.799-0.75,1.308-0.538c0.51,0.212,0.751,0.798,0.538,1.308C32.675,36.712,27.145,40.003,21.372,40.003z"/>
	<g>
		<path style="fill:#556080;" d="M22.317,15.064c0,3.217-1.142,14.392-15.226,12.936C1.238,27.395,1,18.281,1,15.064l0,0
			C7.605,11.454,15.713,11.454,22.317,15.064L22.317,15.064z"/>
		<path style="fill:#464F5D;" d="M9.514,29.13c-0.81,0-1.651-0.045-2.525-0.135C3.8,28.665,0,25.98,0,15.064v-0.593l0.521-0.285
			c6.868-3.753,15.406-3.754,22.276,0l0.521,0.285v0.593c0,2.098-0.421,7.355-4.317,10.87C16.644,28.06,13.46,29.13,9.514,29.13z
			 M2.004,15.665c0.07,5.074,1.062,10.913,5.189,11.34c4.545,0.475,8.065-0.39,10.467-2.556c3.018-2.721,3.561-6.894,3.644-8.789
			C15.297,12.602,8.011,12.604,2.004,15.665z"/>
	</g>
	<g>
		<path style="fill:#556080;" d="M25.683,15.064c0,3.217,1.142,14.392,15.226,12.936C46.762,27.395,47,18.281,47,15.064l0,0
			C40.395,11.454,32.287,11.454,25.683,15.064L25.683,15.064z"/>
		<path style="fill:#464F5D;" d="M38.486,29.13c-3.947,0-7.13-1.07-9.486-3.195c-3.896-3.515-4.317-8.772-4.317-10.87v-0.593
			l0.521-0.285c6.87-3.754,15.408-3.753,22.276,0L48,14.472v0.593c0,10.916-3.8,13.601-6.988,13.931
			C40.139,29.085,39.296,29.13,38.486,29.13z M26.696,15.66c0.083,1.896,0.626,6.068,3.644,8.789
			c2.4,2.166,5.916,3.029,10.467,2.556c4.128-0.427,5.119-6.266,5.189-11.34C39.989,12.604,32.703,12.602,26.696,15.66z"/>
	</g>
	<rect x="22.317" y="14" style="fill:#464F5D;" width="3.365" height="2"/>
	<path style="fill:#8697CB;" d="M5.488,19.634c-0.264,0-0.526-0.104-0.723-0.309c-0.382-0.399-0.367-1.032,0.031-1.414l3.365-3.219
		c0.4-0.382,1.033-0.367,1.414,0.031c0.382,0.399,0.367,1.032-0.031,1.414L6.18,19.356C5.985,19.542,5.737,19.634,5.488,19.634z"/>
	<path style="fill:#8697CB;" d="M9.976,21.78c-0.264,0-0.526-0.104-0.723-0.309c-0.382-0.399-0.367-1.032,0.031-1.414l5.609-5.365
		c0.4-0.382,1.033-0.367,1.414,0.031c0.382,0.399,0.367,1.032-0.031,1.414l-5.609,5.365C10.473,21.688,10.225,21.78,9.976,21.78z"/>
	<path style="fill:#8697CB;" d="M30.171,19.634c-0.264,0-0.526-0.104-0.723-0.309c-0.382-0.399-0.367-1.032,0.031-1.414l3.365-3.219
		c0.4-0.382,1.033-0.367,1.414,0.031c0.382,0.399,0.367,1.032-0.031,1.414l-3.365,3.219C30.668,19.542,30.42,19.634,30.171,19.634z"
		/>
	<path style="fill:#8697CB;" d="M34.658,21.78c-0.264,0-0.526-0.104-0.723-0.309c-0.382-0.399-0.367-1.032,0.031-1.414l5.61-5.365
		c0.4-0.382,1.033-0.367,1.414,0.031c0.382,0.399,0.367,1.032-0.031,1.414l-5.61,5.365C35.155,21.688,34.907,21.78,34.658,21.78z"/>
</g>
<g>
</g>
<g>
</g>
<g>
</g>
<g>
</g>
<g>
</g>
<g>
</g>
<g>
</g>
<g>
</g>
<g>
</g>
<g>
</g>
<g>
</g>
<g>
</g>
<g>
</g>
<g>
</g>
<g>
</g>
</svg>
