<?xml version="1.0" encoding="iso-8859-1"?>
<!-- Generator: Adobe Illustrator 18.0.0, SVG Export Plug-In . SVG Version: 6.00 Build 0)  -->
<!DOCTYPE svg PUBLIC "-//W3C//DTD SVG 1.1//EN" "http://www.w3.org/Graphics/SVG/1.1/DTD/svg11.dtd">
<svg version="1.1" id="Capa_1" xmlns="http://www.w3.org/2000/svg" xmlns:xlink="http://www.w3.org/1999/xlink" x="0px" y="0px"
	 viewBox="0 0 57.98 57.98" style="enable-background:new 0 0 57.98 57.98;" xml:space="preserve">
<g>
	<g>
		<path style="fill:#FFDB2B;" d="M48.99,22.069V17.98c-8.083,4.75-11-2-11-2c-10.833-1.667-15,4-15,4c-7.75-0.75-11-3-11-3
			c-1.676,1.948-3.594,2.956-5,3.474v2.27c7.11-2.684,15.229-2.233,22,1.353C35.135,20.822,42.386,20.16,48.99,22.069z"/>
		<path style="fill:#FFDB2B;" d="M46.847,38.777c-16.518,1.655-17.857-11.044-17.857-14.7c0,3.656-1.339,16.355-17.857,14.7
			c-1.798-0.18-3.135-1.033-4.143-2.246V49.98c0,2.2,1.8,4,4,4h34c2.2,0,4-1.8,4-4V38.153
			C48.357,38.473,47.651,38.696,46.847,38.777z"/>
	</g>
	<path style="fill:#E57E25;" d="M33.99,49c-2.338,0-14-0.241-14-5c0-0.553,0.447-1,1-1s1,0.447,1,1c0,1.419,4.928,3,12,3
		c0.553,0,1,0.447,1,1S34.543,49,33.99,49z"/>
	<path style="fill:#FEC722;" d="M39.685,57.98H16.295c-0.721,0-1.305-0.584-1.305-1.305V53.98h26v2.695
		C40.99,57.395,40.406,57.98,39.685,57.98z"/>
	<path style="fill:#AC744F;" d="M28.99,0c-4.493,0-8.725,0.981-12.451,2.707L15.99,6c0,0-0.822-1.121-1.608-2.178
		c-1.631,0.935-3.146,2.017-4.511,3.233L11.99,12l-5.018-1.882C3.838,14.038,1.99,18.825,1.99,24c0,0.183,0.02,0.361,0.024,0.542
		c0.442-0.153,3.953-1.357,4.976-1.743v-2.345c1.406-0.518,3.324-1.526,5-3.474c0,0,3.25,2.25,11,3c0,0,4.167-5.667,15-4
		c0,0,2.917,6.75,11,2v4.164c1.72,0.497,6.988,3.418,6.988,2.157C55.98,24.2,55.99,24.102,55.99,24C55.99,10.745,43.902,0,28.99,0z"
		/>
	<g>
		<path style="fill:#556080;" d="M3.99,24.077c0,3.656,0.279,14.012,7.143,14.7c16.518,1.655,17.857-11.044,17.857-14.7
			C21.244,19.974,11.736,19.974,3.99,24.077z"/>
		<path style="fill:#556080;" d="M28.99,24.077c0,3.656,1.339,16.355,17.857,14.7c6.864-0.688,7.143-11.044,7.143-14.7
			C46.244,19.974,36.736,19.974,28.99,24.077z"/>
	</g>
	<g>
		<path style="fill:#8697CB;" d="M45.197,29.457c0.391-0.391,0.391-1.023,0-1.414s-1.023-0.391-1.414,0l-2.121,2.121
			c-0.391,0.391-0.391,1.023,0,1.414c0.195,0.195,0.451,0.293,0.707,0.293s0.512-0.098,0.707-0.293L45.197,29.457z"/>
		<path style="fill:#8697CB;" d="M39.541,32.285l-1.258,1.258c-0.391,0.391-0.391,1.023,0,1.414
			c0.195,0.195,0.451,0.293,0.707,0.293s0.512-0.098,0.707-0.293l1.258-1.258c0.391-0.391,0.391-1.023,0-1.414
			S39.931,31.895,39.541,32.285z"/>
		<path style="fill:#8697CB;" d="M45.041,32.285l-2.122,2.122c-0.391,0.391-0.391,1.023,0,1.414
			c0.195,0.195,0.451,0.293,0.707,0.293s0.512-0.098,0.707-0.293l2.122-2.122c0.391-0.391,0.391-1.023,0-1.414
			S45.431,31.895,45.041,32.285z"/>
		<path style="fill:#8697CB;" d="M50.697,28.043c-0.391-0.391-1.023-0.391-1.414,0l-2.121,2.121c-0.391,0.391-0.391,1.023,0,1.414
			c0.195,0.195,0.451,0.293,0.707,0.293s0.512-0.098,0.707-0.293l2.121-2.121C51.088,29.066,51.088,28.434,50.697,28.043z"/>
		<path style="fill:#8697CB;" d="M8.541,28.285l-1.258,1.258c-0.391,0.391-0.391,1.023,0,1.414c0.195,0.195,0.451,0.293,0.707,0.293
			s0.512-0.098,0.707-0.293l1.258-1.258c0.391-0.391,0.391-1.023,0-1.414S8.931,27.895,8.541,28.285z"/>
		<path style="fill:#8697CB;" d="M14.197,25.457c0.391-0.391,0.391-1.023,0-1.414s-1.023-0.391-1.414,0l-2.121,2.121
			c-0.391,0.391-0.391,1.023,0,1.414c0.195,0.195,0.451,0.293,0.707,0.293s0.512-0.098,0.707-0.293L14.197,25.457z"/>
		<path style="fill:#8697CB;" d="M14.041,28.285l-2.122,2.122c-0.391,0.391-0.391,1.023,0,1.414
			c0.195,0.195,0.451,0.293,0.707,0.293s0.512-0.098,0.707-0.293l2.122-2.122c0.391-0.391,0.391-1.023,0-1.414
			S14.431,27.895,14.041,28.285z"/>
		<path style="fill:#8697CB;" d="M18.283,24.043l-2.121,2.121c-0.391,0.391-0.391,1.023,0,1.414
			c0.195,0.195,0.451,0.293,0.707,0.293s0.512-0.098,0.707-0.293l2.121-2.121c0.391-0.391,0.391-1.023,0-1.414
			S18.674,23.652,18.283,24.043z"/>
	</g>
</g>
<g>
</g>
<g>
</g>
<g>
</g>
<g>
</g>
<g>
</g>
<g>
</g>
<g>
</g>
<g>
</g>
<g>
</g>
<g>
</g>
<g>
</g>
<g>
</g>
<g>
</g>
<g>
</g>
<g>
</g>
</svg>
