<?xml version="1.0" encoding="iso-8859-1"?>
<!-- Generator: Adobe Illustrator 18.0.0, SVG Export Plug-In . SVG Version: 6.00 Build 0)  -->
<!DOCTYPE svg PUBLIC "-//W3C//DTD SVG 1.1//EN" "http://www.w3.org/Graphics/SVG/1.1/DTD/svg11.dtd">
<svg version="1.1" id="Capa_1" xmlns="http://www.w3.org/2000/svg" xmlns:xlink="http://www.w3.org/1999/xlink" x="0px" y="0px"
	 viewBox="0 0 57 57" style="enable-background:new 0 0 57 57;" xml:space="preserve">
<g>
	<path style="fill:#FFDB2B;" d="M43.681,34.807C30.52,36.23,29.452,29.413,29.452,26.27l0,0c3.114-1.779,6.585-2.658,10.053-2.642
		C36.341,20.398,34.324,16,34.324,16c-2.71,4.028-7.57,6.553-12.951,8l-0.146,0.021c1.945,0.459,3.855,1.208,5.676,2.249
		c0,3.143-1.067,9.96-14.229,8.537C7.205,34.216,7.373,29.143,7.373,26L7.324,49c0,2.03,1.827,4,4.015,4H45.14
		c2.187,0,4.184-1.97,4.184-4l0.048-22.593l0,0C49.365,29.552,49.073,34.224,43.681,34.807z"/>
	<path style="fill:#2F2B46;" d="M56.488,43.062c-2.114-4.74-2.817-13.336-3.05-18.867c-0.18-4.282-1.426-8.479-3.815-12.038
		C45.766,6.41,41.533,3.728,37.74,2.067c-6.299-2.757-13.545-2.757-19.843,0c-3.587,1.57-7.812,3.897-11.104,9.041
		c-2.28,3.563-3.401,7.737-3.484,11.967c-0.107,5.471-0.62,15.09-2.807,20.154c-0.464,1.075,0.009,2.311,1.079,2.785
		C2.664,46.493,5.824,46.781,7.324,47h0.004l0.045-21c0,3.143-0.168,8.216,5.301,8.807c13.162,1.423,14.229-5.394,14.229-8.537
		c-1.821-1.041-3.731-1.79-5.676-2.249L21.373,24c5.381-1.447,10.241-3.972,12.951-8c0,0,2.017,4.398,5.182,7.628
		c-3.468-0.016-6.939,0.863-10.053,2.642c0,3.143,1.067,9.96,14.229,8.537c5.392-0.583,5.683-5.256,5.691-8.4l-0.044,20.592
		c2.031-0.406,4.735-0.591,5.996-1.081C56.464,45.476,56.986,44.18,56.488,43.062z"/>
	<path style="fill:#FFFFFF;" d="M19.373,40c0,4.97,4.029,9,9,9s9-4.03,9-9H19.373z"/>
	<path style="fill:#D1D4D1;" d="M35.737,45H21.009c-0.552,0-1-0.447-1-1s0.448-1,1-1h14.728c0.552,0,1,0.447,1,1
		S36.289,45,35.737,45z"/>
	<path style="fill:#D1D4D1;" d="M25.373,49c-0.552,0-1-0.447-1-1v-8c0-0.553,0.448-1,1-1s1,0.447,1,1v8
		C26.373,48.553,25.925,49,25.373,49z"/>
	<path style="fill:#D1D4D1;" d="M31.373,49c-0.552,0-1-0.447-1-1v-8c0-0.553,0.448-1,1-1s1,0.447,1,1v8
		C32.373,48.553,31.925,49,31.373,49z"/>
	<path style="fill:#FEC722;" d="M39.542,57H16.152c-0.721,0-1.305-0.584-1.305-1.305V53h26v2.695C40.847,56.416,40.263,57,39.542,57
		z"/>
	<path style="fill:#556080;" d="M31.16,25.411H25.22C19.45,22.735,12.992,22.789,7.373,26c0,3.143-0.168,8.216,5.301,8.807
		c11.732,1.268,13.852-4.008,14.175-7.396h2.657c0.323,3.388,2.444,8.664,14.175,7.396c5.469-0.591,5.692-5.394,5.692-8.537l0,0
		C43.758,23.062,36.984,22.782,31.16,25.411z"/>
	<g>
		<path style="fill:#8697CB;" d="M15.029,25.704c-0.391-0.391-1.023-0.391-1.414,0l-3.145,3.146c-0.391,0.391-0.391,1.023,0,1.414
			c0.195,0.195,0.451,0.293,0.707,0.293s0.512-0.098,0.707-0.293l3.145-3.146C15.419,26.728,15.419,26.095,15.029,25.704z"/>
		<path style="fill:#8697CB;" d="M19.905,25.704l-5.242,5.242c-0.391,0.391-0.391,1.023,0,1.414
			c0.195,0.195,0.451,0.293,0.707,0.293s0.512-0.098,0.707-0.293l5.242-5.242c0.391-0.391,0.391-1.023,0-1.414
			S20.296,25.314,19.905,25.704z"/>
		<path style="fill:#8697CB;" d="M38.094,25.704c-0.391-0.391-1.023-0.391-1.414,0l-3.146,3.146c-0.391,0.391-0.391,1.023,0,1.414
			c0.195,0.195,0.451,0.293,0.707,0.293s0.512-0.098,0.707-0.293l3.146-3.146C38.485,26.728,38.485,26.095,38.094,25.704z"/>
		<path style="fill:#8697CB;" d="M44.385,25.704c-0.391-0.391-1.023-0.391-1.414,0l-5.242,5.242c-0.391,0.391-0.391,1.023,0,1.414
			c0.195,0.195,0.451,0.293,0.707,0.293s0.512-0.098,0.707-0.293l5.242-5.242C44.776,26.728,44.776,26.095,44.385,25.704z"/>
	</g>
	<path style="fill:#F0785A;" d="M28.373,50c-5.514,0-10-4.486-10-10c0-0.553,0.448-1,1-1h18c0.552,0,1,0.447,1,1
		C38.373,45.514,33.887,50,28.373,50z M20.435,41c0.494,3.94,3.866,7,7.938,7s7.444-3.06,7.938-7H20.435z"/>
</g>
<g>
</g>
<g>
</g>
<g>
</g>
<g>
</g>
<g>
</g>
<g>
</g>
<g>
</g>
<g>
</g>
<g>
</g>
<g>
</g>
<g>
</g>
<g>
</g>
<g>
</g>
<g>
</g>
<g>
</g>
</svg>
