<?xml version="1.0" encoding="iso-8859-1"?>
<!-- Generator: Adobe Illustrator 18.0.0, SVG Export Plug-In . SVG Version: 6.00 Build 0)  -->
<!DOCTYPE svg PUBLIC "-//W3C//DTD SVG 1.1//EN" "http://www.w3.org/Graphics/SVG/1.1/DTD/svg11.dtd">
<svg version="1.1" id="Capa_1" xmlns="http://www.w3.org/2000/svg" xmlns:xlink="http://www.w3.org/1999/xlink" x="0px" y="0px"
	 viewBox="0 0 51.5 51.5" style="enable-background:new 0 0 51.5 51.5;" xml:space="preserve">
<g>
	<g>
		<path style="fill:#FFDB2B;" d="M4.5,11.25H46v-2c0.062-1.656-2.261-3-4-3H8c-2.2,0-4,1.8-4,4v1.051
			C4.166,11.282,4.329,11.25,4.5,11.25z"/>
		<path style="fill:#FFDB2B;" d="M4.5,20.25c-0.171,0-0.334-0.032-0.5-0.051V43.25c0,2.2,1.8,4,4,4h34c2.2,0,4-1.8,4-4v-23H4.5z"/>
	</g>
	<g>
		<circle style="fill:#E57E25;" cx="25" cy="39.25" r="4"/>
		<path style="fill:#F0C419;" d="M25,44.25c-2.757,0-5-2.243-5-5s2.243-5,5-5s5,2.243,5,5S27.757,44.25,25,44.25z M25,36.25
			c-1.654,0-3,1.346-3,3s1.346,3,3,3s3-1.346,3-3S26.654,36.25,25,36.25z"/>
	</g>
	<path style="fill:#FFFFFF;" d="M28.565,24.956C28.206,25.726,28,26.581,28,27.486c0,3.314,2.686,6,6,6s6-2.686,6-6
		c0-1.653-0.669-3.15-1.751-4.236L28.565,24.956z"/>
	<path style="fill:#FFFFFF;" d="M22.435,24.956c0.359,0.77,0.565,1.625,0.565,2.53c0,3.314-2.686,6-6,6s-6-2.686-6-6
		c0-1.653,0.669-3.15,1.751-4.236L22.435,24.956z"/>
	<path style="fill:#E64C3C;" d="M47,20.25H4.5c-2.475,0-4.5-2.025-4.5-4.5v0c0-2.475,2.025-4.5,4.5-4.5H47
		c2.475,0,4.5,2.025,4.5,4.5v0C51.5,18.225,49.475,20.25,47,20.25z"/>
	<path style="fill:#0096E6;" d="M9.083,38.398L9.083,38.398C7.956,38.417,7.019,37.51,7,36.382v0
		c-0.019-1.127,1.967-4.148,1.982-4.132h0c0,0,2.098,2.938,2.117,4.065v0C11.117,37.442,10.21,38.38,9.083,38.398z"/>
	<path style="fill:#0096E6;" d="M13.984,44.398L13.984,44.398c-1.127,0.019-2.065-0.889-2.083-2.016v0
		c-0.019-1.127,1.967-4.148,1.982-4.132h0c0,0,2.098,2.938,2.117,4.065v0C16.018,43.442,15.111,44.38,13.984,44.398z"/>
	<path style="fill:#0096E6;" d="M40.917,39.25L40.917,39.25c1.127,0.019,2.065-0.889,2.083-2.016v0
		c0.019-1.127-1.967-4.148-1.982-4.132h0c0,0-2.098,2.938-2.117,4.065v0C38.883,38.294,39.79,39.231,40.917,39.25z"/>
	<path style="fill:#0096E6;" d="M36.016,44.25L36.016,44.25c1.127,0.019,2.065-0.889,2.083-2.016v0
		c0.019-1.127-1.967-4.148-1.982-4.132h0c0,0-2.098,2.938-2.117,4.065v0C33.982,43.294,34.889,44.231,36.016,44.25z"/>
	<circle style="fill:#556080;" cx="34" cy="29.25" r="2"/>
	<path style="fill:#FEC722;" d="M36.695,51.25H13.305c-0.721,0-1.305-0.584-1.305-1.305V47.25h26v2.695
		C38,50.666,37.416,51.25,36.695,51.25z"/>
	<path style="fill:#FEC722;" d="M19.305,0.25h11.389C31.416,0.25,32,0.834,32,1.555V6.25H18V1.555C18,0.834,18.584,0.25,19.305,0.25
		z"/>
	<circle style="fill:#556080;" cx="17" cy="29.25" r="2"/>
</g>
<g>
</g>
<g>
</g>
<g>
</g>
<g>
</g>
<g>
</g>
<g>
</g>
<g>
</g>
<g>
</g>
<g>
</g>
<g>
</g>
<g>
</g>
<g>
</g>
<g>
</g>
<g>
</g>
<g>
</g>
</svg>
