<?xml version="1.0" encoding="iso-8859-1"?>
<!-- Generator: Adobe Illustrator 18.0.0, SVG Export Plug-In . SVG Version: 6.00 Build 0)  -->
<!DOCTYPE svg PUBLIC "-//W3C//DTD SVG 1.1//EN" "http://www.w3.org/Graphics/SVG/1.1/DTD/svg11.dtd">
<svg version="1.1" id="Capa_1" xmlns="http://www.w3.org/2000/svg" xmlns:xlink="http://www.w3.org/1999/xlink" x="0px" y="0px"
	 viewBox="0 0 43.347 43.347" style="enable-background:new 0 0 43.347 43.347;" xml:space="preserve">
<g>
	<path style="fill:#BC3432;" d="M6.222,8.25c-3.508,3.753-5.549,8.555-5.549,14.098c0,11.598,9.402,21,21,21s21-9.402,21-21
		c0-5.103-1.823-9.778-4.849-13.417c-0.361,1.479-3.9-1.168-3.668-3.442c-3.492-2.59-7.801-4.141-12.483-4.141
		c-3.221,0-6.272,0.725-9,2.021c-0.892,0.424-1.75,0.909-2.567,1.45L6.222,8.25z"/>
	<path style="fill:#FBD971;" d="M21.276,39.227c5.398,0,8.717-1.267,10.756-2.793c2.888-2.16,2.943-6.368,0.17-8.675
		c-3.5-2.912-7.769-4.068-9.324-4.412c-0.364-0.081-0.73-0.12-1.103-0.12l0,0c-0.373,0-0.738,0.04-1.103,0.12
		c-1.587,0.351-6.006,1.549-9.545,4.599c-2.54,2.189-2.481,6.196,0.136,8.291c2.014,1.612,5.382,2.99,11.011,2.99"/>
	<path style="fill:#E64C3C;" d="M9.674,13.347C3.16,8.308,7.205,2.241,8.972,0.122c0.209-0.251,0.614-0.089,0.587,0.237
		C9.362,2.736,9.34,8.535,13.674,9.347L9.674,13.347z"/>
	<path style="fill:#E64C3C;" d="M34.674,13.347c6.53-5.052,1.789-11.137-0.219-13.241c-0.227-0.238-0.625-0.038-0.568,0.285
		c0.458,2.586,1.164,9.135-3.213,9.955L34.674,13.347z"/>
	<ellipse style="fill:#E64C3C;" cx="11.816" cy="18.968" rx="5.875" ry="2.625"/>
	<ellipse style="fill:#E64C3C;" cx="31.816" cy="18.968" rx="5.875" ry="2.625"/>
	<path style="fill:#F0C419;" d="M26.674,33.347h-10c-0.553,0-1-0.447-1-1c0-0.553,0.447-1,1-1h10c0.553,0,1,0.447,1,1
		C27.674,32.9,27.226,33.347,26.674,33.347z"/>
</g>
<g>
</g>
<g>
</g>
<g>
</g>
<g>
</g>
<g>
</g>
<g>
</g>
<g>
</g>
<g>
</g>
<g>
</g>
<g>
</g>
<g>
</g>
<g>
</g>
<g>
</g>
<g>
</g>
<g>
</g>
</svg>
