<?xml version="1.0" encoding="iso-8859-1"?>
<!-- Generator: Adobe Illustrator 18.0.0, SVG Export Plug-In . SVG Version: 6.00 Build 0)  -->
<!DOCTYPE svg PUBLIC "-//W3C//DTD SVG 1.1//EN" "http://www.w3.org/Graphics/SVG/1.1/DTD/svg11.dtd">
<svg version="1.1" id="Capa_1" xmlns="http://www.w3.org/2000/svg" xmlns:xlink="http://www.w3.org/1999/xlink" x="0px" y="0px"
	 viewBox="0 0 42 42" style="enable-background:new 0 0 42 42;" xml:space="preserve">
<g>
	<circle style="fill:#556080;" cx="21" cy="21" r="21"/>
	<path style="fill:#464F5D;" d="M37.643,23.889C39.472,23.444,42.042,21.667,41,15c0,0-0.406-6.25-13-6c0,0-1.464-0.062-3.068,0.519
		c-2.529,0.915-5.335,0.915-7.864,0C15.464,8.938,14,9,14,9C1.562,8.125,1,15,1,15c-1.076,6.886,2.175,8.556,4.304,8.928
		C5.396,23.945,5.483,23.972,5.57,24h31.735C37.414,23.955,37.527,23.917,37.643,23.889z"/>
	<path style="fill:#FBD971;" d="M7,26.5C7,33.404,13.492,39,21.5,39S36,33.404,36,26.5V26H7V26.5z"/>
	<path style="fill:#F0C419;" d="M37.305,24H5.57C6.412,24.267,7,25.047,7,25.952V26h29v-0.095C36,25.049,36.534,24.322,37.305,24z"
		/>
	<path style="fill:#E64C3C;" d="M34,19H8c-1.1,0-2-0.9-2-2v0c0-1.1,0.9-2,2-2h26c1.1,0,2,0.9,2,2v0C36,18.1,35.1,19,34,19z"/>
	<path style="fill:#F29C1F;" d="M26,33H16c-0.553,0-1-0.447-1-1s0.447-1,1-1h10c0.553,0,1,0.447,1,1S26.553,33,26,33z"/>
</g>
<g>
</g>
<g>
</g>
<g>
</g>
<g>
</g>
<g>
</g>
<g>
</g>
<g>
</g>
<g>
</g>
<g>
</g>
<g>
</g>
<g>
</g>
<g>
</g>
<g>
</g>
<g>
</g>
<g>
</g>
</svg>
