<?xml version="1.0" encoding="iso-8859-1"?>
<!-- Generator: Adobe Illustrator 18.0.0, SVG Export Plug-In . SVG Version: 6.00 Build 0)  -->
<!DOCTYPE svg PUBLIC "-//W3C//DTD SVG 1.1//EN" "http://www.w3.org/Graphics/SVG/1.1/DTD/svg11.dtd">
<svg version="1.1" id="Capa_1" xmlns="http://www.w3.org/2000/svg" xmlns:xlink="http://www.w3.org/1999/xlink" x="0px" y="0px"
	 viewBox="0 0 48 48" style="enable-background:new 0 0 48 48;" xml:space="preserve">
<g>
	<circle style="fill:#FBD971;" cx="24" cy="27" r="21"/>
	<path style="fill:#556080;" d="M40,13.417V1c-1.143,4.342-3.538,6.96-4.932,8.177C31.852,7.176,28.067,6,24,6
		c-3.532,0-6.856,0.882-9.777,2.422C12.9,7.337,10.228,4.667,9,0v12.317C5.292,16.104,3,21.282,3,27l18.59,7.082
		c1.552,0.591,3.267,0.591,4.819,0L45,27C45,21.816,43.113,17.08,40,13.417z"/>
	<polygon style="fill:#FFFFFF;" points="20,22 18.786,24.01 17,27 8,19 	"/>
	<polygon style="fill:#FFFFFF;" points="28,22 29.192,24.01 31,27 40,19 	"/>
	<path style="fill:#F0C419;" d="M29,42H19c-0.552,0-1-0.447-1-1s0.448-1,1-1h10c0.552,0,1,0.447,1,1S29.552,42,29,42z"/>
</g>
<g>
</g>
<g>
</g>
<g>
</g>
<g>
</g>
<g>
</g>
<g>
</g>
<g>
</g>
<g>
</g>
<g>
</g>
<g>
</g>
<g>
</g>
<g>
</g>
<g>
</g>
<g>
</g>
<g>
</g>
</svg>
