<?xml version="1.0" encoding="iso-8859-1"?>
<!-- Generator: Adobe Illustrator 18.0.0, SVG Export Plug-In . SVG Version: 6.00 Build 0)  -->
<!DOCTYPE svg PUBLIC "-//W3C//DTD SVG 1.1//EN" "http://www.w3.org/Graphics/SVG/1.1/DTD/svg11.dtd">
<svg version="1.1" id="Capa_1" xmlns="http://www.w3.org/2000/svg" xmlns:xlink="http://www.w3.org/1999/xlink" x="0px" y="0px"
	 viewBox="0 0 57 57" style="enable-background:new 0 0 57 57;" xml:space="preserve">
<g>
	<path style="fill:#6E5847;" d="M28.5,0C14.475,0,3,11.475,3,25.5V50c0,2.2,1.8,4,4,4h6.777c4.16,2.021,9.237,3,14.723,3
		s10.563-0.979,14.723-3H50c2.2,0,4-1.8,4-4V25.5C54,11.475,42.525,0,28.5,0z"/>
	<path style="fill:#FDC794;" d="M3.869,29.894C3.305,32.001,3,34.215,3,36.5C3,50.583,14.417,57,28.5,57S54,50.583,54,36.5
		C54,22.842,42.495,11.661,29,11h-1C14.505,11.661,3,22.842,3,36.5C3,50.583,14.417,57,28.5,57S54,50.583,54,36.5"/>
	<path style="fill:#F9A671;" d="M19.741,51.604c-0.156,0-0.313-0.036-0.461-0.113c-0.49-0.255-0.68-0.859-0.424-1.349
		c4.674-8.968,15.771-12.463,24.74-7.787c0.49,0.255,0.68,0.859,0.424,1.349c-0.255,0.491-0.858,0.682-1.349,0.425
		c-7.988-4.164-17.877-1.051-22.042,6.938C20.45,51.408,20.102,51.604,19.741,51.604z"/>
	<path style="fill:#F9A671;" d="M40.532,45.739c-0.552,0-1-0.447-1-1s0.448-1,1-1c1.361,0,2.468-1.107,2.468-2.468
		c0-0.553,0.448-1,1-1s1,0.447,1,1C45,43.735,42.996,45.739,40.532,45.739z"/>
	<path style="fill:#F9A671;" d="M21.458,52.676c-2.463,0-4.468-2.004-4.468-4.468c0-0.553,0.448-1,1-1s1,0.447,1,1
		c0,1.36,1.107,2.468,2.468,2.468c0.552,0,1,0.447,1,1S22.01,52.676,21.458,52.676z"/>
	<circle style="fill:#F9A671;" cx="19.694" cy="30.67" r="6.692"/>
	<circle style="fill:#F9A671;" cx="36.49" cy="27.913" r="8.236"/>
	<path style="fill:#FFFFFF;" d="M28.295,28.74c0.045,0.441,0.133,0.867,0.243,1.283l16.166-1.632
		c0.025-0.429,0.026-0.864-0.019-1.305c-0.075-0.748-0.257-1.457-0.514-2.127l-15.797,1.595
		C28.255,27.261,28.219,27.992,28.295,28.74z"/>
	<path style="fill:#FFFFFF;" d="M13.402,32.949c0.234,0.647,0.559,1.236,0.953,1.758l12.025-4.354
		c-0.031-0.654-0.159-1.314-0.393-1.961c-0.175-0.482-0.403-0.928-0.669-1.342l-12.261,4.439
		C13.117,31.977,13.227,32.466,13.402,32.949z"/>
	<circle style="fill:#7F5B53;" cx="19.098" cy="30.975" r="1.734"/>
	<circle style="fill:#7F5B53;" cx="37.039" cy="27.422" r="1.734"/>
</g>
<g>
</g>
<g>
</g>
<g>
</g>
<g>
</g>
<g>
</g>
<g>
</g>
<g>
</g>
<g>
</g>
<g>
</g>
<g>
</g>
<g>
</g>
<g>
</g>
<g>
</g>
<g>
</g>
<g>
</g>
</svg>
