<?xml version="1.0" encoding="iso-8859-1"?>
<!-- Generator: Adobe Illustrator 18.0.0, SVG Export Plug-In . SVG Version: 6.00 Build 0)  -->
<!DOCTYPE svg PUBLIC "-//W3C//DTD SVG 1.1//EN" "http://www.w3.org/Graphics/SVG/1.1/DTD/svg11.dtd">
<svg version="1.1" id="Capa_1" xmlns="http://www.w3.org/2000/svg" xmlns:xlink="http://www.w3.org/1999/xlink" x="0px" y="0px"
	 viewBox="0 0 58 58" style="enable-background:new 0 0 58 58;" xml:space="preserve">
<g>
	<path style="fill:#FDC794;" d="M29.392,54.999c11.246,0.156,17.52-4.381,21.008-9.189c3.603-4.966,4.764-11.283,3.647-17.323
		C50.004,6.641,29.392,6.826,29.392,6.826S8.781,6.641,4.738,28.487c-1.118,6.04,0.044,12.356,3.647,17.323
		C11.872,50.617,18.146,55.155,29.392,54.999z"/>
	<path style="fill:#F9A671;" d="M4.499,30.124c-0.453-0.429-0.985-0.687-1.559-0.687C1.316,29.437,0,31.418,0,33.861
		c0,2.443,1.316,4.424,2.939,4.424c0.687,0,1.311-0.37,1.811-0.964C4.297,34.969,4.218,32.537,4.499,30.124z"/>
	<path style="fill:#F9A671;" d="M57.823,26.297c-0.563-2.377-2.3-3.999-3.879-3.622c-0.491,0.117-0.898,0.43-1.225,0.855
		c0.538,1.515,0.994,3.154,1.328,4.957c0.155,0.837,0.261,1.679,0.328,2.522c0.52,0.284,1.072,0.402,1.608,0.274
		C57.562,30.907,58.386,28.674,57.823,26.297z"/>
	<path style="fill:#5E5F62;" d="M13.9,16.998c-0.256,0-0.512-0.098-0.707-0.293l-5-5c-0.391-0.391-0.391-1.023,0-1.414
		s1.023-0.391,1.414,0l5,5c0.391,0.391,0.391,1.023,0,1.414C14.412,16.901,14.156,16.998,13.9,16.998z"/>
	<path style="fill:#5E5F62;" d="M16.901,13.998c-0.367,0-0.72-0.202-0.896-0.553l-3-6c-0.247-0.494-0.047-1.095,0.447-1.342
		c0.495-0.246,1.094-0.047,1.342,0.447l3,6c0.247,0.494,0.047,1.095-0.447,1.342C17.204,13.964,17.052,13.998,16.901,13.998z"/>
	<path style="fill:#5E5F62;" d="M20.9,11.998c-0.419,0-0.809-0.265-0.948-0.684l-2-6c-0.175-0.524,0.108-1.091,0.632-1.265
		c0.527-0.177,1.091,0.108,1.265,0.632l2,6c0.175,0.524-0.108,1.091-0.632,1.265C21.111,11.982,21.005,11.998,20.9,11.998z"/>
	<path style="fill:#5E5F62;" d="M25.899,10.998c-0.48,0-0.904-0.347-0.985-0.836l-1-6c-0.091-0.544,0.277-1.06,0.822-1.15
		c0.543-0.094,1.061,0.277,1.15,0.822l1,6c0.091,0.544-0.277,1.06-0.822,1.15C26.009,10.994,25.954,10.998,25.899,10.998z"/>
	<path style="fill:#5E5F62;" d="M29.9,10.998c-0.553,0-1-0.447-1-1v-6c0-0.553,0.447-1,1-1s1,0.447,1,1v6
		C30.9,10.551,30.453,10.998,29.9,10.998z"/>
	<path style="fill:#5E5F62;" d="M33.9,10.998c-0.104,0-0.211-0.017-0.316-0.052c-0.523-0.174-0.807-0.74-0.632-1.265l2-6
		c0.175-0.523,0.736-0.807,1.265-0.632c0.523,0.174,0.807,0.74,0.632,1.265l-2,6C34.709,10.734,34.319,10.998,33.9,10.998z"/>
	<path style="fill:#5E5F62;" d="M37.9,11.998c-0.104,0-0.211-0.017-0.316-0.052c-0.523-0.174-0.807-0.74-0.632-1.265l2-6
		c0.175-0.523,0.737-0.809,1.265-0.632c0.523,0.174,0.807,0.74,0.632,1.265l-2,6C38.709,11.734,38.319,11.998,37.9,11.998z"/>
	<path style="fill:#5E5F62;" d="M40.899,13.998c-0.15,0-0.303-0.034-0.446-0.105c-0.494-0.247-0.694-0.848-0.447-1.342l3-6
		c0.248-0.494,0.848-0.693,1.342-0.447c0.494,0.247,0.694,0.848,0.447,1.342l-3,6C41.619,13.796,41.267,13.998,40.899,13.998z"/>
	<g>
		<path style="fill:#FFFFFF;" d="M15.09,23.998c-0.055,0.326-0.09,0.659-0.09,1c0,3.314,2.686,6,6,6s6-2.686,6-6
			c0-0.341-0.035-0.674-0.09-1H15.09z"/>
		<path style="fill:#FFFFFF;" d="M27.069,23.998c-0.041,0.328-0.069,0.661-0.069,1c0,4.418,3.582,8,8,8s8-3.582,8-8
			c0-0.339-0.028-0.672-0.069-1H27.069z"/>
		<path style="fill:#F9A671;" d="M21,18.998c-2.972,0-5.433,2.164-5.91,5h11.82C26.433,21.161,23.972,18.998,21,18.998z"/>
		<path style="fill:#F9A671;" d="M35,16.998c-4.079,0-7.438,3.055-7.931,7h15.862C42.438,20.053,39.079,16.998,35,16.998z"/>
		<circle style="fill:#7F5B53;" cx="22" cy="26.998" r="1"/>
		<circle style="fill:#7F5B53;" cx="32.5" cy="27.498" r="1.5"/>
	</g>
	<g>
		<g>
			<path style="fill:#FB7B76;" d="M31,38.998v7.801c0,2.2,1.8,4,4,4h1c2.2,0,4-1.8,4-4l0-7.801
				C38.292,39.019,32.812,38.998,31,38.998z"/>
		</g>
		<path style="fill:#F9A671;" d="M41,38.998H19c-0.553,0-1-0.447-1-1s0.447-1,1-1h22c0.553,0,1,0.447,1,1S41.553,38.998,41,38.998z"
			/>
		<path style="fill:#E64C3C;" d="M34.181,38.998c-0.02,0.143-0.017,0.29,0.029,0.437c0.393,1.252,0.364,2.744,0.337,4.188
			c-0.006,0.332-0.013,0.661-0.014,0.983c-0.002,0.553,0.444,1.002,0.996,1.004c0.001,0,0.003,0,0.004,0
			c0.551,0,0.998-0.445,1-0.996c0.001-0.313,0.007-0.631,0.014-0.954c0.027-1.476,0.049-3.141-0.391-4.661H34.181z"/>
	</g>
</g>
<g>
</g>
<g>
</g>
<g>
</g>
<g>
</g>
<g>
</g>
<g>
</g>
<g>
</g>
<g>
</g>
<g>
</g>
<g>
</g>
<g>
</g>
<g>
</g>
<g>
</g>
<g>
</g>
<g>
</g>
</svg>
