<?xml version="1.0" encoding="iso-8859-1"?>
<!-- Generator: Adobe Illustrator 18.0.0, SVG Export Plug-In . SVG Version: 6.00 Build 0)  -->
<!DOCTYPE svg PUBLIC "-//W3C//DTD SVG 1.1//EN" "http://www.w3.org/Graphics/SVG/1.1/DTD/svg11.dtd">
<svg version="1.1" id="Capa_1" xmlns="http://www.w3.org/2000/svg" xmlns:xlink="http://www.w3.org/1999/xlink" x="0px" y="0px"
	 viewBox="0 0 57.98 57.98" style="enable-background:new 0 0 57.98 57.98;" xml:space="preserve">
<g>
	<path style="fill:#AC744F;" d="M54.295,17.98c-0.62-4.487-2.586-7.48-4.471-9.034c-0.916-0.755-1.439-1.852-1.735-3.001
		c-0.799-3.102-3.738-4.757-6.794-4.965c-1.947-0.133-3.646,0.484-5.589,1.261c-0.611,0.244-1.352-0.01-1.584-0.626
		c-1.194-3.171-8.034-1.545-13.249,3.75c-0.25,0.254-0.684,0.125-0.734-0.228c-0.173-1.23-0.263-3.448,1.155-4.157
		c0,0-4.407-2.479-8.186,0.826c-1.152,1.008-1.905,2.394-2.289,3.875c-0.092,0.355-0.186,0.734-0.269,1.107
		c-0.232,1.033-1.557,1.385-2.238,0.573C8.3,7.345,8.286,7.328,8.273,7.311C7.635,6.533,6.412,6.654,6.014,7.578
		C3.893,12.5,0.604,23.537,8.295,32.98V20.454c1.406-0.518,3.324-1.526,5-3.474c0,0,3.25,2.25,11,3c0,0,4.167-5.667,15-4
		c0,0,2.917,6.75,11,2v15C50.295,32.98,55.648,27.765,54.295,17.98z"/>
	<path style="fill:#FFDB2B;" d="M39.295,15.98c-10.833-1.667-15,4-15,4c-7.75-0.75-11-3-11-3c-1.676,1.948-3.594,2.956-5,3.474
		V32.98v17c0,2.2,1.8,4,4,4h34c2.2,0,4-1.8,4-4v-17v-15C42.212,22.73,39.295,15.98,39.295,15.98z"/>
	<path style="fill:#F18D46;" d="M20.758,48.534c-0.156,0-0.313-0.036-0.461-0.113c-0.49-0.255-0.68-0.859-0.424-1.349
		c1.854-3.556,4.978-6.177,8.798-7.379c3.819-1.201,7.881-0.843,11.437,1.011c0.49,0.255,0.68,0.859,0.424,1.349
		c-0.255,0.491-0.858,0.682-1.349,0.425c-3.082-1.606-6.602-1.918-9.912-0.876s-6.018,3.313-7.625,6.395
		C21.467,48.339,21.119,48.534,20.758,48.534z"/>
	<path style="fill:#F18D46;" d="M37.545,43.8c-0.552,0-1-0.447-1-1s0.448-1,1-1c0.992,0,1.8-0.808,1.8-1.8c0-0.553,0.448-1,1-1
		s1,0.447,1,1C41.345,42.096,39.64,43.8,37.545,43.8z"/>
	<path style="fill:#F18D46;" d="M22.144,49.4c-2.095,0-3.8-1.705-3.8-3.801c0-0.553,0.448-1,1-1s1,0.447,1,1
		c0,0.993,0.808,1.801,1.8,1.801c0.552,0,1,0.447,1,1S22.697,49.4,22.144,49.4z"/>
	<circle style="fill:#F0C419;" cx="38.345" cy="29" r="6"/>
	<path style="fill:#FEC722;" d="M40.99,57.98H17.601c-0.721,0-1.305-0.584-1.305-1.305V53.98h26v2.695
		C42.295,57.395,41.711,57.98,40.99,57.98z"/>
	<path style="fill:#FFFFFF;" d="M32.345,29c0,0.702,0.127,1.374,0.349,2h11.302c0.222-0.626,0.349-1.298,0.349-2
		s-0.127-1.374-0.349-2H32.693C32.472,27.626,32.345,28.298,32.345,29z"/>
	<circle style="fill:#556080;" cx="38.345" cy="29" r="2"/>
	<circle style="fill:#F0C419;" cx="20.345" cy="29" r="6"/>
	<path style="fill:#FFFFFF;" d="M14.345,29c0,0.702,0.127,1.374,0.349,2h11.302c0.222-0.626,0.349-1.298,0.349-2
		s-0.127-1.374-0.349-2H14.693C14.472,27.626,14.345,28.298,14.345,29z"/>
	<circle style="fill:#556080;" cx="20.345" cy="29" r="2"/>
</g>
<g>
</g>
<g>
</g>
<g>
</g>
<g>
</g>
<g>
</g>
<g>
</g>
<g>
</g>
<g>
</g>
<g>
</g>
<g>
</g>
<g>
</g>
<g>
</g>
<g>
</g>
<g>
</g>
<g>
</g>
</svg>
