<?xml version="1.0" encoding="iso-8859-1"?>
<!-- Generator: Adobe Illustrator 18.0.0, SVG Export Plug-In . SVG Version: 6.00 Build 0)  -->
<!DOCTYPE svg PUBLIC "-//W3C//DTD SVG 1.1//EN" "http://www.w3.org/Graphics/SVG/1.1/DTD/svg11.dtd">
<svg version="1.1" id="Capa_1" xmlns="http://www.w3.org/2000/svg" xmlns:xlink="http://www.w3.org/1999/xlink" x="0px" y="0px"
	 viewBox="0 0 58 58" style="enable-background:new 0 0 58 58;" xml:space="preserve">
<g>
	<path style="fill:#FDC794;" d="M29.392,54.999c11.246,0.156,17.52-4.381,21.008-9.189c3.603-4.966,4.764-11.283,3.647-17.323
		C50.004,6.641,29.392,6.826,29.392,6.826S8.781,6.641,4.738,28.487c-1.118,6.04,0.044,12.356,3.647,17.323
		C11.872,50.617,18.146,55.155,29.392,54.999z"/>
	<g>
		<path style="fill:#F9A671;" d="M7.71,36.696c0.18-0.19,0.29-0.45,0.29-0.71s-0.11-0.521-0.29-0.71c-0.37-0.37-1.05-0.37-1.42,0
			C6.109,35.465,6,35.726,6,35.986s0.109,0.52,0.29,0.71c0.189,0.18,0.45,0.29,0.71,0.29S7.52,36.876,7.71,36.696z"/>
		<path style="fill:#F9A671;" d="M11,37.986c0.26,0,0.52-0.11,0.71-0.29c0.18-0.19,0.29-0.45,0.29-0.71s-0.11-0.521-0.29-0.71
			c-0.38-0.37-1.05-0.37-1.42,0c-0.181,0.189-0.29,0.45-0.29,0.71s0.109,0.52,0.29,0.71C10.479,37.876,10.74,37.986,11,37.986z"/>
		<path style="fill:#F9A671;" d="M8.71,39.276c-0.38-0.37-1.05-0.37-1.42,0C7.1,39.465,7,39.715,7,39.986
			c0,0.27,0.109,0.52,0.29,0.71c0.189,0.18,0.439,0.29,0.71,0.29c0.26,0,0.52-0.11,0.71-0.29c0.18-0.19,0.29-0.44,0.29-0.71
			C9,39.715,8.899,39.465,8.71,39.276z"/>
		<path style="fill:#F9A671;" d="M11,40.986c0,0.26,0.109,0.52,0.29,0.71c0.189,0.189,0.45,0.29,0.71,0.29s0.52-0.11,0.71-0.29
			c0.18-0.19,0.29-0.45,0.29-0.71s-0.11-0.521-0.29-0.71c-0.38-0.37-1.03-0.38-1.42,0C11.109,40.465,11,40.715,11,40.986z"/>
		<path style="fill:#F9A671;" d="M10.71,43.276c-0.37-0.37-1.05-0.36-1.42,0C9.109,43.456,9,43.715,9,43.986
			c0,0.27,0.109,0.52,0.29,0.71c0.189,0.18,0.45,0.29,0.71,0.29s0.52-0.11,0.71-0.29c0.18-0.19,0.29-0.45,0.29-0.71
			C11,43.715,10.89,43.465,10.71,43.276z"/>
		<path style="fill:#F9A671;" d="M14.71,44.276c-0.38-0.37-1.05-0.37-1.42,0c-0.19,0.189-0.29,0.45-0.29,0.71s0.1,0.52,0.29,0.71
			c0.189,0.18,0.45,0.29,0.71,0.29s0.52-0.11,0.71-0.29c0.18-0.19,0.29-0.45,0.29-0.71S14.89,44.465,14.71,44.276z"/>
		<path style="fill:#F9A671;" d="M11.29,47.276c-0.19,0.189-0.29,0.45-0.29,0.71s0.109,0.52,0.29,0.71
			c0.189,0.18,0.45,0.29,0.71,0.29s0.52-0.11,0.71-0.29c0.18-0.19,0.29-0.45,0.29-0.71s-0.101-0.521-0.29-0.71
			C12.34,46.906,11.66,46.906,11.29,47.276z"/>
		<path style="fill:#F9A671;" d="M18.71,45.696c0.18-0.19,0.29-0.45,0.29-0.71c0-0.271-0.11-0.521-0.29-0.71
			c-0.38-0.37-1.05-0.37-1.42,0c-0.181,0.189-0.29,0.439-0.29,0.71c0,0.26,0.109,0.52,0.29,0.71c0.189,0.18,0.45,0.29,0.71,0.29
			S18.52,45.876,18.71,45.696z"/>
		<path style="fill:#F9A671;" d="M19.29,47.276c-0.19,0.189-0.29,0.45-0.29,0.71s0.1,0.52,0.29,0.71
			c0.189,0.18,0.439,0.29,0.71,0.29c0.26,0,0.52-0.11,0.71-0.29c0.18-0.19,0.29-0.45,0.29-0.71s-0.101-0.521-0.29-0.71
			C20.34,46.906,19.66,46.906,19.29,47.276z"/>
		<path style="fill:#F9A671;" d="M38.71,47.276c-0.37-0.37-1.05-0.37-1.42,0c-0.19,0.189-0.29,0.45-0.29,0.71s0.109,0.52,0.29,0.71
			c0.189,0.18,0.439,0.29,0.71,0.29c0.26,0,0.52-0.11,0.71-0.29c0.18-0.19,0.29-0.45,0.29-0.71S38.899,47.465,38.71,47.276z"/>
		<path style="fill:#F9A671;" d="M34.189,49.776c-0.189,0.189-0.29,0.439-0.29,0.71c0,0.27,0.11,0.52,0.29,0.71
			c0.19,0.18,0.45,0.29,0.71,0.29c0.261,0,0.521-0.11,0.71-0.29c0.181-0.19,0.29-0.45,0.29-0.71s-0.109-0.521-0.29-0.71
			C35.229,49.406,34.56,49.406,34.189,49.776z"/>
		<path style="fill:#F9A671;" d="M22.229,50.076c-0.18,0.189-0.29,0.439-0.29,0.71c0,0.26,0.11,0.52,0.29,0.7
			c0.19,0.189,0.45,0.3,0.71,0.3c0.261,0,0.521-0.11,0.71-0.3c0.181-0.181,0.29-0.44,0.29-0.7c0-0.271-0.109-0.53-0.29-0.71
			C23.27,49.706,22.6,49.706,22.229,50.076z"/>
		<path style="fill:#F9A671;" d="M25.229,48.076c-0.18,0.189-0.29,0.439-0.29,0.71c0,0.26,0.11,0.52,0.29,0.7
			c0.19,0.189,0.44,0.3,0.71,0.3c0.271,0,0.521-0.11,0.71-0.3c0.181-0.19,0.29-0.44,0.29-0.7c0-0.271-0.109-0.521-0.29-0.71
			C26.27,47.706,25.6,47.706,25.229,48.076z"/>
		<path style="fill:#F9A671;" d="M29.229,48.076c-0.18,0.18-0.29,0.439-0.29,0.71c0,0.26,0.11,0.52,0.29,0.7
			c0.181,0.189,0.44,0.3,0.71,0.3c0.271,0,0.521-0.11,0.71-0.3c0.181-0.181,0.29-0.44,0.29-0.7c0-0.271-0.109-0.53-0.29-0.71
			C30.28,47.706,29.6,47.706,29.229,48.076z"/>
		<path style="fill:#F9A671;" d="M34.649,48.486c0.181-0.181,0.29-0.44,0.29-0.7c0-0.271-0.109-0.521-0.29-0.71
			c-0.38-0.37-1.05-0.37-1.42,0c-0.189,0.189-0.29,0.439-0.29,0.71c0,0.26,0.101,0.52,0.29,0.7c0.19,0.189,0.45,0.3,0.71,0.3
			C34.2,48.786,34.46,48.675,34.649,48.486z"/>
		<path style="fill:#F9A671;" d="M18.29,50.276c-0.181,0.189-0.29,0.45-0.29,0.71s0.109,0.52,0.29,0.71
			c0.189,0.18,0.45,0.29,0.71,0.29s0.52-0.11,0.71-0.29c0.18-0.19,0.29-0.45,0.29-0.71s-0.11-0.521-0.29-0.71
			C19.34,49.906,18.66,49.906,18.29,50.276z"/>
		<path style="fill:#F9A671;" d="M39.29,50.276c-0.181,0.189-0.29,0.45-0.29,0.71s0.109,0.52,0.29,0.71
			c0.189,0.18,0.45,0.29,0.71,0.29s0.52-0.11,0.71-0.29c0.18-0.19,0.29-0.45,0.29-0.71s-0.11-0.521-0.29-0.71
			C40.33,49.906,39.66,49.906,39.29,50.276z"/>
		<path style="fill:#F9A671;" d="M15.29,47.276c-0.19,0.189-0.29,0.45-0.29,0.71s0.109,0.52,0.29,0.71
			c0.189,0.18,0.45,0.29,0.71,0.29s0.52-0.11,0.71-0.29c0.18-0.19,0.29-0.45,0.29-0.71s-0.101-0.51-0.29-0.71
			C16.34,46.906,15.66,46.906,15.29,47.276z"/>
		<path style="fill:#F9A671;" d="M52.71,35.276c-0.37-0.37-1.05-0.37-1.42,0c-0.181,0.189-0.29,0.45-0.29,0.71s0.109,0.52,0.29,0.71
			c0.189,0.18,0.45,0.29,0.71,0.29s0.52-0.11,0.71-0.29c0.18-0.19,0.29-0.45,0.29-0.71S52.89,35.465,52.71,35.276z"/>
		<path style="fill:#F9A671;" d="M48,37.986c0.26,0,0.52-0.101,0.71-0.29c0.18-0.19,0.29-0.45,0.29-0.71s-0.11-0.521-0.29-0.71
			c-0.391-0.37-1.05-0.37-1.42,0c-0.181,0.189-0.29,0.439-0.29,0.71c0,0.26,0.109,0.52,0.29,0.71
			C47.479,37.876,47.74,37.986,48,37.986z"/>
		<path style="fill:#F9A671;" d="M50.29,39.276c-0.19,0.189-0.29,0.45-0.29,0.71c0,0.27,0.109,0.52,0.29,0.71
			c0.189,0.18,0.439,0.29,0.71,0.29c0.26,0,0.52-0.11,0.71-0.29c0.18-0.19,0.29-0.44,0.29-0.71c0-0.26-0.101-0.521-0.29-0.71
			C51.34,38.906,50.66,38.906,50.29,39.276z"/>
		<path style="fill:#F9A671;" d="M47,41.986c0.26,0,0.52-0.11,0.71-0.29c0.18-0.19,0.29-0.45,0.29-0.71s-0.11-0.521-0.29-0.71
			c-0.38-0.37-1.04-0.37-1.42,0c-0.181,0.189-0.29,0.45-0.29,0.71s0.109,0.52,0.29,0.71C46.479,41.876,46.74,41.986,47,41.986z"/>
		<path style="fill:#F9A671;" d="M43,42.986c0.26,0,0.52-0.11,0.71-0.29c0.18-0.19,0.29-0.45,0.29-0.71s-0.11-0.521-0.29-0.71
			c-0.37-0.37-1.05-0.37-1.42,0c-0.181,0.189-0.29,0.45-0.29,0.71s0.109,0.52,0.29,0.71C42.479,42.876,42.74,42.986,43,42.986z"/>
		<path style="fill:#F9A671;" d="M48.29,43.276c-0.181,0.189-0.29,0.439-0.29,0.71c0,0.26,0.109,0.52,0.29,0.71
			c0.189,0.18,0.45,0.29,0.71,0.29s0.52-0.11,0.71-0.29c0.18-0.19,0.29-0.45,0.29-0.71c0-0.271-0.11-0.521-0.29-0.71
			C49.34,42.906,48.66,42.906,48.29,43.276z"/>
		<path style="fill:#F9A671;" d="M45.71,44.276c-0.38-0.37-1.04-0.37-1.42,0c-0.181,0.189-0.29,0.45-0.29,0.71s0.109,0.52,0.29,0.71
			c0.189,0.18,0.45,0.29,0.71,0.29s0.52-0.11,0.71-0.29c0.18-0.19,0.29-0.45,0.29-0.71S45.89,44.465,45.71,44.276z"/>
		<path style="fill:#F9A671;" d="M46.29,47.276C46.1,47.465,46,47.715,46,47.986c0,0.27,0.109,0.52,0.29,0.71
			c0.189,0.18,0.439,0.29,0.71,0.29c0.26,0,0.52-0.11,0.71-0.29c0.18-0.19,0.29-0.45,0.29-0.71c0-0.271-0.101-0.521-0.29-0.71
			C47.33,46.906,46.66,46.906,46.29,47.276z"/>
		<path style="fill:#F9A671;" d="M41.71,44.276c-0.38-0.37-1.05-0.37-1.42,0c-0.181,0.189-0.29,0.439-0.29,0.71
			c0,0.26,0.109,0.52,0.29,0.71c0.189,0.18,0.45,0.29,0.71,0.29s0.52-0.11,0.71-0.29c0.18-0.19,0.29-0.45,0.29-0.71
			S41.89,44.465,41.71,44.276z"/>
		<path style="fill:#F9A671;" d="M42.29,47.276c-0.19,0.189-0.29,0.45-0.29,0.71s0.109,0.52,0.29,0.71
			c0.189,0.18,0.45,0.29,0.71,0.29s0.52-0.11,0.71-0.29c0.18-0.19,0.29-0.45,0.29-0.71s-0.101-0.521-0.29-0.71
			C43.34,46.906,42.66,46.906,42.29,47.276z"/>
	</g>
	<path style="fill:#F9A671;" d="M16.294,20.998c-0.538,0-0.982-0.429-0.999-0.971c-0.016-0.552,0.419-1.013,0.971-1.029l6.705-0.197
		c0.01,0,0.02,0,0.03,0c0.538,0,0.982,0.429,0.999,0.971c0.016,0.552-0.419,1.013-0.971,1.029l-6.705,0.197
		C16.314,20.998,16.305,20.998,16.294,20.998z"/>
	<path style="fill:#F9A671;" d="M32.416,19.998c-0.245,0-0.49-0.09-0.684-0.27c-0.403-0.378-0.424-1.011-0.047-1.414l4.584-4.897
		c0.379-0.403,1.01-0.423,1.414-0.047c0.403,0.378,0.424,1.011,0.047,1.414l-4.584,4.897C32.949,19.892,32.683,19.998,32.416,19.998
		z"/>
	<path style="fill:#F9A671;" d="M4.499,30.124c-0.453-0.429-0.985-0.687-1.559-0.687C1.316,29.437,0,31.418,0,33.861
		c0,2.443,1.316,4.424,2.939,4.424c0.687,0,1.311-0.37,1.811-0.964C4.297,34.969,4.218,32.537,4.499,30.124z"/>
	<path style="fill:#F9A671;" d="M57.823,26.297c-0.563-2.377-2.3-3.999-3.879-3.622c-0.491,0.117-0.898,0.43-1.225,0.855
		c0.538,1.515,0.994,3.154,1.328,4.957c0.155,0.837,0.261,1.679,0.328,2.522c0.52,0.284,1.072,0.402,1.608,0.274
		C57.562,30.907,58.386,28.674,57.823,26.297z"/>
	<path style="fill:#5E5F62;" d="M13.9,16.998c-0.256,0-0.512-0.098-0.707-0.293l-5-5c-0.391-0.391-0.391-1.023,0-1.414
		s1.023-0.391,1.414,0l5,5c0.391,0.391,0.391,1.023,0,1.414C14.412,16.901,14.156,16.998,13.9,16.998z"/>
	<path style="fill:#5E5F62;" d="M16.901,13.998c-0.367,0-0.72-0.202-0.896-0.553l-3-6c-0.247-0.494-0.047-1.095,0.447-1.342
		c0.494-0.246,1.094-0.047,1.342,0.447l3,6c0.247,0.494,0.047,1.095-0.447,1.342C17.204,13.964,17.052,13.998,16.901,13.998z"/>
	<path style="fill:#5E5F62;" d="M20.9,11.998c-0.419,0-0.809-0.265-0.948-0.684l-2-6c-0.175-0.524,0.108-1.091,0.632-1.265
		c0.529-0.177,1.091,0.108,1.265,0.632l2,6c0.175,0.524-0.108,1.091-0.632,1.265C21.111,11.982,21.005,11.998,20.9,11.998z"/>
	<path style="fill:#5E5F62;" d="M25.899,10.998c-0.48,0-0.904-0.347-0.985-0.836l-1-6c-0.091-0.544,0.277-1.06,0.822-1.15
		c0.542-0.094,1.061,0.277,1.15,0.822l1,6c0.091,0.544-0.277,1.06-0.822,1.15C26.009,10.994,25.954,10.998,25.899,10.998z"/>
	<path style="fill:#5E5F62;" d="M29.9,10.998c-0.553,0-1-0.447-1-1v-6c0-0.553,0.447-1,1-1s1,0.447,1,1v6
		C30.9,10.551,30.453,10.998,29.9,10.998z"/>
	<path style="fill:#5E5F62;" d="M33.9,10.998c-0.104,0-0.211-0.017-0.316-0.052c-0.523-0.174-0.807-0.74-0.632-1.265l2-6
		c0.174-0.523,0.735-0.807,1.265-0.632c0.523,0.174,0.807,0.74,0.632,1.265l-2,6C34.709,10.734,34.319,10.998,33.9,10.998z"/>
	<path style="fill:#5E5F62;" d="M37.9,11.998c-0.104,0-0.211-0.017-0.316-0.052c-0.523-0.174-0.807-0.74-0.632-1.265l2-6
		c0.175-0.523,0.736-0.809,1.265-0.632c0.523,0.174,0.807,0.74,0.632,1.265l-2,6C38.709,11.734,38.319,11.998,37.9,11.998z"/>
	<path style="fill:#5E5F62;" d="M40.899,13.998c-0.15,0-0.303-0.034-0.446-0.105c-0.494-0.247-0.694-0.848-0.447-1.342l3-6
		c0.247-0.494,0.849-0.693,1.342-0.447c0.494,0.247,0.694,0.848,0.447,1.342l-3,6C41.619,13.796,41.267,13.998,40.899,13.998z"/>
	<path style="fill:#F9A671;" d="M23,44.498c-0.234,0-0.47-0.082-0.659-0.248c-0.415-0.364-0.457-0.996-0.093-1.411
		c2.795-3.19,9.652-7.985,15.595-3.293c0.433,0.343,0.507,0.972,0.165,1.405s-0.971,0.508-1.405,0.165
		c-5.947-4.698-12.781,2.963-12.851,3.041C23.555,44.383,23.277,44.498,23,44.498z"/>
	<path style="fill:#F9A671;" d="M24.999,45.998c-0.209,0-0.419-0.065-0.599-0.2l-4-3c-0.442-0.331-0.532-0.958-0.2-1.399
		c0.332-0.442,0.958-0.531,1.399-0.2l4,3c0.442,0.331,0.532,0.958,0.2,1.399C25.604,45.861,25.304,45.998,24.999,45.998z"/>
	<path style="fill:#F9A671;" d="M35.001,42.998c-0.305,0-0.604-0.138-0.801-0.4c-0.332-0.441-0.242-1.068,0.2-1.399l4-3
		c0.441-0.333,1.067-0.243,1.399,0.2c0.332,0.441,0.242,1.068-0.2,1.399l-4,3C35.42,42.933,35.21,42.998,35.001,42.998z"/>
	<circle style="fill:#FFFFFF;" cx="39.5" cy="23.498" r="4.5"/>
	<circle style="fill:#FFFFFF;" cx="20.5" cy="27.498" r="4.5"/>
	<g>
		<circle style="fill:#7F5B53;" cx="22" cy="27.998" r="1"/>
		<circle style="fill:#7F5B53;" cx="41" cy="23.998" r="1"/>
	</g>
</g>
<g>
</g>
<g>
</g>
<g>
</g>
<g>
</g>
<g>
</g>
<g>
</g>
<g>
</g>
<g>
</g>
<g>
</g>
<g>
</g>
<g>
</g>
<g>
</g>
<g>
</g>
<g>
</g>
<g>
</g>
</svg>
