<?xml version="1.0" encoding="iso-8859-1"?>
<!-- Generator: Adobe Illustrator 18.0.0, SVG Export Plug-In . SVG Version: 6.00 Build 0)  -->
<!DOCTYPE svg PUBLIC "-//W3C//DTD SVG 1.1//EN" "http://www.w3.org/Graphics/SVG/1.1/DTD/svg11.dtd">
<svg version="1.1" id="Capa_1" xmlns="http://www.w3.org/2000/svg" xmlns:xlink="http://www.w3.org/1999/xlink" x="0px" y="0px"
	 viewBox="0 0 50 50" style="enable-background:new 0 0 50 50;" xml:space="preserve">
<g>
	<g>
		<path style="fill:#FFD581;" d="M44,21.662c-0.223-1.261-0.559-2.476-0.991-3.64c-3.887,0.662-8.859,0.286-12.492-0.23
			c-2.426-0.345-4.765-1.064-7.062-1.918C14.712,12.62,3.051,21.048,3,21.338c-1.663,0.661-3,2.927-3,4.825
			c0,1.978,1.284,3.639,3.058,4.242C5.21,39.715,13.536,46.662,23.5,46.662c9.964,0,18.29-6.948,20.442-16.258
			C45.716,29.801,47,28.14,47,26.162C47,24.264,45.663,22.323,44,21.662z"/>
	</g>
	<circle style="fill:#7F6E5D;" cx="17" cy="26.338" r="2"/>
	<circle style="fill:#7F6E5D;" cx="31" cy="26.338" r="2"/>
	<path style="fill:#CB8252;" d="M24.902,41.339c-2.507,0-4.982-0.953-7.377-2.845c-0.434-0.343-0.507-0.972-0.165-1.405
		c0.342-0.435,0.971-0.506,1.404-0.165c2.416,1.908,4.882,2.686,7.326,2.326c4.567-0.682,7.697-5.13,7.729-5.175
		c0.313-0.454,0.936-0.566,1.391-0.254c0.454,0.313,0.569,0.936,0.256,1.39c-0.146,0.212-3.635,5.196-9.065,6.015
		C25.9,41.301,25.4,41.339,24.902,41.339z"/>
	<path style="fill:#CB8252;" d="M35.999,36.438c-0.208,0-0.419-0.065-0.599-0.2l-2.8-2.1c-0.442-0.331-0.531-0.958-0.2-1.399
		c0.332-0.442,0.958-0.53,1.4-0.2l2.8,2.1c0.442,0.331,0.531,0.958,0.2,1.399C36.604,36.3,36.303,36.438,35.999,36.438z"/>
	<path style="fill:#CB8252;" d="M16.401,39.238c-0.304,0-0.604-0.138-0.801-0.4c-0.331-0.441-0.242-1.068,0.2-1.399l2.8-2.1
		c0.443-0.33,1.069-0.242,1.4,0.2c0.331,0.441,0.242,1.068-0.2,1.399l-2.8,2.1C16.82,39.172,16.609,39.238,16.401,39.238z"/>
	<path style="fill:#7F6E5D;" d="M48.493,15.249c-2.458,3.872-12.024,3.39-17.976,2.543c-2.426-0.345-4.765-1.064-7.062-1.918
		C14.429,12.515,3,21.338,3,21.338S5.943,6.38,20.026,3.863c0,0,13.341-2.525,15.437,8.052c-0.693-3.984,1.976-7.775,5.96-8.468
		s7.775,1.976,8.468,5.96s-1.976,7.775-5.96,8.468"/>
</g>
<g>
</g>
<g>
</g>
<g>
</g>
<g>
</g>
<g>
</g>
<g>
</g>
<g>
</g>
<g>
</g>
<g>
</g>
<g>
</g>
<g>
</g>
<g>
</g>
<g>
</g>
<g>
</g>
<g>
</g>
</svg>
