<?xml version="1.0" encoding="iso-8859-1"?>
<!-- Generator: Adobe Illustrator 18.0.0, SVG Export Plug-In . SVG Version: 6.00 Build 0)  -->
<!DOCTYPE svg PUBLIC "-//W3C//DTD SVG 1.1//EN" "http://www.w3.org/Graphics/SVG/1.1/DTD/svg11.dtd">
<svg version="1.1" id="Capa_1" xmlns="http://www.w3.org/2000/svg" xmlns:xlink="http://www.w3.org/1999/xlink" x="0px" y="0px"
	 viewBox="0 0 54 54" style="enable-background:new 0 0 54 54;" xml:space="preserve">
<g>
	<path style="fill:#FFDB2B;" d="M44.871,0c3,7.833-5,9-5,9H14.178c0,0-8-1.167-5-9c0,0-3.156,1.41-3.299,12.448
		C5.853,12.63,5.822,12.811,5.822,13v33c0,2.2,1.8,4,4,4h34c2.2,0,4-1.8,4-4V20.538c0.017-0.177,0.033-0.351,0.049-0.538
		C49.371,2,44.871,0,44.871,0z"/>
	<path style="fill:#F0C419;" d="M36.822,39h-18c-0.553,0-1-0.447-1-1s0.447-1,1-1h18c0.553,0,1,0.447,1,1S37.375,39,36.822,39z"/>
	<polygon style="fill:#FFFFFF;" points="22.822,39 20.822,45 18.822,39 20.822,39 	"/>
	<polygon style="fill:#FFFFFF;" points="36.822,39 34.822,45 32.822,39 34.822,39 	"/>
	<g>
		<path style="fill:#556080;" d="M14.496,22.451c-0.419,0.577-0.674,1.281-0.674,2.049c0,1.933,1.567,3.5,3.5,3.5s3.5-1.567,3.5-3.5
			c0-0.198-0.027-0.388-0.058-0.577C18.563,24.253,16.179,23.758,14.496,22.451z"/>
	</g>
	<g>
		<path style="fill:#556080;" d="M40.148,22.451c0.419,0.577,0.674,1.281,0.674,2.049c0,1.933-1.567,3.5-3.5,3.5s-3.5-1.567-3.5-3.5
			c0-0.198,0.027-0.388,0.058-0.577C36.082,24.253,38.466,23.758,40.148,22.451z"/>
	</g>
	<path style="fill:#FEC722;" d="M38.517,54H15.128c-0.721,0-1.305-0.584-1.305-1.305V50h26v2.695C39.822,53.416,39.238,54,38.517,54
		z"/>
	<path style="fill:#FEC722;" d="M21.128,3h11.389c0.721,0,1.305,0.584,1.305,1.305V9h-14V4.305C19.822,3.584,20.407,3,21.128,3z"/>
	<path style="fill:#464F5D;" d="M22.821,23c-0.219,0-0.439-0.071-0.624-0.219l-5-4c-0.431-0.346-0.501-0.975-0.156-1.406
		c0.347-0.429,0.975-0.501,1.406-0.156l5,4c0.431,0.346,0.501,0.975,0.156,1.406C23.405,22.871,23.115,23,22.821,23z"/>
	<path style="fill:#464F5D;" d="M31.823,23c-0.294,0-0.584-0.128-0.782-0.375c-0.345-0.432-0.274-1.061,0.156-1.406l5-4
		c0.433-0.346,1.061-0.274,1.406,0.156c0.345,0.432,0.274,1.061-0.156,1.406l-5,4C32.263,22.929,32.042,23,31.823,23z"/>
</g>
<g>
</g>
<g>
</g>
<g>
</g>
<g>
</g>
<g>
</g>
<g>
</g>
<g>
</g>
<g>
</g>
<g>
</g>
<g>
</g>
<g>
</g>
<g>
</g>
<g>
</g>
<g>
</g>
<g>
</g>
</svg>
