<?xml version="1.0" encoding="iso-8859-1"?>
<!-- Generator: Adobe Illustrator 18.0.0, SVG Export Plug-In . SVG Version: 6.00 Build 0)  -->
<!DOCTYPE svg PUBLIC "-//W3C//DTD SVG 1.1//EN" "http://www.w3.org/Graphics/SVG/1.1/DTD/svg11.dtd">
<svg version="1.1" id="Capa_1" xmlns="http://www.w3.org/2000/svg" xmlns:xlink="http://www.w3.org/1999/xlink" x="0px" y="0px"
	 viewBox="0 0 42 42" style="enable-background:new 0 0 42 42;" xml:space="preserve">
<g>
	<circle style="fill:#FBD971;" cx="21" cy="21" r="21"/>
	<polygon style="fill:#E64C3C;" points="16,30 14,36 12,30 14,30 	"/>
	<polygon style="fill:#E64C3C;" points="30,30 28,36 26,30 28,30 	"/>
	<path style="fill:#F0C419;" d="M12.068,13.844c-0.956,0-1.913-0.374-2.659-1.121c-0.391-0.391-0.391-1.024,0-1.414
		c0.391-0.391,1.023-0.391,1.414,0c0.338,0.338,0.776,0.526,1.233,0.529c0.005,0,0.009,0,0.013,0c0.45,0,0.879-0.181,1.208-0.509
		c0.391-0.391,1.023-0.391,1.414,0s0.391,1.024,0,1.414C13.957,13.478,13.014,13.844,12.068,13.844z"/>
	<path style="fill:#F0C419;" d="M30.084,13.006c-0.955,0-1.912-0.374-2.659-1.121c-0.391-0.391-0.391-1.023,0-1.414
		s1.023-0.391,1.414,0c0.694,0.694,1.771,0.702,2.454,0.021c0.391-0.391,1.023-0.391,1.414,0s0.391,1.023,0,1.414
		C31.974,12.64,31.03,13.006,30.084,13.006z"/>
	<g>
		<path style="fill:#AF8066;" d="M7.674,15.451C7.255,16.028,7,16.732,7,17.5c0,1.933,1.567,3.5,3.5,3.5s3.5-1.567,3.5-3.5
			c0-0.198-0.027-0.388-0.058-0.577C11.741,17.253,9.356,16.758,7.674,15.451z"/>
	</g>
	<g>
		<path style="fill:#AF8066;" d="M34.326,15.451C34.745,16.028,35,16.732,35,17.5c0,1.933-1.567,3.5-3.5,3.5S28,19.433,28,17.5
			c0-0.198,0.027-0.388,0.058-0.577C30.259,17.253,32.644,16.758,34.326,15.451z"/>
	</g>
	<path style="fill:#F0C419;" d="M30,31H12c-0.553,0-1-0.447-1-1s0.447-1,1-1h18c0.553,0,1,0.447,1,1S30.553,31,30,31z"/>
</g>
<g>
</g>
<g>
</g>
<g>
</g>
<g>
</g>
<g>
</g>
<g>
</g>
<g>
</g>
<g>
</g>
<g>
</g>
<g>
</g>
<g>
</g>
<g>
</g>
<g>
</g>
<g>
</g>
<g>
</g>
</svg>
