<?xml version="1.0" encoding="iso-8859-1"?>
<!-- Generator: Adobe Illustrator 18.0.0, SVG Export Plug-In . SVG Version: 6.00 Build 0)  -->
<!DOCTYPE svg PUBLIC "-//W3C//DTD SVG 1.1//EN" "http://www.w3.org/Graphics/SVG/1.1/DTD/svg11.dtd">
<svg version="1.1" id="Capa_1" xmlns="http://www.w3.org/2000/svg" xmlns:xlink="http://www.w3.org/1999/xlink" x="0px" y="0px"
	 viewBox="0 0 44.656 44.656" style="enable-background:new 0 0 44.656 44.656;" xml:space="preserve">
<g>
	<path style="fill:#FBD971;" d="M27.262,41.609C36.945,39.74,43.328,31.229,43.328,21c0-11.598-9.402-21-21-21s-21,9.402-21,21
		c0,10.229,7.317,18.74,17,20.609"/>
	<path style="fill:#F29C1F;" d="M18.328,17c-0.552,0-1-0.448-1-1c0-1.654-1.346-3-3-3s-3,1.346-3,3c0,0.552-0.448,1-1,1
		s-1-0.448-1-1c0-2.757,2.243-5,5-5s5,2.243,5,5C19.328,16.552,18.88,17,18.328,17z"/>
	<circle style="fill:#FFFFFF;" cx="30.328" cy="15" r="6"/>
	<g>
		<path style="fill:#FB7B76;" d="M18.328,28v12.347c0,2.37,1.939,4.309,4.309,4.309h0.382c2.37,0,4.309-1.939,4.309-4.309l0-12.347
			H18.328z"/>
	</g>
	<circle style="fill:#AF8066;" cx="30.328" cy="15" r="3"/>
	<g>
		<path style="fill:#C03A2B;" d="M18.328,28h-7c0,4.662,2.905,8.637,7,10.239V28z"/>
		<path style="fill:#C03A2B;" d="M27.328,28v10c3.915-1.684,6-5.468,6-10H27.328z"/>
	</g>
	<path style="fill:#E64C3C;" d="M22.328,38c0,0.552,0.448,1,1,1s1-0.448,1-1c0-0.923-0.122-3.491-0.296-5.701
		c-0.175-2.217-0.326-3.532-0.564-4.299h-2.14c0,0.254,0.095,0.486,0.251,0.663C21.938,29.9,22.328,36.223,22.328,38z"/>
</g>
<g>
</g>
<g>
</g>
<g>
</g>
<g>
</g>
<g>
</g>
<g>
</g>
<g>
</g>
<g>
</g>
<g>
</g>
<g>
</g>
<g>
</g>
<g>
</g>
<g>
</g>
<g>
</g>
<g>
</g>
</svg>
