<?xml version="1.0" encoding="iso-8859-1"?>
<!-- Generator: Adobe Illustrator 18.0.0, SVG Export Plug-In . SVG Version: 6.00 Build 0)  -->
<!DOCTYPE svg PUBLIC "-//W3C//DTD SVG 1.1//EN" "http://www.w3.org/Graphics/SVG/1.1/DTD/svg11.dtd">
<svg version="1.1" id="Capa_1" xmlns="http://www.w3.org/2000/svg" xmlns:xlink="http://www.w3.org/1999/xlink" x="0px" y="0px"
	 viewBox="0 0 47 47" style="enable-background:new 0 0 47 47;" xml:space="preserve">
<g>
	<path style="fill:#FFD581;" d="M44,19.662L44,19.662c-1.74-9.843-10.158-17-20.5-17S4.74,9.819,3,19.662l0,0
		c-1.663,0.661-3,2.602-3,4.5c0,1.978,1.284,3.639,3.058,4.242C5.21,37.715,13.536,44.662,23.5,44.662
		c9.965,0,18.29-6.948,20.442-16.258l0,0.001C45.716,27.801,47,26.14,47,24.162C47,22.264,45.663,20.323,44,19.662z"/>
	<path style="fill:#CB8252;" d="M22.577,39.332c-1.514,0-3.021-0.29-4.41-0.869c-0.51-0.212-0.751-0.798-0.538-1.308
		c0.214-0.51,0.8-0.749,1.308-0.538c4.705,1.96,10.265-0.188,12.141-4.691c0.213-0.51,0.8-0.751,1.308-0.538
		c0.51,0.212,0.751,0.798,0.538,1.308c-1.126,2.702-3.318,4.789-6.175,5.875C25.412,39.079,23.991,39.332,22.577,39.332z"/>
	<circle style="fill:#414141;" cx="30" cy="26.338" r="2"/>
	<path style="fill:#414141;" d="M44,19.662l0,0.001C42.26,9.821,33.684,2.338,23.342,2.338S4.74,9.819,3,19.662
		c0,0,16.906,4.33,28.242-4.726c0.555-0.444,1.362-0.34,1.758,0.25C35.049,18.238,38.828,21.942,44,19.662z"/>
	<path style="fill:#CB8252;" d="M14.53,31.109c-0.081,0-0.162-0.01-0.244-0.03c-0.536-0.134-0.861-0.678-0.727-1.213
		c0.374-1.493,1.307-2.75,2.625-3.54c0.49-0.294,1.012-0.51,1.551-0.646c-1.216-0.561-2.714-0.584-3.844,0.094
		c-0.475,0.282-1.089,0.13-1.372-0.345c-0.283-0.474-0.129-1.088,0.345-1.372c1.302-0.778,2.963-0.997,4.559-0.597
		s2.957,1.376,3.737,2.678c0.207,0.347,0.186,0.785-0.056,1.109c-0.241,0.325-0.653,0.475-1.046,0.374
		c-2.008-0.498-4.055,0.722-4.56,2.731C15.386,30.806,14.978,31.109,14.53,31.109z"/>
</g>
<g>
</g>
<g>
</g>
<g>
</g>
<g>
</g>
<g>
</g>
<g>
</g>
<g>
</g>
<g>
</g>
<g>
</g>
<g>
</g>
<g>
</g>
<g>
</g>
<g>
</g>
<g>
</g>
<g>
</g>
</svg>
