<?xml version="1.0" encoding="iso-8859-1"?>
<!-- Generator: Adobe Illustrator 18.0.0, SVG Export Plug-In . SVG Version: 6.00 Build 0)  -->
<!DOCTYPE svg PUBLIC "-//W3C//DTD SVG 1.1//EN" "http://www.w3.org/Graphics/SVG/1.1/DTD/svg11.dtd">
<svg version="1.1" id="Capa_1" xmlns="http://www.w3.org/2000/svg" xmlns:xlink="http://www.w3.org/1999/xlink" x="0px" y="0px"
	 viewBox="0 0 57.98 57.98" style="enable-background:new 0 0 57.98 57.98;" xml:space="preserve">
<g>
	<path style="fill:#7F6E5D;" d="M54.295,17.98c-0.62-4.487-2.586-7.48-4.471-9.034c-0.916-0.755-1.439-1.852-1.735-3.001
		c-0.799-3.102-3.738-4.757-6.794-4.965c-1.947-0.133-3.646,0.484-5.589,1.261c-0.611,0.244-1.352-0.01-1.584-0.626
		c-1.194-3.171-8.034-1.545-13.249,3.75c-0.25,0.254-0.684,0.125-0.734-0.228c-0.173-1.23-0.263-3.448,1.155-4.157
		c0,0-4.407-2.479-8.186,0.826c-1.152,1.008-1.905,2.394-2.289,3.875c-0.092,0.355-0.186,0.734-0.269,1.107
		c-0.232,1.033-1.557,1.385-2.238,0.573C8.3,7.345,8.286,7.328,8.273,7.311C7.635,6.533,6.412,6.654,6.014,7.578
		C3.893,12.5,0.604,23.537,8.295,32.98V20.454c1.406-0.518,3.324-1.526,5-3.474c0,0,3.25,2.25,11,3c0,0,4.167-5.667,15-4
		c0,0,2.917,6.75,11,2v15C50.295,32.98,55.648,27.765,54.295,17.98z"/>
	<path style="fill:#FFDB2B;" d="M39.295,15.98c-10.833-1.667-15,4-15,4c-7.75-0.75-11-3-11-3c-1.676,1.948-3.594,2.956-5,3.474
		V32.98v17c0,2.2,1.8,4,4,4h34c2.2,0,4-1.8,4-4v-17v-15C42.212,22.73,39.295,15.98,39.295,15.98z"/>
	<path style="fill:#E57E25;" d="M28.368,49.001c-2.507,0-4.982-0.953-7.378-2.845c-0.433-0.343-0.507-0.972-0.165-1.405
		c0.343-0.433,0.972-0.507,1.405-0.165c2.421,1.911,4.896,2.688,7.337,2.324c4.582-0.69,7.686-5.127,7.717-5.172
		c0.313-0.453,0.934-0.567,1.391-0.256c0.455,0.313,0.569,0.936,0.256,1.391c-0.146,0.212-3.635,5.196-9.064,6.015
		C29.365,48.963,28.866,49.001,28.368,49.001z"/>
	<path style="fill:#E57E25;" d="M39.464,44.1c-0.209,0-0.419-0.065-0.599-0.2l-2.8-2.1c-0.442-0.331-0.532-0.958-0.2-1.399
		c0.331-0.442,0.959-0.53,1.399-0.2l2.8,2.1c0.442,0.331,0.532,0.958,0.2,1.399C40.069,43.962,39.769,44.1,39.464,44.1z"/>
	<path style="fill:#E57E25;" d="M19.867,46.9c-0.304,0-0.604-0.138-0.801-0.399c-0.331-0.442-0.242-1.069,0.199-1.4l2.8-2.101
		c0.443-0.33,1.069-0.242,1.4,0.199c0.331,0.442,0.242,1.069-0.199,1.4l-2.8,2.101C20.286,46.835,20.076,46.9,19.867,46.9z"/>
	<path style="fill:#F0C419;" d="M23.933,34c-0.282,0-0.558-0.12-0.751-0.339c-1.82-2.069-4.986-2.271-7.056-0.449
		c-0.415,0.363-1.046,0.325-1.412-0.09c-0.364-0.415-0.324-1.047,0.09-1.412c2.189-1.926,5.251-2.236,7.72-1.024
		c-0.238-0.555-0.573-1.086-0.994-1.564c-0.978-1.11-2.292-1.795-3.606-1.878c-0.551-0.035-0.97-0.51-0.935-1.062
		c0.034-0.551,0.508-0.954,1.062-0.935c1.84,0.117,3.655,1.047,4.98,2.553c1.325,1.505,2.018,3.424,1.9,5.264
		c-0.025,0.403-0.292,0.752-0.675,0.883C24.15,33.982,24.042,34,23.933,34z"/>
	<circle style="fill:#FFFFFF;" cx="38.295" cy="29.98" r="6"/>
	<circle style="fill:#556080;" cx="38.295" cy="29.98" r="2"/>
	<path style="fill:#FEC722;" d="M40.99,57.98H17.601c-0.721,0-1.305-0.584-1.305-1.305V53.98h26v2.695
		C42.295,57.395,41.711,57.98,40.99,57.98z"/>
</g>
<g>
</g>
<g>
</g>
<g>
</g>
<g>
</g>
<g>
</g>
<g>
</g>
<g>
</g>
<g>
</g>
<g>
</g>
<g>
</g>
<g>
</g>
<g>
</g>
<g>
</g>
<g>
</g>
<g>
</g>
</svg>
