<?xml version="1.0" encoding="iso-8859-1"?>
<!-- Generator: Adobe Illustrator 18.0.0, SVG Export Plug-In . SVG Version: 6.00 Build 0)  -->
<!DOCTYPE svg PUBLIC "-//W3C//DTD SVG 1.1//EN" "http://www.w3.org/Graphics/SVG/1.1/DTD/svg11.dtd">
<svg version="1.1" id="Capa_1" xmlns="http://www.w3.org/2000/svg" xmlns:xlink="http://www.w3.org/1999/xlink" x="0px" y="0px"
	 viewBox="0 0 57 57" style="enable-background:new 0 0 57 57;" xml:space="preserve">
<g>
	<path style="fill:#6E5847;" d="M28.5,0C14.475,0,3,11.475,3,25.5V50c0,2.2,1.8,4,4,4h6.777c4.16,2.021,9.237,3,14.723,3
		s10.563-0.979,14.723-3H50c2.2,0,4-1.8,4-4V25.5C54,11.475,42.525,0,28.5,0z"/>
	<path style="fill:#FDC794;" d="M3.869,29.894C3.305,32.001,3,34.215,3,36.5C3,50.583,14.417,57,28.5,57S54,50.583,54,36.5
		C54,22.842,42.495,11.661,29,11h-1C14.505,11.661,3,22.842,3,36.5C3,50.583,14.417,57,28.5,57S54,50.583,54,36.5"/>
	<path style="fill:#F9A671;" d="M17,30c-0.552,0-1-0.447-1-1c0-2.914,1.79-5.418,4.328-6.47c-1.91-0.622-4.217-0.228-5.621,1.177
		c-0.391,0.391-1.023,0.391-1.414,0s-0.391-1.023,0-1.414c2.726-2.725,7.688-2.725,10.414,0c0.286,0.286,0.372,0.716,0.217,1.09
		C23.769,23.756,23.404,24,23,24c-2.757,0-5,2.243-5,5C18,29.553,17.552,30,17,30z"/>
	<path style="fill:#F9A671;" d="M40,30c-0.552,0-1-0.447-1-1c0-2.757-2.243-5-5-5c-0.404,0-0.769-0.244-0.924-0.617
		c-0.155-0.374-0.069-0.804,0.217-1.09c2.726-2.725,7.688-2.725,10.414,0c0.391,0.391,0.391,1.023,0,1.414s-1.023,0.391-1.414,0
		c-1.404-1.404-3.711-1.798-5.621-1.177C39.21,23.582,41,26.086,41,29C41,29.553,40.552,30,40,30z"/>
	<ellipse style="fill:#802D40;" cx="28" cy="41" rx="10.5" ry="11"/>
	<path style="fill:#E64C3C;" d="M28.023,52c2.719,0,5.189-1.092,7.054-2.869L35.023,49c0-3.568-3.134-6.461-7-6.461
		s-7,2.893-7,6.461L21,49.16C22.861,50.92,25.319,52,28.023,52z"/>
</g>
<g>
</g>
<g>
</g>
<g>
</g>
<g>
</g>
<g>
</g>
<g>
</g>
<g>
</g>
<g>
</g>
<g>
</g>
<g>
</g>
<g>
</g>
<g>
</g>
<g>
</g>
<g>
</g>
<g>
</g>
</svg>
