<?xml version="1.0" encoding="iso-8859-1"?>
<!-- Generator: Adobe Illustrator 18.0.0, SVG Export Plug-In . SVG Version: 6.00 Build 0)  -->
<!DOCTYPE svg PUBLIC "-//W3C//DTD SVG 1.1//EN" "http://www.w3.org/Graphics/SVG/1.1/DTD/svg11.dtd">
<svg version="1.1" id="Capa_1" xmlns="http://www.w3.org/2000/svg" xmlns:xlink="http://www.w3.org/1999/xlink" x="0px" y="0px"
	 viewBox="0 0 58 58" style="enable-background:new 0 0 58 58;" xml:space="preserve">
<g>
	<path style="fill:#FDC794;" d="M29.392,54.999c11.246,0.156,17.52-4.381,21.008-9.189c3.603-4.966,4.764-11.283,3.647-17.323
		C50.004,6.642,29.392,6.826,29.392,6.826S8.781,6.642,4.738,28.488c-1.118,6.04,0.044,12.356,3.647,17.323
		C11.872,50.618,18.146,55.155,29.392,54.999z"/>
	<path style="fill:#F9A671;" d="M4.499,30.125c-0.453-0.429-0.985-0.687-1.559-0.687C1.316,29.438,0,31.418,0,33.862
		c0,2.443,1.316,4.424,2.939,4.424c0.687,0,1.311-0.37,1.811-0.964C4.297,34.969,4.218,32.537,4.499,30.125z"/>
	<path style="fill:#F9A671;" d="M57.823,26.298c-0.563-2.377-2.3-3.999-3.879-3.622c-0.491,0.117-0.898,0.43-1.225,0.855
		c0.538,1.515,0.994,3.154,1.328,4.957c0.155,0.837,0.261,1.679,0.328,2.522c0.52,0.284,1.072,0.402,1.608,0.274
		C57.562,30.907,58.386,28.675,57.823,26.298z"/>
	<path style="fill:#5E5F62;" d="M13.9,16.998c-0.256,0-0.512-0.098-0.707-0.293l-5-5c-0.391-0.391-0.391-1.023,0-1.414
		s1.023-0.391,1.414,0l5,5c0.391,0.391,0.391,1.023,0,1.414C14.412,16.901,14.156,16.998,13.9,16.998z"/>
	<path style="fill:#5E5F62;" d="M16.901,13.998c-0.367,0-0.72-0.202-0.896-0.553l-3-6c-0.247-0.494-0.047-1.095,0.447-1.342
		c0.495-0.246,1.094-0.047,1.342,0.447l3,6c0.247,0.494,0.047,1.095-0.447,1.342C17.204,13.964,17.052,13.998,16.901,13.998z"/>
	<path style="fill:#5E5F62;" d="M20.9,11.998c-0.419,0-0.809-0.265-0.948-0.684l-2-6c-0.175-0.524,0.108-1.091,0.632-1.265
		c0.529-0.176,1.09,0.108,1.265,0.632l2,6c0.175,0.524-0.108,1.091-0.632,1.265C21.111,11.982,21.005,11.998,20.9,11.998z"/>
	<path style="fill:#5E5F62;" d="M25.899,10.998c-0.48,0-0.904-0.347-0.985-0.836l-1-6c-0.091-0.544,0.277-1.06,0.822-1.15
		c0.545-0.096,1.06,0.277,1.15,0.822l1,6c0.091,0.544-0.277,1.06-0.822,1.15C26.009,10.994,25.954,10.998,25.899,10.998z"/>
	<path style="fill:#5E5F62;" d="M29.9,10.998c-0.553,0-1-0.447-1-1v-6c0-0.553,0.447-1,1-1s1,0.447,1,1v6
		C30.9,10.551,30.453,10.998,29.9,10.998z"/>
	<path style="fill:#5E5F62;" d="M33.9,10.998c-0.104,0-0.211-0.017-0.316-0.052c-0.523-0.174-0.807-0.74-0.632-1.265l2-6
		c0.175-0.523,0.737-0.809,1.265-0.632c0.523,0.174,0.807,0.74,0.632,1.265l-2,6C34.709,10.734,34.319,10.998,33.9,10.998z"/>
	<path style="fill:#5E5F62;" d="M37.9,11.998c-0.104,0-0.211-0.017-0.316-0.052c-0.523-0.174-0.807-0.74-0.632-1.265l2-6
		c0.175-0.523,0.736-0.808,1.265-0.632c0.523,0.174,0.807,0.74,0.632,1.265l-2,6C38.709,11.734,38.319,11.998,37.9,11.998z"/>
	<path style="fill:#5E5F62;" d="M40.899,13.998c-0.15,0-0.303-0.034-0.446-0.105c-0.494-0.247-0.694-0.848-0.447-1.342l3-6
		c0.248-0.494,0.848-0.693,1.342-0.447c0.494,0.247,0.694,0.848,0.447,1.342l-3,6C41.619,13.796,41.267,13.998,40.899,13.998z"/>
	<path style="fill:#F9A671;" d="M18,28.003c-0.553,0-1-0.447-1-1c0-2.916,1.792-5.421,4.332-6.472
		c-0.573-0.188-1.194-0.288-1.832-0.288c-1.479,0-2.861,0.535-3.793,1.467c-0.391,0.391-1.023,0.391-1.414,0s-0.391-1.023,0-1.414
		c1.304-1.305,3.201-2.053,5.207-2.053s3.903,0.748,5.207,2.053c0.286,0.286,0.372,0.716,0.217,1.09s-0.52,0.617-0.924,0.617
		c-2.757,0-5,2.243-5,5C19,27.556,18.553,28.003,18,28.003z"/>
	<path style="fill:#F9A671;" d="M41,28.003c-0.553,0-1-0.447-1-1c0-2.757-2.243-5-5-5c-0.404,0-0.769-0.243-0.924-0.617
		s-0.069-0.804,0.217-1.09c1.304-1.305,3.201-2.053,5.207-2.053s3.903,0.748,5.207,2.053c0.391,0.391,0.391,1.023,0,1.414
		s-1.023,0.391-1.414,0c-0.932-0.932-2.314-1.467-3.793-1.467c-0.638,0-1.259,0.1-1.832,0.288C40.208,21.582,42,24.087,42,27.003
		C42,27.556,41.553,28.003,41,28.003z"/>
	<ellipse style="fill:#802D40;" cx="29" cy="39.003" rx="10.5" ry="11"/>
	<path style="fill:#E64C3C;" d="M29,50.003c2.719,0,5.189-1.092,7.054-2.869L36,47.003c0-3.568-3.134-6.461-7-6.461
		s-7,2.893-7,6.461l-0.023,0.16C23.838,48.923,26.296,50.003,29,50.003z"/>
</g>
<g>
</g>
<g>
</g>
<g>
</g>
<g>
</g>
<g>
</g>
<g>
</g>
<g>
</g>
<g>
</g>
<g>
</g>
<g>
</g>
<g>
</g>
<g>
</g>
<g>
</g>
<g>
</g>
<g>
</g>
</svg>
