<?xml version="1.0" encoding="iso-8859-1"?>
<!-- Generator: Adobe Illustrator 18.0.0, SVG Export Plug-In . SVG Version: 6.00 Build 0)  -->
<!DOCTYPE svg PUBLIC "-//W3C//DTD SVG 1.1//EN" "http://www.w3.org/Graphics/SVG/1.1/DTD/svg11.dtd">
<svg version="1.1" id="Capa_1" xmlns="http://www.w3.org/2000/svg" xmlns:xlink="http://www.w3.org/1999/xlink" x="0px" y="0px"
	 viewBox="0 0 42 42" style="enable-background:new 0 0 42 42;" xml:space="preserve">
<g>
	<circle style="fill:#FBD971;" cx="21" cy="21" r="21"/>
	<path style="fill:#F29C1F;" d="M10.828,17c-0.552,0-1-0.447-1-1c0-2.436,1.417-4.546,3.471-5.55
		c-1.519-0.367-3.259-0.006-4.35,1.084c-0.391,0.391-1.023,0.391-1.414,0s-0.391-1.023,0-1.414c2.4-2.401,6.772-2.4,9.173,0
		c0.286,0.286,0.372,0.716,0.217,1.09s-0.52,0.617-0.924,0.617c-2.301,0-4.172,1.872-4.172,4.173C11.828,16.553,11.38,17,10.828,17z
		"/>
	<path style="fill:#F29C1F;" d="M32.172,17.173c-0.552,0-1-0.447-1-1C31.172,13.872,29.301,12,27,12
		c-0.404,0-0.769-0.243-0.924-0.617s-0.069-0.804,0.217-1.09c2.4-2.4,6.772-2.4,9.173,0c0.391,0.391,0.391,1.023,0,1.414
		s-1.023,0.391-1.414,0c-1.09-1.091-2.83-1.452-4.35-1.084c2.053,1.004,3.471,3.114,3.471,5.55
		C33.172,16.726,32.725,17.173,32.172,17.173z"/>
	<ellipse style="fill:#C03A2B;" cx="21.069" cy="26.517" rx="9.052" ry="9.483"/>
	<path style="fill:#E64C3C;" d="M21.054,26.517c-3.706,0-6.731,2.66-6.976,6.023c1.296,1.649,3.114,2.832,5.189,3.271
		c0.581,0.105,1.177,0.168,1.787,0.168c0.643,0,1.27-0.066,1.88-0.182c2.034-0.446,3.817-1.607,5.098-3.222
		C27.805,29.195,24.772,26.517,21.054,26.517z"/>
</g>
<g>
</g>
<g>
</g>
<g>
</g>
<g>
</g>
<g>
</g>
<g>
</g>
<g>
</g>
<g>
</g>
<g>
</g>
<g>
</g>
<g>
</g>
<g>
</g>
<g>
</g>
<g>
</g>
<g>
</g>
</svg>
