<?xml version="1.0" encoding="iso-8859-1"?>
<!-- Generator: Adobe Illustrator 18.0.0, SVG Export Plug-In . SVG Version: 6.00 Build 0)  -->
<!DOCTYPE svg PUBLIC "-//W3C//DTD SVG 1.1//EN" "http://www.w3.org/Graphics/SVG/1.1/DTD/svg11.dtd">
<svg version="1.1" id="Capa_1" xmlns="http://www.w3.org/2000/svg" xmlns:xlink="http://www.w3.org/1999/xlink" x="0px" y="0px"
	 viewBox="0 0 57.615 57.615" style="enable-background:new 0 0 57.615 57.615;" xml:space="preserve">
<g>
	<path style="fill:#FFDB2B;" d="M37.807,15.615c-10.833-1.667-15,4-15,4c-7.75-0.75-11-3-11-3c-1.676,1.948-3.594,2.956-5,3.474
		v12.526v17c0,2.2,1.8,4,4,4h34c2.2,0,4-1.8,4-4v-17v-15C40.724,22.365,37.807,15.615,37.807,15.615z"/>
	<path style="fill:#5E5F62;" d="M28.807,0c-4.493,0-8.725,0.981-12.451,2.707L15.807,6c0,0-0.822-1.121-1.608-2.178
		c-1.631,0.935-3.146,2.017-4.511,3.233L11.807,12l-5.018-1.882C3.656,14.038,1.807,18.825,1.807,24c0,0.183,0.02,0.361,0.024,0.542
		c0.442-0.153,3.953-1.357,4.976-1.743v-2.345c1.406-0.518,3.324-1.526,5-3.474c0,0,3.25,2.25,11,3c0,0,4.167-5.667,15-4
		c0,0,2.917,6.75,11,2v4.164c1.72,0.497,6.988,3.418,6.988,2.157c0.001-0.101,0.012-0.2,0.012-0.302
		C55.807,10.745,43.719,0,28.807,0z"/>
	<path style="fill:#F0C419;" d="M22.796,30.615c-0.282,0-0.557-0.12-0.75-0.339c-0.883-1.004-2.103-1.604-3.435-1.688
		c-1.333-0.095-2.618,0.354-3.622,1.238c-0.415,0.364-1.046,0.324-1.411-0.09c-0.365-0.415-0.325-1.047,0.09-1.412
		c1.404-1.237,3.206-1.855,5.07-1.732c0.935,0.06,1.831,0.3,2.647,0.701c-0.238-0.552-0.572-1.081-0.992-1.558
		c-0.977-1.11-2.292-1.795-3.606-1.878c-0.551-0.035-0.97-0.51-0.935-1.062c0.035-0.551,0.506-0.969,1.062-0.935
		c1.84,0.117,3.656,1.047,4.981,2.553c1.325,1.505,2.018,3.424,1.9,5.264c-0.026,0.403-0.292,0.752-0.675,0.883
		C23.013,30.597,22.904,30.615,22.796,30.615z"/>
	<path style="fill:#F0C419;" d="M32.819,30.615c-0.108,0-0.217-0.018-0.323-0.054c-0.383-0.131-0.649-0.479-0.675-0.883
		c-0.117-1.84,0.576-3.759,1.9-5.264c1.325-1.506,3.141-2.436,4.981-2.553c0.541-0.036,1.026,0.384,1.062,0.935
		c0.035,0.552-0.384,1.026-0.935,1.062c-1.315,0.083-2.629,0.768-3.606,1.878c-0.42,0.477-0.754,1.006-0.992,1.558
		c0.816-0.401,1.712-0.642,2.647-0.701c1.868-0.125,3.666,0.496,5.07,1.732c0.415,0.365,0.455,0.997,0.09,1.412
		c-0.365,0.414-0.996,0.454-1.411,0.09c-1.003-0.883-2.288-1.336-3.622-1.238c-1.332,0.084-2.552,0.684-3.435,1.688
		C33.376,30.495,33.101,30.615,32.819,30.615z"/>
	<ellipse style="fill:#802D40;" cx="28.307" cy="42.758" rx="7.5" ry="7.857"/>
	<path style="fill:#FEC722;" d="M40.551,57.615H17.162c-0.721,0-1.305-0.584-1.305-1.305v-2.695h26v2.695
		C41.857,57.03,41.272,57.615,40.551,57.615z"/>
	<path style="fill:#E64C3C;" d="M28.307,50.615c1.949,0,3.718-0.785,5.051-2.062l-0.051-0.081c0-2.549-2.239-4.615-5-4.615
		s-5,2.066-5,4.615l-0.012,0.119C24.625,49.845,26.378,50.615,28.307,50.615z"/>
</g>
<g>
</g>
<g>
</g>
<g>
</g>
<g>
</g>
<g>
</g>
<g>
</g>
<g>
</g>
<g>
</g>
<g>
</g>
<g>
</g>
<g>
</g>
<g>
</g>
<g>
</g>
<g>
</g>
<g>
</g>
</svg>
