<?xml version="1.0" encoding="iso-8859-1"?>
<!-- Generator: Adobe Illustrator 18.0.0, SVG Export Plug-In . SVG Version: 6.00 Build 0)  -->
<!DOCTYPE svg PUBLIC "-//W3C//DTD SVG 1.1//EN" "http://www.w3.org/Graphics/SVG/1.1/DTD/svg11.dtd">
<svg version="1.1" id="Capa_1" xmlns="http://www.w3.org/2000/svg" xmlns:xlink="http://www.w3.org/1999/xlink" x="0px" y="0px"
	 viewBox="0 0 58 58" style="enable-background:new 0 0 58 58;" xml:space="preserve">
<g>
	<path style="fill:#FDC794;" d="M29.392,54.999c11.246,0.156,17.52-4.381,21.008-9.189c3.603-4.966,4.764-11.283,3.647-17.323
		C50.004,6.642,29.392,6.826,29.392,6.826S8.781,6.642,4.738,28.488c-1.118,6.04,0.044,12.356,3.647,17.323
		C11.872,50.618,18.146,55.155,29.392,54.999z"/>
	<path style="fill:#F9A671;" d="M4.499,30.125c-0.453-0.429-0.985-0.687-1.559-0.687C1.316,29.438,0,31.418,0,33.862
		c0,2.443,1.316,4.424,2.939,4.424c0.687,0,1.311-0.37,1.811-0.964C4.297,34.97,4.218,32.538,4.499,30.125z"/>
	<path style="fill:#F9A671;" d="M57.823,26.298c-0.563-2.377-2.3-3.999-3.879-3.622c-0.491,0.117-0.898,0.43-1.225,0.855
		c0.538,1.515,0.994,3.154,1.328,4.957c0.155,0.837,0.261,1.679,0.328,2.522c0.52,0.284,1.072,0.402,1.608,0.274
		C57.562,30.907,58.386,28.675,57.823,26.298z"/>
	<path style="fill:#5E5F62;" d="M13.9,16.999c-0.256,0-0.512-0.098-0.707-0.293l-5-5c-0.391-0.391-0.391-1.023,0-1.414
		s1.023-0.391,1.414,0l5,5c0.391,0.391,0.391,1.023,0,1.414C14.412,16.901,14.156,16.999,13.9,16.999z"/>
	<path style="fill:#5E5F62;" d="M16.901,13.999c-0.367,0-0.72-0.202-0.896-0.553l-3-6c-0.247-0.494-0.047-1.095,0.447-1.342
		c0.495-0.247,1.095-0.047,1.342,0.447l3,6c0.247,0.494,0.047,1.095-0.447,1.342C17.204,13.965,17.051,13.999,16.901,13.999z"/>
	<path style="fill:#5E5F62;" d="M20.9,11.999c-0.419,0-0.809-0.265-0.949-0.684l-2-6c-0.175-0.524,0.108-1.091,0.632-1.265
		c0.525-0.177,1.09,0.108,1.265,0.632l2,6c0.175,0.524-0.108,1.091-0.632,1.265C21.112,11.982,21.005,11.999,20.9,11.999z"/>
	<path style="fill:#5E5F62;" d="M25.899,10.999c-0.48,0-0.904-0.347-0.985-0.836l-1-6c-0.091-0.544,0.277-1.06,0.822-1.15
		c0.549-0.098,1.06,0.278,1.151,0.822l1,6c0.091,0.544-0.277,1.06-0.822,1.15C26.009,10.995,25.954,10.999,25.899,10.999z"/>
	<path style="fill:#5E5F62;" d="M29.9,10.999c-0.552,0-1-0.447-1-1v-6c0-0.553,0.448-1,1-1s1,0.447,1,1v6
		C30.9,10.552,30.453,10.999,29.9,10.999z"/>
	<path style="fill:#5E5F62;" d="M33.9,10.999c-0.104,0-0.211-0.017-0.316-0.052c-0.524-0.174-0.807-0.74-0.632-1.265l2-6
		c0.174-0.523,0.739-0.807,1.265-0.632c0.524,0.174,0.807,0.74,0.632,1.265l-2,6C34.709,10.734,34.319,10.999,33.9,10.999z"/>
	<path style="fill:#5E5F62;" d="M37.9,11.999c-0.104,0-0.211-0.017-0.316-0.052c-0.524-0.174-0.807-0.74-0.632-1.265l2-6
		c0.175-0.523,0.738-0.809,1.265-0.632c0.524,0.174,0.807,0.74,0.632,1.265l-2,6C38.709,11.734,38.319,11.999,37.9,11.999z"/>
	<path style="fill:#5E5F62;" d="M40.899,13.999c-0.15,0-0.303-0.034-0.446-0.105c-0.494-0.247-0.694-0.848-0.447-1.342l3-6
		c0.247-0.494,0.846-0.694,1.342-0.447c0.494,0.247,0.694,0.848,0.447,1.342l-3,6C41.62,13.797,41.267,13.999,40.899,13.999z"/>
	<path style="fill:#802D40;" d="M22,46.998c0-3.019,4.789-8.082,10.696-8.082s10.696,5.062,10.696,8.082s-4.789-0.951-10.696-0.951
		S22,50.018,22,46.998z"/>
	<g>
		<path style="fill:#FFFFFF;" d="M16.944,23.778C16.349,24.709,16,25.812,16,26.999c0,3.314,2.686,6,6,6
			c2.983,0,5.451-2.179,5.915-5.031L17,23.999L16.944,23.778z"/>
		<path style="fill:#FFFFFF;" d="M42,21.999l-13.935,5.972c0.481,3.959,3.847,7.028,7.935,7.028c4.418,0,8-3.582,8-8
			c0-1.948-0.698-3.733-1.856-5.121L42,21.999z"/>
		<path style="fill:#F9A671;" d="M27.915,27.968L28,27.999l0.065-0.028C28.026,27.652,28,27.329,28,26.999
			C28,27.329,27.966,27.652,27.915,27.968z"/>
		<path style="fill:#F9A671;" d="M22,20.999c-2.127,0-3.991,1.11-5.056,2.779L17,23.999l10.915,3.969
			C27.966,27.652,28,27.329,28,26.999C28,23.685,25.314,20.999,22,20.999z"/>
		<path style="fill:#F9A671;" d="M42.144,21.878c-1.467-1.759-3.674-2.879-6.144-2.879c-4.418,0-8,3.582-8,8
			c0,0.33,0.026,0.653,0.065,0.972L42,21.999L42.144,21.878z"/>
		<circle style="fill:#7F5B53;" cx="23" cy="28.999" r="1"/>
		<circle style="fill:#7F5B53;" cx="33.5" cy="29.499" r="1.5"/>
	</g>
	<path style="fill:#E64C3C;" d="M38,40.998l0.841-0.21c-1.74-1.107-3.856-1.871-6.145-1.871c-2.123,0-4.096,0.66-5.76,1.637
		L27,40.998c0,1.105,2.462,2,5.5,2S38,42.103,38,40.998z"/>
</g>
<g>
</g>
<g>
</g>
<g>
</g>
<g>
</g>
<g>
</g>
<g>
</g>
<g>
</g>
<g>
</g>
<g>
</g>
<g>
</g>
<g>
</g>
<g>
</g>
<g>
</g>
<g>
</g>
<g>
</g>
</svg>
