<?xml version="1.0" encoding="iso-8859-1"?>
<!-- Generator: Adobe Illustrator 18.0.0, SVG Export Plug-In . SVG Version: 6.00 Build 0)  -->
<!DOCTYPE svg PUBLIC "-//W3C//DTD SVG 1.1//EN" "http://www.w3.org/Graphics/SVG/1.1/DTD/svg11.dtd">
<svg version="1.1" id="Capa_1" xmlns="http://www.w3.org/2000/svg" xmlns:xlink="http://www.w3.org/1999/xlink" x="0px" y="0px"
	 viewBox="0 0 51 51" style="enable-background:new 0 0 51 51;" xml:space="preserve">
<g>
	<g>
		<path style="fill:#FFDB2B;" d="M45.197,15.707c0.45-0.79,0.049-1.755-0.833-1.975C40.718,12.821,37.5,9.707,37.5,6h-29
			c-2.2,0-4,1.8-4,4v10c3.127,3.127,3.127,7.873,0,11v3.134c0,1.49,0.679,2.947,1.929,3.758c2.379,1.544,3.644,4.32,3.426,7.218
			C9.778,46.126,10.557,47,11.576,47H42.5c2.2,0,4-1.8,4-4V25.314C43.894,22.708,43.46,18.76,45.197,15.707z"/>
	</g>
	<path style="fill:#FEC722;" d="M37.195,51H13.805c-0.721,0-1.305-0.584-1.305-1.305V47h26v2.695C38.5,50.416,37.916,51,37.195,51z"
		/>
	<path style="fill:#FEC722;" d="M19.805,0l11.389,0C31.916,0,32.5,0.584,32.5,1.305V6h-14V1.305C18.5,0.584,19.084,0,19.805,0z"/>
	<polygon style="fill:#E64C3C;" points="21.5,21 16.864,21 11.5,21 16.5,13 	"/>
	<polygon style="fill:#E64C3C;" points="39.5,21 34.864,21 29.5,21 34.5,13 	"/>
	<path style="fill:#FFFFFF;" d="M17.5,30.046c-2.216-0.284-2.89,0.675-4,5c-0.851,3.316,4.996,7.059,5.052,7
		c4.907-5.15,9.136-4.438,13.896,0c0.059,0.055,5.903-3.684,5.052-7c-1.11-4.325-1.784-5.284-4-5
		C28.519,30.685,22.481,30.685,17.5,30.046z"/>
	<path style="fill:#ECF0F1;" d="M18.5,43c-0.553,0-1-0.447-1-1V31c0-0.553,0.447-1,1-1s1,0.447,1,1v11
		C19.5,42.553,19.053,43,18.5,43z"/>
	<path style="fill:#ECF0F1;" d="M32.5,43c-0.553,0-1-0.447-1-1V31c0-0.553,0.447-1,1-1s1,0.447,1,1v11
		C33.5,42.553,33.053,43,32.5,43z"/>
	<path style="fill:#ECF0F1;" d="M25.5,39c-0.553,0-1-0.447-1-1v-7c0-0.553,0.447-1,1-1s1,0.447,1,1v7C26.5,38.553,26.053,39,25.5,39
		z"/>
	<path style="fill:#ECF0F1;" d="M36.5,36h-22c-0.553,0-1-0.447-1-1s0.447-1,1-1h22c0.553,0,1,0.447,1,1S37.053,36,36.5,36z"/>
	<path style="fill:#F0C419;" d="M18.55,43.047c-0.757,0-3.436-2.16-4.698-3.788c-1.229-1.584-1.673-3.085-1.32-4.461
		c1.01-3.937,1.77-6.169,5.096-5.744c4.805,0.617,10.941,0.617,15.746,0c3.327-0.424,4.086,1.81,5.096,5.743
		c0.354,1.377-0.091,2.878-1.319,4.462c-1.264,1.628-3.942,3.788-4.699,3.788c-0.253,0-0.5-0.098-0.685-0.271
		c-2.404-2.241-4.519-3.331-6.463-3.331c-1.946,0-3.918,1.076-6.027,3.29C19.087,42.934,18.823,43.047,18.55,43.047z M25.303,37.445
		c2.341,0,4.664,1.071,7.266,3.36c1.416-0.979,4.458-3.583,3.963-5.512C35.48,31.199,34.967,31,34.148,31
		c-0.161,0-0.334,0.014-0.521,0.038c-4.969,0.637-11.285,0.637-16.254,0C17.186,31.014,17.013,31,16.852,31
		c-0.818,0-1.332,0.199-2.383,4.295c-0.491,1.913,2.497,4.491,3.928,5.486C20.706,38.538,22.971,37.445,25.303,37.445z"/>
</g>
<g>
</g>
<g>
</g>
<g>
</g>
<g>
</g>
<g>
</g>
<g>
</g>
<g>
</g>
<g>
</g>
<g>
</g>
<g>
</g>
<g>
</g>
<g>
</g>
<g>
</g>
<g>
</g>
<g>
</g>
</svg>
